<?xml version="1.0" encoding="UTF-8" standalone="no"?>
<!DOCTYPE svg PUBLIC "-//W3C//DTD SVG 1.1//EN"
 "http://www.w3.org/Graphics/SVG/1.1/DTD/svg11.dtd">
<!-- Generated by graphviz version 2.38.0 (20140413.2041)
 -->
<!-- Title: wrap_180_cd&lt; short &gt; Pages: 1 -->
<svg width="1740pt" height="510pt"
 viewBox="0.00 0.00 1740.00 509.50" xmlns="http://www.w3.org/2000/svg" xmlns:xlink="http://www.w3.org/1999/xlink">
<g id="graph0" class="graph" transform="scale(1 1) rotate(0) translate(4 505.5)">
<title>wrap_180_cd&lt; short &gt;</title>
<polygon fill="white" stroke="none" points="-4,4 -4,-505.5 1736,-505.5 1736,4 -4,4"/>
<!-- Node1 -->
<g id="node1" class="node"><title>Node1</title>
<polygon fill="#bfbfbf" stroke="black" points="0,-183.5 0,-202.5 114,-202.5 114,-183.5 0,-183.5"/>
<text text-anchor="middle" x="57" y="-190.5" font-family="Helvetica,sans-Serif" font-size="10.00">wrap_180_cd&lt; short &gt;</text>
</g>
<!-- Node2 -->
<g id="node2" class="node"><title>Node2</title>
<g id="a_node2"><a xlink:href="$AP__Math_8h.html#a4e136782e86e2adaaf7f0f759067dfe1" xlink:title="wrap_180_cd">
<polygon fill="white" stroke="black" points="150,-183.5 150,-202.5 224,-202.5 224,-183.5 150,-183.5"/>
<text text-anchor="middle" x="187" y="-190.5" font-family="Helvetica,sans-Serif" font-size="10.00">wrap_180_cd</text>
</a>
</g>
</g>
<!-- Node1&#45;&gt;Node2 -->
<g id="edge1" class="edge"><title>Node1&#45;&gt;Node2</title>
<path fill="none" stroke="midnightblue" d="M124.395,-193C133.139,-193 141.823,-193 149.794,-193"/>
<polygon fill="midnightblue" stroke="midnightblue" points="124.143,-189.5 114.143,-193 124.143,-196.5 124.143,-189.5"/>
</g>
<!-- Node3 -->
<g id="node3" class="node"><title>Node3</title>
<g id="a_node3"><a xlink:href="$classAP__AHRS__DCM.html#a9e233265c2dacd046aa91ff34cc7f8a6" xlink:title="AP_AHRS_DCM::use_compass">
<polygon fill="white" stroke="black" points="260,-383.5 260,-402.5 419,-402.5 419,-383.5 260,-383.5"/>
<text text-anchor="middle" x="339.5" y="-390.5" font-family="Helvetica,sans-Serif" font-size="10.00">AP_AHRS_DCM::use_compass</text>
</a>
</g>
</g>
<!-- Node2&#45;&gt;Node3 -->
<g id="edge2" class="edge"><title>Node2&#45;&gt;Node3</title>
<path fill="none" stroke="midnightblue" d="M190.615,-212.726C196.43,-248.758 213.777,-325.42 260,-368 267.469,-374.88 276.833,-379.867 286.467,-383.482"/>
<polygon fill="midnightblue" stroke="midnightblue" points="194.035,-211.93 189.11,-202.55 187.111,-212.954 194.035,-211.93"/>
</g>
<!-- Node17 -->
<g id="node17" class="node"><title>Node17</title>
<g id="a_node17"><a xlink:href="$classAP__L1__Control.html#ac558013977299a03d6c8cdd61559561d" xlink:title="AP_L1_Control::get\l_yaw_sensor">
<polygon fill="white" stroke="black" points="288.5,-329 288.5,-359 390.5,-359 390.5,-329 288.5,-329"/>
<text text-anchor="start" x="296.5" y="-347" font-family="Helvetica,sans-Serif" font-size="10.00">AP_L1_Control::get</text>
<text text-anchor="middle" x="339.5" y="-336" font-family="Helvetica,sans-Serif" font-size="10.00">_yaw_sensor</text>
</a>
</g>
</g>
<!-- Node2&#45;&gt;Node17 -->
<g id="edge20" class="edge"><title>Node2&#45;&gt;Node17</title>
<path fill="none" stroke="midnightblue" d="M194.787,-212.257C205.016,-238.676 226.794,-286.057 260,-314 268.261,-320.951 278.305,-326.391 288.411,-330.611"/>
<polygon fill="midnightblue" stroke="midnightblue" points="197.977,-210.794 191.216,-202.636 191.414,-213.229 197.977,-210.794"/>
</g>
<!-- Node18 -->
<g id="node18" class="node"><title>Node18</title>
<g id="a_node18"><a xlink:href="$classAP__L1__Control.html#aaa154ba9c5957f90785c34ee554eca1c" xlink:title="AP_L1_Control::_prevent\l_indecision">
<polygon fill="white" stroke="black" points="472.5,-290 472.5,-320 598.5,-320 598.5,-290 472.5,-290"/>
<text text-anchor="start" x="480.5" y="-308" font-family="Helvetica,sans-Serif" font-size="10.00">AP_L1_Control::_prevent</text>
<text text-anchor="middle" x="535.5" y="-297" font-family="Helvetica,sans-Serif" font-size="10.00">_indecision</text>
</a>
</g>
</g>
<!-- Node2&#45;&gt;Node18 -->
<g id="edge30" class="edge"><title>Node2&#45;&gt;Node18</title>
<path fill="none" stroke="midnightblue" d="M197.454,-211.521C209.097,-232.176 230.954,-264.688 260,-280 326.249,-314.924 414.085,-316.491 472.356,-312.433"/>
<polygon fill="midnightblue" stroke="midnightblue" points="200.532,-209.855 192.703,-202.716 194.372,-213.179 200.532,-209.855"/>
</g>
<!-- Node22 -->
<g id="node22" class="node"><title>Node22</title>
<g id="a_node22"><a xlink:href="$classAP__L1__Control.html#af3e0818f4392d15406c730563d021ec5" xlink:title="AP_L1_Control::nav\l_bearing_cd">
<polygon fill="white" stroke="black" points="287.5,-241 287.5,-271 391.5,-271 391.5,-241 287.5,-241"/>
<text text-anchor="start" x="295.5" y="-259" font-family="Helvetica,sans-Serif" font-size="10.00">AP_L1_Control::nav</text>
<text text-anchor="middle" x="339.5" y="-248" font-family="Helvetica,sans-Serif" font-size="10.00">_bearing_cd</text>
</a>
</g>
</g>
<!-- Node2&#45;&gt;Node22 -->
<g id="edge26" class="edge"><title>Node2&#45;&gt;Node22</title>
<path fill="none" stroke="midnightblue" d="M217.388,-206.991C230.365,-213.033 245.855,-220.063 260,-226 272.108,-231.082 285.404,-236.298 297.558,-240.927"/>
<polygon fill="midnightblue" stroke="midnightblue" points="218.559,-203.674 208.019,-202.597 215.587,-210.012 218.559,-203.674"/>
</g>
<!-- Node24 -->
<g id="node24" class="node"><title>Node24</title>
<g id="a_node24"><a xlink:href="$classAP__L1__Control.html#aa2f2bd3cb4a12c876bd9ec115df61441" xlink:title="AP_L1_Control::target\l_bearing_cd">
<polygon fill="white" stroke="black" points="662,-203 662,-233 775,-233 775,-203 662,-203"/>
<text text-anchor="start" x="670" y="-221" font-family="Helvetica,sans-Serif" font-size="10.00">AP_L1_Control::target</text>
<text text-anchor="middle" x="718.5" y="-210" font-family="Helvetica,sans-Serif" font-size="10.00">_bearing_cd</text>
</a>
</g>
</g>
<!-- Node2&#45;&gt;Node24 -->
<g id="edge28" class="edge"><title>Node2&#45;&gt;Node24</title>
<path fill="none" stroke="midnightblue" d="M234.421,-196.399C242.927,-196.972 251.729,-197.532 260,-198 404.861,-206.195 575.69,-212.87 661.841,-216.027"/>
<polygon fill="midnightblue" stroke="midnightblue" points="234.464,-192.894 224.247,-195.699 233.984,-199.878 234.464,-192.894"/>
</g>
<!-- Node25 -->
<g id="node25" class="node"><title>Node25</title>
<g id="a_node25"><a xlink:href="$classAP__L1__Control.html#aac848632dc59271619005127e22e374d" xlink:title="AP_L1_Control::update\l_heading_hold">
<polygon fill="white" stroke="black" points="659.5,-154 659.5,-184 777.5,-184 777.5,-154 659.5,-154"/>
<text text-anchor="start" x="667.5" y="-172" font-family="Helvetica,sans-Serif" font-size="10.00">AP_L1_Control::update</text>
<text text-anchor="middle" x="718.5" y="-161" font-family="Helvetica,sans-Serif" font-size="10.00">_heading_hold</text>
</a>
</g>
</g>
<!-- Node2&#45;&gt;Node25 -->
<g id="edge31" class="edge"><title>Node2&#45;&gt;Node25</title>
<path fill="none" stroke="midnightblue" d="M234.444,-190.895C331.067,-186.515 553.52,-176.433 659.421,-171.632"/>
<polygon fill="midnightblue" stroke="midnightblue" points="234.226,-187.401 224.395,-191.35 234.543,-194.394 234.226,-187.401"/>
</g>
<!-- Node26 -->
<g id="node26" class="node"><title>Node26</title>
<g id="a_node26"><a xlink:href="$classAP__Landing__Deepstall.html#af3cde793ef57477c3468547de0a8a90f" xlink:title="AP_Landing_Deepstall\l::verify_land">
<polygon fill="white" stroke="black" points="281.5,-115 281.5,-145 397.5,-145 397.5,-115 281.5,-115"/>
<text text-anchor="start" x="289.5" y="-133" font-family="Helvetica,sans-Serif" font-size="10.00">AP_Landing_Deepstall</text>
<text text-anchor="middle" x="339.5" y="-122" font-family="Helvetica,sans-Serif" font-size="10.00">::verify_land</text>
</a>
</g>
</g>
<!-- Node2&#45;&gt;Node26 -->
<g id="edge33" class="edge"><title>Node2&#45;&gt;Node26</title>
<path fill="none" stroke="midnightblue" d="M217.388,-179.009C230.365,-172.967 245.855,-165.937 260,-160 272.108,-154.918 285.404,-149.702 297.558,-145.073"/>
<polygon fill="midnightblue" stroke="midnightblue" points="215.587,-175.988 208.019,-183.403 218.559,-182.326 215.587,-175.988"/>
</g>
<!-- Node28 -->
<g id="node28" class="node"><title>Node28</title>
<g id="a_node28"><a xlink:href="$AP__Math_8h.html#a8b6f71a42818d74fd8bfe348108942fa" xlink:title="is_negative">
<polygon fill="white" stroke="black" points="306.5,-76.5 306.5,-95.5 372.5,-95.5 372.5,-76.5 306.5,-76.5"/>
<text text-anchor="middle" x="339.5" y="-83.5" font-family="Helvetica,sans-Serif" font-size="10.00">is_negative</text>
</a>
</g>
</g>
<!-- Node2&#45;&gt;Node28 -->
<g id="edge35" class="edge"><title>Node2&#45;&gt;Node28</title>
<path fill="none" stroke="midnightblue" d="M198.184,-174.434C210.258,-154.211 232.283,-122.426 260,-105 273.889,-96.2679 291.479,-91.5488 306.487,-88.9985"/>
<polygon fill="midnightblue" stroke="midnightblue" points="195.026,-172.905 193.075,-183.319 201.094,-176.395 195.026,-172.905"/>
</g>
<!-- Node29 -->
<g id="node29" class="node"><title>Node29</title>
<g id="a_node29"><a xlink:href="$examples_2location_2location_8cpp.html#a18b394b760075c6e3788a2387b9c70a6" xlink:title="test_wrap_cd">
<polygon fill="white" stroke="black" points="302,-38.5 302,-57.5 377,-57.5 377,-38.5 302,-38.5"/>
<text text-anchor="middle" x="339.5" y="-45.5" font-family="Helvetica,sans-Serif" font-size="10.00">test_wrap_cd</text>
</a>
</g>
</g>
<!-- Node2&#45;&gt;Node29 -->
<g id="edge36" class="edge"><title>Node2&#45;&gt;Node29</title>
<path fill="none" stroke="midnightblue" d="M193.67,-173.527C202.858,-145.525 223.73,-94.2627 260,-67 271.993,-57.9852 287.675,-53.1869 301.866,-50.6553"/>
<polygon fill="midnightblue" stroke="midnightblue" points="190.246,-172.75 190.62,-183.338 196.931,-174.828 190.246,-172.75"/>
</g>
<!-- Node31 -->
<g id="node31" class="node"><title>Node31</title>
<g id="a_node31"><a xlink:href="$test__math_8cpp.html#a81c4c0a191a527f9a7d78149bc03b356" xlink:title="TEST">
<polygon fill="white" stroke="black" points="318.5,-0.5 318.5,-19.5 360.5,-19.5 360.5,-0.5 318.5,-0.5"/>
<text text-anchor="middle" x="339.5" y="-7.5" font-family="Helvetica,sans-Serif" font-size="10.00">TEST</text>
</a>
</g>
</g>
<!-- Node2&#45;&gt;Node31 -->
<g id="edge38" class="edge"><title>Node2&#45;&gt;Node31</title>
<path fill="none" stroke="midnightblue" d="M190.9,-173.249C197.067,-138.575 214.812,-66.8526 260,-29 276.339,-15.3138 300.949,-11.1817 318.249,-10.0831"/>
<polygon fill="midnightblue" stroke="midnightblue" points="187.386,-173.052 189.23,-183.485 194.295,-174.179 187.386,-173.052"/>
</g>
<!-- Node4 -->
<g id="node4" class="node"><title>Node4</title>
<g id="a_node4"><a xlink:href="$classAP__AHRS__DCM.html#a101f2aaddcc7e97e690924d4e9d7a191" xlink:title="AP_AHRS_DCM::drift\l_correction_yaw">
<polygon fill="white" stroke="black" points="478,-378 478,-408 593,-408 593,-378 478,-378"/>
<text text-anchor="start" x="486" y="-396" font-family="Helvetica,sans-Serif" font-size="10.00">AP_AHRS_DCM::drift</text>
<text text-anchor="middle" x="535.5" y="-385" font-family="Helvetica,sans-Serif" font-size="10.00">_correction_yaw</text>
</a>
</g>
</g>
<!-- Node3&#45;&gt;Node4 -->
<g id="edge3" class="edge"><title>Node3&#45;&gt;Node4</title>
<path fill="none" stroke="midnightblue" d="M429.33,-393C445.81,-393 462.606,-393 477.798,-393"/>
<polygon fill="midnightblue" stroke="midnightblue" points="429.128,-389.5 419.128,-393 429.128,-396.5 429.128,-389.5"/>
</g>
<!-- Node5 -->
<g id="node5" class="node"><title>Node5</title>
<g id="a_node5"><a xlink:href="$classAP__AHRS__DCM.html#a8c3304b59bc6a27f24c686985c100549" xlink:title="AP_AHRS_DCM::drift\l_correction">
<polygon fill="white" stroke="black" points="661,-364 661,-394 776,-394 776,-364 661,-364"/>
<text text-anchor="start" x="669" y="-382" font-family="Helvetica,sans-Serif" font-size="10.00">AP_AHRS_DCM::drift</text>
<text text-anchor="middle" x="718.5" y="-371" font-family="Helvetica,sans-Serif" font-size="10.00">_correction</text>
</a>
</g>
</g>
<!-- Node3&#45;&gt;Node5 -->
<g id="edge16" class="edge"><title>Node3&#45;&gt;Node5</title>
<path fill="none" stroke="midnightblue" d="M384.715,-381.021C405.818,-375.904 431.531,-370.532 455,-368 526.143,-360.324 544.549,-364.14 616,-368 630.602,-368.789 646.333,-370.212 660.95,-371.778"/>
<polygon fill="midnightblue" stroke="midnightblue" points="383.614,-377.688 374.755,-383.499 385.304,-384.481 383.614,-377.688"/>
</g>
<!-- Node14 -->
<g id="node14" class="node"><title>Node14</title>
<g id="a_node14"><a xlink:href="$classAP__AHRS__DCM.html#a436f1fa2ecf028ab6bcf5e344e5fddb9" xlink:title="AP_AHRS_DCM::wind_estimate">
<polygon fill="white" stroke="black" points="455,-476.5 455,-495.5 616,-495.5 616,-476.5 455,-476.5"/>
<text text-anchor="middle" x="535.5" y="-483.5" font-family="Helvetica,sans-Serif" font-size="10.00">AP_AHRS_DCM::wind_estimate</text>
</a>
</g>
</g>
<!-- Node3&#45;&gt;Node14 -->
<g id="edge17" class="edge"><title>Node3&#45;&gt;Node14</title>
<path fill="none" stroke="midnightblue" d="M360.325,-408.825C382.266,-425.594 419.267,-451.716 455,-467 463.872,-470.795 473.64,-473.914 483.202,-476.449"/>
<polygon fill="midnightblue" stroke="midnightblue" points="362.467,-406.057 352.422,-402.689 358.174,-411.587 362.467,-406.057"/>
</g>
<!-- Node16 -->
<g id="node16" class="node"><title>Node16</title>
<g id="a_node16"><a xlink:href="$classAP__AHRS__NavEKF.html#a4c1d09f4fe08c39172f7e6baab40cad2" xlink:title="AP_AHRS_NavEKF::use\l_compass">
<polygon fill="white" stroke="black" points="471.5,-427 471.5,-457 599.5,-457 599.5,-427 471.5,-427"/>
<text text-anchor="start" x="479.5" y="-445" font-family="Helvetica,sans-Serif" font-size="10.00">AP_AHRS_NavEKF::use</text>
<text text-anchor="middle" x="535.5" y="-434" font-family="Helvetica,sans-Serif" font-size="10.00">_compass</text>
</a>
</g>
</g>
<!-- Node3&#45;&gt;Node16 -->
<g id="edge19" class="edge"><title>Node3&#45;&gt;Node16</title>
<path fill="none" stroke="midnightblue" d="M388.066,-405.014C414.279,-411.635 447.066,-419.916 474.966,-426.963"/>
<polygon fill="midnightblue" stroke="midnightblue" points="388.918,-401.62 378.366,-402.564 387.204,-408.406 388.918,-401.62"/>
</g>
<!-- Node4&#45;&gt;Node5 -->
<g id="edge4" class="edge"><title>Node4&#45;&gt;Node5</title>
<path fill="none" stroke="midnightblue" d="M603.315,-387.832C622.246,-386.368 642.665,-384.788 660.929,-383.376"/>
<polygon fill="midnightblue" stroke="midnightblue" points="602.973,-384.348 593.273,-388.609 603.513,-391.327 602.973,-384.348"/>
</g>
<!-- Node6 -->
<g id="node6" class="node"><title>Node6</title>
<g id="a_node6"><a xlink:href="$classAP__AHRS__DCM.html#aa8a135d6852e94f279c0be3c8206bfdd" xlink:title="AP_AHRS_DCM::update">
<polygon fill="white" stroke="black" points="824,-369.5 824,-388.5 952,-388.5 952,-369.5 824,-369.5"/>
<text text-anchor="middle" x="888" y="-376.5" font-family="Helvetica,sans-Serif" font-size="10.00">AP_AHRS_DCM::update</text>
</a>
</g>
</g>
<!-- Node5&#45;&gt;Node6 -->
<g id="edge5" class="edge"><title>Node5&#45;&gt;Node6</title>
<path fill="none" stroke="midnightblue" d="M786.404,-379C798.713,-379 811.529,-379 823.728,-379"/>
<polygon fill="midnightblue" stroke="midnightblue" points="786.208,-375.5 776.208,-379 786.208,-382.5 786.208,-375.5"/>
</g>
<!-- Node7 -->
<g id="node7" class="node"><title>Node7</title>
<g id="a_node7"><a xlink:href="$classAP__AHRS__DCM.html#a4bbf9d7f853103c8c497b90ae726b1ac" xlink:title="AP_AHRS_DCM::get_gyro\l_drift">
<polygon fill="white" stroke="black" points="991,-408 991,-438 1127,-438 1127,-408 991,-408"/>
<text text-anchor="start" x="999" y="-426" font-family="Helvetica,sans-Serif" font-size="10.00">AP_AHRS_DCM::get_gyro</text>
<text text-anchor="middle" x="1059" y="-415" font-family="Helvetica,sans-Serif" font-size="10.00">_drift</text>
</a>
</g>
</g>
<!-- Node6&#45;&gt;Node7 -->
<g id="edge6" class="edge"><title>Node6&#45;&gt;Node7</title>
<path fill="none" stroke="midnightblue" d="M935.465,-391.097C955.453,-396.301 979.029,-402.439 1000.14,-407.935"/>
<polygon fill="midnightblue" stroke="midnightblue" points="936.23,-387.68 925.67,-388.547 934.466,-394.454 936.23,-387.68"/>
</g>
<!-- Node12 -->
<g id="node12" class="node"><title>Node12</title>
<g id="a_node12"><a xlink:href="$classAP__AHRS__NavEKF.html#a7ce0035d07be995b5f45ac6c711570ce" xlink:title="AP_AHRS_NavEKF::update_DCM">
<polygon fill="white" stroke="black" points="1163,-347.5 1163,-366.5 1333,-366.5 1333,-347.5 1163,-347.5"/>
<text text-anchor="middle" x="1248" y="-354.5" font-family="Helvetica,sans-Serif" font-size="10.00">AP_AHRS_NavEKF::update_DCM</text>
</a>
</g>
</g>
<!-- Node6&#45;&gt;Node12 -->
<g id="edge13" class="edge"><title>Node6&#45;&gt;Node12</title>
<path fill="none" stroke="midnightblue" d="M962.409,-374.489C1020.65,-370.91 1102.1,-365.905 1162.94,-362.165"/>
<polygon fill="midnightblue" stroke="midnightblue" points="961.946,-371.011 952.179,-375.117 962.375,-377.997 961.946,-371.011"/>
</g>
<!-- Node13 -->
<g id="node13" class="node"><title>Node13</title>
<g id="a_node13"><a xlink:href="$ModuleTest_8cpp.html#afe461d27b9c48d5921c00d521181f12f" xlink:title="loop">
<polygon fill="white" stroke="black" points="1041.5,-331.5 1041.5,-350.5 1076.5,-350.5 1076.5,-331.5 1041.5,-331.5"/>
<text text-anchor="middle" x="1059" y="-338.5" font-family="Helvetica,sans-Serif" font-size="10.00">loop</text>
</a>
</g>
</g>
<!-- Node6&#45;&gt;Node13 -->
<g id="edge15" class="edge"><title>Node6&#45;&gt;Node13</title>
<path fill="none" stroke="midnightblue" d="M941.534,-367.188C975.826,-359.477 1018.36,-349.914 1041.35,-344.743"/>
<polygon fill="midnightblue" stroke="midnightblue" points="940.634,-363.802 931.646,-369.411 942.17,-370.632 940.634,-363.802"/>
</g>
<!-- Node8 -->
<g id="node8" class="node"><title>Node8</title>
<g id="a_node8"><a xlink:href="$classAP__AHRS__NavEKF.html#a355d8890ddfaadaa9d8f694f780afbe6" xlink:title="AP_AHRS_NavEKF::get\l_gyro_drift">
<polygon fill="white" stroke="black" points="1185,-408 1185,-438 1311,-438 1311,-408 1185,-408"/>
<text text-anchor="start" x="1193" y="-426" font-family="Helvetica,sans-Serif" font-size="10.00">AP_AHRS_NavEKF::get</text>
<text text-anchor="middle" x="1248" y="-415" font-family="Helvetica,sans-Serif" font-size="10.00">_gyro_drift</text>
</a>
</g>
</g>
<!-- Node7&#45;&gt;Node8 -->
<g id="edge7" class="edge"><title>Node7&#45;&gt;Node8</title>
<path fill="none" stroke="midnightblue" d="M1137.48,-423C1153.22,-423 1169.58,-423 1184.71,-423"/>
<polygon fill="midnightblue" stroke="midnightblue" points="1137.25,-419.5 1127.25,-423 1137.25,-426.5 1137.25,-419.5"/>
</g>
<!-- Node9 -->
<g id="node9" class="node"><title>Node9</title>
<g id="a_node9"><a xlink:href="$classAP__AHRS__NavEKF.html#ac8111979c5dc37a55b2c50818534ea52" xlink:title="AP_AHRS_NavEKF::update">
<polygon fill="white" stroke="black" points="1519,-400.5 1519,-419.5 1661,-419.5 1661,-400.5 1519,-400.5"/>
<text text-anchor="middle" x="1590" y="-407.5" font-family="Helvetica,sans-Serif" font-size="10.00">AP_AHRS_NavEKF::update</text>
</a>
</g>
</g>
<!-- Node8&#45;&gt;Node9 -->
<g id="edge8" class="edge"><title>Node8&#45;&gt;Node9</title>
<path fill="none" stroke="midnightblue" d="M1321.31,-420.77C1367.56,-419.284 1428.82,-417.204 1483,-415 1494.6,-414.528 1506.91,-413.986 1518.87,-413.436"/>
<polygon fill="midnightblue" stroke="midnightblue" points="1320.97,-417.279 1311.09,-421.097 1321.19,-424.275 1320.97,-417.279"/>
</g>
<!-- Node10 -->
<g id="node10" class="node"><title>Node10</title>
<g id="a_node10"><a xlink:href="$AHRS__Test_8cpp.html#afe461d27b9c48d5921c00d521181f12f" xlink:title="loop">
<polygon fill="white" stroke="black" points="1697,-441.5 1697,-460.5 1732,-460.5 1732,-441.5 1697,-441.5"/>
<text text-anchor="middle" x="1714.5" y="-448.5" font-family="Helvetica,sans-Serif" font-size="10.00">loop</text>
</a>
</g>
</g>
<!-- Node8&#45;&gt;Node10 -->
<g id="edge10" class="edge"><title>Node8&#45;&gt;Node10</title>
<path fill="none" stroke="midnightblue" d="M1321.44,-427.93C1337.12,-428.969 1353.61,-430.041 1369,-431 1494.87,-438.849 1646.66,-447.312 1696.65,-450.073"/>
<polygon fill="midnightblue" stroke="midnightblue" points="1321.49,-424.425 1311.28,-427.254 1321.02,-431.41 1321.49,-424.425"/>
</g>
<!-- Node11 -->
<g id="node11" class="node"><title>Node11</title>
<g id="a_node11"><a xlink:href="$classAP__Module.html#a9b4f06b2556a122f11b92b7b29d462c4" xlink:title="AP_Module::call_hook\l_AHRS_update">
<polygon fill="white" stroke="black" points="1369,-375 1369,-405 1483,-405 1483,-375 1369,-375"/>
<text text-anchor="start" x="1377" y="-393" font-family="Helvetica,sans-Serif" font-size="10.00">AP_Module::call_hook</text>
<text text-anchor="middle" x="1426" y="-382" font-family="Helvetica,sans-Serif" font-size="10.00">_AHRS_update</text>
</a>
</g>
</g>
<!-- Node8&#45;&gt;Node11 -->
<g id="edge11" class="edge"><title>Node8&#45;&gt;Node11</title>
<path fill="none" stroke="midnightblue" d="M1320.88,-409.522C1336.85,-406.528 1353.56,-403.396 1368.79,-400.539"/>
<polygon fill="midnightblue" stroke="midnightblue" points="1320.23,-406.082 1311.05,-411.365 1321.52,-412.963 1320.23,-406.082"/>
</g>
<!-- Node9&#45;&gt;Node10 -->
<g id="edge9" class="edge"><title>Node9&#45;&gt;Node10</title>
<path fill="none" stroke="midnightblue" d="M1629.13,-422.763C1651.88,-430.376 1679.61,-439.657 1696.92,-445.449"/>
<polygon fill="midnightblue" stroke="midnightblue" points="1630.01,-419.364 1619.41,-419.509 1627.78,-426.002 1630.01,-419.364"/>
</g>
<!-- Node11&#45;&gt;Node9 -->
<g id="edge12" class="edge"><title>Node11&#45;&gt;Node9</title>
<path fill="none" stroke="midnightblue" d="M1493.35,-398.191C1501.78,-399.232 1510.42,-400.299 1518.91,-401.347"/>
<polygon fill="midnightblue" stroke="midnightblue" points="1493.56,-394.691 1483.21,-396.939 1492.7,-401.638 1493.56,-394.691"/>
</g>
<!-- Node12&#45;&gt;Node9 -->
<g id="edge14" class="edge"><title>Node12&#45;&gt;Node9</title>
<path fill="none" stroke="midnightblue" d="M1343.24,-352.41C1386.31,-352.299 1437.71,-354.977 1483,-365 1515.99,-372.302 1551.62,-389.574 1572.02,-400.471"/>
<polygon fill="midnightblue" stroke="midnightblue" points="1343.02,-348.912 1333.05,-352.489 1343.08,-355.912 1343.02,-348.912"/>
</g>
<!-- Node15 -->
<g id="node15" class="node"><title>Node15</title>
<g id="a_node15"><a xlink:href="$classAP__AHRS__NavEKF.html#a26168a6f7f3da768ae76083b5edc05b0" xlink:title="AP_AHRS_NavEKF::wind\l_estimate">
<polygon fill="white" stroke="black" points="652,-471 652,-501 785,-501 785,-471 652,-471"/>
<text text-anchor="start" x="660" y="-489" font-family="Helvetica,sans-Serif" font-size="10.00">AP_AHRS_NavEKF::wind</text>
<text text-anchor="middle" x="718.5" y="-478" font-family="Helvetica,sans-Serif" font-size="10.00">_estimate</text>
</a>
</g>
</g>
<!-- Node14&#45;&gt;Node15 -->
<g id="edge18" class="edge"><title>Node14&#45;&gt;Node15</title>
<path fill="none" stroke="midnightblue" d="M626.278,-486C634.922,-486 643.575,-486 651.922,-486"/>
<polygon fill="midnightblue" stroke="midnightblue" points="626.153,-482.5 616.153,-486 626.153,-489.5 626.153,-482.5"/>
</g>
<!-- Node17&#45;&gt;Node18 -->
<g id="edge21" class="edge"><title>Node17&#45;&gt;Node18</title>
<path fill="none" stroke="midnightblue" d="M400.601,-331.918C423.393,-327.336 449.379,-322.112 472.355,-317.493"/>
<polygon fill="midnightblue" stroke="midnightblue" points="399.826,-328.504 390.712,-333.906 401.206,-335.366 399.826,-328.504"/>
</g>
<!-- Node19 -->
<g id="node19" class="node"><title>Node19</title>
<g id="a_node19"><a xlink:href="$classAP__L1__Control.html#a9052f01ea019fb51432d3104cce0b6e8" xlink:title="AP_L1_Control::update\l_waypoint">
<polygon fill="white" stroke="black" points="659.5,-301 659.5,-331 777.5,-331 777.5,-301 659.5,-301"/>
<text text-anchor="start" x="667.5" y="-319" font-family="Helvetica,sans-Serif" font-size="10.00">AP_L1_Control::update</text>
<text text-anchor="middle" x="718.5" y="-308" font-family="Helvetica,sans-Serif" font-size="10.00">_waypoint</text>
</a>
</g>
</g>
<!-- Node18&#45;&gt;Node19 -->
<g id="edge22" class="edge"><title>Node18&#45;&gt;Node19</title>
<path fill="none" stroke="midnightblue" d="M608.823,-309.395C625.557,-310.412 643.157,-311.482 659.203,-312.457"/>
<polygon fill="midnightblue" stroke="midnightblue" points="608.731,-305.883 598.537,-308.77 608.306,-312.87 608.731,-305.883"/>
</g>
<!-- Node21 -->
<g id="node21" class="node"><title>Node21</title>
<g id="a_node21"><a xlink:href="$classAP__L1__Control.html#acc0860ec530ec9c9bec50a5701bb709e" xlink:title="AP_L1_Control::update\l_loiter">
<polygon fill="white" stroke="black" points="659.5,-252 659.5,-282 777.5,-282 777.5,-252 659.5,-252"/>
<text text-anchor="start" x="667.5" y="-270" font-family="Helvetica,sans-Serif" font-size="10.00">AP_L1_Control::update</text>
<text text-anchor="middle" x="718.5" y="-259" font-family="Helvetica,sans-Serif" font-size="10.00">_loiter</text>
</a>
</g>
</g>
<!-- Node18&#45;&gt;Node21 -->
<g id="edge24" class="edge"><title>Node18&#45;&gt;Node21</title>
<path fill="none" stroke="midnightblue" d="M608.35,-289.916C625.225,-286.373 643.005,-282.64 659.203,-279.239"/>
<polygon fill="midnightblue" stroke="midnightblue" points="607.604,-286.496 598.537,-291.976 609.043,-293.346 607.604,-286.496"/>
</g>
<!-- Node20 -->
<g id="node20" class="node"><title>Node20</title>
<g id="a_node20"><a xlink:href="$classAP__L1__Control.html#ae79ea97f3deaed8c09b32abe9f465c94" xlink:title="AP_L1_Control::crosstrack\l_error_integrator">
<polygon fill="white" stroke="black" points="821,-227 821,-257 955,-257 955,-227 821,-227"/>
<text text-anchor="start" x="829" y="-245" font-family="Helvetica,sans-Serif" font-size="10.00">AP_L1_Control::crosstrack</text>
<text text-anchor="middle" x="888" y="-234" font-family="Helvetica,sans-Serif" font-size="10.00">_error_integrator</text>
</a>
</g>
</g>
<!-- Node19&#45;&gt;Node20 -->
<g id="edge23" class="edge"><title>Node19&#45;&gt;Node20</title>
<path fill="none" stroke="midnightblue" d="M770.213,-297.126C775.232,-295.114 780.231,-293.052 785,-291 809.724,-280.365 837.198,-267.079 857.397,-257.026"/>
<polygon fill="midnightblue" stroke="midnightblue" points="768.612,-293.995 760.591,-300.917 771.178,-300.507 768.612,-293.995"/>
</g>
<!-- Node21&#45;&gt;Node20 -->
<g id="edge25" class="edge"><title>Node21&#45;&gt;Node20</title>
<path fill="none" stroke="midnightblue" d="M787.597,-256.836C798.608,-255.193 809.993,-253.494 820.954,-251.858"/>
<polygon fill="midnightblue" stroke="midnightblue" points="786.987,-253.388 777.613,-258.326 788.02,-260.312 786.987,-253.388"/>
</g>
<!-- Node23 -->
<g id="node23" class="node"><title>Node23</title>
<g id="a_node23"><a xlink:href="$classAP__L1__Control.html#a388f3d9e1ed09a5bd2444d4032d66239" xlink:title="AP_L1_Control::AP_L1\l_Control">
<polygon fill="white" stroke="black" points="476.5,-241 476.5,-271 594.5,-271 594.5,-241 476.5,-241"/>
<text text-anchor="start" x="484.5" y="-259" font-family="Helvetica,sans-Serif" font-size="10.00">AP_L1_Control::AP_L1</text>
<text text-anchor="middle" x="535.5" y="-248" font-family="Helvetica,sans-Serif" font-size="10.00">_Control</text>
</a>
</g>
</g>
<!-- Node22&#45;&gt;Node23 -->
<g id="edge27" class="edge"><title>Node22&#45;&gt;Node23</title>
<path fill="none" stroke="midnightblue" d="M401.739,-256C425.633,-256 452.894,-256 476.47,-256"/>
<polygon fill="midnightblue" stroke="midnightblue" points="401.725,-252.5 391.725,-256 401.725,-259.5 401.725,-252.5"/>
</g>
<!-- Node24&#45;&gt;Node20 -->
<g id="edge29" class="edge"><title>Node24&#45;&gt;Node20</title>
<path fill="none" stroke="midnightblue" d="M785.344,-227.434C796.971,-229.1 809.08,-230.835 820.719,-232.503"/>
<polygon fill="midnightblue" stroke="midnightblue" points="785.67,-223.945 775.275,-225.992 784.678,-230.875 785.67,-223.945"/>
</g>
<!-- Node25&#45;&gt;Node20 -->
<g id="edge32" class="edge"><title>Node25&#45;&gt;Node20</title>
<path fill="none" stroke="midnightblue" d="M772.024,-187.734C776.434,-189.462 780.807,-191.23 785,-193 809.795,-203.469 837.264,-216.766 857.443,-226.866"/>
<polygon fill="midnightblue" stroke="midnightblue" points="772.956,-184.343 762.366,-184.03 770.449,-190.879 772.956,-184.343"/>
</g>
<!-- Node27 -->
<g id="node27" class="node"><title>Node27</title>
<g id="a_node27"><a xlink:href="$classAP__Landing.html#afdbc34de818b9cb366336c23660fd495" xlink:title="AP_Landing::verify_land">
<polygon fill="white" stroke="black" points="474.5,-120.5 474.5,-139.5 596.5,-139.5 596.5,-120.5 474.5,-120.5"/>
<text text-anchor="middle" x="535.5" y="-127.5" font-family="Helvetica,sans-Serif" font-size="10.00">AP_Landing::verify_land</text>
</a>
</g>
</g>
<!-- Node26&#45;&gt;Node27 -->
<g id="edge34" class="edge"><title>Node26&#45;&gt;Node27</title>
<path fill="none" stroke="midnightblue" d="M407.763,-130C429.421,-130 453.269,-130 474.38,-130"/>
<polygon fill="midnightblue" stroke="midnightblue" points="407.657,-126.5 397.657,-130 407.657,-133.5 407.657,-126.5"/>
</g>
<!-- Node30 -->
<g id="node30" class="node"><title>Node30</title>
<g id="a_node30"><a xlink:href="$examples_2location_2location_8cpp.html#a4fc01d736fe50cf5b977f755b675f11d" xlink:title="setup">
<polygon fill="white" stroke="black" points="515,-38.5 515,-57.5 556,-57.5 556,-38.5 515,-38.5"/>
<text text-anchor="middle" x="535.5" y="-45.5" font-family="Helvetica,sans-Serif" font-size="10.00">setup</text>
</a>
</g>
</g>
<!-- Node29&#45;&gt;Node30 -->
<g id="edge37" class="edge"><title>Node29&#45;&gt;Node30</title>
<path fill="none" stroke="midnightblue" d="M387.694,-48C428.446,-48 485.293,-48 514.867,-48"/>
<polygon fill="midnightblue" stroke="midnightblue" points="387.447,-44.5001 377.447,-48 387.447,-51.5001 387.447,-44.5001"/>
</g>
</g>
</svg>
