<?xml version="1.0" encoding="UTF-8" standalone="no"?>
<!DOCTYPE svg PUBLIC "-//W3C//DTD SVG 1.1//EN"
 "http://www.w3.org/Graphics/SVG/1.1/DTD/svg11.dtd">
<!-- Generated by graphviz version 2.38.0 (20140413.2041)
 -->
<!-- Title: libraries/AP_ADC/AP_ADC_ADS1115.h Pages: 1 -->
<svg width="2123pt" height="251pt"
 viewBox="0.00 0.00 2122.50 251.00" xmlns="http://www.w3.org/2000/svg" xmlns:xlink="http://www.w3.org/1999/xlink">
<g id="graph0" class="graph" transform="scale(1 1) rotate(0) translate(4 247)">
<title>libraries/AP_ADC/AP_ADC_ADS1115.h</title>
<polygon fill="white" stroke="none" points="-4,4 -4,-247 2118.5,-247 2118.5,4 -4,4"/>
<!-- Node1 -->
<g id="node1" class="node"><title>Node1</title>
<polygon fill="#bfbfbf" stroke="black" points="1026,-212.5 1026,-242.5 1136,-242.5 1136,-212.5 1026,-212.5"/>
<text text-anchor="start" x="1034" y="-230.5" font-family="Helvetica,sans-Serif" font-size="10.00">libraries/AP_ADC/AP</text>
<text text-anchor="middle" x="1081" y="-219.5" font-family="Helvetica,sans-Serif" font-size="10.00">_ADC_ADS1115.h</text>
</g>
<!-- Node2 -->
<g id="node2" class="node"><title>Node2</title>
<g id="a_node2"><a xlink:href="$AP__ADC_8h.html" xlink:title="libraries/AP_ADC/AP\l_ADC.h">
<polygon fill="white" stroke="black" points="1026,-145.5 1026,-175.5 1136,-175.5 1136,-145.5 1026,-145.5"/>
<text text-anchor="start" x="1034" y="-163.5" font-family="Helvetica,sans-Serif" font-size="10.00">libraries/AP_ADC/AP</text>
<text text-anchor="middle" x="1081" y="-152.5" font-family="Helvetica,sans-Serif" font-size="10.00">_ADC.h</text>
</a>
</g>
</g>
<!-- Node1&#45;&gt;Node2 -->
<g id="edge1" class="edge"><title>Node1&#45;&gt;Node2</title>
<path fill="none" stroke="midnightblue" d="M1074.45,-202.403C1074.01,-193.37 1074.3,-183.408 1075.33,-175.577"/>
<polygon fill="midnightblue" stroke="midnightblue" points="1070.97,-202.736 1075.32,-212.396 1077.94,-202.131 1070.97,-202.736"/>
</g>
<!-- Node23 -->
<g id="node23" class="node"><title>Node23</title>
<g id="a_node23"><a xlink:href="$AP__ADC__ADS1115_8cpp.html" xlink:title="libraries/AP_ADC/AP\l_ADC_ADS1115.cpp">
<polygon fill="white" stroke="black" points="1154,-145.5 1154,-175.5 1264,-175.5 1264,-145.5 1154,-145.5"/>
<text text-anchor="start" x="1162" y="-163.5" font-family="Helvetica,sans-Serif" font-size="10.00">libraries/AP_ADC/AP</text>
<text text-anchor="middle" x="1209" y="-152.5" font-family="Helvetica,sans-Serif" font-size="10.00">_ADC_ADS1115.cpp</text>
</a>
</g>
</g>
<!-- Node1&#45;&gt;Node23 -->
<g id="edge25" class="edge"><title>Node1&#45;&gt;Node23</title>
<path fill="none" stroke="midnightblue" d="M1117.72,-207.853C1137.96,-197.576 1162.67,-185.025 1181.28,-175.577"/>
<polygon fill="midnightblue" stroke="midnightblue" points="1116.11,-204.747 1108.77,-212.396 1119.28,-210.989 1116.11,-204.747"/>
</g>
<!-- Node2&#45;&gt;Node1 -->
<g id="edge3" class="edge"><title>Node2&#45;&gt;Node1</title>
<path fill="none" stroke="midnightblue" d="M1087.54,-185.565C1087.99,-194.596 1087.71,-204.56 1086.68,-212.396"/>
<polygon fill="midnightblue" stroke="midnightblue" points="1091.03,-185.236 1086.67,-175.577 1084.05,-185.842 1091.03,-185.236"/>
</g>
<!-- Node3 -->
<g id="node3" class="node"><title>Node3</title>
<g id="a_node3"><a xlink:href="$AP__ADC_8cpp.html" xlink:title="libraries/AP_ADC/AP\l_ADC.cpp">
<polygon fill="white" stroke="black" points="0,-73 0,-103 110,-103 110,-73 0,-73"/>
<text text-anchor="start" x="8" y="-91" font-family="Helvetica,sans-Serif" font-size="10.00">libraries/AP_ADC/AP</text>
<text text-anchor="middle" x="55" y="-80" font-family="Helvetica,sans-Serif" font-size="10.00">_ADC.cpp</text>
</a>
</g>
</g>
<!-- Node2&#45;&gt;Node3 -->
<g id="edge2" class="edge"><title>Node2&#45;&gt;Node3</title>
<path fill="none" stroke="midnightblue" d="M1015.47,-158.195C827.98,-154.123 291.765,-140.022 119,-109 110.98,-107.56 102.56,-105.412 94.5596,-103.051"/>
<polygon fill="midnightblue" stroke="midnightblue" points="1015.65,-161.7 1025.73,-158.415 1015.81,-154.701 1015.65,-161.7"/>
</g>
<!-- Node4 -->
<g id="node4" class="node"><title>Node4</title>
<g id="a_node4"><a xlink:href="$AHRS__Test_8cpp.html" xlink:title="libraries/AP_AHRS/examples\l/AHRS_Test/AHRS_Test.cpp">
<polygon fill="white" stroke="black" points="128,-73 128,-103 276,-103 276,-73 128,-73"/>
<text text-anchor="start" x="136" y="-91" font-family="Helvetica,sans-Serif" font-size="10.00">libraries/AP_AHRS/examples</text>
<text text-anchor="middle" x="202" y="-80" font-family="Helvetica,sans-Serif" font-size="10.00">/AHRS_Test/AHRS_Test.cpp</text>
</a>
</g>
</g>
<!-- Node2&#45;&gt;Node4 -->
<g id="edge4" class="edge"><title>Node2&#45;&gt;Node4</title>
<path fill="none" stroke="midnightblue" d="M1015.35,-159.167C878.664,-157.634 553.887,-149.613 285,-109 275.034,-107.495 264.506,-105.378 254.418,-103.081"/>
<polygon fill="midnightblue" stroke="midnightblue" points="1015.61,-162.67 1025.64,-159.274 1015.68,-155.67 1015.61,-162.67"/>
</g>
<!-- Node5 -->
<g id="node5" class="node"><title>Node5</title>
<g id="a_node5"><a xlink:href="$AP__Airspeed_8cpp.html" xlink:title="libraries/AP_Airspeed\l/AP_Airspeed.cpp">
<polygon fill="white" stroke="black" points="294,-73 294,-103 404,-103 404,-73 294,-73"/>
<text text-anchor="start" x="302" y="-91" font-family="Helvetica,sans-Serif" font-size="10.00">libraries/AP_Airspeed</text>
<text text-anchor="middle" x="349" y="-80" font-family="Helvetica,sans-Serif" font-size="10.00">/AP_Airspeed.cpp</text>
</a>
</g>
</g>
<!-- Node2&#45;&gt;Node5 -->
<g id="edge5" class="edge"><title>Node2&#45;&gt;Node5</title>
<path fill="none" stroke="midnightblue" d="M1015.86,-159.362C895.783,-158.05 631.866,-150.23 414,-109 406.111,-107.507 397.827,-105.396 389.915,-103.101"/>
<polygon fill="midnightblue" stroke="midnightblue" points="1015.96,-162.863 1025.99,-159.461 1016.03,-155.863 1015.96,-162.863"/>
</g>
<!-- Node6 -->
<g id="node6" class="node"><title>Node6</title>
<g id="a_node6"><a xlink:href="$Airspeed_8cpp.html" xlink:title="libraries/AP_Airspeed\l/examples/Airspeed/Airspeed.cpp">
<polygon fill="white" stroke="black" points="422.5,-73 422.5,-103 585.5,-103 585.5,-73 422.5,-73"/>
<text text-anchor="start" x="430.5" y="-91" font-family="Helvetica,sans-Serif" font-size="10.00">libraries/AP_Airspeed</text>
<text text-anchor="middle" x="504" y="-80" font-family="Helvetica,sans-Serif" font-size="10.00">/examples/Airspeed/Airspeed.cpp</text>
</a>
</g>
</g>
<!-- Node2&#45;&gt;Node6 -->
<g id="edge6" class="edge"><title>Node2&#45;&gt;Node6</title>
<path fill="none" stroke="midnightblue" d="M1015.53,-155.054C921.905,-148.162 744.535,-133.123 595,-109 584.78,-107.351 573.982,-105.277 563.534,-103.093"/>
<polygon fill="midnightblue" stroke="midnightblue" points="1015.48,-158.559 1025.71,-155.795 1015.99,-151.578 1015.48,-158.559"/>
</g>
<!-- Node7 -->
<g id="node7" class="node"><title>Node7</title>
<g id="a_node7"><a xlink:href="$AP__BattMonitor__Analog_8h.html" xlink:title="libraries/AP_BattMonitor\l/AP_BattMonitor_Analog.h">
<polygon fill="white" stroke="black" points="604,-73 604,-103 736,-103 736,-73 604,-73"/>
<text text-anchor="start" x="612" y="-91" font-family="Helvetica,sans-Serif" font-size="10.00">libraries/AP_BattMonitor</text>
<text text-anchor="middle" x="670" y="-80" font-family="Helvetica,sans-Serif" font-size="10.00">/AP_BattMonitor_Analog.h</text>
</a>
</g>
</g>
<!-- Node2&#45;&gt;Node7 -->
<g id="edge7" class="edge"><title>Node2&#45;&gt;Node7</title>
<path fill="none" stroke="midnightblue" d="M1015.83,-151.891C947.854,-143.445 838.389,-128.407 745,-109 736.688,-107.273 727.925,-105.184 719.436,-103.017"/>
<polygon fill="midnightblue" stroke="midnightblue" points="1015.61,-155.39 1025.96,-153.139 1016.46,-148.443 1015.61,-155.39"/>
</g>
<!-- Node10 -->
<g id="node10" class="node"><title>Node10</title>
<g id="a_node10"><a xlink:href="$GPS__AUTO__test_8cpp.html" xlink:title="libraries/AP_GPS/examples\l/GPS_AUTO_test/GPS_AUTO\l_test.cpp">
<polygon fill="white" stroke="black" points="754,-67.5 754,-108.5 906,-108.5 906,-67.5 754,-67.5"/>
<text text-anchor="start" x="762" y="-96.5" font-family="Helvetica,sans-Serif" font-size="10.00">libraries/AP_GPS/examples</text>
<text text-anchor="start" x="762" y="-85.5" font-family="Helvetica,sans-Serif" font-size="10.00">/GPS_AUTO_test/GPS_AUTO</text>
<text text-anchor="middle" x="830" y="-74.5" font-family="Helvetica,sans-Serif" font-size="10.00">_test.cpp</text>
</a>
</g>
</g>
<!-- Node2&#45;&gt;Node10 -->
<g id="edge10" class="edge"><title>Node2&#45;&gt;Node10</title>
<path fill="none" stroke="midnightblue" d="M1021.11,-142.679C984.642,-132.435 937.888,-119.303 899.753,-108.592"/>
<polygon fill="midnightblue" stroke="midnightblue" points="1020.54,-146.153 1031.11,-145.487 1022.43,-139.413 1020.54,-146.153"/>
</g>
<!-- Node11 -->
<g id="node11" class="node"><title>Node11</title>
<g id="a_node11"><a xlink:href="$GPS__UBLOX__passthrough_8cpp.html" xlink:title="libraries/AP_GPS/examples\l/GPS_UBLOX_passthrough\l/GPS_UBLOX_passthrough.cpp">
<polygon fill="white" stroke="black" points="924.5,-67.5 924.5,-108.5 1081.5,-108.5 1081.5,-67.5 924.5,-67.5"/>
<text text-anchor="start" x="932.5" y="-96.5" font-family="Helvetica,sans-Serif" font-size="10.00">libraries/AP_GPS/examples</text>
<text text-anchor="start" x="932.5" y="-85.5" font-family="Helvetica,sans-Serif" font-size="10.00">/GPS_UBLOX_passthrough</text>
<text text-anchor="middle" x="1003" y="-74.5" font-family="Helvetica,sans-Serif" font-size="10.00">/GPS_UBLOX_passthrough.cpp</text>
</a>
</g>
</g>
<!-- Node2&#45;&gt;Node11 -->
<g id="edge11" class="edge"><title>Node2&#45;&gt;Node11</title>
<path fill="none" stroke="midnightblue" d="M1057.63,-138.379C1047.18,-128.928 1034.92,-117.852 1024.67,-108.588"/>
<polygon fill="midnightblue" stroke="midnightblue" points="1055.45,-141.124 1065.22,-145.233 1060.14,-135.931 1055.45,-141.124"/>
</g>
<!-- Node12 -->
<g id="node12" class="node"><title>Node12</title>
<g id="a_node12"><a xlink:href="$AnalogIn__ADS1115_8h.html" xlink:title="libraries/AP_HAL_Linux\l/AnalogIn_ADS1115.h">
<polygon fill="white" stroke="black" points="1100,-73 1100,-103 1220,-103 1220,-73 1100,-73"/>
<text text-anchor="start" x="1108" y="-91" font-family="Helvetica,sans-Serif" font-size="10.00">libraries/AP_HAL_Linux</text>
<text text-anchor="middle" x="1160" y="-80" font-family="Helvetica,sans-Serif" font-size="10.00">/AnalogIn_ADS1115.h</text>
</a>
</g>
</g>
<!-- Node2&#45;&gt;Node12 -->
<g id="edge12" class="edge"><title>Node2&#45;&gt;Node12</title>
<path fill="none" stroke="midnightblue" d="M1104.57,-138.464C1117.41,-127.004 1132.95,-113.137 1144.31,-103.005"/>
<polygon fill="midnightblue" stroke="midnightblue" points="1102.12,-135.964 1096.99,-145.233 1106.78,-141.186 1102.12,-135.964"/>
</g>
<!-- Node15 -->
<g id="node15" class="node"><title>Node15</title>
<g id="a_node15"><a xlink:href="$AnalogIn__IIO_8h.html" xlink:title="libraries/AP_HAL_Linux\l/AnalogIn_IIO.h">
<polygon fill="white" stroke="black" points="1238,-73 1238,-103 1358,-103 1358,-73 1238,-73"/>
<text text-anchor="start" x="1246" y="-91" font-family="Helvetica,sans-Serif" font-size="10.00">libraries/AP_HAL_Linux</text>
<text text-anchor="middle" x="1298" y="-80" font-family="Helvetica,sans-Serif" font-size="10.00">/AnalogIn_IIO.h</text>
</a>
</g>
</g>
<!-- Node2&#45;&gt;Node15 -->
<g id="edge15" class="edge"><title>Node2&#45;&gt;Node15</title>
<path fill="none" stroke="midnightblue" d="M1133.76,-142.358C1170.82,-130.32 1219.78,-114.412 1254.58,-103.107"/>
<polygon fill="midnightblue" stroke="midnightblue" points="1132.56,-139.069 1124.13,-145.487 1134.72,-145.726 1132.56,-139.069"/>
</g>
<!-- Node17 -->
<g id="node17" class="node"><title>Node17</title>
<g id="a_node17"><a xlink:href="$AnalogIn__Raspilot_8h.html" xlink:title="libraries/AP_HAL_Linux\l/AnalogIn_Raspilot.h">
<polygon fill="white" stroke="black" points="1376,-73 1376,-103 1496,-103 1496,-73 1376,-73"/>
<text text-anchor="start" x="1384" y="-91" font-family="Helvetica,sans-Serif" font-size="10.00">libraries/AP_HAL_Linux</text>
<text text-anchor="middle" x="1436" y="-80" font-family="Helvetica,sans-Serif" font-size="10.00">/AnalogIn_Raspilot.h</text>
</a>
</g>
</g>
<!-- Node2&#45;&gt;Node17 -->
<g id="edge18" class="edge"><title>Node2&#45;&gt;Node17</title>
<path fill="none" stroke="midnightblue" d="M1146.21,-144.85C1244.9,-126.242 1272.63,-130.247 1367,-109 1374.67,-107.274 1382.74,-105.187 1390.55,-103.02"/>
<polygon fill="midnightblue" stroke="midnightblue" points="1145.27,-141.466 1136.11,-146.786 1146.59,-148.34 1145.27,-141.466"/>
</g>
<!-- Node19 -->
<g id="node19" class="node"><title>Node19</title>
<g id="a_node19"><a xlink:href="$VibTest_8cpp.html" xlink:title="libraries/AP_InertialSensor\l/examples/VibTest/VibTest.cpp">
<polygon fill="white" stroke="black" points="1514,-73 1514,-103 1668,-103 1668,-73 1514,-73"/>
<text text-anchor="start" x="1522" y="-91" font-family="Helvetica,sans-Serif" font-size="10.00">libraries/AP_InertialSensor</text>
<text text-anchor="middle" x="1591" y="-80" font-family="Helvetica,sans-Serif" font-size="10.00">/examples/VibTest/VibTest.cpp</text>
</a>
</g>
</g>
<!-- Node2&#45;&gt;Node19 -->
<g id="edge21" class="edge"><title>Node2&#45;&gt;Node19</title>
<path fill="none" stroke="midnightblue" d="M1146.23,-144.939C1305.51,-119.828 1349.62,-134.727 1505,-109 1514.83,-107.372 1525.21,-105.282 1535.23,-103.069"/>
<polygon fill="midnightblue" stroke="midnightblue" points="1145.39,-141.529 1136.07,-146.57 1146.5,-148.441 1145.39,-141.529"/>
</g>
<!-- Node20 -->
<g id="node20" class="node"><title>Node20</title>
<g id="a_node20"><a xlink:href="$ModuleTest_8cpp.html" xlink:title="libraries/AP_Module\l/examples/ModuleTest\l/ModuleTest.cpp">
<polygon fill="white" stroke="black" points="1686,-67.5 1686,-108.5 1802,-108.5 1802,-67.5 1686,-67.5"/>
<text text-anchor="start" x="1694" y="-96.5" font-family="Helvetica,sans-Serif" font-size="10.00">libraries/AP_Module</text>
<text text-anchor="start" x="1694" y="-85.5" font-family="Helvetica,sans-Serif" font-size="10.00">/examples/ModuleTest</text>
<text text-anchor="middle" x="1744" y="-74.5" font-family="Helvetica,sans-Serif" font-size="10.00">/ModuleTest.cpp</text>
</a>
</g>
</g>
<!-- Node2&#45;&gt;Node20 -->
<g id="edge22" class="edge"><title>Node2&#45;&gt;Node20</title>
<path fill="none" stroke="midnightblue" d="M1146.29,-144.983C1381.35,-111.843 1447.1,-150.557 1677,-109 1679.87,-108.482 1682.79,-107.885 1685.72,-107.229"/>
<polygon fill="midnightblue" stroke="midnightblue" points="1145.46,-141.567 1136.06,-146.456 1146.45,-148.496 1145.46,-141.567"/>
</g>
<!-- Node21 -->
<g id="node21" class="node"><title>Node21</title>
<g id="a_node21"><a xlink:href="$AP__Motors__test_8cpp.html" xlink:title="libraries/AP_Motors\l/examples/AP_Motors\l_test/AP_Motors_test.cpp">
<polygon fill="white" stroke="black" points="1820.5,-67.5 1820.5,-108.5 1951.5,-108.5 1951.5,-67.5 1820.5,-67.5"/>
<text text-anchor="start" x="1828.5" y="-96.5" font-family="Helvetica,sans-Serif" font-size="10.00">libraries/AP_Motors</text>
<text text-anchor="start" x="1828.5" y="-85.5" font-family="Helvetica,sans-Serif" font-size="10.00">/examples/AP_Motors</text>
<text text-anchor="middle" x="1886" y="-74.5" font-family="Helvetica,sans-Serif" font-size="10.00">_test/AP_Motors_test.cpp</text>
</a>
</g>
</g>
<!-- Node2&#45;&gt;Node21 -->
<g id="edge23" class="edge"><title>Node2&#45;&gt;Node21</title>
<path fill="none" stroke="midnightblue" d="M1146.16,-145.018C1440.41,-105.245 1521.52,-154.916 1811,-109 1814.06,-108.514 1817.18,-107.955 1820.31,-107.338"/>
<polygon fill="midnightblue" stroke="midnightblue" points="1145.48,-141.578 1136.05,-146.408 1146.43,-148.513 1145.48,-141.578"/>
</g>
<!-- Node22 -->
<g id="node22" class="node"><title>Node22</title>
<g id="a_node22"><a xlink:href="$trivial__AP__Mount_8cpp.html" xlink:title="libraries/AP_Mount\l/examples/trivial_AP\l_Mount/trivial_AP_Mount.cpp">
<polygon fill="white" stroke="black" points="1969.5,-67.5 1969.5,-108.5 2114.5,-108.5 2114.5,-67.5 1969.5,-67.5"/>
<text text-anchor="start" x="1977.5" y="-96.5" font-family="Helvetica,sans-Serif" font-size="10.00">libraries/AP_Mount</text>
<text text-anchor="start" x="1977.5" y="-85.5" font-family="Helvetica,sans-Serif" font-size="10.00">/examples/trivial_AP</text>
<text text-anchor="middle" x="2042" y="-74.5" font-family="Helvetica,sans-Serif" font-size="10.00">_Mount/trivial_AP_Mount.cpp</text>
</a>
</g>
</g>
<!-- Node2&#45;&gt;Node22 -->
<g id="edge24" class="edge"><title>Node2&#45;&gt;Node22</title>
<path fill="none" stroke="midnightblue" d="M1145.97,-145.054C1506.56,-97.8484 1604.94,-160.296 1961,-109 1963.72,-108.608 1966.49,-108.163 1969.28,-107.677"/>
<polygon fill="midnightblue" stroke="midnightblue" points="1145.5,-141.586 1136.04,-146.373 1146.42,-148.526 1145.5,-141.586"/>
</g>
<!-- Node8 -->
<g id="node8" class="node"><title>Node8</title>
<g id="a_node8"><a xlink:href="$AP__BattMonitor_8cpp.html" xlink:title="libraries/AP_BattMonitor\l/AP_BattMonitor.cpp">
<polygon fill="white" stroke="black" points="533,-0.5 533,-30.5 655,-30.5 655,-0.5 533,-0.5"/>
<text text-anchor="start" x="541" y="-18.5" font-family="Helvetica,sans-Serif" font-size="10.00">libraries/AP_BattMonitor</text>
<text text-anchor="middle" x="594" y="-7.5" font-family="Helvetica,sans-Serif" font-size="10.00">/AP_BattMonitor.cpp</text>
</a>
</g>
</g>
<!-- Node7&#45;&gt;Node8 -->
<g id="edge8" class="edge"><title>Node7&#45;&gt;Node8</title>
<path fill="none" stroke="midnightblue" d="M646.973,-65.639C634.687,-54.2429 619.917,-40.5414 609.097,-30.5049"/>
<polygon fill="midnightblue" stroke="midnightblue" points="644.909,-68.4984 654.62,-72.7333 649.669,-63.3664 644.909,-68.4984"/>
</g>
<!-- Node9 -->
<g id="node9" class="node"><title>Node9</title>
<g id="a_node9"><a xlink:href="$AP__BattMonitor__Analog_8cpp.html" xlink:title="libraries/AP_BattMonitor\l/AP_BattMonitor_Analog.cpp">
<polygon fill="white" stroke="black" points="673.5,-0.5 673.5,-30.5 816.5,-30.5 816.5,-0.5 673.5,-0.5"/>
<text text-anchor="start" x="681.5" y="-18.5" font-family="Helvetica,sans-Serif" font-size="10.00">libraries/AP_BattMonitor</text>
<text text-anchor="middle" x="745" y="-7.5" font-family="Helvetica,sans-Serif" font-size="10.00">/AP_BattMonitor_Analog.cpp</text>
</a>
</g>
</g>
<!-- Node7&#45;&gt;Node9 -->
<g id="edge9" class="edge"><title>Node7&#45;&gt;Node9</title>
<path fill="none" stroke="midnightblue" d="M692.724,-65.639C704.848,-54.2429 719.424,-40.5414 730.101,-30.5049"/>
<polygon fill="midnightblue" stroke="midnightblue" points="690.066,-63.3339 685.177,-72.7333 694.861,-68.4343 690.066,-63.3339"/>
</g>
<!-- Node13 -->
<g id="node13" class="node"><title>Node13</title>
<g id="a_node13"><a xlink:href="$AnalogIn__ADS1115_8cpp.html" xlink:title="libraries/AP_HAL_Linux\l/AnalogIn_ADS1115.cpp">
<polygon fill="white" stroke="black" points="1027,-0.5 1027,-30.5 1151,-30.5 1151,-0.5 1027,-0.5"/>
<text text-anchor="start" x="1035" y="-18.5" font-family="Helvetica,sans-Serif" font-size="10.00">libraries/AP_HAL_Linux</text>
<text text-anchor="middle" x="1089" y="-7.5" font-family="Helvetica,sans-Serif" font-size="10.00">/AnalogIn_ADS1115.cpp</text>
</a>
</g>
</g>
<!-- Node12&#45;&gt;Node13 -->
<g id="edge13" class="edge"><title>Node12&#45;&gt;Node13</title>
<path fill="none" stroke="midnightblue" d="M1138.21,-65.3641C1126.88,-54.1142 1113.35,-40.6786 1103.35,-30.7455"/>
<polygon fill="midnightblue" stroke="midnightblue" points="1136.07,-68.1708 1145.63,-72.7333 1141,-63.2036 1136.07,-68.1708"/>
</g>
<!-- Node14 -->
<g id="node14" class="node"><title>Node14</title>
<g id="a_node14"><a xlink:href="$HAL__Linux__Class_8cpp.html" xlink:title="libraries/AP_HAL_Linux\l/HAL_Linux_Class.cpp">
<polygon fill="white" stroke="black" points="1169,-0.5 1169,-30.5 1289,-30.5 1289,-0.5 1169,-0.5"/>
<text text-anchor="start" x="1177" y="-18.5" font-family="Helvetica,sans-Serif" font-size="10.00">libraries/AP_HAL_Linux</text>
<text text-anchor="middle" x="1229" y="-7.5" font-family="Helvetica,sans-Serif" font-size="10.00">/HAL_Linux_Class.cpp</text>
</a>
</g>
</g>
<!-- Node12&#45;&gt;Node14 -->
<g id="edge14" class="edge"><title>Node12&#45;&gt;Node14</title>
<path fill="none" stroke="midnightblue" d="M1181.18,-65.3641C1192.19,-54.1142 1205.34,-40.6786 1215.06,-30.7455"/>
<polygon fill="midnightblue" stroke="midnightblue" points="1178.46,-63.1384 1173.96,-72.7333 1183.46,-68.0347 1178.46,-63.1384"/>
</g>
<!-- Node15&#45;&gt;Node14 -->
<g id="edge17" class="edge"><title>Node15&#45;&gt;Node14</title>
<path fill="none" stroke="midnightblue" d="M1276.82,-65.3641C1265.81,-54.1142 1252.66,-40.6786 1242.94,-30.7455"/>
<polygon fill="midnightblue" stroke="midnightblue" points="1274.54,-68.0347 1284.04,-72.7333 1279.54,-63.1384 1274.54,-68.0347"/>
</g>
<!-- Node16 -->
<g id="node16" class="node"><title>Node16</title>
<g id="a_node16"><a xlink:href="$AnalogIn__IIO_8cpp.html" xlink:title="libraries/AP_HAL_Linux\l/AnalogIn_IIO.cpp">
<polygon fill="white" stroke="black" points="1307,-0.5 1307,-30.5 1427,-30.5 1427,-0.5 1307,-0.5"/>
<text text-anchor="start" x="1315" y="-18.5" font-family="Helvetica,sans-Serif" font-size="10.00">libraries/AP_HAL_Linux</text>
<text text-anchor="middle" x="1367" y="-7.5" font-family="Helvetica,sans-Serif" font-size="10.00">/AnalogIn_IIO.cpp</text>
</a>
</g>
</g>
<!-- Node15&#45;&gt;Node16 -->
<g id="edge16" class="edge"><title>Node15&#45;&gt;Node16</title>
<path fill="none" stroke="midnightblue" d="M1319.18,-65.3641C1330.19,-54.1142 1343.34,-40.6786 1353.06,-30.7455"/>
<polygon fill="midnightblue" stroke="midnightblue" points="1316.46,-63.1384 1311.96,-72.7333 1321.46,-68.0347 1316.46,-63.1384"/>
</g>
<!-- Node17&#45;&gt;Node14 -->
<g id="edge20" class="edge"><title>Node17&#45;&gt;Node14</title>
<path fill="none" stroke="midnightblue" d="M1384.97,-69.6188C1349.67,-57.5971 1303.3,-41.8056 1270.32,-30.5729"/>
<polygon fill="midnightblue" stroke="midnightblue" points="1384.01,-72.9918 1394.61,-72.9027 1386.27,-66.3656 1384.01,-72.9918"/>
</g>
<!-- Node18 -->
<g id="node18" class="node"><title>Node18</title>
<g id="a_node18"><a xlink:href="$AnalogIn__Raspilot_8cpp.html" xlink:title="libraries/AP_HAL_Linux\l/AnalogIn_Raspilot.cpp">
<polygon fill="white" stroke="black" points="1445,-0.5 1445,-30.5 1565,-30.5 1565,-0.5 1445,-0.5"/>
<text text-anchor="start" x="1453" y="-18.5" font-family="Helvetica,sans-Serif" font-size="10.00">libraries/AP_HAL_Linux</text>
<text text-anchor="middle" x="1505" y="-7.5" font-family="Helvetica,sans-Serif" font-size="10.00">/AnalogIn_Raspilot.cpp</text>
</a>
</g>
</g>
<!-- Node17&#45;&gt;Node18 -->
<g id="edge19" class="edge"><title>Node17&#45;&gt;Node18</title>
<path fill="none" stroke="midnightblue" d="M1457.18,-65.3641C1468.19,-54.1142 1481.34,-40.6786 1491.06,-30.7455"/>
<polygon fill="midnightblue" stroke="midnightblue" points="1454.46,-63.1384 1449.96,-72.7333 1459.46,-68.0347 1454.46,-63.1384"/>
</g>
</g>
</svg>
