<?xml version="1.0" encoding="UTF-8" standalone="no"?>
<!DOCTYPE svg PUBLIC "-//W3C//DTD SVG 1.1//EN"
 "http://www.w3.org/Graphics/SVG/1.1/DTD/svg11.dtd">
<!-- Generated by graphviz version 2.38.0 (20140413.2041)
 -->
<!-- Title: libraries/AP_Beacon/AP_Beacon_Marvelmind.h Pages: 1 -->
<svg width="447pt" height="117pt"
 viewBox="0.00 0.00 447.00 117.00" xmlns="http://www.w3.org/2000/svg" xmlns:xlink="http://www.w3.org/1999/xlink">
<g id="graph0" class="graph" transform="scale(1 1) rotate(0) translate(4 113)">
<title>libraries/AP_Beacon/AP_Beacon_Marvelmind.h</title>
<polygon fill="white" stroke="none" points="-4,4 -4,-113 443,-113 443,4 -4,4"/>
<!-- Node1 -->
<g id="node1" class="node"><title>Node1</title>
<polygon fill="#bfbfbf" stroke="black" points="129,-78.5 129,-108.5 264,-108.5 264,-78.5 129,-78.5"/>
<text text-anchor="start" x="137" y="-96.5" font-family="Helvetica,sans-Serif" font-size="10.00">libraries/AP_Beacon</text>
<text text-anchor="middle" x="196.5" y="-85.5" font-family="Helvetica,sans-Serif" font-size="10.00">/AP_Beacon_Marvelmind.h</text>
</g>
<!-- Node2 -->
<g id="node2" class="node"><title>Node2</title>
<g id="a_node2"><a xlink:href="$AP__Beacon_8cpp.html" xlink:title="libraries/AP_Beacon\l/AP_Beacon.cpp">
<polygon fill="white" stroke="black" points="0,-6 0,-36 105,-36 105,-6 0,-6"/>
<text text-anchor="start" x="8" y="-24" font-family="Helvetica,sans-Serif" font-size="10.00">libraries/AP_Beacon</text>
<text text-anchor="middle" x="52.5" y="-13" font-family="Helvetica,sans-Serif" font-size="10.00">/AP_Beacon.cpp</text>
</a>
</g>
</g>
<!-- Node1&#45;&gt;Node2 -->
<g id="edge1" class="edge"><title>Node1&#45;&gt;Node2</title>
<path fill="none" stroke="midnightblue" d="M158.453,-73.873C134.248,-62.0226 103.404,-46.9215 81.2446,-36.0729"/>
<polygon fill="midnightblue" stroke="midnightblue" points="157.185,-77.149 167.706,-78.4027 160.263,-70.862 157.185,-77.149"/>
</g>
<!-- Node3 -->
<g id="node3" class="node"><title>Node3</title>
<g id="a_node3"><a xlink:href="$AP__Beacon__Marvelmind_8cpp.html" xlink:title="libraries/AP_Beacon\l/AP_Beacon_Marvelmind.cpp">
<polygon fill="white" stroke="black" points="123.5,-6 123.5,-36 269.5,-36 269.5,-6 123.5,-6"/>
<text text-anchor="start" x="131.5" y="-24" font-family="Helvetica,sans-Serif" font-size="10.00">libraries/AP_Beacon</text>
<text text-anchor="middle" x="196.5" y="-13" font-family="Helvetica,sans-Serif" font-size="10.00">/AP_Beacon_Marvelmind.cpp</text>
</a>
</g>
</g>
<!-- Node1&#45;&gt;Node3 -->
<g id="edge2" class="edge"><title>Node1&#45;&gt;Node3</title>
<path fill="none" stroke="midnightblue" d="M196.5,-68.2317C196.5,-57.5679 196.5,-45.4145 196.5,-36.2455"/>
<polygon fill="midnightblue" stroke="midnightblue" points="193,-68.2332 196.5,-78.2333 200,-68.2333 193,-68.2332"/>
</g>
<!-- Node4 -->
<g id="node4" class="node"><title>Node4</title>
<g id="a_node4"><a xlink:href="$AP__Marvelmind__test_8cpp.html" xlink:title="libraries/AP_Beacon\l/examples/AP_Marvelmind\l_test/AP_Marvelmind_test.cpp">
<polygon fill="white" stroke="black" points="288,-0.5 288,-41.5 439,-41.5 439,-0.5 288,-0.5"/>
<text text-anchor="start" x="296" y="-29.5" font-family="Helvetica,sans-Serif" font-size="10.00">libraries/AP_Beacon</text>
<text text-anchor="start" x="296" y="-18.5" font-family="Helvetica,sans-Serif" font-size="10.00">/examples/AP_Marvelmind</text>
<text text-anchor="middle" x="363.5" y="-7.5" font-family="Helvetica,sans-Serif" font-size="10.00">_test/AP_Marvelmind_test.cpp</text>
</a>
</g>
</g>
<!-- Node1&#45;&gt;Node4 -->
<g id="edge3" class="edge"><title>Node1&#45;&gt;Node4</title>
<path fill="none" stroke="midnightblue" d="M239.378,-74.3987C263.199,-64.3428 292.851,-51.825 317.199,-41.5464"/>
<polygon fill="midnightblue" stroke="midnightblue" points="237.745,-71.289 229.894,-78.4027 240.468,-77.7379 237.745,-71.289"/>
</g>
</g>
</svg>
