<?xml version="1.0" encoding="UTF-8" standalone="no"?>
<!DOCTYPE svg PUBLIC "-//W3C//DTD SVG 1.1//EN"
 "http://www.w3.org/Graphics/SVG/1.1/DTD/svg11.dtd">
<!-- Generated by graphviz version 2.38.0 (20140413.2041)
 -->
<!-- Title: libraries/AP_HAL_SITL/AP_HAL_SITL_Namespace.h Pages: 1 -->
<svg width="2308pt" height="374pt"
 viewBox="0.00 0.00 2307.90 374.00" xmlns="http://www.w3.org/2000/svg" xmlns:xlink="http://www.w3.org/1999/xlink">
<g id="graph0" class="graph" transform="scale(1 1) rotate(0) translate(4 370)">
<title>libraries/AP_HAL_SITL/AP_HAL_SITL_Namespace.h</title>
<polygon fill="white" stroke="none" points="-4,4 -4,-370 2303.9,-370 2303.9,4 -4,4"/>
<!-- Node1 -->
<g id="node1" class="node"><title>Node1</title>
<polygon fill="#bfbfbf" stroke="black" points="1378,-335.5 1378,-365.5 1528,-365.5 1528,-335.5 1378,-335.5"/>
<text text-anchor="start" x="1386" y="-353.5" font-family="Helvetica,sans-Serif" font-size="10.00">libraries/AP_HAL_SITL</text>
<text text-anchor="middle" x="1453" y="-342.5" font-family="Helvetica,sans-Serif" font-size="10.00">/AP_HAL_SITL_Namespace.h</text>
</g>
<!-- Node2 -->
<g id="node2" class="node"><title>Node2</title>
<g id="a_node2"><a xlink:href="$HAL__SITL__Class_8h.html" xlink:title="libraries/AP_HAL_SITL\l/HAL_SITL_Class.h">
<polygon fill="white" stroke="black" points="758,-268.5 758,-298.5 876,-298.5 876,-268.5 758,-268.5"/>
<text text-anchor="start" x="766" y="-286.5" font-family="Helvetica,sans-Serif" font-size="10.00">libraries/AP_HAL_SITL</text>
<text text-anchor="middle" x="817" y="-275.5" font-family="Helvetica,sans-Serif" font-size="10.00">/HAL_SITL_Class.h</text>
</a>
</g>
</g>
<!-- Node1&#45;&gt;Node2 -->
<g id="edge1" class="edge"><title>Node1&#45;&gt;Node2</title>
<path fill="none" stroke="midnightblue" d="M1367.87,-340.8C1237.02,-327.426 989.719,-302.152 876.415,-290.572"/>
<polygon fill="midnightblue" stroke="midnightblue" points="1367.55,-344.286 1377.86,-341.82 1368.27,-337.322 1367.55,-344.286"/>
</g>
<!-- Node5 -->
<g id="node5" class="node"><title>Node5</title>
<g id="a_node5"><a xlink:href="$SITL__State_8h.html" xlink:title="libraries/AP_HAL_SITL\l/SITL_State.h">
<polygon fill="white" stroke="black" points="410,-67.5 410,-97.5 528,-97.5 528,-67.5 410,-67.5"/>
<text text-anchor="start" x="418" y="-85.5" font-family="Helvetica,sans-Serif" font-size="10.00">libraries/AP_HAL_SITL</text>
<text text-anchor="middle" x="469" y="-74.5" font-family="Helvetica,sans-Serif" font-size="10.00">/SITL_State.h</text>
</a>
</g>
</g>
<!-- Node1&#45;&gt;Node5 -->
<g id="edge42" class="edge"><title>Node1&#45;&gt;Node5</title>
<path fill="none" stroke="midnightblue" d="M1367.6,-347.246C1183.43,-341.917 754.016,-326.851 611,-299 427.796,-263.323 321.905,-316.579 213,-165 162.516,-94.7339 319.609,-83.5065 409.962,-82.6516"/>
<polygon fill="midnightblue" stroke="midnightblue" points="1367.68,-350.749 1377.78,-347.537 1367.88,-343.752 1367.68,-350.749"/>
</g>
<!-- Node6 -->
<g id="node6" class="node"><title>Node6</title>
<g id="a_node6"><a xlink:href="$AP__HAL__SITL__Private_8h.html" xlink:title="libraries/AP_HAL_SITL\l/AP_HAL_SITL_Private.h">
<polygon fill="white" stroke="black" points="1973,-0.5 1973,-30.5 2101,-30.5 2101,-0.5 1973,-0.5"/>
<text text-anchor="start" x="1981" y="-18.5" font-family="Helvetica,sans-Serif" font-size="10.00">libraries/AP_HAL_SITL</text>
<text text-anchor="middle" x="2037" y="-7.5" font-family="Helvetica,sans-Serif" font-size="10.00">/AP_HAL_SITL_Private.h</text>
</a>
</g>
</g>
<!-- Node1&#45;&gt;Node6 -->
<g id="edge46" class="edge"><title>Node1&#45;&gt;Node6</title>
<path fill="none" stroke="midnightblue" d="M1538.52,-349.103C1657.24,-347.041 1878.16,-337.728 2062,-299 2170.58,-276.126 2298,-328.467 2298,-217.5 2298,-217.5 2298,-217.5 2298,-148.5 2298,-111.306 2305.6,-92.9915 2279,-67 2266.28,-54.5719 2168.58,-37.0673 2101.28,-26.2698"/>
<polygon fill="midnightblue" stroke="midnightblue" points="1538.34,-345.605 1528.4,-349.265 1538.46,-352.604 1538.34,-345.605"/>
</g>
<!-- Node7 -->
<g id="node7" class="node"><title>Node7</title>
<g id="a_node7"><a xlink:href="$HAL__SITL__Class_8cpp.html" xlink:title="libraries/AP_HAL_SITL\l/HAL_SITL_Class.cpp">
<polygon fill="white" stroke="black" points="1212,-0.5 1212,-30.5 1330,-30.5 1330,-0.5 1212,-0.5"/>
<text text-anchor="start" x="1220" y="-18.5" font-family="Helvetica,sans-Serif" font-size="10.00">libraries/AP_HAL_SITL</text>
<text text-anchor="middle" x="1271" y="-7.5" font-family="Helvetica,sans-Serif" font-size="10.00">/HAL_SITL_Class.cpp</text>
</a>
</g>
</g>
<!-- Node1&#45;&gt;Node7 -->
<g id="edge66" class="edge"><title>Node1&#45;&gt;Node7</title>
<path fill="none" stroke="midnightblue" d="M1439.24,-326.394C1418.67,-291.652 1378.89,-223.761 1347,-165 1320.48,-116.128 1290.99,-57.0328 1277.9,-30.5396"/>
<polygon fill="midnightblue" stroke="midnightblue" points="1436.4,-328.465 1444.52,-335.279 1442.42,-324.893 1436.4,-328.465"/>
</g>
<!-- Node8 -->
<g id="node8" class="node"><title>Node8</title>
<g id="a_node8"><a xlink:href="$sitl__airspeed_8cpp.html" xlink:title="libraries/AP_HAL_SITL\l/sitl_airspeed.cpp">
<polygon fill="white" stroke="black" points="256,-0.5 256,-30.5 374,-30.5 374,-0.5 256,-0.5"/>
<text text-anchor="start" x="264" y="-18.5" font-family="Helvetica,sans-Serif" font-size="10.00">libraries/AP_HAL_SITL</text>
<text text-anchor="middle" x="315" y="-7.5" font-family="Helvetica,sans-Serif" font-size="10.00">/sitl_airspeed.cpp</text>
</a>
</g>
</g>
<!-- Node1&#45;&gt;Node8 -->
<g id="edge68" class="edge"><title>Node1&#45;&gt;Node8</title>
<path fill="none" stroke="midnightblue" d="M1367.67,-347.933C1143.94,-343.45 544.202,-328.93 348,-299 207.169,-277.517 38,-359.96 38,-217.5 38,-217.5 38,-217.5 38,-148.5 38,-99.6234 180.322,-52.9947 260.934,-30.504"/>
<polygon fill="midnightblue" stroke="midnightblue" points="1367.64,-351.433 1377.71,-348.132 1367.78,-344.434 1367.64,-351.433"/>
</g>
<!-- Node9 -->
<g id="node9" class="node"><title>Node9</title>
<g id="a_node9"><a xlink:href="$sitl__rangefinder_8cpp.html" xlink:title="libraries/AP_HAL_SITL\l/sitl_rangefinder.cpp">
<polygon fill="white" stroke="black" points="68,-0.5 68,-30.5 186,-30.5 186,-0.5 68,-0.5"/>
<text text-anchor="start" x="76" y="-18.5" font-family="Helvetica,sans-Serif" font-size="10.00">libraries/AP_HAL_SITL</text>
<text text-anchor="middle" x="127" y="-7.5" font-family="Helvetica,sans-Serif" font-size="10.00">/sitl_rangefinder.cpp</text>
</a>
</g>
</g>
<!-- Node1&#45;&gt;Node9 -->
<g id="edge71" class="edge"><title>Node1&#45;&gt;Node9</title>
<path fill="none" stroke="midnightblue" d="M1367.7,-348.706C1071.68,-345.658 103.682,-333.115 47,-299 11.1747,-277.438 0,-259.314 0,-217.5 0,-217.5 0,-217.5 0,-148.5 0,-92.3709 60.3689,-50.893 97.8636,-30.5443"/>
<polygon fill="midnightblue" stroke="midnightblue" points="1367.91,-352.209 1377.94,-348.811 1367.98,-345.209 1367.91,-352.209"/>
</g>
<!-- Node14 -->
<g id="node14" class="node"><title>Node14</title>
<g id="a_node14"><a xlink:href="$SITL_2Util_8h.html" xlink:title="libraries/AP_HAL_SITL\l/Util.h">
<polygon fill="white" stroke="black" points="1530,-67.5 1530,-97.5 1648,-97.5 1648,-67.5 1530,-67.5"/>
<text text-anchor="start" x="1538" y="-85.5" font-family="Helvetica,sans-Serif" font-size="10.00">libraries/AP_HAL_SITL</text>
<text text-anchor="middle" x="1589" y="-74.5" font-family="Helvetica,sans-Serif" font-size="10.00">/Util.h</text>
</a>
</g>
</g>
<!-- Node1&#45;&gt;Node14 -->
<g id="edge67" class="edge"><title>Node1&#45;&gt;Node14</title>
<path fill="none" stroke="midnightblue" d="M1538.5,-345.036C1650.9,-333.97 1844.04,-295.825 1929,-165 1936.5,-153.445 1938,-144.434 1929,-134 1910.93,-113.043 1740.53,-95.9418 1648.04,-88.1122"/>
<polygon fill="midnightblue" stroke="midnightblue" points="1537.85,-341.581 1528.21,-345.995 1538.5,-348.551 1537.85,-341.581"/>
</g>
<!-- Node22 -->
<g id="node22" class="node"><title>Node22</title>
<g id="a_node22"><a xlink:href="$SITL__cmdline_8cpp.html" xlink:title="libraries/AP_HAL_SITL\l/SITL_cmdline.cpp">
<polygon fill="white" stroke="black" points="236,-134.5 236,-164.5 354,-164.5 354,-134.5 236,-134.5"/>
<text text-anchor="start" x="244" y="-152.5" font-family="Helvetica,sans-Serif" font-size="10.00">libraries/AP_HAL_SITL</text>
<text text-anchor="middle" x="295" y="-141.5" font-family="Helvetica,sans-Serif" font-size="10.00">/SITL_cmdline.cpp</text>
</a>
</g>
</g>
<!-- Node1&#45;&gt;Node22 -->
<g id="edge69" class="edge"><title>Node1&#45;&gt;Node22</title>
<path fill="none" stroke="midnightblue" d="M1367.79,-348.794C1234.73,-346.481 969.976,-337.006 749,-299 638.591,-280.011 612.384,-267.115 506,-232 442.233,-210.952 369.51,-181.659 328.248,-164.527"/>
<polygon fill="midnightblue" stroke="midnightblue" points="1367.86,-352.296 1377.91,-348.961 1367.97,-345.297 1367.86,-352.296"/>
</g>
<!-- Node23 -->
<g id="node23" class="node"><title>Node23</title>
<g id="a_node23"><a xlink:href="$sitl__gps_8cpp.html" xlink:title="libraries/AP_HAL_SITL\l/sitl_gps.cpp">
<polygon fill="white" stroke="black" points="1492,-134.5 1492,-164.5 1610,-164.5 1610,-134.5 1492,-134.5"/>
<text text-anchor="start" x="1500" y="-152.5" font-family="Helvetica,sans-Serif" font-size="10.00">libraries/AP_HAL_SITL</text>
<text text-anchor="middle" x="1551" y="-141.5" font-family="Helvetica,sans-Serif" font-size="10.00">/sitl_gps.cpp</text>
</a>
</g>
</g>
<!-- Node1&#45;&gt;Node23 -->
<g id="edge70" class="edge"><title>Node1&#45;&gt;Node23</title>
<path fill="none" stroke="midnightblue" d="M1464.54,-326.063C1485.07,-284.375 1527.34,-198.542 1544.02,-164.682"/>
<polygon fill="midnightblue" stroke="midnightblue" points="1461.33,-324.671 1460.05,-335.188 1467.61,-327.764 1461.33,-324.671"/>
</g>
<!-- Node24 -->
<g id="node24" class="node"><title>Node24</title>
<g id="a_node24"><a xlink:href="$SITL__State_8cpp.html" xlink:title="libraries/AP_HAL_SITL\l/SITL_State.cpp">
<polygon fill="white" stroke="black" points="1628,-134.5 1628,-164.5 1746,-164.5 1746,-134.5 1628,-134.5"/>
<text text-anchor="start" x="1636" y="-152.5" font-family="Helvetica,sans-Serif" font-size="10.00">libraries/AP_HAL_SITL</text>
<text text-anchor="middle" x="1687" y="-141.5" font-family="Helvetica,sans-Serif" font-size="10.00">/SITL_State.cpp</text>
</a>
</g>
</g>
<!-- Node1&#45;&gt;Node24 -->
<g id="edge72" class="edge"><title>Node1&#45;&gt;Node24</title>
<path fill="none" stroke="midnightblue" d="M1474.24,-327.841C1504.05,-297.916 1560.52,-242.879 1613,-201 1629.53,-187.807 1649.39,-174.379 1664.36,-164.689"/>
<polygon fill="midnightblue" stroke="midnightblue" points="1471.47,-325.669 1466.91,-335.235 1476.44,-330.597 1471.47,-325.669"/>
</g>
<!-- Node25 -->
<g id="node25" class="node"><title>Node25</title>
<g id="a_node25"><a xlink:href="$SITL_2AnalogIn_8h.html" xlink:title="libraries/AP_HAL_SITL\l/AnalogIn.h">
<polygon fill="white" stroke="black" points="1231,-201.5 1231,-231.5 1349,-231.5 1349,-201.5 1231,-201.5"/>
<text text-anchor="start" x="1239" y="-219.5" font-family="Helvetica,sans-Serif" font-size="10.00">libraries/AP_HAL_SITL</text>
<text text-anchor="middle" x="1290" y="-208.5" font-family="Helvetica,sans-Serif" font-size="10.00">/AnalogIn.h</text>
</a>
</g>
</g>
<!-- Node1&#45;&gt;Node25 -->
<g id="edge43" class="edge"><title>Node1&#45;&gt;Node25</title>
<path fill="none" stroke="midnightblue" d="M1427.61,-328.938C1394.15,-301.838 1336.16,-254.878 1307.32,-231.525"/>
<polygon fill="midnightblue" stroke="midnightblue" points="1425.58,-331.8 1435.56,-335.374 1429.99,-326.36 1425.58,-331.8"/>
</g>
<!-- Node26 -->
<g id="node26" class="node"><title>Node26</title>
<g id="a_node26"><a xlink:href="$SITL_2Scheduler_8h.html" xlink:title="libraries/AP_HAL_SITL\l/Scheduler.h">
<polygon fill="white" stroke="black" points="1989,-201.5 1989,-231.5 2107,-231.5 2107,-201.5 1989,-201.5"/>
<text text-anchor="start" x="1997" y="-219.5" font-family="Helvetica,sans-Serif" font-size="10.00">libraries/AP_HAL_SITL</text>
<text text-anchor="middle" x="2048" y="-208.5" font-family="Helvetica,sans-Serif" font-size="10.00">/Scheduler.h</text>
</a>
</g>
</g>
<!-- Node1&#45;&gt;Node26 -->
<g id="edge47" class="edge"><title>Node1&#45;&gt;Node26</title>
<path fill="none" stroke="midnightblue" d="M1538.16,-348.695C1666.06,-346.247 1900.7,-336.595 1975,-299 2005,-283.821 2028.41,-250.671 2040.01,-231.657"/>
<polygon fill="midnightblue" stroke="midnightblue" points="1537.95,-345.198 1528.01,-348.878 1538.07,-352.197 1537.95,-345.198"/>
</g>
<!-- Node28 -->
<g id="node28" class="node"><title>Node28</title>
<g id="a_node28"><a xlink:href="$SITL_2Storage_8h.html" xlink:title="libraries/AP_HAL_SITL\l/Storage.h">
<polygon fill="white" stroke="black" points="2152,-67.5 2152,-97.5 2270,-97.5 2270,-67.5 2152,-67.5"/>
<text text-anchor="start" x="2160" y="-85.5" font-family="Helvetica,sans-Serif" font-size="10.00">libraries/AP_HAL_SITL</text>
<text text-anchor="middle" x="2211" y="-74.5" font-family="Helvetica,sans-Serif" font-size="10.00">/Storage.h</text>
</a>
</g>
</g>
<!-- Node1&#45;&gt;Node28 -->
<g id="edge54" class="edge"><title>Node1&#45;&gt;Node28</title>
<path fill="none" stroke="midnightblue" d="M1538.31,-346.478C1671.51,-340.962 1922.37,-327.141 2007,-299 2104.37,-266.623 2143.07,-253.498 2195,-165 2207.41,-143.858 2210.39,-114.855 2211,-97.7552"/>
<polygon fill="midnightblue" stroke="midnightblue" points="1538,-342.988 1528.15,-346.893 1538.28,-349.982 1538,-342.988"/>
</g>
<!-- Node30 -->
<g id="node30" class="node"><title>Node30</title>
<g id="a_node30"><a xlink:href="$SITL_2UARTDriver_8h.html" xlink:title="libraries/AP_HAL_SITL\l/UARTDriver.h">
<polygon fill="white" stroke="black" points="1622,-201.5 1622,-231.5 1740,-231.5 1740,-201.5 1622,-201.5"/>
<text text-anchor="start" x="1630" y="-219.5" font-family="Helvetica,sans-Serif" font-size="10.00">libraries/AP_HAL_SITL</text>
<text text-anchor="middle" x="1681" y="-208.5" font-family="Helvetica,sans-Serif" font-size="10.00">/UARTDriver.h</text>
</a>
</g>
</g>
<!-- Node1&#45;&gt;Node30 -->
<g id="edge58" class="edge"><title>Node1&#45;&gt;Node30</title>
<path fill="none" stroke="midnightblue" d="M1518.76,-332.419C1543.69,-324.357 1571.67,-313.31 1595,-299 1625.34,-280.396 1653.95,-249.717 1669.31,-231.779"/>
<polygon fill="midnightblue" stroke="midnightblue" points="1517.51,-329.144 1509.01,-335.473 1519.6,-335.823 1517.51,-329.144"/>
</g>
<!-- Node3 -->
<g id="node3" class="node"><title>Node3</title>
<g id="a_node3"><a xlink:href="$AP__HAL__SITL_8h.html" xlink:title="libraries/AP_HAL_SITL\l/AP_HAL_SITL.h">
<polygon fill="white" stroke="black" points="758,-201.5 758,-231.5 876,-231.5 876,-201.5 758,-201.5"/>
<text text-anchor="start" x="766" y="-219.5" font-family="Helvetica,sans-Serif" font-size="10.00">libraries/AP_HAL_SITL</text>
<text text-anchor="middle" x="817" y="-208.5" font-family="Helvetica,sans-Serif" font-size="10.00">/AP_HAL_SITL.h</text>
</a>
</g>
</g>
<!-- Node2&#45;&gt;Node3 -->
<g id="edge2" class="edge"><title>Node2&#45;&gt;Node3</title>
<path fill="none" stroke="midnightblue" d="M810.455,-258.403C810.005,-249.37 810.296,-239.408 811.325,-231.577"/>
<polygon fill="midnightblue" stroke="midnightblue" points="806.97,-258.736 811.322,-268.396 813.944,-258.131 806.97,-258.736"/>
</g>
<!-- Node2&#45;&gt;Node5 -->
<g id="edge35" class="edge"><title>Node2&#45;&gt;Node5</title>
<path fill="none" stroke="midnightblue" d="M747.81,-279.794C604.264,-272.432 282.444,-246.752 218,-165 166.541,-99.7202 320.28,-86.3451 409.775,-83.8612"/>
<polygon fill="midnightblue" stroke="midnightblue" points="747.669,-283.292 757.831,-280.293 748.017,-276.3 747.669,-283.292"/>
</g>
<!-- Node2&#45;&gt;Node7 -->
<g id="edge36" class="edge"><title>Node2&#45;&gt;Node7</title>
<path fill="none" stroke="midnightblue" d="M886.076,-271.52C991.352,-253.424 1184.83,-214.374 1233,-165 1269.61,-127.473 1272.38,-59.7641 1271.71,-30.5476"/>
<polygon fill="midnightblue" stroke="midnightblue" points="885.443,-268.077 876.171,-273.205 886.617,-274.978 885.443,-268.077"/>
</g>
<!-- Node2&#45;&gt;Node8 -->
<g id="edge37" class="edge"><title>Node2&#45;&gt;Node8</title>
<path fill="none" stroke="midnightblue" d="M747.505,-282.214C620.244,-280.687 355.363,-272.563 274,-232 228.086,-209.109 195.049,-182.061 213,-134 229.635,-89.4618 271.608,-50.6265 296.216,-30.7039"/>
<polygon fill="midnightblue" stroke="midnightblue" points="747.498,-285.714 757.536,-282.324 747.575,-278.715 747.498,-285.714"/>
</g>
<!-- Node2&#45;&gt;Node9 -->
<g id="edge40" class="edge"><title>Node2&#45;&gt;Node9</title>
<path fill="none" stroke="midnightblue" d="M747.535,-280.504C600.099,-275.71 265.887,-261.676 224,-232 154.031,-182.428 133.656,-70.1629 128.533,-30.6115"/>
<polygon fill="midnightblue" stroke="midnightblue" points="747.715,-284.012 757.821,-280.834 747.939,-277.015 747.715,-284.012"/>
</g>
<!-- Node2&#45;&gt;Node22 -->
<g id="edge38" class="edge"><title>Node2&#45;&gt;Node22</title>
<path fill="none" stroke="midnightblue" d="M751.918,-266.043C648.355,-239.854 447.842,-189.15 350.587,-164.556"/>
<polygon fill="midnightblue" stroke="midnightblue" points="751.078,-269.44 761.631,-268.499 752.794,-262.654 751.078,-269.44"/>
</g>
<!-- Node2&#45;&gt;Node23 -->
<g id="edge39" class="edge"><title>Node2&#45;&gt;Node23</title>
<path fill="none" stroke="midnightblue" d="M886.087,-282.76C990.053,-281.658 1192.22,-273.682 1358,-232 1420.44,-216.302 1488.8,-183.351 1525.04,-164.509"/>
<polygon fill="midnightblue" stroke="midnightblue" points="886.001,-279.261 876.032,-282.849 886.063,-286.261 886.001,-279.261"/>
</g>
<!-- Node2&#45;&gt;Node24 -->
<g id="edge41" class="edge"><title>Node2&#45;&gt;Node24</title>
<path fill="none" stroke="midnightblue" d="M886.267,-281.287C998.325,-278.292 1225.91,-267.912 1415,-232 1500.48,-215.766 1597.39,-183.176 1649.33,-164.501"/>
<polygon fill="midnightblue" stroke="midnightblue" points="886.022,-277.792 876.115,-281.547 886.201,-284.79 886.022,-277.792"/>
</g>
<!-- Node3&#45;&gt;Node2 -->
<g id="edge4" class="edge"><title>Node3&#45;&gt;Node2</title>
<path fill="none" stroke="midnightblue" d="M823.544,-241.565C823.995,-250.596 823.706,-260.56 822.678,-268.396"/>
<polygon fill="midnightblue" stroke="midnightblue" points="827.028,-241.236 822.675,-231.577 820.055,-241.842 827.028,-241.236"/>
</g>
<!-- Node4 -->
<g id="node4" class="node"><title>Node4</title>
<g id="a_node4"><a xlink:href="$SITL_2AnalogIn_8cpp.html" xlink:title="libraries/AP_HAL_SITL\l/AnalogIn.cpp">
<polygon fill="white" stroke="black" points="1106,-134.5 1106,-164.5 1224,-164.5 1224,-134.5 1106,-134.5"/>
<text text-anchor="start" x="1114" y="-152.5" font-family="Helvetica,sans-Serif" font-size="10.00">libraries/AP_HAL_SITL</text>
<text text-anchor="middle" x="1165" y="-141.5" font-family="Helvetica,sans-Serif" font-size="10.00">/AnalogIn.cpp</text>
</a>
</g>
</g>
<!-- Node3&#45;&gt;Node4 -->
<g id="edge3" class="edge"><title>Node3&#45;&gt;Node4</title>
<path fill="none" stroke="midnightblue" d="M886.151,-203.087C941.795,-193.03 1021.98,-178.382 1092,-165 1096.44,-164.151 1101.03,-163.263 1105.65,-162.363"/>
<polygon fill="midnightblue" stroke="midnightblue" points="885.274,-199.689 876.055,-204.91 886.518,-206.578 885.274,-199.689"/>
</g>
<!-- Node3&#45;&gt;Node5 -->
<g id="edge5" class="edge"><title>Node3&#45;&gt;Node5</title>
<path fill="none" stroke="midnightblue" d="M747.788,-205.159C707.226,-197.458 655.731,-184.786 613,-165 591.621,-155.1 590.157,-146.196 570,-134 547.524,-120.4 520.905,-107.202 500.638,-97.7101"/>
<polygon fill="midnightblue" stroke="midnightblue" points="747.385,-208.643 757.853,-207.011 748.652,-201.759 747.385,-208.643"/>
</g>
<!-- Node3&#45;&gt;Node7 -->
<g id="edge25" class="edge"><title>Node3&#45;&gt;Node7</title>
<path fill="none" stroke="midnightblue" d="M886.278,-209.889C936.255,-203.772 1004.27,-191.099 1059,-165 1078.67,-155.618 1079.51,-147.001 1097,-134 1150.1,-94.5371 1215.37,-51.9689 1248.86,-30.5351"/>
<polygon fill="midnightblue" stroke="midnightblue" points="885.743,-206.427 876.216,-211.062 886.554,-213.38 885.743,-206.427"/>
</g>
<!-- Node3&#45;&gt;Node8 -->
<g id="edge30" class="edge"><title>Node3&#45;&gt;Node8</title>
<path fill="none" stroke="midnightblue" d="M747.814,-211.517C696.335,-206.206 625.656,-193.828 570,-165 552.132,-155.745 554.597,-143.761 537,-134 482.323,-103.669 455.61,-128.45 401,-98 369.56,-80.4691 340.916,-48.8213 325.938,-30.5492"/>
<polygon fill="midnightblue" stroke="midnightblue" points="747.554,-215.008 757.844,-212.488 748.228,-208.041 747.554,-215.008"/>
</g>
<!-- Node3&#45;&gt;Node9 -->
<g id="edge33" class="edge"><title>Node3&#45;&gt;Node9</title>
<path fill="none" stroke="midnightblue" d="M747.679,-211.757C645.984,-205.48 461.832,-190.902 401,-165 380.946,-156.461 381.313,-145.819 363,-134 294.933,-90.0705 208.172,-50.7172 161.106,-30.6123"/>
<polygon fill="midnightblue" stroke="midnightblue" points="747.663,-215.262 757.857,-212.375 748.087,-208.275 747.663,-215.262"/>
</g>
<!-- Node11 -->
<g id="node11" class="node"><title>Node11</title>
<g id="a_node11"><a xlink:href="$SITL_2RCInput_8h.html" xlink:title="libraries/AP_HAL_SITL\l/RCInput.h">
<polygon fill="white" stroke="black" points="622,-134.5 622,-164.5 740,-164.5 740,-134.5 622,-134.5"/>
<text text-anchor="start" x="630" y="-152.5" font-family="Helvetica,sans-Serif" font-size="10.00">libraries/AP_HAL_SITL</text>
<text text-anchor="middle" x="681" y="-141.5" font-family="Helvetica,sans-Serif" font-size="10.00">/RCInput.h</text>
</a>
</g>
</g>
<!-- Node3&#45;&gt;Node11 -->
<g id="edge12" class="edge"><title>Node3&#45;&gt;Node11</title>
<path fill="none" stroke="midnightblue" d="M778.276,-196.992C756.719,-186.689 730.311,-174.068 710.452,-164.577"/>
<polygon fill="midnightblue" stroke="midnightblue" points="776.958,-200.242 787.49,-201.396 779.977,-193.926 776.958,-200.242"/>
</g>
<!-- Node13 -->
<g id="node13" class="node"><title>Node13</title>
<g id="a_node13"><a xlink:href="$SITL_2Semaphores_8h.html" xlink:title="libraries/AP_HAL_SITL\l/Semaphores.h">
<polygon fill="white" stroke="black" points="1356,-134.5 1356,-164.5 1474,-164.5 1474,-134.5 1356,-134.5"/>
<text text-anchor="start" x="1364" y="-152.5" font-family="Helvetica,sans-Serif" font-size="10.00">libraries/AP_HAL_SITL</text>
<text text-anchor="middle" x="1415" y="-141.5" font-family="Helvetica,sans-Serif" font-size="10.00">/Semaphores.h</text>
</a>
</g>
</g>
<!-- Node3&#45;&gt;Node13 -->
<g id="edge16" class="edge"><title>Node3&#45;&gt;Node13</title>
<path fill="none" stroke="midnightblue" d="M886.297,-207.968C1004.8,-195.087 1244.34,-169.05 1355.65,-156.951"/>
<polygon fill="midnightblue" stroke="midnightblue" points="885.813,-204.5 876.25,-209.06 886.569,-211.459 885.813,-204.5"/>
</g>
<!-- Node16 -->
<g id="node16" class="node"><title>Node16</title>
<g id="a_node16"><a xlink:href="$SITL_2CAN_8h.html" xlink:title="libraries/AP_HAL_SITL\l/CAN.h">
<polygon fill="white" stroke="black" points="410,-134.5 410,-164.5 528,-164.5 528,-134.5 410,-134.5"/>
<text text-anchor="start" x="418" y="-152.5" font-family="Helvetica,sans-Serif" font-size="10.00">libraries/AP_HAL_SITL</text>
<text text-anchor="middle" x="469" y="-141.5" font-family="Helvetica,sans-Serif" font-size="10.00">/CAN.h</text>
</a>
</g>
</g>
<!-- Node3&#45;&gt;Node16 -->
<g id="edge21" class="edge"><title>Node3&#45;&gt;Node16</title>
<path fill="none" stroke="midnightblue" d="M747.849,-203.087C692.205,-193.03 612.02,-178.382 542,-165 537.558,-164.151 532.966,-163.263 528.348,-162.363"/>
<polygon fill="midnightblue" stroke="midnightblue" points="747.482,-206.578 757.945,-204.91 748.726,-199.689 747.482,-206.578"/>
</g>
<!-- Node17 -->
<g id="node17" class="node"><title>Node17</title>
<g id="a_node17"><a xlink:href="$SITL_2GPIO_8h.html" xlink:title="libraries/AP_HAL_SITL\l/GPIO.h">
<polygon fill="white" stroke="black" points="758,-134.5 758,-164.5 876,-164.5 876,-134.5 758,-134.5"/>
<text text-anchor="start" x="766" y="-152.5" font-family="Helvetica,sans-Serif" font-size="10.00">libraries/AP_HAL_SITL</text>
<text text-anchor="middle" x="817" y="-141.5" font-family="Helvetica,sans-Serif" font-size="10.00">/GPIO.h</text>
</a>
</g>
</g>
<!-- Node3&#45;&gt;Node17 -->
<g id="edge22" class="edge"><title>Node3&#45;&gt;Node17</title>
<path fill="none" stroke="midnightblue" d="M817,-191.108C817,-182.154 817,-172.323 817,-164.577"/>
<polygon fill="midnightblue" stroke="midnightblue" points="813.5,-191.396 817,-201.396 820.5,-191.396 813.5,-191.396"/>
</g>
<!-- Node19 -->
<g id="node19" class="node"><title>Node19</title>
<g id="a_node19"><a xlink:href="$SITL_2RCOutput_8h.html" xlink:title="libraries/AP_HAL_SITL\l/RCOutput.h">
<polygon fill="white" stroke="black" points="932,-134.5 932,-164.5 1050,-164.5 1050,-134.5 932,-134.5"/>
<text text-anchor="start" x="940" y="-152.5" font-family="Helvetica,sans-Serif" font-size="10.00">libraries/AP_HAL_SITL</text>
<text text-anchor="middle" x="991" y="-141.5" font-family="Helvetica,sans-Serif" font-size="10.00">/RCOutput.h</text>
</a>
</g>
</g>
<!-- Node3&#45;&gt;Node19 -->
<g id="edge26" class="edge"><title>Node3&#45;&gt;Node19</title>
<path fill="none" stroke="midnightblue" d="M864.332,-197.819C892.3,-187.371 927.227,-174.323 953.318,-164.577"/>
<polygon fill="midnightblue" stroke="midnightblue" points="862.898,-194.618 854.755,-201.396 865.348,-201.175 862.898,-194.618"/>
</g>
<!-- Node21 -->
<g id="node21" class="node"><title>Node21</title>
<g id="a_node21"><a xlink:href="$AP__HAL__SITL_2Scheduler_8cpp.html" xlink:title="libraries/AP_HAL_SITL\l/Scheduler.cpp">
<polygon fill="white" stroke="black" points="1802,-134.5 1802,-164.5 1920,-164.5 1920,-134.5 1802,-134.5"/>
<text text-anchor="start" x="1810" y="-152.5" font-family="Helvetica,sans-Serif" font-size="10.00">libraries/AP_HAL_SITL</text>
<text text-anchor="middle" x="1861" y="-141.5" font-family="Helvetica,sans-Serif" font-size="10.00">/Scheduler.cpp</text>
</a>
</g>
</g>
<!-- Node3&#45;&gt;Node21 -->
<g id="edge29" class="edge"><title>Node3&#45;&gt;Node21</title>
<path fill="none" stroke="midnightblue" d="M886.478,-213.712C1042.23,-209.278 1431.05,-195.825 1755,-165 1770.25,-163.548 1786.69,-161.527 1801.95,-159.453"/>
<polygon fill="midnightblue" stroke="midnightblue" points="886.013,-210.224 876.115,-214.004 886.209,-217.221 886.013,-210.224"/>
</g>
<!-- Node3&#45;&gt;Node22 -->
<g id="edge31" class="edge"><title>Node3&#45;&gt;Node22</title>
<path fill="none" stroke="midnightblue" d="M747.784,-209.536C659.39,-201.503 501.839,-185.781 368,-165 363.531,-164.306 358.92,-163.531 354.288,-162.71"/>
<polygon fill="midnightblue" stroke="midnightblue" points="747.678,-213.041 757.953,-210.454 748.308,-206.069 747.678,-213.041"/>
</g>
<!-- Node3&#45;&gt;Node23 -->
<g id="edge32" class="edge"><title>Node3&#45;&gt;Node23</title>
<path fill="none" stroke="midnightblue" d="M886.354,-213.311C1007.8,-208.795 1266.64,-196.126 1483,-165 1485.87,-164.587 1488.8,-164.125 1491.75,-163.625"/>
<polygon fill="midnightblue" stroke="midnightblue" points="885.955,-209.823 876.09,-213.685 886.211,-216.818 885.955,-209.823"/>
</g>
<!-- Node3&#45;&gt;Node24 -->
<g id="edge34" class="edge"><title>Node3&#45;&gt;Node24</title>
<path fill="none" stroke="midnightblue" d="M886.334,-212.449C1054.07,-204.856 1478.29,-184.325 1619,-165 1621.87,-164.606 1624.8,-164.158 1627.75,-163.67"/>
<polygon fill="midnightblue" stroke="midnightblue" points="885.973,-208.962 876.141,-212.909 886.288,-215.954 885.973,-208.962"/>
</g>
<!-- Node5&#45;&gt;Node2 -->
<g id="edge6" class="edge"><title>Node5&#45;&gt;Node2</title>
<path fill="none" stroke="midnightblue" d="M399.677,-84.6883C314.978,-88.8195 188.661,-104.947 236,-165 300.536,-246.868 623.182,-272.505 757.888,-279.826"/>
<polygon fill="midnightblue" stroke="midnightblue" points="399.949,-88.1798 409.785,-84.2418 399.64,-81.1866 399.949,-88.1798"/>
</g>
<!-- Node5&#45;&gt;Node6 -->
<g id="edge7" class="edge"><title>Node5&#45;&gt;Node6</title>
<path fill="none" stroke="midnightblue" d="M538.421,-67.0887C721.306,-48.4127 1709.67,-24.1985 1972.7,-17.9947"/>
<polygon fill="midnightblue" stroke="midnightblue" points="537.784,-63.638 528.234,-68.2262 538.561,-70.5948 537.784,-63.638"/>
</g>
<!-- Node5&#45;&gt;Node7 -->
<g id="edge8" class="edge"><title>Node5&#45;&gt;Node7</title>
<path fill="none" stroke="midnightblue" d="M538.474,-66.9271C794.079,-31.7481 1088.17,-20.9371 1211.72,-17.7396"/>
<polygon fill="midnightblue" stroke="midnightblue" points="537.672,-63.5049 528.25,-68.3502 538.637,-70.438 537.672,-63.5049"/>
</g>
<!-- Node5&#45;&gt;Node8 -->
<g id="edge9" class="edge"><title>Node5&#45;&gt;Node8</title>
<path fill="none" stroke="midnightblue" d="M426.133,-63.4066C401.547,-53.0294 371.14,-40.1954 348.35,-30.5765"/>
<polygon fill="midnightblue" stroke="midnightblue" points="425.01,-66.7319 435.584,-67.396 427.732,-60.2828 425.01,-66.7319"/>
</g>
<!-- Node5&#45;&gt;Node9 -->
<g id="edge10" class="edge"><title>Node5&#45;&gt;Node9</title>
<path fill="none" stroke="midnightblue" d="M399.611,-68.3119C336.829,-56.3798 245.375,-38.9982 186.029,-27.719"/>
<polygon fill="midnightblue" stroke="midnightblue" points="399.341,-71.8233 409.819,-70.2521 400.648,-64.9464 399.341,-71.8233"/>
</g>
<!-- Node10 -->
<g id="node10" class="node"><title>Node10</title>
<g id="a_node10"><a xlink:href="$SITL_2UARTDriver_8cpp.html" xlink:title="libraries/AP_HAL_SITL\l/UARTDriver.cpp">
<polygon fill="white" stroke="black" points="652,-0.5 652,-30.5 770,-30.5 770,-0.5 652,-0.5"/>
<text text-anchor="start" x="660" y="-18.5" font-family="Helvetica,sans-Serif" font-size="10.00">libraries/AP_HAL_SITL</text>
<text text-anchor="middle" x="711" y="-7.5" font-family="Helvetica,sans-Serif" font-size="10.00">/UARTDriver.cpp</text>
</a>
</g>
</g>
<!-- Node5&#45;&gt;Node10 -->
<g id="edge11" class="edge"><title>Node5&#45;&gt;Node10</title>
<path fill="none" stroke="midnightblue" d="M530.99,-64.8498C570.445,-54.2523 620.985,-40.6775 658.464,-30.6109"/>
<polygon fill="midnightblue" stroke="midnightblue" points="529.962,-61.5017 521.212,-67.476 531.778,-68.2621 529.962,-61.5017"/>
</g>
<!-- Node11&#45;&gt;Node5 -->
<g id="edge13" class="edge"><title>Node11&#45;&gt;Node5</title>
<path fill="none" stroke="midnightblue" d="M625.372,-131.444C591.007,-120.908 547.438,-107.549 515.023,-97.6109"/>
<polygon fill="midnightblue" stroke="midnightblue" points="624.673,-134.891 635.26,-134.476 626.725,-128.198 624.673,-134.891"/>
</g>
<!-- Node11&#45;&gt;Node7 -->
<g id="edge14" class="edge"><title>Node11&#45;&gt;Node7</title>
<path fill="none" stroke="midnightblue" d="M683.068,-124.4C686.049,-105.63 693.312,-80.5585 711,-67 750.124,-37.0092 1076.17,-22.9053 1211.98,-18.2897"/>
<polygon fill="midnightblue" stroke="midnightblue" points="679.596,-123.962 681.788,-134.327 686.538,-124.857 679.596,-123.962"/>
</g>
<!-- Node12 -->
<g id="node12" class="node"><title>Node12</title>
<g id="a_node12"><a xlink:href="$SITL_2RCInput_8cpp.html" xlink:title="libraries/AP_HAL_SITL\l/RCInput.cpp">
<polygon fill="white" stroke="black" points="546,-67.5 546,-97.5 664,-97.5 664,-67.5 546,-67.5"/>
<text text-anchor="start" x="554" y="-85.5" font-family="Helvetica,sans-Serif" font-size="10.00">libraries/AP_HAL_SITL</text>
<text text-anchor="middle" x="605" y="-74.5" font-family="Helvetica,sans-Serif" font-size="10.00">/RCInput.cpp</text>
</a>
</g>
</g>
<!-- Node11&#45;&gt;Node12 -->
<g id="edge15" class="edge"><title>Node11&#45;&gt;Node12</title>
<path fill="none" stroke="midnightblue" d="M656.894,-127.883C645.345,-118.005 631.81,-106.429 621.459,-97.5765"/>
<polygon fill="midnightblue" stroke="midnightblue" points="654.635,-130.556 664.509,-134.396 659.184,-125.236 654.635,-130.556"/>
</g>
<!-- Node13&#45;&gt;Node6 -->
<g id="edge17" class="edge"><title>Node13&#45;&gt;Node6</title>
<path fill="none" stroke="midnightblue" d="M1442.7,-128.372C1455.12,-119.232 1469.9,-108.202 1483,-98 1500.2,-84.6101 1500.85,-75.3052 1521,-67 1601.2,-33.945 1853.15,-22.0376 1972.76,-18.1714"/>
<polygon fill="midnightblue" stroke="midnightblue" points="1440.52,-125.63 1434.52,-134.365 1444.66,-131.276 1440.52,-125.63"/>
</g>
<!-- Node13&#45;&gt;Node14 -->
<g id="edge18" class="edge"><title>Node13&#45;&gt;Node14</title>
<path fill="none" stroke="midnightblue" d="M1462.33,-130.819C1490.3,-120.371 1525.23,-107.323 1551.32,-97.5765"/>
<polygon fill="midnightblue" stroke="midnightblue" points="1460.9,-127.618 1452.76,-134.396 1463.35,-134.175 1460.9,-127.618"/>
</g>
<!-- Node15 -->
<g id="node15" class="node"><title>Node15</title>
<g id="a_node15"><a xlink:href="$AP__HAL__SITL_2Semaphores_8cpp.html" xlink:title="libraries/AP_HAL_SITL\l/Semaphores.cpp">
<polygon fill="white" stroke="black" points="1356,-67.5 1356,-97.5 1474,-97.5 1474,-67.5 1356,-67.5"/>
<text text-anchor="start" x="1364" y="-85.5" font-family="Helvetica,sans-Serif" font-size="10.00">libraries/AP_HAL_SITL</text>
<text text-anchor="middle" x="1415" y="-74.5" font-family="Helvetica,sans-Serif" font-size="10.00">/Semaphores.cpp</text>
</a>
</g>
</g>
<!-- Node13&#45;&gt;Node15 -->
<g id="edge20" class="edge"><title>Node13&#45;&gt;Node15</title>
<path fill="none" stroke="midnightblue" d="M1415,-124.108C1415,-115.154 1415,-105.323 1415,-97.5765"/>
<polygon fill="midnightblue" stroke="midnightblue" points="1411.5,-124.396 1415,-134.396 1418.5,-124.396 1411.5,-124.396"/>
</g>
<!-- Node14&#45;&gt;Node7 -->
<g id="edge19" class="edge"><title>Node14&#45;&gt;Node7</title>
<path fill="none" stroke="midnightblue" d="M1519.97,-67.391C1463.27,-55.8003 1383.8,-39.5574 1330.02,-28.564"/>
<polygon fill="midnightblue" stroke="midnightblue" points="1519.43,-70.8527 1529.93,-69.4263 1520.84,-63.9945 1519.43,-70.8527"/>
</g>
<!-- Node17&#45;&gt;Node7 -->
<g id="edge24" class="edge"><title>Node17&#45;&gt;Node7</title>
<path fill="none" stroke="midnightblue" d="M837.857,-127.13C857.835,-108.058 889.776,-81.0385 923,-67 1018.6,-26.6048 1140.69,-17.59 1211.93,-16.092"/>
<polygon fill="midnightblue" stroke="midnightblue" points="835.269,-124.766 830.559,-134.256 840.16,-129.774 835.269,-124.766"/>
</g>
<!-- Node18 -->
<g id="node18" class="node"><title>Node18</title>
<g id="a_node18"><a xlink:href="$AP__HAL__SITL_2GPIO_8cpp.html" xlink:title="libraries/AP_HAL_SITL\l/GPIO.cpp">
<polygon fill="white" stroke="black" points="720,-67.5 720,-97.5 838,-97.5 838,-67.5 720,-67.5"/>
<text text-anchor="start" x="728" y="-85.5" font-family="Helvetica,sans-Serif" font-size="10.00">libraries/AP_HAL_SITL</text>
<text text-anchor="middle" x="779" y="-74.5" font-family="Helvetica,sans-Serif" font-size="10.00">/GPIO.cpp</text>
</a>
</g>
</g>
<!-- Node17&#45;&gt;Node18 -->
<g id="edge23" class="edge"><title>Node17&#45;&gt;Node18</title>
<path fill="none" stroke="midnightblue" d="M803.598,-125.576C798.141,-116.241 792.007,-105.748 787.229,-97.5765"/>
<polygon fill="midnightblue" stroke="midnightblue" points="800.686,-127.529 808.755,-134.396 806.729,-123.997 800.686,-127.529"/>
</g>
<!-- Node19&#45;&gt;Node7 -->
<g id="edge27" class="edge"><title>Node19&#45;&gt;Node7</title>
<path fill="none" stroke="midnightblue" d="M1018.2,-128.353C1050.31,-104.592 1099.7,-68.146 1102,-67 1136.68,-49.7385 1178.35,-37.2054 1211.64,-28.9425"/>
<polygon fill="midnightblue" stroke="midnightblue" points="1016.01,-125.623 1010.05,-134.385 1020.17,-131.249 1016.01,-125.623"/>
</g>
<!-- Node20 -->
<g id="node20" class="node"><title>Node20</title>
<g id="a_node20"><a xlink:href="$SITL_2RCOutput_8cpp.html" xlink:title="libraries/AP_HAL_SITL\l/RCOutput.cpp">
<polygon fill="white" stroke="black" points="932,-67.5 932,-97.5 1050,-97.5 1050,-67.5 932,-67.5"/>
<text text-anchor="start" x="940" y="-85.5" font-family="Helvetica,sans-Serif" font-size="10.00">libraries/AP_HAL_SITL</text>
<text text-anchor="middle" x="991" y="-74.5" font-family="Helvetica,sans-Serif" font-size="10.00">/RCOutput.cpp</text>
</a>
</g>
</g>
<!-- Node19&#45;&gt;Node20 -->
<g id="edge28" class="edge"><title>Node19&#45;&gt;Node20</title>
<path fill="none" stroke="midnightblue" d="M991,-124.108C991,-115.154 991,-105.323 991,-97.5765"/>
<polygon fill="midnightblue" stroke="midnightblue" points="987.5,-124.396 991,-134.396 994.5,-124.396 987.5,-124.396"/>
</g>
<!-- Node25&#45;&gt;Node4 -->
<g id="edge44" class="edge"><title>Node25&#45;&gt;Node4</title>
<path fill="none" stroke="midnightblue" d="M1253.87,-196.714C1234.16,-186.463 1210.16,-173.983 1192.07,-164.577"/>
<polygon fill="midnightblue" stroke="midnightblue" points="1252.39,-199.888 1262.88,-201.396 1255.62,-193.677 1252.39,-199.888"/>
</g>
<!-- Node25&#45;&gt;Node7 -->
<g id="edge45" class="edge"><title>Node25&#45;&gt;Node7</title>
<path fill="none" stroke="midnightblue" d="M1287.66,-190.998C1283.64,-148.93 1275.56,-64.2558 1272.35,-30.6819"/>
<polygon fill="midnightblue" stroke="midnightblue" points="1284.2,-191.566 1288.63,-201.188 1291.17,-190.901 1284.2,-191.566"/>
</g>
<!-- Node26&#45;&gt;Node6 -->
<g id="edge48" class="edge"><title>Node26&#45;&gt;Node6</title>
<path fill="none" stroke="midnightblue" d="M2117.04,-205.186C2140.69,-197.983 2164.76,-185.755 2179,-165 2186.8,-153.64 2184.87,-146.467 2179,-134 2172.34,-119.849 2093.04,-58.786 2055.93,-30.7146"/>
<polygon fill="midnightblue" stroke="midnightblue" points="2116.01,-201.838 2107.31,-207.886 2117.88,-208.583 2116.01,-201.838"/>
</g>
<!-- Node26&#45;&gt;Node7 -->
<g id="edge49" class="edge"><title>Node26&#45;&gt;Node7</title>
<path fill="none" stroke="midnightblue" d="M2040.01,-191.748C2032.54,-173.22 2019.58,-148.303 2000,-134 1893.12,-55.9197 1484.33,-27.3513 1330.24,-19.2226"/>
<polygon fill="midnightblue" stroke="midnightblue" points="2036.79,-193.152 2043.59,-201.277 2043.34,-190.685 2036.79,-193.152"/>
</g>
<!-- Node26&#45;&gt;Node21 -->
<g id="edge50" class="edge"><title>Node26&#45;&gt;Node21</title>
<path fill="none" stroke="midnightblue" d="M1997.92,-198.092C1967.73,-187.599 1929.78,-174.408 1901.5,-164.577"/>
<polygon fill="midnightblue" stroke="midnightblue" points="1996.83,-201.419 2007.42,-201.396 1999.13,-194.807 1996.83,-201.419"/>
</g>
<!-- Node26&#45;&gt;Node23 -->
<g id="edge51" class="edge"><title>Node26&#45;&gt;Node23</title>
<path fill="none" stroke="midnightblue" d="M1978.72,-209.343C1893.68,-201.326 1745.2,-185.838 1619,-165 1616.14,-164.528 1613.22,-164.017 1610.28,-163.479"/>
<polygon fill="midnightblue" stroke="midnightblue" points="1978.49,-212.837 1988.77,-210.284 1979.14,-205.867 1978.49,-212.837"/>
</g>
<!-- Node26&#45;&gt;Node24 -->
<g id="edge52" class="edge"><title>Node26&#45;&gt;Node24</title>
<path fill="none" stroke="midnightblue" d="M1978.69,-203.02C1911.28,-190.884 1809.99,-172.645 1746.24,-161.166"/>
<polygon fill="midnightblue" stroke="midnightblue" points="1978.33,-206.512 1988.79,-204.839 1979.57,-199.623 1978.33,-206.512"/>
</g>
<!-- Node27 -->
<g id="node27" class="node"><title>Node27</title>
<g id="a_node27"><a xlink:href="$AP__HAL__SITL_2system_8cpp.html" xlink:title="libraries/AP_HAL_SITL\l/system.cpp">
<polygon fill="white" stroke="black" points="2052,-134.5 2052,-164.5 2170,-164.5 2170,-134.5 2052,-134.5"/>
<text text-anchor="start" x="2060" y="-152.5" font-family="Helvetica,sans-Serif" font-size="10.00">libraries/AP_HAL_SITL</text>
<text text-anchor="middle" x="2111" y="-141.5" font-family="Helvetica,sans-Serif" font-size="10.00">/system.cpp</text>
</a>
</g>
</g>
<!-- Node26&#45;&gt;Node27 -->
<g id="edge53" class="edge"><title>Node26&#45;&gt;Node27</title>
<path fill="none" stroke="midnightblue" d="M2068.81,-194.024C2078.2,-184.34 2089.02,-173.174 2097.36,-164.577"/>
<polygon fill="midnightblue" stroke="midnightblue" points="2066.12,-191.779 2061.67,-201.396 2071.14,-196.651 2066.12,-191.779"/>
</g>
<!-- Node28&#45;&gt;Node6 -->
<g id="edge55" class="edge"><title>Node28&#45;&gt;Node6</title>
<path fill="none" stroke="midnightblue" d="M2163.67,-63.8185C2135.7,-53.3707 2100.77,-40.3231 2074.68,-30.5765"/>
<polygon fill="midnightblue" stroke="midnightblue" points="2162.65,-67.1752 2173.24,-67.396 2165.1,-60.6178 2162.65,-67.1752"/>
</g>
<!-- Node28&#45;&gt;Node7 -->
<g id="edge56" class="edge"><title>Node28&#45;&gt;Node7</title>
<path fill="none" stroke="midnightblue" d="M2141.85,-76.7181C1964.47,-64.4528 1495.68,-32.0365 1330.02,-20.5809"/>
<polygon fill="midnightblue" stroke="midnightblue" points="2141.63,-80.2111 2151.84,-77.4093 2142.11,-73.2277 2141.63,-80.2111"/>
</g>
<!-- Node29 -->
<g id="node29" class="node"><title>Node29</title>
<g id="a_node29"><a xlink:href="$SITL_2Storage_8cpp.html" xlink:title="libraries/AP_HAL_SITL\l/Storage.cpp">
<polygon fill="white" stroke="black" points="2152,-0.5 2152,-30.5 2270,-30.5 2270,-0.5 2152,-0.5"/>
<text text-anchor="start" x="2160" y="-18.5" font-family="Helvetica,sans-Serif" font-size="10.00">libraries/AP_HAL_SITL</text>
<text text-anchor="middle" x="2211" y="-7.5" font-family="Helvetica,sans-Serif" font-size="10.00">/Storage.cpp</text>
</a>
</g>
</g>
<!-- Node28&#45;&gt;Node29 -->
<g id="edge57" class="edge"><title>Node28&#45;&gt;Node29</title>
<path fill="none" stroke="midnightblue" d="M2211,-57.1081C2211,-48.1539 2211,-38.3227 2211,-30.5765"/>
<polygon fill="midnightblue" stroke="midnightblue" points="2207.5,-57.3959 2211,-67.396 2214.5,-57.396 2207.5,-57.3959"/>
</g>
<!-- Node30&#45;&gt;Node6 -->
<g id="edge59" class="edge"><title>Node30&#45;&gt;Node6</title>
<path fill="none" stroke="midnightblue" d="M1750.39,-214.674C1803.12,-211.058 1875.47,-199.421 1929,-165 1982.09,-130.862 2017.66,-60.6978 2031.06,-30.6568"/>
<polygon fill="midnightblue" stroke="midnightblue" points="1749.88,-211.198 1740.11,-215.294 1750.31,-218.185 1749.88,-211.198"/>
</g>
<!-- Node30&#45;&gt;Node7 -->
<g id="edge60" class="edge"><title>Node30&#45;&gt;Node7</title>
<path fill="none" stroke="midnightblue" d="M1723.82,-196.193C1736.14,-188.378 1748.1,-178.059 1755,-165 1761.44,-152.817 1761.43,-146.185 1755,-134 1730.38,-87.3367 1706.29,-85.8277 1657,-67 1546.99,-24.9756 1407.9,-16.7634 1330.29,-15.8039"/>
<polygon fill="midnightblue" stroke="midnightblue" points="1721.71,-193.37 1714.85,-201.444 1725.25,-199.411 1721.71,-193.37"/>
</g>
<!-- Node30&#45;&gt;Node10 -->
<g id="edge65" class="edge"><title>Node30&#45;&gt;Node10</title>
<path fill="none" stroke="midnightblue" d="M1611.58,-212.417C1430.05,-204.149 953.127,-181.025 923,-165 874.337,-139.116 891.428,-99.6219 847,-67 824.161,-50.2301 795.131,-38.4468 769.762,-30.506"/>
<polygon fill="midnightblue" stroke="midnightblue" points="1611.67,-215.924 1621.82,-212.882 1611.99,-208.932 1611.67,-215.924"/>
</g>
<!-- Node30&#45;&gt;Node21 -->
<g id="edge61" class="edge"><title>Node30&#45;&gt;Node21</title>
<path fill="none" stroke="midnightblue" d="M1729.59,-197.955C1758.58,-187.485 1794.91,-174.366 1822.02,-164.577"/>
<polygon fill="midnightblue" stroke="midnightblue" points="1728.27,-194.708 1720.06,-201.396 1730.65,-201.291 1728.27,-194.708"/>
</g>
<!-- Node30&#45;&gt;Node22 -->
<g id="edge62" class="edge"><title>Node30&#45;&gt;Node22</title>
<path fill="none" stroke="midnightblue" d="M1611.58,-212.238C1546.18,-209.199 1445.44,-204.607 1358,-201 932.728,-183.456 825.033,-201.888 401,-165 385.734,-163.672 369.299,-161.694 354.033,-159.623"/>
<polygon fill="midnightblue" stroke="midnightblue" points="1611.62,-215.743 1621.77,-212.712 1611.94,-208.751 1611.62,-215.743"/>
</g>
<!-- Node30&#45;&gt;Node23 -->
<g id="edge63" class="edge"><title>Node30&#45;&gt;Node23</title>
<path fill="none" stroke="midnightblue" d="M1643.71,-196.853C1623.15,-186.576 1598.05,-174.025 1579.15,-164.577"/>
<polygon fill="midnightblue" stroke="midnightblue" points="1642.28,-200.054 1652.79,-201.396 1645.41,-193.793 1642.28,-200.054"/>
</g>
<!-- Node30&#45;&gt;Node24 -->
<g id="edge64" class="edge"><title>Node30&#45;&gt;Node24</title>
<path fill="none" stroke="midnightblue" d="M1683.22,-191.403C1684.06,-182.37 1684.98,-172.408 1685.7,-164.577"/>
<polygon fill="midnightblue" stroke="midnightblue" points="1679.74,-191.117 1682.3,-201.396 1686.71,-191.76 1679.74,-191.117"/>
</g>
</g>
</svg>
