<?xml version="1.0" encoding="UTF-8" standalone="no"?>
<!DOCTYPE svg PUBLIC "-//W3C//DTD SVG 1.1//EN"
 "http://www.w3.org/Graphics/SVG/1.1/DTD/svg11.dtd">
<!-- Generated by graphviz version 2.38.0 (20140413.2041)
 -->
<!-- Title: rand_vec3f Pages: 1 -->
<svg width="346pt" height="104pt"
 viewBox="0.00 0.00 346.00 104.00" xmlns="http://www.w3.org/2000/svg" xmlns:xlink="http://www.w3.org/1999/xlink">
<g id="graph0" class="graph" transform="scale(1 1) rotate(0) translate(4 100)">
<title>rand_vec3f</title>
<polygon fill="white" stroke="none" points="-4,4 -4,-100 342,-100 342,4 -4,4"/>
<!-- Node1 -->
<g id="node1" class="node"><title>Node1</title>
<polygon fill="#bfbfbf" stroke="black" points="0,-38.5 0,-57.5 65,-57.5 65,-38.5 0,-38.5"/>
<text text-anchor="middle" x="32.5" y="-45.5" font-family="Helvetica,sans-Serif" font-size="10.00">rand_vec3f</text>
</g>
<!-- Node2 -->
<g id="node2" class="node"><title>Node2</title>
<g id="a_node2"><a xlink:href="$AP__Math_8cpp.html#ab7fb2f11772d144a53f0e75d0615d715" xlink:title="rand_float">
<polygon fill="white" stroke="black" points="120.5,-76.5 120.5,-95.5 179.5,-95.5 179.5,-76.5 120.5,-76.5"/>
<text text-anchor="middle" x="150" y="-83.5" font-family="Helvetica,sans-Serif" font-size="10.00">rand_float</text>
</a>
</g>
</g>
<!-- Node1&#45;&gt;Node2 -->
<g id="edge1" class="edge"><title>Node1&#45;&gt;Node2</title>
<path fill="none" stroke="midnightblue" d="M62.6455,-57.589C77.118,-62.3505 94.7969,-68.1669 110.381,-73.294"/>
<polygon fill="midnightblue" stroke="midnightblue" points="109.671,-76.7451 120.264,-76.5457 111.859,-70.0957 109.671,-76.7451"/>
</g>
<!-- Node3 -->
<g id="node3" class="node"><title>Node3</title>
<g id="a_node3"><a xlink:href="$classVector3.html#ac1fd5514e368a1e1c2d13f71eda18345" xlink:title="Vector3::length">
<polygon fill="white" stroke="black" points="108.5,-38.5 108.5,-57.5 191.5,-57.5 191.5,-38.5 108.5,-38.5"/>
<text text-anchor="middle" x="150" y="-45.5" font-family="Helvetica,sans-Serif" font-size="10.00">Vector3::length</text>
</a>
</g>
</g>
<!-- Node1&#45;&gt;Node3 -->
<g id="edge2" class="edge"><title>Node1&#45;&gt;Node3</title>
<path fill="none" stroke="midnightblue" d="M65.0609,-48C75.2884,-48 86.9062,-48 98.168,-48"/>
<polygon fill="midnightblue" stroke="midnightblue" points="98.3603,-51.5001 108.36,-48 98.3602,-44.5001 98.3603,-51.5001"/>
</g>
<!-- Node6 -->
<g id="node6" class="node"><title>Node6</title>
<g id="a_node6"><a xlink:href="$classVector3.html#a9b147a862a1b86ed2e5b735d19da3da1" xlink:title="Vector3::normalize">
<polygon fill="white" stroke="black" points="101,-0.5 101,-19.5 199,-19.5 199,-0.5 101,-0.5"/>
<text text-anchor="middle" x="150" y="-7.5" font-family="Helvetica,sans-Serif" font-size="10.00">Vector3::normalize</text>
</a>
</g>
</g>
<!-- Node1&#45;&gt;Node6 -->
<g id="edge5" class="edge"><title>Node1&#45;&gt;Node6</title>
<path fill="none" stroke="midnightblue" d="M62.6455,-38.411C77.0083,-33.6856 94.5292,-27.9211 110.026,-22.8226"/>
<polygon fill="midnightblue" stroke="midnightblue" points="111.459,-26.0359 119.864,-19.5859 109.271,-19.3866 111.459,-26.0359"/>
</g>
<!-- Node4 -->
<g id="node4" class="node"><title>Node4</title>
<g id="a_node4"><a xlink:href="$AP__Math_8h.html#adc76d4a5e5c9ae8cb7ab17b55c40d636" xlink:title="norm">
<polygon fill="white" stroke="black" points="235,-38.5 235,-57.5 273,-57.5 273,-38.5 235,-38.5"/>
<text text-anchor="middle" x="254" y="-45.5" font-family="Helvetica,sans-Serif" font-size="10.00">norm</text>
</a>
</g>
</g>
<!-- Node3&#45;&gt;Node4 -->
<g id="edge3" class="edge"><title>Node3&#45;&gt;Node4</title>
<path fill="none" stroke="midnightblue" d="M191.606,-48C202.739,-48 214.562,-48 224.829,-48"/>
<polygon fill="midnightblue" stroke="midnightblue" points="224.872,-51.5001 234.872,-48 224.872,-44.5001 224.872,-51.5001"/>
</g>
<!-- Node5 -->
<g id="node5" class="node"><title>Node5</title>
<g id="a_node5"><a xlink:href="$AP__Math_8h.html#a0375e3d67fd3911cacee5c3e1408c0f2" xlink:title="sq">
<polygon fill="white" stroke="black" points="309,-38.5 309,-57.5 338,-57.5 338,-38.5 309,-38.5"/>
<text text-anchor="middle" x="323.5" y="-45.5" font-family="Helvetica,sans-Serif" font-size="10.00">sq</text>
</a>
</g>
</g>
<!-- Node4&#45;&gt;Node5 -->
<g id="edge4" class="edge"><title>Node4&#45;&gt;Node5</title>
<path fill="none" stroke="midnightblue" d="M273.089,-48C280.997,-48 290.379,-48 298.831,-48"/>
<polygon fill="midnightblue" stroke="midnightblue" points="298.861,-51.5001 308.861,-48 298.861,-44.5001 298.861,-51.5001"/>
</g>
</g>
</svg>
