<?xml version="1.0" encoding="UTF-8" standalone="no"?>
<!DOCTYPE svg PUBLIC "-//W3C//DTD SVG 1.1//EN"
 "http://www.w3.org/Graphics/SVG/1.1/DTD/svg11.dtd">
<!-- Generated by graphviz version 2.38.0 (20140413.2041)
 -->
<!-- Title: libraries/AP_BattMonitor/AP_BattMonitor_Backend.h Pages: 1 -->
<svg width="992pt" height="240pt"
 viewBox="0.00 0.00 991.50 240.00" xmlns="http://www.w3.org/2000/svg" xmlns:xlink="http://www.w3.org/1999/xlink">
<g id="graph0" class="graph" transform="scale(1 1) rotate(0) translate(4 236)">
<title>libraries/AP_BattMonitor/AP_BattMonitor_Backend.h</title>
<polygon fill="white" stroke="none" points="-4,4 -4,-236 987.5,-236 987.5,4 -4,4"/>
<!-- Node1 -->
<g id="node1" class="node"><title>Node1</title>
<polygon fill="#bfbfbf" stroke="black" points="603,-201.5 603,-231.5 743,-231.5 743,-201.5 603,-201.5"/>
<text text-anchor="start" x="611" y="-219.5" font-family="Helvetica,sans-Serif" font-size="10.00">libraries/AP_BattMonitor</text>
<text text-anchor="middle" x="673" y="-208.5" font-family="Helvetica,sans-Serif" font-size="10.00">/AP_BattMonitor_Backend.h</text>
</g>
<!-- Node2 -->
<g id="node2" class="node"><title>Node2</title>
<g id="a_node2"><a xlink:href="$AP__BattMonitor__Analog_8h.html" xlink:title="libraries/AP_BattMonitor\l/AP_BattMonitor_Analog.h">
<polygon fill="white" stroke="black" points="682,-134.5 682,-164.5 814,-164.5 814,-134.5 682,-134.5"/>
<text text-anchor="start" x="690" y="-152.5" font-family="Helvetica,sans-Serif" font-size="10.00">libraries/AP_BattMonitor</text>
<text text-anchor="middle" x="748" y="-141.5" font-family="Helvetica,sans-Serif" font-size="10.00">/AP_BattMonitor_Analog.h</text>
</a>
</g>
</g>
<!-- Node1&#45;&gt;Node2 -->
<g id="edge1" class="edge"><title>Node1&#45;&gt;Node2</title>
<path fill="none" stroke="midnightblue" d="M697.118,-194.598C708.443,-184.783 721.641,-173.344 731.758,-164.577"/>
<polygon fill="midnightblue" stroke="midnightblue" points="694.539,-192.202 689.274,-201.396 699.123,-197.492 694.539,-192.202"/>
</g>
<!-- Node5 -->
<g id="node5" class="node"><title>Node5</title>
<g id="a_node5"><a xlink:href="$AP__BattMonitor__SMBus_8h.html" xlink:title="libraries/AP_BattMonitor\l/AP_BattMonitor_SMBus.h">
<polygon fill="white" stroke="black" points="205,-134.5 205,-164.5 339,-164.5 339,-134.5 205,-134.5"/>
<text text-anchor="start" x="213" y="-152.5" font-family="Helvetica,sans-Serif" font-size="10.00">libraries/AP_BattMonitor</text>
<text text-anchor="middle" x="272" y="-141.5" font-family="Helvetica,sans-Serif" font-size="10.00">/AP_BattMonitor_SMBus.h</text>
</a>
</g>
</g>
<!-- Node1&#45;&gt;Node5 -->
<g id="edge4" class="edge"><title>Node1&#45;&gt;Node5</title>
<path fill="none" stroke="midnightblue" d="M592.441,-202.442C518.104,-190.392 408.985,-172.705 339.219,-161.396"/>
<polygon fill="midnightblue" stroke="midnightblue" points="592.261,-205.958 602.692,-204.103 593.381,-199.048 592.261,-205.958"/>
</g>
<!-- Node11 -->
<g id="node11" class="node"><title>Node11</title>
<g id="a_node11"><a xlink:href="$AP__BattMonitor__Bebop_8h.html" xlink:title="libraries/AP_BattMonitor\l/AP_BattMonitor_Bebop.h">
<polygon fill="white" stroke="black" points="534,-134.5 534,-164.5 664,-164.5 664,-134.5 534,-134.5"/>
<text text-anchor="start" x="542" y="-152.5" font-family="Helvetica,sans-Serif" font-size="10.00">libraries/AP_BattMonitor</text>
<text text-anchor="middle" x="599" y="-141.5" font-family="Helvetica,sans-Serif" font-size="10.00">/AP_BattMonitor_Bebop.h</text>
</a>
</g>
</g>
<!-- Node1&#45;&gt;Node11 -->
<g id="edge13" class="edge"><title>Node1&#45;&gt;Node11</title>
<path fill="none" stroke="midnightblue" d="M649.204,-194.598C638.03,-184.783 625.007,-173.344 615.026,-164.577"/>
<polygon fill="midnightblue" stroke="midnightblue" points="647.12,-197.426 656.943,-201.396 651.74,-192.167 647.12,-197.426"/>
</g>
<!-- Node13 -->
<g id="node13" class="node"><title>Node13</title>
<g id="a_node13"><a xlink:href="$AP__BattMonitor__Backend_8cpp.html" xlink:title="libraries/AP_BattMonitor\l/AP_BattMonitor_Backend.cpp">
<polygon fill="white" stroke="black" points="832.5,-134.5 832.5,-164.5 983.5,-164.5 983.5,-134.5 832.5,-134.5"/>
<text text-anchor="start" x="840.5" y="-152.5" font-family="Helvetica,sans-Serif" font-size="10.00">libraries/AP_BattMonitor</text>
<text text-anchor="middle" x="908" y="-141.5" font-family="Helvetica,sans-Serif" font-size="10.00">/AP_BattMonitor_Backend.cpp</text>
</a>
</g>
</g>
<!-- Node1&#45;&gt;Node13 -->
<g id="edge16" class="edge"><title>Node1&#45;&gt;Node13</title>
<path fill="none" stroke="midnightblue" d="M733.684,-198.715C771.927,-188.137 820.743,-174.635 856.984,-164.611"/>
<polygon fill="midnightblue" stroke="midnightblue" points="732.407,-195.437 723.702,-201.476 734.273,-202.183 732.407,-195.437"/>
</g>
<!-- Node3 -->
<g id="node3" class="node"><title>Node3</title>
<g id="a_node3"><a xlink:href="$AP__BattMonitor_8cpp.html" xlink:title="libraries/AP_BattMonitor\l/AP_BattMonitor.cpp">
<polygon fill="white" stroke="black" points="538,-67.5 538,-97.5 660,-97.5 660,-67.5 538,-67.5"/>
<text text-anchor="start" x="546" y="-85.5" font-family="Helvetica,sans-Serif" font-size="10.00">libraries/AP_BattMonitor</text>
<text text-anchor="middle" x="599" y="-74.5" font-family="Helvetica,sans-Serif" font-size="10.00">/AP_BattMonitor.cpp</text>
</a>
</g>
</g>
<!-- Node2&#45;&gt;Node3 -->
<g id="edge2" class="edge"><title>Node2&#45;&gt;Node3</title>
<path fill="none" stroke="midnightblue" d="M706.208,-130.269C682.476,-119.916 653.22,-107.153 631.268,-97.5765"/>
<polygon fill="midnightblue" stroke="midnightblue" points="705.104,-133.605 715.669,-134.396 707.903,-127.189 705.104,-133.605"/>
</g>
<!-- Node4 -->
<g id="node4" class="node"><title>Node4</title>
<g id="a_node4"><a xlink:href="$AP__BattMonitor__Analog_8cpp.html" xlink:title="libraries/AP_BattMonitor\l/AP_BattMonitor_Analog.cpp">
<polygon fill="white" stroke="black" points="836.5,-67.5 836.5,-97.5 979.5,-97.5 979.5,-67.5 836.5,-67.5"/>
<text text-anchor="start" x="844.5" y="-85.5" font-family="Helvetica,sans-Serif" font-size="10.00">libraries/AP_BattMonitor</text>
<text text-anchor="middle" x="908" y="-74.5" font-family="Helvetica,sans-Serif" font-size="10.00">/AP_BattMonitor_Analog.cpp</text>
</a>
</g>
</g>
<!-- Node2&#45;&gt;Node4 -->
<g id="edge3" class="edge"><title>Node2&#45;&gt;Node4</title>
<path fill="none" stroke="midnightblue" d="M792.199,-130.544C817.802,-120.143 849.568,-107.238 873.35,-97.5765"/>
<polygon fill="midnightblue" stroke="midnightblue" points="790.665,-127.39 782.718,-134.396 793.3,-133.875 790.665,-127.39"/>
</g>
<!-- Node5&#45;&gt;Node3 -->
<g id="edge5" class="edge"><title>Node5&#45;&gt;Node3</title>
<path fill="none" stroke="midnightblue" d="M349.06,-133.438C399.892,-123.468 467.936,-110.057 528,-98 531.207,-97.3562 534.495,-96.6936 537.814,-96.0227"/>
<polygon fill="midnightblue" stroke="midnightblue" points="348.271,-130.026 339.131,-135.385 349.617,-136.895 348.271,-130.026"/>
</g>
<!-- Node6 -->
<g id="node6" class="node"><title>Node6</title>
<g id="a_node6"><a xlink:href="$AP__BattMonitor__SMBus__Solo_8h.html" xlink:title="libraries/AP_BattMonitor\l/AP_BattMonitor_SMBus_Solo.h">
<polygon fill="white" stroke="black" points="11.5,-67.5 11.5,-97.5 170.5,-97.5 170.5,-67.5 11.5,-67.5"/>
<text text-anchor="start" x="19.5" y="-85.5" font-family="Helvetica,sans-Serif" font-size="10.00">libraries/AP_BattMonitor</text>
<text text-anchor="middle" x="91" y="-74.5" font-family="Helvetica,sans-Serif" font-size="10.00">/AP_BattMonitor_SMBus_Solo.h</text>
</a>
</g>
</g>
<!-- Node5&#45;&gt;Node6 -->
<g id="edge6" class="edge"><title>Node5&#45;&gt;Node6</title>
<path fill="none" stroke="midnightblue" d="M217.468,-131.092C187.211,-120.599 150.608,-107.408 124.523,-97.5765"/>
<polygon fill="midnightblue" stroke="midnightblue" points="216.453,-134.444 227.047,-134.396 218.735,-127.826 216.453,-134.444"/>
</g>
<!-- Node8 -->
<g id="node8" class="node"><title>Node8</title>
<g id="a_node8"><a xlink:href="$AP__BattMonitor__SMBus__Maxell_8h.html" xlink:title="libraries/AP_BattMonitor\l/AP_BattMonitor_SMBus_Maxell.h">
<polygon fill="white" stroke="black" points="188,-67.5 188,-97.5 356,-97.5 356,-67.5 188,-67.5"/>
<text text-anchor="start" x="196" y="-85.5" font-family="Helvetica,sans-Serif" font-size="10.00">libraries/AP_BattMonitor</text>
<text text-anchor="middle" x="272" y="-74.5" font-family="Helvetica,sans-Serif" font-size="10.00">/AP_BattMonitor_SMBus_Maxell.h</text>
</a>
</g>
</g>
<!-- Node5&#45;&gt;Node8 -->
<g id="edge9" class="edge"><title>Node5&#45;&gt;Node8</title>
<path fill="none" stroke="midnightblue" d="M265.455,-124.403C265.005,-115.37 265.296,-105.408 266.325,-97.5765"/>
<polygon fill="midnightblue" stroke="midnightblue" points="261.97,-124.736 266.322,-134.396 268.944,-124.131 261.97,-124.736"/>
</g>
<!-- Node10 -->
<g id="node10" class="node"><title>Node10</title>
<g id="a_node10"><a xlink:href="$AP__BattMonitor__SMBus_8cpp.html" xlink:title="libraries/AP_BattMonitor\l/AP_BattMonitor_SMBus.cpp">
<polygon fill="white" stroke="black" points="374.5,-67.5 374.5,-97.5 519.5,-97.5 519.5,-67.5 374.5,-67.5"/>
<text text-anchor="start" x="382.5" y="-85.5" font-family="Helvetica,sans-Serif" font-size="10.00">libraries/AP_BattMonitor</text>
<text text-anchor="middle" x="447" y="-74.5" font-family="Helvetica,sans-Serif" font-size="10.00">/AP_BattMonitor_SMBus.cpp</text>
</a>
</g>
</g>
<!-- Node5&#45;&gt;Node10 -->
<g id="edge12" class="edge"><title>Node5&#45;&gt;Node10</title>
<path fill="none" stroke="midnightblue" d="M319.604,-130.819C347.733,-120.371 382.861,-107.323 409.102,-97.5765"/>
<polygon fill="midnightblue" stroke="midnightblue" points="318.128,-127.633 309.972,-134.396 320.565,-134.195 318.128,-127.633"/>
</g>
<!-- Node6&#45;&gt;Node5 -->
<g id="edge7" class="edge"><title>Node6&#45;&gt;Node5</title>
<path fill="none" stroke="midnightblue" d="M145.447,-100.879C175.692,-111.367 212.3,-124.558 238.404,-134.396"/>
<polygon fill="midnightblue" stroke="midnightblue" points="146.467,-97.5285 135.872,-97.5765 144.185,-104.146 146.467,-97.5285"/>
</g>
<!-- Node7 -->
<g id="node7" class="node"><title>Node7</title>
<g id="a_node7"><a xlink:href="$AP__BattMonitor__SMBus__Solo_8cpp.html" xlink:title="libraries/AP_BattMonitor\l/AP_BattMonitor_SMBus_Solo.cpp">
<polygon fill="white" stroke="black" points="0,-0.5 0,-30.5 170,-30.5 170,-0.5 0,-0.5"/>
<text text-anchor="start" x="8" y="-18.5" font-family="Helvetica,sans-Serif" font-size="10.00">libraries/AP_BattMonitor</text>
<text text-anchor="middle" x="85" y="-7.5" font-family="Helvetica,sans-Serif" font-size="10.00">/AP_BattMonitor_SMBus_Solo.cpp</text>
</a>
</g>
</g>
<!-- Node6&#45;&gt;Node7 -->
<g id="edge8" class="edge"><title>Node6&#45;&gt;Node7</title>
<path fill="none" stroke="midnightblue" d="M88.7757,-57.4029C87.9419,-48.3703 87.0223,-38.4078 86.2994,-30.5765"/>
<polygon fill="midnightblue" stroke="midnightblue" points="85.2936,-57.76 89.6981,-67.396 92.264,-57.1166 85.2936,-57.76"/>
</g>
<!-- Node8&#45;&gt;Node5 -->
<g id="edge10" class="edge"><title>Node8&#45;&gt;Node5</title>
<path fill="none" stroke="midnightblue" d="M278.544,-107.565C278.995,-116.596 278.706,-126.56 277.678,-134.396"/>
<polygon fill="midnightblue" stroke="midnightblue" points="282.028,-107.236 277.675,-97.5765 275.055,-107.842 282.028,-107.236"/>
</g>
<!-- Node9 -->
<g id="node9" class="node"><title>Node9</title>
<g id="a_node9"><a xlink:href="$AP__BattMonitor__SMBus__Maxell_8cpp.html" xlink:title="libraries/AP_BattMonitor\l/AP_BattMonitor_SMBus_Maxell.cpp">
<polygon fill="white" stroke="black" points="188.5,-0.5 188.5,-30.5 367.5,-30.5 367.5,-0.5 188.5,-0.5"/>
<text text-anchor="start" x="196.5" y="-18.5" font-family="Helvetica,sans-Serif" font-size="10.00">libraries/AP_BattMonitor</text>
<text text-anchor="middle" x="278" y="-7.5" font-family="Helvetica,sans-Serif" font-size="10.00">/AP_BattMonitor_SMBus_Maxell.cpp</text>
</a>
</g>
</g>
<!-- Node8&#45;&gt;Node9 -->
<g id="edge11" class="edge"><title>Node8&#45;&gt;Node9</title>
<path fill="none" stroke="midnightblue" d="M274.224,-57.4029C275.058,-48.3703 275.978,-38.4078 276.701,-30.5765"/>
<polygon fill="midnightblue" stroke="midnightblue" points="270.736,-57.1166 273.302,-67.396 277.706,-57.76 270.736,-57.1166"/>
</g>
<!-- Node11&#45;&gt;Node3 -->
<g id="edge14" class="edge"><title>Node11&#45;&gt;Node3</title>
<path fill="none" stroke="midnightblue" d="M599,-124.108C599,-115.154 599,-105.323 599,-97.5765"/>
<polygon fill="midnightblue" stroke="midnightblue" points="595.5,-124.396 599,-134.396 602.5,-124.396 595.5,-124.396"/>
</g>
<!-- Node12 -->
<g id="node12" class="node"><title>Node12</title>
<g id="a_node12"><a xlink:href="$AP__BattMonitor__Bebop_8cpp.html" xlink:title="libraries/AP_BattMonitor\l/AP_BattMonitor_Bebop.cpp">
<polygon fill="white" stroke="black" points="678,-67.5 678,-97.5 818,-97.5 818,-67.5 678,-67.5"/>
<text text-anchor="start" x="686" y="-85.5" font-family="Helvetica,sans-Serif" font-size="10.00">libraries/AP_BattMonitor</text>
<text text-anchor="middle" x="748" y="-74.5" font-family="Helvetica,sans-Serif" font-size="10.00">/AP_BattMonitor_Bebop.cpp</text>
</a>
</g>
</g>
<!-- Node11&#45;&gt;Node12 -->
<g id="edge15" class="edge"><title>Node11&#45;&gt;Node12</title>
<path fill="none" stroke="midnightblue" d="M640.792,-130.269C664.524,-119.916 693.78,-107.153 715.732,-97.5765"/>
<polygon fill="midnightblue" stroke="midnightblue" points="639.097,-127.189 631.331,-134.396 641.896,-133.605 639.097,-127.189"/>
</g>
</g>
</svg>
