<?xml version="1.0" encoding="UTF-8" standalone="no"?>
<!DOCTYPE svg PUBLIC "-//W3C//DTD SVG 1.1//EN"
 "http://www.w3.org/Graphics/SVG/1.1/DTD/svg11.dtd">
<!-- Generated by graphviz version 2.38.0 (20140413.2041)
 -->
<!-- Title: libraries/AP_VisualOdom/AP_VisualOdom.h Pages: 1 -->
<svg width="418pt" height="240pt"
 viewBox="0.00 0.00 417.50 240.00" xmlns="http://www.w3.org/2000/svg" xmlns:xlink="http://www.w3.org/1999/xlink">
<g id="graph0" class="graph" transform="scale(1 1) rotate(0) translate(4 236)">
<title>libraries/AP_VisualOdom/AP_VisualOdom.h</title>
<polygon fill="white" stroke="none" points="-4,4 -4,-236 413.5,-236 413.5,4 -4,4"/>
<!-- Node1 -->
<g id="node1" class="node"><title>Node1</title>
<polygon fill="#bfbfbf" stroke="black" points="38,-201.5 38,-231.5 163,-231.5 163,-201.5 38,-201.5"/>
<text text-anchor="start" x="46" y="-219.5" font-family="Helvetica,sans-Serif" font-size="10.00">libraries/AP_VisualOdom</text>
<text text-anchor="middle" x="100.5" y="-208.5" font-family="Helvetica,sans-Serif" font-size="10.00">/AP_VisualOdom.h</text>
</g>
<!-- Node2 -->
<g id="node2" class="node"><title>Node2</title>
<g id="a_node2"><a xlink:href="$AP__VisualOdom_8cpp.html" xlink:title="libraries/AP_VisualOdom\l/AP_VisualOdom.cpp">
<polygon fill="white" stroke="black" points="0,-0.5 0,-30.5 125,-30.5 125,-0.5 0,-0.5"/>
<text text-anchor="start" x="8" y="-18.5" font-family="Helvetica,sans-Serif" font-size="10.00">libraries/AP_VisualOdom</text>
<text text-anchor="middle" x="62.5" y="-7.5" font-family="Helvetica,sans-Serif" font-size="10.00">/AP_VisualOdom.cpp</text>
</a>
</g>
</g>
<!-- Node1&#45;&gt;Node2 -->
<g id="edge1" class="edge"><title>Node1&#45;&gt;Node2</title>
<path fill="none" stroke="midnightblue" d="M87.9896,-192.252C84.0077,-183.882 79.9937,-174.224 77.5,-165 64.5165,-116.972 62.5708,-57.4548 62.4094,-30.6979"/>
<polygon fill="midnightblue" stroke="midnightblue" points="84.953,-194.005 92.5563,-201.383 91.2137,-190.874 84.953,-194.005"/>
</g>
<!-- Node3 -->
<g id="node3" class="node"><title>Node3</title>
<g id="a_node3"><a xlink:href="$AP__VisualOdom__Backend_8h.html" xlink:title="libraries/AP_VisualOdom\l/AP_VisualOdom_Backend.h">
<polygon fill="white" stroke="black" points="87,-134.5 87,-164.5 230,-164.5 230,-134.5 87,-134.5"/>
<text text-anchor="start" x="95" y="-152.5" font-family="Helvetica,sans-Serif" font-size="10.00">libraries/AP_VisualOdom</text>
<text text-anchor="middle" x="158.5" y="-141.5" font-family="Helvetica,sans-Serif" font-size="10.00">/AP_VisualOdom_Backend.h</text>
</a>
</g>
</g>
<!-- Node1&#45;&gt;Node3 -->
<g id="edge2" class="edge"><title>Node1&#45;&gt;Node3</title>
<path fill="none" stroke="midnightblue" d="M119.92,-193.736C128.502,-184.119 138.344,-173.089 145.939,-164.577"/>
<polygon fill="midnightblue" stroke="midnightblue" points="117.132,-191.604 113.085,-201.396 122.355,-196.265 117.132,-191.604"/>
</g>
<!-- Node3&#45;&gt;Node2 -->
<g id="edge3" class="edge"><title>Node3&#45;&gt;Node2</title>
<path fill="none" stroke="midnightblue" d="M130.319,-128.002C120.024,-119.539 108.864,-109.11 100.5,-98 84.5368,-76.7976 73.0175,-47.8148 67.0795,-30.7348"/>
<polygon fill="midnightblue" stroke="midnightblue" points="128.309,-130.875 138.32,-134.343 132.657,-125.389 128.309,-130.875"/>
</g>
<!-- Node4 -->
<g id="node4" class="node"><title>Node4</title>
<g id="a_node4"><a xlink:href="$AP__VisualOdom__MAV_8h.html" xlink:title="libraries/AP_VisualOdom\l/AP_VisualOdom_MAV.h">
<polygon fill="white" stroke="black" points="110,-67.5 110,-97.5 237,-97.5 237,-67.5 110,-67.5"/>
<text text-anchor="start" x="118" y="-85.5" font-family="Helvetica,sans-Serif" font-size="10.00">libraries/AP_VisualOdom</text>
<text text-anchor="middle" x="173.5" y="-74.5" font-family="Helvetica,sans-Serif" font-size="10.00">/AP_VisualOdom_MAV.h</text>
</a>
</g>
</g>
<!-- Node3&#45;&gt;Node4 -->
<g id="edge4" class="edge"><title>Node3&#45;&gt;Node4</title>
<path fill="none" stroke="midnightblue" d="M164.061,-124.403C166.145,-115.37 168.444,-105.408 170.252,-97.5765"/>
<polygon fill="midnightblue" stroke="midnightblue" points="160.593,-123.865 161.755,-134.396 167.414,-125.439 160.593,-123.865"/>
</g>
<!-- Node6 -->
<g id="node6" class="node"><title>Node6</title>
<g id="a_node6"><a xlink:href="$AP__VisualOdom__Backend_8cpp.html" xlink:title="libraries/AP_VisualOdom\l/AP_VisualOdom_Backend.cpp">
<polygon fill="white" stroke="black" points="255.5,-67.5 255.5,-97.5 409.5,-97.5 409.5,-67.5 255.5,-67.5"/>
<text text-anchor="start" x="263.5" y="-85.5" font-family="Helvetica,sans-Serif" font-size="10.00">libraries/AP_VisualOdom</text>
<text text-anchor="middle" x="332.5" y="-74.5" font-family="Helvetica,sans-Serif" font-size="10.00">/AP_VisualOdom_Backend.cpp</text>
</a>
</g>
</g>
<!-- Node3&#45;&gt;Node6 -->
<g id="edge7" class="edge"><title>Node3&#45;&gt;Node6</title>
<path fill="none" stroke="midnightblue" d="M205.832,-130.819C233.8,-120.371 268.727,-107.323 294.818,-97.5765"/>
<polygon fill="midnightblue" stroke="midnightblue" points="204.398,-127.618 196.255,-134.396 206.848,-134.175 204.398,-127.618"/>
</g>
<!-- Node4&#45;&gt;Node2 -->
<g id="edge5" class="edge"><title>Node4&#45;&gt;Node2</title>
<path fill="none" stroke="midnightblue" d="M140.705,-62.2956C123.336,-52.1248 102.383,-39.8549 86.5383,-30.5765"/>
<polygon fill="midnightblue" stroke="midnightblue" points="139.017,-65.363 149.415,-67.396 142.554,-59.3224 139.017,-65.363"/>
</g>
<!-- Node5 -->
<g id="node5" class="node"><title>Node5</title>
<g id="a_node5"><a xlink:href="$AP__VisualOdom__MAV_8cpp.html" xlink:title="libraries/AP_VisualOdom\l/AP_VisualOdom_MAV.cpp">
<polygon fill="white" stroke="black" points="143,-0.5 143,-30.5 280,-30.5 280,-0.5 143,-0.5"/>
<text text-anchor="start" x="151" y="-18.5" font-family="Helvetica,sans-Serif" font-size="10.00">libraries/AP_VisualOdom</text>
<text text-anchor="middle" x="211.5" y="-7.5" font-family="Helvetica,sans-Serif" font-size="10.00">/AP_VisualOdom_MAV.cpp</text>
</a>
</g>
</g>
<!-- Node4&#45;&gt;Node5 -->
<g id="edge6" class="edge"><title>Node4&#45;&gt;Node5</title>
<path fill="none" stroke="midnightblue" d="M186.902,-58.5756C192.359,-49.2406 198.493,-38.7483 203.271,-30.5765"/>
<polygon fill="midnightblue" stroke="midnightblue" points="183.771,-56.9965 181.745,-67.396 189.814,-60.5294 183.771,-56.9965"/>
</g>
</g>
</svg>
