<?xml version="1.0" encoding="UTF-8" standalone="no"?>
<!DOCTYPE svg PUBLIC "-//W3C//DTD SVG 1.1//EN"
 "http://www.w3.org/Graphics/SVG/1.1/DTD/svg11.dtd">
<!-- Generated by graphviz version 2.38.0 (20140413.2041)
 -->
<!-- Title: libraries/AP_VisualOdom/AP_VisualOdom_MAV.h Pages: 1 -->
<svg width="288pt" height="106pt"
 viewBox="0.00 0.00 288.00 106.00" xmlns="http://www.w3.org/2000/svg" xmlns:xlink="http://www.w3.org/1999/xlink">
<g id="graph0" class="graph" transform="scale(1 1) rotate(0) translate(4 102)">
<title>libraries/AP_VisualOdom/AP_VisualOdom_MAV.h</title>
<polygon fill="white" stroke="none" points="-4,4 -4,-102 284,-102 284,4 -4,4"/>
<!-- Node1 -->
<g id="node1" class="node"><title>Node1</title>
<polygon fill="#bfbfbf" stroke="black" points="73,-67.5 73,-97.5 200,-97.5 200,-67.5 73,-67.5"/>
<text text-anchor="start" x="81" y="-85.5" font-family="Helvetica,sans-Serif" font-size="10.00">libraries/AP_VisualOdom</text>
<text text-anchor="middle" x="136.5" y="-74.5" font-family="Helvetica,sans-Serif" font-size="10.00">/AP_VisualOdom_MAV.h</text>
</g>
<!-- Node2 -->
<g id="node2" class="node"><title>Node2</title>
<g id="a_node2"><a xlink:href="$AP__VisualOdom_8cpp.html" xlink:title="libraries/AP_VisualOdom\l/AP_VisualOdom.cpp">
<polygon fill="white" stroke="black" points="0,-0.5 0,-30.5 125,-30.5 125,-0.5 0,-0.5"/>
<text text-anchor="start" x="8" y="-18.5" font-family="Helvetica,sans-Serif" font-size="10.00">libraries/AP_VisualOdom</text>
<text text-anchor="middle" x="62.5" y="-7.5" font-family="Helvetica,sans-Serif" font-size="10.00">/AP_VisualOdom.cpp</text>
</a>
</g>
</g>
<!-- Node1&#45;&gt;Node2 -->
<g id="edge1" class="edge"><title>Node1&#45;&gt;Node2</title>
<path fill="none" stroke="midnightblue" d="M112.704,-60.5978C101.53,-50.7831 88.5072,-39.3442 78.5256,-30.5765"/>
<polygon fill="midnightblue" stroke="midnightblue" points="110.62,-63.4261 120.443,-67.396 115.24,-58.1669 110.62,-63.4261"/>
</g>
<!-- Node3 -->
<g id="node3" class="node"><title>Node3</title>
<g id="a_node3"><a xlink:href="$AP__VisualOdom__MAV_8cpp.html" xlink:title="libraries/AP_VisualOdom\l/AP_VisualOdom_MAV.cpp">
<polygon fill="white" stroke="black" points="143,-0.5 143,-30.5 280,-30.5 280,-0.5 143,-0.5"/>
<text text-anchor="start" x="151" y="-18.5" font-family="Helvetica,sans-Serif" font-size="10.00">libraries/AP_VisualOdom</text>
<text text-anchor="middle" x="211.5" y="-7.5" font-family="Helvetica,sans-Serif" font-size="10.00">/AP_VisualOdom_MAV.cpp</text>
</a>
</g>
</g>
<!-- Node1&#45;&gt;Node3 -->
<g id="edge2" class="edge"><title>Node1&#45;&gt;Node3</title>
<path fill="none" stroke="midnightblue" d="M160.618,-60.5978C171.943,-50.7831 185.141,-39.3442 195.258,-30.5765"/>
<polygon fill="midnightblue" stroke="midnightblue" points="158.039,-58.2017 152.774,-67.396 162.623,-63.4915 158.039,-58.2017"/>
</g>
</g>
</svg>
