<?xml version="1.0" encoding="UTF-8" standalone="no"?>
<!DOCTYPE svg PUBLIC "-//W3C//DTD SVG 1.1//EN"
 "http://www.w3.org/Graphics/SVG/1.1/DTD/svg11.dtd">
<!-- Generated by graphviz version 2.38.0 (20140413.2041)
 -->
<!-- Title: libraries/AP_SpdHgtControl/AP_SpdHgtControl.h Pages: 1 -->
<svg width="742pt" height="307pt"
 viewBox="0.00 0.00 741.50 307.00" xmlns="http://www.w3.org/2000/svg" xmlns:xlink="http://www.w3.org/1999/xlink">
<g id="graph0" class="graph" transform="scale(1 1) rotate(0) translate(4 303)">
<title>libraries/AP_SpdHgtControl/AP_SpdHgtControl.h</title>
<polygon fill="white" stroke="none" points="-4,4 -4,-303 737.5,-303 737.5,4 -4,4"/>
<!-- Node1 -->
<g id="node1" class="node"><title>Node1</title>
<polygon fill="#bfbfbf" stroke="black" points="362.5,-268.5 362.5,-298.5 499.5,-298.5 499.5,-268.5 362.5,-268.5"/>
<text text-anchor="start" x="370.5" y="-286.5" font-family="Helvetica,sans-Serif" font-size="10.00">libraries/AP_SpdHgtControl</text>
<text text-anchor="middle" x="431" y="-275.5" font-family="Helvetica,sans-Serif" font-size="10.00">/AP_SpdHgtControl.h</text>
</g>
<!-- Node2 -->
<g id="node2" class="node"><title>Node2</title>
<g id="a_node2"><a xlink:href="$AP__L1__Control_8h.html" xlink:title="L1 Control algorithm. This is a instance of an AP_Navigation class. ">
<polygon fill="white" stroke="black" points="145.5,-201.5 145.5,-231.5 264.5,-231.5 264.5,-201.5 145.5,-201.5"/>
<text text-anchor="start" x="153.5" y="-219.5" font-family="Helvetica,sans-Serif" font-size="10.00">libraries/AP_L1_Control</text>
<text text-anchor="middle" x="205" y="-208.5" font-family="Helvetica,sans-Serif" font-size="10.00">/AP_L1_Control.h</text>
</a>
</g>
</g>
<!-- Node1&#45;&gt;Node2 -->
<g id="edge1" class="edge"><title>Node1&#45;&gt;Node2</title>
<path fill="none" stroke="midnightblue" d="M372.17,-265.58C335.463,-255.022 288.767,-241.592 254.063,-231.611"/>
<polygon fill="midnightblue" stroke="midnightblue" points="371.662,-269.076 382.24,-268.476 373.597,-262.348 371.662,-269.076"/>
</g>
<!-- Node4 -->
<g id="node4" class="node"><title>Node4</title>
<g id="a_node4"><a xlink:href="$AP__Landing_8h.html" xlink:title="libraries/AP_Landing\l/AP_Landing.h">
<polygon fill="white" stroke="black" points="285,-134.5 285,-164.5 391,-164.5 391,-134.5 285,-134.5"/>
<text text-anchor="start" x="293" y="-152.5" font-family="Helvetica,sans-Serif" font-size="10.00">libraries/AP_Landing</text>
<text text-anchor="middle" x="338" y="-141.5" font-family="Helvetica,sans-Serif" font-size="10.00">/AP_Landing.h</text>
</a>
</g>
</g>
<!-- Node1&#45;&gt;Node4 -->
<g id="edge3" class="edge"><title>Node1&#45;&gt;Node4</title>
<path fill="none" stroke="midnightblue" d="M352.779,-264.543C336.704,-257.141 321.734,-246.705 312,-232 298.064,-210.947 314.102,-181.915 326.45,-164.785"/>
<polygon fill="midnightblue" stroke="midnightblue" points="351.765,-267.913 362.34,-268.56 354.476,-261.46 351.765,-267.913"/>
</g>
<!-- Node8 -->
<g id="node8" class="node"><title>Node8</title>
<g id="a_node8"><a xlink:href="$AP__TECS_8h.html" xlink:title="Combined Total Energy Speed &amp; Height Control. This is a instance of an AP_SpdHgtControl class...">
<polygon fill="white" stroke="black" points="419,-67.5 419,-97.5 535,-97.5 535,-67.5 419,-67.5"/>
<text text-anchor="start" x="427" y="-85.5" font-family="Helvetica,sans-Serif" font-size="10.00">libraries/AP_TECS/AP</text>
<text text-anchor="middle" x="477" y="-74.5" font-family="Helvetica,sans-Serif" font-size="10.00">_TECS.h</text>
</a>
</g>
</g>
<!-- Node1&#45;&gt;Node8 -->
<g id="edge17" class="edge"><title>Node1&#45;&gt;Node8</title>
<path fill="none" stroke="midnightblue" d="M444.866,-259.643C449.403,-251.222 454.034,-241.432 457,-232 471.983,-184.353 475.741,-124.645 476.684,-97.7694"/>
<polygon fill="midnightblue" stroke="midnightblue" points="441.747,-258.049 439.878,-268.477 447.843,-261.491 441.747,-258.049"/>
</g>
<!-- Node10 -->
<g id="node10" class="node"><title>Node10</title>
<g id="a_node10"><a xlink:href="$AP__Landing__Deepstall_8h.html" xlink:title="libraries/AP_Landing\l/AP_Landing_Deepstall.h">
<polygon fill="white" stroke="black" points="321.5,-201.5 321.5,-231.5 448.5,-231.5 448.5,-201.5 321.5,-201.5"/>
<text text-anchor="start" x="329.5" y="-219.5" font-family="Helvetica,sans-Serif" font-size="10.00">libraries/AP_Landing</text>
<text text-anchor="middle" x="385" y="-208.5" font-family="Helvetica,sans-Serif" font-size="10.00">/AP_Landing_Deepstall.h</text>
</a>
</g>
</g>
<!-- Node1&#45;&gt;Node10 -->
<g id="edge9" class="edge"><title>Node1&#45;&gt;Node10</title>
<path fill="none" stroke="midnightblue" d="M415.188,-260.157C408.48,-250.679 400.865,-239.919 394.962,-231.577"/>
<polygon fill="midnightblue" stroke="midnightblue" points="412.385,-262.255 421.019,-268.396 418.099,-258.211 412.385,-262.255"/>
</g>
<!-- Node11 -->
<g id="node11" class="node"><title>Node11</title>
<g id="a_node11"><a xlink:href="$Variometer_8h.html" xlink:title="libraries/AP_Soaring\l/Variometer.h">
<polygon fill="white" stroke="black" points="543.5,-201.5 543.5,-231.5 648.5,-231.5 648.5,-201.5 543.5,-201.5"/>
<text text-anchor="start" x="551.5" y="-219.5" font-family="Helvetica,sans-Serif" font-size="10.00">libraries/AP_Soaring</text>
<text text-anchor="middle" x="596" y="-208.5" font-family="Helvetica,sans-Serif" font-size="10.00">/Variometer.h</text>
</a>
</g>
</g>
<!-- Node1&#45;&gt;Node11 -->
<g id="edge11" class="edge"><title>Node1&#45;&gt;Node11</title>
<path fill="none" stroke="midnightblue" d="M476.232,-264.682C502.694,-254.257 535.634,-241.281 560.267,-231.577"/>
<polygon fill="midnightblue" stroke="midnightblue" points="474.824,-261.474 466.803,-268.396 477.389,-267.987 474.824,-261.474"/>
</g>
<!-- Node12 -->
<g id="node12" class="node"><title>Node12</title>
<g id="a_node12"><a xlink:href="$AP__Soaring_8h.html" xlink:title="libraries/AP_Soaring\l/AP_Soaring.h">
<polygon fill="white" stroke="black" points="505.5,-134.5 505.5,-164.5 610.5,-164.5 610.5,-134.5 505.5,-134.5"/>
<text text-anchor="start" x="513.5" y="-152.5" font-family="Helvetica,sans-Serif" font-size="10.00">libraries/AP_Soaring</text>
<text text-anchor="middle" x="558" y="-141.5" font-family="Helvetica,sans-Serif" font-size="10.00">/AP_Soaring.h</text>
</a>
</g>
</g>
<!-- Node1&#45;&gt;Node12 -->
<g id="edge16" class="edge"><title>Node1&#45;&gt;Node12</title>
<path fill="none" stroke="midnightblue" d="M457.497,-261.957C468.283,-253.153 480.627,-242.494 491,-232 512.762,-209.985 534.99,-181.518 547.585,-164.713"/>
<polygon fill="midnightblue" stroke="midnightblue" points="455.213,-259.302 449.61,-268.295 459.598,-264.759 455.213,-259.302"/>
</g>
<!-- Node3 -->
<g id="node3" class="node"><title>Node3</title>
<g id="a_node3"><a xlink:href="$AP__L1__Control_8cpp.html" xlink:title="libraries/AP_L1_Control\l/AP_L1_Control.cpp">
<polygon fill="white" stroke="black" points="145.5,-134.5 145.5,-164.5 264.5,-164.5 264.5,-134.5 145.5,-134.5"/>
<text text-anchor="start" x="153.5" y="-152.5" font-family="Helvetica,sans-Serif" font-size="10.00">libraries/AP_L1_Control</text>
<text text-anchor="middle" x="205" y="-141.5" font-family="Helvetica,sans-Serif" font-size="10.00">/AP_L1_Control.cpp</text>
</a>
</g>
</g>
<!-- Node2&#45;&gt;Node3 -->
<g id="edge2" class="edge"><title>Node2&#45;&gt;Node3</title>
<path fill="none" stroke="midnightblue" d="M205,-191.108C205,-182.154 205,-172.323 205,-164.577"/>
<polygon fill="midnightblue" stroke="midnightblue" points="201.5,-191.396 205,-201.396 208.5,-191.396 201.5,-191.396"/>
</g>
<!-- Node5 -->
<g id="node5" class="node"><title>Node5</title>
<g id="a_node5"><a xlink:href="$AP__Landing_8cpp.html" xlink:title="libraries/AP_Landing\l/AP_Landing.cpp">
<polygon fill="white" stroke="black" points="0,-67.5 0,-97.5 106,-97.5 106,-67.5 0,-67.5"/>
<text text-anchor="start" x="8" y="-85.5" font-family="Helvetica,sans-Serif" font-size="10.00">libraries/AP_Landing</text>
<text text-anchor="middle" x="53" y="-74.5" font-family="Helvetica,sans-Serif" font-size="10.00">/AP_Landing.cpp</text>
</a>
</g>
</g>
<!-- Node4&#45;&gt;Node5 -->
<g id="edge4" class="edge"><title>Node4&#45;&gt;Node5</title>
<path fill="none" stroke="midnightblue" d="M274.968,-134.35C230.292,-124.291 168.946,-110.416 115,-98 112.091,-97.3305 109.107,-96.641 106.094,-95.9431"/>
<polygon fill="midnightblue" stroke="midnightblue" points="274.284,-137.784 284.808,-136.565 275.821,-130.955 274.284,-137.784"/>
</g>
<!-- Node6 -->
<g id="node6" class="node"><title>Node6</title>
<g id="a_node6"><a xlink:href="$AP__Landing__Deepstall_8cpp.html" xlink:title="libraries/AP_Landing\l/AP_Landing_Deepstall.cpp">
<polygon fill="white" stroke="black" points="124.5,-67.5 124.5,-97.5 261.5,-97.5 261.5,-67.5 124.5,-67.5"/>
<text text-anchor="start" x="132.5" y="-85.5" font-family="Helvetica,sans-Serif" font-size="10.00">libraries/AP_Landing</text>
<text text-anchor="middle" x="193" y="-74.5" font-family="Helvetica,sans-Serif" font-size="10.00">/AP_Landing_Deepstall.cpp</text>
</a>
</g>
</g>
<!-- Node4&#45;&gt;Node6 -->
<g id="edge5" class="edge"><title>Node4&#45;&gt;Node6</title>
<path fill="none" stroke="midnightblue" d="M297.33,-130.269C274.235,-119.916 245.764,-107.153 224.401,-97.5765"/>
<polygon fill="midnightblue" stroke="midnightblue" points="295.98,-133.499 306.537,-134.396 298.844,-127.112 295.98,-133.499"/>
</g>
<!-- Node7 -->
<g id="node7" class="node"><title>Node7</title>
<g id="a_node7"><a xlink:href="$AP__Landing__Slope_8cpp.html" xlink:title="libraries/AP_Landing\l/AP_Landing_Slope.cpp">
<polygon fill="white" stroke="black" points="279.5,-67.5 279.5,-97.5 400.5,-97.5 400.5,-67.5 279.5,-67.5"/>
<text text-anchor="start" x="287.5" y="-85.5" font-family="Helvetica,sans-Serif" font-size="10.00">libraries/AP_Landing</text>
<text text-anchor="middle" x="340" y="-74.5" font-family="Helvetica,sans-Serif" font-size="10.00">/AP_Landing_Slope.cpp</text>
</a>
</g>
</g>
<!-- Node4&#45;&gt;Node7 -->
<g id="edge6" class="edge"><title>Node4&#45;&gt;Node7</title>
<path fill="none" stroke="midnightblue" d="M338.751,-124.108C339.026,-115.154 339.329,-105.323 339.567,-97.5765"/>
<polygon fill="midnightblue" stroke="midnightblue" points="335.243,-124.293 338.434,-134.396 342.24,-124.508 335.243,-124.293"/>
</g>
<!-- Node4&#45;&gt;Node8 -->
<g id="edge7" class="edge"><title>Node4&#45;&gt;Node8</title>
<path fill="none" stroke="midnightblue" d="M377.282,-130.131C399.369,-119.802 426.51,-107.11 446.898,-97.5765"/>
<polygon fill="midnightblue" stroke="midnightblue" points="375.737,-126.989 368.161,-134.396 378.702,-133.33 375.737,-126.989"/>
</g>
<!-- Node9 -->
<g id="node9" class="node"><title>Node9</title>
<g id="a_node9"><a xlink:href="$AP__TECS_8cpp.html" xlink:title="libraries/AP_TECS/AP\l_TECS.cpp">
<polygon fill="white" stroke="black" points="419,-0.5 419,-30.5 535,-30.5 535,-0.5 419,-0.5"/>
<text text-anchor="start" x="427" y="-18.5" font-family="Helvetica,sans-Serif" font-size="10.00">libraries/AP_TECS/AP</text>
<text text-anchor="middle" x="477" y="-7.5" font-family="Helvetica,sans-Serif" font-size="10.00">_TECS.cpp</text>
</a>
</g>
</g>
<!-- Node8&#45;&gt;Node9 -->
<g id="edge8" class="edge"><title>Node8&#45;&gt;Node9</title>
<path fill="none" stroke="midnightblue" d="M477,-57.1081C477,-48.1539 477,-38.3227 477,-30.5765"/>
<polygon fill="midnightblue" stroke="midnightblue" points="473.5,-57.3959 477,-67.396 480.5,-57.396 473.5,-57.3959"/>
</g>
<!-- Node10&#45;&gt;Node4 -->
<g id="edge10" class="edge"><title>Node10&#45;&gt;Node4</title>
<path fill="none" stroke="midnightblue" d="M368.845,-193.157C361.991,-183.679 354.21,-172.919 348.178,-164.577"/>
<polygon fill="midnightblue" stroke="midnightblue" points="366.106,-195.343 374.802,-201.396 371.778,-191.242 366.106,-195.343"/>
</g>
<!-- Node11&#45;&gt;Node12 -->
<g id="edge12" class="edge"><title>Node11&#45;&gt;Node12</title>
<path fill="none" stroke="midnightblue" d="M582.598,-192.576C577.141,-183.241 571.007,-172.748 566.229,-164.577"/>
<polygon fill="midnightblue" stroke="midnightblue" points="579.686,-194.529 587.755,-201.396 585.729,-190.997 579.686,-194.529"/>
</g>
<!-- Node14 -->
<g id="node14" class="node"><title>Node14</title>
<g id="a_node14"><a xlink:href="$Variometer_8cpp.html" xlink:title="libraries/AP_Soaring\l/Variometer.cpp">
<polygon fill="white" stroke="black" points="628.5,-134.5 628.5,-164.5 733.5,-164.5 733.5,-134.5 628.5,-134.5"/>
<text text-anchor="start" x="636.5" y="-152.5" font-family="Helvetica,sans-Serif" font-size="10.00">libraries/AP_Soaring</text>
<text text-anchor="middle" x="681" y="-141.5" font-family="Helvetica,sans-Serif" font-size="10.00">/Variometer.cpp</text>
</a>
</g>
</g>
<!-- Node11&#45;&gt;Node14 -->
<g id="edge15" class="edge"><title>Node11&#45;&gt;Node14</title>
<path fill="none" stroke="midnightblue" d="M622.588,-195.168C635.586,-185.228 650.904,-173.514 662.592,-164.577"/>
<polygon fill="midnightblue" stroke="midnightblue" points="620.261,-192.541 614.444,-201.396 624.513,-198.102 620.261,-192.541"/>
</g>
<!-- Node12&#45;&gt;Node8 -->
<g id="edge14" class="edge"><title>Node12&#45;&gt;Node8</title>
<path fill="none" stroke="midnightblue" d="M532.308,-127.883C519.999,-118.005 505.573,-106.429 494.541,-97.5765"/>
<polygon fill="midnightblue" stroke="midnightblue" points="530.434,-130.867 540.424,-134.396 534.815,-125.407 530.434,-130.867"/>
</g>
<!-- Node13 -->
<g id="node13" class="node"><title>Node13</title>
<g id="a_node13"><a xlink:href="$AP__Soaring_8cpp.html" xlink:title="libraries/AP_Soaring\l/AP_Soaring.cpp">
<polygon fill="white" stroke="black" points="553.5,-67.5 553.5,-97.5 658.5,-97.5 658.5,-67.5 553.5,-67.5"/>
<text text-anchor="start" x="561.5" y="-85.5" font-family="Helvetica,sans-Serif" font-size="10.00">libraries/AP_Soaring</text>
<text text-anchor="middle" x="606" y="-74.5" font-family="Helvetica,sans-Serif" font-size="10.00">/AP_Soaring.cpp</text>
</a>
</g>
</g>
<!-- Node12&#45;&gt;Node13 -->
<g id="edge13" class="edge"><title>Node12&#45;&gt;Node13</title>
<path fill="none" stroke="midnightblue" d="M574.499,-126.157C581.499,-116.679 589.445,-105.919 595.605,-97.5765"/>
<polygon fill="midnightblue" stroke="midnightblue" points="571.54,-124.272 568.415,-134.396 577.171,-128.431 571.54,-124.272"/>
</g>
</g>
</svg>
