<?xml version="1.0" encoding="UTF-8" standalone="no"?>
<!DOCTYPE svg PUBLIC "-//W3C//DTD SVG 1.1//EN"
 "http://www.w3.org/Graphics/SVG/1.1/DTD/svg11.dtd">
<!-- Generated by graphviz version 2.38.0 (20140413.2041)
 -->
<!-- Title: libraries/AP_BoardConfig/AP_BoardConfig.h Pages: 1 -->
<svg width="3810pt" height="184pt"
 viewBox="0.00 0.00 3809.50 184.00" xmlns="http://www.w3.org/2000/svg" xmlns:xlink="http://www.w3.org/1999/xlink">
<g id="graph0" class="graph" transform="scale(1 1) rotate(0) translate(4 180)">
<title>libraries/AP_BoardConfig/AP_BoardConfig.h</title>
<polygon fill="white" stroke="none" points="-4,4 -4,-180 3805.5,-180 3805.5,4 -4,4"/>
<!-- Node1 -->
<g id="node1" class="node"><title>Node1</title>
<polygon fill="#bfbfbf" stroke="black" points="1779,-145.5 1779,-175.5 1905,-175.5 1905,-145.5 1779,-145.5"/>
<text text-anchor="start" x="1787" y="-163.5" font-family="Helvetica,sans-Serif" font-size="10.00">libraries/AP_BoardConfig</text>
<text text-anchor="middle" x="1842" y="-152.5" font-family="Helvetica,sans-Serif" font-size="10.00">/AP_BoardConfig.h</text>
</g>
<!-- Node2 -->
<g id="node2" class="node"><title>Node2</title>
<g id="a_node2"><a xlink:href="$AHRS__Test_8cpp.html" xlink:title="libraries/AP_AHRS/examples\l/AHRS_Test/AHRS_Test.cpp">
<polygon fill="white" stroke="black" points="0,-73 0,-103 148,-103 148,-73 0,-73"/>
<text text-anchor="start" x="8" y="-91" font-family="Helvetica,sans-Serif" font-size="10.00">libraries/AP_AHRS/examples</text>
<text text-anchor="middle" x="74" y="-80" font-family="Helvetica,sans-Serif" font-size="10.00">/AHRS_Test/AHRS_Test.cpp</text>
</a>
</g>
</g>
<!-- Node1&#45;&gt;Node2 -->
<g id="edge1" class="edge"><title>Node1&#45;&gt;Node2</title>
<path fill="none" stroke="midnightblue" d="M1768.56,-159.315C1486.89,-158.293 475.409,-151.668 157,-109 146.569,-107.602 135.54,-105.441 125.047,-103.048"/>
<polygon fill="midnightblue" stroke="midnightblue" points="1768.66,-162.815 1778.67,-159.351 1768.68,-155.815 1768.66,-162.815"/>
</g>
<!-- Node3 -->
<g id="node3" class="node"><title>Node3</title>
<g id="a_node3"><a xlink:href="$Airspeed_8cpp.html" xlink:title="libraries/AP_Airspeed\l/examples/Airspeed/Airspeed.cpp">
<polygon fill="white" stroke="black" points="166.5,-73 166.5,-103 329.5,-103 329.5,-73 166.5,-73"/>
<text text-anchor="start" x="174.5" y="-91" font-family="Helvetica,sans-Serif" font-size="10.00">libraries/AP_Airspeed</text>
<text text-anchor="middle" x="248" y="-80" font-family="Helvetica,sans-Serif" font-size="10.00">/examples/Airspeed/Airspeed.cpp</text>
</a>
</g>
</g>
<!-- Node1&#45;&gt;Node3 -->
<g id="edge2" class="edge"><title>Node1&#45;&gt;Node3</title>
<path fill="none" stroke="midnightblue" d="M1768.62,-158.695C1507.57,-155.571 624.609,-142.707 344,-109 332.083,-107.569 319.45,-105.409 307.397,-103.03"/>
<polygon fill="midnightblue" stroke="midnightblue" points="1768.7,-162.196 1778.74,-158.815 1768.79,-155.197 1768.7,-162.196"/>
</g>
<!-- Node4 -->
<g id="node4" class="node"><title>Node4</title>
<g id="a_node4"><a xlink:href="$AP__Baro_8cpp.html" xlink:title="libraries/AP_Baro/AP\l_Baro.cpp">
<polygon fill="white" stroke="black" points="418.5,-0.5 418.5,-30.5 527.5,-30.5 527.5,-0.5 418.5,-0.5"/>
<text text-anchor="start" x="426.5" y="-18.5" font-family="Helvetica,sans-Serif" font-size="10.00">libraries/AP_Baro/AP</text>
<text text-anchor="middle" x="473" y="-7.5" font-family="Helvetica,sans-Serif" font-size="10.00">_Baro.cpp</text>
</a>
</g>
</g>
<!-- Node1&#45;&gt;Node4 -->
<g id="edge3" class="edge"><title>Node1&#45;&gt;Node4</title>
<path fill="none" stroke="midnightblue" d="M1768.21,-159.766C1477.62,-160.457 425.743,-159.452 377,-109 364.03,-95.5752 367.351,-82.9791 377,-67 387.319,-49.9121 405.552,-38.317 423.375,-30.5957"/>
<polygon fill="midnightblue" stroke="midnightblue" points="1768.64,-163.265 1778.63,-159.74 1768.62,-156.265 1768.64,-163.265"/>
</g>
<!-- Node5 -->
<g id="node5" class="node"><title>Node5</title>
<g id="a_node5"><a xlink:href="$BARO__generic_8cpp.html" xlink:title="libraries/AP_Baro/examples\l/BARO_generic/BARO_generic.cpp">
<polygon fill="white" stroke="black" points="386,-73 386,-103 558,-103 558,-73 386,-73"/>
<text text-anchor="start" x="394" y="-91" font-family="Helvetica,sans-Serif" font-size="10.00">libraries/AP_Baro/examples</text>
<text text-anchor="middle" x="472" y="-80" font-family="Helvetica,sans-Serif" font-size="10.00">/BARO_generic/BARO_generic.cpp</text>
</a>
</g>
</g>
<!-- Node1&#45;&gt;Node5 -->
<g id="edge4" class="edge"><title>Node1&#45;&gt;Node5</title>
<path fill="none" stroke="midnightblue" d="M1768.71,-158.216C1533.92,-153.847 802.032,-138.185 567,-109 555.292,-107.546 542.883,-105.392 531.033,-103.029"/>
<polygon fill="midnightblue" stroke="midnightblue" points="1768.79,-161.718 1778.85,-158.403 1768.92,-154.719 1768.79,-161.718"/>
</g>
<!-- Node6 -->
<g id="node6" class="node"><title>Node6</title>
<g id="a_node6"><a xlink:href="$AP__BoardConfig_8cpp.html" xlink:title="libraries/AP_BoardConfig\l/AP_BoardConfig.cpp">
<polygon fill="white" stroke="black" points="576,-73 576,-103 702,-103 702,-73 576,-73"/>
<text text-anchor="start" x="584" y="-91" font-family="Helvetica,sans-Serif" font-size="10.00">libraries/AP_BoardConfig</text>
<text text-anchor="middle" x="639" y="-80" font-family="Helvetica,sans-Serif" font-size="10.00">/AP_BoardConfig.cpp</text>
</a>
</g>
</g>
<!-- Node1&#45;&gt;Node6 -->
<g id="edge5" class="edge"><title>Node1&#45;&gt;Node6</title>
<path fill="none" stroke="midnightblue" d="M1768.56,-158.39C1551.59,-154.767 915.827,-141.589 711,-109 702.032,-107.573 692.584,-105.431 683.591,-103.072"/>
<polygon fill="midnightblue" stroke="midnightblue" points="1768.83,-161.895 1778.88,-158.56 1768.94,-154.896 1768.83,-161.895"/>
</g>
<!-- Node7 -->
<g id="node7" class="node"><title>Node7</title>
<g id="a_node7"><a xlink:href="$AP__BoardConfig__CAN_8h.html" xlink:title="libraries/AP_BoardConfig\l/AP_BoardConfig_CAN.h">
<polygon fill="white" stroke="black" points="720,-73 720,-103 848,-103 848,-73 720,-73"/>
<text text-anchor="start" x="728" y="-91" font-family="Helvetica,sans-Serif" font-size="10.00">libraries/AP_BoardConfig</text>
<text text-anchor="middle" x="784" y="-80" font-family="Helvetica,sans-Serif" font-size="10.00">/AP_BoardConfig_CAN.h</text>
</a>
</g>
</g>
<!-- Node1&#45;&gt;Node7 -->
<g id="edge6" class="edge"><title>Node1&#45;&gt;Node7</title>
<path fill="none" stroke="midnightblue" d="M1768.72,-157.619C1572.24,-152.274 1036.77,-135.636 862,-109 852.464,-107.547 842.402,-105.424 832.791,-103.098"/>
<polygon fill="midnightblue" stroke="midnightblue" points="1768.85,-161.124 1778.94,-157.896 1769.04,-154.127 1768.85,-161.124"/>
</g>
<!-- Node9 -->
<g id="node9" class="node"><title>Node9</title>
<g id="a_node9"><a xlink:href="$CAN_8cpp.html" xlink:title="libraries/AP_HAL_PX4\l/CAN.cpp">
<polygon fill="white" stroke="black" points="818,-0.5 818,-30.5 934,-30.5 934,-0.5 818,-0.5"/>
<text text-anchor="start" x="826" y="-18.5" font-family="Helvetica,sans-Serif" font-size="10.00">libraries/AP_HAL_PX4</text>
<text text-anchor="middle" x="876" y="-7.5" font-family="Helvetica,sans-Serif" font-size="10.00">/CAN.cpp</text>
</a>
</g>
</g>
<!-- Node1&#45;&gt;Node9 -->
<g id="edge17" class="edge"><title>Node1&#45;&gt;Node9</title>
<path fill="none" stroke="midnightblue" d="M1768.77,-158.02C1552.23,-153.326 927.972,-137.383 895,-109 872.511,-89.641 872.325,-51.4167 874.146,-30.6813"/>
<polygon fill="midnightblue" stroke="midnightblue" points="1768.7,-161.519 1778.77,-158.235 1768.85,-154.521 1768.7,-161.519"/>
</g>
<!-- Node10 -->
<g id="node10" class="node"><title>Node10</title>
<g id="a_node10"><a xlink:href="$canbus_8cpp.html" xlink:title="libraries/AP_BoardConfig\l/canbus.cpp">
<polygon fill="white" stroke="black" points="904,-73 904,-103 1030,-103 1030,-73 904,-73"/>
<text text-anchor="start" x="912" y="-91" font-family="Helvetica,sans-Serif" font-size="10.00">libraries/AP_BoardConfig</text>
<text text-anchor="middle" x="967" y="-80" font-family="Helvetica,sans-Serif" font-size="10.00">/canbus.cpp</text>
</a>
</g>
</g>
<!-- Node1&#45;&gt;Node10 -->
<g id="edge10" class="edge"><title>Node1&#45;&gt;Node10</title>
<path fill="none" stroke="midnightblue" d="M1768.44,-159.966C1626.4,-159.746 1304.91,-153.79 1039,-109 1030.17,-107.513 1020.87,-105.375 1012,-103.044"/>
<polygon fill="midnightblue" stroke="midnightblue" points="1768.76,-163.466 1778.76,-159.973 1768.76,-156.466 1768.76,-163.466"/>
</g>
<!-- Node11 -->
<g id="node11" class="node"><title>Node11</title>
<g id="a_node11"><a xlink:href="$px4__drivers_8cpp.html" xlink:title="libraries/AP_BoardConfig\l/px4_drivers.cpp">
<polygon fill="white" stroke="black" points="1048,-73 1048,-103 1174,-103 1174,-73 1048,-73"/>
<text text-anchor="start" x="1056" y="-91" font-family="Helvetica,sans-Serif" font-size="10.00">libraries/AP_BoardConfig</text>
<text text-anchor="middle" x="1111" y="-80" font-family="Helvetica,sans-Serif" font-size="10.00">/px4_drivers.cpp</text>
</a>
</g>
</g>
<!-- Node1&#45;&gt;Node11 -->
<g id="edge11" class="edge"><title>Node1&#45;&gt;Node11</title>
<path fill="none" stroke="midnightblue" d="M1768.43,-158.515C1646.05,-155.84 1393.3,-145.904 1183,-109 1174.31,-107.475 1165.16,-105.349 1156.4,-103.049"/>
<polygon fill="midnightblue" stroke="midnightblue" points="1768.73,-162.022 1778.8,-158.731 1768.87,-155.023 1768.73,-162.022"/>
</g>
<!-- Node12 -->
<g id="node12" class="node"><title>Node12</title>
<g id="a_node12"><a xlink:href="$AP__Compass_8cpp.html" xlink:title="libraries/AP_Compass\l/AP_Compass.cpp">
<polygon fill="white" stroke="black" points="1192,-73 1192,-103 1306,-103 1306,-73 1192,-73"/>
<text text-anchor="start" x="1200" y="-91" font-family="Helvetica,sans-Serif" font-size="10.00">libraries/AP_Compass</text>
<text text-anchor="middle" x="1249" y="-80" font-family="Helvetica,sans-Serif" font-size="10.00">/AP_Compass.cpp</text>
</a>
</g>
</g>
<!-- Node1&#45;&gt;Node12 -->
<g id="edge12" class="edge"><title>Node1&#45;&gt;Node12</title>
<path fill="none" stroke="midnightblue" d="M1768.46,-156.947C1666.17,-152.376 1475.52,-140.158 1316,-109 1308.02,-107.441 1299.62,-105.328 1291.58,-103.058"/>
<polygon fill="midnightblue" stroke="midnightblue" points="1768.54,-160.454 1778.68,-157.391 1768.84,-153.46 1768.54,-160.454"/>
</g>
<!-- Node13 -->
<g id="node13" class="node"><title>Node13</title>
<g id="a_node13"><a xlink:href="$AP__Compass__test_8cpp.html" xlink:title="libraries/AP_Compass\l/examples/AP_Compass\l_test/AP_Compass_test.cpp">
<polygon fill="white" stroke="black" points="1324.5,-67.5 1324.5,-108.5 1467.5,-108.5 1467.5,-67.5 1324.5,-67.5"/>
<text text-anchor="start" x="1332.5" y="-96.5" font-family="Helvetica,sans-Serif" font-size="10.00">libraries/AP_Compass</text>
<text text-anchor="start" x="1332.5" y="-85.5" font-family="Helvetica,sans-Serif" font-size="10.00">/examples/AP_Compass</text>
<text text-anchor="middle" x="1396" y="-74.5" font-family="Helvetica,sans-Serif" font-size="10.00">_test/AP_Compass_test.cpp</text>
</a>
</g>
</g>
<!-- Node1&#45;&gt;Node13 -->
<g id="edge13" class="edge"><title>Node1&#45;&gt;Node13</title>
<path fill="none" stroke="midnightblue" d="M1768.55,-151.625C1694.58,-143.159 1577.35,-128.276 1477,-109 1474.01,-108.426 1470.97,-107.812 1467.9,-107.168"/>
<polygon fill="midnightblue" stroke="midnightblue" points="1768.37,-155.127 1778.7,-152.777 1769.16,-148.171 1768.37,-155.127"/>
</g>
<!-- Node14 -->
<g id="node14" class="node"><title>Node14</title>
<g id="a_node14"><a xlink:href="$AP__GPS_8cpp.html" xlink:title="libraries/AP_GPS/AP\l_GPS.cpp">
<polygon fill="white" stroke="black" points="1486,-73 1486,-103 1596,-103 1596,-73 1486,-73"/>
<text text-anchor="start" x="1494" y="-91" font-family="Helvetica,sans-Serif" font-size="10.00">libraries/AP_GPS/AP</text>
<text text-anchor="middle" x="1541" y="-80" font-family="Helvetica,sans-Serif" font-size="10.00">_GPS.cpp</text>
</a>
</g>
</g>
<!-- Node1&#45;&gt;Node14 -->
<g id="edge14" class="edge"><title>Node1&#45;&gt;Node14</title>
<path fill="none" stroke="midnightblue" d="M1768.65,-145.701C1721.62,-136.402 1659.4,-123.264 1605,-109 1598.24,-107.229 1591.14,-105.189 1584.22,-103.104"/>
<polygon fill="midnightblue" stroke="midnightblue" points="1768.26,-149.191 1778.75,-147.684 1769.61,-142.322 1768.26,-149.191"/>
</g>
<!-- Node15 -->
<g id="node15" class="node"><title>Node15</title>
<g id="a_node15"><a xlink:href="$GPS__AUTO__test_8cpp.html" xlink:title="libraries/AP_GPS/examples\l/GPS_AUTO_test/GPS_AUTO\l_test.cpp">
<polygon fill="white" stroke="black" points="1614,-67.5 1614,-108.5 1766,-108.5 1766,-67.5 1614,-67.5"/>
<text text-anchor="start" x="1622" y="-96.5" font-family="Helvetica,sans-Serif" font-size="10.00">libraries/AP_GPS/examples</text>
<text text-anchor="start" x="1622" y="-85.5" font-family="Helvetica,sans-Serif" font-size="10.00">/GPS_AUTO_test/GPS_AUTO</text>
<text text-anchor="middle" x="1690" y="-74.5" font-family="Helvetica,sans-Serif" font-size="10.00">_test.cpp</text>
</a>
</g>
</g>
<!-- Node1&#45;&gt;Node15 -->
<g id="edge15" class="edge"><title>Node1&#45;&gt;Node15</title>
<path fill="none" stroke="midnightblue" d="M1802.39,-141.13C1780.81,-131.12 1754.11,-118.734 1732.14,-108.546"/>
<polygon fill="midnightblue" stroke="midnightblue" points="1801.06,-144.37 1811.61,-145.403 1804.01,-138.02 1801.06,-144.37"/>
</g>
<!-- Node16 -->
<g id="node16" class="node"><title>Node16</title>
<g id="a_node16"><a xlink:href="$AP__Gripper__EPM_8cpp.html" xlink:title="libraries/AP_Gripper\l/AP_Gripper_EPM.cpp">
<polygon fill="white" stroke="black" points="1784,-73 1784,-103 1900,-103 1900,-73 1784,-73"/>
<text text-anchor="start" x="1792" y="-91" font-family="Helvetica,sans-Serif" font-size="10.00">libraries/AP_Gripper</text>
<text text-anchor="middle" x="1842" y="-80" font-family="Helvetica,sans-Serif" font-size="10.00">/AP_Gripper_EPM.cpp</text>
</a>
</g>
</g>
<!-- Node1&#45;&gt;Node16 -->
<g id="edge16" class="edge"><title>Node1&#45;&gt;Node16</title>
<path fill="none" stroke="midnightblue" d="M1842,-135.232C1842,-124.568 1842,-112.414 1842,-103.246"/>
<polygon fill="midnightblue" stroke="midnightblue" points="1838.5,-135.233 1842,-145.233 1845.5,-135.233 1838.5,-135.233"/>
</g>
<!-- Node17 -->
<g id="node17" class="node"><title>Node17</title>
<g id="a_node17"><a xlink:href="$PX4_2RCOutput_8cpp.html" xlink:title="libraries/AP_HAL_PX4\l/RCOutput.cpp">
<polygon fill="white" stroke="black" points="1918,-73 1918,-103 2034,-103 2034,-73 1918,-73"/>
<text text-anchor="start" x="1926" y="-91" font-family="Helvetica,sans-Serif" font-size="10.00">libraries/AP_HAL_PX4</text>
<text text-anchor="middle" x="1976" y="-80" font-family="Helvetica,sans-Serif" font-size="10.00">/RCOutput.cpp</text>
</a>
</g>
</g>
<!-- Node1&#45;&gt;Node17 -->
<g id="edge18" class="edge"><title>Node1&#45;&gt;Node17</title>
<path fill="none" stroke="midnightblue" d="M1877.7,-140.715C1900.18,-128.889 1928.72,-113.874 1949.25,-103.073"/>
<polygon fill="midnightblue" stroke="midnightblue" points="1876.02,-137.649 1868.79,-145.403 1879.27,-143.844 1876.02,-137.649"/>
</g>
<!-- Node18 -->
<g id="node18" class="node"><title>Node18</title>
<g id="a_node18"><a xlink:href="$AP__HAL__PX4_2Scheduler_8cpp.html" xlink:title="libraries/AP_HAL_PX4\l/Scheduler.cpp">
<polygon fill="white" stroke="black" points="2052,-73 2052,-103 2168,-103 2168,-73 2052,-73"/>
<text text-anchor="start" x="2060" y="-91" font-family="Helvetica,sans-Serif" font-size="10.00">libraries/AP_HAL_PX4</text>
<text text-anchor="middle" x="2110" y="-80" font-family="Helvetica,sans-Serif" font-size="10.00">/Scheduler.cpp</text>
</a>
</g>
</g>
<!-- Node1&#45;&gt;Node18 -->
<g id="edge19" class="edge"><title>Node1&#45;&gt;Node18</title>
<path fill="none" stroke="midnightblue" d="M1910.83,-142.999C1949.74,-133.475 1999.21,-121.031 2043,-109 2049.79,-107.135 2056.94,-105.088 2063.94,-103.038"/>
<polygon fill="midnightblue" stroke="midnightblue" points="1909.55,-139.709 1900.67,-145.481 1911.21,-146.509 1909.55,-139.709"/>
</g>
<!-- Node19 -->
<g id="node19" class="node"><title>Node19</title>
<g id="a_node19"><a xlink:href="$PX4_2Storage_8cpp.html" xlink:title="libraries/AP_HAL_PX4\l/Storage.cpp">
<polygon fill="white" stroke="black" points="2186,-73 2186,-103 2302,-103 2302,-73 2186,-73"/>
<text text-anchor="start" x="2194" y="-91" font-family="Helvetica,sans-Serif" font-size="10.00">libraries/AP_HAL_PX4</text>
<text text-anchor="middle" x="2244" y="-80" font-family="Helvetica,sans-Serif" font-size="10.00">/Storage.cpp</text>
</a>
</g>
</g>
<!-- Node1&#45;&gt;Node19 -->
<g id="edge20" class="edge"><title>Node1&#45;&gt;Node19</title>
<path fill="none" stroke="midnightblue" d="M1915.37,-151.449C1983.61,-143.253 2087.87,-128.918 2177,-109 2184.58,-107.306 2192.56,-105.209 2200.26,-103.016"/>
<polygon fill="midnightblue" stroke="midnightblue" points="1914.67,-148.008 1905.16,-152.663 1915.5,-154.959 1914.67,-148.008"/>
</g>
<!-- Node20 -->
<g id="node20" class="node"><title>Node20</title>
<g id="a_node20"><a xlink:href="$AP__InertialSensor_8cpp.html" xlink:title="libraries/AP_InertialSensor\l/AP_InertialSensor.cpp">
<polygon fill="white" stroke="black" points="2320,-73 2320,-103 2452,-103 2452,-73 2320,-73"/>
<text text-anchor="start" x="2328" y="-91" font-family="Helvetica,sans-Serif" font-size="10.00">libraries/AP_InertialSensor</text>
<text text-anchor="middle" x="2386" y="-80" font-family="Helvetica,sans-Serif" font-size="10.00">/AP_InertialSensor.cpp</text>
</a>
</g>
</g>
<!-- Node1&#45;&gt;Node20 -->
<g id="edge21" class="edge"><title>Node1&#45;&gt;Node20</title>
<path fill="none" stroke="midnightblue" d="M1915.15,-155.11C2007.85,-148.75 2172.28,-134.806 2311,-109 2319.74,-107.373 2328.96,-105.256 2337.83,-103.009"/>
<polygon fill="midnightblue" stroke="midnightblue" points="1914.77,-151.628 1905.03,-155.794 1915.24,-158.612 1914.77,-151.628"/>
</g>
<!-- Node21 -->
<g id="node21" class="node"><title>Node21</title>
<g id="a_node21"><a xlink:href="$INS__generic_8cpp.html" xlink:title="libraries/AP_InertialSensor\l/examples/INS_generic/INS\l_generic.cpp">
<polygon fill="white" stroke="black" points="2470.5,-67.5 2470.5,-108.5 2609.5,-108.5 2609.5,-67.5 2470.5,-67.5"/>
<text text-anchor="start" x="2478.5" y="-96.5" font-family="Helvetica,sans-Serif" font-size="10.00">libraries/AP_InertialSensor</text>
<text text-anchor="start" x="2478.5" y="-85.5" font-family="Helvetica,sans-Serif" font-size="10.00">/examples/INS_generic/INS</text>
<text text-anchor="middle" x="2540" y="-74.5" font-family="Helvetica,sans-Serif" font-size="10.00">_generic.cpp</text>
</a>
</g>
</g>
<!-- Node1&#45;&gt;Node21 -->
<g id="edge22" class="edge"><title>Node1&#45;&gt;Node21</title>
<path fill="none" stroke="midnightblue" d="M1915.47,-157.461C2031.89,-153.345 2265.6,-141.472 2461,-109 2464.07,-108.49 2467.2,-107.919 2470.35,-107.303"/>
<polygon fill="midnightblue" stroke="midnightblue" points="1915.12,-153.971 1905.25,-157.813 1915.36,-160.967 1915.12,-153.971"/>
</g>
<!-- Node22 -->
<g id="node22" class="node"><title>Node22</title>
<g id="a_node22"><a xlink:href="$OreoLED__PX4_8cpp.html" xlink:title="libraries/AP_Notify\l/OreoLED_PX4.cpp">
<polygon fill="white" stroke="black" points="2627.5,-73 2627.5,-103 2730.5,-103 2730.5,-73 2627.5,-73"/>
<text text-anchor="start" x="2635.5" y="-91" font-family="Helvetica,sans-Serif" font-size="10.00">libraries/AP_Notify</text>
<text text-anchor="middle" x="2679" y="-80" font-family="Helvetica,sans-Serif" font-size="10.00">/OreoLED_PX4.cpp</text>
</a>
</g>
</g>
<!-- Node1&#45;&gt;Node22 -->
<g id="edge23" class="edge"><title>Node1&#45;&gt;Node22</title>
<path fill="none" stroke="midnightblue" d="M1915.31,-157.137C2082.06,-151.374 2485.57,-135.123 2619,-109 2626.44,-107.544 2634.22,-105.421 2641.63,-103.094"/>
<polygon fill="midnightblue" stroke="midnightblue" points="1915.03,-153.645 1905.16,-157.485 1915.27,-160.641 1915.03,-153.645"/>
</g>
<!-- Node23 -->
<g id="node23" class="node"><title>Node23</title>
<g id="a_node23"><a xlink:href="$OpticalFlow_8cpp.html" xlink:title="libraries/AP_OpticalFlow\l/OpticalFlow.cpp">
<polygon fill="white" stroke="black" points="2749,-73 2749,-103 2873,-103 2873,-73 2749,-73"/>
<text text-anchor="start" x="2757" y="-91" font-family="Helvetica,sans-Serif" font-size="10.00">libraries/AP_OpticalFlow</text>
<text text-anchor="middle" x="2811" y="-80" font-family="Helvetica,sans-Serif" font-size="10.00">/OpticalFlow.cpp</text>
</a>
</g>
</g>
<!-- Node1&#45;&gt;Node23 -->
<g id="edge24" class="edge"><title>Node1&#45;&gt;Node23</title>
<path fill="none" stroke="midnightblue" d="M1915.26,-157.443C2100.11,-151.921 2581.94,-135.38 2740,-109 2748.72,-107.545 2757.89,-105.422 2766.64,-103.096"/>
<polygon fill="midnightblue" stroke="midnightblue" points="1914.99,-153.949 1905.1,-157.744 1915.2,-160.946 1914.99,-153.949"/>
</g>
<!-- Node24 -->
<g id="node24" class="node"><title>Node24</title>
<g id="a_node24"><a xlink:href="$AP__RangeFinder__PX4__PWM_8cpp.html" xlink:title="libraries/AP_RangeFinder\l/AP_RangeFinder_PX4_PWM.cpp">
<polygon fill="white" stroke="black" points="2890.5,-73 2890.5,-103 3057.5,-103 3057.5,-73 2890.5,-73"/>
<text text-anchor="start" x="2898.5" y="-91" font-family="Helvetica,sans-Serif" font-size="10.00">libraries/AP_RangeFinder</text>
<text text-anchor="middle" x="2974" y="-80" font-family="Helvetica,sans-Serif" font-size="10.00">/AP_RangeFinder_PX4_PWM.cpp</text>
</a>
</g>
</g>
<!-- Node1&#45;&gt;Node24 -->
<g id="edge25" class="edge"><title>Node1&#45;&gt;Node24</title>
<path fill="none" stroke="midnightblue" d="M1915.15,-160.094C2085.48,-160.576 2521.53,-156.6 2882,-109 2893.18,-107.524 2905.02,-105.39 2916.35,-103.061"/>
<polygon fill="midnightblue" stroke="midnightblue" points="1915.06,-156.594 1905.04,-160.06 1915.03,-163.594 1915.06,-156.594"/>
</g>
<!-- Node25 -->
<g id="node25" class="node"><title>Node25</title>
<g id="a_node25"><a xlink:href="$RangeFinder_8cpp.html" xlink:title="libraries/AP_RangeFinder\l/RangeFinder.cpp">
<polygon fill="white" stroke="black" points="3076,-73 3076,-103 3204,-103 3204,-73 3076,-73"/>
<text text-anchor="start" x="3084" y="-91" font-family="Helvetica,sans-Serif" font-size="10.00">libraries/AP_RangeFinder</text>
<text text-anchor="middle" x="3140" y="-80" font-family="Helvetica,sans-Serif" font-size="10.00">/RangeFinder.cpp</text>
</a>
</g>
</g>
<!-- Node1&#45;&gt;Node25 -->
<g id="edge26" class="edge"><title>Node1&#45;&gt;Node25</title>
<path fill="none" stroke="midnightblue" d="M1915.59,-158.647C2144.67,-155.648 2843.16,-143.817 3067,-109 3076.09,-107.586 3085.67,-105.45 3094.78,-103.093"/>
<polygon fill="midnightblue" stroke="midnightblue" points="1915.31,-155.15 1905.36,-158.779 1915.4,-162.15 1915.31,-155.15"/>
</g>
<!-- Node26 -->
<g id="node26" class="node"><title>Node26</title>
<g id="a_node26"><a xlink:href="$RPM__Pin_8cpp.html" xlink:title="libraries/AP_RPM/RPM\l_Pin.cpp">
<polygon fill="white" stroke="black" points="3222,-73 3222,-103 3342,-103 3342,-73 3222,-73"/>
<text text-anchor="start" x="3230" y="-91" font-family="Helvetica,sans-Serif" font-size="10.00">libraries/AP_RPM/RPM</text>
<text text-anchor="middle" x="3282" y="-80" font-family="Helvetica,sans-Serif" font-size="10.00">_Pin.cpp</text>
</a>
</g>
</g>
<!-- Node1&#45;&gt;Node26 -->
<g id="edge27" class="edge"><title>Node1&#45;&gt;Node26</title>
<path fill="none" stroke="midnightblue" d="M1915.38,-159.166C2162,-157.673 2959.73,-149.736 3213,-109 3221.74,-107.594 3230.94,-105.429 3239.68,-103.035"/>
<polygon fill="midnightblue" stroke="midnightblue" points="1915.08,-155.668 1905.1,-159.227 1915.12,-162.668 1915.08,-155.668"/>
</g>
<!-- Node27 -->
<g id="node27" class="node"><title>Node27</title>
<g id="a_node27"><a xlink:href="$RPM__PX4__PWM_8cpp.html" xlink:title="libraries/AP_RPM/RPM\l_PX4_PWM.cpp">
<polygon fill="white" stroke="black" points="3360,-73 3360,-103 3480,-103 3480,-73 3360,-73"/>
<text text-anchor="start" x="3368" y="-91" font-family="Helvetica,sans-Serif" font-size="10.00">libraries/AP_RPM/RPM</text>
<text text-anchor="middle" x="3420" y="-80" font-family="Helvetica,sans-Serif" font-size="10.00">_PX4_PWM.cpp</text>
</a>
</g>
</g>
<!-- Node1&#45;&gt;Node27 -->
<g id="edge28" class="edge"><title>Node1&#45;&gt;Node27</title>
<path fill="none" stroke="midnightblue" d="M1915.58,-159.455C2178.33,-158.918 3069.68,-153.761 3351,-109 3359.75,-107.609 3368.95,-105.45 3377.68,-103.058"/>
<polygon fill="midnightblue" stroke="midnightblue" points="1915.38,-155.955 1905.39,-159.474 1915.39,-162.955 1915.38,-155.955"/>
</g>
<!-- Node28 -->
<g id="node28" class="node"><title>Node28</title>
<g id="a_node28"><a xlink:href="$Scheduler__test_8cpp.html" xlink:title="libraries/AP_Scheduler\l/examples/Scheduler_test\l/Scheduler_test.cpp">
<polygon fill="white" stroke="black" points="3498,-67.5 3498,-108.5 3628,-108.5 3628,-67.5 3498,-67.5"/>
<text text-anchor="start" x="3506" y="-96.5" font-family="Helvetica,sans-Serif" font-size="10.00">libraries/AP_Scheduler</text>
<text text-anchor="start" x="3506" y="-85.5" font-family="Helvetica,sans-Serif" font-size="10.00">/examples/Scheduler_test</text>
<text text-anchor="middle" x="3563" y="-74.5" font-family="Helvetica,sans-Serif" font-size="10.00">/Scheduler_test.cpp</text>
</a>
</g>
</g>
<!-- Node1&#45;&gt;Node28 -->
<g id="edge29" class="edge"><title>Node1&#45;&gt;Node28</title>
<path fill="none" stroke="midnightblue" d="M1915.63,-159.522C2193.59,-159.25 3179.06,-154.99 3489,-109 3491.9,-108.57 3494.84,-108.067 3497.8,-107.505"/>
<polygon fill="midnightblue" stroke="midnightblue" points="1915.26,-156.022 1905.26,-159.53 1915.26,-163.022 1915.26,-156.022"/>
</g>
<!-- Node29 -->
<g id="node29" class="node"><title>Node29</title>
<g id="a_node29"><a xlink:href="$WheelEncoder__Quadrature_8cpp.html" xlink:title="libraries/AP_WheelEncoder\l/WheelEncoder_Quadrature.cpp">
<polygon fill="white" stroke="black" points="3646.5,-73 3646.5,-103 3801.5,-103 3801.5,-73 3646.5,-73"/>
<text text-anchor="start" x="3654.5" y="-91" font-family="Helvetica,sans-Serif" font-size="10.00">libraries/AP_WheelEncoder</text>
<text text-anchor="middle" x="3724" y="-80" font-family="Helvetica,sans-Serif" font-size="10.00">/WheelEncoder_Quadrature.cpp</text>
</a>
</g>
</g>
<!-- Node1&#45;&gt;Node29 -->
<g id="edge30" class="edge"><title>Node1&#45;&gt;Node29</title>
<path fill="none" stroke="midnightblue" d="M1915.28,-159.371C2208.22,-158.557 3295.66,-152.599 3637,-109 3647.91,-107.606 3659.47,-105.447 3670.46,-103.054"/>
<polygon fill="midnightblue" stroke="midnightblue" points="1915.19,-155.871 1905.2,-159.398 1915.21,-162.871 1915.19,-155.871"/>
</g>
<!-- Node7&#45;&gt;Node4 -->
<g id="edge7" class="edge"><title>Node7&#45;&gt;Node4</title>
<path fill="none" stroke="midnightblue" d="M724.359,-70.3546C719.846,-69.1888 715.356,-68.0578 711,-67 648.405,-51.7981 575.928,-36.7873 527.556,-27.1345"/>
<polygon fill="midnightblue" stroke="midnightblue" points="723.668,-73.7918 734.229,-72.9478 725.447,-67.0216 723.668,-73.7918"/>
</g>
<!-- Node8 -->
<g id="node8" class="node"><title>Node8</title>
<g id="a_node8"><a xlink:href="$AP__BoardConfig__CAN_8cpp.html" xlink:title="libraries/AP_BoardConfig\l/AP_BoardConfig_CAN.cpp">
<polygon fill="white" stroke="black" points="662,-0.5 662,-30.5 800,-30.5 800,-0.5 662,-0.5"/>
<text text-anchor="start" x="670" y="-18.5" font-family="Helvetica,sans-Serif" font-size="10.00">libraries/AP_BoardConfig</text>
<text text-anchor="middle" x="731" y="-7.5" font-family="Helvetica,sans-Serif" font-size="10.00">/AP_BoardConfig_CAN.cpp</text>
</a>
</g>
</g>
<!-- Node7&#45;&gt;Node8 -->
<g id="edge8" class="edge"><title>Node7&#45;&gt;Node8</title>
<path fill="none" stroke="midnightblue" d="M767.245,-64.7126C758.89,-53.5988 749.033,-40.4875 741.709,-30.7455"/>
<polygon fill="midnightblue" stroke="midnightblue" points="764.468,-66.8432 773.275,-72.7333 770.063,-62.6369 764.468,-66.8432"/>
</g>
<!-- Node7&#45;&gt;Node9 -->
<g id="edge9" class="edge"><title>Node7&#45;&gt;Node9</title>
<path fill="none" stroke="midnightblue" d="M810.608,-66.6101C825.721,-55.0289 844.253,-40.8282 857.724,-30.5049"/>
<polygon fill="midnightblue" stroke="midnightblue" points="808.426,-63.8726 802.618,-72.7333 812.684,-69.4288 808.426,-63.8726"/>
</g>
</g>
</svg>
