<?xml version="1.0" encoding="UTF-8" standalone="no"?>
<!DOCTYPE svg PUBLIC "-//W3C//DTD SVG 1.1//EN"
 "http://www.w3.org/Graphics/SVG/1.1/DTD/svg11.dtd">
<!-- Generated by graphviz version 2.38.0 (20140413.2041)
 -->
<!-- Title: libraries/AP_Common/missing/ap_version.h Pages: 1 -->
<svg width="402pt" height="106pt"
 viewBox="0.00 0.00 402.00 106.00" xmlns="http://www.w3.org/2000/svg" xmlns:xlink="http://www.w3.org/1999/xlink">
<g id="graph0" class="graph" transform="scale(1 1) rotate(0) translate(4 102)">
<title>libraries/AP_Common/missing/ap_version.h</title>
<polygon fill="white" stroke="none" points="-4,4 -4,-102 398,-102 398,4 -4,4"/>
<!-- Node1 -->
<g id="node1" class="node"><title>Node1</title>
<polygon fill="#bfbfbf" stroke="black" points="140,-67.5 140,-97.5 252,-97.5 252,-67.5 140,-67.5"/>
<text text-anchor="start" x="148" y="-85.5" font-family="Helvetica,sans-Serif" font-size="10.00">libraries/AP_Common</text>
<text text-anchor="middle" x="196" y="-74.5" font-family="Helvetica,sans-Serif" font-size="10.00">/missing/ap_version.h</text>
</g>
<!-- Node2 -->
<g id="node2" class="node"><title>Node2</title>
<g id="a_node2"><a xlink:href="$DFMessageWriter_8cpp.html" xlink:title="libraries/DataFlash\l/DFMessageWriter.cpp">
<polygon fill="white" stroke="black" points="0,-0.5 0,-30.5 118,-30.5 118,-0.5 0,-0.5"/>
<text text-anchor="start" x="8" y="-18.5" font-family="Helvetica,sans-Serif" font-size="10.00">libraries/DataFlash</text>
<text text-anchor="middle" x="59" y="-7.5" font-family="Helvetica,sans-Serif" font-size="10.00">/DFMessageWriter.cpp</text>
</a>
</g>
</g>
<!-- Node1&#45;&gt;Node2 -->
<g id="edge1" class="edge"><title>Node1&#45;&gt;Node2</title>
<path fill="none" stroke="midnightblue" d="M156.991,-62.9921C135.276,-52.6892 108.673,-40.0677 88.6689,-30.5765"/>
<polygon fill="midnightblue" stroke="midnightblue" points="155.738,-66.2715 166.273,-67.396 158.739,-59.9472 155.738,-66.2715"/>
</g>
<!-- Node3 -->
<g id="node3" class="node"><title>Node3</title>
<g id="a_node3"><a xlink:href="$GCS__Common_8cpp.html" xlink:title="libraries/GCS_MAVLink\l/GCS_Common.cpp">
<polygon fill="white" stroke="black" points="136,-0.5 136,-30.5 256,-30.5 256,-0.5 136,-0.5"/>
<text text-anchor="start" x="144" y="-18.5" font-family="Helvetica,sans-Serif" font-size="10.00">libraries/GCS_MAVLink</text>
<text text-anchor="middle" x="196" y="-7.5" font-family="Helvetica,sans-Serif" font-size="10.00">/GCS_Common.cpp</text>
</a>
</g>
</g>
<!-- Node1&#45;&gt;Node3 -->
<g id="edge2" class="edge"><title>Node1&#45;&gt;Node3</title>
<path fill="none" stroke="midnightblue" d="M196,-57.1081C196,-48.1539 196,-38.3227 196,-30.5765"/>
<polygon fill="midnightblue" stroke="midnightblue" points="192.5,-57.3959 196,-67.396 199.5,-57.396 192.5,-57.3959"/>
</g>
<!-- Node4 -->
<g id="node4" class="node"><title>Node4</title>
<g id="a_node4"><a xlink:href="$GCS__Param_8cpp.html" xlink:title="libraries/GCS_MAVLink\l/GCS_Param.cpp">
<polygon fill="white" stroke="black" points="274,-0.5 274,-30.5 394,-30.5 394,-0.5 274,-0.5"/>
<text text-anchor="start" x="282" y="-18.5" font-family="Helvetica,sans-Serif" font-size="10.00">libraries/GCS_MAVLink</text>
<text text-anchor="middle" x="334" y="-7.5" font-family="Helvetica,sans-Serif" font-size="10.00">/GCS_Param.cpp</text>
</a>
</g>
</g>
<!-- Node1&#45;&gt;Node4 -->
<g id="edge3" class="edge"><title>Node1&#45;&gt;Node4</title>
<path fill="none" stroke="midnightblue" d="M235,-63.1305C256.927,-52.8025 283.874,-40.1103 304.114,-30.5765"/>
<polygon fill="midnightblue" stroke="midnightblue" points="233.499,-59.9684 225.944,-67.396 236.482,-66.3011 233.499,-59.9684"/>
</g>
</g>
</svg>
