<?xml version="1.0" encoding="UTF-8" standalone="no"?>
<!DOCTYPE svg PUBLIC "-//W3C//DTD SVG 1.1//EN"
 "http://www.w3.org/Graphics/SVG/1.1/DTD/svg11.dtd">
<!-- Generated by graphviz version 2.38.0 (20140413.2041)
 -->
<!-- Title: usec_to_hz Pages: 1 -->
<svg width="474pt" height="180pt"
 viewBox="0.00 0.00 474.00 180.00" xmlns="http://www.w3.org/2000/svg" xmlns:xlink="http://www.w3.org/1999/xlink">
<g id="graph0" class="graph" transform="scale(1 1) rotate(0) translate(4 176)">
<title>usec_to_hz</title>
<polygon fill="white" stroke="none" points="-4,4 -4,-176 470,-176 470,4 -4,4"/>
<!-- Node1 -->
<g id="node1" class="node"><title>Node1</title>
<polygon fill="#bfbfbf" stroke="black" points="0,-95.5 0,-114.5 67,-114.5 67,-95.5 0,-95.5"/>
<text text-anchor="middle" x="33.5" y="-102.5" font-family="Helvetica,sans-Serif" font-size="10.00">usec_to_hz</text>
</g>
<!-- Node2 -->
<g id="node2" class="node"><title>Node2</title>
<g id="a_node2"><a xlink:href="$AP__Math_8h.html#ae2d4d03c107c3e6a127fb167e3908aa2" xlink:title="linear_interpolate">
<polygon fill="white" stroke="black" points="103,-152.5 103,-171.5 193,-171.5 193,-152.5 103,-152.5"/>
<text text-anchor="middle" x="148" y="-159.5" font-family="Helvetica,sans-Serif" font-size="10.00">linear_interpolate</text>
</a>
</g>
</g>
<!-- Node1&#45;&gt;Node2 -->
<g id="edge1" class="edge"><title>Node1&#45;&gt;Node2</title>
<path fill="none" stroke="midnightblue" d="M50.5915,-114.519C64.323,-122.499 84.6944,-133.998 103,-143 106.593,-144.767 110.391,-146.541 114.188,-148.257"/>
<polygon fill="midnightblue" stroke="midnightblue" points="112.95,-151.537 123.512,-152.367 115.773,-145.131 112.95,-151.537"/>
</g>
<!-- Node3 -->
<g id="node3" class="node"><title>Node3</title>
<g id="a_node3"><a xlink:href="$AP__Math_8h.html#a587a30a56f2ab102c7b42f89e4770530" xlink:title="get_random16">
<polygon fill="white" stroke="black" points="109,-114.5 109,-133.5 187,-133.5 187,-114.5 109,-114.5"/>
<text text-anchor="middle" x="148" y="-121.5" font-family="Helvetica,sans-Serif" font-size="10.00">get_random16</text>
</a>
</g>
</g>
<!-- Node1&#45;&gt;Node3 -->
<g id="edge2" class="edge"><title>Node1&#45;&gt;Node3</title>
<path fill="none" stroke="midnightblue" d="M67.0397,-110.496C76.9735,-112.173 88.1148,-114.055 98.8537,-115.869"/>
<polygon fill="midnightblue" stroke="midnightblue" points="98.5307,-119.364 108.974,-117.578 99.6964,-112.461 98.5307,-119.364"/>
</g>
<!-- Node4 -->
<g id="node4" class="node"><title>Node4</title>
<g id="a_node4"><a xlink:href="$AP__Math_8h.html#ab7fb2f11772d144a53f0e75d0615d715" xlink:title="rand_float">
<polygon fill="white" stroke="black" points="118.5,-76.5 118.5,-95.5 177.5,-95.5 177.5,-76.5 118.5,-76.5"/>
<text text-anchor="middle" x="148" y="-83.5" font-family="Helvetica,sans-Serif" font-size="10.00">rand_float</text>
</a>
</g>
</g>
<!-- Node1&#45;&gt;Node4 -->
<g id="edge3" class="edge"><title>Node1&#45;&gt;Node4</title>
<path fill="none" stroke="midnightblue" d="M67.0397,-99.5044C79.9677,-97.321 94.941,-94.7922 108.411,-92.5173"/>
<polygon fill="midnightblue" stroke="midnightblue" points="109.082,-95.9536 118.359,-90.8371 107.916,-89.0514 109.082,-95.9536"/>
</g>
<!-- Node5 -->
<g id="node5" class="node"><title>Node5</title>
<g id="a_node5"><a xlink:href="$AP__Math_8h.html#a503b5e90e28955239da7740ba7c9145b" xlink:title="rand_vec3f">
<polygon fill="white" stroke="black" points="115.5,-38.5 115.5,-57.5 180.5,-57.5 180.5,-38.5 115.5,-38.5"/>
<text text-anchor="middle" x="148" y="-45.5" font-family="Helvetica,sans-Serif" font-size="10.00">rand_vec3f</text>
</a>
</g>
</g>
<!-- Node1&#45;&gt;Node5 -->
<g id="edge4" class="edge"><title>Node1&#45;&gt;Node5</title>
<path fill="none" stroke="midnightblue" d="M50.5915,-95.4806C64.323,-87.5014 84.6944,-76.0025 103,-67 106.593,-65.2329 110.391,-63.4587 114.188,-61.7425"/>
<polygon fill="midnightblue" stroke="midnightblue" points="115.773,-64.8689 123.512,-57.6333 112.95,-58.4634 115.773,-64.8689"/>
</g>
<!-- Node6 -->
<g id="node6" class="node"><title>Node6</title>
<g id="a_node6"><a xlink:href="$AP__Math_8cpp.html#ab7fb2f11772d144a53f0e75d0615d715" xlink:title="rand_float">
<polygon fill="white" stroke="black" points="248.5,-76.5 248.5,-95.5 307.5,-95.5 307.5,-76.5 248.5,-76.5"/>
<text text-anchor="middle" x="278" y="-83.5" font-family="Helvetica,sans-Serif" font-size="10.00">rand_float</text>
</a>
</g>
</g>
<!-- Node5&#45;&gt;Node6 -->
<g id="edge5" class="edge"><title>Node5&#45;&gt;Node6</title>
<path fill="none" stroke="midnightblue" d="M180.64,-57.3933C198.212,-62.6097 220.199,-69.1371 238.732,-74.6392"/>
<polygon fill="midnightblue" stroke="midnightblue" points="237.761,-78.002 248.344,-77.4928 239.754,-71.2914 237.761,-78.002"/>
</g>
<!-- Node7 -->
<g id="node7" class="node"><title>Node7</title>
<g id="a_node7"><a xlink:href="$classVector3.html#ac1fd5514e368a1e1c2d13f71eda18345" xlink:title="Vector3::length">
<polygon fill="white" stroke="black" points="236.5,-38.5 236.5,-57.5 319.5,-57.5 319.5,-38.5 236.5,-38.5"/>
<text text-anchor="middle" x="278" y="-45.5" font-family="Helvetica,sans-Serif" font-size="10.00">Vector3::length</text>
</a>
</g>
</g>
<!-- Node5&#45;&gt;Node7 -->
<g id="edge6" class="edge"><title>Node5&#45;&gt;Node7</title>
<path fill="none" stroke="midnightblue" d="M180.64,-48C194.235,-48 210.472,-48 225.708,-48"/>
<polygon fill="midnightblue" stroke="midnightblue" points="226.052,-51.5001 236.052,-48 226.052,-44.5001 226.052,-51.5001"/>
</g>
<!-- Node10 -->
<g id="node10" class="node"><title>Node10</title>
<g id="a_node10"><a xlink:href="$classVector3.html#a9b147a862a1b86ed2e5b735d19da3da1" xlink:title="Vector3::normalize">
<polygon fill="white" stroke="black" points="229,-0.5 229,-19.5 327,-19.5 327,-0.5 229,-0.5"/>
<text text-anchor="middle" x="278" y="-7.5" font-family="Helvetica,sans-Serif" font-size="10.00">Vector3::normalize</text>
</a>
</g>
</g>
<!-- Node5&#45;&gt;Node10 -->
<g id="edge9" class="edge"><title>Node5&#45;&gt;Node10</title>
<path fill="none" stroke="midnightblue" d="M180.64,-38.6067C196.978,-33.7564 217.134,-27.7726 234.782,-22.5336"/>
<polygon fill="midnightblue" stroke="midnightblue" points="236.244,-25.7505 244.834,-19.5491 234.252,-19.0399 236.244,-25.7505"/>
</g>
<!-- Node8 -->
<g id="node8" class="node"><title>Node8</title>
<g id="a_node8"><a xlink:href="$AP__Math_8h.html#adc76d4a5e5c9ae8cb7ab17b55c40d636" xlink:title="norm">
<polygon fill="white" stroke="black" points="363,-38.5 363,-57.5 401,-57.5 401,-38.5 363,-38.5"/>
<text text-anchor="middle" x="382" y="-45.5" font-family="Helvetica,sans-Serif" font-size="10.00">norm</text>
</a>
</g>
</g>
<!-- Node7&#45;&gt;Node8 -->
<g id="edge7" class="edge"><title>Node7&#45;&gt;Node8</title>
<path fill="none" stroke="midnightblue" d="M319.606,-48C330.739,-48 342.562,-48 352.829,-48"/>
<polygon fill="midnightblue" stroke="midnightblue" points="352.872,-51.5001 362.872,-48 352.872,-44.5001 352.872,-51.5001"/>
</g>
<!-- Node9 -->
<g id="node9" class="node"><title>Node9</title>
<g id="a_node9"><a xlink:href="$AP__Math_8h.html#a0375e3d67fd3911cacee5c3e1408c0f2" xlink:title="sq">
<polygon fill="white" stroke="black" points="437,-38.5 437,-57.5 466,-57.5 466,-38.5 437,-38.5"/>
<text text-anchor="middle" x="451.5" y="-45.5" font-family="Helvetica,sans-Serif" font-size="10.00">sq</text>
</a>
</g>
</g>
<!-- Node8&#45;&gt;Node9 -->
<g id="edge8" class="edge"><title>Node8&#45;&gt;Node9</title>
<path fill="none" stroke="midnightblue" d="M401.089,-48C408.997,-48 418.379,-48 426.831,-48"/>
<polygon fill="midnightblue" stroke="midnightblue" points="426.861,-51.5001 436.861,-48 426.861,-44.5001 426.861,-51.5001"/>
</g>
</g>
</svg>
