<?xml version="1.0" encoding="UTF-8" standalone="no"?>
<!DOCTYPE svg PUBLIC "-//W3C//DTD SVG 1.1//EN"
 "http://www.w3.org/Graphics/SVG/1.1/DTD/svg11.dtd">
<!-- Generated by graphviz version 2.38.0 (20140413.2041)
 -->
<!-- Title: libraries/AP_HAL_SITL/AP_HAL_SITL.h Pages: 1 -->
<svg width="1779pt" height="240pt"
 viewBox="0.00 0.00 1779.00 240.00" xmlns="http://www.w3.org/2000/svg" xmlns:xlink="http://www.w3.org/1999/xlink">
<g id="graph0" class="graph" transform="scale(1 1) rotate(0) translate(4 236)">
<title>libraries/AP_HAL_SITL/AP_HAL_SITL.h</title>
<polygon fill="white" stroke="none" points="-4,4 -4,-236 1775,-236 1775,4 -4,4"/>
<!-- Node1 -->
<g id="node1" class="node"><title>Node1</title>
<polygon fill="#bfbfbf" stroke="black" points="672,-201.5 672,-231.5 790,-231.5 790,-201.5 672,-201.5"/>
<text text-anchor="start" x="680" y="-219.5" font-family="Helvetica,sans-Serif" font-size="10.00">libraries/AP_HAL_SITL</text>
<text text-anchor="middle" x="731" y="-208.5" font-family="Helvetica,sans-Serif" font-size="10.00">/AP_HAL_SITL.h</text>
</g>
<!-- Node2 -->
<g id="node2" class="node"><title>Node2</title>
<g id="a_node2"><a xlink:href="$SITL_2AnalogIn_8cpp.html" xlink:title="libraries/AP_HAL_SITL\l/AnalogIn.cpp">
<polygon fill="white" stroke="black" points="0,-134.5 0,-164.5 118,-164.5 118,-134.5 0,-134.5"/>
<text text-anchor="start" x="8" y="-152.5" font-family="Helvetica,sans-Serif" font-size="10.00">libraries/AP_HAL_SITL</text>
<text text-anchor="middle" x="59" y="-141.5" font-family="Helvetica,sans-Serif" font-size="10.00">/AnalogIn.cpp</text>
</a>
</g>
</g>
<!-- Node1&#45;&gt;Node2 -->
<g id="edge1" class="edge"><title>Node1&#45;&gt;Node2</title>
<path fill="none" stroke="midnightblue" d="M661.524,-212.174C549.607,-206.247 322.652,-191.885 132,-165 127.522,-164.369 122.904,-163.639 118.268,-162.849"/>
<polygon fill="midnightblue" stroke="midnightblue" points="661.496,-215.677 671.665,-212.704 661.861,-208.686 661.496,-215.677"/>
</g>
<!-- Node3 -->
<g id="node3" class="node"><title>Node3</title>
<g id="a_node3"><a xlink:href="$HAL__SITL__Class_8h.html" xlink:title="libraries/AP_HAL_SITL\l/HAL_SITL_Class.h">
<polygon fill="white" stroke="black" points="561,-134.5 561,-164.5 679,-164.5 679,-134.5 561,-134.5"/>
<text text-anchor="start" x="569" y="-152.5" font-family="Helvetica,sans-Serif" font-size="10.00">libraries/AP_HAL_SITL</text>
<text text-anchor="middle" x="620" y="-141.5" font-family="Helvetica,sans-Serif" font-size="10.00">/HAL_SITL_Class.h</text>
</a>
</g>
</g>
<!-- Node1&#45;&gt;Node3 -->
<g id="edge2" class="edge"><title>Node1&#45;&gt;Node3</title>
<path fill="none" stroke="midnightblue" d="M692.235,-196.435C673.95,-186.237 653.056,-173.897 638.364,-164.577"/>
<polygon fill="midnightblue" stroke="midnightblue" points="690.789,-199.635 701.236,-201.396 694.167,-193.504 690.789,-199.635"/>
</g>
<!-- Node4 -->
<g id="node4" class="node"><title>Node4</title>
<g id="a_node4"><a xlink:href="$SITL__State_8h.html" xlink:title="libraries/AP_HAL_SITL\l/SITL_State.h">
<polygon fill="white" stroke="black" points="696,-67.5 696,-97.5 814,-97.5 814,-67.5 696,-67.5"/>
<text text-anchor="start" x="704" y="-85.5" font-family="Helvetica,sans-Serif" font-size="10.00">libraries/AP_HAL_SITL</text>
<text text-anchor="middle" x="755" y="-74.5" font-family="Helvetica,sans-Serif" font-size="10.00">/SITL_State.h</text>
</a>
</g>
</g>
<!-- Node1&#45;&gt;Node4 -->
<g id="edge17" class="edge"><title>Node1&#45;&gt;Node4</title>
<path fill="none" stroke="midnightblue" d="M735.384,-191.39C740.382,-163.901 748.384,-119.888 752.45,-97.5247"/>
<polygon fill="midnightblue" stroke="midnightblue" points="731.914,-190.909 733.568,-201.374 738.801,-192.161 731.914,-190.909"/>
</g>
<!-- Node6 -->
<g id="node6" class="node"><title>Node6</title>
<g id="a_node6"><a xlink:href="$HAL__SITL__Class_8cpp.html" xlink:title="libraries/AP_HAL_SITL\l/HAL_SITL_Class.cpp">
<polygon fill="white" stroke="black" points="1033,-0.5 1033,-30.5 1151,-30.5 1151,-0.5 1033,-0.5"/>
<text text-anchor="start" x="1041" y="-18.5" font-family="Helvetica,sans-Serif" font-size="10.00">libraries/AP_HAL_SITL</text>
<text text-anchor="middle" x="1092" y="-7.5" font-family="Helvetica,sans-Serif" font-size="10.00">/HAL_SITL_Class.cpp</text>
</a>
</g>
</g>
<!-- Node1&#45;&gt;Node6 -->
<g id="edge31" class="edge"><title>Node1&#45;&gt;Node6</title>
<path fill="none" stroke="midnightblue" d="M800.122,-208.74C845.75,-202.183 905.782,-189.456 954,-165 1016.46,-133.319 1065.2,-61.1591 1083.81,-30.5959"/>
<polygon fill="midnightblue" stroke="midnightblue" points="799.46,-205.298 790.029,-210.124 800.411,-212.233 799.46,-205.298"/>
</g>
<!-- Node7 -->
<g id="node7" class="node"><title>Node7</title>
<g id="a_node7"><a xlink:href="$sitl__airspeed_8cpp.html" xlink:title="libraries/AP_HAL_SITL\l/sitl_airspeed.cpp">
<polygon fill="white" stroke="black" points="380,-0.5 380,-30.5 498,-30.5 498,-0.5 380,-0.5"/>
<text text-anchor="start" x="388" y="-18.5" font-family="Helvetica,sans-Serif" font-size="10.00">libraries/AP_HAL_SITL</text>
<text text-anchor="middle" x="439" y="-7.5" font-family="Helvetica,sans-Serif" font-size="10.00">/sitl_airspeed.cpp</text>
</a>
</g>
</g>
<!-- Node1&#45;&gt;Node7 -->
<g id="edge36" class="edge"><title>Node1&#45;&gt;Node7</title>
<path fill="none" stroke="midnightblue" d="M661.858,-213.479C547.084,-209.256 322.753,-197.069 251,-165 210.495,-146.897 194.99,-138.556 177,-98 171.413,-85.4057 168.228,-77.6244 177,-67 202.217,-36.4585 310.645,-24.1863 379.869,-19.4039"/>
<polygon fill="midnightblue" stroke="midnightblue" points="661.824,-216.98 671.943,-213.84 662.075,-209.984 661.824,-216.98"/>
</g>
<!-- Node8 -->
<g id="node8" class="node"><title>Node8</title>
<g id="a_node8"><a xlink:href="$sitl__rangefinder_8cpp.html" xlink:title="libraries/AP_HAL_SITL\l/sitl_rangefinder.cpp">
<polygon fill="white" stroke="black" points="516,-0.5 516,-30.5 634,-30.5 634,-0.5 516,-0.5"/>
<text text-anchor="start" x="524" y="-18.5" font-family="Helvetica,sans-Serif" font-size="10.00">libraries/AP_HAL_SITL</text>
<text text-anchor="middle" x="575" y="-7.5" font-family="Helvetica,sans-Serif" font-size="10.00">/sitl_rangefinder.cpp</text>
</a>
</g>
</g>
<!-- Node1&#45;&gt;Node8 -->
<g id="edge39" class="edge"><title>Node1&#45;&gt;Node8</title>
<path fill="none" stroke="midnightblue" d="M661.347,-211.18C530.284,-201.367 255.428,-172.21 203,-98 146.266,-17.6951 156.265,-89.0348 507,-31 509.858,-30.5271 512.778,-30.0154 515.723,-29.4763"/>
<polygon fill="midnightblue" stroke="midnightblue" points="661.442,-214.696 671.671,-211.935 661.953,-207.715 661.442,-214.696"/>
</g>
<!-- Node10 -->
<g id="node10" class="node"><title>Node10</title>
<g id="a_node10"><a xlink:href="$SITL__cmdline_8cpp.html" xlink:title="libraries/AP_HAL_SITL\l/SITL_cmdline.cpp">
<polygon fill="white" stroke="black" points="212,-67.5 212,-97.5 330,-97.5 330,-67.5 212,-67.5"/>
<text text-anchor="start" x="220" y="-85.5" font-family="Helvetica,sans-Serif" font-size="10.00">libraries/AP_HAL_SITL</text>
<text text-anchor="middle" x="271" y="-74.5" font-family="Helvetica,sans-Serif" font-size="10.00">/SITL_cmdline.cpp</text>
</a>
</g>
</g>
<!-- Node1&#45;&gt;Node10 -->
<g id="edge37" class="edge"><title>Node1&#45;&gt;Node10</title>
<path fill="none" stroke="midnightblue" d="M661.991,-204.303C612.506,-195.543 544.524,-182.007 486,-165 419.685,-145.729 344.812,-115.285 303.233,-97.569"/>
<polygon fill="midnightblue" stroke="midnightblue" points="661.492,-207.769 671.946,-206.046 662.699,-200.874 661.492,-207.769"/>
</g>
<!-- Node11 -->
<g id="node11" class="node"><title>Node11</title>
<g id="a_node11"><a xlink:href="$sitl__gps_8cpp.html" xlink:title="libraries/AP_HAL_SITL\l/sitl_gps.cpp">
<polygon fill="white" stroke="black" points="348,-67.5 348,-97.5 466,-97.5 466,-67.5 348,-67.5"/>
<text text-anchor="start" x="356" y="-85.5" font-family="Helvetica,sans-Serif" font-size="10.00">libraries/AP_HAL_SITL</text>
<text text-anchor="middle" x="407" y="-74.5" font-family="Helvetica,sans-Serif" font-size="10.00">/sitl_gps.cpp</text>
</a>
</g>
</g>
<!-- Node1&#45;&gt;Node11 -->
<g id="edge38" class="edge"><title>Node1&#45;&gt;Node11</title>
<path fill="none" stroke="midnightblue" d="M661.984,-200.103C628.191,-191.545 587.285,-179.649 552,-165 505.86,-145.844 455.863,-115.359 428.292,-97.6052"/>
<polygon fill="midnightblue" stroke="midnightblue" points="661.223,-203.52 671.772,-202.539 662.913,-196.727 661.223,-203.52"/>
</g>
<!-- Node12 -->
<g id="node12" class="node"><title>Node12</title>
<g id="a_node12"><a xlink:href="$SITL__State_8cpp.html" xlink:title="libraries/AP_HAL_SITL\l/SITL_State.cpp">
<polygon fill="white" stroke="black" points="560,-67.5 560,-97.5 678,-97.5 678,-67.5 560,-67.5"/>
<text text-anchor="start" x="568" y="-85.5" font-family="Helvetica,sans-Serif" font-size="10.00">libraries/AP_HAL_SITL</text>
<text text-anchor="middle" x="619" y="-74.5" font-family="Helvetica,sans-Serif" font-size="10.00">/SITL_State.cpp</text>
</a>
</g>
</g>
<!-- Node1&#45;&gt;Node12 -->
<g id="edge40" class="edge"><title>Node1&#45;&gt;Node12</title>
<path fill="none" stroke="midnightblue" d="M721.993,-191.982C714.607,-174.699 702.945,-151.309 688,-134 675.388,-119.393 657.792,-106.599 643.526,-97.5428"/>
<polygon fill="midnightblue" stroke="midnightblue" points="718.806,-193.436 725.839,-201.36 725.282,-190.78 718.806,-193.436"/>
</g>
<!-- Node13 -->
<g id="node13" class="node"><title>Node13</title>
<g id="a_node13"><a xlink:href="$SITL_2RCInput_8h.html" xlink:title="libraries/AP_HAL_SITL\l/RCInput.h">
<polygon fill="white" stroke="black" points="827,-134.5 827,-164.5 945,-164.5 945,-134.5 827,-134.5"/>
<text text-anchor="start" x="835" y="-152.5" font-family="Helvetica,sans-Serif" font-size="10.00">libraries/AP_HAL_SITL</text>
<text text-anchor="middle" x="886" y="-141.5" font-family="Helvetica,sans-Serif" font-size="10.00">/RCInput.h</text>
</a>
</g>
</g>
<!-- Node1&#45;&gt;Node13 -->
<g id="edge18" class="edge"><title>Node1&#45;&gt;Node13</title>
<path fill="none" stroke="midnightblue" d="M774.146,-197.407C798.891,-187.029 829.496,-174.195 852.433,-164.577"/>
<polygon fill="midnightblue" stroke="midnightblue" points="772.501,-194.301 764.633,-201.396 775.208,-200.756 772.501,-194.301"/>
</g>
<!-- Node15 -->
<g id="node15" class="node"><title>Node15</title>
<g id="a_node15"><a xlink:href="$SITL_2Semaphores_8h.html" xlink:title="libraries/AP_HAL_SITL\l/Semaphores.h">
<polygon fill="white" stroke="black" points="1109,-134.5 1109,-164.5 1227,-164.5 1227,-134.5 1109,-134.5"/>
<text text-anchor="start" x="1117" y="-152.5" font-family="Helvetica,sans-Serif" font-size="10.00">libraries/AP_HAL_SITL</text>
<text text-anchor="middle" x="1168" y="-141.5" font-family="Helvetica,sans-Serif" font-size="10.00">/Semaphores.h</text>
</a>
</g>
</g>
<!-- Node1&#45;&gt;Node15 -->
<g id="edge22" class="edge"><title>Node1&#45;&gt;Node15</title>
<path fill="none" stroke="midnightblue" d="M800.149,-207.124C873.507,-197.953 992.703,-182.241 1095,-165 1099.46,-164.248 1104.06,-163.431 1108.69,-162.581"/>
<polygon fill="midnightblue" stroke="midnightblue" points="799.6,-203.665 790.109,-208.374 800.465,-210.611 799.6,-203.665"/>
</g>
<!-- Node18 -->
<g id="node18" class="node"><title>Node18</title>
<g id="a_node18"><a xlink:href="$SITL_2CAN_8h.html" xlink:title="libraries/AP_HAL_SITL\l/CAN.h">
<polygon fill="white" stroke="black" points="1245,-134.5 1245,-164.5 1363,-164.5 1363,-134.5 1245,-134.5"/>
<text text-anchor="start" x="1253" y="-152.5" font-family="Helvetica,sans-Serif" font-size="10.00">libraries/AP_HAL_SITL</text>
<text text-anchor="middle" x="1304" y="-141.5" font-family="Helvetica,sans-Serif" font-size="10.00">/CAN.h</text>
</a>
</g>
</g>
<!-- Node1&#45;&gt;Node18 -->
<g id="edge27" class="edge"><title>Node1&#45;&gt;Node18</title>
<path fill="none" stroke="midnightblue" d="M800.395,-210.997C898.02,-204.109 1081.29,-189.154 1236,-165 1238.86,-164.553 1241.79,-164.063 1244.73,-163.54"/>
<polygon fill="midnightblue" stroke="midnightblue" points="800.089,-207.51 790.357,-211.698 800.576,-214.493 800.089,-207.51"/>
</g>
<!-- Node19 -->
<g id="node19" class="node"><title>Node19</title>
<g id="a_node19"><a xlink:href="$SITL_2GPIO_8h.html" xlink:title="libraries/AP_HAL_SITL\l/GPIO.h">
<polygon fill="white" stroke="black" points="1381,-134.5 1381,-164.5 1499,-164.5 1499,-134.5 1381,-134.5"/>
<text text-anchor="start" x="1389" y="-152.5" font-family="Helvetica,sans-Serif" font-size="10.00">libraries/AP_HAL_SITL</text>
<text text-anchor="middle" x="1440" y="-141.5" font-family="Helvetica,sans-Serif" font-size="10.00">/GPIO.h</text>
</a>
</g>
</g>
<!-- Node1&#45;&gt;Node19 -->
<g id="edge28" class="edge"><title>Node1&#45;&gt;Node19</title>
<path fill="none" stroke="midnightblue" d="M800.382,-213.024C918.343,-208.148 1165.31,-195.046 1372,-165 1374.87,-164.583 1377.79,-164.117 1380.74,-163.615"/>
<polygon fill="midnightblue" stroke="midnightblue" points="799.908,-209.541 790.058,-213.444 800.192,-216.535 799.908,-209.541"/>
</g>
<!-- Node21 -->
<g id="node21" class="node"><title>Node21</title>
<g id="a_node21"><a xlink:href="$SITL_2RCOutput_8h.html" xlink:title="libraries/AP_HAL_SITL\l/RCOutput.h">
<polygon fill="white" stroke="black" points="1517,-134.5 1517,-164.5 1635,-164.5 1635,-134.5 1517,-134.5"/>
<text text-anchor="start" x="1525" y="-152.5" font-family="Helvetica,sans-Serif" font-size="10.00">libraries/AP_HAL_SITL</text>
<text text-anchor="middle" x="1576" y="-141.5" font-family="Helvetica,sans-Serif" font-size="10.00">/RCOutput.h</text>
</a>
</g>
</g>
<!-- Node1&#45;&gt;Node21 -->
<g id="edge32" class="edge"><title>Node1&#45;&gt;Node21</title>
<path fill="none" stroke="midnightblue" d="M800.563,-214.36C936.91,-211.38 1248.62,-200.89 1508,-165 1510.87,-164.603 1513.8,-164.153 1516.75,-163.663"/>
<polygon fill="midnightblue" stroke="midnightblue" points="800.191,-210.867 790.267,-214.578 800.339,-217.865 800.191,-210.867"/>
</g>
<!-- Node23 -->
<g id="node23" class="node"><title>Node23</title>
<g id="a_node23"><a xlink:href="$AP__HAL__SITL_2Scheduler_8cpp.html" xlink:title="libraries/AP_HAL_SITL\l/Scheduler.cpp">
<polygon fill="white" stroke="black" points="1653,-134.5 1653,-164.5 1771,-164.5 1771,-134.5 1653,-134.5"/>
<text text-anchor="start" x="1661" y="-152.5" font-family="Helvetica,sans-Serif" font-size="10.00">libraries/AP_HAL_SITL</text>
<text text-anchor="middle" x="1712" y="-141.5" font-family="Helvetica,sans-Serif" font-size="10.00">/Scheduler.cpp</text>
</a>
</g>
</g>
<!-- Node1&#45;&gt;Node23 -->
<g id="edge35" class="edge"><title>Node1&#45;&gt;Node23</title>
<path fill="none" stroke="midnightblue" d="M800.224,-215.318C953.134,-214.12 1330.98,-206.775 1644,-165 1646.87,-164.617 1649.8,-164.178 1652.76,-163.697"/>
<polygon fill="midnightblue" stroke="midnightblue" points="800.018,-211.819 790.043,-215.391 800.068,-218.819 800.018,-211.819"/>
</g>
<!-- Node3&#45;&gt;Node1 -->
<g id="edge3" class="edge"><title>Node3&#45;&gt;Node1</title>
<path fill="none" stroke="midnightblue" d="M658.711,-169.534C676.99,-179.728 697.889,-192.069 712.593,-201.396"/>
<polygon fill="midnightblue" stroke="midnightblue" points="660.161,-166.337 649.713,-164.577 656.783,-172.468 660.161,-166.337"/>
</g>
<!-- Node3&#45;&gt;Node4 -->
<g id="edge4" class="edge"><title>Node3&#45;&gt;Node4</title>
<path fill="none" stroke="midnightblue" d="M652.555,-129.853C672.99,-119.576 699.223,-107.025 720.089,-97.5765"/>
<polygon fill="midnightblue" stroke="midnightblue" points="650.944,-126.746 643.615,-134.396 654.115,-132.987 650.944,-126.746"/>
</g>
<!-- Node3&#45;&gt;Node6 -->
<g id="edge11" class="edge"><title>Node3&#45;&gt;Node6</title>
<path fill="none" stroke="midnightblue" d="M689.32,-139.038C729.837,-131.64 781.085,-118.979 823,-98 842.491,-88.2446 841.372,-76.4758 861,-67 890.806,-52.6108 974.713,-36.3126 1032.74,-26.2193"/>
<polygon fill="midnightblue" stroke="midnightblue" points="688.505,-135.628 679.262,-140.808 689.717,-142.522 688.505,-135.628"/>
</g>
<!-- Node3&#45;&gt;Node7 -->
<g id="edge12" class="edge"><title>Node3&#45;&gt;Node7</title>
<path fill="none" stroke="midnightblue" d="M588.53,-129.082C574.133,-119.957 556.983,-108.742 542,-98 510.68,-75.5468 475.824,-47.2206 455.75,-30.5609"/>
<polygon fill="midnightblue" stroke="midnightblue" points="586.766,-132.107 597.093,-134.471 590.494,-126.182 586.766,-132.107"/>
</g>
<!-- Node3&#45;&gt;Node8 -->
<g id="edge15" class="edge"><title>Node3&#45;&gt;Node8</title>
<path fill="none" stroke="midnightblue" d="M580.592,-129.01C568.895,-121.108 557.485,-110.783 551,-98 539.722,-75.7697 553.794,-47.3721 564.661,-30.6381"/>
<polygon fill="midnightblue" stroke="midnightblue" points="578.761,-131.993 589.094,-134.336 582.478,-126.061 578.761,-131.993"/>
</g>
<!-- Node3&#45;&gt;Node10 -->
<g id="edge13" class="edge"><title>Node3&#45;&gt;Node10</title>
<path fill="none" stroke="midnightblue" d="M550.992,-136.738C494.037,-126.876 411.15,-112.172 339,-98 336.157,-97.4416 333.25,-96.8605 330.315,-96.2658"/>
<polygon fill="midnightblue" stroke="midnightblue" points="550.512,-140.207 560.962,-138.46 551.704,-133.309 550.512,-140.207"/>
</g>
<!-- Node3&#45;&gt;Node11 -->
<g id="edge14" class="edge"><title>Node3&#45;&gt;Node11</title>
<path fill="none" stroke="midnightblue" d="M564.11,-131.444C529.582,-120.908 485.808,-107.549 453.24,-97.6109"/>
<polygon fill="midnightblue" stroke="midnightblue" points="563.458,-134.905 574.044,-134.476 565.501,-128.21 563.458,-134.905"/>
</g>
<!-- Node3&#45;&gt;Node12 -->
<g id="edge16" class="edge"><title>Node3&#45;&gt;Node12</title>
<path fill="none" stroke="midnightblue" d="M619.625,-124.108C619.487,-115.154 619.336,-105.323 619.217,-97.5765"/>
<polygon fill="midnightblue" stroke="midnightblue" points="616.13,-124.451 619.783,-134.396 623.129,-124.343 616.13,-124.451"/>
</g>
<!-- Node4&#45;&gt;Node3 -->
<g id="edge5" class="edge"><title>Node4&#45;&gt;Node3</title>
<path fill="none" stroke="midnightblue" d="M722.504,-102.117C702.081,-112.39 675.848,-124.941 654.971,-134.396"/>
<polygon fill="midnightblue" stroke="midnightblue" points="724.11,-105.227 731.439,-97.5765 720.938,-98.9865 724.11,-105.227"/>
</g>
<!-- Node5 -->
<g id="node5" class="node"><title>Node5</title>
<g id="a_node5"><a xlink:href="$AP__HAL__SITL__Private_8h.html" xlink:title="libraries/AP_HAL_SITL\l/AP_HAL_SITL_Private.h">
<polygon fill="white" stroke="black" points="860,-0.5 860,-30.5 988,-30.5 988,-0.5 860,-0.5"/>
<text text-anchor="start" x="868" y="-18.5" font-family="Helvetica,sans-Serif" font-size="10.00">libraries/AP_HAL_SITL</text>
<text text-anchor="middle" x="924" y="-7.5" font-family="Helvetica,sans-Serif" font-size="10.00">/AP_HAL_SITL_Private.h</text>
</a>
</g>
</g>
<!-- Node4&#45;&gt;Node5 -->
<g id="edge6" class="edge"><title>Node4&#45;&gt;Node5</title>
<path fill="none" stroke="midnightblue" d="M801.328,-63.6815C828.432,-53.2568 862.171,-40.2805 887.401,-30.5765"/>
<polygon fill="midnightblue" stroke="midnightblue" points="799.747,-60.5394 791.67,-67.396 802.26,-67.0728 799.747,-60.5394"/>
</g>
<!-- Node4&#45;&gt;Node6 -->
<g id="edge7" class="edge"><title>Node4&#45;&gt;Node6</title>
<path fill="none" stroke="midnightblue" d="M824.222,-67.7378C825.491,-67.4895 826.752,-67.2434 828,-67 898.421,-53.271 979.48,-37.8174 1033,-27.6628"/>
<polygon fill="midnightblue" stroke="midnightblue" points="823.494,-64.3137 814.355,-69.6738 824.842,-71.1827 823.494,-64.3137"/>
</g>
<!-- Node4&#45;&gt;Node7 -->
<g id="edge8" class="edge"><title>Node4&#45;&gt;Node7</title>
<path fill="none" stroke="midnightblue" d="M685.597,-66.7254C605.433,-50.2387 583.776,-46.8626 507,-31 504.163,-30.4138 501.26,-29.8101 498.329,-29.1973"/>
<polygon fill="midnightblue" stroke="midnightblue" points="685.17,-70.2109 695.671,-68.8027 686.584,-63.3551 685.17,-70.2109"/>
</g>
<!-- Node4&#45;&gt;Node8 -->
<g id="edge9" class="edge"><title>Node4&#45;&gt;Node8</title>
<path fill="none" stroke="midnightblue" d="M706.415,-63.9553C677.419,-53.4847 641.089,-40.3656 613.981,-30.5765"/>
<polygon fill="midnightblue" stroke="midnightblue" points="705.348,-67.2914 715.943,-67.396 707.726,-60.7075 705.348,-67.2914"/>
</g>
<!-- Node9 -->
<g id="node9" class="node"><title>Node9</title>
<g id="a_node9"><a xlink:href="$SITL_2UARTDriver_8cpp.html" xlink:title="libraries/AP_HAL_SITL\l/UARTDriver.cpp">
<polygon fill="white" stroke="black" points="696,-0.5 696,-30.5 814,-30.5 814,-0.5 696,-0.5"/>
<text text-anchor="start" x="704" y="-18.5" font-family="Helvetica,sans-Serif" font-size="10.00">libraries/AP_HAL_SITL</text>
<text text-anchor="middle" x="755" y="-7.5" font-family="Helvetica,sans-Serif" font-size="10.00">/UARTDriver.cpp</text>
</a>
</g>
</g>
<!-- Node4&#45;&gt;Node9 -->
<g id="edge10" class="edge"><title>Node4&#45;&gt;Node9</title>
<path fill="none" stroke="midnightblue" d="M755,-57.1081C755,-48.1539 755,-38.3227 755,-30.5765"/>
<polygon fill="midnightblue" stroke="midnightblue" points="751.5,-57.3959 755,-67.396 758.5,-57.396 751.5,-57.3959"/>
</g>
<!-- Node13&#45;&gt;Node4 -->
<g id="edge19" class="edge"><title>Node13&#45;&gt;Node4</title>
<path fill="none" stroke="midnightblue" d="M848.42,-129.853C827.707,-119.576 802.412,-107.025 783.37,-97.5765"/>
<polygon fill="midnightblue" stroke="midnightblue" points="847.061,-133.086 857.575,-134.396 850.173,-126.816 847.061,-133.086"/>
</g>
<!-- Node13&#45;&gt;Node6 -->
<g id="edge20" class="edge"><title>Node13&#45;&gt;Node6</title>
<path fill="none" stroke="midnightblue" d="M932.991,-130.601C953.354,-121.975 977.048,-110.733 997,-98 1028.51,-77.8928 1060.56,-48.0143 1078.2,-30.5713"/>
<polygon fill="midnightblue" stroke="midnightblue" points="931.491,-127.434 923.594,-134.498 934.172,-133.9 931.491,-127.434"/>
</g>
<!-- Node14 -->
<g id="node14" class="node"><title>Node14</title>
<g id="a_node14"><a xlink:href="$SITL_2RCInput_8cpp.html" xlink:title="libraries/AP_HAL_SITL\l/RCInput.cpp">
<polygon fill="white" stroke="black" points="870,-67.5 870,-97.5 988,-97.5 988,-67.5 870,-67.5"/>
<text text-anchor="start" x="878" y="-85.5" font-family="Helvetica,sans-Serif" font-size="10.00">libraries/AP_HAL_SITL</text>
<text text-anchor="middle" x="929" y="-74.5" font-family="Helvetica,sans-Serif" font-size="10.00">/RCInput.cpp</text>
</a>
</g>
</g>
<!-- Node13&#45;&gt;Node14 -->
<g id="edge21" class="edge"><title>Node13&#45;&gt;Node14</title>
<path fill="none" stroke="midnightblue" d="M900.973,-125.867C907.196,-116.459 914.226,-105.833 919.688,-97.5765"/>
<polygon fill="midnightblue" stroke="midnightblue" points="897.929,-124.125 895.33,-134.396 903.767,-127.987 897.929,-124.125"/>
</g>
<!-- Node15&#45;&gt;Node5 -->
<g id="edge23" class="edge"><title>Node15&#45;&gt;Node5</title>
<path fill="none" stroke="midnightblue" d="M1132.82,-129.467C1083.22,-102.638 993.916,-54.3232 949.925,-30.5247"/>
<polygon fill="midnightblue" stroke="midnightblue" points="1131.43,-132.694 1141.89,-134.374 1134.76,-126.537 1131.43,-132.694"/>
</g>
<!-- Node16 -->
<g id="node16" class="node"><title>Node16</title>
<g id="a_node16"><a xlink:href="$SITL_2Util_8h.html" xlink:title="libraries/AP_HAL_SITL\l/Util.h">
<polygon fill="white" stroke="black" points="1120,-67.5 1120,-97.5 1238,-97.5 1238,-67.5 1120,-67.5"/>
<text text-anchor="start" x="1128" y="-85.5" font-family="Helvetica,sans-Serif" font-size="10.00">libraries/AP_HAL_SITL</text>
<text text-anchor="middle" x="1179" y="-74.5" font-family="Helvetica,sans-Serif" font-size="10.00">/Util.h</text>
</a>
</g>
</g>
<!-- Node15&#45;&gt;Node16 -->
<g id="edge24" class="edge"><title>Node15&#45;&gt;Node16</title>
<path fill="none" stroke="midnightblue" d="M1172.08,-124.403C1173.61,-115.37 1175.29,-105.408 1176.62,-97.5765"/>
<polygon fill="midnightblue" stroke="midnightblue" points="1168.6,-123.952 1170.39,-134.396 1175.51,-125.12 1168.6,-123.952"/>
</g>
<!-- Node17 -->
<g id="node17" class="node"><title>Node17</title>
<g id="a_node17"><a xlink:href="$AP__HAL__SITL_2Semaphores_8cpp.html" xlink:title="libraries/AP_HAL_SITL\l/Semaphores.cpp">
<polygon fill="white" stroke="black" points="1256,-67.5 1256,-97.5 1374,-97.5 1374,-67.5 1256,-67.5"/>
<text text-anchor="start" x="1264" y="-85.5" font-family="Helvetica,sans-Serif" font-size="10.00">libraries/AP_HAL_SITL</text>
<text text-anchor="middle" x="1315" y="-74.5" font-family="Helvetica,sans-Serif" font-size="10.00">/Semaphores.cpp</text>
</a>
</g>
</g>
<!-- Node15&#45;&gt;Node17 -->
<g id="edge26" class="edge"><title>Node15&#45;&gt;Node17</title>
<path fill="none" stroke="midnightblue" d="M1209.23,-130.269C1232.64,-119.916 1261.51,-107.153 1283.17,-97.5765"/>
<polygon fill="midnightblue" stroke="midnightblue" points="1207.63,-127.151 1199.9,-134.396 1210.46,-133.553 1207.63,-127.151"/>
</g>
<!-- Node16&#45;&gt;Node6 -->
<g id="edge25" class="edge"><title>Node16&#45;&gt;Node6</title>
<path fill="none" stroke="midnightblue" d="M1151.79,-61.1677C1138.48,-51.2283 1122.8,-39.5144 1110.84,-30.5765"/>
<polygon fill="midnightblue" stroke="midnightblue" points="1150.02,-64.2145 1160.12,-67.396 1154.21,-58.6068 1150.02,-64.2145"/>
</g>
<!-- Node19&#45;&gt;Node6 -->
<g id="edge30" class="edge"><title>Node19&#45;&gt;Node6</title>
<path fill="none" stroke="midnightblue" d="M1429.99,-125.251C1420.64,-106.443 1404.84,-80.8808 1383,-67 1345.4,-43.1059 1224.79,-28.3834 1151.17,-21.3896"/>
<polygon fill="midnightblue" stroke="midnightblue" points="1426.86,-126.819 1434.29,-134.373 1433.2,-123.835 1426.86,-126.819"/>
</g>
<!-- Node20 -->
<g id="node20" class="node"><title>Node20</title>
<g id="a_node20"><a xlink:href="$AP__HAL__SITL_2GPIO_8cpp.html" xlink:title="libraries/AP_HAL_SITL\l/GPIO.cpp">
<polygon fill="white" stroke="black" points="1430,-67.5 1430,-97.5 1548,-97.5 1548,-67.5 1430,-67.5"/>
<text text-anchor="start" x="1438" y="-85.5" font-family="Helvetica,sans-Serif" font-size="10.00">libraries/AP_HAL_SITL</text>
<text text-anchor="middle" x="1489" y="-74.5" font-family="Helvetica,sans-Serif" font-size="10.00">/GPIO.cpp</text>
</a>
</g>
</g>
<!-- Node19&#45;&gt;Node20 -->
<g id="edge29" class="edge"><title>Node19&#45;&gt;Node20</title>
<path fill="none" stroke="midnightblue" d="M1456.84,-126.157C1463.99,-116.679 1472.1,-105.919 1478.39,-97.5765"/>
<polygon fill="midnightblue" stroke="midnightblue" points="1453.86,-124.304 1450.63,-134.396 1459.45,-128.518 1453.86,-124.304"/>
</g>
<!-- Node21&#45;&gt;Node6 -->
<g id="edge33" class="edge"><title>Node21&#45;&gt;Node6</title>
<path fill="none" stroke="midnightblue" d="M1577.29,-124.19C1576.84,-105.693 1572.91,-81.0937 1557,-67 1527.18,-40.5812 1269.81,-24.9901 1151.29,-19.1513"/>
<polygon fill="midnightblue" stroke="midnightblue" points="1573.79,-124.224 1577.21,-134.249 1580.79,-124.276 1573.79,-124.224"/>
</g>
<!-- Node22 -->
<g id="node22" class="node"><title>Node22</title>
<g id="a_node22"><a xlink:href="$SITL_2RCOutput_8cpp.html" xlink:title="libraries/AP_HAL_SITL\l/RCOutput.cpp">
<polygon fill="white" stroke="black" points="1604,-67.5 1604,-97.5 1722,-97.5 1722,-67.5 1604,-67.5"/>
<text text-anchor="start" x="1612" y="-85.5" font-family="Helvetica,sans-Serif" font-size="10.00">libraries/AP_HAL_SITL</text>
<text text-anchor="middle" x="1663" y="-74.5" font-family="Helvetica,sans-Serif" font-size="10.00">/RCOutput.cpp</text>
</a>
</g>
</g>
<!-- Node21&#45;&gt;Node22 -->
<g id="edge34" class="edge"><title>Node21&#45;&gt;Node22</title>
<path fill="none" stroke="midnightblue" d="M1603.21,-128.168C1616.52,-118.228 1632.2,-106.514 1644.16,-97.5765"/>
<polygon fill="midnightblue" stroke="midnightblue" points="1600.79,-125.607 1594.88,-134.396 1604.98,-131.215 1600.79,-125.607"/>
</g>
</g>
</svg>
