<?xml version="1.0" encoding="UTF-8" standalone="no"?>
<!DOCTYPE svg PUBLIC "-//W3C//DTD SVG 1.1//EN"
 "http://www.w3.org/Graphics/SVG/1.1/DTD/svg11.dtd">
<!-- Generated by graphviz version 2.38.0 (20140413.2041)
 -->
<!-- Title: libraries/AP_VisualOdom/AP_VisualOdom_Backend.h Pages: 1 -->
<svg width="399pt" height="173pt"
 viewBox="0.00 0.00 398.50 173.00" xmlns="http://www.w3.org/2000/svg" xmlns:xlink="http://www.w3.org/1999/xlink">
<g id="graph0" class="graph" transform="scale(1 1) rotate(0) translate(4 169)">
<title>libraries/AP_VisualOdom/AP_VisualOdom_Backend.h</title>
<polygon fill="white" stroke="none" points="-4,4 -4,-169 394.5,-169 394.5,4 -4,4"/>
<!-- Node1 -->
<g id="node1" class="node"><title>Node1</title>
<polygon fill="#bfbfbf" stroke="black" points="83,-134.5 83,-164.5 226,-164.5 226,-134.5 83,-134.5"/>
<text text-anchor="start" x="91" y="-152.5" font-family="Helvetica,sans-Serif" font-size="10.00">libraries/AP_VisualOdom</text>
<text text-anchor="middle" x="154.5" y="-141.5" font-family="Helvetica,sans-Serif" font-size="10.00">/AP_VisualOdom_Backend.h</text>
</g>
<!-- Node2 -->
<g id="node2" class="node"><title>Node2</title>
<g id="a_node2"><a xlink:href="$AP__VisualOdom_8cpp.html" xlink:title="libraries/AP_VisualOdom\l/AP_VisualOdom.cpp">
<polygon fill="white" stroke="black" points="0,-0.5 0,-30.5 125,-30.5 125,-0.5 0,-0.5"/>
<text text-anchor="start" x="8" y="-18.5" font-family="Helvetica,sans-Serif" font-size="10.00">libraries/AP_VisualOdom</text>
<text text-anchor="middle" x="62.5" y="-7.5" font-family="Helvetica,sans-Serif" font-size="10.00">/AP_VisualOdom.cpp</text>
</a>
</g>
</g>
<!-- Node1&#45;&gt;Node2 -->
<g id="edge1" class="edge"><title>Node1&#45;&gt;Node2</title>
<path fill="none" stroke="midnightblue" d="M115.846,-129.277C103.186,-121.222 90.162,-110.734 81.5,-98 67.5269,-77.4578 63.7435,-47.9948 62.7716,-30.6943"/>
<polygon fill="midnightblue" stroke="midnightblue" points="114.119,-132.322 124.495,-134.462 117.718,-126.318 114.119,-132.322"/>
</g>
<!-- Node3 -->
<g id="node3" class="node"><title>Node3</title>
<g id="a_node3"><a xlink:href="$AP__VisualOdom__MAV_8h.html" xlink:title="libraries/AP_VisualOdom\l/AP_VisualOdom_MAV.h">
<polygon fill="white" stroke="black" points="91,-67.5 91,-97.5 218,-97.5 218,-67.5 91,-67.5"/>
<text text-anchor="start" x="99" y="-85.5" font-family="Helvetica,sans-Serif" font-size="10.00">libraries/AP_VisualOdom</text>
<text text-anchor="middle" x="154.5" y="-74.5" font-family="Helvetica,sans-Serif" font-size="10.00">/AP_VisualOdom_MAV.h</text>
</a>
</g>
</g>
<!-- Node1&#45;&gt;Node3 -->
<g id="edge2" class="edge"><title>Node1&#45;&gt;Node3</title>
<path fill="none" stroke="midnightblue" d="M154.5,-124.108C154.5,-115.154 154.5,-105.323 154.5,-97.5765"/>
<polygon fill="midnightblue" stroke="midnightblue" points="151,-124.396 154.5,-134.396 158,-124.396 151,-124.396"/>
</g>
<!-- Node5 -->
<g id="node5" class="node"><title>Node5</title>
<g id="a_node5"><a xlink:href="$AP__VisualOdom__Backend_8cpp.html" xlink:title="libraries/AP_VisualOdom\l/AP_VisualOdom_Backend.cpp">
<polygon fill="white" stroke="black" points="236.5,-67.5 236.5,-97.5 390.5,-97.5 390.5,-67.5 236.5,-67.5"/>
<text text-anchor="start" x="244.5" y="-85.5" font-family="Helvetica,sans-Serif" font-size="10.00">libraries/AP_VisualOdom</text>
<text text-anchor="middle" x="313.5" y="-74.5" font-family="Helvetica,sans-Serif" font-size="10.00">/AP_VisualOdom_Backend.cpp</text>
</a>
</g>
</g>
<!-- Node1&#45;&gt;Node5 -->
<g id="edge5" class="edge"><title>Node1&#45;&gt;Node5</title>
<path fill="none" stroke="midnightblue" d="M198.423,-130.544C223.866,-120.143 255.433,-107.238 279.067,-97.5765"/>
<polygon fill="midnightblue" stroke="midnightblue" points="196.933,-127.372 189.001,-134.396 199.581,-133.852 196.933,-127.372"/>
</g>
<!-- Node3&#45;&gt;Node2 -->
<g id="edge3" class="edge"><title>Node3&#45;&gt;Node2</title>
<path fill="none" stroke="midnightblue" d="M126.123,-61.4511C111.97,-51.4517 95.1947,-39.5995 82.4237,-30.5765"/>
<polygon fill="midnightblue" stroke="midnightblue" points="124.351,-64.4841 134.537,-67.396 128.39,-58.7671 124.351,-64.4841"/>
</g>
<!-- Node4 -->
<g id="node4" class="node"><title>Node4</title>
<g id="a_node4"><a xlink:href="$AP__VisualOdom__MAV_8cpp.html" xlink:title="libraries/AP_VisualOdom\l/AP_VisualOdom_MAV.cpp">
<polygon fill="white" stroke="black" points="143,-0.5 143,-30.5 280,-30.5 280,-0.5 143,-0.5"/>
<text text-anchor="start" x="151" y="-18.5" font-family="Helvetica,sans-Serif" font-size="10.00">libraries/AP_VisualOdom</text>
<text text-anchor="middle" x="211.5" y="-7.5" font-family="Helvetica,sans-Serif" font-size="10.00">/AP_VisualOdom_MAV.cpp</text>
</a>
</g>
</g>
<!-- Node3&#45;&gt;Node4 -->
<g id="edge4" class="edge"><title>Node3&#45;&gt;Node4</title>
<path fill="none" stroke="midnightblue" d="M173.585,-59.7362C182.019,-50.119 191.691,-39.0888 199.156,-30.5765"/>
<polygon fill="midnightblue" stroke="midnightblue" points="170.83,-57.5697 166.868,-67.396 176.093,-62.185 170.83,-57.5697"/>
</g>
</g>
</svg>
