<?xml version="1.0" encoding="UTF-8" standalone="no"?>
<!DOCTYPE svg PUBLIC "-//W3C//DTD SVG 1.1//EN"
 "http://www.w3.org/Graphics/SVG/1.1/DTD/svg11.dtd">
<!-- Generated by graphviz version 2.38.0 (20140413.2041)
 -->
<!-- Title: wrap_180_cd&lt; int &gt; Pages: 1 -->
<svg width="1729pt" height="510pt"
 viewBox="0.00 0.00 1729.00 509.50" xmlns="http://www.w3.org/2000/svg" xmlns:xlink="http://www.w3.org/1999/xlink">
<g id="graph0" class="graph" transform="scale(1 1) rotate(0) translate(4 505.5)">
<title>wrap_180_cd&lt; int &gt;</title>
<polygon fill="white" stroke="none" points="-4,4 -4,-505.5 1725,-505.5 1725,4 -4,4"/>
<!-- Node1 -->
<g id="node1" class="node"><title>Node1</title>
<polygon fill="#bfbfbf" stroke="black" points="0,-183.5 0,-202.5 103,-202.5 103,-183.5 0,-183.5"/>
<text text-anchor="middle" x="51.5" y="-190.5" font-family="Helvetica,sans-Serif" font-size="10.00">wrap_180_cd&lt; int &gt;</text>
</g>
<!-- Node2 -->
<g id="node2" class="node"><title>Node2</title>
<g id="a_node2"><a xlink:href="$AP__Math_8h.html#a4e136782e86e2adaaf7f0f759067dfe1" xlink:title="wrap_180_cd">
<polygon fill="white" stroke="black" points="139,-183.5 139,-202.5 213,-202.5 213,-183.5 139,-183.5"/>
<text text-anchor="middle" x="176" y="-190.5" font-family="Helvetica,sans-Serif" font-size="10.00">wrap_180_cd</text>
</a>
</g>
</g>
<!-- Node1&#45;&gt;Node2 -->
<g id="edge1" class="edge"><title>Node1&#45;&gt;Node2</title>
<path fill="none" stroke="midnightblue" d="M113.245,-193C121.986,-193 130.741,-193 138.797,-193"/>
<polygon fill="midnightblue" stroke="midnightblue" points="113.033,-189.5 103.033,-193 113.033,-196.5 113.033,-189.5"/>
</g>
<!-- Node3 -->
<g id="node3" class="node"><title>Node3</title>
<g id="a_node3"><a xlink:href="$classAP__AHRS__DCM.html#a9e233265c2dacd046aa91ff34cc7f8a6" xlink:title="AP_AHRS_DCM::use_compass">
<polygon fill="white" stroke="black" points="249,-383.5 249,-402.5 408,-402.5 408,-383.5 249,-383.5"/>
<text text-anchor="middle" x="328.5" y="-390.5" font-family="Helvetica,sans-Serif" font-size="10.00">AP_AHRS_DCM::use_compass</text>
</a>
</g>
</g>
<!-- Node2&#45;&gt;Node3 -->
<g id="edge2" class="edge"><title>Node2&#45;&gt;Node3</title>
<path fill="none" stroke="midnightblue" d="M179.615,-212.726C185.43,-248.758 202.777,-325.42 249,-368 256.469,-374.88 265.833,-379.867 275.467,-383.482"/>
<polygon fill="midnightblue" stroke="midnightblue" points="183.035,-211.93 178.11,-202.55 176.111,-212.954 183.035,-211.93"/>
</g>
<!-- Node17 -->
<g id="node17" class="node"><title>Node17</title>
<g id="a_node17"><a xlink:href="$classAP__L1__Control.html#ac558013977299a03d6c8cdd61559561d" xlink:title="AP_L1_Control::get\l_yaw_sensor">
<polygon fill="white" stroke="black" points="277.5,-329 277.5,-359 379.5,-359 379.5,-329 277.5,-329"/>
<text text-anchor="start" x="285.5" y="-347" font-family="Helvetica,sans-Serif" font-size="10.00">AP_L1_Control::get</text>
<text text-anchor="middle" x="328.5" y="-336" font-family="Helvetica,sans-Serif" font-size="10.00">_yaw_sensor</text>
</a>
</g>
</g>
<!-- Node2&#45;&gt;Node17 -->
<g id="edge20" class="edge"><title>Node2&#45;&gt;Node17</title>
<path fill="none" stroke="midnightblue" d="M183.787,-212.257C194.016,-238.676 215.794,-286.057 249,-314 257.261,-320.951 267.305,-326.391 277.411,-330.611"/>
<polygon fill="midnightblue" stroke="midnightblue" points="186.977,-210.794 180.216,-202.636 180.414,-213.229 186.977,-210.794"/>
</g>
<!-- Node18 -->
<g id="node18" class="node"><title>Node18</title>
<g id="a_node18"><a xlink:href="$classAP__L1__Control.html#aaa154ba9c5957f90785c34ee554eca1c" xlink:title="AP_L1_Control::_prevent\l_indecision">
<polygon fill="white" stroke="black" points="461.5,-290 461.5,-320 587.5,-320 587.5,-290 461.5,-290"/>
<text text-anchor="start" x="469.5" y="-308" font-family="Helvetica,sans-Serif" font-size="10.00">AP_L1_Control::_prevent</text>
<text text-anchor="middle" x="524.5" y="-297" font-family="Helvetica,sans-Serif" font-size="10.00">_indecision</text>
</a>
</g>
</g>
<!-- Node2&#45;&gt;Node18 -->
<g id="edge30" class="edge"><title>Node2&#45;&gt;Node18</title>
<path fill="none" stroke="midnightblue" d="M186.454,-211.521C198.097,-232.176 219.954,-264.688 249,-280 315.249,-314.924 403.085,-316.491 461.356,-312.433"/>
<polygon fill="midnightblue" stroke="midnightblue" points="189.532,-209.855 181.703,-202.716 183.372,-213.179 189.532,-209.855"/>
</g>
<!-- Node22 -->
<g id="node22" class="node"><title>Node22</title>
<g id="a_node22"><a xlink:href="$classAP__L1__Control.html#af3e0818f4392d15406c730563d021ec5" xlink:title="AP_L1_Control::nav\l_bearing_cd">
<polygon fill="white" stroke="black" points="276.5,-241 276.5,-271 380.5,-271 380.5,-241 276.5,-241"/>
<text text-anchor="start" x="284.5" y="-259" font-family="Helvetica,sans-Serif" font-size="10.00">AP_L1_Control::nav</text>
<text text-anchor="middle" x="328.5" y="-248" font-family="Helvetica,sans-Serif" font-size="10.00">_bearing_cd</text>
</a>
</g>
</g>
<!-- Node2&#45;&gt;Node22 -->
<g id="edge26" class="edge"><title>Node2&#45;&gt;Node22</title>
<path fill="none" stroke="midnightblue" d="M206.388,-206.991C219.365,-213.033 234.855,-220.063 249,-226 261.108,-231.082 274.404,-236.298 286.558,-240.927"/>
<polygon fill="midnightblue" stroke="midnightblue" points="207.559,-203.674 197.019,-202.597 204.587,-210.012 207.559,-203.674"/>
</g>
<!-- Node24 -->
<g id="node24" class="node"><title>Node24</title>
<g id="a_node24"><a xlink:href="$classAP__L1__Control.html#aa2f2bd3cb4a12c876bd9ec115df61441" xlink:title="AP_L1_Control::target\l_bearing_cd">
<polygon fill="white" stroke="black" points="651,-203 651,-233 764,-233 764,-203 651,-203"/>
<text text-anchor="start" x="659" y="-221" font-family="Helvetica,sans-Serif" font-size="10.00">AP_L1_Control::target</text>
<text text-anchor="middle" x="707.5" y="-210" font-family="Helvetica,sans-Serif" font-size="10.00">_bearing_cd</text>
</a>
</g>
</g>
<!-- Node2&#45;&gt;Node24 -->
<g id="edge28" class="edge"><title>Node2&#45;&gt;Node24</title>
<path fill="none" stroke="midnightblue" d="M223.421,-196.399C231.927,-196.972 240.729,-197.532 249,-198 393.861,-206.195 564.69,-212.87 650.841,-216.027"/>
<polygon fill="midnightblue" stroke="midnightblue" points="223.464,-192.894 213.247,-195.699 222.984,-199.878 223.464,-192.894"/>
</g>
<!-- Node25 -->
<g id="node25" class="node"><title>Node25</title>
<g id="a_node25"><a xlink:href="$classAP__L1__Control.html#aac848632dc59271619005127e22e374d" xlink:title="AP_L1_Control::update\l_heading_hold">
<polygon fill="white" stroke="black" points="648.5,-154 648.5,-184 766.5,-184 766.5,-154 648.5,-154"/>
<text text-anchor="start" x="656.5" y="-172" font-family="Helvetica,sans-Serif" font-size="10.00">AP_L1_Control::update</text>
<text text-anchor="middle" x="707.5" y="-161" font-family="Helvetica,sans-Serif" font-size="10.00">_heading_hold</text>
</a>
</g>
</g>
<!-- Node2&#45;&gt;Node25 -->
<g id="edge31" class="edge"><title>Node2&#45;&gt;Node25</title>
<path fill="none" stroke="midnightblue" d="M223.444,-190.895C320.067,-186.515 542.52,-176.433 648.421,-171.632"/>
<polygon fill="midnightblue" stroke="midnightblue" points="223.226,-187.401 213.395,-191.35 223.543,-194.394 223.226,-187.401"/>
</g>
<!-- Node26 -->
<g id="node26" class="node"><title>Node26</title>
<g id="a_node26"><a xlink:href="$classAP__Landing__Deepstall.html#af3cde793ef57477c3468547de0a8a90f" xlink:title="AP_Landing_Deepstall\l::verify_land">
<polygon fill="white" stroke="black" points="270.5,-115 270.5,-145 386.5,-145 386.5,-115 270.5,-115"/>
<text text-anchor="start" x="278.5" y="-133" font-family="Helvetica,sans-Serif" font-size="10.00">AP_Landing_Deepstall</text>
<text text-anchor="middle" x="328.5" y="-122" font-family="Helvetica,sans-Serif" font-size="10.00">::verify_land</text>
</a>
</g>
</g>
<!-- Node2&#45;&gt;Node26 -->
<g id="edge33" class="edge"><title>Node2&#45;&gt;Node26</title>
<path fill="none" stroke="midnightblue" d="M206.388,-179.009C219.365,-172.967 234.855,-165.937 249,-160 261.108,-154.918 274.404,-149.702 286.558,-145.073"/>
<polygon fill="midnightblue" stroke="midnightblue" points="204.587,-175.988 197.019,-183.403 207.559,-182.326 204.587,-175.988"/>
</g>
<!-- Node28 -->
<g id="node28" class="node"><title>Node28</title>
<g id="a_node28"><a xlink:href="$AP__Math_8h.html#a8b6f71a42818d74fd8bfe348108942fa" xlink:title="is_negative">
<polygon fill="white" stroke="black" points="295.5,-76.5 295.5,-95.5 361.5,-95.5 361.5,-76.5 295.5,-76.5"/>
<text text-anchor="middle" x="328.5" y="-83.5" font-family="Helvetica,sans-Serif" font-size="10.00">is_negative</text>
</a>
</g>
</g>
<!-- Node2&#45;&gt;Node28 -->
<g id="edge35" class="edge"><title>Node2&#45;&gt;Node28</title>
<path fill="none" stroke="midnightblue" d="M187.184,-174.434C199.258,-154.211 221.283,-122.426 249,-105 262.889,-96.2679 280.479,-91.5488 295.487,-88.9985"/>
<polygon fill="midnightblue" stroke="midnightblue" points="184.026,-172.905 182.075,-183.319 190.094,-176.395 184.026,-172.905"/>
</g>
<!-- Node29 -->
<g id="node29" class="node"><title>Node29</title>
<g id="a_node29"><a xlink:href="$examples_2location_2location_8cpp.html#a18b394b760075c6e3788a2387b9c70a6" xlink:title="test_wrap_cd">
<polygon fill="white" stroke="black" points="291,-38.5 291,-57.5 366,-57.5 366,-38.5 291,-38.5"/>
<text text-anchor="middle" x="328.5" y="-45.5" font-family="Helvetica,sans-Serif" font-size="10.00">test_wrap_cd</text>
</a>
</g>
</g>
<!-- Node2&#45;&gt;Node29 -->
<g id="edge36" class="edge"><title>Node2&#45;&gt;Node29</title>
<path fill="none" stroke="midnightblue" d="M182.67,-173.527C191.858,-145.525 212.73,-94.2627 249,-67 260.993,-57.9852 276.675,-53.1869 290.866,-50.6553"/>
<polygon fill="midnightblue" stroke="midnightblue" points="179.246,-172.75 179.62,-183.338 185.931,-174.828 179.246,-172.75"/>
</g>
<!-- Node31 -->
<g id="node31" class="node"><title>Node31</title>
<g id="a_node31"><a xlink:href="$test__math_8cpp.html#a81c4c0a191a527f9a7d78149bc03b356" xlink:title="TEST">
<polygon fill="white" stroke="black" points="307.5,-0.5 307.5,-19.5 349.5,-19.5 349.5,-0.5 307.5,-0.5"/>
<text text-anchor="middle" x="328.5" y="-7.5" font-family="Helvetica,sans-Serif" font-size="10.00">TEST</text>
</a>
</g>
</g>
<!-- Node2&#45;&gt;Node31 -->
<g id="edge38" class="edge"><title>Node2&#45;&gt;Node31</title>
<path fill="none" stroke="midnightblue" d="M179.9,-173.249C186.067,-138.575 203.812,-66.8526 249,-29 265.339,-15.3138 289.949,-11.1817 307.249,-10.0831"/>
<polygon fill="midnightblue" stroke="midnightblue" points="176.386,-173.052 178.23,-183.485 183.295,-174.179 176.386,-173.052"/>
</g>
<!-- Node4 -->
<g id="node4" class="node"><title>Node4</title>
<g id="a_node4"><a xlink:href="$classAP__AHRS__DCM.html#a101f2aaddcc7e97e690924d4e9d7a191" xlink:title="AP_AHRS_DCM::drift\l_correction_yaw">
<polygon fill="white" stroke="black" points="467,-378 467,-408 582,-408 582,-378 467,-378"/>
<text text-anchor="start" x="475" y="-396" font-family="Helvetica,sans-Serif" font-size="10.00">AP_AHRS_DCM::drift</text>
<text text-anchor="middle" x="524.5" y="-385" font-family="Helvetica,sans-Serif" font-size="10.00">_correction_yaw</text>
</a>
</g>
</g>
<!-- Node3&#45;&gt;Node4 -->
<g id="edge3" class="edge"><title>Node3&#45;&gt;Node4</title>
<path fill="none" stroke="midnightblue" d="M418.33,-393C434.81,-393 451.606,-393 466.798,-393"/>
<polygon fill="midnightblue" stroke="midnightblue" points="418.128,-389.5 408.128,-393 418.128,-396.5 418.128,-389.5"/>
</g>
<!-- Node5 -->
<g id="node5" class="node"><title>Node5</title>
<g id="a_node5"><a xlink:href="$classAP__AHRS__DCM.html#a8c3304b59bc6a27f24c686985c100549" xlink:title="AP_AHRS_DCM::drift\l_correction">
<polygon fill="white" stroke="black" points="650,-364 650,-394 765,-394 765,-364 650,-364"/>
<text text-anchor="start" x="658" y="-382" font-family="Helvetica,sans-Serif" font-size="10.00">AP_AHRS_DCM::drift</text>
<text text-anchor="middle" x="707.5" y="-371" font-family="Helvetica,sans-Serif" font-size="10.00">_correction</text>
</a>
</g>
</g>
<!-- Node3&#45;&gt;Node5 -->
<g id="edge16" class="edge"><title>Node3&#45;&gt;Node5</title>
<path fill="none" stroke="midnightblue" d="M373.715,-381.021C394.818,-375.904 420.531,-370.532 444,-368 515.143,-360.324 533.549,-364.14 605,-368 619.602,-368.789 635.333,-370.212 649.95,-371.778"/>
<polygon fill="midnightblue" stroke="midnightblue" points="372.614,-377.688 363.755,-383.499 374.304,-384.481 372.614,-377.688"/>
</g>
<!-- Node14 -->
<g id="node14" class="node"><title>Node14</title>
<g id="a_node14"><a xlink:href="$classAP__AHRS__DCM.html#a436f1fa2ecf028ab6bcf5e344e5fddb9" xlink:title="AP_AHRS_DCM::wind_estimate">
<polygon fill="white" stroke="black" points="444,-476.5 444,-495.5 605,-495.5 605,-476.5 444,-476.5"/>
<text text-anchor="middle" x="524.5" y="-483.5" font-family="Helvetica,sans-Serif" font-size="10.00">AP_AHRS_DCM::wind_estimate</text>
</a>
</g>
</g>
<!-- Node3&#45;&gt;Node14 -->
<g id="edge17" class="edge"><title>Node3&#45;&gt;Node14</title>
<path fill="none" stroke="midnightblue" d="M349.325,-408.825C371.266,-425.594 408.267,-451.716 444,-467 452.872,-470.795 462.64,-473.914 472.202,-476.449"/>
<polygon fill="midnightblue" stroke="midnightblue" points="351.467,-406.057 341.422,-402.689 347.174,-411.587 351.467,-406.057"/>
</g>
<!-- Node16 -->
<g id="node16" class="node"><title>Node16</title>
<g id="a_node16"><a xlink:href="$classAP__AHRS__NavEKF.html#a4c1d09f4fe08c39172f7e6baab40cad2" xlink:title="AP_AHRS_NavEKF::use\l_compass">
<polygon fill="white" stroke="black" points="460.5,-427 460.5,-457 588.5,-457 588.5,-427 460.5,-427"/>
<text text-anchor="start" x="468.5" y="-445" font-family="Helvetica,sans-Serif" font-size="10.00">AP_AHRS_NavEKF::use</text>
<text text-anchor="middle" x="524.5" y="-434" font-family="Helvetica,sans-Serif" font-size="10.00">_compass</text>
</a>
</g>
</g>
<!-- Node3&#45;&gt;Node16 -->
<g id="edge19" class="edge"><title>Node3&#45;&gt;Node16</title>
<path fill="none" stroke="midnightblue" d="M377.066,-405.014C403.279,-411.635 436.066,-419.916 463.966,-426.963"/>
<polygon fill="midnightblue" stroke="midnightblue" points="377.918,-401.62 367.366,-402.564 376.204,-408.406 377.918,-401.62"/>
</g>
<!-- Node4&#45;&gt;Node5 -->
<g id="edge4" class="edge"><title>Node4&#45;&gt;Node5</title>
<path fill="none" stroke="midnightblue" d="M592.315,-387.832C611.246,-386.368 631.665,-384.788 649.929,-383.376"/>
<polygon fill="midnightblue" stroke="midnightblue" points="591.973,-384.348 582.273,-388.609 592.513,-391.327 591.973,-384.348"/>
</g>
<!-- Node6 -->
<g id="node6" class="node"><title>Node6</title>
<g id="a_node6"><a xlink:href="$classAP__AHRS__DCM.html#aa8a135d6852e94f279c0be3c8206bfdd" xlink:title="AP_AHRS_DCM::update">
<polygon fill="white" stroke="black" points="813,-369.5 813,-388.5 941,-388.5 941,-369.5 813,-369.5"/>
<text text-anchor="middle" x="877" y="-376.5" font-family="Helvetica,sans-Serif" font-size="10.00">AP_AHRS_DCM::update</text>
</a>
</g>
</g>
<!-- Node5&#45;&gt;Node6 -->
<g id="edge5" class="edge"><title>Node5&#45;&gt;Node6</title>
<path fill="none" stroke="midnightblue" d="M775.404,-379C787.713,-379 800.529,-379 812.728,-379"/>
<polygon fill="midnightblue" stroke="midnightblue" points="775.208,-375.5 765.208,-379 775.208,-382.5 775.208,-375.5"/>
</g>
<!-- Node7 -->
<g id="node7" class="node"><title>Node7</title>
<g id="a_node7"><a xlink:href="$classAP__AHRS__DCM.html#a4bbf9d7f853103c8c497b90ae726b1ac" xlink:title="AP_AHRS_DCM::get_gyro\l_drift">
<polygon fill="white" stroke="black" points="980,-408 980,-438 1116,-438 1116,-408 980,-408"/>
<text text-anchor="start" x="988" y="-426" font-family="Helvetica,sans-Serif" font-size="10.00">AP_AHRS_DCM::get_gyro</text>
<text text-anchor="middle" x="1048" y="-415" font-family="Helvetica,sans-Serif" font-size="10.00">_drift</text>
</a>
</g>
</g>
<!-- Node6&#45;&gt;Node7 -->
<g id="edge6" class="edge"><title>Node6&#45;&gt;Node7</title>
<path fill="none" stroke="midnightblue" d="M924.465,-391.097C944.453,-396.301 968.029,-402.439 989.135,-407.935"/>
<polygon fill="midnightblue" stroke="midnightblue" points="925.23,-387.68 914.67,-388.547 923.466,-394.454 925.23,-387.68"/>
</g>
<!-- Node12 -->
<g id="node12" class="node"><title>Node12</title>
<g id="a_node12"><a xlink:href="$classAP__AHRS__NavEKF.html#a7ce0035d07be995b5f45ac6c711570ce" xlink:title="AP_AHRS_NavEKF::update_DCM">
<polygon fill="white" stroke="black" points="1152,-347.5 1152,-366.5 1322,-366.5 1322,-347.5 1152,-347.5"/>
<text text-anchor="middle" x="1237" y="-354.5" font-family="Helvetica,sans-Serif" font-size="10.00">AP_AHRS_NavEKF::update_DCM</text>
</a>
</g>
</g>
<!-- Node6&#45;&gt;Node12 -->
<g id="edge13" class="edge"><title>Node6&#45;&gt;Node12</title>
<path fill="none" stroke="midnightblue" d="M951.409,-374.489C1009.65,-370.91 1091.1,-365.905 1151.94,-362.165"/>
<polygon fill="midnightblue" stroke="midnightblue" points="950.946,-371.011 941.179,-375.117 951.375,-377.997 950.946,-371.011"/>
</g>
<!-- Node13 -->
<g id="node13" class="node"><title>Node13</title>
<g id="a_node13"><a xlink:href="$ModuleTest_8cpp.html#afe461d27b9c48d5921c00d521181f12f" xlink:title="loop">
<polygon fill="white" stroke="black" points="1030.5,-331.5 1030.5,-350.5 1065.5,-350.5 1065.5,-331.5 1030.5,-331.5"/>
<text text-anchor="middle" x="1048" y="-338.5" font-family="Helvetica,sans-Serif" font-size="10.00">loop</text>
</a>
</g>
</g>
<!-- Node6&#45;&gt;Node13 -->
<g id="edge15" class="edge"><title>Node6&#45;&gt;Node13</title>
<path fill="none" stroke="midnightblue" d="M930.534,-367.188C964.826,-359.477 1007.36,-349.914 1030.35,-344.743"/>
<polygon fill="midnightblue" stroke="midnightblue" points="929.634,-363.802 920.646,-369.411 931.17,-370.632 929.634,-363.802"/>
</g>
<!-- Node8 -->
<g id="node8" class="node"><title>Node8</title>
<g id="a_node8"><a xlink:href="$classAP__AHRS__NavEKF.html#a355d8890ddfaadaa9d8f694f780afbe6" xlink:title="AP_AHRS_NavEKF::get\l_gyro_drift">
<polygon fill="white" stroke="black" points="1174,-408 1174,-438 1300,-438 1300,-408 1174,-408"/>
<text text-anchor="start" x="1182" y="-426" font-family="Helvetica,sans-Serif" font-size="10.00">AP_AHRS_NavEKF::get</text>
<text text-anchor="middle" x="1237" y="-415" font-family="Helvetica,sans-Serif" font-size="10.00">_gyro_drift</text>
</a>
</g>
</g>
<!-- Node7&#45;&gt;Node8 -->
<g id="edge7" class="edge"><title>Node7&#45;&gt;Node8</title>
<path fill="none" stroke="midnightblue" d="M1126.48,-423C1142.22,-423 1158.58,-423 1173.71,-423"/>
<polygon fill="midnightblue" stroke="midnightblue" points="1126.25,-419.5 1116.25,-423 1126.25,-426.5 1126.25,-419.5"/>
</g>
<!-- Node9 -->
<g id="node9" class="node"><title>Node9</title>
<g id="a_node9"><a xlink:href="$classAP__AHRS__NavEKF.html#ac8111979c5dc37a55b2c50818534ea52" xlink:title="AP_AHRS_NavEKF::update">
<polygon fill="white" stroke="black" points="1508,-400.5 1508,-419.5 1650,-419.5 1650,-400.5 1508,-400.5"/>
<text text-anchor="middle" x="1579" y="-407.5" font-family="Helvetica,sans-Serif" font-size="10.00">AP_AHRS_NavEKF::update</text>
</a>
</g>
</g>
<!-- Node8&#45;&gt;Node9 -->
<g id="edge8" class="edge"><title>Node8&#45;&gt;Node9</title>
<path fill="none" stroke="midnightblue" d="M1310.31,-420.77C1356.56,-419.284 1417.82,-417.204 1472,-415 1483.6,-414.528 1495.91,-413.986 1507.87,-413.436"/>
<polygon fill="midnightblue" stroke="midnightblue" points="1309.97,-417.279 1300.09,-421.097 1310.19,-424.275 1309.97,-417.279"/>
</g>
<!-- Node10 -->
<g id="node10" class="node"><title>Node10</title>
<g id="a_node10"><a xlink:href="$AHRS__Test_8cpp.html#afe461d27b9c48d5921c00d521181f12f" xlink:title="loop">
<polygon fill="white" stroke="black" points="1686,-441.5 1686,-460.5 1721,-460.5 1721,-441.5 1686,-441.5"/>
<text text-anchor="middle" x="1703.5" y="-448.5" font-family="Helvetica,sans-Serif" font-size="10.00">loop</text>
</a>
</g>
</g>
<!-- Node8&#45;&gt;Node10 -->
<g id="edge10" class="edge"><title>Node8&#45;&gt;Node10</title>
<path fill="none" stroke="midnightblue" d="M1310.44,-427.93C1326.12,-428.969 1342.61,-430.041 1358,-431 1483.87,-438.849 1635.66,-447.312 1685.65,-450.073"/>
<polygon fill="midnightblue" stroke="midnightblue" points="1310.49,-424.425 1300.28,-427.254 1310.02,-431.41 1310.49,-424.425"/>
</g>
<!-- Node11 -->
<g id="node11" class="node"><title>Node11</title>
<g id="a_node11"><a xlink:href="$classAP__Module.html#a9b4f06b2556a122f11b92b7b29d462c4" xlink:title="AP_Module::call_hook\l_AHRS_update">
<polygon fill="white" stroke="black" points="1358,-375 1358,-405 1472,-405 1472,-375 1358,-375"/>
<text text-anchor="start" x="1366" y="-393" font-family="Helvetica,sans-Serif" font-size="10.00">AP_Module::call_hook</text>
<text text-anchor="middle" x="1415" y="-382" font-family="Helvetica,sans-Serif" font-size="10.00">_AHRS_update</text>
</a>
</g>
</g>
<!-- Node8&#45;&gt;Node11 -->
<g id="edge11" class="edge"><title>Node8&#45;&gt;Node11</title>
<path fill="none" stroke="midnightblue" d="M1309.88,-409.522C1325.85,-406.528 1342.56,-403.396 1357.79,-400.539"/>
<polygon fill="midnightblue" stroke="midnightblue" points="1309.23,-406.082 1300.05,-411.365 1310.52,-412.963 1309.23,-406.082"/>
</g>
<!-- Node9&#45;&gt;Node10 -->
<g id="edge9" class="edge"><title>Node9&#45;&gt;Node10</title>
<path fill="none" stroke="midnightblue" d="M1618.13,-422.763C1640.88,-430.376 1668.61,-439.657 1685.92,-445.449"/>
<polygon fill="midnightblue" stroke="midnightblue" points="1619.01,-419.364 1608.41,-419.509 1616.78,-426.002 1619.01,-419.364"/>
</g>
<!-- Node11&#45;&gt;Node9 -->
<g id="edge12" class="edge"><title>Node11&#45;&gt;Node9</title>
<path fill="none" stroke="midnightblue" d="M1482.35,-398.191C1490.78,-399.232 1499.42,-400.299 1507.91,-401.347"/>
<polygon fill="midnightblue" stroke="midnightblue" points="1482.56,-394.691 1472.21,-396.939 1481.7,-401.638 1482.56,-394.691"/>
</g>
<!-- Node12&#45;&gt;Node9 -->
<g id="edge14" class="edge"><title>Node12&#45;&gt;Node9</title>
<path fill="none" stroke="midnightblue" d="M1332.24,-352.41C1375.31,-352.299 1426.71,-354.977 1472,-365 1504.99,-372.302 1540.62,-389.574 1561.02,-400.471"/>
<polygon fill="midnightblue" stroke="midnightblue" points="1332.02,-348.912 1322.05,-352.489 1332.08,-355.912 1332.02,-348.912"/>
</g>
<!-- Node15 -->
<g id="node15" class="node"><title>Node15</title>
<g id="a_node15"><a xlink:href="$classAP__AHRS__NavEKF.html#a26168a6f7f3da768ae76083b5edc05b0" xlink:title="AP_AHRS_NavEKF::wind\l_estimate">
<polygon fill="white" stroke="black" points="641,-471 641,-501 774,-501 774,-471 641,-471"/>
<text text-anchor="start" x="649" y="-489" font-family="Helvetica,sans-Serif" font-size="10.00">AP_AHRS_NavEKF::wind</text>
<text text-anchor="middle" x="707.5" y="-478" font-family="Helvetica,sans-Serif" font-size="10.00">_estimate</text>
</a>
</g>
</g>
<!-- Node14&#45;&gt;Node15 -->
<g id="edge18" class="edge"><title>Node14&#45;&gt;Node15</title>
<path fill="none" stroke="midnightblue" d="M615.278,-486C623.922,-486 632.575,-486 640.922,-486"/>
<polygon fill="midnightblue" stroke="midnightblue" points="615.153,-482.5 605.153,-486 615.153,-489.5 615.153,-482.5"/>
</g>
<!-- Node17&#45;&gt;Node18 -->
<g id="edge21" class="edge"><title>Node17&#45;&gt;Node18</title>
<path fill="none" stroke="midnightblue" d="M389.601,-331.918C412.393,-327.336 438.379,-322.112 461.355,-317.493"/>
<polygon fill="midnightblue" stroke="midnightblue" points="388.826,-328.504 379.712,-333.906 390.206,-335.366 388.826,-328.504"/>
</g>
<!-- Node19 -->
<g id="node19" class="node"><title>Node19</title>
<g id="a_node19"><a xlink:href="$classAP__L1__Control.html#a9052f01ea019fb51432d3104cce0b6e8" xlink:title="AP_L1_Control::update\l_waypoint">
<polygon fill="white" stroke="black" points="648.5,-301 648.5,-331 766.5,-331 766.5,-301 648.5,-301"/>
<text text-anchor="start" x="656.5" y="-319" font-family="Helvetica,sans-Serif" font-size="10.00">AP_L1_Control::update</text>
<text text-anchor="middle" x="707.5" y="-308" font-family="Helvetica,sans-Serif" font-size="10.00">_waypoint</text>
</a>
</g>
</g>
<!-- Node18&#45;&gt;Node19 -->
<g id="edge22" class="edge"><title>Node18&#45;&gt;Node19</title>
<path fill="none" stroke="midnightblue" d="M597.823,-309.395C614.557,-310.412 632.157,-311.482 648.203,-312.457"/>
<polygon fill="midnightblue" stroke="midnightblue" points="597.731,-305.883 587.537,-308.77 597.306,-312.87 597.731,-305.883"/>
</g>
<!-- Node21 -->
<g id="node21" class="node"><title>Node21</title>
<g id="a_node21"><a xlink:href="$classAP__L1__Control.html#acc0860ec530ec9c9bec50a5701bb709e" xlink:title="AP_L1_Control::update\l_loiter">
<polygon fill="white" stroke="black" points="648.5,-252 648.5,-282 766.5,-282 766.5,-252 648.5,-252"/>
<text text-anchor="start" x="656.5" y="-270" font-family="Helvetica,sans-Serif" font-size="10.00">AP_L1_Control::update</text>
<text text-anchor="middle" x="707.5" y="-259" font-family="Helvetica,sans-Serif" font-size="10.00">_loiter</text>
</a>
</g>
</g>
<!-- Node18&#45;&gt;Node21 -->
<g id="edge24" class="edge"><title>Node18&#45;&gt;Node21</title>
<path fill="none" stroke="midnightblue" d="M597.35,-289.916C614.225,-286.373 632.005,-282.64 648.203,-279.239"/>
<polygon fill="midnightblue" stroke="midnightblue" points="596.604,-286.496 587.537,-291.976 598.043,-293.346 596.604,-286.496"/>
</g>
<!-- Node20 -->
<g id="node20" class="node"><title>Node20</title>
<g id="a_node20"><a xlink:href="$classAP__L1__Control.html#ae79ea97f3deaed8c09b32abe9f465c94" xlink:title="AP_L1_Control::crosstrack\l_error_integrator">
<polygon fill="white" stroke="black" points="810,-227 810,-257 944,-257 944,-227 810,-227"/>
<text text-anchor="start" x="818" y="-245" font-family="Helvetica,sans-Serif" font-size="10.00">AP_L1_Control::crosstrack</text>
<text text-anchor="middle" x="877" y="-234" font-family="Helvetica,sans-Serif" font-size="10.00">_error_integrator</text>
</a>
</g>
</g>
<!-- Node19&#45;&gt;Node20 -->
<g id="edge23" class="edge"><title>Node19&#45;&gt;Node20</title>
<path fill="none" stroke="midnightblue" d="M759.213,-297.126C764.232,-295.114 769.231,-293.052 774,-291 798.724,-280.365 826.198,-267.079 846.397,-257.026"/>
<polygon fill="midnightblue" stroke="midnightblue" points="757.612,-293.995 749.591,-300.917 760.178,-300.507 757.612,-293.995"/>
</g>
<!-- Node21&#45;&gt;Node20 -->
<g id="edge25" class="edge"><title>Node21&#45;&gt;Node20</title>
<path fill="none" stroke="midnightblue" d="M776.597,-256.836C787.608,-255.193 798.993,-253.494 809.954,-251.858"/>
<polygon fill="midnightblue" stroke="midnightblue" points="775.987,-253.388 766.613,-258.326 777.02,-260.312 775.987,-253.388"/>
</g>
<!-- Node23 -->
<g id="node23" class="node"><title>Node23</title>
<g id="a_node23"><a xlink:href="$classAP__L1__Control.html#a388f3d9e1ed09a5bd2444d4032d66239" xlink:title="AP_L1_Control::AP_L1\l_Control">
<polygon fill="white" stroke="black" points="465.5,-241 465.5,-271 583.5,-271 583.5,-241 465.5,-241"/>
<text text-anchor="start" x="473.5" y="-259" font-family="Helvetica,sans-Serif" font-size="10.00">AP_L1_Control::AP_L1</text>
<text text-anchor="middle" x="524.5" y="-248" font-family="Helvetica,sans-Serif" font-size="10.00">_Control</text>
</a>
</g>
</g>
<!-- Node22&#45;&gt;Node23 -->
<g id="edge27" class="edge"><title>Node22&#45;&gt;Node23</title>
<path fill="none" stroke="midnightblue" d="M390.739,-256C414.633,-256 441.894,-256 465.47,-256"/>
<polygon fill="midnightblue" stroke="midnightblue" points="390.725,-252.5 380.725,-256 390.725,-259.5 390.725,-252.5"/>
</g>
<!-- Node24&#45;&gt;Node20 -->
<g id="edge29" class="edge"><title>Node24&#45;&gt;Node20</title>
<path fill="none" stroke="midnightblue" d="M774.344,-227.434C785.971,-229.1 798.08,-230.835 809.719,-232.503"/>
<polygon fill="midnightblue" stroke="midnightblue" points="774.67,-223.945 764.275,-225.992 773.678,-230.875 774.67,-223.945"/>
</g>
<!-- Node25&#45;&gt;Node20 -->
<g id="edge32" class="edge"><title>Node25&#45;&gt;Node20</title>
<path fill="none" stroke="midnightblue" d="M761.024,-187.734C765.434,-189.462 769.807,-191.23 774,-193 798.795,-203.469 826.264,-216.766 846.443,-226.866"/>
<polygon fill="midnightblue" stroke="midnightblue" points="761.956,-184.343 751.366,-184.03 759.449,-190.879 761.956,-184.343"/>
</g>
<!-- Node27 -->
<g id="node27" class="node"><title>Node27</title>
<g id="a_node27"><a xlink:href="$classAP__Landing.html#afdbc34de818b9cb366336c23660fd495" xlink:title="AP_Landing::verify_land">
<polygon fill="white" stroke="black" points="463.5,-120.5 463.5,-139.5 585.5,-139.5 585.5,-120.5 463.5,-120.5"/>
<text text-anchor="middle" x="524.5" y="-127.5" font-family="Helvetica,sans-Serif" font-size="10.00">AP_Landing::verify_land</text>
</a>
</g>
</g>
<!-- Node26&#45;&gt;Node27 -->
<g id="edge34" class="edge"><title>Node26&#45;&gt;Node27</title>
<path fill="none" stroke="midnightblue" d="M396.763,-130C418.421,-130 442.269,-130 463.38,-130"/>
<polygon fill="midnightblue" stroke="midnightblue" points="396.657,-126.5 386.657,-130 396.657,-133.5 396.657,-126.5"/>
</g>
<!-- Node30 -->
<g id="node30" class="node"><title>Node30</title>
<g id="a_node30"><a xlink:href="$examples_2location_2location_8cpp.html#a4fc01d736fe50cf5b977f755b675f11d" xlink:title="setup">
<polygon fill="white" stroke="black" points="504,-38.5 504,-57.5 545,-57.5 545,-38.5 504,-38.5"/>
<text text-anchor="middle" x="524.5" y="-45.5" font-family="Helvetica,sans-Serif" font-size="10.00">setup</text>
</a>
</g>
</g>
<!-- Node29&#45;&gt;Node30 -->
<g id="edge37" class="edge"><title>Node29&#45;&gt;Node30</title>
<path fill="none" stroke="midnightblue" d="M376.694,-48C417.446,-48 474.293,-48 503.867,-48"/>
<polygon fill="midnightblue" stroke="midnightblue" points="376.447,-44.5001 366.447,-48 376.447,-51.5001 376.447,-44.5001"/>
</g>
</g>
</svg>
