<?xml version="1.0" encoding="UTF-8" standalone="no"?>
<!DOCTYPE svg PUBLIC "-//W3C//DTD SVG 1.1//EN"
 "http://www.w3.org/Graphics/SVG/1.1/DTD/svg11.dtd">
<!-- Generated by graphviz version 2.38.0 (20140413.2041)
 -->
<!-- Title: libraries/AP_ADC/AP_ADC.h Pages: 1 -->
<svg width="2251pt" height="184pt"
 viewBox="0.00 0.00 2250.50 184.00" xmlns="http://www.w3.org/2000/svg" xmlns:xlink="http://www.w3.org/1999/xlink">
<g id="graph0" class="graph" transform="scale(1 1) rotate(0) translate(4 180)">
<title>libraries/AP_ADC/AP_ADC.h</title>
<polygon fill="white" stroke="none" points="-4,4 -4,-180 2246.5,-180 2246.5,4 -4,4"/>
<!-- Node1 -->
<g id="node1" class="node"><title>Node1</title>
<polygon fill="#bfbfbf" stroke="black" points="989,-145.5 989,-175.5 1099,-175.5 1099,-145.5 989,-145.5"/>
<text text-anchor="start" x="997" y="-163.5" font-family="Helvetica,sans-Serif" font-size="10.00">libraries/AP_ADC/AP</text>
<text text-anchor="middle" x="1044" y="-152.5" font-family="Helvetica,sans-Serif" font-size="10.00">_ADC.h</text>
</g>
<!-- Node2 -->
<g id="node2" class="node"><title>Node2</title>
<g id="a_node2"><a xlink:href="$AP__ADC_8cpp.html" xlink:title="libraries/AP_ADC/AP\l_ADC.cpp">
<polygon fill="white" stroke="black" points="0,-73 0,-103 110,-103 110,-73 0,-73"/>
<text text-anchor="start" x="8" y="-91" font-family="Helvetica,sans-Serif" font-size="10.00">libraries/AP_ADC/AP</text>
<text text-anchor="middle" x="55" y="-80" font-family="Helvetica,sans-Serif" font-size="10.00">_ADC.cpp</text>
</a>
</g>
</g>
<!-- Node1&#45;&gt;Node2 -->
<g id="edge1" class="edge"><title>Node1&#45;&gt;Node2</title>
<path fill="none" stroke="midnightblue" d="M978.49,-158.036C795.984,-153.621 284.346,-138.868 119,-109 110.981,-107.551 102.562,-105.4 94.562,-103.038"/>
<polygon fill="midnightblue" stroke="midnightblue" points="978.66,-161.541 988.741,-158.281 978.828,-154.543 978.66,-161.541"/>
</g>
<!-- Node3 -->
<g id="node3" class="node"><title>Node3</title>
<g id="a_node3"><a xlink:href="$AP__ADC__ADS1115_8h.html" xlink:title="libraries/AP_ADC/AP\l_ADC_ADS1115.h">
<polygon fill="white" stroke="black" points="128,-73 128,-103 238,-103 238,-73 128,-73"/>
<text text-anchor="start" x="136" y="-91" font-family="Helvetica,sans-Serif" font-size="10.00">libraries/AP_ADC/AP</text>
<text text-anchor="middle" x="183" y="-80" font-family="Helvetica,sans-Serif" font-size="10.00">_ADC_ADS1115.h</text>
</a>
</g>
</g>
<!-- Node1&#45;&gt;Node3 -->
<g id="edge2" class="edge"><title>Node1&#45;&gt;Node3</title>
<path fill="none" stroke="midnightblue" d="M978.943,-157.532C813.281,-152.026 379.127,-135.13 238,-109 230.102,-107.538 221.812,-105.411 214.091,-103.084"/>
<polygon fill="midnightblue" stroke="midnightblue" points="978.88,-161.032 988.99,-157.863 979.111,-154.036 978.88,-161.032"/>
</g>
<!-- Node5 -->
<g id="node5" class="node"><title>Node5</title>
<g id="a_node5"><a xlink:href="$AHRS__Test_8cpp.html" xlink:title="libraries/AP_AHRS/examples\l/AHRS_Test/AHRS_Test.cpp">
<polygon fill="white" stroke="black" points="256,-73 256,-103 404,-103 404,-73 256,-73"/>
<text text-anchor="start" x="264" y="-91" font-family="Helvetica,sans-Serif" font-size="10.00">libraries/AP_AHRS/examples</text>
<text text-anchor="middle" x="330" y="-80" font-family="Helvetica,sans-Serif" font-size="10.00">/AHRS_Test/AHRS_Test.cpp</text>
</a>
</g>
</g>
<!-- Node1&#45;&gt;Node5 -->
<g id="edge5" class="edge"><title>Node1&#45;&gt;Node5</title>
<path fill="none" stroke="midnightblue" d="M978.747,-157.643C863.782,-153.624 617.901,-141.68 413,-109 403.193,-107.436 392.834,-105.321 382.884,-103.05"/>
<polygon fill="midnightblue" stroke="midnightblue" points="978.681,-161.143 988.794,-157.986 978.919,-154.147 978.681,-161.143"/>
</g>
<!-- Node6 -->
<g id="node6" class="node"><title>Node6</title>
<g id="a_node6"><a xlink:href="$AP__Airspeed_8cpp.html" xlink:title="libraries/AP_Airspeed\l/AP_Airspeed.cpp">
<polygon fill="white" stroke="black" points="422,-73 422,-103 532,-103 532,-73 422,-73"/>
<text text-anchor="start" x="430" y="-91" font-family="Helvetica,sans-Serif" font-size="10.00">libraries/AP_Airspeed</text>
<text text-anchor="middle" x="477" y="-80" font-family="Helvetica,sans-Serif" font-size="10.00">/AP_Airspeed.cpp</text>
</a>
</g>
</g>
<!-- Node1&#45;&gt;Node6 -->
<g id="edge6" class="edge"><title>Node1&#45;&gt;Node6</title>
<path fill="none" stroke="midnightblue" d="M978.549,-157.163C881.959,-152.762 695.941,-140.646 541,-109 533.358,-107.439 525.333,-105.325 517.648,-103.055"/>
<polygon fill="midnightblue" stroke="midnightblue" points="978.6,-160.668 988.745,-157.613 978.91,-153.675 978.6,-160.668"/>
</g>
<!-- Node7 -->
<g id="node7" class="node"><title>Node7</title>
<g id="a_node7"><a xlink:href="$Airspeed_8cpp.html" xlink:title="libraries/AP_Airspeed\l/examples/Airspeed/Airspeed.cpp">
<polygon fill="white" stroke="black" points="550.5,-73 550.5,-103 713.5,-103 713.5,-73 550.5,-73"/>
<text text-anchor="start" x="558.5" y="-91" font-family="Helvetica,sans-Serif" font-size="10.00">libraries/AP_Airspeed</text>
<text text-anchor="middle" x="632" y="-80" font-family="Helvetica,sans-Serif" font-size="10.00">/examples/Airspeed/Airspeed.cpp</text>
</a>
</g>
</g>
<!-- Node1&#45;&gt;Node7 -->
<g id="edge7" class="edge"><title>Node1&#45;&gt;Node7</title>
<path fill="none" stroke="midnightblue" d="M978.626,-150.394C913.621,-141.063 811.146,-125.604 723,-109 713.462,-107.203 703.397,-105.15 693.574,-103.06"/>
<polygon fill="midnightblue" stroke="midnightblue" points="978.335,-153.888 988.729,-151.839 979.325,-146.959 978.335,-153.888"/>
</g>
<!-- Node8 -->
<g id="node8" class="node"><title>Node8</title>
<g id="a_node8"><a xlink:href="$AP__BattMonitor__Analog_8h.html" xlink:title="libraries/AP_BattMonitor\l/AP_BattMonitor_Analog.h">
<polygon fill="white" stroke="black" points="732,-73 732,-103 864,-103 864,-73 732,-73"/>
<text text-anchor="start" x="740" y="-91" font-family="Helvetica,sans-Serif" font-size="10.00">libraries/AP_BattMonitor</text>
<text text-anchor="middle" x="798" y="-80" font-family="Helvetica,sans-Serif" font-size="10.00">/AP_BattMonitor_Analog.h</text>
</a>
</g>
</g>
<!-- Node1&#45;&gt;Node8 -->
<g id="edge8" class="edge"><title>Node1&#45;&gt;Node8</title>
<path fill="none" stroke="midnightblue" d="M985.257,-142.665C943.125,-130.591 887.008,-114.508 847.224,-103.107"/>
<polygon fill="midnightblue" stroke="midnightblue" points="984.527,-146.097 995.104,-145.487 986.455,-139.368 984.527,-146.097"/>
</g>
<!-- Node11 -->
<g id="node11" class="node"><title>Node11</title>
<g id="a_node11"><a xlink:href="$GPS__AUTO__test_8cpp.html" xlink:title="libraries/AP_GPS/examples\l/GPS_AUTO_test/GPS_AUTO\l_test.cpp">
<polygon fill="white" stroke="black" points="882,-67.5 882,-108.5 1034,-108.5 1034,-67.5 882,-67.5"/>
<text text-anchor="start" x="890" y="-96.5" font-family="Helvetica,sans-Serif" font-size="10.00">libraries/AP_GPS/examples</text>
<text text-anchor="start" x="890" y="-85.5" font-family="Helvetica,sans-Serif" font-size="10.00">/GPS_AUTO_test/GPS_AUTO</text>
<text text-anchor="middle" x="958" y="-74.5" font-family="Helvetica,sans-Serif" font-size="10.00">_test.cpp</text>
</a>
</g>
</g>
<!-- Node1&#45;&gt;Node11 -->
<g id="edge11" class="edge"><title>Node1&#45;&gt;Node11</title>
<path fill="none" stroke="midnightblue" d="M1018.57,-138.657C1006.97,-129.145 993.307,-117.943 981.895,-108.588"/>
<polygon fill="midnightblue" stroke="midnightblue" points="1016.64,-141.6 1026.6,-145.233 1021.08,-136.187 1016.64,-141.6"/>
</g>
<!-- Node12 -->
<g id="node12" class="node"><title>Node12</title>
<g id="a_node12"><a xlink:href="$GPS__UBLOX__passthrough_8cpp.html" xlink:title="libraries/AP_GPS/examples\l/GPS_UBLOX_passthrough\l/GPS_UBLOX_passthrough.cpp">
<polygon fill="white" stroke="black" points="1052.5,-67.5 1052.5,-108.5 1209.5,-108.5 1209.5,-67.5 1052.5,-67.5"/>
<text text-anchor="start" x="1060.5" y="-96.5" font-family="Helvetica,sans-Serif" font-size="10.00">libraries/AP_GPS/examples</text>
<text text-anchor="start" x="1060.5" y="-85.5" font-family="Helvetica,sans-Serif" font-size="10.00">/GPS_UBLOX_passthrough</text>
<text text-anchor="middle" x="1131" y="-74.5" font-family="Helvetica,sans-Serif" font-size="10.00">/GPS_UBLOX_passthrough.cpp</text>
</a>
</g>
</g>
<!-- Node1&#45;&gt;Node12 -->
<g id="edge12" class="edge"><title>Node1&#45;&gt;Node12</title>
<path fill="none" stroke="midnightblue" d="M1069.38,-138.933C1081.19,-129.363 1095.17,-118.034 1106.83,-108.588"/>
<polygon fill="midnightblue" stroke="midnightblue" points="1067.17,-136.218 1061.61,-145.233 1071.58,-141.657 1067.17,-136.218"/>
</g>
<!-- Node13 -->
<g id="node13" class="node"><title>Node13</title>
<g id="a_node13"><a xlink:href="$AnalogIn__ADS1115_8h.html" xlink:title="libraries/AP_HAL_Linux\l/AnalogIn_ADS1115.h">
<polygon fill="white" stroke="black" points="1228,-73 1228,-103 1348,-103 1348,-73 1228,-73"/>
<text text-anchor="start" x="1236" y="-91" font-family="Helvetica,sans-Serif" font-size="10.00">libraries/AP_HAL_Linux</text>
<text text-anchor="middle" x="1288" y="-80" font-family="Helvetica,sans-Serif" font-size="10.00">/AnalogIn_ADS1115.h</text>
</a>
</g>
</g>
<!-- Node1&#45;&gt;Node13 -->
<g id="edge13" class="edge"><title>Node1&#45;&gt;Node13</title>
<path fill="none" stroke="midnightblue" d="M1102.27,-142.665C1144.05,-130.591 1199.72,-114.508 1239.18,-103.107"/>
<polygon fill="midnightblue" stroke="midnightblue" points="1101.13,-139.349 1092.5,-145.487 1103.08,-146.074 1101.13,-139.349"/>
</g>
<!-- Node16 -->
<g id="node16" class="node"><title>Node16</title>
<g id="a_node16"><a xlink:href="$AnalogIn__IIO_8h.html" xlink:title="libraries/AP_HAL_Linux\l/AnalogIn_IIO.h">
<polygon fill="white" stroke="black" points="1366,-73 1366,-103 1486,-103 1486,-73 1366,-73"/>
<text text-anchor="start" x="1374" y="-91" font-family="Helvetica,sans-Serif" font-size="10.00">libraries/AP_HAL_Linux</text>
<text text-anchor="middle" x="1426" y="-80" font-family="Helvetica,sans-Serif" font-size="10.00">/AnalogIn_IIO.h</text>
</a>
</g>
</g>
<!-- Node1&#45;&gt;Node16 -->
<g id="edge16" class="edge"><title>Node1&#45;&gt;Node16</title>
<path fill="none" stroke="midnightblue" d="M1109.52,-151.302C1173.16,-142.783 1272.3,-128.034 1357,-109 1364.67,-107.277 1372.74,-105.191 1380.55,-103.025"/>
<polygon fill="midnightblue" stroke="midnightblue" points="1108.69,-147.882 1099.23,-152.666 1109.61,-154.821 1108.69,-147.882"/>
</g>
<!-- Node18 -->
<g id="node18" class="node"><title>Node18</title>
<g id="a_node18"><a xlink:href="$AnalogIn__Raspilot_8h.html" xlink:title="libraries/AP_HAL_Linux\l/AnalogIn_Raspilot.h">
<polygon fill="white" stroke="black" points="1504,-73 1504,-103 1624,-103 1624,-73 1504,-73"/>
<text text-anchor="start" x="1512" y="-91" font-family="Helvetica,sans-Serif" font-size="10.00">libraries/AP_HAL_Linux</text>
<text text-anchor="middle" x="1564" y="-80" font-family="Helvetica,sans-Serif" font-size="10.00">/AnalogIn_Raspilot.h</text>
</a>
</g>
</g>
<!-- Node1&#45;&gt;Node18 -->
<g id="edge19" class="edge"><title>Node1&#45;&gt;Node18</title>
<path fill="none" stroke="midnightblue" d="M1109.44,-155.686C1197.67,-149.746 1359.36,-136.047 1495,-109 1503.07,-107.39 1511.57,-105.281 1519.73,-103.037"/>
<polygon fill="midnightblue" stroke="midnightblue" points="1109.06,-152.203 1099.31,-156.355 1109.52,-159.188 1109.06,-152.203"/>
</g>
<!-- Node20 -->
<g id="node20" class="node"><title>Node20</title>
<g id="a_node20"><a xlink:href="$VibTest_8cpp.html" xlink:title="libraries/AP_InertialSensor\l/examples/VibTest/VibTest.cpp">
<polygon fill="white" stroke="black" points="1642,-73 1642,-103 1796,-103 1796,-73 1642,-73"/>
<text text-anchor="start" x="1650" y="-91" font-family="Helvetica,sans-Serif" font-size="10.00">libraries/AP_InertialSensor</text>
<text text-anchor="middle" x="1719" y="-80" font-family="Helvetica,sans-Serif" font-size="10.00">/examples/VibTest/VibTest.cpp</text>
</a>
</g>
</g>
<!-- Node1&#45;&gt;Node20 -->
<g id="edge22" class="edge"><title>Node1&#45;&gt;Node20</title>
<path fill="none" stroke="midnightblue" d="M1109.31,-156.952C1218.37,-152.017 1444.21,-138.889 1633,-109 1642.99,-107.418 1653.55,-105.322 1663.71,-103.083"/>
<polygon fill="midnightblue" stroke="midnightblue" points="1108.96,-153.464 1099.13,-157.405 1109.27,-160.457 1108.96,-153.464"/>
</g>
<!-- Node21 -->
<g id="node21" class="node"><title>Node21</title>
<g id="a_node21"><a xlink:href="$ModuleTest_8cpp.html" xlink:title="libraries/AP_Module\l/examples/ModuleTest\l/ModuleTest.cpp">
<polygon fill="white" stroke="black" points="1814,-67.5 1814,-108.5 1930,-108.5 1930,-67.5 1814,-67.5"/>
<text text-anchor="start" x="1822" y="-96.5" font-family="Helvetica,sans-Serif" font-size="10.00">libraries/AP_Module</text>
<text text-anchor="start" x="1822" y="-85.5" font-family="Helvetica,sans-Serif" font-size="10.00">/examples/ModuleTest</text>
<text text-anchor="middle" x="1872" y="-74.5" font-family="Helvetica,sans-Serif" font-size="10.00">/ModuleTest.cpp</text>
</a>
</g>
</g>
<!-- Node1&#45;&gt;Node21 -->
<g id="edge23" class="edge"><title>Node1&#45;&gt;Node21</title>
<path fill="none" stroke="midnightblue" d="M1109.81,-160.059C1242.45,-160.107 1550.93,-154.754 1805,-109 1807.87,-108.484 1810.79,-107.888 1813.72,-107.233"/>
<polygon fill="midnightblue" stroke="midnightblue" points="1109.43,-156.559 1099.43,-160.044 1109.42,-163.559 1109.43,-156.559"/>
</g>
<!-- Node22 -->
<g id="node22" class="node"><title>Node22</title>
<g id="a_node22"><a xlink:href="$AP__Motors__test_8cpp.html" xlink:title="libraries/AP_Motors\l/examples/AP_Motors\l_test/AP_Motors_test.cpp">
<polygon fill="white" stroke="black" points="1948.5,-67.5 1948.5,-108.5 2079.5,-108.5 2079.5,-67.5 1948.5,-67.5"/>
<text text-anchor="start" x="1956.5" y="-96.5" font-family="Helvetica,sans-Serif" font-size="10.00">libraries/AP_Motors</text>
<text text-anchor="start" x="1956.5" y="-85.5" font-family="Helvetica,sans-Serif" font-size="10.00">/examples/AP_Motors</text>
<text text-anchor="middle" x="2014" y="-74.5" font-family="Helvetica,sans-Serif" font-size="10.00">_test/AP_Motors_test.cpp</text>
</a>
</g>
</g>
<!-- Node1&#45;&gt;Node22 -->
<g id="edge24" class="edge"><title>Node1&#45;&gt;Node22</title>
<path fill="none" stroke="midnightblue" d="M1109.46,-160.359C1257.99,-161.316 1631.53,-158.141 1939,-109 1942.06,-108.511 1945.18,-107.948 1948.31,-107.329"/>
<polygon fill="midnightblue" stroke="midnightblue" points="1109.18,-156.856 1099.16,-160.283 1109.13,-163.856 1109.18,-156.856"/>
</g>
<!-- Node23 -->
<g id="node23" class="node"><title>Node23</title>
<g id="a_node23"><a xlink:href="$trivial__AP__Mount_8cpp.html" xlink:title="libraries/AP_Mount\l/examples/trivial_AP\l_Mount/trivial_AP_Mount.cpp">
<polygon fill="white" stroke="black" points="2097.5,-67.5 2097.5,-108.5 2242.5,-108.5 2242.5,-67.5 2097.5,-67.5"/>
<text text-anchor="start" x="2105.5" y="-96.5" font-family="Helvetica,sans-Serif" font-size="10.00">libraries/AP_Mount</text>
<text text-anchor="start" x="2105.5" y="-85.5" font-family="Helvetica,sans-Serif" font-size="10.00">/examples/trivial_AP</text>
<text text-anchor="middle" x="2170" y="-74.5" font-family="Helvetica,sans-Serif" font-size="10.00">_Mount/trivial_AP_Mount.cpp</text>
</a>
</g>
</g>
<!-- Node1&#45;&gt;Node23 -->
<g id="edge25" class="edge"><title>Node1&#45;&gt;Node23</title>
<path fill="none" stroke="midnightblue" d="M1109.58,-157.995C1307.78,-153.182 1898.64,-136.832 2089,-109 2091.72,-108.602 2094.49,-108.153 2097.27,-107.662"/>
<polygon fill="midnightblue" stroke="midnightblue" points="1109.23,-154.502 1099.32,-158.242 1109.4,-161.5 1109.23,-154.502"/>
</g>
<!-- Node3&#45;&gt;Node1 -->
<g id="edge3" class="edge"><title>Node3&#45;&gt;Node1</title>
<path fill="none" stroke="midnightblue" d="M241.645,-105.789C246.483,-107.029 251.311,-108.132 256,-109 397.526,-135.204 833.736,-152.121 988.738,-157.579"/>
<polygon fill="midnightblue" stroke="midnightblue" points="242.308,-102.342 231.739,-103.084 240.463,-109.095 242.308,-102.342"/>
</g>
<!-- Node4 -->
<g id="node4" class="node"><title>Node4</title>
<g id="a_node4"><a xlink:href="$AP__ADC__ADS1115_8cpp.html" xlink:title="libraries/AP_ADC/AP\l_ADC_ADS1115.cpp">
<polygon fill="white" stroke="black" points="128,-0.5 128,-30.5 238,-30.5 238,-0.5 128,-0.5"/>
<text text-anchor="start" x="136" y="-18.5" font-family="Helvetica,sans-Serif" font-size="10.00">libraries/AP_ADC/AP</text>
<text text-anchor="middle" x="183" y="-7.5" font-family="Helvetica,sans-Serif" font-size="10.00">_ADC_ADS1115.cpp</text>
</a>
</g>
</g>
<!-- Node3&#45;&gt;Node4 -->
<g id="edge4" class="edge"><title>Node3&#45;&gt;Node4</title>
<path fill="none" stroke="midnightblue" d="M183,-62.7317C183,-52.0679 183,-39.9145 183,-30.7455"/>
<polygon fill="midnightblue" stroke="midnightblue" points="179.5,-62.7332 183,-72.7333 186.5,-62.7333 179.5,-62.7332"/>
</g>
<!-- Node9 -->
<g id="node9" class="node"><title>Node9</title>
<g id="a_node9"><a xlink:href="$AP__BattMonitor_8cpp.html" xlink:title="libraries/AP_BattMonitor\l/AP_BattMonitor.cpp">
<polygon fill="white" stroke="black" points="812,-0.5 812,-30.5 934,-30.5 934,-0.5 812,-0.5"/>
<text text-anchor="start" x="820" y="-18.5" font-family="Helvetica,sans-Serif" font-size="10.00">libraries/AP_BattMonitor</text>
<text text-anchor="middle" x="873" y="-7.5" font-family="Helvetica,sans-Serif" font-size="10.00">/AP_BattMonitor.cpp</text>
</a>
</g>
</g>
<!-- Node8&#45;&gt;Node9 -->
<g id="edge9" class="edge"><title>Node8&#45;&gt;Node9</title>
<path fill="none" stroke="midnightblue" d="M820.724,-65.639C832.848,-54.2429 847.424,-40.5414 858.101,-30.5049"/>
<polygon fill="midnightblue" stroke="midnightblue" points="818.066,-63.3339 813.177,-72.7333 822.861,-68.4343 818.066,-63.3339"/>
</g>
<!-- Node10 -->
<g id="node10" class="node"><title>Node10</title>
<g id="a_node10"><a xlink:href="$AP__BattMonitor__Analog_8cpp.html" xlink:title="libraries/AP_BattMonitor\l/AP_BattMonitor_Analog.cpp">
<polygon fill="white" stroke="black" points="650.5,-0.5 650.5,-30.5 793.5,-30.5 793.5,-0.5 650.5,-0.5"/>
<text text-anchor="start" x="658.5" y="-18.5" font-family="Helvetica,sans-Serif" font-size="10.00">libraries/AP_BattMonitor</text>
<text text-anchor="middle" x="722" y="-7.5" font-family="Helvetica,sans-Serif" font-size="10.00">/AP_BattMonitor_Analog.cpp</text>
</a>
</g>
</g>
<!-- Node8&#45;&gt;Node10 -->
<g id="edge10" class="edge"><title>Node8&#45;&gt;Node10</title>
<path fill="none" stroke="midnightblue" d="M774.973,-65.639C762.687,-54.2429 747.917,-40.5414 737.097,-30.5049"/>
<polygon fill="midnightblue" stroke="midnightblue" points="772.909,-68.4984 782.62,-72.7333 777.669,-63.3664 772.909,-68.4984"/>
</g>
<!-- Node14 -->
<g id="node14" class="node"><title>Node14</title>
<g id="a_node14"><a xlink:href="$AnalogIn__ADS1115_8cpp.html" xlink:title="libraries/AP_HAL_Linux\l/AnalogIn_ADS1115.cpp">
<polygon fill="white" stroke="black" points="1155,-0.5 1155,-30.5 1279,-30.5 1279,-0.5 1155,-0.5"/>
<text text-anchor="start" x="1163" y="-18.5" font-family="Helvetica,sans-Serif" font-size="10.00">libraries/AP_HAL_Linux</text>
<text text-anchor="middle" x="1217" y="-7.5" font-family="Helvetica,sans-Serif" font-size="10.00">/AnalogIn_ADS1115.cpp</text>
</a>
</g>
</g>
<!-- Node13&#45;&gt;Node14 -->
<g id="edge14" class="edge"><title>Node13&#45;&gt;Node14</title>
<path fill="none" stroke="midnightblue" d="M1266.21,-65.3641C1254.88,-54.1142 1241.35,-40.6786 1231.35,-30.7455"/>
<polygon fill="midnightblue" stroke="midnightblue" points="1264.07,-68.1708 1273.63,-72.7333 1269,-63.2036 1264.07,-68.1708"/>
</g>
<!-- Node15 -->
<g id="node15" class="node"><title>Node15</title>
<g id="a_node15"><a xlink:href="$HAL__Linux__Class_8cpp.html" xlink:title="libraries/AP_HAL_Linux\l/HAL_Linux_Class.cpp">
<polygon fill="white" stroke="black" points="1435,-0.5 1435,-30.5 1555,-30.5 1555,-0.5 1435,-0.5"/>
<text text-anchor="start" x="1443" y="-18.5" font-family="Helvetica,sans-Serif" font-size="10.00">libraries/AP_HAL_Linux</text>
<text text-anchor="middle" x="1495" y="-7.5" font-family="Helvetica,sans-Serif" font-size="10.00">/HAL_Linux_Class.cpp</text>
</a>
</g>
</g>
<!-- Node13&#45;&gt;Node15 -->
<g id="edge15" class="edge"><title>Node13&#45;&gt;Node15</title>
<path fill="none" stroke="midnightblue" d="M1339.03,-69.6188C1374.33,-57.5971 1420.7,-41.8056 1453.68,-30.5729"/>
<polygon fill="midnightblue" stroke="midnightblue" points="1337.73,-66.3656 1329.39,-72.9027 1339.99,-72.9918 1337.73,-66.3656"/>
</g>
<!-- Node16&#45;&gt;Node15 -->
<g id="edge18" class="edge"><title>Node16&#45;&gt;Node15</title>
<path fill="none" stroke="midnightblue" d="M1447.18,-65.3641C1458.19,-54.1142 1471.34,-40.6786 1481.06,-30.7455"/>
<polygon fill="midnightblue" stroke="midnightblue" points="1444.46,-63.1384 1439.96,-72.7333 1449.46,-68.0347 1444.46,-63.1384"/>
</g>
<!-- Node17 -->
<g id="node17" class="node"><title>Node17</title>
<g id="a_node17"><a xlink:href="$AnalogIn__IIO_8cpp.html" xlink:title="libraries/AP_HAL_Linux\l/AnalogIn_IIO.cpp">
<polygon fill="white" stroke="black" points="1297,-0.5 1297,-30.5 1417,-30.5 1417,-0.5 1297,-0.5"/>
<text text-anchor="start" x="1305" y="-18.5" font-family="Helvetica,sans-Serif" font-size="10.00">libraries/AP_HAL_Linux</text>
<text text-anchor="middle" x="1357" y="-7.5" font-family="Helvetica,sans-Serif" font-size="10.00">/AnalogIn_IIO.cpp</text>
</a>
</g>
</g>
<!-- Node16&#45;&gt;Node17 -->
<g id="edge17" class="edge"><title>Node16&#45;&gt;Node17</title>
<path fill="none" stroke="midnightblue" d="M1404.82,-65.3641C1393.81,-54.1142 1380.66,-40.6786 1370.94,-30.7455"/>
<polygon fill="midnightblue" stroke="midnightblue" points="1402.54,-68.0347 1412.04,-72.7333 1407.54,-63.1384 1402.54,-68.0347"/>
</g>
<!-- Node18&#45;&gt;Node15 -->
<g id="edge21" class="edge"><title>Node18&#45;&gt;Node15</title>
<path fill="none" stroke="midnightblue" d="M1542.82,-65.3641C1531.81,-54.1142 1518.66,-40.6786 1508.94,-30.7455"/>
<polygon fill="midnightblue" stroke="midnightblue" points="1540.54,-68.0347 1550.04,-72.7333 1545.54,-63.1384 1540.54,-68.0347"/>
</g>
<!-- Node19 -->
<g id="node19" class="node"><title>Node19</title>
<g id="a_node19"><a xlink:href="$AnalogIn__Raspilot_8cpp.html" xlink:title="libraries/AP_HAL_Linux\l/AnalogIn_Raspilot.cpp">
<polygon fill="white" stroke="black" points="1573,-0.5 1573,-30.5 1693,-30.5 1693,-0.5 1573,-0.5"/>
<text text-anchor="start" x="1581" y="-18.5" font-family="Helvetica,sans-Serif" font-size="10.00">libraries/AP_HAL_Linux</text>
<text text-anchor="middle" x="1633" y="-7.5" font-family="Helvetica,sans-Serif" font-size="10.00">/AnalogIn_Raspilot.cpp</text>
</a>
</g>
</g>
<!-- Node18&#45;&gt;Node19 -->
<g id="edge20" class="edge"><title>Node18&#45;&gt;Node19</title>
<path fill="none" stroke="midnightblue" d="M1585.18,-65.3641C1596.19,-54.1142 1609.34,-40.6786 1619.06,-30.7455"/>
<polygon fill="midnightblue" stroke="midnightblue" points="1582.46,-63.1384 1577.96,-72.7333 1587.46,-68.0347 1582.46,-63.1384"/>
</g>
</g>
</svg>
