<?xml version="1.0" encoding="UTF-8" standalone="no"?>
<!DOCTYPE svg PUBLIC "-//W3C//DTD SVG 1.1//EN"
 "http://www.w3.org/Graphics/SVG/1.1/DTD/svg11.dtd">
<!-- Generated by graphviz version 2.38.0 (20140413.2041)
 -->
<!-- Title: libraries/AP_BoardConfig/AP_BoardConfig_CAN.h Pages: 1 -->
<svg width="408pt" height="106pt"
 viewBox="0.00 0.00 407.50 106.00" xmlns="http://www.w3.org/2000/svg" xmlns:xlink="http://www.w3.org/1999/xlink">
<g id="graph0" class="graph" transform="scale(1 1) rotate(0) translate(4 102)">
<title>libraries/AP_BoardConfig/AP_BoardConfig_CAN.h</title>
<polygon fill="white" stroke="none" points="-4,4 -4,-102 403.5,-102 403.5,4 -4,4"/>
<!-- Node1 -->
<g id="node1" class="node"><title>Node1</title>
<polygon fill="#bfbfbf" stroke="black" points="132.5,-67.5 132.5,-97.5 260.5,-97.5 260.5,-67.5 132.5,-67.5"/>
<text text-anchor="start" x="140.5" y="-85.5" font-family="Helvetica,sans-Serif" font-size="10.00">libraries/AP_BoardConfig</text>
<text text-anchor="middle" x="196.5" y="-74.5" font-family="Helvetica,sans-Serif" font-size="10.00">/AP_BoardConfig_CAN.h</text>
</g>
<!-- Node2 -->
<g id="node2" class="node"><title>Node2</title>
<g id="a_node2"><a xlink:href="$AP__Baro_8cpp.html" xlink:title="libraries/AP_Baro/AP\l_Baro.cpp">
<polygon fill="white" stroke="black" points="0,-0.5 0,-30.5 109,-30.5 109,-0.5 0,-0.5"/>
<text text-anchor="start" x="8" y="-18.5" font-family="Helvetica,sans-Serif" font-size="10.00">libraries/AP_Baro/AP</text>
<text text-anchor="middle" x="54.5" y="-7.5" font-family="Helvetica,sans-Serif" font-size="10.00">_Baro.cpp</text>
</a>
</g>
</g>
<!-- Node1&#45;&gt;Node2 -->
<g id="edge1" class="edge"><title>Node1&#45;&gt;Node2</title>
<path fill="none" stroke="midnightblue" d="M156.37,-63.1305C133.807,-52.8025 106.079,-40.1103 85.2518,-30.5765"/>
<polygon fill="midnightblue" stroke="midnightblue" points="155.139,-66.4162 165.688,-67.396 158.052,-60.0513 155.139,-66.4162"/>
</g>
<!-- Node3 -->
<g id="node3" class="node"><title>Node3</title>
<g id="a_node3"><a xlink:href="$AP__BoardConfig__CAN_8cpp.html" xlink:title="libraries/AP_BoardConfig\l/AP_BoardConfig_CAN.cpp">
<polygon fill="white" stroke="black" points="127.5,-0.5 127.5,-30.5 265.5,-30.5 265.5,-0.5 127.5,-0.5"/>
<text text-anchor="start" x="135.5" y="-18.5" font-family="Helvetica,sans-Serif" font-size="10.00">libraries/AP_BoardConfig</text>
<text text-anchor="middle" x="196.5" y="-7.5" font-family="Helvetica,sans-Serif" font-size="10.00">/AP_BoardConfig_CAN.cpp</text>
</a>
</g>
</g>
<!-- Node1&#45;&gt;Node3 -->
<g id="edge2" class="edge"><title>Node1&#45;&gt;Node3</title>
<path fill="none" stroke="midnightblue" d="M196.5,-57.1081C196.5,-48.1539 196.5,-38.3227 196.5,-30.5765"/>
<polygon fill="midnightblue" stroke="midnightblue" points="193,-57.3959 196.5,-67.396 200,-57.396 193,-57.3959"/>
</g>
<!-- Node4 -->
<g id="node4" class="node"><title>Node4</title>
<g id="a_node4"><a xlink:href="$CAN_8cpp.html" xlink:title="libraries/AP_HAL_PX4\l/CAN.cpp">
<polygon fill="white" stroke="black" points="283.5,-0.5 283.5,-30.5 399.5,-30.5 399.5,-0.5 283.5,-0.5"/>
<text text-anchor="start" x="291.5" y="-18.5" font-family="Helvetica,sans-Serif" font-size="10.00">libraries/AP_HAL_PX4</text>
<text text-anchor="middle" x="341.5" y="-7.5" font-family="Helvetica,sans-Serif" font-size="10.00">/CAN.cpp</text>
</a>
</g>
</g>
<!-- Node1&#45;&gt;Node4 -->
<g id="edge3" class="edge"><title>Node1&#45;&gt;Node4</title>
<path fill="none" stroke="midnightblue" d="M237.17,-63.2687C260.265,-52.9159 288.736,-40.1528 310.099,-30.5765"/>
<polygon fill="midnightblue" stroke="midnightblue" points="235.656,-60.1116 227.963,-67.396 238.52,-66.4991 235.656,-60.1116"/>
</g>
</g>
</svg>
