<?xml version="1.0" encoding="UTF-8" standalone="no"?>
<!DOCTYPE svg PUBLIC "-//W3C//DTD SVG 1.1//EN"
 "http://www.w3.org/Graphics/SVG/1.1/DTD/svg11.dtd">
<!-- Generated by graphviz version 2.38.0 (20140413.2041)
 -->
<!-- Title: libraries/AP_WheelEncoder/AP_WheelEncoder.h Pages: 1 -->
<svg width="414pt" height="240pt"
 viewBox="0.00 0.00 414.00 240.00" xmlns="http://www.w3.org/2000/svg" xmlns:xlink="http://www.w3.org/1999/xlink">
<g id="graph0" class="graph" transform="scale(1 1) rotate(0) translate(4 236)">
<title>libraries/AP_WheelEncoder/AP_WheelEncoder.h</title>
<polygon fill="white" stroke="none" points="-4,4 -4,-236 410,-236 410,4 -4,4"/>
<!-- Node1 -->
<g id="node1" class="node"><title>Node1</title>
<polygon fill="#bfbfbf" stroke="black" points="121,-201.5 121,-231.5 257,-231.5 257,-201.5 121,-201.5"/>
<text text-anchor="start" x="129" y="-219.5" font-family="Helvetica,sans-Serif" font-size="10.00">libraries/AP_WheelEncoder</text>
<text text-anchor="middle" x="189" y="-208.5" font-family="Helvetica,sans-Serif" font-size="10.00">/AP_WheelEncoder.h</text>
</g>
<!-- Node2 -->
<g id="node2" class="node"><title>Node2</title>
<g id="a_node2"><a xlink:href="$AP__WheelEncoder_8cpp.html" xlink:title="libraries/AP_WheelEncoder\l/AP_WheelEncoder.cpp">
<polygon fill="white" stroke="black" points="0,-0.5 0,-30.5 136,-30.5 136,-0.5 0,-0.5"/>
<text text-anchor="start" x="8" y="-18.5" font-family="Helvetica,sans-Serif" font-size="10.00">libraries/AP_WheelEncoder</text>
<text text-anchor="middle" x="68" y="-7.5" font-family="Helvetica,sans-Serif" font-size="10.00">/AP_WheelEncoder.cpp</text>
</a>
</g>
</g>
<!-- Node1&#45;&gt;Node2 -->
<g id="edge1" class="edge"><title>Node1&#45;&gt;Node2</title>
<path fill="none" stroke="midnightblue" d="M164.982,-194.531C141.547,-172.735 106.641,-136.477 87,-98 75.837,-76.1308 71.1323,-47.6176 69.2239,-30.7632"/>
<polygon fill="midnightblue" stroke="midnightblue" points="162.706,-197.192 172.451,-201.35 167.426,-192.023 162.706,-197.192"/>
</g>
<!-- Node3 -->
<g id="node3" class="node"><title>Node3</title>
<g id="a_node3"><a xlink:href="$WheelEncoder__Quadrature_8h.html" xlink:title="libraries/AP_WheelEncoder\l/WheelEncoder_Quadrature.h">
<polygon fill="white" stroke="black" points="96.5,-67.5 96.5,-97.5 241.5,-97.5 241.5,-67.5 96.5,-67.5"/>
<text text-anchor="start" x="104.5" y="-85.5" font-family="Helvetica,sans-Serif" font-size="10.00">libraries/AP_WheelEncoder</text>
<text text-anchor="middle" x="169" y="-74.5" font-family="Helvetica,sans-Serif" font-size="10.00">/WheelEncoder_Quadrature.h</text>
</a>
</g>
</g>
<!-- Node1&#45;&gt;Node3 -->
<g id="edge2" class="edge"><title>Node1&#45;&gt;Node3</title>
<path fill="none" stroke="midnightblue" d="M172.701,-192.948C167.588,-184.587 162.602,-174.756 160,-165 153.837,-141.892 159.639,-114.014 164.356,-97.5788"/>
<polygon fill="midnightblue" stroke="midnightblue" points="169.8,-194.906 178.193,-201.372 175.664,-191.083 169.8,-194.906"/>
</g>
<!-- Node5 -->
<g id="node5" class="node"><title>Node5</title>
<g id="a_node5"><a xlink:href="$WheelEncoder__Backend_8h.html" xlink:title="libraries/AP_WheelEncoder\l/WheelEncoder_Backend.h">
<polygon fill="white" stroke="black" points="169,-134.5 169,-164.5 305,-164.5 305,-134.5 169,-134.5"/>
<text text-anchor="start" x="177" y="-152.5" font-family="Helvetica,sans-Serif" font-size="10.00">libraries/AP_WheelEncoder</text>
<text text-anchor="middle" x="237" y="-141.5" font-family="Helvetica,sans-Serif" font-size="10.00">/WheelEncoder_Backend.h</text>
</a>
</g>
</g>
<!-- Node1&#45;&gt;Node5 -->
<g id="edge5" class="edge"><title>Node1&#45;&gt;Node5</title>
<path fill="none" stroke="midnightblue" d="M205.499,-193.157C212.499,-183.679 220.445,-172.919 226.605,-164.577"/>
<polygon fill="midnightblue" stroke="midnightblue" points="202.54,-191.272 199.415,-201.396 208.171,-195.431 202.54,-191.272"/>
</g>
<!-- Node6 -->
<g id="node6" class="node"><title>Node6</title>
<g id="a_node6"><a xlink:href="$WheelEncoder__Backend_8cpp.html" xlink:title="libraries/AP_WheelEncoder\l/WheelEncoder_Backend.cpp">
<polygon fill="white" stroke="black" points="260,-67.5 260,-97.5 406,-97.5 406,-67.5 260,-67.5"/>
<text text-anchor="start" x="268" y="-85.5" font-family="Helvetica,sans-Serif" font-size="10.00">libraries/AP_WheelEncoder</text>
<text text-anchor="middle" x="333" y="-74.5" font-family="Helvetica,sans-Serif" font-size="10.00">/WheelEncoder_Backend.cpp</text>
</a>
</g>
</g>
<!-- Node1&#45;&gt;Node6 -->
<g id="edge8" class="edge"><title>Node1&#45;&gt;Node6</title>
<path fill="none" stroke="midnightblue" d="M265.499,-197.824C283.594,-190.37 301.298,-179.839 314,-165 330.344,-145.905 333.275,-115.399 333.458,-97.6244"/>
<polygon fill="midnightblue" stroke="midnightblue" points="264.115,-194.607 256.025,-201.449 266.616,-201.145 264.115,-194.607"/>
</g>
<!-- Node3&#45;&gt;Node2 -->
<g id="edge3" class="edge"><title>Node3&#45;&gt;Node2</title>
<path fill="none" stroke="midnightblue" d="M138.286,-61.7337C122.657,-51.6755 104.025,-39.6847 89.8727,-30.5765"/>
<polygon fill="midnightblue" stroke="midnightblue" points="136.781,-64.9273 147.085,-67.396 140.57,-59.041 136.781,-64.9273"/>
</g>
<!-- Node4 -->
<g id="node4" class="node"><title>Node4</title>
<g id="a_node4"><a xlink:href="$WheelEncoder__Quadrature_8cpp.html" xlink:title="libraries/AP_WheelEncoder\l/WheelEncoder_Quadrature.cpp">
<polygon fill="white" stroke="black" points="154.5,-0.5 154.5,-30.5 309.5,-30.5 309.5,-0.5 154.5,-0.5"/>
<text text-anchor="start" x="162.5" y="-18.5" font-family="Helvetica,sans-Serif" font-size="10.00">libraries/AP_WheelEncoder</text>
<text text-anchor="middle" x="232" y="-7.5" font-family="Helvetica,sans-Serif" font-size="10.00">/WheelEncoder_Quadrature.cpp</text>
</a>
</g>
</g>
<!-- Node3&#45;&gt;Node4 -->
<g id="edge4" class="edge"><title>Node3&#45;&gt;Node4</title>
<path fill="none" stroke="midnightblue" d="M189.815,-60.0243C199.201,-50.3398 210.024,-39.1739 218.357,-30.5765"/>
<polygon fill="midnightblue" stroke="midnightblue" points="187.117,-57.7793 182.67,-67.396 192.143,-62.6512 187.117,-57.7793"/>
</g>
<!-- Node5&#45;&gt;Node3 -->
<g id="edge6" class="edge"><title>Node5&#45;&gt;Node3</title>
<path fill="none" stroke="midnightblue" d="M214.834,-127.311C204.633,-117.561 192.809,-106.259 183.726,-97.5765"/>
<polygon fill="midnightblue" stroke="midnightblue" points="212.598,-130.016 222.245,-134.396 217.435,-124.956 212.598,-130.016"/>
</g>
<!-- Node5&#45;&gt;Node6 -->
<g id="edge7" class="edge"><title>Node5&#45;&gt;Node6</title>
<path fill="none" stroke="midnightblue" d="M266.193,-128.734C281.048,-118.676 298.758,-106.685 312.21,-97.5765"/>
<polygon fill="midnightblue" stroke="midnightblue" points="264.149,-125.891 257.831,-134.396 268.073,-131.688 264.149,-125.891"/>
</g>
</g>
</svg>
