<?xml version="1.0" encoding="UTF-8" standalone="no"?>
<!DOCTYPE svg PUBLIC "-//W3C//DTD SVG 1.1//EN"
 "http://www.w3.org/Graphics/SVG/1.1/DTD/svg11.dtd">
<!-- Generated by graphviz version 2.38.0 (20140413.2041)
 -->
<!-- Title: wrap_180_cd Pages: 1 -->
<svg width="1590pt" height="527pt"
 viewBox="0.00 0.00 1590.00 526.70" xmlns="http://www.w3.org/2000/svg" xmlns:xlink="http://www.w3.org/1999/xlink">
<g id="graph0" class="graph" transform="scale(1 1) rotate(0) translate(4 522.7)">
<title>wrap_180_cd</title>
<polygon fill="white" stroke="none" points="-4,4 -4,-522.7 1586,-522.7 1586,4 -4,4"/>
<!-- Node1 -->
<g id="node1" class="node"><title>Node1</title>
<polygon fill="#bfbfbf" stroke="black" points="0,-308.5 0,-327.5 74,-327.5 74,-308.5 0,-308.5"/>
<text text-anchor="middle" x="37" y="-315.5" font-family="Helvetica,sans-Serif" font-size="10.00">wrap_180_cd</text>
</g>
<!-- Node2 -->
<g id="node2" class="node"><title>Node2</title>
<g id="a_node2"><a xlink:href="$classAP__L1__Control.html#aaa154ba9c5957f90785c34ee554eca1c" xlink:title="AP_L1_Control::_prevent\l_indecision">
<polygon fill="white" stroke="black" points="322.5,-451 322.5,-481 448.5,-481 448.5,-451 322.5,-451"/>
<text text-anchor="start" x="330.5" y="-469" font-family="Helvetica,sans-Serif" font-size="10.00">AP_L1_Control::_prevent</text>
<text text-anchor="middle" x="385.5" y="-458" font-family="Helvetica,sans-Serif" font-size="10.00">_indecision</text>
</a>
</g>
</g>
<!-- Node1&#45;&gt;Node2 -->
<g id="edge1" class="edge"><title>Node1&#45;&gt;Node2</title>
<path fill="none" stroke="midnightblue" d="M39.3222,-338.26C43.0356,-376.46 57.0911,-458.48 110,-494 185.169,-544.465 298.965,-505.154 353.381,-481.12"/>
<polygon fill="midnightblue" stroke="midnightblue" points="42.779,-337.59 38.4702,-327.911 35.8026,-338.165 42.779,-337.59"/>
</g>
<!-- Node6 -->
<g id="node6" class="node"><title>Node6</title>
<g id="a_node6"><a xlink:href="$classAP__L1__Control.html#ac558013977299a03d6c8cdd61559561d" xlink:title="AP_L1_Control::get\l_yaw_sensor">
<polygon fill="white" stroke="black" points="138.5,-454 138.5,-484 240.5,-484 240.5,-454 138.5,-454"/>
<text text-anchor="start" x="146.5" y="-472" font-family="Helvetica,sans-Serif" font-size="10.00">AP_L1_Control::get</text>
<text text-anchor="middle" x="189.5" y="-461" font-family="Helvetica,sans-Serif" font-size="10.00">_yaw_sensor</text>
</a>
</g>
</g>
<!-- Node1&#45;&gt;Node6 -->
<g id="edge6" class="edge"><title>Node1&#45;&gt;Node6</title>
<path fill="none" stroke="midnightblue" d="M44.0714,-337.546C53.6533,-365.221 74.891,-415.61 110,-444 118.23,-450.655 128.261,-455.552 138.365,-459.15"/>
<polygon fill="midnightblue" stroke="midnightblue" points="47.3231,-336.231 40.8666,-327.83 40.6754,-338.424 47.3231,-336.231"/>
</g>
<!-- Node7 -->
<g id="node7" class="node"><title>Node7</title>
<g id="a_node7"><a xlink:href="$AP__Math_8h.html#a8b6f71a42818d74fd8bfe348108942fa" xlink:title="is_negative">
<polygon fill="white" stroke="black" points="156.5,-415.5 156.5,-434.5 222.5,-434.5 222.5,-415.5 156.5,-415.5"/>
<text text-anchor="middle" x="189.5" y="-422.5" font-family="Helvetica,sans-Serif" font-size="10.00">is_negative</text>
</a>
</g>
</g>
<!-- Node1&#45;&gt;Node7 -->
<g id="edge8" class="edge"><title>Node1&#45;&gt;Node7</title>
<path fill="none" stroke="midnightblue" d="M48.1844,-336.566C60.2581,-356.789 82.2827,-388.574 110,-406 123.889,-414.732 141.479,-419.451 156.487,-422.001"/>
<polygon fill="midnightblue" stroke="midnightblue" points="51.0943,-334.605 43.0753,-327.681 45.026,-338.095 51.0943,-334.605"/>
</g>
<!-- Node8 -->
<g id="node8" class="node"><title>Node8</title>
<g id="a_node8"><a xlink:href="$classAP__L1__Control.html#af3e0818f4392d15406c730563d021ec5" xlink:title="AP_L1_Control::nav\l_bearing_cd">
<polygon fill="white" stroke="black" points="137.5,-366 137.5,-396 241.5,-396 241.5,-366 137.5,-366"/>
<text text-anchor="start" x="145.5" y="-384" font-family="Helvetica,sans-Serif" font-size="10.00">AP_L1_Control::nav</text>
<text text-anchor="middle" x="189.5" y="-373" font-family="Helvetica,sans-Serif" font-size="10.00">_bearing_cd</text>
</a>
</g>
</g>
<!-- Node1&#45;&gt;Node8 -->
<g id="edge9" class="edge"><title>Node1&#45;&gt;Node8</title>
<path fill="none" stroke="midnightblue" d="M67.3882,-331.991C80.3649,-338.033 95.8552,-345.063 110,-351 122.108,-356.082 135.404,-361.298 147.558,-365.927"/>
<polygon fill="midnightblue" stroke="midnightblue" points="68.5587,-328.674 58.0187,-327.597 65.5866,-335.012 68.5587,-328.674"/>
</g>
<!-- Node10 -->
<g id="node10" class="node"><title>Node10</title>
<g id="a_node10"><a xlink:href="$classAP__L1__Control.html#aa2f2bd3cb4a12c876bd9ec115df61441" xlink:title="AP_L1_Control::target\l_bearing_cd">
<polygon fill="white" stroke="black" points="512,-324 512,-354 625,-354 625,-324 512,-324"/>
<text text-anchor="start" x="520" y="-342" font-family="Helvetica,sans-Serif" font-size="10.00">AP_L1_Control::target</text>
<text text-anchor="middle" x="568.5" y="-331" font-family="Helvetica,sans-Serif" font-size="10.00">_bearing_cd</text>
</a>
</g>
</g>
<!-- Node1&#45;&gt;Node10 -->
<g id="edge11" class="edge"><title>Node1&#45;&gt;Node10</title>
<path fill="none" stroke="midnightblue" d="M84.5258,-319.845C181.97,-323.71 407.136,-332.64 511.954,-336.797"/>
<polygon fill="midnightblue" stroke="midnightblue" points="84.5256,-316.343 74.3947,-319.443 84.2481,-323.337 84.5256,-316.343"/>
</g>
<!-- Node11 -->
<g id="node11" class="node"><title>Node11</title>
<g id="a_node11"><a xlink:href="$test__math_8cpp.html#a81c4c0a191a527f9a7d78149bc03b356" xlink:title="TEST">
<polygon fill="white" stroke="black" points="168.5,-289.5 168.5,-308.5 210.5,-308.5 210.5,-289.5 168.5,-289.5"/>
<text text-anchor="middle" x="189.5" y="-296.5" font-family="Helvetica,sans-Serif" font-size="10.00">TEST</text>
</a>
</g>
</g>
<!-- Node1&#45;&gt;Node11 -->
<g id="edge13" class="edge"><title>Node1&#45;&gt;Node11</title>
<path fill="none" stroke="midnightblue" d="M84.1156,-312.178C112.334,-308.616 147.015,-304.237 168.439,-301.533"/>
<polygon fill="midnightblue" stroke="midnightblue" points="83.5313,-308.724 74.0485,-313.449 84.4082,-315.669 83.5313,-308.724"/>
</g>
<!-- Node12 -->
<g id="node12" class="node"><title>Node12</title>
<g id="a_node12"><a xlink:href="$examples_2location_2location_8cpp.html#a18b394b760075c6e3788a2387b9c70a6" xlink:title="test_wrap_cd">
<polygon fill="white" stroke="black" points="152,-251.5 152,-270.5 227,-270.5 227,-251.5 152,-251.5"/>
<text text-anchor="middle" x="189.5" y="-258.5" font-family="Helvetica,sans-Serif" font-size="10.00">test_wrap_cd</text>
</a>
</g>
</g>
<!-- Node1&#45;&gt;Node12 -->
<g id="edge14" class="edge"><title>Node1&#45;&gt;Node12</title>
<path fill="none" stroke="midnightblue" d="M62.2426,-303.265C75.886,-295.474 93.458,-286.256 110,-280 123.378,-274.941 138.557,-270.897 151.979,-267.862"/>
<polygon fill="midnightblue" stroke="midnightblue" points="60.3578,-300.312 53.4858,-308.376 63.8866,-306.358 60.3578,-300.312"/>
</g>
<!-- Node14 -->
<g id="node14" class="node"><title>Node14</title>
<g id="a_node14"><a xlink:href="$classAP__L1__Control.html#aac848632dc59271619005127e22e374d" xlink:title="AP_L1_Control::update\l_heading_hold">
<polygon fill="white" stroke="black" points="509.5,-248 509.5,-278 627.5,-278 627.5,-248 509.5,-248"/>
<text text-anchor="start" x="517.5" y="-266" font-family="Helvetica,sans-Serif" font-size="10.00">AP_L1_Control::update</text>
<text text-anchor="middle" x="568.5" y="-255" font-family="Helvetica,sans-Serif" font-size="10.00">_heading_hold</text>
</a>
</g>
</g>
<!-- Node1&#45;&gt;Node14 -->
<g id="edge16" class="edge"><title>Node1&#45;&gt;Node14</title>
<path fill="none" stroke="midnightblue" d="M48.7389,-299.966C60.9318,-281.45 82.7191,-253.734 110,-242 249.325,-182.072 435.027,-223.11 520.64,-247.923"/>
<polygon fill="midnightblue" stroke="midnightblue" points="45.7684,-298.115 43.4004,-308.442 51.6915,-301.846 45.7684,-298.115"/>
</g>
<!-- Node15 -->
<g id="node15" class="node"><title>Node15</title>
<g id="a_node15"><a xlink:href="$classAP__AHRS__DCM.html#a9e233265c2dacd046aa91ff34cc7f8a6" xlink:title="AP_AHRS_DCM::use_compass">
<polygon fill="white" stroke="black" points="110,-131.5 110,-150.5 269,-150.5 269,-131.5 110,-131.5"/>
<text text-anchor="middle" x="189.5" y="-138.5" font-family="Helvetica,sans-Serif" font-size="10.00">AP_AHRS_DCM::use_compass</text>
</a>
</g>
</g>
<!-- Node1&#45;&gt;Node15 -->
<g id="edge18" class="edge"><title>Node1&#45;&gt;Node15</title>
<path fill="none" stroke="midnightblue" d="M48.1406,-299.464C60.9597,-276.869 84.4574,-238.102 110,-209 130.458,-185.692 158.861,-163.008 175.299,-150.631"/>
<polygon fill="midnightblue" stroke="midnightblue" points="44.9987,-297.912 43.1791,-308.35 51.1104,-301.325 44.9987,-297.912"/>
</g>
<!-- Node29 -->
<g id="node29" class="node"><title>Node29</title>
<g id="a_node29"><a xlink:href="$classAP__Landing__Deepstall.html#af3cde793ef57477c3468547de0a8a90f" xlink:title="AP_Landing_Deepstall\l::verify_land">
<polygon fill="white" stroke="black" points="131.5,-39 131.5,-69 247.5,-69 247.5,-39 131.5,-39"/>
<text text-anchor="start" x="139.5" y="-57" font-family="Helvetica,sans-Serif" font-size="10.00">AP_Landing_Deepstall</text>
<text text-anchor="middle" x="189.5" y="-46" font-family="Helvetica,sans-Serif" font-size="10.00">::verify_land</text>
</a>
</g>
</g>
<!-- Node1&#45;&gt;Node29 -->
<g id="edge36" class="edge"><title>Node1&#45;&gt;Node29</title>
<path fill="none" stroke="midnightblue" d="M41.8175,-298.185C49.6939,-260.99 70.4161,-179.305 110,-122 124.859,-100.489 148.07,-81.5301 165.404,-69.1337"/>
<polygon fill="midnightblue" stroke="midnightblue" points="38.3391,-297.728 39.7788,-308.224 45.199,-299.121 38.3391,-297.728"/>
</g>
<!-- Node3 -->
<g id="node3" class="node"><title>Node3</title>
<g id="a_node3"><a xlink:href="$classAP__L1__Control.html#a9052f01ea019fb51432d3104cce0b6e8" xlink:title="AP_L1_Control::update\l_waypoint">
<polygon fill="white" stroke="black" points="509.5,-434 509.5,-464 627.5,-464 627.5,-434 509.5,-434"/>
<text text-anchor="start" x="517.5" y="-452" font-family="Helvetica,sans-Serif" font-size="10.00">AP_L1_Control::update</text>
<text text-anchor="middle" x="568.5" y="-441" font-family="Helvetica,sans-Serif" font-size="10.00">_waypoint</text>
</a>
</g>
</g>
<!-- Node2&#45;&gt;Node3 -->
<g id="edge2" class="edge"><title>Node2&#45;&gt;Node3</title>
<path fill="none" stroke="midnightblue" d="M458.823,-459.207C475.557,-457.635 493.157,-455.983 509.203,-454.475"/>
<polygon fill="midnightblue" stroke="midnightblue" points="458.166,-455.753 448.537,-460.173 458.82,-462.723 458.166,-455.753"/>
</g>
<!-- Node5 -->
<g id="node5" class="node"><title>Node5</title>
<g id="a_node5"><a xlink:href="$classAP__L1__Control.html#acc0860ec530ec9c9bec50a5701bb709e" xlink:title="AP_L1_Control::update\l_loiter">
<polygon fill="white" stroke="black" points="509.5,-381 509.5,-411 627.5,-411 627.5,-381 509.5,-381"/>
<text text-anchor="start" x="517.5" y="-399" font-family="Helvetica,sans-Serif" font-size="10.00">AP_L1_Control::update</text>
<text text-anchor="middle" x="568.5" y="-388" font-family="Helvetica,sans-Serif" font-size="10.00">_loiter</text>
</a>
</g>
</g>
<!-- Node2&#45;&gt;Node5 -->
<g id="edge4" class="edge"><title>Node2&#45;&gt;Node5</title>
<path fill="none" stroke="midnightblue" d="M434.941,-447.266C464.208,-435.947 501.022,-421.71 528.423,-411.113"/>
<polygon fill="midnightblue" stroke="midnightblue" points="433.393,-444.112 425.329,-450.983 435.918,-450.641 433.393,-444.112"/>
</g>
<!-- Node4 -->
<g id="node4" class="node"><title>Node4</title>
<g id="a_node4"><a xlink:href="$classAP__L1__Control.html#ae79ea97f3deaed8c09b32abe9f465c94" xlink:title="AP_L1_Control::crosstrack\l_error_integrator">
<polygon fill="white" stroke="black" points="671,-352 671,-382 805,-382 805,-352 671,-352"/>
<text text-anchor="start" x="679" y="-370" font-family="Helvetica,sans-Serif" font-size="10.00">AP_L1_Control::crosstrack</text>
<text text-anchor="middle" x="738" y="-359" font-family="Helvetica,sans-Serif" font-size="10.00">_error_integrator</text>
</a>
</g>
</g>
<!-- Node3&#45;&gt;Node4 -->
<g id="edge3" class="edge"><title>Node3&#45;&gt;Node4</title>
<path fill="none" stroke="midnightblue" d="M615.607,-429.861C622.156,-426.977 628.776,-423.971 635,-421 660.857,-408.655 689.654,-393.252 710.038,-382.06"/>
<polygon fill="midnightblue" stroke="midnightblue" points="613.897,-426.787 606.118,-433.98 616.685,-433.208 613.897,-426.787"/>
</g>
<!-- Node5&#45;&gt;Node4 -->
<g id="edge5" class="edge"><title>Node5&#45;&gt;Node4</title>
<path fill="none" stroke="midnightblue" d="M637.597,-384.21C648.608,-382.304 659.993,-380.333 670.954,-378.435"/>
<polygon fill="midnightblue" stroke="midnightblue" points="636.87,-380.784 627.613,-385.939 638.064,-387.681 636.87,-380.784"/>
</g>
<!-- Node6&#45;&gt;Node2 -->
<g id="edge7" class="edge"><title>Node6&#45;&gt;Node2</title>
<path fill="none" stroke="midnightblue" d="M250.907,-468.066C273.626,-467.715 299.482,-467.315 322.355,-466.961"/>
<polygon fill="midnightblue" stroke="midnightblue" points="250.657,-464.569 240.712,-468.224 250.765,-471.568 250.657,-464.569"/>
</g>
<!-- Node9 -->
<g id="node9" class="node"><title>Node9</title>
<g id="a_node9"><a xlink:href="$classAP__L1__Control.html#a388f3d9e1ed09a5bd2444d4032d66239" xlink:title="AP_L1_Control::AP_L1\l_Control">
<polygon fill="white" stroke="black" points="326.5,-366 326.5,-396 444.5,-396 444.5,-366 326.5,-366"/>
<text text-anchor="start" x="334.5" y="-384" font-family="Helvetica,sans-Serif" font-size="10.00">AP_L1_Control::AP_L1</text>
<text text-anchor="middle" x="385.5" y="-373" font-family="Helvetica,sans-Serif" font-size="10.00">_Control</text>
</a>
</g>
</g>
<!-- Node8&#45;&gt;Node9 -->
<g id="edge10" class="edge"><title>Node8&#45;&gt;Node9</title>
<path fill="none" stroke="midnightblue" d="M251.739,-381C275.633,-381 302.894,-381 326.47,-381"/>
<polygon fill="midnightblue" stroke="midnightblue" points="251.725,-377.5 241.725,-381 251.725,-384.5 251.725,-377.5"/>
</g>
<!-- Node10&#45;&gt;Node4 -->
<g id="edge12" class="edge"><title>Node10&#45;&gt;Node4</title>
<path fill="none" stroke="midnightblue" d="M635.344,-350.007C646.971,-351.95 659.08,-353.975 670.719,-355.92"/>
<polygon fill="midnightblue" stroke="midnightblue" points="635.715,-346.52 625.275,-348.324 634.561,-353.425 635.715,-346.52"/>
</g>
<!-- Node13 -->
<g id="node13" class="node"><title>Node13</title>
<g id="a_node13"><a xlink:href="$examples_2location_2location_8cpp.html#a4fc01d736fe50cf5b977f755b675f11d" xlink:title="setup">
<polygon fill="white" stroke="black" points="365,-251.5 365,-270.5 406,-270.5 406,-251.5 365,-251.5"/>
<text text-anchor="middle" x="385.5" y="-258.5" font-family="Helvetica,sans-Serif" font-size="10.00">setup</text>
</a>
</g>
</g>
<!-- Node12&#45;&gt;Node13 -->
<g id="edge15" class="edge"><title>Node12&#45;&gt;Node13</title>
<path fill="none" stroke="midnightblue" d="M237.694,-261C278.446,-261 335.293,-261 364.867,-261"/>
<polygon fill="midnightblue" stroke="midnightblue" points="237.447,-257.5 227.447,-261 237.447,-264.5 237.447,-257.5"/>
</g>
<!-- Node14&#45;&gt;Node4 -->
<g id="edge17" class="edge"><title>Node14&#45;&gt;Node4</title>
<path fill="none" stroke="midnightblue" d="M602.534,-283.51C634.932,-303.627 683.574,-333.828 712.615,-351.859"/>
<polygon fill="midnightblue" stroke="midnightblue" points="604.198,-280.424 593.856,-278.122 600.505,-286.371 604.198,-280.424"/>
</g>
<!-- Node16 -->
<g id="node16" class="node"><title>Node16</title>
<g id="a_node16"><a xlink:href="$classAP__AHRS__DCM.html#a101f2aaddcc7e97e690924d4e9d7a191" xlink:title="AP_AHRS_DCM::drift\l_correction_yaw">
<polygon fill="white" stroke="black" points="328,-77 328,-107 443,-107 443,-77 328,-77"/>
<text text-anchor="start" x="336" y="-95" font-family="Helvetica,sans-Serif" font-size="10.00">AP_AHRS_DCM::drift</text>
<text text-anchor="middle" x="385.5" y="-84" font-family="Helvetica,sans-Serif" font-size="10.00">_correction_yaw</text>
</a>
</g>
</g>
<!-- Node15&#45;&gt;Node16 -->
<g id="edge19" class="edge"><title>Node15&#45;&gt;Node16</title>
<path fill="none" stroke="midnightblue" d="M238.389,-128.904C265.5,-122.057 299.563,-113.453 327.979,-106.276"/>
<polygon fill="midnightblue" stroke="midnightblue" points="237.204,-125.594 228.366,-131.436 238.918,-132.38 237.204,-125.594"/>
</g>
<!-- Node17 -->
<g id="node17" class="node"><title>Node17</title>
<g id="a_node17"><a xlink:href="$classAP__AHRS__DCM.html#a8c3304b59bc6a27f24c686985c100549" xlink:title="AP_AHRS_DCM::drift\l_correction">
<polygon fill="white" stroke="black" points="511,-55 511,-85 626,-85 626,-55 511,-55"/>
<text text-anchor="start" x="519" y="-73" font-family="Helvetica,sans-Serif" font-size="10.00">AP_AHRS_DCM::drift</text>
<text text-anchor="middle" x="568.5" y="-62" font-family="Helvetica,sans-Serif" font-size="10.00">_correction</text>
</a>
</g>
</g>
<!-- Node15&#45;&gt;Node17 -->
<g id="edge32" class="edge"><title>Node15&#45;&gt;Node17</title>
<path fill="none" stroke="midnightblue" d="M208.369,-124.682C229.587,-106.515 266.922,-78.2337 305,-67 373.63,-46.7529 456.811,-52.4685 510.882,-59.9171"/>
<polygon fill="midnightblue" stroke="midnightblue" points="206.014,-122.091 200.807,-131.318 210.631,-127.352 206.014,-122.091"/>
</g>
<!-- Node26 -->
<g id="node26" class="node"><title>Node26</title>
<g id="a_node26"><a xlink:href="$classAP__AHRS__DCM.html#a436f1fa2ecf028ab6bcf5e344e5fddb9" xlink:title="AP_AHRS_DCM::wind_estimate">
<polygon fill="white" stroke="black" points="305,-175.5 305,-194.5 466,-194.5 466,-175.5 305,-175.5"/>
<text text-anchor="middle" x="385.5" y="-182.5" font-family="Helvetica,sans-Serif" font-size="10.00">AP_AHRS_DCM::wind_estimate</text>
</a>
</g>
</g>
<!-- Node15&#45;&gt;Node26 -->
<g id="edge33" class="edge"><title>Node15&#45;&gt;Node26</title>
<path fill="none" stroke="midnightblue" d="M242.457,-152.784C273.774,-159.887 313.143,-168.816 342.487,-175.471"/>
<polygon fill="midnightblue" stroke="midnightblue" points="243.122,-149.346 232.595,-150.547 241.573,-156.173 243.122,-149.346"/>
</g>
<!-- Node28 -->
<g id="node28" class="node"><title>Node28</title>
<g id="a_node28"><a xlink:href="$classAP__AHRS__NavEKF.html#a4c1d09f4fe08c39172f7e6baab40cad2" xlink:title="AP_AHRS_NavEKF::use\l_compass">
<polygon fill="white" stroke="black" points="321.5,-126 321.5,-156 449.5,-156 449.5,-126 321.5,-126"/>
<text text-anchor="start" x="329.5" y="-144" font-family="Helvetica,sans-Serif" font-size="10.00">AP_AHRS_NavEKF::use</text>
<text text-anchor="middle" x="385.5" y="-133" font-family="Helvetica,sans-Serif" font-size="10.00">_compass</text>
</a>
</g>
</g>
<!-- Node15&#45;&gt;Node28 -->
<g id="edge35" class="edge"><title>Node15&#45;&gt;Node28</title>
<path fill="none" stroke="midnightblue" d="M279.358,-141C293.487,-141 307.848,-141 321.231,-141"/>
<polygon fill="midnightblue" stroke="midnightblue" points="279.128,-137.5 269.128,-141 279.128,-144.5 279.128,-137.5"/>
</g>
<!-- Node16&#45;&gt;Node17 -->
<g id="edge20" class="edge"><title>Node16&#45;&gt;Node17</title>
<path fill="none" stroke="midnightblue" d="M453.315,-83.8789C472.246,-81.5778 492.665,-79.0959 510.929,-76.8761"/>
<polygon fill="midnightblue" stroke="midnightblue" points="452.778,-80.4183 443.273,-85.0994 453.622,-87.3672 452.778,-80.4183"/>
</g>
<!-- Node18 -->
<g id="node18" class="node"><title>Node18</title>
<g id="a_node18"><a xlink:href="$classAP__AHRS__DCM.html#aa8a135d6852e94f279c0be3c8206bfdd" xlink:title="AP_AHRS_DCM::update">
<polygon fill="white" stroke="black" points="674,-60.5 674,-79.5 802,-79.5 802,-60.5 674,-60.5"/>
<text text-anchor="middle" x="738" y="-67.5" font-family="Helvetica,sans-Serif" font-size="10.00">AP_AHRS_DCM::update</text>
</a>
</g>
</g>
<!-- Node17&#45;&gt;Node18 -->
<g id="edge21" class="edge"><title>Node17&#45;&gt;Node18</title>
<path fill="none" stroke="midnightblue" d="M636.404,-70C648.713,-70 661.529,-70 673.728,-70"/>
<polygon fill="midnightblue" stroke="midnightblue" points="636.208,-66.5001 626.208,-70 636.208,-73.5001 636.208,-66.5001"/>
</g>
<!-- Node19 -->
<g id="node19" class="node"><title>Node19</title>
<g id="a_node19"><a xlink:href="$classAP__AHRS__DCM.html#a4bbf9d7f853103c8c497b90ae726b1ac" xlink:title="AP_AHRS_DCM::get_gyro\l_drift">
<polygon fill="white" stroke="black" points="841,-99 841,-129 977,-129 977,-99 841,-99"/>
<text text-anchor="start" x="849" y="-117" font-family="Helvetica,sans-Serif" font-size="10.00">AP_AHRS_DCM::get_gyro</text>
<text text-anchor="middle" x="909" y="-106" font-family="Helvetica,sans-Serif" font-size="10.00">_drift</text>
</a>
</g>
</g>
<!-- Node18&#45;&gt;Node19 -->
<g id="edge22" class="edge"><title>Node18&#45;&gt;Node19</title>
<path fill="none" stroke="midnightblue" d="M785.465,-82.0974C805.453,-87.3013 829.029,-93.4395 850.135,-98.9346"/>
<polygon fill="midnightblue" stroke="midnightblue" points="786.23,-78.6799 775.67,-79.5473 784.466,-85.4541 786.23,-78.6799"/>
</g>
<!-- Node24 -->
<g id="node24" class="node"><title>Node24</title>
<g id="a_node24"><a xlink:href="$classAP__AHRS__NavEKF.html#a7ce0035d07be995b5f45ac6c711570ce" xlink:title="AP_AHRS_NavEKF::update_DCM">
<polygon fill="white" stroke="black" points="1013,-38.5 1013,-57.5 1183,-57.5 1183,-38.5 1013,-38.5"/>
<text text-anchor="middle" x="1098" y="-45.5" font-family="Helvetica,sans-Serif" font-size="10.00">AP_AHRS_NavEKF::update_DCM</text>
</a>
</g>
</g>
<!-- Node18&#45;&gt;Node24 -->
<g id="edge29" class="edge"><title>Node18&#45;&gt;Node24</title>
<path fill="none" stroke="midnightblue" d="M812.409,-65.4888C870.648,-61.9099 952.096,-56.9047 1012.94,-53.1654"/>
<polygon fill="midnightblue" stroke="midnightblue" points="811.946,-62.0106 802.179,-66.1175 812.375,-68.9974 811.946,-62.0106"/>
</g>
<!-- Node25 -->
<g id="node25" class="node"><title>Node25</title>
<g id="a_node25"><a xlink:href="$ModuleTest_8cpp.html#afe461d27b9c48d5921c00d521181f12f" xlink:title="loop">
<polygon fill="white" stroke="black" points="891.5,-22.5 891.5,-41.5 926.5,-41.5 926.5,-22.5 891.5,-22.5"/>
<text text-anchor="middle" x="909" y="-29.5" font-family="Helvetica,sans-Serif" font-size="10.00">loop</text>
</a>
</g>
</g>
<!-- Node18&#45;&gt;Node25 -->
<g id="edge31" class="edge"><title>Node18&#45;&gt;Node25</title>
<path fill="none" stroke="midnightblue" d="M791.534,-58.1877C825.826,-50.477 868.356,-40.9139 891.352,-35.7432"/>
<polygon fill="midnightblue" stroke="midnightblue" points="790.634,-54.8024 781.646,-60.411 792.17,-61.6319 790.634,-54.8024"/>
</g>
<!-- Node20 -->
<g id="node20" class="node"><title>Node20</title>
<g id="a_node20"><a xlink:href="$classAP__AHRS__NavEKF.html#a355d8890ddfaadaa9d8f694f780afbe6" xlink:title="AP_AHRS_NavEKF::get\l_gyro_drift">
<polygon fill="white" stroke="black" points="1035,-99 1035,-129 1161,-129 1161,-99 1035,-99"/>
<text text-anchor="start" x="1043" y="-117" font-family="Helvetica,sans-Serif" font-size="10.00">AP_AHRS_NavEKF::get</text>
<text text-anchor="middle" x="1098" y="-106" font-family="Helvetica,sans-Serif" font-size="10.00">_gyro_drift</text>
</a>
</g>
</g>
<!-- Node19&#45;&gt;Node20 -->
<g id="edge23" class="edge"><title>Node19&#45;&gt;Node20</title>
<path fill="none" stroke="midnightblue" d="M987.48,-114C1003.22,-114 1019.58,-114 1034.71,-114"/>
<polygon fill="midnightblue" stroke="midnightblue" points="987.247,-110.5 977.247,-114 987.247,-117.5 987.247,-110.5"/>
</g>
<!-- Node21 -->
<g id="node21" class="node"><title>Node21</title>
<g id="a_node21"><a xlink:href="$classAP__AHRS__NavEKF.html#ac8111979c5dc37a55b2c50818534ea52" xlink:title="AP_AHRS_NavEKF::update">
<polygon fill="white" stroke="black" points="1369,-91.5 1369,-110.5 1511,-110.5 1511,-91.5 1369,-91.5"/>
<text text-anchor="middle" x="1440" y="-98.5" font-family="Helvetica,sans-Serif" font-size="10.00">AP_AHRS_NavEKF::update</text>
</a>
</g>
</g>
<!-- Node20&#45;&gt;Node21 -->
<g id="edge24" class="edge"><title>Node20&#45;&gt;Node21</title>
<path fill="none" stroke="midnightblue" d="M1171.6,-111.224C1229.88,-108.996 1311.2,-105.887 1368.82,-103.683"/>
<polygon fill="midnightblue" stroke="midnightblue" points="1171.22,-107.736 1161.36,-111.616 1171.49,-114.731 1171.22,-107.736"/>
</g>
<!-- Node22 -->
<g id="node22" class="node"><title>Node22</title>
<g id="a_node22"><a xlink:href="$AHRS__Test_8cpp.html#afe461d27b9c48d5921c00d521181f12f" xlink:title="loop">
<polygon fill="white" stroke="black" points="1547,-132.5 1547,-151.5 1582,-151.5 1582,-132.5 1547,-132.5"/>
<text text-anchor="middle" x="1564.5" y="-139.5" font-family="Helvetica,sans-Serif" font-size="10.00">loop</text>
</a>
</g>
</g>
<!-- Node20&#45;&gt;Node22 -->
<g id="edge26" class="edge"><title>Node20&#45;&gt;Node22</title>
<path fill="none" stroke="midnightblue" d="M1171.44,-118.93C1187.12,-119.969 1203.61,-121.041 1219,-122 1344.87,-129.849 1496.66,-138.312 1546.65,-141.073"/>
<polygon fill="midnightblue" stroke="midnightblue" points="1171.49,-115.425 1161.28,-118.254 1171.02,-122.41 1171.49,-115.425"/>
</g>
<!-- Node23 -->
<g id="node23" class="node"><title>Node23</title>
<g id="a_node23"><a xlink:href="$classAP__Module.html#a9b4f06b2556a122f11b92b7b29d462c4" xlink:title="AP_Module::call_hook\l_AHRS_update">
<polygon fill="white" stroke="black" points="1219,-66 1219,-96 1333,-96 1333,-66 1219,-66"/>
<text text-anchor="start" x="1227" y="-84" font-family="Helvetica,sans-Serif" font-size="10.00">AP_Module::call_hook</text>
<text text-anchor="middle" x="1276" y="-73" font-family="Helvetica,sans-Serif" font-size="10.00">_AHRS_update</text>
</a>
</g>
</g>
<!-- Node20&#45;&gt;Node23 -->
<g id="edge27" class="edge"><title>Node20&#45;&gt;Node23</title>
<path fill="none" stroke="midnightblue" d="M1170.88,-100.522C1186.85,-97.5277 1203.56,-94.3956 1218.79,-91.5389"/>
<polygon fill="midnightblue" stroke="midnightblue" points="1170.23,-97.0824 1161.05,-102.365 1171.52,-103.963 1170.23,-97.0824"/>
</g>
<!-- Node21&#45;&gt;Node22 -->
<g id="edge25" class="edge"><title>Node21&#45;&gt;Node22</title>
<path fill="none" stroke="midnightblue" d="M1479.13,-113.763C1501.88,-121.376 1529.61,-130.657 1546.92,-136.449"/>
<polygon fill="midnightblue" stroke="midnightblue" points="1480.01,-110.364 1469.41,-110.509 1477.78,-117.002 1480.01,-110.364"/>
</g>
<!-- Node23&#45;&gt;Node21 -->
<g id="edge28" class="edge"><title>Node23&#45;&gt;Node21</title>
<path fill="none" stroke="midnightblue" d="M1343.35,-89.1914C1351.78,-90.2318 1360.42,-91.2992 1368.91,-92.3465"/>
<polygon fill="midnightblue" stroke="midnightblue" points="1343.56,-85.6906 1333.21,-87.9389 1342.7,-92.6379 1343.56,-85.6906"/>
</g>
<!-- Node24&#45;&gt;Node21 -->
<g id="edge30" class="edge"><title>Node24&#45;&gt;Node21</title>
<path fill="none" stroke="midnightblue" d="M1193.24,-43.4105C1236.31,-43.2993 1287.71,-45.9768 1333,-56 1365.99,-63.3016 1401.62,-80.5741 1422.02,-91.4707"/>
<polygon fill="midnightblue" stroke="midnightblue" points="1193.02,-39.912 1183.05,-43.4887 1193.08,-46.9118 1193.02,-39.912"/>
</g>
<!-- Node27 -->
<g id="node27" class="node"><title>Node27</title>
<g id="a_node27"><a xlink:href="$classAP__AHRS__NavEKF.html#a26168a6f7f3da768ae76083b5edc05b0" xlink:title="AP_AHRS_NavEKF::wind\l_estimate">
<polygon fill="white" stroke="black" points="502,-170 502,-200 635,-200 635,-170 502,-170"/>
<text text-anchor="start" x="510" y="-188" font-family="Helvetica,sans-Serif" font-size="10.00">AP_AHRS_NavEKF::wind</text>
<text text-anchor="middle" x="568.5" y="-177" font-family="Helvetica,sans-Serif" font-size="10.00">_estimate</text>
</a>
</g>
</g>
<!-- Node26&#45;&gt;Node27 -->
<g id="edge34" class="edge"><title>Node26&#45;&gt;Node27</title>
<path fill="none" stroke="midnightblue" d="M476.278,-185C484.922,-185 493.575,-185 501.922,-185"/>
<polygon fill="midnightblue" stroke="midnightblue" points="476.153,-181.5 466.153,-185 476.153,-188.5 476.153,-181.5"/>
</g>
<!-- Node30 -->
<g id="node30" class="node"><title>Node30</title>
<g id="a_node30"><a xlink:href="$classAP__Landing.html#afdbc34de818b9cb366336c23660fd495" xlink:title="AP_Landing::verify_land">
<polygon fill="white" stroke="black" points="324.5,-0.5 324.5,-19.5 446.5,-19.5 446.5,-0.5 324.5,-0.5"/>
<text text-anchor="middle" x="385.5" y="-7.5" font-family="Helvetica,sans-Serif" font-size="10.00">AP_Landing::verify_land</text>
</a>
</g>
</g>
<!-- Node29&#45;&gt;Node30 -->
<g id="edge37" class="edge"><title>Node29&#45;&gt;Node30</title>
<path fill="none" stroke="midnightblue" d="M257.469,-38.8111C285.704,-32.4074 317.705,-25.1494 342.524,-19.5202"/>
<polygon fill="midnightblue" stroke="midnightblue" points="256.635,-35.4113 247.657,-41.0365 258.184,-42.2379 256.635,-35.4113"/>
</g>
</g>
</svg>
