<?xml version="1.0" encoding="UTF-8" standalone="no"?>
<!DOCTYPE svg PUBLIC "-//W3C//DTD SVG 1.1//EN"
 "http://www.w3.org/Graphics/SVG/1.1/DTD/svg11.dtd">
<!-- Generated by graphviz version 2.38.0 (20140413.2041)
 -->
<!-- Title: wrap_180_cd&lt; float &gt; Pages: 1 -->
<svg width="1737pt" height="510pt"
 viewBox="0.00 0.00 1737.00 509.50" xmlns="http://www.w3.org/2000/svg" xmlns:xlink="http://www.w3.org/1999/xlink">
<g id="graph0" class="graph" transform="scale(1 1) rotate(0) translate(4 505.5)">
<title>wrap_180_cd&lt; float &gt;</title>
<polygon fill="white" stroke="none" points="-4,4 -4,-505.5 1733,-505.5 1733,4 -4,4"/>
<!-- Node1 -->
<g id="node1" class="node"><title>Node1</title>
<polygon fill="#bfbfbf" stroke="black" points="0,-183.5 0,-202.5 111,-202.5 111,-183.5 0,-183.5"/>
<text text-anchor="middle" x="55.5" y="-190.5" font-family="Helvetica,sans-Serif" font-size="10.00">wrap_180_cd&lt; float &gt;</text>
</g>
<!-- Node2 -->
<g id="node2" class="node"><title>Node2</title>
<g id="a_node2"><a xlink:href="$AP__Math_8h.html#a4e136782e86e2adaaf7f0f759067dfe1" xlink:title="wrap_180_cd">
<polygon fill="white" stroke="black" points="147,-183.5 147,-202.5 221,-202.5 221,-183.5 147,-183.5"/>
<text text-anchor="middle" x="184" y="-190.5" font-family="Helvetica,sans-Serif" font-size="10.00">wrap_180_cd</text>
</a>
</g>
</g>
<!-- Node1&#45;&gt;Node2 -->
<g id="edge1" class="edge"><title>Node1&#45;&gt;Node2</title>
<path fill="none" stroke="midnightblue" d="M121.45,-193C130.156,-193 138.819,-193 146.779,-193"/>
<polygon fill="midnightblue" stroke="midnightblue" points="121.249,-189.5 111.249,-193 121.249,-196.5 121.249,-189.5"/>
</g>
<!-- Node3 -->
<g id="node3" class="node"><title>Node3</title>
<g id="a_node3"><a xlink:href="$classAP__AHRS__DCM.html#a9e233265c2dacd046aa91ff34cc7f8a6" xlink:title="AP_AHRS_DCM::use_compass">
<polygon fill="white" stroke="black" points="257,-383.5 257,-402.5 416,-402.5 416,-383.5 257,-383.5"/>
<text text-anchor="middle" x="336.5" y="-390.5" font-family="Helvetica,sans-Serif" font-size="10.00">AP_AHRS_DCM::use_compass</text>
</a>
</g>
</g>
<!-- Node2&#45;&gt;Node3 -->
<g id="edge2" class="edge"><title>Node2&#45;&gt;Node3</title>
<path fill="none" stroke="midnightblue" d="M187.615,-212.726C193.43,-248.758 210.777,-325.42 257,-368 264.469,-374.88 273.833,-379.867 283.467,-383.482"/>
<polygon fill="midnightblue" stroke="midnightblue" points="191.035,-211.93 186.11,-202.55 184.111,-212.954 191.035,-211.93"/>
</g>
<!-- Node17 -->
<g id="node17" class="node"><title>Node17</title>
<g id="a_node17"><a xlink:href="$classAP__L1__Control.html#ac558013977299a03d6c8cdd61559561d" xlink:title="AP_L1_Control::get\l_yaw_sensor">
<polygon fill="white" stroke="black" points="285.5,-329 285.5,-359 387.5,-359 387.5,-329 285.5,-329"/>
<text text-anchor="start" x="293.5" y="-347" font-family="Helvetica,sans-Serif" font-size="10.00">AP_L1_Control::get</text>
<text text-anchor="middle" x="336.5" y="-336" font-family="Helvetica,sans-Serif" font-size="10.00">_yaw_sensor</text>
</a>
</g>
</g>
<!-- Node2&#45;&gt;Node17 -->
<g id="edge20" class="edge"><title>Node2&#45;&gt;Node17</title>
<path fill="none" stroke="midnightblue" d="M191.787,-212.257C202.016,-238.676 223.794,-286.057 257,-314 265.261,-320.951 275.305,-326.391 285.411,-330.611"/>
<polygon fill="midnightblue" stroke="midnightblue" points="194.977,-210.794 188.216,-202.636 188.414,-213.229 194.977,-210.794"/>
</g>
<!-- Node18 -->
<g id="node18" class="node"><title>Node18</title>
<g id="a_node18"><a xlink:href="$classAP__L1__Control.html#aaa154ba9c5957f90785c34ee554eca1c" xlink:title="AP_L1_Control::_prevent\l_indecision">
<polygon fill="white" stroke="black" points="469.5,-290 469.5,-320 595.5,-320 595.5,-290 469.5,-290"/>
<text text-anchor="start" x="477.5" y="-308" font-family="Helvetica,sans-Serif" font-size="10.00">AP_L1_Control::_prevent</text>
<text text-anchor="middle" x="532.5" y="-297" font-family="Helvetica,sans-Serif" font-size="10.00">_indecision</text>
</a>
</g>
</g>
<!-- Node2&#45;&gt;Node18 -->
<g id="edge30" class="edge"><title>Node2&#45;&gt;Node18</title>
<path fill="none" stroke="midnightblue" d="M194.454,-211.521C206.097,-232.176 227.954,-264.688 257,-280 323.249,-314.924 411.085,-316.491 469.356,-312.433"/>
<polygon fill="midnightblue" stroke="midnightblue" points="197.532,-209.855 189.703,-202.716 191.372,-213.179 197.532,-209.855"/>
</g>
<!-- Node22 -->
<g id="node22" class="node"><title>Node22</title>
<g id="a_node22"><a xlink:href="$classAP__L1__Control.html#af3e0818f4392d15406c730563d021ec5" xlink:title="AP_L1_Control::nav\l_bearing_cd">
<polygon fill="white" stroke="black" points="284.5,-241 284.5,-271 388.5,-271 388.5,-241 284.5,-241"/>
<text text-anchor="start" x="292.5" y="-259" font-family="Helvetica,sans-Serif" font-size="10.00">AP_L1_Control::nav</text>
<text text-anchor="middle" x="336.5" y="-248" font-family="Helvetica,sans-Serif" font-size="10.00">_bearing_cd</text>
</a>
</g>
</g>
<!-- Node2&#45;&gt;Node22 -->
<g id="edge26" class="edge"><title>Node2&#45;&gt;Node22</title>
<path fill="none" stroke="midnightblue" d="M214.388,-206.991C227.365,-213.033 242.855,-220.063 257,-226 269.108,-231.082 282.404,-236.298 294.558,-240.927"/>
<polygon fill="midnightblue" stroke="midnightblue" points="215.559,-203.674 205.019,-202.597 212.587,-210.012 215.559,-203.674"/>
</g>
<!-- Node24 -->
<g id="node24" class="node"><title>Node24</title>
<g id="a_node24"><a xlink:href="$classAP__L1__Control.html#aa2f2bd3cb4a12c876bd9ec115df61441" xlink:title="AP_L1_Control::target\l_bearing_cd">
<polygon fill="white" stroke="black" points="659,-203 659,-233 772,-233 772,-203 659,-203"/>
<text text-anchor="start" x="667" y="-221" font-family="Helvetica,sans-Serif" font-size="10.00">AP_L1_Control::target</text>
<text text-anchor="middle" x="715.5" y="-210" font-family="Helvetica,sans-Serif" font-size="10.00">_bearing_cd</text>
</a>
</g>
</g>
<!-- Node2&#45;&gt;Node24 -->
<g id="edge28" class="edge"><title>Node2&#45;&gt;Node24</title>
<path fill="none" stroke="midnightblue" d="M231.421,-196.399C239.927,-196.972 248.729,-197.532 257,-198 401.861,-206.195 572.69,-212.87 658.841,-216.027"/>
<polygon fill="midnightblue" stroke="midnightblue" points="231.464,-192.894 221.247,-195.699 230.984,-199.878 231.464,-192.894"/>
</g>
<!-- Node25 -->
<g id="node25" class="node"><title>Node25</title>
<g id="a_node25"><a xlink:href="$classAP__L1__Control.html#aac848632dc59271619005127e22e374d" xlink:title="AP_L1_Control::update\l_heading_hold">
<polygon fill="white" stroke="black" points="656.5,-154 656.5,-184 774.5,-184 774.5,-154 656.5,-154"/>
<text text-anchor="start" x="664.5" y="-172" font-family="Helvetica,sans-Serif" font-size="10.00">AP_L1_Control::update</text>
<text text-anchor="middle" x="715.5" y="-161" font-family="Helvetica,sans-Serif" font-size="10.00">_heading_hold</text>
</a>
</g>
</g>
<!-- Node2&#45;&gt;Node25 -->
<g id="edge31" class="edge"><title>Node2&#45;&gt;Node25</title>
<path fill="none" stroke="midnightblue" d="M231.444,-190.895C328.067,-186.515 550.52,-176.433 656.421,-171.632"/>
<polygon fill="midnightblue" stroke="midnightblue" points="231.226,-187.401 221.395,-191.35 231.543,-194.394 231.226,-187.401"/>
</g>
<!-- Node26 -->
<g id="node26" class="node"><title>Node26</title>
<g id="a_node26"><a xlink:href="$classAP__Landing__Deepstall.html#af3cde793ef57477c3468547de0a8a90f" xlink:title="AP_Landing_Deepstall\l::verify_land">
<polygon fill="white" stroke="black" points="278.5,-115 278.5,-145 394.5,-145 394.5,-115 278.5,-115"/>
<text text-anchor="start" x="286.5" y="-133" font-family="Helvetica,sans-Serif" font-size="10.00">AP_Landing_Deepstall</text>
<text text-anchor="middle" x="336.5" y="-122" font-family="Helvetica,sans-Serif" font-size="10.00">::verify_land</text>
</a>
</g>
</g>
<!-- Node2&#45;&gt;Node26 -->
<g id="edge33" class="edge"><title>Node2&#45;&gt;Node26</title>
<path fill="none" stroke="midnightblue" d="M214.388,-179.009C227.365,-172.967 242.855,-165.937 257,-160 269.108,-154.918 282.404,-149.702 294.558,-145.073"/>
<polygon fill="midnightblue" stroke="midnightblue" points="212.587,-175.988 205.019,-183.403 215.559,-182.326 212.587,-175.988"/>
</g>
<!-- Node28 -->
<g id="node28" class="node"><title>Node28</title>
<g id="a_node28"><a xlink:href="$AP__Math_8h.html#a8b6f71a42818d74fd8bfe348108942fa" xlink:title="is_negative">
<polygon fill="white" stroke="black" points="303.5,-76.5 303.5,-95.5 369.5,-95.5 369.5,-76.5 303.5,-76.5"/>
<text text-anchor="middle" x="336.5" y="-83.5" font-family="Helvetica,sans-Serif" font-size="10.00">is_negative</text>
</a>
</g>
</g>
<!-- Node2&#45;&gt;Node28 -->
<g id="edge35" class="edge"><title>Node2&#45;&gt;Node28</title>
<path fill="none" stroke="midnightblue" d="M195.184,-174.434C207.258,-154.211 229.283,-122.426 257,-105 270.889,-96.2679 288.479,-91.5488 303.487,-88.9985"/>
<polygon fill="midnightblue" stroke="midnightblue" points="192.026,-172.905 190.075,-183.319 198.094,-176.395 192.026,-172.905"/>
</g>
<!-- Node29 -->
<g id="node29" class="node"><title>Node29</title>
<g id="a_node29"><a xlink:href="$examples_2location_2location_8cpp.html#a18b394b760075c6e3788a2387b9c70a6" xlink:title="test_wrap_cd">
<polygon fill="white" stroke="black" points="299,-38.5 299,-57.5 374,-57.5 374,-38.5 299,-38.5"/>
<text text-anchor="middle" x="336.5" y="-45.5" font-family="Helvetica,sans-Serif" font-size="10.00">test_wrap_cd</text>
</a>
</g>
</g>
<!-- Node2&#45;&gt;Node29 -->
<g id="edge36" class="edge"><title>Node2&#45;&gt;Node29</title>
<path fill="none" stroke="midnightblue" d="M190.67,-173.527C199.858,-145.525 220.73,-94.2627 257,-67 268.993,-57.9852 284.675,-53.1869 298.866,-50.6553"/>
<polygon fill="midnightblue" stroke="midnightblue" points="187.246,-172.75 187.62,-183.338 193.931,-174.828 187.246,-172.75"/>
</g>
<!-- Node31 -->
<g id="node31" class="node"><title>Node31</title>
<g id="a_node31"><a xlink:href="$test__math_8cpp.html#a81c4c0a191a527f9a7d78149bc03b356" xlink:title="TEST">
<polygon fill="white" stroke="black" points="315.5,-0.5 315.5,-19.5 357.5,-19.5 357.5,-0.5 315.5,-0.5"/>
<text text-anchor="middle" x="336.5" y="-7.5" font-family="Helvetica,sans-Serif" font-size="10.00">TEST</text>
</a>
</g>
</g>
<!-- Node2&#45;&gt;Node31 -->
<g id="edge38" class="edge"><title>Node2&#45;&gt;Node31</title>
<path fill="none" stroke="midnightblue" d="M187.9,-173.249C194.067,-138.575 211.812,-66.8526 257,-29 273.339,-15.3138 297.949,-11.1817 315.249,-10.0831"/>
<polygon fill="midnightblue" stroke="midnightblue" points="184.386,-173.052 186.23,-183.485 191.295,-174.179 184.386,-173.052"/>
</g>
<!-- Node4 -->
<g id="node4" class="node"><title>Node4</title>
<g id="a_node4"><a xlink:href="$classAP__AHRS__DCM.html#a101f2aaddcc7e97e690924d4e9d7a191" xlink:title="AP_AHRS_DCM::drift\l_correction_yaw">
<polygon fill="white" stroke="black" points="475,-378 475,-408 590,-408 590,-378 475,-378"/>
<text text-anchor="start" x="483" y="-396" font-family="Helvetica,sans-Serif" font-size="10.00">AP_AHRS_DCM::drift</text>
<text text-anchor="middle" x="532.5" y="-385" font-family="Helvetica,sans-Serif" font-size="10.00">_correction_yaw</text>
</a>
</g>
</g>
<!-- Node3&#45;&gt;Node4 -->
<g id="edge3" class="edge"><title>Node3&#45;&gt;Node4</title>
<path fill="none" stroke="midnightblue" d="M426.33,-393C442.81,-393 459.606,-393 474.798,-393"/>
<polygon fill="midnightblue" stroke="midnightblue" points="426.128,-389.5 416.128,-393 426.128,-396.5 426.128,-389.5"/>
</g>
<!-- Node5 -->
<g id="node5" class="node"><title>Node5</title>
<g id="a_node5"><a xlink:href="$classAP__AHRS__DCM.html#a8c3304b59bc6a27f24c686985c100549" xlink:title="AP_AHRS_DCM::drift\l_correction">
<polygon fill="white" stroke="black" points="658,-364 658,-394 773,-394 773,-364 658,-364"/>
<text text-anchor="start" x="666" y="-382" font-family="Helvetica,sans-Serif" font-size="10.00">AP_AHRS_DCM::drift</text>
<text text-anchor="middle" x="715.5" y="-371" font-family="Helvetica,sans-Serif" font-size="10.00">_correction</text>
</a>
</g>
</g>
<!-- Node3&#45;&gt;Node5 -->
<g id="edge16" class="edge"><title>Node3&#45;&gt;Node5</title>
<path fill="none" stroke="midnightblue" d="M381.715,-381.021C402.818,-375.904 428.531,-370.532 452,-368 523.143,-360.324 541.549,-364.14 613,-368 627.602,-368.789 643.333,-370.212 657.95,-371.778"/>
<polygon fill="midnightblue" stroke="midnightblue" points="380.614,-377.688 371.755,-383.499 382.304,-384.481 380.614,-377.688"/>
</g>
<!-- Node14 -->
<g id="node14" class="node"><title>Node14</title>
<g id="a_node14"><a xlink:href="$classAP__AHRS__DCM.html#a436f1fa2ecf028ab6bcf5e344e5fddb9" xlink:title="AP_AHRS_DCM::wind_estimate">
<polygon fill="white" stroke="black" points="452,-476.5 452,-495.5 613,-495.5 613,-476.5 452,-476.5"/>
<text text-anchor="middle" x="532.5" y="-483.5" font-family="Helvetica,sans-Serif" font-size="10.00">AP_AHRS_DCM::wind_estimate</text>
</a>
</g>
</g>
<!-- Node3&#45;&gt;Node14 -->
<g id="edge17" class="edge"><title>Node3&#45;&gt;Node14</title>
<path fill="none" stroke="midnightblue" d="M357.325,-408.825C379.266,-425.594 416.267,-451.716 452,-467 460.872,-470.795 470.64,-473.914 480.202,-476.449"/>
<polygon fill="midnightblue" stroke="midnightblue" points="359.467,-406.057 349.422,-402.689 355.174,-411.587 359.467,-406.057"/>
</g>
<!-- Node16 -->
<g id="node16" class="node"><title>Node16</title>
<g id="a_node16"><a xlink:href="$classAP__AHRS__NavEKF.html#a4c1d09f4fe08c39172f7e6baab40cad2" xlink:title="AP_AHRS_NavEKF::use\l_compass">
<polygon fill="white" stroke="black" points="468.5,-427 468.5,-457 596.5,-457 596.5,-427 468.5,-427"/>
<text text-anchor="start" x="476.5" y="-445" font-family="Helvetica,sans-Serif" font-size="10.00">AP_AHRS_NavEKF::use</text>
<text text-anchor="middle" x="532.5" y="-434" font-family="Helvetica,sans-Serif" font-size="10.00">_compass</text>
</a>
</g>
</g>
<!-- Node3&#45;&gt;Node16 -->
<g id="edge19" class="edge"><title>Node3&#45;&gt;Node16</title>
<path fill="none" stroke="midnightblue" d="M385.066,-405.014C411.279,-411.635 444.066,-419.916 471.966,-426.963"/>
<polygon fill="midnightblue" stroke="midnightblue" points="385.918,-401.62 375.366,-402.564 384.204,-408.406 385.918,-401.62"/>
</g>
<!-- Node4&#45;&gt;Node5 -->
<g id="edge4" class="edge"><title>Node4&#45;&gt;Node5</title>
<path fill="none" stroke="midnightblue" d="M600.315,-387.832C619.246,-386.368 639.665,-384.788 657.929,-383.376"/>
<polygon fill="midnightblue" stroke="midnightblue" points="599.973,-384.348 590.273,-388.609 600.513,-391.327 599.973,-384.348"/>
</g>
<!-- Node6 -->
<g id="node6" class="node"><title>Node6</title>
<g id="a_node6"><a xlink:href="$classAP__AHRS__DCM.html#aa8a135d6852e94f279c0be3c8206bfdd" xlink:title="AP_AHRS_DCM::update">
<polygon fill="white" stroke="black" points="821,-369.5 821,-388.5 949,-388.5 949,-369.5 821,-369.5"/>
<text text-anchor="middle" x="885" y="-376.5" font-family="Helvetica,sans-Serif" font-size="10.00">AP_AHRS_DCM::update</text>
</a>
</g>
</g>
<!-- Node5&#45;&gt;Node6 -->
<g id="edge5" class="edge"><title>Node5&#45;&gt;Node6</title>
<path fill="none" stroke="midnightblue" d="M783.404,-379C795.713,-379 808.529,-379 820.728,-379"/>
<polygon fill="midnightblue" stroke="midnightblue" points="783.208,-375.5 773.208,-379 783.208,-382.5 783.208,-375.5"/>
</g>
<!-- Node7 -->
<g id="node7" class="node"><title>Node7</title>
<g id="a_node7"><a xlink:href="$classAP__AHRS__DCM.html#a4bbf9d7f853103c8c497b90ae726b1ac" xlink:title="AP_AHRS_DCM::get_gyro\l_drift">
<polygon fill="white" stroke="black" points="988,-408 988,-438 1124,-438 1124,-408 988,-408"/>
<text text-anchor="start" x="996" y="-426" font-family="Helvetica,sans-Serif" font-size="10.00">AP_AHRS_DCM::get_gyro</text>
<text text-anchor="middle" x="1056" y="-415" font-family="Helvetica,sans-Serif" font-size="10.00">_drift</text>
</a>
</g>
</g>
<!-- Node6&#45;&gt;Node7 -->
<g id="edge6" class="edge"><title>Node6&#45;&gt;Node7</title>
<path fill="none" stroke="midnightblue" d="M932.465,-391.097C952.453,-396.301 976.029,-402.439 997.135,-407.935"/>
<polygon fill="midnightblue" stroke="midnightblue" points="933.23,-387.68 922.67,-388.547 931.466,-394.454 933.23,-387.68"/>
</g>
<!-- Node12 -->
<g id="node12" class="node"><title>Node12</title>
<g id="a_node12"><a xlink:href="$classAP__AHRS__NavEKF.html#a7ce0035d07be995b5f45ac6c711570ce" xlink:title="AP_AHRS_NavEKF::update_DCM">
<polygon fill="white" stroke="black" points="1160,-347.5 1160,-366.5 1330,-366.5 1330,-347.5 1160,-347.5"/>
<text text-anchor="middle" x="1245" y="-354.5" font-family="Helvetica,sans-Serif" font-size="10.00">AP_AHRS_NavEKF::update_DCM</text>
</a>
</g>
</g>
<!-- Node6&#45;&gt;Node12 -->
<g id="edge13" class="edge"><title>Node6&#45;&gt;Node12</title>
<path fill="none" stroke="midnightblue" d="M959.409,-374.489C1017.65,-370.91 1099.1,-365.905 1159.94,-362.165"/>
<polygon fill="midnightblue" stroke="midnightblue" points="958.946,-371.011 949.179,-375.117 959.375,-377.997 958.946,-371.011"/>
</g>
<!-- Node13 -->
<g id="node13" class="node"><title>Node13</title>
<g id="a_node13"><a xlink:href="$ModuleTest_8cpp.html#afe461d27b9c48d5921c00d521181f12f" xlink:title="loop">
<polygon fill="white" stroke="black" points="1038.5,-331.5 1038.5,-350.5 1073.5,-350.5 1073.5,-331.5 1038.5,-331.5"/>
<text text-anchor="middle" x="1056" y="-338.5" font-family="Helvetica,sans-Serif" font-size="10.00">loop</text>
</a>
</g>
</g>
<!-- Node6&#45;&gt;Node13 -->
<g id="edge15" class="edge"><title>Node6&#45;&gt;Node13</title>
<path fill="none" stroke="midnightblue" d="M938.534,-367.188C972.826,-359.477 1015.36,-349.914 1038.35,-344.743"/>
<polygon fill="midnightblue" stroke="midnightblue" points="937.634,-363.802 928.646,-369.411 939.17,-370.632 937.634,-363.802"/>
</g>
<!-- Node8 -->
<g id="node8" class="node"><title>Node8</title>
<g id="a_node8"><a xlink:href="$classAP__AHRS__NavEKF.html#a355d8890ddfaadaa9d8f694f780afbe6" xlink:title="AP_AHRS_NavEKF::get\l_gyro_drift">
<polygon fill="white" stroke="black" points="1182,-408 1182,-438 1308,-438 1308,-408 1182,-408"/>
<text text-anchor="start" x="1190" y="-426" font-family="Helvetica,sans-Serif" font-size="10.00">AP_AHRS_NavEKF::get</text>
<text text-anchor="middle" x="1245" y="-415" font-family="Helvetica,sans-Serif" font-size="10.00">_gyro_drift</text>
</a>
</g>
</g>
<!-- Node7&#45;&gt;Node8 -->
<g id="edge7" class="edge"><title>Node7&#45;&gt;Node8</title>
<path fill="none" stroke="midnightblue" d="M1134.48,-423C1150.22,-423 1166.58,-423 1181.71,-423"/>
<polygon fill="midnightblue" stroke="midnightblue" points="1134.25,-419.5 1124.25,-423 1134.25,-426.5 1134.25,-419.5"/>
</g>
<!-- Node9 -->
<g id="node9" class="node"><title>Node9</title>
<g id="a_node9"><a xlink:href="$classAP__AHRS__NavEKF.html#ac8111979c5dc37a55b2c50818534ea52" xlink:title="AP_AHRS_NavEKF::update">
<polygon fill="white" stroke="black" points="1516,-400.5 1516,-419.5 1658,-419.5 1658,-400.5 1516,-400.5"/>
<text text-anchor="middle" x="1587" y="-407.5" font-family="Helvetica,sans-Serif" font-size="10.00">AP_AHRS_NavEKF::update</text>
</a>
</g>
</g>
<!-- Node8&#45;&gt;Node9 -->
<g id="edge8" class="edge"><title>Node8&#45;&gt;Node9</title>
<path fill="none" stroke="midnightblue" d="M1318.31,-420.77C1364.56,-419.284 1425.82,-417.204 1480,-415 1491.6,-414.528 1503.91,-413.986 1515.87,-413.436"/>
<polygon fill="midnightblue" stroke="midnightblue" points="1317.97,-417.279 1308.09,-421.097 1318.19,-424.275 1317.97,-417.279"/>
</g>
<!-- Node10 -->
<g id="node10" class="node"><title>Node10</title>
<g id="a_node10"><a xlink:href="$AHRS__Test_8cpp.html#afe461d27b9c48d5921c00d521181f12f" xlink:title="loop">
<polygon fill="white" stroke="black" points="1694,-441.5 1694,-460.5 1729,-460.5 1729,-441.5 1694,-441.5"/>
<text text-anchor="middle" x="1711.5" y="-448.5" font-family="Helvetica,sans-Serif" font-size="10.00">loop</text>
</a>
</g>
</g>
<!-- Node8&#45;&gt;Node10 -->
<g id="edge10" class="edge"><title>Node8&#45;&gt;Node10</title>
<path fill="none" stroke="midnightblue" d="M1318.44,-427.93C1334.12,-428.969 1350.61,-430.041 1366,-431 1491.87,-438.849 1643.66,-447.312 1693.65,-450.073"/>
<polygon fill="midnightblue" stroke="midnightblue" points="1318.49,-424.425 1308.28,-427.254 1318.02,-431.41 1318.49,-424.425"/>
</g>
<!-- Node11 -->
<g id="node11" class="node"><title>Node11</title>
<g id="a_node11"><a xlink:href="$classAP__Module.html#a9b4f06b2556a122f11b92b7b29d462c4" xlink:title="AP_Module::call_hook\l_AHRS_update">
<polygon fill="white" stroke="black" points="1366,-375 1366,-405 1480,-405 1480,-375 1366,-375"/>
<text text-anchor="start" x="1374" y="-393" font-family="Helvetica,sans-Serif" font-size="10.00">AP_Module::call_hook</text>
<text text-anchor="middle" x="1423" y="-382" font-family="Helvetica,sans-Serif" font-size="10.00">_AHRS_update</text>
</a>
</g>
</g>
<!-- Node8&#45;&gt;Node11 -->
<g id="edge11" class="edge"><title>Node8&#45;&gt;Node11</title>
<path fill="none" stroke="midnightblue" d="M1317.88,-409.522C1333.85,-406.528 1350.56,-403.396 1365.79,-400.539"/>
<polygon fill="midnightblue" stroke="midnightblue" points="1317.23,-406.082 1308.05,-411.365 1318.52,-412.963 1317.23,-406.082"/>
</g>
<!-- Node9&#45;&gt;Node10 -->
<g id="edge9" class="edge"><title>Node9&#45;&gt;Node10</title>
<path fill="none" stroke="midnightblue" d="M1626.13,-422.763C1648.88,-430.376 1676.61,-439.657 1693.92,-445.449"/>
<polygon fill="midnightblue" stroke="midnightblue" points="1627.01,-419.364 1616.41,-419.509 1624.78,-426.002 1627.01,-419.364"/>
</g>
<!-- Node11&#45;&gt;Node9 -->
<g id="edge12" class="edge"><title>Node11&#45;&gt;Node9</title>
<path fill="none" stroke="midnightblue" d="M1490.35,-398.191C1498.78,-399.232 1507.42,-400.299 1515.91,-401.347"/>
<polygon fill="midnightblue" stroke="midnightblue" points="1490.56,-394.691 1480.21,-396.939 1489.7,-401.638 1490.56,-394.691"/>
</g>
<!-- Node12&#45;&gt;Node9 -->
<g id="edge14" class="edge"><title>Node12&#45;&gt;Node9</title>
<path fill="none" stroke="midnightblue" d="M1340.24,-352.41C1383.31,-352.299 1434.71,-354.977 1480,-365 1512.99,-372.302 1548.62,-389.574 1569.02,-400.471"/>
<polygon fill="midnightblue" stroke="midnightblue" points="1340.02,-348.912 1330.05,-352.489 1340.08,-355.912 1340.02,-348.912"/>
</g>
<!-- Node15 -->
<g id="node15" class="node"><title>Node15</title>
<g id="a_node15"><a xlink:href="$classAP__AHRS__NavEKF.html#a26168a6f7f3da768ae76083b5edc05b0" xlink:title="AP_AHRS_NavEKF::wind\l_estimate">
<polygon fill="white" stroke="black" points="649,-471 649,-501 782,-501 782,-471 649,-471"/>
<text text-anchor="start" x="657" y="-489" font-family="Helvetica,sans-Serif" font-size="10.00">AP_AHRS_NavEKF::wind</text>
<text text-anchor="middle" x="715.5" y="-478" font-family="Helvetica,sans-Serif" font-size="10.00">_estimate</text>
</a>
</g>
</g>
<!-- Node14&#45;&gt;Node15 -->
<g id="edge18" class="edge"><title>Node14&#45;&gt;Node15</title>
<path fill="none" stroke="midnightblue" d="M623.278,-486C631.922,-486 640.575,-486 648.922,-486"/>
<polygon fill="midnightblue" stroke="midnightblue" points="623.153,-482.5 613.153,-486 623.153,-489.5 623.153,-482.5"/>
</g>
<!-- Node17&#45;&gt;Node18 -->
<g id="edge21" class="edge"><title>Node17&#45;&gt;Node18</title>
<path fill="none" stroke="midnightblue" d="M397.601,-331.918C420.393,-327.336 446.379,-322.112 469.355,-317.493"/>
<polygon fill="midnightblue" stroke="midnightblue" points="396.826,-328.504 387.712,-333.906 398.206,-335.366 396.826,-328.504"/>
</g>
<!-- Node19 -->
<g id="node19" class="node"><title>Node19</title>
<g id="a_node19"><a xlink:href="$classAP__L1__Control.html#a9052f01ea019fb51432d3104cce0b6e8" xlink:title="AP_L1_Control::update\l_waypoint">
<polygon fill="white" stroke="black" points="656.5,-301 656.5,-331 774.5,-331 774.5,-301 656.5,-301"/>
<text text-anchor="start" x="664.5" y="-319" font-family="Helvetica,sans-Serif" font-size="10.00">AP_L1_Control::update</text>
<text text-anchor="middle" x="715.5" y="-308" font-family="Helvetica,sans-Serif" font-size="10.00">_waypoint</text>
</a>
</g>
</g>
<!-- Node18&#45;&gt;Node19 -->
<g id="edge22" class="edge"><title>Node18&#45;&gt;Node19</title>
<path fill="none" stroke="midnightblue" d="M605.823,-309.395C622.557,-310.412 640.157,-311.482 656.203,-312.457"/>
<polygon fill="midnightblue" stroke="midnightblue" points="605.731,-305.883 595.537,-308.77 605.306,-312.87 605.731,-305.883"/>
</g>
<!-- Node21 -->
<g id="node21" class="node"><title>Node21</title>
<g id="a_node21"><a xlink:href="$classAP__L1__Control.html#acc0860ec530ec9c9bec50a5701bb709e" xlink:title="AP_L1_Control::update\l_loiter">
<polygon fill="white" stroke="black" points="656.5,-252 656.5,-282 774.5,-282 774.5,-252 656.5,-252"/>
<text text-anchor="start" x="664.5" y="-270" font-family="Helvetica,sans-Serif" font-size="10.00">AP_L1_Control::update</text>
<text text-anchor="middle" x="715.5" y="-259" font-family="Helvetica,sans-Serif" font-size="10.00">_loiter</text>
</a>
</g>
</g>
<!-- Node18&#45;&gt;Node21 -->
<g id="edge24" class="edge"><title>Node18&#45;&gt;Node21</title>
<path fill="none" stroke="midnightblue" d="M605.35,-289.916C622.225,-286.373 640.005,-282.64 656.203,-279.239"/>
<polygon fill="midnightblue" stroke="midnightblue" points="604.604,-286.496 595.537,-291.976 606.043,-293.346 604.604,-286.496"/>
</g>
<!-- Node20 -->
<g id="node20" class="node"><title>Node20</title>
<g id="a_node20"><a xlink:href="$classAP__L1__Control.html#ae79ea97f3deaed8c09b32abe9f465c94" xlink:title="AP_L1_Control::crosstrack\l_error_integrator">
<polygon fill="white" stroke="black" points="818,-227 818,-257 952,-257 952,-227 818,-227"/>
<text text-anchor="start" x="826" y="-245" font-family="Helvetica,sans-Serif" font-size="10.00">AP_L1_Control::crosstrack</text>
<text text-anchor="middle" x="885" y="-234" font-family="Helvetica,sans-Serif" font-size="10.00">_error_integrator</text>
</a>
</g>
</g>
<!-- Node19&#45;&gt;Node20 -->
<g id="edge23" class="edge"><title>Node19&#45;&gt;Node20</title>
<path fill="none" stroke="midnightblue" d="M767.213,-297.126C772.232,-295.114 777.231,-293.052 782,-291 806.724,-280.365 834.198,-267.079 854.397,-257.026"/>
<polygon fill="midnightblue" stroke="midnightblue" points="765.612,-293.995 757.591,-300.917 768.178,-300.507 765.612,-293.995"/>
</g>
<!-- Node21&#45;&gt;Node20 -->
<g id="edge25" class="edge"><title>Node21&#45;&gt;Node20</title>
<path fill="none" stroke="midnightblue" d="M784.597,-256.836C795.608,-255.193 806.993,-253.494 817.954,-251.858"/>
<polygon fill="midnightblue" stroke="midnightblue" points="783.987,-253.388 774.613,-258.326 785.02,-260.312 783.987,-253.388"/>
</g>
<!-- Node23 -->
<g id="node23" class="node"><title>Node23</title>
<g id="a_node23"><a xlink:href="$classAP__L1__Control.html#a388f3d9e1ed09a5bd2444d4032d66239" xlink:title="AP_L1_Control::AP_L1\l_Control">
<polygon fill="white" stroke="black" points="473.5,-241 473.5,-271 591.5,-271 591.5,-241 473.5,-241"/>
<text text-anchor="start" x="481.5" y="-259" font-family="Helvetica,sans-Serif" font-size="10.00">AP_L1_Control::AP_L1</text>
<text text-anchor="middle" x="532.5" y="-248" font-family="Helvetica,sans-Serif" font-size="10.00">_Control</text>
</a>
</g>
</g>
<!-- Node22&#45;&gt;Node23 -->
<g id="edge27" class="edge"><title>Node22&#45;&gt;Node23</title>
<path fill="none" stroke="midnightblue" d="M398.739,-256C422.633,-256 449.894,-256 473.47,-256"/>
<polygon fill="midnightblue" stroke="midnightblue" points="398.725,-252.5 388.725,-256 398.725,-259.5 398.725,-252.5"/>
</g>
<!-- Node24&#45;&gt;Node20 -->
<g id="edge29" class="edge"><title>Node24&#45;&gt;Node20</title>
<path fill="none" stroke="midnightblue" d="M782.344,-227.434C793.971,-229.1 806.08,-230.835 817.719,-232.503"/>
<polygon fill="midnightblue" stroke="midnightblue" points="782.67,-223.945 772.275,-225.992 781.678,-230.875 782.67,-223.945"/>
</g>
<!-- Node25&#45;&gt;Node20 -->
<g id="edge32" class="edge"><title>Node25&#45;&gt;Node20</title>
<path fill="none" stroke="midnightblue" d="M769.024,-187.734C773.434,-189.462 777.807,-191.23 782,-193 806.795,-203.469 834.264,-216.766 854.443,-226.866"/>
<polygon fill="midnightblue" stroke="midnightblue" points="769.956,-184.343 759.366,-184.03 767.449,-190.879 769.956,-184.343"/>
</g>
<!-- Node27 -->
<g id="node27" class="node"><title>Node27</title>
<g id="a_node27"><a xlink:href="$classAP__Landing.html#afdbc34de818b9cb366336c23660fd495" xlink:title="AP_Landing::verify_land">
<polygon fill="white" stroke="black" points="471.5,-120.5 471.5,-139.5 593.5,-139.5 593.5,-120.5 471.5,-120.5"/>
<text text-anchor="middle" x="532.5" y="-127.5" font-family="Helvetica,sans-Serif" font-size="10.00">AP_Landing::verify_land</text>
</a>
</g>
</g>
<!-- Node26&#45;&gt;Node27 -->
<g id="edge34" class="edge"><title>Node26&#45;&gt;Node27</title>
<path fill="none" stroke="midnightblue" d="M404.763,-130C426.421,-130 450.269,-130 471.38,-130"/>
<polygon fill="midnightblue" stroke="midnightblue" points="404.657,-126.5 394.657,-130 404.657,-133.5 404.657,-126.5"/>
</g>
<!-- Node30 -->
<g id="node30" class="node"><title>Node30</title>
<g id="a_node30"><a xlink:href="$examples_2location_2location_8cpp.html#a4fc01d736fe50cf5b977f755b675f11d" xlink:title="setup">
<polygon fill="white" stroke="black" points="512,-38.5 512,-57.5 553,-57.5 553,-38.5 512,-38.5"/>
<text text-anchor="middle" x="532.5" y="-45.5" font-family="Helvetica,sans-Serif" font-size="10.00">setup</text>
</a>
</g>
</g>
<!-- Node29&#45;&gt;Node30 -->
<g id="edge37" class="edge"><title>Node29&#45;&gt;Node30</title>
<path fill="none" stroke="midnightblue" d="M384.694,-48C425.446,-48 482.293,-48 511.867,-48"/>
<polygon fill="midnightblue" stroke="midnightblue" points="384.447,-44.5001 374.447,-48 384.447,-51.5001 384.447,-44.5001"/>
</g>
</g>
</svg>
