<?xml version="1.0" encoding="UTF-8" standalone="no"?>
<!DOCTYPE svg PUBLIC "-//W3C//DTD SVG 1.1//EN"
 "http://www.w3.org/Graphics/SVG/1.1/DTD/svg11.dtd">
<!-- Generated by graphviz version 2.38.0 (20140413.2041)
 -->
<!-- Title: rand_vec3f Pages: 1 -->
<svg width="405pt" height="72pt"
 viewBox="0.00 0.00 405.00 71.50" xmlns="http://www.w3.org/2000/svg" xmlns:xlink="http://www.w3.org/1999/xlink">
<g id="graph0" class="graph" transform="scale(1 1) rotate(0) translate(4 67.5)">
<title>rand_vec3f</title>
<polygon fill="white" stroke="none" points="-4,4 -4,-67.5 401,-67.5 401,4 -4,4"/>
<!-- Node1 -->
<g id="node1" class="node"><title>Node1</title>
<polygon fill="#bfbfbf" stroke="black" points="0,-19.5 0,-38.5 65,-38.5 65,-19.5 0,-19.5"/>
<text text-anchor="middle" x="32.5" y="-26.5" font-family="Helvetica,sans-Serif" font-size="10.00">rand_vec3f</text>
</g>
<!-- Node2 -->
<g id="node2" class="node"><title>Node2</title>
<g id="a_node2"><a xlink:href="$classAP__Compass__SITL.html#a3f5d4867cc2b98a8150eed773c70f28d" xlink:title="AP_Compass_SITL::_timer">
<polygon fill="white" stroke="black" points="101,-38.5 101,-57.5 238,-57.5 238,-38.5 101,-38.5"/>
<text text-anchor="middle" x="169.5" y="-45.5" font-family="Helvetica,sans-Serif" font-size="10.00">AP_Compass_SITL::_timer</text>
</a>
</g>
</g>
<!-- Node1&#45;&gt;Node2 -->
<g id="edge1" class="edge"><title>Node1&#45;&gt;Node2</title>
<path fill="none" stroke="midnightblue" d="M75.1377,-34.8601C83.3082,-36.01 92.0743,-37.2438 100.844,-38.478"/>
<polygon fill="midnightblue" stroke="midnightblue" points="75.5417,-31.3826 65.1515,-33.4547 74.5661,-38.3143 75.5417,-31.3826"/>
</g>
<!-- Node4 -->
<g id="node4" class="node"><title>Node4</title>
<g id="a_node4"><a xlink:href="$AP__Math_8h.html#aa0be5300072748654c9e37d66d08f593" xlink:title="usec_to_hz">
<polygon fill="white" stroke="black" points="136,-0.5 136,-19.5 203,-19.5 203,-0.5 136,-0.5"/>
<text text-anchor="middle" x="169.5" y="-7.5" font-family="Helvetica,sans-Serif" font-size="10.00">usec_to_hz</text>
</a>
</g>
</g>
<!-- Node1&#45;&gt;Node4 -->
<g id="edge3" class="edge"><title>Node1&#45;&gt;Node4</title>
<path fill="none" stroke="midnightblue" d="M75.2561,-23.1232C94.6843,-20.3889 117.459,-17.1835 135.637,-14.6251"/>
<polygon fill="midnightblue" stroke="midnightblue" points="74.5661,-19.6857 65.1515,-24.5453 75.5417,-26.6174 74.5661,-19.6857"/>
</g>
<!-- Node3 -->
<g id="node3" class="node"><title>Node3</title>
<g id="a_node3"><a xlink:href="$classAP__Compass__SITL.html#aa94d46745ebe99b17efa0a58dfaf4fa9" xlink:title="AP_Compass_SITL::AP\l_Compass_SITL">
<polygon fill="white" stroke="black" points="274,-33 274,-63 397,-63 397,-33 274,-33"/>
<text text-anchor="start" x="282" y="-51" font-family="Helvetica,sans-Serif" font-size="10.00">AP_Compass_SITL::AP</text>
<text text-anchor="middle" x="335.5" y="-40" font-family="Helvetica,sans-Serif" font-size="10.00">_Compass_SITL</text>
</a>
</g>
</g>
<!-- Node2&#45;&gt;Node3 -->
<g id="edge2" class="edge"><title>Node2&#45;&gt;Node3</title>
<path fill="none" stroke="midnightblue" d="M248.203,-48C256.808,-48 265.477,-48 273.829,-48"/>
<polygon fill="midnightblue" stroke="midnightblue" points="248.152,-44.5001 238.152,-48 248.152,-51.5001 248.152,-44.5001"/>
</g>
</g>
</svg>
