<?xml version="1.0" encoding="UTF-8" standalone="no"?>
<!DOCTYPE svg PUBLIC "-//W3C//DTD SVG 1.1//EN"
 "http://www.w3.org/Graphics/SVG/1.1/DTD/svg11.dtd">
<!-- Generated by graphviz version 2.38.0 (20140413.2041)
 -->
<!-- Title: libraries/AP_BattMonitor/AP_BattMonitor_SMBus.h Pages: 1 -->
<svg width="657pt" height="173pt"
 viewBox="0.00 0.00 656.50 173.00" xmlns="http://www.w3.org/2000/svg" xmlns:xlink="http://www.w3.org/1999/xlink">
<g id="graph0" class="graph" transform="scale(1 1) rotate(0) translate(4 169)">
<title>libraries/AP_BattMonitor/AP_BattMonitor_SMBus.h</title>
<polygon fill="white" stroke="none" points="-4,4 -4,-169 652.5,-169 652.5,4 -4,4"/>
<!-- Node1 -->
<g id="node1" class="node"><title>Node1</title>
<polygon fill="#bfbfbf" stroke="black" points="243,-134.5 243,-164.5 377,-164.5 377,-134.5 243,-134.5"/>
<text text-anchor="start" x="251" y="-152.5" font-family="Helvetica,sans-Serif" font-size="10.00">libraries/AP_BattMonitor</text>
<text text-anchor="middle" x="310" y="-141.5" font-family="Helvetica,sans-Serif" font-size="10.00">/AP_BattMonitor_SMBus.h</text>
</g>
<!-- Node2 -->
<g id="node2" class="node"><title>Node2</title>
<g id="a_node2"><a xlink:href="$AP__BattMonitor_8cpp.html" xlink:title="libraries/AP_BattMonitor\l/AP_BattMonitor.cpp">
<polygon fill="white" stroke="black" points="0,-67.5 0,-97.5 122,-97.5 122,-67.5 0,-67.5"/>
<text text-anchor="start" x="8" y="-85.5" font-family="Helvetica,sans-Serif" font-size="10.00">libraries/AP_BattMonitor</text>
<text text-anchor="middle" x="61" y="-74.5" font-family="Helvetica,sans-Serif" font-size="10.00">/AP_BattMonitor.cpp</text>
</a>
</g>
</g>
<!-- Node1&#45;&gt;Node2 -->
<g id="edge1" class="edge"><title>Node1&#45;&gt;Node2</title>
<path fill="none" stroke="midnightblue" d="M246.475,-131.917C205.841,-121.31 153.7,-107.699 115.056,-97.6109"/>
<polygon fill="midnightblue" stroke="midnightblue" points="245.717,-135.337 256.277,-134.476 247.486,-128.564 245.717,-135.337"/>
</g>
<!-- Node3 -->
<g id="node3" class="node"><title>Node3</title>
<g id="a_node3"><a xlink:href="$AP__BattMonitor__SMBus__Solo_8h.html" xlink:title="libraries/AP_BattMonitor\l/AP_BattMonitor_SMBus_Solo.h">
<polygon fill="white" stroke="black" points="140.5,-67.5 140.5,-97.5 299.5,-97.5 299.5,-67.5 140.5,-67.5"/>
<text text-anchor="start" x="148.5" y="-85.5" font-family="Helvetica,sans-Serif" font-size="10.00">libraries/AP_BattMonitor</text>
<text text-anchor="middle" x="220" y="-74.5" font-family="Helvetica,sans-Serif" font-size="10.00">/AP_BattMonitor_SMBus_Solo.h</text>
</a>
</g>
</g>
<!-- Node1&#45;&gt;Node3 -->
<g id="edge2" class="edge"><title>Node1&#45;&gt;Node3</title>
<path fill="none" stroke="midnightblue" d="M276.365,-128.734C261.635,-118.676 245.23,-106.685 233.816,-97.5765"/>
<polygon fill="midnightblue" stroke="midnightblue" points="274.54,-131.725 284.793,-134.396 278.444,-125.914 274.54,-131.725"/>
</g>
<!-- Node5 -->
<g id="node5" class="node"><title>Node5</title>
<g id="a_node5"><a xlink:href="$AP__BattMonitor__SMBus__Maxell_8h.html" xlink:title="libraries/AP_BattMonitor\l/AP_BattMonitor_SMBus_Maxell.h">
<polygon fill="white" stroke="black" points="317,-67.5 317,-97.5 485,-97.5 485,-67.5 317,-67.5"/>
<text text-anchor="start" x="325" y="-85.5" font-family="Helvetica,sans-Serif" font-size="10.00">libraries/AP_BattMonitor</text>
<text text-anchor="middle" x="401" y="-74.5" font-family="Helvetica,sans-Serif" font-size="10.00">/AP_BattMonitor_SMBus_Maxell.h</text>
</a>
</g>
</g>
<!-- Node1&#45;&gt;Node5 -->
<g id="edge5" class="edge"><title>Node1&#45;&gt;Node5</title>
<path fill="none" stroke="midnightblue" d="M332.155,-128.168C345.319,-118.228 361.93,-106.514 375.618,-97.5765"/>
<polygon fill="midnightblue" stroke="midnightblue" points="329.855,-125.521 324.067,-134.396 334.126,-131.067 329.855,-125.521"/>
</g>
<!-- Node7 -->
<g id="node7" class="node"><title>Node7</title>
<g id="a_node7"><a xlink:href="$AP__BattMonitor__SMBus_8cpp.html" xlink:title="libraries/AP_BattMonitor\l/AP_BattMonitor_SMBus.cpp">
<polygon fill="white" stroke="black" points="503.5,-67.5 503.5,-97.5 648.5,-97.5 648.5,-67.5 503.5,-67.5"/>
<text text-anchor="start" x="511.5" y="-85.5" font-family="Helvetica,sans-Serif" font-size="10.00">libraries/AP_BattMonitor</text>
<text text-anchor="middle" x="576" y="-74.5" font-family="Helvetica,sans-Serif" font-size="10.00">/AP_BattMonitor_SMBus.cpp</text>
</a>
</g>
</g>
<!-- Node1&#45;&gt;Node7 -->
<g id="edge8" class="edge"><title>Node1&#45;&gt;Node7</title>
<path fill="none" stroke="midnightblue" d="M377.312,-132.052C420.799,-121.425 476.797,-107.741 518.254,-97.6109"/>
<polygon fill="midnightblue" stroke="midnightblue" points="376.274,-128.702 367.391,-134.476 377.936,-135.502 376.274,-128.702"/>
</g>
<!-- Node3&#45;&gt;Node1 -->
<g id="edge3" class="edge"><title>Node3&#45;&gt;Node1</title>
<path fill="none" stroke="midnightblue" d="M253.591,-103.236C268.317,-113.29 284.726,-125.282 296.15,-134.396"/>
<polygon fill="midnightblue" stroke="midnightblue" points="255.418,-100.247 245.165,-97.5765 251.515,-106.058 255.418,-100.247"/>
</g>
<!-- Node4 -->
<g id="node4" class="node"><title>Node4</title>
<g id="a_node4"><a xlink:href="$AP__BattMonitor__SMBus__Solo_8cpp.html" xlink:title="libraries/AP_BattMonitor\l/AP_BattMonitor_SMBus_Solo.cpp">
<polygon fill="white" stroke="black" points="129,-0.5 129,-30.5 299,-30.5 299,-0.5 129,-0.5"/>
<text text-anchor="start" x="137" y="-18.5" font-family="Helvetica,sans-Serif" font-size="10.00">libraries/AP_BattMonitor</text>
<text text-anchor="middle" x="214" y="-7.5" font-family="Helvetica,sans-Serif" font-size="10.00">/AP_BattMonitor_SMBus_Solo.cpp</text>
</a>
</g>
</g>
<!-- Node3&#45;&gt;Node4 -->
<g id="edge4" class="edge"><title>Node3&#45;&gt;Node4</title>
<path fill="none" stroke="midnightblue" d="M217.776,-57.4029C216.942,-48.3703 216.022,-38.4078 215.299,-30.5765"/>
<polygon fill="midnightblue" stroke="midnightblue" points="214.294,-57.76 218.698,-67.396 221.264,-57.1166 214.294,-57.76"/>
</g>
<!-- Node5&#45;&gt;Node1 -->
<g id="edge6" class="edge"><title>Node5&#45;&gt;Node1</title>
<path fill="none" stroke="midnightblue" d="M378.886,-103.802C365.729,-113.737 349.118,-125.452 335.424,-134.396"/>
<polygon fill="midnightblue" stroke="midnightblue" points="381.181,-106.452 386.968,-97.5765 376.91,-100.906 381.181,-106.452"/>
</g>
<!-- Node6 -->
<g id="node6" class="node"><title>Node6</title>
<g id="a_node6"><a xlink:href="$AP__BattMonitor__SMBus__Maxell_8cpp.html" xlink:title="libraries/AP_BattMonitor\l/AP_BattMonitor_SMBus_Maxell.cpp">
<polygon fill="white" stroke="black" points="317.5,-0.5 317.5,-30.5 496.5,-30.5 496.5,-0.5 317.5,-0.5"/>
<text text-anchor="start" x="325.5" y="-18.5" font-family="Helvetica,sans-Serif" font-size="10.00">libraries/AP_BattMonitor</text>
<text text-anchor="middle" x="407" y="-7.5" font-family="Helvetica,sans-Serif" font-size="10.00">/AP_BattMonitor_SMBus_Maxell.cpp</text>
</a>
</g>
</g>
<!-- Node5&#45;&gt;Node6 -->
<g id="edge7" class="edge"><title>Node5&#45;&gt;Node6</title>
<path fill="none" stroke="midnightblue" d="M403.224,-57.4029C404.058,-48.3703 404.978,-38.4078 405.701,-30.5765"/>
<polygon fill="midnightblue" stroke="midnightblue" points="399.736,-57.1166 402.302,-67.396 406.706,-57.76 399.736,-57.1166"/>
</g>
</g>
</svg>
