<?xml version="1.0" encoding="UTF-8" standalone="no"?>
<!DOCTYPE svg PUBLIC "-//W3C//DTD SVG 1.1//EN"
 "http://www.w3.org/Graphics/SVG/1.1/DTD/svg11.dtd">
<!-- Generated by graphviz version 2.38.0 (20140413.2041)
 -->
<!-- Title: wrap_180_cd&lt; double &gt; Pages: 1 -->
<svg width="1747pt" height="510pt"
 viewBox="0.00 0.00 1747.00 509.50" xmlns="http://www.w3.org/2000/svg" xmlns:xlink="http://www.w3.org/1999/xlink">
<g id="graph0" class="graph" transform="scale(1 1) rotate(0) translate(4 505.5)">
<title>wrap_180_cd&lt; double &gt;</title>
<polygon fill="white" stroke="none" points="-4,4 -4,-505.5 1743,-505.5 1743,4 -4,4"/>
<!-- Node1 -->
<g id="node1" class="node"><title>Node1</title>
<polygon fill="#bfbfbf" stroke="black" points="0,-183.5 0,-202.5 121,-202.5 121,-183.5 0,-183.5"/>
<text text-anchor="middle" x="60.5" y="-190.5" font-family="Helvetica,sans-Serif" font-size="10.00">wrap_180_cd&lt; double &gt;</text>
</g>
<!-- Node2 -->
<g id="node2" class="node"><title>Node2</title>
<g id="a_node2"><a xlink:href="$AP__Math_8h.html#a4e136782e86e2adaaf7f0f759067dfe1" xlink:title="wrap_180_cd">
<polygon fill="white" stroke="black" points="157,-183.5 157,-202.5 231,-202.5 231,-183.5 157,-183.5"/>
<text text-anchor="middle" x="194" y="-190.5" font-family="Helvetica,sans-Serif" font-size="10.00">wrap_180_cd</text>
</a>
</g>
</g>
<!-- Node1&#45;&gt;Node2 -->
<g id="edge1" class="edge"><title>Node1&#45;&gt;Node2</title>
<path fill="none" stroke="midnightblue" d="M131.157,-193C140.065,-193 148.878,-193 156.937,-193"/>
<polygon fill="midnightblue" stroke="midnightblue" points="131.094,-189.5 121.094,-193 131.094,-196.5 131.094,-189.5"/>
</g>
<!-- Node3 -->
<g id="node3" class="node"><title>Node3</title>
<g id="a_node3"><a xlink:href="$classAP__AHRS__DCM.html#a9e233265c2dacd046aa91ff34cc7f8a6" xlink:title="AP_AHRS_DCM::use_compass">
<polygon fill="white" stroke="black" points="267,-383.5 267,-402.5 426,-402.5 426,-383.5 267,-383.5"/>
<text text-anchor="middle" x="346.5" y="-390.5" font-family="Helvetica,sans-Serif" font-size="10.00">AP_AHRS_DCM::use_compass</text>
</a>
</g>
</g>
<!-- Node2&#45;&gt;Node3 -->
<g id="edge2" class="edge"><title>Node2&#45;&gt;Node3</title>
<path fill="none" stroke="midnightblue" d="M197.615,-212.726C203.43,-248.758 220.777,-325.42 267,-368 274.469,-374.88 283.833,-379.867 293.467,-383.482"/>
<polygon fill="midnightblue" stroke="midnightblue" points="201.035,-211.93 196.11,-202.55 194.111,-212.954 201.035,-211.93"/>
</g>
<!-- Node17 -->
<g id="node17" class="node"><title>Node17</title>
<g id="a_node17"><a xlink:href="$classAP__L1__Control.html#ac558013977299a03d6c8cdd61559561d" xlink:title="AP_L1_Control::get\l_yaw_sensor">
<polygon fill="white" stroke="black" points="295.5,-329 295.5,-359 397.5,-359 397.5,-329 295.5,-329"/>
<text text-anchor="start" x="303.5" y="-347" font-family="Helvetica,sans-Serif" font-size="10.00">AP_L1_Control::get</text>
<text text-anchor="middle" x="346.5" y="-336" font-family="Helvetica,sans-Serif" font-size="10.00">_yaw_sensor</text>
</a>
</g>
</g>
<!-- Node2&#45;&gt;Node17 -->
<g id="edge20" class="edge"><title>Node2&#45;&gt;Node17</title>
<path fill="none" stroke="midnightblue" d="M201.787,-212.257C212.016,-238.676 233.794,-286.057 267,-314 275.261,-320.951 285.305,-326.391 295.411,-330.611"/>
<polygon fill="midnightblue" stroke="midnightblue" points="204.977,-210.794 198.216,-202.636 198.414,-213.229 204.977,-210.794"/>
</g>
<!-- Node18 -->
<g id="node18" class="node"><title>Node18</title>
<g id="a_node18"><a xlink:href="$classAP__L1__Control.html#aaa154ba9c5957f90785c34ee554eca1c" xlink:title="AP_L1_Control::_prevent\l_indecision">
<polygon fill="white" stroke="black" points="479.5,-290 479.5,-320 605.5,-320 605.5,-290 479.5,-290"/>
<text text-anchor="start" x="487.5" y="-308" font-family="Helvetica,sans-Serif" font-size="10.00">AP_L1_Control::_prevent</text>
<text text-anchor="middle" x="542.5" y="-297" font-family="Helvetica,sans-Serif" font-size="10.00">_indecision</text>
</a>
</g>
</g>
<!-- Node2&#45;&gt;Node18 -->
<g id="edge30" class="edge"><title>Node2&#45;&gt;Node18</title>
<path fill="none" stroke="midnightblue" d="M204.454,-211.521C216.097,-232.176 237.954,-264.688 267,-280 333.249,-314.924 421.085,-316.491 479.356,-312.433"/>
<polygon fill="midnightblue" stroke="midnightblue" points="207.532,-209.855 199.703,-202.716 201.372,-213.179 207.532,-209.855"/>
</g>
<!-- Node22 -->
<g id="node22" class="node"><title>Node22</title>
<g id="a_node22"><a xlink:href="$classAP__L1__Control.html#af3e0818f4392d15406c730563d021ec5" xlink:title="AP_L1_Control::nav\l_bearing_cd">
<polygon fill="white" stroke="black" points="294.5,-241 294.5,-271 398.5,-271 398.5,-241 294.5,-241"/>
<text text-anchor="start" x="302.5" y="-259" font-family="Helvetica,sans-Serif" font-size="10.00">AP_L1_Control::nav</text>
<text text-anchor="middle" x="346.5" y="-248" font-family="Helvetica,sans-Serif" font-size="10.00">_bearing_cd</text>
</a>
</g>
</g>
<!-- Node2&#45;&gt;Node22 -->
<g id="edge26" class="edge"><title>Node2&#45;&gt;Node22</title>
<path fill="none" stroke="midnightblue" d="M224.388,-206.991C237.365,-213.033 252.855,-220.063 267,-226 279.108,-231.082 292.404,-236.298 304.558,-240.927"/>
<polygon fill="midnightblue" stroke="midnightblue" points="225.559,-203.674 215.019,-202.597 222.587,-210.012 225.559,-203.674"/>
</g>
<!-- Node24 -->
<g id="node24" class="node"><title>Node24</title>
<g id="a_node24"><a xlink:href="$classAP__L1__Control.html#aa2f2bd3cb4a12c876bd9ec115df61441" xlink:title="AP_L1_Control::target\l_bearing_cd">
<polygon fill="white" stroke="black" points="669,-203 669,-233 782,-233 782,-203 669,-203"/>
<text text-anchor="start" x="677" y="-221" font-family="Helvetica,sans-Serif" font-size="10.00">AP_L1_Control::target</text>
<text text-anchor="middle" x="725.5" y="-210" font-family="Helvetica,sans-Serif" font-size="10.00">_bearing_cd</text>
</a>
</g>
</g>
<!-- Node2&#45;&gt;Node24 -->
<g id="edge28" class="edge"><title>Node2&#45;&gt;Node24</title>
<path fill="none" stroke="midnightblue" d="M241.421,-196.399C249.927,-196.972 258.729,-197.532 267,-198 411.861,-206.195 582.69,-212.87 668.841,-216.027"/>
<polygon fill="midnightblue" stroke="midnightblue" points="241.464,-192.894 231.247,-195.699 240.984,-199.878 241.464,-192.894"/>
</g>
<!-- Node25 -->
<g id="node25" class="node"><title>Node25</title>
<g id="a_node25"><a xlink:href="$classAP__L1__Control.html#aac848632dc59271619005127e22e374d" xlink:title="AP_L1_Control::update\l_heading_hold">
<polygon fill="white" stroke="black" points="666.5,-154 666.5,-184 784.5,-184 784.5,-154 666.5,-154"/>
<text text-anchor="start" x="674.5" y="-172" font-family="Helvetica,sans-Serif" font-size="10.00">AP_L1_Control::update</text>
<text text-anchor="middle" x="725.5" y="-161" font-family="Helvetica,sans-Serif" font-size="10.00">_heading_hold</text>
</a>
</g>
</g>
<!-- Node2&#45;&gt;Node25 -->
<g id="edge31" class="edge"><title>Node2&#45;&gt;Node25</title>
<path fill="none" stroke="midnightblue" d="M241.444,-190.895C338.067,-186.515 560.52,-176.433 666.421,-171.632"/>
<polygon fill="midnightblue" stroke="midnightblue" points="241.226,-187.401 231.395,-191.35 241.543,-194.394 241.226,-187.401"/>
</g>
<!-- Node26 -->
<g id="node26" class="node"><title>Node26</title>
<g id="a_node26"><a xlink:href="$classAP__Landing__Deepstall.html#af3cde793ef57477c3468547de0a8a90f" xlink:title="AP_Landing_Deepstall\l::verify_land">
<polygon fill="white" stroke="black" points="288.5,-115 288.5,-145 404.5,-145 404.5,-115 288.5,-115"/>
<text text-anchor="start" x="296.5" y="-133" font-family="Helvetica,sans-Serif" font-size="10.00">AP_Landing_Deepstall</text>
<text text-anchor="middle" x="346.5" y="-122" font-family="Helvetica,sans-Serif" font-size="10.00">::verify_land</text>
</a>
</g>
</g>
<!-- Node2&#45;&gt;Node26 -->
<g id="edge33" class="edge"><title>Node2&#45;&gt;Node26</title>
<path fill="none" stroke="midnightblue" d="M224.388,-179.009C237.365,-172.967 252.855,-165.937 267,-160 279.108,-154.918 292.404,-149.702 304.558,-145.073"/>
<polygon fill="midnightblue" stroke="midnightblue" points="222.587,-175.988 215.019,-183.403 225.559,-182.326 222.587,-175.988"/>
</g>
<!-- Node28 -->
<g id="node28" class="node"><title>Node28</title>
<g id="a_node28"><a xlink:href="$AP__Math_8h.html#a8b6f71a42818d74fd8bfe348108942fa" xlink:title="is_negative">
<polygon fill="white" stroke="black" points="313.5,-76.5 313.5,-95.5 379.5,-95.5 379.5,-76.5 313.5,-76.5"/>
<text text-anchor="middle" x="346.5" y="-83.5" font-family="Helvetica,sans-Serif" font-size="10.00">is_negative</text>
</a>
</g>
</g>
<!-- Node2&#45;&gt;Node28 -->
<g id="edge35" class="edge"><title>Node2&#45;&gt;Node28</title>
<path fill="none" stroke="midnightblue" d="M205.184,-174.434C217.258,-154.211 239.283,-122.426 267,-105 280.889,-96.2679 298.479,-91.5488 313.487,-88.9985"/>
<polygon fill="midnightblue" stroke="midnightblue" points="202.026,-172.905 200.075,-183.319 208.094,-176.395 202.026,-172.905"/>
</g>
<!-- Node29 -->
<g id="node29" class="node"><title>Node29</title>
<g id="a_node29"><a xlink:href="$examples_2location_2location_8cpp.html#a18b394b760075c6e3788a2387b9c70a6" xlink:title="test_wrap_cd">
<polygon fill="white" stroke="black" points="309,-38.5 309,-57.5 384,-57.5 384,-38.5 309,-38.5"/>
<text text-anchor="middle" x="346.5" y="-45.5" font-family="Helvetica,sans-Serif" font-size="10.00">test_wrap_cd</text>
</a>
</g>
</g>
<!-- Node2&#45;&gt;Node29 -->
<g id="edge36" class="edge"><title>Node2&#45;&gt;Node29</title>
<path fill="none" stroke="midnightblue" d="M200.67,-173.527C209.858,-145.525 230.73,-94.2627 267,-67 278.993,-57.9852 294.675,-53.1869 308.866,-50.6553"/>
<polygon fill="midnightblue" stroke="midnightblue" points="197.246,-172.75 197.62,-183.338 203.931,-174.828 197.246,-172.75"/>
</g>
<!-- Node31 -->
<g id="node31" class="node"><title>Node31</title>
<g id="a_node31"><a xlink:href="$test__math_8cpp.html#a81c4c0a191a527f9a7d78149bc03b356" xlink:title="TEST">
<polygon fill="white" stroke="black" points="325.5,-0.5 325.5,-19.5 367.5,-19.5 367.5,-0.5 325.5,-0.5"/>
<text text-anchor="middle" x="346.5" y="-7.5" font-family="Helvetica,sans-Serif" font-size="10.00">TEST</text>
</a>
</g>
</g>
<!-- Node2&#45;&gt;Node31 -->
<g id="edge38" class="edge"><title>Node2&#45;&gt;Node31</title>
<path fill="none" stroke="midnightblue" d="M197.9,-173.249C204.067,-138.575 221.812,-66.8526 267,-29 283.339,-15.3138 307.949,-11.1817 325.249,-10.0831"/>
<polygon fill="midnightblue" stroke="midnightblue" points="194.386,-173.052 196.23,-183.485 201.295,-174.179 194.386,-173.052"/>
</g>
<!-- Node4 -->
<g id="node4" class="node"><title>Node4</title>
<g id="a_node4"><a xlink:href="$classAP__AHRS__DCM.html#a101f2aaddcc7e97e690924d4e9d7a191" xlink:title="AP_AHRS_DCM::drift\l_correction_yaw">
<polygon fill="white" stroke="black" points="485,-378 485,-408 600,-408 600,-378 485,-378"/>
<text text-anchor="start" x="493" y="-396" font-family="Helvetica,sans-Serif" font-size="10.00">AP_AHRS_DCM::drift</text>
<text text-anchor="middle" x="542.5" y="-385" font-family="Helvetica,sans-Serif" font-size="10.00">_correction_yaw</text>
</a>
</g>
</g>
<!-- Node3&#45;&gt;Node4 -->
<g id="edge3" class="edge"><title>Node3&#45;&gt;Node4</title>
<path fill="none" stroke="midnightblue" d="M436.33,-393C452.81,-393 469.606,-393 484.798,-393"/>
<polygon fill="midnightblue" stroke="midnightblue" points="436.128,-389.5 426.128,-393 436.128,-396.5 436.128,-389.5"/>
</g>
<!-- Node5 -->
<g id="node5" class="node"><title>Node5</title>
<g id="a_node5"><a xlink:href="$classAP__AHRS__DCM.html#a8c3304b59bc6a27f24c686985c100549" xlink:title="AP_AHRS_DCM::drift\l_correction">
<polygon fill="white" stroke="black" points="668,-364 668,-394 783,-394 783,-364 668,-364"/>
<text text-anchor="start" x="676" y="-382" font-family="Helvetica,sans-Serif" font-size="10.00">AP_AHRS_DCM::drift</text>
<text text-anchor="middle" x="725.5" y="-371" font-family="Helvetica,sans-Serif" font-size="10.00">_correction</text>
</a>
</g>
</g>
<!-- Node3&#45;&gt;Node5 -->
<g id="edge16" class="edge"><title>Node3&#45;&gt;Node5</title>
<path fill="none" stroke="midnightblue" d="M391.715,-381.021C412.818,-375.904 438.531,-370.532 462,-368 533.143,-360.324 551.549,-364.14 623,-368 637.602,-368.789 653.333,-370.212 667.95,-371.778"/>
<polygon fill="midnightblue" stroke="midnightblue" points="390.614,-377.688 381.755,-383.499 392.304,-384.481 390.614,-377.688"/>
</g>
<!-- Node14 -->
<g id="node14" class="node"><title>Node14</title>
<g id="a_node14"><a xlink:href="$classAP__AHRS__DCM.html#a436f1fa2ecf028ab6bcf5e344e5fddb9" xlink:title="AP_AHRS_DCM::wind_estimate">
<polygon fill="white" stroke="black" points="462,-476.5 462,-495.5 623,-495.5 623,-476.5 462,-476.5"/>
<text text-anchor="middle" x="542.5" y="-483.5" font-family="Helvetica,sans-Serif" font-size="10.00">AP_AHRS_DCM::wind_estimate</text>
</a>
</g>
</g>
<!-- Node3&#45;&gt;Node14 -->
<g id="edge17" class="edge"><title>Node3&#45;&gt;Node14</title>
<path fill="none" stroke="midnightblue" d="M367.325,-408.825C389.266,-425.594 426.267,-451.716 462,-467 470.872,-470.795 480.64,-473.914 490.202,-476.449"/>
<polygon fill="midnightblue" stroke="midnightblue" points="369.467,-406.057 359.422,-402.689 365.174,-411.587 369.467,-406.057"/>
</g>
<!-- Node16 -->
<g id="node16" class="node"><title>Node16</title>
<g id="a_node16"><a xlink:href="$classAP__AHRS__NavEKF.html#a4c1d09f4fe08c39172f7e6baab40cad2" xlink:title="AP_AHRS_NavEKF::use\l_compass">
<polygon fill="white" stroke="black" points="478.5,-427 478.5,-457 606.5,-457 606.5,-427 478.5,-427"/>
<text text-anchor="start" x="486.5" y="-445" font-family="Helvetica,sans-Serif" font-size="10.00">AP_AHRS_NavEKF::use</text>
<text text-anchor="middle" x="542.5" y="-434" font-family="Helvetica,sans-Serif" font-size="10.00">_compass</text>
</a>
</g>
</g>
<!-- Node3&#45;&gt;Node16 -->
<g id="edge19" class="edge"><title>Node3&#45;&gt;Node16</title>
<path fill="none" stroke="midnightblue" d="M395.066,-405.014C421.279,-411.635 454.066,-419.916 481.966,-426.963"/>
<polygon fill="midnightblue" stroke="midnightblue" points="395.918,-401.62 385.366,-402.564 394.204,-408.406 395.918,-401.62"/>
</g>
<!-- Node4&#45;&gt;Node5 -->
<g id="edge4" class="edge"><title>Node4&#45;&gt;Node5</title>
<path fill="none" stroke="midnightblue" d="M610.315,-387.832C629.246,-386.368 649.665,-384.788 667.929,-383.376"/>
<polygon fill="midnightblue" stroke="midnightblue" points="609.973,-384.348 600.273,-388.609 610.513,-391.327 609.973,-384.348"/>
</g>
<!-- Node6 -->
<g id="node6" class="node"><title>Node6</title>
<g id="a_node6"><a xlink:href="$classAP__AHRS__DCM.html#aa8a135d6852e94f279c0be3c8206bfdd" xlink:title="AP_AHRS_DCM::update">
<polygon fill="white" stroke="black" points="831,-369.5 831,-388.5 959,-388.5 959,-369.5 831,-369.5"/>
<text text-anchor="middle" x="895" y="-376.5" font-family="Helvetica,sans-Serif" font-size="10.00">AP_AHRS_DCM::update</text>
</a>
</g>
</g>
<!-- Node5&#45;&gt;Node6 -->
<g id="edge5" class="edge"><title>Node5&#45;&gt;Node6</title>
<path fill="none" stroke="midnightblue" d="M793.404,-379C805.713,-379 818.529,-379 830.728,-379"/>
<polygon fill="midnightblue" stroke="midnightblue" points="793.208,-375.5 783.208,-379 793.208,-382.5 793.208,-375.5"/>
</g>
<!-- Node7 -->
<g id="node7" class="node"><title>Node7</title>
<g id="a_node7"><a xlink:href="$classAP__AHRS__DCM.html#a4bbf9d7f853103c8c497b90ae726b1ac" xlink:title="AP_AHRS_DCM::get_gyro\l_drift">
<polygon fill="white" stroke="black" points="998,-408 998,-438 1134,-438 1134,-408 998,-408"/>
<text text-anchor="start" x="1006" y="-426" font-family="Helvetica,sans-Serif" font-size="10.00">AP_AHRS_DCM::get_gyro</text>
<text text-anchor="middle" x="1066" y="-415" font-family="Helvetica,sans-Serif" font-size="10.00">_drift</text>
</a>
</g>
</g>
<!-- Node6&#45;&gt;Node7 -->
<g id="edge6" class="edge"><title>Node6&#45;&gt;Node7</title>
<path fill="none" stroke="midnightblue" d="M942.465,-391.097C962.453,-396.301 986.029,-402.439 1007.14,-407.935"/>
<polygon fill="midnightblue" stroke="midnightblue" points="943.23,-387.68 932.67,-388.547 941.466,-394.454 943.23,-387.68"/>
</g>
<!-- Node12 -->
<g id="node12" class="node"><title>Node12</title>
<g id="a_node12"><a xlink:href="$classAP__AHRS__NavEKF.html#a7ce0035d07be995b5f45ac6c711570ce" xlink:title="AP_AHRS_NavEKF::update_DCM">
<polygon fill="white" stroke="black" points="1170,-347.5 1170,-366.5 1340,-366.5 1340,-347.5 1170,-347.5"/>
<text text-anchor="middle" x="1255" y="-354.5" font-family="Helvetica,sans-Serif" font-size="10.00">AP_AHRS_NavEKF::update_DCM</text>
</a>
</g>
</g>
<!-- Node6&#45;&gt;Node12 -->
<g id="edge13" class="edge"><title>Node6&#45;&gt;Node12</title>
<path fill="none" stroke="midnightblue" d="M969.409,-374.489C1027.65,-370.91 1109.1,-365.905 1169.94,-362.165"/>
<polygon fill="midnightblue" stroke="midnightblue" points="968.946,-371.011 959.179,-375.117 969.375,-377.997 968.946,-371.011"/>
</g>
<!-- Node13 -->
<g id="node13" class="node"><title>Node13</title>
<g id="a_node13"><a xlink:href="$ModuleTest_8cpp.html#afe461d27b9c48d5921c00d521181f12f" xlink:title="loop">
<polygon fill="white" stroke="black" points="1048.5,-331.5 1048.5,-350.5 1083.5,-350.5 1083.5,-331.5 1048.5,-331.5"/>
<text text-anchor="middle" x="1066" y="-338.5" font-family="Helvetica,sans-Serif" font-size="10.00">loop</text>
</a>
</g>
</g>
<!-- Node6&#45;&gt;Node13 -->
<g id="edge15" class="edge"><title>Node6&#45;&gt;Node13</title>
<path fill="none" stroke="midnightblue" d="M948.534,-367.188C982.826,-359.477 1025.36,-349.914 1048.35,-344.743"/>
<polygon fill="midnightblue" stroke="midnightblue" points="947.634,-363.802 938.646,-369.411 949.17,-370.632 947.634,-363.802"/>
</g>
<!-- Node8 -->
<g id="node8" class="node"><title>Node8</title>
<g id="a_node8"><a xlink:href="$classAP__AHRS__NavEKF.html#a355d8890ddfaadaa9d8f694f780afbe6" xlink:title="AP_AHRS_NavEKF::get\l_gyro_drift">
<polygon fill="white" stroke="black" points="1192,-408 1192,-438 1318,-438 1318,-408 1192,-408"/>
<text text-anchor="start" x="1200" y="-426" font-family="Helvetica,sans-Serif" font-size="10.00">AP_AHRS_NavEKF::get</text>
<text text-anchor="middle" x="1255" y="-415" font-family="Helvetica,sans-Serif" font-size="10.00">_gyro_drift</text>
</a>
</g>
</g>
<!-- Node7&#45;&gt;Node8 -->
<g id="edge7" class="edge"><title>Node7&#45;&gt;Node8</title>
<path fill="none" stroke="midnightblue" d="M1144.48,-423C1160.22,-423 1176.58,-423 1191.71,-423"/>
<polygon fill="midnightblue" stroke="midnightblue" points="1144.25,-419.5 1134.25,-423 1144.25,-426.5 1144.25,-419.5"/>
</g>
<!-- Node9 -->
<g id="node9" class="node"><title>Node9</title>
<g id="a_node9"><a xlink:href="$classAP__AHRS__NavEKF.html#ac8111979c5dc37a55b2c50818534ea52" xlink:title="AP_AHRS_NavEKF::update">
<polygon fill="white" stroke="black" points="1526,-400.5 1526,-419.5 1668,-419.5 1668,-400.5 1526,-400.5"/>
<text text-anchor="middle" x="1597" y="-407.5" font-family="Helvetica,sans-Serif" font-size="10.00">AP_AHRS_NavEKF::update</text>
</a>
</g>
</g>
<!-- Node8&#45;&gt;Node9 -->
<g id="edge8" class="edge"><title>Node8&#45;&gt;Node9</title>
<path fill="none" stroke="midnightblue" d="M1328.31,-420.77C1374.56,-419.284 1435.82,-417.204 1490,-415 1501.6,-414.528 1513.91,-413.986 1525.87,-413.436"/>
<polygon fill="midnightblue" stroke="midnightblue" points="1327.97,-417.279 1318.09,-421.097 1328.19,-424.275 1327.97,-417.279"/>
</g>
<!-- Node10 -->
<g id="node10" class="node"><title>Node10</title>
<g id="a_node10"><a xlink:href="$AHRS__Test_8cpp.html#afe461d27b9c48d5921c00d521181f12f" xlink:title="loop">
<polygon fill="white" stroke="black" points="1704,-441.5 1704,-460.5 1739,-460.5 1739,-441.5 1704,-441.5"/>
<text text-anchor="middle" x="1721.5" y="-448.5" font-family="Helvetica,sans-Serif" font-size="10.00">loop</text>
</a>
</g>
</g>
<!-- Node8&#45;&gt;Node10 -->
<g id="edge10" class="edge"><title>Node8&#45;&gt;Node10</title>
<path fill="none" stroke="midnightblue" d="M1328.44,-427.93C1344.12,-428.969 1360.61,-430.041 1376,-431 1501.87,-438.849 1653.66,-447.312 1703.65,-450.073"/>
<polygon fill="midnightblue" stroke="midnightblue" points="1328.49,-424.425 1318.28,-427.254 1328.02,-431.41 1328.49,-424.425"/>
</g>
<!-- Node11 -->
<g id="node11" class="node"><title>Node11</title>
<g id="a_node11"><a xlink:href="$classAP__Module.html#a9b4f06b2556a122f11b92b7b29d462c4" xlink:title="AP_Module::call_hook\l_AHRS_update">
<polygon fill="white" stroke="black" points="1376,-375 1376,-405 1490,-405 1490,-375 1376,-375"/>
<text text-anchor="start" x="1384" y="-393" font-family="Helvetica,sans-Serif" font-size="10.00">AP_Module::call_hook</text>
<text text-anchor="middle" x="1433" y="-382" font-family="Helvetica,sans-Serif" font-size="10.00">_AHRS_update</text>
</a>
</g>
</g>
<!-- Node8&#45;&gt;Node11 -->
<g id="edge11" class="edge"><title>Node8&#45;&gt;Node11</title>
<path fill="none" stroke="midnightblue" d="M1327.88,-409.522C1343.85,-406.528 1360.56,-403.396 1375.79,-400.539"/>
<polygon fill="midnightblue" stroke="midnightblue" points="1327.23,-406.082 1318.05,-411.365 1328.52,-412.963 1327.23,-406.082"/>
</g>
<!-- Node9&#45;&gt;Node10 -->
<g id="edge9" class="edge"><title>Node9&#45;&gt;Node10</title>
<path fill="none" stroke="midnightblue" d="M1636.13,-422.763C1658.88,-430.376 1686.61,-439.657 1703.92,-445.449"/>
<polygon fill="midnightblue" stroke="midnightblue" points="1637.01,-419.364 1626.41,-419.509 1634.78,-426.002 1637.01,-419.364"/>
</g>
<!-- Node11&#45;&gt;Node9 -->
<g id="edge12" class="edge"><title>Node11&#45;&gt;Node9</title>
<path fill="none" stroke="midnightblue" d="M1500.35,-398.191C1508.78,-399.232 1517.42,-400.299 1525.91,-401.347"/>
<polygon fill="midnightblue" stroke="midnightblue" points="1500.56,-394.691 1490.21,-396.939 1499.7,-401.638 1500.56,-394.691"/>
</g>
<!-- Node12&#45;&gt;Node9 -->
<g id="edge14" class="edge"><title>Node12&#45;&gt;Node9</title>
<path fill="none" stroke="midnightblue" d="M1350.24,-352.41C1393.31,-352.299 1444.71,-354.977 1490,-365 1522.99,-372.302 1558.62,-389.574 1579.02,-400.471"/>
<polygon fill="midnightblue" stroke="midnightblue" points="1350.02,-348.912 1340.05,-352.489 1350.08,-355.912 1350.02,-348.912"/>
</g>
<!-- Node15 -->
<g id="node15" class="node"><title>Node15</title>
<g id="a_node15"><a xlink:href="$classAP__AHRS__NavEKF.html#a26168a6f7f3da768ae76083b5edc05b0" xlink:title="AP_AHRS_NavEKF::wind\l_estimate">
<polygon fill="white" stroke="black" points="659,-471 659,-501 792,-501 792,-471 659,-471"/>
<text text-anchor="start" x="667" y="-489" font-family="Helvetica,sans-Serif" font-size="10.00">AP_AHRS_NavEKF::wind</text>
<text text-anchor="middle" x="725.5" y="-478" font-family="Helvetica,sans-Serif" font-size="10.00">_estimate</text>
</a>
</g>
</g>
<!-- Node14&#45;&gt;Node15 -->
<g id="edge18" class="edge"><title>Node14&#45;&gt;Node15</title>
<path fill="none" stroke="midnightblue" d="M633.278,-486C641.922,-486 650.575,-486 658.922,-486"/>
<polygon fill="midnightblue" stroke="midnightblue" points="633.153,-482.5 623.153,-486 633.153,-489.5 633.153,-482.5"/>
</g>
<!-- Node17&#45;&gt;Node18 -->
<g id="edge21" class="edge"><title>Node17&#45;&gt;Node18</title>
<path fill="none" stroke="midnightblue" d="M407.601,-331.918C430.393,-327.336 456.379,-322.112 479.355,-317.493"/>
<polygon fill="midnightblue" stroke="midnightblue" points="406.826,-328.504 397.712,-333.906 408.206,-335.366 406.826,-328.504"/>
</g>
<!-- Node19 -->
<g id="node19" class="node"><title>Node19</title>
<g id="a_node19"><a xlink:href="$classAP__L1__Control.html#a9052f01ea019fb51432d3104cce0b6e8" xlink:title="AP_L1_Control::update\l_waypoint">
<polygon fill="white" stroke="black" points="666.5,-301 666.5,-331 784.5,-331 784.5,-301 666.5,-301"/>
<text text-anchor="start" x="674.5" y="-319" font-family="Helvetica,sans-Serif" font-size="10.00">AP_L1_Control::update</text>
<text text-anchor="middle" x="725.5" y="-308" font-family="Helvetica,sans-Serif" font-size="10.00">_waypoint</text>
</a>
</g>
</g>
<!-- Node18&#45;&gt;Node19 -->
<g id="edge22" class="edge"><title>Node18&#45;&gt;Node19</title>
<path fill="none" stroke="midnightblue" d="M615.823,-309.395C632.557,-310.412 650.157,-311.482 666.203,-312.457"/>
<polygon fill="midnightblue" stroke="midnightblue" points="615.731,-305.883 605.537,-308.77 615.306,-312.87 615.731,-305.883"/>
</g>
<!-- Node21 -->
<g id="node21" class="node"><title>Node21</title>
<g id="a_node21"><a xlink:href="$classAP__L1__Control.html#acc0860ec530ec9c9bec50a5701bb709e" xlink:title="AP_L1_Control::update\l_loiter">
<polygon fill="white" stroke="black" points="666.5,-252 666.5,-282 784.5,-282 784.5,-252 666.5,-252"/>
<text text-anchor="start" x="674.5" y="-270" font-family="Helvetica,sans-Serif" font-size="10.00">AP_L1_Control::update</text>
<text text-anchor="middle" x="725.5" y="-259" font-family="Helvetica,sans-Serif" font-size="10.00">_loiter</text>
</a>
</g>
</g>
<!-- Node18&#45;&gt;Node21 -->
<g id="edge24" class="edge"><title>Node18&#45;&gt;Node21</title>
<path fill="none" stroke="midnightblue" d="M615.35,-289.916C632.225,-286.373 650.005,-282.64 666.203,-279.239"/>
<polygon fill="midnightblue" stroke="midnightblue" points="614.604,-286.496 605.537,-291.976 616.043,-293.346 614.604,-286.496"/>
</g>
<!-- Node20 -->
<g id="node20" class="node"><title>Node20</title>
<g id="a_node20"><a xlink:href="$classAP__L1__Control.html#ae79ea97f3deaed8c09b32abe9f465c94" xlink:title="AP_L1_Control::crosstrack\l_error_integrator">
<polygon fill="white" stroke="black" points="828,-227 828,-257 962,-257 962,-227 828,-227"/>
<text text-anchor="start" x="836" y="-245" font-family="Helvetica,sans-Serif" font-size="10.00">AP_L1_Control::crosstrack</text>
<text text-anchor="middle" x="895" y="-234" font-family="Helvetica,sans-Serif" font-size="10.00">_error_integrator</text>
</a>
</g>
</g>
<!-- Node19&#45;&gt;Node20 -->
<g id="edge23" class="edge"><title>Node19&#45;&gt;Node20</title>
<path fill="none" stroke="midnightblue" d="M777.213,-297.126C782.232,-295.114 787.231,-293.052 792,-291 816.724,-280.365 844.198,-267.079 864.397,-257.026"/>
<polygon fill="midnightblue" stroke="midnightblue" points="775.612,-293.995 767.591,-300.917 778.178,-300.507 775.612,-293.995"/>
</g>
<!-- Node21&#45;&gt;Node20 -->
<g id="edge25" class="edge"><title>Node21&#45;&gt;Node20</title>
<path fill="none" stroke="midnightblue" d="M794.597,-256.836C805.608,-255.193 816.993,-253.494 827.954,-251.858"/>
<polygon fill="midnightblue" stroke="midnightblue" points="793.987,-253.388 784.613,-258.326 795.02,-260.312 793.987,-253.388"/>
</g>
<!-- Node23 -->
<g id="node23" class="node"><title>Node23</title>
<g id="a_node23"><a xlink:href="$classAP__L1__Control.html#a388f3d9e1ed09a5bd2444d4032d66239" xlink:title="AP_L1_Control::AP_L1\l_Control">
<polygon fill="white" stroke="black" points="483.5,-241 483.5,-271 601.5,-271 601.5,-241 483.5,-241"/>
<text text-anchor="start" x="491.5" y="-259" font-family="Helvetica,sans-Serif" font-size="10.00">AP_L1_Control::AP_L1</text>
<text text-anchor="middle" x="542.5" y="-248" font-family="Helvetica,sans-Serif" font-size="10.00">_Control</text>
</a>
</g>
</g>
<!-- Node22&#45;&gt;Node23 -->
<g id="edge27" class="edge"><title>Node22&#45;&gt;Node23</title>
<path fill="none" stroke="midnightblue" d="M408.739,-256C432.633,-256 459.894,-256 483.47,-256"/>
<polygon fill="midnightblue" stroke="midnightblue" points="408.725,-252.5 398.725,-256 408.725,-259.5 408.725,-252.5"/>
</g>
<!-- Node24&#45;&gt;Node20 -->
<g id="edge29" class="edge"><title>Node24&#45;&gt;Node20</title>
<path fill="none" stroke="midnightblue" d="M792.344,-227.434C803.971,-229.1 816.08,-230.835 827.719,-232.503"/>
<polygon fill="midnightblue" stroke="midnightblue" points="792.67,-223.945 782.275,-225.992 791.678,-230.875 792.67,-223.945"/>
</g>
<!-- Node25&#45;&gt;Node20 -->
<g id="edge32" class="edge"><title>Node25&#45;&gt;Node20</title>
<path fill="none" stroke="midnightblue" d="M779.024,-187.734C783.434,-189.462 787.807,-191.23 792,-193 816.795,-203.469 844.264,-216.766 864.443,-226.866"/>
<polygon fill="midnightblue" stroke="midnightblue" points="779.956,-184.343 769.366,-184.03 777.449,-190.879 779.956,-184.343"/>
</g>
<!-- Node27 -->
<g id="node27" class="node"><title>Node27</title>
<g id="a_node27"><a xlink:href="$classAP__Landing.html#afdbc34de818b9cb366336c23660fd495" xlink:title="AP_Landing::verify_land">
<polygon fill="white" stroke="black" points="481.5,-120.5 481.5,-139.5 603.5,-139.5 603.5,-120.5 481.5,-120.5"/>
<text text-anchor="middle" x="542.5" y="-127.5" font-family="Helvetica,sans-Serif" font-size="10.00">AP_Landing::verify_land</text>
</a>
</g>
</g>
<!-- Node26&#45;&gt;Node27 -->
<g id="edge34" class="edge"><title>Node26&#45;&gt;Node27</title>
<path fill="none" stroke="midnightblue" d="M414.763,-130C436.421,-130 460.269,-130 481.38,-130"/>
<polygon fill="midnightblue" stroke="midnightblue" points="414.657,-126.5 404.657,-130 414.657,-133.5 414.657,-126.5"/>
</g>
<!-- Node30 -->
<g id="node30" class="node"><title>Node30</title>
<g id="a_node30"><a xlink:href="$examples_2location_2location_8cpp.html#a4fc01d736fe50cf5b977f755b675f11d" xlink:title="setup">
<polygon fill="white" stroke="black" points="522,-38.5 522,-57.5 563,-57.5 563,-38.5 522,-38.5"/>
<text text-anchor="middle" x="542.5" y="-45.5" font-family="Helvetica,sans-Serif" font-size="10.00">setup</text>
</a>
</g>
</g>
<!-- Node29&#45;&gt;Node30 -->
<g id="edge37" class="edge"><title>Node29&#45;&gt;Node30</title>
<path fill="none" stroke="midnightblue" d="M394.694,-48C435.446,-48 492.293,-48 521.867,-48"/>
<polygon fill="midnightblue" stroke="midnightblue" points="394.447,-44.5001 384.447,-48 394.447,-51.5001 394.447,-44.5001"/>
</g>
</g>
</svg>
