<?xml version="1.0" encoding="UTF-8" standalone="no"?>
<!DOCTYPE svg PUBLIC "-//W3C//DTD SVG 1.1//EN"
 "http://www.w3.org/Graphics/SVG/1.1/DTD/svg11.dtd">
<!-- Generated by graphviz version 2.38.0 (20140413.2041)
 -->
<!-- Title: libraries/AP_Beacon/AP_Beacon_Backend.h Pages: 1 -->
<svg width="722pt" height="184pt"
 viewBox="0.00 0.00 721.50 184.00" xmlns="http://www.w3.org/2000/svg" xmlns:xlink="http://www.w3.org/1999/xlink">
<g id="graph0" class="graph" transform="scale(1 1) rotate(0) translate(4 180)">
<title>libraries/AP_Beacon/AP_Beacon_Backend.h</title>
<polygon fill="white" stroke="none" points="-4,4 -4,-180 717.5,-180 717.5,4 -4,4"/>
<!-- Node1 -->
<g id="node1" class="node"><title>Node1</title>
<polygon fill="#bfbfbf" stroke="black" points="253,-145.5 253,-175.5 376,-175.5 376,-145.5 253,-145.5"/>
<text text-anchor="start" x="261" y="-163.5" font-family="Helvetica,sans-Serif" font-size="10.00">libraries/AP_Beacon</text>
<text text-anchor="middle" x="314.5" y="-152.5" font-family="Helvetica,sans-Serif" font-size="10.00">/AP_Beacon_Backend.h</text>
</g>
<!-- Node2 -->
<g id="node2" class="node"><title>Node2</title>
<g id="a_node2"><a xlink:href="$AP__Beacon_8cpp.html" xlink:title="libraries/AP_Beacon\l/AP_Beacon.cpp">
<polygon fill="white" stroke="black" points="141,-6 141,-36 246,-36 246,-6 141,-6"/>
<text text-anchor="start" x="149" y="-24" font-family="Helvetica,sans-Serif" font-size="10.00">libraries/AP_Beacon</text>
<text text-anchor="middle" x="193.5" y="-13" font-family="Helvetica,sans-Serif" font-size="10.00">/AP_Beacon.cpp</text>
</a>
</g>
</g>
<!-- Node1&#45;&gt;Node2 -->
<g id="edge1" class="edge"><title>Node1&#45;&gt;Node2</title>
<path fill="none" stroke="midnightblue" d="M277.086,-140.386C263.415,-132.093 248.598,-121.419 237.5,-109 217.876,-87.0396 204.601,-54.7398 198.111,-36.3008"/>
<polygon fill="midnightblue" stroke="midnightblue" points="275.451,-143.484 285.854,-145.486 278.97,-137.433 275.451,-143.484"/>
</g>
<!-- Node3 -->
<g id="node3" class="node"><title>Node3</title>
<g id="a_node3"><a xlink:href="$AP__Beacon__Pozyx_8h.html" xlink:title="libraries/AP_Beacon\l/AP_Beacon_Pozyx.h">
<polygon fill="white" stroke="black" points="77,-78.5 77,-108.5 190,-108.5 190,-78.5 77,-78.5"/>
<text text-anchor="start" x="85" y="-96.5" font-family="Helvetica,sans-Serif" font-size="10.00">libraries/AP_Beacon</text>
<text text-anchor="middle" x="133.5" y="-85.5" font-family="Helvetica,sans-Serif" font-size="10.00">/AP_Beacon_Pozyx.h</text>
</a>
</g>
</g>
<!-- Node1&#45;&gt;Node3 -->
<g id="edge2" class="edge"><title>Node1&#45;&gt;Node3</title>
<path fill="none" stroke="midnightblue" d="M265.645,-141.955C236.488,-131.485 199.957,-118.366 172.698,-108.577"/>
<polygon fill="midnightblue" stroke="midnightblue" points="264.631,-145.31 275.226,-145.396 266.997,-138.722 264.631,-145.31"/>
</g>
<!-- Node5 -->
<g id="node5" class="node"><title>Node5</title>
<g id="a_node5"><a xlink:href="$AP__Beacon__Marvelmind_8h.html" xlink:title="libraries/AP_Beacon\l/AP_Beacon_Marvelmind.h">
<polygon fill="white" stroke="black" points="247,-78.5 247,-108.5 382,-108.5 382,-78.5 247,-78.5"/>
<text text-anchor="start" x="255" y="-96.5" font-family="Helvetica,sans-Serif" font-size="10.00">libraries/AP_Beacon</text>
<text text-anchor="middle" x="314.5" y="-85.5" font-family="Helvetica,sans-Serif" font-size="10.00">/AP_Beacon_Marvelmind.h</text>
</a>
</g>
</g>
<!-- Node1&#45;&gt;Node5 -->
<g id="edge5" class="edge"><title>Node1&#45;&gt;Node5</title>
<path fill="none" stroke="midnightblue" d="M314.5,-135.108C314.5,-126.154 314.5,-116.323 314.5,-108.577"/>
<polygon fill="midnightblue" stroke="midnightblue" points="311,-135.396 314.5,-145.396 318,-135.396 311,-135.396"/>
</g>
<!-- Node8 -->
<g id="node8" class="node"><title>Node8</title>
<g id="a_node8"><a xlink:href="$AP__Beacon__SITL_8h.html" xlink:title="libraries/AP_Beacon\l/AP_Beacon_SITL.h">
<polygon fill="white" stroke="black" points="400.5,-78.5 400.5,-108.5 506.5,-108.5 506.5,-78.5 400.5,-78.5"/>
<text text-anchor="start" x="408.5" y="-96.5" font-family="Helvetica,sans-Serif" font-size="10.00">libraries/AP_Beacon</text>
<text text-anchor="middle" x="453.5" y="-85.5" font-family="Helvetica,sans-Serif" font-size="10.00">/AP_Beacon_SITL.h</text>
</a>
</g>
</g>
<!-- Node1&#45;&gt;Node8 -->
<g id="edge9" class="edge"><title>Node1&#45;&gt;Node8</title>
<path fill="none" stroke="midnightblue" d="M353.782,-141.131C375.869,-130.802 403.01,-118.11 423.398,-108.577"/>
<polygon fill="midnightblue" stroke="midnightblue" points="352.237,-137.989 344.661,-145.396 355.202,-144.33 352.237,-137.989"/>
</g>
<!-- Node10 -->
<g id="node10" class="node"><title>Node10</title>
<g id="a_node10"><a xlink:href="$AP__Beacon__Backend_8cpp.html" xlink:title="libraries/AP_Beacon\l/AP_Beacon_Backend.cpp">
<polygon fill="white" stroke="black" points="524.5,-78.5 524.5,-108.5 658.5,-108.5 658.5,-78.5 524.5,-78.5"/>
<text text-anchor="start" x="532.5" y="-96.5" font-family="Helvetica,sans-Serif" font-size="10.00">libraries/AP_Beacon</text>
<text text-anchor="middle" x="591.5" y="-85.5" font-family="Helvetica,sans-Serif" font-size="10.00">/AP_Beacon_Backend.cpp</text>
</a>
</g>
</g>
<!-- Node1&#45;&gt;Node10 -->
<g id="edge12" class="edge"><title>Node1&#45;&gt;Node10</title>
<path fill="none" stroke="midnightblue" d="M384.025,-143.186C429.39,-132.54 488.012,-118.784 531.366,-108.611"/>
<polygon fill="midnightblue" stroke="midnightblue" points="383.2,-139.784 374.264,-145.476 384.799,-146.599 383.2,-139.784"/>
</g>
<!-- Node3&#45;&gt;Node2 -->
<g id="edge3" class="edge"><title>Node3&#45;&gt;Node2</title>
<path fill="none" stroke="midnightblue" d="M152.19,-70.5389C161.708,-59.3562 173.004,-46.0831 181.376,-36.2455"/>
<polygon fill="midnightblue" stroke="midnightblue" points="149.458,-68.3494 145.642,-78.2333 154.789,-72.8863 149.458,-68.3494"/>
</g>
<!-- Node4 -->
<g id="node4" class="node"><title>Node4</title>
<g id="a_node4"><a xlink:href="$AP__Beacon__Pozyx_8cpp.html" xlink:title="libraries/AP_Beacon\l/AP_Beacon_Pozyx.cpp">
<polygon fill="white" stroke="black" points="0,-6 0,-36 123,-36 123,-6 0,-6"/>
<text text-anchor="start" x="8" y="-24" font-family="Helvetica,sans-Serif" font-size="10.00">libraries/AP_Beacon</text>
<text text-anchor="middle" x="61.5" y="-13" font-family="Helvetica,sans-Serif" font-size="10.00">/AP_Beacon_Pozyx.cpp</text>
</a>
</g>
</g>
<!-- Node3&#45;&gt;Node4 -->
<g id="edge4" class="edge"><title>Node3&#45;&gt;Node4</title>
<path fill="none" stroke="midnightblue" d="M111.735,-71.188C100.179,-59.8729 86.2905,-46.2741 76.0486,-36.2455"/>
<polygon fill="midnightblue" stroke="midnightblue" points="109.336,-73.7378 118.93,-78.2333 114.233,-68.7362 109.336,-73.7378"/>
</g>
<!-- Node5&#45;&gt;Node2 -->
<g id="edge6" class="edge"><title>Node5&#45;&gt;Node2</title>
<path fill="none" stroke="midnightblue" d="M281.445,-73.2407C261.276,-61.4894 235.944,-46.7295 217.653,-36.0729"/>
<polygon fill="midnightblue" stroke="midnightblue" points="279.902,-76.3925 290.305,-78.4027 283.426,-70.3443 279.902,-76.3925"/>
</g>
<!-- Node6 -->
<g id="node6" class="node"><title>Node6</title>
<g id="a_node6"><a xlink:href="$AP__Beacon__Marvelmind_8cpp.html" xlink:title="libraries/AP_Beacon\l/AP_Beacon_Marvelmind.cpp">
<polygon fill="white" stroke="black" points="433.5,-6 433.5,-36 579.5,-36 579.5,-6 433.5,-6"/>
<text text-anchor="start" x="441.5" y="-24" font-family="Helvetica,sans-Serif" font-size="10.00">libraries/AP_Beacon</text>
<text text-anchor="middle" x="506.5" y="-13" font-family="Helvetica,sans-Serif" font-size="10.00">/AP_Beacon_Marvelmind.cpp</text>
</a>
</g>
</g>
<!-- Node5&#45;&gt;Node6 -->
<g id="edge7" class="edge"><title>Node5&#45;&gt;Node6</title>
<path fill="none" stroke="midnightblue" d="M362.678,-74.8098C395.31,-62.8275 437.844,-47.2096 468.174,-36.0729"/>
<polygon fill="midnightblue" stroke="midnightblue" points="361.073,-71.6703 352.893,-78.4027 363.486,-78.2413 361.073,-71.6703"/>
</g>
<!-- Node7 -->
<g id="node7" class="node"><title>Node7</title>
<g id="a_node7"><a xlink:href="$AP__Marvelmind__test_8cpp.html" xlink:title="libraries/AP_Beacon\l/examples/AP_Marvelmind\l_test/AP_Marvelmind_test.cpp">
<polygon fill="white" stroke="black" points="264,-0.5 264,-41.5 415,-41.5 415,-0.5 264,-0.5"/>
<text text-anchor="start" x="272" y="-29.5" font-family="Helvetica,sans-Serif" font-size="10.00">libraries/AP_Beacon</text>
<text text-anchor="start" x="272" y="-18.5" font-family="Helvetica,sans-Serif" font-size="10.00">/examples/AP_Marvelmind</text>
<text text-anchor="middle" x="339.5" y="-7.5" font-family="Helvetica,sans-Serif" font-size="10.00">_test/AP_Marvelmind_test.cpp</text>
</a>
</g>
</g>
<!-- Node5&#45;&gt;Node7 -->
<g id="edge8" class="edge"><title>Node5&#45;&gt;Node7</title>
<path fill="none" stroke="midnightblue" d="M322.991,-68.5557C326.105,-59.7735 329.591,-49.9441 332.554,-41.5884"/>
<polygon fill="midnightblue" stroke="midnightblue" points="319.603,-67.6385 319.559,-78.2333 326.2,-69.9781 319.603,-67.6385"/>
</g>
<!-- Node8&#45;&gt;Node2 -->
<g id="edge10" class="edge"><title>Node8&#45;&gt;Node2</title>
<path fill="none" stroke="midnightblue" d="M390.472,-77.672C351.185,-68.1413 299.685,-55.1242 254.5,-42 248.185,-40.1659 241.541,-38.1149 235.055,-36.0444"/>
<polygon fill="midnightblue" stroke="midnightblue" points="389.9,-81.1344 400.442,-80.0795 391.543,-74.3299 389.9,-81.1344"/>
</g>
<!-- Node9 -->
<g id="node9" class="node"><title>Node9</title>
<g id="a_node9"><a xlink:href="$AP__Beacon__SITL_8cpp.html" xlink:title="libraries/AP_Beacon\l/AP_Beacon_SITL.cpp">
<polygon fill="white" stroke="black" points="597.5,-6 597.5,-36 713.5,-36 713.5,-6 597.5,-6"/>
<text text-anchor="start" x="605.5" y="-24" font-family="Helvetica,sans-Serif" font-size="10.00">libraries/AP_Beacon</text>
<text text-anchor="middle" x="655.5" y="-13" font-family="Helvetica,sans-Serif" font-size="10.00">/AP_Beacon_SITL.cpp</text>
</a>
</g>
</g>
<!-- Node8&#45;&gt;Node9 -->
<g id="edge11" class="edge"><title>Node8&#45;&gt;Node9</title>
<path fill="none" stroke="midnightblue" d="M503.744,-74.9645C538.133,-62.9622 583.131,-47.2576 615.178,-36.0729"/>
<polygon fill="midnightblue" stroke="midnightblue" points="502.18,-71.803 493.892,-78.4027 504.487,-78.412 502.18,-71.803"/>
</g>
</g>
</svg>
