<?xml version="1.0" encoding="UTF-8" standalone="no"?>
<!DOCTYPE svg PUBLIC "-//W3C//DTD SVG 1.1//EN"
 "http://www.w3.org/Graphics/SVG/1.1/DTD/svg11.dtd">
<!-- Generated by graphviz version 2.38.0 (20140413.2041)
 -->
<!-- Title: BM_GeodesicGridSections Pages: 1 -->
<svg width="851pt" height="179pt"
 viewBox="0.00 0.00 851.00 178.50" xmlns="http://www.w3.org/2000/svg" xmlns:xlink="http://www.w3.org/1999/xlink">
<g id="graph0" class="graph" transform="scale(1 1) rotate(0) translate(4 174.5)">
<title>BM_GeodesicGridSections</title>
<polygon fill="white" stroke="none" points="-4,4 -4,-174.5 847,-174.5 847,4 -4,4"/>
<!-- Node1 -->
<g id="node1" class="node"><title>Node1</title>
<polygon fill="#bfbfbf" stroke="black" points="0,-38.5 0,-57.5 134,-57.5 134,-38.5 0,-38.5"/>
<text text-anchor="middle" x="67" y="-45.5" font-family="Helvetica,sans-Serif" font-size="10.00">BM_GeodesicGridSections</text>
</g>
<!-- Node2 -->
<g id="node2" class="node"><title>Node2</title>
<g id="a_node2"><a xlink:href="$benchmark__geodesic__grid_8cpp.html#a1700493a3b872d3bdc794ab4baa7f6c5" xlink:title="section_triangle">
<polygon fill="white" stroke="black" points="193.5,-76.5 193.5,-95.5 278.5,-95.5 278.5,-76.5 193.5,-76.5"/>
<text text-anchor="middle" x="236" y="-83.5" font-family="Helvetica,sans-Serif" font-size="10.00">section_triangle</text>
</a>
</g>
</g>
<!-- Node1&#45;&gt;Node2 -->
<g id="edge1" class="edge"><title>Node1&#45;&gt;Node2</title>
<path fill="none" stroke="midnightblue" d="M110.141,-57.589C132.462,-62.6679 160.057,-68.9471 183.624,-74.3097"/>
<polygon fill="midnightblue" stroke="midnightblue" points="182.923,-77.7397 193.451,-76.5457 184.477,-70.9141 182.923,-77.7397"/>
</g>
<!-- Node3 -->
<g id="node3" class="node"><title>Node3</title>
<g id="a_node3"><a xlink:href="$structAP__GeodesicGrid.html#a04a68b6581a66dc78ba25c8331d236a4" xlink:title="AP_GeodesicGrid::section">
<polygon fill="white" stroke="black" points="170,-38.5 170,-57.5 302,-57.5 302,-38.5 170,-38.5"/>
<text text-anchor="middle" x="236" y="-45.5" font-family="Helvetica,sans-Serif" font-size="10.00">AP_GeodesicGrid::section</text>
</a>
</g>
</g>
<!-- Node1&#45;&gt;Node3 -->
<g id="edge2" class="edge"><title>Node1&#45;&gt;Node3</title>
<path fill="none" stroke="midnightblue" d="M134.003,-48C142.456,-48 151.16,-48 159.746,-48"/>
<polygon fill="midnightblue" stroke="midnightblue" points="159.75,-51.5001 169.75,-48 159.75,-44.5001 159.75,-51.5001"/>
</g>
<!-- Node10 -->
<g id="node10" class="node"><title>Node10</title>
<g id="a_node10"><a xlink:href="$benchmark__geodesic__grid_8cpp.html#aeac65f62e77b265c4ac03c91a1e5c015" xlink:title="BENCHMARK">
<polygon fill="white" stroke="black" points="195,-0.5 195,-19.5 277,-19.5 277,-0.5 195,-0.5"/>
<text text-anchor="middle" x="236" y="-7.5" font-family="Helvetica,sans-Serif" font-size="10.00">BENCHMARK</text>
</a>
</g>
</g>
<!-- Node1&#45;&gt;Node10 -->
<g id="edge11" class="edge"><title>Node1&#45;&gt;Node10</title>
<path fill="none" stroke="midnightblue" d="M110.141,-38.411C132.884,-33.2359 161.104,-26.8146 184.959,-21.3866"/>
<polygon fill="midnightblue" stroke="midnightblue" points="185.912,-24.7592 194.886,-19.1276 184.359,-17.9337 185.912,-24.7592"/>
</g>
<!-- Node4 -->
<g id="node4" class="node"><title>Node4</title>
<g id="a_node4"><a xlink:href="$structAP__GeodesicGrid.html#a921673acc94e62b37884907d79b44051" xlink:title="AP_GeodesicGrid::_triangle\l_index">
<polygon fill="white" stroke="black" points="338,-55 338,-85 475,-85 475,-55 338,-55"/>
<text text-anchor="start" x="346" y="-73" font-family="Helvetica,sans-Serif" font-size="10.00">AP_GeodesicGrid::_triangle</text>
<text text-anchor="middle" x="406.5" y="-62" font-family="Helvetica,sans-Serif" font-size="10.00">_index</text>
</a>
</g>
</g>
<!-- Node3&#45;&gt;Node4 -->
<g id="edge3" class="edge"><title>Node3&#45;&gt;Node4</title>
<path fill="none" stroke="midnightblue" d="M302.146,-56.5058C310.533,-57.6008 319.187,-58.7306 327.75,-59.8487"/>
<polygon fill="midnightblue" stroke="midnightblue" points="327.371,-63.3288 337.74,-61.153 328.278,-56.3878 327.371,-63.3288"/>
</g>
<!-- Node9 -->
<g id="node9" class="node"><title>Node9</title>
<g id="a_node9"><a xlink:href="$structAP__GeodesicGrid.html#a501aa54c7e9f5cb28685f44058994584" xlink:title="AP_GeodesicGrid::_subtriangle\l_index">
<polygon fill="white" stroke="black" points="511,-11 511,-41 664,-41 664,-11 511,-11"/>
<text text-anchor="start" x="519" y="-29" font-family="Helvetica,sans-Serif" font-size="10.00">AP_GeodesicGrid::_subtriangle</text>
<text text-anchor="middle" x="587.5" y="-18" font-family="Helvetica,sans-Serif" font-size="10.00">_index</text>
</a>
</g>
</g>
<!-- Node3&#45;&gt;Node9 -->
<g id="edge9" class="edge"><title>Node3&#45;&gt;Node9</title>
<path fill="none" stroke="midnightblue" d="M302.328,-43.8878C358.381,-40.3594 439.567,-35.249 500.823,-31.3931"/>
<polygon fill="midnightblue" stroke="midnightblue" points="501.1,-34.8827 510.86,-30.7613 500.66,-27.8965 501.1,-34.8827"/>
</g>
<!-- Node5 -->
<g id="node5" class="node"><title>Node5</title>
<g id="a_node5"><a xlink:href="$AP__Math_8h.html#a2a12cce483e9b870da70d30406d82c60" xlink:title="is_zero">
<polygon fill="white" stroke="black" points="747.5,-60.5 747.5,-79.5 795.5,-79.5 795.5,-60.5 747.5,-60.5"/>
<text text-anchor="middle" x="771.5" y="-67.5" font-family="Helvetica,sans-Serif" font-size="10.00">is_zero</text>
</a>
</g>
</g>
<!-- Node4&#45;&gt;Node5 -->
<g id="edge4" class="edge"><title>Node4&#45;&gt;Node5</title>
<path fill="none" stroke="midnightblue" d="M475.352,-70C553.204,-70 677.737,-70 737.024,-70"/>
<polygon fill="midnightblue" stroke="midnightblue" points="737.309,-73.5001 747.309,-70 737.309,-66.5001 737.309,-73.5001"/>
</g>
<!-- Node6 -->
<g id="node6" class="node"><title>Node6</title>
<g id="a_node6"><a xlink:href="$structAP__GeodesicGrid.html#a4bd78a9f6ebb48ca1e67d6580a7fe86e" xlink:title="AP_GeodesicGrid::_from\l_neighbor_umbrella">
<polygon fill="white" stroke="black" points="525,-99 525,-129 650,-129 650,-99 525,-99"/>
<text text-anchor="start" x="533" y="-117" font-family="Helvetica,sans-Serif" font-size="10.00">AP_GeodesicGrid::_from</text>
<text text-anchor="middle" x="587.5" y="-106" font-family="Helvetica,sans-Serif" font-size="10.00">_neighbor_umbrella</text>
</a>
</g>
</g>
<!-- Node4&#45;&gt;Node6 -->
<g id="edge5" class="edge"><title>Node4&#45;&gt;Node6</title>
<path fill="none" stroke="midnightblue" d="M468.601,-85.0192C483.639,-88.7156 499.869,-92.7053 515.337,-96.5074"/>
<polygon fill="midnightblue" stroke="midnightblue" points="514.824,-99.9855 525.371,-98.9738 516.495,-93.1879 514.824,-99.9855"/>
</g>
<!-- Node6&#45;&gt;Node5 -->
<g id="edge8" class="edge"><title>Node6&#45;&gt;Node5</title>
<path fill="none" stroke="midnightblue" d="M650.117,-99.1036C679.353,-92.0356 713.121,-83.8718 737.439,-77.9928"/>
<polygon fill="midnightblue" stroke="midnightblue" points="738.344,-81.3749 747.242,-75.6229 736.699,-74.5709 738.344,-81.3749"/>
</g>
<!-- Node7 -->
<g id="node7" class="node"><title>Node7</title>
<g id="a_node7"><a xlink:href="$AP__Math_8cpp.html#accbd9f8bbc0adacd51efa66fad490c24" xlink:title="is_equal">
<polygon fill="white" stroke="black" points="745,-101.5 745,-120.5 798,-120.5 798,-101.5 745,-101.5"/>
<text text-anchor="middle" x="771.5" y="-108.5" font-family="Helvetica,sans-Serif" font-size="10.00">is_equal</text>
</a>
</g>
</g>
<!-- Node6&#45;&gt;Node7 -->
<g id="edge6" class="edge"><title>Node6&#45;&gt;Node7</title>
<path fill="none" stroke="midnightblue" d="M650.117,-112.984C678.324,-112.519 710.75,-111.985 734.837,-111.588"/>
<polygon fill="midnightblue" stroke="midnightblue" points="735.001,-115.086 744.942,-111.421 734.886,-108.087 735.001,-115.086"/>
</g>
<!-- Node8 -->
<g id="node8" class="node"><title>Node8</title>
<g id="a_node8"><a xlink:href="$structAP__GeodesicGrid.html#ad239aec9f7cd77fc6a6755584743fe0b" xlink:title="AP_GeodesicGrid::_neighbor\l_umbrella_component">
<polygon fill="white" stroke="black" points="700,-140 700,-170 843,-170 843,-140 700,-140"/>
<text text-anchor="start" x="708" y="-158" font-family="Helvetica,sans-Serif" font-size="10.00">AP_GeodesicGrid::_neighbor</text>
<text text-anchor="middle" x="771.5" y="-147" font-family="Helvetica,sans-Serif" font-size="10.00">_umbrella_component</text>
</a>
</g>
</g>
<!-- Node6&#45;&gt;Node8 -->
<g id="edge7" class="edge"><title>Node6&#45;&gt;Node8</title>
<path fill="none" stroke="midnightblue" d="M650.117,-127.881C664.11,-131.033 679.141,-134.419 693.677,-137.694"/>
<polygon fill="midnightblue" stroke="midnightblue" points="693.118,-141.155 703.642,-139.939 694.656,-134.326 693.118,-141.155"/>
</g>
<!-- Node9&#45;&gt;Node5 -->
<g id="edge10" class="edge"><title>Node9&#45;&gt;Node5</title>
<path fill="none" stroke="midnightblue" d="M650.625,-41.0192C679.819,-48.0771 713.436,-56.2043 737.627,-62.0527"/>
<polygon fill="midnightblue" stroke="midnightblue" points="736.835,-65.462 747.377,-64.4099 738.48,-58.658 736.835,-65.462"/>
</g>
</g>
</svg>
