<?xml version="1.0" encoding="UTF-8" standalone="no"?>
<!DOCTYPE svg PUBLIC "-//W3C//DTD SVG 1.1//EN"
 "http://www.w3.org/Graphics/SVG/1.1/DTD/svg11.dtd">
<!-- Generated by graphviz version 2.38.0 (20140413.2041)
 -->
<!-- Title: loop Pages: 1 -->
<svg width="797pt" height="480pt"
 viewBox="0.00 0.00 797.00 480.00" xmlns="http://www.w3.org/2000/svg" xmlns:xlink="http://www.w3.org/1999/xlink">
<g id="graph0" class="graph" transform="scale(1 1) rotate(0) translate(4 476)">
<title>loop</title>
<polygon fill="white" stroke="none" points="-4,4 -4,-476 793,-476 793,4 -4,4"/>
<!-- Node1 -->
<g id="node1" class="node"><title>Node1</title>
<polygon fill="#bfbfbf" stroke="black" points="0,-158.5 0,-177.5 35,-177.5 35,-158.5 0,-158.5"/>
<text text-anchor="middle" x="17.5" y="-165.5" font-family="Helvetica,sans-Serif" font-size="10.00">loop</text>
</g>
<!-- Node2 -->
<g id="node2" class="node"><title>Node2</title>
<g id="a_node2"><a xlink:href="$classAP__HAL_1_1UARTDriver.html#a6ceedc792594e59fc7d80b39a435f027" xlink:title="AP_HAL::UARTDriver\l::printf">
<polygon fill="white" stroke="black" points="259.5,-371 259.5,-401 374.5,-401 374.5,-371 259.5,-371"/>
<text text-anchor="start" x="267.5" y="-389" font-family="Helvetica,sans-Serif" font-size="10.00">AP_HAL::UARTDriver</text>
<text text-anchor="middle" x="317" y="-378" font-family="Helvetica,sans-Serif" font-size="10.00">::printf</text>
</a>
</g>
</g>
<!-- Node1&#45;&gt;Node2 -->
<g id="edge1" class="edge"><title>Node1&#45;&gt;Node2</title>
<path fill="none" stroke="midnightblue" d="M19.3212,-177.643C21.9706,-202.682 32.5116,-270.361 71,-307 119.351,-353.028 194.69,-372.239 249.061,-380.257"/>
<polygon fill="midnightblue" stroke="midnightblue" points="248.914,-383.77 259.299,-381.672 249.873,-376.836 248.914,-383.77"/>
</g>
<!-- Node10 -->
<g id="node10" class="node"><title>Node10</title>
<g id="a_node10"><a xlink:href="$BusTest_8cpp.html#ad6c2f366812485125a4a0fab57ae2a09" xlink:title="get_device">
<polygon fill="white" stroke="black" points="107.5,-278.5 107.5,-297.5 171.5,-297.5 171.5,-278.5 107.5,-278.5"/>
<text text-anchor="middle" x="139.5" y="-285.5" font-family="Helvetica,sans-Serif" font-size="10.00">get_device</text>
</a>
</g>
</g>
<!-- Node1&#45;&gt;Node10 -->
<g id="edge9" class="edge"><title>Node1&#45;&gt;Node10</title>
<path fill="none" stroke="midnightblue" d="M21.2205,-177.661C27.1052,-196.846 42.8117,-239.967 71,-264 78.6567,-270.528 88.2149,-275.327 97.7082,-278.837"/>
<polygon fill="midnightblue" stroke="midnightblue" points="96.9025,-282.257 107.495,-282.048 99.0845,-275.605 96.9025,-282.257"/>
</g>
<!-- Node12 -->
<g id="node12" class="node"><title>Node12</title>
<g id="a_node12"><a xlink:href="$classAP__HAL_1_1Scheduler.html#ab3175e2e6223ccfe82f957e41cc12b26" xlink:title="AP_HAL::Scheduler::\ldelay">
<polygon fill="white" stroke="black" points="262,-175 262,-205 372,-205 372,-175 262,-175"/>
<text text-anchor="start" x="270" y="-193" font-family="Helvetica,sans-Serif" font-size="10.00">AP_HAL::Scheduler::</text>
<text text-anchor="middle" x="317" y="-182" font-family="Helvetica,sans-Serif" font-size="10.00">delay</text>
</a>
</g>
</g>
<!-- Node1&#45;&gt;Node12 -->
<g id="edge20" class="edge"><title>Node1&#45;&gt;Node12</title>
<path fill="none" stroke="midnightblue" d="M22.9928,-177.51C30.5339,-192.204 47.2764,-219.888 71,-231 126.14,-256.826 148.438,-243.64 208,-231 225.128,-227.365 227.715,-221.433 244,-215 249.519,-212.82 255.313,-210.637 261.118,-208.518"/>
<polygon fill="midnightblue" stroke="midnightblue" points="262.619,-211.698 270.849,-205.025 260.254,-205.109 262.619,-211.698"/>
</g>
<!-- Node15 -->
<g id="node15" class="node"><title>Node15</title>
<g id="a_node15"><a xlink:href="$classAP__HAL_1_1Device.html#a0e51c1247cf5f1ed2d689263d9c48eae" xlink:title="AP_HAL::Device::bus_type">
<polygon fill="white" stroke="black" points="71,-202.5 71,-221.5 208,-221.5 208,-202.5 71,-202.5"/>
<text text-anchor="middle" x="139.5" y="-209.5" font-family="Helvetica,sans-Serif" font-size="10.00">AP_HAL::Device::bus_type</text>
</a>
</g>
</g>
<!-- Node1&#45;&gt;Node15 -->
<g id="edge15" class="edge"><title>Node1&#45;&gt;Node15</title>
<path fill="none" stroke="midnightblue" d="M35.2065,-176.853C45.3683,-182.009 58.7147,-188.384 71,-193 77.2787,-195.359 83.9811,-197.583 90.6342,-199.62"/>
<polygon fill="midnightblue" stroke="midnightblue" points="89.7098,-202.996 100.291,-202.465 91.6883,-196.282 89.7098,-202.996"/>
</g>
<!-- Node16 -->
<g id="node16" class="node"><title>Node16</title>
<g id="a_node16"><a xlink:href="$classAP__HAL_1_1Device.html#a9cfca3d6c720115b4c77b21b64a2b8af" xlink:title="AP_HAL::Device::get\l_semaphore">
<polygon fill="white" stroke="black" points="84,-153 84,-183 195,-183 195,-153 84,-153"/>
<text text-anchor="start" x="92" y="-171" font-family="Helvetica,sans-Serif" font-size="10.00">AP_HAL::Device::get</text>
<text text-anchor="middle" x="139.5" y="-160" font-family="Helvetica,sans-Serif" font-size="10.00">_semaphore</text>
</a>
</g>
</g>
<!-- Node1&#45;&gt;Node16 -->
<g id="edge16" class="edge"><title>Node1&#45;&gt;Node16</title>
<path fill="none" stroke="midnightblue" d="M35.1855,-168C45.4462,-168 59.3256,-168 73.578,-168"/>
<polygon fill="midnightblue" stroke="midnightblue" points="73.9754,-171.5 83.9754,-168 73.9754,-164.5 73.9754,-171.5"/>
</g>
<!-- Node17 -->
<g id="node17" class="node"><title>Node17</title>
<g id="a_node17"><a xlink:href="$classAP__HAL_1_1Semaphore.html#abd3a0affad8bb211981a979f30386589" xlink:title="AP_HAL::Semaphore::take">
<polygon fill="white" stroke="black" points="72,-114.5 72,-133.5 207,-133.5 207,-114.5 72,-114.5"/>
<text text-anchor="middle" x="139.5" y="-121.5" font-family="Helvetica,sans-Serif" font-size="10.00">AP_HAL::Semaphore::take</text>
</a>
</g>
</g>
<!-- Node1&#45;&gt;Node17 -->
<g id="edge17" class="edge"><title>Node1&#45;&gt;Node17</title>
<path fill="none" stroke="midnightblue" d="M35.2682,-159.603C45.4518,-154.688 58.7996,-148.57 71,-144 78.0829,-141.347 85.6857,-138.808 93.1433,-136.482"/>
<polygon fill="midnightblue" stroke="midnightblue" points="94.2501,-139.804 102.807,-133.557 92.2222,-133.104 94.2501,-139.804"/>
</g>
<!-- Node18 -->
<g id="node18" class="node"><title>Node18</title>
<g id="a_node18"><a xlink:href="$classAP__HAL_1_1Device.html#a2af24b5f93b678af718b65a606e538b0" xlink:title="AP_HAL::Device::transfer">
<polygon fill="white" stroke="black" points="74,-76.5 74,-95.5 205,-95.5 205,-76.5 74,-76.5"/>
<text text-anchor="middle" x="139.5" y="-83.5" font-family="Helvetica,sans-Serif" font-size="10.00">AP_HAL::Device::transfer</text>
</a>
</g>
</g>
<!-- Node1&#45;&gt;Node18 -->
<g id="edge18" class="edge"><title>Node1&#45;&gt;Node18</title>
<path fill="none" stroke="midnightblue" d="M23.9484,-158.326C32.2773,-144.424 49.4968,-118.942 71,-105 74.1475,-102.959 77.5152,-101.135 81.0045,-99.5034"/>
<polygon fill="midnightblue" stroke="midnightblue" points="82.5358,-102.658 90.457,-95.6224 79.877,-96.1829 82.5358,-102.658"/>
</g>
<!-- Node19 -->
<g id="node19" class="node"><title>Node19</title>
<g id="a_node19"><a xlink:href="$classAP__HAL_1_1Semaphore.html#afcdbf03d5bea9d83037acc93bfaea7ce" xlink:title="AP_HAL::Semaphore::give">
<polygon fill="white" stroke="black" points="72.5,-38.5 72.5,-57.5 206.5,-57.5 206.5,-38.5 72.5,-38.5"/>
<text text-anchor="middle" x="139.5" y="-45.5" font-family="Helvetica,sans-Serif" font-size="10.00">AP_HAL::Semaphore::give</text>
</a>
</g>
</g>
<!-- Node1&#45;&gt;Node19 -->
<g id="edge19" class="edge"><title>Node1&#45;&gt;Node19</title>
<path fill="none" stroke="midnightblue" d="M20.768,-158.293C25.99,-138.134 40.7993,-91.5677 71,-67 73.2577,-65.1634 75.6824,-63.5041 78.2231,-62.0051"/>
<polygon fill="midnightblue" stroke="midnightblue" points="79.8549,-65.1024 87.2351,-57.5008 76.7253,-58.8409 79.8549,-65.1024"/>
</g>
<!-- Node20 -->
<g id="node20" class="node"><title>Node20</title>
<g id="a_node20"><a xlink:href="$BusTest_8cpp.html#aa754b8f19697c092a3eb48905d6561e3" xlink:title="AP_HAL_MAIN">
<polygon fill="white" stroke="black" points="96.5,-0.5 96.5,-19.5 182.5,-19.5 182.5,-0.5 96.5,-0.5"/>
<text text-anchor="middle" x="139.5" y="-7.5" font-family="Helvetica,sans-Serif" font-size="10.00">AP_HAL_MAIN</text>
</a>
</g>
</g>
<!-- Node1&#45;&gt;Node20 -->
<g id="edge21" class="edge"><title>Node1&#45;&gt;Node20</title>
<path fill="none" stroke="midnightblue" d="M19.2433,-158.274C21.7046,-133.033 31.8307,-64.9106 71,-29 75.6523,-24.7348 81.1885,-21.4179 87.06,-18.8401"/>
<polygon fill="midnightblue" stroke="midnightblue" points="88.3105,-22.1095 96.4835,-15.3677 85.8901,-15.5412 88.3105,-22.1095"/>
</g>
<!-- Node3 -->
<g id="node3" class="node"><title>Node3</title>
<g id="a_node3"><a xlink:href="$classAP__HAL_1_1UARTDriver.html#aa8abfb6d6641299472c29ac1edde559f" xlink:title="AP_HAL::UARTDriver\l::vprintf">
<polygon fill="white" stroke="black" points="426,-371 426,-401 541,-401 541,-371 426,-371"/>
<text text-anchor="start" x="434" y="-389" font-family="Helvetica,sans-Serif" font-size="10.00">AP_HAL::UARTDriver</text>
<text text-anchor="middle" x="483.5" y="-378" font-family="Helvetica,sans-Serif" font-size="10.00">::vprintf</text>
</a>
</g>
</g>
<!-- Node2&#45;&gt;Node3 -->
<g id="edge2" class="edge"><title>Node2&#45;&gt;Node3</title>
<path fill="none" stroke="midnightblue" d="M374.612,-386C387.794,-386 401.953,-386 415.536,-386"/>
<polygon fill="midnightblue" stroke="midnightblue" points="415.784,-389.5 425.784,-386 415.784,-382.5 415.784,-389.5"/>
</g>
<!-- Node4 -->
<g id="node4" class="node"><title>Node4</title>
<g id="a_node4"><a xlink:href="$print__vprintf_8cpp.html#a1534eaeab54696df96975b56d9f49212" xlink:title="print_vprintf">
<polygon fill="white" stroke="black" points="577,-376.5 577,-395.5 645,-395.5 645,-376.5 577,-376.5"/>
<text text-anchor="middle" x="611" y="-383.5" font-family="Helvetica,sans-Serif" font-size="10.00">print_vprintf</text>
</a>
</g>
</g>
<!-- Node3&#45;&gt;Node4 -->
<g id="edge3" class="edge"><title>Node3&#45;&gt;Node4</title>
<path fill="none" stroke="midnightblue" d="M541.009,-386C549.609,-386 558.367,-386 566.628,-386"/>
<polygon fill="midnightblue" stroke="midnightblue" points="566.777,-389.5 576.777,-386 566.777,-382.5 566.777,-389.5"/>
</g>
<!-- Node5 -->
<g id="node5" class="node"><title>Node5</title>
<g id="a_node5"><a xlink:href="$classAP__HAL_1_1Print.html#acc65391952a43334f8f5c9bef341f501" xlink:title="AP_HAL::Print::write">
<polygon fill="white" stroke="black" points="681,-452.5 681,-471.5 789,-471.5 789,-452.5 681,-452.5"/>
<text text-anchor="middle" x="735" y="-459.5" font-family="Helvetica,sans-Serif" font-size="10.00">AP_HAL::Print::write</text>
</a>
</g>
</g>
<!-- Node4&#45;&gt;Node5 -->
<g id="edge4" class="edge"><title>Node4&#45;&gt;Node5</title>
<path fill="none" stroke="midnightblue" d="M621.47,-395.683C634.07,-408.102 657.502,-429.629 681,-443 684.632,-445.067 688.529,-446.973 692.501,-448.715"/>
<polygon fill="midnightblue" stroke="midnightblue" points="691.233,-451.977 701.816,-452.479 693.856,-445.487 691.233,-451.977"/>
</g>
<!-- Node6 -->
<g id="node6" class="node"><title>Node6</title>
<g id="a_node6"><a xlink:href="$ftoa__engine_8cpp.html#a1c28234da8f20b43c85890d4bb452947" xlink:title="ftoa_engine">
<polygon fill="white" stroke="black" points="701.5,-414.5 701.5,-433.5 768.5,-433.5 768.5,-414.5 701.5,-414.5"/>
<text text-anchor="middle" x="735" y="-421.5" font-family="Helvetica,sans-Serif" font-size="10.00">ftoa_engine</text>
</a>
</g>
</g>
<!-- Node4&#45;&gt;Node6 -->
<g id="edge5" class="edge"><title>Node4&#45;&gt;Node6</title>
<path fill="none" stroke="midnightblue" d="M642.786,-395.589C658.101,-400.359 676.817,-406.189 693.3,-411.323"/>
<polygon fill="midnightblue" stroke="midnightblue" points="692.636,-414.782 703.224,-414.414 694.717,-408.099 692.636,-414.782"/>
</g>
<!-- Node7 -->
<g id="node7" class="node"><title>Node7</title>
<g id="a_node7"><a xlink:href="$replace_8cpp.html#a880bcc7b85a09e6254691bebd5344b51" xlink:title="strnlen">
<polygon fill="white" stroke="black" points="712,-376.5 712,-395.5 758,-395.5 758,-376.5 712,-376.5"/>
<text text-anchor="middle" x="735" y="-383.5" font-family="Helvetica,sans-Serif" font-size="10.00">strnlen</text>
</a>
</g>
</g>
<!-- Node4&#45;&gt;Node7 -->
<g id="edge6" class="edge"><title>Node4&#45;&gt;Node7</title>
<path fill="none" stroke="midnightblue" d="M645.015,-386C662.547,-386 684.016,-386 701.474,-386"/>
<polygon fill="midnightblue" stroke="midnightblue" points="701.754,-389.5 711.754,-386 701.754,-382.5 701.754,-389.5"/>
</g>
<!-- Node8 -->
<g id="node8" class="node"><title>Node8</title>
<g id="a_node8"><a xlink:href="$utoa__invert_8cpp.html#a34926f552460b47c414ec4d83b32815c" xlink:title="ulltoa_invert">
<polygon fill="white" stroke="black" points="700.5,-338.5 700.5,-357.5 769.5,-357.5 769.5,-338.5 700.5,-338.5"/>
<text text-anchor="middle" x="735" y="-345.5" font-family="Helvetica,sans-Serif" font-size="10.00">ulltoa_invert</text>
</a>
</g>
</g>
<!-- Node4&#45;&gt;Node8 -->
<g id="edge7" class="edge"><title>Node4&#45;&gt;Node8</title>
<path fill="none" stroke="midnightblue" d="M642.786,-376.411C658.101,-371.641 676.817,-365.811 693.3,-360.677"/>
<polygon fill="midnightblue" stroke="midnightblue" points="694.717,-363.901 703.224,-357.586 692.636,-357.218 694.717,-363.901"/>
</g>
<!-- Node9 -->
<g id="node9" class="node"><title>Node9</title>
<g id="a_node9"><a xlink:href="$utoa__invert_8cpp.html#a5d99bba8e697c1e11da489d88fca8559" xlink:title="ultoa_invert">
<polygon fill="white" stroke="black" points="701.5,-300.5 701.5,-319.5 768.5,-319.5 768.5,-300.5 701.5,-300.5"/>
<text text-anchor="middle" x="735" y="-307.5" font-family="Helvetica,sans-Serif" font-size="10.00">ultoa_invert</text>
</a>
</g>
</g>
<!-- Node4&#45;&gt;Node9 -->
<g id="edge8" class="edge"><title>Node4&#45;&gt;Node9</title>
<path fill="none" stroke="midnightblue" d="M621.47,-376.317C634.07,-363.898 657.502,-342.371 681,-329 684.632,-326.933 688.529,-325.027 692.501,-323.285"/>
<polygon fill="midnightblue" stroke="midnightblue" points="693.856,-326.513 701.816,-319.521 691.233,-320.023 693.856,-326.513"/>
</g>
<!-- Node10&#45;&gt;Node2 -->
<g id="edge11" class="edge"><title>Node10&#45;&gt;Node2</title>
<path fill="none" stroke="midnightblue" d="M151.565,-297.638C169.752,-313.064 207.589,-343.448 244,-362 247.531,-363.799 251.227,-365.507 254.999,-367.12"/>
<polygon fill="midnightblue" stroke="midnightblue" points="253.9,-370.45 264.484,-370.932 256.51,-363.955 253.9,-370.45"/>
</g>
<!-- Node11 -->
<g id="node11" class="node"><title>Node11</title>
<g id="a_node11"><a xlink:href="$classAP__HAL_1_1SPIDeviceManager.html#a934f05385b87bfbdfc912162028867fc" xlink:title="AP_HAL::SPIDeviceManager\l::get_device_name">
<polygon fill="white" stroke="black" points="244,-322 244,-352 390,-352 390,-322 244,-322"/>
<text text-anchor="start" x="252" y="-340" font-family="Helvetica,sans-Serif" font-size="10.00">AP_HAL::SPIDeviceManager</text>
<text text-anchor="middle" x="317" y="-329" font-family="Helvetica,sans-Serif" font-size="10.00">::get_device_name</text>
</a>
</g>
</g>
<!-- Node10&#45;&gt;Node11 -->
<g id="edge10" class="edge"><title>Node10&#45;&gt;Node11</title>
<path fill="none" stroke="midnightblue" d="M171.876,-296.76C194.18,-302.987 224.91,-311.567 252.266,-319.205"/>
<polygon fill="midnightblue" stroke="midnightblue" points="251.597,-322.652 262.17,-321.971 253.48,-315.91 251.597,-322.652"/>
</g>
<!-- Node10&#45;&gt;Node12 -->
<g id="edge12" class="edge"><title>Node10&#45;&gt;Node12</title>
<path fill="none" stroke="midnightblue" d="M171.628,-281.144C183.777,-277.437 197.321,-271.941 208,-264 229.685,-247.875 222.255,-231.045 244,-215 246.8,-212.934 249.784,-211.029 252.886,-209.273"/>
<polygon fill="midnightblue" stroke="midnightblue" points="254.545,-212.356 261.88,-204.711 251.379,-206.113 254.545,-212.356"/>
</g>
<!-- Node13 -->
<g id="node13" class="node"><title>Node13</title>
<g id="a_node13"><a xlink:href="$classAP__HAL_1_1SPIDeviceManager.html#af0b7857bf18d0f5aa9d71cca6278dfa2" xlink:title="AP_HAL::SPIDeviceManager\l::get_count">
<polygon fill="white" stroke="black" points="244,-273 244,-303 390,-303 390,-273 244,-273"/>
<text text-anchor="start" x="252" y="-291" font-family="Helvetica,sans-Serif" font-size="10.00">AP_HAL::SPIDeviceManager</text>
<text text-anchor="middle" x="317" y="-280" font-family="Helvetica,sans-Serif" font-size="10.00">::get_count</text>
</a>
</g>
</g>
<!-- Node10&#45;&gt;Node13 -->
<g id="edge13" class="edge"><title>Node10&#45;&gt;Node13</title>
<path fill="none" stroke="midnightblue" d="M171.876,-288C189.232,-288 211.691,-288 233.692,-288"/>
<polygon fill="midnightblue" stroke="midnightblue" points="233.749,-291.5 243.749,-288 233.749,-284.5 233.749,-291.5"/>
</g>
<!-- Node14 -->
<g id="node14" class="node"><title>Node14</title>
<g id="a_node14"><a xlink:href="$classAP__HAL_1_1SPIDeviceManager.html#a84c4a9ff2ae0cdaa9a0bc8a3f0939893" xlink:title="AP_HAL::SPIDeviceManager\l::get_device">
<polygon fill="white" stroke="black" points="244,-224 244,-254 390,-254 390,-224 244,-224"/>
<text text-anchor="start" x="252" y="-242" font-family="Helvetica,sans-Serif" font-size="10.00">AP_HAL::SPIDeviceManager</text>
<text text-anchor="middle" x="317" y="-231" font-family="Helvetica,sans-Serif" font-size="10.00">::get_device</text>
</a>
</g>
</g>
<!-- Node10&#45;&gt;Node14 -->
<g id="edge14" class="edge"><title>Node10&#45;&gt;Node14</title>
<path fill="none" stroke="midnightblue" d="M171.876,-279.24C194.18,-273.013 224.91,-264.433 252.266,-256.795"/>
<polygon fill="midnightblue" stroke="midnightblue" points="253.48,-260.09 262.17,-254.029 251.597,-253.348 253.48,-260.09"/>
</g>
</g>
</svg>
