<?xml version="1.0" encoding="UTF-8" standalone="no"?>
<!DOCTYPE svg PUBLIC "-//W3C//DTD SVG 1.1//EN"
 "http://www.w3.org/Graphics/SVG/1.1/DTD/svg11.dtd">
<!-- Generated by graphviz version 2.38.0 (20140413.2041)
 -->
<!-- Title: get_device Pages: 1 -->
<svg width="653pt" height="257pt"
 viewBox="0.00 0.00 653.00 256.50" xmlns="http://www.w3.org/2000/svg" xmlns:xlink="http://www.w3.org/1999/xlink">
<g id="graph0" class="graph" transform="scale(1 1) rotate(0) translate(4 252.5)">
<title>get_device</title>
<polygon fill="white" stroke="none" points="-4,4 -4,-252.5 649,-252.5 649,4 -4,4"/>
<!-- Node1 -->
<g id="node1" class="node"><title>Node1</title>
<polygon fill="#bfbfbf" stroke="black" points="0,-104 0,-123 64,-123 64,-104 0,-104"/>
<text text-anchor="middle" x="32" y="-111" font-family="Helvetica,sans-Serif" font-size="10.00">get_device</text>
</g>
<!-- Node2 -->
<g id="node2" class="node"><title>Node2</title>
<g id="a_node2"><a xlink:href="$classAP__HAL_1_1SPIDeviceManager.html#a934f05385b87bfbdfc912162028867fc" xlink:title="AP_HAL::SPIDeviceManager\l::get_device_name">
<polygon fill="white" stroke="black" points="100,-196.5 100,-226.5 246,-226.5 246,-196.5 100,-196.5"/>
<text text-anchor="start" x="108" y="-214.5" font-family="Helvetica,sans-Serif" font-size="10.00">AP_HAL::SPIDeviceManager</text>
<text text-anchor="middle" x="173" y="-203.5" font-family="Helvetica,sans-Serif" font-size="10.00">::get_device_name</text>
</a>
</g>
</g>
<!-- Node1&#45;&gt;Node2 -->
<g id="edge1" class="edge"><title>Node1&#45;&gt;Node2</title>
<path fill="none" stroke="midnightblue" d="M39.2344,-123.12C49.8699,-138.799 73.0079,-169.878 100,-187.5 102.431,-189.087 104.976,-190.578 107.599,-191.979"/>
<polygon fill="midnightblue" stroke="midnightblue" points="106.231,-195.205 116.758,-196.399 109.273,-188.901 106.231,-195.205"/>
</g>
<!-- Node3 -->
<g id="node3" class="node"><title>Node3</title>
<g id="a_node3"><a xlink:href="$classAP__HAL_1_1UARTDriver.html#a6ceedc792594e59fc7d80b39a435f027" xlink:title="AP_HAL::UARTDriver\l::printf">
<polygon fill="white" stroke="black" points="115.5,-147.5 115.5,-177.5 230.5,-177.5 230.5,-147.5 115.5,-147.5"/>
<text text-anchor="start" x="123.5" y="-165.5" font-family="Helvetica,sans-Serif" font-size="10.00">AP_HAL::UARTDriver</text>
<text text-anchor="middle" x="173" y="-154.5" font-family="Helvetica,sans-Serif" font-size="10.00">::printf</text>
</a>
</g>
</g>
<!-- Node1&#45;&gt;Node3 -->
<g id="edge2" class="edge"><title>Node1&#45;&gt;Node3</title>
<path fill="none" stroke="midnightblue" d="M58.058,-123.09C70.6119,-127.833 86.0688,-133.581 100,-138.5 105.203,-140.337 110.63,-142.215 116.069,-144.072"/>
<polygon fill="midnightblue" stroke="midnightblue" points="115.231,-147.484 125.826,-147.378 117.477,-140.854 115.231,-147.484"/>
</g>
<!-- Node11 -->
<g id="node11" class="node"><title>Node11</title>
<g id="a_node11"><a xlink:href="$classAP__HAL_1_1Scheduler.html#ab3175e2e6223ccfe82f957e41cc12b26" xlink:title="AP_HAL::Scheduler::\ldelay">
<polygon fill="white" stroke="black" points="118,-98.5 118,-128.5 228,-128.5 228,-98.5 118,-98.5"/>
<text text-anchor="start" x="126" y="-116.5" font-family="Helvetica,sans-Serif" font-size="10.00">AP_HAL::Scheduler::</text>
<text text-anchor="middle" x="173" y="-105.5" font-family="Helvetica,sans-Serif" font-size="10.00">delay</text>
</a>
</g>
</g>
<!-- Node1&#45;&gt;Node11 -->
<g id="edge10" class="edge"><title>Node1&#45;&gt;Node11</title>
<path fill="none" stroke="midnightblue" d="M64.1943,-113.5C77.0712,-113.5 92.4993,-113.5 107.604,-113.5"/>
<polygon fill="midnightblue" stroke="midnightblue" points="107.975,-117 117.975,-113.5 107.974,-110 107.975,-117"/>
</g>
<!-- Node12 -->
<g id="node12" class="node"><title>Node12</title>
<g id="a_node12"><a xlink:href="$classAP__HAL_1_1SPIDeviceManager.html#af0b7857bf18d0f5aa9d71cca6278dfa2" xlink:title="AP_HAL::SPIDeviceManager\l::get_count">
<polygon fill="white" stroke="black" points="100,-49.5 100,-79.5 246,-79.5 246,-49.5 100,-49.5"/>
<text text-anchor="start" x="108" y="-67.5" font-family="Helvetica,sans-Serif" font-size="10.00">AP_HAL::SPIDeviceManager</text>
<text text-anchor="middle" x="173" y="-56.5" font-family="Helvetica,sans-Serif" font-size="10.00">::get_count</text>
</a>
</g>
</g>
<!-- Node1&#45;&gt;Node12 -->
<g id="edge11" class="edge"><title>Node1&#45;&gt;Node12</title>
<path fill="none" stroke="midnightblue" d="M59.3909,-103.979C71.7186,-99.5494 86.6,-94.2263 100,-89.5 106.06,-87.3626 112.412,-85.1365 118.726,-82.9323"/>
<polygon fill="midnightblue" stroke="midnightblue" points="120.28,-86.0974 128.572,-79.5024 117.977,-79.4871 120.28,-86.0974"/>
</g>
<!-- Node13 -->
<g id="node13" class="node"><title>Node13</title>
<g id="a_node13"><a xlink:href="$classAP__HAL_1_1SPIDeviceManager.html#a84c4a9ff2ae0cdaa9a0bc8a3f0939893" xlink:title="AP_HAL::SPIDeviceManager\l::get_device">
<polygon fill="white" stroke="black" points="100,-0.5 100,-30.5 246,-30.5 246,-0.5 100,-0.5"/>
<text text-anchor="start" x="108" y="-18.5" font-family="Helvetica,sans-Serif" font-size="10.00">AP_HAL::SPIDeviceManager</text>
<text text-anchor="middle" x="173" y="-7.5" font-family="Helvetica,sans-Serif" font-size="10.00">::get_device</text>
</a>
</g>
</g>
<!-- Node1&#45;&gt;Node13 -->
<g id="edge12" class="edge"><title>Node1&#45;&gt;Node13</title>
<path fill="none" stroke="midnightblue" d="M39.6404,-103.549C50.5068,-87.9873 73.545,-57.8784 100,-40.5 102.965,-38.5521 106.099,-36.738 109.334,-35.051"/>
<polygon fill="midnightblue" stroke="midnightblue" points="111.125,-38.0753 118.661,-30.6278 108.126,-31.7505 111.125,-38.0753"/>
</g>
<!-- Node4 -->
<g id="node4" class="node"><title>Node4</title>
<g id="a_node4"><a xlink:href="$classAP__HAL_1_1UARTDriver.html#aa8abfb6d6641299472c29ac1edde559f" xlink:title="AP_HAL::UARTDriver\l::vprintf">
<polygon fill="white" stroke="black" points="282,-147.5 282,-177.5 397,-177.5 397,-147.5 282,-147.5"/>
<text text-anchor="start" x="290" y="-165.5" font-family="Helvetica,sans-Serif" font-size="10.00">AP_HAL::UARTDriver</text>
<text text-anchor="middle" x="339.5" y="-154.5" font-family="Helvetica,sans-Serif" font-size="10.00">::vprintf</text>
</a>
</g>
</g>
<!-- Node3&#45;&gt;Node4 -->
<g id="edge3" class="edge"><title>Node3&#45;&gt;Node4</title>
<path fill="none" stroke="midnightblue" d="M230.612,-162.5C243.794,-162.5 257.953,-162.5 271.536,-162.5"/>
<polygon fill="midnightblue" stroke="midnightblue" points="271.784,-166 281.784,-162.5 271.784,-159 271.784,-166"/>
</g>
<!-- Node5 -->
<g id="node5" class="node"><title>Node5</title>
<g id="a_node5"><a xlink:href="$print__vprintf_8cpp.html#a1534eaeab54696df96975b56d9f49212" xlink:title="print_vprintf">
<polygon fill="white" stroke="black" points="433,-153 433,-172 501,-172 501,-153 433,-153"/>
<text text-anchor="middle" x="467" y="-160" font-family="Helvetica,sans-Serif" font-size="10.00">print_vprintf</text>
</a>
</g>
</g>
<!-- Node4&#45;&gt;Node5 -->
<g id="edge4" class="edge"><title>Node4&#45;&gt;Node5</title>
<path fill="none" stroke="midnightblue" d="M397.009,-162.5C405.609,-162.5 414.367,-162.5 422.628,-162.5"/>
<polygon fill="midnightblue" stroke="midnightblue" points="422.777,-166 432.777,-162.5 422.777,-159 422.777,-166"/>
</g>
<!-- Node6 -->
<g id="node6" class="node"><title>Node6</title>
<g id="a_node6"><a xlink:href="$classAP__HAL_1_1Print.html#acc65391952a43334f8f5c9bef341f501" xlink:title="AP_HAL::Print::write">
<polygon fill="white" stroke="black" points="537,-229 537,-248 645,-248 645,-229 537,-229"/>
<text text-anchor="middle" x="591" y="-236" font-family="Helvetica,sans-Serif" font-size="10.00">AP_HAL::Print::write</text>
</a>
</g>
</g>
<!-- Node5&#45;&gt;Node6 -->
<g id="edge5" class="edge"><title>Node5&#45;&gt;Node6</title>
<path fill="none" stroke="midnightblue" d="M477.47,-172.183C490.07,-184.602 513.502,-206.129 537,-219.5 540.632,-221.567 544.529,-223.473 548.501,-225.215"/>
<polygon fill="midnightblue" stroke="midnightblue" points="547.233,-228.477 557.816,-228.979 549.856,-221.987 547.233,-228.477"/>
</g>
<!-- Node7 -->
<g id="node7" class="node"><title>Node7</title>
<g id="a_node7"><a xlink:href="$ftoa__engine_8cpp.html#a1c28234da8f20b43c85890d4bb452947" xlink:title="ftoa_engine">
<polygon fill="white" stroke="black" points="557.5,-191 557.5,-210 624.5,-210 624.5,-191 557.5,-191"/>
<text text-anchor="middle" x="591" y="-198" font-family="Helvetica,sans-Serif" font-size="10.00">ftoa_engine</text>
</a>
</g>
</g>
<!-- Node5&#45;&gt;Node7 -->
<g id="edge6" class="edge"><title>Node5&#45;&gt;Node7</title>
<path fill="none" stroke="midnightblue" d="M498.786,-172.089C514.101,-176.859 532.817,-182.689 549.3,-187.823"/>
<polygon fill="midnightblue" stroke="midnightblue" points="548.636,-191.282 559.224,-190.914 550.717,-184.599 548.636,-191.282"/>
</g>
<!-- Node8 -->
<g id="node8" class="node"><title>Node8</title>
<g id="a_node8"><a xlink:href="$replace_8cpp.html#a880bcc7b85a09e6254691bebd5344b51" xlink:title="strnlen">
<polygon fill="white" stroke="black" points="568,-153 568,-172 614,-172 614,-153 568,-153"/>
<text text-anchor="middle" x="591" y="-160" font-family="Helvetica,sans-Serif" font-size="10.00">strnlen</text>
</a>
</g>
</g>
<!-- Node5&#45;&gt;Node8 -->
<g id="edge7" class="edge"><title>Node5&#45;&gt;Node8</title>
<path fill="none" stroke="midnightblue" d="M501.015,-162.5C518.547,-162.5 540.016,-162.5 557.474,-162.5"/>
<polygon fill="midnightblue" stroke="midnightblue" points="557.754,-166 567.754,-162.5 557.754,-159 557.754,-166"/>
</g>
<!-- Node9 -->
<g id="node9" class="node"><title>Node9</title>
<g id="a_node9"><a xlink:href="$utoa__invert_8cpp.html#a34926f552460b47c414ec4d83b32815c" xlink:title="ulltoa_invert">
<polygon fill="white" stroke="black" points="556.5,-115 556.5,-134 625.5,-134 625.5,-115 556.5,-115"/>
<text text-anchor="middle" x="591" y="-122" font-family="Helvetica,sans-Serif" font-size="10.00">ulltoa_invert</text>
</a>
</g>
</g>
<!-- Node5&#45;&gt;Node9 -->
<g id="edge8" class="edge"><title>Node5&#45;&gt;Node9</title>
<path fill="none" stroke="midnightblue" d="M498.786,-152.911C514.101,-148.141 532.817,-142.311 549.3,-137.177"/>
<polygon fill="midnightblue" stroke="midnightblue" points="550.717,-140.401 559.224,-134.086 548.636,-133.718 550.717,-140.401"/>
</g>
<!-- Node10 -->
<g id="node10" class="node"><title>Node10</title>
<g id="a_node10"><a xlink:href="$utoa__invert_8cpp.html#a5d99bba8e697c1e11da489d88fca8559" xlink:title="ultoa_invert">
<polygon fill="white" stroke="black" points="557.5,-77 557.5,-96 624.5,-96 624.5,-77 557.5,-77"/>
<text text-anchor="middle" x="591" y="-84" font-family="Helvetica,sans-Serif" font-size="10.00">ultoa_invert</text>
</a>
</g>
</g>
<!-- Node5&#45;&gt;Node10 -->
<g id="edge9" class="edge"><title>Node5&#45;&gt;Node10</title>
<path fill="none" stroke="midnightblue" d="M477.47,-152.817C490.07,-140.398 513.502,-118.871 537,-105.5 540.632,-103.433 544.529,-101.527 548.501,-99.7853"/>
<polygon fill="midnightblue" stroke="midnightblue" points="549.856,-103.013 557.816,-96.0214 547.233,-96.5226 549.856,-103.013"/>
</g>
</g>
</svg>
