<?xml version="1.0" encoding="UTF-8" standalone="no"?>
<!DOCTYPE svg PUBLIC "-//W3C//DTD SVG 1.1//EN"
 "http://www.w3.org/Graphics/SVG/1.1/DTD/svg11.dtd">
<!-- Generated by graphviz version 2.38.0 (20140413.2041)
 -->
<!-- Title: setup Pages: 1 -->
<svg width="633pt" height="47pt"
 viewBox="0.00 0.00 633.00 47.00" xmlns="http://www.w3.org/2000/svg" xmlns:xlink="http://www.w3.org/1999/xlink">
<g id="graph0" class="graph" transform="scale(1 1) rotate(0) translate(4 43)">
<title>setup</title>
<polygon fill="white" stroke="none" points="-4,4 -4,-43 629,-43 629,4 -4,4"/>
<!-- Node1 -->
<g id="node1" class="node"><title>Node1</title>
<polygon fill="#bfbfbf" stroke="black" points="0,-19.5 0,-38.5 41,-38.5 41,-19.5 0,-19.5"/>
<text text-anchor="middle" x="20.5" y="-26.5" font-family="Helvetica,sans-Serif" font-size="10.00">setup</text>
</g>
<!-- Node2 -->
<g id="node2" class="node"><title>Node2</title>
<g id="a_node2"><a xlink:href="$classAP__HAL_1_1Print.html#ad337ce3f7977411b7d34d47a51e5737e" xlink:title="AP_HAL::Print::println">
<polygon fill="white" stroke="black" points="77,-19.5 77,-38.5 190,-38.5 190,-19.5 77,-19.5"/>
<text text-anchor="middle" x="133.5" y="-26.5" font-family="Helvetica,sans-Serif" font-size="10.00">AP_HAL::Print::println</text>
</a>
</g>
</g>
<!-- Node1&#45;&gt;Node2 -->
<g id="edge1" class="edge"><title>Node1&#45;&gt;Node2</title>
<path fill="none" stroke="midnightblue" d="M41.0891,-29C48.4934,-29 57.3923,-29 66.6913,-29"/>
<polygon fill="midnightblue" stroke="midnightblue" points="66.887,-32.5001 76.8869,-29 66.8869,-25.5001 66.887,-32.5001"/>
</g>
<!-- Node3 -->
<g id="node3" class="node"><title>Node3</title>
<g id="a_node3"><a xlink:href="$classAP__HAL_1_1Print.html#acfe80773011eb17dfb52c2fba517a093" xlink:title="AP_HAL::Print::print">
<polygon fill="white" stroke="black" points="375,-19.5 375,-38.5 481,-38.5 481,-19.5 375,-19.5"/>
<text text-anchor="middle" x="428" y="-26.5" font-family="Helvetica,sans-Serif" font-size="10.00">AP_HAL::Print::print</text>
</a>
</g>
</g>
<!-- Node2&#45;&gt;Node3 -->
<g id="edge2" class="edge"><title>Node2&#45;&gt;Node3</title>
<path fill="none" stroke="midnightblue" d="M190.205,-29C240.087,-29 313.137,-29 364.887,-29"/>
<polygon fill="midnightblue" stroke="midnightblue" points="364.94,-32.5001 374.94,-29 364.94,-25.5001 364.94,-32.5001"/>
</g>
<!-- Node5 -->
<g id="node5" class="node"><title>Node5</title>
<g id="a_node5"><a xlink:href="$classAP__HAL_1_1Print.html#a169b128f9e22f0c15883768f580541a2" xlink:title="AP_HAL::Print::println">
<polygon fill="white" stroke="black" points="226,-0.5 226,-19.5 339,-19.5 339,-0.5 226,-0.5"/>
<text text-anchor="middle" x="282.5" y="-7.5" font-family="Helvetica,sans-Serif" font-size="10.00">AP_HAL::Print::println</text>
</a>
</g>
</g>
<!-- Node2&#45;&gt;Node5 -->
<g id="edge4" class="edge"><title>Node2&#45;&gt;Node5</title>
<path fill="none" stroke="midnightblue" d="M190.074,-21.8169C198.489,-20.7293 207.238,-19.5985 215.842,-18.4864"/>
<polygon fill="midnightblue" stroke="midnightblue" points="216.378,-21.9463 225.847,-17.1932 215.481,-15.0041 216.378,-21.9463"/>
</g>
<!-- Node4 -->
<g id="node4" class="node"><title>Node4</title>
<g id="a_node4"><a xlink:href="$classAP__HAL_1_1Print.html#acc65391952a43334f8f5c9bef341f501" xlink:title="AP_HAL::Print::write">
<polygon fill="white" stroke="black" points="517,-19.5 517,-38.5 625,-38.5 625,-19.5 517,-19.5"/>
<text text-anchor="middle" x="571" y="-26.5" font-family="Helvetica,sans-Serif" font-size="10.00">AP_HAL::Print::write</text>
</a>
</g>
</g>
<!-- Node3&#45;&gt;Node4 -->
<g id="edge3" class="edge"><title>Node3&#45;&gt;Node4</title>
<path fill="none" stroke="midnightblue" d="M481.103,-29C489.357,-29 497.973,-29 506.453,-29"/>
<polygon fill="midnightblue" stroke="midnightblue" points="506.697,-32.5001 516.697,-29 506.697,-25.5001 506.697,-32.5001"/>
</g>
<!-- Node5&#45;&gt;Node3 -->
<g id="edge5" class="edge"><title>Node5&#45;&gt;Node3</title>
<path fill="none" stroke="midnightblue" d="M339.392,-17.4003C347.672,-18.4966 356.249,-19.6323 364.651,-20.7447"/>
<polygon fill="midnightblue" stroke="midnightblue" points="364.408,-24.243 374.781,-22.086 365.327,-17.3036 364.408,-24.243"/>
</g>
</g>
</svg>
