<?xml version="1.0" encoding="UTF-8" standalone="no"?>
<!DOCTYPE svg PUBLIC "-//W3C//DTD SVG 1.1//EN"
 "http://www.w3.org/Graphics/SVG/1.1/DTD/svg11.dtd">
<!-- Generated by graphviz version 2.38.0 (20140413.2041)
 -->
<!-- Title: libraries/AP_Common/missing/byteswap.h Pages: 1 -->
<svg width="2000pt" height="173pt"
 viewBox="0.00 0.00 2000.00 173.00" xmlns="http://www.w3.org/2000/svg" xmlns:xlink="http://www.w3.org/1999/xlink">
<g id="graph0" class="graph" transform="scale(1 1) rotate(0) translate(4 169)">
<title>libraries/AP_Common/missing/byteswap.h</title>
<polygon fill="white" stroke="none" points="-4,4 -4,-169 1996,-169 1996,4 -4,4"/>
<!-- Node1 -->
<g id="node1" class="node"><title>Node1</title>
<polygon fill="#bfbfbf" stroke="black" points="849,-134.5 849,-164.5 961,-164.5 961,-134.5 849,-134.5"/>
<text text-anchor="start" x="857" y="-152.5" font-family="Helvetica,sans-Serif" font-size="10.00">libraries/AP_Common</text>
<text text-anchor="middle" x="905" y="-141.5" font-family="Helvetica,sans-Serif" font-size="10.00">/missing/byteswap.h</text>
</g>
<!-- Node2 -->
<g id="node2" class="node"><title>Node2</title>
<g id="a_node2"><a xlink:href="$sparse-endian_8h.html" xlink:title="libraries/AP_HAL/utility\l/sparse&#45;endian.h">
<polygon fill="white" stroke="black" points="846,-67.5 846,-97.5 964,-97.5 964,-67.5 846,-67.5"/>
<text text-anchor="start" x="854" y="-85.5" font-family="Helvetica,sans-Serif" font-size="10.00">libraries/AP_HAL/utility</text>
<text text-anchor="middle" x="905" y="-74.5" font-family="Helvetica,sans-Serif" font-size="10.00">/sparse&#45;endian.h</text>
</a>
</g>
</g>
<!-- Node1&#45;&gt;Node2 -->
<g id="edge1" class="edge"><title>Node1&#45;&gt;Node2</title>
<path fill="none" stroke="midnightblue" d="M905,-124.108C905,-115.154 905,-105.323 905,-97.5765"/>
<polygon fill="midnightblue" stroke="midnightblue" points="901.5,-124.396 905,-134.396 908.5,-124.396 901.5,-124.396"/>
</g>
<!-- Node3 -->
<g id="node3" class="node"><title>Node3</title>
<g id="a_node3"><a xlink:href="$AP__ADC__ADS1115_8cpp.html" xlink:title="libraries/AP_ADC/AP\l_ADC_ADS1115.cpp">
<polygon fill="white" stroke="black" points="0,-0.5 0,-30.5 110,-30.5 110,-0.5 0,-0.5"/>
<text text-anchor="start" x="8" y="-18.5" font-family="Helvetica,sans-Serif" font-size="10.00">libraries/AP_ADC/AP</text>
<text text-anchor="middle" x="55" y="-7.5" font-family="Helvetica,sans-Serif" font-size="10.00">_ADC_ADS1115.cpp</text>
</a>
</g>
</g>
<!-- Node2&#45;&gt;Node3 -->
<g id="edge2" class="edge"><title>Node2&#45;&gt;Node3</title>
<path fill="none" stroke="midnightblue" d="M835.11,-80.7212C697.384,-78.3691 381.478,-68.9212 119,-31 116.068,-30.5765 113.072,-30.0894 110.054,-29.556"/>
<polygon fill="midnightblue" stroke="midnightblue" points="835.451,-84.2272 845.507,-80.891 835.566,-77.2281 835.451,-84.2272"/>
</g>
<!-- Node4 -->
<g id="node4" class="node"><title>Node4</title>
<g id="a_node4"><a xlink:href="$AP__Airspeed__MS5525_8cpp.html" xlink:title="libraries/AP_Airspeed\l/AP_Airspeed_MS5525.cpp">
<polygon fill="white" stroke="black" points="128.5,-0.5 128.5,-30.5 265.5,-30.5 265.5,-0.5 128.5,-0.5"/>
<text text-anchor="start" x="136.5" y="-18.5" font-family="Helvetica,sans-Serif" font-size="10.00">libraries/AP_Airspeed</text>
<text text-anchor="middle" x="197" y="-7.5" font-family="Helvetica,sans-Serif" font-size="10.00">/AP_Airspeed_MS5525.cpp</text>
</a>
</g>
</g>
<!-- Node2&#45;&gt;Node4 -->
<g id="edge3" class="edge"><title>Node2&#45;&gt;Node4</title>
<path fill="none" stroke="midnightblue" d="M835.415,-78.3527C718.874,-72.5401 477.015,-58.1607 274,-31 271.303,-30.6392 268.558,-30.2463 265.788,-29.8285"/>
<polygon fill="midnightblue" stroke="midnightblue" points="835.46,-81.8591 845.62,-78.8557 835.805,-74.8676 835.46,-81.8591"/>
</g>
<!-- Node5 -->
<g id="node5" class="node"><title>Node5</title>
<g id="a_node5"><a xlink:href="$AP__Compass__BMM150_8cpp.html" xlink:title="libraries/AP_Compass\l/AP_Compass_BMM150.cpp">
<polygon fill="white" stroke="black" points="283.5,-0.5 283.5,-30.5 426.5,-30.5 426.5,-0.5 283.5,-0.5"/>
<text text-anchor="start" x="291.5" y="-18.5" font-family="Helvetica,sans-Serif" font-size="10.00">libraries/AP_Compass</text>
<text text-anchor="middle" x="355" y="-7.5" font-family="Helvetica,sans-Serif" font-size="10.00">/AP_Compass_BMM150.cpp</text>
</a>
</g>
</g>
<!-- Node2&#45;&gt;Node5 -->
<g id="edge4" class="edge"><title>Node2&#45;&gt;Node5</title>
<path fill="none" stroke="midnightblue" d="M835.838,-75.6449C744.012,-67.511 576.905,-51.4564 435,-31 432.346,-30.6173 429.644,-30.2116 426.918,-29.7884"/>
<polygon fill="midnightblue" stroke="midnightblue" points="835.574,-79.1351 845.842,-76.5261 836.188,-72.1621 835.574,-79.1351"/>
</g>
<!-- Node6 -->
<g id="node6" class="node"><title>Node6</title>
<g id="a_node6"><a xlink:href="$AP__Compass__IST8310_8cpp.html" xlink:title="libraries/AP_Compass\l/AP_Compass_IST8310.cpp">
<polygon fill="white" stroke="black" points="444.5,-0.5 444.5,-30.5 585.5,-30.5 585.5,-0.5 444.5,-0.5"/>
<text text-anchor="start" x="452.5" y="-18.5" font-family="Helvetica,sans-Serif" font-size="10.00">libraries/AP_Compass</text>
<text text-anchor="middle" x="515" y="-7.5" font-family="Helvetica,sans-Serif" font-size="10.00">/AP_Compass_IST8310.cpp</text>
</a>
</g>
</g>
<!-- Node2&#45;&gt;Node6 -->
<g id="edge5" class="edge"><title>Node2&#45;&gt;Node6</title>
<path fill="none" stroke="midnightblue" d="M835.616,-70.5596C772.751,-60.5608 677.594,-45.2113 595,-31 591.94,-30.4734 588.814,-29.9303 585.658,-29.3773"/>
<polygon fill="midnightblue" stroke="midnightblue" points="835.382,-74.0662 845.807,-72.1786 836.48,-67.1529 835.382,-74.0662"/>
</g>
<!-- Node7 -->
<g id="node7" class="node"><title>Node7</title>
<g id="a_node7"><a xlink:href="$AP__Compass__QMC5883L_8cpp.html" xlink:title="libraries/AP_Compass\l/AP_Compass_QMC5883L.cpp">
<polygon fill="white" stroke="black" points="604,-0.5 604,-30.5 758,-30.5 758,-0.5 604,-0.5"/>
<text text-anchor="start" x="612" y="-18.5" font-family="Helvetica,sans-Serif" font-size="10.00">libraries/AP_Compass</text>
<text text-anchor="middle" x="681" y="-7.5" font-family="Helvetica,sans-Serif" font-size="10.00">/AP_Compass_QMC5883L.cpp</text>
</a>
</g>
</g>
<!-- Node2&#45;&gt;Node7 -->
<g id="edge6" class="edge"><title>Node2&#45;&gt;Node7</title>
<path fill="none" stroke="midnightblue" d="M846.69,-64.5797C810.308,-54.0225 764.025,-40.5921 729.628,-30.6109"/>
<polygon fill="midnightblue" stroke="midnightblue" points="846.092,-68.0504 856.671,-67.476 848.043,-61.3278 846.092,-68.0504"/>
</g>
<!-- Node8 -->
<g id="node8" class="node"><title>Node8</title>
<g id="a_node8"><a xlink:href="$RCOutput__AeroIO_8cpp.html" xlink:title="libraries/AP_HAL_Linux\l/RCOutput_AeroIO.cpp">
<polygon fill="white" stroke="black" points="776,-0.5 776,-30.5 896,-30.5 896,-0.5 776,-0.5"/>
<text text-anchor="start" x="784" y="-18.5" font-family="Helvetica,sans-Serif" font-size="10.00">libraries/AP_HAL_Linux</text>
<text text-anchor="middle" x="836" y="-7.5" font-family="Helvetica,sans-Serif" font-size="10.00">/RCOutput_AeroIO.cpp</text>
</a>
</g>
</g>
<!-- Node2&#45;&gt;Node8 -->
<g id="edge7" class="edge"><title>Node2&#45;&gt;Node8</title>
<path fill="none" stroke="midnightblue" d="M882.508,-60.3115C872.157,-50.5612 860.16,-39.259 850.943,-30.5765"/>
<polygon fill="midnightblue" stroke="midnightblue" points="880.349,-63.0866 890.028,-67.396 885.149,-57.9914 880.349,-63.0866"/>
</g>
<!-- Node9 -->
<g id="node9" class="node"><title>Node9</title>
<g id="a_node9"><a xlink:href="$RCOutput__Bebop_8cpp.html" xlink:title="libraries/AP_HAL_Linux\l/RCOutput_Bebop.cpp">
<polygon fill="white" stroke="black" points="914,-0.5 914,-30.5 1034,-30.5 1034,-0.5 914,-0.5"/>
<text text-anchor="start" x="922" y="-18.5" font-family="Helvetica,sans-Serif" font-size="10.00">libraries/AP_HAL_Linux</text>
<text text-anchor="middle" x="974" y="-7.5" font-family="Helvetica,sans-Serif" font-size="10.00">/RCOutput_Bebop.cpp</text>
</a>
</g>
</g>
<!-- Node2&#45;&gt;Node9 -->
<g id="edge8" class="edge"><title>Node2&#45;&gt;Node9</title>
<path fill="none" stroke="midnightblue" d="M927.492,-60.3115C937.843,-50.5612 949.84,-39.259 959.057,-30.5765"/>
<polygon fill="midnightblue" stroke="midnightblue" points="924.851,-57.9914 919.972,-67.396 929.651,-63.0866 924.851,-57.9914"/>
</g>
<!-- Node10 -->
<g id="node10" class="node"><title>Node10</title>
<g id="a_node10"><a xlink:href="$AP__InertialSensor__BMI160_8cpp.html" xlink:title="libraries/AP_InertialSensor\l/AP_InertialSensor_BMI160.cpp">
<polygon fill="white" stroke="black" points="1052,-0.5 1052,-30.5 1208,-30.5 1208,-0.5 1052,-0.5"/>
<text text-anchor="start" x="1060" y="-18.5" font-family="Helvetica,sans-Serif" font-size="10.00">libraries/AP_InertialSensor</text>
<text text-anchor="middle" x="1130" y="-7.5" font-family="Helvetica,sans-Serif" font-size="10.00">/AP_InertialSensor_BMI160.cpp</text>
</a>
</g>
</g>
<!-- Node2&#45;&gt;Node10 -->
<g id="edge9" class="edge"><title>Node2&#45;&gt;Node10</title>
<path fill="none" stroke="midnightblue" d="M963.57,-64.5797C1000.11,-54.0225 1046.6,-40.5921 1081.15,-30.6109"/>
<polygon fill="midnightblue" stroke="midnightblue" points="962.18,-61.338 953.545,-67.476 964.123,-68.063 962.18,-61.338"/>
</g>
<!-- Node11 -->
<g id="node11" class="node"><title>Node11</title>
<g id="a_node11"><a xlink:href="$AP__RangeFinder__LightWareI2C_8cpp.html" xlink:title="libraries/AP_RangeFinder\l/AP_RangeFinder_LightWareI2C.cpp">
<polygon fill="white" stroke="black" points="1226,-0.5 1226,-30.5 1404,-30.5 1404,-0.5 1226,-0.5"/>
<text text-anchor="start" x="1234" y="-18.5" font-family="Helvetica,sans-Serif" font-size="10.00">libraries/AP_RangeFinder</text>
<text text-anchor="middle" x="1315" y="-7.5" font-family="Helvetica,sans-Serif" font-size="10.00">/AP_RangeFinder_LightWareI2C.cpp</text>
</a>
</g>
</g>
<!-- Node2&#45;&gt;Node11 -->
<g id="edge10" class="edge"><title>Node2&#45;&gt;Node11</title>
<path fill="none" stroke="midnightblue" d="M974.138,-70.5391C1043.55,-59.5353 1150.75,-42.5394 1226.37,-30.5512"/>
<polygon fill="midnightblue" stroke="midnightblue" points="973.508,-67.0951 964.18,-72.1179 974.604,-74.0088 973.508,-67.0951"/>
</g>
<!-- Node12 -->
<g id="node12" class="node"><title>Node12</title>
<g id="a_node12"><a xlink:href="$AP__RangeFinder__MaxsonarI2CXL_8cpp.html" xlink:title="libraries/AP_RangeFinder\l/AP_RangeFinder_MaxsonarI2CXL.cpp">
<polygon fill="white" stroke="black" points="1422,-0.5 1422,-30.5 1610,-30.5 1610,-0.5 1422,-0.5"/>
<text text-anchor="start" x="1430" y="-18.5" font-family="Helvetica,sans-Serif" font-size="10.00">libraries/AP_RangeFinder</text>
<text text-anchor="middle" x="1516" y="-7.5" font-family="Helvetica,sans-Serif" font-size="10.00">/AP_RangeFinder_MaxsonarI2CXL.cpp</text>
</a>
</g>
</g>
<!-- Node2&#45;&gt;Node12 -->
<g id="edge11" class="edge"><title>Node2&#45;&gt;Node12</title>
<path fill="none" stroke="midnightblue" d="M974.197,-75.5221C1072.05,-66.8636 1256.41,-49.7979 1413,-31 1415.96,-30.6449 1418.96,-30.2753 1422,-29.8946"/>
<polygon fill="midnightblue" stroke="midnightblue" points="973.791,-72.0442 964.138,-76.4095 974.407,-79.0171 973.791,-72.0442"/>
</g>
<!-- Node13 -->
<g id="node13" class="node"><title>Node13</title>
<g id="a_node13"><a xlink:href="$AP__RangeFinder__PulsedLightLRF_8cpp.html" xlink:title="libraries/AP_RangeFinder\l/AP_RangeFinder_PulsedLightLRF.cpp">
<polygon fill="white" stroke="black" points="1628,-0.5 1628,-30.5 1816,-30.5 1816,-0.5 1628,-0.5"/>
<text text-anchor="start" x="1636" y="-18.5" font-family="Helvetica,sans-Serif" font-size="10.00">libraries/AP_RangeFinder</text>
<text text-anchor="middle" x="1722" y="-7.5" font-family="Helvetica,sans-Serif" font-size="10.00">/AP_RangeFinder_PulsedLightLRF.cpp</text>
</a>
</g>
</g>
<!-- Node2&#45;&gt;Node13 -->
<g id="edge12" class="edge"><title>Node2&#45;&gt;Node13</title>
<path fill="none" stroke="midnightblue" d="M974.402,-78.1912C1102.18,-71.7438 1383.17,-55.9095 1619,-31 1621.87,-30.6965 1624.79,-30.3743 1627.73,-30.0369"/>
<polygon fill="midnightblue" stroke="midnightblue" points="974.175,-74.6981 964.362,-78.6943 974.525,-81.6893 974.175,-74.6981"/>
</g>
<!-- Node14 -->
<g id="node14" class="node"><title>Node14</title>
<g id="a_node14"><a xlink:href="$AP__RangeFinder__VL53L0X_8cpp.html" xlink:title="libraries/AP_RangeFinder\l/AP_RangeFinder_VL53L0X.cpp">
<polygon fill="white" stroke="black" points="1834,-0.5 1834,-30.5 1992,-30.5 1992,-0.5 1834,-0.5"/>
<text text-anchor="start" x="1842" y="-18.5" font-family="Helvetica,sans-Serif" font-size="10.00">libraries/AP_RangeFinder</text>
<text text-anchor="middle" x="1913" y="-7.5" font-family="Helvetica,sans-Serif" font-size="10.00">/AP_RangeFinder_VL53L0X.cpp</text>
</a>
</g>
</g>
<!-- Node2&#45;&gt;Node14 -->
<g id="edge13" class="edge"><title>Node2&#45;&gt;Node14</title>
<path fill="none" stroke="midnightblue" d="M974.337,-80.2603C1127.97,-76.9518 1508.48,-65.6602 1825,-31 1827.92,-30.6798 1830.9,-30.3272 1833.9,-29.9488"/>
<polygon fill="midnightblue" stroke="midnightblue" points="974.034,-76.7658 964.11,-80.4759 974.182,-83.7643 974.034,-76.7658"/>
</g>
</g>
</svg>
