<?xml version="1.0" encoding="UTF-8" standalone="no"?>
<!DOCTYPE svg PUBLIC "-//W3C//DTD SVG 1.1//EN"
 "http://www.w3.org/Graphics/SVG/1.1/DTD/svg11.dtd">
<!-- Generated by graphviz version 2.38.0 (20140413.2041)
 -->
<!-- Title: AC_Avoid::distance_to_lean_pct Pages: 1 -->
<svg width="420pt" height="39pt"
 viewBox="0.00 0.00 420.00 39.00" xmlns="http://www.w3.org/2000/svg" xmlns:xlink="http://www.w3.org/1999/xlink">
<g id="graph0" class="graph" transform="scale(1 1) rotate(0) translate(4 35)">
<title>AC_Avoid::distance_to_lean_pct</title>
<polygon fill="white" stroke="none" points="-4,4 -4,-35 416,-35 416,4 -4,4"/>
<!-- Node1 -->
<g id="node1" class="node"><title>Node1</title>
<polygon fill="#bfbfbf" stroke="black" points="0,-0.5 0,-30.5 104,-30.5 104,-0.5 0,-0.5"/>
<text text-anchor="start" x="8" y="-18.5" font-family="Helvetica,sans-Serif" font-size="10.00">AC_Avoid::distance</text>
<text text-anchor="middle" x="52" y="-7.5" font-family="Helvetica,sans-Serif" font-size="10.00">_to_lean_pct</text>
</g>
<!-- Node2 -->
<g id="node2" class="node"><title>Node2</title>
<g id="a_node2"><a xlink:href="$classAC__Avoid.html#ad27740aa416a455958dcdc914a2be63e" xlink:title="AC_Avoid::get_proximity\l_roll_pitch_pct">
<polygon fill="white" stroke="black" points="140,-0.5 140,-30.5 265,-30.5 265,-0.5 140,-0.5"/>
<text text-anchor="start" x="148" y="-18.5" font-family="Helvetica,sans-Serif" font-size="10.00">AC_Avoid::get_proximity</text>
<text text-anchor="middle" x="202.5" y="-7.5" font-family="Helvetica,sans-Serif" font-size="10.00">_roll_pitch_pct</text>
</a>
</g>
</g>
<!-- Node1&#45;&gt;Node2 -->
<g id="edge1" class="edge"><title>Node1&#45;&gt;Node2</title>
<path fill="none" stroke="midnightblue" d="M114.248,-15.5C122.683,-15.5 131.348,-15.5 139.791,-15.5"/>
<polygon fill="midnightblue" stroke="midnightblue" points="114.105,-12.0001 104.105,-15.5 114.105,-19.0001 114.105,-12.0001"/>
</g>
<!-- Node3 -->
<g id="node3" class="node"><title>Node3</title>
<g id="a_node3"><a xlink:href="$classAC__Avoid.html#a836fb856e23b46260cadd85665077ea8" xlink:title="AC_Avoid::adjust_roll\l_pitch">
<polygon fill="white" stroke="black" points="301,-0.5 301,-30.5 412,-30.5 412,-0.5 301,-0.5"/>
<text text-anchor="start" x="309" y="-18.5" font-family="Helvetica,sans-Serif" font-size="10.00">AC_Avoid::adjust_roll</text>
<text text-anchor="middle" x="356.5" y="-7.5" font-family="Helvetica,sans-Serif" font-size="10.00">_pitch</text>
</a>
</g>
</g>
<!-- Node2&#45;&gt;Node3 -->
<g id="edge2" class="edge"><title>Node2&#45;&gt;Node3</title>
<path fill="none" stroke="midnightblue" d="M275.533,-15.5C283.952,-15.5 292.436,-15.5 300.571,-15.5"/>
<polygon fill="midnightblue" stroke="midnightblue" points="275.324,-12.0001 265.324,-15.5 275.324,-19.0001 275.324,-12.0001"/>
</g>
</g>
</svg>
