<?xml version="1.0" encoding="UTF-8" standalone="no"?>
<!DOCTYPE svg PUBLIC "-//W3C//DTD SVG 1.1//EN"
 "http://www.w3.org/Graphics/SVG/1.1/DTD/svg11.dtd">
<!-- Generated by graphviz version 2.38.0 (20140413.2041)
 -->
<!-- Title: AC_AttitudeControl::rate_target_to_motor_roll Pages: 1 -->
<svg width="629pt" height="401pt"
 viewBox="0.00 0.00 629.00 400.50" xmlns="http://www.w3.org/2000/svg" xmlns:xlink="http://www.w3.org/1999/xlink">
<g id="graph0" class="graph" transform="scale(1 1) rotate(0) translate(4 396.5)">
<title>AC_AttitudeControl::rate_target_to_motor_roll</title>
<polygon fill="white" stroke="none" points="-4,4 -4,-396.5 625,-396.5 625,4 -4,4"/>
<!-- Node1 -->
<g id="node1" class="node"><title>Node1</title>
<polygon fill="#bfbfbf" stroke="black" points="0,-204 0,-234 131,-234 131,-204 0,-204"/>
<text text-anchor="start" x="8" y="-222" font-family="Helvetica,sans-Serif" font-size="10.00">AC_AttitudeControl</text>
<text text-anchor="middle" x="65.5" y="-211" font-family="Helvetica,sans-Serif" font-size="10.00">::rate_target_to_motor_roll</text>
</g>
<!-- Node2 -->
<g id="node2" class="node"><title>Node2</title>
<g id="a_node2"><a xlink:href="$classAC__AttitudeControl.html#ad300b51e0777495496adddd1770ee920" xlink:title="AC_AttitudeControl\l::get_rate_roll_pid">
<polygon fill="white" stroke="black" points="183.5,-362 183.5,-392 284.5,-392 284.5,-362 183.5,-362"/>
<text text-anchor="start" x="191.5" y="-380" font-family="Helvetica,sans-Serif" font-size="10.00">AC_AttitudeControl</text>
<text text-anchor="middle" x="234" y="-369" font-family="Helvetica,sans-Serif" font-size="10.00">::get_rate_roll_pid</text>
</a>
</g>
</g>
<!-- Node1&#45;&gt;Node2 -->
<g id="edge1" class="edge"><title>Node1&#45;&gt;Node2</title>
<path fill="none" stroke="midnightblue" d="M74.3197,-234.389C88.9474,-261.74 122.989,-319.034 167,-352 169.47,-353.85 172.093,-355.578 174.815,-357.191"/>
<polygon fill="midnightblue" stroke="midnightblue" points="173.305,-360.351 183.778,-361.952 176.589,-354.17 173.305,-360.351"/>
</g>
<!-- Node3 -->
<g id="node3" class="node"><title>Node3</title>
<g id="a_node3"><a xlink:href="$classAC__PID.html#a0217a1314e284babe6fe0d3e3cf92601" xlink:title="AC_PID::set_input_filter_d">
<polygon fill="white" stroke="black" points="167,-323.5 167,-342.5 301,-342.5 301,-323.5 167,-323.5"/>
<text text-anchor="middle" x="234" y="-330.5" font-family="Helvetica,sans-Serif" font-size="10.00">AC_PID::set_input_filter_d</text>
</a>
</g>
</g>
<!-- Node1&#45;&gt;Node3 -->
<g id="edge2" class="edge"><title>Node1&#45;&gt;Node3</title>
<path fill="none" stroke="midnightblue" d="M78.468,-234.182C95.7963,-255.159 129.887,-292.81 167,-314 170.891,-316.222 175.062,-318.2 179.347,-319.96"/>
<polygon fill="midnightblue" stroke="midnightblue" points="178.251,-323.286 188.844,-323.47 180.678,-316.72 178.251,-323.286"/>
</g>
<!-- Node6 -->
<g id="node6" class="node"><title>Node6</title>
<g id="a_node6"><a xlink:href="$classAC__PID.html#a3f727ab395b401474027b6b9efcab5a3" xlink:title="AC_PID::set_desired_rate">
<polygon fill="white" stroke="black" points="168.5,-285.5 168.5,-304.5 299.5,-304.5 299.5,-285.5 168.5,-285.5"/>
<text text-anchor="middle" x="234" y="-292.5" font-family="Helvetica,sans-Serif" font-size="10.00">AC_PID::set_desired_rate</text>
</a>
</g>
</g>
<!-- Node1&#45;&gt;Node6 -->
<g id="edge5" class="edge"><title>Node1&#45;&gt;Node6</title>
<path fill="none" stroke="midnightblue" d="M89.6571,-234.225C109.528,-246.771 139.265,-264.335 167,-276 172.492,-278.31 178.355,-280.442 184.234,-282.377"/>
<polygon fill="midnightblue" stroke="midnightblue" points="183.493,-285.813 194.082,-285.446 185.576,-279.129 183.493,-285.813"/>
</g>
<!-- Node7 -->
<g id="node7" class="node"><title>Node7</title>
<g id="a_node7"><a xlink:href="$classAC__PID.html#a0fc275cae5ff46799af85af551c65870" xlink:title="AC_PID::get_integrator">
<polygon fill="white" stroke="black" points="174.5,-247.5 174.5,-266.5 293.5,-266.5 293.5,-247.5 174.5,-247.5"/>
<text text-anchor="middle" x="234" y="-254.5" font-family="Helvetica,sans-Serif" font-size="10.00">AC_PID::get_integrator</text>
</a>
</g>
</g>
<!-- Node1&#45;&gt;Node7 -->
<g id="edge6" class="edge"><title>Node1&#45;&gt;Node7</title>
<path fill="none" stroke="midnightblue" d="M131.35,-233.801C147.829,-237.561 165.319,-241.553 181.062,-245.146"/>
<polygon fill="midnightblue" stroke="midnightblue" points="180.598,-248.63 191.126,-247.443 182.156,-241.806 180.598,-248.63"/>
</g>
<!-- Node8 -->
<g id="node8" class="node"><title>Node8</title>
<g id="a_node8"><a xlink:href="$classAC__PID.html#a2d5bf9811a78c93a396ec1e37ae6fa0a" xlink:title="AC_PID::get_i">
<polygon fill="white" stroke="black" points="355.5,-228.5 355.5,-247.5 435.5,-247.5 435.5,-228.5 355.5,-228.5"/>
<text text-anchor="middle" x="395.5" y="-235.5" font-family="Helvetica,sans-Serif" font-size="10.00">AC_PID::get_i</text>
</a>
</g>
</g>
<!-- Node1&#45;&gt;Node8 -->
<g id="edge7" class="edge"><title>Node1&#45;&gt;Node8</title>
<path fill="none" stroke="midnightblue" d="M131.302,-222.754C194.048,-226.388 287.825,-231.821 344.859,-235.124"/>
<polygon fill="midnightblue" stroke="midnightblue" points="344.88,-238.631 355.065,-235.716 345.285,-231.643 344.88,-238.631"/>
</g>
<!-- Node9 -->
<g id="node9" class="node"><title>Node9</title>
<g id="a_node9"><a xlink:href="$classAC__PID.html#a4808bb2656a1e8d94c713e58a7a2a222" xlink:title="AC_PID::get_p">
<polygon fill="white" stroke="black" points="192.5,-171.5 192.5,-190.5 275.5,-190.5 275.5,-171.5 192.5,-171.5"/>
<text text-anchor="middle" x="234" y="-178.5" font-family="Helvetica,sans-Serif" font-size="10.00">AC_PID::get_p</text>
</a>
</g>
</g>
<!-- Node1&#45;&gt;Node9 -->
<g id="edge9" class="edge"><title>Node1&#45;&gt;Node9</title>
<path fill="none" stroke="midnightblue" d="M131.35,-204.199C148.128,-200.37 165.956,-196.301 181.919,-192.658"/>
<polygon fill="midnightblue" stroke="midnightblue" points="183.139,-195.97 192.11,-190.332 181.582,-189.145 183.139,-195.97"/>
</g>
<!-- Node10 -->
<g id="node10" class="node"><title>Node10</title>
<g id="a_node10"><a xlink:href="$classAC__PID.html#ad0c0510049ea37401920792e843bec86" xlink:title="AC_PID::get_d">
<polygon fill="white" stroke="black" points="192.5,-133.5 192.5,-152.5 275.5,-152.5 275.5,-133.5 192.5,-133.5"/>
<text text-anchor="middle" x="234" y="-140.5" font-family="Helvetica,sans-Serif" font-size="10.00">AC_PID::get_d</text>
</a>
</g>
</g>
<!-- Node1&#45;&gt;Node10 -->
<g id="edge10" class="edge"><title>Node1&#45;&gt;Node10</title>
<path fill="none" stroke="midnightblue" d="M89.6571,-203.775C109.528,-191.229 139.265,-173.665 167,-162 172.492,-159.69 178.355,-157.558 184.234,-155.623"/>
<polygon fill="midnightblue" stroke="midnightblue" points="185.576,-158.871 194.082,-152.554 183.493,-152.187 185.576,-158.871"/>
</g>
<!-- Node11 -->
<g id="node11" class="node"><title>Node11</title>
<g id="a_node11"><a xlink:href="$classAC__PID.html#af8b4c040c43a28fbe025de765f38e90d" xlink:title="AC_PID::get_ff">
<polygon fill="white" stroke="black" points="192,-95.5 192,-114.5 276,-114.5 276,-95.5 192,-95.5"/>
<text text-anchor="middle" x="234" y="-102.5" font-family="Helvetica,sans-Serif" font-size="10.00">AC_PID::get_ff</text>
</a>
</g>
</g>
<!-- Node1&#45;&gt;Node11 -->
<g id="edge11" class="edge"><title>Node1&#45;&gt;Node11</title>
<path fill="none" stroke="midnightblue" d="M78.468,-203.818C95.7963,-182.841 129.887,-145.19 167,-124 171.789,-121.266 177.002,-118.899 182.329,-116.857"/>
<polygon fill="midnightblue" stroke="midnightblue" points="183.668,-120.097 191.975,-113.521 181.38,-113.482 183.668,-120.097"/>
</g>
<!-- Node12 -->
<g id="node12" class="node"><title>Node12</title>
<g id="a_node12"><a xlink:href="$AP__Math_8h.html#ad525609d9dba6ffa556a0fbf08a3f9b4" xlink:title="constrain_float">
<polygon fill="white" stroke="black" points="194,-57.5 194,-76.5 274,-76.5 274,-57.5 194,-57.5"/>
<text text-anchor="middle" x="234" y="-64.5" font-family="Helvetica,sans-Serif" font-size="10.00">constrain_float</text>
</a>
</g>
</g>
<!-- Node1&#45;&gt;Node12 -->
<g id="edge12" class="edge"><title>Node1&#45;&gt;Node12</title>
<path fill="none" stroke="midnightblue" d="M73.8355,-203.685C87.9201,-175.931 121.44,-117.303 167,-86 172.224,-82.4107 178.124,-79.4929 184.194,-77.1223"/>
<polygon fill="midnightblue" stroke="midnightblue" points="185.476,-80.3831 193.801,-73.8298 183.206,-73.7612 185.476,-80.3831"/>
</g>
<!-- Node4 -->
<g id="node4" class="node"><title>Node4</title>
<g id="a_node4"><a xlink:href="$classAC__PID.html#ac12ffbd4fd053c6152d403b69e07b8e1" xlink:title="AC_PID::get_filt_alpha">
<polygon fill="white" stroke="black" points="337,-304.5 337,-323.5 454,-323.5 454,-304.5 337,-304.5"/>
<text text-anchor="middle" x="395.5" y="-311.5" font-family="Helvetica,sans-Serif" font-size="10.00">AC_PID::get_filt_alpha</text>
</a>
</g>
</g>
<!-- Node3&#45;&gt;Node4 -->
<g id="edge3" class="edge"><title>Node3&#45;&gt;Node4</title>
<path fill="none" stroke="midnightblue" d="M301.257,-325.107C309.654,-324.107 318.257,-323.082 326.678,-322.079"/>
<polygon fill="midnightblue" stroke="midnightblue" points="327.318,-325.528 336.834,-320.869 326.49,-318.577 327.318,-325.528"/>
</g>
<!-- Node5 -->
<g id="node5" class="node"><title>Node5</title>
<g id="a_node5"><a xlink:href="$AP__Math_8h.html#a2a12cce483e9b870da70d30406d82c60" xlink:title="is_zero">
<polygon fill="white" stroke="black" points="531.5,-266.5 531.5,-285.5 579.5,-285.5 579.5,-266.5 531.5,-266.5"/>
<text text-anchor="middle" x="555.5" y="-273.5" font-family="Helvetica,sans-Serif" font-size="10.00">is_zero</text>
</a>
</g>
</g>
<!-- Node4&#45;&gt;Node5 -->
<g id="edge4" class="edge"><title>Node4&#45;&gt;Node5</title>
<path fill="none" stroke="midnightblue" d="M436.37,-304.411C462.607,-298.101 496.548,-289.938 521.312,-283.982"/>
<polygon fill="midnightblue" stroke="midnightblue" points="522.41,-287.318 531.314,-281.576 520.773,-280.512 522.41,-287.318"/>
</g>
<!-- Node8&#45;&gt;Node5 -->
<g id="edge8" class="edge"><title>Node8&#45;&gt;Node5</title>
<path fill="none" stroke="midnightblue" d="M435.556,-247.393C461.9,-253.729 496.286,-261.999 521.307,-268.017"/>
<polygon fill="midnightblue" stroke="midnightblue" points="520.528,-271.429 531.07,-270.365 522.165,-264.623 520.528,-271.429"/>
</g>
<!-- Node13 -->
<g id="node13" class="node"><title>Node13</title>
<g id="a_node13"><a xlink:href="$AP__Math_8h.html#a20e8f8671c282c69c1954652b6d61585" xlink:title="constrain_value">
<polygon fill="white" stroke="black" points="353,-57.5 353,-76.5 438,-76.5 438,-57.5 353,-57.5"/>
<text text-anchor="middle" x="395.5" y="-64.5" font-family="Helvetica,sans-Serif" font-size="10.00">constrain_value</text>
</a>
</g>
</g>
<!-- Node12&#45;&gt;Node13 -->
<g id="edge13" class="edge"><title>Node12&#45;&gt;Node13</title>
<path fill="none" stroke="midnightblue" d="M274.018,-67C294.732,-67 320.458,-67 342.812,-67"/>
<polygon fill="midnightblue" stroke="midnightblue" points="342.815,-70.5001 352.815,-67 342.815,-63.5001 342.815,-70.5001"/>
</g>
<!-- Node14 -->
<g id="node14" class="node"><title>Node14</title>
<g id="a_node14"><a xlink:href="$AP__Math_8cpp.html#a37e8e901754cb9c8e53a8e3030c82c50" xlink:title="constrain_value\&lt; int \&gt;">
<polygon fill="white" stroke="black" points="499,-114.5 499,-133.5 612,-133.5 612,-114.5 499,-114.5"/>
<text text-anchor="middle" x="555.5" y="-121.5" font-family="Helvetica,sans-Serif" font-size="10.00">constrain_value&lt; int &gt;</text>
</a>
</g>
</g>
<!-- Node13&#45;&gt;Node14 -->
<g id="edge14" class="edge"><title>Node13&#45;&gt;Node14</title>
<path fill="none" stroke="midnightblue" d="M418.18,-76.5282C436.981,-84.618 465.023,-96.2701 490,-105 496.441,-107.251 503.304,-109.465 510.06,-111.541"/>
<polygon fill="midnightblue" stroke="midnightblue" points="509.235,-114.948 519.819,-114.473 511.249,-108.244 509.235,-114.948"/>
</g>
<!-- Node15 -->
<g id="node15" class="node"><title>Node15</title>
<g id="a_node15"><a xlink:href="$AP__Math_8cpp.html#afdbe107ec1987d318a6347816fbf2b89" xlink:title="constrain_value\&lt; short \&gt;">
<polygon fill="white" stroke="black" points="493,-76.5 493,-95.5 618,-95.5 618,-76.5 493,-76.5"/>
<text text-anchor="middle" x="555.5" y="-83.5" font-family="Helvetica,sans-Serif" font-size="10.00">constrain_value&lt; short &gt;</text>
</a>
</g>
</g>
<!-- Node13&#45;&gt;Node15 -->
<g id="edge15" class="edge"><title>Node13&#45;&gt;Node15</title>
<path fill="none" stroke="midnightblue" d="M438.013,-71.992C451.738,-73.6425 467.429,-75.5294 482.752,-77.3721"/>
<polygon fill="midnightblue" stroke="midnightblue" points="482.398,-80.8547 492.745,-78.5737 483.234,-73.9048 482.398,-80.8547"/>
</g>
<!-- Node16 -->
<g id="node16" class="node"><title>Node16</title>
<g id="a_node16"><a xlink:href="$AP__Math_8cpp.html#ae6c621670c214da687de21d4e3a92587" xlink:title="constrain_value\&lt; float \&gt;">
<polygon fill="white" stroke="black" points="494.5,-38.5 494.5,-57.5 616.5,-57.5 616.5,-38.5 494.5,-38.5"/>
<text text-anchor="middle" x="555.5" y="-45.5" font-family="Helvetica,sans-Serif" font-size="10.00">constrain_value&lt; float &gt;</text>
</a>
</g>
</g>
<!-- Node13&#45;&gt;Node16 -->
<g id="edge16" class="edge"><title>Node13&#45;&gt;Node16</title>
<path fill="none" stroke="midnightblue" d="M438.013,-62.008C452.113,-60.3124 468.288,-58.3673 484.008,-56.4769"/>
<polygon fill="midnightblue" stroke="midnightblue" points="484.735,-59.9147 494.246,-55.2458 483.899,-52.9648 484.735,-59.9147"/>
</g>
<!-- Node17 -->
<g id="node17" class="node"><title>Node17</title>
<g id="a_node17"><a xlink:href="$AP__Math_8cpp.html#afe3990b00e9abc43fa97dfaf8e32f5c4" xlink:title="constrain_value\&lt; double \&gt;">
<polygon fill="white" stroke="black" points="490,-0.5 490,-19.5 621,-19.5 621,-0.5 490,-0.5"/>
<text text-anchor="middle" x="555.5" y="-7.5" font-family="Helvetica,sans-Serif" font-size="10.00">constrain_value&lt; double &gt;</text>
</a>
</g>
</g>
<!-- Node13&#45;&gt;Node17 -->
<g id="edge17" class="edge"><title>Node13&#45;&gt;Node17</title>
<path fill="none" stroke="midnightblue" d="M418.18,-57.4718C436.981,-49.382 465.023,-37.7299 490,-29 496.441,-26.7486 503.304,-24.5347 510.06,-22.4586"/>
<polygon fill="midnightblue" stroke="midnightblue" points="511.249,-25.756 519.819,-19.5272 509.235,-19.0519 511.249,-25.756"/>
</g>
</g>
</svg>
