<?xml version="1.0" encoding="UTF-8" standalone="no"?>
<!DOCTYPE svg PUBLIC "-//W3C//DTD SVG 1.1//EN"
 "http://www.w3.org/Graphics/SVG/1.1/DTD/svg11.dtd">
<!-- Generated by graphviz version 2.38.0 (20140413.2041)
 -->
<!-- Title: AC_AttitudeControl_Sub::update_althold_lean_angle_max Pages: 1 -->
<svg width="565pt" height="173pt"
 viewBox="0.00 0.00 565.00 172.50" xmlns="http://www.w3.org/2000/svg" xmlns:xlink="http://www.w3.org/1999/xlink">
<g id="graph0" class="graph" transform="scale(1 1) rotate(0) translate(4 168.5)">
<title>AC_AttitudeControl_Sub::update_althold_lean_angle_max</title>
<polygon fill="white" stroke="none" points="-4,4 -4,-168.5 561,-168.5 561,4 -4,4"/>
<!-- Node1 -->
<g id="node1" class="node"><title>Node1</title>
<polygon fill="#bfbfbf" stroke="black" points="0,-84.5 0,-125.5 108,-125.5 108,-84.5 0,-84.5"/>
<text text-anchor="start" x="8" y="-113.5" font-family="Helvetica,sans-Serif" font-size="10.00">AC_AttitudeControl</text>
<text text-anchor="start" x="8" y="-102.5" font-family="Helvetica,sans-Serif" font-size="10.00">_Sub::update_althold</text>
<text text-anchor="middle" x="54" y="-91.5" font-family="Helvetica,sans-Serif" font-size="10.00">_lean_angle_max</text>
</g>
<!-- Node2 -->
<g id="node2" class="node"><title>Node2</title>
<g id="a_node2"><a xlink:href="$classAP__MotorsMulticopter.html#ade105370d07830c76c62cc26d6f7cbaf" xlink:title="AP_MotorsMulticopter\l::get_throttle_thrust_max">
<polygon fill="white" stroke="black" points="144,-134 144,-164 269,-164 269,-134 144,-134"/>
<text text-anchor="start" x="152" y="-152" font-family="Helvetica,sans-Serif" font-size="10.00">AP_MotorsMulticopter</text>
<text text-anchor="middle" x="206.5" y="-141" font-family="Helvetica,sans-Serif" font-size="10.00">::get_throttle_thrust_max</text>
</a>
</g>
</g>
<!-- Node1&#45;&gt;Node2 -->
<g id="edge1" class="edge"><title>Node1&#45;&gt;Node2</title>
<path fill="none" stroke="midnightblue" d="M108.061,-120.513C119.763,-123.934 132.252,-127.585 144.249,-131.093"/>
<polygon fill="midnightblue" stroke="midnightblue" points="143.602,-134.55 154.182,-133.997 145.566,-127.831 143.602,-134.55"/>
</g>
<!-- Node3 -->
<g id="node3" class="node"><title>Node3</title>
<g id="a_node3"><a xlink:href="$AP__Math_8h.html#a2a12cce483e9b870da70d30406d82c60" xlink:title="is_zero">
<polygon fill="white" stroke="black" points="182.5,-95.5 182.5,-114.5 230.5,-114.5 230.5,-95.5 182.5,-95.5"/>
<text text-anchor="middle" x="206.5" y="-102.5" font-family="Helvetica,sans-Serif" font-size="10.00">is_zero</text>
</a>
</g>
</g>
<!-- Node1&#45;&gt;Node3 -->
<g id="edge2" class="edge"><title>Node1&#45;&gt;Node3</title>
<path fill="none" stroke="midnightblue" d="M108.061,-105C129.383,-105 153.316,-105 172.127,-105"/>
<polygon fill="midnightblue" stroke="midnightblue" points="172.276,-108.5 182.276,-105 172.276,-101.5 172.276,-108.5"/>
</g>
<!-- Node4 -->
<g id="node4" class="node"><title>Node4</title>
<g id="a_node4"><a xlink:href="$AP__Math_8h.html#ad525609d9dba6ffa556a0fbf08a3f9b4" xlink:title="constrain_float">
<polygon fill="white" stroke="black" points="166.5,-57.5 166.5,-76.5 246.5,-76.5 246.5,-57.5 166.5,-57.5"/>
<text text-anchor="middle" x="206.5" y="-64.5" font-family="Helvetica,sans-Serif" font-size="10.00">constrain_float</text>
</a>
</g>
</g>
<!-- Node1&#45;&gt;Node4 -->
<g id="edge3" class="edge"><title>Node1&#45;&gt;Node4</title>
<path fill="none" stroke="midnightblue" d="M108.061,-91.6026C124.167,-87.536 141.762,-83.0934 157.514,-79.1161"/>
<polygon fill="midnightblue" stroke="midnightblue" points="158.726,-82.4199 167.565,-76.5783 157.012,-75.6329 158.726,-82.4199"/>
</g>
<!-- Node5 -->
<g id="node5" class="node"><title>Node5</title>
<g id="a_node5"><a xlink:href="$AP__Math_8h.html#a20e8f8671c282c69c1954652b6d61585" xlink:title="constrain_value">
<polygon fill="white" stroke="black" points="305,-57.5 305,-76.5 390,-76.5 390,-57.5 305,-57.5"/>
<text text-anchor="middle" x="347.5" y="-64.5" font-family="Helvetica,sans-Serif" font-size="10.00">constrain_value</text>
</a>
</g>
</g>
<!-- Node4&#45;&gt;Node5 -->
<g id="edge4" class="edge"><title>Node4&#45;&gt;Node5</title>
<path fill="none" stroke="midnightblue" d="M246.589,-67C261.476,-67 278.681,-67 294.574,-67"/>
<polygon fill="midnightblue" stroke="midnightblue" points="294.791,-70.5001 304.791,-67 294.791,-63.5001 294.791,-70.5001"/>
</g>
<!-- Node6 -->
<g id="node6" class="node"><title>Node6</title>
<g id="a_node6"><a xlink:href="$AP__Math_8cpp.html#a37e8e901754cb9c8e53a8e3030c82c50" xlink:title="constrain_value\&lt; int \&gt;">
<polygon fill="white" stroke="black" points="435,-114.5 435,-133.5 548,-133.5 548,-114.5 435,-114.5"/>
<text text-anchor="middle" x="491.5" y="-121.5" font-family="Helvetica,sans-Serif" font-size="10.00">constrain_value&lt; int &gt;</text>
</a>
</g>
</g>
<!-- Node5&#45;&gt;Node6 -->
<g id="edge5" class="edge"><title>Node5&#45;&gt;Node6</title>
<path fill="none" stroke="midnightblue" d="M365.97,-76.6284C381.432,-84.891 404.774,-96.7384 426,-105 431.854,-107.278 438.097,-109.439 444.307,-111.429"/>
<polygon fill="midnightblue" stroke="midnightblue" points="443.389,-114.809 453.977,-114.411 445.452,-108.12 443.389,-114.809"/>
</g>
<!-- Node7 -->
<g id="node7" class="node"><title>Node7</title>
<g id="a_node7"><a xlink:href="$AP__Math_8cpp.html#afdbe107ec1987d318a6347816fbf2b89" xlink:title="constrain_value\&lt; short \&gt;">
<polygon fill="white" stroke="black" points="429,-76.5 429,-95.5 554,-95.5 554,-76.5 429,-76.5"/>
<text text-anchor="middle" x="491.5" y="-83.5" font-family="Helvetica,sans-Serif" font-size="10.00">constrain_value&lt; short &gt;</text>
</a>
</g>
</g>
<!-- Node5&#45;&gt;Node7 -->
<g id="edge6" class="edge"><title>Node5&#45;&gt;Node7</title>
<path fill="none" stroke="midnightblue" d="M390.337,-72.5979C399.323,-73.8003 409.064,-75.1036 418.821,-76.4092"/>
<polygon fill="midnightblue" stroke="midnightblue" points="418.589,-79.9093 428.965,-77.7665 419.518,-72.9711 418.589,-79.9093"/>
</g>
<!-- Node8 -->
<g id="node8" class="node"><title>Node8</title>
<g id="a_node8"><a xlink:href="$AP__Math_8cpp.html#ae6c621670c214da687de21d4e3a92587" xlink:title="constrain_value\&lt; float \&gt;">
<polygon fill="white" stroke="black" points="430.5,-38.5 430.5,-57.5 552.5,-57.5 552.5,-38.5 430.5,-38.5"/>
<text text-anchor="middle" x="491.5" y="-45.5" font-family="Helvetica,sans-Serif" font-size="10.00">constrain_value&lt; float &gt;</text>
</a>
</g>
</g>
<!-- Node5&#45;&gt;Node8 -->
<g id="edge7" class="edge"><title>Node5&#45;&gt;Node8</title>
<path fill="none" stroke="midnightblue" d="M390.337,-61.4021C399.724,-60.146 409.935,-58.7798 420.129,-57.4159"/>
<polygon fill="midnightblue" stroke="midnightblue" points="420.838,-60.8522 430.286,-56.0568 419.91,-53.9141 420.838,-60.8522"/>
</g>
<!-- Node9 -->
<g id="node9" class="node"><title>Node9</title>
<g id="a_node9"><a xlink:href="$AP__Math_8cpp.html#afe3990b00e9abc43fa97dfaf8e32f5c4" xlink:title="constrain_value\&lt; double \&gt;">
<polygon fill="white" stroke="black" points="426,-0.5 426,-19.5 557,-19.5 557,-0.5 426,-0.5"/>
<text text-anchor="middle" x="491.5" y="-7.5" font-family="Helvetica,sans-Serif" font-size="10.00">constrain_value&lt; double &gt;</text>
</a>
</g>
</g>
<!-- Node5&#45;&gt;Node9 -->
<g id="edge8" class="edge"><title>Node5&#45;&gt;Node9</title>
<path fill="none" stroke="midnightblue" d="M365.97,-57.3716C381.432,-49.109 404.774,-37.2616 426,-29 431.854,-26.7215 438.097,-24.5614 444.307,-22.5705"/>
<polygon fill="midnightblue" stroke="midnightblue" points="445.452,-25.88 453.977,-19.5887 443.389,-19.1908 445.452,-25.88"/>
</g>
</g>
</svg>
