<?xml version="1.0" encoding="UTF-8" standalone="no"?>
<!DOCTYPE svg PUBLIC "-//W3C//DTD SVG 1.1//EN"
 "http://www.w3.org/Graphics/SVG/1.1/DTD/svg11.dtd">
<!-- Generated by graphviz version 2.38.0 (20140413.2041)
 -->
<!-- Title: AC_PosControl::get_dt Pages: 1 -->
<svg width="623pt" height="39pt"
 viewBox="0.00 0.00 623.00 39.00" xmlns="http://www.w3.org/2000/svg" xmlns:xlink="http://www.w3.org/1999/xlink">
<g id="graph0" class="graph" transform="scale(1 1) rotate(0) translate(4 35)">
<title>AC_PosControl::get_dt</title>
<polygon fill="white" stroke="none" points="-4,4 -4,-35 619,-35 619,4 -4,4"/>
<!-- Node1 -->
<g id="node1" class="node"><title>Node1</title>
<polygon fill="#bfbfbf" stroke="black" points="0,-6 0,-25 118,-25 118,-6 0,-6"/>
<text text-anchor="middle" x="59" y="-13" font-family="Helvetica,sans-Serif" font-size="10.00">AC_PosControl::get_dt</text>
</g>
<!-- Node2 -->
<g id="node2" class="node"><title>Node2</title>
<g id="a_node2"><a xlink:href="$classAC__PosControl.html#a331eca91f277ff91b9f6f8509ad71f5a" xlink:title="set_dt_xy &#45; sets time delta in seconds for horizontal controller (i.e. 50hz = 0.02) ...">
<polygon fill="white" stroke="black" points="154,-0.5 154,-30.5 258,-30.5 258,-0.5 154,-0.5"/>
<text text-anchor="start" x="162" y="-18.5" font-family="Helvetica,sans-Serif" font-size="10.00">AC_PosControl::set</text>
<text text-anchor="middle" x="206" y="-7.5" font-family="Helvetica,sans-Serif" font-size="10.00">_dt_xy</text>
</a>
</g>
</g>
<!-- Node1&#45;&gt;Node2 -->
<g id="edge1" class="edge"><title>Node1&#45;&gt;Node2</title>
<path fill="none" stroke="midnightblue" d="M118.142,-15.5C126.544,-15.5 135.214,-15.5 143.676,-15.5"/>
<polygon fill="midnightblue" stroke="midnightblue" points="143.863,-19.0001 153.862,-15.5 143.862,-12.0001 143.863,-19.0001"/>
</g>
<!-- Node3 -->
<g id="node3" class="node"><title>Node3</title>
<g id="a_node3"><a xlink:href="$classAC__PI__2D.html#a2d3227639a76856e0300fc7ac919c38e" xlink:title="AC_PI_2D::set_dt">
<polygon fill="white" stroke="black" points="294,-6 294,-25 391,-25 391,-6 294,-6"/>
<text text-anchor="middle" x="342.5" y="-13" font-family="Helvetica,sans-Serif" font-size="10.00">AC_PI_2D::set_dt</text>
</a>
</g>
</g>
<!-- Node2&#45;&gt;Node3 -->
<g id="edge2" class="edge"><title>Node2&#45;&gt;Node3</title>
<path fill="none" stroke="midnightblue" d="M258.232,-15.5C266.571,-15.5 275.259,-15.5 283.741,-15.5"/>
<polygon fill="midnightblue" stroke="midnightblue" points="283.949,-19.0001 293.949,-15.5 283.949,-12.0001 283.949,-19.0001"/>
</g>
<!-- Node4 -->
<g id="node4" class="node"><title>Node4</title>
<g id="a_node4"><a xlink:href="$classAC__PI__2D.html#ad06c3792dacb8c3ebfdffca3697ed727" xlink:title="AC_PI_2D::calc_filt\l_alpha">
<polygon fill="white" stroke="black" points="427,-0.5 427,-30.5 531,-30.5 531,-0.5 427,-0.5"/>
<text text-anchor="start" x="435" y="-18.5" font-family="Helvetica,sans-Serif" font-size="10.00">AC_PI_2D::calc_filt</text>
<text text-anchor="middle" x="479" y="-7.5" font-family="Helvetica,sans-Serif" font-size="10.00">_alpha</text>
</a>
</g>
</g>
<!-- Node3&#45;&gt;Node4 -->
<g id="edge3" class="edge"><title>Node3&#45;&gt;Node4</title>
<path fill="none" stroke="midnightblue" d="M391.298,-15.5C399.458,-15.5 408.035,-15.5 416.491,-15.5"/>
<polygon fill="midnightblue" stroke="midnightblue" points="416.708,-19.0001 426.708,-15.5 416.708,-12.0001 416.708,-19.0001"/>
</g>
<!-- Node5 -->
<g id="node5" class="node"><title>Node5</title>
<g id="a_node5"><a xlink:href="$AP__Math_8h.html#a2a12cce483e9b870da70d30406d82c60" xlink:title="is_zero">
<polygon fill="white" stroke="black" points="567,-6 567,-25 615,-25 615,-6 567,-6"/>
<text text-anchor="middle" x="591" y="-13" font-family="Helvetica,sans-Serif" font-size="10.00">is_zero</text>
</a>
</g>
</g>
<!-- Node4&#45;&gt;Node5 -->
<g id="edge4" class="edge"><title>Node4&#45;&gt;Node5</title>
<path fill="none" stroke="midnightblue" d="M531.136,-15.5C539.796,-15.5 548.585,-15.5 556.637,-15.5"/>
<polygon fill="midnightblue" stroke="midnightblue" points="556.726,-19.0001 566.726,-15.5 556.726,-12.0001 556.726,-19.0001"/>
</g>
</g>
</svg>
