<?xml version="1.0" encoding="UTF-8" standalone="no"?>
<!DOCTYPE svg PUBLIC "-//W3C//DTD SVG 1.1//EN"
 "http://www.w3.org/Graphics/SVG/1.1/DTD/svg11.dtd">
<!-- Generated by graphviz version 2.38.0 (20140413.2041)
 -->
<!-- Title: AC_AttitudeControl_Heli::rate_target_to_motor_yaw Pages: 1 -->
<svg width="607pt" height="370pt"
 viewBox="0.00 0.00 607.00 370.00" xmlns="http://www.w3.org/2000/svg" xmlns:xlink="http://www.w3.org/1999/xlink">
<g id="graph0" class="graph" transform="scale(1 1) rotate(0) translate(4 366)">
<title>AC_AttitudeControl_Heli::rate_target_to_motor_yaw</title>
<polygon fill="white" stroke="none" points="-4,4 -4,-366 603,-366 603,4 -4,4"/>
<!-- Node1 -->
<g id="node1" class="node"><title>Node1</title>
<polygon fill="#bfbfbf" stroke="black" points="0,-179.5 0,-220.5 105,-220.5 105,-179.5 0,-179.5"/>
<text text-anchor="start" x="8" y="-208.5" font-family="Helvetica,sans-Serif" font-size="10.00">AC_AttitudeControl</text>
<text text-anchor="start" x="8" y="-197.5" font-family="Helvetica,sans-Serif" font-size="10.00">_Heli::rate_target_to</text>
<text text-anchor="middle" x="52.5" y="-186.5" font-family="Helvetica,sans-Serif" font-size="10.00">_motor_yaw</text>
</g>
<!-- Node2 -->
<g id="node2" class="node"><title>Node2</title>
<g id="a_node2"><a xlink:href="$classAC__PID.html#ac267330f1299f011febcaaba47994af7" xlink:title="AC_PID::set_input_filter_all">
<polygon fill="white" stroke="black" points="141,-342.5 141,-361.5 279,-361.5 279,-342.5 141,-342.5"/>
<text text-anchor="middle" x="210" y="-349.5" font-family="Helvetica,sans-Serif" font-size="10.00">AC_PID::set_input_filter_all</text>
</a>
</g>
</g>
<!-- Node1&#45;&gt;Node2 -->
<g id="edge1" class="edge"><title>Node1&#45;&gt;Node2</title>
<path fill="none" stroke="midnightblue" d="M61.6416,-220.941C74.1842,-250.425 101.043,-303.825 141,-333 143.673,-334.952 146.538,-336.703 149.526,-338.274"/>
<polygon fill="midnightblue" stroke="midnightblue" points="148.233,-341.531 158.786,-342.47 151.122,-335.155 148.233,-341.531"/>
</g>
<!-- Node5 -->
<g id="node5" class="node"><title>Node5</title>
<g id="a_node5"><a xlink:href="$classAC__PID.html#a3f727ab395b401474027b6b9efcab5a3" xlink:title="AC_PID::set_desired_rate">
<polygon fill="white" stroke="black" points="144.5,-304.5 144.5,-323.5 275.5,-323.5 275.5,-304.5 144.5,-304.5"/>
<text text-anchor="middle" x="210" y="-311.5" font-family="Helvetica,sans-Serif" font-size="10.00">AC_PID::set_desired_rate</text>
</a>
</g>
</g>
<!-- Node1&#45;&gt;Node5 -->
<g id="edge4" class="edge"><title>Node1&#45;&gt;Node5</title>
<path fill="none" stroke="midnightblue" d="M67.1289,-220.549C82.5495,-242.209 109.639,-275.796 141,-295 144.43,-297.1 148.098,-298.975 151.886,-300.646"/>
<polygon fill="midnightblue" stroke="midnightblue" points="150.897,-304.017 161.485,-304.396 153.444,-297.497 150.897,-304.017"/>
</g>
<!-- Node6 -->
<g id="node6" class="node"><title>Node6</title>
<g id="a_node6"><a xlink:href="$classAC__PID.html#a4808bb2656a1e8d94c713e58a7a2a222" xlink:title="AC_PID::get_p">
<polygon fill="white" stroke="black" points="168.5,-266.5 168.5,-285.5 251.5,-285.5 251.5,-266.5 168.5,-266.5"/>
<text text-anchor="middle" x="210" y="-273.5" font-family="Helvetica,sans-Serif" font-size="10.00">AC_PID::get_p</text>
</a>
</g>
</g>
<!-- Node1&#45;&gt;Node6 -->
<g id="edge5" class="edge"><title>Node1&#45;&gt;Node6</title>
<path fill="none" stroke="midnightblue" d="M80.6193,-220.771C97.2987,-232.737 119.527,-247.284 141,-257 146.643,-259.553 152.708,-261.839 158.808,-263.863"/>
<polygon fill="midnightblue" stroke="midnightblue" points="157.779,-267.209 168.367,-266.83 159.854,-260.523 157.779,-267.209"/>
</g>
<!-- Node7 -->
<g id="node7" class="node"><title>Node7</title>
<g id="a_node7"><a xlink:href="$classAC__PID.html#ad0c0510049ea37401920792e843bec86" xlink:title="AC_PID::get_d">
<polygon fill="white" stroke="black" points="168.5,-228.5 168.5,-247.5 251.5,-247.5 251.5,-228.5 168.5,-228.5"/>
<text text-anchor="middle" x="210" y="-235.5" font-family="Helvetica,sans-Serif" font-size="10.00">AC_PID::get_d</text>
</a>
</g>
</g>
<!-- Node1&#45;&gt;Node7 -->
<g id="edge6" class="edge"><title>Node1&#45;&gt;Node7</title>
<path fill="none" stroke="midnightblue" d="M105.279,-212.653C122.857,-216.949 142.435,-221.733 159.805,-225.978"/>
<polygon fill="midnightblue" stroke="midnightblue" points="159.2,-229.433 169.745,-228.407 160.862,-222.633 159.2,-229.433"/>
</g>
<!-- Node8 -->
<g id="node8" class="node"><title>Node8</title>
<g id="a_node8"><a xlink:href="$classAC__PID.html#a0fc275cae5ff46799af85af551c65870" xlink:title="AC_PID::get_integrator">
<polygon fill="white" stroke="black" points="150.5,-190.5 150.5,-209.5 269.5,-209.5 269.5,-190.5 150.5,-190.5"/>
<text text-anchor="middle" x="210" y="-197.5" font-family="Helvetica,sans-Serif" font-size="10.00">AC_PID::get_integrator</text>
</a>
</g>
</g>
<!-- Node1&#45;&gt;Node8 -->
<g id="edge7" class="edge"><title>Node1&#45;&gt;Node8</title>
<path fill="none" stroke="midnightblue" d="M105.279,-200C116.486,-200 128.506,-200 140.248,-200"/>
<polygon fill="midnightblue" stroke="midnightblue" points="140.468,-203.5 150.468,-200 140.468,-196.5 140.468,-203.5"/>
</g>
<!-- Node9 -->
<g id="node9" class="node"><title>Node9</title>
<g id="a_node9"><a xlink:href="$classAC__PID.html#a2d5bf9811a78c93a396ec1e37ae6fa0a" xlink:title="AC_PID::get_i">
<polygon fill="white" stroke="black" points="333.5,-152.5 333.5,-171.5 413.5,-171.5 413.5,-152.5 333.5,-152.5"/>
<text text-anchor="middle" x="373.5" y="-159.5" font-family="Helvetica,sans-Serif" font-size="10.00">AC_PID::get_i</text>
</a>
</g>
</g>
<!-- Node1&#45;&gt;Node9 -->
<g id="edge8" class="edge"><title>Node1&#45;&gt;Node9</title>
<path fill="none" stroke="midnightblue" d="M105.112,-187.611C116.856,-185.122 129.315,-182.74 141,-181 203.483,-171.694 276.181,-166.662 323.196,-164.159"/>
<polygon fill="midnightblue" stroke="midnightblue" points="323.601,-167.643 333.408,-163.633 323.241,-160.652 323.601,-167.643"/>
</g>
<!-- Node10 -->
<g id="node10" class="node"><title>Node10</title>
<g id="a_node10"><a xlink:href="$classLowPassFilter.html#aa390849d2e18ff3287f92b89d8657841" xlink:title="LowPassFilter::apply">
<polygon fill="white" stroke="black" points="156,-114.5 156,-133.5 264,-133.5 264,-114.5 156,-114.5"/>
<text text-anchor="middle" x="210" y="-121.5" font-family="Helvetica,sans-Serif" font-size="10.00">LowPassFilter::apply</text>
</a>
</g>
</g>
<!-- Node1&#45;&gt;Node10 -->
<g id="edge10" class="edge"><title>Node1&#45;&gt;Node10</title>
<path fill="none" stroke="midnightblue" d="M84.6789,-179.431C101.027,-169.177 121.634,-157.064 141,-148 149.577,-143.986 159.022,-140.248 168.073,-136.975"/>
<polygon fill="midnightblue" stroke="midnightblue" points="169.398,-140.22 177.681,-133.613 167.086,-133.612 169.398,-140.22"/>
</g>
<!-- Node11 -->
<g id="node11" class="node"><title>Node11</title>
<g id="a_node11"><a xlink:href="$classAC__PID.html#af8b4c040c43a28fbe025de765f38e90d" xlink:title="AC_PID::get_ff">
<polygon fill="white" stroke="black" points="168,-76.5 168,-95.5 252,-95.5 252,-76.5 168,-76.5"/>
<text text-anchor="middle" x="210" y="-83.5" font-family="Helvetica,sans-Serif" font-size="10.00">AC_PID::get_ff</text>
</a>
</g>
</g>
<!-- Node1&#45;&gt;Node11 -->
<g id="edge11" class="edge"><title>Node1&#45;&gt;Node11</title>
<path fill="none" stroke="midnightblue" d="M67.1289,-179.451C82.5495,-157.791 109.639,-124.204 141,-105 146.351,-101.723 152.281,-98.9973 158.344,-96.7328"/>
<polygon fill="midnightblue" stroke="midnightblue" points="159.537,-100.024 167.917,-93.5414 157.324,-93.3836 159.537,-100.024"/>
</g>
<!-- Node12 -->
<g id="node12" class="node"><title>Node12</title>
<g id="a_node12"><a xlink:href="$AP__Math_8h.html#ad525609d9dba6ffa556a0fbf08a3f9b4" xlink:title="constrain_float">
<polygon fill="white" stroke="black" points="170,-38.5 170,-57.5 250,-57.5 250,-38.5 170,-38.5"/>
<text text-anchor="middle" x="210" y="-45.5" font-family="Helvetica,sans-Serif" font-size="10.00">constrain_float</text>
</a>
</g>
</g>
<!-- Node1&#45;&gt;Node12 -->
<g id="edge12" class="edge"><title>Node1&#45;&gt;Node12</title>
<path fill="none" stroke="midnightblue" d="M61.6416,-179.059C74.1842,-149.575 101.043,-96.1745 141,-67 146.654,-62.872 153.169,-59.6402 159.88,-57.1102"/>
<polygon fill="midnightblue" stroke="midnightblue" points="161.353,-60.3112 169.775,-53.8829 159.183,-53.6562 161.353,-60.3112"/>
</g>
<!-- Node3 -->
<g id="node3" class="node"><title>Node3</title>
<g id="a_node3"><a xlink:href="$classAC__PID.html#ac12ffbd4fd053c6152d403b69e07b8e1" xlink:title="AC_PID::get_filt_alpha">
<polygon fill="white" stroke="black" points="315,-266.5 315,-285.5 432,-285.5 432,-266.5 315,-266.5"/>
<text text-anchor="middle" x="373.5" y="-273.5" font-family="Helvetica,sans-Serif" font-size="10.00">AC_PID::get_filt_alpha</text>
</a>
</g>
</g>
<!-- Node2&#45;&gt;Node3 -->
<g id="edge2" class="edge"><title>Node2&#45;&gt;Node3</title>
<path fill="none" stroke="midnightblue" d="M252.266,-342.432C261.241,-339.812 270.569,-336.664 279,-333 305.222,-321.604 332.903,-303.926 351.279,-291.28"/>
<polygon fill="midnightblue" stroke="midnightblue" points="353.318,-294.125 359.506,-285.526 349.306,-288.389 353.318,-294.125"/>
</g>
<!-- Node4 -->
<g id="node4" class="node"><title>Node4</title>
<g id="a_node4"><a xlink:href="$AP__Math_8h.html#a2a12cce483e9b870da70d30406d82c60" xlink:title="is_zero">
<polygon fill="white" stroke="black" points="509.5,-209.5 509.5,-228.5 557.5,-228.5 557.5,-209.5 509.5,-209.5"/>
<text text-anchor="middle" x="533.5" y="-216.5" font-family="Helvetica,sans-Serif" font-size="10.00">is_zero</text>
</a>
</g>
</g>
<!-- Node3&#45;&gt;Node4 -->
<g id="edge3" class="edge"><title>Node3&#45;&gt;Node4</title>
<path fill="none" stroke="midnightblue" d="M400.946,-266.459C427.978,-256.707 470.037,-241.534 499.295,-230.979"/>
<polygon fill="midnightblue" stroke="midnightblue" points="500.845,-234.141 509.064,-227.455 498.47,-227.556 500.845,-234.141"/>
</g>
<!-- Node9&#45;&gt;Node4 -->
<g id="edge9" class="edge"><title>Node9&#45;&gt;Node4</title>
<path fill="none" stroke="midnightblue" d="M400.946,-171.541C427.978,-181.293 470.037,-196.466 499.295,-207.021"/>
<polygon fill="midnightblue" stroke="midnightblue" points="498.47,-210.444 509.064,-210.545 500.845,-203.859 498.47,-210.444"/>
</g>
<!-- Node13 -->
<g id="node13" class="node"><title>Node13</title>
<g id="a_node13"><a xlink:href="$AP__Math_8h.html#a20e8f8671c282c69c1954652b6d61585" xlink:title="constrain_value">
<polygon fill="white" stroke="black" points="331,-38.5 331,-57.5 416,-57.5 416,-38.5 331,-38.5"/>
<text text-anchor="middle" x="373.5" y="-45.5" font-family="Helvetica,sans-Serif" font-size="10.00">constrain_value</text>
</a>
</g>
</g>
<!-- Node12&#45;&gt;Node13 -->
<g id="edge13" class="edge"><title>Node12&#45;&gt;Node13</title>
<path fill="none" stroke="midnightblue" d="M250.095,-48C271.305,-48 297.794,-48 320.702,-48"/>
<polygon fill="midnightblue" stroke="midnightblue" points="320.943,-51.5001 330.943,-48 320.942,-44.5001 320.943,-51.5001"/>
</g>
<!-- Node14 -->
<g id="node14" class="node"><title>Node14</title>
<g id="a_node14"><a xlink:href="$AP__Math_8cpp.html#a37e8e901754cb9c8e53a8e3030c82c50" xlink:title="constrain_value\&lt; int \&gt;">
<polygon fill="white" stroke="black" points="477,-114.5 477,-133.5 590,-133.5 590,-114.5 477,-114.5"/>
<text text-anchor="middle" x="533.5" y="-121.5" font-family="Helvetica,sans-Serif" font-size="10.00">constrain_value&lt; int &gt;</text>
</a>
</g>
</g>
<!-- Node13&#45;&gt;Node14 -->
<g id="edge14" class="edge"><title>Node13&#45;&gt;Node14</title>
<path fill="none" stroke="midnightblue" d="M387.824,-57.6745C405.429,-70.085 437.755,-91.6031 468,-105 473.137,-107.275 478.621,-109.366 484.142,-111.262"/>
<polygon fill="midnightblue" stroke="midnightblue" points="483.458,-114.72 494.05,-114.462 485.609,-108.058 483.458,-114.72"/>
</g>
<!-- Node15 -->
<g id="node15" class="node"><title>Node15</title>
<g id="a_node15"><a xlink:href="$AP__Math_8cpp.html#afdbe107ec1987d318a6347816fbf2b89" xlink:title="constrain_value\&lt; short \&gt;">
<polygon fill="white" stroke="black" points="471,-76.5 471,-95.5 596,-95.5 596,-76.5 471,-76.5"/>
<text text-anchor="middle" x="533.5" y="-83.5" font-family="Helvetica,sans-Serif" font-size="10.00">constrain_value&lt; short &gt;</text>
</a>
</g>
</g>
<!-- Node13&#45;&gt;Node15 -->
<g id="edge15" class="edge"><title>Node13&#45;&gt;Node15</title>
<path fill="none" stroke="midnightblue" d="M414.37,-57.589C435.22,-62.6035 460.935,-68.7881 483.043,-74.1053"/>
<polygon fill="midnightblue" stroke="midnightblue" points="482.375,-77.5445 492.917,-76.4799 484.012,-70.7385 482.375,-77.5445"/>
</g>
<!-- Node16 -->
<g id="node16" class="node"><title>Node16</title>
<g id="a_node16"><a xlink:href="$AP__Math_8cpp.html#ae6c621670c214da687de21d4e3a92587" xlink:title="constrain_value\&lt; float \&gt;">
<polygon fill="white" stroke="black" points="472.5,-38.5 472.5,-57.5 594.5,-57.5 594.5,-38.5 472.5,-38.5"/>
<text text-anchor="middle" x="533.5" y="-45.5" font-family="Helvetica,sans-Serif" font-size="10.00">constrain_value&lt; float &gt;</text>
</a>
</g>
</g>
<!-- Node13&#45;&gt;Node16 -->
<g id="edge16" class="edge"><title>Node13&#45;&gt;Node16</title>
<path fill="none" stroke="midnightblue" d="M416.013,-48C430.113,-48 446.288,-48 462.008,-48"/>
<polygon fill="midnightblue" stroke="midnightblue" points="462.246,-51.5001 472.246,-48 462.246,-44.5001 462.246,-51.5001"/>
</g>
<!-- Node17 -->
<g id="node17" class="node"><title>Node17</title>
<g id="a_node17"><a xlink:href="$AP__Math_8cpp.html#afe3990b00e9abc43fa97dfaf8e32f5c4" xlink:title="constrain_value\&lt; double \&gt;">
<polygon fill="white" stroke="black" points="468,-0.5 468,-19.5 599,-19.5 599,-0.5 468,-0.5"/>
<text text-anchor="middle" x="533.5" y="-7.5" font-family="Helvetica,sans-Serif" font-size="10.00">constrain_value&lt; double &gt;</text>
</a>
</g>
</g>
<!-- Node13&#45;&gt;Node17 -->
<g id="edge17" class="edge"><title>Node13&#45;&gt;Node17</title>
<path fill="none" stroke="midnightblue" d="M414.37,-38.411C435.22,-33.3965 460.935,-27.2119 483.043,-21.8947"/>
<polygon fill="midnightblue" stroke="midnightblue" points="484.012,-25.2615 492.917,-19.5201 482.375,-18.4555 484.012,-25.2615"/>
</g>
</g>
</svg>
