<?xml version="1.0" encoding="UTF-8" standalone="no"?>
<!DOCTYPE svg PUBLIC "-//W3C//DTD SVG 1.1//EN"
 "http://www.w3.org/Graphics/SVG/1.1/DTD/svg11.dtd">
<!-- Generated by graphviz version 2.38.0 (20140413.2041)
 -->
<!-- Title: AC_AttitudeControl_Heli::rate_bf_to_motor_roll_pitch Pages: 1 -->
<svg width="641pt" height="522pt"
 viewBox="0.00 0.00 641.00 522.00" xmlns="http://www.w3.org/2000/svg" xmlns:xlink="http://www.w3.org/1999/xlink">
<g id="graph0" class="graph" transform="scale(1 1) rotate(0) translate(4 518)">
<title>AC_AttitudeControl_Heli::rate_bf_to_motor_roll_pitch</title>
<polygon fill="white" stroke="none" points="-4,4 -4,-518 637,-518 637,4 -4,4"/>
<!-- Node1 -->
<g id="node1" class="node"><title>Node1</title>
<polygon fill="#bfbfbf" stroke="black" points="0,-236.5 0,-277.5 119,-277.5 119,-236.5 0,-236.5"/>
<text text-anchor="start" x="8" y="-265.5" font-family="Helvetica,sans-Serif" font-size="10.00">AC_AttitudeControl</text>
<text text-anchor="start" x="8" y="-254.5" font-family="Helvetica,sans-Serif" font-size="10.00">_Heli::rate_bf_to_motor</text>
<text text-anchor="middle" x="59.5" y="-243.5" font-family="Helvetica,sans-Serif" font-size="10.00">_roll_pitch</text>
</g>
<!-- Node2 -->
<g id="node2" class="node"><title>Node2</title>
<g id="a_node2"><a xlink:href="$classAC__PID.html#ac267330f1299f011febcaaba47994af7" xlink:title="AC_PID::set_input_filter_all">
<polygon fill="white" stroke="black" points="155,-494.5 155,-513.5 293,-513.5 293,-494.5 155,-494.5"/>
<text text-anchor="middle" x="224" y="-501.5" font-family="Helvetica,sans-Serif" font-size="10.00">AC_PID::set_input_filter_all</text>
</a>
</g>
</g>
<!-- Node1&#45;&gt;Node2 -->
<g id="edge1" class="edge"><title>Node1&#45;&gt;Node2</title>
<path fill="none" stroke="midnightblue" d="M63.0269,-277.802C69.5893,-322.577 91.3463,-428.587 155,-485 156.926,-486.707 158.994,-488.262 161.168,-489.679"/>
<polygon fill="midnightblue" stroke="midnightblue" points="159.539,-492.777 169.996,-494.482 162.885,-486.628 159.539,-492.777"/>
</g>
<!-- Node5 -->
<g id="node5" class="node"><title>Node5</title>
<g id="a_node5"><a xlink:href="$classAC__PID.html#a3f727ab395b401474027b6b9efcab5a3" xlink:title="AC_PID::set_desired_rate">
<polygon fill="white" stroke="black" points="158.5,-456.5 158.5,-475.5 289.5,-475.5 289.5,-456.5 158.5,-456.5"/>
<text text-anchor="middle" x="224" y="-463.5" font-family="Helvetica,sans-Serif" font-size="10.00">AC_PID::set_desired_rate</text>
</a>
</g>
</g>
<!-- Node1&#45;&gt;Node5 -->
<g id="edge4" class="edge"><title>Node1&#45;&gt;Node5</title>
<path fill="none" stroke="midnightblue" d="M64.8963,-277.625C74.3173,-316.709 100.201,-401.693 155,-447 157.067,-448.709 159.276,-450.264 161.59,-451.68"/>
<polygon fill="midnightblue" stroke="midnightblue" points="160.449,-455.028 170.944,-456.478 163.644,-448.8 160.449,-455.028"/>
</g>
<!-- Node6 -->
<g id="node6" class="node"><title>Node6</title>
<g id="a_node6"><a xlink:href="$classAC__PID.html#a4808bb2656a1e8d94c713e58a7a2a222" xlink:title="AC_PID::get_p">
<polygon fill="white" stroke="black" points="182.5,-418.5 182.5,-437.5 265.5,-437.5 265.5,-418.5 182.5,-418.5"/>
<text text-anchor="middle" x="224" y="-425.5" font-family="Helvetica,sans-Serif" font-size="10.00">AC_PID::get_p</text>
</a>
</g>
</g>
<!-- Node1&#45;&gt;Node6 -->
<g id="edge5" class="edge"><title>Node1&#45;&gt;Node6</title>
<path fill="none" stroke="midnightblue" d="M67.6627,-277.631C80.1402,-310.489 109.012,-374.508 155,-409 160.213,-412.91 166.192,-416.015 172.396,-418.481"/>
<polygon fill="midnightblue" stroke="midnightblue" points="171.656,-421.927 182.25,-421.854 173.923,-415.304 171.656,-421.927"/>
</g>
<!-- Node7 -->
<g id="node7" class="node"><title>Node7</title>
<g id="a_node7"><a xlink:href="$classAC__PID.html#ad0c0510049ea37401920792e843bec86" xlink:title="AC_PID::get_d">
<polygon fill="white" stroke="black" points="182.5,-380.5 182.5,-399.5 265.5,-399.5 265.5,-380.5 182.5,-380.5"/>
<text text-anchor="middle" x="224" y="-387.5" font-family="Helvetica,sans-Serif" font-size="10.00">AC_PID::get_d</text>
</a>
</g>
</g>
<!-- Node1&#45;&gt;Node7 -->
<g id="edge6" class="edge"><title>Node1&#45;&gt;Node7</title>
<path fill="none" stroke="midnightblue" d="M72.0941,-277.546C87.6513,-303.242 117.691,-346.793 155,-371 160.399,-374.503 166.443,-377.368 172.641,-379.71"/>
<polygon fill="midnightblue" stroke="midnightblue" points="171.842,-383.133 182.436,-382.975 174.056,-376.492 171.842,-383.133"/>
</g>
<!-- Node8 -->
<g id="node8" class="node"><title>Node8</title>
<g id="a_node8"><a xlink:href="$classAC__PID.html#a0fc275cae5ff46799af85af551c65870" xlink:title="AC_PID::get_integrator">
<polygon fill="white" stroke="black" points="164.5,-342.5 164.5,-361.5 283.5,-361.5 283.5,-342.5 164.5,-342.5"/>
<text text-anchor="middle" x="224" y="-349.5" font-family="Helvetica,sans-Serif" font-size="10.00">AC_PID::get_integrator</text>
</a>
</g>
</g>
<!-- Node1&#45;&gt;Node8 -->
<g id="edge7" class="edge"><title>Node1&#45;&gt;Node8</title>
<path fill="none" stroke="midnightblue" d="M83.5991,-277.544C101.938,-293.037 128.772,-313.949 155,-328 162.858,-332.21 171.605,-335.934 180.139,-339.118"/>
<polygon fill="midnightblue" stroke="midnightblue" points="179.03,-342.438 189.624,-342.479 181.368,-335.84 179.03,-342.438"/>
</g>
<!-- Node9 -->
<g id="node9" class="node"><title>Node9</title>
<g id="a_node9"><a xlink:href="$classAC__HELI__PID.html#a97915f24591e2c9c5b4c42867446b31e" xlink:title="get_leaky_i &#45; replacement for get_i but output is leaded at leak_rate ">
<polygon fill="white" stroke="black" points="329,-304.5 329,-323.5 466,-323.5 466,-304.5 329,-304.5"/>
<text text-anchor="middle" x="397.5" y="-311.5" font-family="Helvetica,sans-Serif" font-size="10.00">AC_HELI_PID::get_leaky_i</text>
</a>
</g>
</g>
<!-- Node1&#45;&gt;Node9 -->
<g id="edge8" class="edge"><title>Node1&#45;&gt;Node9</title>
<path fill="none" stroke="midnightblue" d="M119.031,-272.199C130.89,-275.009 143.309,-277.76 155,-280 209.335,-290.411 271.118,-299.051 318.591,-305.017"/>
<polygon fill="midnightblue" stroke="midnightblue" points="318.445,-308.526 328.801,-306.286 319.309,-301.579 318.445,-308.526"/>
</g>
<!-- Node10 -->
<g id="node10" class="node"><title>Node10</title>
<g id="a_node10"><a xlink:href="$classAC__PID.html#a2d5bf9811a78c93a396ec1e37ae6fa0a" xlink:title="AC_PID::get_i">
<polygon fill="white" stroke="black" points="357.5,-266.5 357.5,-285.5 437.5,-285.5 437.5,-266.5 357.5,-266.5"/>
<text text-anchor="middle" x="397.5" y="-273.5" font-family="Helvetica,sans-Serif" font-size="10.00">AC_PID::get_i</text>
</a>
</g>
</g>
<!-- Node1&#45;&gt;Node10 -->
<g id="edge10" class="edge"><title>Node1&#45;&gt;Node10</title>
<path fill="none" stroke="midnightblue" d="M119.027,-260.31C183.545,-263.958 286.218,-269.764 346.922,-273.196"/>
<polygon fill="midnightblue" stroke="midnightblue" points="346.839,-276.697 357.02,-273.768 347.234,-269.708 346.839,-276.697"/>
</g>
<!-- Node11 -->
<g id="node11" class="node"><title>Node11</title>
<g id="a_node11"><a xlink:href="$classLowPassFilter.html#aa390849d2e18ff3287f92b89d8657841" xlink:title="LowPassFilter::apply">
<polygon fill="white" stroke="black" points="170,-228.5 170,-247.5 278,-247.5 278,-228.5 170,-228.5"/>
<text text-anchor="middle" x="224" y="-235.5" font-family="Helvetica,sans-Serif" font-size="10.00">LowPassFilter::apply</text>
</a>
</g>
</g>
<!-- Node1&#45;&gt;Node11 -->
<g id="edge12" class="edge"><title>Node1&#45;&gt;Node11</title>
<path fill="none" stroke="midnightblue" d="M119.166,-250.141C132.351,-248.599 146.398,-246.957 159.76,-245.394"/>
<polygon fill="midnightblue" stroke="midnightblue" points="160.294,-248.856 169.82,-244.218 159.481,-241.903 160.294,-248.856"/>
</g>
<!-- Node12 -->
<g id="node12" class="node"><title>Node12</title>
<g id="a_node12"><a xlink:href="$classAC__PID.html#af8b4c040c43a28fbe025de765f38e90d" xlink:title="AC_PID::get_ff">
<polygon fill="white" stroke="black" points="182,-190.5 182,-209.5 266,-209.5 266,-190.5 182,-190.5"/>
<text text-anchor="middle" x="224" y="-197.5" font-family="Helvetica,sans-Serif" font-size="10.00">AC_PID::get_ff</text>
</a>
</g>
</g>
<!-- Node1&#45;&gt;Node12 -->
<g id="edge13" class="edge"><title>Node1&#45;&gt;Node12</title>
<path fill="none" stroke="midnightblue" d="M108.678,-236.44C123.418,-230.472 139.763,-224.175 155,-219 161.862,-216.669 169.182,-214.402 176.382,-212.293"/>
<polygon fill="midnightblue" stroke="midnightblue" points="177.418,-215.637 186.071,-209.523 175.495,-208.906 177.418,-215.637"/>
</g>
<!-- Node13 -->
<g id="node13" class="node"><title>Node13</title>
<g id="a_node13"><a xlink:href="$AP__Math_8h.html#ad525609d9dba6ffa556a0fbf08a3f9b4" xlink:title="constrain_float">
<polygon fill="white" stroke="black" points="184,-152.5 184,-171.5 264,-171.5 264,-152.5 184,-152.5"/>
<text text-anchor="middle" x="224" y="-159.5" font-family="Helvetica,sans-Serif" font-size="10.00">constrain_float</text>
</a>
</g>
</g>
<!-- Node1&#45;&gt;Node13 -->
<g id="edge14" class="edge"><title>Node1&#45;&gt;Node13</title>
<path fill="none" stroke="midnightblue" d="M80.8827,-236.468C98.9291,-219.366 126.727,-195.536 155,-181 161.006,-177.912 167.576,-175.273 174.19,-173.033"/>
<polygon fill="midnightblue" stroke="midnightblue" points="175.339,-176.341 183.85,-170.031 173.262,-169.657 175.339,-176.341"/>
</g>
<!-- Node19 -->
<g id="node19" class="node"><title>Node19</title>
<g id="a_node19"><a xlink:href="$classAP__Motors.html#a6d8205956720e8f6afb1d2c403f66b64" xlink:title="AP_Motors::set_roll">
<polygon fill="white" stroke="black" points="172.5,-114.5 172.5,-133.5 275.5,-133.5 275.5,-114.5 172.5,-114.5"/>
<text text-anchor="middle" x="224" y="-121.5" font-family="Helvetica,sans-Serif" font-size="10.00">AP_Motors::set_roll</text>
</a>
</g>
</g>
<!-- Node1&#45;&gt;Node19 -->
<g id="edge20" class="edge"><title>Node1&#45;&gt;Node19</title>
<path fill="none" stroke="midnightblue" d="M72.0941,-236.454C87.6513,-210.758 117.691,-167.207 155,-143 158.168,-140.944 161.559,-139.108 165.073,-137.468"/>
<polygon fill="midnightblue" stroke="midnightblue" points="166.664,-140.599 174.593,-133.571 164.012,-134.121 166.664,-140.599"/>
</g>
<!-- Node20 -->
<g id="node20" class="node"><title>Node20</title>
<g id="a_node20"><a xlink:href="$classAP__Motors.html#a81b4dce8b2b85b5e7042f7ccb6744afc" xlink:title="AP_Motors::set_pitch">
<polygon fill="white" stroke="black" points="168.5,-76.5 168.5,-95.5 279.5,-95.5 279.5,-76.5 168.5,-76.5"/>
<text text-anchor="middle" x="224" y="-83.5" font-family="Helvetica,sans-Serif" font-size="10.00">AP_Motors::set_pitch</text>
</a>
</g>
</g>
<!-- Node1&#45;&gt;Node20 -->
<g id="edge21" class="edge"><title>Node1&#45;&gt;Node20</title>
<path fill="none" stroke="midnightblue" d="M67.6627,-236.369C80.1402,-203.511 109.012,-139.492 155,-105 157.517,-103.112 160.214,-101.411 163.028,-99.8799"/>
<polygon fill="midnightblue" stroke="midnightblue" points="164.755,-102.937 172.341,-95.5408 161.798,-96.5915 164.755,-102.937"/>
</g>
<!-- Node21 -->
<g id="node21" class="node"><title>Node21</title>
<g id="a_node21"><a xlink:href="$structVector2.html#ace2a626eaa79412e2946216e9c3e63c6" xlink:title="Vector2::normalize">
<polygon fill="white" stroke="black" points="175,-38.5 175,-57.5 273,-57.5 273,-38.5 175,-38.5"/>
<text text-anchor="middle" x="224" y="-45.5" font-family="Helvetica,sans-Serif" font-size="10.00">Vector2::normalize</text>
</a>
</g>
</g>
<!-- Node1&#45;&gt;Node21 -->
<g id="edge22" class="edge"><title>Node1&#45;&gt;Node21</title>
<path fill="none" stroke="midnightblue" d="M64.8963,-236.375C74.3173,-197.291 100.201,-112.307 155,-67 158.242,-64.32 161.836,-62.017 165.63,-60.0383"/>
<polygon fill="midnightblue" stroke="midnightblue" points="167.05,-63.2371 174.774,-55.9845 164.213,-56.8378 167.05,-63.2371"/>
</g>
<!-- Node22 -->
<g id="node22" class="node"><title>Node22</title>
<g id="a_node22"><a xlink:href="$classAC__PID.html#a0ae837f35a5f8886c192e0400b1c5b4c" xlink:title="AC_PID::set_integrator">
<polygon fill="white" stroke="black" points="164.5,-0.5 164.5,-19.5 283.5,-19.5 283.5,-0.5 164.5,-0.5"/>
<text text-anchor="middle" x="224" y="-7.5" font-family="Helvetica,sans-Serif" font-size="10.00">AC_PID::set_integrator</text>
</a>
</g>
</g>
<!-- Node1&#45;&gt;Node22 -->
<g id="edge23" class="edge"><title>Node1&#45;&gt;Node22</title>
<path fill="none" stroke="midnightblue" d="M63.0269,-236.198C69.5893,-191.423 91.3463,-85.4134 155,-29 156.926,-27.2927 158.994,-25.7376 161.168,-24.3213"/>
<polygon fill="midnightblue" stroke="midnightblue" points="162.885,-27.3717 169.996,-19.5179 159.539,-21.2229 162.885,-27.3717"/>
</g>
<!-- Node3 -->
<g id="node3" class="node"><title>Node3</title>
<g id="a_node3"><a xlink:href="$classAC__PID.html#ac12ffbd4fd053c6152d403b69e07b8e1" xlink:title="AC_PID::get_filt_alpha">
<polygon fill="white" stroke="black" points="339,-418.5 339,-437.5 456,-437.5 456,-418.5 339,-418.5"/>
<text text-anchor="middle" x="397.5" y="-425.5" font-family="Helvetica,sans-Serif" font-size="10.00">AC_PID::get_filt_alpha</text>
</a>
</g>
</g>
<!-- Node2&#45;&gt;Node3 -->
<g id="edge2" class="edge"><title>Node2&#45;&gt;Node3</title>
<path fill="none" stroke="midnightblue" d="M265.072,-494.462C274.379,-491.793 284.149,-488.617 293,-485 321.653,-473.291 352.486,-455.583 372.975,-443.015"/>
<polygon fill="midnightblue" stroke="midnightblue" points="374.971,-445.895 381.616,-437.642 371.275,-439.95 374.971,-445.895"/>
</g>
<!-- Node4 -->
<g id="node4" class="node"><title>Node4</title>
<g id="a_node4"><a xlink:href="$AP__Math_8h.html#a2a12cce483e9b870da70d30406d82c60" xlink:title="is_zero">
<polygon fill="white" stroke="black" points="543.5,-304.5 543.5,-323.5 591.5,-323.5 591.5,-304.5 543.5,-304.5"/>
<text text-anchor="middle" x="567.5" y="-311.5" font-family="Helvetica,sans-Serif" font-size="10.00">is_zero</text>
</a>
</g>
</g>
<!-- Node3&#45;&gt;Node4 -->
<g id="edge3" class="edge"><title>Node3&#45;&gt;Node4</title>
<path fill="none" stroke="midnightblue" d="M412.535,-418.477C441.492,-398.827 508.103,-353.627 543.466,-329.63"/>
<polygon fill="midnightblue" stroke="midnightblue" points="545.84,-332.249 552.149,-323.738 541.909,-326.457 545.84,-332.249"/>
</g>
<!-- Node9&#45;&gt;Node4 -->
<g id="edge9" class="edge"><title>Node9&#45;&gt;Node4</title>
<path fill="none" stroke="midnightblue" d="M466.348,-314C489.292,-314 513.908,-314 532.993,-314"/>
<polygon fill="midnightblue" stroke="midnightblue" points="533.259,-317.5 543.259,-314 533.259,-310.5 533.259,-317.5"/>
</g>
<!-- Node10&#45;&gt;Node4 -->
<g id="edge11" class="edge"><title>Node10&#45;&gt;Node4</title>
<path fill="none" stroke="midnightblue" d="M437.889,-284.909C466.956,-291.484 506.063,-300.33 533.495,-306.535"/>
<polygon fill="midnightblue" stroke="midnightblue" points="532.867,-309.981 543.392,-308.773 534.411,-303.153 532.867,-309.981"/>
</g>
<!-- Node14 -->
<g id="node14" class="node"><title>Node14</title>
<g id="a_node14"><a xlink:href="$AP__Math_8h.html#a20e8f8671c282c69c1954652b6d61585" xlink:title="constrain_value">
<polygon fill="white" stroke="black" points="355,-152.5 355,-171.5 440,-171.5 440,-152.5 355,-152.5"/>
<text text-anchor="middle" x="397.5" y="-159.5" font-family="Helvetica,sans-Serif" font-size="10.00">constrain_value</text>
</a>
</g>
</g>
<!-- Node13&#45;&gt;Node14 -->
<g id="edge15" class="edge"><title>Node13&#45;&gt;Node14</title>
<path fill="none" stroke="midnightblue" d="M264.346,-162C288.267,-162 319.082,-162 344.938,-162"/>
<polygon fill="midnightblue" stroke="midnightblue" points="344.945,-165.5 354.945,-162 344.945,-158.5 344.945,-165.5"/>
</g>
<!-- Node15 -->
<g id="node15" class="node"><title>Node15</title>
<g id="a_node15"><a xlink:href="$AP__Math_8cpp.html#a37e8e901754cb9c8e53a8e3030c82c50" xlink:title="constrain_value\&lt; int \&gt;">
<polygon fill="white" stroke="black" points="511,-209.5 511,-228.5 624,-228.5 624,-209.5 511,-209.5"/>
<text text-anchor="middle" x="567.5" y="-216.5" font-family="Helvetica,sans-Serif" font-size="10.00">constrain_value&lt; int &gt;</text>
</a>
</g>
</g>
<!-- Node14&#45;&gt;Node15 -->
<g id="edge16" class="edge"><title>Node14&#45;&gt;Node15</title>
<path fill="none" stroke="midnightblue" d="M423.017,-171.516C443.89,-179.493 474.738,-190.991 502,-200 508.628,-202.19 515.679,-204.394 522.593,-206.485"/>
<polygon fill="midnightblue" stroke="midnightblue" points="521.978,-209.954 532.561,-209.454 523.976,-203.245 521.978,-209.954"/>
</g>
<!-- Node16 -->
<g id="node16" class="node"><title>Node16</title>
<g id="a_node16"><a xlink:href="$AP__Math_8cpp.html#afdbe107ec1987d318a6347816fbf2b89" xlink:title="constrain_value\&lt; short \&gt;">
<polygon fill="white" stroke="black" points="505,-171.5 505,-190.5 630,-190.5 630,-171.5 505,-171.5"/>
<text text-anchor="middle" x="567.5" y="-178.5" font-family="Helvetica,sans-Serif" font-size="10.00">constrain_value&lt; short &gt;</text>
</a>
</g>
</g>
<!-- Node14&#45;&gt;Node16 -->
<g id="edge17" class="edge"><title>Node14&#45;&gt;Node16</title>
<path fill="none" stroke="midnightblue" d="M440.028,-166.697C456.583,-168.569 476.125,-170.779 494.833,-172.895"/>
<polygon fill="midnightblue" stroke="midnightblue" points="494.487,-176.378 504.817,-174.024 495.274,-169.422 494.487,-176.378"/>
</g>
<!-- Node17 -->
<g id="node17" class="node"><title>Node17</title>
<g id="a_node17"><a xlink:href="$AP__Math_8cpp.html#ae6c621670c214da687de21d4e3a92587" xlink:title="constrain_value\&lt; float \&gt;">
<polygon fill="white" stroke="black" points="506.5,-133.5 506.5,-152.5 628.5,-152.5 628.5,-133.5 506.5,-133.5"/>
<text text-anchor="middle" x="567.5" y="-140.5" font-family="Helvetica,sans-Serif" font-size="10.00">constrain_value&lt; float &gt;</text>
</a>
</g>
</g>
<!-- Node14&#45;&gt;Node17 -->
<g id="edge18" class="edge"><title>Node14&#45;&gt;Node17</title>
<path fill="none" stroke="midnightblue" d="M440.028,-157.303C456.995,-155.384 477.1,-153.111 496.228,-150.947"/>
<polygon fill="midnightblue" stroke="midnightblue" points="496.879,-154.396 506.423,-149.794 496.093,-147.441 496.879,-154.396"/>
</g>
<!-- Node18 -->
<g id="node18" class="node"><title>Node18</title>
<g id="a_node18"><a xlink:href="$AP__Math_8cpp.html#afe3990b00e9abc43fa97dfaf8e32f5c4" xlink:title="constrain_value\&lt; double \&gt;">
<polygon fill="white" stroke="black" points="502,-95.5 502,-114.5 633,-114.5 633,-95.5 502,-95.5"/>
<text text-anchor="middle" x="567.5" y="-102.5" font-family="Helvetica,sans-Serif" font-size="10.00">constrain_value&lt; double &gt;</text>
</a>
</g>
</g>
<!-- Node14&#45;&gt;Node18 -->
<g id="edge19" class="edge"><title>Node14&#45;&gt;Node18</title>
<path fill="none" stroke="midnightblue" d="M423.017,-152.484C443.89,-144.507 474.738,-133.009 502,-124 508.628,-121.81 515.679,-119.606 522.593,-117.515"/>
<polygon fill="midnightblue" stroke="midnightblue" points="523.976,-120.755 532.561,-114.546 521.978,-114.046 523.976,-120.755"/>
</g>
</g>
</svg>
