<?xml version="1.0" encoding="UTF-8" standalone="no"?>
<!DOCTYPE svg PUBLIC "-//W3C//DTD SVG 1.1//EN"
 "http://www.w3.org/Graphics/SVG/1.1/DTD/svg11.dtd">
<!-- Generated by graphviz version 2.38.0 (20140413.2041)
 -->
<!-- Title: AC_Avoid::limit_velocity Pages: 1 -->
<svg width="674pt" height="161pt"
 viewBox="0.00 0.00 674.00 161.00" xmlns="http://www.w3.org/2000/svg" xmlns:xlink="http://www.w3.org/1999/xlink">
<g id="graph0" class="graph" transform="scale(1 1) rotate(0) translate(4 157)">
<title>AC_Avoid::limit_velocity</title>
<polygon fill="white" stroke="none" points="-4,4 -4,-157 670,-157 670,4 -4,4"/>
<!-- Node1 -->
<g id="node1" class="node"><title>Node1</title>
<polygon fill="#bfbfbf" stroke="black" points="0,-95.5 0,-114.5 124,-114.5 124,-95.5 0,-95.5"/>
<text text-anchor="middle" x="62" y="-102.5" font-family="Helvetica,sans-Serif" font-size="10.00">AC_Avoid::limit_velocity</text>
</g>
<!-- Node2 -->
<g id="node2" class="node"><title>Node2</title>
<g id="a_node2"><a xlink:href="$classAC__Avoid.html#a2ba87fd18a092d9f11ba197255064d16" xlink:title="AC_Avoid::get_max_speed">
<polygon fill="white" stroke="black" points="160,-95.5 160,-114.5 296,-114.5 296,-95.5 160,-95.5"/>
<text text-anchor="middle" x="228" y="-102.5" font-family="Helvetica,sans-Serif" font-size="10.00">AC_Avoid::get_max_speed</text>
</a>
</g>
</g>
<!-- Node1&#45;&gt;Node2 -->
<g id="edge1" class="edge"><title>Node1&#45;&gt;Node2</title>
<path fill="none" stroke="midnightblue" d="M124.068,-105C132.446,-105 141.137,-105 149.757,-105"/>
<polygon fill="midnightblue" stroke="midnightblue" points="149.822,-108.5 159.822,-105 149.822,-101.5 149.822,-108.5"/>
</g>
<!-- Node3 -->
<g id="node3" class="node"><title>Node3</title>
<g id="a_node3"><a xlink:href="$classAC__AttitudeControl.html#a1788967db1aa0dfe68fad24da23947f9" xlink:title="AC_AttitudeControl\l::sqrt_controller">
<polygon fill="white" stroke="black" points="332,-90 332,-120 433,-120 433,-90 332,-90"/>
<text text-anchor="start" x="340" y="-108" font-family="Helvetica,sans-Serif" font-size="10.00">AC_AttitudeControl</text>
<text text-anchor="middle" x="382.5" y="-97" font-family="Helvetica,sans-Serif" font-size="10.00">::sqrt_controller</text>
</a>
</g>
</g>
<!-- Node2&#45;&gt;Node3 -->
<g id="edge2" class="edge"><title>Node2&#45;&gt;Node3</title>
<path fill="none" stroke="midnightblue" d="M296.333,-105C304.842,-105 313.501,-105 321.878,-105"/>
<polygon fill="midnightblue" stroke="midnightblue" points="321.928,-108.5 331.928,-105 321.928,-101.5 321.928,-108.5"/>
</g>
<!-- Node4 -->
<g id="node4" class="node"><title>Node4</title>
<g id="a_node4"><a xlink:href="$AP__Math_8h.html#a2a12cce483e9b870da70d30406d82c60" xlink:title="is_zero">
<polygon fill="white" stroke="black" points="473.5,-133.5 473.5,-152.5 521.5,-152.5 521.5,-133.5 473.5,-133.5"/>
<text text-anchor="middle" x="497.5" y="-140.5" font-family="Helvetica,sans-Serif" font-size="10.00">is_zero</text>
</a>
</g>
</g>
<!-- Node3&#45;&gt;Node4 -->
<g id="edge3" class="edge"><title>Node3&#45;&gt;Node4</title>
<path fill="none" stroke="midnightblue" d="M428.161,-120.019C439.969,-123.989 452.499,-128.203 463.561,-131.923"/>
<polygon fill="midnightblue" stroke="midnightblue" points="462.651,-135.31 473.245,-135.18 464.882,-128.675 462.651,-135.31"/>
</g>
<!-- Node5 -->
<g id="node5" class="node"><title>Node5</title>
<g id="a_node5"><a xlink:href="$AP__Math_8h.html#a0375e3d67fd3911cacee5c3e1408c0f2" xlink:title="sq">
<polygon fill="white" stroke="black" points="483,-95.5 483,-114.5 512,-114.5 512,-95.5 483,-95.5"/>
<text text-anchor="middle" x="497.5" y="-102.5" font-family="Helvetica,sans-Serif" font-size="10.00">sq</text>
</a>
</g>
</g>
<!-- Node3&#45;&gt;Node5 -->
<g id="edge4" class="edge"><title>Node3&#45;&gt;Node5</title>
<path fill="none" stroke="midnightblue" d="M433.063,-105C446.725,-105 460.935,-105 472.435,-105"/>
<polygon fill="midnightblue" stroke="midnightblue" points="472.524,-108.5 482.524,-105 472.524,-101.5 472.524,-108.5"/>
</g>
<!-- Node6 -->
<g id="node6" class="node"><title>Node6</title>
<g id="a_node6"><a xlink:href="$AP__Math_8cpp.html#ac89eb1832d8e4d67fcf1ac07e3c25184" xlink:title="safe_sqrt">
<polygon fill="white" stroke="black" points="469,-57.5 469,-76.5 526,-76.5 526,-57.5 469,-57.5"/>
<text text-anchor="middle" x="497.5" y="-64.5" font-family="Helvetica,sans-Serif" font-size="10.00">safe_sqrt</text>
</a>
</g>
</g>
<!-- Node3&#45;&gt;Node6 -->
<g id="edge5" class="edge"><title>Node3&#45;&gt;Node6</title>
<path fill="none" stroke="midnightblue" d="M428.161,-89.9814C438.432,-86.5273 449.25,-82.8894 459.173,-79.5525"/>
<polygon fill="midnightblue" stroke="midnightblue" points="460.381,-82.8388 468.744,-76.3339 458.15,-76.2039 460.381,-82.8388"/>
</g>
<!-- Node7 -->
<g id="node7" class="node"><title>Node7</title>
<g id="a_node7"><a xlink:href="$AP__Math_8cpp.html#aa5cb9421d48def32eb7574adb1b152b0" xlink:title="safe_sqrt\&lt; int \&gt;">
<polygon fill="white" stroke="black" points="571,-114.5 571,-133.5 657,-133.5 657,-114.5 571,-114.5"/>
<text text-anchor="middle" x="614" y="-121.5" font-family="Helvetica,sans-Serif" font-size="10.00">safe_sqrt&lt; int &gt;</text>
</a>
</g>
</g>
<!-- Node6&#45;&gt;Node7 -->
<g id="edge6" class="edge"><title>Node6&#45;&gt;Node7</title>
<path fill="none" stroke="midnightblue" d="M512.71,-76.5312C525.312,-84.7315 544.398,-96.5421 562,-105 566.136,-106.987 570.538,-108.904 574.956,-110.706"/>
<polygon fill="midnightblue" stroke="midnightblue" points="573.969,-114.078 584.558,-114.45 576.512,-107.556 573.969,-114.078"/>
</g>
<!-- Node8 -->
<g id="node8" class="node"><title>Node8</title>
<g id="a_node8"><a xlink:href="$AP__Math_8cpp.html#a6952300e3d03222491051d674312b67d" xlink:title="safe_sqrt\&lt; short \&gt;">
<polygon fill="white" stroke="black" points="565.5,-76.5 565.5,-95.5 662.5,-95.5 662.5,-76.5 565.5,-76.5"/>
<text text-anchor="middle" x="614" y="-83.5" font-family="Helvetica,sans-Serif" font-size="10.00">safe_sqrt&lt; short &gt;</text>
</a>
</g>
</g>
<!-- Node6&#45;&gt;Node8 -->
<g id="edge7" class="edge"><title>Node6&#45;&gt;Node8</title>
<path fill="none" stroke="midnightblue" d="M526.217,-71.5994C535.053,-73.0656 545.181,-74.7462 555.327,-76.4298"/>
<polygon fill="midnightblue" stroke="midnightblue" points="554.993,-79.9222 565.431,-78.1065 556.139,-73.0166 554.993,-79.9222"/>
</g>
<!-- Node9 -->
<g id="node9" class="node"><title>Node9</title>
<g id="a_node9"><a xlink:href="$AP__Math_8cpp.html#a40ae6cfccff676d9d2ff57e2e9ca549c" xlink:title="safe_sqrt\&lt; float \&gt;">
<polygon fill="white" stroke="black" points="567,-38.5 567,-57.5 661,-57.5 661,-38.5 567,-38.5"/>
<text text-anchor="middle" x="614" y="-45.5" font-family="Helvetica,sans-Serif" font-size="10.00">safe_sqrt&lt; float &gt;</text>
</a>
</g>
</g>
<!-- Node6&#45;&gt;Node9 -->
<g id="edge8" class="edge"><title>Node6&#45;&gt;Node9</title>
<path fill="none" stroke="midnightblue" d="M526.217,-62.4006C535.446,-60.8692 546.084,-59.1039 556.68,-57.3456"/>
<polygon fill="midnightblue" stroke="midnightblue" points="557.487,-60.7597 566.779,-55.6698 556.341,-53.8541 557.487,-60.7597"/>
</g>
<!-- Node10 -->
<g id="node10" class="node"><title>Node10</title>
<g id="a_node10"><a xlink:href="$AP__Math_8cpp.html#acf6795fb73b8b915b53126f71cd2712a" xlink:title="safe_sqrt\&lt; double \&gt;">
<polygon fill="white" stroke="black" points="562,-0.5 562,-19.5 666,-19.5 666,-0.5 562,-0.5"/>
<text text-anchor="middle" x="614" y="-7.5" font-family="Helvetica,sans-Serif" font-size="10.00">safe_sqrt&lt; double &gt;</text>
</a>
</g>
</g>
<!-- Node6&#45;&gt;Node10 -->
<g id="edge9" class="edge"><title>Node6&#45;&gt;Node10</title>
<path fill="none" stroke="midnightblue" d="M512.71,-57.4688C525.312,-49.2685 544.398,-37.4579 562,-29 566.136,-27.0127 570.538,-25.0956 574.956,-23.2937"/>
<polygon fill="midnightblue" stroke="midnightblue" points="576.512,-26.4437 584.558,-19.5502 573.969,-19.9219 576.512,-26.4437"/>
</g>
</g>
</svg>
