<?xml version="1.0" encoding="UTF-8" standalone="no"?>
<!DOCTYPE svg PUBLIC "-//W3C//DTD SVG 1.1//EN"
 "http://www.w3.org/Graphics/SVG/1.1/DTD/svg11.dtd">
<!-- Generated by graphviz version 2.38.0 (20140413.2041)
 -->
<!-- Title: AC_Fence::clear_breach Pages: 1 -->
<svg width="433pt" height="66pt"
 viewBox="0.00 0.00 433.00 66.00" xmlns="http://www.w3.org/2000/svg" xmlns:xlink="http://www.w3.org/1999/xlink">
<g id="graph0" class="graph" transform="scale(1 1) rotate(0) translate(4 62)">
<title>AC_Fence::clear_breach</title>
<polygon fill="white" stroke="none" points="-4,4 -4,-62 429,-62 429,4 -4,4"/>
<!-- Node1 -->
<g id="node1" class="node"><title>Node1</title>
<polygon fill="#bfbfbf" stroke="black" points="0,-19.5 0,-38.5 125,-38.5 125,-19.5 0,-19.5"/>
<text text-anchor="middle" x="62.5" y="-26.5" font-family="Helvetica,sans-Serif" font-size="10.00">AC_Fence::clear_breach</text>
</g>
<!-- Node2 -->
<g id="node2" class="node"><title>Node2</title>
<g id="a_node2"><a xlink:href="$classAC__Fence.html#a730e2005dc74a0a70ee16bfb9569baeb" xlink:title="AC_Fence::check_fence">
<polygon fill="white" stroke="black" points="161,-38.5 161,-57.5 286,-57.5 286,-38.5 161,-38.5"/>
<text text-anchor="middle" x="223.5" y="-45.5" font-family="Helvetica,sans-Serif" font-size="10.00">AC_Fence::check_fence</text>
</a>
</g>
</g>
<!-- Node1&#45;&gt;Node2 -->
<g id="edge1" class="edge"><title>Node1&#45;&gt;Node2</title>
<path fill="none" stroke="midnightblue" d="M135.592,-37.6147C143.99,-38.6183 152.499,-39.6351 160.74,-40.6199"/>
<polygon fill="midnightblue" stroke="midnightblue" points="135.774,-34.1116 125.429,-36.4003 134.943,-41.0622 135.774,-34.1116"/>
</g>
<!-- Node4 -->
<g id="node4" class="node"><title>Node4</title>
<g id="a_node4"><a xlink:href="$classAC__Fence.html#a049ab67fd30dd133cbb24439173a9286" xlink:title="enable &#45; allows fence to be enabled/disabled. Note: this does not update the eeprom saved value ...">
<polygon fill="white" stroke="black" points="174.5,-0.5 174.5,-19.5 272.5,-19.5 272.5,-0.5 174.5,-0.5"/>
<text text-anchor="middle" x="223.5" y="-7.5" font-family="Helvetica,sans-Serif" font-size="10.00">AC_Fence::enable</text>
</a>
</g>
</g>
<!-- Node1&#45;&gt;Node4 -->
<g id="edge3" class="edge"><title>Node1&#45;&gt;Node4</title>
<path fill="none" stroke="midnightblue" d="M135.415,-20.4064C148.577,-18.8336 162.018,-17.2274 174.279,-15.7623"/>
<polygon fill="midnightblue" stroke="midnightblue" points="134.943,-16.9378 125.429,-21.5997 135.774,-23.8884 134.943,-16.9378"/>
</g>
<!-- Node3 -->
<g id="node3" class="node"><title>Node3</title>
<g id="a_node3"><a xlink:href="$classAC__Fence.html#acdc600f19a3e4eb6de655c26f52e0968" xlink:title="enabled &#45; returns true if fence is enabled ">
<polygon fill="white" stroke="black" points="322,-38.5 322,-57.5 425,-57.5 425,-38.5 322,-38.5"/>
<text text-anchor="middle" x="373.5" y="-45.5" font-family="Helvetica,sans-Serif" font-size="10.00">AC_Fence::enabled</text>
</a>
</g>
</g>
<!-- Node2&#45;&gt;Node3 -->
<g id="edge2" class="edge"><title>Node2&#45;&gt;Node3</title>
<path fill="none" stroke="midnightblue" d="M296.649,-48C305.082,-48 313.547,-48 321.606,-48"/>
<polygon fill="midnightblue" stroke="midnightblue" points="296.408,-44.5001 286.408,-48 296.408,-51.5001 296.408,-44.5001"/>
</g>
</g>
</svg>
