<?xml version="1.0" encoding="UTF-8" standalone="no"?>
<!DOCTYPE svg PUBLIC "-//W3C//DTD SVG 1.1//EN"
 "http://www.w3.org/Graphics/SVG/1.1/DTD/svg11.dtd">
<!-- Generated by graphviz version 2.38.0 (20140413.2041)
 -->
<!-- Title: AC_Fence::manual_recovery_start Pages: 1 -->
<svg width="1128pt" height="137pt"
 viewBox="0.00 0.00 1128.00 137.00" xmlns="http://www.w3.org/2000/svg" xmlns:xlink="http://www.w3.org/1999/xlink">
<g id="graph0" class="graph" transform="scale(1 1) rotate(0) translate(4 133)">
<title>AC_Fence::manual_recovery_start</title>
<polygon fill="white" stroke="none" points="-4,4 -4,-133 1124,-133 1124,4 -4,4"/>
<!-- Node1 -->
<g id="node1" class="node"><title>Node1</title>
<polygon fill="#bfbfbf" stroke="black" points="0,-49.5 0,-79.5 143,-79.5 143,-49.5 0,-49.5"/>
<text text-anchor="start" x="8" y="-67.5" font-family="Helvetica,sans-Serif" font-size="10.00">AC_Fence::manual_recovery</text>
<text text-anchor="middle" x="71.5" y="-56.5" font-family="Helvetica,sans-Serif" font-size="10.00">_start</text>
</g>
<!-- Node2 -->
<g id="node2" class="node"><title>Node2</title>
<g id="a_node2"><a xlink:href="$classAC__Fence.html#a030cba699d6f13503232480828f0e3c5" xlink:title="get_margin &#45; returns the fence margin in meters ">
<polygon fill="white" stroke="black" points="179,-55 179,-74 296,-74 296,-55 179,-55"/>
<text text-anchor="middle" x="237.5" y="-62" font-family="Helvetica,sans-Serif" font-size="10.00">AC_Fence::get_margin</text>
</a>
</g>
</g>
<!-- Node1&#45;&gt;Node2 -->
<g id="edge1" class="edge"><title>Node1&#45;&gt;Node2</title>
<path fill="none" stroke="midnightblue" d="M153.167,-64.5C161.853,-64.5 170.56,-64.5 178.896,-64.5"/>
<polygon fill="midnightblue" stroke="midnightblue" points="153.003,-61.0001 143.003,-64.5 153.002,-68.0001 153.003,-61.0001"/>
</g>
<!-- Node3 -->
<g id="node3" class="node"><title>Node3</title>
<g id="a_node3"><a xlink:href="$classAC__Avoid.html#acda5962c20c1d4c06eb2137c092e9569" xlink:title="AC_Avoid::adjust_velocity\l_beacon_fence">
<polygon fill="white" stroke="black" points="332,-98.5 332,-128.5 464,-128.5 464,-98.5 332,-98.5"/>
<text text-anchor="start" x="340" y="-116.5" font-family="Helvetica,sans-Serif" font-size="10.00">AC_Avoid::adjust_velocity</text>
<text text-anchor="middle" x="398" y="-105.5" font-family="Helvetica,sans-Serif" font-size="10.00">_beacon_fence</text>
</a>
</g>
</g>
<!-- Node2&#45;&gt;Node3 -->
<g id="edge2" class="edge"><title>Node2&#45;&gt;Node3</title>
<path fill="none" stroke="midnightblue" d="M279.072,-77.0426C300.192,-83.5719 326.168,-91.6024 348.36,-98.463"/>
<polygon fill="midnightblue" stroke="midnightblue" points="280.024,-73.6738 269.437,-74.064 277.957,-80.3615 280.024,-73.6738"/>
</g>
<!-- Node9 -->
<g id="node9" class="node"><title>Node9</title>
<g id="a_node9"><a xlink:href="$classAC__Avoid.html#ab17bec0b2b5b58be5d4686d680a68a6a" xlink:title="AC_Avoid::adjust_velocity\l_circle_fence">
<polygon fill="white" stroke="black" points="332,-49.5 332,-79.5 464,-79.5 464,-49.5 332,-49.5"/>
<text text-anchor="start" x="340" y="-67.5" font-family="Helvetica,sans-Serif" font-size="10.00">AC_Avoid::adjust_velocity</text>
<text text-anchor="middle" x="398" y="-56.5" font-family="Helvetica,sans-Serif" font-size="10.00">_circle_fence</text>
</a>
</g>
</g>
<!-- Node2&#45;&gt;Node9 -->
<g id="edge8" class="edge"><title>Node2&#45;&gt;Node9</title>
<path fill="none" stroke="midnightblue" d="M306.366,-64.5C314.819,-64.5 323.448,-64.5 331.857,-64.5"/>
<polygon fill="midnightblue" stroke="midnightblue" points="306.171,-61.0001 296.171,-64.5 306.17,-68.0001 306.171,-61.0001"/>
</g>
<!-- Node10 -->
<g id="node10" class="node"><title>Node10</title>
<g id="a_node10"><a xlink:href="$classAC__Avoid.html#ac02a966259c9abb5ca2e5e4ee8e72d91" xlink:title="AC_Avoid::adjust_velocity\l_polygon_fence">
<polygon fill="white" stroke="black" points="332,-0.5 332,-30.5 464,-30.5 464,-0.5 332,-0.5"/>
<text text-anchor="start" x="340" y="-18.5" font-family="Helvetica,sans-Serif" font-size="10.00">AC_Avoid::adjust_velocity</text>
<text text-anchor="middle" x="398" y="-7.5" font-family="Helvetica,sans-Serif" font-size="10.00">_polygon_fence</text>
</a>
</g>
</g>
<!-- Node2&#45;&gt;Node10 -->
<g id="edge10" class="edge"><title>Node2&#45;&gt;Node10</title>
<path fill="none" stroke="midnightblue" d="M279.072,-51.9574C300.192,-45.4281 326.168,-37.3976 348.36,-30.537"/>
<polygon fill="midnightblue" stroke="midnightblue" points="277.957,-48.6385 269.437,-54.936 280.024,-55.3262 277.957,-48.6385"/>
</g>
<!-- Node4 -->
<g id="node4" class="node"><title>Node4</title>
<g id="a_node4"><a xlink:href="$classAC__Avoid.html#abee541d127ce0da1fe6be54f987a0779" xlink:title="AC_Avoid::adjust_velocity">
<polygon fill="white" stroke="black" points="500,-55 500,-74 632,-74 632,-55 500,-55"/>
<text text-anchor="middle" x="566" y="-62" font-family="Helvetica,sans-Serif" font-size="10.00">AC_Avoid::adjust_velocity</text>
</a>
</g>
</g>
<!-- Node3&#45;&gt;Node4 -->
<g id="edge3" class="edge"><title>Node3&#45;&gt;Node4</title>
<path fill="none" stroke="midnightblue" d="M459.798,-95.5536C484.431,-88.2825 511.879,-80.1803 532.561,-74.0754"/>
<polygon fill="midnightblue" stroke="midnightblue" points="458.76,-92.2106 450.16,-98.3986 460.742,-98.9243 458.76,-92.2106"/>
</g>
<!-- Node5 -->
<g id="node5" class="node"><title>Node5</title>
<g id="a_node5"><a xlink:href="$classAC__Avoid.html#a95e227fdefd6f8c85b4d4888cad8993f" xlink:title="AC_Avoid::adjust_velocity">
<polygon fill="white" stroke="black" points="668,-77 668,-96 800,-96 800,-77 668,-77"/>
<text text-anchor="middle" x="734" y="-84" font-family="Helvetica,sans-Serif" font-size="10.00">AC_Avoid::adjust_velocity</text>
</a>
</g>
</g>
<!-- Node4&#45;&gt;Node5 -->
<g id="edge4" class="edge"><title>Node4&#45;&gt;Node5</title>
<path fill="none" stroke="midnightblue" d="M642.114,-74.4548C650.681,-75.5902 659.361,-76.7406 667.784,-77.8569"/>
<polygon fill="midnightblue" stroke="midnightblue" points="642.504,-70.9761 632.131,-73.1318 641.585,-77.9154 642.504,-70.9761"/>
</g>
<!-- Node6 -->
<g id="node6" class="node"><title>Node6</title>
<g id="a_node6"><a xlink:href="$classAC__WPNav.html#a3dbf7bda89b127cdc81bca29e2af25de" xlink:title="AC_WPNav::calc_loiter\l_desired_velocity">
<polygon fill="white" stroke="black" points="673.5,-27.5 673.5,-57.5 794.5,-57.5 794.5,-27.5 673.5,-27.5"/>
<text text-anchor="start" x="681.5" y="-45.5" font-family="Helvetica,sans-Serif" font-size="10.00">AC_WPNav::calc_loiter</text>
<text text-anchor="middle" x="734" y="-34.5" font-family="Helvetica,sans-Serif" font-size="10.00">_desired_velocity</text>
</a>
</g>
</g>
<!-- Node4&#45;&gt;Node6 -->
<g id="edge5" class="edge"><title>Node4&#45;&gt;Node6</title>
<path fill="none" stroke="midnightblue" d="M642.127,-54.5434C652.63,-53.1515 663.303,-51.737 673.464,-50.3903"/>
<polygon fill="midnightblue" stroke="midnightblue" points="641.585,-51.0846 632.131,-55.8682 642.504,-58.0239 641.585,-51.0846"/>
</g>
<!-- Node7 -->
<g id="node7" class="node"><title>Node7</title>
<g id="a_node7"><a xlink:href="$classAC__WPNav.html#a0a434270245fd8641352af387700dc82" xlink:title="update_loiter &#45; run the loiter controller &#45; should be called at 10hz ">
<polygon fill="white" stroke="black" points="836,-33 836,-52 968,-52 968,-33 836,-33"/>
<text text-anchor="middle" x="902" y="-40" font-family="Helvetica,sans-Serif" font-size="10.00">AC_WPNav::update_loiter</text>
</a>
</g>
</g>
<!-- Node6&#45;&gt;Node7 -->
<g id="edge6" class="edge"><title>Node6&#45;&gt;Node7</title>
<path fill="none" stroke="midnightblue" d="M805.027,-42.5C815.237,-42.5 825.716,-42.5 835.824,-42.5"/>
<polygon fill="midnightblue" stroke="midnightblue" points="804.93,-39.0001 794.93,-42.5 804.93,-46.0001 804.93,-39.0001"/>
</g>
<!-- Node8 -->
<g id="node8" class="node"><title>Node8</title>
<g id="a_node8"><a xlink:href="$classAC__WPNav.html#ae34a88192799de8f2b96c8cd295bb971" xlink:title="get_loiter_target &#45; returns loiter target position ">
<polygon fill="white" stroke="black" points="1004,-27.5 1004,-57.5 1120,-57.5 1120,-27.5 1004,-27.5"/>
<text text-anchor="start" x="1012" y="-45.5" font-family="Helvetica,sans-Serif" font-size="10.00">AC_WPNav::get_loiter</text>
<text text-anchor="middle" x="1062" y="-34.5" font-family="Helvetica,sans-Serif" font-size="10.00">_target</text>
</a>
</g>
</g>
<!-- Node7&#45;&gt;Node8 -->
<g id="edge7" class="edge"><title>Node7&#45;&gt;Node8</title>
<path fill="none" stroke="midnightblue" d="M978.429,-42.5C986.877,-42.5 995.38,-42.5 1003.55,-42.5"/>
<polygon fill="midnightblue" stroke="midnightblue" points="978.177,-39.0001 968.177,-42.5 978.177,-46.0001 978.177,-39.0001"/>
</g>
<!-- Node9&#45;&gt;Node4 -->
<g id="edge9" class="edge"><title>Node9&#45;&gt;Node4</title>
<path fill="none" stroke="midnightblue" d="M474.393,-64.5C482.869,-64.5 491.452,-64.5 499.784,-64.5"/>
<polygon fill="midnightblue" stroke="midnightblue" points="474.131,-61.0001 464.131,-64.5 474.131,-68.0001 474.131,-61.0001"/>
</g>
<!-- Node10&#45;&gt;Node4 -->
<g id="edge11" class="edge"><title>Node10&#45;&gt;Node4</title>
<path fill="none" stroke="midnightblue" d="M459.798,-33.4464C484.431,-40.7175 511.879,-48.8197 532.561,-54.9246"/>
<polygon fill="midnightblue" stroke="midnightblue" points="460.742,-30.0757 450.16,-30.6014 458.76,-36.7894 460.742,-30.0757"/>
</g>
</g>
</svg>
