<?xml version="1.0" encoding="UTF-8" standalone="no"?>
<!DOCTYPE svg PUBLIC "-//W3C//DTD SVG 1.1//EN"
 "http://www.w3.org/Graphics/SVG/1.1/DTD/svg11.dtd">
<!-- Generated by graphviz version 2.38.0 (20140413.2041)
 -->
<!-- Title: AC_AttitudeControl_Sub::rate_controller_run Pages: 1 -->
<svg width="814pt" height="773pt"
 viewBox="0.00 0.00 814.00 773.00" xmlns="http://www.w3.org/2000/svg" xmlns:xlink="http://www.w3.org/1999/xlink">
<g id="graph0" class="graph" transform="scale(1 1) rotate(0) translate(4 769)">
<title>AC_AttitudeControl_Sub::rate_controller_run</title>
<polygon fill="white" stroke="none" points="-4,4 -4,-769 810,-769 810,4 -4,4"/>
<!-- Node1 -->
<g id="node1" class="node"><title>Node1</title>
<polygon fill="#bfbfbf" stroke="black" points="0,-285 0,-315 125,-315 125,-285 0,-285"/>
<text text-anchor="start" x="8" y="-303" font-family="Helvetica,sans-Serif" font-size="10.00">AC_AttitudeControl</text>
<text text-anchor="middle" x="62.5" y="-292" font-family="Helvetica,sans-Serif" font-size="10.00">_Sub::rate_controller_run</text>
</g>
<!-- Node2 -->
<g id="node2" class="node"><title>Node2</title>
<g id="a_node2"><a xlink:href="$classAC__AttitudeControl__Sub.html#acfec4c0405a1f2125e974506d0104eb0" xlink:title="AC_AttitudeControl\l_Sub::update_throttle\l_rpy_mix">
<polygon fill="white" stroke="black" points="175.5,-677.5 175.5,-718.5 285.5,-718.5 285.5,-677.5 175.5,-677.5"/>
<text text-anchor="start" x="183.5" y="-706.5" font-family="Helvetica,sans-Serif" font-size="10.00">AC_AttitudeControl</text>
<text text-anchor="start" x="183.5" y="-695.5" font-family="Helvetica,sans-Serif" font-size="10.00">_Sub::update_throttle</text>
<text text-anchor="middle" x="230.5" y="-684.5" font-family="Helvetica,sans-Serif" font-size="10.00">_rpy_mix</text>
</a>
</g>
</g>
<!-- Node1&#45;&gt;Node2 -->
<g id="edge1" class="edge"><title>Node1&#45;&gt;Node2</title>
<path fill="none" stroke="midnightblue" d="M67.7798,-315.076C79.9961,-357.348 116.998,-480.237 161,-577 175.709,-609.345 196.149,-644.498 210.868,-668.536"/>
<polygon fill="midnightblue" stroke="midnightblue" points="207.971,-670.507 216.204,-677.175 213.927,-666.828 207.971,-670.507"/>
</g>
<!-- Node10 -->
<g id="node10" class="node"><title>Node10</title>
<g id="a_node10"><a xlink:href="$classAP__AHRS__View.html#aec99fce6a0287cfe2542ed2b7459d4d1" xlink:title="AP_AHRS_View::get_gyro\l_latest">
<polygon fill="white" stroke="black" points="163.5,-236 163.5,-266 297.5,-266 297.5,-236 163.5,-236"/>
<text text-anchor="start" x="171.5" y="-254" font-family="Helvetica,sans-Serif" font-size="10.00">AP_AHRS_View::get_gyro</text>
<text text-anchor="middle" x="230.5" y="-243" font-family="Helvetica,sans-Serif" font-size="10.00">_latest</text>
</a>
</g>
</g>
<!-- Node1&#45;&gt;Node10 -->
<g id="edge9" class="edge"><title>Node1&#45;&gt;Node10</title>
<path fill="none" stroke="midnightblue" d="M114.66,-284.899C131.781,-279.845 151.032,-274.162 168.808,-268.915"/>
<polygon fill="midnightblue" stroke="midnightblue" points="169.909,-272.24 178.509,-266.052 167.927,-265.526 169.909,-272.24"/>
</g>
<!-- Node18 -->
<g id="node18" class="node"><title>Node18</title>
<g id="a_node18"><a xlink:href="$classAP__Motors.html#a6d8205956720e8f6afb1d2c403f66b64" xlink:title="AP_Motors::set_roll">
<polygon fill="white" stroke="black" points="179,-197.5 179,-216.5 282,-216.5 282,-197.5 179,-197.5"/>
<text text-anchor="middle" x="230.5" y="-204.5" font-family="Helvetica,sans-Serif" font-size="10.00">AP_Motors::set_roll</text>
</a>
</g>
</g>
<!-- Node1&#45;&gt;Node18 -->
<g id="edge17" class="edge"><title>Node1&#45;&gt;Node18</title>
<path fill="none" stroke="midnightblue" d="M79.458,-284.798C97.778,-268.124 129.39,-241.657 161,-226 165.65,-223.697 170.62,-221.638 175.681,-219.804"/>
<polygon fill="midnightblue" stroke="midnightblue" points="177.076,-223.029 185.461,-216.553 174.868,-216.386 177.076,-223.029"/>
</g>
<!-- Node19 -->
<g id="node19" class="node"><title>Node19</title>
<g id="a_node19"><a xlink:href="$classAC__AttitudeControl.html#a11b25e42766e40c97e90d9dc33164b3e" xlink:title="AC_AttitudeControl\l::rate_target_to_motor_roll">
<polygon fill="white" stroke="black" points="165,-488 165,-518 296,-518 296,-488 165,-488"/>
<text text-anchor="start" x="173" y="-506" font-family="Helvetica,sans-Serif" font-size="10.00">AC_AttitudeControl</text>
<text text-anchor="middle" x="230.5" y="-495" font-family="Helvetica,sans-Serif" font-size="10.00">::rate_target_to_motor_roll</text>
</a>
</g>
</g>
<!-- Node1&#45;&gt;Node19 -->
<g id="edge18" class="edge"><title>Node1&#45;&gt;Node19</title>
<path fill="none" stroke="midnightblue" d="M67.6382,-315.112C77.7528,-349.275 106.94,-433.047 161,-479 162.512,-480.285 164.098,-481.504 165.741,-482.658"/>
<polygon fill="midnightblue" stroke="midnightblue" points="164.017,-485.706 174.38,-487.912 167.655,-479.725 164.017,-485.706"/>
</g>
<!-- Node30 -->
<g id="node30" class="node"><title>Node30</title>
<g id="a_node30"><a xlink:href="$classAP__Motors.html#a81b4dce8b2b85b5e7042f7ccb6744afc" xlink:title="AP_Motors::set_pitch">
<polygon fill="white" stroke="black" points="175,-159.5 175,-178.5 286,-178.5 286,-159.5 175,-159.5"/>
<text text-anchor="middle" x="230.5" y="-166.5" font-family="Helvetica,sans-Serif" font-size="10.00">AP_Motors::set_pitch</text>
</a>
</g>
</g>
<!-- Node1&#45;&gt;Node30 -->
<g id="edge31" class="edge"><title>Node1&#45;&gt;Node30</title>
<path fill="none" stroke="midnightblue" d="M72.5293,-284.803C87.7041,-260.599 120.656,-213.436 161,-188 164.368,-185.876 167.976,-183.986 171.709,-182.304"/>
<polygon fill="midnightblue" stroke="midnightblue" points="173.181,-185.485 181.181,-178.539 170.595,-178.981 173.181,-185.485"/>
</g>
<!-- Node31 -->
<g id="node31" class="node"><title>Node31</title>
<g id="a_node31"><a xlink:href="$classAC__AttitudeControl.html#af828fefadbe69fe4b05db836886ffca5" xlink:title="AC_AttitudeControl\l::rate_target_to_motor_pitch">
<polygon fill="white" stroke="black" points="161,-439 161,-469 300,-469 300,-439 161,-439"/>
<text text-anchor="start" x="169" y="-457" font-family="Helvetica,sans-Serif" font-size="10.00">AC_AttitudeControl</text>
<text text-anchor="middle" x="230.5" y="-446" font-family="Helvetica,sans-Serif" font-size="10.00">::rate_target_to_motor_pitch</text>
</a>
</g>
</g>
<!-- Node1&#45;&gt;Node31 -->
<g id="edge32" class="edge"><title>Node1&#45;&gt;Node31</title>
<path fill="none" stroke="midnightblue" d="M79.719,-315.047C109.023,-342.233 170.932,-399.666 205.273,-431.524"/>
<polygon fill="midnightblue" stroke="midnightblue" points="203.258,-434.429 212.969,-438.664 208.019,-429.297 203.258,-434.429"/>
</g>
<!-- Node33 -->
<g id="node33" class="node"><title>Node33</title>
<g id="a_node33"><a xlink:href="$classAP__Motors.html#aeffa3aa472e13049df93f68ea7c2994b" xlink:title="AP_Motors::set_yaw">
<polygon fill="white" stroke="black" points="176.5,-121.5 176.5,-140.5 284.5,-140.5 284.5,-121.5 176.5,-121.5"/>
<text text-anchor="middle" x="230.5" y="-128.5" font-family="Helvetica,sans-Serif" font-size="10.00">AP_Motors::set_yaw</text>
</a>
</g>
</g>
<!-- Node1&#45;&gt;Node33 -->
<g id="edge42" class="edge"><title>Node1&#45;&gt;Node33</title>
<path fill="none" stroke="midnightblue" d="M69.1486,-284.607C81.149,-254.095 112.15,-185.804 161,-150 163.638,-148.067 166.464,-146.33 169.41,-144.77"/>
<polygon fill="midnightblue" stroke="midnightblue" points="170.901,-147.937 178.544,-140.6 167.994,-141.569 170.901,-147.937"/>
</g>
<!-- Node34 -->
<g id="node34" class="node"><title>Node34</title>
<g id="a_node34"><a xlink:href="$classAC__AttitudeControl.html#aaa638b2161d9a8cddfa0750ab02fb378" xlink:title="AC_AttitudeControl\l::rate_target_to_motor_yaw">
<polygon fill="white" stroke="black" points="162.5,-537 162.5,-567 298.5,-567 298.5,-537 162.5,-537"/>
<text text-anchor="start" x="170.5" y="-555" font-family="Helvetica,sans-Serif" font-size="10.00">AC_AttitudeControl</text>
<text text-anchor="middle" x="230.5" y="-544" font-family="Helvetica,sans-Serif" font-size="10.00">::rate_target_to_motor_yaw</text>
</a>
</g>
</g>
<!-- Node1&#45;&gt;Node34 -->
<g id="edge43" class="edge"><title>Node1&#45;&gt;Node34</title>
<path fill="none" stroke="midnightblue" d="M65.6945,-315.172C72.3341,-355.628 95.908,-467.135 161,-528 162.266,-529.183 163.593,-530.309 164.971,-531.379"/>
<polygon fill="midnightblue" stroke="midnightblue" points="163.086,-534.329 173.358,-536.927 166.949,-528.491 163.086,-534.329"/>
</g>
<!-- Node37 -->
<g id="node37" class="node"><title>Node37</title>
<g id="a_node37"><a xlink:href="$classAC__AttitudeControl.html#a487553ac1448b6ba791d029c9cf18dac" xlink:title="AC_AttitudeControl\l::control_monitor_update">
<polygon fill="white" stroke="black" points="168.5,-285 168.5,-315 292.5,-315 292.5,-285 168.5,-285"/>
<text text-anchor="start" x="176.5" y="-303" font-family="Helvetica,sans-Serif" font-size="10.00">AC_AttitudeControl</text>
<text text-anchor="middle" x="230.5" y="-292" font-family="Helvetica,sans-Serif" font-size="10.00">::control_monitor_update</text>
</a>
</g>
</g>
<!-- Node1&#45;&gt;Node37 -->
<g id="edge54" class="edge"><title>Node1&#45;&gt;Node37</title>
<path fill="none" stroke="midnightblue" d="M125.312,-300C136.11,-300 147.421,-300 158.445,-300"/>
<polygon fill="midnightblue" stroke="midnightblue" points="158.465,-303.5 168.465,-300 158.465,-296.5 158.465,-303.5"/>
</g>
<!-- Node3 -->
<g id="node3" class="node"><title>Node3</title>
<g id="a_node3"><a xlink:href="$AP__Math_8h.html#a6b187a3fa1e9f663e89175e7e8e213d6" xlink:title="MIN">
<polygon fill="white" stroke="black" points="387.5,-726.5 387.5,-745.5 422.5,-745.5 422.5,-726.5 387.5,-726.5"/>
<text text-anchor="middle" x="405" y="-733.5" font-family="Helvetica,sans-Serif" font-size="10.00">MIN</text>
</a>
</g>
</g>
<!-- Node2&#45;&gt;Node3 -->
<g id="edge2" class="edge"><title>Node2&#45;&gt;Node3</title>
<path fill="none" stroke="midnightblue" d="M285.607,-709.919C316.075,-716.631 352.789,-724.719 377.173,-730.09"/>
<polygon fill="midnightblue" stroke="midnightblue" points="376.609,-733.55 387.127,-732.283 378.115,-726.714 376.609,-733.55"/>
</g>
<!-- Node4 -->
<g id="node4" class="node"><title>Node4</title>
<g id="a_node4"><a xlink:href="$AP__Math_8h.html#ad525609d9dba6ffa556a0fbf08a3f9b4" xlink:title="constrain_float">
<polygon fill="white" stroke="black" points="365,-688.5 365,-707.5 445,-707.5 445,-688.5 365,-688.5"/>
<text text-anchor="middle" x="405" y="-695.5" font-family="Helvetica,sans-Serif" font-size="10.00">constrain_float</text>
</a>
</g>
</g>
<!-- Node2&#45;&gt;Node4 -->
<g id="edge3" class="edge"><title>Node2&#45;&gt;Node4</title>
<path fill="none" stroke="midnightblue" d="M285.607,-698C307.684,-698 333.039,-698 354.608,-698"/>
<polygon fill="midnightblue" stroke="midnightblue" points="354.86,-701.5 364.86,-698 354.86,-694.5 354.86,-701.5"/>
</g>
<!-- Node5 -->
<g id="node5" class="node"><title>Node5</title>
<g id="a_node5"><a xlink:href="$AP__Math_8h.html#a20e8f8671c282c69c1954652b6d61585" xlink:title="constrain_value">
<polygon fill="white" stroke="black" points="532,-688.5 532,-707.5 617,-707.5 617,-688.5 532,-688.5"/>
<text text-anchor="middle" x="574.5" y="-695.5" font-family="Helvetica,sans-Serif" font-size="10.00">constrain_value</text>
</a>
</g>
</g>
<!-- Node4&#45;&gt;Node5 -->
<g id="edge4" class="edge"><title>Node4&#45;&gt;Node5</title>
<path fill="none" stroke="midnightblue" d="M445.271,-698C468.031,-698 496.964,-698 521.585,-698"/>
<polygon fill="midnightblue" stroke="midnightblue" points="521.842,-701.5 531.842,-698 521.842,-694.5 521.842,-701.5"/>
</g>
<!-- Node6 -->
<g id="node6" class="node"><title>Node6</title>
<g id="a_node6"><a xlink:href="$AP__Math_8cpp.html#a37e8e901754cb9c8e53a8e3030c82c50" xlink:title="constrain_value\&lt; int \&gt;">
<polygon fill="white" stroke="black" points="684,-669.5 684,-688.5 797,-688.5 797,-669.5 684,-669.5"/>
<text text-anchor="middle" x="740.5" y="-676.5" font-family="Helvetica,sans-Serif" font-size="10.00">constrain_value&lt; int &gt;</text>
</a>
</g>
</g>
<!-- Node5&#45;&gt;Node6 -->
<g id="edge5" class="edge"><title>Node5&#45;&gt;Node6</title>
<path fill="none" stroke="midnightblue" d="M617.308,-693.156C634.443,-691.171 654.688,-688.826 673.719,-686.621"/>
<polygon fill="midnightblue" stroke="midnightblue" points="674.306,-690.076 683.837,-685.449 673.5,-683.123 674.306,-690.076"/>
</g>
<!-- Node7 -->
<g id="node7" class="node"><title>Node7</title>
<g id="a_node7"><a xlink:href="$AP__Math_8cpp.html#afdbe107ec1987d318a6347816fbf2b89" xlink:title="constrain_value\&lt; short \&gt;">
<polygon fill="white" stroke="black" points="678,-631.5 678,-650.5 803,-650.5 803,-631.5 678,-631.5"/>
<text text-anchor="middle" x="740.5" y="-638.5" font-family="Helvetica,sans-Serif" font-size="10.00">constrain_value&lt; short &gt;</text>
</a>
</g>
</g>
<!-- Node5&#45;&gt;Node7 -->
<g id="edge6" class="edge"><title>Node5&#45;&gt;Node7</title>
<path fill="none" stroke="midnightblue" d="M599.034,-688.414C619.077,-680.395 648.721,-668.874 675,-660 681.539,-657.792 688.499,-655.59 695.335,-653.51"/>
<polygon fill="midnightblue" stroke="midnightblue" points="696.621,-656.779 705.2,-650.562 694.616,-650.072 696.621,-656.779"/>
</g>
<!-- Node8 -->
<g id="node8" class="node"><title>Node8</title>
<g id="a_node8"><a xlink:href="$AP__Math_8cpp.html#ae6c621670c214da687de21d4e3a92587" xlink:title="constrain_value\&lt; float \&gt;">
<polygon fill="white" stroke="black" points="679.5,-745.5 679.5,-764.5 801.5,-764.5 801.5,-745.5 679.5,-745.5"/>
<text text-anchor="middle" x="740.5" y="-752.5" font-family="Helvetica,sans-Serif" font-size="10.00">constrain_value&lt; float &gt;</text>
</a>
</g>
</g>
<!-- Node5&#45;&gt;Node8 -->
<g id="edge7" class="edge"><title>Node5&#45;&gt;Node8</title>
<path fill="none" stroke="midnightblue" d="M599.034,-707.586C619.077,-715.605 648.721,-727.126 675,-736 681.539,-738.208 688.499,-740.41 695.335,-742.49"/>
<polygon fill="midnightblue" stroke="midnightblue" points="694.616,-745.928 705.2,-745.438 696.621,-739.221 694.616,-745.928"/>
</g>
<!-- Node9 -->
<g id="node9" class="node"><title>Node9</title>
<g id="a_node9"><a xlink:href="$AP__Math_8cpp.html#afe3990b00e9abc43fa97dfaf8e32f5c4" xlink:title="constrain_value\&lt; double \&gt;">
<polygon fill="white" stroke="black" points="675,-707.5 675,-726.5 806,-726.5 806,-707.5 675,-707.5"/>
<text text-anchor="middle" x="740.5" y="-714.5" font-family="Helvetica,sans-Serif" font-size="10.00">constrain_value&lt; double &gt;</text>
</a>
</g>
</g>
<!-- Node5&#45;&gt;Node9 -->
<g id="edge8" class="edge"><title>Node5&#45;&gt;Node9</title>
<path fill="none" stroke="midnightblue" d="M617.308,-702.844C631.769,-704.519 648.445,-706.451 664.737,-708.338"/>
<polygon fill="midnightblue" stroke="midnightblue" points="664.472,-711.831 674.808,-709.505 665.277,-704.878 664.472,-711.831"/>
</g>
<!-- Node11 -->
<g id="node11" class="node"><title>Node11</title>
<g id="a_node11"><a xlink:href="$classAP__AHRS.html#a13ab26b0126885606c1d596072f8af04" xlink:title="AP_AHRS::get_gyro_latest">
<polygon fill="white" stroke="black" points="336.5,-72.5 336.5,-91.5 473.5,-91.5 473.5,-72.5 336.5,-72.5"/>
<text text-anchor="middle" x="405" y="-79.5" font-family="Helvetica,sans-Serif" font-size="10.00">AP_AHRS::get_gyro_latest</text>
</a>
</g>
</g>
<!-- Node10&#45;&gt;Node11 -->
<g id="edge10" class="edge"><title>Node10&#45;&gt;Node11</title>
<path fill="none" stroke="midnightblue" d="M287.471,-235.949C292.093,-233.173 296.373,-229.888 300,-226 339.435,-183.723 294.957,-141.718 336,-101 337.468,-99.5432 339.039,-98.1959 340.691,-96.9499"/>
<polygon fill="midnightblue" stroke="midnightblue" points="342.845,-99.735 349.545,-91.5278 339.189,-93.7655 342.845,-99.735"/>
</g>
<!-- Node17 -->
<g id="node17" class="node"><title>Node17</title>
<g id="a_node17"><a xlink:href="$classVector3.html#a53d5701ae2db9492944550927279b7b8" xlink:title="Vector3::rotate">
<polygon fill="white" stroke="black" points="364.5,-110.5 364.5,-129.5 445.5,-129.5 445.5,-110.5 364.5,-110.5"/>
<text text-anchor="middle" x="405" y="-117.5" font-family="Helvetica,sans-Serif" font-size="10.00">Vector3::rotate</text>
</a>
</g>
</g>
<!-- Node10&#45;&gt;Node17 -->
<g id="edge16" class="edge"><title>Node10&#45;&gt;Node17</title>
<path fill="none" stroke="midnightblue" d="M286.351,-235.892C291.316,-233.122 295.979,-229.854 300,-226 330.21,-197.044 304.691,-166.764 336,-139 341.299,-134.301 347.67,-130.755 354.36,-128.081"/>
<polygon fill="midnightblue" stroke="midnightblue" points="355.928,-131.247 364.3,-124.755 353.707,-124.609 355.928,-131.247"/>
</g>
<!-- Node12 -->
<g id="node12" class="node"><title>Node12</title>
<g id="a_node12"><a xlink:href="$classAP__AHRS.html#adf9f5cf9e3df1b4318252d07e2817993" xlink:title="AP_AHRS::get_primary\l_gyro_index">
<polygon fill="white" stroke="black" points="514,-127 514,-157 635,-157 635,-127 514,-127"/>
<text text-anchor="start" x="522" y="-145" font-family="Helvetica,sans-Serif" font-size="10.00">AP_AHRS::get_primary</text>
<text text-anchor="middle" x="574.5" y="-134" font-family="Helvetica,sans-Serif" font-size="10.00">_gyro_index</text>
</a>
</g>
</g>
<!-- Node11&#45;&gt;Node12 -->
<g id="edge11" class="edge"><title>Node11&#45;&gt;Node12</title>
<path fill="none" stroke="midnightblue" d="M444.075,-91.5848C453.913,-94.3479 464.427,-97.5559 474,-101 490.475,-106.927 493.85,-110.236 510,-117 514.795,-119.008 519.811,-121.062 524.832,-123.088"/>
<polygon fill="midnightblue" stroke="midnightblue" points="523.853,-126.466 534.438,-126.928 526.451,-119.966 523.853,-126.466"/>
</g>
<!-- Node14 -->
<g id="node14" class="node"><title>Node14</title>
<g id="a_node14"><a xlink:href="$classAP__AHRS.html#a14398c5d2ae68bbe1c67482a91909ad9" xlink:title="AP_AHRS::get_ins">
<polygon fill="white" stroke="black" points="524,-88.5 524,-107.5 625,-107.5 625,-88.5 524,-88.5"/>
<text text-anchor="middle" x="574.5" y="-95.5" font-family="Helvetica,sans-Serif" font-size="10.00">AP_AHRS::get_ins</text>
</a>
</g>
</g>
<!-- Node11&#45;&gt;Node14 -->
<g id="edge13" class="edge"><title>Node11&#45;&gt;Node14</title>
<path fill="none" stroke="midnightblue" d="M473.646,-88.4617C486.9,-89.7278 500.713,-91.0472 513.689,-92.2867"/>
<polygon fill="midnightblue" stroke="midnightblue" points="513.602,-95.7943 523.89,-93.2611 514.268,-88.826 513.602,-95.7943"/>
</g>
<!-- Node15 -->
<g id="node15" class="node"><title>Node15</title>
<g id="a_node15"><a xlink:href="$classAP__InertialSensor.html#a6df2d8ad956d4f375bdee541102f16af" xlink:title="AP_InertialSensor::\lget_gyro">
<polygon fill="white" stroke="black" points="524,-39 524,-69 625,-69 625,-39 524,-39"/>
<text text-anchor="start" x="532" y="-57" font-family="Helvetica,sans-Serif" font-size="10.00">AP_InertialSensor::</text>
<text text-anchor="middle" x="574.5" y="-46" font-family="Helvetica,sans-Serif" font-size="10.00">get_gyro</text>
</a>
</g>
</g>
<!-- Node11&#45;&gt;Node15 -->
<g id="edge14" class="edge"><title>Node11&#45;&gt;Node15</title>
<path fill="none" stroke="midnightblue" d="M463.176,-72.4423C479.5,-69.7134 497.327,-66.7333 513.799,-63.9799"/>
<polygon fill="midnightblue" stroke="midnightblue" points="514.568,-67.4 523.854,-62.2991 513.413,-60.4958 514.568,-67.4"/>
</g>
<!-- Node16 -->
<g id="node16" class="node"><title>Node16</title>
<g id="a_node16"><a xlink:href="$classAP__AHRS.html#a6876435645c1049077f33f225ab828f7" xlink:title="AP_AHRS::get_gyro_drift">
<polygon fill="white" stroke="black" points="510,-0.5 510,-19.5 639,-19.5 639,-0.5 510,-0.5"/>
<text text-anchor="middle" x="574.5" y="-7.5" font-family="Helvetica,sans-Serif" font-size="10.00">AP_AHRS::get_gyro_drift</text>
</a>
</g>
</g>
<!-- Node11&#45;&gt;Node16 -->
<g id="edge15" class="edge"><title>Node11&#45;&gt;Node16</title>
<path fill="none" stroke="midnightblue" d="M422.498,-72.4122C442.652,-60.9793 478.02,-41.8111 510,-29 515.611,-26.7521 521.594,-24.6267 527.558,-22.6682"/>
<polygon fill="midnightblue" stroke="midnightblue" points="529.022,-25.8768 537.511,-19.5375 526.922,-19.1994 529.022,-25.8768"/>
</g>
<!-- Node13 -->
<g id="node13" class="node"><title>Node13</title>
<g id="a_node13"><a xlink:href="$classAP__InertialSensor.html#a7fa04e2f196b27b876d86966f64e1fed" xlink:title="AP_InertialSensor::\lget_primary_gyro">
<polygon fill="white" stroke="black" points="690,-127 690,-157 791,-157 791,-127 690,-127"/>
<text text-anchor="start" x="698" y="-145" font-family="Helvetica,sans-Serif" font-size="10.00">AP_InertialSensor::</text>
<text text-anchor="middle" x="740.5" y="-134" font-family="Helvetica,sans-Serif" font-size="10.00">get_primary_gyro</text>
</a>
</g>
</g>
<!-- Node12&#45;&gt;Node13 -->
<g id="edge12" class="edge"><title>Node12&#45;&gt;Node13</title>
<path fill="none" stroke="midnightblue" d="M635.172,-142C649.616,-142 665.062,-142 679.521,-142"/>
<polygon fill="midnightblue" stroke="midnightblue" points="679.846,-145.5 689.846,-142 679.846,-138.5 679.846,-145.5"/>
</g>
<!-- Node19&#45;&gt;Node4 -->
<g id="edge30" class="edge"><title>Node19&#45;&gt;Node4</title>
<path fill="none" stroke="midnightblue" d="M287.988,-518.079C292.446,-520.847 296.549,-524.123 300,-528 345.877,-579.528 288.161,-629.287 336,-679 341.259,-684.465 347.948,-688.398 355.069,-691.221"/>
<polygon fill="midnightblue" stroke="midnightblue" points="354.361,-694.671 364.953,-694.421 356.518,-688.011 354.361,-694.671"/>
</g>
<!-- Node20 -->
<g id="node20" class="node"><title>Node20</title>
<g id="a_node20"><a xlink:href="$classAC__AttitudeControl.html#ad300b51e0777495496adddd1770ee920" xlink:title="AC_AttitudeControl\l::get_rate_roll_pid">
<polygon fill="white" stroke="black" points="354.5,-285 354.5,-315 455.5,-315 455.5,-285 354.5,-285"/>
<text text-anchor="start" x="362.5" y="-303" font-family="Helvetica,sans-Serif" font-size="10.00">AC_AttitudeControl</text>
<text text-anchor="middle" x="405" y="-292" font-family="Helvetica,sans-Serif" font-size="10.00">::get_rate_roll_pid</text>
</a>
</g>
</g>
<!-- Node19&#45;&gt;Node20 -->
<g id="edge19" class="edge"><title>Node19&#45;&gt;Node20</title>
<path fill="none" stroke="midnightblue" d="M289.282,-487.975C293.239,-485.437 296.885,-482.469 300,-479 346.964,-426.703 289.438,-377.655 336,-325 338.812,-321.82 342.065,-319.044 345.593,-316.62"/>
<polygon fill="midnightblue" stroke="midnightblue" points="347.366,-319.638 354.247,-311.582 343.844,-313.589 347.366,-319.638"/>
</g>
<!-- Node21 -->
<g id="node21" class="node"><title>Node21</title>
<g id="a_node21"><a xlink:href="$classAC__PID.html#a0217a1314e284babe6fe0d3e3cf92601" xlink:title="AC_PID::set_input_filter_d">
<polygon fill="white" stroke="black" points="338,-334.5 338,-353.5 472,-353.5 472,-334.5 338,-334.5"/>
<text text-anchor="middle" x="405" y="-341.5" font-family="Helvetica,sans-Serif" font-size="10.00">AC_PID::set_input_filter_d</text>
</a>
</g>
</g>
<!-- Node19&#45;&gt;Node21 -->
<g id="edge20" class="edge"><title>Node19&#45;&gt;Node21</title>
<path fill="none" stroke="midnightblue" d="M288.688,-487.927C292.829,-485.399 296.676,-482.446 300,-479 337.476,-440.147 297.29,-400.624 336,-363 337.483,-361.558 339.067,-360.224 340.73,-358.99"/>
<polygon fill="midnightblue" stroke="midnightblue" points="342.88,-361.78 349.626,-353.61 339.258,-355.79 342.88,-361.78"/>
</g>
<!-- Node24 -->
<g id="node24" class="node"><title>Node24</title>
<g id="a_node24"><a xlink:href="$classAC__PID.html#a3f727ab395b401474027b6b9efcab5a3" xlink:title="AC_PID::set_desired_rate">
<polygon fill="white" stroke="black" points="339.5,-460.5 339.5,-479.5 470.5,-479.5 470.5,-460.5 339.5,-460.5"/>
<text text-anchor="middle" x="405" y="-467.5" font-family="Helvetica,sans-Serif" font-size="10.00">AC_PID::set_desired_rate</text>
</a>
</g>
</g>
<!-- Node19&#45;&gt;Node24 -->
<g id="edge23" class="edge"><title>Node19&#45;&gt;Node24</title>
<path fill="none" stroke="midnightblue" d="M296.223,-490.618C311.986,-487.603 328.774,-484.391 344.292,-481.422"/>
<polygon fill="midnightblue" stroke="midnightblue" points="345.118,-484.828 354.282,-479.511 343.803,-477.953 345.118,-484.828"/>
</g>
<!-- Node25 -->
<g id="node25" class="node"><title>Node25</title>
<g id="a_node25"><a xlink:href="$classAC__PID.html#a0fc275cae5ff46799af85af551c65870" xlink:title="AC_PID::get_integrator">
<polygon fill="white" stroke="black" points="345.5,-422.5 345.5,-441.5 464.5,-441.5 464.5,-422.5 345.5,-422.5"/>
<text text-anchor="middle" x="405" y="-429.5" font-family="Helvetica,sans-Serif" font-size="10.00">AC_PID::get_integrator</text>
</a>
</g>
</g>
<!-- Node19&#45;&gt;Node25 -->
<g id="edge24" class="edge"><title>Node19&#45;&gt;Node25</title>
<path fill="none" stroke="midnightblue" d="M280.619,-487.981C287.282,-485.316 293.915,-482.317 300,-479 317.798,-469.3 317.898,-460.121 336,-451 340.603,-448.681 345.528,-446.611 350.545,-444.771"/>
<polygon fill="midnightblue" stroke="midnightblue" points="351.883,-448.014 360.248,-441.511 349.654,-441.378 351.883,-448.014"/>
</g>
<!-- Node26 -->
<g id="node26" class="node"><title>Node26</title>
<g id="a_node26"><a xlink:href="$classAC__PID.html#a2d5bf9811a78c93a396ec1e37ae6fa0a" xlink:title="AC_PID::get_i">
<polygon fill="white" stroke="black" points="365,-574.5 365,-593.5 445,-593.5 445,-574.5 365,-574.5"/>
<text text-anchor="middle" x="405" y="-581.5" font-family="Helvetica,sans-Serif" font-size="10.00">AC_PID::get_i</text>
</a>
</g>
</g>
<!-- Node19&#45;&gt;Node26 -->
<g id="edge25" class="edge"><title>Node19&#45;&gt;Node26</title>
<path fill="none" stroke="midnightblue" d="M281.063,-518.036C287.66,-520.904 294.155,-524.216 300,-528 319.26,-540.468 316.271,-553.287 336,-565 341.878,-568.49 348.421,-571.361 355.062,-573.717"/>
<polygon fill="midnightblue" stroke="midnightblue" points="354.204,-577.116 364.794,-576.812 356.326,-570.446 354.204,-577.116"/>
</g>
<!-- Node27 -->
<g id="node27" class="node"><title>Node27</title>
<g id="a_node27"><a xlink:href="$classAC__PID.html#a4808bb2656a1e8d94c713e58a7a2a222" xlink:title="AC_PID::get_p">
<polygon fill="white" stroke="black" points="363.5,-612.5 363.5,-631.5 446.5,-631.5 446.5,-612.5 363.5,-612.5"/>
<text text-anchor="middle" x="405" y="-619.5" font-family="Helvetica,sans-Serif" font-size="10.00">AC_PID::get_p</text>
</a>
</g>
</g>
<!-- Node19&#45;&gt;Node27 -->
<g id="edge27" class="edge"><title>Node19&#45;&gt;Node27</title>
<path fill="none" stroke="midnightblue" d="M285.794,-518.155C290.927,-520.919 295.78,-524.173 300,-528 327.389,-552.839 307.67,-579.241 336,-603 341.238,-607.392 347.42,-610.773 353.887,-613.374"/>
<polygon fill="midnightblue" stroke="midnightblue" points="352.894,-616.733 363.489,-616.653 355.157,-610.109 352.894,-616.733"/>
</g>
<!-- Node28 -->
<g id="node28" class="node"><title>Node28</title>
<g id="a_node28"><a xlink:href="$classAC__PID.html#ad0c0510049ea37401920792e843bec86" xlink:title="AC_PID::get_d">
<polygon fill="white" stroke="black" points="363.5,-536.5 363.5,-555.5 446.5,-555.5 446.5,-536.5 363.5,-536.5"/>
<text text-anchor="middle" x="405" y="-543.5" font-family="Helvetica,sans-Serif" font-size="10.00">AC_PID::get_d</text>
</a>
</g>
</g>
<!-- Node19&#45;&gt;Node28 -->
<g id="edge28" class="edge"><title>Node19&#45;&gt;Node28</title>
<path fill="none" stroke="midnightblue" d="M291.832,-518.039C312.86,-523.281 336.154,-529.088 356.04,-534.045"/>
<polygon fill="midnightblue" stroke="midnightblue" points="355.251,-537.455 365.8,-536.478 356.944,-530.663 355.251,-537.455"/>
</g>
<!-- Node29 -->
<g id="node29" class="node"><title>Node29</title>
<g id="a_node29"><a xlink:href="$classAC__PID.html#af8b4c040c43a28fbe025de765f38e90d" xlink:title="AC_PID::get_ff">
<polygon fill="white" stroke="black" points="363,-498.5 363,-517.5 447,-517.5 447,-498.5 363,-498.5"/>
<text text-anchor="middle" x="405" y="-505.5" font-family="Helvetica,sans-Serif" font-size="10.00">AC_PID::get_ff</text>
</a>
</g>
</g>
<!-- Node19&#45;&gt;Node29 -->
<g id="edge29" class="edge"><title>Node19&#45;&gt;Node29</title>
<path fill="none" stroke="midnightblue" d="M296.223,-504.876C314.924,-505.418 335.067,-506.002 352.82,-506.517"/>
<polygon fill="midnightblue" stroke="midnightblue" points="352.871,-510.019 362.968,-506.811 353.073,-503.022 352.871,-510.019"/>
</g>
<!-- Node22 -->
<g id="node22" class="node"><title>Node22</title>
<g id="a_node22"><a xlink:href="$classAC__PID.html#ac12ffbd4fd053c6152d403b69e07b8e1" xlink:title="AC_PID::get_filt_alpha">
<polygon fill="white" stroke="black" points="516,-536.5 516,-555.5 633,-555.5 633,-536.5 516,-536.5"/>
<text text-anchor="middle" x="574.5" y="-543.5" font-family="Helvetica,sans-Serif" font-size="10.00">AC_PID::get_filt_alpha</text>
</a>
</g>
</g>
<!-- Node21&#45;&gt;Node22 -->
<g id="edge21" class="edge"><title>Node21&#45;&gt;Node22</title>
<path fill="none" stroke="midnightblue" d="M457.572,-353.545C463.47,-356.008 469.11,-359.105 474,-363 528.837,-406.68 557.681,-489.149 568.452,-526.61"/>
<polygon fill="midnightblue" stroke="midnightblue" points="565.093,-527.595 571.121,-536.307 571.842,-525.737 565.093,-527.595"/>
</g>
<!-- Node23 -->
<g id="node23" class="node"><title>Node23</title>
<g id="a_node23"><a xlink:href="$AP__Math_8h.html#a2a12cce483e9b870da70d30406d82c60" xlink:title="is_zero">
<polygon fill="white" stroke="black" points="716.5,-555.5 716.5,-574.5 764.5,-574.5 764.5,-555.5 716.5,-555.5"/>
<text text-anchor="middle" x="740.5" y="-562.5" font-family="Helvetica,sans-Serif" font-size="10.00">is_zero</text>
</a>
</g>
</g>
<!-- Node22&#45;&gt;Node23 -->
<g id="edge22" class="edge"><title>Node22&#45;&gt;Node23</title>
<path fill="none" stroke="midnightblue" d="M633.32,-552.699C657.777,-555.532 685.384,-558.73 706.318,-561.156"/>
<polygon fill="midnightblue" stroke="midnightblue" points="705.972,-564.639 716.309,-562.313 706.778,-557.686 705.972,-564.639"/>
</g>
<!-- Node26&#45;&gt;Node23 -->
<g id="edge26" class="edge"><title>Node26&#45;&gt;Node23</title>
<path fill="none" stroke="midnightblue" d="M445.237,-581.765C511.484,-577.99 644.332,-570.422 706.278,-566.893"/>
<polygon fill="midnightblue" stroke="midnightblue" points="706.506,-570.386 716.29,-566.322 706.108,-563.397 706.506,-570.386"/>
</g>
<!-- Node31&#45;&gt;Node4 -->
<g id="edge41" class="edge"><title>Node31&#45;&gt;Node4</title>
<path fill="none" stroke="midnightblue" d="M288.543,-469.084C292.826,-471.851 296.74,-475.125 300,-479 358.148,-548.109 275.219,-612.195 336,-679 341.104,-684.61 347.713,-688.618 354.802,-691.471"/>
<polygon fill="midnightblue" stroke="midnightblue" points="354.077,-694.916 364.669,-694.687 356.246,-688.26 354.077,-694.916"/>
</g>
<!-- Node31&#45;&gt;Node21 -->
<g id="edge34" class="edge"><title>Node31&#45;&gt;Node21</title>
<path fill="none" stroke="midnightblue" d="M244.818,-438.781C263.314,-418.57 298.731,-383.093 336,-363 340.228,-360.72 344.755,-358.694 349.391,-356.895"/>
<polygon fill="midnightblue" stroke="midnightblue" points="350.724,-360.137 358.997,-353.518 348.402,-353.533 350.724,-360.137"/>
</g>
<!-- Node31&#45;&gt;Node24 -->
<g id="edge35" class="edge"><title>Node31&#45;&gt;Node24</title>
<path fill="none" stroke="midnightblue" d="M300.172,-460.37C309.795,-461.262 319.723,-462.183 329.449,-463.085"/>
<polygon fill="midnightblue" stroke="midnightblue" points="329.209,-466.578 339.489,-464.016 329.855,-459.608 329.209,-466.578"/>
</g>
<!-- Node31&#45;&gt;Node25 -->
<g id="edge36" class="edge"><title>Node31&#45;&gt;Node25</title>
<path fill="none" stroke="midnightblue" d="M300.172,-445.242C311.726,-443.768 323.72,-442.239 335.276,-440.765"/>
<polygon fill="midnightblue" stroke="midnightblue" points="335.819,-444.224 345.296,-439.487 334.933,-437.28 335.819,-444.224"/>
</g>
<!-- Node31&#45;&gt;Node26 -->
<g id="edge37" class="edge"><title>Node31&#45;&gt;Node26</title>
<path fill="none" stroke="midnightblue" d="M286.335,-469.125C291.303,-471.891 295.971,-475.154 300,-479 329.973,-507.611 304.942,-537.572 336,-565 341.495,-569.853 348.135,-573.476 355.084,-576.178"/>
<polygon fill="midnightblue" stroke="midnightblue" points="354.081,-579.532 364.673,-579.321 356.261,-572.88 354.081,-579.532"/>
</g>
<!-- Node31&#45;&gt;Node27 -->
<g id="edge38" class="edge"><title>Node31&#45;&gt;Node27</title>
<path fill="none" stroke="midnightblue" d="M287.462,-469.059C292.086,-471.833 296.369,-475.116 300,-479 339.189,-520.922 295.217,-562.627 336,-603 340.975,-607.925 347.114,-611.598 353.651,-614.333"/>
<polygon fill="midnightblue" stroke="midnightblue" points="352.828,-617.751 363.423,-617.705 355.112,-611.134 352.828,-617.751"/>
</g>
<!-- Node31&#45;&gt;Node28 -->
<g id="edge39" class="edge"><title>Node31&#45;&gt;Node28</title>
<path fill="none" stroke="midnightblue" d="M282.955,-469.015C288.979,-471.844 294.816,-475.151 300,-479 321.411,-494.896 313.989,-511.946 336,-527 341.312,-530.633 347.305,-533.575 353.476,-535.957"/>
<polygon fill="midnightblue" stroke="midnightblue" points="352.654,-539.373 363.249,-539.257 354.894,-532.741 352.654,-539.373"/>
</g>
<!-- Node31&#45;&gt;Node29 -->
<g id="edge40" class="edge"><title>Node31&#45;&gt;Node29</title>
<path fill="none" stroke="midnightblue" d="M274.812,-469.054C293.556,-475.427 315.789,-482.796 336,-489 343.333,-491.251 351.144,-493.537 358.762,-495.706"/>
<polygon fill="midnightblue" stroke="midnightblue" points="358.033,-499.137 368.607,-498.477 359.93,-492.399 358.033,-499.137"/>
</g>
<!-- Node32 -->
<g id="node32" class="node"><title>Node32</title>
<g id="a_node32"><a xlink:href="$classAC__AttitudeControl.html#a9e10a37d28eeb3d6476ec087b3bac3df" xlink:title="AC_AttitudeControl\l::get_rate_pitch_pid">
<polygon fill="white" stroke="black" points="354,-236 354,-266 456,-266 456,-236 354,-236"/>
<text text-anchor="start" x="362" y="-254" font-family="Helvetica,sans-Serif" font-size="10.00">AC_AttitudeControl</text>
<text text-anchor="middle" x="405" y="-243" font-family="Helvetica,sans-Serif" font-size="10.00">::get_rate_pitch_pid</text>
</a>
</g>
</g>
<!-- Node31&#45;&gt;Node32 -->
<g id="edge33" class="edge"><title>Node31&#45;&gt;Node32</title>
<path fill="none" stroke="midnightblue" d="M239.623,-438.738C261.606,-397.639 321.578,-286.923 336,-275 338.736,-272.738 341.701,-270.682 344.81,-268.815"/>
<polygon fill="midnightblue" stroke="midnightblue" points="346.664,-271.794 353.882,-264.039 343.403,-265.6 346.664,-271.794"/>
</g>
<!-- Node34&#45;&gt;Node4 -->
<g id="edge53" class="edge"><title>Node34&#45;&gt;Node4</title>
<path fill="none" stroke="midnightblue" d="M239.692,-567.067C254.998,-593.775 290.543,-649.388 336,-679 341.797,-682.776 348.342,-685.811 355.025,-688.247"/>
<polygon fill="midnightblue" stroke="midnightblue" points="354.252,-691.675 364.843,-691.406 356.395,-685.011 354.252,-691.675"/>
</g>
<!-- Node34&#45;&gt;Node24 -->
<g id="edge47" class="edge"><title>Node34&#45;&gt;Node24</title>
<path fill="none" stroke="midnightblue" d="M283.309,-536.951C289.144,-534.361 294.839,-531.39 300,-528 319.716,-515.049 315.876,-501.308 336,-489 339.431,-486.901 343.1,-485.029 346.889,-483.358"/>
<polygon fill="midnightblue" stroke="midnightblue" points="348.447,-486.508 356.488,-479.61 345.9,-479.987 348.447,-486.508"/>
</g>
<!-- Node34&#45;&gt;Node25 -->
<g id="edge48" class="edge"><title>Node34&#45;&gt;Node25</title>
<path fill="none" stroke="midnightblue" d="M287.183,-536.983C291.807,-534.436 296.168,-531.465 300,-528 328.019,-502.66 307.178,-475.423 336,-451 338.005,-449.301 340.151,-447.754 342.4,-446.344"/>
<polygon fill="midnightblue" stroke="midnightblue" points="344.281,-449.309 351.508,-441.562 341.027,-443.112 344.281,-449.309"/>
</g>
<!-- Node34&#45;&gt;Node26 -->
<g id="edge49" class="edge"><title>Node34&#45;&gt;Node26</title>
<path fill="none" stroke="midnightblue" d="M298.687,-564.464C317.35,-567.926 337.266,-571.62 354.699,-574.854"/>
<polygon fill="midnightblue" stroke="midnightblue" points="354.177,-578.317 364.648,-576.7 355.454,-571.435 354.177,-578.317"/>
</g>
<!-- Node34&#45;&gt;Node27 -->
<g id="edge50" class="edge"><title>Node34&#45;&gt;Node27</title>
<path fill="none" stroke="midnightblue" d="M258.834,-567.043C279.571,-578.031 309.015,-592.743 336,-603 342.236,-605.37 348.893,-607.591 355.511,-609.62"/>
<polygon fill="midnightblue" stroke="midnightblue" points="354.545,-612.984 365.126,-612.448 356.52,-606.268 354.545,-612.984"/>
</g>
<!-- Node34&#45;&gt;Node28 -->
<g id="edge51" class="edge"><title>Node34&#45;&gt;Node28</title>
<path fill="none" stroke="midnightblue" d="M298.687,-549.663C316.784,-549.034 336.059,-548.363 353.106,-547.77"/>
<polygon fill="midnightblue" stroke="midnightblue" points="353.529,-551.258 363.401,-547.412 353.286,-544.262 353.529,-551.258"/>
</g>
<!-- Node34&#45;&gt;Node29 -->
<g id="edge52" class="edge"><title>Node34&#45;&gt;Node29</title>
<path fill="none" stroke="midnightblue" d="M290.382,-536.981C312.106,-531.44 336.414,-525.239 356.954,-520"/>
<polygon fill="midnightblue" stroke="midnightblue" points="357.882,-523.375 366.707,-517.512 356.152,-516.593 357.882,-523.375"/>
</g>
<!-- Node35 -->
<g id="node35" class="node"><title>Node35</title>
<g id="a_node35"><a xlink:href="$classAC__AttitudeControl.html#a9e430ac947e0924fdc83280a4ed552bf" xlink:title="AC_AttitudeControl\l::get_rate_yaw_pid">
<polygon fill="white" stroke="black" points="354.5,-373 354.5,-403 455.5,-403 455.5,-373 354.5,-373"/>
<text text-anchor="start" x="362.5" y="-391" font-family="Helvetica,sans-Serif" font-size="10.00">AC_AttitudeControl</text>
<text text-anchor="middle" x="405" y="-380" font-family="Helvetica,sans-Serif" font-size="10.00">::get_rate_yaw_pid</text>
</a>
</g>
</g>
<!-- Node34&#45;&gt;Node35 -->
<g id="edge44" class="edge"><title>Node34&#45;&gt;Node35</title>
<path fill="none" stroke="midnightblue" d="M288.679,-536.918C292.822,-534.392 296.671,-531.442 300,-528 337.229,-489.498 299.067,-451.786 336,-413 338.799,-410.061 341.972,-407.466 345.381,-405.174"/>
<polygon fill="midnightblue" stroke="midnightblue" points="347.329,-408.092 354.262,-400.081 343.846,-402.02 347.329,-408.092"/>
</g>
<!-- Node36 -->
<g id="node36" class="node"><title>Node36</title>
<g id="a_node36"><a xlink:href="$classAC__PID.html#ac267330f1299f011febcaaba47994af7" xlink:title="AC_PID::set_input_filter_all">
<polygon fill="white" stroke="black" points="336,-650.5 336,-669.5 474,-669.5 474,-650.5 336,-650.5"/>
<text text-anchor="middle" x="405" y="-657.5" font-family="Helvetica,sans-Serif" font-size="10.00">AC_PID::set_input_filter_all</text>
</a>
</g>
</g>
<!-- Node34&#45;&gt;Node36 -->
<g id="edge45" class="edge"><title>Node34&#45;&gt;Node36</title>
<path fill="none" stroke="midnightblue" d="M245.208,-567.209C263.869,-587.014 299.184,-621.411 336,-641 340.241,-643.256 344.776,-645.267 349.418,-647.054"/>
<polygon fill="midnightblue" stroke="midnightblue" points="348.436,-650.419 359.031,-650.417 350.748,-643.812 348.436,-650.419"/>
</g>
<!-- Node36&#45;&gt;Node22 -->
<g id="edge46" class="edge"><title>Node36&#45;&gt;Node22</title>
<path fill="none" stroke="midnightblue" d="M452.228,-650.398C459.762,-647.91 467.288,-644.819 474,-641 509.576,-620.755 542.113,-585.038 559.735,-563.639"/>
<polygon fill="midnightblue" stroke="midnightblue" points="562.593,-565.671 566.139,-555.688 557.141,-561.281 562.593,-565.671"/>
</g>
<!-- Node37&#45;&gt;Node20 -->
<g id="edge55" class="edge"><title>Node37&#45;&gt;Node20</title>
<path fill="none" stroke="midnightblue" d="M292.803,-300C309.483,-300 327.526,-300 344.126,-300"/>
<polygon fill="midnightblue" stroke="midnightblue" points="344.251,-303.5 354.251,-300 344.25,-296.5 344.251,-303.5"/>
</g>
<!-- Node37&#45;&gt;Node32 -->
<g id="edge59" class="edge"><title>Node37&#45;&gt;Node32</title>
<path fill="none" stroke="midnightblue" d="M284.663,-284.899C303.548,-279.534 324.927,-273.461 344.321,-267.952"/>
<polygon fill="midnightblue" stroke="midnightblue" points="345.295,-271.314 353.958,-265.215 343.383,-264.58 345.295,-271.314"/>
</g>
<!-- Node37&#45;&gt;Node35 -->
<g id="edge60" class="edge"><title>Node37&#45;&gt;Node35</title>
<path fill="none" stroke="midnightblue" d="M253.639,-315.047C274.332,-328.695 306.396,-348.794 336,-363 340.377,-365.1 344.979,-367.135 349.64,-369.077"/>
<polygon fill="midnightblue" stroke="midnightblue" points="348.65,-372.451 359.235,-372.924 351.255,-365.954 348.65,-372.451"/>
</g>
<!-- Node38 -->
<g id="node38" class="node"><title>Node38</title>
<g id="a_node38"><a xlink:href="$classAC__PID.html#aac49c9e75c7bea524fab440e27c6a0fa" xlink:title="AC_PID::get_pid_info">
<polygon fill="white" stroke="black" points="349,-148.5 349,-167.5 461,-167.5 461,-148.5 349,-148.5"/>
<text text-anchor="middle" x="405" y="-155.5" font-family="Helvetica,sans-Serif" font-size="10.00">AC_PID::get_pid_info</text>
</a>
</g>
</g>
<!-- Node37&#45;&gt;Node38 -->
<g id="edge56" class="edge"><title>Node37&#45;&gt;Node38</title>
<path fill="none" stroke="midnightblue" d="M286.849,-284.865C291.655,-282.104 296.147,-278.845 300,-275 332.845,-242.224 301.91,-208.48 336,-177 337.683,-175.446 339.482,-174.018 341.373,-172.705"/>
<polygon fill="midnightblue" stroke="midnightblue" points="343.232,-175.673 350.16,-167.658 339.746,-169.603 343.232,-175.673"/>
</g>
<!-- Node39 -->
<g id="node39" class="node"><title>Node39</title>
<g id="a_node39"><a xlink:href="$classAC__AttitudeControl.html#a9f960478035a8b88322dc90f32b60056" xlink:title="AC_AttitudeControl\l::control_monitor_filter_pid">
<polygon fill="white" stroke="black" points="339.5,-187 339.5,-217 470.5,-217 470.5,-187 339.5,-187"/>
<text text-anchor="start" x="347.5" y="-205" font-family="Helvetica,sans-Serif" font-size="10.00">AC_AttitudeControl</text>
<text text-anchor="middle" x="405" y="-194" font-family="Helvetica,sans-Serif" font-size="10.00">::control_monitor_filter_pid</text>
</a>
</g>
</g>
<!-- Node37&#45;&gt;Node39 -->
<g id="edge57" class="edge"><title>Node37&#45;&gt;Node39</title>
<path fill="none" stroke="midnightblue" d="M283.345,-284.867C289.238,-282.066 294.936,-278.798 300,-275 321.618,-258.785 314.296,-242.1 336,-226 337.879,-224.606 339.846,-223.288 341.878,-222.042"/>
<polygon fill="midnightblue" stroke="midnightblue" points="344.009,-224.868 351.135,-217.028 340.675,-218.713 344.009,-224.868"/>
</g>
<!-- Node40 -->
<g id="node40" class="node"><title>Node40</title>
<g id="a_node40"><a xlink:href="$AP__Math_8h.html#a0375e3d67fd3911cacee5c3e1408c0f2" xlink:title="sq">
<polygon fill="white" stroke="black" points="560,-192.5 560,-211.5 589,-211.5 589,-192.5 560,-192.5"/>
<text text-anchor="middle" x="574.5" y="-199.5" font-family="Helvetica,sans-Serif" font-size="10.00">sq</text>
</a>
</g>
</g>
<!-- Node39&#45;&gt;Node40 -->
<g id="edge58" class="edge"><title>Node39&#45;&gt;Node40</title>
<path fill="none" stroke="midnightblue" d="M470.76,-202C498.54,-202 529.263,-202 549.81,-202"/>
<polygon fill="midnightblue" stroke="midnightblue" points="549.826,-205.5 559.826,-202 549.826,-198.5 549.826,-205.5"/>
</g>
</g>
</svg>
