<?xml version="1.0" encoding="UTF-8" standalone="no"?>
<!DOCTYPE svg PUBLIC "-//W3C//DTD SVG 1.1//EN"
 "http://www.w3.org/Graphics/SVG/1.1/DTD/svg11.dtd">
<!-- Generated by graphviz version 2.38.0 (20140413.2041)
 -->
<!-- Title: AC_AttitudeControl::max_rate_step_bf_roll Pages: 1 -->
<svg width="367pt" height="204pt"
 viewBox="0.00 0.00 367.00 203.50" xmlns="http://www.w3.org/2000/svg" xmlns:xlink="http://www.w3.org/1999/xlink">
<g id="graph0" class="graph" transform="scale(1 1) rotate(0) translate(4 199.5)">
<title>AC_AttitudeControl::max_rate_step_bf_roll</title>
<polygon fill="white" stroke="none" points="-4,4 -4,-199.5 363,-199.5 363,4 -4,4"/>
<!-- Node1 -->
<g id="node1" class="node"><title>Node1</title>
<polygon fill="#bfbfbf" stroke="black" points="0,-77 0,-107 119,-107 119,-77 0,-77"/>
<text text-anchor="start" x="8" y="-95" font-family="Helvetica,sans-Serif" font-size="10.00">AC_AttitudeControl</text>
<text text-anchor="middle" x="59.5" y="-84" font-family="Helvetica,sans-Serif" font-size="10.00">::max_rate_step_bf_roll</text>
</g>
<!-- Node2 -->
<g id="node2" class="node"><title>Node2</title>
<g id="a_node2"><a xlink:href="$classAC__AttitudeControl.html#ad300b51e0777495496adddd1770ee920" xlink:title="AC_AttitudeControl\l::get_rate_roll_pid">
<polygon fill="white" stroke="black" points="164.5,-165 164.5,-195 265.5,-195 265.5,-165 164.5,-165"/>
<text text-anchor="start" x="172.5" y="-183" font-family="Helvetica,sans-Serif" font-size="10.00">AC_AttitudeControl</text>
<text text-anchor="middle" x="215" y="-172" font-family="Helvetica,sans-Serif" font-size="10.00">::get_rate_roll_pid</text>
</a>
</g>
</g>
<!-- Node1&#45;&gt;Node2 -->
<g id="edge1" class="edge"><title>Node1&#45;&gt;Node2</title>
<path fill="none" stroke="midnightblue" d="M80.8215,-107.172C99.5026,-120.72 128.271,-140.592 155,-155 158.534,-156.905 162.245,-158.77 166.012,-160.568"/>
<polygon fill="midnightblue" stroke="midnightblue" points="164.874,-163.897 175.423,-164.886 167.793,-157.535 164.874,-163.897"/>
</g>
<!-- Node3 -->
<g id="node3" class="node"><title>Node3</title>
<g id="a_node3"><a xlink:href="$classAC__PID.html#ac12ffbd4fd053c6152d403b69e07b8e1" xlink:title="AC_PID::get_filt_alpha">
<polygon fill="white" stroke="black" points="156.5,-126.5 156.5,-145.5 273.5,-145.5 273.5,-126.5 156.5,-126.5"/>
<text text-anchor="middle" x="215" y="-133.5" font-family="Helvetica,sans-Serif" font-size="10.00">AC_PID::get_filt_alpha</text>
</a>
</g>
</g>
<!-- Node1&#45;&gt;Node3 -->
<g id="edge2" class="edge"><title>Node1&#45;&gt;Node3</title>
<path fill="none" stroke="midnightblue" d="M112.897,-107.019C131.803,-112.439 152.909,-118.489 170.926,-123.653"/>
<polygon fill="midnightblue" stroke="midnightblue" points="170.008,-127.031 180.585,-126.422 171.936,-120.302 170.008,-127.031"/>
</g>
<!-- Node5 -->
<g id="node5" class="node"><title>Node5</title>
<g id="a_node5"><a xlink:href="$classAP__Motors.html#a6641c5398dea1388547dff3db5d95a86" xlink:title="AP_Motors::get_throttle\l_hover">
<polygon fill="white" stroke="black" points="155,-77 155,-107 275,-107 275,-77 155,-77"/>
<text text-anchor="start" x="163" y="-95" font-family="Helvetica,sans-Serif" font-size="10.00">AP_Motors::get_throttle</text>
<text text-anchor="middle" x="215" y="-84" font-family="Helvetica,sans-Serif" font-size="10.00">_hover</text>
</a>
</g>
</g>
<!-- Node1&#45;&gt;Node5 -->
<g id="edge4" class="edge"><title>Node1&#45;&gt;Node5</title>
<path fill="none" stroke="midnightblue" d="M119.408,-92C127.703,-92 136.292,-92 144.758,-92"/>
<polygon fill="midnightblue" stroke="midnightblue" points="144.996,-95.5001 154.996,-92 144.996,-88.5001 144.996,-95.5001"/>
</g>
<!-- Node6 -->
<g id="node6" class="node"><title>Node6</title>
<g id="a_node6"><a xlink:href="$classAC__PID.html#a2d7be199fbc437ee472fad5a4308c668" xlink:title="AC_PID::kD">
<polygon fill="white" stroke="black" points="179,-38.5 179,-57.5 251,-57.5 251,-38.5 179,-38.5"/>
<text text-anchor="middle" x="215" y="-45.5" font-family="Helvetica,sans-Serif" font-size="10.00">AC_PID::kD</text>
</a>
</g>
</g>
<!-- Node1&#45;&gt;Node6 -->
<g id="edge5" class="edge"><title>Node1&#45;&gt;Node6</title>
<path fill="none" stroke="midnightblue" d="M112.897,-76.9808C131.803,-71.5613 152.909,-65.5114 170.926,-60.3468"/>
<polygon fill="midnightblue" stroke="midnightblue" points="171.936,-63.6983 180.585,-57.5783 170.008,-56.9693 171.936,-63.6983"/>
</g>
<!-- Node7 -->
<g id="node7" class="node"><title>Node7</title>
<g id="a_node7"><a xlink:href="$classAC__PID.html#ac29a8c72a8618d87886599204dcb5b79" xlink:title="AC_PID::kP">
<polygon fill="white" stroke="black" points="179.5,-0.5 179.5,-19.5 250.5,-19.5 250.5,-0.5 179.5,-0.5"/>
<text text-anchor="middle" x="215" y="-7.5" font-family="Helvetica,sans-Serif" font-size="10.00">AC_PID::kP</text>
</a>
</g>
</g>
<!-- Node1&#45;&gt;Node7 -->
<g id="edge6" class="edge"><title>Node1&#45;&gt;Node7</title>
<path fill="none" stroke="midnightblue" d="M79.813,-76.7929C98.2674,-62.8421 127.299,-42.3732 155,-29 159.665,-26.7477 164.662,-24.6706 169.701,-22.7825"/>
<polygon fill="midnightblue" stroke="midnightblue" points="171.092,-26.0038 179.367,-19.388 168.773,-19.3992 171.092,-26.0038"/>
</g>
<!-- Node4 -->
<g id="node4" class="node"><title>Node4</title>
<g id="a_node4"><a xlink:href="$AP__Math_8h.html#a2a12cce483e9b870da70d30406d82c60" xlink:title="is_zero">
<polygon fill="white" stroke="black" points="311,-126.5 311,-145.5 359,-145.5 359,-126.5 311,-126.5"/>
<text text-anchor="middle" x="335" y="-133.5" font-family="Helvetica,sans-Serif" font-size="10.00">is_zero</text>
</a>
</g>
</g>
<!-- Node3&#45;&gt;Node4 -->
<g id="edge3" class="edge"><title>Node3&#45;&gt;Node4</title>
<path fill="none" stroke="midnightblue" d="M273.617,-136C282.914,-136 292.256,-136 300.72,-136"/>
<polygon fill="midnightblue" stroke="midnightblue" points="300.903,-139.5 310.902,-136 300.902,-132.5 300.903,-139.5"/>
</g>
</g>
</svg>
