<?xml version="1.0" encoding="UTF-8" standalone="no"?>
<!DOCTYPE svg PUBLIC "-//W3C//DTD SVG 1.1//EN"
 "http://www.w3.org/Graphics/SVG/1.1/DTD/svg11.dtd">
<!-- Generated by graphviz version 2.38.0 (20140413.2041)
 -->
<!-- Title: AC_AttitudeControl::input_shaping_angle Pages: 1 -->
<svg width="558pt" height="541pt"
 viewBox="0.00 0.00 558.00 541.00" xmlns="http://www.w3.org/2000/svg" xmlns:xlink="http://www.w3.org/1999/xlink">
<g id="graph0" class="graph" transform="scale(1 1) rotate(0) translate(4 537)">
<title>AC_AttitudeControl::input_shaping_angle</title>
<polygon fill="white" stroke="none" points="-4,4 -4,-537 554,-537 554,4 -4,4"/>
<!-- Node1 -->
<g id="node1" class="node"><title>Node1</title>
<polygon fill="#bfbfbf" stroke="black" points="0,-223 0,-253 111,-253 111,-223 0,-223"/>
<text text-anchor="start" x="8" y="-241" font-family="Helvetica,sans-Serif" font-size="10.00">AC_AttitudeControl</text>
<text text-anchor="middle" x="55.5" y="-230" font-family="Helvetica,sans-Serif" font-size="10.00">::input_shaping_angle</text>
</g>
<!-- Node2 -->
<g id="node2" class="node"><title>Node2</title>
<g id="a_node2"><a xlink:href="$AP__Math_8cpp.html#a21d0562d7b23dd9f04bc30a3611cc577" xlink:title="wrap_PI">
<polygon fill="white" stroke="black" points="171,-361.5 171,-380.5 224,-380.5 224,-361.5 171,-361.5"/>
<text text-anchor="middle" x="197.5" y="-368.5" font-family="Helvetica,sans-Serif" font-size="10.00">wrap_PI</text>
</a>
</g>
</g>
<!-- Node1&#45;&gt;Node2 -->
<g id="edge1" class="edge"><title>Node1&#45;&gt;Node2</title>
<path fill="none" stroke="midnightblue" d="M72.5598,-253.257C98.9694,-278.346 151.37,-328.127 178.809,-354.193"/>
<polygon fill="midnightblue" stroke="midnightblue" points="176.495,-356.823 186.156,-361.173 181.316,-351.748 176.495,-356.823"/>
</g>
<!-- Node12 -->
<g id="node12" class="node"><title>Node12</title>
<g id="a_node12"><a xlink:href="$classAC__AttitudeControl.html#a1788967db1aa0dfe68fad24da23947f9" xlink:title="AC_AttitudeControl\l::sqrt_controller">
<polygon fill="white" stroke="black" points="147,-223 147,-253 248,-253 248,-223 147,-223"/>
<text text-anchor="start" x="155" y="-241" font-family="Helvetica,sans-Serif" font-size="10.00">AC_AttitudeControl</text>
<text text-anchor="middle" x="197.5" y="-230" font-family="Helvetica,sans-Serif" font-size="10.00">::sqrt_controller</text>
</a>
</g>
</g>
<!-- Node1&#45;&gt;Node12 -->
<g id="edge11" class="edge"><title>Node1&#45;&gt;Node12</title>
<path fill="none" stroke="midnightblue" d="M111.029,-238C119.434,-238 128.154,-238 136.668,-238"/>
<polygon fill="midnightblue" stroke="midnightblue" points="136.917,-241.5 146.917,-238 136.916,-234.5 136.917,-241.5"/>
</g>
<!-- Node20 -->
<g id="node20" class="node"><title>Node20</title>
<g id="a_node20"><a xlink:href="$AP__Math_8h.html#ad525609d9dba6ffa556a0fbf08a3f9b4" xlink:title="constrain_float">
<polygon fill="white" stroke="black" points="157.5,-130.5 157.5,-149.5 237.5,-149.5 237.5,-130.5 157.5,-130.5"/>
<text text-anchor="middle" x="197.5" y="-137.5" font-family="Helvetica,sans-Serif" font-size="10.00">constrain_float</text>
</a>
</g>
</g>
<!-- Node1&#45;&gt;Node20 -->
<g id="edge19" class="edge"><title>Node1&#45;&gt;Node20</title>
<path fill="none" stroke="midnightblue" d="M78.0682,-222.902C104.255,-204.572 148.177,-173.826 174.539,-155.373"/>
<polygon fill="midnightblue" stroke="midnightblue" points="176.57,-158.223 182.755,-149.621 172.556,-152.489 176.57,-158.223"/>
</g>
<!-- Node3 -->
<g id="node3" class="node"><title>Node3</title>
<g id="a_node3"><a xlink:href="$AP__Math_8cpp.html#aa66b7eae8d7e99247c6a2b3d2b5c7b8d" xlink:title="wrap_2PI">
<polygon fill="white" stroke="black" points="304.5,-456.5 304.5,-475.5 362.5,-475.5 362.5,-456.5 304.5,-456.5"/>
<text text-anchor="middle" x="333.5" y="-463.5" font-family="Helvetica,sans-Serif" font-size="10.00">wrap_2PI</text>
</a>
</g>
</g>
<!-- Node2&#45;&gt;Node3 -->
<g id="edge2" class="edge"><title>Node2&#45;&gt;Node3</title>
<path fill="none" stroke="midnightblue" d="M207.118,-380.609C221.643,-396.321 252.508,-427.692 284,-447 287.415,-449.094 291.1,-451.032 294.86,-452.806"/>
<polygon fill="midnightblue" stroke="midnightblue" points="293.681,-456.109 304.248,-456.87 296.462,-449.685 293.681,-456.109"/>
</g>
<!-- Node8 -->
<g id="node8" class="node"><title>Node8</title>
<g id="a_node8"><a xlink:href="$AP__Math_8cpp.html#a044023fcfa899d449f5a219ca7596ca4" xlink:title="wrap_PI\&lt; int \&gt;">
<polygon fill="white" stroke="black" points="293,-418.5 293,-437.5 374,-437.5 374,-418.5 293,-418.5"/>
<text text-anchor="middle" x="333.5" y="-425.5" font-family="Helvetica,sans-Serif" font-size="10.00">wrap_PI&lt; int &gt;</text>
</a>
</g>
</g>
<!-- Node2&#45;&gt;Node8 -->
<g id="edge7" class="edge"><title>Node2&#45;&gt;Node8</title>
<path fill="none" stroke="midnightblue" d="M219.468,-380.634C236.707,-388.479 261.818,-399.731 284,-409 288.459,-410.863 293.169,-412.776 297.833,-414.638"/>
<polygon fill="midnightblue" stroke="midnightblue" points="296.655,-417.935 307.241,-418.352 299.225,-411.424 296.655,-417.935"/>
</g>
<!-- Node9 -->
<g id="node9" class="node"><title>Node9</title>
<g id="a_node9"><a xlink:href="$AP__Math_8cpp.html#ad0041912c2965b653fa9cf6854e47bc8" xlink:title="wrap_PI\&lt; short \&gt;">
<polygon fill="white" stroke="black" points="287.5,-380.5 287.5,-399.5 379.5,-399.5 379.5,-380.5 287.5,-380.5"/>
<text text-anchor="middle" x="333.5" y="-387.5" font-family="Helvetica,sans-Serif" font-size="10.00">wrap_PI&lt; short &gt;</text>
</a>
</g>
</g>
<!-- Node2&#45;&gt;Node9 -->
<g id="edge8" class="edge"><title>Node2&#45;&gt;Node9</title>
<path fill="none" stroke="midnightblue" d="M224.02,-374.618C239.076,-376.753 258.741,-379.542 277.185,-382.157"/>
<polygon fill="midnightblue" stroke="midnightblue" points="276.878,-385.648 287.27,-383.587 277.861,-378.718 276.878,-385.648"/>
</g>
<!-- Node10 -->
<g id="node10" class="node"><title>Node10</title>
<g id="a_node10"><a xlink:href="$AP__Math_8cpp.html#a789e7d40c173a1fab6560d1b61609952" xlink:title="wrap_PI\&lt; float \&gt;">
<polygon fill="white" stroke="black" points="289,-342.5 289,-361.5 378,-361.5 378,-342.5 289,-342.5"/>
<text text-anchor="middle" x="333.5" y="-349.5" font-family="Helvetica,sans-Serif" font-size="10.00">wrap_PI&lt; float &gt;</text>
</a>
</g>
</g>
<!-- Node2&#45;&gt;Node10 -->
<g id="edge9" class="edge"><title>Node2&#45;&gt;Node10</title>
<path fill="none" stroke="midnightblue" d="M224.02,-367.382C239.532,-365.182 259.936,-362.289 278.857,-359.606"/>
<polygon fill="midnightblue" stroke="midnightblue" points="279.469,-363.054 288.879,-358.185 278.487,-356.124 279.469,-363.054"/>
</g>
<!-- Node11 -->
<g id="node11" class="node"><title>Node11</title>
<g id="a_node11"><a xlink:href="$AP__Math_8cpp.html#a66b3a8191d62a34f4d673d5c62d8d1cf" xlink:title="wrap_PI\&lt; double \&gt;">
<polygon fill="white" stroke="black" points="284,-304.5 284,-323.5 383,-323.5 383,-304.5 284,-304.5"/>
<text text-anchor="middle" x="333.5" y="-311.5" font-family="Helvetica,sans-Serif" font-size="10.00">wrap_PI&lt; double &gt;</text>
</a>
</g>
</g>
<!-- Node2&#45;&gt;Node11 -->
<g id="edge10" class="edge"><title>Node2&#45;&gt;Node11</title>
<path fill="none" stroke="midnightblue" d="M219.468,-361.366C236.707,-353.521 261.818,-342.269 284,-333 288.459,-331.137 293.169,-329.224 297.833,-327.362"/>
<polygon fill="midnightblue" stroke="midnightblue" points="299.225,-330.576 307.241,-323.648 296.655,-324.065 299.225,-330.576"/>
</g>
<!-- Node4 -->
<g id="node4" class="node"><title>Node4</title>
<g id="a_node4"><a xlink:href="$AP__Math_8cpp.html#a50a4ded454375642e1944882b01a1ae5" xlink:title="wrap_2PI\&lt; int \&gt;">
<polygon fill="white" stroke="black" points="441.5,-513.5 441.5,-532.5 527.5,-532.5 527.5,-513.5 441.5,-513.5"/>
<text text-anchor="middle" x="484.5" y="-520.5" font-family="Helvetica,sans-Serif" font-size="10.00">wrap_2PI&lt; int &gt;</text>
</a>
</g>
</g>
<!-- Node3&#45;&gt;Node4 -->
<g id="edge3" class="edge"><title>Node3&#45;&gt;Node4</title>
<path fill="none" stroke="midnightblue" d="M353.654,-475.516C370.581,-483.707 396.071,-495.512 419,-504 425.035,-506.234 431.461,-508.387 437.831,-510.39"/>
<polygon fill="midnightblue" stroke="midnightblue" points="437.144,-513.839 447.73,-513.405 439.183,-507.143 437.144,-513.839"/>
</g>
<!-- Node5 -->
<g id="node5" class="node"><title>Node5</title>
<g id="a_node5"><a xlink:href="$AP__Math_8cpp.html#aaf8ce7d4f9e3837bdbd5aac6545b4000" xlink:title="wrap_2PI\&lt; short \&gt;">
<polygon fill="white" stroke="black" points="435.5,-475.5 435.5,-494.5 533.5,-494.5 533.5,-475.5 435.5,-475.5"/>
<text text-anchor="middle" x="484.5" y="-482.5" font-family="Helvetica,sans-Serif" font-size="10.00">wrap_2PI&lt; short &gt;</text>
</a>
</g>
</g>
<!-- Node3&#45;&gt;Node5 -->
<g id="edge4" class="edge"><title>Node3&#45;&gt;Node5</title>
<path fill="none" stroke="midnightblue" d="M362.526,-469.574C380.21,-471.829 403.711,-474.826 425.294,-477.578"/>
<polygon fill="midnightblue" stroke="midnightblue" points="425.011,-481.07 435.373,-478.863 425.896,-474.126 425.011,-481.07"/>
</g>
<!-- Node6 -->
<g id="node6" class="node"><title>Node6</title>
<g id="a_node6"><a xlink:href="$AP__Math_8cpp.html#a7182302503c136742396e3057b680dc7" xlink:title="wrap_2PI\&lt; float \&gt;">
<polygon fill="white" stroke="black" points="437,-437.5 437,-456.5 532,-456.5 532,-437.5 437,-437.5"/>
<text text-anchor="middle" x="484.5" y="-444.5" font-family="Helvetica,sans-Serif" font-size="10.00">wrap_2PI&lt; float &gt;</text>
</a>
</g>
</g>
<!-- Node3&#45;&gt;Node6 -->
<g id="edge5" class="edge"><title>Node3&#45;&gt;Node6</title>
<path fill="none" stroke="midnightblue" d="M362.526,-462.426C380.656,-460.114 404.899,-457.023 426.921,-454.215"/>
<polygon fill="midnightblue" stroke="midnightblue" points="427.377,-457.685 436.854,-452.948 426.491,-450.741 427.377,-457.685"/>
</g>
<!-- Node7 -->
<g id="node7" class="node"><title>Node7</title>
<g id="a_node7"><a xlink:href="$AP__Math_8cpp.html#a0b4be48e39c65e97084146b9f1d22c00" xlink:title="wrap_2PI\&lt; double \&gt;">
<polygon fill="white" stroke="black" points="432.5,-399.5 432.5,-418.5 536.5,-418.5 536.5,-399.5 432.5,-399.5"/>
<text text-anchor="middle" x="484.5" y="-406.5" font-family="Helvetica,sans-Serif" font-size="10.00">wrap_2PI&lt; double &gt;</text>
</a>
</g>
</g>
<!-- Node3&#45;&gt;Node7 -->
<g id="edge6" class="edge"><title>Node3&#45;&gt;Node7</title>
<path fill="none" stroke="midnightblue" d="M360.399,-456.473C367.773,-453.595 375.765,-450.314 383,-447 399.448,-439.466 402.24,-434.812 419,-428 424.749,-425.664 430.891,-423.478 437.015,-421.482"/>
<polygon fill="midnightblue" stroke="midnightblue" points="438.06,-424.822 446.566,-418.506 435.977,-418.139 438.06,-424.822"/>
</g>
<!-- Node13 -->
<g id="node13" class="node"><title>Node13</title>
<g id="a_node13"><a xlink:href="$AP__Math_8h.html#a2a12cce483e9b870da70d30406d82c60" xlink:title="is_zero">
<polygon fill="white" stroke="black" points="309.5,-266.5 309.5,-285.5 357.5,-285.5 357.5,-266.5 309.5,-266.5"/>
<text text-anchor="middle" x="333.5" y="-273.5" font-family="Helvetica,sans-Serif" font-size="10.00">is_zero</text>
</a>
</g>
</g>
<!-- Node12&#45;&gt;Node13 -->
<g id="edge12" class="edge"><title>Node12&#45;&gt;Node13</title>
<path fill="none" stroke="midnightblue" d="M248.016,-252.042C265.262,-256.933 284.171,-262.295 299.718,-266.704"/>
<polygon fill="midnightblue" stroke="midnightblue" points="298.823,-270.088 309.399,-269.449 300.733,-263.353 298.823,-270.088"/>
</g>
<!-- Node14 -->
<g id="node14" class="node"><title>Node14</title>
<g id="a_node14"><a xlink:href="$AP__Math_8h.html#a0375e3d67fd3911cacee5c3e1408c0f2" xlink:title="sq">
<polygon fill="white" stroke="black" points="319,-228.5 319,-247.5 348,-247.5 348,-228.5 319,-228.5"/>
<text text-anchor="middle" x="333.5" y="-235.5" font-family="Helvetica,sans-Serif" font-size="10.00">sq</text>
</a>
</g>
</g>
<!-- Node12&#45;&gt;Node14 -->
<g id="edge13" class="edge"><title>Node12&#45;&gt;Node14</title>
<path fill="none" stroke="midnightblue" d="M248.016,-238C268.809,-238 292.019,-238 308.842,-238"/>
<polygon fill="midnightblue" stroke="midnightblue" points="308.885,-241.5 318.885,-238 308.885,-234.5 308.885,-241.5"/>
</g>
<!-- Node15 -->
<g id="node15" class="node"><title>Node15</title>
<g id="a_node15"><a xlink:href="$AP__Math_8cpp.html#ac89eb1832d8e4d67fcf1ac07e3c25184" xlink:title="safe_sqrt">
<polygon fill="white" stroke="black" points="305,-190.5 305,-209.5 362,-209.5 362,-190.5 305,-190.5"/>
<text text-anchor="middle" x="333.5" y="-197.5" font-family="Helvetica,sans-Serif" font-size="10.00">safe_sqrt</text>
</a>
</g>
</g>
<!-- Node12&#45;&gt;Node15 -->
<g id="edge14" class="edge"><title>Node12&#45;&gt;Node15</title>
<path fill="none" stroke="midnightblue" d="M248.016,-223.958C263.644,-219.526 280.637,-214.707 295.258,-210.561"/>
<polygon fill="midnightblue" stroke="midnightblue" points="296.289,-213.907 304.955,-207.811 294.379,-207.172 296.289,-213.907"/>
</g>
<!-- Node16 -->
<g id="node16" class="node"><title>Node16</title>
<g id="a_node16"><a xlink:href="$AP__Math_8cpp.html#aa5cb9421d48def32eb7574adb1b152b0" xlink:title="safe_sqrt\&lt; int \&gt;">
<polygon fill="white" stroke="black" points="441.5,-266.5 441.5,-285.5 527.5,-285.5 527.5,-266.5 441.5,-266.5"/>
<text text-anchor="middle" x="484.5" y="-273.5" font-family="Helvetica,sans-Serif" font-size="10.00">safe_sqrt&lt; int &gt;</text>
</a>
</g>
</g>
<!-- Node15&#45;&gt;Node16 -->
<g id="edge15" class="edge"><title>Node15&#45;&gt;Node16</title>
<path fill="none" stroke="midnightblue" d="M362.23,-208.457C369.313,-211.251 376.7,-214.755 383,-219 402.294,-231.999 399.16,-244.851 419,-257 422.914,-259.397 427.147,-261.505 431.508,-263.358"/>
<polygon fill="midnightblue" stroke="midnightblue" points="430.596,-266.755 441.188,-267.016 433.071,-260.207 430.596,-266.755"/>
</g>
<!-- Node17 -->
<g id="node17" class="node"><title>Node17</title>
<g id="a_node17"><a xlink:href="$AP__Math_8cpp.html#a6952300e3d03222491051d674312b67d" xlink:title="safe_sqrt\&lt; short \&gt;">
<polygon fill="white" stroke="black" points="436,-228.5 436,-247.5 533,-247.5 533,-228.5 436,-228.5"/>
<text text-anchor="middle" x="484.5" y="-235.5" font-family="Helvetica,sans-Serif" font-size="10.00">safe_sqrt&lt; short &gt;</text>
</a>
</g>
</g>
<!-- Node15&#45;&gt;Node17 -->
<g id="edge16" class="edge"><title>Node15&#45;&gt;Node17</title>
<path fill="none" stroke="midnightblue" d="M362.177,-207.058C382.962,-212.359 411.924,-219.746 436.339,-225.972"/>
<polygon fill="midnightblue" stroke="midnightblue" points="435.583,-229.391 446.138,-228.471 437.313,-222.609 435.583,-229.391"/>
</g>
<!-- Node18 -->
<g id="node18" class="node"><title>Node18</title>
<g id="a_node18"><a xlink:href="$AP__Math_8cpp.html#a40ae6cfccff676d9d2ff57e2e9ca549c" xlink:title="safe_sqrt\&lt; float \&gt;">
<polygon fill="white" stroke="black" points="437.5,-190.5 437.5,-209.5 531.5,-209.5 531.5,-190.5 437.5,-190.5"/>
<text text-anchor="middle" x="484.5" y="-197.5" font-family="Helvetica,sans-Serif" font-size="10.00">safe_sqrt&lt; float &gt;</text>
</a>
</g>
</g>
<!-- Node15&#45;&gt;Node18 -->
<g id="edge17" class="edge"><title>Node15&#45;&gt;Node18</title>
<path fill="none" stroke="midnightblue" d="M362.177,-200C380.422,-200 404.969,-200 427.209,-200"/>
<polygon fill="midnightblue" stroke="midnightblue" points="427.234,-203.5 437.234,-200 427.234,-196.5 427.234,-203.5"/>
</g>
<!-- Node19 -->
<g id="node19" class="node"><title>Node19</title>
<g id="a_node19"><a xlink:href="$AP__Math_8cpp.html#acf6795fb73b8b915b53126f71cd2712a" xlink:title="safe_sqrt\&lt; double \&gt;">
<polygon fill="white" stroke="black" points="432.5,-152.5 432.5,-171.5 536.5,-171.5 536.5,-152.5 432.5,-152.5"/>
<text text-anchor="middle" x="484.5" y="-159.5" font-family="Helvetica,sans-Serif" font-size="10.00">safe_sqrt&lt; double &gt;</text>
</a>
</g>
</g>
<!-- Node15&#45;&gt;Node19 -->
<g id="edge18" class="edge"><title>Node15&#45;&gt;Node19</title>
<path fill="none" stroke="midnightblue" d="M362.177,-192.942C382.962,-187.641 411.924,-180.254 436.339,-174.028"/>
<polygon fill="midnightblue" stroke="midnightblue" points="437.313,-177.391 446.138,-171.529 435.583,-170.609 437.313,-177.391"/>
</g>
<!-- Node21 -->
<g id="node21" class="node"><title>Node21</title>
<g id="a_node21"><a xlink:href="$AP__Math_8h.html#a20e8f8671c282c69c1954652b6d61585" xlink:title="constrain_value">
<polygon fill="white" stroke="black" points="291,-76.5 291,-95.5 376,-95.5 376,-76.5 291,-76.5"/>
<text text-anchor="middle" x="333.5" y="-83.5" font-family="Helvetica,sans-Serif" font-size="10.00">constrain_value</text>
</a>
</g>
</g>
<!-- Node20&#45;&gt;Node21 -->
<g id="edge20" class="edge"><title>Node20&#45;&gt;Node21</title>
<path fill="none" stroke="midnightblue" d="M222.148,-130.47C243.544,-121.848 275.276,-109.061 299.228,-99.4082"/>
<polygon fill="midnightblue" stroke="midnightblue" points="300.671,-102.6 308.638,-95.6162 298.054,-96.1077 300.671,-102.6"/>
</g>
<!-- Node22 -->
<g id="node22" class="node"><title>Node22</title>
<g id="a_node22"><a xlink:href="$AP__Math_8cpp.html#a37e8e901754cb9c8e53a8e3030c82c50" xlink:title="constrain_value\&lt; int \&gt;">
<polygon fill="white" stroke="black" points="428,-114.5 428,-133.5 541,-133.5 541,-114.5 428,-114.5"/>
<text text-anchor="middle" x="484.5" y="-121.5" font-family="Helvetica,sans-Serif" font-size="10.00">constrain_value&lt; int &gt;</text>
</a>
</g>
</g>
<!-- Node21&#45;&gt;Node22 -->
<g id="edge21" class="edge"><title>Node21&#45;&gt;Node22</title>
<path fill="none" stroke="midnightblue" d="M372.099,-95.589C391.584,-100.558 415.575,-106.677 436.296,-111.961"/>
<polygon fill="midnightblue" stroke="midnightblue" points="435.617,-115.4 446.171,-114.48 437.346,-108.617 435.617,-115.4"/>
</g>
<!-- Node23 -->
<g id="node23" class="node"><title>Node23</title>
<g id="a_node23"><a xlink:href="$AP__Math_8cpp.html#afdbe107ec1987d318a6347816fbf2b89" xlink:title="constrain_value\&lt; short \&gt;">
<polygon fill="white" stroke="black" points="422,-76.5 422,-95.5 547,-95.5 547,-76.5 422,-76.5"/>
<text text-anchor="middle" x="484.5" y="-83.5" font-family="Helvetica,sans-Serif" font-size="10.00">constrain_value&lt; short &gt;</text>
</a>
</g>
</g>
<!-- Node21&#45;&gt;Node23 -->
<g id="edge22" class="edge"><title>Node21&#45;&gt;Node23</title>
<path fill="none" stroke="midnightblue" d="M376.005,-86C387.105,-86 399.429,-86 411.658,-86"/>
<polygon fill="midnightblue" stroke="midnightblue" points="411.879,-89.5001 421.879,-86 411.879,-82.5001 411.879,-89.5001"/>
</g>
<!-- Node24 -->
<g id="node24" class="node"><title>Node24</title>
<g id="a_node24"><a xlink:href="$AP__Math_8cpp.html#ae6c621670c214da687de21d4e3a92587" xlink:title="constrain_value\&lt; float \&gt;">
<polygon fill="white" stroke="black" points="423.5,-38.5 423.5,-57.5 545.5,-57.5 545.5,-38.5 423.5,-38.5"/>
<text text-anchor="middle" x="484.5" y="-45.5" font-family="Helvetica,sans-Serif" font-size="10.00">constrain_value&lt; float &gt;</text>
</a>
</g>
</g>
<!-- Node21&#45;&gt;Node24 -->
<g id="edge23" class="edge"><title>Node21&#45;&gt;Node24</title>
<path fill="none" stroke="midnightblue" d="M372.099,-76.411C391.584,-71.4417 415.575,-65.3233 436.296,-60.0387"/>
<polygon fill="midnightblue" stroke="midnightblue" points="437.346,-63.3828 446.171,-57.5201 435.617,-56.5999 437.346,-63.3828"/>
</g>
<!-- Node25 -->
<g id="node25" class="node"><title>Node25</title>
<g id="a_node25"><a xlink:href="$AP__Math_8cpp.html#afe3990b00e9abc43fa97dfaf8e32f5c4" xlink:title="constrain_value\&lt; double \&gt;">
<polygon fill="white" stroke="black" points="419,-0.5 419,-19.5 550,-19.5 550,-0.5 419,-0.5"/>
<text text-anchor="middle" x="484.5" y="-7.5" font-family="Helvetica,sans-Serif" font-size="10.00">constrain_value&lt; double &gt;</text>
</a>
</g>
</g>
<!-- Node21&#45;&gt;Node25 -->
<g id="edge24" class="edge"><title>Node21&#45;&gt;Node25</title>
<path fill="none" stroke="midnightblue" d="M346.11,-76.453C361.783,-63.9824 390.981,-42.1891 419,-29 423.885,-26.7005 429.11,-24.6118 434.393,-22.7326"/>
<polygon fill="midnightblue" stroke="midnightblue" points="435.515,-26.048 443.904,-19.5764 433.31,-19.4043 435.515,-26.048"/>
</g>
</g>
</svg>
