<?xml version="1.0" encoding="UTF-8" standalone="no"?>
<!DOCTYPE svg PUBLIC "-//W3C//DTD SVG 1.1//EN"
 "http://www.w3.org/Graphics/SVG/1.1/DTD/svg11.dtd">
<!-- Generated by graphviz version 2.38.0 (20140413.2041)
 -->
<!-- Title: AC_PosControl::get_accel_target Pages: 1 -->
<svg width="2117pt" height="648pt"
 viewBox="0.00 0.00 2117.00 647.50" xmlns="http://www.w3.org/2000/svg" xmlns:xlink="http://www.w3.org/1999/xlink">
<g id="graph0" class="graph" transform="scale(1 1) rotate(0) translate(4 643.5)">
<title>AC_PosControl::get_accel_target</title>
<polygon fill="white" stroke="none" points="-4,4 -4,-643.5 2113,-643.5 2113,4 -4,4"/>
<!-- Node1 -->
<g id="node1" class="node"><title>Node1</title>
<polygon fill="#bfbfbf" stroke="black" points="0,-477.5 0,-507.5 104,-507.5 104,-477.5 0,-477.5"/>
<text text-anchor="start" x="8" y="-495.5" font-family="Helvetica,sans-Serif" font-size="10.00">AC_PosControl::get</text>
<text text-anchor="middle" x="52" y="-484.5" font-family="Helvetica,sans-Serif" font-size="10.00">_accel_target</text>
</g>
<!-- Node2 -->
<g id="node2" class="node"><title>Node2</title>
<g id="a_node2"><a xlink:href="$classAC__PosControl.html#a146634dd74332c97600e933213a75d5a" xlink:title="AC_PosControl::lean\l_angles_to_accel">
<polygon fill="white" stroke="black" points="143.5,-502.5 143.5,-532.5 252.5,-532.5 252.5,-502.5 143.5,-502.5"/>
<text text-anchor="start" x="151.5" y="-520.5" font-family="Helvetica,sans-Serif" font-size="10.00">AC_PosControl::lean</text>
<text text-anchor="middle" x="198" y="-509.5" font-family="Helvetica,sans-Serif" font-size="10.00">_angles_to_accel</text>
</a>
</g>
</g>
<!-- Node1&#45;&gt;Node2 -->
<g id="edge1" class="edge"><title>Node1&#45;&gt;Node2</title>
<path fill="none" stroke="midnightblue" d="M104.174,-501.384C113.534,-503.009 123.408,-504.724 133.084,-506.403"/>
<polygon fill="midnightblue" stroke="midnightblue" points="132.615,-509.874 143.066,-508.136 133.812,-502.977 132.615,-509.874"/>
</g>
<!-- Node4 -->
<g id="node4" class="node"><title>Node4</title>
<g id="a_node4"><a xlink:href="$classAC__PosControl.html#aba69e5af4db360bb85275fe843f7e95e" xlink:title="AC_PosControl::time\l_since_last_xy_update">
<polygon fill="white" stroke="black" points="140,-453.5 140,-483.5 256,-483.5 256,-453.5 140,-453.5"/>
<text text-anchor="start" x="148" y="-471.5" font-family="Helvetica,sans-Serif" font-size="10.00">AC_PosControl::time</text>
<text text-anchor="middle" x="198" y="-460.5" font-family="Helvetica,sans-Serif" font-size="10.00">_since_last_xy_update</text>
</a>
</g>
</g>
<!-- Node1&#45;&gt;Node4 -->
<g id="edge3" class="edge"><title>Node1&#45;&gt;Node4</title>
<path fill="none" stroke="midnightblue" d="M104.174,-483.971C112.425,-482.596 121.075,-481.154 129.637,-479.727"/>
<polygon fill="midnightblue" stroke="midnightblue" points="130.33,-483.16 139.619,-478.064 129.179,-476.255 130.33,-483.16"/>
</g>
<!-- Node3 -->
<g id="node3" class="node"><title>Node3</title>
<g id="a_node3"><a xlink:href="$AP__Math_8h.html#a5c0b5c82749ac54970b2699d3c10ee9b" xlink:title="MAX">
<polygon fill="white" stroke="black" points="314.5,-508 314.5,-527 352.5,-527 352.5,-508 314.5,-508"/>
<text text-anchor="middle" x="333.5" y="-515" font-family="Helvetica,sans-Serif" font-size="10.00">MAX</text>
</a>
</g>
</g>
<!-- Node2&#45;&gt;Node3 -->
<g id="edge2" class="edge"><title>Node2&#45;&gt;Node3</title>
<path fill="none" stroke="midnightblue" d="M252.53,-517.5C270.159,-517.5 289.069,-517.5 304.072,-517.5"/>
<polygon fill="midnightblue" stroke="midnightblue" points="304.233,-521 314.233,-517.5 304.233,-514 304.233,-521"/>
</g>
<!-- Node5 -->
<g id="node5" class="node"><title>Node5</title>
<g id="a_node5"><a xlink:href="$namespaceAP__HAL.html#a77dffbb18891996280308e21316ec186" xlink:title="AP_HAL::millis">
<polygon fill="white" stroke="black" points="292,-459 292,-478 375,-478 375,-459 292,-459"/>
<text text-anchor="middle" x="333.5" y="-466" font-family="Helvetica,sans-Serif" font-size="10.00">AP_HAL::millis</text>
</a>
</g>
</g>
<!-- Node4&#45;&gt;Node5 -->
<g id="edge4" class="edge"><title>Node4&#45;&gt;Node5</title>
<path fill="none" stroke="midnightblue" d="M256.003,-468.5C264.568,-468.5 273.352,-468.5 281.775,-468.5"/>
<polygon fill="midnightblue" stroke="midnightblue" points="281.83,-472 291.83,-468.5 281.829,-465 281.83,-472"/>
</g>
<!-- Node6 -->
<g id="node6" class="node"><title>Node6</title>
<g id="a_node6"><a xlink:href="$namespaceAP__HAL.html#a59336c5fceaf28a76d1df1581a87a25d" xlink:title="AP_HAL::millis64">
<polygon fill="white" stroke="black" points="411,-459 411,-478 505,-478 505,-459 411,-459"/>
<text text-anchor="middle" x="458" y="-466" font-family="Helvetica,sans-Serif" font-size="10.00">AP_HAL::millis64</text>
</a>
</g>
</g>
<!-- Node5&#45;&gt;Node6 -->
<g id="edge5" class="edge"><title>Node5&#45;&gt;Node6</title>
<path fill="none" stroke="midnightblue" d="M375.291,-468.5C383.495,-468.5 392.252,-468.5 400.873,-468.5"/>
<polygon fill="midnightblue" stroke="midnightblue" points="400.89,-472 410.89,-468.5 400.89,-465 400.89,-472"/>
</g>
<!-- Node7 -->
<g id="node7" class="node"><title>Node7</title>
<g id="a_node7"><a xlink:href="$classLinux_1_1Scheduler.html#a53ecaae0fdc72f85bd57c4b0cff93653" xlink:title="Linux::Scheduler::from">
<polygon fill="white" stroke="black" points="541,-337 541,-356 656,-356 656,-337 541,-337"/>
<text text-anchor="middle" x="598.5" y="-344" font-family="Helvetica,sans-Serif" font-size="10.00">Linux::Scheduler::from</text>
</a>
</g>
</g>
<!-- Node6&#45;&gt;Node7 -->
<g id="edge6" class="edge"><title>Node6&#45;&gt;Node7</title>
<path fill="none" stroke="midnightblue" d="M469.868,-458.927C493.432,-438.17 549.465,-388.813 578.825,-362.951"/>
<polygon fill="midnightblue" stroke="midnightblue" points="581.492,-365.265 586.683,-356.029 576.865,-360.012 581.492,-365.265"/>
</g>
<!-- Node35 -->
<g id="node35" class="node"><title>Node35</title>
<g id="a_node35"><a xlink:href="$classLinux_1_1Scheduler.html#a682b4c34f330f66db5ab4aa5d96e13f9" xlink:title="Linux::Scheduler::stopped\l_clock_usec">
<polygon fill="white" stroke="black" points="1361,-475.5 1361,-505.5 1491,-505.5 1491,-475.5 1361,-475.5"/>
<text text-anchor="start" x="1369" y="-493.5" font-family="Helvetica,sans-Serif" font-size="10.00">Linux::Scheduler::stopped</text>
<text text-anchor="middle" x="1426" y="-482.5" font-family="Helvetica,sans-Serif" font-size="10.00">_clock_usec</text>
</a>
</g>
</g>
<!-- Node6&#45;&gt;Node35 -->
<g id="edge61" class="edge"><title>Node6&#45;&gt;Node35</title>
<path fill="none" stroke="midnightblue" d="M471.771,-478.152C511.452,-507.148 637.024,-591.5 755,-591.5 755,-591.5 755,-591.5 1096.5,-591.5 1206.09,-591.5 1327.53,-539.508 1387.4,-510.13"/>
<polygon fill="midnightblue" stroke="midnightblue" points="1389.07,-513.207 1396.46,-505.621 1385.95,-506.939 1389.07,-513.207"/>
</g>
<!-- Node8 -->
<g id="node8" class="node"><title>Node8</title>
<g id="a_node8"><a xlink:href="$classLinux_1_1Scheduler.html#a3d77c332e051c28c83fb07757e7100bd" xlink:title="Linux::Scheduler::init">
<polygon fill="white" stroke="black" points="702,-68 702,-87 810,-87 810,-68 702,-68"/>
<text text-anchor="middle" x="756" y="-75" font-family="Helvetica,sans-Serif" font-size="10.00">Linux::Scheduler::init</text>
</a>
</g>
</g>
<!-- Node7&#45;&gt;Node8 -->
<g id="edge7" class="edge"><title>Node7&#45;&gt;Node8</title>
<path fill="none" stroke="midnightblue" d="M600.092,-336.947C602.894,-300.136 617.998,-166.088 692,-96.5 693.691,-94.9103 695.509,-93.4533 697.426,-92.1179"/>
<polygon fill="midnightblue" stroke="midnightblue" points="699.414,-95.0126 706.354,-87.0075 695.937,-88.9373 699.414,-95.0126"/>
</g>
<!-- Node15 -->
<g id="node15" class="node"><title>Node15</title>
<g id="a_node15"><a xlink:href="$classLinux_1_1Scheduler.html#a02a34a123dfebaf360f7010745e1e646" xlink:title="Linux::Scheduler::register\l_timer_process">
<polygon fill="white" stroke="black" points="858,-62.5 858,-92.5 986,-92.5 986,-62.5 858,-62.5"/>
<text text-anchor="start" x="866" y="-80.5" font-family="Helvetica,sans-Serif" font-size="10.00">Linux::Scheduler::register</text>
<text text-anchor="middle" x="922" y="-69.5" font-family="Helvetica,sans-Serif" font-size="10.00">_timer_process</text>
</a>
</g>
</g>
<!-- Node7&#45;&gt;Node15 -->
<g id="edge32" class="edge"><title>Node7&#45;&gt;Node15</title>
<path fill="none" stroke="midnightblue" d="M598.998,-336.816C597.415,-294.824 597.373,-127.496 692,-58.5 746.547,-18.7278 829.04,-39.837 878.7,-58.7191"/>
<polygon fill="midnightblue" stroke="midnightblue" points="877.589,-62.0431 888.176,-62.4471 880.152,-55.529 877.589,-62.0431"/>
</g>
<!-- Node26 -->
<g id="node26" class="node"><title>Node26</title>
<g id="a_node26"><a xlink:href="$classLinux_1_1Scheduler.html#a14f3239ecbb9889823b20dc9de655c2f" xlink:title="Linux::Scheduler::delay">
<polygon fill="white" stroke="black" points="696.5,-620 696.5,-639 815.5,-639 815.5,-620 696.5,-620"/>
<text text-anchor="middle" x="756" y="-627" font-family="Helvetica,sans-Serif" font-size="10.00">Linux::Scheduler::delay</text>
</a>
</g>
</g>
<!-- Node7&#45;&gt;Node26 -->
<g id="edge26" class="edge"><title>Node7&#45;&gt;Node26</title>
<path fill="none" stroke="midnightblue" d="M602.124,-356.441C610.994,-388.878 642.117,-493.782 692,-567.5 703.894,-585.077 721.323,-601.757 734.836,-613.38"/>
<polygon fill="midnightblue" stroke="midnightblue" points="732.743,-616.192 742.659,-619.926 737.235,-610.824 732.743,-616.192"/>
</g>
<!-- Node28 -->
<g id="node28" class="node"><title>Node28</title>
<g id="a_node28"><a xlink:href="$classLinux_1_1Scheduler.html#a4cffd5bcba0175bf49c7aa75ff3bf09a" xlink:title="Linux::Scheduler::delay\l_microseconds">
<polygon fill="white" stroke="black" points="1366.5,-538.5 1366.5,-568.5 1485.5,-568.5 1485.5,-538.5 1366.5,-538.5"/>
<text text-anchor="start" x="1374.5" y="-556.5" font-family="Helvetica,sans-Serif" font-size="10.00">Linux::Scheduler::delay</text>
<text text-anchor="middle" x="1426" y="-545.5" font-family="Helvetica,sans-Serif" font-size="10.00">_microseconds</text>
</a>
</g>
</g>
<!-- Node7&#45;&gt;Node28 -->
<g id="edge29" class="edge"><title>Node7&#45;&gt;Node28</title>
<path fill="none" stroke="midnightblue" d="M600.885,-356.033C606.055,-387.79 627.372,-490.459 692,-534.5 776.395,-592.011 818.873,-553.5 921,-553.5 921,-553.5 921,-553.5 1096.5,-553.5 1186.09,-553.5 1289.43,-553.5 1355.91,-553.5"/>
<polygon fill="midnightblue" stroke="midnightblue" points="1356.25,-557 1366.25,-553.5 1356.25,-550 1356.25,-557"/>
</g>
<!-- Node29 -->
<g id="node29" class="node"><title>Node29</title>
<g id="a_node29"><a xlink:href="$classLinux_1_1Scheduler.html#a5cb50b637d5fd3e5f9220bc23db0fb3f" xlink:title="Linux::Scheduler::register\l_delay_callback">
<polygon fill="white" stroke="black" points="692,-380.5 692,-410.5 820,-410.5 820,-380.5 692,-380.5"/>
<text text-anchor="start" x="700" y="-398.5" font-family="Helvetica,sans-Serif" font-size="10.00">Linux::Scheduler::register</text>
<text text-anchor="middle" x="756" y="-387.5" font-family="Helvetica,sans-Serif" font-size="10.00">_delay_callback</text>
</a>
</g>
</g>
<!-- Node7&#45;&gt;Node29 -->
<g id="edge31" class="edge"><title>Node7&#45;&gt;Node29</title>
<path fill="none" stroke="midnightblue" d="M629.851,-356.064C649.108,-362.132 674.638,-370.177 697.615,-377.417"/>
<polygon fill="midnightblue" stroke="midnightblue" points="696.691,-380.796 707.281,-380.463 698.795,-374.119 696.691,-380.796"/>
</g>
<!-- Node30 -->
<g id="node30" class="node"><title>Node30</title>
<g id="a_node30"><a xlink:href="$classLinux_1_1Scheduler.html#aa2be97cb8686d72cc322fb38f69a940c" xlink:title="Linux::Scheduler::register\l_io_process">
<polygon fill="white" stroke="black" points="858,-128.5 858,-158.5 986,-158.5 986,-128.5 858,-128.5"/>
<text text-anchor="start" x="866" y="-146.5" font-family="Helvetica,sans-Serif" font-size="10.00">Linux::Scheduler::register</text>
<text text-anchor="middle" x="922" y="-135.5" font-family="Helvetica,sans-Serif" font-size="10.00">_io_process</text>
</a>
</g>
</g>
<!-- Node7&#45;&gt;Node30 -->
<g id="edge33" class="edge"><title>Node7&#45;&gt;Node30</title>
<path fill="none" stroke="midnightblue" d="M601.894,-336.895C609.533,-308.405 636.168,-223.903 692,-184.5 716.631,-167.117 790.41,-156.065 847.639,-149.872"/>
<polygon fill="midnightblue" stroke="midnightblue" points="848.175,-153.335 857.754,-148.808 847.443,-146.373 848.175,-153.335"/>
</g>
<!-- Node31 -->
<g id="node31" class="node"><title>Node31</title>
<g id="a_node31"><a xlink:href="$classLinux_1_1Scheduler.html#abba967d02c28cb0b16a7cebbff9bc6d6" xlink:title="Linux::Scheduler::suspend\l_timer_procs">
<polygon fill="white" stroke="black" points="856,-285.5 856,-315.5 988,-315.5 988,-285.5 856,-285.5"/>
<text text-anchor="start" x="864" y="-303.5" font-family="Helvetica,sans-Serif" font-size="10.00">Linux::Scheduler::suspend</text>
<text text-anchor="middle" x="922" y="-292.5" font-family="Helvetica,sans-Serif" font-size="10.00">_timer_procs</text>
</a>
</g>
</g>
<!-- Node7&#45;&gt;Node31 -->
<g id="edge35" class="edge"><title>Node7&#45;&gt;Node31</title>
<path fill="none" stroke="midnightblue" d="M607.422,-336.859C622.035,-319.931 655.128,-285.434 692,-272.5 751.809,-251.52 825.177,-267.176 872.489,-282.192"/>
<polygon fill="midnightblue" stroke="midnightblue" points="871.583,-285.578 882.176,-285.373 873.767,-278.928 871.583,-285.578"/>
</g>
<!-- Node41 -->
<g id="node41" class="node"><title>Node41</title>
<g id="a_node41"><a xlink:href="$classLinux_1_1Scheduler.html#aee4e701b92cb4721c4de1bfcdcded70c" xlink:title="Linux::Scheduler::resume\l_timer_procs">
<polygon fill="white" stroke="black" points="858,-401.5 858,-431.5 986,-431.5 986,-401.5 858,-401.5"/>
<text text-anchor="start" x="866" y="-419.5" font-family="Helvetica,sans-Serif" font-size="10.00">Linux::Scheduler::resume</text>
<text text-anchor="middle" x="922" y="-408.5" font-family="Helvetica,sans-Serif" font-size="10.00">_timer_procs</text>
</a>
</g>
</g>
<!-- Node7&#45;&gt;Node41 -->
<g id="edge49" class="edge"><title>Node7&#45;&gt;Node41</title>
<path fill="none" stroke="midnightblue" d="M607.452,-356.013C622.113,-372.717 655.279,-406.756 692,-419.5 741.937,-436.832 801.767,-435.353 847.747,-429.927"/>
<polygon fill="midnightblue" stroke="midnightblue" points="848.452,-433.365 857.932,-428.634 847.571,-426.421 848.452,-433.365"/>
</g>
<!-- Node43 -->
<g id="node43" class="node"><title>Node43</title>
<g id="a_node43"><a xlink:href="$classLinux_1_1Scheduler.html#af23753e7c6bfa97553db215a64235455" xlink:title="Linux::Scheduler::in\l_timerprocess">
<polygon fill="white" stroke="black" points="704.5,-282.5 704.5,-312.5 807.5,-312.5 807.5,-282.5 704.5,-282.5"/>
<text text-anchor="start" x="712.5" y="-300.5" font-family="Helvetica,sans-Serif" font-size="10.00">Linux::Scheduler::in</text>
<text text-anchor="middle" x="756" y="-289.5" font-family="Helvetica,sans-Serif" font-size="10.00">_timerprocess</text>
</a>
</g>
</g>
<!-- Node7&#45;&gt;Node43 -->
<g id="edge51" class="edge"><title>Node7&#45;&gt;Node43</title>
<path fill="none" stroke="midnightblue" d="M629.851,-336.936C649.108,-330.868 674.638,-322.823 697.615,-315.583"/>
<polygon fill="midnightblue" stroke="midnightblue" points="698.795,-318.881 707.281,-312.537 696.691,-312.204 698.795,-318.881"/>
</g>
<!-- Node44 -->
<g id="node44" class="node"><title>Node44</title>
<g id="a_node44"><a xlink:href="$classLinux_1_1Scheduler.html#ac193459e3575c7a0588fdc72250c2044" xlink:title="Linux::Scheduler::register\l_timer_failsafe">
<polygon fill="white" stroke="black" points="692,-106.5 692,-136.5 820,-136.5 820,-106.5 692,-106.5"/>
<text text-anchor="start" x="700" y="-124.5" font-family="Helvetica,sans-Serif" font-size="10.00">Linux::Scheduler::register</text>
<text text-anchor="middle" x="756" y="-113.5" font-family="Helvetica,sans-Serif" font-size="10.00">_timer_failsafe</text>
</a>
</g>
</g>
<!-- Node7&#45;&gt;Node44 -->
<g id="edge52" class="edge"><title>Node7&#45;&gt;Node44</title>
<path fill="none" stroke="midnightblue" d="M601.679,-336.624C609.02,-305.467 635.607,-207.977 692,-151.5 695.599,-147.896 699.715,-144.666 704.082,-141.785"/>
<polygon fill="midnightblue" stroke="midnightblue" points="705.899,-144.777 712.717,-136.668 702.33,-138.755 705.899,-144.777"/>
</g>
<!-- Node45 -->
<g id="node45" class="node"><title>Node45</title>
<g id="a_node45"><a xlink:href="$classLinux_1_1Scheduler.html#ad6070a7ee637adf5101b1e6b6efbf8f6" xlink:title="Linux::Scheduler::system\l_initialized">
<polygon fill="white" stroke="black" points="692,-194.5 692,-224.5 820,-224.5 820,-194.5 692,-194.5"/>
<text text-anchor="start" x="700" y="-212.5" font-family="Helvetica,sans-Serif" font-size="10.00">Linux::Scheduler::system</text>
<text text-anchor="middle" x="756" y="-201.5" font-family="Helvetica,sans-Serif" font-size="10.00">_initialized</text>
</a>
</g>
</g>
<!-- Node7&#45;&gt;Node45 -->
<g id="edge53" class="edge"><title>Node7&#45;&gt;Node45</title>
<path fill="none" stroke="midnightblue" d="M605.844,-336.742C619.489,-316.378 653.525,-268.821 692,-239.5 696.815,-235.831 702.15,-232.451 707.619,-229.388"/>
<polygon fill="midnightblue" stroke="midnightblue" points="709.648,-232.276 716.882,-224.535 706.4,-226.075 709.648,-232.276"/>
</g>
<!-- Node47 -->
<g id="node47" class="node"><title>Node47</title>
<g id="a_node47"><a xlink:href="$classLinux_1_1Scheduler.html#ae72cfa66c849ffd882ef518c35c71e69" xlink:title="Linux::Scheduler::reboot">
<polygon fill="white" stroke="black" points="695,-506 695,-525 817,-525 817,-506 695,-506"/>
<text text-anchor="middle" x="756" y="-513" font-family="Helvetica,sans-Serif" font-size="10.00">Linux::Scheduler::reboot</text>
</a>
</g>
</g>
<!-- Node7&#45;&gt;Node47 -->
<g id="edge56" class="edge"><title>Node7&#45;&gt;Node47</title>
<path fill="none" stroke="midnightblue" d="M603.102,-356.113C613.174,-381.754 644.074,-452.468 692,-491.5 697.003,-495.574 702.772,-499.007 708.746,-501.885"/>
<polygon fill="midnightblue" stroke="midnightblue" points="707.652,-505.225 718.221,-505.964 710.42,-498.795 707.652,-505.225"/>
</g>
<!-- Node48 -->
<g id="node48" class="node"><title>Node48</title>
<g id="a_node48"><a xlink:href="$classLinux_1_1Scheduler.html#a392aebafcdfe9a812e4db4b7a9dcce9c" xlink:title="Linux::Scheduler::stop\l_clock">
<polygon fill="white" stroke="black" points="699,-331.5 699,-361.5 813,-361.5 813,-331.5 699,-331.5"/>
<text text-anchor="start" x="707" y="-349.5" font-family="Helvetica,sans-Serif" font-size="10.00">Linux::Scheduler::stop</text>
<text text-anchor="middle" x="756" y="-338.5" font-family="Helvetica,sans-Serif" font-size="10.00">_clock</text>
</a>
</g>
</g>
<!-- Node7&#45;&gt;Node48 -->
<g id="edge57" class="edge"><title>Node7&#45;&gt;Node48</title>
<path fill="none" stroke="midnightblue" d="M656.079,-346.5C666.674,-346.5 677.837,-346.5 688.695,-346.5"/>
<polygon fill="midnightblue" stroke="midnightblue" points="688.984,-350 698.984,-346.5 688.984,-343 688.984,-350"/>
</g>
<!-- Node9 -->
<g id="node9" class="node"><title>Node9</title>
<g id="a_node9"><a xlink:href="$namespaceAP__HAL.html#a71832f03d849a0c088f04fc98d3c8143" xlink:title="AP_HAL::panic">
<polygon fill="white" stroke="black" points="880,-196 880,-215 964,-215 964,-196 880,-196"/>
<text text-anchor="middle" x="922" y="-203" font-family="Helvetica,sans-Serif" font-size="10.00">AP_HAL::panic</text>
</a>
</g>
</g>
<!-- Node8&#45;&gt;Node9 -->
<g id="edge8" class="edge"><title>Node8&#45;&gt;Node9</title>
<path fill="none" stroke="midnightblue" d="M804.261,-87.0603C809.938,-89.52 815.358,-92.6123 820,-96.5 847.123,-119.217 831.741,-141.746 856,-167.5 865.103,-177.164 877.214,-185.141 888.513,-191.248"/>
<polygon fill="midnightblue" stroke="midnightblue" points="887.229,-194.522 897.729,-195.935 890.402,-188.282 887.229,-194.522"/>
</g>
<!-- Node8&#45;&gt;Node15 -->
<g id="edge14" class="edge"><title>Node8&#45;&gt;Node15</title>
<path fill="none" stroke="midnightblue" d="M810.246,-77.5C822.202,-77.5 835.091,-77.5 847.703,-77.5"/>
<polygon fill="midnightblue" stroke="midnightblue" points="847.734,-81.0001 857.734,-77.5 847.734,-74.0001 847.734,-81.0001"/>
</g>
<!-- Node24 -->
<g id="node24" class="node"><title>Node24</title>
<g id="a_node24"><a xlink:href="$classLinux_1_1Scheduler.html#a163eb7b285c95b1b1d036fc61d723910" xlink:title="Linux::Scheduler::\l_debug_stack">
<polygon fill="white" stroke="black" points="874.5,-0.5 874.5,-30.5 969.5,-30.5 969.5,-0.5 874.5,-0.5"/>
<text text-anchor="start" x="882.5" y="-18.5" font-family="Helvetica,sans-Serif" font-size="10.00">Linux::Scheduler::</text>
<text text-anchor="middle" x="922" y="-7.5" font-family="Helvetica,sans-Serif" font-size="10.00">_debug_stack</text>
</a>
</g>
</g>
<!-- Node8&#45;&gt;Node24 -->
<g id="edge23" class="edge"><title>Node8&#45;&gt;Node24</title>
<path fill="none" stroke="midnightblue" d="M782.266,-67.9484C805.918,-59.0066 841.923,-45.3951 871.325,-34.2794"/>
<polygon fill="midnightblue" stroke="midnightblue" points="872.9,-37.4259 881.016,-30.6158 870.425,-30.8782 872.9,-37.4259"/>
</g>
<!-- Node10 -->
<g id="node10" class="node"><title>Node10</title>
<g id="a_node10"><a xlink:href="$classAP__HAL_1_1RCInput.html#a2bea13d38f2b9ae8bf5193a3a69f0a31" xlink:title="AP_HAL::RCInput::teardown">
<polygon fill="white" stroke="black" points="1024,-196 1024,-215 1167,-215 1167,-196 1024,-196"/>
<text text-anchor="middle" x="1095.5" y="-203" font-family="Helvetica,sans-Serif" font-size="10.00">AP_HAL::RCInput::teardown</text>
</a>
</g>
</g>
<!-- Node9&#45;&gt;Node10 -->
<g id="edge9" class="edge"><title>Node9&#45;&gt;Node10</title>
<path fill="none" stroke="midnightblue" d="M964.079,-205.5C979.072,-205.5 996.594,-205.5 1013.84,-205.5"/>
<polygon fill="midnightblue" stroke="midnightblue" points="1013.94,-209 1023.94,-205.5 1013.94,-202 1013.94,-209"/>
</g>
<!-- Node14 -->
<g id="node14" class="node"><title>Node14</title>
<g id="a_node14"><a xlink:href="$classAP__HAL_1_1Scheduler.html#a78c4f1b1f192ac1c99544b6cc8f099b0" xlink:title="AP_HAL::Scheduler::\ldelay_microseconds">
<polygon fill="white" stroke="black" points="1209,-288.5 1209,-318.5 1319,-318.5 1319,-288.5 1209,-288.5"/>
<text text-anchor="start" x="1217" y="-306.5" font-family="Helvetica,sans-Serif" font-size="10.00">AP_HAL::Scheduler::</text>
<text text-anchor="middle" x="1264" y="-295.5" font-family="Helvetica,sans-Serif" font-size="10.00">delay_microseconds</text>
</a>
</g>
</g>
<!-- Node9&#45;&gt;Node14 -->
<g id="edge13" class="edge"><title>Node9&#45;&gt;Node14</title>
<path fill="none" stroke="midnightblue" d="M956.22,-215.075C1012.87,-231.405 1129.02,-264.884 1201.03,-285.638"/>
<polygon fill="midnightblue" stroke="midnightblue" points="1200.31,-289.072 1210.89,-288.479 1202.25,-282.346 1200.31,-289.072"/>
</g>
<!-- Node11 -->
<g id="node11" class="node"><title>Node11</title>
<g id="a_node11"><a xlink:href="$classAP__HAL_1_1RCInput.html#aee1fade33080edef83dd7db0fad0f7da" xlink:title="AP_HAL::RCInput::new\l_input">
<polygon fill="white" stroke="black" points="1203,-239.5 1203,-269.5 1325,-269.5 1325,-239.5 1203,-239.5"/>
<text text-anchor="start" x="1211" y="-257.5" font-family="Helvetica,sans-Serif" font-size="10.00">AP_HAL::RCInput::new</text>
<text text-anchor="middle" x="1264" y="-246.5" font-family="Helvetica,sans-Serif" font-size="10.00">_input</text>
</a>
</g>
</g>
<!-- Node10&#45;&gt;Node11 -->
<g id="edge10" class="edge"><title>Node10&#45;&gt;Node11</title>
<path fill="none" stroke="midnightblue" d="M1129,-215.064C1149.8,-221.186 1177.44,-229.321 1202.21,-236.611"/>
<polygon fill="midnightblue" stroke="midnightblue" points="1201.32,-239.997 1211.91,-239.463 1203.3,-233.282 1201.32,-239.997"/>
</g>
<!-- Node12 -->
<g id="node12" class="node"><title>Node12</title>
<g id="a_node12"><a xlink:href="$classAP__HAL_1_1RCInput.html#ae55f959c6115c1f41783af3a2b6c4fcd" xlink:title="AP_HAL::RCInput::num\l_channels">
<polygon fill="white" stroke="black" points="1203,-190.5 1203,-220.5 1325,-220.5 1325,-190.5 1203,-190.5"/>
<text text-anchor="start" x="1211" y="-208.5" font-family="Helvetica,sans-Serif" font-size="10.00">AP_HAL::RCInput::num</text>
<text text-anchor="middle" x="1264" y="-197.5" font-family="Helvetica,sans-Serif" font-size="10.00">_channels</text>
</a>
</g>
</g>
<!-- Node10&#45;&gt;Node12 -->
<g id="edge11" class="edge"><title>Node10&#45;&gt;Node12</title>
<path fill="none" stroke="midnightblue" d="M1167.11,-205.5C1175.55,-205.5 1184.18,-205.5 1192.62,-205.5"/>
<polygon fill="midnightblue" stroke="midnightblue" points="1192.8,-209 1202.8,-205.5 1192.8,-202 1192.8,-209"/>
</g>
<!-- Node13 -->
<g id="node13" class="node"><title>Node13</title>
<g id="a_node13"><a xlink:href="$classAP__HAL_1_1RCInput.html#a078fd7e6d2e6a899009ec674a8e03498" xlink:title="AP_HAL::RCInput::read">
<polygon fill="white" stroke="black" points="1203,-152 1203,-171 1325,-171 1325,-152 1203,-152"/>
<text text-anchor="middle" x="1264" y="-159" font-family="Helvetica,sans-Serif" font-size="10.00">AP_HAL::RCInput::read</text>
</a>
</g>
</g>
<!-- Node10&#45;&gt;Node13 -->
<g id="edge12" class="edge"><title>Node10&#45;&gt;Node13</title>
<path fill="none" stroke="midnightblue" d="M1132.63,-195.953C1157.39,-189.408 1190.45,-180.672 1217.08,-173.635"/>
<polygon fill="midnightblue" stroke="midnightblue" points="1218.17,-176.968 1226.94,-171.029 1216.38,-170.2 1218.17,-176.968"/>
</g>
<!-- Node16 -->
<g id="node16" class="node"><title>Node16</title>
<g id="a_node16"><a xlink:href="$classAP__HAL_1_1UARTDriver.html#a6ceedc792594e59fc7d80b39a435f027" xlink:title="AP_HAL::UARTDriver\l::printf">
<polygon fill="white" stroke="black" points="1038,-102.5 1038,-132.5 1153,-132.5 1153,-102.5 1038,-102.5"/>
<text text-anchor="start" x="1046" y="-120.5" font-family="Helvetica,sans-Serif" font-size="10.00">AP_HAL::UARTDriver</text>
<text text-anchor="middle" x="1095.5" y="-109.5" font-family="Helvetica,sans-Serif" font-size="10.00">::printf</text>
</a>
</g>
</g>
<!-- Node15&#45;&gt;Node16 -->
<g id="edge15" class="edge"><title>Node15&#45;&gt;Node16</title>
<path fill="none" stroke="midnightblue" d="M986.373,-92.2809C999.963,-95.4506 1014.36,-98.8084 1028.06,-102.004"/>
<polygon fill="midnightblue" stroke="midnightblue" points="1027.36,-105.435 1037.9,-104.298 1028.95,-98.6179 1027.36,-105.435"/>
</g>
<!-- Node17 -->
<g id="node17" class="node"><title>Node17</title>
<g id="a_node17"><a xlink:href="$classAP__HAL_1_1UARTDriver.html#aa8abfb6d6641299472c29ac1edde559f" xlink:title="AP_HAL::UARTDriver\l::vprintf">
<polygon fill="white" stroke="black" points="1206.5,-102.5 1206.5,-132.5 1321.5,-132.5 1321.5,-102.5 1206.5,-102.5"/>
<text text-anchor="start" x="1214.5" y="-120.5" font-family="Helvetica,sans-Serif" font-size="10.00">AP_HAL::UARTDriver</text>
<text text-anchor="middle" x="1264" y="-109.5" font-family="Helvetica,sans-Serif" font-size="10.00">::vprintf</text>
</a>
</g>
</g>
<!-- Node16&#45;&gt;Node17 -->
<g id="edge16" class="edge"><title>Node16&#45;&gt;Node17</title>
<path fill="none" stroke="midnightblue" d="M1153.33,-117.5C1167.13,-117.5 1182.01,-117.5 1196.22,-117.5"/>
<polygon fill="midnightblue" stroke="midnightblue" points="1196.42,-121 1206.42,-117.5 1196.42,-114 1196.42,-121"/>
</g>
<!-- Node18 -->
<g id="node18" class="node"><title>Node18</title>
<g id="a_node18"><a xlink:href="$print__vprintf_8cpp.html#a1534eaeab54696df96975b56d9f49212" xlink:title="print_vprintf">
<polygon fill="white" stroke="black" points="1392,-114 1392,-133 1460,-133 1460,-114 1392,-114"/>
<text text-anchor="middle" x="1426" y="-121" font-family="Helvetica,sans-Serif" font-size="10.00">print_vprintf</text>
</a>
</g>
</g>
<!-- Node17&#45;&gt;Node18 -->
<g id="edge17" class="edge"><title>Node17&#45;&gt;Node18</title>
<path fill="none" stroke="midnightblue" d="M1321.86,-119.632C1341.47,-120.368 1363.12,-121.179 1381.49,-121.868"/>
<polygon fill="midnightblue" stroke="midnightblue" points="1381.49,-125.371 1391.61,-122.248 1381.75,-118.376 1381.49,-125.371"/>
</g>
<!-- Node19 -->
<g id="node19" class="node"><title>Node19</title>
<g id="a_node19"><a xlink:href="$classAP__HAL_1_1Print.html#acc65391952a43334f8f5c9bef341f501" xlink:title="AP_HAL::Print::write">
<polygon fill="white" stroke="black" points="1544.5,-44 1544.5,-63 1652.5,-63 1652.5,-44 1544.5,-44"/>
<text text-anchor="middle" x="1598.5" y="-51" font-family="Helvetica,sans-Serif" font-size="10.00">AP_HAL::Print::write</text>
</a>
</g>
</g>
<!-- Node18&#45;&gt;Node19 -->
<g id="edge18" class="edge"><title>Node18&#45;&gt;Node19</title>
<path fill="none" stroke="midnightblue" d="M1443.15,-113.932C1462.53,-102.768 1496.26,-84.3312 1527,-72.5 1533.28,-70.083 1539.99,-67.8516 1546.67,-65.8325"/>
<polygon fill="midnightblue" stroke="midnightblue" points="1547.76,-69.1612 1556.4,-63.0296 1545.82,-62.4348 1547.76,-69.1612"/>
</g>
<!-- Node20 -->
<g id="node20" class="node"><title>Node20</title>
<g id="a_node20"><a xlink:href="$ftoa__engine_8cpp.html#a1c28234da8f20b43c85890d4bb452947" xlink:title="ftoa_engine">
<polygon fill="white" stroke="black" points="1565,-196 1565,-215 1632,-215 1632,-196 1565,-196"/>
<text text-anchor="middle" x="1598.5" y="-203" font-family="Helvetica,sans-Serif" font-size="10.00">ftoa_engine</text>
</a>
</g>
</g>
<!-- Node18&#45;&gt;Node20 -->
<g id="edge19" class="edge"><title>Node18&#45;&gt;Node20</title>
<path fill="none" stroke="midnightblue" d="M1439.57,-133.172C1457.87,-146.837 1493.35,-171.768 1527,-186.5 1535.78,-190.346 1545.53,-193.578 1554.91,-196.223"/>
<polygon fill="midnightblue" stroke="midnightblue" points="1554.31,-199.685 1564.87,-198.864 1556.1,-192.919 1554.31,-199.685"/>
</g>
<!-- Node21 -->
<g id="node21" class="node"><title>Node21</title>
<g id="a_node21"><a xlink:href="$replace_8cpp.html#a880bcc7b85a09e6254691bebd5344b51" xlink:title="strnlen">
<polygon fill="white" stroke="black" points="1575.5,-158 1575.5,-177 1621.5,-177 1621.5,-158 1575.5,-158"/>
<text text-anchor="middle" x="1598.5" y="-165" font-family="Helvetica,sans-Serif" font-size="10.00">strnlen</text>
</a>
</g>
</g>
<!-- Node18&#45;&gt;Node21 -->
<g id="edge20" class="edge"><title>Node18&#45;&gt;Node21</title>
<path fill="none" stroke="midnightblue" d="M1460.28,-132.088C1490.71,-139.941 1535.42,-151.479 1565.45,-159.23"/>
<polygon fill="midnightblue" stroke="midnightblue" points="1564.86,-162.692 1575.42,-161.801 1566.61,-155.914 1564.86,-162.692"/>
</g>
<!-- Node22 -->
<g id="node22" class="node"><title>Node22</title>
<g id="a_node22"><a xlink:href="$utoa__invert_8cpp.html#a34926f552460b47c414ec4d83b32815c" xlink:title="ulltoa_invert">
<polygon fill="white" stroke="black" points="1564,-120 1564,-139 1633,-139 1633,-120 1564,-120"/>
<text text-anchor="middle" x="1598.5" y="-127" font-family="Helvetica,sans-Serif" font-size="10.00">ulltoa_invert</text>
</a>
</g>
</g>
<!-- Node18&#45;&gt;Node22 -->
<g id="edge21" class="edge"><title>Node18&#45;&gt;Node22</title>
<path fill="none" stroke="midnightblue" d="M1460.28,-124.671C1486.86,-125.607 1524.35,-126.926 1553.43,-127.949"/>
<polygon fill="midnightblue" stroke="midnightblue" points="1553.61,-131.457 1563.72,-128.311 1553.85,-124.462 1553.61,-131.457"/>
</g>
<!-- Node23 -->
<g id="node23" class="node"><title>Node23</title>
<g id="a_node23"><a xlink:href="$utoa__invert_8cpp.html#a5d99bba8e697c1e11da489d88fca8559" xlink:title="ultoa_invert">
<polygon fill="white" stroke="black" points="1565,-82 1565,-101 1632,-101 1632,-82 1565,-82"/>
<text text-anchor="middle" x="1598.5" y="-89" font-family="Helvetica,sans-Serif" font-size="10.00">ultoa_invert</text>
</a>
</g>
</g>
<!-- Node18&#45;&gt;Node23 -->
<g id="edge22" class="edge"><title>Node18&#45;&gt;Node23</title>
<path fill="none" stroke="midnightblue" d="M1460.28,-117.254C1487.33,-112.178 1525.66,-104.983 1554.94,-99.488"/>
<polygon fill="midnightblue" stroke="midnightblue" points="1555.7,-102.906 1564.88,-97.6214 1554.41,-96.0262 1555.7,-102.906"/>
</g>
<!-- Node24&#45;&gt;Node6 -->
<g id="edge24" class="edge"><title>Node24&#45;&gt;Node6</title>
<path fill="none" stroke="midnightblue" d="M874.308,-6.62654C824.886,0.132112 746.627,3.06017 692,-32.5 535.631,-134.291 476.812,-377.622 462.63,-448.692"/>
<polygon fill="midnightblue" stroke="midnightblue" points="459.117,-448.425 460.667,-458.906 465.991,-449.746 459.117,-448.425"/>
</g>
<!-- Node25 -->
<g id="node25" class="node"><title>Node25</title>
<g id="a_node25"><a xlink:href="$classLinux_1_1Thread.html#a6884970a0811ae21953c57fb98aa6e96" xlink:title="Linux::Thread::get\l_stack_usage">
<polygon fill="white" stroke="black" points="2014,-151.5 2014,-181.5 2109,-181.5 2109,-151.5 2014,-151.5"/>
<text text-anchor="start" x="2022" y="-169.5" font-family="Helvetica,sans-Serif" font-size="10.00">Linux::Thread::get</text>
<text text-anchor="middle" x="2061.5" y="-158.5" font-family="Helvetica,sans-Serif" font-size="10.00">_stack_usage</text>
</a>
</g>
</g>
<!-- Node24&#45;&gt;Node25 -->
<g id="edge25" class="edge"><title>Node24&#45;&gt;Node25</title>
<path fill="none" stroke="midnightblue" d="M969.747,-15.5C1035.29,-15.5 1158.23,-15.5 1263,-15.5 1263,-15.5 1263,-15.5 1762.5,-15.5 1875.44,-15.5 1988.99,-102.874 2036.87,-144.695"/>
<polygon fill="midnightblue" stroke="midnightblue" points="2034.71,-147.452 2044.51,-151.469 2039.35,-142.215 2034.71,-147.452"/>
</g>
<!-- Node26&#45;&gt;Node6 -->
<g id="edge27" class="edge"><title>Node26&#45;&gt;Node6</title>
<path fill="none" stroke="midnightblue" d="M696.319,-636.345C650.489,-638.705 587.065,-635.128 541,-605.5 498.019,-577.855 474.417,-518.976 464.573,-488.187"/>
<polygon fill="midnightblue" stroke="midnightblue" points="467.805,-486.782 461.558,-478.225 461.105,-488.81 467.805,-486.782"/>
</g>
<!-- Node27 -->
<g id="node27" class="node"><title>Node27</title>
<g id="a_node27"><a xlink:href="$classLinux_1_1Scheduler.html#a647872aff158b510c56862f51f951538" xlink:title="Linux::Scheduler::microsleep">
<polygon fill="white" stroke="black" points="1527,-544 1527,-563 1670,-563 1670,-544 1527,-544"/>
<text text-anchor="middle" x="1598.5" y="-551" font-family="Helvetica,sans-Serif" font-size="10.00">Linux::Scheduler::microsleep</text>
</a>
</g>
</g>
<!-- Node26&#45;&gt;Node27 -->
<g id="edge28" class="edge"><title>Node26&#45;&gt;Node27</title>
<path fill="none" stroke="midnightblue" d="M815.532,-629.5C882.839,-629.5 996.648,-629.5 1094.5,-629.5 1094.5,-629.5 1094.5,-629.5 1265,-629.5 1376.39,-629.5 1503.62,-588.462 1563.26,-566.697"/>
<polygon fill="midnightblue" stroke="midnightblue" points="1564.75,-569.878 1572.91,-563.125 1562.32,-563.312 1564.75,-569.878"/>
</g>
<!-- Node28&#45;&gt;Node27 -->
<g id="edge30" class="edge"><title>Node28&#45;&gt;Node27</title>
<path fill="none" stroke="midnightblue" d="M1485.68,-553.5C1495.75,-553.5 1506.37,-553.5 1516.9,-553.5"/>
<polygon fill="midnightblue" stroke="midnightblue" points="1516.95,-557 1526.95,-553.5 1516.95,-550 1516.95,-557"/>
</g>
<!-- Node30&#45;&gt;Node16 -->
<g id="edge34" class="edge"><title>Node30&#45;&gt;Node16</title>
<path fill="none" stroke="midnightblue" d="M986.373,-133.892C999.831,-131.852 1014.08,-129.692 1027.66,-127.633"/>
<polygon fill="midnightblue" stroke="midnightblue" points="1028.53,-131.041 1037.9,-126.081 1027.48,-124.12 1028.53,-131.041"/>
</g>
<!-- Node32 -->
<g id="node32" class="node"><title>Node32</title>
<g id="a_node32"><a xlink:href="$classLinux_1_1Semaphore.html#afc4c8706abb7e68aa4001ea372dc614e" xlink:title="Linux::Semaphore::take">
<polygon fill="white" stroke="black" points="1035.5,-341 1035.5,-360 1155.5,-360 1155.5,-341 1035.5,-341"/>
<text text-anchor="middle" x="1095.5" y="-348" font-family="Helvetica,sans-Serif" font-size="10.00">Linux::Semaphore::take</text>
</a>
</g>
</g>
<!-- Node31&#45;&gt;Node32 -->
<g id="edge36" class="edge"><title>Node31&#45;&gt;Node32</title>
<path fill="none" stroke="midnightblue" d="M974.456,-315.502C999.233,-322.725 1028.58,-331.282 1052.06,-338.127"/>
<polygon fill="midnightblue" stroke="midnightblue" points="1051.15,-341.508 1061.73,-340.947 1053.11,-334.788 1051.15,-341.508"/>
</g>
<!-- Node32&#45;&gt;Node14 -->
<g id="edge48" class="edge"><title>Node32&#45;&gt;Node14</title>
<path fill="none" stroke="midnightblue" d="M1130.19,-340.989C1150.24,-335.331 1176.31,-327.972 1200.04,-321.274"/>
<polygon fill="midnightblue" stroke="midnightblue" points="1201.02,-324.634 1209.69,-318.549 1199.11,-317.897 1201.02,-324.634"/>
</g>
<!-- Node33 -->
<g id="node33" class="node"><title>Node33</title>
<g id="a_node33"><a xlink:href="$classLinux_1_1Semaphore.html#a561b4f40f3a76335f1a686c2aed526f9" xlink:title="Linux::Semaphore::take\l_nonblocking">
<polygon fill="white" stroke="black" points="1204,-337.5 1204,-367.5 1324,-367.5 1324,-337.5 1204,-337.5"/>
<text text-anchor="start" x="1212" y="-355.5" font-family="Helvetica,sans-Serif" font-size="10.00">Linux::Semaphore::take</text>
<text text-anchor="middle" x="1264" y="-344.5" font-family="Helvetica,sans-Serif" font-size="10.00">_nonblocking</text>
</a>
</g>
</g>
<!-- Node32&#45;&gt;Node33 -->
<g id="edge37" class="edge"><title>Node32&#45;&gt;Node33</title>
<path fill="none" stroke="midnightblue" d="M1155.67,-351.211C1167.99,-351.359 1181.07,-351.516 1193.72,-351.668"/>
<polygon fill="midnightblue" stroke="midnightblue" points="1193.7,-355.168 1203.74,-351.788 1193.78,-348.168 1193.7,-355.168"/>
</g>
<!-- Node34 -->
<g id="node34" class="node"><title>Node34</title>
<g id="a_node34"><a xlink:href="$namespaceAP__HAL.html#a7aa0ce7625c9680e30ff4a99940907a5" xlink:title="AP_HAL::micros64">
<polygon fill="white" stroke="black" points="1213.5,-468 1213.5,-487 1314.5,-487 1314.5,-468 1213.5,-468"/>
<text text-anchor="middle" x="1264" y="-475" font-family="Helvetica,sans-Serif" font-size="10.00">AP_HAL::micros64</text>
</a>
</g>
</g>
<!-- Node32&#45;&gt;Node34 -->
<g id="edge38" class="edge"><title>Node32&#45;&gt;Node34</title>
<path fill="none" stroke="midnightblue" d="M1114.76,-360.139C1129.35,-368.13 1150.09,-380.145 1167,-392.5 1196.44,-414.007 1227.5,-442.782 1246.06,-460.725"/>
<polygon fill="midnightblue" stroke="midnightblue" points="1243.83,-463.441 1253.43,-467.92 1248.72,-458.431 1243.83,-463.441"/>
</g>
<!-- Node34&#45;&gt;Node7 -->
<g id="edge39" class="edge"><title>Node34&#45;&gt;Node7</title>
<path fill="none" stroke="midnightblue" d="M1213.15,-485.837C1110.24,-500.659 869.118,-522.912 692,-441.5 655.785,-424.854 626.244,-387.268 610.916,-364.682"/>
<polygon fill="midnightblue" stroke="midnightblue" points="613.823,-362.733 605.409,-356.294 607.972,-366.574 613.823,-362.733"/>
</g>
<!-- Node34&#45;&gt;Node35 -->
<g id="edge40" class="edge"><title>Node34&#45;&gt;Node35</title>
<path fill="none" stroke="midnightblue" d="M1314.75,-481.542C1326.14,-482.468 1338.5,-483.472 1350.68,-484.461"/>
<polygon fill="midnightblue" stroke="midnightblue" points="1350.59,-487.966 1360.84,-485.287 1351.16,-480.989 1350.59,-487.966"/>
</g>
<!-- Node35&#45;&gt;Node27 -->
<g id="edge41" class="edge"><title>Node35&#45;&gt;Node27</title>
<path fill="none" stroke="midnightblue" d="M1467.84,-505.59C1496.53,-516.192 1534.53,-530.234 1561.97,-540.372"/>
<polygon fill="midnightblue" stroke="midnightblue" points="1560.97,-543.734 1571.57,-543.917 1563.4,-537.168 1560.97,-543.734"/>
</g>
<!-- Node36 -->
<g id="node36" class="node"><title>Node36</title>
<g id="a_node36"><a xlink:href="$classLinux_1_1Scheduler.html#ab373a83d818679432520ea881044b2a7" xlink:title="Linux::Scheduler::teardown">
<polygon fill="white" stroke="black" points="1531,-357 1531,-376 1666,-376 1666,-357 1531,-357"/>
<text text-anchor="middle" x="1598.5" y="-364" font-family="Helvetica,sans-Serif" font-size="10.00">Linux::Scheduler::teardown</text>
</a>
</g>
</g>
<!-- Node35&#45;&gt;Node36 -->
<g id="edge42" class="edge"><title>Node35&#45;&gt;Node36</title>
<path fill="none" stroke="midnightblue" d="M1447.91,-475.295C1480.42,-451.65 1542.78,-406.295 1575.78,-382.294"/>
<polygon fill="midnightblue" stroke="midnightblue" points="1578.23,-384.839 1584.26,-376.127 1574.12,-379.178 1578.23,-384.839"/>
</g>
<!-- Node37 -->
<g id="node37" class="node"><title>Node37</title>
<g id="a_node37"><a xlink:href="$classLinux_1_1PeriodicThread.html#a136aaf6e713f63b246fc4a2905e6e9a1" xlink:title="Linux::PeriodicThread\l::stop">
<polygon fill="white" stroke="black" points="1706,-351.5 1706,-381.5 1817,-381.5 1817,-351.5 1706,-351.5"/>
<text text-anchor="start" x="1714" y="-369.5" font-family="Helvetica,sans-Serif" font-size="10.00">Linux::PeriodicThread</text>
<text text-anchor="middle" x="1761.5" y="-358.5" font-family="Helvetica,sans-Serif" font-size="10.00">::stop</text>
</a>
</g>
</g>
<!-- Node36&#45;&gt;Node37 -->
<g id="edge43" class="edge"><title>Node36&#45;&gt;Node37</title>
<path fill="none" stroke="midnightblue" d="M1666.38,-366.5C1676.02,-366.5 1685.94,-366.5 1695.54,-366.5"/>
<polygon fill="midnightblue" stroke="midnightblue" points="1695.82,-370 1705.82,-366.5 1695.82,-363 1695.82,-370"/>
</g>
<!-- Node40 -->
<g id="node40" class="node"><title>Node40</title>
<g id="a_node40"><a xlink:href="$classLinux_1_1Thread.html#a32b7d184279634922e2f3b23b584fbcd" xlink:title="Linux::Thread::join">
<polygon fill="white" stroke="black" points="1713,-313 1713,-332 1810,-332 1810,-313 1713,-313"/>
<text text-anchor="middle" x="1761.5" y="-320" font-family="Helvetica,sans-Serif" font-size="10.00">Linux::Thread::join</text>
</a>
</g>
</g>
<!-- Node36&#45;&gt;Node40 -->
<g id="edge47" class="edge"><title>Node36&#45;&gt;Node40</title>
<path fill="none" stroke="midnightblue" d="M1634.43,-356.953C1658.28,-350.437 1690.07,-341.749 1715.76,-334.728"/>
<polygon fill="midnightblue" stroke="midnightblue" points="1716.91,-338.041 1725.63,-332.029 1715.06,-331.289 1716.91,-338.041"/>
</g>
<!-- Node38 -->
<g id="node38" class="node"><title>Node38</title>
<g id="a_node38"><a xlink:href="$classLinux_1_1Thread.html#a240d7b48a9a8eb43638f67295a1819e5" xlink:title="Linux::Thread::is_started">
<polygon fill="white" stroke="black" points="1853,-281 1853,-300 1978,-300 1978,-281 1853,-281"/>
<text text-anchor="middle" x="1915.5" y="-288" font-family="Helvetica,sans-Serif" font-size="10.00">Linux::Thread::is_started</text>
</a>
</g>
</g>
<!-- Node37&#45;&gt;Node38 -->
<g id="edge44" class="edge"><title>Node37&#45;&gt;Node38</title>
<path fill="none" stroke="midnightblue" d="M1796.06,-351.436C1803.02,-348.222 1810.27,-344.801 1817,-341.5 1841.17,-329.644 1868.28,-315.385 1887.77,-304.962"/>
<polygon fill="midnightblue" stroke="midnightblue" points="1889.52,-307.994 1896.67,-300.18 1886.21,-301.826 1889.52,-307.994"/>
</g>
<!-- Node38&#45;&gt;Node25 -->
<g id="edge45" class="edge"><title>Node38&#45;&gt;Node25</title>
<path fill="none" stroke="midnightblue" d="M1927.8,-280.77C1950.68,-261.064 2003.02,-215.996 2034.7,-188.717"/>
<polygon fill="midnightblue" stroke="midnightblue" points="2037.37,-191.038 2042.66,-181.86 2032.8,-185.733 2037.37,-191.038"/>
</g>
<!-- Node39 -->
<g id="node39" class="node"><title>Node39</title>
<g id="a_node39"><a xlink:href="$classLinux_1_1Thread.html#a8d3282b714faaf68eae534e9276419f0" xlink:title="Linux::Thread::set\l_stack_size">
<polygon fill="white" stroke="black" points="2014,-275.5 2014,-305.5 2109,-305.5 2109,-275.5 2014,-275.5"/>
<text text-anchor="start" x="2022" y="-293.5" font-family="Helvetica,sans-Serif" font-size="10.00">Linux::Thread::set</text>
<text text-anchor="middle" x="2061.5" y="-282.5" font-family="Helvetica,sans-Serif" font-size="10.00">_stack_size</text>
</a>
</g>
</g>
<!-- Node38&#45;&gt;Node39 -->
<g id="edge46" class="edge"><title>Node38&#45;&gt;Node39</title>
<path fill="none" stroke="midnightblue" d="M1978.4,-290.5C1986.86,-290.5 1995.5,-290.5 2003.86,-290.5"/>
<polygon fill="midnightblue" stroke="midnightblue" points="2003.87,-294 2013.87,-290.5 2003.87,-287 2003.87,-294"/>
</g>
<!-- Node42 -->
<g id="node42" class="node"><title>Node42</title>
<g id="a_node42"><a xlink:href="$classLinux_1_1Semaphore.html#a216f91636f64b57b59d43ef64af91624" xlink:title="Linux::Semaphore::give">
<polygon fill="white" stroke="black" points="1036,-402 1036,-421 1155,-421 1155,-402 1036,-402"/>
<text text-anchor="middle" x="1095.5" y="-409" font-family="Helvetica,sans-Serif" font-size="10.00">Linux::Semaphore::give</text>
</a>
</g>
</g>
<!-- Node41&#45;&gt;Node42 -->
<g id="edge50" class="edge"><title>Node41&#45;&gt;Node42</title>
<path fill="none" stroke="midnightblue" d="M986.373,-414.652C999.172,-414.279 1012.69,-413.885 1025.66,-413.507"/>
<polygon fill="midnightblue" stroke="midnightblue" points="1026.04,-416.998 1035.93,-413.208 1025.83,-410.001 1026.04,-416.998"/>
</g>
<!-- Node45&#45;&gt;Node9 -->
<g id="edge54" class="edge"><title>Node45&#45;&gt;Node9</title>
<path fill="none" stroke="midnightblue" d="M820.407,-207.953C836.518,-207.561 853.641,-207.143 869.105,-206.766"/>
<polygon fill="midnightblue" stroke="midnightblue" points="869.602,-210.255 879.513,-206.512 869.431,-203.257 869.602,-210.255"/>
</g>
<!-- Node46 -->
<g id="node46" class="node"><title>Node46</title>
<g id="a_node46"><a xlink:href="$classLinux_1_1Scheduler.html#ac52c8da3f1f4fd79c50bd64379daf399" xlink:title="Linux::Scheduler::\l_wait_all_threads">
<polygon fill="white" stroke="black" points="874.5,-234.5 874.5,-264.5 969.5,-264.5 969.5,-234.5 874.5,-234.5"/>
<text text-anchor="start" x="882.5" y="-252.5" font-family="Helvetica,sans-Serif" font-size="10.00">Linux::Scheduler::</text>
<text text-anchor="middle" x="922" y="-241.5" font-family="Helvetica,sans-Serif" font-size="10.00">_wait_all_threads</text>
</a>
</g>
</g>
<!-- Node45&#45;&gt;Node46 -->
<g id="edge55" class="edge"><title>Node45&#45;&gt;Node46</title>
<path fill="none" stroke="midnightblue" d="M818.534,-224.508C833.525,-228.165 849.491,-232.059 864.249,-235.658"/>
<polygon fill="midnightblue" stroke="midnightblue" points="863.7,-239.127 874.245,-238.096 865.359,-232.326 863.7,-239.127"/>
</g>
<!-- Node49 -->
<g id="node49" class="node"><title>Node49</title>
<g id="a_node49"><a xlink:href="$classLinux_1_1Scheduler.html#a70b024d7d0886bf47b46cc3ee310d638" xlink:title="Linux::Scheduler::\l_run_io">
<polygon fill="white" stroke="black" points="874.5,-335.5 874.5,-365.5 969.5,-365.5 969.5,-335.5 874.5,-335.5"/>
<text text-anchor="start" x="882.5" y="-353.5" font-family="Helvetica,sans-Serif" font-size="10.00">Linux::Scheduler::</text>
<text text-anchor="middle" x="922" y="-342.5" font-family="Helvetica,sans-Serif" font-size="10.00">_run_io</text>
</a>
</g>
</g>
<!-- Node48&#45;&gt;Node49 -->
<g id="edge58" class="edge"><title>Node48&#45;&gt;Node49</title>
<path fill="none" stroke="midnightblue" d="M813.439,-347.877C829.86,-348.277 847.799,-348.715 864.239,-349.116"/>
<polygon fill="midnightblue" stroke="midnightblue" points="864.172,-352.615 874.255,-349.36 864.343,-345.617 864.172,-352.615"/>
</g>
<!-- Node49&#45;&gt;Node32 -->
<g id="edge59" class="edge"><title>Node49&#45;&gt;Node32</title>
<path fill="none" stroke="midnightblue" d="M969.863,-350.5C986.934,-350.5 1006.61,-350.5 1025.22,-350.5"/>
<polygon fill="midnightblue" stroke="midnightblue" points="1025.42,-354 1035.42,-350.5 1025.42,-347 1025.42,-354"/>
</g>
<!-- Node49&#45;&gt;Node42 -->
<g id="edge60" class="edge"><title>Node49&#45;&gt;Node42</title>
<path fill="none" stroke="midnightblue" d="M965.393,-365.579C993.84,-375.697 1030.92,-388.887 1058.05,-398.534"/>
<polygon fill="midnightblue" stroke="midnightblue" points="1056.96,-401.862 1067.55,-401.915 1059.3,-395.266 1056.96,-401.862"/>
</g>
</g>
</svg>
