<?xml version="1.0" encoding="UTF-8" standalone="no"?>
<!DOCTYPE svg PUBLIC "-//W3C//DTD SVG 1.1//EN"
 "http://www.w3.org/Graphics/SVG/1.1/DTD/svg11.dtd">
<!-- Generated by graphviz version 2.38.0 (20140413.2041)
 -->
<!-- Title: AC_AttitudeControl::thrust_heading_rotation_angles Pages: 1 -->
<svg width="1694pt" height="595pt"
 viewBox="0.00 0.00 1694.00 594.50" xmlns="http://www.w3.org/2000/svg" xmlns:xlink="http://www.w3.org/1999/xlink">
<g id="graph0" class="graph" transform="scale(1 1) rotate(0) translate(4 590.5)">
<title>AC_AttitudeControl::thrust_heading_rotation_angles</title>
<polygon fill="white" stroke="none" points="-4,4 -4,-590.5 1690,-590.5 1690,4 -4,4"/>
<!-- Node1 -->
<g id="node1" class="node"><title>Node1</title>
<polygon fill="#bfbfbf" stroke="black" points="0,-297 0,-338 124,-338 124,-297 0,-297"/>
<text text-anchor="start" x="8" y="-326" font-family="Helvetica,sans-Serif" font-size="10.00">AC_AttitudeControl</text>
<text text-anchor="start" x="8" y="-315" font-family="Helvetica,sans-Serif" font-size="10.00">::thrust_heading_rotation</text>
<text text-anchor="middle" x="62" y="-304" font-family="Helvetica,sans-Serif" font-size="10.00">_angles</text>
</g>
<!-- Node2 -->
<g id="node2" class="node"><title>Node2</title>
<g id="a_node2"><a xlink:href="$classAC__AttitudeControl.html#a7b9cf8568575052931b43054717b4f87" xlink:title="AC_AttitudeControl\l::attitude_controller\l_run_quat">
<polygon fill="white" stroke="black" points="160,-335 160,-376 261,-376 261,-335 160,-335"/>
<text text-anchor="start" x="168" y="-364" font-family="Helvetica,sans-Serif" font-size="10.00">AC_AttitudeControl</text>
<text text-anchor="start" x="168" y="-353" font-family="Helvetica,sans-Serif" font-size="10.00">::attitude_controller</text>
<text text-anchor="middle" x="210.5" y="-342" font-family="Helvetica,sans-Serif" font-size="10.00">_run_quat</text>
</a>
</g>
</g>
<!-- Node1&#45;&gt;Node2 -->
<g id="edge1" class="edge"><title>Node1&#45;&gt;Node2</title>
<path fill="none" stroke="midnightblue" d="M133.997,-335.916C142.642,-338.158 151.329,-340.411 159.576,-342.55"/>
<polygon fill="midnightblue" stroke="midnightblue" points="134.839,-332.518 124.28,-333.395 133.081,-339.294 134.839,-332.518"/>
</g>
<!-- Node12 -->
<g id="node12" class="node"><title>Node12</title>
<g id="a_node12"><a xlink:href="$classAC__AttitudeControl.html#a080c9527e2d43eac62e370fbe61eaa8d" xlink:title="AC_AttitudeControl\l::lean_angle_max">
<polygon fill="white" stroke="black" points="312.5,-207.5 312.5,-237.5 413.5,-237.5 413.5,-207.5 312.5,-207.5"/>
<text text-anchor="start" x="320.5" y="-225.5" font-family="Helvetica,sans-Serif" font-size="10.00">AC_AttitudeControl</text>
<text text-anchor="middle" x="363" y="-214.5" font-family="Helvetica,sans-Serif" font-size="10.00">::lean_angle_max</text>
</a>
</g>
</g>
<!-- Node1&#45;&gt;Node12 -->
<g id="edge55" class="edge"><title>Node1&#45;&gt;Node12</title>
<path fill="none" stroke="midnightblue" d="M134.05,-294.926C189.854,-277.195 266.005,-253 314.599,-237.56"/>
<polygon fill="midnightblue" stroke="midnightblue" points="132.699,-291.682 124.229,-298.046 134.819,-298.354 132.699,-291.682"/>
</g>
<!-- Node3 -->
<g id="node3" class="node"><title>Node3</title>
<g id="a_node3"><a xlink:href="$classAC__AttitudeControl.html#a2115e6e5df7db5798f73423d5d2a5149" xlink:title="AC_AttitudeControl\l::input_angle_step_bf\l_roll_pitch_yaw">
<polygon fill="white" stroke="black" points="308,-485 308,-526 418,-526 418,-485 308,-485"/>
<text text-anchor="start" x="316" y="-514" font-family="Helvetica,sans-Serif" font-size="10.00">AC_AttitudeControl</text>
<text text-anchor="start" x="316" y="-503" font-family="Helvetica,sans-Serif" font-size="10.00">::input_angle_step_bf</text>
<text text-anchor="middle" x="363" y="-492" font-family="Helvetica,sans-Serif" font-size="10.00">_roll_pitch_yaw</text>
</a>
</g>
</g>
<!-- Node2&#45;&gt;Node3 -->
<g id="edge2" class="edge"><title>Node2&#45;&gt;Node3</title>
<path fill="none" stroke="midnightblue" d="M226.74,-385.109C241.647,-411.667 266.521,-450.238 297,-475.5 301.115,-478.91 305.681,-482.021 310.431,-484.838"/>
<polygon fill="midnightblue" stroke="midnightblue" points="229.765,-383.345 221.89,-376.257 223.626,-386.709 229.765,-383.345"/>
</g>
<!-- Node5 -->
<g id="node5" class="node"><title>Node5</title>
<g id="a_node5"><a xlink:href="$classAC__AttitudeControl.html#a33492a0f71a317f64c14332075a6d3ec" xlink:title="AC_AttitudeControl\l::input_euler_angle\l_roll_pitch_euler_rate_yaw">
<polygon fill="white" stroke="black" points="297,-425 297,-466 429,-466 429,-425 297,-425"/>
<text text-anchor="start" x="305" y="-454" font-family="Helvetica,sans-Serif" font-size="10.00">AC_AttitudeControl</text>
<text text-anchor="start" x="305" y="-443" font-family="Helvetica,sans-Serif" font-size="10.00">::input_euler_angle</text>
<text text-anchor="middle" x="363" y="-432" font-family="Helvetica,sans-Serif" font-size="10.00">_roll_pitch_euler_rate_yaw</text>
</a>
</g>
</g>
<!-- Node2&#45;&gt;Node5 -->
<g id="edge4" class="edge"><title>Node2&#45;&gt;Node5</title>
<path fill="none" stroke="midnightblue" d="M246.467,-382.172C261.597,-393.145 279.76,-405.579 297,-415.5 302.602,-418.723 308.61,-421.875 314.628,-424.851"/>
<polygon fill="midnightblue" stroke="midnightblue" points="248.532,-379.346 238.399,-376.252 244.39,-384.99 248.532,-379.346"/>
</g>
<!-- Node6 -->
<g id="node6" class="node"><title>Node6</title>
<g id="a_node6"><a xlink:href="$classAC__AttitudeControl.html#aadd2cdd6b18aceaea1134d99ef870b18" xlink:title="AC_AttitudeControl\l::input_euler_angle\l_roll_pitch_yaw">
<polygon fill="white" stroke="black" points="312.5,-365 312.5,-406 413.5,-406 413.5,-365 312.5,-365"/>
<text text-anchor="start" x="320.5" y="-394" font-family="Helvetica,sans-Serif" font-size="10.00">AC_AttitudeControl</text>
<text text-anchor="start" x="320.5" y="-383" font-family="Helvetica,sans-Serif" font-size="10.00">::input_euler_angle</text>
<text text-anchor="middle" x="363" y="-372" font-family="Helvetica,sans-Serif" font-size="10.00">_roll_pitch_yaw</text>
</a>
</g>
</g>
<!-- Node2&#45;&gt;Node6 -->
<g id="edge6" class="edge"><title>Node2&#45;&gt;Node6</title>
<path fill="none" stroke="midnightblue" d="M271.012,-367.363C284.708,-370.093 299.131,-372.968 312.356,-375.604"/>
<polygon fill="midnightblue" stroke="midnightblue" points="271.688,-363.929 261.196,-365.406 270.319,-370.794 271.688,-363.929"/>
</g>
<!-- Node7 -->
<g id="node7" class="node"><title>Node7</title>
<g id="a_node7"><a xlink:href="$classAC__AttitudeControl.html#a49cd1e5d7c1a3550080c9ccca6ce8da8" xlink:title="AC_AttitudeControl\l::input_euler_rate_roll\l_pitch_yaw">
<polygon fill="white" stroke="black" points="308,-305 308,-346 418,-346 418,-305 308,-305"/>
<text text-anchor="start" x="316" y="-334" font-family="Helvetica,sans-Serif" font-size="10.00">AC_AttitudeControl</text>
<text text-anchor="start" x="316" y="-323" font-family="Helvetica,sans-Serif" font-size="10.00">::input_euler_rate_roll</text>
<text text-anchor="middle" x="363" y="-312" font-family="Helvetica,sans-Serif" font-size="10.00">_pitch_yaw</text>
</a>
</g>
</g>
<!-- Node2&#45;&gt;Node7 -->
<g id="edge8" class="edge"><title>Node2&#45;&gt;Node7</title>
<path fill="none" stroke="midnightblue" d="M271.22,-343.596C283.346,-341.179 296.034,-338.649 307.949,-336.274"/>
<polygon fill="midnightblue" stroke="midnightblue" points="270.319,-340.206 261.196,-345.594 271.688,-347.071 270.319,-340.206"/>
</g>
<!-- Node8 -->
<g id="node8" class="node"><title>Node8</title>
<g id="a_node8"><a xlink:href="$classAC__AttitudeControl.html#afb04b29d33ac55ff34c03e2209c61b27" xlink:title="AC_AttitudeControl\l::input_quaternion">
<polygon fill="white" stroke="black" points="312.5,-256.5 312.5,-286.5 413.5,-286.5 413.5,-256.5 312.5,-256.5"/>
<text text-anchor="start" x="320.5" y="-274.5" font-family="Helvetica,sans-Serif" font-size="10.00">AC_AttitudeControl</text>
<text text-anchor="middle" x="363" y="-263.5" font-family="Helvetica,sans-Serif" font-size="10.00">::input_quaternion</text>
</a>
</g>
</g>
<!-- Node2&#45;&gt;Node8 -->
<g id="edge10" class="edge"><title>Node2&#45;&gt;Node8</title>
<path fill="none" stroke="midnightblue" d="M245.404,-328.666C260.605,-317.451 279.112,-304.877 297,-295.5 303.18,-292.261 309.895,-289.257 316.588,-286.549"/>
<polygon fill="midnightblue" stroke="midnightblue" points="243.223,-325.927 237.324,-334.728 247.424,-331.526 243.223,-325.927"/>
</g>
<!-- Node9 -->
<g id="node9" class="node"><title>Node9</title>
<g id="a_node9"><a xlink:href="$classAC__AttitudeControl.html#a2ca277e7c4a5ac2980814673aae2d037" xlink:title="AC_AttitudeControl\l::input_rate_bf_roll\l_pitch_yaw">
<polygon fill="white" stroke="black" points="312.5,-545 312.5,-586 413.5,-586 413.5,-545 312.5,-545"/>
<text text-anchor="start" x="320.5" y="-574" font-family="Helvetica,sans-Serif" font-size="10.00">AC_AttitudeControl</text>
<text text-anchor="start" x="320.5" y="-563" font-family="Helvetica,sans-Serif" font-size="10.00">::input_rate_bf_roll</text>
<text text-anchor="middle" x="363" y="-552" font-family="Helvetica,sans-Serif" font-size="10.00">_pitch_yaw</text>
</a>
</g>
</g>
<!-- Node2&#45;&gt;Node9 -->
<g id="edge12" class="edge"><title>Node2&#45;&gt;Node9</title>
<path fill="none" stroke="midnightblue" d="M218.944,-385.764C229.967,-424.903 254.098,-493.069 297,-535.5 301.507,-539.957 306.798,-543.829 312.381,-547.172"/>
<polygon fill="midnightblue" stroke="midnightblue" points="222.294,-384.742 216.299,-376.006 215.538,-386.574 222.294,-384.742"/>
</g>
<!-- Node2&#45;&gt;Node12 -->
<g id="edge16" class="edge"><title>Node2&#45;&gt;Node12</title>
<path fill="none" stroke="midnightblue" d="M234.54,-326.889C242.917,-316.42 252.43,-304.458 261,-293.5 277.209,-272.773 275.823,-262.117 297,-246.5 301.647,-243.073 306.837,-240.087 312.202,-237.498"/>
<polygon fill="midnightblue" stroke="midnightblue" points="231.629,-324.924 228.104,-334.916 237.09,-329.303 231.629,-324.924"/>
</g>
<!-- Node4 -->
<g id="node4" class="node"><title>Node4</title>
<g id="a_node4"><a xlink:href="$classAC__AttitudeControl.html#a5d0d15f6a4e5321e8102528b1a67fa0a" xlink:title="AC_AttitudeControl\l::set_yaw_target_to\l_current_heading">
<polygon fill="white" stroke="black" points="470.5,-387 470.5,-428 573.5,-428 573.5,-387 470.5,-387"/>
<text text-anchor="start" x="478.5" y="-416" font-family="Helvetica,sans-Serif" font-size="10.00">AC_AttitudeControl</text>
<text text-anchor="start" x="478.5" y="-405" font-family="Helvetica,sans-Serif" font-size="10.00">::set_yaw_target_to</text>
<text text-anchor="middle" x="522" y="-394" font-family="Helvetica,sans-Serif" font-size="10.00">_current_heading</text>
</a>
</g>
</g>
<!-- Node3&#45;&gt;Node4 -->
<g id="edge3" class="edge"><title>Node3&#45;&gt;Node4</title>
<path fill="none" stroke="midnightblue" d="M420.391,-480.351C423.333,-478.767 426.219,-477.146 429,-475.5 452.929,-461.336 478.2,-442.327 496.189,-428.008"/>
<polygon fill="midnightblue" stroke="midnightblue" points="418.719,-477.275 411.449,-484.982 421.938,-483.492 418.719,-477.275"/>
</g>
<!-- Node5&#45;&gt;Node4 -->
<g id="edge5" class="edge"><title>Node5&#45;&gt;Node4</title>
<path fill="none" stroke="midnightblue" d="M439.207,-427.297C449.676,-424.763 460.224,-422.21 470.103,-419.819"/>
<polygon fill="midnightblue" stroke="midnightblue" points="438.114,-423.96 429.218,-429.715 439.761,-430.764 438.114,-423.96"/>
</g>
<!-- Node6&#45;&gt;Node4 -->
<g id="edge7" class="edge"><title>Node6&#45;&gt;Node4</title>
<path fill="none" stroke="midnightblue" d="M423.612,-393.853C438.998,-396.009 455.413,-398.309 470.298,-400.395"/>
<polygon fill="midnightblue" stroke="midnightblue" points="424.065,-390.383 413.676,-392.461 423.093,-397.315 424.065,-390.383"/>
</g>
<!-- Node7&#45;&gt;Node4 -->
<g id="edge9" class="edge"><title>Node7&#45;&gt;Node4</title>
<path fill="none" stroke="midnightblue" d="M418.859,-350.428C422.305,-352.115 425.709,-353.814 429,-355.5 448.105,-365.287 468.964,-376.99 485.982,-386.813"/>
<polygon fill="midnightblue" stroke="midnightblue" points="420.215,-347.197 409.687,-346.011 417.178,-353.503 420.215,-347.197"/>
</g>
<!-- Node8&#45;&gt;Node4 -->
<g id="edge11" class="edge"><title>Node8&#45;&gt;Node4</title>
<path fill="none" stroke="midnightblue" d="M422.647,-290.704C424.873,-292.19 427.003,-293.786 429,-295.5 454.058,-317.01 444,-335.013 465,-360.5 472.91,-370.1 482.97,-379.238 492.376,-386.86"/>
<polygon fill="midnightblue" stroke="midnightblue" points="424.072,-287.484 413.664,-285.501 420.564,-293.541 424.072,-287.484"/>
</g>
<!-- Node9&#45;&gt;Node4 -->
<g id="edge15" class="edge"><title>Node9&#45;&gt;Node4</title>
<path fill="none" stroke="midnightblue" d="M422.051,-540.698C424.468,-539.05 426.798,-537.317 429,-535.5 466.147,-504.841 495.701,-455.838 510.545,-428.205"/>
<polygon fill="midnightblue" stroke="midnightblue" points="420.199,-537.728 413.555,-545.98 423.895,-543.673 420.199,-537.728"/>
</g>
<!-- Node10 -->
<g id="node10" class="node"><title>Node10</title>
<g id="a_node10"><a xlink:href="$classAC__AttitudeControl__Heli.html#aa78e07c940c43aa150caf3c52cf76809" xlink:title="AC_AttitudeControl\l_Heli::input_rate_bf\l_roll_pitch_yaw">
<polygon fill="white" stroke="black" points="471.5,-545 471.5,-586 572.5,-586 572.5,-545 471.5,-545"/>
<text text-anchor="start" x="479.5" y="-574" font-family="Helvetica,sans-Serif" font-size="10.00">AC_AttitudeControl</text>
<text text-anchor="start" x="479.5" y="-563" font-family="Helvetica,sans-Serif" font-size="10.00">_Heli::input_rate_bf</text>
<text text-anchor="middle" x="522" y="-552" font-family="Helvetica,sans-Serif" font-size="10.00">_roll_pitch_yaw</text>
</a>
</g>
</g>
<!-- Node9&#45;&gt;Node10 -->
<g id="edge13" class="edge"><title>Node9&#45;&gt;Node10</title>
<path fill="none" stroke="midnightblue" d="M423.813,-565.5C439.514,-565.5 456.275,-565.5 471.378,-565.5"/>
<polygon fill="midnightblue" stroke="midnightblue" points="423.676,-562 413.676,-565.5 423.676,-569 423.676,-562"/>
</g>
<!-- Node11 -->
<g id="node11" class="node"><title>Node11</title>
<g id="a_node11"><a xlink:href="$classAC__AttitudeControl__Heli.html#aae3cc5dc6f4db3bdb7d17b9d7f54f371" xlink:title="AC_AttitudeControl\l_Heli::get_rate_yaw_pid">
<polygon fill="white" stroke="black" points="633.5,-550.5 633.5,-580.5 755.5,-580.5 755.5,-550.5 633.5,-550.5"/>
<text text-anchor="start" x="641.5" y="-568.5" font-family="Helvetica,sans-Serif" font-size="10.00">AC_AttitudeControl</text>
<text text-anchor="middle" x="694.5" y="-557.5" font-family="Helvetica,sans-Serif" font-size="10.00">_Heli::get_rate_yaw_pid</text>
</a>
</g>
</g>
<!-- Node10&#45;&gt;Node11 -->
<g id="edge14" class="edge"><title>Node10&#45;&gt;Node11</title>
<path fill="none" stroke="midnightblue" d="M582.784,-565.5C599.187,-565.5 616.975,-565.5 633.397,-565.5"/>
<polygon fill="midnightblue" stroke="midnightblue" points="582.774,-562 572.774,-565.5 582.774,-569 582.774,-562"/>
</g>
<!-- Node13 -->
<g id="node13" class="node"><title>Node13</title>
<g id="a_node13"><a xlink:href="$classAC__PosControl.html#ab7a53930119bbcbb951f982fcb8d3ce1" xlink:title="AC_PosControl::accel\l_to_lean_angles">
<polygon fill="white" stroke="black" points="465,-321.5 465,-351.5 579,-351.5 579,-321.5 465,-321.5"/>
<text text-anchor="start" x="473" y="-339.5" font-family="Helvetica,sans-Serif" font-size="10.00">AC_PosControl::accel</text>
<text text-anchor="middle" x="522" y="-328.5" font-family="Helvetica,sans-Serif" font-size="10.00">_to_lean_angles</text>
</a>
</g>
</g>
<!-- Node12&#45;&gt;Node13 -->
<g id="edge17" class="edge"><title>Node12&#45;&gt;Node13</title>
<path fill="none" stroke="midnightblue" d="M420.992,-241.898C423.754,-243.347 426.439,-244.88 429,-246.5 462.045,-267.405 492.903,-301.786 509.122,-321.45"/>
<polygon fill="midnightblue" stroke="midnightblue" points="422.502,-238.741 411.973,-237.561 419.468,-245.049 422.502,-238.741"/>
</g>
<!-- Node40 -->
<g id="node40" class="node"><title>Node40</title>
<g id="a_node40"><a xlink:href="$classAC__WPNav.html#a47964df8ebcc78bb101f328a23187e65" xlink:title="AC_WPNav::wp_and_spline_init">
<polygon fill="white" stroke="black" points="615,-20 615,-39 774,-39 774,-20 615,-20"/>
<text text-anchor="middle" x="694.5" y="-27" font-family="Helvetica,sans-Serif" font-size="10.00">AC_WPNav::wp_and_spline_init</text>
</a>
</g>
</g>
<!-- Node12&#45;&gt;Node40 -->
<g id="edge53" class="edge"><title>Node12&#45;&gt;Node40</title>
<path fill="none" stroke="midnightblue" d="M398.804,-202.114C469.266,-160.842 626.418,-68.7926 677.279,-39.001"/>
<polygon fill="midnightblue" stroke="midnightblue" points="396.715,-199.281 389.855,-207.356 400.253,-205.321 396.715,-199.281"/>
</g>
<!-- Node14 -->
<g id="node14" class="node"><title>Node14</title>
<g id="a_node14"><a xlink:href="$classAC__PosControl.html#a497c1799c10d146b6f2e2b542889c083" xlink:title="update_xy_controller &#45; run the horizontal position controller &#45; should be called at 100hz or higher ...">
<polygon fill="white" stroke="black" points="634.5,-321.5 634.5,-351.5 754.5,-351.5 754.5,-321.5 634.5,-321.5"/>
<text text-anchor="start" x="642.5" y="-339.5" font-family="Helvetica,sans-Serif" font-size="10.00">AC_PosControl::update</text>
<text text-anchor="middle" x="694.5" y="-328.5" font-family="Helvetica,sans-Serif" font-size="10.00">_xy_controller</text>
</a>
</g>
</g>
<!-- Node13&#45;&gt;Node14 -->
<g id="edge18" class="edge"><title>Node13&#45;&gt;Node14</title>
<path fill="none" stroke="midnightblue" d="M589.405,-336.5C604.22,-336.5 619.833,-336.5 634.333,-336.5"/>
<polygon fill="midnightblue" stroke="midnightblue" points="589.301,-333 579.301,-336.5 589.301,-340 589.301,-333"/>
</g>
<!-- Node18 -->
<g id="node18" class="node"><title>Node18</title>
<g id="a_node18"><a xlink:href="$classAC__PosControl.html#ad89eec74ef77005f3f5c449da98ad12c" xlink:title="AC_PosControl::update\l_vel_controller_xyz">
<polygon fill="white" stroke="black" points="1372.5,-371.5 1372.5,-401.5 1492.5,-401.5 1492.5,-371.5 1372.5,-371.5"/>
<text text-anchor="start" x="1380.5" y="-389.5" font-family="Helvetica,sans-Serif" font-size="10.00">AC_PosControl::update</text>
<text text-anchor="middle" x="1432.5" y="-378.5" font-family="Helvetica,sans-Serif" font-size="10.00">_vel_controller_xyz</text>
</a>
</g>
</g>
<!-- Node13&#45;&gt;Node18 -->
<g id="edge52" class="edge"><title>Node13&#45;&gt;Node18</title>
<path fill="none" stroke="midnightblue" d="M557.23,-356.96C632.085,-400.933 809.025,-500.5 876.5,-500.5 876.5,-500.5 876.5,-500.5 1052,-500.5 1170.42,-500.5 1205.37,-506.742 1316,-464.5 1354.65,-449.741 1393.2,-419.897 1414.54,-401.706"/>
<polygon fill="midnightblue" stroke="midnightblue" points="558.593,-353.701 548.202,-351.635 555.037,-359.73 558.593,-353.701"/>
</g>
<!-- Node15 -->
<g id="node15" class="node"><title>Node15</title>
<g id="a_node15"><a xlink:href="$classAC__PosControl.html#ac150947d527995a72dff6ad0921a1891" xlink:title="freeze_ff_xy &#45; used to stop the feed forward being calculated during a known discontinuity ...">
<polygon fill="white" stroke="black" points="818.5,-239.5 818.5,-269.5 936.5,-269.5 936.5,-239.5 818.5,-239.5"/>
<text text-anchor="start" x="826.5" y="-257.5" font-family="Helvetica,sans-Serif" font-size="10.00">AC_PosControl::freeze</text>
<text text-anchor="middle" x="877.5" y="-246.5" font-family="Helvetica,sans-Serif" font-size="10.00">_ff_xy</text>
</a>
</g>
</g>
<!-- Node14&#45;&gt;Node15 -->
<g id="edge19" class="edge"><title>Node14&#45;&gt;Node15</title>
<path fill="none" stroke="midnightblue" d="M737.856,-317.311C769.989,-302.754 813.545,-283.021 843.206,-269.583"/>
<polygon fill="midnightblue" stroke="midnightblue" points="736.363,-314.145 728.698,-321.46 739.251,-320.521 736.363,-314.145"/>
</g>
<!-- Node32 -->
<g id="node32" class="node"><title>Node32</title>
<g id="a_node32"><a xlink:href="$classAC__WPNav.html#a7dc4785fbce8364d7eb3d8e2d0c1b987" xlink:title="update_wpnav &#45; run the wp controller &#45; should be called at 100hz or higher ">
<polygon fill="white" stroke="black" points="981,-365 981,-384 1121,-384 1121,-365 981,-365"/>
<text text-anchor="middle" x="1051" y="-372" font-family="Helvetica,sans-Serif" font-size="10.00">AC_WPNav::update_wpnav</text>
</a>
</g>
</g>
<!-- Node14&#45;&gt;Node32 -->
<g id="edge50" class="edge"><title>Node14&#45;&gt;Node32</title>
<path fill="none" stroke="midnightblue" d="M764.781,-345.22C779.69,-347.027 795.364,-348.874 810,-350.5 867.537,-356.894 932.924,-363.381 980.902,-367.996"/>
<polygon fill="midnightblue" stroke="midnightblue" points="764.954,-341.715 754.604,-343.978 764.106,-348.663 764.954,-341.715"/>
</g>
<!-- Node34 -->
<g id="node34" class="node"><title>Node34</title>
<g id="a_node34"><a xlink:href="$classAC__WPNav.html#acc138e7bc6435087ab308896358de6a3" xlink:title="update_spline &#45; update spline controller ">
<polygon fill="white" stroke="black" points="982.5,-327 982.5,-346 1119.5,-346 1119.5,-327 982.5,-327"/>
<text text-anchor="middle" x="1051" y="-334" font-family="Helvetica,sans-Serif" font-size="10.00">AC_WPNav::update_spline</text>
</a>
</g>
</g>
<!-- Node14&#45;&gt;Node34 -->
<g id="edge51" class="edge"><title>Node14&#45;&gt;Node34</title>
<path fill="none" stroke="midnightblue" d="M765.058,-336.5C827.951,-336.5 919.976,-336.5 982.29,-336.5"/>
<polygon fill="midnightblue" stroke="midnightblue" points="764.835,-333 754.835,-336.5 764.835,-340 764.835,-333"/>
</g>
<!-- Node36 -->
<g id="node36" class="node"><title>Node36</title>
<g id="a_node36"><a xlink:href="$classAC__Circle.html#ad28205982ae7bc5f1e72f5285696c99b" xlink:title="update &#45; update circle controller ">
<polygon fill="white" stroke="black" points="829,-406 829,-425 926,-425 926,-406 829,-406"/>
<text text-anchor="middle" x="877.5" y="-413" font-family="Helvetica,sans-Serif" font-size="10.00">AC_Circle::update</text>
</a>
</g>
</g>
<!-- Node14&#45;&gt;Node36 -->
<g id="edge44" class="edge"><title>Node14&#45;&gt;Node36</title>
<path fill="none" stroke="midnightblue" d="M737.15,-355.907C758.787,-365.863 785.714,-378.06 810,-388.5 823.966,-394.504 839.724,-400.917 852.393,-405.986"/>
<polygon fill="midnightblue" stroke="midnightblue" points="738.464,-352.658 727.918,-351.647 735.531,-359.014 738.464,-352.658"/>
</g>
<!-- Node38 -->
<g id="node38" class="node"><title>Node38</title>
<g id="a_node38"><a xlink:href="$classAC__WPNav.html#a0a434270245fd8641352af387700dc82" xlink:title="update_loiter &#45; run the loiter controller &#45; should be called at 10hz ">
<polygon fill="white" stroke="black" points="811.5,-31 811.5,-50 943.5,-50 943.5,-31 811.5,-31"/>
<text text-anchor="middle" x="877.5" y="-38" font-family="Helvetica,sans-Serif" font-size="10.00">AC_WPNav::update_loiter</text>
</a>
</g>
</g>
<!-- Node14&#45;&gt;Node38 -->
<g id="edge46" class="edge"><title>Node14&#45;&gt;Node38</title>
<path fill="none" stroke="midnightblue" d="M709.93,-312.483C731.557,-276.535 773.715,-206.632 810,-147.5 832.078,-111.521 858.663,-68.9756 870.411,-50.2142"/>
<polygon fill="midnightblue" stroke="midnightblue" points="706.797,-310.902 704.643,-321.275 712.796,-314.509 706.797,-310.902"/>
</g>
<!-- Node39 -->
<g id="node39" class="node"><title>Node39</title>
<g id="a_node39"><a xlink:href="$classAC__WPNav.html#af9d3f98ad44166d4c5d072bf3ba4a3db" xlink:title="update_brake &#45; run the brake controller &#45; should be called at 400hz ">
<polygon fill="white" stroke="black" points="810,-157 810,-176 945,-176 945,-157 810,-157"/>
<text text-anchor="middle" x="877.5" y="-164" font-family="Helvetica,sans-Serif" font-size="10.00">AC_WPNav::update_brake</text>
</a>
</g>
</g>
<!-- Node14&#45;&gt;Node39 -->
<g id="edge48" class="edge"><title>Node14&#45;&gt;Node39</title>
<path fill="none" stroke="midnightblue" d="M718.951,-314.474C758.64,-277.197 837.507,-203.124 865.957,-176.402"/>
<polygon fill="midnightblue" stroke="midnightblue" points="716.456,-312.016 711.563,-321.414 721.248,-317.119 716.456,-312.016"/>
</g>
<!-- Node16 -->
<g id="node16" class="node"><title>Node16</title>
<g id="a_node16"><a xlink:href="$classAC__PosControl.html#a0a3dc64da9e355dea10959cb41e6aa8b" xlink:title="shift position target target in x, y axis ">
<polygon fill="white" stroke="black" points="996,-239.5 996,-269.5 1106,-269.5 1106,-239.5 996,-239.5"/>
<text text-anchor="start" x="1004" y="-257.5" font-family="Helvetica,sans-Serif" font-size="10.00">AC_PosControl::shift</text>
<text text-anchor="middle" x="1051" y="-246.5" font-family="Helvetica,sans-Serif" font-size="10.00">_pos_xy_target</text>
</a>
</g>
</g>
<!-- Node15&#45;&gt;Node16 -->
<g id="edge20" class="edge"><title>Node15&#45;&gt;Node16</title>
<path fill="none" stroke="midnightblue" d="M946.593,-254.5C962.925,-254.5 980.151,-254.5 995.758,-254.5"/>
<polygon fill="midnightblue" stroke="midnightblue" points="946.562,-251 936.562,-254.5 946.562,-258 946.562,-251"/>
</g>
<!-- Node24 -->
<g id="node24" class="node"><title>Node24</title>
<g id="a_node24"><a xlink:href="$classAC__WPNav.html#a7ebe48af2381e791cbcdea94c7af2e3e" xlink:title="AC_WPNav::shift_wp\l_origin_to_current_pos">
<polygon fill="white" stroke="black" points="1375,-146.5 1375,-176.5 1490,-176.5 1490,-146.5 1375,-146.5"/>
<text text-anchor="start" x="1383" y="-164.5" font-family="Helvetica,sans-Serif" font-size="10.00">AC_WPNav::shift_wp</text>
<text text-anchor="middle" x="1432.5" y="-153.5" font-family="Helvetica,sans-Serif" font-size="10.00">_origin_to_current_pos</text>
</a>
</g>
</g>
<!-- Node15&#45;&gt;Node24 -->
<g id="edge39" class="edge"><title>Node15&#45;&gt;Node24</title>
<path fill="none" stroke="midnightblue" d="M945.29,-237.102C957.137,-234.333 969.396,-231.671 981,-229.5 1128.61,-201.89 1167.94,-210.571 1316,-185.5 1335.28,-182.235 1356.25,-178.066 1374.97,-174.122"/>
<polygon fill="midnightblue" stroke="midnightblue" points="944.374,-233.722 935.458,-239.444 945.997,-240.531 944.374,-233.722"/>
</g>
<!-- Node28 -->
<g id="node28" class="node"><title>Node28</title>
<g id="a_node28"><a xlink:href="$classAC__PosControl.html#a26ec8e9313b7c01fa449ba4f2d194d28" xlink:title="AC_PosControl::set\l_desired_velocity">
<polygon fill="white" stroke="black" points="999,-63.5 999,-93.5 1103,-93.5 1103,-63.5 999,-63.5"/>
<text text-anchor="start" x="1007" y="-81.5" font-family="Helvetica,sans-Serif" font-size="10.00">AC_PosControl::set</text>
<text text-anchor="middle" x="1051" y="-70.5" font-family="Helvetica,sans-Serif" font-size="10.00">_desired_velocity</text>
</a>
</g>
</g>
<!-- Node15&#45;&gt;Node28 -->
<g id="edge34" class="edge"><title>Node15&#45;&gt;Node28</title>
<path fill="none" stroke="midnightblue" d="M903.54,-232.37C916.989,-219.597 933.184,-202.692 945,-185.5 966.398,-154.366 953.926,-134.847 981,-108.5 987.178,-102.487 994.757,-97.581 1002.6,-93.6101"/>
<polygon fill="midnightblue" stroke="midnightblue" points="900.934,-230.014 895.992,-239.385 905.7,-235.141 900.934,-230.014"/>
</g>
<!-- Node30 -->
<g id="node30" class="node"><title>Node30</title>
<g id="a_node30"><a xlink:href="$classAC__WPNav.html#a9b3fd8fd5c74d31ebffa89cdf98f570a" xlink:title="loiter_soften_for_landing &#45; reduce response for landing ">
<polygon fill="white" stroke="black" points="986,-151.5 986,-181.5 1116,-181.5 1116,-151.5 986,-151.5"/>
<text text-anchor="start" x="994" y="-169.5" font-family="Helvetica,sans-Serif" font-size="10.00">AC_WPNav::loiter_soften</text>
<text text-anchor="middle" x="1051" y="-158.5" font-family="Helvetica,sans-Serif" font-size="10.00">_for_landing</text>
</a>
</g>
</g>
<!-- Node15&#45;&gt;Node30 -->
<g id="edge37" class="edge"><title>Node15&#45;&gt;Node30</title>
<path fill="none" stroke="midnightblue" d="M912.025,-234.352C931.816,-222.756 957.515,-208.209 981,-196.5 991.404,-191.313 1002.91,-186.106 1013.5,-181.521"/>
<polygon fill="midnightblue" stroke="midnightblue" points="910.213,-231.357 903.376,-239.451 913.768,-237.387 910.213,-231.357"/>
</g>
<!-- Node15&#45;&gt;Node32 -->
<g id="edge40" class="edge"><title>Node15&#45;&gt;Node32</title>
<path fill="none" stroke="midnightblue" d="M895.907,-277.511C914.523,-300.544 946.118,-335.372 981,-355.5 987.672,-359.35 995.16,-362.45 1002.68,-364.937"/>
<polygon fill="midnightblue" stroke="midnightblue" points="898.603,-275.278 889.653,-269.608 893.114,-279.622 898.603,-275.278"/>
</g>
<!-- Node15&#45;&gt;Node34 -->
<g id="edge42" class="edge"><title>Node15&#45;&gt;Node34</title>
<path fill="none" stroke="midnightblue" d="M910.913,-274.837C930.697,-286.741 956.768,-301.538 981,-312.5 993.018,-317.937 1006.66,-322.917 1018.62,-326.915"/>
<polygon fill="midnightblue" stroke="midnightblue" points="912.657,-271.801 902.295,-269.595 909.02,-277.782 912.657,-271.801"/>
</g>
<!-- Node17 -->
<g id="node17" class="node"><title>Node17</title>
<g id="a_node17"><a xlink:href="$classAC__PosControl.html#adcd8a80dc29c0e77d0c3f225689319b9" xlink:title="check for ekf position reset and adjust loiter or brake target position ">
<polygon fill="white" stroke="black" points="1178,-327.5 1178,-357.5 1295,-357.5 1295,-327.5 1178,-327.5"/>
<text text-anchor="start" x="1186" y="-345.5" font-family="Helvetica,sans-Serif" font-size="10.00">AC_PosControl::check</text>
<text text-anchor="middle" x="1236.5" y="-334.5" font-family="Helvetica,sans-Serif" font-size="10.00">_for_ekf_xy_reset</text>
</a>
</g>
</g>
<!-- Node16&#45;&gt;Node17 -->
<g id="edge21" class="edge"><title>Node16&#45;&gt;Node17</title>
<path fill="none" stroke="midnightblue" d="M1092.64,-273.99C1126.25,-290.106 1173.28,-312.662 1204.06,-327.423"/>
<polygon fill="midnightblue" stroke="midnightblue" points="1094.08,-270.796 1083.54,-269.628 1091.05,-277.108 1094.08,-270.796"/>
</g>
<!-- Node19 -->
<g id="node19" class="node"><title>Node19</title>
<g id="a_node19"><a xlink:href="$classAC__PosControl.html#a6b3617b946ffd6935c11a63629f186ec" xlink:title="get_pos_target &#45; get target as position vector (from home in cm) ">
<polygon fill="white" stroke="black" points="1184.5,-239.5 1184.5,-269.5 1288.5,-269.5 1288.5,-239.5 1184.5,-239.5"/>
<text text-anchor="start" x="1192.5" y="-257.5" font-family="Helvetica,sans-Serif" font-size="10.00">AC_PosControl::get</text>
<text text-anchor="middle" x="1236.5" y="-246.5" font-family="Helvetica,sans-Serif" font-size="10.00">_pos_target</text>
</a>
</g>
</g>
<!-- Node16&#45;&gt;Node19 -->
<g id="edge25" class="edge"><title>Node16&#45;&gt;Node19</title>
<path fill="none" stroke="midnightblue" d="M1116.13,-254.5C1138.46,-254.5 1163.2,-254.5 1184.34,-254.5"/>
<polygon fill="midnightblue" stroke="midnightblue" points="1116.06,-251 1106.06,-254.5 1116.06,-258 1116.06,-251"/>
</g>
<!-- Node17&#45;&gt;Node14 -->
<g id="edge22" class="edge"><title>Node17&#45;&gt;Node14</title>
<path fill="none" stroke="midnightblue" d="M1168.44,-358.54C1164.35,-360.846 1160.49,-363.484 1157,-366.5 1128.72,-390.935 1152.58,-422.513 1121,-442.5 1004.16,-516.439 938.541,-485.443 810,-434.5 765.486,-416.858 726.103,-374.361 707.263,-351.558"/>
<polygon fill="midnightblue" stroke="midnightblue" points="1170.25,-361.552 1177.68,-354.003 1167.16,-355.268 1170.25,-361.552"/>
</g>
<!-- Node17&#45;&gt;Node18 -->
<g id="edge23" class="edge"><title>Node17&#45;&gt;Node18</title>
<path fill="none" stroke="midnightblue" d="M1305.07,-357.826C1326.99,-362.796 1351.11,-368.268 1372.36,-373.087"/>
<polygon fill="midnightblue" stroke="midnightblue" points="1305.71,-354.381 1295.18,-355.582 1304.16,-361.208 1305.71,-354.381"/>
</g>
<!-- Node18&#45;&gt;Node15 -->
<g id="edge24" class="edge"><title>Node18&#45;&gt;Node15</title>
<path fill="none" stroke="midnightblue" d="M1363.13,-367.986C1359.25,-366.028 1355.51,-363.872 1352,-361.5 1331.07,-347.34 1338.17,-329.624 1316,-317.5 1184.49,-245.573 1128.66,-304.295 981,-278.5 966.507,-275.968 950.993,-272.655 936.534,-269.303"/>
<polygon fill="midnightblue" stroke="midnightblue" points="1361.83,-371.241 1372.38,-372.207 1364.73,-364.873 1361.83,-371.241"/>
</g>
<!-- Node20 -->
<g id="node20" class="node"><title>Node20</title>
<g id="a_node20"><a xlink:href="$classAC__Circle.html#a20eefa0e2e7172498728dbf1f5eed4af" xlink:title="AC_Circle::init">
<polygon fill="white" stroke="black" points="1392.5,-333 1392.5,-352 1472.5,-352 1472.5,-333 1392.5,-333"/>
<text text-anchor="middle" x="1432.5" y="-340" font-family="Helvetica,sans-Serif" font-size="10.00">AC_Circle::init</text>
</a>
</g>
</g>
<!-- Node19&#45;&gt;Node20 -->
<g id="edge26" class="edge"><title>Node19&#45;&gt;Node20</title>
<path fill="none" stroke="midnightblue" d="M1296.32,-273.609C1303.19,-276.809 1309.91,-280.434 1316,-284.5 1335.35,-297.419 1331.92,-310.75 1352,-322.5 1364.16,-329.616 1378.81,-334.219 1392.19,-337.189"/>
<polygon fill="midnightblue" stroke="midnightblue" points="1297.48,-270.294 1286.91,-269.506 1294.68,-276.711 1297.48,-270.294"/>
</g>
<!-- Node21 -->
<g id="node21" class="node"><title>Node21</title>
<g id="a_node21"><a xlink:href="$classAC__WPNav.html#a7f711c7661c335417cbcc28f9546688c" xlink:title="get_loiter_bearing_to_target &#45; get bearing to loiter target in centi&#45;degrees ">
<polygon fill="white" stroke="black" points="1374.5,-283.5 1374.5,-313.5 1490.5,-313.5 1490.5,-283.5 1374.5,-283.5"/>
<text text-anchor="start" x="1382.5" y="-301.5" font-family="Helvetica,sans-Serif" font-size="10.00">AC_WPNav::get_loiter</text>
<text text-anchor="middle" x="1432.5" y="-290.5" font-family="Helvetica,sans-Serif" font-size="10.00">_bearing_to_target</text>
</a>
</g>
</g>
<!-- Node19&#45;&gt;Node21 -->
<g id="edge27" class="edge"><title>Node19&#45;&gt;Node21</title>
<path fill="none" stroke="midnightblue" d="M1298.5,-268.336C1322.69,-273.821 1350.35,-280.096 1374.17,-285.496"/>
<polygon fill="midnightblue" stroke="midnightblue" points="1299.25,-264.917 1288.72,-266.118 1297.7,-271.743 1299.25,-264.917"/>
</g>
<!-- Node23 -->
<g id="node23" class="node"><title>Node23</title>
<g id="a_node23"><a xlink:href="$classAC__WPNav.html#a38519fcac3a24cf64ec7c37e90fc3e13" xlink:title="AC_WPNav::set_wp_destination">
<polygon fill="white" stroke="black" points="1352,-245 1352,-264 1513,-264 1513,-245 1352,-245"/>
<text text-anchor="middle" x="1432.5" y="-252" font-family="Helvetica,sans-Serif" font-size="10.00">AC_WPNav::set_wp_destination</text>
</a>
</g>
</g>
<!-- Node19&#45;&gt;Node23 -->
<g id="edge29" class="edge"><title>Node19&#45;&gt;Node23</title>
<path fill="none" stroke="midnightblue" d="M1298.94,-254.5C1315.72,-254.5 1334.14,-254.5 1351.78,-254.5"/>
<polygon fill="midnightblue" stroke="midnightblue" points="1298.73,-251 1288.72,-254.5 1298.72,-258 1298.73,-251"/>
</g>
<!-- Node19&#45;&gt;Node24 -->
<g id="edge30" class="edge"><title>Node19&#45;&gt;Node24</title>
<path fill="none" stroke="midnightblue" d="M1296.66,-235.335C1303.42,-232.154 1310.02,-228.549 1316,-224.5 1335.53,-211.274 1332.01,-198.016 1352,-185.5 1358.97,-181.14 1366.77,-177.531 1374.7,-174.556"/>
<polygon fill="midnightblue" stroke="midnightblue" points="1295.13,-232.183 1287.38,-239.412 1297.95,-238.591 1295.13,-232.183"/>
</g>
<!-- Node26 -->
<g id="node26" class="node"><title>Node26</title>
<g id="a_node26"><a xlink:href="$classAC__WPNav.html#a8caabd95cf51512456cd8d81f38dbff9" xlink:title="AC_WPNav::set_spline\l_destination">
<polygon fill="white" stroke="black" points="1372,-195.5 1372,-225.5 1493,-225.5 1493,-195.5 1372,-195.5"/>
<text text-anchor="start" x="1380" y="-213.5" font-family="Helvetica,sans-Serif" font-size="10.00">AC_WPNav::set_spline</text>
<text text-anchor="middle" x="1432.5" y="-202.5" font-family="Helvetica,sans-Serif" font-size="10.00">_destination</text>
</a>
</g>
</g>
<!-- Node19&#45;&gt;Node26 -->
<g id="edge32" class="edge"><title>Node19&#45;&gt;Node26</title>
<path fill="none" stroke="midnightblue" d="M1298.52,-240.661C1321.88,-235.363 1348.48,-229.329 1371.72,-224.058"/>
<polygon fill="midnightblue" stroke="midnightblue" points="1297.7,-237.257 1288.72,-242.882 1299.25,-244.083 1297.7,-237.257"/>
</g>
<!-- Node27 -->
<g id="node27" class="node"><title>Node27</title>
<g id="a_node27"><a xlink:href="$classAC__WPNav.html#ae34a88192799de8f2b96c8cd295bb971" xlink:title="get_loiter_target &#45; returns loiter target position ">
<polygon fill="white" stroke="black" points="1374.5,-0.5 1374.5,-30.5 1490.5,-30.5 1490.5,-0.5 1374.5,-0.5"/>
<text text-anchor="start" x="1382.5" y="-18.5" font-family="Helvetica,sans-Serif" font-size="10.00">AC_WPNav::get_loiter</text>
<text text-anchor="middle" x="1432.5" y="-7.5" font-family="Helvetica,sans-Serif" font-size="10.00">_target</text>
</a>
</g>
</g>
<!-- Node19&#45;&gt;Node27 -->
<g id="edge33" class="edge"><title>Node19&#45;&gt;Node27</title>
<path fill="none" stroke="midnightblue" d="M1265.32,-232.978C1281.09,-220.09 1300.66,-202.875 1316,-185.5 1328.19,-171.691 1395.87,-69.546 1421.58,-30.561"/>
<polygon fill="midnightblue" stroke="midnightblue" points="1263.06,-230.304 1257.47,-239.301 1267.45,-235.757 1263.06,-230.304"/>
</g>
<!-- Node22 -->
<g id="node22" class="node"><title>Node22</title>
<g id="a_node22"><a xlink:href="$classAC__WPNav.html#a828016e98938c6bbb6236e0b92e20807" xlink:title="get_loiter_distance_to_target &#45; get horizontal distance to loiter target in cm ">
<polygon fill="white" stroke="black" points="1559.5,-283.5 1559.5,-313.5 1675.5,-313.5 1675.5,-283.5 1559.5,-283.5"/>
<text text-anchor="start" x="1567.5" y="-301.5" font-family="Helvetica,sans-Serif" font-size="10.00">AC_WPNav::get_loiter</text>
<text text-anchor="middle" x="1617.5" y="-290.5" font-family="Helvetica,sans-Serif" font-size="10.00">_distance_to_target</text>
</a>
</g>
</g>
<!-- Node21&#45;&gt;Node22 -->
<g id="edge28" class="edge"><title>Node21&#45;&gt;Node22</title>
<path fill="none" stroke="midnightblue" d="M1500.86,-298.5C1520.11,-298.5 1540.9,-298.5 1559.47,-298.5"/>
<polygon fill="midnightblue" stroke="midnightblue" points="1500.65,-295 1490.65,-298.5 1500.65,-302 1500.65,-295"/>
</g>
<!-- Node25 -->
<g id="node25" class="node"><title>Node25</title>
<g id="a_node25"><a xlink:href="$classAC__WPNav.html#acc07b8521654cf468b6a86fad9104a4c" xlink:title="get origin using position vector (distance from home in cm) ">
<polygon fill="white" stroke="black" points="1549,-152 1549,-171 1686,-171 1686,-152 1549,-152"/>
<text text-anchor="middle" x="1617.5" y="-159" font-family="Helvetica,sans-Serif" font-size="10.00">AC_WPNav::get_wp_origin</text>
</a>
</g>
</g>
<!-- Node24&#45;&gt;Node25 -->
<g id="edge31" class="edge"><title>Node24&#45;&gt;Node25</title>
<path fill="none" stroke="midnightblue" d="M1500.55,-161.5C1516.25,-161.5 1532.98,-161.5 1548.72,-161.5"/>
<polygon fill="midnightblue" stroke="midnightblue" points="1500.4,-158 1490.4,-161.5 1500.4,-165 1500.4,-158"/>
</g>
<!-- Node29 -->
<g id="node29" class="node"><title>Node29</title>
<g id="a_node29"><a xlink:href="$classAC__PosControl.html#ae2897de0075f8f8aaa94eb7e8cad100b" xlink:title="xyz velocity controller ">
<polygon fill="white" stroke="black" points="1184.5,-85.5 1184.5,-115.5 1288.5,-115.5 1288.5,-85.5 1184.5,-85.5"/>
<text text-anchor="start" x="1192.5" y="-103.5" font-family="Helvetica,sans-Serif" font-size="10.00">AC_PosControl::init</text>
<text text-anchor="middle" x="1236.5" y="-92.5" font-family="Helvetica,sans-Serif" font-size="10.00">_vel_controller_xyz</text>
</a>
</g>
</g>
<!-- Node28&#45;&gt;Node29 -->
<g id="edge35" class="edge"><title>Node28&#45;&gt;Node29</title>
<path fill="none" stroke="midnightblue" d="M1113.15,-85.8317C1136.25,-88.6002 1162.26,-91.7189 1184.34,-94.3665"/>
<polygon fill="midnightblue" stroke="midnightblue" points="1113.46,-82.3436 1103.11,-84.6282 1112.63,-89.2938 1113.46,-82.3436"/>
</g>
<!-- Node29&#45;&gt;Node15 -->
<g id="edge36" class="edge"><title>Node29&#45;&gt;Node15</title>
<path fill="none" stroke="midnightblue" d="M1174.21,-105.358C1109.66,-111.347 1013.03,-123.059 981,-141.5 959.103,-154.107 961.781,-166.61 945,-185.5 927.984,-204.655 907.376,-225.733 893.655,-239.49"/>
<polygon fill="midnightblue" stroke="midnightblue" points="1174.64,-108.833 1184.28,-104.445 1174,-101.862 1174.64,-108.833"/>
</g>
<!-- Node31 -->
<g id="node31" class="node"><title>Node31</title>
<g id="a_node31"><a xlink:href="$classAC__WPNav.html#af37186ad98df47275d15c04761f81ab4" xlink:title="provide rangefinder altitude ">
<polygon fill="white" stroke="black" points="1157,-157 1157,-176 1316,-176 1316,-157 1157,-157"/>
<text text-anchor="middle" x="1236.5" y="-164" font-family="Helvetica,sans-Serif" font-size="10.00">AC_WPNav::set_rangefinder_alt</text>
</a>
</g>
</g>
<!-- Node30&#45;&gt;Node31 -->
<g id="edge38" class="edge"><title>Node30&#45;&gt;Node31</title>
<path fill="none" stroke="midnightblue" d="M1126.48,-166.5C1136.48,-166.5 1146.76,-166.5 1156.83,-166.5"/>
<polygon fill="midnightblue" stroke="midnightblue" points="1126.18,-163 1116.18,-166.5 1126.18,-170 1126.18,-163"/>
</g>
<!-- Node33 -->
<g id="node33" class="node"><title>Node33</title>
<g id="a_node33"><a xlink:href="$classAC__WPNav.html#a4795d6f44811c6ca8b592c5cc098e0c0" xlink:title="set_fast_waypoint &#45; set to true to ignore the waypoint radius and consider the waypoint &#39;reached&#39; the...">
<polygon fill="white" stroke="black" points="1180.5,-425.5 1180.5,-455.5 1292.5,-455.5 1292.5,-425.5 1180.5,-425.5"/>
<text text-anchor="start" x="1188.5" y="-443.5" font-family="Helvetica,sans-Serif" font-size="10.00">AC_WPNav::set_fast</text>
<text text-anchor="middle" x="1236.5" y="-432.5" font-family="Helvetica,sans-Serif" font-size="10.00">_waypoint</text>
</a>
</g>
</g>
<!-- Node32&#45;&gt;Node33 -->
<g id="edge41" class="edge"><title>Node32&#45;&gt;Node33</title>
<path fill="none" stroke="midnightblue" d="M1103.78,-387.048C1109.67,-388.977 1115.52,-391.128 1121,-393.5 1138.21,-400.951 1139.94,-407.71 1157,-415.5 1164.94,-419.125 1173.55,-422.441 1182.06,-425.391"/>
<polygon fill="midnightblue" stroke="midnightblue" points="1104.47,-383.598 1093.88,-384.01 1102.41,-390.29 1104.47,-383.598"/>
</g>
<!-- Node35 -->
<g id="node35" class="node"><title>Node35</title>
<g id="a_node35"><a xlink:href="$classAC__WPNav.html#a3169a6fb417742e33c3a5197bb7a6c6d" xlink:title="reached_spline_destination &#45; true when we have come within RADIUS cm of the waypoint ...">
<polygon fill="white" stroke="black" points="1165.5,-376.5 1165.5,-406.5 1307.5,-406.5 1307.5,-376.5 1165.5,-376.5"/>
<text text-anchor="start" x="1173.5" y="-394.5" font-family="Helvetica,sans-Serif" font-size="10.00">AC_WPNav::reached_spline</text>
<text text-anchor="middle" x="1236.5" y="-383.5" font-family="Helvetica,sans-Serif" font-size="10.00">_destination</text>
</a>
</g>
</g>
<!-- Node34&#45;&gt;Node35 -->
<g id="edge43" class="edge"><title>Node34&#45;&gt;Node35</title>
<path fill="none" stroke="midnightblue" d="M1097.35,-348.739C1105.25,-350.941 1113.37,-353.252 1121,-355.5 1133.84,-359.286 1162.64,-368.341 1188.14,-376.423"/>
<polygon fill="midnightblue" stroke="midnightblue" points="1098.1,-345.313 1087.53,-346.02 1096.23,-352.06 1098.1,-345.313"/>
</g>
<!-- Node37 -->
<g id="node37" class="node"><title>Node37</title>
<g id="a_node37"><a xlink:href="$classAC__Circle.html#a176fe6b798510eb180d35f62d7f6487c" xlink:title="get_angle_total &#45; return total angle in radians that vehicle has circled ">
<polygon fill="white" stroke="black" points="996,-403.5 996,-433.5 1106,-433.5 1106,-403.5 996,-403.5"/>
<text text-anchor="start" x="1004" y="-421.5" font-family="Helvetica,sans-Serif" font-size="10.00">AC_Circle::get_angle</text>
<text text-anchor="middle" x="1051" y="-410.5" font-family="Helvetica,sans-Serif" font-size="10.00">_total</text>
</a>
</g>
</g>
<!-- Node36&#45;&gt;Node37 -->
<g id="edge45" class="edge"><title>Node36&#45;&gt;Node37</title>
<path fill="none" stroke="midnightblue" d="M936.402,-416.513C955.613,-416.849 976.917,-417.222 995.836,-417.553"/>
<polygon fill="midnightblue" stroke="midnightblue" points="936.332,-413.011 926.272,-416.336 936.21,-420.01 936.332,-413.011"/>
</g>
<!-- Node38&#45;&gt;Node27 -->
<g id="edge47" class="edge"><title>Node38&#45;&gt;Node27</title>
<path fill="none" stroke="midnightblue" d="M928.676,-28.8222C945.241,-25.4739 963.823,-22.2564 981,-20.5 1121.84,-6.09882 1288.72,-9.56234 1374.42,-12.8278"/>
<polygon fill="midnightblue" stroke="midnightblue" points="927.729,-25.4444 918.654,-30.912 929.158,-32.297 927.729,-25.4444"/>
</g>
<!-- Node39&#45;&gt;Node27 -->
<g id="edge49" class="edge"><title>Node39&#45;&gt;Node27</title>
<path fill="none" stroke="midnightblue" d="M888.962,-148.081C904.984,-121.861 938.284,-74.6168 981,-53.5 1015.43,-36.478 1260.61,-23.2696 1374.11,-17.9952"/>
<polygon fill="midnightblue" stroke="midnightblue" points="885.941,-146.315 883.856,-156.702 891.964,-149.882 885.941,-146.315"/>
</g>
<!-- Node40&#45;&gt;Node27 -->
<g id="edge54" class="edge"><title>Node40&#45;&gt;Node27</title>
<path fill="none" stroke="midnightblue" d="M784.486,-21.5273C840.771,-16.8382 915.089,-11.2959 981,-8.5 1129.76,-2.18992 1167.22,-0.712188 1316,-6.5 1334.99,-7.23884 1355.7,-8.65859 1374.27,-10.1559"/>
<polygon fill="midnightblue" stroke="midnightblue" points="783.864,-18.0671 774.192,-22.3921 784.45,-25.0425 783.864,-18.0671"/>
</g>
</g>
</svg>
