<?xml version="1.0" encoding="UTF-8" standalone="no"?>
<!DOCTYPE svg PUBLIC "-//W3C//DTD SVG 1.1//EN"
 "http://www.w3.org/Graphics/SVG/1.1/DTD/svg11.dtd">
<!-- Generated by graphviz version 2.38.0 (20140413.2041)
 -->
<!-- Title: AC_AttitudeControl_Multi::get_rate_yaw_pid Pages: 1 -->
<svg width="890pt" height="361pt"
 viewBox="0.00 0.00 890.00 361.00" xmlns="http://www.w3.org/2000/svg" xmlns:xlink="http://www.w3.org/1999/xlink">
<g id="graph0" class="graph" transform="scale(1 1) rotate(0) translate(4 357)">
<title>AC_AttitudeControl_Multi::get_rate_yaw_pid</title>
<polygon fill="white" stroke="none" points="-4,4 -4,-357 886,-357 886,4 -4,4"/>
<!-- Node1 -->
<g id="node1" class="node"><title>Node1</title>
<polygon fill="#bfbfbf" stroke="black" points="0,-240.5 0,-270.5 125,-270.5 125,-240.5 0,-240.5"/>
<text text-anchor="start" x="8" y="-258.5" font-family="Helvetica,sans-Serif" font-size="10.00">AC_AttitudeControl</text>
<text text-anchor="middle" x="62.5" y="-247.5" font-family="Helvetica,sans-Serif" font-size="10.00">_Multi::get_rate_yaw_pid</text>
</g>
<!-- Node2 -->
<g id="node2" class="node"><title>Node2</title>
<g id="a_node2"><a xlink:href="$classAC__AttitudeControl__Multi.html#a76e4a41ae16398361dd688f5ff2d24d9" xlink:title="AC_AttitudeControl\l_Multi::update_althold\l_lean_angle_max">
<polygon fill="white" stroke="black" points="317,-295 317,-336 429,-336 429,-295 317,-295"/>
<text text-anchor="start" x="325" y="-324" font-family="Helvetica,sans-Serif" font-size="10.00">AC_AttitudeControl</text>
<text text-anchor="start" x="325" y="-313" font-family="Helvetica,sans-Serif" font-size="10.00">_Multi::update_althold</text>
<text text-anchor="middle" x="373" y="-302" font-family="Helvetica,sans-Serif" font-size="10.00">_lean_angle_max</text>
</a>
</g>
</g>
<!-- Node1&#45;&gt;Node2 -->
<g id="edge1" class="edge"><title>Node1&#45;&gt;Node2</title>
<path fill="none" stroke="midnightblue" d="M125.188,-267.498C177.801,-277.73 253.213,-292.397 306.807,-302.821"/>
<polygon fill="midnightblue" stroke="midnightblue" points="306.402,-306.307 316.886,-304.781 307.738,-299.436 306.402,-306.307"/>
</g>
<!-- Node11 -->
<g id="node11" class="node"><title>Node11</title>
<g id="a_node11"><a xlink:href="$classAC__AttitudeControl__Multi.html#a3e83f3b32e305ad977cdaadf92cc80e1" xlink:title="AC_AttitudeControl\l_Multi::set_throttle_out">
<polygon fill="white" stroke="black" points="161,-164.5 161,-194.5 277,-194.5 277,-164.5 161,-164.5"/>
<text text-anchor="start" x="169" y="-182.5" font-family="Helvetica,sans-Serif" font-size="10.00">AC_AttitudeControl</text>
<text text-anchor="middle" x="219" y="-171.5" font-family="Helvetica,sans-Serif" font-size="10.00">_Multi::set_throttle_out</text>
</a>
</g>
</g>
<!-- Node1&#45;&gt;Node11 -->
<g id="edge10" class="edge"><title>Node1&#45;&gt;Node11</title>
<path fill="none" stroke="midnightblue" d="M94.0242,-240.485C118.069,-228.657 151.789,-212.07 177.993,-199.18"/>
<polygon fill="midnightblue" stroke="midnightblue" points="179.847,-202.168 187.275,-194.614 176.757,-195.887 179.847,-202.168"/>
</g>
<!-- Node14 -->
<g id="node14" class="node"><title>Node14</title>
<g id="a_node14"><a xlink:href="$classAC__AttitudeControl__Multi.html#a8bb395d4d5530877eb298b6f5aea8678" xlink:title="AC_AttitudeControl\l_Multi::get_throttle\l_boosted">
<polygon fill="white" stroke="black" points="322.5,-235 322.5,-276 423.5,-276 423.5,-235 322.5,-235"/>
<text text-anchor="start" x="330.5" y="-264" font-family="Helvetica,sans-Serif" font-size="10.00">AC_AttitudeControl</text>
<text text-anchor="start" x="330.5" y="-253" font-family="Helvetica,sans-Serif" font-size="10.00">_Multi::get_throttle</text>
<text text-anchor="middle" x="373" y="-242" font-family="Helvetica,sans-Serif" font-size="10.00">_boosted</text>
</a>
</g>
</g>
<!-- Node1&#45;&gt;Node14 -->
<g id="edge24" class="edge"><title>Node1&#45;&gt;Node14</title>
<path fill="none" stroke="midnightblue" d="M125.188,-255.5C179.536,-255.5 258.21,-255.5 312.035,-255.5"/>
<polygon fill="midnightblue" stroke="midnightblue" points="312.119,-259 322.119,-255.5 312.119,-252 312.119,-259"/>
</g>
<!-- Node3 -->
<g id="node3" class="node"><title>Node3</title>
<g id="a_node3"><a xlink:href="$classAP__MotorsMulticopter.html#ade105370d07830c76c62cc26d6f7cbaf" xlink:title="AP_MotorsMulticopter\l::get_throttle_thrust_max">
<polygon fill="white" stroke="black" points="469,-322.5 469,-352.5 594,-352.5 594,-322.5 469,-322.5"/>
<text text-anchor="start" x="477" y="-340.5" font-family="Helvetica,sans-Serif" font-size="10.00">AP_MotorsMulticopter</text>
<text text-anchor="middle" x="531.5" y="-329.5" font-family="Helvetica,sans-Serif" font-size="10.00">::get_throttle_thrust_max</text>
</a>
</g>
</g>
<!-- Node2&#45;&gt;Node3 -->
<g id="edge2" class="edge"><title>Node2&#45;&gt;Node3</title>
<path fill="none" stroke="midnightblue" d="M429.176,-323.256C438.812,-324.611 448.961,-326.038 458.963,-327.444"/>
<polygon fill="midnightblue" stroke="midnightblue" points="458.501,-330.913 468.891,-328.839 459.476,-323.981 458.501,-330.913"/>
</g>
<!-- Node4 -->
<g id="node4" class="node"><title>Node4</title>
<g id="a_node4"><a xlink:href="$AP__Math_8h.html#a2a12cce483e9b870da70d30406d82c60" xlink:title="is_zero">
<polygon fill="white" stroke="black" points="507.5,-284 507.5,-303 555.5,-303 555.5,-284 507.5,-284"/>
<text text-anchor="middle" x="531.5" y="-291" font-family="Helvetica,sans-Serif" font-size="10.00">is_zero</text>
</a>
</g>
</g>
<!-- Node2&#45;&gt;Node4 -->
<g id="edge3" class="edge"><title>Node2&#45;&gt;Node4</title>
<path fill="none" stroke="midnightblue" d="M429.176,-307.744C451.853,-304.556 477.37,-300.969 497.123,-298.192"/>
<polygon fill="midnightblue" stroke="midnightblue" points="497.75,-301.638 507.165,-296.78 496.776,-294.706 497.75,-301.638"/>
</g>
<!-- Node5 -->
<g id="node5" class="node"><title>Node5</title>
<g id="a_node5"><a xlink:href="$AP__Math_8h.html#ad525609d9dba6ffa556a0fbf08a3f9b4" xlink:title="constrain_float">
<polygon fill="white" stroke="black" points="491.5,-219 491.5,-238 571.5,-238 571.5,-219 491.5,-219"/>
<text text-anchor="middle" x="531.5" y="-226" font-family="Helvetica,sans-Serif" font-size="10.00">constrain_float</text>
</a>
</g>
</g>
<!-- Node2&#45;&gt;Node5 -->
<g id="edge4" class="edge"><title>Node2&#45;&gt;Node5</title>
<path fill="none" stroke="midnightblue" d="M415.106,-294.989C421.137,-291.867 427.251,-288.639 433,-285.5 458.257,-271.711 486.598,-254.999 506.187,-243.247"/>
<polygon fill="midnightblue" stroke="midnightblue" points="508.027,-246.225 514.788,-238.068 504.416,-240.228 508.027,-246.225"/>
</g>
<!-- Node6 -->
<g id="node6" class="node"><title>Node6</title>
<g id="a_node6"><a xlink:href="$AP__Math_8h.html#a20e8f8671c282c69c1954652b6d61585" xlink:title="constrain_value">
<polygon fill="white" stroke="black" points="630,-219 630,-238 715,-238 715,-219 630,-219"/>
<text text-anchor="middle" x="672.5" y="-226" font-family="Helvetica,sans-Serif" font-size="10.00">constrain_value</text>
</a>
</g>
</g>
<!-- Node5&#45;&gt;Node6 -->
<g id="edge5" class="edge"><title>Node5&#45;&gt;Node6</title>
<path fill="none" stroke="midnightblue" d="M571.589,-228.5C586.476,-228.5 603.681,-228.5 619.574,-228.5"/>
<polygon fill="midnightblue" stroke="midnightblue" points="619.791,-232 629.791,-228.5 619.791,-225 619.791,-232"/>
</g>
<!-- Node7 -->
<g id="node7" class="node"><title>Node7</title>
<g id="a_node7"><a xlink:href="$AP__Math_8cpp.html#a37e8e901754cb9c8e53a8e3030c82c50" xlink:title="constrain_value\&lt; int \&gt;">
<polygon fill="white" stroke="black" points="760,-276 760,-295 873,-295 873,-276 760,-276"/>
<text text-anchor="middle" x="816.5" y="-283" font-family="Helvetica,sans-Serif" font-size="10.00">constrain_value&lt; int &gt;</text>
</a>
</g>
</g>
<!-- Node6&#45;&gt;Node7 -->
<g id="edge6" class="edge"><title>Node6&#45;&gt;Node7</title>
<path fill="none" stroke="midnightblue" d="M690.97,-238.128C706.432,-246.391 729.774,-258.238 751,-266.5 756.854,-268.778 763.097,-270.939 769.307,-272.929"/>
<polygon fill="midnightblue" stroke="midnightblue" points="768.389,-276.309 778.977,-275.911 770.452,-269.62 768.389,-276.309"/>
</g>
<!-- Node8 -->
<g id="node8" class="node"><title>Node8</title>
<g id="a_node8"><a xlink:href="$AP__Math_8cpp.html#afdbe107ec1987d318a6347816fbf2b89" xlink:title="constrain_value\&lt; short \&gt;">
<polygon fill="white" stroke="black" points="754,-238 754,-257 879,-257 879,-238 754,-238"/>
<text text-anchor="middle" x="816.5" y="-245" font-family="Helvetica,sans-Serif" font-size="10.00">constrain_value&lt; short &gt;</text>
</a>
</g>
</g>
<!-- Node6&#45;&gt;Node8 -->
<g id="edge7" class="edge"><title>Node6&#45;&gt;Node8</title>
<path fill="none" stroke="midnightblue" d="M715.337,-234.098C724.323,-235.3 734.064,-236.604 743.821,-237.909"/>
<polygon fill="midnightblue" stroke="midnightblue" points="743.589,-241.409 753.965,-239.266 744.518,-234.471 743.589,-241.409"/>
</g>
<!-- Node9 -->
<g id="node9" class="node"><title>Node9</title>
<g id="a_node9"><a xlink:href="$AP__Math_8cpp.html#ae6c621670c214da687de21d4e3a92587" xlink:title="constrain_value\&lt; float \&gt;">
<polygon fill="white" stroke="black" points="755.5,-200 755.5,-219 877.5,-219 877.5,-200 755.5,-200"/>
<text text-anchor="middle" x="816.5" y="-207" font-family="Helvetica,sans-Serif" font-size="10.00">constrain_value&lt; float &gt;</text>
</a>
</g>
</g>
<!-- Node6&#45;&gt;Node9 -->
<g id="edge8" class="edge"><title>Node6&#45;&gt;Node9</title>
<path fill="none" stroke="midnightblue" d="M715.337,-222.902C724.724,-221.646 734.935,-220.28 745.129,-218.916"/>
<polygon fill="midnightblue" stroke="midnightblue" points="745.838,-222.352 755.286,-217.557 744.91,-215.414 745.838,-222.352"/>
</g>
<!-- Node10 -->
<g id="node10" class="node"><title>Node10</title>
<g id="a_node10"><a xlink:href="$AP__Math_8cpp.html#afe3990b00e9abc43fa97dfaf8e32f5c4" xlink:title="constrain_value\&lt; double \&gt;">
<polygon fill="white" stroke="black" points="751,-162 751,-181 882,-181 882,-162 751,-162"/>
<text text-anchor="middle" x="816.5" y="-169" font-family="Helvetica,sans-Serif" font-size="10.00">constrain_value&lt; double &gt;</text>
</a>
</g>
</g>
<!-- Node6&#45;&gt;Node10 -->
<g id="edge9" class="edge"><title>Node6&#45;&gt;Node10</title>
<path fill="none" stroke="midnightblue" d="M690.97,-218.872C706.432,-210.609 729.774,-198.762 751,-190.5 756.854,-188.222 763.097,-186.061 769.307,-184.071"/>
<polygon fill="midnightblue" stroke="midnightblue" points="770.452,-187.38 778.977,-181.089 768.389,-180.691 770.452,-187.38"/>
</g>
<!-- Node11&#45;&gt;Node2 -->
<g id="edge11" class="edge"><title>Node11&#45;&gt;Node2</title>
<path fill="none" stroke="midnightblue" d="M230.522,-194.831C246.361,-217.042 278.201,-258.464 313,-285.5 314.769,-286.875 316.612,-288.214 318.505,-289.516"/>
<polygon fill="midnightblue" stroke="midnightblue" points="316.756,-292.551 327.071,-294.971 320.516,-286.647 316.756,-292.551"/>
</g>
<!-- Node12 -->
<g id="node12" class="node"><title>Node12</title>
<g id="a_node12"><a xlink:href="$classAP__Motors.html#a663672b4ada40c46d343e3f62b51b820" xlink:title="AP_Motors::set_throttle\l_filter_cutoff">
<polygon fill="white" stroke="black" points="313,-0.5 313,-30.5 433,-30.5 433,-0.5 313,-0.5"/>
<text text-anchor="start" x="321" y="-18.5" font-family="Helvetica,sans-Serif" font-size="10.00">AP_Motors::set_throttle</text>
<text text-anchor="middle" x="373" y="-7.5" font-family="Helvetica,sans-Serif" font-size="10.00">_filter_cutoff</text>
</a>
</g>
</g>
<!-- Node11&#45;&gt;Node12 -->
<g id="edge12" class="edge"><title>Node11&#45;&gt;Node12</title>
<path fill="none" stroke="midnightblue" d="M227.272,-164.425C240.864,-137.548 272.452,-80.8659 313,-45.5 317.113,-41.9122 321.732,-38.623 326.526,-35.645"/>
<polygon fill="midnightblue" stroke="midnightblue" points="328.343,-38.6374 335.274,-30.6237 324.859,-32.5664 328.343,-38.6374"/>
</g>
<!-- Node11&#45;&gt;Node14 -->
<g id="edge14" class="edge"><title>Node11&#45;&gt;Node14</title>
<path fill="none" stroke="midnightblue" d="M250.03,-194.515C270.424,-204.712 297.891,-218.445 321.596,-230.298"/>
<polygon fill="midnightblue" stroke="midnightblue" points="320.302,-233.564 330.812,-234.906 323.433,-227.303 320.302,-233.564"/>
</g>
<!-- Node15 -->
<g id="node15" class="node"><title>Node15</title>
<g id="a_node15"><a xlink:href="$classAP__Motors.html#a56d079ad89f5a4d2cacf014c8958a527" xlink:title="AP_Motors::set_throttle">
<polygon fill="white" stroke="black" points="313,-148 313,-167 433,-167 433,-148 313,-148"/>
<text text-anchor="middle" x="373" y="-155" font-family="Helvetica,sans-Serif" font-size="10.00">AP_Motors::set_throttle</text>
</a>
</g>
</g>
<!-- Node11&#45;&gt;Node15 -->
<g id="edge16" class="edge"><title>Node11&#45;&gt;Node15</title>
<path fill="none" stroke="midnightblue" d="M277.032,-171.245C285.448,-170.027 294.195,-168.761 302.825,-167.512"/>
<polygon fill="midnightblue" stroke="midnightblue" points="303.478,-170.954 312.873,-166.058 302.475,-164.026 303.478,-170.954"/>
</g>
<!-- Node16 -->
<g id="node16" class="node"><title>Node16</title>
<g id="a_node16"><a xlink:href="$classAP__Motors.html#a8f1c08d3e3ec39c1ce43a30f8045770c" xlink:title="AP_Motors::set_throttle\l_avg_max">
<polygon fill="white" stroke="black" points="313,-186.5 313,-216.5 433,-216.5 433,-186.5 313,-186.5"/>
<text text-anchor="start" x="321" y="-204.5" font-family="Helvetica,sans-Serif" font-size="10.00">AP_Motors::set_throttle</text>
<text text-anchor="middle" x="373" y="-193.5" font-family="Helvetica,sans-Serif" font-size="10.00">_avg_max</text>
</a>
</g>
</g>
<!-- Node11&#45;&gt;Node16 -->
<g id="edge17" class="edge"><title>Node11&#45;&gt;Node16</title>
<path fill="none" stroke="midnightblue" d="M277.032,-187.755C285.448,-188.973 294.195,-190.239 302.825,-191.488"/>
<polygon fill="midnightblue" stroke="midnightblue" points="302.475,-194.974 312.873,-192.942 303.478,-188.046 302.475,-194.974"/>
</g>
<!-- Node17 -->
<g id="node17" class="node"><title>Node17</title>
<g id="a_node17"><a xlink:href="$classAC__AttitudeControl__Multi.html#a1f410bd94a6fc051eaa26f70c6168b86" xlink:title="AC_AttitudeControl\l_Multi::get_throttle\l_avg_max">
<polygon fill="white" stroke="black" points="322.5,-88 322.5,-129 423.5,-129 423.5,-88 322.5,-88"/>
<text text-anchor="start" x="330.5" y="-117" font-family="Helvetica,sans-Serif" font-size="10.00">AC_AttitudeControl</text>
<text text-anchor="start" x="330.5" y="-106" font-family="Helvetica,sans-Serif" font-size="10.00">_Multi::get_throttle</text>
<text text-anchor="middle" x="373" y="-95" font-family="Helvetica,sans-Serif" font-size="10.00">_avg_max</text>
</a>
</g>
</g>
<!-- Node11&#45;&gt;Node17 -->
<g id="edge19" class="edge"><title>Node11&#45;&gt;Node17</title>
<path fill="none" stroke="midnightblue" d="M252.235,-164.443C271.527,-155.431 296.526,-143.754 318.69,-133.401"/>
<polygon fill="midnightblue" stroke="midnightblue" points="320.412,-136.46 327.991,-129.057 317.449,-130.118 320.412,-136.46"/>
</g>
<!-- Node18 -->
<g id="node18" class="node"><title>Node18</title>
<g id="a_node18"><a xlink:href="$AP__Math_8h.html#a5c0b5c82749ac54970b2699d3c10ee9b" xlink:title="MAX">
<polygon fill="white" stroke="black" points="512.5,-53 512.5,-72 550.5,-72 550.5,-53 512.5,-53"/>
<text text-anchor="middle" x="531.5" y="-60" font-family="Helvetica,sans-Serif" font-size="10.00">MAX</text>
</a>
</g>
</g>
<!-- Node11&#45;&gt;Node18 -->
<g id="edge23" class="edge"><title>Node11&#45;&gt;Node18</title>
<path fill="none" stroke="midnightblue" d="M228.792,-164.174C243.077,-140.932 273.723,-97.474 313,-78.5 375.23,-48.4378 459.293,-53.1109 502.417,-58.2691"/>
<polygon fill="midnightblue" stroke="midnightblue" points="502.094,-61.7564 512.461,-59.5701 502.993,-54.8144 502.094,-61.7564"/>
</g>
<!-- Node13 -->
<g id="node13" class="node"><title>Node13</title>
<g id="a_node13"><a xlink:href="$classLowPassFilter.html#a1cc5016de137b01080fa0a6fa7fe53cd" xlink:title="LowPassFilter::set\l_cutoff_frequency">
<polygon fill="white" stroke="black" points="482.5,-0.5 482.5,-30.5 580.5,-30.5 580.5,-0.5 482.5,-0.5"/>
<text text-anchor="start" x="490.5" y="-18.5" font-family="Helvetica,sans-Serif" font-size="10.00">LowPassFilter::set</text>
<text text-anchor="middle" x="531.5" y="-7.5" font-family="Helvetica,sans-Serif" font-size="10.00">_cutoff_frequency</text>
</a>
</g>
</g>
<!-- Node12&#45;&gt;Node13 -->
<g id="edge13" class="edge"><title>Node12&#45;&gt;Node13</title>
<path fill="none" stroke="midnightblue" d="M433.166,-15.5C446.006,-15.5 459.577,-15.5 472.377,-15.5"/>
<polygon fill="midnightblue" stroke="midnightblue" points="472.448,-19.0001 482.448,-15.5 472.448,-12.0001 472.448,-19.0001"/>
</g>
<!-- Node14&#45;&gt;Node5 -->
<g id="edge15" class="edge"><title>Node14&#45;&gt;Node5</title>
<path fill="none" stroke="midnightblue" d="M423.518,-246.957C442.029,-243.763 463.032,-240.14 481.497,-236.954"/>
<polygon fill="midnightblue" stroke="midnightblue" points="482.203,-240.384 491.463,-235.235 481.013,-233.486 482.203,-240.384"/>
</g>
<!-- Node16&#45;&gt;Node5 -->
<g id="edge18" class="edge"><title>Node16&#45;&gt;Node5</title>
<path fill="none" stroke="midnightblue" d="M433.166,-211.708C448.92,-214.425 465.772,-217.333 480.952,-219.952"/>
<polygon fill="midnightblue" stroke="midnightblue" points="480.71,-223.462 491.16,-221.713 481.901,-216.564 480.71,-223.462"/>
</g>
<!-- Node17&#45;&gt;Node5 -->
<g id="edge20" class="edge"><title>Node17&#45;&gt;Node5</title>
<path fill="none" stroke="midnightblue" d="M417.966,-129.139C423.159,-132.074 428.284,-135.218 433,-138.5 464.602,-160.489 496.496,-192.125 514.832,-211.44"/>
<polygon fill="midnightblue" stroke="midnightblue" points="512.429,-213.995 521.82,-218.9 517.538,-209.209 512.429,-213.995"/>
</g>
<!-- Node17&#45;&gt;Node18 -->
<g id="edge21" class="edge"><title>Node17&#45;&gt;Node18</title>
<path fill="none" stroke="midnightblue" d="M423.518,-93.9453C449.647,-86.265 480.741,-77.1257 502.654,-70.6848"/>
<polygon fill="midnightblue" stroke="midnightblue" points="503.711,-74.0223 512.318,-67.8442 501.737,-67.3064 503.711,-74.0223"/>
</g>
<!-- Node19 -->
<g id="node19" class="node"><title>Node19</title>
<g id="a_node19"><a xlink:href="$classAP__Motors.html#a6641c5398dea1388547dff3db5d95a86" xlink:title="AP_Motors::get_throttle\l_hover">
<polygon fill="white" stroke="black" points="471.5,-93.5 471.5,-123.5 591.5,-123.5 591.5,-93.5 471.5,-93.5"/>
<text text-anchor="start" x="479.5" y="-111.5" font-family="Helvetica,sans-Serif" font-size="10.00">AP_Motors::get_throttle</text>
<text text-anchor="middle" x="531.5" y="-100.5" font-family="Helvetica,sans-Serif" font-size="10.00">_hover</text>
</a>
</g>
</g>
<!-- Node17&#45;&gt;Node19 -->
<g id="edge22" class="edge"><title>Node17&#45;&gt;Node19</title>
<path fill="none" stroke="midnightblue" d="M423.518,-108.5C435.53,-108.5 448.591,-108.5 461.327,-108.5"/>
<polygon fill="midnightblue" stroke="midnightblue" points="461.446,-112 471.446,-108.5 461.446,-105 461.446,-112"/>
</g>
</g>
</svg>
