<?xml version="1.0" encoding="UTF-8" standalone="no"?>
<!DOCTYPE svg PUBLIC "-//W3C//DTD SVG 1.1//EN"
 "http://www.w3.org/Graphics/SVG/1.1/DTD/svg11.dtd">
<!-- Generated by graphviz version 2.38.0 (20140413.2041)
 -->
<!-- Title: AC_PI_2D::filt_hz Pages: 1 -->
<svg width="328pt" height="78pt"
 viewBox="0.00 0.00 328.00 77.50" xmlns="http://www.w3.org/2000/svg" xmlns:xlink="http://www.w3.org/1999/xlink">
<g id="graph0" class="graph" transform="scale(1 1) rotate(0) translate(4 73.5)">
<title>AC_PI_2D::filt_hz</title>
<polygon fill="white" stroke="none" points="-4,4 -4,-73.5 324,-73.5 324,4 -4,4"/>
<!-- Node1 -->
<g id="node1" class="node"><title>Node1</title>
<polygon fill="#bfbfbf" stroke="black" points="0,-28 0,-47 96,-47 96,-28 0,-28"/>
<text text-anchor="middle" x="48" y="-35" font-family="Helvetica,sans-Serif" font-size="10.00">AC_PI_2D::filt_hz</text>
</g>
<!-- Node2 -->
<g id="node2" class="node"><title>Node2</title>
<g id="a_node2"><a xlink:href="$AP__Math_8h.html#a5c0b5c82749ac54970b2699d3c10ee9b" xlink:title="MAX">
<polygon fill="white" stroke="black" points="165,-50 165,-69 203,-69 203,-50 165,-50"/>
<text text-anchor="middle" x="184" y="-57" font-family="Helvetica,sans-Serif" font-size="10.00">MAX</text>
</a>
</g>
</g>
<!-- Node1&#45;&gt;Node2 -->
<g id="edge1" class="edge"><title>Node1&#45;&gt;Node2</title>
<path fill="none" stroke="midnightblue" d="M96.2434,-45.2564C115.652,-48.4429 137.49,-52.0282 154.4,-54.8045"/>
<polygon fill="midnightblue" stroke="midnightblue" points="154.292,-58.3334 164.726,-56.4999 155.426,-51.4259 154.292,-58.3334"/>
</g>
<!-- Node3 -->
<g id="node3" class="node"><title>Node3</title>
<g id="a_node3"><a xlink:href="$classAC__PI__2D.html#ad06c3792dacb8c3ebfdffca3697ed727" xlink:title="AC_PI_2D::calc_filt\l_alpha">
<polygon fill="white" stroke="black" points="132,-0.5 132,-30.5 236,-30.5 236,-0.5 132,-0.5"/>
<text text-anchor="start" x="140" y="-18.5" font-family="Helvetica,sans-Serif" font-size="10.00">AC_PI_2D::calc_filt</text>
<text text-anchor="middle" x="184" y="-7.5" font-family="Helvetica,sans-Serif" font-size="10.00">_alpha</text>
</a>
</g>
</g>
<!-- Node1&#45;&gt;Node3 -->
<g id="edge2" class="edge"><title>Node1&#45;&gt;Node3</title>
<path fill="none" stroke="midnightblue" d="M96.2434,-29.7436C104.475,-28.3921 113.144,-26.9688 121.689,-25.566"/>
<polygon fill="midnightblue" stroke="midnightblue" points="122.328,-29.008 131.629,-23.934 121.194,-22.1004 122.328,-29.008"/>
</g>
<!-- Node4 -->
<g id="node4" class="node"><title>Node4</title>
<g id="a_node4"><a xlink:href="$AP__Math_8h.html#a2a12cce483e9b870da70d30406d82c60" xlink:title="is_zero">
<polygon fill="white" stroke="black" points="272,-6 272,-25 320,-25 320,-6 272,-6"/>
<text text-anchor="middle" x="296" y="-13" font-family="Helvetica,sans-Serif" font-size="10.00">is_zero</text>
</a>
</g>
</g>
<!-- Node3&#45;&gt;Node4 -->
<g id="edge3" class="edge"><title>Node3&#45;&gt;Node4</title>
<path fill="none" stroke="midnightblue" d="M236.136,-15.5C244.796,-15.5 253.585,-15.5 261.637,-15.5"/>
<polygon fill="midnightblue" stroke="midnightblue" points="261.726,-19.0001 271.726,-15.5 261.726,-12.0001 261.726,-19.0001"/>
</g>
</g>
</svg>
