<?xml version="1.0" encoding="UTF-8" standalone="no"?>
<!DOCTYPE svg PUBLIC "-//W3C//DTD SVG 1.1//EN"
 "http://www.w3.org/Graphics/SVG/1.1/DTD/svg11.dtd">
<!-- Generated by graphviz version 2.38.0 (20140413.2041)
 -->
<!-- Title: AC_AttitudeControl::max_rate_step_bf_yaw Pages: 1 -->
<svg width="372pt" height="204pt"
 viewBox="0.00 0.00 372.00 203.50" xmlns="http://www.w3.org/2000/svg" xmlns:xlink="http://www.w3.org/1999/xlink">
<g id="graph0" class="graph" transform="scale(1 1) rotate(0) translate(4 199.5)">
<title>AC_AttitudeControl::max_rate_step_bf_yaw</title>
<polygon fill="white" stroke="none" points="-4,4 -4,-199.5 368,-199.5 368,4 -4,4"/>
<!-- Node1 -->
<g id="node1" class="node"><title>Node1</title>
<polygon fill="#bfbfbf" stroke="black" points="0,-77 0,-107 124,-107 124,-77 0,-77"/>
<text text-anchor="start" x="8" y="-95" font-family="Helvetica,sans-Serif" font-size="10.00">AC_AttitudeControl</text>
<text text-anchor="middle" x="62" y="-84" font-family="Helvetica,sans-Serif" font-size="10.00">::max_rate_step_bf_yaw</text>
</g>
<!-- Node2 -->
<g id="node2" class="node"><title>Node2</title>
<g id="a_node2"><a xlink:href="$classAC__AttitudeControl.html#a9e430ac947e0924fdc83280a4ed552bf" xlink:title="AC_AttitudeControl\l::get_rate_yaw_pid">
<polygon fill="white" stroke="black" points="169.5,-165 169.5,-195 270.5,-195 270.5,-165 169.5,-165"/>
<text text-anchor="start" x="177.5" y="-183" font-family="Helvetica,sans-Serif" font-size="10.00">AC_AttitudeControl</text>
<text text-anchor="middle" x="220" y="-172" font-family="Helvetica,sans-Serif" font-size="10.00">::get_rate_yaw_pid</text>
</a>
</g>
</g>
<!-- Node1&#45;&gt;Node2 -->
<g id="edge1" class="edge"><title>Node1&#45;&gt;Node2</title>
<path fill="none" stroke="midnightblue" d="M83.9201,-107.124C103.137,-120.639 132.692,-140.49 160,-155 163.702,-156.967 167.593,-158.897 171.537,-160.758"/>
<polygon fill="midnightblue" stroke="midnightblue" points="170.22,-164.004 180.771,-164.96 173.119,-157.632 170.22,-164.004"/>
</g>
<!-- Node3 -->
<g id="node3" class="node"><title>Node3</title>
<g id="a_node3"><a xlink:href="$classAC__PID.html#ac12ffbd4fd053c6152d403b69e07b8e1" xlink:title="AC_PID::get_filt_alpha">
<polygon fill="white" stroke="black" points="161.5,-126.5 161.5,-145.5 278.5,-145.5 278.5,-126.5 161.5,-126.5"/>
<text text-anchor="middle" x="220" y="-133.5" font-family="Helvetica,sans-Serif" font-size="10.00">AC_PID::get_filt_alpha</text>
</a>
</g>
</g>
<!-- Node1&#45;&gt;Node3 -->
<g id="edge2" class="edge"><title>Node1&#45;&gt;Node3</title>
<path fill="none" stroke="midnightblue" d="M116.25,-107.019C135.464,-112.439 156.914,-118.489 175.225,-123.653"/>
<polygon fill="midnightblue" stroke="midnightblue" points="174.466,-127.076 185.041,-126.422 176.366,-120.338 174.466,-127.076"/>
</g>
<!-- Node5 -->
<g id="node5" class="node"><title>Node5</title>
<g id="a_node5"><a xlink:href="$classAP__Motors.html#a6641c5398dea1388547dff3db5d95a86" xlink:title="AP_Motors::get_throttle\l_hover">
<polygon fill="white" stroke="black" points="160,-77 160,-107 280,-107 280,-77 160,-77"/>
<text text-anchor="start" x="168" y="-95" font-family="Helvetica,sans-Serif" font-size="10.00">AP_Motors::get_throttle</text>
<text text-anchor="middle" x="220" y="-84" font-family="Helvetica,sans-Serif" font-size="10.00">_hover</text>
</a>
</g>
</g>
<!-- Node1&#45;&gt;Node5 -->
<g id="edge4" class="edge"><title>Node1&#45;&gt;Node5</title>
<path fill="none" stroke="midnightblue" d="M124.208,-92C132.522,-92 141.103,-92 149.548,-92"/>
<polygon fill="midnightblue" stroke="midnightblue" points="149.756,-95.5001 159.756,-92 149.756,-88.5001 149.756,-95.5001"/>
</g>
<!-- Node6 -->
<g id="node6" class="node"><title>Node6</title>
<g id="a_node6"><a xlink:href="$classAC__PID.html#a2d7be199fbc437ee472fad5a4308c668" xlink:title="AC_PID::kD">
<polygon fill="white" stroke="black" points="184,-38.5 184,-57.5 256,-57.5 256,-38.5 184,-38.5"/>
<text text-anchor="middle" x="220" y="-45.5" font-family="Helvetica,sans-Serif" font-size="10.00">AC_PID::kD</text>
</a>
</g>
</g>
<!-- Node1&#45;&gt;Node6 -->
<g id="edge5" class="edge"><title>Node1&#45;&gt;Node6</title>
<path fill="none" stroke="midnightblue" d="M116.25,-76.9808C135.464,-71.5613 156.914,-65.5114 175.225,-60.3468"/>
<polygon fill="midnightblue" stroke="midnightblue" points="176.366,-63.6615 185.041,-57.5783 174.466,-56.9244 176.366,-63.6615"/>
</g>
<!-- Node7 -->
<g id="node7" class="node"><title>Node7</title>
<g id="a_node7"><a xlink:href="$classAC__PID.html#ac29a8c72a8618d87886599204dcb5b79" xlink:title="AC_PID::kP">
<polygon fill="white" stroke="black" points="184.5,-0.5 184.5,-19.5 255.5,-19.5 255.5,-0.5 184.5,-0.5"/>
<text text-anchor="middle" x="220" y="-7.5" font-family="Helvetica,sans-Serif" font-size="10.00">AC_PID::kP</text>
</a>
</g>
</g>
<!-- Node1&#45;&gt;Node7 -->
<g id="edge6" class="edge"><title>Node1&#45;&gt;Node7</title>
<path fill="none" stroke="midnightblue" d="M82.8891,-76.8279C101.878,-62.9019 131.709,-42.4498 160,-29 164.679,-26.7757 169.684,-24.7161 174.728,-22.8379"/>
<polygon fill="midnightblue" stroke="midnightblue" points="176.116,-26.0603 184.399,-19.4539 173.804,-19.4531 176.116,-26.0603"/>
</g>
<!-- Node4 -->
<g id="node4" class="node"><title>Node4</title>
<g id="a_node4"><a xlink:href="$AP__Math_8h.html#a2a12cce483e9b870da70d30406d82c60" xlink:title="is_zero">
<polygon fill="white" stroke="black" points="316,-126.5 316,-145.5 364,-145.5 364,-126.5 316,-126.5"/>
<text text-anchor="middle" x="340" y="-133.5" font-family="Helvetica,sans-Serif" font-size="10.00">is_zero</text>
</a>
</g>
</g>
<!-- Node3&#45;&gt;Node4 -->
<g id="edge3" class="edge"><title>Node3&#45;&gt;Node4</title>
<path fill="none" stroke="midnightblue" d="M278.617,-136C287.914,-136 297.256,-136 305.72,-136"/>
<polygon fill="midnightblue" stroke="midnightblue" points="305.903,-139.5 315.902,-136 305.902,-132.5 305.903,-139.5"/>
</g>
</g>
</svg>
