<?xml version="1.0" encoding="UTF-8" standalone="no"?>
<!DOCTYPE svg PUBLIC "-//W3C//DTD SVG 1.1//EN"
 "http://www.w3.org/Graphics/SVG/1.1/DTD/svg11.dtd">
<!-- Generated by graphviz version 2.38.0 (20140413.2041)
 -->
<!-- Title: AC_AttitudeControl::max_angle_step_bf_yaw Pages: 1 -->
<svg width="539pt" height="204pt"
 viewBox="0.00 0.00 539.00 203.50" xmlns="http://www.w3.org/2000/svg" xmlns:xlink="http://www.w3.org/1999/xlink">
<g id="graph0" class="graph" transform="scale(1 1) rotate(0) translate(4 199.5)">
<title>AC_AttitudeControl::max_angle_step_bf_yaw</title>
<polygon fill="white" stroke="none" points="-4,4 -4,-199.5 535,-199.5 535,4 -4,4"/>
<!-- Node1 -->
<g id="node1" class="node"><title>Node1</title>
<polygon fill="#bfbfbf" stroke="black" points="0,-55 0,-85 131,-85 131,-55 0,-55"/>
<text text-anchor="start" x="8" y="-73" font-family="Helvetica,sans-Serif" font-size="10.00">AC_AttitudeControl</text>
<text text-anchor="middle" x="65.5" y="-62" font-family="Helvetica,sans-Serif" font-size="10.00">::max_angle_step_bf_yaw</text>
</g>
<!-- Node2 -->
<g id="node2" class="node"><title>Node2</title>
<g id="a_node2"><a xlink:href="$classAC__AttitudeControl.html#a8d9a7d9bcefcac0e41adb1136cac46a6" xlink:title="AC_AttitudeControl\l::max_rate_step_bf_yaw">
<polygon fill="white" stroke="black" points="167,-77 167,-107 291,-107 291,-77 167,-77"/>
<text text-anchor="start" x="175" y="-95" font-family="Helvetica,sans-Serif" font-size="10.00">AC_AttitudeControl</text>
<text text-anchor="middle" x="229" y="-84" font-family="Helvetica,sans-Serif" font-size="10.00">::max_rate_step_bf_yaw</text>
</a>
</g>
</g>
<!-- Node1&#45;&gt;Node2 -->
<g id="edge1" class="edge"><title>Node1&#45;&gt;Node2</title>
<path fill="none" stroke="midnightblue" d="M131.258,-78.8215C139.71,-79.9728 148.405,-81.1573 156.953,-82.3218"/>
<polygon fill="midnightblue" stroke="midnightblue" points="156.516,-85.7945 166.897,-83.6764 157.461,-78.8586 156.516,-85.7945"/>
</g>
<!-- Node9 -->
<g id="node9" class="node"><title>Node9</title>
<g id="a_node9"><a xlink:href="$classAC__P.html#a723b372dfceb74ddb2edbe11544e9d5a" xlink:title="AC_P::kP">
<polygon fill="white" stroke="black" points="198.5,-38.5 198.5,-57.5 259.5,-57.5 259.5,-38.5 198.5,-38.5"/>
<text text-anchor="middle" x="229" y="-45.5" font-family="Helvetica,sans-Serif" font-size="10.00">AC_P::kP</text>
</a>
</g>
</g>
<!-- Node1&#45;&gt;Node9 -->
<g id="edge8" class="edge"><title>Node1&#45;&gt;Node9</title>
<path fill="none" stroke="midnightblue" d="M131.258,-61.1785C150.443,-58.565 170.883,-55.7806 188.008,-53.4478"/>
<polygon fill="midnightblue" stroke="midnightblue" points="188.766,-56.877 198.202,-52.0592 187.821,-49.941 188.766,-56.877"/>
</g>
<!-- Node3 -->
<g id="node3" class="node"><title>Node3</title>
<g id="a_node3"><a xlink:href="$classAC__AttitudeControl.html#a9e430ac947e0924fdc83280a4ed552bf" xlink:title="AC_AttitudeControl\l::get_rate_yaw_pid">
<polygon fill="white" stroke="black" points="336.5,-165 336.5,-195 437.5,-195 437.5,-165 336.5,-165"/>
<text text-anchor="start" x="344.5" y="-183" font-family="Helvetica,sans-Serif" font-size="10.00">AC_AttitudeControl</text>
<text text-anchor="middle" x="387" y="-172" font-family="Helvetica,sans-Serif" font-size="10.00">::get_rate_yaw_pid</text>
</a>
</g>
</g>
<!-- Node2&#45;&gt;Node3 -->
<g id="edge2" class="edge"><title>Node2&#45;&gt;Node3</title>
<path fill="none" stroke="midnightblue" d="M250.92,-107.124C270.137,-120.639 299.692,-140.49 327,-155 330.702,-156.967 334.593,-158.897 338.537,-160.758"/>
<polygon fill="midnightblue" stroke="midnightblue" points="337.22,-164.004 347.771,-164.96 340.119,-157.632 337.22,-164.004"/>
</g>
<!-- Node4 -->
<g id="node4" class="node"><title>Node4</title>
<g id="a_node4"><a xlink:href="$classAC__PID.html#ac12ffbd4fd053c6152d403b69e07b8e1" xlink:title="AC_PID::get_filt_alpha">
<polygon fill="white" stroke="black" points="328.5,-126.5 328.5,-145.5 445.5,-145.5 445.5,-126.5 328.5,-126.5"/>
<text text-anchor="middle" x="387" y="-133.5" font-family="Helvetica,sans-Serif" font-size="10.00">AC_PID::get_filt_alpha</text>
</a>
</g>
</g>
<!-- Node2&#45;&gt;Node4 -->
<g id="edge3" class="edge"><title>Node2&#45;&gt;Node4</title>
<path fill="none" stroke="midnightblue" d="M283.25,-107.019C302.464,-112.439 323.914,-118.489 342.225,-123.653"/>
<polygon fill="midnightblue" stroke="midnightblue" points="341.466,-127.076 352.041,-126.422 343.366,-120.338 341.466,-127.076"/>
</g>
<!-- Node6 -->
<g id="node6" class="node"><title>Node6</title>
<g id="a_node6"><a xlink:href="$classAP__Motors.html#a6641c5398dea1388547dff3db5d95a86" xlink:title="AP_Motors::get_throttle\l_hover">
<polygon fill="white" stroke="black" points="327,-77 327,-107 447,-107 447,-77 327,-77"/>
<text text-anchor="start" x="335" y="-95" font-family="Helvetica,sans-Serif" font-size="10.00">AP_Motors::get_throttle</text>
<text text-anchor="middle" x="387" y="-84" font-family="Helvetica,sans-Serif" font-size="10.00">_hover</text>
</a>
</g>
</g>
<!-- Node2&#45;&gt;Node6 -->
<g id="edge5" class="edge"><title>Node2&#45;&gt;Node6</title>
<path fill="none" stroke="midnightblue" d="M291.208,-92C299.522,-92 308.103,-92 316.548,-92"/>
<polygon fill="midnightblue" stroke="midnightblue" points="316.756,-95.5001 326.756,-92 316.756,-88.5001 316.756,-95.5001"/>
</g>
<!-- Node7 -->
<g id="node7" class="node"><title>Node7</title>
<g id="a_node7"><a xlink:href="$classAC__PID.html#a2d7be199fbc437ee472fad5a4308c668" xlink:title="AC_PID::kD">
<polygon fill="white" stroke="black" points="351,-38.5 351,-57.5 423,-57.5 423,-38.5 351,-38.5"/>
<text text-anchor="middle" x="387" y="-45.5" font-family="Helvetica,sans-Serif" font-size="10.00">AC_PID::kD</text>
</a>
</g>
</g>
<!-- Node2&#45;&gt;Node7 -->
<g id="edge6" class="edge"><title>Node2&#45;&gt;Node7</title>
<path fill="none" stroke="midnightblue" d="M283.25,-76.9808C302.464,-71.5613 323.914,-65.5114 342.225,-60.3468"/>
<polygon fill="midnightblue" stroke="midnightblue" points="343.366,-63.6615 352.041,-57.5783 341.466,-56.9244 343.366,-63.6615"/>
</g>
<!-- Node8 -->
<g id="node8" class="node"><title>Node8</title>
<g id="a_node8"><a xlink:href="$classAC__PID.html#ac29a8c72a8618d87886599204dcb5b79" xlink:title="AC_PID::kP">
<polygon fill="white" stroke="black" points="351.5,-0.5 351.5,-19.5 422.5,-19.5 422.5,-0.5 351.5,-0.5"/>
<text text-anchor="middle" x="387" y="-7.5" font-family="Helvetica,sans-Serif" font-size="10.00">AC_PID::kP</text>
</a>
</g>
</g>
<!-- Node2&#45;&gt;Node8 -->
<g id="edge7" class="edge"><title>Node2&#45;&gt;Node8</title>
<path fill="none" stroke="midnightblue" d="M273.518,-76.8505C279.609,-73.972 285.618,-70.6873 291,-67 310.192,-53.8507 307.314,-41.3968 327,-29 331.61,-26.0971 336.704,-23.5992 341.91,-21.4598"/>
<polygon fill="midnightblue" stroke="midnightblue" points="343.153,-24.732 351.322,-17.9858 340.729,-18.165 343.153,-24.732"/>
</g>
<!-- Node5 -->
<g id="node5" class="node"><title>Node5</title>
<g id="a_node5"><a xlink:href="$AP__Math_8h.html#a2a12cce483e9b870da70d30406d82c60" xlink:title="is_zero">
<polygon fill="white" stroke="black" points="483,-126.5 483,-145.5 531,-145.5 531,-126.5 483,-126.5"/>
<text text-anchor="middle" x="507" y="-133.5" font-family="Helvetica,sans-Serif" font-size="10.00">is_zero</text>
</a>
</g>
</g>
<!-- Node4&#45;&gt;Node5 -->
<g id="edge4" class="edge"><title>Node4&#45;&gt;Node5</title>
<path fill="none" stroke="midnightblue" d="M445.617,-136C454.914,-136 464.256,-136 472.72,-136"/>
<polygon fill="midnightblue" stroke="midnightblue" points="472.903,-139.5 482.902,-136 472.902,-132.5 472.903,-139.5"/>
</g>
</g>
</svg>
