<?xml version="1.0" encoding="UTF-8" standalone="no"?>
<!DOCTYPE svg PUBLIC "-//W3C//DTD SVG 1.1//EN"
 "http://www.w3.org/Graphics/SVG/1.1/DTD/svg11.dtd">
<!-- Generated by graphviz version 2.38.0 (20140413.2041)
 -->
<!-- Title: AC_PI_2D::get_i Pages: 1 -->
<svg width="357pt" height="66pt"
 viewBox="0.00 0.00 357.00 66.00" xmlns="http://www.w3.org/2000/svg" xmlns:xlink="http://www.w3.org/1999/xlink">
<g id="graph0" class="graph" transform="scale(1 1) rotate(0) translate(4 62)">
<title>AC_PI_2D::get_i</title>
<polygon fill="white" stroke="none" points="-4,4 -4,-62 353,-62 353,4 -4,4"/>
<!-- Node1 -->
<g id="node1" class="node"><title>Node1</title>
<polygon fill="#bfbfbf" stroke="black" points="0,-19.5 0,-38.5 91,-38.5 91,-19.5 0,-19.5"/>
<text text-anchor="middle" x="45.5" y="-26.5" font-family="Helvetica,sans-Serif" font-size="10.00">AC_PI_2D::get_i</text>
</g>
<!-- Node2 -->
<g id="node2" class="node"><title>Node2</title>
<g id="a_node2"><a xlink:href="$AP__Math_8h.html#a2a12cce483e9b870da70d30406d82c60" xlink:title="is_zero">
<polygon fill="white" stroke="black" points="144.5,-38.5 144.5,-57.5 192.5,-57.5 192.5,-38.5 144.5,-38.5"/>
<text text-anchor="middle" x="168.5" y="-45.5" font-family="Helvetica,sans-Serif" font-size="10.00">is_zero</text>
</a>
</g>
</g>
<!-- Node1&#45;&gt;Node2 -->
<g id="edge1" class="edge"><title>Node1&#45;&gt;Node2</title>
<path fill="none" stroke="midnightblue" d="M91.2122,-36.0209C105.448,-38.2564 120.939,-40.6887 134.219,-42.774"/>
<polygon fill="midnightblue" stroke="midnightblue" points="133.907,-46.2679 144.329,-44.3615 134.993,-39.3526 133.907,-46.2679"/>
</g>
<!-- Node3 -->
<g id="node3" class="node"><title>Node3</title>
<g id="a_node3"><a xlink:href="$structVector2.html#ad8ebafde96f43521d3647e2552387529" xlink:title="Vector2::length">
<polygon fill="white" stroke="black" points="127,-0.5 127,-19.5 210,-19.5 210,-0.5 127,-0.5"/>
<text text-anchor="middle" x="168.5" y="-7.5" font-family="Helvetica,sans-Serif" font-size="10.00">Vector2::length</text>
</a>
</g>
</g>
<!-- Node1&#45;&gt;Node3 -->
<g id="edge2" class="edge"><title>Node1&#45;&gt;Node3</title>
<path fill="none" stroke="midnightblue" d="M91.2122,-21.9791C99.6315,-20.657 108.489,-19.2661 117.069,-17.9189"/>
<polygon fill="midnightblue" stroke="midnightblue" points="117.635,-21.373 126.971,-16.3641 116.549,-14.4578 117.635,-21.373"/>
</g>
<!-- Node4 -->
<g id="node4" class="node"><title>Node4</title>
<g id="a_node4"><a xlink:href="$AP__Math_8h.html#adc76d4a5e5c9ae8cb7ab17b55c40d636" xlink:title="norm">
<polygon fill="white" stroke="black" points="246,-0.5 246,-19.5 284,-19.5 284,-0.5 246,-0.5"/>
<text text-anchor="middle" x="265" y="-7.5" font-family="Helvetica,sans-Serif" font-size="10.00">norm</text>
</a>
</g>
</g>
<!-- Node3&#45;&gt;Node4 -->
<g id="edge3" class="edge"><title>Node3&#45;&gt;Node4</title>
<path fill="none" stroke="midnightblue" d="M210.125,-10C218.654,-10 227.477,-10 235.453,-10"/>
<polygon fill="midnightblue" stroke="midnightblue" points="235.695,-13.5001 245.695,-10 235.695,-6.5001 235.695,-13.5001"/>
</g>
<!-- Node5 -->
<g id="node5" class="node"><title>Node5</title>
<g id="a_node5"><a xlink:href="$AP__Math_8h.html#a0375e3d67fd3911cacee5c3e1408c0f2" xlink:title="sq">
<polygon fill="white" stroke="black" points="320,-0.5 320,-19.5 349,-19.5 349,-0.5 320,-0.5"/>
<text text-anchor="middle" x="334.5" y="-7.5" font-family="Helvetica,sans-Serif" font-size="10.00">sq</text>
</a>
</g>
</g>
<!-- Node4&#45;&gt;Node5 -->
<g id="edge4" class="edge"><title>Node4&#45;&gt;Node5</title>
<path fill="none" stroke="midnightblue" d="M284.089,-10C291.997,-10 301.379,-10 309.831,-10"/>
<polygon fill="midnightblue" stroke="midnightblue" points="309.861,-13.5001 319.861,-10 309.861,-6.5001 309.861,-13.5001"/>
</g>
</g>
</svg>
