<?xml version="1.0" encoding="UTF-8" standalone="no"?>
<!DOCTYPE svg PUBLIC "-//W3C//DTD SVG 1.1//EN"
 "http://www.w3.org/Graphics/SVG/1.1/DTD/svg11.dtd">
<!-- Generated by graphviz version 2.38.0 (20140413.2041)
 -->
<!-- Title: AC_Avoid::get_max_speed Pages: 1 -->
<svg width="1315pt" height="180pt"
 viewBox="0.00 0.00 1315.00 180.00" xmlns="http://www.w3.org/2000/svg" xmlns:xlink="http://www.w3.org/1999/xlink">
<g id="graph0" class="graph" transform="scale(1 1) rotate(0) translate(4 176)">
<title>AC_Avoid::get_max_speed</title>
<polygon fill="white" stroke="none" points="-4,4 -4,-176 1311,-176 1311,4 -4,4"/>
<!-- Node1 -->
<g id="node1" class="node"><title>Node1</title>
<polygon fill="#bfbfbf" stroke="black" points="0,-106 0,-125 136,-125 136,-106 0,-106"/>
<text text-anchor="middle" x="68" y="-113" font-family="Helvetica,sans-Serif" font-size="10.00">AC_Avoid::get_max_speed</text>
</g>
<!-- Node2 -->
<g id="node2" class="node"><title>Node2</title>
<g id="a_node2"><a xlink:href="$classAC__Avoid.html#ab17bec0b2b5b58be5d4686d680a68a6a" xlink:title="AC_Avoid::adjust_velocity\l_circle_fence">
<polygon fill="white" stroke="black" points="351,-141.5 351,-171.5 483,-171.5 483,-141.5 351,-141.5"/>
<text text-anchor="start" x="359" y="-159.5" font-family="Helvetica,sans-Serif" font-size="10.00">AC_Avoid::adjust_velocity</text>
<text text-anchor="middle" x="417" y="-148.5" font-family="Helvetica,sans-Serif" font-size="10.00">_circle_fence</text>
</a>
</g>
</g>
<!-- Node1&#45;&gt;Node2 -->
<g id="edge1" class="edge"><title>Node1&#45;&gt;Node2</title>
<path fill="none" stroke="midnightblue" d="M125.683,-126.928C140.697,-129.689 156.923,-132.434 172,-134.5 232.364,-142.771 301.574,-148.674 350.828,-152.27"/>
<polygon fill="midnightblue" stroke="midnightblue" points="125.986,-123.424 115.512,-125.023 124.697,-130.305 125.986,-123.424"/>
</g>
<!-- Node8 -->
<g id="node8" class="node"><title>Node8</title>
<g id="a_node8"><a xlink:href="$classAC__Avoid.html#a951c0fa76621cd6ab06d0aa8138392dd" xlink:title="AC_Avoid::adjust_velocity_z">
<polygon fill="white" stroke="black" points="172,-106 172,-125 315,-125 315,-106 172,-106"/>
<text text-anchor="middle" x="243.5" y="-113" font-family="Helvetica,sans-Serif" font-size="10.00">AC_Avoid::adjust_velocity_z</text>
</a>
</g>
</g>
<!-- Node1&#45;&gt;Node8 -->
<g id="edge7" class="edge"><title>Node1&#45;&gt;Node8</title>
<path fill="none" stroke="midnightblue" d="M146.356,-115.5C154.848,-115.5 163.461,-115.5 171.865,-115.5"/>
<polygon fill="midnightblue" stroke="midnightblue" points="146.08,-112 136.08,-115.5 146.08,-119 146.08,-112"/>
</g>
<!-- Node9 -->
<g id="node9" class="node"><title>Node9</title>
<g id="a_node9"><a xlink:href="$classAC__Avoid.html#a888f3551abae1ca6982f69ee8a42d09a" xlink:title="AC_Avoid::limit_velocity">
<polygon fill="white" stroke="black" points="181.5,-64 181.5,-83 305.5,-83 305.5,-64 181.5,-64"/>
<text text-anchor="middle" x="243.5" y="-71" font-family="Helvetica,sans-Serif" font-size="10.00">AC_Avoid::limit_velocity</text>
</a>
</g>
</g>
<!-- Node1&#45;&gt;Node9 -->
<g id="edge8" class="edge"><title>Node1&#45;&gt;Node9</title>
<path fill="none" stroke="midnightblue" d="M118.331,-103.558C145.148,-97.0664 177.868,-89.1458 202.986,-83.0653"/>
<polygon fill="midnightblue" stroke="midnightblue" points="117.266,-100.215 108.37,-105.97 118.913,-107.018 117.266,-100.215"/>
</g>
<!-- Node3 -->
<g id="node3" class="node"><title>Node3</title>
<g id="a_node3"><a xlink:href="$classAC__Avoid.html#abee541d127ce0da1fe6be54f987a0779" xlink:title="AC_Avoid::adjust_velocity">
<polygon fill="white" stroke="black" points="687,-79 687,-98 819,-98 819,-79 687,-79"/>
<text text-anchor="middle" x="753" y="-86" font-family="Helvetica,sans-Serif" font-size="10.00">AC_Avoid::adjust_velocity</text>
</a>
</g>
</g>
<!-- Node2&#45;&gt;Node3 -->
<g id="edge2" class="edge"><title>Node2&#45;&gt;Node3</title>
<path fill="none" stroke="midnightblue" d="M493.414,-157.904C539.651,-156.998 599.629,-152.628 651,-138.5 683.637,-129.524 718.288,-109.846 737.326,-98.0289"/>
<polygon fill="midnightblue" stroke="midnightblue" points="493.117,-154.408 483.169,-158.053 493.219,-161.407 493.117,-154.408"/>
</g>
<!-- Node4 -->
<g id="node4" class="node"><title>Node4</title>
<g id="a_node4"><a xlink:href="$classAC__Avoid.html#a95e227fdefd6f8c85b4d4888cad8993f" xlink:title="AC_Avoid::adjust_velocity">
<polygon fill="white" stroke="black" points="855,-101 855,-120 987,-120 987,-101 855,-101"/>
<text text-anchor="middle" x="921" y="-108" font-family="Helvetica,sans-Serif" font-size="10.00">AC_Avoid::adjust_velocity</text>
</a>
</g>
</g>
<!-- Node3&#45;&gt;Node4 -->
<g id="edge3" class="edge"><title>Node3&#45;&gt;Node4</title>
<path fill="none" stroke="midnightblue" d="M829.114,-98.4548C837.681,-99.5902 846.361,-100.741 854.784,-101.857"/>
<polygon fill="midnightblue" stroke="midnightblue" points="829.504,-94.9761 819.131,-97.1318 828.585,-101.915 829.504,-94.9761"/>
</g>
<!-- Node5 -->
<g id="node5" class="node"><title>Node5</title>
<g id="a_node5"><a xlink:href="$classAC__WPNav.html#a3dbf7bda89b127cdc81bca29e2af25de" xlink:title="AC_WPNav::calc_loiter\l_desired_velocity">
<polygon fill="white" stroke="black" points="860.5,-51.5 860.5,-81.5 981.5,-81.5 981.5,-51.5 860.5,-51.5"/>
<text text-anchor="start" x="868.5" y="-69.5" font-family="Helvetica,sans-Serif" font-size="10.00">AC_WPNav::calc_loiter</text>
<text text-anchor="middle" x="921" y="-58.5" font-family="Helvetica,sans-Serif" font-size="10.00">_desired_velocity</text>
</a>
</g>
</g>
<!-- Node3&#45;&gt;Node5 -->
<g id="edge4" class="edge"><title>Node3&#45;&gt;Node5</title>
<path fill="none" stroke="midnightblue" d="M829.127,-78.5434C839.63,-77.1515 850.303,-75.737 860.464,-74.3903"/>
<polygon fill="midnightblue" stroke="midnightblue" points="828.585,-75.0846 819.131,-79.8682 829.504,-82.0239 828.585,-75.0846"/>
</g>
<!-- Node6 -->
<g id="node6" class="node"><title>Node6</title>
<g id="a_node6"><a xlink:href="$classAC__WPNav.html#a0a434270245fd8641352af387700dc82" xlink:title="update_loiter &#45; run the loiter controller &#45; should be called at 10hz ">
<polygon fill="white" stroke="black" points="1023,-57 1023,-76 1155,-76 1155,-57 1023,-57"/>
<text text-anchor="middle" x="1089" y="-64" font-family="Helvetica,sans-Serif" font-size="10.00">AC_WPNav::update_loiter</text>
</a>
</g>
</g>
<!-- Node5&#45;&gt;Node6 -->
<g id="edge5" class="edge"><title>Node5&#45;&gt;Node6</title>
<path fill="none" stroke="midnightblue" d="M992.027,-66.5C1002.24,-66.5 1012.72,-66.5 1022.82,-66.5"/>
<polygon fill="midnightblue" stroke="midnightblue" points="991.93,-63.0001 981.93,-66.5 991.93,-70.0001 991.93,-63.0001"/>
</g>
<!-- Node7 -->
<g id="node7" class="node"><title>Node7</title>
<g id="a_node7"><a xlink:href="$classAC__WPNav.html#ae34a88192799de8f2b96c8cd295bb971" xlink:title="get_loiter_target &#45; returns loiter target position ">
<polygon fill="white" stroke="black" points="1191,-51.5 1191,-81.5 1307,-81.5 1307,-51.5 1191,-51.5"/>
<text text-anchor="start" x="1199" y="-69.5" font-family="Helvetica,sans-Serif" font-size="10.00">AC_WPNav::get_loiter</text>
<text text-anchor="middle" x="1249" y="-58.5" font-family="Helvetica,sans-Serif" font-size="10.00">_target</text>
</a>
</g>
</g>
<!-- Node6&#45;&gt;Node7 -->
<g id="edge6" class="edge"><title>Node6&#45;&gt;Node7</title>
<path fill="none" stroke="midnightblue" d="M1165.43,-66.5C1173.88,-66.5 1182.38,-66.5 1190.55,-66.5"/>
<polygon fill="midnightblue" stroke="midnightblue" points="1165.18,-63.0001 1155.18,-66.5 1165.18,-70.0001 1165.18,-63.0001"/>
</g>
<!-- Node10 -->
<g id="node10" class="node"><title>Node10</title>
<g id="a_node10"><a xlink:href="$classAC__Avoid.html#a7e9a8c28e3f61c7e7ee3bf5afe986e4f" xlink:title="AC_Avoid::adjust_velocity\l_polygon">
<polygon fill="white" stroke="black" points="351,-50.5 351,-80.5 483,-80.5 483,-50.5 351,-50.5"/>
<text text-anchor="start" x="359" y="-68.5" font-family="Helvetica,sans-Serif" font-size="10.00">AC_Avoid::adjust_velocity</text>
<text text-anchor="middle" x="417" y="-57.5" font-family="Helvetica,sans-Serif" font-size="10.00">_polygon</text>
</a>
</g>
</g>
<!-- Node9&#45;&gt;Node10 -->
<g id="edge9" class="edge"><title>Node9&#45;&gt;Node10</title>
<path fill="none" stroke="midnightblue" d="M315.997,-70.1649C327.581,-69.6245 339.521,-69.0675 350.942,-68.5348"/>
<polygon fill="midnightblue" stroke="midnightblue" points="315.757,-66.6722 305.931,-70.6344 316.083,-73.6646 315.757,-66.6722"/>
</g>
<!-- Node11 -->
<g id="node11" class="node"><title>Node11</title>
<g id="a_node11"><a xlink:href="$classAC__Avoid.html#acda5962c20c1d4c06eb2137c092e9569" xlink:title="AC_Avoid::adjust_velocity\l_beacon_fence">
<polygon fill="white" stroke="black" points="519,-98.5 519,-128.5 651,-128.5 651,-98.5 519,-98.5"/>
<text text-anchor="start" x="527" y="-116.5" font-family="Helvetica,sans-Serif" font-size="10.00">AC_Avoid::adjust_velocity</text>
<text text-anchor="middle" x="585" y="-105.5" font-family="Helvetica,sans-Serif" font-size="10.00">_beacon_fence</text>
</a>
</g>
</g>
<!-- Node10&#45;&gt;Node11 -->
<g id="edge10" class="edge"><title>Node10&#45;&gt;Node11</title>
<path fill="none" stroke="midnightblue" d="M479.999,-83.4273C497.158,-88.389 515.599,-93.7213 532.117,-98.4976"/>
<polygon fill="midnightblue" stroke="midnightblue" points="480.647,-79.9714 470.068,-80.5558 478.702,-86.6959 480.647,-79.9714"/>
</g>
<!-- Node12 -->
<g id="node12" class="node"><title>Node12</title>
<g id="a_node12"><a xlink:href="$classAC__Avoid.html#ac02a966259c9abb5ca2e5e4ee8e72d91" xlink:title="AC_Avoid::adjust_velocity\l_polygon_fence">
<polygon fill="white" stroke="black" points="519,-49.5 519,-79.5 651,-79.5 651,-49.5 519,-49.5"/>
<text text-anchor="start" x="527" y="-67.5" font-family="Helvetica,sans-Serif" font-size="10.00">AC_Avoid::adjust_velocity</text>
<text text-anchor="middle" x="585" y="-56.5" font-family="Helvetica,sans-Serif" font-size="10.00">_polygon_fence</text>
</a>
</g>
</g>
<!-- Node10&#45;&gt;Node12 -->
<g id="edge12" class="edge"><title>Node10&#45;&gt;Node12</title>
<path fill="none" stroke="midnightblue" d="M493.393,-65.0458C501.869,-64.9948 510.452,-64.9431 518.784,-64.8929"/>
<polygon fill="midnightblue" stroke="midnightblue" points="493.11,-61.5474 483.131,-65.1076 493.152,-68.5472 493.11,-61.5474"/>
</g>
<!-- Node13 -->
<g id="node13" class="node"><title>Node13</title>
<g id="a_node13"><a xlink:href="$classAC__Avoid.html#aac95ba12099c07f5b9c6bfd5f7cee4b2" xlink:title="AC_Avoid::adjust_velocity\l_proximity">
<polygon fill="white" stroke="black" points="519,-0.5 519,-30.5 651,-30.5 651,-0.5 519,-0.5"/>
<text text-anchor="start" x="527" y="-18.5" font-family="Helvetica,sans-Serif" font-size="10.00">AC_Avoid::adjust_velocity</text>
<text text-anchor="middle" x="585" y="-7.5" font-family="Helvetica,sans-Serif" font-size="10.00">_proximity</text>
</a>
</g>
</g>
<!-- Node10&#45;&gt;Node13 -->
<g id="edge14" class="edge"><title>Node10&#45;&gt;Node13</title>
<path fill="none" stroke="midnightblue" d="M477.575,-47.5558C496.041,-41.9937 516.192,-35.9242 533.943,-30.5774"/>
<polygon fill="midnightblue" stroke="midnightblue" points="476.371,-44.2629 467.805,-50.4984 478.39,-50.9655 476.371,-44.2629"/>
</g>
<!-- Node11&#45;&gt;Node3 -->
<g id="edge11" class="edge"><title>Node11&#45;&gt;Node3</title>
<path fill="none" stroke="midnightblue" d="M661.071,-102.194C670.298,-100.804 679.658,-99.3949 688.688,-98.035"/>
<polygon fill="midnightblue" stroke="midnightblue" points="660.498,-98.7408 651.131,-103.691 661.541,-105.663 660.498,-98.7408"/>
</g>
<!-- Node12&#45;&gt;Node3 -->
<g id="edge13" class="edge"><title>Node12&#45;&gt;Node3</title>
<path fill="none" stroke="midnightblue" d="M661.114,-75.3598C669.681,-76.5984 678.361,-77.8534 686.784,-79.0712"/>
<polygon fill="midnightblue" stroke="midnightblue" points="661.529,-71.8836 651.131,-73.9166 660.527,-78.8115 661.529,-71.8836"/>
</g>
<!-- Node13&#45;&gt;Node3 -->
<g id="edge15" class="edge"><title>Node13&#45;&gt;Node3</title>
<path fill="none" stroke="midnightblue" d="M638.127,-34.2315C642.503,-35.9598 646.841,-37.7284 651,-39.5 680.406,-52.0262 713.586,-68.6128 733.636,-78.9167"/>
<polygon fill="midnightblue" stroke="midnightblue" points="639.133,-30.8679 628.544,-30.5267 636.609,-37.3971 639.133,-30.8679"/>
</g>
</g>
</svg>
