<?xml version="1.0" encoding="UTF-8" standalone="no"?>
<!DOCTYPE svg PUBLIC "-//W3C//DTD SVG 1.1//EN"
 "http://www.w3.org/Graphics/SVG/1.1/DTD/svg11.dtd">
<!-- Generated by graphviz version 2.38.0 (20140413.2041)
 -->
<!-- Title: AC_AttitudeControl_Multi::is_throttle_mix_min Pages: 1 -->
<svg width="981pt" height="773pt"
 viewBox="0.00 0.00 981.00 773.00" xmlns="http://www.w3.org/2000/svg" xmlns:xlink="http://www.w3.org/1999/xlink">
<g id="graph0" class="graph" transform="scale(1 1) rotate(0) translate(4 769)">
<title>AC_AttitudeControl_Multi::is_throttle_mix_min</title>
<polygon fill="white" stroke="none" points="-4,4 -4,-769 977,-769 977,4 -4,4"/>
<!-- Node1 -->
<g id="node1" class="node"><title>Node1</title>
<polygon fill="#bfbfbf" stroke="black" points="0,-254.5 0,-295.5 101,-295.5 101,-254.5 0,-254.5"/>
<text text-anchor="start" x="8" y="-283.5" font-family="Helvetica,sans-Serif" font-size="10.00">AC_AttitudeControl</text>
<text text-anchor="start" x="8" y="-272.5" font-family="Helvetica,sans-Serif" font-size="10.00">_Multi::is_throttle</text>
<text text-anchor="middle" x="50.5" y="-261.5" font-family="Helvetica,sans-Serif" font-size="10.00">_mix_min</text>
</g>
<!-- Node2 -->
<g id="node2" class="node"><title>Node2</title>
<g id="a_node2"><a xlink:href="$classAC__AttitudeControl__Multi.html#a5b0f032a592442fb04a83ac254442b4c" xlink:title="AC_AttitudeControl\l_Multi::rate_controller_run">
<polygon fill="white" stroke="black" points="150,-285 150,-315 279,-315 279,-285 150,-285"/>
<text text-anchor="start" x="158" y="-303" font-family="Helvetica,sans-Serif" font-size="10.00">AC_AttitudeControl</text>
<text text-anchor="middle" x="214.5" y="-292" font-family="Helvetica,sans-Serif" font-size="10.00">_Multi::rate_controller_run</text>
</a>
</g>
</g>
<!-- Node1&#45;&gt;Node2 -->
<g id="edge1" class="edge"><title>Node1&#45;&gt;Node2</title>
<path fill="none" stroke="midnightblue" d="M101.427,-282.705C113.651,-284.591 126.988,-286.649 140.059,-288.667"/>
<polygon fill="midnightblue" stroke="midnightblue" points="139.564,-292.131 149.981,-290.198 140.632,-285.213 139.564,-292.131"/>
</g>
<!-- Node42 -->
<g id="node42" class="node"><title>Node42</title>
<g id="a_node42"><a xlink:href="$classAC__AttitudeControl__Multi.html#acb2726f92fe8ff68d3f241d99160a2c3" xlink:title="AC_AttitudeControl\l_Multi::parameter_sanity_check">
<polygon fill="white" stroke="black" points="137,-236 137,-266 292,-266 292,-236 137,-236"/>
<text text-anchor="start" x="145" y="-254" font-family="Helvetica,sans-Serif" font-size="10.00">AC_AttitudeControl</text>
<text text-anchor="middle" x="214.5" y="-243" font-family="Helvetica,sans-Serif" font-size="10.00">_Multi::parameter_sanity_check</text>
</a>
</g>
</g>
<!-- Node1&#45;&gt;Node42 -->
<g id="edge62" class="edge"><title>Node1&#45;&gt;Node42</title>
<path fill="none" stroke="midnightblue" d="M101.427,-267.603C109.6,-266.393 118.271,-265.108 127.027,-263.811"/>
<polygon fill="midnightblue" stroke="midnightblue" points="127.549,-267.272 136.928,-262.344 126.523,-260.347 127.549,-267.272"/>
</g>
<!-- Node3 -->
<g id="node3" class="node"><title>Node3</title>
<g id="a_node3"><a xlink:href="$classAC__AttitudeControl__Multi.html#a9125f4bac934eae2cd431a50ea790f46" xlink:title="AC_AttitudeControl\l_Multi::update_throttle\l_rpy_mix">
<polygon fill="white" stroke="black" points="341,-677.5 341,-718.5 454,-718.5 454,-677.5 341,-677.5"/>
<text text-anchor="start" x="349" y="-706.5" font-family="Helvetica,sans-Serif" font-size="10.00">AC_AttitudeControl</text>
<text text-anchor="start" x="349" y="-695.5" font-family="Helvetica,sans-Serif" font-size="10.00">_Multi::update_throttle</text>
<text text-anchor="middle" x="397.5" y="-684.5" font-family="Helvetica,sans-Serif" font-size="10.00">_rpy_mix</text>
</a>
</g>
</g>
<!-- Node2&#45;&gt;Node3 -->
<g id="edge2" class="edge"><title>Node2&#45;&gt;Node3</title>
<path fill="none" stroke="midnightblue" d="M220.951,-315.246C236.201,-357.443 281.25,-479.055 328,-576 343.624,-608.4 364.093,-644.138 378.574,-668.511"/>
<polygon fill="midnightblue" stroke="midnightblue" points="375.672,-670.478 383.808,-677.265 381.68,-666.886 375.672,-670.478"/>
</g>
<!-- Node11 -->
<g id="node11" class="node"><title>Node11</title>
<g id="a_node11"><a xlink:href="$classAP__AHRS__View.html#aec99fce6a0287cfe2542ed2b7459d4d1" xlink:title="AP_AHRS_View::get_gyro\l_latest">
<polygon fill="white" stroke="black" points="330.5,-236 330.5,-266 464.5,-266 464.5,-236 330.5,-236"/>
<text text-anchor="start" x="338.5" y="-254" font-family="Helvetica,sans-Serif" font-size="10.00">AP_AHRS_View::get_gyro</text>
<text text-anchor="middle" x="397.5" y="-243" font-family="Helvetica,sans-Serif" font-size="10.00">_latest</text>
</a>
</g>
</g>
<!-- Node2&#45;&gt;Node11 -->
<g id="edge10" class="edge"><title>Node2&#45;&gt;Node11</title>
<path fill="none" stroke="midnightblue" d="M271.283,-284.899C290.21,-279.775 311.525,-274.004 331.13,-268.697"/>
<polygon fill="midnightblue" stroke="midnightblue" points="332.163,-272.043 340.901,-266.052 330.334,-265.286 332.163,-272.043"/>
</g>
<!-- Node19 -->
<g id="node19" class="node"><title>Node19</title>
<g id="a_node19"><a xlink:href="$classAP__Motors.html#a6d8205956720e8f6afb1d2c403f66b64" xlink:title="AP_Motors::set_roll">
<polygon fill="white" stroke="black" points="346,-197.5 346,-216.5 449,-216.5 449,-197.5 346,-197.5"/>
<text text-anchor="middle" x="397.5" y="-204.5" font-family="Helvetica,sans-Serif" font-size="10.00">AP_Motors::set_roll</text>
</a>
</g>
</g>
<!-- Node2&#45;&gt;Node19 -->
<g id="edge18" class="edge"><title>Node2&#45;&gt;Node19</title>
<path fill="none" stroke="midnightblue" d="M274.574,-284.918C280.735,-282.13 286.68,-278.85 292,-275 313.891,-259.156 305.756,-241.345 328,-226 330.881,-224.013 333.964,-222.232 337.17,-220.638"/>
<polygon fill="midnightblue" stroke="midnightblue" points="338.672,-223.801 346.46,-216.618 335.892,-217.377 338.672,-223.801"/>
</g>
<!-- Node20 -->
<g id="node20" class="node"><title>Node20</title>
<g id="a_node20"><a xlink:href="$classAC__AttitudeControl.html#a11b25e42766e40c97e90d9dc33164b3e" xlink:title="AC_AttitudeControl\l::rate_target_to_motor_roll">
<polygon fill="white" stroke="black" points="332,-488 332,-518 463,-518 463,-488 332,-488"/>
<text text-anchor="start" x="340" y="-506" font-family="Helvetica,sans-Serif" font-size="10.00">AC_AttitudeControl</text>
<text text-anchor="middle" x="397.5" y="-495" font-family="Helvetica,sans-Serif" font-size="10.00">::rate_target_to_motor_roll</text>
</a>
</g>
</g>
<!-- Node2&#45;&gt;Node20 -->
<g id="edge19" class="edge"><title>Node2&#45;&gt;Node20</title>
<path fill="none" stroke="midnightblue" d="M221.124,-315.238C234.434,-349.28 271.081,-432.108 328,-478 330.07,-479.669 332.261,-481.232 334.539,-482.695"/>
<polygon fill="midnightblue" stroke="midnightblue" points="333.261,-485.993 343.69,-487.861 336.702,-479.897 333.261,-485.993"/>
</g>
<!-- Node31 -->
<g id="node31" class="node"><title>Node31</title>
<g id="a_node31"><a xlink:href="$classAP__Motors.html#a81b4dce8b2b85b5e7042f7ccb6744afc" xlink:title="AP_Motors::set_pitch">
<polygon fill="white" stroke="black" points="342,-159.5 342,-178.5 453,-178.5 453,-159.5 342,-159.5"/>
<text text-anchor="middle" x="397.5" y="-166.5" font-family="Helvetica,sans-Serif" font-size="10.00">AP_Motors::set_pitch</text>
</a>
</g>
</g>
<!-- Node2&#45;&gt;Node31 -->
<g id="edge32" class="edge"><title>Node2&#45;&gt;Node31</title>
<path fill="none" stroke="midnightblue" d="M277.849,-284.956C282.979,-282.18 287.797,-278.893 292,-275 322.699,-246.563 296.665,-215.735 328,-188 329.765,-186.438 331.647,-185.004 333.62,-183.686"/>
<polygon fill="midnightblue" stroke="midnightblue" points="335.708,-186.531 342.764,-178.627 332.32,-180.406 335.708,-186.531"/>
</g>
<!-- Node32 -->
<g id="node32" class="node"><title>Node32</title>
<g id="a_node32"><a xlink:href="$classAC__AttitudeControl.html#af828fefadbe69fe4b05db836886ffca5" xlink:title="AC_AttitudeControl\l::rate_target_to_motor_pitch">
<polygon fill="white" stroke="black" points="328,-439 328,-469 467,-469 467,-439 328,-439"/>
<text text-anchor="start" x="336" y="-457" font-family="Helvetica,sans-Serif" font-size="10.00">AC_AttitudeControl</text>
<text text-anchor="middle" x="397.5" y="-446" font-family="Helvetica,sans-Serif" font-size="10.00">::rate_target_to_motor_pitch</text>
</a>
</g>
</g>
<!-- Node2&#45;&gt;Node32 -->
<g id="edge33" class="edge"><title>Node2&#45;&gt;Node32</title>
<path fill="none" stroke="midnightblue" d="M233.185,-315.047C265.355,-342.418 333.56,-400.449 370.844,-432.171"/>
<polygon fill="midnightblue" stroke="midnightblue" points="368.859,-435.078 378.744,-438.892 373.395,-429.746 368.859,-435.078"/>
</g>
<!-- Node34 -->
<g id="node34" class="node"><title>Node34</title>
<g id="a_node34"><a xlink:href="$classAP__Motors.html#aeffa3aa472e13049df93f68ea7c2994b" xlink:title="AP_Motors::set_yaw">
<polygon fill="white" stroke="black" points="343.5,-121.5 343.5,-140.5 451.5,-140.5 451.5,-121.5 343.5,-121.5"/>
<text text-anchor="middle" x="397.5" y="-128.5" font-family="Helvetica,sans-Serif" font-size="10.00">AP_Motors::set_yaw</text>
</a>
</g>
</g>
<!-- Node2&#45;&gt;Node34 -->
<g id="edge43" class="edge"><title>Node2&#45;&gt;Node34</title>
<path fill="none" stroke="midnightblue" d="M279.057,-285.016C283.809,-282.227 288.216,-278.921 292,-275 332.15,-233.402 286.919,-190.679 328,-150 329.918,-148.1 332.009,-146.387 334.228,-144.841"/>
<polygon fill="midnightblue" stroke="midnightblue" points="336.365,-147.653 343.336,-139.675 332.911,-141.565 336.365,-147.653"/>
</g>
<!-- Node35 -->
<g id="node35" class="node"><title>Node35</title>
<g id="a_node35"><a xlink:href="$classAC__AttitudeControl.html#aaa638b2161d9a8cddfa0750ab02fb378" xlink:title="AC_AttitudeControl\l::rate_target_to_motor_yaw">
<polygon fill="white" stroke="black" points="329.5,-537 329.5,-567 465.5,-567 465.5,-537 329.5,-537"/>
<text text-anchor="start" x="337.5" y="-555" font-family="Helvetica,sans-Serif" font-size="10.00">AC_AttitudeControl</text>
<text text-anchor="middle" x="397.5" y="-544" font-family="Helvetica,sans-Serif" font-size="10.00">::rate_target_to_motor_yaw</text>
</a>
</g>
</g>
<!-- Node2&#45;&gt;Node35 -->
<g id="edge44" class="edge"><title>Node2&#45;&gt;Node35</title>
<path fill="none" stroke="midnightblue" d="M218.832,-315.09C228.48,-355.331 260.173,-466.262 328,-527 329.898,-528.7 331.921,-530.286 334.037,-531.768"/>
<polygon fill="midnightblue" stroke="midnightblue" points="332.235,-534.768 342.598,-536.974 335.873,-528.787 332.235,-534.768"/>
</g>
<!-- Node38 -->
<g id="node38" class="node"><title>Node38</title>
<g id="a_node38"><a xlink:href="$classAC__AttitudeControl.html#a487553ac1448b6ba791d029c9cf18dac" xlink:title="AC_AttitudeControl\l::control_monitor_update">
<polygon fill="white" stroke="black" points="335.5,-285 335.5,-315 459.5,-315 459.5,-285 335.5,-285"/>
<text text-anchor="start" x="343.5" y="-303" font-family="Helvetica,sans-Serif" font-size="10.00">AC_AttitudeControl</text>
<text text-anchor="middle" x="397.5" y="-292" font-family="Helvetica,sans-Serif" font-size="10.00">::control_monitor_update</text>
</a>
</g>
</g>
<!-- Node2&#45;&gt;Node38 -->
<g id="edge55" class="edge"><title>Node2&#45;&gt;Node38</title>
<path fill="none" stroke="midnightblue" d="M279.059,-300C293.874,-300 309.748,-300 324.885,-300"/>
<polygon fill="midnightblue" stroke="midnightblue" points="325.224,-303.5 335.224,-300 325.224,-296.5 325.224,-303.5"/>
</g>
<!-- Node4 -->
<g id="node4" class="node"><title>Node4</title>
<g id="a_node4"><a xlink:href="$AP__Math_8h.html#a6b187a3fa1e9f663e89175e7e8e213d6" xlink:title="MIN">
<polygon fill="white" stroke="black" points="554.5,-726.5 554.5,-745.5 589.5,-745.5 589.5,-726.5 554.5,-726.5"/>
<text text-anchor="middle" x="572" y="-733.5" font-family="Helvetica,sans-Serif" font-size="10.00">MIN</text>
</a>
</g>
</g>
<!-- Node3&#45;&gt;Node4 -->
<g id="edge3" class="edge"><title>Node3&#45;&gt;Node4</title>
<path fill="none" stroke="midnightblue" d="M454.03,-710.233C484.401,-716.923 520.618,-724.901 544.623,-730.189"/>
<polygon fill="midnightblue" stroke="midnightblue" points="543.9,-733.614 554.418,-732.347 545.406,-726.778 543.9,-733.614"/>
</g>
<!-- Node5 -->
<g id="node5" class="node"><title>Node5</title>
<g id="a_node5"><a xlink:href="$AP__Math_8h.html#ad525609d9dba6ffa556a0fbf08a3f9b4" xlink:title="constrain_float">
<polygon fill="white" stroke="black" points="532,-688.5 532,-707.5 612,-707.5 612,-688.5 532,-688.5"/>
<text text-anchor="middle" x="572" y="-695.5" font-family="Helvetica,sans-Serif" font-size="10.00">constrain_float</text>
</a>
</g>
</g>
<!-- Node3&#45;&gt;Node5 -->
<g id="edge4" class="edge"><title>Node3&#45;&gt;Node5</title>
<path fill="none" stroke="midnightblue" d="M454.03,-698C475.867,-698 500.726,-698 521.895,-698"/>
<polygon fill="midnightblue" stroke="midnightblue" points="521.962,-701.5 531.961,-698 521.961,-694.5 521.962,-701.5"/>
</g>
<!-- Node6 -->
<g id="node6" class="node"><title>Node6</title>
<g id="a_node6"><a xlink:href="$AP__Math_8h.html#a20e8f8671c282c69c1954652b6d61585" xlink:title="constrain_value">
<polygon fill="white" stroke="black" points="699,-688.5 699,-707.5 784,-707.5 784,-688.5 699,-688.5"/>
<text text-anchor="middle" x="741.5" y="-695.5" font-family="Helvetica,sans-Serif" font-size="10.00">constrain_value</text>
</a>
</g>
</g>
<!-- Node5&#45;&gt;Node6 -->
<g id="edge5" class="edge"><title>Node5&#45;&gt;Node6</title>
<path fill="none" stroke="midnightblue" d="M612.271,-698C635.031,-698 663.964,-698 688.585,-698"/>
<polygon fill="midnightblue" stroke="midnightblue" points="688.842,-701.5 698.842,-698 688.842,-694.5 688.842,-701.5"/>
</g>
<!-- Node7 -->
<g id="node7" class="node"><title>Node7</title>
<g id="a_node7"><a xlink:href="$AP__Math_8cpp.html#a37e8e901754cb9c8e53a8e3030c82c50" xlink:title="constrain_value\&lt; int \&gt;">
<polygon fill="white" stroke="black" points="851,-669.5 851,-688.5 964,-688.5 964,-669.5 851,-669.5"/>
<text text-anchor="middle" x="907.5" y="-676.5" font-family="Helvetica,sans-Serif" font-size="10.00">constrain_value&lt; int &gt;</text>
</a>
</g>
</g>
<!-- Node6&#45;&gt;Node7 -->
<g id="edge6" class="edge"><title>Node6&#45;&gt;Node7</title>
<path fill="none" stroke="midnightblue" d="M784.308,-693.156C801.443,-691.171 821.688,-688.826 840.719,-686.621"/>
<polygon fill="midnightblue" stroke="midnightblue" points="841.306,-690.076 850.837,-685.449 840.5,-683.123 841.306,-690.076"/>
</g>
<!-- Node8 -->
<g id="node8" class="node"><title>Node8</title>
<g id="a_node8"><a xlink:href="$AP__Math_8cpp.html#afdbe107ec1987d318a6347816fbf2b89" xlink:title="constrain_value\&lt; short \&gt;">
<polygon fill="white" stroke="black" points="845,-631.5 845,-650.5 970,-650.5 970,-631.5 845,-631.5"/>
<text text-anchor="middle" x="907.5" y="-638.5" font-family="Helvetica,sans-Serif" font-size="10.00">constrain_value&lt; short &gt;</text>
</a>
</g>
</g>
<!-- Node6&#45;&gt;Node8 -->
<g id="edge7" class="edge"><title>Node6&#45;&gt;Node8</title>
<path fill="none" stroke="midnightblue" d="M766.034,-688.414C786.077,-680.395 815.721,-668.874 842,-660 848.539,-657.792 855.499,-655.59 862.335,-653.51"/>
<polygon fill="midnightblue" stroke="midnightblue" points="863.621,-656.779 872.2,-650.562 861.616,-650.072 863.621,-656.779"/>
</g>
<!-- Node9 -->
<g id="node9" class="node"><title>Node9</title>
<g id="a_node9"><a xlink:href="$AP__Math_8cpp.html#ae6c621670c214da687de21d4e3a92587" xlink:title="constrain_value\&lt; float \&gt;">
<polygon fill="white" stroke="black" points="846.5,-745.5 846.5,-764.5 968.5,-764.5 968.5,-745.5 846.5,-745.5"/>
<text text-anchor="middle" x="907.5" y="-752.5" font-family="Helvetica,sans-Serif" font-size="10.00">constrain_value&lt; float &gt;</text>
</a>
</g>
</g>
<!-- Node6&#45;&gt;Node9 -->
<g id="edge8" class="edge"><title>Node6&#45;&gt;Node9</title>
<path fill="none" stroke="midnightblue" d="M766.034,-707.586C786.077,-715.605 815.721,-727.126 842,-736 848.539,-738.208 855.499,-740.41 862.335,-742.49"/>
<polygon fill="midnightblue" stroke="midnightblue" points="861.616,-745.928 872.2,-745.438 863.621,-739.221 861.616,-745.928"/>
</g>
<!-- Node10 -->
<g id="node10" class="node"><title>Node10</title>
<g id="a_node10"><a xlink:href="$AP__Math_8cpp.html#afe3990b00e9abc43fa97dfaf8e32f5c4" xlink:title="constrain_value\&lt; double \&gt;">
<polygon fill="white" stroke="black" points="842,-707.5 842,-726.5 973,-726.5 973,-707.5 842,-707.5"/>
<text text-anchor="middle" x="907.5" y="-714.5" font-family="Helvetica,sans-Serif" font-size="10.00">constrain_value&lt; double &gt;</text>
</a>
</g>
</g>
<!-- Node6&#45;&gt;Node10 -->
<g id="edge9" class="edge"><title>Node6&#45;&gt;Node10</title>
<path fill="none" stroke="midnightblue" d="M784.308,-702.844C798.769,-704.519 815.445,-706.451 831.737,-708.338"/>
<polygon fill="midnightblue" stroke="midnightblue" points="831.472,-711.831 841.808,-709.505 832.277,-704.878 831.472,-711.831"/>
</g>
<!-- Node12 -->
<g id="node12" class="node"><title>Node12</title>
<g id="a_node12"><a xlink:href="$classAP__AHRS.html#a13ab26b0126885606c1d596072f8af04" xlink:title="AP_AHRS::get_gyro_latest">
<polygon fill="white" stroke="black" points="503.5,-72.5 503.5,-91.5 640.5,-91.5 640.5,-72.5 503.5,-72.5"/>
<text text-anchor="middle" x="572" y="-79.5" font-family="Helvetica,sans-Serif" font-size="10.00">AP_AHRS::get_gyro_latest</text>
</a>
</g>
</g>
<!-- Node11&#45;&gt;Node12 -->
<g id="edge11" class="edge"><title>Node11&#45;&gt;Node12</title>
<path fill="none" stroke="midnightblue" d="M454.471,-235.949C459.093,-233.173 463.373,-229.888 467,-226 506.435,-183.723 461.957,-141.718 503,-101 504.468,-99.5432 506.039,-98.1959 507.691,-96.9499"/>
<polygon fill="midnightblue" stroke="midnightblue" points="509.845,-99.735 516.545,-91.5278 506.189,-93.7655 509.845,-99.735"/>
</g>
<!-- Node18 -->
<g id="node18" class="node"><title>Node18</title>
<g id="a_node18"><a xlink:href="$classVector3.html#a53d5701ae2db9492944550927279b7b8" xlink:title="Vector3::rotate">
<polygon fill="white" stroke="black" points="531.5,-110.5 531.5,-129.5 612.5,-129.5 612.5,-110.5 531.5,-110.5"/>
<text text-anchor="middle" x="572" y="-117.5" font-family="Helvetica,sans-Serif" font-size="10.00">Vector3::rotate</text>
</a>
</g>
</g>
<!-- Node11&#45;&gt;Node18 -->
<g id="edge17" class="edge"><title>Node11&#45;&gt;Node18</title>
<path fill="none" stroke="midnightblue" d="M453.351,-235.892C458.316,-233.122 462.979,-229.854 467,-226 497.21,-197.044 471.691,-166.764 503,-139 508.299,-134.301 514.67,-130.755 521.36,-128.081"/>
<polygon fill="midnightblue" stroke="midnightblue" points="522.928,-131.247 531.3,-124.755 520.707,-124.609 522.928,-131.247"/>
</g>
<!-- Node13 -->
<g id="node13" class="node"><title>Node13</title>
<g id="a_node13"><a xlink:href="$classAP__AHRS.html#adf9f5cf9e3df1b4318252d07e2817993" xlink:title="AP_AHRS::get_primary\l_gyro_index">
<polygon fill="white" stroke="black" points="681,-127 681,-157 802,-157 802,-127 681,-127"/>
<text text-anchor="start" x="689" y="-145" font-family="Helvetica,sans-Serif" font-size="10.00">AP_AHRS::get_primary</text>
<text text-anchor="middle" x="741.5" y="-134" font-family="Helvetica,sans-Serif" font-size="10.00">_gyro_index</text>
</a>
</g>
</g>
<!-- Node12&#45;&gt;Node13 -->
<g id="edge12" class="edge"><title>Node12&#45;&gt;Node13</title>
<path fill="none" stroke="midnightblue" d="M611.075,-91.5848C620.913,-94.3479 631.427,-97.5559 641,-101 657.475,-106.927 660.85,-110.236 677,-117 681.795,-119.008 686.811,-121.062 691.832,-123.088"/>
<polygon fill="midnightblue" stroke="midnightblue" points="690.853,-126.466 701.438,-126.928 693.451,-119.966 690.853,-126.466"/>
</g>
<!-- Node15 -->
<g id="node15" class="node"><title>Node15</title>
<g id="a_node15"><a xlink:href="$classAP__AHRS.html#a14398c5d2ae68bbe1c67482a91909ad9" xlink:title="AP_AHRS::get_ins">
<polygon fill="white" stroke="black" points="691,-88.5 691,-107.5 792,-107.5 792,-88.5 691,-88.5"/>
<text text-anchor="middle" x="741.5" y="-95.5" font-family="Helvetica,sans-Serif" font-size="10.00">AP_AHRS::get_ins</text>
</a>
</g>
</g>
<!-- Node12&#45;&gt;Node15 -->
<g id="edge14" class="edge"><title>Node12&#45;&gt;Node15</title>
<path fill="none" stroke="midnightblue" d="M640.646,-88.4617C653.9,-89.7278 667.713,-91.0472 680.689,-92.2867"/>
<polygon fill="midnightblue" stroke="midnightblue" points="680.602,-95.7943 690.89,-93.2611 681.268,-88.826 680.602,-95.7943"/>
</g>
<!-- Node16 -->
<g id="node16" class="node"><title>Node16</title>
<g id="a_node16"><a xlink:href="$classAP__InertialSensor.html#a6df2d8ad956d4f375bdee541102f16af" xlink:title="AP_InertialSensor::\lget_gyro">
<polygon fill="white" stroke="black" points="691,-39 691,-69 792,-69 792,-39 691,-39"/>
<text text-anchor="start" x="699" y="-57" font-family="Helvetica,sans-Serif" font-size="10.00">AP_InertialSensor::</text>
<text text-anchor="middle" x="741.5" y="-46" font-family="Helvetica,sans-Serif" font-size="10.00">get_gyro</text>
</a>
</g>
</g>
<!-- Node12&#45;&gt;Node16 -->
<g id="edge15" class="edge"><title>Node12&#45;&gt;Node16</title>
<path fill="none" stroke="midnightblue" d="M630.176,-72.4423C646.5,-69.7134 664.327,-66.7333 680.799,-63.9799"/>
<polygon fill="midnightblue" stroke="midnightblue" points="681.568,-67.4 690.854,-62.2991 680.413,-60.4958 681.568,-67.4"/>
</g>
<!-- Node17 -->
<g id="node17" class="node"><title>Node17</title>
<g id="a_node17"><a xlink:href="$classAP__AHRS.html#a6876435645c1049077f33f225ab828f7" xlink:title="AP_AHRS::get_gyro_drift">
<polygon fill="white" stroke="black" points="677,-0.5 677,-19.5 806,-19.5 806,-0.5 677,-0.5"/>
<text text-anchor="middle" x="741.5" y="-7.5" font-family="Helvetica,sans-Serif" font-size="10.00">AP_AHRS::get_gyro_drift</text>
</a>
</g>
</g>
<!-- Node12&#45;&gt;Node17 -->
<g id="edge16" class="edge"><title>Node12&#45;&gt;Node17</title>
<path fill="none" stroke="midnightblue" d="M589.498,-72.4122C609.652,-60.9793 645.02,-41.8111 677,-29 682.611,-26.7521 688.594,-24.6267 694.558,-22.6682"/>
<polygon fill="midnightblue" stroke="midnightblue" points="696.022,-25.8768 704.511,-19.5375 693.922,-19.1994 696.022,-25.8768"/>
</g>
<!-- Node14 -->
<g id="node14" class="node"><title>Node14</title>
<g id="a_node14"><a xlink:href="$classAP__InertialSensor.html#a7fa04e2f196b27b876d86966f64e1fed" xlink:title="AP_InertialSensor::\lget_primary_gyro">
<polygon fill="white" stroke="black" points="857,-127 857,-157 958,-157 958,-127 857,-127"/>
<text text-anchor="start" x="865" y="-145" font-family="Helvetica,sans-Serif" font-size="10.00">AP_InertialSensor::</text>
<text text-anchor="middle" x="907.5" y="-134" font-family="Helvetica,sans-Serif" font-size="10.00">get_primary_gyro</text>
</a>
</g>
</g>
<!-- Node13&#45;&gt;Node14 -->
<g id="edge13" class="edge"><title>Node13&#45;&gt;Node14</title>
<path fill="none" stroke="midnightblue" d="M802.172,-142C816.616,-142 832.062,-142 846.521,-142"/>
<polygon fill="midnightblue" stroke="midnightblue" points="846.846,-145.5 856.846,-142 846.846,-138.5 846.846,-145.5"/>
</g>
<!-- Node20&#45;&gt;Node5 -->
<g id="edge31" class="edge"><title>Node20&#45;&gt;Node5</title>
<path fill="none" stroke="midnightblue" d="M456.27,-518.035C460.231,-520.571 463.88,-523.536 467,-527 513.461,-578.586 454.899,-628.94 503,-679 508.255,-684.469 514.942,-688.404 522.062,-691.228"/>
<polygon fill="midnightblue" stroke="midnightblue" points="521.354,-694.677 531.946,-694.428 523.511,-688.018 521.354,-694.677"/>
</g>
<!-- Node21 -->
<g id="node21" class="node"><title>Node21</title>
<g id="a_node21"><a xlink:href="$classAC__AttitudeControl.html#ad300b51e0777495496adddd1770ee920" xlink:title="AC_AttitudeControl\l::get_rate_roll_pid">
<polygon fill="white" stroke="black" points="521.5,-285 521.5,-315 622.5,-315 622.5,-285 521.5,-285"/>
<text text-anchor="start" x="529.5" y="-303" font-family="Helvetica,sans-Serif" font-size="10.00">AC_AttitudeControl</text>
<text text-anchor="middle" x="572" y="-292" font-family="Helvetica,sans-Serif" font-size="10.00">::get_rate_roll_pid</text>
</a>
</g>
</g>
<!-- Node20&#45;&gt;Node21 -->
<g id="edge20" class="edge"><title>Node20&#45;&gt;Node21</title>
<path fill="none" stroke="midnightblue" d="M455,-487.932C459.455,-485.161 463.554,-481.882 467,-478 513.375,-425.757 456.686,-377.298 503,-325 505.814,-321.822 509.069,-319.047 512.598,-316.625"/>
<polygon fill="midnightblue" stroke="midnightblue" points="514.371,-319.643 521.254,-311.588 510.85,-313.592 514.371,-319.643"/>
</g>
<!-- Node22 -->
<g id="node22" class="node"><title>Node22</title>
<g id="a_node22"><a xlink:href="$classAC__PID.html#a0217a1314e284babe6fe0d3e3cf92601" xlink:title="AC_PID::set_input_filter_d">
<polygon fill="white" stroke="black" points="505,-334.5 505,-353.5 639,-353.5 639,-334.5 505,-334.5"/>
<text text-anchor="middle" x="572" y="-341.5" font-family="Helvetica,sans-Serif" font-size="10.00">AC_PID::set_input_filter_d</text>
</a>
</g>
</g>
<!-- Node20&#45;&gt;Node22 -->
<g id="edge21" class="edge"><title>Node20&#45;&gt;Node22</title>
<path fill="none" stroke="midnightblue" d="M454.377,-487.861C459.018,-485.103 463.329,-481.846 467,-478 503.979,-439.258 464.549,-400.281 503,-363 504.485,-361.56 506.07,-360.228 507.735,-358.994"/>
<polygon fill="midnightblue" stroke="midnightblue" points="509.884,-361.785 516.636,-353.62 506.266,-355.793 509.884,-361.785"/>
</g>
<!-- Node25 -->
<g id="node25" class="node"><title>Node25</title>
<g id="a_node25"><a xlink:href="$classAC__PID.html#a3f727ab395b401474027b6b9efcab5a3" xlink:title="AC_PID::set_desired_rate">
<polygon fill="white" stroke="black" points="506.5,-460.5 506.5,-479.5 637.5,-479.5 637.5,-460.5 506.5,-460.5"/>
<text text-anchor="middle" x="572" y="-467.5" font-family="Helvetica,sans-Serif" font-size="10.00">AC_PID::set_desired_rate</text>
</a>
</g>
</g>
<!-- Node20&#45;&gt;Node25 -->
<g id="edge24" class="edge"><title>Node20&#45;&gt;Node25</title>
<path fill="none" stroke="midnightblue" d="M463.223,-490.618C478.986,-487.603 495.774,-484.391 511.292,-481.422"/>
<polygon fill="midnightblue" stroke="midnightblue" points="512.118,-484.828 521.282,-479.511 510.803,-477.953 512.118,-484.828"/>
</g>
<!-- Node26 -->
<g id="node26" class="node"><title>Node26</title>
<g id="a_node26"><a xlink:href="$classAC__PID.html#a0fc275cae5ff46799af85af551c65870" xlink:title="AC_PID::get_integrator">
<polygon fill="white" stroke="black" points="512.5,-422.5 512.5,-441.5 631.5,-441.5 631.5,-422.5 512.5,-422.5"/>
<text text-anchor="middle" x="572" y="-429.5" font-family="Helvetica,sans-Serif" font-size="10.00">AC_PID::get_integrator</text>
</a>
</g>
</g>
<!-- Node20&#45;&gt;Node26 -->
<g id="edge25" class="edge"><title>Node20&#45;&gt;Node26</title>
<path fill="none" stroke="midnightblue" d="M445.368,-487.988C452.768,-485.026 460.211,-481.68 467,-478 484.583,-468.469 485.061,-459.843 503,-451 507.69,-448.688 512.705,-446.619 517.806,-444.777"/>
<polygon fill="midnightblue" stroke="midnightblue" points="519.271,-447.978 527.661,-441.507 517.067,-441.334 519.271,-447.978"/>
</g>
<!-- Node27 -->
<g id="node27" class="node"><title>Node27</title>
<g id="a_node27"><a xlink:href="$classAC__PID.html#a2d5bf9811a78c93a396ec1e37ae6fa0a" xlink:title="AC_PID::get_i">
<polygon fill="white" stroke="black" points="532,-574.5 532,-593.5 612,-593.5 612,-574.5 532,-574.5"/>
<text text-anchor="middle" x="572" y="-581.5" font-family="Helvetica,sans-Serif" font-size="10.00">AC_PID::get_i</text>
</a>
</g>
</g>
<!-- Node20&#45;&gt;Node27 -->
<g id="edge26" class="edge"><title>Node20&#45;&gt;Node27</title>
<path fill="none" stroke="midnightblue" d="M450.266,-518.115C456.109,-520.693 461.817,-523.644 467,-527 486.527,-539.646 483.075,-552.99 503,-565 508.854,-568.529 515.385,-571.422 522.019,-573.788"/>
<polygon fill="midnightblue" stroke="midnightblue" points="521.156,-577.187 531.747,-576.892 523.284,-570.518 521.156,-577.187"/>
</g>
<!-- Node28 -->
<g id="node28" class="node"><title>Node28</title>
<g id="a_node28"><a xlink:href="$classAC__PID.html#a4808bb2656a1e8d94c713e58a7a2a222" xlink:title="AC_PID::get_p">
<polygon fill="white" stroke="black" points="530.5,-612.5 530.5,-631.5 613.5,-631.5 613.5,-612.5 530.5,-612.5"/>
<text text-anchor="middle" x="572" y="-619.5" font-family="Helvetica,sans-Serif" font-size="10.00">AC_PID::get_p</text>
</a>
</g>
</g>
<!-- Node20&#45;&gt;Node28 -->
<g id="edge28" class="edge"><title>Node20&#45;&gt;Node28</title>
<path fill="none" stroke="midnightblue" d="M454.165,-518.038C458.792,-520.58 463.159,-523.544 467,-527 494.784,-552 474.424,-578.909 503,-603 508.226,-607.406 514.402,-610.794 520.866,-613.398"/>
<polygon fill="midnightblue" stroke="midnightblue" points="519.871,-616.757 530.466,-616.681 522.136,-610.134 519.871,-616.757"/>
</g>
<!-- Node29 -->
<g id="node29" class="node"><title>Node29</title>
<g id="a_node29"><a xlink:href="$classAC__PID.html#ad0c0510049ea37401920792e843bec86" xlink:title="AC_PID::get_d">
<polygon fill="white" stroke="black" points="530.5,-536.5 530.5,-555.5 613.5,-555.5 613.5,-536.5 530.5,-536.5"/>
<text text-anchor="middle" x="572" y="-543.5" font-family="Helvetica,sans-Serif" font-size="10.00">AC_PID::get_d</text>
</a>
</g>
</g>
<!-- Node20&#45;&gt;Node29 -->
<g id="edge29" class="edge"><title>Node20&#45;&gt;Node29</title>
<path fill="none" stroke="midnightblue" d="M458.832,-518.039C479.86,-523.281 503.154,-529.088 523.04,-534.045"/>
<polygon fill="midnightblue" stroke="midnightblue" points="522.251,-537.455 532.8,-536.478 523.944,-530.663 522.251,-537.455"/>
</g>
<!-- Node30 -->
<g id="node30" class="node"><title>Node30</title>
<g id="a_node30"><a xlink:href="$classAC__PID.html#af8b4c040c43a28fbe025de765f38e90d" xlink:title="AC_PID::get_ff">
<polygon fill="white" stroke="black" points="530,-498.5 530,-517.5 614,-517.5 614,-498.5 530,-498.5"/>
<text text-anchor="middle" x="572" y="-505.5" font-family="Helvetica,sans-Serif" font-size="10.00">AC_PID::get_ff</text>
</a>
</g>
</g>
<!-- Node20&#45;&gt;Node30 -->
<g id="edge30" class="edge"><title>Node20&#45;&gt;Node30</title>
<path fill="none" stroke="midnightblue" d="M463.223,-504.876C481.924,-505.418 502.067,-506.002 519.82,-506.517"/>
<polygon fill="midnightblue" stroke="midnightblue" points="519.871,-510.019 529.968,-506.811 520.073,-503.022 519.871,-510.019"/>
</g>
<!-- Node23 -->
<g id="node23" class="node"><title>Node23</title>
<g id="a_node23"><a xlink:href="$classAC__PID.html#ac12ffbd4fd053c6152d403b69e07b8e1" xlink:title="AC_PID::get_filt_alpha">
<polygon fill="white" stroke="black" points="683,-536.5 683,-555.5 800,-555.5 800,-536.5 683,-536.5"/>
<text text-anchor="middle" x="741.5" y="-543.5" font-family="Helvetica,sans-Serif" font-size="10.00">AC_PID::get_filt_alpha</text>
</a>
</g>
</g>
<!-- Node22&#45;&gt;Node23 -->
<g id="edge22" class="edge"><title>Node22&#45;&gt;Node23</title>
<path fill="none" stroke="midnightblue" d="M624.572,-353.545C630.47,-356.008 636.11,-359.105 641,-363 695.837,-406.68 724.681,-489.149 735.452,-526.61"/>
<polygon fill="midnightblue" stroke="midnightblue" points="732.093,-527.595 738.121,-536.307 738.842,-525.737 732.093,-527.595"/>
</g>
<!-- Node24 -->
<g id="node24" class="node"><title>Node24</title>
<g id="a_node24"><a xlink:href="$AP__Math_8h.html#a2a12cce483e9b870da70d30406d82c60" xlink:title="is_zero">
<polygon fill="white" stroke="black" points="883.5,-555.5 883.5,-574.5 931.5,-574.5 931.5,-555.5 883.5,-555.5"/>
<text text-anchor="middle" x="907.5" y="-562.5" font-family="Helvetica,sans-Serif" font-size="10.00">is_zero</text>
</a>
</g>
</g>
<!-- Node23&#45;&gt;Node24 -->
<g id="edge23" class="edge"><title>Node23&#45;&gt;Node24</title>
<path fill="none" stroke="midnightblue" d="M800.32,-552.699C824.777,-555.532 852.384,-558.73 873.318,-561.156"/>
<polygon fill="midnightblue" stroke="midnightblue" points="872.972,-564.639 883.309,-562.313 873.778,-557.686 872.972,-564.639"/>
</g>
<!-- Node27&#45;&gt;Node24 -->
<g id="edge27" class="edge"><title>Node27&#45;&gt;Node24</title>
<path fill="none" stroke="midnightblue" d="M612.237,-581.765C678.484,-577.99 811.332,-570.422 873.278,-566.893"/>
<polygon fill="midnightblue" stroke="midnightblue" points="873.506,-570.386 883.29,-566.322 873.108,-563.397 873.506,-570.386"/>
</g>
<!-- Node32&#45;&gt;Node5 -->
<g id="edge42" class="edge"><title>Node32&#45;&gt;Node5</title>
<path fill="none" stroke="midnightblue" d="M456.8,-469.058C460.59,-471.59 464.058,-474.547 467,-478 525.848,-547.09 441.954,-611.845 503,-679 508.102,-684.612 514.71,-688.621 521.798,-691.475"/>
<polygon fill="midnightblue" stroke="midnightblue" points="521.072,-694.919 531.665,-694.691 523.242,-688.264 521.072,-694.919"/>
</g>
<!-- Node32&#45;&gt;Node22 -->
<g id="edge35" class="edge"><title>Node32&#45;&gt;Node22</title>
<path fill="none" stroke="midnightblue" d="M411.818,-438.781C430.314,-418.57 465.731,-383.093 503,-363 507.228,-360.72 511.755,-358.694 516.391,-356.895"/>
<polygon fill="midnightblue" stroke="midnightblue" points="517.724,-360.137 525.997,-353.518 515.402,-353.533 517.724,-360.137"/>
</g>
<!-- Node32&#45;&gt;Node25 -->
<g id="edge36" class="edge"><title>Node32&#45;&gt;Node25</title>
<path fill="none" stroke="midnightblue" d="M467.172,-460.37C476.795,-461.262 486.723,-462.183 496.449,-463.085"/>
<polygon fill="midnightblue" stroke="midnightblue" points="496.209,-466.578 506.489,-464.016 496.855,-459.608 496.209,-466.578"/>
</g>
<!-- Node32&#45;&gt;Node26 -->
<g id="edge37" class="edge"><title>Node32&#45;&gt;Node26</title>
<path fill="none" stroke="midnightblue" d="M467.172,-445.242C478.726,-443.768 490.72,-442.239 502.276,-440.765"/>
<polygon fill="midnightblue" stroke="midnightblue" points="502.819,-444.224 512.296,-439.487 501.933,-437.28 502.819,-444.224"/>
</g>
<!-- Node32&#45;&gt;Node27 -->
<g id="edge38" class="edge"><title>Node32&#45;&gt;Node27</title>
<path fill="none" stroke="midnightblue" d="M454.686,-469.027C459.149,-471.568 463.339,-474.536 467,-478 497.397,-506.76 471.691,-537.236 503,-565 508.486,-569.864 515.12,-573.493 522.067,-576.198"/>
<polygon fill="midnightblue" stroke="midnightblue" points="521.062,-579.551 531.655,-579.342 523.243,-572.9 521.062,-579.551"/>
</g>
<!-- Node32&#45;&gt;Node28 -->
<g id="edge39" class="edge"><title>Node32&#45;&gt;Node28</title>
<path fill="none" stroke="midnightblue" d="M456.09,-469.201C460.09,-471.701 463.798,-474.611 467,-478 506.708,-520.021 461.957,-562.282 503,-603 507.97,-607.93 514.106,-611.606 520.641,-614.342"/>
<polygon fill="midnightblue" stroke="midnightblue" points="519.818,-617.761 530.412,-617.715 522.102,-611.144 519.818,-617.761"/>
</g>
<!-- Node32&#45;&gt;Node29 -->
<g id="edge40" class="edge"><title>Node32&#45;&gt;Node29</title>
<path fill="none" stroke="midnightblue" d="M452.105,-469.162C457.37,-471.698 462.442,-474.627 467,-478 488.722,-494.075 480.77,-511.634 503,-527 508.294,-530.659 514.276,-533.617 520.442,-536.006"/>
<polygon fill="midnightblue" stroke="midnightblue" points="519.615,-539.421 530.21,-539.313 521.86,-532.791 519.615,-539.421"/>
</g>
<!-- Node32&#45;&gt;Node30 -->
<g id="edge41" class="edge"><title>Node32&#45;&gt;Node30</title>
<path fill="none" stroke="midnightblue" d="M441.812,-469.054C460.556,-475.427 482.789,-482.796 503,-489 510.333,-491.251 518.144,-493.537 525.762,-495.706"/>
<polygon fill="midnightblue" stroke="midnightblue" points="525.033,-499.137 535.607,-498.477 526.93,-492.399 525.033,-499.137"/>
</g>
<!-- Node33 -->
<g id="node33" class="node"><title>Node33</title>
<g id="a_node33"><a xlink:href="$classAC__AttitudeControl.html#a9e10a37d28eeb3d6476ec087b3bac3df" xlink:title="AC_AttitudeControl\l::get_rate_pitch_pid">
<polygon fill="white" stroke="black" points="521,-236 521,-266 623,-266 623,-236 521,-236"/>
<text text-anchor="start" x="529" y="-254" font-family="Helvetica,sans-Serif" font-size="10.00">AC_AttitudeControl</text>
<text text-anchor="middle" x="572" y="-243" font-family="Helvetica,sans-Serif" font-size="10.00">::get_rate_pitch_pid</text>
</a>
</g>
</g>
<!-- Node32&#45;&gt;Node33 -->
<g id="edge34" class="edge"><title>Node32&#45;&gt;Node33</title>
<path fill="none" stroke="midnightblue" d="M406.623,-438.738C428.606,-397.639 488.578,-286.923 503,-275 505.736,-272.738 508.701,-270.682 511.81,-268.815"/>
<polygon fill="midnightblue" stroke="midnightblue" points="513.664,-271.794 520.882,-264.039 510.403,-265.6 513.664,-271.794"/>
</g>
<!-- Node35&#45;&gt;Node5 -->
<g id="edge54" class="edge"><title>Node35&#45;&gt;Node5</title>
<path fill="none" stroke="midnightblue" d="M406.692,-567.067C421.998,-593.775 457.543,-649.388 503,-679 508.797,-682.776 515.342,-685.811 522.025,-688.247"/>
<polygon fill="midnightblue" stroke="midnightblue" points="521.252,-691.675 531.843,-691.406 523.395,-685.011 521.252,-691.675"/>
</g>
<!-- Node35&#45;&gt;Node25 -->
<g id="edge48" class="edge"><title>Node35&#45;&gt;Node25</title>
<path fill="none" stroke="midnightblue" d="M448.47,-536.878C454.935,-534.035 461.286,-530.753 467,-527 486.445,-514.228 483.075,-501.01 503,-489 506.602,-486.829 510.46,-484.898 514.441,-483.183"/>
<polygon fill="midnightblue" stroke="midnightblue" points="515.806,-486.408 523.89,-479.559 513.299,-479.872 515.806,-486.408"/>
</g>
<!-- Node35&#45;&gt;Node26 -->
<g id="edge49" class="edge"><title>Node35&#45;&gt;Node26</title>
<path fill="none" stroke="midnightblue" d="M452.814,-536.867C457.943,-534.099 462.79,-530.838 467,-527 494.621,-501.821 474.424,-475.091 503,-451 505.009,-449.306 507.158,-447.763 509.411,-446.357"/>
<polygon fill="midnightblue" stroke="midnightblue" points="511.291,-449.323 518.527,-441.585 508.045,-443.121 511.291,-449.323"/>
</g>
<!-- Node35&#45;&gt;Node27 -->
<g id="edge50" class="edge"><title>Node35&#45;&gt;Node27</title>
<path fill="none" stroke="midnightblue" d="M465.687,-564.464C484.35,-567.926 504.266,-571.62 521.699,-574.854"/>
<polygon fill="midnightblue" stroke="midnightblue" points="521.177,-578.317 531.648,-576.7 522.454,-571.435 521.177,-578.317"/>
</g>
<!-- Node35&#45;&gt;Node28 -->
<g id="edge51" class="edge"><title>Node35&#45;&gt;Node28</title>
<path fill="none" stroke="midnightblue" d="M425.834,-567.043C446.571,-578.031 476.015,-592.743 503,-603 509.236,-605.37 515.893,-607.591 522.511,-609.62"/>
<polygon fill="midnightblue" stroke="midnightblue" points="521.545,-612.984 532.126,-612.448 523.52,-606.268 521.545,-612.984"/>
</g>
<!-- Node35&#45;&gt;Node29 -->
<g id="edge52" class="edge"><title>Node35&#45;&gt;Node29</title>
<path fill="none" stroke="midnightblue" d="M465.687,-549.663C483.784,-549.034 503.059,-548.363 520.106,-547.77"/>
<polygon fill="midnightblue" stroke="midnightblue" points="520.529,-551.258 530.401,-547.412 520.286,-544.262 520.529,-551.258"/>
</g>
<!-- Node35&#45;&gt;Node30 -->
<g id="edge53" class="edge"><title>Node35&#45;&gt;Node30</title>
<path fill="none" stroke="midnightblue" d="M457.382,-536.981C479.106,-531.44 503.414,-525.239 523.954,-520"/>
<polygon fill="midnightblue" stroke="midnightblue" points="524.882,-523.375 533.707,-517.512 523.152,-516.593 524.882,-523.375"/>
</g>
<!-- Node36 -->
<g id="node36" class="node"><title>Node36</title>
<g id="a_node36"><a xlink:href="$classAC__AttitudeControl.html#a9e430ac947e0924fdc83280a4ed552bf" xlink:title="AC_AttitudeControl\l::get_rate_yaw_pid">
<polygon fill="white" stroke="black" points="521.5,-373 521.5,-403 622.5,-403 622.5,-373 521.5,-373"/>
<text text-anchor="start" x="529.5" y="-391" font-family="Helvetica,sans-Serif" font-size="10.00">AC_AttitudeControl</text>
<text text-anchor="middle" x="572" y="-380" font-family="Helvetica,sans-Serif" font-size="10.00">::get_rate_yaw_pid</text>
</a>
</g>
</g>
<!-- Node35&#45;&gt;Node36 -->
<g id="edge45" class="edge"><title>Node35&#45;&gt;Node36</title>
<path fill="none" stroke="midnightblue" d="M454.367,-536.851C459.01,-534.096 463.324,-530.842 467,-527 503.734,-488.611 466.312,-451.433 503,-413 505.802,-410.064 508.978,-407.472 512.39,-405.182"/>
<polygon fill="midnightblue" stroke="midnightblue" points="514.337,-408.1 521.274,-400.092 510.857,-402.026 514.337,-408.1"/>
</g>
<!-- Node37 -->
<g id="node37" class="node"><title>Node37</title>
<g id="a_node37"><a xlink:href="$classAC__PID.html#ac267330f1299f011febcaaba47994af7" xlink:title="AC_PID::set_input_filter_all">
<polygon fill="white" stroke="black" points="503,-650.5 503,-669.5 641,-669.5 641,-650.5 503,-650.5"/>
<text text-anchor="middle" x="572" y="-657.5" font-family="Helvetica,sans-Serif" font-size="10.00">AC_PID::set_input_filter_all</text>
</a>
</g>
</g>
<!-- Node35&#45;&gt;Node37 -->
<g id="edge46" class="edge"><title>Node35&#45;&gt;Node37</title>
<path fill="none" stroke="midnightblue" d="M412.208,-567.209C430.869,-587.014 466.184,-621.411 503,-641 507.241,-643.256 511.776,-645.267 516.418,-647.054"/>
<polygon fill="midnightblue" stroke="midnightblue" points="515.436,-650.419 526.031,-650.417 517.748,-643.812 515.436,-650.419"/>
</g>
<!-- Node37&#45;&gt;Node23 -->
<g id="edge47" class="edge"><title>Node37&#45;&gt;Node23</title>
<path fill="none" stroke="midnightblue" d="M619.228,-650.398C626.762,-647.91 634.288,-644.819 641,-641 676.576,-620.755 709.113,-585.038 726.735,-563.639"/>
<polygon fill="midnightblue" stroke="midnightblue" points="729.593,-565.671 733.139,-555.688 724.141,-561.281 729.593,-565.671"/>
</g>
<!-- Node38&#45;&gt;Node21 -->
<g id="edge56" class="edge"><title>Node38&#45;&gt;Node21</title>
<path fill="none" stroke="midnightblue" d="M459.803,-300C476.483,-300 494.526,-300 511.126,-300"/>
<polygon fill="midnightblue" stroke="midnightblue" points="511.251,-303.5 521.251,-300 511.25,-296.5 511.251,-303.5"/>
</g>
<!-- Node38&#45;&gt;Node33 -->
<g id="edge60" class="edge"><title>Node38&#45;&gt;Node33</title>
<path fill="none" stroke="midnightblue" d="M451.663,-284.899C470.548,-279.534 491.927,-273.461 511.321,-267.952"/>
<polygon fill="midnightblue" stroke="midnightblue" points="512.295,-271.314 520.958,-265.215 510.383,-264.58 512.295,-271.314"/>
</g>
<!-- Node38&#45;&gt;Node36 -->
<g id="edge61" class="edge"><title>Node38&#45;&gt;Node36</title>
<path fill="none" stroke="midnightblue" d="M420.639,-315.047C441.332,-328.695 473.396,-348.794 503,-363 507.377,-365.1 511.979,-367.135 516.64,-369.077"/>
<polygon fill="midnightblue" stroke="midnightblue" points="515.65,-372.451 526.235,-372.924 518.255,-365.954 515.65,-372.451"/>
</g>
<!-- Node39 -->
<g id="node39" class="node"><title>Node39</title>
<g id="a_node39"><a xlink:href="$classAC__PID.html#aac49c9e75c7bea524fab440e27c6a0fa" xlink:title="AC_PID::get_pid_info">
<polygon fill="white" stroke="black" points="516,-148.5 516,-167.5 628,-167.5 628,-148.5 516,-148.5"/>
<text text-anchor="middle" x="572" y="-155.5" font-family="Helvetica,sans-Serif" font-size="10.00">AC_PID::get_pid_info</text>
</a>
</g>
</g>
<!-- Node38&#45;&gt;Node39 -->
<g id="edge57" class="edge"><title>Node38&#45;&gt;Node39</title>
<path fill="none" stroke="midnightblue" d="M453.849,-284.865C458.655,-282.104 463.147,-278.845 467,-275 499.845,-242.224 468.91,-208.48 503,-177 504.683,-175.446 506.482,-174.018 508.373,-172.705"/>
<polygon fill="midnightblue" stroke="midnightblue" points="510.232,-175.673 517.16,-167.658 506.746,-169.603 510.232,-175.673"/>
</g>
<!-- Node40 -->
<g id="node40" class="node"><title>Node40</title>
<g id="a_node40"><a xlink:href="$classAC__AttitudeControl.html#a9f960478035a8b88322dc90f32b60056" xlink:title="AC_AttitudeControl\l::control_monitor_filter_pid">
<polygon fill="white" stroke="black" points="506.5,-187 506.5,-217 637.5,-217 637.5,-187 506.5,-187"/>
<text text-anchor="start" x="514.5" y="-205" font-family="Helvetica,sans-Serif" font-size="10.00">AC_AttitudeControl</text>
<text text-anchor="middle" x="572" y="-194" font-family="Helvetica,sans-Serif" font-size="10.00">::control_monitor_filter_pid</text>
</a>
</g>
</g>
<!-- Node38&#45;&gt;Node40 -->
<g id="edge58" class="edge"><title>Node38&#45;&gt;Node40</title>
<path fill="none" stroke="midnightblue" d="M450.345,-284.867C456.238,-282.066 461.936,-278.798 467,-275 488.618,-258.785 481.296,-242.1 503,-226 504.879,-224.606 506.846,-223.288 508.878,-222.042"/>
<polygon fill="midnightblue" stroke="midnightblue" points="511.009,-224.868 518.135,-217.028 507.675,-218.713 511.009,-224.868"/>
</g>
<!-- Node41 -->
<g id="node41" class="node"><title>Node41</title>
<g id="a_node41"><a xlink:href="$AP__Math_8h.html#a0375e3d67fd3911cacee5c3e1408c0f2" xlink:title="sq">
<polygon fill="white" stroke="black" points="727,-192.5 727,-211.5 756,-211.5 756,-192.5 727,-192.5"/>
<text text-anchor="middle" x="741.5" y="-199.5" font-family="Helvetica,sans-Serif" font-size="10.00">sq</text>
</a>
</g>
</g>
<!-- Node40&#45;&gt;Node41 -->
<g id="edge59" class="edge"><title>Node40&#45;&gt;Node41</title>
<path fill="none" stroke="midnightblue" d="M637.76,-202C665.54,-202 696.263,-202 716.81,-202"/>
<polygon fill="midnightblue" stroke="midnightblue" points="716.826,-205.5 726.826,-202 716.826,-198.5 716.826,-205.5"/>
</g>
</g>
</svg>
