<?xml version="1.0" encoding="UTF-8" standalone="no"?>
<!DOCTYPE svg PUBLIC "-//W3C//DTD SVG 1.1//EN"
 "http://www.w3.org/Graphics/SVG/1.1/DTD/svg11.dtd">
<!-- Generated by graphviz version 2.38.0 (20140413.2041)
 -->
<!-- Title: AC_AttitudeControl::thrust_heading_rotation_angles Pages: 1 -->
<svg width="741pt" height="427pt"
 viewBox="0.00 0.00 741.00 427.00" xmlns="http://www.w3.org/2000/svg" xmlns:xlink="http://www.w3.org/1999/xlink">
<g id="graph0" class="graph" transform="scale(1 1) rotate(0) translate(4 423)">
<title>AC_AttitudeControl::thrust_heading_rotation_angles</title>
<polygon fill="white" stroke="none" points="-4,4 -4,-423 737,-423 737,4 -4,4"/>
<!-- Node1 -->
<g id="node1" class="node"><title>Node1</title>
<polygon fill="#bfbfbf" stroke="black" points="0,-191.5 0,-232.5 124,-232.5 124,-191.5 0,-191.5"/>
<text text-anchor="start" x="8" y="-220.5" font-family="Helvetica,sans-Serif" font-size="10.00">AC_AttitudeControl</text>
<text text-anchor="start" x="8" y="-209.5" font-family="Helvetica,sans-Serif" font-size="10.00">::thrust_heading_rotation</text>
<text text-anchor="middle" x="62" y="-198.5" font-family="Helvetica,sans-Serif" font-size="10.00">_angles</text>
</g>
<!-- Node2 -->
<g id="node2" class="node"><title>Node2</title>
<g id="a_node2"><a xlink:href="$classQuaternion.html#afb7132c9c69a984a40be950a17effeaa" xlink:title="Quaternion::rotation\l_matrix">
<polygon fill="white" stroke="black" points="165.5,-367 165.5,-397 267.5,-397 267.5,-367 165.5,-367"/>
<text text-anchor="start" x="173.5" y="-385" font-family="Helvetica,sans-Serif" font-size="10.00">Quaternion::rotation</text>
<text text-anchor="middle" x="216.5" y="-374" font-family="Helvetica,sans-Serif" font-size="10.00">_matrix</text>
</a>
</g>
</g>
<!-- Node1&#45;&gt;Node2 -->
<g id="edge1" class="edge"><title>Node1&#45;&gt;Node2</title>
<path fill="none" stroke="midnightblue" d="M72.2013,-232.672C86.8168,-263.449 118.034,-321.494 160,-357 161.941,-358.642 164.008,-360.197 166.159,-361.666"/>
<polygon fill="midnightblue" stroke="midnightblue" points="164.427,-364.709 174.791,-366.909 168.061,-358.726 164.427,-364.709"/>
</g>
<!-- Node3 -->
<g id="node3" class="node"><title>Node3</title>
<g id="a_node3"><a xlink:href="$AP__Math_8h.html#ad525609d9dba6ffa556a0fbf08a3f9b4" xlink:title="constrain_float">
<polygon fill="white" stroke="black" points="176.5,-328.5 176.5,-347.5 256.5,-347.5 256.5,-328.5 176.5,-328.5"/>
<text text-anchor="middle" x="216.5" y="-335.5" font-family="Helvetica,sans-Serif" font-size="10.00">constrain_float</text>
</a>
</g>
</g>
<!-- Node1&#45;&gt;Node3 -->
<g id="edge2" class="edge"><title>Node1&#45;&gt;Node3</title>
<path fill="none" stroke="midnightblue" d="M78.5224,-232.755C96.1972,-255.221 126.935,-290.923 160,-314 165.61,-317.916 171.961,-321.393 178.312,-324.401"/>
<polygon fill="midnightblue" stroke="midnightblue" points="176.968,-327.634 187.529,-328.47 179.794,-321.23 176.968,-327.634"/>
</g>
<!-- Node9 -->
<g id="node9" class="node"><title>Node9</title>
<g id="a_node9"><a xlink:href="$classVector3.html#ac1fd5514e368a1e1c2d13f71eda18345" xlink:title="Vector3::length">
<polygon fill="white" stroke="black" points="326,-266.5 326,-285.5 409,-285.5 409,-266.5 326,-266.5"/>
<text text-anchor="middle" x="367.5" y="-273.5" font-family="Helvetica,sans-Serif" font-size="10.00">Vector3::length</text>
</a>
</g>
</g>
<!-- Node1&#45;&gt;Node9 -->
<g id="edge8" class="edge"><title>Node1&#45;&gt;Node9</title>
<path fill="none" stroke="midnightblue" d="M83.9878,-232.545C102.335,-248.965 130.581,-270.715 160,-280 211.176,-296.151 273.091,-292.051 315.699,-285.858"/>
<polygon fill="midnightblue" stroke="midnightblue" points="316.479,-289.279 325.828,-284.293 315.41,-282.361 316.479,-289.279"/>
</g>
<!-- Node12 -->
<g id="node12" class="node"><title>Node12</title>
<g id="a_node12"><a xlink:href="$AP__Math_8h.html#a2a12cce483e9b870da70d30406d82c60" xlink:title="is_zero">
<polygon fill="white" stroke="black" points="343.5,-228.5 343.5,-247.5 391.5,-247.5 391.5,-228.5 343.5,-228.5"/>
<text text-anchor="middle" x="367.5" y="-235.5" font-family="Helvetica,sans-Serif" font-size="10.00">is_zero</text>
</a>
</g>
</g>
<!-- Node1&#45;&gt;Node12 -->
<g id="edge11" class="edge"><title>Node1&#45;&gt;Node12</title>
<path fill="none" stroke="midnightblue" d="M124.053,-217.23C187.078,-222.629 283.074,-230.853 333.274,-235.154"/>
<polygon fill="midnightblue" stroke="midnightblue" points="333,-238.643 343.262,-236.009 333.598,-231.668 333,-238.643"/>
</g>
<!-- Node13 -->
<g id="node13" class="node"><title>Node13</title>
<g id="a_node13"><a xlink:href="$classQuaternion.html#a6c21fe33378aa16a33cba869ba4af5dc" xlink:title="Quaternion::from_axis\l_angle">
<polygon fill="white" stroke="black" points="160,-241 160,-271 273,-271 273,-241 160,-241"/>
<text text-anchor="start" x="168" y="-259" font-family="Helvetica,sans-Serif" font-size="10.00">Quaternion::from_axis</text>
<text text-anchor="middle" x="216.5" y="-248" font-family="Helvetica,sans-Serif" font-size="10.00">_angle</text>
</a>
</g>
</g>
<!-- Node1&#45;&gt;Node13 -->
<g id="edge12" class="edge"><title>Node1&#45;&gt;Node13</title>
<path fill="none" stroke="midnightblue" d="M124.149,-229.643C133.743,-232.411 143.669,-235.275 153.287,-238.05"/>
<polygon fill="midnightblue" stroke="midnightblue" points="152.593,-241.493 163.172,-240.902 154.534,-234.767 152.593,-241.493"/>
</g>
<!-- Node14 -->
<g id="node14" class="node"><title>Node14</title>
<g id="a_node14"><a xlink:href="$classQuaternion.html#a0df66e20ea437eb346f8852690ede6a9" xlink:title="Quaternion::inverse">
<polygon fill="white" stroke="black" points="166,-76.5 166,-95.5 267,-95.5 267,-76.5 166,-76.5"/>
<text text-anchor="middle" x="216.5" y="-83.5" font-family="Helvetica,sans-Serif" font-size="10.00">Quaternion::inverse</text>
</a>
</g>
</g>
<!-- Node1&#45;&gt;Node14 -->
<g id="edge15" class="edge"><title>Node1&#45;&gt;Node14</title>
<path fill="none" stroke="midnightblue" d="M78.5224,-191.245C96.1972,-168.779 126.935,-133.077 160,-110 165.61,-106.084 171.961,-102.607 178.312,-99.5985"/>
<polygon fill="midnightblue" stroke="midnightblue" points="179.794,-102.77 187.529,-95.5298 176.968,-96.366 179.794,-102.77"/>
</g>
<!-- Node16 -->
<g id="node16" class="node"><title>Node16</title>
<g id="a_node16"><a xlink:href="$classQuaternion.html#aa4262462e1c1217fd3bd97b6421dd318" xlink:title="Quaternion::to_axis\l_angle">
<polygon fill="white" stroke="black" points="166,-153 166,-183 267,-183 267,-153 166,-153"/>
<text text-anchor="start" x="174" y="-171" font-family="Helvetica,sans-Serif" font-size="10.00">Quaternion::to_axis</text>
<text text-anchor="middle" x="216.5" y="-160" font-family="Helvetica,sans-Serif" font-size="10.00">_angle</text>
</a>
</g>
</g>
<!-- Node1&#45;&gt;Node16 -->
<g id="edge17" class="edge"><title>Node1&#45;&gt;Node16</title>
<path fill="none" stroke="midnightblue" d="M124.149,-194.357C134.573,-191.349 145.389,-188.229 155.776,-185.232"/>
<polygon fill="midnightblue" stroke="midnightblue" points="156.938,-188.539 165.576,-182.404 154.997,-181.814 156.938,-188.539"/>
</g>
<!-- Node17 -->
<g id="node17" class="node"><title>Node17</title>
<g id="a_node17"><a xlink:href="$AP__Math_8cpp.html#a21d0562d7b23dd9f04bc30a3611cc577" xlink:title="wrap_PI">
<polygon fill="white" stroke="black" points="341,-114.5 341,-133.5 394,-133.5 394,-114.5 341,-114.5"/>
<text text-anchor="middle" x="367.5" y="-121.5" font-family="Helvetica,sans-Serif" font-size="10.00">wrap_PI</text>
</a>
</g>
</g>
<!-- Node1&#45;&gt;Node17 -->
<g id="edge31" class="edge"><title>Node1&#45;&gt;Node17</title>
<path fill="none" stroke="midnightblue" d="M84.9127,-191.197C103.382,-175.033 131.321,-153.632 160,-143 216.949,-121.887 288.518,-120.35 330.706,-121.756"/>
<polygon fill="midnightblue" stroke="midnightblue" points="330.637,-125.256 340.772,-122.167 330.923,-118.262 330.637,-125.256"/>
</g>
<!-- Node27 -->
<g id="node27" class="node"><title>Node27</title>
<g id="a_node27"><a xlink:href="$classAC__P.html#a723b372dfceb74ddb2edbe11544e9d5a" xlink:title="AC_P::kP">
<polygon fill="white" stroke="black" points="186,-38.5 186,-57.5 247,-57.5 247,-38.5 186,-38.5"/>
<text text-anchor="middle" x="216.5" y="-45.5" font-family="Helvetica,sans-Serif" font-size="10.00">AC_P::kP</text>
</a>
</g>
</g>
<!-- Node1&#45;&gt;Node27 -->
<g id="edge30" class="edge"><title>Node1&#45;&gt;Node27</title>
<path fill="none" stroke="midnightblue" d="M71.5604,-191.338C85.5426,-160.038 116.183,-100.693 160,-67 164.81,-63.3013 170.387,-60.2951 176.114,-57.8594"/>
<polygon fill="midnightblue" stroke="midnightblue" points="177.622,-61.0332 185.784,-54.2774 175.191,-54.4691 177.622,-61.0332"/>
</g>
<!-- Node4 -->
<g id="node4" class="node"><title>Node4</title>
<g id="a_node4"><a xlink:href="$AP__Math_8h.html#a20e8f8671c282c69c1954652b6d61585" xlink:title="constrain_value">
<polygon fill="white" stroke="black" points="325,-328.5 325,-347.5 410,-347.5 410,-328.5 325,-328.5"/>
<text text-anchor="middle" x="367.5" y="-335.5" font-family="Helvetica,sans-Serif" font-size="10.00">constrain_value</text>
</a>
</g>
</g>
<!-- Node3&#45;&gt;Node4 -->
<g id="edge3" class="edge"><title>Node3&#45;&gt;Node4</title>
<path fill="none" stroke="midnightblue" d="M256.648,-338C274.408,-338 295.658,-338 314.715,-338"/>
<polygon fill="midnightblue" stroke="midnightblue" points="314.744,-341.5 324.744,-338 314.744,-334.5 314.744,-341.5"/>
</g>
<!-- Node5 -->
<g id="node5" class="node"><title>Node5</title>
<g id="a_node5"><a xlink:href="$AP__Math_8cpp.html#a37e8e901754cb9c8e53a8e3030c82c50" xlink:title="constrain_value\&lt; int \&gt;">
<polygon fill="white" stroke="black" points="471,-285.5 471,-304.5 584,-304.5 584,-285.5 471,-285.5"/>
<text text-anchor="middle" x="527.5" y="-292.5" font-family="Helvetica,sans-Serif" font-size="10.00">constrain_value&lt; int &gt;</text>
</a>
</g>
</g>
<!-- Node4&#45;&gt;Node5 -->
<g id="edge4" class="edge"><title>Node4&#45;&gt;Node5</title>
<path fill="none" stroke="midnightblue" d="M403.565,-328.457C426.578,-322.194 456.884,-313.946 481.647,-307.207"/>
<polygon fill="midnightblue" stroke="midnightblue" points="482.803,-310.52 491.533,-304.516 480.965,-303.765 482.803,-310.52"/>
</g>
<!-- Node6 -->
<g id="node6" class="node"><title>Node6</title>
<g id="a_node6"><a xlink:href="$AP__Math_8cpp.html#afdbe107ec1987d318a6347816fbf2b89" xlink:title="constrain_value\&lt; short \&gt;">
<polygon fill="white" stroke="black" points="465,-399.5 465,-418.5 590,-418.5 590,-399.5 465,-399.5"/>
<text text-anchor="middle" x="527.5" y="-406.5" font-family="Helvetica,sans-Serif" font-size="10.00">constrain_value&lt; short &gt;</text>
</a>
</g>
</g>
<!-- Node4&#45;&gt;Node6 -->
<g id="edge5" class="edge"><title>Node4&#45;&gt;Node6</title>
<path fill="none" stroke="midnightblue" d="M383.207,-347.529C401.203,-358.866 432.88,-377.791 462,-390 467.448,-392.284 473.263,-394.408 479.087,-396.345"/>
<polygon fill="midnightblue" stroke="midnightblue" points="478.243,-399.749 488.833,-399.425 480.353,-393.075 478.243,-399.749"/>
</g>
<!-- Node7 -->
<g id="node7" class="node"><title>Node7</title>
<g id="a_node7"><a xlink:href="$AP__Math_8cpp.html#ae6c621670c214da687de21d4e3a92587" xlink:title="constrain_value\&lt; float \&gt;">
<polygon fill="white" stroke="black" points="466.5,-361.5 466.5,-380.5 588.5,-380.5 588.5,-361.5 466.5,-361.5"/>
<text text-anchor="middle" x="527.5" y="-368.5" font-family="Helvetica,sans-Serif" font-size="10.00">constrain_value&lt; float &gt;</text>
</a>
</g>
</g>
<!-- Node4&#45;&gt;Node7 -->
<g id="edge6" class="edge"><title>Node4&#45;&gt;Node7</title>
<path fill="none" stroke="midnightblue" d="M410.013,-346.67C428.628,-350.558 450.859,-355.202 470.886,-359.384"/>
<polygon fill="midnightblue" stroke="midnightblue" points="470.315,-362.841 480.82,-361.459 471.747,-355.989 470.315,-362.841"/>
</g>
<!-- Node8 -->
<g id="node8" class="node"><title>Node8</title>
<g id="a_node8"><a xlink:href="$AP__Math_8cpp.html#afe3990b00e9abc43fa97dfaf8e32f5c4" xlink:title="constrain_value\&lt; double \&gt;">
<polygon fill="white" stroke="black" points="462,-323.5 462,-342.5 593,-342.5 593,-323.5 462,-323.5"/>
<text text-anchor="middle" x="527.5" y="-330.5" font-family="Helvetica,sans-Serif" font-size="10.00">constrain_value&lt; double &gt;</text>
</a>
</g>
</g>
<!-- Node4&#45;&gt;Node8 -->
<g id="edge7" class="edge"><title>Node4&#45;&gt;Node8</title>
<path fill="none" stroke="midnightblue" d="M410.013,-336.686C422.741,-336.284 437.159,-335.827 451.408,-335.376"/>
<polygon fill="midnightblue" stroke="midnightblue" points="451.842,-338.864 461.726,-335.05 451.62,-331.868 451.842,-338.864"/>
</g>
<!-- Node10 -->
<g id="node10" class="node"><title>Node10</title>
<g id="a_node10"><a xlink:href="$AP__Math_8h.html#adc76d4a5e5c9ae8cb7ab17b55c40d636" xlink:title="norm">
<polygon fill="white" stroke="black" points="508.5,-235.5 508.5,-254.5 546.5,-254.5 546.5,-235.5 508.5,-235.5"/>
<text text-anchor="middle" x="527.5" y="-242.5" font-family="Helvetica,sans-Serif" font-size="10.00">norm</text>
</a>
</g>
</g>
<!-- Node9&#45;&gt;Node10 -->
<g id="edge9" class="edge"><title>Node9&#45;&gt;Node10</title>
<path fill="none" stroke="midnightblue" d="M409.189,-268.017C437.191,-262.523 473.665,-255.366 498.459,-250.502"/>
<polygon fill="midnightblue" stroke="midnightblue" points="499.171,-253.929 508.31,-248.569 497.824,-247.06 499.171,-253.929"/>
</g>
<!-- Node11 -->
<g id="node11" class="node"><title>Node11</title>
<g id="a_node11"><a xlink:href="$AP__Math_8h.html#a0375e3d67fd3911cacee5c3e1408c0f2" xlink:title="sq">
<polygon fill="white" stroke="black" points="666.5,-229.5 666.5,-248.5 695.5,-248.5 695.5,-229.5 666.5,-229.5"/>
<text text-anchor="middle" x="681" y="-236.5" font-family="Helvetica,sans-Serif" font-size="10.00">sq</text>
</a>
</g>
</g>
<!-- Node10&#45;&gt;Node11 -->
<g id="edge10" class="edge"><title>Node10&#45;&gt;Node11</title>
<path fill="none" stroke="midnightblue" d="M546.774,-244.276C574.11,-243.194 625.672,-241.152 656.008,-239.95"/>
<polygon fill="midnightblue" stroke="midnightblue" points="656.286,-243.442 666.14,-239.549 656.009,-236.447 656.286,-243.442"/>
</g>
<!-- Node13&#45;&gt;Node9 -->
<g id="edge13" class="edge"><title>Node13&#45;&gt;Node9</title>
<path fill="none" stroke="midnightblue" d="M273.406,-263.504C287.225,-265.359 301.955,-267.336 315.525,-269.158"/>
<polygon fill="midnightblue" stroke="midnightblue" points="315.265,-272.654 325.642,-270.516 316.196,-265.716 315.265,-272.654"/>
</g>
<!-- Node13&#45;&gt;Node12 -->
<g id="edge14" class="edge"><title>Node13&#45;&gt;Node12</title>
<path fill="none" stroke="midnightblue" d="M273.406,-249.246C293.511,-246.817 315.546,-244.156 333.129,-242.031"/>
<polygon fill="midnightblue" stroke="midnightblue" points="333.937,-245.459 343.445,-240.785 333.097,-238.51 333.937,-245.459"/>
</g>
<!-- Node15 -->
<g id="node15" class="node"><title>Node15</title>
<g id="a_node15"><a xlink:href="$classQuaternion.html#abcc01358aada56ea5f0db4da18aaf77d" xlink:title="Quaternion::Quaternion">
<polygon fill="white" stroke="black" points="309,-76.5 309,-95.5 426,-95.5 426,-76.5 309,-76.5"/>
<text text-anchor="middle" x="367.5" y="-83.5" font-family="Helvetica,sans-Serif" font-size="10.00">Quaternion::Quaternion</text>
</a>
</g>
</g>
<!-- Node14&#45;&gt;Node15 -->
<g id="edge16" class="edge"><title>Node14&#45;&gt;Node15</title>
<path fill="none" stroke="midnightblue" d="M267.115,-86C277.251,-86 288.082,-86 298.728,-86"/>
<polygon fill="midnightblue" stroke="midnightblue" points="298.849,-89.5001 308.849,-86 298.849,-82.5001 298.849,-89.5001"/>
</g>
<!-- Node16&#45;&gt;Node11 -->
<g id="edge18" class="edge"><title>Node16&#45;&gt;Node11</title>
<path fill="none" stroke="midnightblue" d="M267.435,-175.666C366.321,-190.846 583.746,-224.224 656.072,-235.327"/>
<polygon fill="midnightblue" stroke="midnightblue" points="655.979,-238.853 666.394,-236.911 657.041,-231.934 655.979,-238.853"/>
</g>
<!-- Node16&#45;&gt;Node12 -->
<g id="edge19" class="edge"><title>Node16&#45;&gt;Node12</title>
<path fill="none" stroke="midnightblue" d="M246.095,-183.027C264.013,-192.279 287.673,-204.203 309,-214 317.054,-217.7 325.843,-221.49 334.071,-224.934"/>
<polygon fill="midnightblue" stroke="midnightblue" points="332.817,-228.202 343.395,-228.791 335.493,-221.734 332.817,-228.202"/>
</g>
<!-- Node16&#45;&gt;Node17 -->
<g id="edge20" class="edge"><title>Node16&#45;&gt;Node17</title>
<path fill="none" stroke="midnightblue" d="M267.115,-153.349C288.069,-147.161 311.99,-140.097 331.112,-134.45"/>
<polygon fill="midnightblue" stroke="midnightblue" points="332.313,-137.745 340.912,-131.556 330.331,-131.032 332.313,-137.745"/>
</g>
<!-- Node18 -->
<g id="node18" class="node"><title>Node18</title>
<g id="a_node18"><a xlink:href="$AP__Math_8cpp.html#aa66b7eae8d7e99247c6a2b3d2b5c7b8d" xlink:title="wrap_2PI">
<polygon fill="white" stroke="black" points="498.5,-114.5 498.5,-133.5 556.5,-133.5 556.5,-114.5 498.5,-114.5"/>
<text text-anchor="middle" x="527.5" y="-121.5" font-family="Helvetica,sans-Serif" font-size="10.00">wrap_2PI</text>
</a>
</g>
</g>
<!-- Node17&#45;&gt;Node18 -->
<g id="edge21" class="edge"><title>Node17&#45;&gt;Node18</title>
<path fill="none" stroke="midnightblue" d="M394.237,-124C419.704,-124 458.993,-124 488.139,-124"/>
<polygon fill="midnightblue" stroke="midnightblue" points="488.374,-127.5 498.374,-124 488.374,-120.5 488.374,-127.5"/>
</g>
<!-- Node23 -->
<g id="node23" class="node"><title>Node23</title>
<g id="a_node23"><a xlink:href="$AP__Math_8cpp.html#a044023fcfa899d449f5a219ca7596ca4" xlink:title="wrap_PI\&lt; int \&gt;">
<polygon fill="white" stroke="black" points="487,-76.5 487,-95.5 568,-95.5 568,-76.5 487,-76.5"/>
<text text-anchor="middle" x="527.5" y="-83.5" font-family="Helvetica,sans-Serif" font-size="10.00">wrap_PI&lt; int &gt;</text>
</a>
</g>
</g>
<!-- Node17&#45;&gt;Node23 -->
<g id="edge26" class="edge"><title>Node17&#45;&gt;Node23</title>
<path fill="none" stroke="midnightblue" d="M394.237,-117.81C416.589,-112.434 449.588,-104.498 477.032,-97.8974"/>
<polygon fill="midnightblue" stroke="midnightblue" points="477.957,-101.275 486.862,-95.5333 476.321,-94.4687 477.957,-101.275"/>
</g>
<!-- Node24 -->
<g id="node24" class="node"><title>Node24</title>
<g id="a_node24"><a xlink:href="$AP__Math_8cpp.html#ad0041912c2965b653fa9cf6854e47bc8" xlink:title="wrap_PI\&lt; short \&gt;">
<polygon fill="white" stroke="black" points="481.5,-38.5 481.5,-57.5 573.5,-57.5 573.5,-38.5 481.5,-38.5"/>
<text text-anchor="middle" x="527.5" y="-45.5" font-family="Helvetica,sans-Serif" font-size="10.00">wrap_PI&lt; short &gt;</text>
</a>
</g>
</g>
<!-- Node17&#45;&gt;Node24 -->
<g id="edge27" class="edge"><title>Node17&#45;&gt;Node24</title>
<path fill="none" stroke="midnightblue" d="M394.035,-118.477C404.466,-115.5 416.326,-111.143 426,-105 445.639,-92.5285 442.16,-79.149 462,-67 465.43,-64.8997 469.105,-63.0206 472.897,-61.3412"/>
<polygon fill="midnightblue" stroke="midnightblue" points="474.467,-64.4846 482.491,-57.5657 471.904,-57.9709 474.467,-64.4846"/>
</g>
<!-- Node25 -->
<g id="node25" class="node"><title>Node25</title>
<g id="a_node25"><a xlink:href="$AP__Math_8cpp.html#a789e7d40c173a1fab6560d1b61609952" xlink:title="wrap_PI\&lt; float \&gt;">
<polygon fill="white" stroke="black" points="483,-0.5 483,-19.5 572,-19.5 572,-0.5 483,-0.5"/>
<text text-anchor="middle" x="527.5" y="-7.5" font-family="Helvetica,sans-Serif" font-size="10.00">wrap_PI&lt; float &gt;</text>
</a>
</g>
</g>
<!-- Node17&#45;&gt;Node25 -->
<g id="edge28" class="edge"><title>Node17&#45;&gt;Node25</title>
<path fill="none" stroke="midnightblue" d="M394.237,-120.13C405.068,-117.409 417.177,-112.798 426,-105 454.006,-80.249 433.594,-53.2902 462,-29 465.488,-26.0175 469.426,-23.5029 473.593,-21.383"/>
<polygon fill="midnightblue" stroke="midnightblue" points="475.189,-24.5064 482.996,-17.3437 472.427,-18.0747 475.189,-24.5064"/>
</g>
<!-- Node26 -->
<g id="node26" class="node"><title>Node26</title>
<g id="a_node26"><a xlink:href="$AP__Math_8cpp.html#a66b3a8191d62a34f4d673d5c62d8d1cf" xlink:title="wrap_PI\&lt; double \&gt;">
<polygon fill="white" stroke="black" points="478,-152.5 478,-171.5 577,-171.5 577,-152.5 478,-152.5"/>
<text text-anchor="middle" x="527.5" y="-159.5" font-family="Helvetica,sans-Serif" font-size="10.00">wrap_PI&lt; double &gt;</text>
</a>
</g>
</g>
<!-- Node17&#45;&gt;Node26 -->
<g id="edge29" class="edge"><title>Node17&#45;&gt;Node26</title>
<path fill="none" stroke="midnightblue" d="M394.237,-130.19C416.589,-135.566 449.588,-143.502 477.032,-150.103"/>
<polygon fill="midnightblue" stroke="midnightblue" points="476.321,-153.531 486.862,-152.467 477.957,-146.725 476.321,-153.531"/>
</g>
<!-- Node19 -->
<g id="node19" class="node"><title>Node19</title>
<g id="a_node19"><a xlink:href="$AP__Math_8cpp.html#a50a4ded454375642e1944882b01a1ae5" xlink:title="wrap_2PI\&lt; int \&gt;">
<polygon fill="white" stroke="black" points="638,-149.5 638,-168.5 724,-168.5 724,-149.5 638,-149.5"/>
<text text-anchor="middle" x="681" y="-156.5" font-family="Helvetica,sans-Serif" font-size="10.00">wrap_2PI&lt; int &gt;</text>
</a>
</g>
</g>
<!-- Node18&#45;&gt;Node19 -->
<g id="edge22" class="edge"><title>Node18&#45;&gt;Node19</title>
<path fill="none" stroke="midnightblue" d="M556.641,-130.501C576.947,-135.192 604.93,-141.657 629.111,-147.244"/>
<polygon fill="midnightblue" stroke="midnightblue" points="628.329,-150.655 638.86,-149.496 629.904,-143.834 628.329,-150.655"/>
</g>
<!-- Node20 -->
<g id="node20" class="node"><title>Node20</title>
<g id="a_node20"><a xlink:href="$AP__Math_8cpp.html#aaf8ce7d4f9e3837bdbd5aac6545b4000" xlink:title="wrap_2PI\&lt; short \&gt;">
<polygon fill="white" stroke="black" points="632,-111.5 632,-130.5 730,-130.5 730,-111.5 632,-111.5"/>
<text text-anchor="middle" x="681" y="-118.5" font-family="Helvetica,sans-Serif" font-size="10.00">wrap_2PI&lt; short &gt;</text>
</a>
</g>
</g>
<!-- Node18&#45;&gt;Node20 -->
<g id="edge23" class="edge"><title>Node18&#45;&gt;Node20</title>
<path fill="none" stroke="midnightblue" d="M556.641,-123.443C574.896,-123.081 599.354,-122.597 621.677,-122.155"/>
<polygon fill="midnightblue" stroke="midnightblue" points="621.825,-125.653 631.754,-121.955 621.686,-118.654 621.825,-125.653"/>
</g>
<!-- Node21 -->
<g id="node21" class="node"><title>Node21</title>
<g id="a_node21"><a xlink:href="$AP__Math_8cpp.html#a7182302503c136742396e3057b680dc7" xlink:title="wrap_2PI\&lt; float \&gt;">
<polygon fill="white" stroke="black" points="633.5,-73.5 633.5,-92.5 728.5,-92.5 728.5,-73.5 633.5,-73.5"/>
<text text-anchor="middle" x="681" y="-80.5" font-family="Helvetica,sans-Serif" font-size="10.00">wrap_2PI&lt; float &gt;</text>
</a>
</g>
</g>
<!-- Node18&#45;&gt;Node21 -->
<g id="edge24" class="edge"><title>Node18&#45;&gt;Node21</title>
<path fill="none" stroke="midnightblue" d="M556.641,-116.384C578.624,-110.435 609.604,-102.051 635.017,-95.1736"/>
<polygon fill="midnightblue" stroke="midnightblue" points="636.071,-98.5144 644.809,-92.5236 634.242,-91.7575 636.071,-98.5144"/>
</g>
<!-- Node22 -->
<g id="node22" class="node"><title>Node22</title>
<g id="a_node22"><a xlink:href="$AP__Math_8cpp.html#a0b4be48e39c65e97084146b9f1d22c00" xlink:title="wrap_2PI\&lt; double \&gt;">
<polygon fill="white" stroke="black" points="629,-187.5 629,-206.5 733,-206.5 733,-187.5 629,-187.5"/>
<text text-anchor="middle" x="681" y="-194.5" font-family="Helvetica,sans-Serif" font-size="10.00">wrap_2PI&lt; double &gt;</text>
</a>
</g>
</g>
<!-- Node18&#45;&gt;Node22 -->
<g id="edge25" class="edge"><title>Node18&#45;&gt;Node22</title>
<path fill="none" stroke="midnightblue" d="M556.69,-129.168C568.446,-132.102 581.913,-136.521 593,-143 612.266,-154.26 610.14,-166.071 629,-178 632.097,-179.959 635.426,-181.76 638.846,-183.407"/>
<polygon fill="midnightblue" stroke="midnightblue" points="637.447,-186.615 648.012,-187.406 640.246,-180.199 637.447,-186.615"/>
</g>
</g>
</svg>
