<?xml version="1.0" encoding="UTF-8" standalone="no"?>
<!DOCTYPE svg PUBLIC "-//W3C//DTD SVG 1.1//EN"
 "http://www.w3.org/Graphics/SVG/1.1/DTD/svg11.dtd">
<!-- Generated by graphviz version 2.38.0 (20140413.2041)
 -->
<!-- Title: AC_Circle::get_yaw Pages: 1 -->
<svg width="469pt" height="116pt"
 viewBox="0.00 0.00 469.00 115.50" xmlns="http://www.w3.org/2000/svg" xmlns:xlink="http://www.w3.org/1999/xlink">
<g id="graph0" class="graph" transform="scale(1 1) rotate(0) translate(4 111.5)">
<title>AC_Circle::get_yaw</title>
<polygon fill="white" stroke="none" points="-4,4 -4,-111.5 465,-111.5 465,4 -4,4"/>
<!-- Node1 -->
<g id="node1" class="node"><title>Node1</title>
<polygon fill="#bfbfbf" stroke="black" points="0,-38.5 0,-57.5 104,-57.5 104,-38.5 0,-38.5"/>
<text text-anchor="middle" x="52" y="-45.5" font-family="Helvetica,sans-Serif" font-size="10.00">AC_Circle::get_yaw</text>
</g>
<!-- Node2 -->
<g id="node2" class="node"><title>Node2</title>
<g id="a_node2"><a xlink:href="$classAC__Circle.html#a38bf294f2b0d22aa3a906cef5cfe3bb5" xlink:title="AC_Circle::get_closest\l_point_on_circle">
<polygon fill="white" stroke="black" points="140,-33 140,-63 258,-63 258,-33 140,-33"/>
<text text-anchor="start" x="148" y="-51" font-family="Helvetica,sans-Serif" font-size="10.00">AC_Circle::get_closest</text>
<text text-anchor="middle" x="199" y="-40" font-family="Helvetica,sans-Serif" font-size="10.00">_point_on_circle</text>
</a>
</g>
</g>
<!-- Node1&#45;&gt;Node2 -->
<g id="edge1" class="edge"><title>Node1&#45;&gt;Node2</title>
<path fill="none" stroke="midnightblue" d="M104.122,-48C112.443,-48 121.178,-48 129.83,-48"/>
<polygon fill="midnightblue" stroke="midnightblue" points="129.919,-51.5001 139.919,-48 129.919,-44.5001 129.919,-51.5001"/>
</g>
<!-- Node3 -->
<g id="node3" class="node"><title>Node3</title>
<g id="a_node3"><a xlink:href="$classAP__InertialNav.html#a39348dd51a8c32fe16d01dfef284e31a" xlink:title="AP_InertialNav::get\l_position">
<polygon fill="white" stroke="black" points="294,-77 294,-107 396,-107 396,-77 294,-77"/>
<text text-anchor="start" x="302" y="-95" font-family="Helvetica,sans-Serif" font-size="10.00">AP_InertialNav::get</text>
<text text-anchor="middle" x="345" y="-84" font-family="Helvetica,sans-Serif" font-size="10.00">_position</text>
</a>
</g>
</g>
<!-- Node2&#45;&gt;Node3 -->
<g id="edge2" class="edge"><title>Node2&#45;&gt;Node3</title>
<path fill="none" stroke="midnightblue" d="M249.154,-63.0192C260.611,-66.5202 272.93,-70.2842 284.772,-73.9027"/>
<polygon fill="midnightblue" stroke="midnightblue" points="283.992,-77.324 294.579,-76.8991 286.038,-70.6296 283.992,-77.324"/>
</g>
<!-- Node4 -->
<g id="node4" class="node"><title>Node4</title>
<g id="a_node4"><a xlink:href="$AP__Math_8h.html#adc76d4a5e5c9ae8cb7ab17b55c40d636" xlink:title="norm">
<polygon fill="white" stroke="black" points="326,-38.5 326,-57.5 364,-57.5 364,-38.5 326,-38.5"/>
<text text-anchor="middle" x="345" y="-45.5" font-family="Helvetica,sans-Serif" font-size="10.00">norm</text>
</a>
</g>
</g>
<!-- Node2&#45;&gt;Node4 -->
<g id="edge3" class="edge"><title>Node2&#45;&gt;Node4</title>
<path fill="none" stroke="midnightblue" d="M258.155,-48C278.005,-48 299.314,-48 315.735,-48"/>
<polygon fill="midnightblue" stroke="midnightblue" points="315.757,-51.5001 325.757,-48 315.757,-44.5001 315.757,-51.5001"/>
</g>
<!-- Node6 -->
<g id="node6" class="node"><title>Node6</title>
<g id="a_node6"><a xlink:href="$AP__Math_8h.html#a2a12cce483e9b870da70d30406d82c60" xlink:title="is_zero">
<polygon fill="white" stroke="black" points="321,-0.5 321,-19.5 369,-19.5 369,-0.5 321,-0.5"/>
<text text-anchor="middle" x="345" y="-7.5" font-family="Helvetica,sans-Serif" font-size="10.00">is_zero</text>
</a>
</g>
</g>
<!-- Node2&#45;&gt;Node6 -->
<g id="edge5" class="edge"><title>Node2&#45;&gt;Node6</title>
<path fill="none" stroke="midnightblue" d="M256.913,-32.9814C275.227,-28.1484 294.906,-22.9555 310.915,-18.7308"/>
<polygon fill="midnightblue" stroke="midnightblue" points="312.078,-22.0438 320.854,-16.108 310.292,-15.2755 312.078,-22.0438"/>
</g>
<!-- Node5 -->
<g id="node5" class="node"><title>Node5</title>
<g id="a_node5"><a xlink:href="$AP__Math_8h.html#a0375e3d67fd3911cacee5c3e1408c0f2" xlink:title="sq">
<polygon fill="white" stroke="black" points="432,-38.5 432,-57.5 461,-57.5 461,-38.5 432,-38.5"/>
<text text-anchor="middle" x="446.5" y="-45.5" font-family="Helvetica,sans-Serif" font-size="10.00">sq</text>
</a>
</g>
</g>
<!-- Node4&#45;&gt;Node5 -->
<g id="edge4" class="edge"><title>Node4&#45;&gt;Node5</title>
<path fill="none" stroke="midnightblue" d="M364.25,-48C380.418,-48 404.127,-48 421.765,-48"/>
<polygon fill="midnightblue" stroke="midnightblue" points="421.841,-51.5001 431.841,-48 421.841,-44.5001 421.841,-51.5001"/>
</g>
</g>
</svg>
