<?xml version="1.0" encoding="UTF-8" standalone="no"?>
<!DOCTYPE svg PUBLIC "-//W3C//DTD SVG 1.1//EN"
 "http://www.w3.org/Graphics/SVG/1.1/DTD/svg11.dtd">
<!-- Generated by graphviz version 2.38.0 (20140413.2041)
 -->
<!-- Title: AC_Fence::boundary_breached Pages: 1 -->
<svg width="1109pt" height="137pt"
 viewBox="0.00 0.00 1109.00 137.00" xmlns="http://www.w3.org/2000/svg" xmlns:xlink="http://www.w3.org/1999/xlink">
<g id="graph0" class="graph" transform="scale(1 1) rotate(0) translate(4 133)">
<title>AC_Fence::boundary_breached</title>
<polygon fill="white" stroke="none" points="-4,4 -4,-133 1105,-133 1105,4 -4,4"/>
<!-- Node1 -->
<g id="node1" class="node"><title>Node1</title>
<polygon fill="#bfbfbf" stroke="black" points="0,-24.5 0,-54.5 109,-54.5 109,-24.5 0,-24.5"/>
<text text-anchor="start" x="8" y="-42.5" font-family="Helvetica,sans-Serif" font-size="10.00">AC_Fence::boundary</text>
<text text-anchor="middle" x="54.5" y="-31.5" font-family="Helvetica,sans-Serif" font-size="10.00">_breached</text>
</g>
<!-- Node2 -->
<g id="node2" class="node"><title>Node2</title>
<g id="a_node2"><a xlink:href="$classAC__Avoid.html#a7e9a8c28e3f61c7e7ee3bf5afe986e4f" xlink:title="AC_Avoid::adjust_velocity\l_polygon">
<polygon fill="white" stroke="black" points="145,-49.5 145,-79.5 277,-79.5 277,-49.5 145,-49.5"/>
<text text-anchor="start" x="153" y="-67.5" font-family="Helvetica,sans-Serif" font-size="10.00">AC_Avoid::adjust_velocity</text>
<text text-anchor="middle" x="211" y="-56.5" font-family="Helvetica,sans-Serif" font-size="10.00">_polygon</text>
</a>
</g>
</g>
<!-- Node1&#45;&gt;Node2 -->
<g id="edge1" class="edge"><title>Node1&#45;&gt;Node2</title>
<path fill="none" stroke="midnightblue" d="M119.246,-49.8148C127.674,-51.1786 136.323,-52.5782 144.775,-53.9459"/>
<polygon fill="midnightblue" stroke="midnightblue" points="119.534,-46.316 109.103,-48.1736 118.416,-53.2261 119.534,-46.316"/>
</g>
<!-- Node11 -->
<g id="node11" class="node"><title>Node11</title>
<g id="a_node11"><a xlink:href="$classAC__Fence.html#ae37cf33a4fd250b66386253720fddbc9" xlink:title="set_home_distance &#45; update vehicle&#39;s distance from home in meters &#45; required for circular horizontal ...">
<polygon fill="white" stroke="black" points="155,-0.5 155,-30.5 267,-30.5 267,-0.5 155,-0.5"/>
<text text-anchor="start" x="163" y="-18.5" font-family="Helvetica,sans-Serif" font-size="10.00">AC_Fence::set_home</text>
<text text-anchor="middle" x="211" y="-7.5" font-family="Helvetica,sans-Serif" font-size="10.00">_distance</text>
</a>
</g>
</g>
<!-- Node1&#45;&gt;Node11 -->
<g id="edge12" class="edge"><title>Node1&#45;&gt;Node11</title>
<path fill="none" stroke="midnightblue" d="M118.985,-29.6383C130.906,-27.7865 143.279,-25.8644 154.919,-24.0563"/>
<polygon fill="midnightblue" stroke="midnightblue" points="118.447,-26.1797 109.103,-31.1733 119.522,-33.0968 118.447,-26.1797"/>
</g>
<!-- Node3 -->
<g id="node3" class="node"><title>Node3</title>
<g id="a_node3"><a xlink:href="$classAC__Avoid.html#acda5962c20c1d4c06eb2137c092e9569" xlink:title="AC_Avoid::adjust_velocity\l_beacon_fence">
<polygon fill="white" stroke="black" points="313,-98.5 313,-128.5 445,-128.5 445,-98.5 313,-98.5"/>
<text text-anchor="start" x="321" y="-116.5" font-family="Helvetica,sans-Serif" font-size="10.00">AC_Avoid::adjust_velocity</text>
<text text-anchor="middle" x="379" y="-105.5" font-family="Helvetica,sans-Serif" font-size="10.00">_beacon_fence</text>
</a>
</g>
</g>
<!-- Node2&#45;&gt;Node3 -->
<g id="edge2" class="edge"><title>Node2&#45;&gt;Node3</title>
<path fill="none" stroke="midnightblue" d="M272.868,-82.467C290.654,-87.717 309.902,-93.3989 327.009,-98.4484"/>
<polygon fill="midnightblue" stroke="midnightblue" points="273.742,-79.0757 263.16,-79.6014 271.76,-85.7894 273.742,-79.0757"/>
</g>
<!-- Node9 -->
<g id="node9" class="node"><title>Node9</title>
<g id="a_node9"><a xlink:href="$classAC__Avoid.html#ac02a966259c9abb5ca2e5e4ee8e72d91" xlink:title="AC_Avoid::adjust_velocity\l_polygon_fence">
<polygon fill="white" stroke="black" points="313,-49.5 313,-79.5 445,-79.5 445,-49.5 313,-49.5"/>
<text text-anchor="start" x="321" y="-67.5" font-family="Helvetica,sans-Serif" font-size="10.00">AC_Avoid::adjust_velocity</text>
<text text-anchor="middle" x="379" y="-56.5" font-family="Helvetica,sans-Serif" font-size="10.00">_polygon_fence</text>
</a>
</g>
</g>
<!-- Node2&#45;&gt;Node9 -->
<g id="edge8" class="edge"><title>Node2&#45;&gt;Node9</title>
<path fill="none" stroke="midnightblue" d="M287.393,-64.5C295.869,-64.5 304.452,-64.5 312.784,-64.5"/>
<polygon fill="midnightblue" stroke="midnightblue" points="287.131,-61.0001 277.131,-64.5 287.131,-68.0001 287.131,-61.0001"/>
</g>
<!-- Node10 -->
<g id="node10" class="node"><title>Node10</title>
<g id="a_node10"><a xlink:href="$classAC__Avoid.html#aac95ba12099c07f5b9c6bfd5f7cee4b2" xlink:title="AC_Avoid::adjust_velocity\l_proximity">
<polygon fill="white" stroke="black" points="313,-0.5 313,-30.5 445,-30.5 445,-0.5 313,-0.5"/>
<text text-anchor="start" x="321" y="-18.5" font-family="Helvetica,sans-Serif" font-size="10.00">AC_Avoid::adjust_velocity</text>
<text text-anchor="middle" x="379" y="-7.5" font-family="Helvetica,sans-Serif" font-size="10.00">_proximity</text>
</a>
</g>
</g>
<!-- Node2&#45;&gt;Node10 -->
<g id="edge10" class="edge"><title>Node2&#45;&gt;Node10</title>
<path fill="none" stroke="midnightblue" d="M272.868,-46.533C290.654,-41.283 309.902,-35.6011 327.009,-30.5516"/>
<polygon fill="midnightblue" stroke="midnightblue" points="271.76,-43.2106 263.16,-49.3986 273.742,-49.9243 271.76,-43.2106"/>
</g>
<!-- Node4 -->
<g id="node4" class="node"><title>Node4</title>
<g id="a_node4"><a xlink:href="$classAC__Avoid.html#abee541d127ce0da1fe6be54f987a0779" xlink:title="AC_Avoid::adjust_velocity">
<polygon fill="white" stroke="black" points="481,-55 481,-74 613,-74 613,-55 481,-55"/>
<text text-anchor="middle" x="547" y="-62" font-family="Helvetica,sans-Serif" font-size="10.00">AC_Avoid::adjust_velocity</text>
</a>
</g>
</g>
<!-- Node3&#45;&gt;Node4 -->
<g id="edge3" class="edge"><title>Node3&#45;&gt;Node4</title>
<path fill="none" stroke="midnightblue" d="M440.798,-95.5536C465.431,-88.2825 492.879,-80.1803 513.561,-74.0754"/>
<polygon fill="midnightblue" stroke="midnightblue" points="439.76,-92.2106 431.16,-98.3986 441.742,-98.9243 439.76,-92.2106"/>
</g>
<!-- Node5 -->
<g id="node5" class="node"><title>Node5</title>
<g id="a_node5"><a xlink:href="$classAC__Avoid.html#a95e227fdefd6f8c85b4d4888cad8993f" xlink:title="AC_Avoid::adjust_velocity">
<polygon fill="white" stroke="black" points="649,-77 649,-96 781,-96 781,-77 649,-77"/>
<text text-anchor="middle" x="715" y="-84" font-family="Helvetica,sans-Serif" font-size="10.00">AC_Avoid::adjust_velocity</text>
</a>
</g>
</g>
<!-- Node4&#45;&gt;Node5 -->
<g id="edge4" class="edge"><title>Node4&#45;&gt;Node5</title>
<path fill="none" stroke="midnightblue" d="M623.114,-74.4548C631.681,-75.5902 640.361,-76.7406 648.784,-77.8569"/>
<polygon fill="midnightblue" stroke="midnightblue" points="623.504,-70.9761 613.131,-73.1318 622.585,-77.9154 623.504,-70.9761"/>
</g>
<!-- Node6 -->
<g id="node6" class="node"><title>Node6</title>
<g id="a_node6"><a xlink:href="$classAC__WPNav.html#a3dbf7bda89b127cdc81bca29e2af25de" xlink:title="AC_WPNav::calc_loiter\l_desired_velocity">
<polygon fill="white" stroke="black" points="654.5,-27.5 654.5,-57.5 775.5,-57.5 775.5,-27.5 654.5,-27.5"/>
<text text-anchor="start" x="662.5" y="-45.5" font-family="Helvetica,sans-Serif" font-size="10.00">AC_WPNav::calc_loiter</text>
<text text-anchor="middle" x="715" y="-34.5" font-family="Helvetica,sans-Serif" font-size="10.00">_desired_velocity</text>
</a>
</g>
</g>
<!-- Node4&#45;&gt;Node6 -->
<g id="edge5" class="edge"><title>Node4&#45;&gt;Node6</title>
<path fill="none" stroke="midnightblue" d="M623.127,-54.5434C633.63,-53.1515 644.303,-51.737 654.464,-50.3903"/>
<polygon fill="midnightblue" stroke="midnightblue" points="622.585,-51.0846 613.131,-55.8682 623.504,-58.0239 622.585,-51.0846"/>
</g>
<!-- Node7 -->
<g id="node7" class="node"><title>Node7</title>
<g id="a_node7"><a xlink:href="$classAC__WPNav.html#a0a434270245fd8641352af387700dc82" xlink:title="update_loiter &#45; run the loiter controller &#45; should be called at 10hz ">
<polygon fill="white" stroke="black" points="817,-33 817,-52 949,-52 949,-33 817,-33"/>
<text text-anchor="middle" x="883" y="-40" font-family="Helvetica,sans-Serif" font-size="10.00">AC_WPNav::update_loiter</text>
</a>
</g>
</g>
<!-- Node6&#45;&gt;Node7 -->
<g id="edge6" class="edge"><title>Node6&#45;&gt;Node7</title>
<path fill="none" stroke="midnightblue" d="M786.027,-42.5C796.237,-42.5 806.716,-42.5 816.824,-42.5"/>
<polygon fill="midnightblue" stroke="midnightblue" points="785.93,-39.0001 775.93,-42.5 785.93,-46.0001 785.93,-39.0001"/>
</g>
<!-- Node8 -->
<g id="node8" class="node"><title>Node8</title>
<g id="a_node8"><a xlink:href="$classAC__WPNav.html#ae34a88192799de8f2b96c8cd295bb971" xlink:title="get_loiter_target &#45; returns loiter target position ">
<polygon fill="white" stroke="black" points="985,-27.5 985,-57.5 1101,-57.5 1101,-27.5 985,-27.5"/>
<text text-anchor="start" x="993" y="-45.5" font-family="Helvetica,sans-Serif" font-size="10.00">AC_WPNav::get_loiter</text>
<text text-anchor="middle" x="1043" y="-34.5" font-family="Helvetica,sans-Serif" font-size="10.00">_target</text>
</a>
</g>
</g>
<!-- Node7&#45;&gt;Node8 -->
<g id="edge7" class="edge"><title>Node7&#45;&gt;Node8</title>
<path fill="none" stroke="midnightblue" d="M959.429,-42.5C967.877,-42.5 976.38,-42.5 984.55,-42.5"/>
<polygon fill="midnightblue" stroke="midnightblue" points="959.177,-39.0001 949.177,-42.5 959.177,-46.0001 959.177,-39.0001"/>
</g>
<!-- Node9&#45;&gt;Node4 -->
<g id="edge9" class="edge"><title>Node9&#45;&gt;Node4</title>
<path fill="none" stroke="midnightblue" d="M455.393,-64.5C463.869,-64.5 472.452,-64.5 480.784,-64.5"/>
<polygon fill="midnightblue" stroke="midnightblue" points="455.131,-61.0001 445.131,-64.5 455.131,-68.0001 455.131,-61.0001"/>
</g>
<!-- Node10&#45;&gt;Node4 -->
<g id="edge11" class="edge"><title>Node10&#45;&gt;Node4</title>
<path fill="none" stroke="midnightblue" d="M440.798,-33.4464C465.431,-40.7175 492.879,-48.8197 513.561,-54.9246"/>
<polygon fill="midnightblue" stroke="midnightblue" points="441.742,-30.0757 431.16,-30.6014 439.76,-36.7894 441.742,-30.0757"/>
</g>
</g>
</svg>
