<?xml version="1.0" encoding="UTF-8" standalone="no"?>
<!DOCTYPE svg PUBLIC "-//W3C//DTD SVG 1.1//EN"
 "http://www.w3.org/Graphics/SVG/1.1/DTD/svg11.dtd">
<!-- Generated by graphviz version 2.38.0 (20140413.2041)
 -->
<!-- Title: AC_AttitudeControl_Multi::set_throttle_out Pages: 1 -->
<svg width="729pt" height="361pt"
 viewBox="0.00 0.00 729.00 360.50" xmlns="http://www.w3.org/2000/svg" xmlns:xlink="http://www.w3.org/1999/xlink">
<g id="graph0" class="graph" transform="scale(1 1) rotate(0) translate(4 356.5)">
<title>AC_AttitudeControl_Multi::set_throttle_out</title>
<polygon fill="white" stroke="none" points="-4,4 -4,-356.5 725,-356.5 725,4 -4,4"/>
<!-- Node1 -->
<g id="node1" class="node"><title>Node1</title>
<polygon fill="#bfbfbf" stroke="black" points="0,-132 0,-162 116,-162 116,-132 0,-132"/>
<text text-anchor="start" x="8" y="-150" font-family="Helvetica,sans-Serif" font-size="10.00">AC_AttitudeControl</text>
<text text-anchor="middle" x="58" y="-139" font-family="Helvetica,sans-Serif" font-size="10.00">_Multi::set_throttle_out</text>
</g>
<!-- Node2 -->
<g id="node2" class="node"><title>Node2</title>
<g id="a_node2"><a xlink:href="$classAC__AttitudeControl__Multi.html#a76e4a41ae16398361dd688f5ff2d24d9" xlink:title="AC_AttitudeControl\l_Multi::update_althold\l_lean_angle_max">
<polygon fill="white" stroke="black" points="156,-294.5 156,-335.5 268,-335.5 268,-294.5 156,-294.5"/>
<text text-anchor="start" x="164" y="-323.5" font-family="Helvetica,sans-Serif" font-size="10.00">AC_AttitudeControl</text>
<text text-anchor="start" x="164" y="-312.5" font-family="Helvetica,sans-Serif" font-size="10.00">_Multi::update_althold</text>
<text text-anchor="middle" x="212" y="-301.5" font-family="Helvetica,sans-Serif" font-size="10.00">_lean_angle_max</text>
</a>
</g>
</g>
<!-- Node1&#45;&gt;Node2 -->
<g id="edge1" class="edge"><title>Node1&#45;&gt;Node2</title>
<path fill="none" stroke="midnightblue" d="M65.9474,-162.102C79.2398,-189.618 110.663,-248.444 152,-285 153.332,-286.178 154.718,-287.322 156.147,-288.434"/>
<polygon fill="midnightblue" stroke="midnightblue" points="154.523,-291.57 164.723,-294.436 158.537,-285.835 154.523,-291.57"/>
</g>
<!-- Node11 -->
<g id="node11" class="node"><title>Node11</title>
<g id="a_node11"><a xlink:href="$classAP__Motors.html#a663672b4ada40c46d343e3f62b51b820" xlink:title="AP_Motors::set_throttle\l_filter_cutoff">
<polygon fill="white" stroke="black" points="152,-39 152,-69 272,-69 272,-39 152,-39"/>
<text text-anchor="start" x="160" y="-57" font-family="Helvetica,sans-Serif" font-size="10.00">AP_Motors::set_throttle</text>
<text text-anchor="middle" x="212" y="-46" font-family="Helvetica,sans-Serif" font-size="10.00">_filter_cutoff</text>
</a>
</g>
</g>
<!-- Node1&#45;&gt;Node11 -->
<g id="edge10" class="edge"><title>Node1&#45;&gt;Node11</title>
<path fill="none" stroke="midnightblue" d="M79.5691,-131.973C98.1005,-118.701 126.3,-99.1587 152,-84 157.919,-80.5091 164.291,-77.0122 170.583,-73.7026"/>
<polygon fill="midnightblue" stroke="midnightblue" points="172.398,-76.7047 179.681,-69.0101 169.189,-70.4835 172.398,-76.7047"/>
</g>
<!-- Node13 -->
<g id="node13" class="node"><title>Node13</title>
<g id="a_node13"><a xlink:href="$classAC__AttitudeControl__Multi.html#a8bb395d4d5530877eb298b6f5aea8678" xlink:title="AC_AttitudeControl\l_Multi::get_throttle\l_boosted">
<polygon fill="white" stroke="black" points="161.5,-234.5 161.5,-275.5 262.5,-275.5 262.5,-234.5 161.5,-234.5"/>
<text text-anchor="start" x="169.5" y="-263.5" font-family="Helvetica,sans-Serif" font-size="10.00">AC_AttitudeControl</text>
<text text-anchor="start" x="169.5" y="-252.5" font-family="Helvetica,sans-Serif" font-size="10.00">_Multi::get_throttle</text>
<text text-anchor="middle" x="212" y="-241.5" font-family="Helvetica,sans-Serif" font-size="10.00">_boosted</text>
</a>
</g>
</g>
<!-- Node1&#45;&gt;Node13 -->
<g id="edge12" class="edge"><title>Node1&#45;&gt;Node13</title>
<path fill="none" stroke="midnightblue" d="M74.9046,-162.292C92.7455,-178.965 122.995,-205.824 152,-225 154.181,-226.442 156.44,-227.864 158.746,-229.259"/>
<polygon fill="midnightblue" stroke="midnightblue" points="157.399,-232.523 167.81,-234.488 160.897,-226.459 157.399,-232.523"/>
</g>
<!-- Node14 -->
<g id="node14" class="node"><title>Node14</title>
<g id="a_node14"><a xlink:href="$classAP__Motors.html#a56d079ad89f5a4d2cacf014c8958a527" xlink:title="AP_Motors::set_throttle">
<polygon fill="white" stroke="black" points="152,-0.5 152,-19.5 272,-19.5 272,-0.5 152,-0.5"/>
<text text-anchor="middle" x="212" y="-7.5" font-family="Helvetica,sans-Serif" font-size="10.00">AP_Motors::set_throttle</text>
</a>
</g>
</g>
<!-- Node1&#45;&gt;Node14 -->
<g id="edge14" class="edge"><title>Node1&#45;&gt;Node14</title>
<path fill="none" stroke="midnightblue" d="M66.8977,-131.971C80.7865,-106.971 111.949,-56.8402 152,-29 154.87,-27.0048 157.962,-25.21 161.173,-23.5969"/>
<polygon fill="midnightblue" stroke="midnightblue" points="162.708,-26.7457 170.453,-19.5163 159.89,-20.3378 162.708,-26.7457"/>
</g>
<!-- Node15 -->
<g id="node15" class="node"><title>Node15</title>
<g id="a_node15"><a xlink:href="$classAP__Motors.html#a8f1c08d3e3ec39c1ce43a30f8045770c" xlink:title="AP_Motors::set_throttle\l_avg_max">
<polygon fill="white" stroke="black" points="152,-186 152,-216 272,-216 272,-186 152,-186"/>
<text text-anchor="start" x="160" y="-204" font-family="Helvetica,sans-Serif" font-size="10.00">AP_Motors::set_throttle</text>
<text text-anchor="middle" x="212" y="-193" font-family="Helvetica,sans-Serif" font-size="10.00">_avg_max</text>
</a>
</g>
</g>
<!-- Node1&#45;&gt;Node15 -->
<g id="edge15" class="edge"><title>Node1&#45;&gt;Node15</title>
<path fill="none" stroke="midnightblue" d="M101.34,-162.042C119.219,-168.393 140.211,-175.851 159.016,-182.532"/>
<polygon fill="midnightblue" stroke="midnightblue" points="158.029,-185.895 168.623,-185.945 160.372,-179.299 158.029,-185.895"/>
</g>
<!-- Node16 -->
<g id="node16" class="node"><title>Node16</title>
<g id="a_node16"><a xlink:href="$classAC__AttitudeControl__Multi.html#a1f410bd94a6fc051eaa26f70c6168b86" xlink:title="AC_AttitudeControl\l_Multi::get_throttle\l_avg_max">
<polygon fill="white" stroke="black" points="161.5,-126.5 161.5,-167.5 262.5,-167.5 262.5,-126.5 161.5,-126.5"/>
<text text-anchor="start" x="169.5" y="-155.5" font-family="Helvetica,sans-Serif" font-size="10.00">AC_AttitudeControl</text>
<text text-anchor="start" x="169.5" y="-144.5" font-family="Helvetica,sans-Serif" font-size="10.00">_Multi::get_throttle</text>
<text text-anchor="middle" x="212" y="-133.5" font-family="Helvetica,sans-Serif" font-size="10.00">_avg_max</text>
</a>
</g>
</g>
<!-- Node1&#45;&gt;Node16 -->
<g id="edge17" class="edge"><title>Node1&#45;&gt;Node16</title>
<path fill="none" stroke="midnightblue" d="M116.032,-147C127.383,-147 139.337,-147 150.791,-147"/>
<polygon fill="midnightblue" stroke="midnightblue" points="151.137,-150.5 161.137,-147 151.137,-143.5 151.137,-150.5"/>
</g>
<!-- Node17 -->
<g id="node17" class="node"><title>Node17</title>
<g id="a_node17"><a xlink:href="$AP__Math_8h.html#a5c0b5c82749ac54970b2699d3c10ee9b" xlink:title="MAX">
<polygon fill="white" stroke="black" points="351.5,-90.5 351.5,-109.5 389.5,-109.5 389.5,-90.5 351.5,-90.5"/>
<text text-anchor="middle" x="370.5" y="-97.5" font-family="Helvetica,sans-Serif" font-size="10.00">MAX</text>
</a>
</g>
</g>
<!-- Node1&#45;&gt;Node17 -->
<g id="edge21" class="edge"><title>Node1&#45;&gt;Node17</title>
<path fill="none" stroke="midnightblue" d="M98.7422,-131.917C115.023,-126.336 134.191,-120.518 152,-117 218.855,-103.794 299.171,-100.754 341.004,-100.113"/>
<polygon fill="midnightblue" stroke="midnightblue" points="341.301,-103.61 351.259,-99.993 341.219,-96.6102 341.301,-103.61"/>
</g>
<!-- Node3 -->
<g id="node3" class="node"><title>Node3</title>
<g id="a_node3"><a xlink:href="$classAP__MotorsMulticopter.html#ade105370d07830c76c62cc26d6f7cbaf" xlink:title="AP_MotorsMulticopter\l::get_throttle_thrust_max">
<polygon fill="white" stroke="black" points="308,-322 308,-352 433,-352 433,-322 308,-322"/>
<text text-anchor="start" x="316" y="-340" font-family="Helvetica,sans-Serif" font-size="10.00">AP_MotorsMulticopter</text>
<text text-anchor="middle" x="370.5" y="-329" font-family="Helvetica,sans-Serif" font-size="10.00">::get_throttle_thrust_max</text>
</a>
</g>
</g>
<!-- Node2&#45;&gt;Node3 -->
<g id="edge2" class="edge"><title>Node2&#45;&gt;Node3</title>
<path fill="none" stroke="midnightblue" d="M268.176,-322.756C277.812,-324.111 287.961,-325.538 297.963,-326.944"/>
<polygon fill="midnightblue" stroke="midnightblue" points="297.501,-330.413 307.891,-328.339 298.476,-323.481 297.501,-330.413"/>
</g>
<!-- Node4 -->
<g id="node4" class="node"><title>Node4</title>
<g id="a_node4"><a xlink:href="$AP__Math_8h.html#a2a12cce483e9b870da70d30406d82c60" xlink:title="is_zero">
<polygon fill="white" stroke="black" points="346.5,-283.5 346.5,-302.5 394.5,-302.5 394.5,-283.5 346.5,-283.5"/>
<text text-anchor="middle" x="370.5" y="-290.5" font-family="Helvetica,sans-Serif" font-size="10.00">is_zero</text>
</a>
</g>
</g>
<!-- Node2&#45;&gt;Node4 -->
<g id="edge3" class="edge"><title>Node2&#45;&gt;Node4</title>
<path fill="none" stroke="midnightblue" d="M268.176,-307.244C290.853,-304.056 316.37,-300.469 336.123,-297.692"/>
<polygon fill="midnightblue" stroke="midnightblue" points="336.75,-301.138 346.165,-296.28 335.776,-294.206 336.75,-301.138"/>
</g>
<!-- Node5 -->
<g id="node5" class="node"><title>Node5</title>
<g id="a_node5"><a xlink:href="$AP__Math_8h.html#ad525609d9dba6ffa556a0fbf08a3f9b4" xlink:title="constrain_float">
<polygon fill="white" stroke="black" points="330.5,-218.5 330.5,-237.5 410.5,-237.5 410.5,-218.5 330.5,-218.5"/>
<text text-anchor="middle" x="370.5" y="-225.5" font-family="Helvetica,sans-Serif" font-size="10.00">constrain_float</text>
</a>
</g>
</g>
<!-- Node2&#45;&gt;Node5 -->
<g id="edge4" class="edge"><title>Node2&#45;&gt;Node5</title>
<path fill="none" stroke="midnightblue" d="M254.106,-294.489C260.137,-291.367 266.251,-288.139 272,-285 297.257,-271.211 325.598,-254.499 345.187,-242.747"/>
<polygon fill="midnightblue" stroke="midnightblue" points="347.027,-245.725 353.788,-237.568 343.416,-239.728 347.027,-245.725"/>
</g>
<!-- Node6 -->
<g id="node6" class="node"><title>Node6</title>
<g id="a_node6"><a xlink:href="$AP__Math_8h.html#a20e8f8671c282c69c1954652b6d61585" xlink:title="constrain_value">
<polygon fill="white" stroke="black" points="469,-218.5 469,-237.5 554,-237.5 554,-218.5 469,-218.5"/>
<text text-anchor="middle" x="511.5" y="-225.5" font-family="Helvetica,sans-Serif" font-size="10.00">constrain_value</text>
</a>
</g>
</g>
<!-- Node5&#45;&gt;Node6 -->
<g id="edge5" class="edge"><title>Node5&#45;&gt;Node6</title>
<path fill="none" stroke="midnightblue" d="M410.589,-228C425.476,-228 442.681,-228 458.574,-228"/>
<polygon fill="midnightblue" stroke="midnightblue" points="458.791,-231.5 468.791,-228 458.791,-224.5 458.791,-231.5"/>
</g>
<!-- Node7 -->
<g id="node7" class="node"><title>Node7</title>
<g id="a_node7"><a xlink:href="$AP__Math_8cpp.html#a37e8e901754cb9c8e53a8e3030c82c50" xlink:title="constrain_value\&lt; int \&gt;">
<polygon fill="white" stroke="black" points="599,-275.5 599,-294.5 712,-294.5 712,-275.5 599,-275.5"/>
<text text-anchor="middle" x="655.5" y="-282.5" font-family="Helvetica,sans-Serif" font-size="10.00">constrain_value&lt; int &gt;</text>
</a>
</g>
</g>
<!-- Node6&#45;&gt;Node7 -->
<g id="edge6" class="edge"><title>Node6&#45;&gt;Node7</title>
<path fill="none" stroke="midnightblue" d="M529.97,-237.628C545.432,-245.891 568.774,-257.738 590,-266 595.854,-268.278 602.097,-270.439 608.307,-272.429"/>
<polygon fill="midnightblue" stroke="midnightblue" points="607.389,-275.809 617.977,-275.411 609.452,-269.12 607.389,-275.809"/>
</g>
<!-- Node8 -->
<g id="node8" class="node"><title>Node8</title>
<g id="a_node8"><a xlink:href="$AP__Math_8cpp.html#afdbe107ec1987d318a6347816fbf2b89" xlink:title="constrain_value\&lt; short \&gt;">
<polygon fill="white" stroke="black" points="593,-237.5 593,-256.5 718,-256.5 718,-237.5 593,-237.5"/>
<text text-anchor="middle" x="655.5" y="-244.5" font-family="Helvetica,sans-Serif" font-size="10.00">constrain_value&lt; short &gt;</text>
</a>
</g>
</g>
<!-- Node6&#45;&gt;Node8 -->
<g id="edge7" class="edge"><title>Node6&#45;&gt;Node8</title>
<path fill="none" stroke="midnightblue" d="M554.337,-233.598C563.323,-234.8 573.064,-236.104 582.821,-237.409"/>
<polygon fill="midnightblue" stroke="midnightblue" points="582.589,-240.909 592.965,-238.766 583.518,-233.971 582.589,-240.909"/>
</g>
<!-- Node9 -->
<g id="node9" class="node"><title>Node9</title>
<g id="a_node9"><a xlink:href="$AP__Math_8cpp.html#ae6c621670c214da687de21d4e3a92587" xlink:title="constrain_value\&lt; float \&gt;">
<polygon fill="white" stroke="black" points="594.5,-199.5 594.5,-218.5 716.5,-218.5 716.5,-199.5 594.5,-199.5"/>
<text text-anchor="middle" x="655.5" y="-206.5" font-family="Helvetica,sans-Serif" font-size="10.00">constrain_value&lt; float &gt;</text>
</a>
</g>
</g>
<!-- Node6&#45;&gt;Node9 -->
<g id="edge8" class="edge"><title>Node6&#45;&gt;Node9</title>
<path fill="none" stroke="midnightblue" d="M554.337,-222.402C563.724,-221.146 573.935,-219.78 584.129,-218.416"/>
<polygon fill="midnightblue" stroke="midnightblue" points="584.838,-221.852 594.286,-217.057 583.91,-214.914 584.838,-221.852"/>
</g>
<!-- Node10 -->
<g id="node10" class="node"><title>Node10</title>
<g id="a_node10"><a xlink:href="$AP__Math_8cpp.html#afe3990b00e9abc43fa97dfaf8e32f5c4" xlink:title="constrain_value\&lt; double \&gt;">
<polygon fill="white" stroke="black" points="590,-161.5 590,-180.5 721,-180.5 721,-161.5 590,-161.5"/>
<text text-anchor="middle" x="655.5" y="-168.5" font-family="Helvetica,sans-Serif" font-size="10.00">constrain_value&lt; double &gt;</text>
</a>
</g>
</g>
<!-- Node6&#45;&gt;Node10 -->
<g id="edge9" class="edge"><title>Node6&#45;&gt;Node10</title>
<path fill="none" stroke="midnightblue" d="M529.97,-218.372C545.432,-210.109 568.774,-198.262 590,-190 595.854,-187.722 602.097,-185.561 608.307,-183.571"/>
<polygon fill="midnightblue" stroke="midnightblue" points="609.452,-186.88 617.977,-180.589 607.389,-180.191 609.452,-186.88"/>
</g>
<!-- Node12 -->
<g id="node12" class="node"><title>Node12</title>
<g id="a_node12"><a xlink:href="$classLowPassFilter.html#a1cc5016de137b01080fa0a6fa7fe53cd" xlink:title="LowPassFilter::set\l_cutoff_frequency">
<polygon fill="white" stroke="black" points="321.5,-39 321.5,-69 419.5,-69 419.5,-39 321.5,-39"/>
<text text-anchor="start" x="329.5" y="-57" font-family="Helvetica,sans-Serif" font-size="10.00">LowPassFilter::set</text>
<text text-anchor="middle" x="370.5" y="-46" font-family="Helvetica,sans-Serif" font-size="10.00">_cutoff_frequency</text>
</a>
</g>
</g>
<!-- Node11&#45;&gt;Node12 -->
<g id="edge11" class="edge"><title>Node11&#45;&gt;Node12</title>
<path fill="none" stroke="midnightblue" d="M272.166,-54C285.006,-54 298.577,-54 311.377,-54"/>
<polygon fill="midnightblue" stroke="midnightblue" points="311.448,-57.5001 321.448,-54 311.448,-50.5001 311.448,-57.5001"/>
</g>
<!-- Node13&#45;&gt;Node5 -->
<g id="edge13" class="edge"><title>Node13&#45;&gt;Node5</title>
<path fill="none" stroke="midnightblue" d="M262.518,-246.457C281.029,-243.263 302.032,-239.64 320.497,-236.454"/>
<polygon fill="midnightblue" stroke="midnightblue" points="321.203,-239.884 330.463,-234.735 320.013,-232.986 321.203,-239.884"/>
</g>
<!-- Node15&#45;&gt;Node5 -->
<g id="edge16" class="edge"><title>Node15&#45;&gt;Node5</title>
<path fill="none" stroke="midnightblue" d="M272.166,-211.208C287.92,-213.925 304.772,-216.833 319.952,-219.452"/>
<polygon fill="midnightblue" stroke="midnightblue" points="319.71,-222.962 330.16,-221.213 320.901,-216.064 319.71,-222.962"/>
</g>
<!-- Node16&#45;&gt;Node5 -->
<g id="edge18" class="edge"><title>Node16&#45;&gt;Node5</title>
<path fill="none" stroke="midnightblue" d="M255.304,-167.583C260.933,-170.383 266.616,-173.242 272,-176 296.211,-188.402 323.514,-203.019 343.056,-213.592"/>
<polygon fill="midnightblue" stroke="midnightblue" points="341.519,-216.74 351.978,-218.43 344.856,-210.586 341.519,-216.74"/>
</g>
<!-- Node16&#45;&gt;Node17 -->
<g id="edge19" class="edge"><title>Node16&#45;&gt;Node17</title>
<path fill="none" stroke="midnightblue" d="M262.518,-132.129C288.647,-124.282 319.741,-114.944 341.654,-108.363"/>
<polygon fill="midnightblue" stroke="midnightblue" points="342.747,-111.689 351.318,-105.46 340.734,-104.985 342.747,-111.689"/>
</g>
<!-- Node18 -->
<g id="node18" class="node"><title>Node18</title>
<g id="a_node18"><a xlink:href="$classAP__Motors.html#a6641c5398dea1388547dff3db5d95a86" xlink:title="AP_Motors::get_throttle\l_hover">
<polygon fill="white" stroke="black" points="310.5,-132 310.5,-162 430.5,-162 430.5,-132 310.5,-132"/>
<text text-anchor="start" x="318.5" y="-150" font-family="Helvetica,sans-Serif" font-size="10.00">AP_Motors::get_throttle</text>
<text text-anchor="middle" x="370.5" y="-139" font-family="Helvetica,sans-Serif" font-size="10.00">_hover</text>
</a>
</g>
</g>
<!-- Node16&#45;&gt;Node18 -->
<g id="edge20" class="edge"><title>Node16&#45;&gt;Node18</title>
<path fill="none" stroke="midnightblue" d="M262.518,-147C274.53,-147 287.591,-147 300.327,-147"/>
<polygon fill="midnightblue" stroke="midnightblue" points="300.446,-150.5 310.446,-147 300.446,-143.5 300.446,-150.5"/>
</g>
</g>
</svg>
