<?xml version="1.0" encoding="UTF-8" standalone="no"?>
<!DOCTYPE svg PUBLIC "-//W3C//DTD SVG 1.1//EN"
 "http://www.w3.org/Graphics/SVG/1.1/DTD/svg11.dtd">
<!-- Generated by graphviz version 2.38.0 (20140413.2041)
 -->
<!-- Title: AC_Avoid::adjust_velocity_z Pages: 1 -->
<svg width="789pt" height="438pt"
 viewBox="0.00 0.00 789.00 438.00" xmlns="http://www.w3.org/2000/svg" xmlns:xlink="http://www.w3.org/1999/xlink">
<g id="graph0" class="graph" transform="scale(1 1) rotate(0) translate(4 434)">
<title>AC_Avoid::adjust_velocity_z</title>
<polygon fill="white" stroke="none" points="-4,4 -4,-434 785,-434 785,4 -4,4"/>
<!-- Node1 -->
<g id="node1" class="node"><title>Node1</title>
<polygon fill="#bfbfbf" stroke="black" points="0,-262.5 0,-281.5 143,-281.5 143,-262.5 0,-262.5"/>
<text text-anchor="middle" x="71.5" y="-269.5" font-family="Helvetica,sans-Serif" font-size="10.00">AC_Avoid::adjust_velocity_z</text>
</g>
<!-- Node2 -->
<g id="node2" class="node"><title>Node2</title>
<g id="a_node2"><a xlink:href="$AP__Math_8h.html#a6b187a3fa1e9f663e89175e7e8e213d6" xlink:title="MIN">
<polygon fill="white" stroke="black" points="240,-410.5 240,-429.5 275,-429.5 275,-410.5 240,-410.5"/>
<text text-anchor="middle" x="257.5" y="-417.5" font-family="Helvetica,sans-Serif" font-size="10.00">MIN</text>
</a>
</g>
</g>
<!-- Node1&#45;&gt;Node2 -->
<g id="edge1" class="edge"><title>Node1&#45;&gt;Node2</title>
<path fill="none" stroke="midnightblue" d="M77.4924,-281.551C90.6155,-305.667 128.575,-369.348 179,-401 194.253,-410.574 214,-415.324 229.743,-417.681"/>
<polygon fill="midnightblue" stroke="midnightblue" points="229.54,-421.183 239.899,-418.96 230.414,-414.238 229.54,-421.183"/>
</g>
<!-- Node3 -->
<g id="node3" class="node"><title>Node3</title>
<g id="a_node3"><a xlink:href="$classAC__Fence.html#a233d3a13b201e30c21c6d319f73d1ab2" xlink:title="get_enabled_fences &#45; returns bitmask of enabled fences ">
<polygon fill="white" stroke="black" points="196.5,-361 196.5,-391 318.5,-391 318.5,-361 196.5,-361"/>
<text text-anchor="start" x="204.5" y="-379" font-family="Helvetica,sans-Serif" font-size="10.00">AC_Fence::get_enabled</text>
<text text-anchor="middle" x="257.5" y="-368" font-family="Helvetica,sans-Serif" font-size="10.00">_fences</text>
</a>
</g>
</g>
<!-- Node1&#45;&gt;Node3 -->
<g id="edge2" class="edge"><title>Node1&#45;&gt;Node3</title>
<path fill="none" stroke="midnightblue" d="M84.3523,-281.656C103.402,-296.84 142.414,-326.566 179,-346 186.51,-349.989 194.669,-353.731 202.781,-357.129"/>
<polygon fill="midnightblue" stroke="midnightblue" points="201.658,-360.45 212.241,-360.954 204.282,-353.961 201.658,-360.45"/>
</g>
<!-- Node4 -->
<g id="node4" class="node"><title>Node4</title>
<g id="a_node4"><a xlink:href="$classAC__Avoid.html#a7b4eabb1f4554b35d7831957adc4b83d" xlink:title="AC_Avoid::get_alt_above_home">
<polygon fill="white" stroke="black" points="179,-284.5 179,-303.5 336,-303.5 336,-284.5 179,-284.5"/>
<text text-anchor="middle" x="257.5" y="-291.5" font-family="Helvetica,sans-Serif" font-size="10.00">AC_Avoid::get_alt_above_home</text>
</a>
</g>
</g>
<!-- Node1&#45;&gt;Node4 -->
<g id="edge3" class="edge"><title>Node1&#45;&gt;Node4</title>
<path fill="none" stroke="midnightblue" d="M143.113,-280.443C151.49,-281.444 160.117,-282.476 168.696,-283.502"/>
<polygon fill="midnightblue" stroke="midnightblue" points="168.381,-286.989 178.726,-284.701 169.212,-280.038 168.381,-286.989"/>
</g>
<!-- Node5 -->
<g id="node5" class="node"><title>Node5</title>
<g id="a_node5"><a xlink:href="$classAP__InertialNav.html#ac47da3c171cdcaabb4bc3a2749762461" xlink:title="AP_InertialNav::get\l_altitude">
<polygon fill="white" stroke="black" points="381,-322 381,-352 483,-352 483,-322 381,-322"/>
<text text-anchor="start" x="389" y="-340" font-family="Helvetica,sans-Serif" font-size="10.00">AP_InertialNav::get</text>
<text text-anchor="middle" x="432" y="-329" font-family="Helvetica,sans-Serif" font-size="10.00">_altitude</text>
</a>
</g>
</g>
<!-- Node1&#45;&gt;Node5 -->
<g id="edge10" class="edge"><title>Node1&#45;&gt;Node5</title>
<path fill="none" stroke="midnightblue" d="M92.3955,-281.549C113.409,-291.18 147.758,-305.645 179,-313 243.234,-328.123 318.812,-333.762 370.329,-335.84"/>
<polygon fill="midnightblue" stroke="midnightblue" points="370.499,-339.349 380.622,-336.221 370.758,-332.353 370.499,-339.349"/>
</g>
<!-- Node9 -->
<g id="node9" class="node"><title>Node9</title>
<g id="a_node9"><a xlink:href="$classAC__Fence.html#af20fc3ad151c7652b02d64fdbd7a9579" xlink:title="get_safe_alt &#45; returns maximum safe altitude (i.e. alt_max &#45; margin) ">
<polygon fill="white" stroke="black" points="204,-235 204,-265 311,-265 311,-235 204,-235"/>
<text text-anchor="start" x="212" y="-253" font-family="Helvetica,sans-Serif" font-size="10.00">AC_Fence::get_safe</text>
<text text-anchor="middle" x="257.5" y="-242" font-family="Helvetica,sans-Serif" font-size="10.00">_alt_max</text>
</a>
</g>
</g>
<!-- Node1&#45;&gt;Node9 -->
<g id="edge8" class="edge"><title>Node1&#45;&gt;Node9</title>
<path fill="none" stroke="midnightblue" d="M143.113,-263.557C159.814,-261.56 177.511,-259.444 193.833,-257.493"/>
<polygon fill="midnightblue" stroke="midnightblue" points="194.282,-260.964 203.796,-256.302 193.451,-254.014 194.282,-260.964"/>
</g>
<!-- Node10 -->
<g id="node10" class="node"><title>Node10</title>
<g id="a_node10"><a xlink:href="$classAP__InertialNav.html#a4c82c7226d9d14c063d6295ade5a9985" xlink:title="AP_InertialNav::get\l_hgt_ctrl_limit">
<polygon fill="white" stroke="black" points="206.5,-186 206.5,-216 308.5,-216 308.5,-186 206.5,-186"/>
<text text-anchor="start" x="214.5" y="-204" font-family="Helvetica,sans-Serif" font-size="10.00">AP_InertialNav::get</text>
<text text-anchor="middle" x="257.5" y="-193" font-family="Helvetica,sans-Serif" font-size="10.00">_hgt_ctrl_limit</text>
</a>
</g>
</g>
<!-- Node1&#45;&gt;Node10 -->
<g id="edge9" class="edge"><title>Node1&#45;&gt;Node10</title>
<path fill="none" stroke="midnightblue" d="M93.0753,-262.415C114.352,-252.669 148.651,-237.419 179,-226 184.992,-223.746 191.288,-221.506 197.595,-219.348"/>
<polygon fill="midnightblue" stroke="midnightblue" points="199.105,-222.533 207.47,-216.031 196.876,-215.897 199.105,-222.533"/>
</g>
<!-- Node11 -->
<g id="node11" class="node"><title>Node11</title>
<g id="a_node11"><a xlink:href="$classAP__Proximity.html#a2a4515207f1459801ab4d10ad040dbf0" xlink:title="AP_Proximity::get_upward\l_distance">
<polygon fill="white" stroke="black" points="191,-137 191,-167 324,-167 324,-137 191,-137"/>
<text text-anchor="start" x="199" y="-155" font-family="Helvetica,sans-Serif" font-size="10.00">AP_Proximity::get_upward</text>
<text text-anchor="middle" x="257.5" y="-144" font-family="Helvetica,sans-Serif" font-size="10.00">_distance</text>
</a>
</g>
</g>
<!-- Node1&#45;&gt;Node11 -->
<g id="edge11" class="edge"><title>Node1&#45;&gt;Node11</title>
<path fill="none" stroke="midnightblue" d="M80.5711,-262.332C97.0972,-243.134 136.802,-199.99 179,-176 182.187,-174.188 185.528,-172.496 188.958,-170.919"/>
<polygon fill="midnightblue" stroke="midnightblue" points="190.354,-174.128 198.2,-167.008 187.626,-167.682 190.354,-174.128"/>
</g>
<!-- Node13 -->
<g id="node13" class="node"><title>Node13</title>
<g id="a_node13"><a xlink:href="$classAC__Avoid.html#a2ba87fd18a092d9f11ba197255064d16" xlink:title="AC_Avoid::get_max_speed">
<polygon fill="white" stroke="black" points="189.5,-96.5 189.5,-115.5 325.5,-115.5 325.5,-96.5 189.5,-96.5"/>
<text text-anchor="middle" x="257.5" y="-103.5" font-family="Helvetica,sans-Serif" font-size="10.00">AC_Avoid::get_max_speed</text>
</a>
</g>
</g>
<!-- Node1&#45;&gt;Node13 -->
<g id="edge13" class="edge"><title>Node1&#45;&gt;Node13</title>
<path fill="none" stroke="midnightblue" d="M76.6769,-262.493C88.5991,-236.498 125.415,-163.735 179,-127 183.274,-124.07 187.941,-121.548 192.796,-119.378"/>
<polygon fill="midnightblue" stroke="midnightblue" points="194.295,-122.549 202.312,-115.622 191.725,-116.038 194.295,-122.549"/>
</g>
<!-- Node4&#45;&gt;Node5 -->
<g id="edge4" class="edge"><title>Node4&#45;&gt;Node5</title>
<path fill="none" stroke="midnightblue" d="M296.783,-303.543C318.506,-308.958 346.18,-315.856 370.749,-321.981"/>
<polygon fill="midnightblue" stroke="midnightblue" points="370.154,-325.44 380.704,-324.462 371.847,-318.648 370.154,-325.44"/>
</g>
<!-- Node6 -->
<g id="node6" class="node"><title>Node6</title>
<g id="a_node6"><a xlink:href="$classAP__InertialNav.html#a0400fb5866678c5657542a4c2769839b" xlink:title="AP_InertialNav::get\l_origin">
<polygon fill="white" stroke="black" points="381,-273 381,-303 483,-303 483,-273 381,-273"/>
<text text-anchor="start" x="389" y="-291" font-family="Helvetica,sans-Serif" font-size="10.00">AP_InertialNav::get</text>
<text text-anchor="middle" x="432" y="-280" font-family="Helvetica,sans-Serif" font-size="10.00">_origin</text>
</a>
</g>
</g>
<!-- Node4&#45;&gt;Node6 -->
<g id="edge5" class="edge"><title>Node4&#45;&gt;Node6</title>
<path fill="none" stroke="midnightblue" d="M336.171,-291.298C347.811,-290.894 359.66,-290.481 370.861,-290.092"/>
<polygon fill="midnightblue" stroke="midnightblue" points="371.069,-293.587 380.941,-289.741 370.825,-286.591 371.069,-293.587"/>
</g>
<!-- Node7 -->
<g id="node7" class="node"><title>Node7</title>
<g id="a_node7"><a xlink:href="$classAP__AHRS.html#aea45b16e6469a3b392b8bf52fb864732" xlink:title="AP_AHRS::get_home">
<polygon fill="white" stroke="black" points="375.5,-234.5 375.5,-253.5 488.5,-253.5 488.5,-234.5 375.5,-234.5"/>
<text text-anchor="middle" x="432" y="-241.5" font-family="Helvetica,sans-Serif" font-size="10.00">AP_AHRS::get_home</text>
</a>
</g>
</g>
<!-- Node4&#45;&gt;Node7 -->
<g id="edge6" class="edge"><title>Node4&#45;&gt;Node7</title>
<path fill="none" stroke="midnightblue" d="M300.079,-284.415C311.747,-281.56 324.41,-278.307 336,-275 346.923,-271.884 371.527,-263.845 392.959,-256.734"/>
<polygon fill="midnightblue" stroke="midnightblue" points="394.138,-260.031 402.522,-253.554 391.928,-253.388 394.138,-260.031"/>
</g>
<!-- Node8 -->
<g id="node8" class="node"><title>Node8</title>
<g id="a_node8"><a xlink:href="$classAP__AHRS.html#a702b6313fff141dced78533a4d258ab0" xlink:title="AP_AHRS::set_home">
<polygon fill="white" stroke="black" points="528,-234.5 528,-253.5 641,-253.5 641,-234.5 528,-234.5"/>
<text text-anchor="middle" x="584.5" y="-241.5" font-family="Helvetica,sans-Serif" font-size="10.00">AP_AHRS::set_home</text>
</a>
</g>
</g>
<!-- Node7&#45;&gt;Node8 -->
<g id="edge7" class="edge"><title>Node7&#45;&gt;Node8</title>
<path fill="none" stroke="midnightblue" d="M488.613,-244C498.121,-244 508.08,-244 517.82,-244"/>
<polygon fill="midnightblue" stroke="midnightblue" points="517.864,-247.5 527.864,-244 517.864,-240.5 517.864,-247.5"/>
</g>
<!-- Node12 -->
<g id="node12" class="node"><title>Node12</title>
<g id="a_node12"><a xlink:href="$classAP__Proximity__Backend.html#a4ad630b571d0f9ad52ab307ea8cbcebb" xlink:title="AP_Proximity_Backend\l::get_upward_distance">
<polygon fill="white" stroke="black" points="372,-139 372,-169 492,-169 492,-139 372,-139"/>
<text text-anchor="start" x="380" y="-157" font-family="Helvetica,sans-Serif" font-size="10.00">AP_Proximity_Backend</text>
<text text-anchor="middle" x="432" y="-146" font-family="Helvetica,sans-Serif" font-size="10.00">::get_upward_distance</text>
</a>
</g>
</g>
<!-- Node11&#45;&gt;Node12 -->
<g id="edge12" class="edge"><title>Node11&#45;&gt;Node12</title>
<path fill="none" stroke="midnightblue" d="M324.207,-152.762C336.48,-152.904 349.343,-153.053 361.72,-153.197"/>
<polygon fill="midnightblue" stroke="midnightblue" points="361.939,-156.699 371.979,-153.316 362.021,-149.7 361.939,-156.699"/>
</g>
<!-- Node14 -->
<g id="node14" class="node"><title>Node14</title>
<g id="a_node14"><a xlink:href="$classAC__AttitudeControl.html#a1788967db1aa0dfe68fad24da23947f9" xlink:title="AC_AttitudeControl\l::sqrt_controller">
<polygon fill="white" stroke="black" points="381.5,-90 381.5,-120 482.5,-120 482.5,-90 381.5,-90"/>
<text text-anchor="start" x="389.5" y="-108" font-family="Helvetica,sans-Serif" font-size="10.00">AC_AttitudeControl</text>
<text text-anchor="middle" x="432" y="-97" font-family="Helvetica,sans-Serif" font-size="10.00">::sqrt_controller</text>
</a>
</g>
</g>
<!-- Node13&#45;&gt;Node14 -->
<g id="edge14" class="edge"><title>Node13&#45;&gt;Node14</title>
<path fill="none" stroke="midnightblue" d="M325.687,-105.611C340.607,-105.524 356.328,-105.433 370.942,-105.348"/>
<polygon fill="midnightblue" stroke="midnightblue" points="371.379,-108.846 381.359,-105.288 371.339,-101.846 371.379,-108.846"/>
</g>
<!-- Node15 -->
<g id="node15" class="node"><title>Node15</title>
<g id="a_node15"><a xlink:href="$AP__Math_8h.html#a2a12cce483e9b870da70d30406d82c60" xlink:title="is_zero">
<polygon fill="white" stroke="black" points="560.5,-133.5 560.5,-152.5 608.5,-152.5 608.5,-133.5 560.5,-133.5"/>
<text text-anchor="middle" x="584.5" y="-140.5" font-family="Helvetica,sans-Serif" font-size="10.00">is_zero</text>
</a>
</g>
</g>
<!-- Node14&#45;&gt;Node15 -->
<g id="edge15" class="edge"><title>Node14&#45;&gt;Node15</title>
<path fill="none" stroke="midnightblue" d="M482.696,-117.548C505.007,-123.181 530.718,-129.673 550.59,-134.69"/>
<polygon fill="midnightblue" stroke="midnightblue" points="549.848,-138.113 560.4,-137.168 551.561,-131.326 549.848,-138.113"/>
</g>
<!-- Node16 -->
<g id="node16" class="node"><title>Node16</title>
<g id="a_node16"><a xlink:href="$AP__Math_8h.html#a0375e3d67fd3911cacee5c3e1408c0f2" xlink:title="sq">
<polygon fill="white" stroke="black" points="570,-95.5 570,-114.5 599,-114.5 599,-95.5 570,-95.5"/>
<text text-anchor="middle" x="584.5" y="-102.5" font-family="Helvetica,sans-Serif" font-size="10.00">sq</text>
</a>
</g>
</g>
<!-- Node14&#45;&gt;Node16 -->
<g id="edge16" class="edge"><title>Node14&#45;&gt;Node16</title>
<path fill="none" stroke="midnightblue" d="M482.696,-105C508.679,-105 539.273,-105 559.885,-105"/>
<polygon fill="midnightblue" stroke="midnightblue" points="559.946,-108.5 569.946,-105 559.946,-101.5 559.946,-108.5"/>
</g>
<!-- Node17 -->
<g id="node17" class="node"><title>Node17</title>
<g id="a_node17"><a xlink:href="$AP__Math_8cpp.html#ac89eb1832d8e4d67fcf1ac07e3c25184" xlink:title="safe_sqrt">
<polygon fill="white" stroke="black" points="556,-57.5 556,-76.5 613,-76.5 613,-57.5 556,-57.5"/>
<text text-anchor="middle" x="584.5" y="-64.5" font-family="Helvetica,sans-Serif" font-size="10.00">safe_sqrt</text>
</a>
</g>
</g>
<!-- Node14&#45;&gt;Node17 -->
<g id="edge17" class="edge"><title>Node14&#45;&gt;Node17</title>
<path fill="none" stroke="midnightblue" d="M482.696,-92.4521C503.308,-87.2478 526.822,-81.3107 545.953,-76.4804"/>
<polygon fill="midnightblue" stroke="midnightblue" points="546.961,-79.8357 555.8,-73.994 545.248,-73.0487 546.961,-79.8357"/>
</g>
<!-- Node18 -->
<g id="node18" class="node"><title>Node18</title>
<g id="a_node18"><a xlink:href="$AP__Math_8cpp.html#aa5cb9421d48def32eb7574adb1b152b0" xlink:title="safe_sqrt\&lt; int \&gt;">
<polygon fill="white" stroke="black" points="686,-114.5 686,-133.5 772,-133.5 772,-114.5 686,-114.5"/>
<text text-anchor="middle" x="729" y="-121.5" font-family="Helvetica,sans-Serif" font-size="10.00">safe_sqrt&lt; int &gt;</text>
</a>
</g>
</g>
<!-- Node17&#45;&gt;Node18 -->
<g id="edge18" class="edge"><title>Node17&#45;&gt;Node18</title>
<path fill="none" stroke="midnightblue" d="M613.205,-75.5402C622.185,-78.558 632.118,-82.1635 641,-86 657.609,-93.1738 660.489,-97.6044 677,-105 681.454,-106.995 686.188,-108.959 690.906,-110.822"/>
<polygon fill="midnightblue" stroke="midnightblue" points="689.885,-114.179 700.475,-114.485 692.387,-107.642 689.885,-114.179"/>
</g>
<!-- Node19 -->
<g id="node19" class="node"><title>Node19</title>
<g id="a_node19"><a xlink:href="$AP__Math_8cpp.html#a6952300e3d03222491051d674312b67d" xlink:title="safe_sqrt\&lt; short \&gt;">
<polygon fill="white" stroke="black" points="680.5,-76.5 680.5,-95.5 777.5,-95.5 777.5,-76.5 680.5,-76.5"/>
<text text-anchor="middle" x="729" y="-83.5" font-family="Helvetica,sans-Serif" font-size="10.00">safe_sqrt&lt; short &gt;</text>
</a>
</g>
</g>
<!-- Node17&#45;&gt;Node19 -->
<g id="edge19" class="edge"><title>Node17&#45;&gt;Node19</title>
<path fill="none" stroke="midnightblue" d="M613.314,-70.7085C629.522,-72.8697 650.581,-75.6775 670.222,-78.2963"/>
<polygon fill="midnightblue" stroke="midnightblue" points="669.956,-81.7916 680.331,-79.6441 670.881,-74.8531 669.956,-81.7916"/>
</g>
<!-- Node20 -->
<g id="node20" class="node"><title>Node20</title>
<g id="a_node20"><a xlink:href="$AP__Math_8cpp.html#a40ae6cfccff676d9d2ff57e2e9ca549c" xlink:title="safe_sqrt\&lt; float \&gt;">
<polygon fill="white" stroke="black" points="682,-38.5 682,-57.5 776,-57.5 776,-38.5 682,-38.5"/>
<text text-anchor="middle" x="729" y="-45.5" font-family="Helvetica,sans-Serif" font-size="10.00">safe_sqrt&lt; float &gt;</text>
</a>
</g>
</g>
<!-- Node17&#45;&gt;Node20 -->
<g id="edge20" class="edge"><title>Node17&#45;&gt;Node20</title>
<path fill="none" stroke="midnightblue" d="M613.314,-63.2915C629.943,-61.0742 651.678,-58.1763 671.749,-55.5002"/>
<polygon fill="midnightblue" stroke="midnightblue" points="672.297,-58.9581 681.747,-54.1671 671.372,-52.0195 672.297,-58.9581"/>
</g>
<!-- Node21 -->
<g id="node21" class="node"><title>Node21</title>
<g id="a_node21"><a xlink:href="$AP__Math_8cpp.html#acf6795fb73b8b915b53126f71cd2712a" xlink:title="safe_sqrt\&lt; double \&gt;">
<polygon fill="white" stroke="black" points="677,-0.5 677,-19.5 781,-19.5 781,-0.5 677,-0.5"/>
<text text-anchor="middle" x="729" y="-7.5" font-family="Helvetica,sans-Serif" font-size="10.00">safe_sqrt&lt; double &gt;</text>
</a>
</g>
</g>
<!-- Node17&#45;&gt;Node21 -->
<g id="edge21" class="edge"><title>Node17&#45;&gt;Node21</title>
<path fill="none" stroke="midnightblue" d="M607.967,-57.397C626.432,-49.5705 653.313,-38.3272 677,-29 681.875,-27.0803 687.031,-25.1007 692.118,-23.1773"/>
<polygon fill="midnightblue" stroke="midnightblue" points="693.586,-26.365 701.722,-19.5783 691.13,-19.8101 693.586,-26.365"/>
</g>
</g>
</svg>
