<?xml version="1.0" encoding="UTF-8" standalone="no"?>
<!DOCTYPE svg PUBLIC "-//W3C//DTD SVG 1.1//EN"
 "http://www.w3.org/Graphics/SVG/1.1/DTD/svg11.dtd">
<!-- Generated by graphviz version 2.38.0 (20140413.2041)
 -->
<!-- Title: AC_PI_2D::set_input Pages: 1 -->
<svg width="689pt" height="316pt"
 viewBox="0.00 0.00 689.00 316.00" xmlns="http://www.w3.org/2000/svg" xmlns:xlink="http://www.w3.org/1999/xlink">
<g id="graph0" class="graph" transform="scale(1 1) rotate(0) translate(4 312)">
<title>AC_PI_2D::set_input</title>
<polygon fill="white" stroke="none" points="-4,4 -4,-312 685,-312 685,4 -4,4"/>
<!-- Node1 -->
<g id="node1" class="node"><title>Node1</title>
<polygon fill="#bfbfbf" stroke="black" points="0,-152.5 0,-171.5 110,-171.5 110,-152.5 0,-152.5"/>
<text text-anchor="middle" x="55" y="-159.5" font-family="Helvetica,sans-Serif" font-size="10.00">AC_PI_2D::set_input</text>
</g>
<!-- Node1&#45;&gt;Node1 -->
<g id="edge1" class="edge"><title>Node1&#45;&gt;Node1</title>
<path fill="none" stroke="midnightblue" d="M31.8806,-171.757C20.6334,-180.565 28.3398,-190 55,-190 72.4957,-190 81.8288,-185.937 82.9991,-180.654"/>
<polygon fill="midnightblue" stroke="midnightblue" points="85.9971,-178.842 78.1194,-171.757 79.8597,-182.208 85.9971,-178.842"/>
</g>
<!-- Node2 -->
<g id="node2" class="node"><title>Node2</title>
<g id="a_node2"><a xlink:href="$classAC__PI__2D.html#aca9b20442f46d13eff1ad8e1824c0067" xlink:title="AC_PI_2D::get_pi">
<polygon fill="white" stroke="black" points="157.5,-228.5 157.5,-247.5 253.5,-247.5 253.5,-228.5 157.5,-228.5"/>
<text text-anchor="middle" x="205.5" y="-235.5" font-family="Helvetica,sans-Serif" font-size="10.00">AC_PI_2D::get_pi</text>
</a>
</g>
</g>
<!-- Node1&#45;&gt;Node2 -->
<g id="edge2" class="edge"><title>Node1&#45;&gt;Node2</title>
<path fill="none" stroke="midnightblue" d="M71.2624,-171.667C88.8931,-182.632 118.951,-200.713 146,-214 153.565,-217.716 161.855,-221.362 169.754,-224.646"/>
<polygon fill="midnightblue" stroke="midnightblue" points="168.538,-227.93 179.12,-228.452 171.173,-221.445 168.538,-227.93"/>
</g>
<!-- Node3 -->
<g id="node3" class="node"><title>Node3</title>
<g id="a_node3"><a xlink:href="$classAC__PI__2D.html#aa8564949b84f613cad26c7b9f557bb3e" xlink:title="AC_PI_2D::get_p">
<polygon fill="white" stroke="black" points="315,-250.5 315,-269.5 409,-269.5 409,-250.5 315,-250.5"/>
<text text-anchor="middle" x="362" y="-257.5" font-family="Helvetica,sans-Serif" font-size="10.00">AC_PI_2D::get_p</text>
</a>
</g>
</g>
<!-- Node1&#45;&gt;Node3 -->
<g id="edge9" class="edge"><title>Node1&#45;&gt;Node3</title>
<path fill="none" stroke="midnightblue" d="M61.4217,-171.638C73.4935,-191.986 104.802,-238.938 146,-257 196.273,-279.041 259.728,-276.751 304.635,-270.81"/>
<polygon fill="midnightblue" stroke="midnightblue" points="305.37,-274.24 314.777,-269.364 304.383,-267.31 305.37,-274.24"/>
</g>
<!-- Node4 -->
<g id="node4" class="node"><title>Node4</title>
<g id="a_node4"><a xlink:href="$classAC__PI__2D.html#af464bd8936fccc9a0b11ab183e9ca384" xlink:title="AC_PI_2D::get_i">
<polygon fill="white" stroke="black" points="316.5,-212.5 316.5,-231.5 407.5,-231.5 407.5,-212.5 316.5,-212.5"/>
<text text-anchor="middle" x="362" y="-219.5" font-family="Helvetica,sans-Serif" font-size="10.00">AC_PI_2D::get_i</text>
</a>
</g>
</g>
<!-- Node1&#45;&gt;Node4 -->
<g id="edge10" class="edge"><title>Node1&#45;&gt;Node4</title>
<path fill="none" stroke="midnightblue" d="M100.368,-171.547C114.898,-174.625 131.126,-178.012 146,-181 200.494,-191.947 262.907,-203.77 306.398,-211.893"/>
<polygon fill="midnightblue" stroke="midnightblue" points="306.007,-215.381 316.479,-213.774 307.29,-208.499 306.007,-215.381"/>
</g>
<!-- Node9 -->
<g id="node9" class="node"><title>Node9</title>
<g id="a_node9"><a xlink:href="$classAC__PI__2D.html#ae8bc307e280fa7d11b67742491223fb1" xlink:title="AC_PI_2D::get_i_shrink">
<polygon fill="white" stroke="black" points="301,-288.5 301,-307.5 423,-307.5 423,-288.5 301,-288.5"/>
<text text-anchor="middle" x="362" y="-295.5" font-family="Helvetica,sans-Serif" font-size="10.00">AC_PI_2D::get_i_shrink</text>
</a>
</g>
</g>
<!-- Node1&#45;&gt;Node9 -->
<g id="edge11" class="edge"><title>Node1&#45;&gt;Node9</title>
<path fill="none" stroke="midnightblue" d="M60.1102,-171.752C70.5212,-195.073 100.386,-253.985 146,-279 189.893,-303.071 246.525,-307.194 290.648,-305.632"/>
<polygon fill="midnightblue" stroke="midnightblue" points="290.889,-309.125 300.719,-305.171 290.569,-302.132 290.889,-309.125"/>
</g>
<!-- Node11 -->
<g id="node11" class="node"><title>Node11</title>
<g id="a_node11"><a xlink:href="$classAC__PI__2D.html#a79b0a3e6c7983d886d523906cd26a511" xlink:title="AC_PI_2D::reset_I">
<polygon fill="white" stroke="black" points="155.5,-76.5 155.5,-95.5 255.5,-95.5 255.5,-76.5 155.5,-76.5"/>
<text text-anchor="middle" x="205.5" y="-83.5" font-family="Helvetica,sans-Serif" font-size="10.00">AC_PI_2D::reset_I</text>
</a>
</g>
</g>
<!-- Node1&#45;&gt;Node11 -->
<g id="edge15" class="edge"><title>Node1&#45;&gt;Node11</title>
<path fill="none" stroke="midnightblue" d="M68.8216,-152.415C85.7636,-140.101 116.874,-118.687 146,-105 150.653,-102.814 155.624,-100.778 160.63,-98.9128"/>
<polygon fill="midnightblue" stroke="midnightblue" points="161.949,-102.159 170.224,-95.5431 159.629,-95.5547 161.949,-102.159"/>
</g>
<!-- Node13 -->
<g id="node13" class="node"><title>Node13</title>
<g id="a_node13"><a xlink:href="$classAC__PI__2D.html#adbf72faf520658d15b71ada36e176ef1" xlink:title="AC_PI_2D::reset_filter">
<polygon fill="white" stroke="black" points="147.5,-38.5 147.5,-57.5 263.5,-57.5 263.5,-38.5 147.5,-38.5"/>
<text text-anchor="middle" x="205.5" y="-45.5" font-family="Helvetica,sans-Serif" font-size="10.00">AC_PI_2D::reset_filter</text>
</a>
</g>
</g>
<!-- Node1&#45;&gt;Node13 -->
<g id="edge17" class="edge"><title>Node1&#45;&gt;Node13</title>
<path fill="none" stroke="midnightblue" d="M62.5142,-152.418C75.9289,-133.393 108.541,-90.6539 146,-67 149.308,-64.911 152.868,-63.0307 156.539,-61.3422"/>
<polygon fill="midnightblue" stroke="midnightblue" points="157.896,-64.5686 165.816,-57.5306 155.236,-58.0939 157.896,-64.5686"/>
</g>
<!-- Node14 -->
<g id="node14" class="node"><title>Node14</title>
<g id="a_node14"><a xlink:href="$classAC__PI__2D.html#ad0f558dbeb7217747bd8b72f8a4af60a" xlink:title="AC_PI_2D::load_gains">
<polygon fill="white" stroke="black" points="147.5,-152.5 147.5,-171.5 263.5,-171.5 263.5,-152.5 147.5,-152.5"/>
<text text-anchor="middle" x="205.5" y="-159.5" font-family="Helvetica,sans-Serif" font-size="10.00">AC_PI_2D::load_gains</text>
</a>
</g>
</g>
<!-- Node1&#45;&gt;Node14 -->
<g id="edge18" class="edge"><title>Node1&#45;&gt;Node14</title>
<path fill="none" stroke="midnightblue" d="M110.032,-162C118.829,-162 128.036,-162 137.105,-162"/>
<polygon fill="midnightblue" stroke="midnightblue" points="137.257,-165.5 147.257,-162 137.257,-158.5 137.257,-165.5"/>
</g>
<!-- Node16 -->
<g id="node16" class="node"><title>Node16</title>
<g id="a_node16"><a xlink:href="$classAC__PI__2D.html#ae3a206bce6d42169087b806b36398e92" xlink:title="AC_PI_2D::save_gains">
<polygon fill="white" stroke="black" points="146,-0.5 146,-19.5 265,-19.5 265,-0.5 146,-0.5"/>
<text text-anchor="middle" x="205.5" y="-7.5" font-family="Helvetica,sans-Serif" font-size="10.00">AC_PI_2D::save_gains</text>
</a>
</g>
</g>
<!-- Node1&#45;&gt;Node16 -->
<g id="edge21" class="edge"><title>Node1&#45;&gt;Node16</title>
<path fill="none" stroke="midnightblue" d="M59.8545,-152.359C70.0895,-127.976 100.327,-63.3593 146,-29 148.48,-27.1343 151.151,-25.4474 153.937,-23.9226"/>
<polygon fill="midnightblue" stroke="midnightblue" points="155.586,-27.0151 163.138,-19.5847 152.6,-20.6835 155.586,-27.0151"/>
</g>
<!-- Node17 -->
<g id="node17" class="node"><title>Node17</title>
<g id="a_node17"><a xlink:href="$classAC__PI__2D.html#a919de52cd70a73f42e030f913ba064c1" xlink:title="operator function call for easy initialisation ">
<polygon fill="white" stroke="black" points="150,-114.5 150,-133.5 261,-133.5 261,-114.5 150,-114.5"/>
<text text-anchor="middle" x="205.5" y="-121.5" font-family="Helvetica,sans-Serif" font-size="10.00">AC_PI_2D::operator()</text>
</a>
</g>
</g>
<!-- Node1&#45;&gt;Node17 -->
<g id="edge22" class="edge"><title>Node1&#45;&gt;Node17</title>
<path fill="none" stroke="midnightblue" d="M93.4728,-152.411C112.892,-147.442 136.802,-141.323 157.454,-136.039"/>
<polygon fill="midnightblue" stroke="midnightblue" points="158.476,-139.39 167.297,-133.52 156.741,-132.608 158.476,-139.39"/>
</g>
<!-- Node2&#45;&gt;Node3 -->
<g id="edge3" class="edge"><title>Node2&#45;&gt;Node3</title>
<path fill="none" stroke="midnightblue" d="M253.695,-244.72C269.789,-247.012 287.945,-249.597 304.683,-251.981"/>
<polygon fill="midnightblue" stroke="midnightblue" points="304.497,-255.489 314.89,-253.434 305.483,-248.559 304.497,-255.489"/>
</g>
<!-- Node2&#45;&gt;Node4 -->
<g id="edge4" class="edge"><title>Node2&#45;&gt;Node4</title>
<path fill="none" stroke="midnightblue" d="M253.695,-233.113C270.23,-231.4 288.941,-229.462 306.055,-227.69"/>
<polygon fill="midnightblue" stroke="midnightblue" points="306.885,-231.123 316.471,-226.611 306.164,-224.16 306.885,-231.123"/>
</g>
<!-- Node5 -->
<g id="node5" class="node"><title>Node5</title>
<g id="a_node5"><a xlink:href="$AP__Math_8h.html#a2a12cce483e9b870da70d30406d82c60" xlink:title="is_zero">
<polygon fill="white" stroke="black" points="476.5,-212.5 476.5,-231.5 524.5,-231.5 524.5,-212.5 476.5,-212.5"/>
<text text-anchor="middle" x="500.5" y="-219.5" font-family="Helvetica,sans-Serif" font-size="10.00">is_zero</text>
</a>
</g>
</g>
<!-- Node4&#45;&gt;Node5 -->
<g id="edge5" class="edge"><title>Node4&#45;&gt;Node5</title>
<path fill="none" stroke="midnightblue" d="M407.695,-222C426.625,-222 448.311,-222 465.852,-222"/>
<polygon fill="midnightblue" stroke="midnightblue" points="466.175,-225.5 476.175,-222 466.175,-218.5 466.175,-225.5"/>
</g>
<!-- Node6 -->
<g id="node6" class="node"><title>Node6</title>
<g id="a_node6"><a xlink:href="$structVector2.html#ad8ebafde96f43521d3647e2552387529" xlink:title="Vector2::length">
<polygon fill="white" stroke="black" points="459,-250.5 459,-269.5 542,-269.5 542,-250.5 459,-250.5"/>
<text text-anchor="middle" x="500.5" y="-257.5" font-family="Helvetica,sans-Serif" font-size="10.00">Vector2::length</text>
</a>
</g>
</g>
<!-- Node4&#45;&gt;Node6 -->
<g id="edge6" class="edge"><title>Node4&#45;&gt;Node6</title>
<path fill="none" stroke="midnightblue" d="M397.445,-231.589C414.985,-236.472 436.51,-242.464 455.263,-247.685"/>
<polygon fill="midnightblue" stroke="midnightblue" points="454.494,-251.104 465.066,-250.414 456.371,-244.36 454.494,-251.104"/>
</g>
<!-- Node7 -->
<g id="node7" class="node"><title>Node7</title>
<g id="a_node7"><a xlink:href="$AP__Math_8h.html#adc76d4a5e5c9ae8cb7ab17b55c40d636" xlink:title="norm">
<polygon fill="white" stroke="black" points="578,-250.5 578,-269.5 616,-269.5 616,-250.5 578,-250.5"/>
<text text-anchor="middle" x="597" y="-257.5" font-family="Helvetica,sans-Serif" font-size="10.00">norm</text>
</a>
</g>
</g>
<!-- Node6&#45;&gt;Node7 -->
<g id="edge7" class="edge"><title>Node6&#45;&gt;Node7</title>
<path fill="none" stroke="midnightblue" d="M542.125,-260C550.654,-260 559.477,-260 567.453,-260"/>
<polygon fill="midnightblue" stroke="midnightblue" points="567.695,-263.5 577.695,-260 567.695,-256.5 567.695,-263.5"/>
</g>
<!-- Node8 -->
<g id="node8" class="node"><title>Node8</title>
<g id="a_node8"><a xlink:href="$AP__Math_8h.html#a0375e3d67fd3911cacee5c3e1408c0f2" xlink:title="sq">
<polygon fill="white" stroke="black" points="652,-250.5 652,-269.5 681,-269.5 681,-250.5 652,-250.5"/>
<text text-anchor="middle" x="666.5" y="-257.5" font-family="Helvetica,sans-Serif" font-size="10.00">sq</text>
</a>
</g>
</g>
<!-- Node7&#45;&gt;Node8 -->
<g id="edge8" class="edge"><title>Node7&#45;&gt;Node8</title>
<path fill="none" stroke="midnightblue" d="M616.089,-260C623.997,-260 633.379,-260 641.831,-260"/>
<polygon fill="midnightblue" stroke="midnightblue" points="641.861,-263.5 651.861,-260 641.861,-256.5 641.861,-263.5"/>
</g>
<!-- Node9&#45;&gt;Node5 -->
<g id="edge12" class="edge"><title>Node9&#45;&gt;Node5</title>
<path fill="none" stroke="midnightblue" d="M402.992,-288.463C409.94,-285.945 416.888,-282.828 423,-279 442.717,-266.651 440.141,-254.622 459,-241 461.644,-239.09 464.511,-237.295 467.456,-235.63"/>
<polygon fill="midnightblue" stroke="midnightblue" points="469.094,-238.723 476.382,-231.032 465.889,-232.5 469.094,-238.723"/>
</g>
<!-- Node9&#45;&gt;Node6 -->
<g id="edge14" class="edge"><title>Node9&#45;&gt;Node6</title>
<path fill="none" stroke="midnightblue" d="M397.445,-288.411C414.985,-283.528 436.51,-277.536 455.263,-272.315"/>
<polygon fill="midnightblue" stroke="midnightblue" points="456.371,-275.64 465.066,-269.586 454.494,-268.896 456.371,-275.64"/>
</g>
<!-- Node10 -->
<g id="node10" class="node"><title>Node10</title>
<g id="a_node10"><a xlink:href="$AP__Math_8h.html#a6b187a3fa1e9f663e89175e7e8e213d6" xlink:title="MIN">
<polygon fill="white" stroke="black" points="483,-288.5 483,-307.5 518,-307.5 518,-288.5 483,-288.5"/>
<text text-anchor="middle" x="500.5" y="-295.5" font-family="Helvetica,sans-Serif" font-size="10.00">MIN</text>
</a>
</g>
</g>
<!-- Node9&#45;&gt;Node10 -->
<g id="edge13" class="edge"><title>Node9&#45;&gt;Node10</title>
<path fill="none" stroke="midnightblue" d="M423.268,-298C440.569,-298 458.564,-298 472.723,-298"/>
<polygon fill="midnightblue" stroke="midnightblue" points="472.728,-301.5 482.728,-298 472.728,-294.5 472.728,-301.5"/>
</g>
<!-- Node12 -->
<g id="node12" class="node"><title>Node12</title>
<g id="a_node12"><a xlink:href="$structVector2.html#a6b537328ae913e3e7267b539e7a4af92" xlink:title="Vector2::zero">
<polygon fill="white" stroke="black" points="324.5,-76.5 324.5,-95.5 399.5,-95.5 399.5,-76.5 324.5,-76.5"/>
<text text-anchor="middle" x="362" y="-83.5" font-family="Helvetica,sans-Serif" font-size="10.00">Vector2::zero</text>
</a>
</g>
</g>
<!-- Node11&#45;&gt;Node12 -->
<g id="edge16" class="edge"><title>Node11&#45;&gt;Node12</title>
<path fill="none" stroke="midnightblue" d="M255.81,-86C274.5,-86 295.712,-86 314.168,-86"/>
<polygon fill="midnightblue" stroke="midnightblue" points="314.389,-89.5001 324.389,-86 314.389,-82.5001 314.389,-89.5001"/>
</g>
<!-- Node15 -->
<g id="node15" class="node"><title>Node15</title>
<g id="a_node15"><a xlink:href="$classAC__PI__2D.html#ad06c3792dacb8c3ebfdffca3697ed727" xlink:title="AC_PI_2D::calc_filt\l_alpha">
<polygon fill="white" stroke="black" points="310,-147 310,-177 414,-177 414,-147 310,-147"/>
<text text-anchor="start" x="318" y="-165" font-family="Helvetica,sans-Serif" font-size="10.00">AC_PI_2D::calc_filt</text>
<text text-anchor="middle" x="362" y="-154" font-family="Helvetica,sans-Serif" font-size="10.00">_alpha</text>
</a>
</g>
</g>
<!-- Node14&#45;&gt;Node15 -->
<g id="edge19" class="edge"><title>Node14&#45;&gt;Node15</title>
<path fill="none" stroke="midnightblue" d="M263.591,-162C275.292,-162 287.657,-162 299.505,-162"/>
<polygon fill="midnightblue" stroke="midnightblue" points="299.755,-165.5 309.755,-162 299.755,-158.5 299.755,-165.5"/>
</g>
<!-- Node15&#45;&gt;Node5 -->
<g id="edge20" class="edge"><title>Node15&#45;&gt;Node5</title>
<path fill="none" stroke="midnightblue" d="M397.445,-177.141C419.361,-186.774 447.5,-199.143 468.678,-208.452"/>
<polygon fill="midnightblue" stroke="midnightblue" points="467.308,-211.673 477.871,-212.493 470.125,-205.265 467.308,-211.673"/>
</g>
<!-- Node17&#45;&gt;Node15 -->
<g id="edge23" class="edge"><title>Node17&#45;&gt;Node15</title>
<path fill="none" stroke="midnightblue" d="M245.487,-133.589C262.006,-137.652 281.648,-142.483 300.006,-146.998"/>
<polygon fill="midnightblue" stroke="midnightblue" points="299.208,-150.406 309.755,-149.396 300.88,-143.609 299.208,-150.406"/>
</g>
</g>
</svg>
