<?xml version="1.0" encoding="UTF-8" standalone="no"?>
<!DOCTYPE svg PUBLIC "-//W3C//DTD SVG 1.1//EN"
 "http://www.w3.org/Graphics/SVG/1.1/DTD/svg11.dtd">
<!-- Generated by graphviz version 2.38.0 (20140413.2041)
 -->
<!-- Title: AC_AttitudeControl::max_angle_step_bf_roll Pages: 1 -->
<svg width="528pt" height="204pt"
 viewBox="0.00 0.00 528.00 203.50" xmlns="http://www.w3.org/2000/svg" xmlns:xlink="http://www.w3.org/1999/xlink">
<g id="graph0" class="graph" transform="scale(1 1) rotate(0) translate(4 199.5)">
<title>AC_AttitudeControl::max_angle_step_bf_roll</title>
<polygon fill="white" stroke="none" points="-4,4 -4,-199.5 524,-199.5 524,4 -4,4"/>
<!-- Node1 -->
<g id="node1" class="node"><title>Node1</title>
<polygon fill="#bfbfbf" stroke="black" points="0,-55 0,-85 125,-85 125,-55 0,-55"/>
<text text-anchor="start" x="8" y="-73" font-family="Helvetica,sans-Serif" font-size="10.00">AC_AttitudeControl</text>
<text text-anchor="middle" x="62.5" y="-62" font-family="Helvetica,sans-Serif" font-size="10.00">::max_angle_step_bf_roll</text>
</g>
<!-- Node2 -->
<g id="node2" class="node"><title>Node2</title>
<g id="a_node2"><a xlink:href="$classAC__AttitudeControl.html#a81707c8a063a129c3025c87687b06b52" xlink:title="AC_AttitudeControl\l::max_rate_step_bf_roll">
<polygon fill="white" stroke="black" points="161,-77 161,-107 280,-107 280,-77 161,-77"/>
<text text-anchor="start" x="169" y="-95" font-family="Helvetica,sans-Serif" font-size="10.00">AC_AttitudeControl</text>
<text text-anchor="middle" x="220.5" y="-84" font-family="Helvetica,sans-Serif" font-size="10.00">::max_rate_step_bf_roll</text>
</a>
</g>
</g>
<!-- Node1&#45;&gt;Node2 -->
<g id="edge1" class="edge"><title>Node1&#45;&gt;Node2</title>
<path fill="none" stroke="midnightblue" d="M125.155,-78.695C133.603,-79.8863 142.318,-81.1153 150.88,-82.3228"/>
<polygon fill="midnightblue" stroke="midnightblue" points="150.445,-85.796 160.836,-83.7268 151.422,-78.8646 150.445,-85.796"/>
</g>
<!-- Node9 -->
<g id="node9" class="node"><title>Node9</title>
<g id="a_node9"><a xlink:href="$classAC__P.html#a723b372dfceb74ddb2edbe11544e9d5a" xlink:title="AC_P::kP">
<polygon fill="white" stroke="black" points="190,-38.5 190,-57.5 251,-57.5 251,-38.5 190,-38.5"/>
<text text-anchor="middle" x="220.5" y="-45.5" font-family="Helvetica,sans-Serif" font-size="10.00">AC_P::kP</text>
</a>
</g>
</g>
<!-- Node1&#45;&gt;Node9 -->
<g id="edge8" class="edge"><title>Node1&#45;&gt;Node9</title>
<path fill="none" stroke="midnightblue" d="M125.155,-61.305C143.634,-58.6991 163.393,-55.9125 180.03,-53.5663"/>
<polygon fill="midnightblue" stroke="midnightblue" points="180.532,-57.0302 189.946,-52.1679 179.555,-50.0988 180.532,-57.0302"/>
</g>
<!-- Node3 -->
<g id="node3" class="node"><title>Node3</title>
<g id="a_node3"><a xlink:href="$classAC__AttitudeControl.html#ad300b51e0777495496adddd1770ee920" xlink:title="AC_AttitudeControl\l::get_rate_roll_pid">
<polygon fill="white" stroke="black" points="325.5,-165 325.5,-195 426.5,-195 426.5,-165 325.5,-165"/>
<text text-anchor="start" x="333.5" y="-183" font-family="Helvetica,sans-Serif" font-size="10.00">AC_AttitudeControl</text>
<text text-anchor="middle" x="376" y="-172" font-family="Helvetica,sans-Serif" font-size="10.00">::get_rate_roll_pid</text>
</a>
</g>
</g>
<!-- Node2&#45;&gt;Node3 -->
<g id="edge2" class="edge"><title>Node2&#45;&gt;Node3</title>
<path fill="none" stroke="midnightblue" d="M241.821,-107.172C260.503,-120.72 289.271,-140.592 316,-155 319.534,-156.905 323.245,-158.77 327.012,-160.568"/>
<polygon fill="midnightblue" stroke="midnightblue" points="325.874,-163.897 336.423,-164.886 328.793,-157.535 325.874,-163.897"/>
</g>
<!-- Node4 -->
<g id="node4" class="node"><title>Node4</title>
<g id="a_node4"><a xlink:href="$classAC__PID.html#ac12ffbd4fd053c6152d403b69e07b8e1" xlink:title="AC_PID::get_filt_alpha">
<polygon fill="white" stroke="black" points="317.5,-126.5 317.5,-145.5 434.5,-145.5 434.5,-126.5 317.5,-126.5"/>
<text text-anchor="middle" x="376" y="-133.5" font-family="Helvetica,sans-Serif" font-size="10.00">AC_PID::get_filt_alpha</text>
</a>
</g>
</g>
<!-- Node2&#45;&gt;Node4 -->
<g id="edge3" class="edge"><title>Node2&#45;&gt;Node4</title>
<path fill="none" stroke="midnightblue" d="M273.897,-107.019C292.803,-112.439 313.909,-118.489 331.926,-123.653"/>
<polygon fill="midnightblue" stroke="midnightblue" points="331.008,-127.031 341.585,-126.422 332.936,-120.302 331.008,-127.031"/>
</g>
<!-- Node6 -->
<g id="node6" class="node"><title>Node6</title>
<g id="a_node6"><a xlink:href="$classAP__Motors.html#a6641c5398dea1388547dff3db5d95a86" xlink:title="AP_Motors::get_throttle\l_hover">
<polygon fill="white" stroke="black" points="316,-77 316,-107 436,-107 436,-77 316,-77"/>
<text text-anchor="start" x="324" y="-95" font-family="Helvetica,sans-Serif" font-size="10.00">AP_Motors::get_throttle</text>
<text text-anchor="middle" x="376" y="-84" font-family="Helvetica,sans-Serif" font-size="10.00">_hover</text>
</a>
</g>
</g>
<!-- Node2&#45;&gt;Node6 -->
<g id="edge5" class="edge"><title>Node2&#45;&gt;Node6</title>
<path fill="none" stroke="midnightblue" d="M280.408,-92C288.703,-92 297.292,-92 305.758,-92"/>
<polygon fill="midnightblue" stroke="midnightblue" points="305.996,-95.5001 315.996,-92 305.996,-88.5001 305.996,-95.5001"/>
</g>
<!-- Node7 -->
<g id="node7" class="node"><title>Node7</title>
<g id="a_node7"><a xlink:href="$classAC__PID.html#a2d7be199fbc437ee472fad5a4308c668" xlink:title="AC_PID::kD">
<polygon fill="white" stroke="black" points="340,-38.5 340,-57.5 412,-57.5 412,-38.5 340,-38.5"/>
<text text-anchor="middle" x="376" y="-45.5" font-family="Helvetica,sans-Serif" font-size="10.00">AC_PID::kD</text>
</a>
</g>
</g>
<!-- Node2&#45;&gt;Node7 -->
<g id="edge6" class="edge"><title>Node2&#45;&gt;Node7</title>
<path fill="none" stroke="midnightblue" d="M273.897,-76.9808C292.803,-71.5613 313.909,-65.5114 331.926,-60.3468"/>
<polygon fill="midnightblue" stroke="midnightblue" points="332.936,-63.6983 341.585,-57.5783 331.008,-56.9693 332.936,-63.6983"/>
</g>
<!-- Node8 -->
<g id="node8" class="node"><title>Node8</title>
<g id="a_node8"><a xlink:href="$classAC__PID.html#ac29a8c72a8618d87886599204dcb5b79" xlink:title="AC_PID::kP">
<polygon fill="white" stroke="black" points="340.5,-0.5 340.5,-19.5 411.5,-19.5 411.5,-0.5 340.5,-0.5"/>
<text text-anchor="middle" x="376" y="-7.5" font-family="Helvetica,sans-Serif" font-size="10.00">AC_PID::kP</text>
</a>
</g>
</g>
<!-- Node2&#45;&gt;Node8 -->
<g id="edge7" class="edge"><title>Node2&#45;&gt;Node8</title>
<path fill="none" stroke="midnightblue" d="M262.609,-76.9858C268.662,-74.058 274.652,-70.7231 280,-67 299.093,-53.7081 296.314,-41.3968 316,-29 320.61,-26.0971 325.704,-23.5992 330.91,-21.4598"/>
<polygon fill="midnightblue" stroke="midnightblue" points="332.153,-24.732 340.322,-17.9858 329.729,-18.165 332.153,-24.732"/>
</g>
<!-- Node5 -->
<g id="node5" class="node"><title>Node5</title>
<g id="a_node5"><a xlink:href="$AP__Math_8h.html#a2a12cce483e9b870da70d30406d82c60" xlink:title="is_zero">
<polygon fill="white" stroke="black" points="472,-126.5 472,-145.5 520,-145.5 520,-126.5 472,-126.5"/>
<text text-anchor="middle" x="496" y="-133.5" font-family="Helvetica,sans-Serif" font-size="10.00">is_zero</text>
</a>
</g>
</g>
<!-- Node4&#45;&gt;Node5 -->
<g id="edge4" class="edge"><title>Node4&#45;&gt;Node5</title>
<path fill="none" stroke="midnightblue" d="M434.617,-136C443.914,-136 453.256,-136 461.72,-136"/>
<polygon fill="midnightblue" stroke="midnightblue" points="461.903,-139.5 471.902,-136 461.902,-132.5 461.903,-139.5"/>
</g>
</g>
</svg>
