<?xml version="1.0" encoding="UTF-8" standalone="no"?>
<!DOCTYPE svg PUBLIC "-//W3C//DTD SVG 1.1//EN"
 "http://www.w3.org/Graphics/SVG/1.1/DTD/svg11.dtd">
<!-- Generated by graphviz version 2.38.0 (20140413.2041)
 -->
<!-- Title: AC_AttitudeControl_Sub::get_rate_yaw_pid Pages: 1 -->
<svg width="903pt" height="340pt"
 viewBox="0.00 0.00 903.00 340.00" xmlns="http://www.w3.org/2000/svg" xmlns:xlink="http://www.w3.org/1999/xlink">
<g id="graph0" class="graph" transform="scale(1 1) rotate(0) translate(4 336)">
<title>AC_AttitudeControl_Sub::get_rate_yaw_pid</title>
<polygon fill="white" stroke="none" points="-4,4 -4,-336 899,-336 899,4 -4,4"/>
<!-- Node1 -->
<g id="node1" class="node"><title>Node1</title>
<polygon fill="#bfbfbf" stroke="black" points="0,-225.5 0,-255.5 122,-255.5 122,-225.5 0,-225.5"/>
<text text-anchor="start" x="8" y="-243.5" font-family="Helvetica,sans-Serif" font-size="10.00">AC_AttitudeControl</text>
<text text-anchor="middle" x="61" y="-232.5" font-family="Helvetica,sans-Serif" font-size="10.00">_Sub::get_rate_yaw_pid</text>
</g>
<!-- Node2 -->
<g id="node2" class="node"><title>Node2</title>
<g id="a_node2"><a xlink:href="$classAC__AttitudeControl__Sub.html#a5b05f03714d372c1b7a7cf1710fcc7f8" xlink:title="AC_AttitudeControl\l_Sub::update_althold\l_lean_angle_max">
<polygon fill="white" stroke="black" points="322.5,-274 322.5,-315 430.5,-315 430.5,-274 322.5,-274"/>
<text text-anchor="start" x="330.5" y="-303" font-family="Helvetica,sans-Serif" font-size="10.00">AC_AttitudeControl</text>
<text text-anchor="start" x="330.5" y="-292" font-family="Helvetica,sans-Serif" font-size="10.00">_Sub::update_althold</text>
<text text-anchor="middle" x="376.5" y="-281" font-family="Helvetica,sans-Serif" font-size="10.00">_lean_angle_max</text>
</a>
</g>
</g>
<!-- Node1&#45;&gt;Node2 -->
<g id="edge1" class="edge"><title>Node1&#45;&gt;Node2</title>
<path fill="none" stroke="midnightblue" d="M122.075,-250.848C176.639,-260.246 256.845,-274.062 312.348,-283.622"/>
<polygon fill="midnightblue" stroke="midnightblue" points="311.963,-287.107 322.412,-285.356 313.151,-280.209 311.963,-287.107"/>
</g>
<!-- Node11 -->
<g id="node11" class="node"><title>Node11</title>
<g id="a_node11"><a xlink:href="$classAC__AttitudeControl__Sub.html#a01e89bcda33d4d292631f126b21d64fc" xlink:title="AC_AttitudeControl\l_Sub::set_throttle_out">
<polygon fill="white" stroke="black" points="158,-154.5 158,-184.5 271,-184.5 271,-154.5 158,-154.5"/>
<text text-anchor="start" x="166" y="-172.5" font-family="Helvetica,sans-Serif" font-size="10.00">AC_AttitudeControl</text>
<text text-anchor="middle" x="214.5" y="-161.5" font-family="Helvetica,sans-Serif" font-size="10.00">_Sub::set_throttle_out</text>
</a>
</g>
</g>
<!-- Node1&#45;&gt;Node11 -->
<g id="edge10" class="edge"><title>Node1&#45;&gt;Node11</title>
<path fill="none" stroke="midnightblue" d="M94.1293,-225.443C116.927,-214.759 147.721,-200.327 172.321,-188.798"/>
<polygon fill="midnightblue" stroke="midnightblue" points="173.847,-191.948 181.417,-184.536 170.877,-185.61 173.847,-191.948"/>
</g>
<!-- Node14 -->
<g id="node14" class="node"><title>Node14</title>
<g id="a_node14"><a xlink:href="$classAC__AttitudeControl__Sub.html#ad9b99aeb009385e1ba2bd6329befd42c" xlink:title="AC_AttitudeControl\l_Sub::get_throttle_boosted">
<polygon fill="white" stroke="black" points="309.5,-225.5 309.5,-255.5 443.5,-255.5 443.5,-225.5 309.5,-225.5"/>
<text text-anchor="start" x="317.5" y="-243.5" font-family="Helvetica,sans-Serif" font-size="10.00">AC_AttitudeControl</text>
<text text-anchor="middle" x="376.5" y="-232.5" font-family="Helvetica,sans-Serif" font-size="10.00">_Sub::get_throttle_boosted</text>
</a>
</g>
</g>
<!-- Node1&#45;&gt;Node14 -->
<g id="edge24" class="edge"><title>Node1&#45;&gt;Node14</title>
<path fill="none" stroke="midnightblue" d="M122.075,-240.5C172.434,-240.5 244.634,-240.5 299.097,-240.5"/>
<polygon fill="midnightblue" stroke="midnightblue" points="299.396,-244 309.396,-240.5 299.396,-237 299.396,-244"/>
</g>
<!-- Node3 -->
<g id="node3" class="node"><title>Node3</title>
<g id="a_node3"><a xlink:href="$classAP__MotorsMulticopter.html#ade105370d07830c76c62cc26d6f7cbaf" xlink:title="AP_MotorsMulticopter\l::get_throttle_thrust_max">
<polygon fill="white" stroke="black" points="482,-301.5 482,-331.5 607,-331.5 607,-301.5 482,-301.5"/>
<text text-anchor="start" x="490" y="-319.5" font-family="Helvetica,sans-Serif" font-size="10.00">AP_MotorsMulticopter</text>
<text text-anchor="middle" x="544.5" y="-308.5" font-family="Helvetica,sans-Serif" font-size="10.00">::get_throttle_thrust_max</text>
</a>
</g>
</g>
<!-- Node2&#45;&gt;Node3 -->
<g id="edge2" class="edge"><title>Node2&#45;&gt;Node3</title>
<path fill="none" stroke="midnightblue" d="M430.937,-301.582C443.852,-303.294 457.866,-305.151 471.479,-306.955"/>
<polygon fill="midnightblue" stroke="midnightblue" points="471.412,-310.477 481.785,-308.321 472.332,-303.537 471.412,-310.477"/>
</g>
<!-- Node4 -->
<g id="node4" class="node"><title>Node4</title>
<g id="a_node4"><a xlink:href="$AP__Math_8h.html#a2a12cce483e9b870da70d30406d82c60" xlink:title="is_zero">
<polygon fill="white" stroke="black" points="520.5,-263 520.5,-282 568.5,-282 568.5,-263 520.5,-263"/>
<text text-anchor="middle" x="544.5" y="-270" font-family="Helvetica,sans-Serif" font-size="10.00">is_zero</text>
</a>
</g>
</g>
<!-- Node2&#45;&gt;Node4 -->
<g id="edge3" class="edge"><title>Node2&#45;&gt;Node4</title>
<path fill="none" stroke="midnightblue" d="M430.937,-287.418C456.956,-283.97 487.434,-279.93 510.109,-276.925"/>
<polygon fill="midnightblue" stroke="midnightblue" points="510.793,-280.365 520.246,-275.582 509.873,-273.426 510.793,-280.365"/>
</g>
<!-- Node5 -->
<g id="node5" class="node"><title>Node5</title>
<g id="a_node5"><a xlink:href="$AP__Math_8h.html#ad525609d9dba6ffa556a0fbf08a3f9b4" xlink:title="constrain_float">
<polygon fill="white" stroke="black" points="504.5,-203 504.5,-222 584.5,-222 584.5,-203 504.5,-203"/>
<text text-anchor="middle" x="544.5" y="-210" font-family="Helvetica,sans-Serif" font-size="10.00">constrain_float</text>
</a>
</g>
</g>
<!-- Node2&#45;&gt;Node5 -->
<g id="edge4" class="edge"><title>Node2&#45;&gt;Node5</title>
<path fill="none" stroke="midnightblue" d="M427.514,-273.996C433.779,-271.231 440.067,-268.36 446,-265.5 471.056,-253.421 498.861,-238.11 518.345,-227.053"/>
<polygon fill="midnightblue" stroke="midnightblue" points="520.246,-229.999 527.193,-222 516.774,-223.92 520.246,-229.999"/>
</g>
<!-- Node6 -->
<g id="node6" class="node"><title>Node6</title>
<g id="a_node6"><a xlink:href="$AP__Math_8h.html#a20e8f8671c282c69c1954652b6d61585" xlink:title="constrain_value">
<polygon fill="white" stroke="black" points="643,-203 643,-222 728,-222 728,-203 643,-203"/>
<text text-anchor="middle" x="685.5" y="-210" font-family="Helvetica,sans-Serif" font-size="10.00">constrain_value</text>
</a>
</g>
</g>
<!-- Node5&#45;&gt;Node6 -->
<g id="edge5" class="edge"><title>Node5&#45;&gt;Node6</title>
<path fill="none" stroke="midnightblue" d="M584.589,-212.5C599.476,-212.5 616.681,-212.5 632.574,-212.5"/>
<polygon fill="midnightblue" stroke="midnightblue" points="632.791,-216 642.791,-212.5 632.791,-209 632.791,-216"/>
</g>
<!-- Node7 -->
<g id="node7" class="node"><title>Node7</title>
<g id="a_node7"><a xlink:href="$AP__Math_8cpp.html#a37e8e901754cb9c8e53a8e3030c82c50" xlink:title="constrain_value\&lt; int \&gt;">
<polygon fill="white" stroke="black" points="773,-260 773,-279 886,-279 886,-260 773,-260"/>
<text text-anchor="middle" x="829.5" y="-267" font-family="Helvetica,sans-Serif" font-size="10.00">constrain_value&lt; int &gt;</text>
</a>
</g>
</g>
<!-- Node6&#45;&gt;Node7 -->
<g id="edge6" class="edge"><title>Node6&#45;&gt;Node7</title>
<path fill="none" stroke="midnightblue" d="M703.97,-222.128C719.432,-230.391 742.774,-242.238 764,-250.5 769.854,-252.778 776.097,-254.939 782.307,-256.929"/>
<polygon fill="midnightblue" stroke="midnightblue" points="781.389,-260.309 791.977,-259.911 783.452,-253.62 781.389,-260.309"/>
</g>
<!-- Node8 -->
<g id="node8" class="node"><title>Node8</title>
<g id="a_node8"><a xlink:href="$AP__Math_8cpp.html#afdbe107ec1987d318a6347816fbf2b89" xlink:title="constrain_value\&lt; short \&gt;">
<polygon fill="white" stroke="black" points="767,-222 767,-241 892,-241 892,-222 767,-222"/>
<text text-anchor="middle" x="829.5" y="-229" font-family="Helvetica,sans-Serif" font-size="10.00">constrain_value&lt; short &gt;</text>
</a>
</g>
</g>
<!-- Node6&#45;&gt;Node8 -->
<g id="edge7" class="edge"><title>Node6&#45;&gt;Node8</title>
<path fill="none" stroke="midnightblue" d="M728.337,-218.098C737.323,-219.3 747.064,-220.604 756.821,-221.909"/>
<polygon fill="midnightblue" stroke="midnightblue" points="756.589,-225.409 766.965,-223.266 757.518,-218.471 756.589,-225.409"/>
</g>
<!-- Node9 -->
<g id="node9" class="node"><title>Node9</title>
<g id="a_node9"><a xlink:href="$AP__Math_8cpp.html#ae6c621670c214da687de21d4e3a92587" xlink:title="constrain_value\&lt; float \&gt;">
<polygon fill="white" stroke="black" points="768.5,-184 768.5,-203 890.5,-203 890.5,-184 768.5,-184"/>
<text text-anchor="middle" x="829.5" y="-191" font-family="Helvetica,sans-Serif" font-size="10.00">constrain_value&lt; float &gt;</text>
</a>
</g>
</g>
<!-- Node6&#45;&gt;Node9 -->
<g id="edge8" class="edge"><title>Node6&#45;&gt;Node9</title>
<path fill="none" stroke="midnightblue" d="M728.337,-206.902C737.724,-205.646 747.935,-204.28 758.129,-202.916"/>
<polygon fill="midnightblue" stroke="midnightblue" points="758.838,-206.352 768.286,-201.557 757.91,-199.414 758.838,-206.352"/>
</g>
<!-- Node10 -->
<g id="node10" class="node"><title>Node10</title>
<g id="a_node10"><a xlink:href="$AP__Math_8cpp.html#afe3990b00e9abc43fa97dfaf8e32f5c4" xlink:title="constrain_value\&lt; double \&gt;">
<polygon fill="white" stroke="black" points="764,-146 764,-165 895,-165 895,-146 764,-146"/>
<text text-anchor="middle" x="829.5" y="-153" font-family="Helvetica,sans-Serif" font-size="10.00">constrain_value&lt; double &gt;</text>
</a>
</g>
</g>
<!-- Node6&#45;&gt;Node10 -->
<g id="edge9" class="edge"><title>Node6&#45;&gt;Node10</title>
<path fill="none" stroke="midnightblue" d="M703.97,-202.872C719.432,-194.609 742.774,-182.762 764,-174.5 769.854,-172.222 776.097,-170.061 782.307,-168.071"/>
<polygon fill="midnightblue" stroke="midnightblue" points="783.452,-171.38 791.977,-165.089 781.389,-164.691 783.452,-171.38"/>
</g>
<!-- Node11&#45;&gt;Node2 -->
<g id="edge11" class="edge"><title>Node11&#45;&gt;Node2</title>
<path fill="none" stroke="midnightblue" d="M226.686,-184.663C242.57,-205.304 273.479,-242.323 307,-265.5 309.091,-266.946 311.266,-268.341 313.499,-269.684"/>
<polygon fill="midnightblue" stroke="midnightblue" points="311.907,-272.804 322.348,-274.609 315.312,-266.688 311.907,-272.804"/>
</g>
<!-- Node12 -->
<g id="node12" class="node"><title>Node12</title>
<g id="a_node12"><a xlink:href="$classAP__Motors.html#a663672b4ada40c46d343e3f62b51b820" xlink:title="AP_Motors::set_throttle\l_filter_cutoff">
<polygon fill="white" stroke="black" points="316.5,-0.5 316.5,-30.5 436.5,-30.5 436.5,-0.5 316.5,-0.5"/>
<text text-anchor="start" x="324.5" y="-18.5" font-family="Helvetica,sans-Serif" font-size="10.00">AP_Motors::set_throttle</text>
<text text-anchor="middle" x="376.5" y="-7.5" font-family="Helvetica,sans-Serif" font-size="10.00">_filter_cutoff</text>
</a>
</g>
</g>
<!-- Node11&#45;&gt;Node12 -->
<g id="edge12" class="edge"><title>Node11&#45;&gt;Node12</title>
<path fill="none" stroke="midnightblue" d="M223.339,-154.136C237.104,-128.495 267.908,-76.7224 307,-45.5 311.86,-41.6185 317.3,-38.1392 322.932,-35.0474"/>
<polygon fill="midnightblue" stroke="midnightblue" points="324.551,-38.1509 331.886,-30.5059 321.384,-31.908 324.551,-38.1509"/>
</g>
<!-- Node11&#45;&gt;Node14 -->
<g id="edge14" class="edge"><title>Node11&#45;&gt;Node14</title>
<path fill="none" stroke="midnightblue" d="M243.537,-184.657C261.444,-194.07 285.293,-206.12 307,-215.5 311.939,-217.634 317.126,-219.749 322.343,-221.792"/>
<polygon fill="midnightblue" stroke="midnightblue" points="321.127,-225.074 331.717,-225.379 323.629,-218.536 321.127,-225.074"/>
</g>
<!-- Node15 -->
<g id="node15" class="node"><title>Node15</title>
<g id="a_node15"><a xlink:href="$classAP__Motors.html#a56d079ad89f5a4d2cacf014c8958a527" xlink:title="AP_Motors::set_throttle">
<polygon fill="white" stroke="black" points="316.5,-138 316.5,-157 436.5,-157 436.5,-138 316.5,-138"/>
<text text-anchor="middle" x="376.5" y="-145" font-family="Helvetica,sans-Serif" font-size="10.00">AP_Motors::set_throttle</text>
</a>
</g>
</g>
<!-- Node11&#45;&gt;Node15 -->
<g id="edge16" class="edge"><title>Node11&#45;&gt;Node15</title>
<path fill="none" stroke="midnightblue" d="M271.011,-161.867C282.32,-160.312 294.352,-158.658 306.075,-157.046"/>
<polygon fill="midnightblue" stroke="midnightblue" points="306.842,-160.474 316.272,-155.644 305.888,-153.539 306.842,-160.474"/>
</g>
<!-- Node16 -->
<g id="node16" class="node"><title>Node16</title>
<g id="a_node16"><a xlink:href="$classAP__Motors.html#a8f1c08d3e3ec39c1ce43a30f8045770c" xlink:title="AP_Motors::set_throttle\l_avg_max">
<polygon fill="white" stroke="black" points="316.5,-176.5 316.5,-206.5 436.5,-206.5 436.5,-176.5 316.5,-176.5"/>
<text text-anchor="start" x="324.5" y="-194.5" font-family="Helvetica,sans-Serif" font-size="10.00">AP_Motors::set_throttle</text>
<text text-anchor="middle" x="376.5" y="-183.5" font-family="Helvetica,sans-Serif" font-size="10.00">_avg_max</text>
</a>
</g>
</g>
<!-- Node11&#45;&gt;Node16 -->
<g id="edge17" class="edge"><title>Node11&#45;&gt;Node16</title>
<path fill="none" stroke="midnightblue" d="M271.011,-177.133C282.32,-178.688 294.352,-180.342 306.075,-181.954"/>
<polygon fill="midnightblue" stroke="midnightblue" points="305.888,-185.461 316.272,-183.356 306.842,-178.526 305.888,-185.461"/>
</g>
<!-- Node17 -->
<g id="node17" class="node"><title>Node17</title>
<g id="a_node17"><a xlink:href="$classAC__AttitudeControl__Sub.html#a355a53fe627b8f51805b839911350a11" xlink:title="AC_AttitudeControl\l_Sub::get_throttle_avg_max">
<polygon fill="white" stroke="black" points="307,-88.5 307,-118.5 446,-118.5 446,-88.5 307,-88.5"/>
<text text-anchor="start" x="315" y="-106.5" font-family="Helvetica,sans-Serif" font-size="10.00">AC_AttitudeControl</text>
<text text-anchor="middle" x="376.5" y="-95.5" font-family="Helvetica,sans-Serif" font-size="10.00">_Sub::get_throttle_avg_max</text>
</a>
</g>
</g>
<!-- Node11&#45;&gt;Node17 -->
<g id="edge19" class="edge"><title>Node11&#45;&gt;Node17</title>
<path fill="none" stroke="midnightblue" d="M247.865,-154.32C265.263,-146.332 287.161,-136.553 307,-128.5 312.335,-126.334 317.937,-124.149 323.542,-122.019"/>
<polygon fill="midnightblue" stroke="midnightblue" points="324.796,-125.287 332.932,-118.501 322.34,-118.732 324.796,-125.287"/>
</g>
<!-- Node18 -->
<g id="node18" class="node"><title>Node18</title>
<g id="a_node18"><a xlink:href="$AP__Math_8h.html#a5c0b5c82749ac54970b2699d3c10ee9b" xlink:title="MAX">
<polygon fill="white" stroke="black" points="525.5,-50 525.5,-69 563.5,-69 563.5,-50 525.5,-50"/>
<text text-anchor="middle" x="544.5" y="-57" font-family="Helvetica,sans-Serif" font-size="10.00">MAX</text>
</a>
</g>
</g>
<!-- Node11&#45;&gt;Node18 -->
<g id="edge23" class="edge"><title>Node11&#45;&gt;Node18</title>
<path fill="none" stroke="midnightblue" d="M225.467,-154.306C240.351,-133.078 270.571,-95.2694 307,-78.5 376.28,-46.6081 469.061,-50.9097 515.106,-55.7328"/>
<polygon fill="midnightblue" stroke="midnightblue" points="514.912,-59.2332 525.243,-56.8845 515.702,-52.2779 514.912,-59.2332"/>
</g>
<!-- Node13 -->
<g id="node13" class="node"><title>Node13</title>
<g id="a_node13"><a xlink:href="$classLowPassFilter.html#a1cc5016de137b01080fa0a6fa7fe53cd" xlink:title="LowPassFilter::set\l_cutoff_frequency">
<polygon fill="white" stroke="black" points="495.5,-0.5 495.5,-30.5 593.5,-30.5 593.5,-0.5 495.5,-0.5"/>
<text text-anchor="start" x="503.5" y="-18.5" font-family="Helvetica,sans-Serif" font-size="10.00">LowPassFilter::set</text>
<text text-anchor="middle" x="544.5" y="-7.5" font-family="Helvetica,sans-Serif" font-size="10.00">_cutoff_frequency</text>
</a>
</g>
</g>
<!-- Node12&#45;&gt;Node13 -->
<g id="edge13" class="edge"><title>Node12&#45;&gt;Node13</title>
<path fill="none" stroke="midnightblue" d="M436.961,-15.5C452.682,-15.5 469.631,-15.5 485.285,-15.5"/>
<polygon fill="midnightblue" stroke="midnightblue" points="485.359,-19.0001 495.359,-15.5 485.359,-12.0001 485.359,-19.0001"/>
</g>
<!-- Node14&#45;&gt;Node5 -->
<g id="edge15" class="edge"><title>Node14&#45;&gt;Node5</title>
<path fill="none" stroke="midnightblue" d="M443.585,-229.353C460.495,-226.501 478.383,-223.484 494.279,-220.802"/>
<polygon fill="midnightblue" stroke="midnightblue" points="495.128,-224.209 504.407,-219.094 493.964,-217.306 495.128,-224.209"/>
</g>
<!-- Node16&#45;&gt;Node5 -->
<g id="edge18" class="edge"><title>Node16&#45;&gt;Node5</title>
<path fill="none" stroke="midnightblue" d="M436.961,-199.022C455.713,-201.394 476.212,-203.988 494.176,-206.26"/>
<polygon fill="midnightblue" stroke="midnightblue" points="493.787,-209.739 504.147,-207.522 494.666,-202.794 493.787,-209.739"/>
</g>
<!-- Node17&#45;&gt;Node5 -->
<g id="edge20" class="edge"><title>Node17&#45;&gt;Node5</title>
<path fill="none" stroke="midnightblue" d="M425.679,-118.564C432.687,-121.469 439.667,-124.785 446,-128.5 478.039,-147.296 509.584,-177.105 527.765,-195.696"/>
<polygon fill="midnightblue" stroke="midnightblue" points="525.248,-198.128 534.701,-202.912 530.295,-193.277 525.248,-198.128"/>
</g>
<!-- Node17&#45;&gt;Node18 -->
<g id="edge21" class="edge"><title>Node17&#45;&gt;Node18</title>
<path fill="none" stroke="midnightblue" d="M434.163,-88.4808C461.569,-81.2165 493.249,-72.8195 515.43,-66.9402"/>
<polygon fill="midnightblue" stroke="midnightblue" points="516.43,-70.2962 525.199,-64.3508 514.636,-63.5298 516.43,-70.2962"/>
</g>
<!-- Node19 -->
<g id="node19" class="node"><title>Node19</title>
<g id="a_node19"><a xlink:href="$classAP__Motors.html#a6641c5398dea1388547dff3db5d95a86" xlink:title="AP_Motors::get_throttle\l_hover">
<polygon fill="white" stroke="black" points="484.5,-88.5 484.5,-118.5 604.5,-118.5 604.5,-88.5 484.5,-88.5"/>
<text text-anchor="start" x="492.5" y="-106.5" font-family="Helvetica,sans-Serif" font-size="10.00">AP_Motors::get_throttle</text>
<text text-anchor="middle" x="544.5" y="-95.5" font-family="Helvetica,sans-Serif" font-size="10.00">_hover</text>
</a>
</g>
</g>
<!-- Node17&#45;&gt;Node19 -->
<g id="edge22" class="edge"><title>Node17&#45;&gt;Node19</title>
<path fill="none" stroke="midnightblue" d="M446.457,-103.5C455.583,-103.5 464.941,-103.5 474.075,-103.5"/>
<polygon fill="midnightblue" stroke="midnightblue" points="474.267,-107 484.267,-103.5 474.267,-100 474.267,-107"/>
</g>
</g>
</svg>
