<?xml version="1.0" encoding="UTF-8" standalone="no"?>
<!DOCTYPE svg PUBLIC "-//W3C//DTD SVG 1.1//EN"
 "http://www.w3.org/Graphics/SVG/1.1/DTD/svg11.dtd">
<!-- Generated by graphviz version 2.38.0 (20140413.2041)
 -->
<!-- Title: AC_Fence::get_margin Pages: 1 -->
<svg width="2157pt" height="648pt"
 viewBox="0.00 0.00 2157.00 647.50" xmlns="http://www.w3.org/2000/svg" xmlns:xlink="http://www.w3.org/1999/xlink">
<g id="graph0" class="graph" transform="scale(1 1) rotate(0) translate(4 643.5)">
<title>AC_Fence::get_margin</title>
<polygon fill="white" stroke="none" points="-4,4 -4,-643.5 2153,-643.5 2153,4 -4,4"/>
<!-- Node1 -->
<g id="node1" class="node"><title>Node1</title>
<polygon fill="#bfbfbf" stroke="black" points="0,-459 0,-478 117,-478 117,-459 0,-459"/>
<text text-anchor="middle" x="58.5" y="-466" font-family="Helvetica,sans-Serif" font-size="10.00">AC_Fence::get_margin</text>
</g>
<!-- Node2 -->
<g id="node2" class="node"><title>Node2</title>
<g id="a_node2"><a xlink:href="$classAC__Fence.html#a32ddec2d811a21b723c83fca515a2004" xlink:title="AC_Fence::manual_recovery\l_start">
<polygon fill="white" stroke="black" points="153,-453.5 153,-483.5 296,-483.5 296,-453.5 153,-453.5"/>
<text text-anchor="start" x="161" y="-471.5" font-family="Helvetica,sans-Serif" font-size="10.00">AC_Fence::manual_recovery</text>
<text text-anchor="middle" x="224.5" y="-460.5" font-family="Helvetica,sans-Serif" font-size="10.00">_start</text>
</a>
</g>
</g>
<!-- Node1&#45;&gt;Node2 -->
<g id="edge1" class="edge"><title>Node1&#45;&gt;Node2</title>
<path fill="none" stroke="midnightblue" d="M117.32,-468.5C125.606,-468.5 134.253,-468.5 142.879,-468.5"/>
<polygon fill="midnightblue" stroke="midnightblue" points="142.974,-472 152.974,-468.5 142.974,-465 142.974,-472"/>
</g>
<!-- Node3 -->
<g id="node3" class="node"><title>Node3</title>
<g id="a_node3"><a xlink:href="$namespaceAP__HAL.html#a77dffbb18891996280308e21316ec186" xlink:title="AP_HAL::millis">
<polygon fill="white" stroke="black" points="332,-459 332,-478 415,-478 415,-459 332,-459"/>
<text text-anchor="middle" x="373.5" y="-466" font-family="Helvetica,sans-Serif" font-size="10.00">AP_HAL::millis</text>
</a>
</g>
</g>
<!-- Node2&#45;&gt;Node3 -->
<g id="edge2" class="edge"><title>Node2&#45;&gt;Node3</title>
<path fill="none" stroke="midnightblue" d="M296.416,-468.5C304.986,-468.5 313.602,-468.5 321.799,-468.5"/>
<polygon fill="midnightblue" stroke="midnightblue" points="321.921,-472 331.921,-468.5 321.921,-465 321.921,-472"/>
</g>
<!-- Node4 -->
<g id="node4" class="node"><title>Node4</title>
<g id="a_node4"><a xlink:href="$namespaceAP__HAL.html#a59336c5fceaf28a76d1df1581a87a25d" xlink:title="AP_HAL::millis64">
<polygon fill="white" stroke="black" points="451,-459 451,-478 545,-478 545,-459 451,-459"/>
<text text-anchor="middle" x="498" y="-466" font-family="Helvetica,sans-Serif" font-size="10.00">AP_HAL::millis64</text>
</a>
</g>
</g>
<!-- Node3&#45;&gt;Node4 -->
<g id="edge3" class="edge"><title>Node3&#45;&gt;Node4</title>
<path fill="none" stroke="midnightblue" d="M415.291,-468.5C423.495,-468.5 432.252,-468.5 440.873,-468.5"/>
<polygon fill="midnightblue" stroke="midnightblue" points="440.89,-472 450.89,-468.5 440.89,-465 440.89,-472"/>
</g>
<!-- Node5 -->
<g id="node5" class="node"><title>Node5</title>
<g id="a_node5"><a xlink:href="$classLinux_1_1Scheduler.html#a53ecaae0fdc72f85bd57c4b0cff93653" xlink:title="Linux::Scheduler::from">
<polygon fill="white" stroke="black" points="581,-337 581,-356 696,-356 696,-337 581,-337"/>
<text text-anchor="middle" x="638.5" y="-344" font-family="Helvetica,sans-Serif" font-size="10.00">Linux::Scheduler::from</text>
</a>
</g>
</g>
<!-- Node4&#45;&gt;Node5 -->
<g id="edge4" class="edge"><title>Node4&#45;&gt;Node5</title>
<path fill="none" stroke="midnightblue" d="M509.868,-458.927C533.432,-438.17 589.465,-388.813 618.825,-362.951"/>
<polygon fill="midnightblue" stroke="midnightblue" points="621.492,-365.265 626.683,-356.029 616.865,-360.012 621.492,-365.265"/>
</g>
<!-- Node33 -->
<g id="node33" class="node"><title>Node33</title>
<g id="a_node33"><a xlink:href="$classLinux_1_1Scheduler.html#a682b4c34f330f66db5ab4aa5d96e13f9" xlink:title="Linux::Scheduler::stopped\l_clock_usec">
<polygon fill="white" stroke="black" points="1401,-475.5 1401,-505.5 1531,-505.5 1531,-475.5 1401,-475.5"/>
<text text-anchor="start" x="1409" y="-493.5" font-family="Helvetica,sans-Serif" font-size="10.00">Linux::Scheduler::stopped</text>
<text text-anchor="middle" x="1466" y="-482.5" font-family="Helvetica,sans-Serif" font-size="10.00">_clock_usec</text>
</a>
</g>
</g>
<!-- Node4&#45;&gt;Node33 -->
<g id="edge59" class="edge"><title>Node4&#45;&gt;Node33</title>
<path fill="none" stroke="midnightblue" d="M511.771,-478.152C551.452,-507.148 677.024,-591.5 795,-591.5 795,-591.5 795,-591.5 1136.5,-591.5 1246.09,-591.5 1367.53,-539.508 1427.4,-510.13"/>
<polygon fill="midnightblue" stroke="midnightblue" points="1429.07,-513.207 1436.46,-505.621 1425.95,-506.939 1429.07,-513.207"/>
</g>
<!-- Node6 -->
<g id="node6" class="node"><title>Node6</title>
<g id="a_node6"><a xlink:href="$classLinux_1_1Scheduler.html#a3d77c332e051c28c83fb07757e7100bd" xlink:title="Linux::Scheduler::init">
<polygon fill="white" stroke="black" points="742,-68 742,-87 850,-87 850,-68 742,-68"/>
<text text-anchor="middle" x="796" y="-75" font-family="Helvetica,sans-Serif" font-size="10.00">Linux::Scheduler::init</text>
</a>
</g>
</g>
<!-- Node5&#45;&gt;Node6 -->
<g id="edge5" class="edge"><title>Node5&#45;&gt;Node6</title>
<path fill="none" stroke="midnightblue" d="M640.092,-336.947C642.894,-300.136 657.998,-166.088 732,-96.5 733.691,-94.9103 735.509,-93.4533 737.426,-92.1179"/>
<polygon fill="midnightblue" stroke="midnightblue" points="739.414,-95.0126 746.354,-87.0075 735.937,-88.9373 739.414,-95.0126"/>
</g>
<!-- Node13 -->
<g id="node13" class="node"><title>Node13</title>
<g id="a_node13"><a xlink:href="$classLinux_1_1Scheduler.html#a02a34a123dfebaf360f7010745e1e646" xlink:title="Linux::Scheduler::register\l_timer_process">
<polygon fill="white" stroke="black" points="898,-62.5 898,-92.5 1026,-92.5 1026,-62.5 898,-62.5"/>
<text text-anchor="start" x="906" y="-80.5" font-family="Helvetica,sans-Serif" font-size="10.00">Linux::Scheduler::register</text>
<text text-anchor="middle" x="962" y="-69.5" font-family="Helvetica,sans-Serif" font-size="10.00">_timer_process</text>
</a>
</g>
</g>
<!-- Node5&#45;&gt;Node13 -->
<g id="edge30" class="edge"><title>Node5&#45;&gt;Node13</title>
<path fill="none" stroke="midnightblue" d="M638.998,-336.816C637.415,-294.824 637.373,-127.496 732,-58.5 786.547,-18.7278 869.04,-39.837 918.7,-58.7191"/>
<polygon fill="midnightblue" stroke="midnightblue" points="917.589,-62.0431 928.176,-62.4471 920.152,-55.529 917.589,-62.0431"/>
</g>
<!-- Node24 -->
<g id="node24" class="node"><title>Node24</title>
<g id="a_node24"><a xlink:href="$classLinux_1_1Scheduler.html#a14f3239ecbb9889823b20dc9de655c2f" xlink:title="Linux::Scheduler::delay">
<polygon fill="white" stroke="black" points="736.5,-620 736.5,-639 855.5,-639 855.5,-620 736.5,-620"/>
<text text-anchor="middle" x="796" y="-627" font-family="Helvetica,sans-Serif" font-size="10.00">Linux::Scheduler::delay</text>
</a>
</g>
</g>
<!-- Node5&#45;&gt;Node24 -->
<g id="edge24" class="edge"><title>Node5&#45;&gt;Node24</title>
<path fill="none" stroke="midnightblue" d="M642.124,-356.441C650.994,-388.878 682.117,-493.782 732,-567.5 743.894,-585.077 761.323,-601.757 774.836,-613.38"/>
<polygon fill="midnightblue" stroke="midnightblue" points="772.743,-616.192 782.659,-619.926 777.235,-610.824 772.743,-616.192"/>
</g>
<!-- Node26 -->
<g id="node26" class="node"><title>Node26</title>
<g id="a_node26"><a xlink:href="$classLinux_1_1Scheduler.html#a4cffd5bcba0175bf49c7aa75ff3bf09a" xlink:title="Linux::Scheduler::delay\l_microseconds">
<polygon fill="white" stroke="black" points="1406.5,-538.5 1406.5,-568.5 1525.5,-568.5 1525.5,-538.5 1406.5,-538.5"/>
<text text-anchor="start" x="1414.5" y="-556.5" font-family="Helvetica,sans-Serif" font-size="10.00">Linux::Scheduler::delay</text>
<text text-anchor="middle" x="1466" y="-545.5" font-family="Helvetica,sans-Serif" font-size="10.00">_microseconds</text>
</a>
</g>
</g>
<!-- Node5&#45;&gt;Node26 -->
<g id="edge27" class="edge"><title>Node5&#45;&gt;Node26</title>
<path fill="none" stroke="midnightblue" d="M640.885,-356.033C646.055,-387.79 667.372,-490.459 732,-534.5 816.395,-592.011 858.873,-553.5 961,-553.5 961,-553.5 961,-553.5 1136.5,-553.5 1226.09,-553.5 1329.43,-553.5 1395.91,-553.5"/>
<polygon fill="midnightblue" stroke="midnightblue" points="1396.25,-557 1406.25,-553.5 1396.25,-550 1396.25,-557"/>
</g>
<!-- Node27 -->
<g id="node27" class="node"><title>Node27</title>
<g id="a_node27"><a xlink:href="$classLinux_1_1Scheduler.html#a5cb50b637d5fd3e5f9220bc23db0fb3f" xlink:title="Linux::Scheduler::register\l_delay_callback">
<polygon fill="white" stroke="black" points="732,-380.5 732,-410.5 860,-410.5 860,-380.5 732,-380.5"/>
<text text-anchor="start" x="740" y="-398.5" font-family="Helvetica,sans-Serif" font-size="10.00">Linux::Scheduler::register</text>
<text text-anchor="middle" x="796" y="-387.5" font-family="Helvetica,sans-Serif" font-size="10.00">_delay_callback</text>
</a>
</g>
</g>
<!-- Node5&#45;&gt;Node27 -->
<g id="edge29" class="edge"><title>Node5&#45;&gt;Node27</title>
<path fill="none" stroke="midnightblue" d="M669.851,-356.064C689.108,-362.132 714.638,-370.177 737.615,-377.417"/>
<polygon fill="midnightblue" stroke="midnightblue" points="736.691,-380.796 747.281,-380.463 738.795,-374.119 736.691,-380.796"/>
</g>
<!-- Node28 -->
<g id="node28" class="node"><title>Node28</title>
<g id="a_node28"><a xlink:href="$classLinux_1_1Scheduler.html#aa2be97cb8686d72cc322fb38f69a940c" xlink:title="Linux::Scheduler::register\l_io_process">
<polygon fill="white" stroke="black" points="898,-128.5 898,-158.5 1026,-158.5 1026,-128.5 898,-128.5"/>
<text text-anchor="start" x="906" y="-146.5" font-family="Helvetica,sans-Serif" font-size="10.00">Linux::Scheduler::register</text>
<text text-anchor="middle" x="962" y="-135.5" font-family="Helvetica,sans-Serif" font-size="10.00">_io_process</text>
</a>
</g>
</g>
<!-- Node5&#45;&gt;Node28 -->
<g id="edge31" class="edge"><title>Node5&#45;&gt;Node28</title>
<path fill="none" stroke="midnightblue" d="M641.894,-336.895C649.533,-308.405 676.168,-223.903 732,-184.5 756.631,-167.117 830.41,-156.065 887.639,-149.872"/>
<polygon fill="midnightblue" stroke="midnightblue" points="888.175,-153.335 897.754,-148.808 887.443,-146.373 888.175,-153.335"/>
</g>
<!-- Node29 -->
<g id="node29" class="node"><title>Node29</title>
<g id="a_node29"><a xlink:href="$classLinux_1_1Scheduler.html#abba967d02c28cb0b16a7cebbff9bc6d6" xlink:title="Linux::Scheduler::suspend\l_timer_procs">
<polygon fill="white" stroke="black" points="896,-285.5 896,-315.5 1028,-315.5 1028,-285.5 896,-285.5"/>
<text text-anchor="start" x="904" y="-303.5" font-family="Helvetica,sans-Serif" font-size="10.00">Linux::Scheduler::suspend</text>
<text text-anchor="middle" x="962" y="-292.5" font-family="Helvetica,sans-Serif" font-size="10.00">_timer_procs</text>
</a>
</g>
</g>
<!-- Node5&#45;&gt;Node29 -->
<g id="edge33" class="edge"><title>Node5&#45;&gt;Node29</title>
<path fill="none" stroke="midnightblue" d="M647.422,-336.859C662.035,-319.931 695.128,-285.434 732,-272.5 791.809,-251.52 865.177,-267.176 912.489,-282.192"/>
<polygon fill="midnightblue" stroke="midnightblue" points="911.583,-285.578 922.176,-285.373 913.767,-278.928 911.583,-285.578"/>
</g>
<!-- Node39 -->
<g id="node39" class="node"><title>Node39</title>
<g id="a_node39"><a xlink:href="$classLinux_1_1Scheduler.html#aee4e701b92cb4721c4de1bfcdcded70c" xlink:title="Linux::Scheduler::resume\l_timer_procs">
<polygon fill="white" stroke="black" points="898,-401.5 898,-431.5 1026,-431.5 1026,-401.5 898,-401.5"/>
<text text-anchor="start" x="906" y="-419.5" font-family="Helvetica,sans-Serif" font-size="10.00">Linux::Scheduler::resume</text>
<text text-anchor="middle" x="962" y="-408.5" font-family="Helvetica,sans-Serif" font-size="10.00">_timer_procs</text>
</a>
</g>
</g>
<!-- Node5&#45;&gt;Node39 -->
<g id="edge47" class="edge"><title>Node5&#45;&gt;Node39</title>
<path fill="none" stroke="midnightblue" d="M647.452,-356.013C662.113,-372.717 695.279,-406.756 732,-419.5 781.937,-436.832 841.767,-435.353 887.747,-429.927"/>
<polygon fill="midnightblue" stroke="midnightblue" points="888.452,-433.365 897.932,-428.634 887.571,-426.421 888.452,-433.365"/>
</g>
<!-- Node41 -->
<g id="node41" class="node"><title>Node41</title>
<g id="a_node41"><a xlink:href="$classLinux_1_1Scheduler.html#af23753e7c6bfa97553db215a64235455" xlink:title="Linux::Scheduler::in\l_timerprocess">
<polygon fill="white" stroke="black" points="744.5,-282.5 744.5,-312.5 847.5,-312.5 847.5,-282.5 744.5,-282.5"/>
<text text-anchor="start" x="752.5" y="-300.5" font-family="Helvetica,sans-Serif" font-size="10.00">Linux::Scheduler::in</text>
<text text-anchor="middle" x="796" y="-289.5" font-family="Helvetica,sans-Serif" font-size="10.00">_timerprocess</text>
</a>
</g>
</g>
<!-- Node5&#45;&gt;Node41 -->
<g id="edge49" class="edge"><title>Node5&#45;&gt;Node41</title>
<path fill="none" stroke="midnightblue" d="M669.851,-336.936C689.108,-330.868 714.638,-322.823 737.615,-315.583"/>
<polygon fill="midnightblue" stroke="midnightblue" points="738.795,-318.881 747.281,-312.537 736.691,-312.204 738.795,-318.881"/>
</g>
<!-- Node42 -->
<g id="node42" class="node"><title>Node42</title>
<g id="a_node42"><a xlink:href="$classLinux_1_1Scheduler.html#ac193459e3575c7a0588fdc72250c2044" xlink:title="Linux::Scheduler::register\l_timer_failsafe">
<polygon fill="white" stroke="black" points="732,-106.5 732,-136.5 860,-136.5 860,-106.5 732,-106.5"/>
<text text-anchor="start" x="740" y="-124.5" font-family="Helvetica,sans-Serif" font-size="10.00">Linux::Scheduler::register</text>
<text text-anchor="middle" x="796" y="-113.5" font-family="Helvetica,sans-Serif" font-size="10.00">_timer_failsafe</text>
</a>
</g>
</g>
<!-- Node5&#45;&gt;Node42 -->
<g id="edge50" class="edge"><title>Node5&#45;&gt;Node42</title>
<path fill="none" stroke="midnightblue" d="M641.679,-336.624C649.02,-305.467 675.607,-207.977 732,-151.5 735.599,-147.896 739.715,-144.666 744.082,-141.785"/>
<polygon fill="midnightblue" stroke="midnightblue" points="745.899,-144.777 752.717,-136.668 742.33,-138.755 745.899,-144.777"/>
</g>
<!-- Node43 -->
<g id="node43" class="node"><title>Node43</title>
<g id="a_node43"><a xlink:href="$classLinux_1_1Scheduler.html#ad6070a7ee637adf5101b1e6b6efbf8f6" xlink:title="Linux::Scheduler::system\l_initialized">
<polygon fill="white" stroke="black" points="732,-194.5 732,-224.5 860,-224.5 860,-194.5 732,-194.5"/>
<text text-anchor="start" x="740" y="-212.5" font-family="Helvetica,sans-Serif" font-size="10.00">Linux::Scheduler::system</text>
<text text-anchor="middle" x="796" y="-201.5" font-family="Helvetica,sans-Serif" font-size="10.00">_initialized</text>
</a>
</g>
</g>
<!-- Node5&#45;&gt;Node43 -->
<g id="edge51" class="edge"><title>Node5&#45;&gt;Node43</title>
<path fill="none" stroke="midnightblue" d="M645.844,-336.742C659.489,-316.378 693.525,-268.821 732,-239.5 736.815,-235.831 742.15,-232.451 747.619,-229.388"/>
<polygon fill="midnightblue" stroke="midnightblue" points="749.648,-232.276 756.882,-224.535 746.4,-226.075 749.648,-232.276"/>
</g>
<!-- Node45 -->
<g id="node45" class="node"><title>Node45</title>
<g id="a_node45"><a xlink:href="$classLinux_1_1Scheduler.html#ae72cfa66c849ffd882ef518c35c71e69" xlink:title="Linux::Scheduler::reboot">
<polygon fill="white" stroke="black" points="735,-506 735,-525 857,-525 857,-506 735,-506"/>
<text text-anchor="middle" x="796" y="-513" font-family="Helvetica,sans-Serif" font-size="10.00">Linux::Scheduler::reboot</text>
</a>
</g>
</g>
<!-- Node5&#45;&gt;Node45 -->
<g id="edge54" class="edge"><title>Node5&#45;&gt;Node45</title>
<path fill="none" stroke="midnightblue" d="M643.102,-356.113C653.174,-381.754 684.074,-452.468 732,-491.5 737.003,-495.574 742.772,-499.007 748.746,-501.885"/>
<polygon fill="midnightblue" stroke="midnightblue" points="747.652,-505.225 758.221,-505.964 750.42,-498.795 747.652,-505.225"/>
</g>
<!-- Node46 -->
<g id="node46" class="node"><title>Node46</title>
<g id="a_node46"><a xlink:href="$classLinux_1_1Scheduler.html#a392aebafcdfe9a812e4db4b7a9dcce9c" xlink:title="Linux::Scheduler::stop\l_clock">
<polygon fill="white" stroke="black" points="739,-331.5 739,-361.5 853,-361.5 853,-331.5 739,-331.5"/>
<text text-anchor="start" x="747" y="-349.5" font-family="Helvetica,sans-Serif" font-size="10.00">Linux::Scheduler::stop</text>
<text text-anchor="middle" x="796" y="-338.5" font-family="Helvetica,sans-Serif" font-size="10.00">_clock</text>
</a>
</g>
</g>
<!-- Node5&#45;&gt;Node46 -->
<g id="edge55" class="edge"><title>Node5&#45;&gt;Node46</title>
<path fill="none" stroke="midnightblue" d="M696.079,-346.5C706.674,-346.5 717.837,-346.5 728.695,-346.5"/>
<polygon fill="midnightblue" stroke="midnightblue" points="728.984,-350 738.984,-346.5 728.984,-343 728.984,-350"/>
</g>
<!-- Node7 -->
<g id="node7" class="node"><title>Node7</title>
<g id="a_node7"><a xlink:href="$namespaceAP__HAL.html#a71832f03d849a0c088f04fc98d3c8143" xlink:title="AP_HAL::panic">
<polygon fill="white" stroke="black" points="920,-196 920,-215 1004,-215 1004,-196 920,-196"/>
<text text-anchor="middle" x="962" y="-203" font-family="Helvetica,sans-Serif" font-size="10.00">AP_HAL::panic</text>
</a>
</g>
</g>
<!-- Node6&#45;&gt;Node7 -->
<g id="edge6" class="edge"><title>Node6&#45;&gt;Node7</title>
<path fill="none" stroke="midnightblue" d="M844.261,-87.0603C849.938,-89.52 855.358,-92.6123 860,-96.5 887.123,-119.217 871.741,-141.746 896,-167.5 905.103,-177.164 917.214,-185.141 928.513,-191.248"/>
<polygon fill="midnightblue" stroke="midnightblue" points="927.229,-194.522 937.729,-195.935 930.402,-188.282 927.229,-194.522"/>
</g>
<!-- Node6&#45;&gt;Node13 -->
<g id="edge12" class="edge"><title>Node6&#45;&gt;Node13</title>
<path fill="none" stroke="midnightblue" d="M850.246,-77.5C862.202,-77.5 875.091,-77.5 887.703,-77.5"/>
<polygon fill="midnightblue" stroke="midnightblue" points="887.734,-81.0001 897.734,-77.5 887.734,-74.0001 887.734,-81.0001"/>
</g>
<!-- Node22 -->
<g id="node22" class="node"><title>Node22</title>
<g id="a_node22"><a xlink:href="$classLinux_1_1Scheduler.html#a163eb7b285c95b1b1d036fc61d723910" xlink:title="Linux::Scheduler::\l_debug_stack">
<polygon fill="white" stroke="black" points="914.5,-0.5 914.5,-30.5 1009.5,-30.5 1009.5,-0.5 914.5,-0.5"/>
<text text-anchor="start" x="922.5" y="-18.5" font-family="Helvetica,sans-Serif" font-size="10.00">Linux::Scheduler::</text>
<text text-anchor="middle" x="962" y="-7.5" font-family="Helvetica,sans-Serif" font-size="10.00">_debug_stack</text>
</a>
</g>
</g>
<!-- Node6&#45;&gt;Node22 -->
<g id="edge21" class="edge"><title>Node6&#45;&gt;Node22</title>
<path fill="none" stroke="midnightblue" d="M822.266,-67.9484C845.918,-59.0066 881.923,-45.3951 911.325,-34.2794"/>
<polygon fill="midnightblue" stroke="midnightblue" points="912.9,-37.4259 921.016,-30.6158 910.425,-30.8782 912.9,-37.4259"/>
</g>
<!-- Node8 -->
<g id="node8" class="node"><title>Node8</title>
<g id="a_node8"><a xlink:href="$classAP__HAL_1_1RCInput.html#a2bea13d38f2b9ae8bf5193a3a69f0a31" xlink:title="AP_HAL::RCInput::teardown">
<polygon fill="white" stroke="black" points="1064,-196 1064,-215 1207,-215 1207,-196 1064,-196"/>
<text text-anchor="middle" x="1135.5" y="-203" font-family="Helvetica,sans-Serif" font-size="10.00">AP_HAL::RCInput::teardown</text>
</a>
</g>
</g>
<!-- Node7&#45;&gt;Node8 -->
<g id="edge7" class="edge"><title>Node7&#45;&gt;Node8</title>
<path fill="none" stroke="midnightblue" d="M1004.08,-205.5C1019.07,-205.5 1036.59,-205.5 1053.84,-205.5"/>
<polygon fill="midnightblue" stroke="midnightblue" points="1053.94,-209 1063.94,-205.5 1053.94,-202 1053.94,-209"/>
</g>
<!-- Node12 -->
<g id="node12" class="node"><title>Node12</title>
<g id="a_node12"><a xlink:href="$classAP__HAL_1_1Scheduler.html#a78c4f1b1f192ac1c99544b6cc8f099b0" xlink:title="AP_HAL::Scheduler::\ldelay_microseconds">
<polygon fill="white" stroke="black" points="1249,-288.5 1249,-318.5 1359,-318.5 1359,-288.5 1249,-288.5"/>
<text text-anchor="start" x="1257" y="-306.5" font-family="Helvetica,sans-Serif" font-size="10.00">AP_HAL::Scheduler::</text>
<text text-anchor="middle" x="1304" y="-295.5" font-family="Helvetica,sans-Serif" font-size="10.00">delay_microseconds</text>
</a>
</g>
</g>
<!-- Node7&#45;&gt;Node12 -->
<g id="edge11" class="edge"><title>Node7&#45;&gt;Node12</title>
<path fill="none" stroke="midnightblue" d="M996.22,-215.075C1052.87,-231.405 1169.02,-264.884 1241.03,-285.638"/>
<polygon fill="midnightblue" stroke="midnightblue" points="1240.31,-289.072 1250.89,-288.479 1242.25,-282.346 1240.31,-289.072"/>
</g>
<!-- Node9 -->
<g id="node9" class="node"><title>Node9</title>
<g id="a_node9"><a xlink:href="$classAP__HAL_1_1RCInput.html#aee1fade33080edef83dd7db0fad0f7da" xlink:title="AP_HAL::RCInput::new\l_input">
<polygon fill="white" stroke="black" points="1243,-239.5 1243,-269.5 1365,-269.5 1365,-239.5 1243,-239.5"/>
<text text-anchor="start" x="1251" y="-257.5" font-family="Helvetica,sans-Serif" font-size="10.00">AP_HAL::RCInput::new</text>
<text text-anchor="middle" x="1304" y="-246.5" font-family="Helvetica,sans-Serif" font-size="10.00">_input</text>
</a>
</g>
</g>
<!-- Node8&#45;&gt;Node9 -->
<g id="edge8" class="edge"><title>Node8&#45;&gt;Node9</title>
<path fill="none" stroke="midnightblue" d="M1169,-215.064C1189.8,-221.186 1217.44,-229.321 1242.21,-236.611"/>
<polygon fill="midnightblue" stroke="midnightblue" points="1241.32,-239.997 1251.91,-239.463 1243.3,-233.282 1241.32,-239.997"/>
</g>
<!-- Node10 -->
<g id="node10" class="node"><title>Node10</title>
<g id="a_node10"><a xlink:href="$classAP__HAL_1_1RCInput.html#ae55f959c6115c1f41783af3a2b6c4fcd" xlink:title="AP_HAL::RCInput::num\l_channels">
<polygon fill="white" stroke="black" points="1243,-190.5 1243,-220.5 1365,-220.5 1365,-190.5 1243,-190.5"/>
<text text-anchor="start" x="1251" y="-208.5" font-family="Helvetica,sans-Serif" font-size="10.00">AP_HAL::RCInput::num</text>
<text text-anchor="middle" x="1304" y="-197.5" font-family="Helvetica,sans-Serif" font-size="10.00">_channels</text>
</a>
</g>
</g>
<!-- Node8&#45;&gt;Node10 -->
<g id="edge9" class="edge"><title>Node8&#45;&gt;Node10</title>
<path fill="none" stroke="midnightblue" d="M1207.11,-205.5C1215.55,-205.5 1224.18,-205.5 1232.62,-205.5"/>
<polygon fill="midnightblue" stroke="midnightblue" points="1232.8,-209 1242.8,-205.5 1232.8,-202 1232.8,-209"/>
</g>
<!-- Node11 -->
<g id="node11" class="node"><title>Node11</title>
<g id="a_node11"><a xlink:href="$classAP__HAL_1_1RCInput.html#a078fd7e6d2e6a899009ec674a8e03498" xlink:title="AP_HAL::RCInput::read">
<polygon fill="white" stroke="black" points="1243,-152 1243,-171 1365,-171 1365,-152 1243,-152"/>
<text text-anchor="middle" x="1304" y="-159" font-family="Helvetica,sans-Serif" font-size="10.00">AP_HAL::RCInput::read</text>
</a>
</g>
</g>
<!-- Node8&#45;&gt;Node11 -->
<g id="edge10" class="edge"><title>Node8&#45;&gt;Node11</title>
<path fill="none" stroke="midnightblue" d="M1172.63,-195.953C1197.39,-189.408 1230.45,-180.672 1257.08,-173.635"/>
<polygon fill="midnightblue" stroke="midnightblue" points="1258.17,-176.968 1266.94,-171.029 1256.38,-170.2 1258.17,-176.968"/>
</g>
<!-- Node14 -->
<g id="node14" class="node"><title>Node14</title>
<g id="a_node14"><a xlink:href="$classAP__HAL_1_1UARTDriver.html#a6ceedc792594e59fc7d80b39a435f027" xlink:title="AP_HAL::UARTDriver\l::printf">
<polygon fill="white" stroke="black" points="1078,-102.5 1078,-132.5 1193,-132.5 1193,-102.5 1078,-102.5"/>
<text text-anchor="start" x="1086" y="-120.5" font-family="Helvetica,sans-Serif" font-size="10.00">AP_HAL::UARTDriver</text>
<text text-anchor="middle" x="1135.5" y="-109.5" font-family="Helvetica,sans-Serif" font-size="10.00">::printf</text>
</a>
</g>
</g>
<!-- Node13&#45;&gt;Node14 -->
<g id="edge13" class="edge"><title>Node13&#45;&gt;Node14</title>
<path fill="none" stroke="midnightblue" d="M1026.37,-92.2809C1039.96,-95.4506 1054.36,-98.8084 1068.06,-102.004"/>
<polygon fill="midnightblue" stroke="midnightblue" points="1067.36,-105.435 1077.9,-104.298 1068.95,-98.6179 1067.36,-105.435"/>
</g>
<!-- Node15 -->
<g id="node15" class="node"><title>Node15</title>
<g id="a_node15"><a xlink:href="$classAP__HAL_1_1UARTDriver.html#aa8abfb6d6641299472c29ac1edde559f" xlink:title="AP_HAL::UARTDriver\l::vprintf">
<polygon fill="white" stroke="black" points="1246.5,-102.5 1246.5,-132.5 1361.5,-132.5 1361.5,-102.5 1246.5,-102.5"/>
<text text-anchor="start" x="1254.5" y="-120.5" font-family="Helvetica,sans-Serif" font-size="10.00">AP_HAL::UARTDriver</text>
<text text-anchor="middle" x="1304" y="-109.5" font-family="Helvetica,sans-Serif" font-size="10.00">::vprintf</text>
</a>
</g>
</g>
<!-- Node14&#45;&gt;Node15 -->
<g id="edge14" class="edge"><title>Node14&#45;&gt;Node15</title>
<path fill="none" stroke="midnightblue" d="M1193.33,-117.5C1207.13,-117.5 1222.01,-117.5 1236.22,-117.5"/>
<polygon fill="midnightblue" stroke="midnightblue" points="1236.42,-121 1246.42,-117.5 1236.42,-114 1236.42,-121"/>
</g>
<!-- Node16 -->
<g id="node16" class="node"><title>Node16</title>
<g id="a_node16"><a xlink:href="$print__vprintf_8cpp.html#a1534eaeab54696df96975b56d9f49212" xlink:title="print_vprintf">
<polygon fill="white" stroke="black" points="1432,-114 1432,-133 1500,-133 1500,-114 1432,-114"/>
<text text-anchor="middle" x="1466" y="-121" font-family="Helvetica,sans-Serif" font-size="10.00">print_vprintf</text>
</a>
</g>
</g>
<!-- Node15&#45;&gt;Node16 -->
<g id="edge15" class="edge"><title>Node15&#45;&gt;Node16</title>
<path fill="none" stroke="midnightblue" d="M1361.86,-119.632C1381.47,-120.368 1403.12,-121.179 1421.49,-121.868"/>
<polygon fill="midnightblue" stroke="midnightblue" points="1421.49,-125.371 1431.61,-122.248 1421.75,-118.376 1421.49,-125.371"/>
</g>
<!-- Node17 -->
<g id="node17" class="node"><title>Node17</title>
<g id="a_node17"><a xlink:href="$classAP__HAL_1_1Print.html#acc65391952a43334f8f5c9bef341f501" xlink:title="AP_HAL::Print::write">
<polygon fill="white" stroke="black" points="1584.5,-44 1584.5,-63 1692.5,-63 1692.5,-44 1584.5,-44"/>
<text text-anchor="middle" x="1638.5" y="-51" font-family="Helvetica,sans-Serif" font-size="10.00">AP_HAL::Print::write</text>
</a>
</g>
</g>
<!-- Node16&#45;&gt;Node17 -->
<g id="edge16" class="edge"><title>Node16&#45;&gt;Node17</title>
<path fill="none" stroke="midnightblue" d="M1483.15,-113.932C1502.53,-102.768 1536.26,-84.3312 1567,-72.5 1573.28,-70.083 1579.99,-67.8516 1586.67,-65.8325"/>
<polygon fill="midnightblue" stroke="midnightblue" points="1587.76,-69.1612 1596.4,-63.0296 1585.82,-62.4348 1587.76,-69.1612"/>
</g>
<!-- Node18 -->
<g id="node18" class="node"><title>Node18</title>
<g id="a_node18"><a xlink:href="$ftoa__engine_8cpp.html#a1c28234da8f20b43c85890d4bb452947" xlink:title="ftoa_engine">
<polygon fill="white" stroke="black" points="1605,-196 1605,-215 1672,-215 1672,-196 1605,-196"/>
<text text-anchor="middle" x="1638.5" y="-203" font-family="Helvetica,sans-Serif" font-size="10.00">ftoa_engine</text>
</a>
</g>
</g>
<!-- Node16&#45;&gt;Node18 -->
<g id="edge17" class="edge"><title>Node16&#45;&gt;Node18</title>
<path fill="none" stroke="midnightblue" d="M1479.57,-133.172C1497.87,-146.837 1533.35,-171.768 1567,-186.5 1575.78,-190.346 1585.53,-193.578 1594.91,-196.223"/>
<polygon fill="midnightblue" stroke="midnightblue" points="1594.31,-199.685 1604.87,-198.864 1596.1,-192.919 1594.31,-199.685"/>
</g>
<!-- Node19 -->
<g id="node19" class="node"><title>Node19</title>
<g id="a_node19"><a xlink:href="$replace_8cpp.html#a880bcc7b85a09e6254691bebd5344b51" xlink:title="strnlen">
<polygon fill="white" stroke="black" points="1615.5,-158 1615.5,-177 1661.5,-177 1661.5,-158 1615.5,-158"/>
<text text-anchor="middle" x="1638.5" y="-165" font-family="Helvetica,sans-Serif" font-size="10.00">strnlen</text>
</a>
</g>
</g>
<!-- Node16&#45;&gt;Node19 -->
<g id="edge18" class="edge"><title>Node16&#45;&gt;Node19</title>
<path fill="none" stroke="midnightblue" d="M1500.28,-132.088C1530.71,-139.941 1575.42,-151.479 1605.45,-159.23"/>
<polygon fill="midnightblue" stroke="midnightblue" points="1604.86,-162.692 1615.42,-161.801 1606.61,-155.914 1604.86,-162.692"/>
</g>
<!-- Node20 -->
<g id="node20" class="node"><title>Node20</title>
<g id="a_node20"><a xlink:href="$utoa__invert_8cpp.html#a34926f552460b47c414ec4d83b32815c" xlink:title="ulltoa_invert">
<polygon fill="white" stroke="black" points="1604,-120 1604,-139 1673,-139 1673,-120 1604,-120"/>
<text text-anchor="middle" x="1638.5" y="-127" font-family="Helvetica,sans-Serif" font-size="10.00">ulltoa_invert</text>
</a>
</g>
</g>
<!-- Node16&#45;&gt;Node20 -->
<g id="edge19" class="edge"><title>Node16&#45;&gt;Node20</title>
<path fill="none" stroke="midnightblue" d="M1500.28,-124.671C1526.86,-125.607 1564.35,-126.926 1593.43,-127.949"/>
<polygon fill="midnightblue" stroke="midnightblue" points="1593.61,-131.457 1603.72,-128.311 1593.85,-124.462 1593.61,-131.457"/>
</g>
<!-- Node21 -->
<g id="node21" class="node"><title>Node21</title>
<g id="a_node21"><a xlink:href="$utoa__invert_8cpp.html#a5d99bba8e697c1e11da489d88fca8559" xlink:title="ultoa_invert">
<polygon fill="white" stroke="black" points="1605,-82 1605,-101 1672,-101 1672,-82 1605,-82"/>
<text text-anchor="middle" x="1638.5" y="-89" font-family="Helvetica,sans-Serif" font-size="10.00">ultoa_invert</text>
</a>
</g>
</g>
<!-- Node16&#45;&gt;Node21 -->
<g id="edge20" class="edge"><title>Node16&#45;&gt;Node21</title>
<path fill="none" stroke="midnightblue" d="M1500.28,-117.254C1527.33,-112.178 1565.66,-104.983 1594.94,-99.488"/>
<polygon fill="midnightblue" stroke="midnightblue" points="1595.7,-102.906 1604.88,-97.6214 1594.41,-96.0262 1595.7,-102.906"/>
</g>
<!-- Node22&#45;&gt;Node4 -->
<g id="edge22" class="edge"><title>Node22&#45;&gt;Node4</title>
<path fill="none" stroke="midnightblue" d="M914.308,-6.62654C864.886,0.132112 786.627,3.06017 732,-32.5 575.631,-134.291 516.812,-377.622 502.63,-448.692"/>
<polygon fill="midnightblue" stroke="midnightblue" points="499.117,-448.425 500.667,-458.906 505.991,-449.746 499.117,-448.425"/>
</g>
<!-- Node23 -->
<g id="node23" class="node"><title>Node23</title>
<g id="a_node23"><a xlink:href="$classLinux_1_1Thread.html#a6884970a0811ae21953c57fb98aa6e96" xlink:title="Linux::Thread::get\l_stack_usage">
<polygon fill="white" stroke="black" points="2054,-151.5 2054,-181.5 2149,-181.5 2149,-151.5 2054,-151.5"/>
<text text-anchor="start" x="2062" y="-169.5" font-family="Helvetica,sans-Serif" font-size="10.00">Linux::Thread::get</text>
<text text-anchor="middle" x="2101.5" y="-158.5" font-family="Helvetica,sans-Serif" font-size="10.00">_stack_usage</text>
</a>
</g>
</g>
<!-- Node22&#45;&gt;Node23 -->
<g id="edge23" class="edge"><title>Node22&#45;&gt;Node23</title>
<path fill="none" stroke="midnightblue" d="M1009.75,-15.5C1075.29,-15.5 1198.23,-15.5 1303,-15.5 1303,-15.5 1303,-15.5 1802.5,-15.5 1915.44,-15.5 2028.99,-102.874 2076.87,-144.695"/>
<polygon fill="midnightblue" stroke="midnightblue" points="2074.71,-147.452 2084.51,-151.469 2079.35,-142.215 2074.71,-147.452"/>
</g>
<!-- Node24&#45;&gt;Node4 -->
<g id="edge25" class="edge"><title>Node24&#45;&gt;Node4</title>
<path fill="none" stroke="midnightblue" d="M736.319,-636.345C690.489,-638.705 627.065,-635.128 581,-605.5 538.019,-577.855 514.417,-518.976 504.573,-488.187"/>
<polygon fill="midnightblue" stroke="midnightblue" points="507.805,-486.782 501.558,-478.225 501.105,-488.81 507.805,-486.782"/>
</g>
<!-- Node25 -->
<g id="node25" class="node"><title>Node25</title>
<g id="a_node25"><a xlink:href="$classLinux_1_1Scheduler.html#a647872aff158b510c56862f51f951538" xlink:title="Linux::Scheduler::microsleep">
<polygon fill="white" stroke="black" points="1567,-544 1567,-563 1710,-563 1710,-544 1567,-544"/>
<text text-anchor="middle" x="1638.5" y="-551" font-family="Helvetica,sans-Serif" font-size="10.00">Linux::Scheduler::microsleep</text>
</a>
</g>
</g>
<!-- Node24&#45;&gt;Node25 -->
<g id="edge26" class="edge"><title>Node24&#45;&gt;Node25</title>
<path fill="none" stroke="midnightblue" d="M855.532,-629.5C922.839,-629.5 1036.65,-629.5 1134.5,-629.5 1134.5,-629.5 1134.5,-629.5 1305,-629.5 1416.39,-629.5 1543.62,-588.462 1603.26,-566.697"/>
<polygon fill="midnightblue" stroke="midnightblue" points="1604.75,-569.878 1612.91,-563.125 1602.32,-563.312 1604.75,-569.878"/>
</g>
<!-- Node26&#45;&gt;Node25 -->
<g id="edge28" class="edge"><title>Node26&#45;&gt;Node25</title>
<path fill="none" stroke="midnightblue" d="M1525.68,-553.5C1535.75,-553.5 1546.37,-553.5 1556.9,-553.5"/>
<polygon fill="midnightblue" stroke="midnightblue" points="1556.95,-557 1566.95,-553.5 1556.95,-550 1556.95,-557"/>
</g>
<!-- Node28&#45;&gt;Node14 -->
<g id="edge32" class="edge"><title>Node28&#45;&gt;Node14</title>
<path fill="none" stroke="midnightblue" d="M1026.37,-133.892C1039.83,-131.852 1054.08,-129.692 1067.66,-127.633"/>
<polygon fill="midnightblue" stroke="midnightblue" points="1068.53,-131.041 1077.9,-126.081 1067.48,-124.12 1068.53,-131.041"/>
</g>
<!-- Node30 -->
<g id="node30" class="node"><title>Node30</title>
<g id="a_node30"><a xlink:href="$classLinux_1_1Semaphore.html#afc4c8706abb7e68aa4001ea372dc614e" xlink:title="Linux::Semaphore::take">
<polygon fill="white" stroke="black" points="1075.5,-341 1075.5,-360 1195.5,-360 1195.5,-341 1075.5,-341"/>
<text text-anchor="middle" x="1135.5" y="-348" font-family="Helvetica,sans-Serif" font-size="10.00">Linux::Semaphore::take</text>
</a>
</g>
</g>
<!-- Node29&#45;&gt;Node30 -->
<g id="edge34" class="edge"><title>Node29&#45;&gt;Node30</title>
<path fill="none" stroke="midnightblue" d="M1014.46,-315.502C1039.23,-322.725 1068.58,-331.282 1092.06,-338.127"/>
<polygon fill="midnightblue" stroke="midnightblue" points="1091.15,-341.508 1101.73,-340.947 1093.11,-334.788 1091.15,-341.508"/>
</g>
<!-- Node30&#45;&gt;Node12 -->
<g id="edge46" class="edge"><title>Node30&#45;&gt;Node12</title>
<path fill="none" stroke="midnightblue" d="M1170.19,-340.989C1190.24,-335.331 1216.31,-327.972 1240.04,-321.274"/>
<polygon fill="midnightblue" stroke="midnightblue" points="1241.02,-324.634 1249.69,-318.549 1239.11,-317.897 1241.02,-324.634"/>
</g>
<!-- Node31 -->
<g id="node31" class="node"><title>Node31</title>
<g id="a_node31"><a xlink:href="$classLinux_1_1Semaphore.html#a561b4f40f3a76335f1a686c2aed526f9" xlink:title="Linux::Semaphore::take\l_nonblocking">
<polygon fill="white" stroke="black" points="1244,-337.5 1244,-367.5 1364,-367.5 1364,-337.5 1244,-337.5"/>
<text text-anchor="start" x="1252" y="-355.5" font-family="Helvetica,sans-Serif" font-size="10.00">Linux::Semaphore::take</text>
<text text-anchor="middle" x="1304" y="-344.5" font-family="Helvetica,sans-Serif" font-size="10.00">_nonblocking</text>
</a>
</g>
</g>
<!-- Node30&#45;&gt;Node31 -->
<g id="edge35" class="edge"><title>Node30&#45;&gt;Node31</title>
<path fill="none" stroke="midnightblue" d="M1195.67,-351.211C1207.99,-351.359 1221.07,-351.516 1233.72,-351.668"/>
<polygon fill="midnightblue" stroke="midnightblue" points="1233.7,-355.168 1243.74,-351.788 1233.78,-348.168 1233.7,-355.168"/>
</g>
<!-- Node32 -->
<g id="node32" class="node"><title>Node32</title>
<g id="a_node32"><a xlink:href="$namespaceAP__HAL.html#a7aa0ce7625c9680e30ff4a99940907a5" xlink:title="AP_HAL::micros64">
<polygon fill="white" stroke="black" points="1253.5,-468 1253.5,-487 1354.5,-487 1354.5,-468 1253.5,-468"/>
<text text-anchor="middle" x="1304" y="-475" font-family="Helvetica,sans-Serif" font-size="10.00">AP_HAL::micros64</text>
</a>
</g>
</g>
<!-- Node30&#45;&gt;Node32 -->
<g id="edge36" class="edge"><title>Node30&#45;&gt;Node32</title>
<path fill="none" stroke="midnightblue" d="M1154.76,-360.139C1169.35,-368.13 1190.09,-380.145 1207,-392.5 1236.44,-414.007 1267.5,-442.782 1286.06,-460.725"/>
<polygon fill="midnightblue" stroke="midnightblue" points="1283.83,-463.441 1293.43,-467.92 1288.72,-458.431 1283.83,-463.441"/>
</g>
<!-- Node32&#45;&gt;Node5 -->
<g id="edge37" class="edge"><title>Node32&#45;&gt;Node5</title>
<path fill="none" stroke="midnightblue" d="M1253.15,-485.837C1150.24,-500.659 909.118,-522.912 732,-441.5 695.785,-424.854 666.244,-387.268 650.916,-364.682"/>
<polygon fill="midnightblue" stroke="midnightblue" points="653.823,-362.733 645.409,-356.294 647.972,-366.574 653.823,-362.733"/>
</g>
<!-- Node32&#45;&gt;Node33 -->
<g id="edge38" class="edge"><title>Node32&#45;&gt;Node33</title>
<path fill="none" stroke="midnightblue" d="M1354.75,-481.542C1366.14,-482.468 1378.5,-483.472 1390.68,-484.461"/>
<polygon fill="midnightblue" stroke="midnightblue" points="1390.59,-487.966 1400.84,-485.287 1391.16,-480.989 1390.59,-487.966"/>
</g>
<!-- Node33&#45;&gt;Node25 -->
<g id="edge39" class="edge"><title>Node33&#45;&gt;Node25</title>
<path fill="none" stroke="midnightblue" d="M1507.84,-505.59C1536.53,-516.192 1574.53,-530.234 1601.97,-540.372"/>
<polygon fill="midnightblue" stroke="midnightblue" points="1600.97,-543.734 1611.57,-543.917 1603.4,-537.168 1600.97,-543.734"/>
</g>
<!-- Node34 -->
<g id="node34" class="node"><title>Node34</title>
<g id="a_node34"><a xlink:href="$classLinux_1_1Scheduler.html#ab373a83d818679432520ea881044b2a7" xlink:title="Linux::Scheduler::teardown">
<polygon fill="white" stroke="black" points="1571,-357 1571,-376 1706,-376 1706,-357 1571,-357"/>
<text text-anchor="middle" x="1638.5" y="-364" font-family="Helvetica,sans-Serif" font-size="10.00">Linux::Scheduler::teardown</text>
</a>
</g>
</g>
<!-- Node33&#45;&gt;Node34 -->
<g id="edge40" class="edge"><title>Node33&#45;&gt;Node34</title>
<path fill="none" stroke="midnightblue" d="M1487.91,-475.295C1520.42,-451.65 1582.78,-406.295 1615.78,-382.294"/>
<polygon fill="midnightblue" stroke="midnightblue" points="1618.23,-384.839 1624.26,-376.127 1614.12,-379.178 1618.23,-384.839"/>
</g>
<!-- Node35 -->
<g id="node35" class="node"><title>Node35</title>
<g id="a_node35"><a xlink:href="$classLinux_1_1PeriodicThread.html#a136aaf6e713f63b246fc4a2905e6e9a1" xlink:title="Linux::PeriodicThread\l::stop">
<polygon fill="white" stroke="black" points="1746,-351.5 1746,-381.5 1857,-381.5 1857,-351.5 1746,-351.5"/>
<text text-anchor="start" x="1754" y="-369.5" font-family="Helvetica,sans-Serif" font-size="10.00">Linux::PeriodicThread</text>
<text text-anchor="middle" x="1801.5" y="-358.5" font-family="Helvetica,sans-Serif" font-size="10.00">::stop</text>
</a>
</g>
</g>
<!-- Node34&#45;&gt;Node35 -->
<g id="edge41" class="edge"><title>Node34&#45;&gt;Node35</title>
<path fill="none" stroke="midnightblue" d="M1706.38,-366.5C1716.02,-366.5 1725.94,-366.5 1735.54,-366.5"/>
<polygon fill="midnightblue" stroke="midnightblue" points="1735.82,-370 1745.82,-366.5 1735.82,-363 1735.82,-370"/>
</g>
<!-- Node38 -->
<g id="node38" class="node"><title>Node38</title>
<g id="a_node38"><a xlink:href="$classLinux_1_1Thread.html#a32b7d184279634922e2f3b23b584fbcd" xlink:title="Linux::Thread::join">
<polygon fill="white" stroke="black" points="1753,-313 1753,-332 1850,-332 1850,-313 1753,-313"/>
<text text-anchor="middle" x="1801.5" y="-320" font-family="Helvetica,sans-Serif" font-size="10.00">Linux::Thread::join</text>
</a>
</g>
</g>
<!-- Node34&#45;&gt;Node38 -->
<g id="edge45" class="edge"><title>Node34&#45;&gt;Node38</title>
<path fill="none" stroke="midnightblue" d="M1674.43,-356.953C1698.28,-350.437 1730.07,-341.749 1755.76,-334.728"/>
<polygon fill="midnightblue" stroke="midnightblue" points="1756.91,-338.041 1765.63,-332.029 1755.06,-331.289 1756.91,-338.041"/>
</g>
<!-- Node36 -->
<g id="node36" class="node"><title>Node36</title>
<g id="a_node36"><a xlink:href="$classLinux_1_1Thread.html#a240d7b48a9a8eb43638f67295a1819e5" xlink:title="Linux::Thread::is_started">
<polygon fill="white" stroke="black" points="1893,-281 1893,-300 2018,-300 2018,-281 1893,-281"/>
<text text-anchor="middle" x="1955.5" y="-288" font-family="Helvetica,sans-Serif" font-size="10.00">Linux::Thread::is_started</text>
</a>
</g>
</g>
<!-- Node35&#45;&gt;Node36 -->
<g id="edge42" class="edge"><title>Node35&#45;&gt;Node36</title>
<path fill="none" stroke="midnightblue" d="M1836.06,-351.436C1843.02,-348.222 1850.27,-344.801 1857,-341.5 1881.17,-329.644 1908.28,-315.385 1927.77,-304.962"/>
<polygon fill="midnightblue" stroke="midnightblue" points="1929.52,-307.994 1936.67,-300.18 1926.21,-301.826 1929.52,-307.994"/>
</g>
<!-- Node36&#45;&gt;Node23 -->
<g id="edge43" class="edge"><title>Node36&#45;&gt;Node23</title>
<path fill="none" stroke="midnightblue" d="M1967.8,-280.77C1990.68,-261.064 2043.02,-215.996 2074.7,-188.717"/>
<polygon fill="midnightblue" stroke="midnightblue" points="2077.37,-191.038 2082.66,-181.86 2072.8,-185.733 2077.37,-191.038"/>
</g>
<!-- Node37 -->
<g id="node37" class="node"><title>Node37</title>
<g id="a_node37"><a xlink:href="$classLinux_1_1Thread.html#a8d3282b714faaf68eae534e9276419f0" xlink:title="Linux::Thread::set\l_stack_size">
<polygon fill="white" stroke="black" points="2054,-275.5 2054,-305.5 2149,-305.5 2149,-275.5 2054,-275.5"/>
<text text-anchor="start" x="2062" y="-293.5" font-family="Helvetica,sans-Serif" font-size="10.00">Linux::Thread::set</text>
<text text-anchor="middle" x="2101.5" y="-282.5" font-family="Helvetica,sans-Serif" font-size="10.00">_stack_size</text>
</a>
</g>
</g>
<!-- Node36&#45;&gt;Node37 -->
<g id="edge44" class="edge"><title>Node36&#45;&gt;Node37</title>
<path fill="none" stroke="midnightblue" d="M2018.4,-290.5C2026.86,-290.5 2035.5,-290.5 2043.86,-290.5"/>
<polygon fill="midnightblue" stroke="midnightblue" points="2043.87,-294 2053.87,-290.5 2043.87,-287 2043.87,-294"/>
</g>
<!-- Node40 -->
<g id="node40" class="node"><title>Node40</title>
<g id="a_node40"><a xlink:href="$classLinux_1_1Semaphore.html#a216f91636f64b57b59d43ef64af91624" xlink:title="Linux::Semaphore::give">
<polygon fill="white" stroke="black" points="1076,-402 1076,-421 1195,-421 1195,-402 1076,-402"/>
<text text-anchor="middle" x="1135.5" y="-409" font-family="Helvetica,sans-Serif" font-size="10.00">Linux::Semaphore::give</text>
</a>
</g>
</g>
<!-- Node39&#45;&gt;Node40 -->
<g id="edge48" class="edge"><title>Node39&#45;&gt;Node40</title>
<path fill="none" stroke="midnightblue" d="M1026.37,-414.652C1039.17,-414.279 1052.69,-413.885 1065.66,-413.507"/>
<polygon fill="midnightblue" stroke="midnightblue" points="1066.04,-416.998 1075.93,-413.208 1065.83,-410.001 1066.04,-416.998"/>
</g>
<!-- Node43&#45;&gt;Node7 -->
<g id="edge52" class="edge"><title>Node43&#45;&gt;Node7</title>
<path fill="none" stroke="midnightblue" d="M860.407,-207.953C876.518,-207.561 893.641,-207.143 909.105,-206.766"/>
<polygon fill="midnightblue" stroke="midnightblue" points="909.602,-210.255 919.513,-206.512 909.431,-203.257 909.602,-210.255"/>
</g>
<!-- Node44 -->
<g id="node44" class="node"><title>Node44</title>
<g id="a_node44"><a xlink:href="$classLinux_1_1Scheduler.html#ac52c8da3f1f4fd79c50bd64379daf399" xlink:title="Linux::Scheduler::\l_wait_all_threads">
<polygon fill="white" stroke="black" points="914.5,-234.5 914.5,-264.5 1009.5,-264.5 1009.5,-234.5 914.5,-234.5"/>
<text text-anchor="start" x="922.5" y="-252.5" font-family="Helvetica,sans-Serif" font-size="10.00">Linux::Scheduler::</text>
<text text-anchor="middle" x="962" y="-241.5" font-family="Helvetica,sans-Serif" font-size="10.00">_wait_all_threads</text>
</a>
</g>
</g>
<!-- Node43&#45;&gt;Node44 -->
<g id="edge53" class="edge"><title>Node43&#45;&gt;Node44</title>
<path fill="none" stroke="midnightblue" d="M858.534,-224.508C873.525,-228.165 889.491,-232.059 904.249,-235.658"/>
<polygon fill="midnightblue" stroke="midnightblue" points="903.7,-239.127 914.245,-238.096 905.359,-232.326 903.7,-239.127"/>
</g>
<!-- Node47 -->
<g id="node47" class="node"><title>Node47</title>
<g id="a_node47"><a xlink:href="$classLinux_1_1Scheduler.html#a70b024d7d0886bf47b46cc3ee310d638" xlink:title="Linux::Scheduler::\l_run_io">
<polygon fill="white" stroke="black" points="914.5,-335.5 914.5,-365.5 1009.5,-365.5 1009.5,-335.5 914.5,-335.5"/>
<text text-anchor="start" x="922.5" y="-353.5" font-family="Helvetica,sans-Serif" font-size="10.00">Linux::Scheduler::</text>
<text text-anchor="middle" x="962" y="-342.5" font-family="Helvetica,sans-Serif" font-size="10.00">_run_io</text>
</a>
</g>
</g>
<!-- Node46&#45;&gt;Node47 -->
<g id="edge56" class="edge"><title>Node46&#45;&gt;Node47</title>
<path fill="none" stroke="midnightblue" d="M853.439,-347.877C869.86,-348.277 887.799,-348.715 904.239,-349.116"/>
<polygon fill="midnightblue" stroke="midnightblue" points="904.172,-352.615 914.255,-349.36 904.343,-345.617 904.172,-352.615"/>
</g>
<!-- Node47&#45;&gt;Node30 -->
<g id="edge57" class="edge"><title>Node47&#45;&gt;Node30</title>
<path fill="none" stroke="midnightblue" d="M1009.86,-350.5C1026.93,-350.5 1046.61,-350.5 1065.22,-350.5"/>
<polygon fill="midnightblue" stroke="midnightblue" points="1065.42,-354 1075.42,-350.5 1065.42,-347 1065.42,-354"/>
</g>
<!-- Node47&#45;&gt;Node40 -->
<g id="edge58" class="edge"><title>Node47&#45;&gt;Node40</title>
<path fill="none" stroke="midnightblue" d="M1005.39,-365.579C1033.84,-375.697 1070.92,-388.887 1098.05,-398.534"/>
<polygon fill="midnightblue" stroke="midnightblue" points="1096.96,-401.862 1107.55,-401.915 1099.3,-395.266 1096.96,-401.862"/>
</g>
</g>
</svg>
