<?xml version="1.0" encoding="UTF-8" standalone="no"?>
<!DOCTYPE svg PUBLIC "-//W3C//DTD SVG 1.1//EN"
 "http://www.w3.org/Graphics/SVG/1.1/DTD/svg11.dtd">
<!-- Generated by graphviz version 2.38.0 (20140413.2041)
 -->
<!-- Title: AC_AttitudeControl::update_ang_vel_target_from_att_error Pages: 1 -->
<svg width="1702pt" height="614pt"
 viewBox="0.00 0.00 1702.00 613.84" xmlns="http://www.w3.org/2000/svg" xmlns:xlink="http://www.w3.org/1999/xlink">
<g id="graph0" class="graph" transform="scale(1 1) rotate(0) translate(4 609.841)">
<title>AC_AttitudeControl::update_ang_vel_target_from_att_error</title>
<polygon fill="white" stroke="none" points="-4,4 -4,-609.841 1698,-609.841 1698,4 -4,4"/>
<!-- Node1 -->
<g id="node1" class="node"><title>Node1</title>
<polygon fill="#bfbfbf" stroke="black" points="0,-134 0,-175 121,-175 121,-134 0,-134"/>
<text text-anchor="start" x="8" y="-163" font-family="Helvetica,sans-Serif" font-size="10.00">AC_AttitudeControl</text>
<text text-anchor="start" x="8" y="-152" font-family="Helvetica,sans-Serif" font-size="10.00">::update_ang_vel_target</text>
<text text-anchor="middle" x="60.5" y="-141" font-family="Helvetica,sans-Serif" font-size="10.00">_from_att_error</text>
</g>
<!-- Node2 -->
<g id="node2" class="node"><title>Node2</title>
<g id="a_node2"><a xlink:href="$classAC__AttitudeControl.html#a7b9cf8568575052931b43054717b4f87" xlink:title="AC_AttitudeControl\l::attitude_controller\l_run_quat">
<polygon fill="white" stroke="black" points="162.5,-191 162.5,-232 263.5,-232 263.5,-191 162.5,-191"/>
<text text-anchor="start" x="170.5" y="-220" font-family="Helvetica,sans-Serif" font-size="10.00">AC_AttitudeControl</text>
<text text-anchor="start" x="170.5" y="-209" font-family="Helvetica,sans-Serif" font-size="10.00">::attitude_controller</text>
<text text-anchor="middle" x="213" y="-198" font-family="Helvetica,sans-Serif" font-size="10.00">_run_quat</text>
</a>
</g>
</g>
<!-- Node1&#45;&gt;Node2 -->
<g id="edge1" class="edge"><title>Node1&#45;&gt;Node2</title>
<path fill="none" stroke="midnightblue" d="M125.199,-178.625C137.584,-183.316 150.396,-188.168 162.251,-192.658"/>
<polygon fill="midnightblue" stroke="midnightblue" points="126.425,-175.347 115.834,-175.078 123.946,-181.893 126.425,-175.347"/>
</g>
<!-- Node41 -->
<g id="node41" class="node"><title>Node41</title>
<g id="a_node41"><a xlink:href="$classAC__AttitudeControl__Heli.html#a3741c5f0deabfef2c6889171b5c4a217" xlink:title="AC_AttitudeControl\l_Heli::passthrough_bf\l_roll_pitch_rate_yaw">
<polygon fill="white" stroke="black" points="157,-77 157,-118 269,-118 269,-77 157,-77"/>
<text text-anchor="start" x="165" y="-106" font-family="Helvetica,sans-Serif" font-size="10.00">AC_AttitudeControl</text>
<text text-anchor="start" x="165" y="-95" font-family="Helvetica,sans-Serif" font-size="10.00">_Heli::passthrough_bf</text>
<text text-anchor="middle" x="213" y="-84" font-family="Helvetica,sans-Serif" font-size="10.00">_roll_pitch_rate_yaw</text>
</a>
</g>
</g>
<!-- Node1&#45;&gt;Node41 -->
<g id="edge55" class="edge"><title>Node1&#45;&gt;Node41</title>
<path fill="none" stroke="midnightblue" d="M125.235,-130.361C136.054,-126.263 147.199,-122.043 157.746,-118.048"/>
<polygon fill="midnightblue" stroke="midnightblue" points="123.946,-127.107 115.834,-133.922 126.425,-133.653 123.946,-127.107"/>
</g>
<!-- Node3 -->
<g id="node3" class="node"><title>Node3</title>
<g id="a_node3"><a xlink:href="$classAC__AttitudeControl.html#a2115e6e5df7db5798f73423d5d2a5149" xlink:title="AC_AttitudeControl\l::input_angle_step_bf\l_roll_pitch_yaw">
<polygon fill="white" stroke="black" points="316,-164 316,-205 426,-205 426,-164 316,-164"/>
<text text-anchor="start" x="324" y="-193" font-family="Helvetica,sans-Serif" font-size="10.00">AC_AttitudeControl</text>
<text text-anchor="start" x="324" y="-182" font-family="Helvetica,sans-Serif" font-size="10.00">::input_angle_step_bf</text>
<text text-anchor="middle" x="371" y="-171" font-family="Helvetica,sans-Serif" font-size="10.00">_roll_pitch_yaw</text>
</a>
</g>
</g>
<!-- Node2&#45;&gt;Node3 -->
<g id="edge2" class="edge"><title>Node2&#45;&gt;Node3</title>
<path fill="none" stroke="midnightblue" d="M273.704,-201.167C287.558,-198.769 302.227,-196.23 315.827,-193.876"/>
<polygon fill="midnightblue" stroke="midnightblue" points="273.045,-197.729 263.788,-202.883 274.239,-204.626 273.045,-197.729"/>
</g>
<!-- Node5 -->
<g id="node5" class="node"><title>Node5</title>
<g id="a_node5"><a xlink:href="$classAC__AttitudeControl.html#a33492a0f71a317f64c14332075a6d3ec" xlink:title="AC_AttitudeControl\l::input_euler_angle\l_roll_pitch_euler_rate_yaw">
<polygon fill="white" stroke="black" points="305,-104 305,-145 437,-145 437,-104 305,-104"/>
<text text-anchor="start" x="313" y="-133" font-family="Helvetica,sans-Serif" font-size="10.00">AC_AttitudeControl</text>
<text text-anchor="start" x="313" y="-122" font-family="Helvetica,sans-Serif" font-size="10.00">::input_euler_angle</text>
<text text-anchor="middle" x="371" y="-111" font-family="Helvetica,sans-Serif" font-size="10.00">_roll_pitch_euler_rate_yaw</text>
</a>
</g>
</g>
<!-- Node2&#45;&gt;Node5 -->
<g id="edge4" class="edge"><title>Node2&#45;&gt;Node5</title>
<path fill="none" stroke="midnightblue" d="M253.075,-185.5C268.922,-175.36 287.57,-163.932 305,-154.5 310.903,-151.306 317.207,-148.125 323.482,-145.093"/>
<polygon fill="midnightblue" stroke="midnightblue" points="251.089,-182.617 244.585,-190.98 254.885,-188.498 251.089,-182.617"/>
</g>
<!-- Node6 -->
<g id="node6" class="node"><title>Node6</title>
<g id="a_node6"><a xlink:href="$classAC__AttitudeControl.html#aadd2cdd6b18aceaea1134d99ef870b18" xlink:title="AC_AttitudeControl\l::input_euler_angle\l_roll_pitch_yaw">
<polygon fill="white" stroke="black" points="320.5,-332 320.5,-373 421.5,-373 421.5,-332 320.5,-332"/>
<text text-anchor="start" x="328.5" y="-361" font-family="Helvetica,sans-Serif" font-size="10.00">AC_AttitudeControl</text>
<text text-anchor="start" x="328.5" y="-350" font-family="Helvetica,sans-Serif" font-size="10.00">::input_euler_angle</text>
<text text-anchor="middle" x="371" y="-339" font-family="Helvetica,sans-Serif" font-size="10.00">_roll_pitch_yaw</text>
</a>
</g>
</g>
<!-- Node2&#45;&gt;Node6 -->
<g id="edge6" class="edge"><title>Node2&#45;&gt;Node6</title>
<path fill="none" stroke="midnightblue" d="M232.506,-240.82C249.091,-265.22 275.329,-299.556 305,-322.5 309.719,-326.149 314.954,-329.485 320.345,-332.496"/>
<polygon fill="midnightblue" stroke="midnightblue" points="235.3,-238.702 226.844,-232.32 229.474,-242.583 235.3,-238.702"/>
</g>
<!-- Node7 -->
<g id="node7" class="node"><title>Node7</title>
<g id="a_node7"><a xlink:href="$classAC__AttitudeControl.html#a49cd1e5d7c1a3550080c9ccca6ce8da8" xlink:title="AC_AttitudeControl\l::input_euler_rate_roll\l_pitch_yaw">
<polygon fill="white" stroke="black" points="316,-272 316,-313 426,-313 426,-272 316,-272"/>
<text text-anchor="start" x="324" y="-301" font-family="Helvetica,sans-Serif" font-size="10.00">AC_AttitudeControl</text>
<text text-anchor="start" x="324" y="-290" font-family="Helvetica,sans-Serif" font-size="10.00">::input_euler_rate_roll</text>
<text text-anchor="middle" x="371" y="-279" font-family="Helvetica,sans-Serif" font-size="10.00">_pitch_yaw</text>
</a>
</g>
</g>
<!-- Node2&#45;&gt;Node7 -->
<g id="edge8" class="edge"><title>Node2&#45;&gt;Node7</title>
<path fill="none" stroke="midnightblue" d="M258.028,-237.09C272.821,-245.442 289.502,-254.596 305,-262.5 311.2,-265.662 317.798,-268.876 324.323,-271.969"/>
<polygon fill="midnightblue" stroke="midnightblue" points="259.512,-233.908 249.088,-232.012 256.054,-239.995 259.512,-233.908"/>
</g>
<!-- Node8 -->
<g id="node8" class="node"><title>Node8</title>
<g id="a_node8"><a xlink:href="$classAC__AttitudeControl.html#afb04b29d33ac55ff34c03e2209c61b27" xlink:title="AC_AttitudeControl\l::input_quaternion">
<polygon fill="white" stroke="black" points="320.5,-223.5 320.5,-253.5 421.5,-253.5 421.5,-223.5 320.5,-223.5"/>
<text text-anchor="start" x="328.5" y="-241.5" font-family="Helvetica,sans-Serif" font-size="10.00">AC_AttitudeControl</text>
<text text-anchor="middle" x="371" y="-230.5" font-family="Helvetica,sans-Serif" font-size="10.00">::input_quaternion</text>
</a>
</g>
</g>
<!-- Node2&#45;&gt;Node8 -->
<g id="edge10" class="edge"><title>Node2&#45;&gt;Node8</title>
<path fill="none" stroke="midnightblue" d="M273.746,-221.841C289.16,-224.509 305.583,-227.351 320.417,-229.918"/>
<polygon fill="midnightblue" stroke="midnightblue" points="274.239,-218.374 263.788,-220.117 273.045,-225.271 274.239,-218.374"/>
</g>
<!-- Node9 -->
<g id="node9" class="node"><title>Node9</title>
<g id="a_node9"><a xlink:href="$classAC__AttitudeControl.html#a2ca277e7c4a5ac2980814673aae2d037" xlink:title="AC_AttitudeControl\l::input_rate_bf_roll\l_pitch_yaw">
<polygon fill="white" stroke="black" points="320.5,-44 320.5,-85 421.5,-85 421.5,-44 320.5,-44"/>
<text text-anchor="start" x="328.5" y="-73" font-family="Helvetica,sans-Serif" font-size="10.00">AC_AttitudeControl</text>
<text text-anchor="start" x="328.5" y="-62" font-family="Helvetica,sans-Serif" font-size="10.00">::input_rate_bf_roll</text>
<text text-anchor="middle" x="371" y="-51" font-family="Helvetica,sans-Serif" font-size="10.00">_pitch_yaw</text>
</a>
</g>
</g>
<!-- Node2&#45;&gt;Node9 -->
<g id="edge12" class="edge"><title>Node2&#45;&gt;Node9</title>
<path fill="none" stroke="midnightblue" d="M231.091,-182.244C247.386,-156.409 273.993,-119.12 305,-94.5 309.672,-90.7903 314.877,-87.417 320.251,-84.3845"/>
<polygon fill="midnightblue" stroke="midnightblue" points="228.044,-180.518 225.767,-190.866 233.999,-184.196 228.044,-180.518"/>
</g>
<!-- Node12 -->
<g id="node12" class="node"><title>Node12</title>
<g id="a_node12"><a xlink:href="$classAC__AttitudeControl.html#a080c9527e2d43eac62e370fbe61eaa8d" xlink:title="AC_AttitudeControl\l::lean_angle_max">
<polygon fill="white" stroke="black" points="320.5,-415.5 320.5,-445.5 421.5,-445.5 421.5,-415.5 320.5,-415.5"/>
<text text-anchor="start" x="328.5" y="-433.5" font-family="Helvetica,sans-Serif" font-size="10.00">AC_AttitudeControl</text>
<text text-anchor="middle" x="371" y="-422.5" font-family="Helvetica,sans-Serif" font-size="10.00">::lean_angle_max</text>
</a>
</g>
</g>
<!-- Node2&#45;&gt;Node12 -->
<g id="edge16" class="edge"><title>Node2&#45;&gt;Node12</title>
<path fill="none" stroke="midnightblue" d="M225.261,-241.763C239.773,-277.999 267.65,-339.211 305,-382.5 316.18,-395.458 331.466,-406.967 344.406,-415.465"/>
<polygon fill="midnightblue" stroke="midnightblue" points="228.436,-240.272 221.525,-232.241 221.919,-242.829 228.436,-240.272"/>
</g>
<!-- Node4 -->
<g id="node4" class="node"><title>Node4</title>
<g id="a_node4"><a xlink:href="$classAC__AttitudeControl.html#a5d0d15f6a4e5321e8102528b1a67fa0a" xlink:title="AC_AttitudeControl\l::set_yaw_target_to\l_current_heading">
<polygon fill="white" stroke="black" points="478.5,-191 478.5,-232 581.5,-232 581.5,-191 478.5,-191"/>
<text text-anchor="start" x="486.5" y="-220" font-family="Helvetica,sans-Serif" font-size="10.00">AC_AttitudeControl</text>
<text text-anchor="start" x="486.5" y="-209" font-family="Helvetica,sans-Serif" font-size="10.00">::set_yaw_target_to</text>
<text text-anchor="middle" x="530" y="-198" font-family="Helvetica,sans-Serif" font-size="10.00">_current_heading</text>
</a>
</g>
</g>
<!-- Node3&#45;&gt;Node4 -->
<g id="edge3" class="edge"><title>Node3&#45;&gt;Node4</title>
<path fill="none" stroke="midnightblue" d="M436.124,-195.528C450.176,-197.944 464.866,-200.471 478.306,-202.782"/>
<polygon fill="midnightblue" stroke="midnightblue" points="436.479,-192.037 426.03,-193.792 435.293,-198.936 436.479,-192.037"/>
</g>
<!-- Node5&#45;&gt;Node4 -->
<g id="edge5" class="edge"><title>Node5&#45;&gt;Node4</title>
<path fill="none" stroke="midnightblue" d="M427.598,-149.606C430.799,-151.223 433.952,-152.861 437,-154.5 457.684,-165.627 480.103,-179.477 497.632,-190.739"/>
<polygon fill="midnightblue" stroke="midnightblue" points="429.02,-146.405 418.504,-145.12 425.924,-152.682 429.02,-146.405"/>
</g>
<!-- Node6&#45;&gt;Node4 -->
<g id="edge7" class="edge"><title>Node6&#45;&gt;Node4</title>
<path fill="none" stroke="midnightblue" d="M430.529,-327.095C432.764,-325.623 434.931,-324.091 437,-322.5 470.531,-296.714 499.885,-256.599 515.964,-232.311"/>
<polygon fill="midnightblue" stroke="midnightblue" points="428.383,-324.302 421.636,-332.471 432.004,-330.293 428.383,-324.302"/>
</g>
<!-- Node7&#45;&gt;Node4 -->
<g id="edge9" class="edge"><title>Node7&#45;&gt;Node4</title>
<path fill="none" stroke="midnightblue" d="M426.843,-267.54C430.293,-265.861 433.702,-264.172 437,-262.5 455.731,-253.002 476.199,-241.746 493.063,-232.227"/>
<polygon fill="midnightblue" stroke="midnightblue" points="425.166,-264.462 417.663,-271.942 428.193,-270.774 425.166,-264.462"/>
</g>
<!-- Node8&#45;&gt;Node4 -->
<g id="edge11" class="edge"><title>Node8&#45;&gt;Node4</title>
<path fill="none" stroke="midnightblue" d="M431.612,-228.248C446.998,-225.602 463.413,-222.779 478.298,-220.22"/>
<polygon fill="midnightblue" stroke="midnightblue" points="430.938,-224.813 421.676,-229.957 432.124,-231.711 430.938,-224.813"/>
</g>
<!-- Node9&#45;&gt;Node4 -->
<g id="edge15" class="edge"><title>Node9&#45;&gt;Node4</title>
<path fill="none" stroke="midnightblue" d="M430.581,-89.8383C432.802,-91.3284 434.952,-92.8824 437,-94.5 471.88,-122.045 501.42,-165.392 517.051,-190.873"/>
<polygon fill="midnightblue" stroke="midnightblue" points="432.083,-86.6537 421.729,-84.4091 428.424,-92.6208 432.083,-86.6537"/>
</g>
<!-- Node10 -->
<g id="node10" class="node"><title>Node10</title>
<g id="a_node10"><a xlink:href="$classAC__AttitudeControl__Heli.html#aa78e07c940c43aa150caf3c52cf76809" xlink:title="AC_AttitudeControl\l_Heli::input_rate_bf\l_roll_pitch_yaw">
<polygon fill="white" stroke="black" points="479.5,-44 479.5,-85 580.5,-85 580.5,-44 479.5,-44"/>
<text text-anchor="start" x="487.5" y="-73" font-family="Helvetica,sans-Serif" font-size="10.00">AC_AttitudeControl</text>
<text text-anchor="start" x="487.5" y="-62" font-family="Helvetica,sans-Serif" font-size="10.00">_Heli::input_rate_bf</text>
<text text-anchor="middle" x="530" y="-51" font-family="Helvetica,sans-Serif" font-size="10.00">_roll_pitch_yaw</text>
</a>
</g>
</g>
<!-- Node9&#45;&gt;Node10 -->
<g id="edge13" class="edge"><title>Node9&#45;&gt;Node10</title>
<path fill="none" stroke="midnightblue" d="M431.813,-64.5C447.514,-64.5 464.275,-64.5 479.378,-64.5"/>
<polygon fill="midnightblue" stroke="midnightblue" points="431.676,-61.0001 421.676,-64.5 431.676,-68.0001 431.676,-61.0001"/>
</g>
<!-- Node11 -->
<g id="node11" class="node"><title>Node11</title>
<g id="a_node11"><a xlink:href="$classAC__AttitudeControl__Heli.html#aae3cc5dc6f4db3bdb7d17b9d7f54f371" xlink:title="AC_AttitudeControl\l_Heli::get_rate_yaw_pid">
<polygon fill="white" stroke="black" points="641.5,-0.5 641.5,-30.5 763.5,-30.5 763.5,-0.5 641.5,-0.5"/>
<text text-anchor="start" x="649.5" y="-18.5" font-family="Helvetica,sans-Serif" font-size="10.00">AC_AttitudeControl</text>
<text text-anchor="middle" x="702.5" y="-7.5" font-family="Helvetica,sans-Serif" font-size="10.00">_Heli::get_rate_yaw_pid</text>
</a>
</g>
</g>
<!-- Node10&#45;&gt;Node11 -->
<g id="edge14" class="edge"><title>Node10&#45;&gt;Node11</title>
<path fill="none" stroke="midnightblue" d="M590.579,-47.3775C609.706,-41.8808 630.733,-35.8376 649.29,-30.5046"/>
<polygon fill="midnightblue" stroke="midnightblue" points="589.418,-44.0694 580.774,-50.1954 591.352,-50.7971 589.418,-44.0694"/>
</g>
<!-- Node13 -->
<g id="node13" class="node"><title>Node13</title>
<g id="a_node13"><a xlink:href="$classAC__PosControl.html#ab7a53930119bbcbb951f982fcb8d3ce1" xlink:title="AC_PosControl::accel\l_to_lean_angles">
<polygon fill="white" stroke="black" points="473,-415.5 473,-445.5 587,-445.5 587,-415.5 473,-415.5"/>
<text text-anchor="start" x="481" y="-433.5" font-family="Helvetica,sans-Serif" font-size="10.00">AC_PosControl::accel</text>
<text text-anchor="middle" x="530" y="-422.5" font-family="Helvetica,sans-Serif" font-size="10.00">_to_lean_angles</text>
</a>
</g>
</g>
<!-- Node12&#45;&gt;Node13 -->
<g id="edge17" class="edge"><title>Node12&#45;&gt;Node13</title>
<path fill="none" stroke="midnightblue" d="M431.793,-430.5C445.26,-430.5 459.506,-430.5 472.818,-430.5"/>
<polygon fill="midnightblue" stroke="midnightblue" points="431.676,-427 421.676,-430.5 431.676,-434 431.676,-427"/>
</g>
<!-- Node40 -->
<g id="node40" class="node"><title>Node40</title>
<g id="a_node40"><a xlink:href="$classAC__WPNav.html#a47964df8ebcc78bb101f328a23187e65" xlink:title="AC_WPNav::wp_and_spline_init">
<polygon fill="white" stroke="black" points="623,-579 623,-598 782,-598 782,-579 623,-579"/>
<text text-anchor="middle" x="702.5" y="-586" font-family="Helvetica,sans-Serif" font-size="10.00">AC_WPNav::wp_and_spline_init</text>
</a>
</g>
</g>
<!-- Node12&#45;&gt;Node40 -->
<g id="edge53" class="edge"><title>Node12&#45;&gt;Node40</title>
<path fill="none" stroke="midnightblue" d="M412.407,-449.876C483.477,-483.955 628.347,-553.422 681.429,-578.876"/>
<polygon fill="midnightblue" stroke="midnightblue" points="413.826,-446.675 403.296,-445.507 410.799,-452.986 413.826,-446.675"/>
</g>
<!-- Node14 -->
<g id="node14" class="node"><title>Node14</title>
<g id="a_node14"><a xlink:href="$classAC__PosControl.html#a497c1799c10d146b6f2e2b542889c083" xlink:title="update_xy_controller &#45; run the horizontal position controller &#45; should be called at 100hz or higher ...">
<polygon fill="white" stroke="black" points="642.5,-427.5 642.5,-457.5 762.5,-457.5 762.5,-427.5 642.5,-427.5"/>
<text text-anchor="start" x="650.5" y="-445.5" font-family="Helvetica,sans-Serif" font-size="10.00">AC_PosControl::update</text>
<text text-anchor="middle" x="702.5" y="-434.5" font-family="Helvetica,sans-Serif" font-size="10.00">_xy_controller</text>
</a>
</g>
</g>
<!-- Node13&#45;&gt;Node14 -->
<g id="edge18" class="edge"><title>Node13&#45;&gt;Node14</title>
<path fill="none" stroke="midnightblue" d="M597.405,-435.174C612.22,-436.216 627.833,-437.315 642.333,-438.336"/>
<polygon fill="midnightblue" stroke="midnightblue" points="597.522,-431.673 587.301,-434.463 597.03,-438.656 597.522,-431.673"/>
</g>
<!-- Node18 -->
<g id="node18" class="node"><title>Node18</title>
<g id="a_node18"><a xlink:href="$classAC__PosControl.html#ad89eec74ef77005f3f5c449da98ad12c" xlink:title="AC_PosControl::update\l_vel_controller_xyz">
<polygon fill="white" stroke="black" points="1380.5,-137.5 1380.5,-167.5 1500.5,-167.5 1500.5,-137.5 1380.5,-137.5"/>
<text text-anchor="start" x="1388.5" y="-155.5" font-family="Helvetica,sans-Serif" font-size="10.00">AC_PosControl::update</text>
<text text-anchor="middle" x="1440.5" y="-144.5" font-family="Helvetica,sans-Serif" font-size="10.00">_vel_controller_xyz</text>
</a>
</g>
</g>
<!-- Node13&#45;&gt;Node18 -->
<g id="edge52" class="edge"><title>Node13&#45;&gt;Node18</title>
<path fill="none" stroke="midnightblue" d="M540.123,-406.148C572.796,-323.599 692.34,-59.5 884.5,-59.5 884.5,-59.5 884.5,-59.5 1060,-59.5 1177.64,-59.5 1212.37,-41.4033 1324,-78.5 1362.42,-91.2669 1400.75,-119.71 1422.16,-137.38"/>
<polygon fill="midnightblue" stroke="midnightblue" points="536.85,-404.908 536.49,-415.497 543.375,-407.444 536.85,-404.908"/>
</g>
<!-- Node15 -->
<g id="node15" class="node"><title>Node15</title>
<g id="a_node15"><a xlink:href="$classAC__PosControl.html#ac150947d527995a72dff6ad0921a1891" xlink:title="freeze_ff_xy &#45; used to stop the feed forward being calculated during a known discontinuity ...">
<polygon fill="white" stroke="black" points="826.5,-307.5 826.5,-337.5 944.5,-337.5 944.5,-307.5 826.5,-307.5"/>
<text text-anchor="start" x="834.5" y="-325.5" font-family="Helvetica,sans-Serif" font-size="10.00">AC_PosControl::freeze</text>
<text text-anchor="middle" x="885.5" y="-314.5" font-family="Helvetica,sans-Serif" font-size="10.00">_ff_xy</text>
</a>
</g>
</g>
<!-- Node14&#45;&gt;Node15 -->
<g id="edge19" class="edge"><title>Node14&#45;&gt;Node15</title>
<path fill="none" stroke="midnightblue" d="M735.122,-421.535C771.334,-397.527 829.768,-358.786 861.762,-337.575"/>
<polygon fill="midnightblue" stroke="midnightblue" points="732.824,-418.859 726.424,-427.302 736.692,-424.693 732.824,-418.859"/>
</g>
<!-- Node32 -->
<g id="node32" class="node"><title>Node32</title>
<g id="a_node32"><a xlink:href="$classAC__WPNav.html#a7dc4785fbce8364d7eb3d8e2d0c1b987" xlink:title="update_wpnav &#45; run the wp controller &#45; should be called at 100hz or higher ">
<polygon fill="white" stroke="black" points="989,-105 989,-124 1129,-124 1129,-105 989,-105"/>
<text text-anchor="middle" x="1059" y="-112" font-family="Helvetica,sans-Serif" font-size="10.00">AC_WPNav::update_wpnav</text>
</a>
</g>
</g>
<!-- Node14&#45;&gt;Node32 -->
<g id="edge50" class="edge"><title>Node14&#45;&gt;Node32</title>
<path fill="none" stroke="midnightblue" d="M704.552,-417.249C708.523,-357.652 727.483,-208.047 818,-138.5 871.46,-97.425 952.603,-98.5221 1005.46,-104.993"/>
<polygon fill="midnightblue" stroke="midnightblue" points="701.055,-417.104 703.971,-427.29 708.043,-417.508 701.055,-417.104"/>
</g>
<!-- Node34 -->
<g id="node34" class="node"><title>Node34</title>
<g id="a_node34"><a xlink:href="$classAC__WPNav.html#acc138e7bc6435087ab308896358de6a3" xlink:title="update_spline &#45; update spline controller ">
<polygon fill="white" stroke="black" points="990.5,-445 990.5,-464 1127.5,-464 1127.5,-445 990.5,-445"/>
<text text-anchor="middle" x="1059" y="-452" font-family="Helvetica,sans-Serif" font-size="10.00">AC_WPNav::update_spline</text>
</a>
</g>
</g>
<!-- Node14&#45;&gt;Node34 -->
<g id="edge51" class="edge"><title>Node14&#45;&gt;Node34</title>
<path fill="none" stroke="midnightblue" d="M773.058,-444.855C835.951,-446.984 927.976,-450.099 990.29,-452.208"/>
<polygon fill="midnightblue" stroke="midnightblue" points="772.948,-441.349 762.835,-444.509 772.711,-448.345 772.948,-441.349"/>
</g>
<!-- Node36 -->
<g id="node36" class="node"><title>Node36</title>
<g id="a_node36"><a xlink:href="$classAC__Circle.html#ad28205982ae7bc5f1e72f5285696c99b" xlink:title="update &#45; update circle controller ">
<polygon fill="white" stroke="black" points="837,-480 837,-499 934,-499 934,-480 837,-480"/>
<text text-anchor="middle" x="885.5" y="-487" font-family="Helvetica,sans-Serif" font-size="10.00">AC_Circle::update</text>
</a>
</g>
</g>
<!-- Node14&#45;&gt;Node36 -->
<g id="edge44" class="edge"><title>Node14&#45;&gt;Node36</title>
<path fill="none" stroke="midnightblue" d="M771.072,-460.046C797.051,-466.792 825.728,-474.239 847.748,-479.957"/>
<polygon fill="midnightblue" stroke="midnightblue" points="771.826,-456.626 761.267,-457.5 770.066,-463.401 771.826,-456.626"/>
</g>
<!-- Node38 -->
<g id="node38" class="node"><title>Node38</title>
<g id="a_node38"><a xlink:href="$classAC__WPNav.html#a0a434270245fd8641352af387700dc82" xlink:title="update_loiter &#45; run the loiter controller &#45; should be called at 10hz ">
<polygon fill="white" stroke="black" points="819.5,-571 819.5,-590 951.5,-590 951.5,-571 819.5,-571"/>
<text text-anchor="middle" x="885.5" y="-578" font-family="Helvetica,sans-Serif" font-size="10.00">AC_WPNav::update_loiter</text>
</a>
</g>
</g>
<!-- Node14&#45;&gt;Node38 -->
<g id="edge46" class="edge"><title>Node14&#45;&gt;Node38</title>
<path fill="none" stroke="midnightblue" d="M721.236,-465.833C741.907,-491.566 778.332,-532.614 818,-557.5 826.9,-563.083 837.325,-567.511 847.246,-570.929"/>
<polygon fill="midnightblue" stroke="midnightblue" points="723.791,-463.42 714.848,-457.739 718.296,-467.757 723.791,-463.42"/>
</g>
<!-- Node39 -->
<g id="node39" class="node"><title>Node39</title>
<g id="a_node39"><a xlink:href="$classAC__WPNav.html#af9d3f98ad44166d4c5d072bf3ba4a3db" xlink:title="update_brake &#45; run the brake controller &#45; should be called at 400hz ">
<polygon fill="white" stroke="black" points="818,-529 818,-548 953,-548 953,-529 818,-529"/>
<text text-anchor="middle" x="885.5" y="-536" font-family="Helvetica,sans-Serif" font-size="10.00">AC_WPNav::update_brake</text>
</a>
</g>
</g>
<!-- Node14&#45;&gt;Node39 -->
<g id="edge48" class="edge"><title>Node14&#45;&gt;Node39</title>
<path fill="none" stroke="midnightblue" d="M736.967,-462.965C759.544,-476.477 790.179,-494.251 818,-508.5 832.317,-515.833 848.795,-523.273 861.766,-528.91"/>
<polygon fill="midnightblue" stroke="midnightblue" points="738.496,-459.8 728.123,-457.643 734.887,-465.798 738.496,-459.8"/>
</g>
<!-- Node16 -->
<g id="node16" class="node"><title>Node16</title>
<g id="a_node16"><a xlink:href="$classAC__PosControl.html#a0a3dc64da9e355dea10959cb41e6aa8b" xlink:title="shift position target target in x, y axis ">
<polygon fill="white" stroke="black" points="1004,-219.5 1004,-249.5 1114,-249.5 1114,-219.5 1004,-219.5"/>
<text text-anchor="start" x="1012" y="-237.5" font-family="Helvetica,sans-Serif" font-size="10.00">AC_PosControl::shift</text>
<text text-anchor="middle" x="1059" y="-226.5" font-family="Helvetica,sans-Serif" font-size="10.00">_pos_xy_target</text>
</a>
</g>
</g>
<!-- Node15&#45;&gt;Node16 -->
<g id="edge20" class="edge"><title>Node15&#45;&gt;Node16</title>
<path fill="none" stroke="midnightblue" d="M920.025,-302.352C939.816,-290.756 965.515,-276.209 989,-264.5 999.404,-259.313 1010.91,-254.106 1021.5,-249.521"/>
<polygon fill="midnightblue" stroke="midnightblue" points="918.213,-299.357 911.376,-307.451 921.768,-305.387 918.213,-299.357"/>
</g>
<!-- Node24 -->
<g id="node24" class="node"><title>Node24</title>
<g id="a_node24"><a xlink:href="$classAC__WPNav.html#a7ebe48af2381e791cbcdea94c7af2e3e" xlink:title="AC_WPNav::shift_wp\l_origin_to_current_pos">
<polygon fill="white" stroke="black" points="1383,-236.5 1383,-266.5 1498,-266.5 1498,-236.5 1383,-236.5"/>
<text text-anchor="start" x="1391" y="-254.5" font-family="Helvetica,sans-Serif" font-size="10.00">AC_WPNav::shift_wp</text>
<text text-anchor="middle" x="1440.5" y="-243.5" font-family="Helvetica,sans-Serif" font-size="10.00">_origin_to_current_pos</text>
</a>
</g>
</g>
<!-- Node15&#45;&gt;Node24 -->
<g id="edge39" class="edge"><title>Node15&#45;&gt;Node24</title>
<path fill="none" stroke="midnightblue" d="M951.797,-305.155C964.094,-302.293 976.893,-299.584 989,-297.5 1129.62,-273.289 1297.3,-260.286 1382.98,-254.769"/>
<polygon fill="midnightblue" stroke="midnightblue" points="950.982,-301.751 942.066,-307.474 952.605,-308.56 950.982,-301.751"/>
</g>
<!-- Node28 -->
<g id="node28" class="node"><title>Node28</title>
<g id="a_node28"><a xlink:href="$classAC__PosControl.html#a26ec8e9313b7c01fa449ba4f2d194d28" xlink:title="AC_PosControl::set\l_desired_velocity">
<polygon fill="white" stroke="black" points="1007,-395.5 1007,-425.5 1111,-425.5 1111,-395.5 1007,-395.5"/>
<text text-anchor="start" x="1015" y="-413.5" font-family="Helvetica,sans-Serif" font-size="10.00">AC_PosControl::set</text>
<text text-anchor="middle" x="1059" y="-402.5" font-family="Helvetica,sans-Serif" font-size="10.00">_desired_velocity</text>
</a>
</g>
</g>
<!-- Node15&#45;&gt;Node28 -->
<g id="edge34" class="edge"><title>Node15&#45;&gt;Node28</title>
<path fill="none" stroke="midnightblue" d="M920.025,-342.648C939.816,-354.244 965.515,-368.791 989,-380.5 999.404,-385.687 1010.91,-390.894 1021.5,-395.479"/>
<polygon fill="midnightblue" stroke="midnightblue" points="921.768,-339.613 911.376,-337.549 918.213,-345.643 921.768,-339.613"/>
</g>
<!-- Node30 -->
<g id="node30" class="node"><title>Node30</title>
<g id="a_node30"><a xlink:href="$classAC__WPNav.html#a9b3fd8fd5c74d31ebffa89cdf98f570a" xlink:title="loiter_soften_for_landing &#45; reduce response for landing ">
<polygon fill="white" stroke="black" points="994,-307.5 994,-337.5 1124,-337.5 1124,-307.5 994,-307.5"/>
<text text-anchor="start" x="1002" y="-325.5" font-family="Helvetica,sans-Serif" font-size="10.00">AC_WPNav::loiter_soften</text>
<text text-anchor="middle" x="1059" y="-314.5" font-family="Helvetica,sans-Serif" font-size="10.00">_for_landing</text>
</a>
</g>
</g>
<!-- Node15&#45;&gt;Node30 -->
<g id="edge37" class="edge"><title>Node15&#45;&gt;Node30</title>
<path fill="none" stroke="midnightblue" d="M954.75,-322.5C967.631,-322.5 981.062,-322.5 993.812,-322.5"/>
<polygon fill="midnightblue" stroke="midnightblue" points="954.562,-319 944.562,-322.5 954.562,-326 954.562,-319"/>
</g>
<!-- Node15&#45;&gt;Node32 -->
<g id="edge40" class="edge"><title>Node15&#45;&gt;Node32</title>
<path fill="none" stroke="midnightblue" d="M900.889,-298.629C919.462,-268.676 953.62,-216.399 989,-176.5 1007.06,-156.136 1031.34,-135.639 1045.77,-124.059"/>
<polygon fill="midnightblue" stroke="midnightblue" points="897.894,-296.818 895.641,-307.17 903.858,-300.482 897.894,-296.818"/>
</g>
<!-- Node15&#45;&gt;Node34 -->
<g id="edge42" class="edge"><title>Node15&#45;&gt;Node34</title>
<path fill="none" stroke="midnightblue" d="M901.984,-345.97C919.967,-371.42 951.948,-411.482 989,-434.5 995.992,-438.844 1003.97,-442.277 1011.95,-444.981"/>
<polygon fill="midnightblue" stroke="midnightblue" points="904.785,-343.867 896.221,-337.628 899.026,-347.845 904.785,-343.867"/>
</g>
<!-- Node17 -->
<g id="node17" class="node"><title>Node17</title>
<g id="a_node17"><a xlink:href="$classAC__PosControl.html#adcd8a80dc29c0e77d0c3f225689319b9" xlink:title="check for ekf position reset and adjust loiter or brake target position ">
<polygon fill="white" stroke="black" points="1186,-137.5 1186,-167.5 1303,-167.5 1303,-137.5 1186,-137.5"/>
<text text-anchor="start" x="1194" y="-155.5" font-family="Helvetica,sans-Serif" font-size="10.00">AC_PosControl::check</text>
<text text-anchor="middle" x="1244.5" y="-144.5" font-family="Helvetica,sans-Serif" font-size="10.00">_for_ekf_xy_reset</text>
</a>
</g>
</g>
<!-- Node16&#45;&gt;Node17 -->
<g id="edge21" class="edge"><title>Node16&#45;&gt;Node17</title>
<path fill="none" stroke="midnightblue" d="M1102.94,-215.311C1135.52,-200.754 1179.68,-181.021 1209.75,-167.583"/>
<polygon fill="midnightblue" stroke="midnightblue" points="1101.36,-212.185 1093.66,-219.46 1104.21,-218.576 1101.36,-212.185"/>
</g>
<!-- Node19 -->
<g id="node19" class="node"><title>Node19</title>
<g id="a_node19"><a xlink:href="$classAC__PosControl.html#a6b3617b946ffd6935c11a63629f186ec" xlink:title="get_pos_target &#45; get target as position vector (from home in cm) ">
<polygon fill="white" stroke="black" points="1192.5,-307.5 1192.5,-337.5 1296.5,-337.5 1296.5,-307.5 1192.5,-307.5"/>
<text text-anchor="start" x="1200.5" y="-325.5" font-family="Helvetica,sans-Serif" font-size="10.00">AC_PosControl::get</text>
<text text-anchor="middle" x="1244.5" y="-314.5" font-family="Helvetica,sans-Serif" font-size="10.00">_pos_target</text>
</a>
</g>
</g>
<!-- Node16&#45;&gt;Node19 -->
<g id="edge25" class="edge"><title>Node16&#45;&gt;Node19</title>
<path fill="none" stroke="midnightblue" d="M1100.64,-253.99C1134.25,-270.106 1181.28,-292.662 1212.06,-307.423"/>
<polygon fill="midnightblue" stroke="midnightblue" points="1102.08,-250.796 1091.54,-249.628 1099.05,-257.108 1102.08,-250.796"/>
</g>
<!-- Node17&#45;&gt;Node14 -->
<g id="edge22" class="edge"><title>Node17&#45;&gt;Node14</title>
<path fill="none" stroke="midnightblue" d="M1175.77,-147.541C1123.21,-146.038 1049.37,-149.135 989,-171.5 851.539,-222.422 743.994,-378.268 712.739,-427.458"/>
<polygon fill="midnightblue" stroke="midnightblue" points="1175.87,-151.047 1185.99,-147.899 1176.12,-144.051 1175.87,-151.047"/>
</g>
<!-- Node17&#45;&gt;Node18 -->
<g id="edge23" class="edge"><title>Node17&#45;&gt;Node18</title>
<path fill="none" stroke="midnightblue" d="M1313.37,-152.5C1335.2,-152.5 1359.21,-152.5 1380.36,-152.5"/>
<polygon fill="midnightblue" stroke="midnightblue" points="1313.18,-149 1303.18,-152.5 1313.18,-156 1313.18,-149"/>
</g>
<!-- Node18&#45;&gt;Node15 -->
<g id="edge24" class="edge"><title>Node18&#45;&gt;Node15</title>
<path fill="none" stroke="midnightblue" d="M1370.49,-168.094C1355.23,-171.19 1339.11,-174.192 1324,-176.5 1176.1,-199.084 1122.65,-142.26 989,-209.5 944.755,-231.761 910.456,-281.795 895.182,-307.149"/>
<polygon fill="midnightblue" stroke="midnightblue" points="1371.28,-171.503 1380.37,-166.052 1369.87,-164.648 1371.28,-171.503"/>
</g>
<!-- Node20 -->
<g id="node20" class="node"><title>Node20</title>
<g id="a_node20"><a xlink:href="$classAC__Circle.html#a20eefa0e2e7172498728dbf1f5eed4af" xlink:title="AC_Circle::init">
<polygon fill="white" stroke="black" points="1400.5,-335 1400.5,-354 1480.5,-354 1480.5,-335 1400.5,-335"/>
<text text-anchor="middle" x="1440.5" y="-342" font-family="Helvetica,sans-Serif" font-size="10.00">AC_Circle::init</text>
</a>
</g>
</g>
<!-- Node19&#45;&gt;Node20 -->
<g id="edge26" class="edge"><title>Node19&#45;&gt;Node20</title>
<path fill="none" stroke="midnightblue" d="M1306.86,-329.459C1337.44,-332.926 1373.5,-337.016 1400.3,-340.055"/>
<polygon fill="midnightblue" stroke="midnightblue" points="1307.06,-325.958 1296.72,-328.309 1306.27,-332.914 1307.06,-325.958"/>
</g>
<!-- Node21 -->
<g id="node21" class="node"><title>Node21</title>
<g id="a_node21"><a xlink:href="$classAC__WPNav.html#a7f711c7661c335417cbcc28f9546688c" xlink:title="get_loiter_bearing_to_target &#45; get bearing to loiter target in centi&#45;degrees ">
<polygon fill="white" stroke="black" points="1382.5,-285.5 1382.5,-315.5 1498.5,-315.5 1498.5,-285.5 1382.5,-285.5"/>
<text text-anchor="start" x="1390.5" y="-303.5" font-family="Helvetica,sans-Serif" font-size="10.00">AC_WPNav::get_loiter</text>
<text text-anchor="middle" x="1440.5" y="-292.5" font-family="Helvetica,sans-Serif" font-size="10.00">_bearing_to_target</text>
</a>
</g>
</g>
<!-- Node19&#45;&gt;Node21 -->
<g id="edge27" class="edge"><title>Node19&#45;&gt;Node21</title>
<path fill="none" stroke="midnightblue" d="M1306.83,-315.545C1330.94,-312.811 1358.46,-309.69 1382.17,-307.002"/>
<polygon fill="midnightblue" stroke="midnightblue" points="1306.27,-312.086 1296.72,-316.691 1307.06,-319.042 1306.27,-312.086"/>
</g>
<!-- Node23 -->
<g id="node23" class="node"><title>Node23</title>
<g id="a_node23"><a xlink:href="$classAC__WPNav.html#a38519fcac3a24cf64ec7c37e90fc3e13" xlink:title="AC_WPNav::set_wp_destination">
<polygon fill="white" stroke="black" points="1360,-423 1360,-442 1521,-442 1521,-423 1360,-423"/>
<text text-anchor="middle" x="1440.5" y="-430" font-family="Helvetica,sans-Serif" font-size="10.00">AC_WPNav::set_wp_destination</text>
</a>
</g>
</g>
<!-- Node19&#45;&gt;Node23 -->
<g id="edge29" class="edge"><title>Node19&#45;&gt;Node23</title>
<path fill="none" stroke="midnightblue" d="M1306.09,-336.504C1312.52,-339.492 1318.65,-343.114 1324,-347.5 1349.54,-368.436 1333.83,-392.364 1360,-412.5 1365.64,-416.839 1372.11,-420.246 1378.87,-422.919"/>
<polygon fill="midnightblue" stroke="midnightblue" points="1307.1,-333.134 1296.52,-332.562 1304.43,-339.607 1307.1,-333.134"/>
</g>
<!-- Node19&#45;&gt;Node24 -->
<g id="edge30" class="edge"><title>Node19&#45;&gt;Node24</title>
<path fill="none" stroke="midnightblue" d="M1296.38,-303.705C1305.62,-300.107 1315.14,-296.28 1324,-292.5 1340.28,-285.559 1343.49,-281.852 1360,-275.5 1368.21,-272.343 1377.02,-269.328 1385.68,-266.566"/>
<polygon fill="midnightblue" stroke="midnightblue" points="1294.96,-300.5 1286.88,-307.36 1297.47,-307.033 1294.96,-300.5"/>
</g>
<!-- Node26 -->
<g id="node26" class="node"><title>Node26</title>
<g id="a_node26"><a xlink:href="$classAC__WPNav.html#a8caabd95cf51512456cd8d81f38dbff9" xlink:title="AC_WPNav::set_spline\l_destination">
<polygon fill="white" stroke="black" points="1380,-373.5 1380,-403.5 1501,-403.5 1501,-373.5 1380,-373.5"/>
<text text-anchor="start" x="1388" y="-391.5" font-family="Helvetica,sans-Serif" font-size="10.00">AC_WPNav::set_spline</text>
<text text-anchor="middle" x="1440.5" y="-380.5" font-family="Helvetica,sans-Serif" font-size="10.00">_destination</text>
</a>
</g>
</g>
<!-- Node19&#45;&gt;Node26 -->
<g id="edge32" class="edge"><title>Node19&#45;&gt;Node26</title>
<path fill="none" stroke="midnightblue" d="M1305.47,-340.847C1311.76,-342.995 1318.03,-345.232 1324,-347.5 1340.37,-353.722 1343.62,-357.308 1360,-363.5 1369.2,-366.979 1379.13,-370.374 1388.74,-373.484"/>
<polygon fill="midnightblue" stroke="midnightblue" points="1306.21,-337.404 1295.62,-337.554 1303.99,-344.043 1306.21,-337.404"/>
</g>
<!-- Node27 -->
<g id="node27" class="node"><title>Node27</title>
<g id="a_node27"><a xlink:href="$classAC__WPNav.html#ae34a88192799de8f2b96c8cd295bb971" xlink:title="get_loiter_target &#45; returns loiter target position ">
<polygon fill="white" stroke="black" points="1382.5,-546.5 1382.5,-576.5 1498.5,-576.5 1498.5,-546.5 1382.5,-546.5"/>
<text text-anchor="start" x="1390.5" y="-564.5" font-family="Helvetica,sans-Serif" font-size="10.00">AC_WPNav::get_loiter</text>
<text text-anchor="middle" x="1440.5" y="-553.5" font-family="Helvetica,sans-Serif" font-size="10.00">_target</text>
</a>
</g>
</g>
<!-- Node19&#45;&gt;Node27 -->
<g id="edge33" class="edge"><title>Node19&#45;&gt;Node27</title>
<path fill="none" stroke="midnightblue" d="M1305.9,-335.144C1312.55,-338.37 1318.79,-342.419 1324,-347.5 1359.02,-381.653 1337.43,-408.104 1360,-451.5 1379.02,-488.084 1409.19,-526.054 1426.37,-546.419"/>
<polygon fill="midnightblue" stroke="midnightblue" points="1307.2,-331.895 1296.63,-331.235 1304.48,-338.345 1307.2,-331.895"/>
</g>
<!-- Node22 -->
<g id="node22" class="node"><title>Node22</title>
<g id="a_node22"><a xlink:href="$classAC__WPNav.html#a828016e98938c6bbb6236e0b92e20807" xlink:title="get_loiter_distance_to_target &#45; get horizontal distance to loiter target in cm ">
<polygon fill="white" stroke="black" points="1567.5,-285.5 1567.5,-315.5 1683.5,-315.5 1683.5,-285.5 1567.5,-285.5"/>
<text text-anchor="start" x="1575.5" y="-303.5" font-family="Helvetica,sans-Serif" font-size="10.00">AC_WPNav::get_loiter</text>
<text text-anchor="middle" x="1625.5" y="-292.5" font-family="Helvetica,sans-Serif" font-size="10.00">_distance_to_target</text>
</a>
</g>
</g>
<!-- Node21&#45;&gt;Node22 -->
<g id="edge28" class="edge"><title>Node21&#45;&gt;Node22</title>
<path fill="none" stroke="midnightblue" d="M1508.86,-300.5C1528.11,-300.5 1548.9,-300.5 1567.47,-300.5"/>
<polygon fill="midnightblue" stroke="midnightblue" points="1508.65,-297 1498.65,-300.5 1508.65,-304 1508.65,-297"/>
</g>
<!-- Node25 -->
<g id="node25" class="node"><title>Node25</title>
<g id="a_node25"><a xlink:href="$classAC__WPNav.html#acc07b8521654cf468b6a86fad9104a4c" xlink:title="get origin using position vector (distance from home in cm) ">
<polygon fill="white" stroke="black" points="1557,-242 1557,-261 1694,-261 1694,-242 1557,-242"/>
<text text-anchor="middle" x="1625.5" y="-249" font-family="Helvetica,sans-Serif" font-size="10.00">AC_WPNav::get_wp_origin</text>
</a>
</g>
</g>
<!-- Node24&#45;&gt;Node25 -->
<g id="edge31" class="edge"><title>Node24&#45;&gt;Node25</title>
<path fill="none" stroke="midnightblue" d="M1508.55,-251.5C1524.25,-251.5 1540.98,-251.5 1556.72,-251.5"/>
<polygon fill="midnightblue" stroke="midnightblue" points="1508.4,-248 1498.4,-251.5 1508.4,-255 1508.4,-248"/>
</g>
<!-- Node29 -->
<g id="node29" class="node"><title>Node29</title>
<g id="a_node29"><a xlink:href="$classAC__PosControl.html#ae2897de0075f8f8aaa94eb7e8cad100b" xlink:title="xyz velocity controller ">
<polygon fill="white" stroke="black" points="1192.5,-395.5 1192.5,-425.5 1296.5,-425.5 1296.5,-395.5 1192.5,-395.5"/>
<text text-anchor="start" x="1200.5" y="-413.5" font-family="Helvetica,sans-Serif" font-size="10.00">AC_PosControl::init</text>
<text text-anchor="middle" x="1244.5" y="-402.5" font-family="Helvetica,sans-Serif" font-size="10.00">_vel_controller_xyz</text>
</a>
</g>
</g>
<!-- Node28&#45;&gt;Node29 -->
<g id="edge35" class="edge"><title>Node28&#45;&gt;Node29</title>
<path fill="none" stroke="midnightblue" d="M1121.15,-410.5C1144.25,-410.5 1170.26,-410.5 1192.34,-410.5"/>
<polygon fill="midnightblue" stroke="midnightblue" points="1121.12,-407 1111.11,-410.5 1121.11,-414 1121.12,-407"/>
</g>
<!-- Node29&#45;&gt;Node15 -->
<g id="edge36" class="edge"><title>Node29&#45;&gt;Node15</title>
<path fill="none" stroke="midnightblue" d="M1182.39,-395.436C1115.8,-379.021 1010.05,-352.956 944.653,-336.835"/>
<polygon fill="midnightblue" stroke="midnightblue" points="1181.77,-398.889 1192.32,-397.884 1183.45,-392.093 1181.77,-398.889"/>
</g>
<!-- Node31 -->
<g id="node31" class="node"><title>Node31</title>
<g id="a_node31"><a xlink:href="$classAC__WPNav.html#af37186ad98df47275d15c04761f81ab4" xlink:title="provide rangefinder altitude ">
<polygon fill="white" stroke="black" points="1165,-357 1165,-376 1324,-376 1324,-357 1165,-357"/>
<text text-anchor="middle" x="1244.5" y="-364" font-family="Helvetica,sans-Serif" font-size="10.00">AC_WPNav::set_rangefinder_alt</text>
</a>
</g>
</g>
<!-- Node30&#45;&gt;Node31 -->
<g id="edge38" class="edge"><title>Node30&#45;&gt;Node31</title>
<path fill="none" stroke="midnightblue" d="M1132.55,-339.896C1156.84,-345.721 1183.01,-351.995 1203.83,-356.988"/>
<polygon fill="midnightblue" stroke="midnightblue" points="1133.18,-336.448 1122.64,-337.519 1131.55,-343.255 1133.18,-336.448"/>
</g>
<!-- Node33 -->
<g id="node33" class="node"><title>Node33</title>
<g id="a_node33"><a xlink:href="$classAC__WPNav.html#a4795d6f44811c6ca8b592c5cc098e0c0" xlink:title="set_fast_waypoint &#45; set to true to ignore the waypoint radius and consider the waypoint &#39;reached&#39; the...">
<polygon fill="white" stroke="black" points="1188.5,-88.5 1188.5,-118.5 1300.5,-118.5 1300.5,-88.5 1188.5,-88.5"/>
<text text-anchor="start" x="1196.5" y="-106.5" font-family="Helvetica,sans-Serif" font-size="10.00">AC_WPNav::set_fast</text>
<text text-anchor="middle" x="1244.5" y="-95.5" font-family="Helvetica,sans-Serif" font-size="10.00">_waypoint</text>
</a>
</g>
</g>
<!-- Node32&#45;&gt;Node33 -->
<g id="edge41" class="edge"><title>Node32&#45;&gt;Node33</title>
<path fill="none" stroke="midnightblue" d="M1139.33,-109.744C1155.89,-108.752 1173.01,-107.726 1188.45,-106.8"/>
<polygon fill="midnightblue" stroke="midnightblue" points="1138.88,-106.265 1129.11,-110.357 1139.3,-113.252 1138.88,-106.265"/>
</g>
<!-- Node35 -->
<g id="node35" class="node"><title>Node35</title>
<g id="a_node35"><a xlink:href="$classAC__WPNav.html#a3169a6fb417742e33c3a5197bb7a6c6d" xlink:title="reached_spline_destination &#45; true when we have come within RADIUS cm of the waypoint ...">
<polygon fill="white" stroke="black" points="1173.5,-444.5 1173.5,-474.5 1315.5,-474.5 1315.5,-444.5 1173.5,-444.5"/>
<text text-anchor="start" x="1181.5" y="-462.5" font-family="Helvetica,sans-Serif" font-size="10.00">AC_WPNav::reached_spline</text>
<text text-anchor="middle" x="1244.5" y="-451.5" font-family="Helvetica,sans-Serif" font-size="10.00">_destination</text>
</a>
</g>
</g>
<!-- Node34&#45;&gt;Node35 -->
<g id="edge43" class="edge"><title>Node34&#45;&gt;Node35</title>
<path fill="none" stroke="midnightblue" d="M1137.81,-456.62C1149.6,-456.941 1161.71,-457.271 1173.33,-457.588"/>
<polygon fill="midnightblue" stroke="midnightblue" points="1137.64,-453.114 1127.55,-456.341 1137.45,-460.112 1137.64,-453.114"/>
</g>
<!-- Node37 -->
<g id="node37" class="node"><title>Node37</title>
<g id="a_node37"><a xlink:href="$classAC__Circle.html#a176fe6b798510eb180d35f62d7f6487c" xlink:title="get_angle_total &#45; return total angle in radians that vehicle has circled ">
<polygon fill="white" stroke="black" points="1004,-483.5 1004,-513.5 1114,-513.5 1114,-483.5 1004,-483.5"/>
<text text-anchor="start" x="1012" y="-501.5" font-family="Helvetica,sans-Serif" font-size="10.00">AC_Circle::get_angle</text>
<text text-anchor="middle" x="1059" y="-490.5" font-family="Helvetica,sans-Serif" font-size="10.00">_total</text>
</a>
</g>
</g>
<!-- Node36&#45;&gt;Node37 -->
<g id="edge45" class="edge"><title>Node36&#45;&gt;Node37</title>
<path fill="none" stroke="midnightblue" d="M944.402,-492.539C963.613,-493.547 984.917,-494.665 1003.84,-495.658"/>
<polygon fill="midnightblue" stroke="midnightblue" points="944.442,-489.036 934.272,-492.007 944.075,-496.026 944.442,-489.036"/>
</g>
<!-- Node38&#45;&gt;Node27 -->
<g id="edge47" class="edge"><title>Node38&#45;&gt;Node27</title>
<path fill="none" stroke="midnightblue" d="M961.761,-577.914C1073.72,-574.068 1281.7,-566.922 1382.2,-563.469"/>
<polygon fill="midnightblue" stroke="midnightblue" points="961.436,-574.423 951.562,-578.265 961.677,-581.419 961.436,-574.423"/>
</g>
<!-- Node39&#45;&gt;Node27 -->
<g id="edge49" class="edge"><title>Node39&#45;&gt;Node27</title>
<path fill="none" stroke="midnightblue" d="M963.445,-541.7C1075.79,-546.373 1282.18,-554.957 1382.19,-559.116"/>
<polygon fill="midnightblue" stroke="midnightblue" points="963.342,-538.193 953.205,-541.274 963.051,-545.187 963.342,-538.193"/>
</g>
<!-- Node40&#45;&gt;Node27 -->
<g id="edge54" class="edge"><title>Node40&#45;&gt;Node27</title>
<path fill="none" stroke="midnightblue" d="M792.397,-597.882C801.041,-598.541 809.685,-599.101 818,-599.5 1042.76,-610.271 1100.41,-607.833 1324,-582.5 1343.14,-580.332 1363.88,-576.903 1382.45,-573.439"/>
<polygon fill="midnightblue" stroke="midnightblue" points="792.517,-594.381 782.269,-597.067 791.956,-601.358 792.517,-594.381"/>
</g>
<!-- Node41&#45;&gt;Node11 -->
<g id="edge56" class="edge"><title>Node41&#45;&gt;Node11</title>
<path fill="none" stroke="midnightblue" d="M243.734,-70.5417C260.467,-57.1063 282.479,-42.1314 305,-34.5 418.897,4.09469 561.748,-1.09799 641.16,-8.31595"/>
<polygon fill="midnightblue" stroke="midnightblue" points="241.435,-67.9012 235.965,-76.9747 245.9,-73.2928 241.435,-67.9012"/>
</g>
</g>
</svg>
