<?xml version="1.0" encoding="UTF-8" standalone="no"?>
<!DOCTYPE svg PUBLIC "-//W3C//DTD SVG 1.1//EN"
 "http://www.w3.org/Graphics/SVG/1.1/DTD/svg11.dtd">
<!-- Generated by graphviz version 2.38.0 (20140413.2041)
 -->
<!-- Title: AC_Avoid::get_max_speed Pages: 1 -->
<svg width="514pt" height="161pt"
 viewBox="0.00 0.00 514.00 161.00" xmlns="http://www.w3.org/2000/svg" xmlns:xlink="http://www.w3.org/1999/xlink">
<g id="graph0" class="graph" transform="scale(1 1) rotate(0) translate(4 157)">
<title>AC_Avoid::get_max_speed</title>
<polygon fill="white" stroke="none" points="-4,4 -4,-157 510,-157 510,4 -4,4"/>
<!-- Node1 -->
<g id="node1" class="node"><title>Node1</title>
<polygon fill="#bfbfbf" stroke="black" points="0,-95.5 0,-114.5 136,-114.5 136,-95.5 0,-95.5"/>
<text text-anchor="middle" x="68" y="-102.5" font-family="Helvetica,sans-Serif" font-size="10.00">AC_Avoid::get_max_speed</text>
</g>
<!-- Node2 -->
<g id="node2" class="node"><title>Node2</title>
<g id="a_node2"><a xlink:href="$classAC__AttitudeControl.html#a1788967db1aa0dfe68fad24da23947f9" xlink:title="AC_AttitudeControl\l::sqrt_controller">
<polygon fill="white" stroke="black" points="172,-90 172,-120 273,-120 273,-90 172,-90"/>
<text text-anchor="start" x="180" y="-108" font-family="Helvetica,sans-Serif" font-size="10.00">AC_AttitudeControl</text>
<text text-anchor="middle" x="222.5" y="-97" font-family="Helvetica,sans-Serif" font-size="10.00">::sqrt_controller</text>
</a>
</g>
</g>
<!-- Node1&#45;&gt;Node2 -->
<g id="edge1" class="edge"><title>Node1&#45;&gt;Node2</title>
<path fill="none" stroke="midnightblue" d="M136.333,-105C144.842,-105 153.501,-105 161.878,-105"/>
<polygon fill="midnightblue" stroke="midnightblue" points="161.928,-108.5 171.928,-105 161.928,-101.5 161.928,-108.5"/>
</g>
<!-- Node3 -->
<g id="node3" class="node"><title>Node3</title>
<g id="a_node3"><a xlink:href="$AP__Math_8h.html#a2a12cce483e9b870da70d30406d82c60" xlink:title="is_zero">
<polygon fill="white" stroke="black" points="313.5,-133.5 313.5,-152.5 361.5,-152.5 361.5,-133.5 313.5,-133.5"/>
<text text-anchor="middle" x="337.5" y="-140.5" font-family="Helvetica,sans-Serif" font-size="10.00">is_zero</text>
</a>
</g>
</g>
<!-- Node2&#45;&gt;Node3 -->
<g id="edge2" class="edge"><title>Node2&#45;&gt;Node3</title>
<path fill="none" stroke="midnightblue" d="M268.161,-120.019C279.969,-123.989 292.499,-128.203 303.561,-131.923"/>
<polygon fill="midnightblue" stroke="midnightblue" points="302.651,-135.31 313.245,-135.18 304.882,-128.675 302.651,-135.31"/>
</g>
<!-- Node4 -->
<g id="node4" class="node"><title>Node4</title>
<g id="a_node4"><a xlink:href="$AP__Math_8h.html#a0375e3d67fd3911cacee5c3e1408c0f2" xlink:title="sq">
<polygon fill="white" stroke="black" points="323,-95.5 323,-114.5 352,-114.5 352,-95.5 323,-95.5"/>
<text text-anchor="middle" x="337.5" y="-102.5" font-family="Helvetica,sans-Serif" font-size="10.00">sq</text>
</a>
</g>
</g>
<!-- Node2&#45;&gt;Node4 -->
<g id="edge3" class="edge"><title>Node2&#45;&gt;Node4</title>
<path fill="none" stroke="midnightblue" d="M273.063,-105C286.725,-105 300.935,-105 312.435,-105"/>
<polygon fill="midnightblue" stroke="midnightblue" points="312.524,-108.5 322.524,-105 312.524,-101.5 312.524,-108.5"/>
</g>
<!-- Node5 -->
<g id="node5" class="node"><title>Node5</title>
<g id="a_node5"><a xlink:href="$AP__Math_8cpp.html#ac89eb1832d8e4d67fcf1ac07e3c25184" xlink:title="safe_sqrt">
<polygon fill="white" stroke="black" points="309,-57.5 309,-76.5 366,-76.5 366,-57.5 309,-57.5"/>
<text text-anchor="middle" x="337.5" y="-64.5" font-family="Helvetica,sans-Serif" font-size="10.00">safe_sqrt</text>
</a>
</g>
</g>
<!-- Node2&#45;&gt;Node5 -->
<g id="edge4" class="edge"><title>Node2&#45;&gt;Node5</title>
<path fill="none" stroke="midnightblue" d="M268.161,-89.9814C278.432,-86.5273 289.25,-82.8894 299.173,-79.5525"/>
<polygon fill="midnightblue" stroke="midnightblue" points="300.381,-82.8388 308.744,-76.3339 298.15,-76.2039 300.381,-82.8388"/>
</g>
<!-- Node6 -->
<g id="node6" class="node"><title>Node6</title>
<g id="a_node6"><a xlink:href="$AP__Math_8cpp.html#aa5cb9421d48def32eb7574adb1b152b0" xlink:title="safe_sqrt\&lt; int \&gt;">
<polygon fill="white" stroke="black" points="411,-114.5 411,-133.5 497,-133.5 497,-114.5 411,-114.5"/>
<text text-anchor="middle" x="454" y="-121.5" font-family="Helvetica,sans-Serif" font-size="10.00">safe_sqrt&lt; int &gt;</text>
</a>
</g>
</g>
<!-- Node5&#45;&gt;Node6 -->
<g id="edge5" class="edge"><title>Node5&#45;&gt;Node6</title>
<path fill="none" stroke="midnightblue" d="M352.71,-76.5312C365.312,-84.7315 384.398,-96.5421 402,-105 406.136,-106.987 410.538,-108.904 414.956,-110.706"/>
<polygon fill="midnightblue" stroke="midnightblue" points="413.969,-114.078 424.558,-114.45 416.512,-107.556 413.969,-114.078"/>
</g>
<!-- Node7 -->
<g id="node7" class="node"><title>Node7</title>
<g id="a_node7"><a xlink:href="$AP__Math_8cpp.html#a6952300e3d03222491051d674312b67d" xlink:title="safe_sqrt\&lt; short \&gt;">
<polygon fill="white" stroke="black" points="405.5,-76.5 405.5,-95.5 502.5,-95.5 502.5,-76.5 405.5,-76.5"/>
<text text-anchor="middle" x="454" y="-83.5" font-family="Helvetica,sans-Serif" font-size="10.00">safe_sqrt&lt; short &gt;</text>
</a>
</g>
</g>
<!-- Node5&#45;&gt;Node7 -->
<g id="edge6" class="edge"><title>Node5&#45;&gt;Node7</title>
<path fill="none" stroke="midnightblue" d="M366.217,-71.5994C375.053,-73.0656 385.181,-74.7462 395.327,-76.4298"/>
<polygon fill="midnightblue" stroke="midnightblue" points="394.993,-79.9222 405.431,-78.1065 396.139,-73.0166 394.993,-79.9222"/>
</g>
<!-- Node8 -->
<g id="node8" class="node"><title>Node8</title>
<g id="a_node8"><a xlink:href="$AP__Math_8cpp.html#a40ae6cfccff676d9d2ff57e2e9ca549c" xlink:title="safe_sqrt\&lt; float \&gt;">
<polygon fill="white" stroke="black" points="407,-38.5 407,-57.5 501,-57.5 501,-38.5 407,-38.5"/>
<text text-anchor="middle" x="454" y="-45.5" font-family="Helvetica,sans-Serif" font-size="10.00">safe_sqrt&lt; float &gt;</text>
</a>
</g>
</g>
<!-- Node5&#45;&gt;Node8 -->
<g id="edge7" class="edge"><title>Node5&#45;&gt;Node8</title>
<path fill="none" stroke="midnightblue" d="M366.217,-62.4006C375.446,-60.8692 386.084,-59.1039 396.68,-57.3456"/>
<polygon fill="midnightblue" stroke="midnightblue" points="397.487,-60.7597 406.779,-55.6698 396.341,-53.8541 397.487,-60.7597"/>
</g>
<!-- Node9 -->
<g id="node9" class="node"><title>Node9</title>
<g id="a_node9"><a xlink:href="$AP__Math_8cpp.html#acf6795fb73b8b915b53126f71cd2712a" xlink:title="safe_sqrt\&lt; double \&gt;">
<polygon fill="white" stroke="black" points="402,-0.5 402,-19.5 506,-19.5 506,-0.5 402,-0.5"/>
<text text-anchor="middle" x="454" y="-7.5" font-family="Helvetica,sans-Serif" font-size="10.00">safe_sqrt&lt; double &gt;</text>
</a>
</g>
</g>
<!-- Node5&#45;&gt;Node9 -->
<g id="edge8" class="edge"><title>Node5&#45;&gt;Node9</title>
<path fill="none" stroke="midnightblue" d="M352.71,-57.4688C365.312,-49.2685 384.398,-37.4579 402,-29 406.136,-27.0127 410.538,-25.0956 414.956,-23.2937"/>
<polygon fill="midnightblue" stroke="midnightblue" points="416.512,-26.4437 424.558,-19.5502 413.969,-19.9219 416.512,-26.4437"/>
</g>
</g>
</svg>
