<?xml version="1.0" encoding="UTF-8" standalone="no"?>
<!DOCTYPE svg PUBLIC "-//W3C//DTD SVG 1.1//EN"
 "http://www.w3.org/Graphics/SVG/1.1/DTD/svg11.dtd">
<!-- Generated by graphviz version 2.38.0 (20140413.2041)
 -->
<!-- Title: AC_Avoid::adjust_velocity_proximity Pages: 1 -->
<svg width="1020pt" height="453pt"
 viewBox="0.00 0.00 1020.00 452.67" xmlns="http://www.w3.org/2000/svg" xmlns:xlink="http://www.w3.org/1999/xlink">
<g id="graph0" class="graph" transform="scale(1 1) rotate(0) translate(4 448.666)">
<title>AC_Avoid::adjust_velocity_proximity</title>
<polygon fill="white" stroke="none" points="-4,4 -4,-448.666 1016,-448.666 1016,4 -4,4"/>
<!-- Node1 -->
<g id="node1" class="node"><title>Node1</title>
<polygon fill="#bfbfbf" stroke="black" points="0,-359.666 0,-389.666 132,-389.666 132,-359.666 0,-359.666"/>
<text text-anchor="start" x="8" y="-377.666" font-family="Helvetica,sans-Serif" font-size="10.00">AC_Avoid::adjust_velocity</text>
<text text-anchor="middle" x="66" y="-366.666" font-family="Helvetica,sans-Serif" font-size="10.00">_proximity</text>
</g>
<!-- Node2 -->
<g id="node2" class="node"><title>Node2</title>
<g id="a_node2"><a xlink:href="$classAP__Proximity.html#a705c8ca4f3987e3b02478bc01826a53f" xlink:title="AP_Proximity::get_status">
<polygon fill="white" stroke="black" points="174.5,-425.166 174.5,-444.166 302.5,-444.166 302.5,-425.166 174.5,-425.166"/>
<text text-anchor="middle" x="238.5" y="-432.166" font-family="Helvetica,sans-Serif" font-size="10.00">AP_Proximity::get_status</text>
</a>
</g>
</g>
<!-- Node1&#45;&gt;Node2 -->
<g id="edge1" class="edge"><title>Node1&#45;&gt;Node2</title>
<path fill="none" stroke="midnightblue" d="M101.21,-389.734C120.593,-397.972 145.413,-408.024 168,-415.666 174.924,-418.008 182.309,-420.271 189.583,-422.369"/>
<polygon fill="midnightblue" stroke="midnightblue" points="188.805,-425.786 199.379,-425.12 190.698,-419.047 188.805,-425.786"/>
</g>
<!-- Node3 -->
<g id="node3" class="node"><title>Node3</title>
<g id="a_node3"><a xlink:href="$structVector2.html#a7027a23fe57300a1142fdb9e28d6e3da" xlink:title="Vector2::is_zero">
<polygon fill="white" stroke="black" points="194.5,-387.166 194.5,-406.166 282.5,-406.166 282.5,-387.166 194.5,-387.166"/>
<text text-anchor="middle" x="238.5" y="-394.166" font-family="Helvetica,sans-Serif" font-size="10.00">Vector2::is_zero</text>
</a>
</g>
</g>
<!-- Node1&#45;&gt;Node3 -->
<g id="edge2" class="edge"><title>Node1&#45;&gt;Node3</title>
<path fill="none" stroke="midnightblue" d="M132.432,-383.108C149.619,-385.326 167.944,-387.691 184.397,-389.814"/>
<polygon fill="midnightblue" stroke="midnightblue" points="184.007,-393.292 194.372,-391.101 184.903,-386.35 184.007,-393.292"/>
</g>
<!-- Node4 -->
<g id="node4" class="node"><title>Node4</title>
<g id="a_node4"><a xlink:href="$classAP__Proximity.html#afb59cefa0abc90cb0d8a89754f8601bd" xlink:title="AP_Proximity::get_boundary\l_points">
<polygon fill="white" stroke="black" points="168,-337.666 168,-367.666 309,-367.666 309,-337.666 168,-337.666"/>
<text text-anchor="start" x="176" y="-355.666" font-family="Helvetica,sans-Serif" font-size="10.00">AP_Proximity::get_boundary</text>
<text text-anchor="middle" x="238.5" y="-344.666" font-family="Helvetica,sans-Serif" font-size="10.00">_points</text>
</a>
</g>
</g>
<!-- Node1&#45;&gt;Node4 -->
<g id="edge3" class="edge"><title>Node1&#45;&gt;Node4</title>
<path fill="none" stroke="midnightblue" d="M132.432,-366.223C140.802,-365.143 149.441,-364.028 158.003,-362.923"/>
<polygon fill="midnightblue" stroke="midnightblue" points="158.528,-366.385 167.997,-361.634 157.632,-359.442 158.528,-366.385"/>
</g>
<!-- Node6 -->
<g id="node6" class="node"><title>Node6</title>
<g id="a_node6"><a xlink:href="$classAC__Avoid.html#a7e9a8c28e3f61c7e7ee3bf5afe986e4f" xlink:title="AC_Avoid::adjust_velocity\l_polygon">
<polygon fill="white" stroke="black" points="172.5,-204.666 172.5,-234.666 304.5,-234.666 304.5,-204.666 172.5,-204.666"/>
<text text-anchor="start" x="180.5" y="-222.666" font-family="Helvetica,sans-Serif" font-size="10.00">AC_Avoid::adjust_velocity</text>
<text text-anchor="middle" x="238.5" y="-211.666" font-family="Helvetica,sans-Serif" font-size="10.00">_polygon</text>
</a>
</g>
</g>
<!-- Node1&#45;&gt;Node6 -->
<g id="edge5" class="edge"><title>Node1&#45;&gt;Node6</title>
<path fill="none" stroke="midnightblue" d="M83.6587,-359.521C113.962,-331.972 178.211,-273.564 213.332,-241.636"/>
<polygon fill="midnightblue" stroke="midnightblue" points="215.729,-244.188 220.774,-234.871 211.02,-239.008 215.729,-244.188"/>
</g>
<!-- Node5 -->
<g id="node5" class="node"><title>Node5</title>
<g id="a_node5"><a xlink:href="$classAP__Proximity__Backend.html#a0285564537ba74f044b6a6f7b2179a46" xlink:title="AP_Proximity_Backend\l::get_boundary_points">
<polygon fill="white" stroke="black" points="347.5,-403.666 347.5,-433.666 467.5,-433.666 467.5,-403.666 347.5,-403.666"/>
<text text-anchor="start" x="355.5" y="-421.666" font-family="Helvetica,sans-Serif" font-size="10.00">AP_Proximity_Backend</text>
<text text-anchor="middle" x="407.5" y="-410.666" font-family="Helvetica,sans-Serif" font-size="10.00">::get_boundary_points</text>
</a>
</g>
</g>
<!-- Node4&#45;&gt;Node5 -->
<g id="edge4" class="edge"><title>Node4&#45;&gt;Node5</title>
<path fill="none" stroke="midnightblue" d="M283.493,-367.769C292.012,-370.896 300.828,-374.275 309,-377.666 325.344,-384.446 328.749,-387.667 345,-394.666 348.908,-396.348 352.976,-398.048 357.075,-399.724"/>
<polygon fill="midnightblue" stroke="midnightblue" points="356.053,-403.085 366.637,-403.573 358.667,-396.592 356.053,-403.085"/>
</g>
<!-- Node7 -->
<g id="node7" class="node"><title>Node7</title>
<g id="a_node7"><a xlink:href="$classAP__InertialNav.html#a39348dd51a8c32fe16d01dfef284e31a" xlink:title="AP_InertialNav::get\l_position">
<polygon fill="white" stroke="black" points="356.5,-354.666 356.5,-384.666 458.5,-384.666 458.5,-354.666 356.5,-354.666"/>
<text text-anchor="start" x="364.5" y="-372.666" font-family="Helvetica,sans-Serif" font-size="10.00">AP_InertialNav::get</text>
<text text-anchor="middle" x="407.5" y="-361.666" font-family="Helvetica,sans-Serif" font-size="10.00">_position</text>
</a>
</g>
</g>
<!-- Node6&#45;&gt;Node7 -->
<g id="edge6" class="edge"><title>Node6&#45;&gt;Node7</title>
<path fill="none" stroke="midnightblue" d="M248.656,-234.99C264.96,-261.089 301.436,-314.374 345,-345.666 346.891,-347.024 348.869,-348.317 350.908,-349.548"/>
<polygon fill="midnightblue" stroke="midnightblue" points="349.701,-352.875 360.163,-354.549 353.029,-346.716 349.701,-352.875"/>
</g>
<!-- Node8 -->
<g id="node8" class="node"><title>Node8</title>
<g id="a_node8"><a xlink:href="$classAC__Fence.html#a9ab2e92431697e0f47896edce9e87cf9" xlink:title="returns true if we&#39;ve breached the polygon boundary. simple passthrough to underlying _poly_loader ob...">
<polygon fill="white" stroke="black" points="353,-305.666 353,-335.666 462,-335.666 462,-305.666 353,-305.666"/>
<text text-anchor="start" x="361" y="-323.666" font-family="Helvetica,sans-Serif" font-size="10.00">AC_Fence::boundary</text>
<text text-anchor="middle" x="407.5" y="-312.666" font-family="Helvetica,sans-Serif" font-size="10.00">_breached</text>
</a>
</g>
</g>
<!-- Node6&#45;&gt;Node8 -->
<g id="edge7" class="edge"><title>Node6&#45;&gt;Node8</title>
<path fill="none" stroke="midnightblue" d="M257.66,-234.815C278.001,-251.278 312.406,-277.639 345,-295.666 348.631,-297.674 352.457,-299.611 356.351,-301.459"/>
<polygon fill="midnightblue" stroke="midnightblue" points="354.948,-304.666 365.502,-305.596 357.832,-298.287 354.948,-304.666"/>
</g>
<!-- Node11 -->
<g id="node11" class="node"><title>Node11</title>
<g id="a_node11"><a xlink:href="$classAP__AHRS.html#ae559b9d6fdd1e8ed3001258f58c98c39" xlink:title="AP_AHRS::sin_yaw">
<polygon fill="white" stroke="black" points="354.5,-267.166 354.5,-286.166 460.5,-286.166 460.5,-267.166 354.5,-267.166"/>
<text text-anchor="middle" x="407.5" y="-274.166" font-family="Helvetica,sans-Serif" font-size="10.00">AP_AHRS::sin_yaw</text>
</a>
</g>
</g>
<!-- Node6&#45;&gt;Node11 -->
<g id="edge10" class="edge"><title>Node6&#45;&gt;Node11</title>
<path fill="none" stroke="midnightblue" d="M279.927,-234.72C299.505,-241.885 323.398,-250.443 345,-257.666 351.409,-259.808 358.221,-261.999 364.889,-264.095"/>
<polygon fill="midnightblue" stroke="midnightblue" points="363.903,-267.454 374.491,-267.082 365.982,-260.77 363.903,-267.454"/>
</g>
<!-- Node12 -->
<g id="node12" class="node"><title>Node12</title>
<g id="a_node12"><a xlink:href="$classAP__AHRS.html#a1aaffcffc239930cb651fad539362fa0" xlink:title="AP_AHRS::cos_yaw">
<polygon fill="white" stroke="black" points="353,-229.166 353,-248.166 462,-248.166 462,-229.166 353,-229.166"/>
<text text-anchor="middle" x="407.5" y="-236.166" font-family="Helvetica,sans-Serif" font-size="10.00">AP_AHRS::cos_yaw</text>
</a>
</g>
</g>
<!-- Node6&#45;&gt;Node12 -->
<g id="edge11" class="edge"><title>Node6&#45;&gt;Node12</title>
<path fill="none" stroke="midnightblue" d="M304.545,-227.066C317.191,-228.505 330.432,-230.011 343.027,-231.444"/>
<polygon fill="midnightblue" stroke="midnightblue" points="342.634,-234.922 352.966,-232.575 343.425,-227.967 342.634,-234.922"/>
</g>
<!-- Node13 -->
<g id="node13" class="node"><title>Node13</title>
<g id="a_node13"><a xlink:href="$AP__Math_8h.html#a5c0b5c82749ac54970b2699d3c10ee9b" xlink:title="MAX">
<polygon fill="white" stroke="black" points="388.5,-191.166 388.5,-210.166 426.5,-210.166 426.5,-191.166 388.5,-191.166"/>
<text text-anchor="middle" x="407.5" y="-198.166" font-family="Helvetica,sans-Serif" font-size="10.00">MAX</text>
</a>
</g>
</g>
<!-- Node6&#45;&gt;Node13 -->
<g id="edge12" class="edge"><title>Node6&#45;&gt;Node13</title>
<path fill="none" stroke="midnightblue" d="M304.545,-212.265C330.163,-209.351 358.221,-206.158 378.406,-203.862"/>
<polygon fill="midnightblue" stroke="midnightblue" points="378.927,-207.325 388.467,-202.717 378.135,-200.37 378.927,-207.325"/>
</g>
<!-- Node14 -->
<g id="node14" class="node"><title>Node14</title>
<g id="a_node14"><a xlink:href="$structVector2.html#a6dbbf670e7cdee42222de3aacb63d56a" xlink:title="Vector2\&lt; float \&gt;::closest\l_point">
<polygon fill="white" stroke="black" points="345,-141.666 345,-171.666 470,-171.666 470,-141.666 345,-141.666"/>
<text text-anchor="start" x="353" y="-159.666" font-family="Helvetica,sans-Serif" font-size="10.00">Vector2&lt; float &gt;::closest</text>
<text text-anchor="middle" x="407.5" y="-148.666" font-family="Helvetica,sans-Serif" font-size="10.00">_point</text>
</a>
</g>
</g>
<!-- Node6&#45;&gt;Node14 -->
<g id="edge13" class="edge"><title>Node6&#45;&gt;Node14</title>
<path fill="none" stroke="midnightblue" d="M279.501,-204.576C302.757,-195.802 332.259,-184.673 356.973,-175.349"/>
<polygon fill="midnightblue" stroke="midnightblue" points="358.416,-178.546 366.537,-171.742 355.945,-171.997 358.416,-178.546"/>
</g>
<!-- Node15 -->
<g id="node15" class="node"><title>Node15</title>
<g id="a_node15"><a xlink:href="$structVector2.html#ad8ebafde96f43521d3647e2552387529" xlink:title="Vector2::length">
<polygon fill="white" stroke="black" points="366,-103.166 366,-122.166 449,-122.166 449,-103.166 366,-103.166"/>
<text text-anchor="middle" x="407.5" y="-110.166" font-family="Helvetica,sans-Serif" font-size="10.00">Vector2::length</text>
</a>
</g>
</g>
<!-- Node6&#45;&gt;Node15 -->
<g id="edge14" class="edge"><title>Node6&#45;&gt;Node15</title>
<path fill="none" stroke="midnightblue" d="M253.813,-204.459C272.897,-185.006 308.528,-151.468 345,-131.666 348.974,-129.508 353.229,-127.557 357.576,-125.803"/>
<polygon fill="midnightblue" stroke="midnightblue" points="358.993,-129.01 367.167,-122.269 356.574,-122.442 358.993,-129.01"/>
</g>
<!-- Node18 -->
<g id="node18" class="node"><title>Node18</title>
<g id="a_node18"><a xlink:href="$AP__Math_8h.html#a2a12cce483e9b870da70d30406d82c60" xlink:title="is_zero">
<polygon fill="white" stroke="black" points="819.5,-24.1656 819.5,-43.1656 867.5,-43.1656 867.5,-24.1656 819.5,-24.1656"/>
<text text-anchor="middle" x="843.5" y="-31.1656" font-family="Helvetica,sans-Serif" font-size="10.00">is_zero</text>
</a>
</g>
</g>
<!-- Node6&#45;&gt;Node18 -->
<g id="edge17" class="edge"><title>Node6&#45;&gt;Node18</title>
<path fill="none" stroke="midnightblue" d="M244.009,-204.4C254.925,-170.525 286.297,-89.4072 345,-55.6656 498.804,32.7383 725.67,-6.44061 809.664,-25.4746"/>
<polygon fill="midnightblue" stroke="midnightblue" points="808.88,-28.8855 819.412,-27.7404 810.464,-22.0673 808.88,-28.8855"/>
</g>
<!-- Node19 -->
<g id="node19" class="node"><title>Node19</title>
<g id="a_node19"><a xlink:href="$classAC__Avoid.html#a888f3551abae1ca6982f69ee8a42d09a" xlink:title="AC_Avoid::limit_velocity">
<polygon fill="white" stroke="black" points="345.5,-65.1656 345.5,-84.1656 469.5,-84.1656 469.5,-65.1656 345.5,-65.1656"/>
<text text-anchor="middle" x="407.5" y="-72.1656" font-family="Helvetica,sans-Serif" font-size="10.00">AC_Avoid::limit_velocity</text>
</a>
</g>
</g>
<!-- Node6&#45;&gt;Node19 -->
<g id="edge18" class="edge"><title>Node6&#45;&gt;Node19</title>
<path fill="none" stroke="midnightblue" d="M248.169,-204.426C263.991,-177.968 300.094,-123.517 345,-93.6656 348.065,-91.6279 351.36,-89.8001 354.774,-88.1618"/>
<polygon fill="midnightblue" stroke="midnightblue" points="356.168,-91.3724 364.015,-84.2539 353.442,-84.9251 356.168,-91.3724"/>
</g>
<!-- Node9 -->
<g id="node9" class="node"><title>Node9</title>
<g id="a_node9"><a xlink:href="$classAC__PolyFence__loader.html#a91a6b4c5611590d524eacac2c2aeec3a" xlink:title="AC_PolyFence_loader\l::boundary_breached">
<polygon fill="white" stroke="black" points="517,-305.666 517,-335.666 631,-335.666 631,-305.666 517,-305.666"/>
<text text-anchor="start" x="525" y="-323.666" font-family="Helvetica,sans-Serif" font-size="10.00">AC_PolyFence_loader</text>
<text text-anchor="middle" x="574" y="-312.666" font-family="Helvetica,sans-Serif" font-size="10.00">::boundary_breached</text>
</a>
</g>
</g>
<!-- Node8&#45;&gt;Node9 -->
<g id="edge8" class="edge"><title>Node8&#45;&gt;Node9</title>
<path fill="none" stroke="midnightblue" d="M462.363,-320.666C476.524,-320.666 491.964,-320.666 506.695,-320.666"/>
<polygon fill="midnightblue" stroke="midnightblue" points="506.755,-324.166 516.755,-320.666 506.755,-317.166 506.755,-324.166"/>
</g>
<!-- Node10 -->
<g id="node10" class="node"><title>Node10</title>
<g id="a_node10"><a xlink:href="$polygon_8cpp.html#a69c7755ab39f2ede645c4542b3aed07c" xlink:title="Polygon_outside">
<polygon fill="white" stroke="black" points="684,-311.166 684,-330.166 773,-330.166 773,-311.166 684,-311.166"/>
<text text-anchor="middle" x="728.5" y="-318.166" font-family="Helvetica,sans-Serif" font-size="10.00">Polygon_outside</text>
</a>
</g>
</g>
<!-- Node9&#45;&gt;Node10 -->
<g id="edge9" class="edge"><title>Node9&#45;&gt;Node10</title>
<path fill="none" stroke="midnightblue" d="M631.352,-320.666C645.145,-320.666 659.872,-320.666 673.549,-320.666"/>
<polygon fill="midnightblue" stroke="midnightblue" points="673.771,-324.166 683.771,-320.666 673.771,-317.166 673.771,-324.166"/>
</g>
<!-- Node16 -->
<g id="node16" class="node"><title>Node16</title>
<g id="a_node16"><a xlink:href="$AP__Math_8h.html#adc76d4a5e5c9ae8cb7ab17b55c40d636" xlink:title="norm">
<polygon fill="white" stroke="black" points="709.5,-109.166 709.5,-128.166 747.5,-128.166 747.5,-109.166 709.5,-109.166"/>
<text text-anchor="middle" x="728.5" y="-116.166" font-family="Helvetica,sans-Serif" font-size="10.00">norm</text>
</a>
</g>
</g>
<!-- Node15&#45;&gt;Node16 -->
<g id="edge15" class="edge"><title>Node15&#45;&gt;Node16</title>
<path fill="none" stroke="midnightblue" d="M449.226,-113.432C514.869,-114.666 642.433,-117.066 699.143,-118.132"/>
<polygon fill="midnightblue" stroke="midnightblue" points="699.125,-121.632 709.189,-118.321 699.257,-114.634 699.125,-121.632"/>
</g>
<!-- Node17 -->
<g id="node17" class="node"><title>Node17</title>
<g id="a_node17"><a xlink:href="$AP__Math_8h.html#a0375e3d67fd3911cacee5c3e1408c0f2" xlink:title="sq">
<polygon fill="white" stroke="black" points="829,-106.166 829,-125.166 858,-125.166 858,-106.166 829,-106.166"/>
<text text-anchor="middle" x="843.5" y="-113.166" font-family="Helvetica,sans-Serif" font-size="10.00">sq</text>
</a>
</g>
</g>
<!-- Node16&#45;&gt;Node17 -->
<g id="edge16" class="edge"><title>Node16&#45;&gt;Node17</title>
<path fill="none" stroke="midnightblue" d="M747.655,-118.184C766.994,-117.67 797.679,-116.856 818.885,-116.293"/>
<polygon fill="midnightblue" stroke="midnightblue" points="819.096,-119.788 828.999,-116.024 818.91,-112.791 819.096,-119.788"/>
</g>
<!-- Node20 -->
<g id="node20" class="node"><title>Node20</title>
<g id="a_node20"><a xlink:href="$classAC__Avoid.html#a2ba87fd18a092d9f11ba197255064d16" xlink:title="AC_Avoid::get_max_speed">
<polygon fill="white" stroke="black" points="506,-65.1656 506,-84.1656 642,-84.1656 642,-65.1656 506,-65.1656"/>
<text text-anchor="middle" x="574" y="-72.1656" font-family="Helvetica,sans-Serif" font-size="10.00">AC_Avoid::get_max_speed</text>
</a>
</g>
</g>
<!-- Node19&#45;&gt;Node20 -->
<g id="edge19" class="edge"><title>Node19&#45;&gt;Node20</title>
<path fill="none" stroke="midnightblue" d="M469.754,-74.6656C478.223,-74.6656 487.011,-74.6656 495.724,-74.6656"/>
<polygon fill="midnightblue" stroke="midnightblue" points="495.895,-78.1657 505.895,-74.6656 495.895,-71.1657 495.895,-78.1657"/>
</g>
<!-- Node21 -->
<g id="node21" class="node"><title>Node21</title>
<g id="a_node21"><a xlink:href="$classAC__AttitudeControl.html#a1788967db1aa0dfe68fad24da23947f9" xlink:title="AC_AttitudeControl\l::sqrt_controller">
<polygon fill="white" stroke="black" points="678,-59.6656 678,-89.6656 779,-89.6656 779,-59.6656 678,-59.6656"/>
<text text-anchor="start" x="686" y="-77.6656" font-family="Helvetica,sans-Serif" font-size="10.00">AC_AttitudeControl</text>
<text text-anchor="middle" x="728.5" y="-66.6656" font-family="Helvetica,sans-Serif" font-size="10.00">::sqrt_controller</text>
</a>
</g>
</g>
<!-- Node20&#45;&gt;Node21 -->
<g id="edge20" class="edge"><title>Node20&#45;&gt;Node21</title>
<path fill="none" stroke="midnightblue" d="M642.333,-74.6656C650.842,-74.6656 659.501,-74.6656 667.878,-74.6656"/>
<polygon fill="midnightblue" stroke="midnightblue" points="667.928,-78.1657 677.928,-74.6656 667.928,-71.1657 667.928,-78.1657"/>
</g>
<!-- Node21&#45;&gt;Node17 -->
<g id="edge22" class="edge"><title>Node21&#45;&gt;Node17</title>
<path fill="none" stroke="midnightblue" d="M770.935,-89.6997C787.198,-95.6004 805.257,-102.153 819.166,-107.199"/>
<polygon fill="midnightblue" stroke="midnightblue" points="818.3,-110.608 828.894,-110.729 820.688,-104.028 818.3,-110.608"/>
</g>
<!-- Node21&#45;&gt;Node18 -->
<g id="edge21" class="edge"><title>Node21&#45;&gt;Node18</title>
<path fill="none" stroke="midnightblue" d="M770.935,-59.6315C783.73,-54.9892 797.636,-49.9435 809.759,-45.5452"/>
<polygon fill="midnightblue" stroke="midnightblue" points="811.252,-48.7268 819.458,-42.0259 808.864,-42.1466 811.252,-48.7268"/>
</g>
<!-- Node22 -->
<g id="node22" class="node"><title>Node22</title>
<g id="a_node22"><a xlink:href="$AP__Math_8cpp.html#ac89eb1832d8e4d67fcf1ac07e3c25184" xlink:title="safe_sqrt">
<polygon fill="white" stroke="black" points="815,-65.1656 815,-84.1656 872,-84.1656 872,-65.1656 815,-65.1656"/>
<text text-anchor="middle" x="843.5" y="-72.1656" font-family="Helvetica,sans-Serif" font-size="10.00">safe_sqrt</text>
</a>
</g>
</g>
<!-- Node21&#45;&gt;Node22 -->
<g id="edge23" class="edge"><title>Node21&#45;&gt;Node22</title>
<path fill="none" stroke="midnightblue" d="M779.063,-74.6656C787.653,-74.6656 796.459,-74.6656 804.672,-74.6656"/>
<polygon fill="midnightblue" stroke="midnightblue" points="804.698,-78.1657 814.698,-74.6656 804.698,-71.1657 804.698,-78.1657"/>
</g>
<!-- Node23 -->
<g id="node23" class="node"><title>Node23</title>
<g id="a_node23"><a xlink:href="$AP__Math_8cpp.html#aa5cb9421d48def32eb7574adb1b152b0" xlink:title="safe_sqrt\&lt; int \&gt;">
<polygon fill="white" stroke="black" points="917,-122.166 917,-141.166 1003,-141.166 1003,-122.166 917,-122.166"/>
<text text-anchor="middle" x="960" y="-129.166" font-family="Helvetica,sans-Serif" font-size="10.00">safe_sqrt&lt; int &gt;</text>
</a>
</g>
</g>
<!-- Node22&#45;&gt;Node23 -->
<g id="edge24" class="edge"><title>Node22&#45;&gt;Node23</title>
<path fill="none" stroke="midnightblue" d="M858.71,-84.1968C871.312,-92.3971 890.398,-104.208 908,-112.666 912.136,-114.653 916.538,-116.57 920.956,-118.372"/>
<polygon fill="midnightblue" stroke="midnightblue" points="919.969,-121.744 930.558,-122.115 922.512,-115.222 919.969,-121.744"/>
</g>
<!-- Node24 -->
<g id="node24" class="node"><title>Node24</title>
<g id="a_node24"><a xlink:href="$AP__Math_8cpp.html#a6952300e3d03222491051d674312b67d" xlink:title="safe_sqrt\&lt; short \&gt;">
<polygon fill="white" stroke="black" points="911.5,-84.1656 911.5,-103.166 1008.5,-103.166 1008.5,-84.1656 911.5,-84.1656"/>
<text text-anchor="middle" x="960" y="-91.1656" font-family="Helvetica,sans-Serif" font-size="10.00">safe_sqrt&lt; short &gt;</text>
</a>
</g>
</g>
<!-- Node22&#45;&gt;Node24 -->
<g id="edge25" class="edge"><title>Node22&#45;&gt;Node24</title>
<path fill="none" stroke="midnightblue" d="M872.217,-79.265C881.053,-80.7311 891.181,-82.4118 901.327,-84.0954"/>
<polygon fill="midnightblue" stroke="midnightblue" points="900.993,-87.5878 911.431,-85.7721 902.139,-80.6822 900.993,-87.5878"/>
</g>
<!-- Node25 -->
<g id="node25" class="node"><title>Node25</title>
<g id="a_node25"><a xlink:href="$AP__Math_8cpp.html#a40ae6cfccff676d9d2ff57e2e9ca549c" xlink:title="safe_sqrt\&lt; float \&gt;">
<polygon fill="white" stroke="black" points="913,-46.1656 913,-65.1656 1007,-65.1656 1007,-46.1656 913,-46.1656"/>
<text text-anchor="middle" x="960" y="-53.1656" font-family="Helvetica,sans-Serif" font-size="10.00">safe_sqrt&lt; float &gt;</text>
</a>
</g>
</g>
<!-- Node22&#45;&gt;Node25 -->
<g id="edge26" class="edge"><title>Node22&#45;&gt;Node25</title>
<path fill="none" stroke="midnightblue" d="M872.217,-70.0662C881.446,-68.5348 892.084,-66.7695 902.68,-65.0112"/>
<polygon fill="midnightblue" stroke="midnightblue" points="903.487,-68.4253 912.779,-63.3354 902.341,-61.5197 903.487,-68.4253"/>
</g>
<!-- Node26 -->
<g id="node26" class="node"><title>Node26</title>
<g id="a_node26"><a xlink:href="$AP__Math_8cpp.html#acf6795fb73b8b915b53126f71cd2712a" xlink:title="safe_sqrt\&lt; double \&gt;">
<polygon fill="white" stroke="black" points="908,-8.16559 908,-27.1656 1012,-27.1656 1012,-8.16559 908,-8.16559"/>
<text text-anchor="middle" x="960" y="-15.1656" font-family="Helvetica,sans-Serif" font-size="10.00">safe_sqrt&lt; double &gt;</text>
</a>
</g>
</g>
<!-- Node22&#45;&gt;Node26 -->
<g id="edge27" class="edge"><title>Node22&#45;&gt;Node26</title>
<path fill="none" stroke="midnightblue" d="M858.71,-65.1344C871.312,-56.9341 890.398,-45.1235 908,-36.6656 912.136,-34.6783 916.538,-32.7612 920.956,-30.9593"/>
<polygon fill="midnightblue" stroke="midnightblue" points="922.512,-34.1093 930.558,-27.2158 919.969,-27.5874 922.512,-34.1093"/>
</g>
</g>
</svg>
