<?xml version="1.0" encoding="UTF-8" standalone="no"?>
<!DOCTYPE svg PUBLIC "-//W3C//DTD SVG 1.1//EN"
 "http://www.w3.org/Graphics/SVG/1.1/DTD/svg11.dtd">
<!-- Generated by graphviz version 2.38.0 (20140413.2041)
 -->
<!-- Title: AC_PosControl::accel_to_throttle Pages: 1 -->
<svg width="534pt" height="405pt"
 viewBox="0.00 0.00 534.00 405.00" xmlns="http://www.w3.org/2000/svg" xmlns:xlink="http://www.w3.org/1999/xlink">
<g id="graph0" class="graph" transform="scale(1 1) rotate(0) translate(4 401)">
<title>AC_PosControl::accel_to_throttle</title>
<polygon fill="white" stroke="none" points="-4,4 -4,-401 530,-401 530,4 -4,4"/>
<!-- Node1 -->
<g id="node1" class="node"><title>Node1</title>
<polygon fill="#bfbfbf" stroke="black" points="0,-186.5 0,-216.5 114,-216.5 114,-186.5 0,-186.5"/>
<text text-anchor="start" x="8" y="-204.5" font-family="Helvetica,sans-Serif" font-size="10.00">AC_PosControl::accel</text>
<text text-anchor="middle" x="57" y="-193.5" font-family="Helvetica,sans-Serif" font-size="10.00">_to_throttle</text>
</g>
<!-- Node2 -->
<g id="node2" class="node"><title>Node2</title>
<g id="a_node2"><a xlink:href="$classAP__AHRS__View.html#a30dcc3814e306d0492b335d14ca35eba" xlink:title="AP_AHRS_View::get_accel\l_ef_blended">
<polygon fill="white" stroke="black" points="150,-366.5 150,-396.5 289,-396.5 289,-366.5 150,-366.5"/>
<text text-anchor="start" x="158" y="-384.5" font-family="Helvetica,sans-Serif" font-size="10.00">AP_AHRS_View::get_accel</text>
<text text-anchor="middle" x="219.5" y="-373.5" font-family="Helvetica,sans-Serif" font-size="10.00">_ef_blended</text>
</a>
</g>
</g>
<!-- Node1&#45;&gt;Node2 -->
<g id="edge1" class="edge"><title>Node1&#45;&gt;Node2</title>
<path fill="none" stroke="midnightblue" d="M63.0132,-216.598C73.9442,-247.285 102.796,-317.339 150,-356.5 152.046,-358.197 154.217,-359.785 156.48,-361.268"/>
<polygon fill="midnightblue" stroke="midnightblue" points="155.168,-364.551 165.584,-366.491 158.651,-358.479 155.168,-364.551"/>
</g>
<!-- Node4 -->
<g id="node4" class="node"><title>Node4</title>
<g id="a_node4"><a xlink:href="$classAC__PID.html#ac267330f1299f011febcaaba47994af7" xlink:title="AC_PID::set_input_filter_all">
<polygon fill="white" stroke="black" points="150.5,-328 150.5,-347 288.5,-347 288.5,-328 150.5,-328"/>
<text text-anchor="middle" x="219.5" y="-335" font-family="Helvetica,sans-Serif" font-size="10.00">AC_PID::set_input_filter_all</text>
</a>
</g>
</g>
<!-- Node1&#45;&gt;Node4 -->
<g id="edge3" class="edge"><title>Node1&#45;&gt;Node4</title>
<path fill="none" stroke="midnightblue" d="M65.6825,-216.58C79.2299,-241.632 109.781,-291.716 150,-318.5 153.11,-320.571 156.444,-322.419 159.903,-324.066"/>
<polygon fill="midnightblue" stroke="midnightblue" points="158.712,-327.361 169.29,-327.975 161.404,-320.899 158.712,-327.361"/>
</g>
<!-- Node7 -->
<g id="node7" class="node"><title>Node7</title>
<g id="a_node7"><a xlink:href="$classAC__PID.html#a3f727ab395b401474027b6b9efcab5a3" xlink:title="AC_PID::set_desired_rate">
<polygon fill="white" stroke="black" points="154,-290 154,-309 285,-309 285,-290 154,-290"/>
<text text-anchor="middle" x="219.5" y="-297" font-family="Helvetica,sans-Serif" font-size="10.00">AC_PID::set_desired_rate</text>
</a>
</g>
</g>
<!-- Node1&#45;&gt;Node7 -->
<g id="edge6" class="edge"><title>Node1&#45;&gt;Node7</title>
<path fill="none" stroke="midnightblue" d="M71.4809,-216.553C88.2136,-234.345 118.422,-263.655 150,-280.5 154.267,-282.776 158.833,-284.801 163.506,-286.598"/>
<polygon fill="midnightblue" stroke="midnightblue" points="162.593,-289.986 173.188,-289.973 164.897,-283.376 162.593,-289.986"/>
</g>
<!-- Node8 -->
<g id="node8" class="node"><title>Node8</title>
<g id="a_node8"><a xlink:href="$classAC__PID.html#a4808bb2656a1e8d94c713e58a7a2a222" xlink:title="AC_PID::get_p">
<polygon fill="white" stroke="black" points="178,-252 178,-271 261,-271 261,-252 178,-252"/>
<text text-anchor="middle" x="219.5" y="-259" font-family="Helvetica,sans-Serif" font-size="10.00">AC_PID::get_p</text>
</a>
</g>
</g>
<!-- Node1&#45;&gt;Node8 -->
<g id="edge7" class="edge"><title>Node1&#45;&gt;Node8</title>
<path fill="none" stroke="midnightblue" d="M88.6181,-216.52C106.295,-224.842 129.1,-234.991 150,-242.5 156.477,-244.827 163.383,-247.042 170.223,-249.083"/>
<polygon fill="midnightblue" stroke="midnightblue" points="169.562,-252.535 180.14,-251.942 171.501,-245.808 169.562,-252.535"/>
</g>
<!-- Node9 -->
<g id="node9" class="node"><title>Node9</title>
<g id="a_node9"><a xlink:href="$classAC__PID.html#a0fc275cae5ff46799af85af551c65870" xlink:title="AC_PID::get_integrator">
<polygon fill="white" stroke="black" points="160,-214 160,-233 279,-233 279,-214 160,-214"/>
<text text-anchor="middle" x="219.5" y="-221" font-family="Helvetica,sans-Serif" font-size="10.00">AC_PID::get_integrator</text>
</a>
</g>
</g>
<!-- Node1&#45;&gt;Node9 -->
<g id="edge8" class="edge"><title>Node1&#45;&gt;Node9</title>
<path fill="none" stroke="midnightblue" d="M114.135,-209.195C125.717,-210.782 138.038,-212.471 150.003,-214.111"/>
<polygon fill="midnightblue" stroke="midnightblue" points="149.563,-217.583 159.946,-215.474 150.514,-210.648 149.563,-217.583"/>
</g>
<!-- Node10 -->
<g id="node10" class="node"><title>Node10</title>
<g id="a_node10"><a xlink:href="$classAP__Motors.html#a6641c5398dea1388547dff3db5d95a86" xlink:title="AP_Motors::get_throttle\l_hover">
<polygon fill="white" stroke="black" points="159.5,-164.5 159.5,-194.5 279.5,-194.5 279.5,-164.5 159.5,-164.5"/>
<text text-anchor="start" x="167.5" y="-182.5" font-family="Helvetica,sans-Serif" font-size="10.00">AP_Motors::get_throttle</text>
<text text-anchor="middle" x="219.5" y="-171.5" font-family="Helvetica,sans-Serif" font-size="10.00">_hover</text>
</a>
</g>
</g>
<!-- Node1&#45;&gt;Node10 -->
<g id="edge9" class="edge"><title>Node1&#45;&gt;Node10</title>
<path fill="none" stroke="midnightblue" d="M114.135,-193.805C125.462,-192.253 137.495,-190.604 149.21,-188.998"/>
<polygon fill="midnightblue" stroke="midnightblue" points="149.966,-192.427 159.398,-187.601 149.015,-185.492 149.966,-192.427"/>
</g>
<!-- Node11 -->
<g id="node11" class="node"><title>Node11</title>
<g id="a_node11"><a xlink:href="$classAC__PID.html#a78d399f4731c6c4e0a1f9a4421b6c066" xlink:title="AC_PID::imax">
<polygon fill="white" stroke="black" points="179.5,-126 179.5,-145 259.5,-145 259.5,-126 179.5,-126"/>
<text text-anchor="middle" x="219.5" y="-133" font-family="Helvetica,sans-Serif" font-size="10.00">AC_PID::imax</text>
</a>
</g>
</g>
<!-- Node1&#45;&gt;Node11 -->
<g id="edge10" class="edge"><title>Node1&#45;&gt;Node11</title>
<path fill="none" stroke="midnightblue" d="M85.1892,-186.286C103.201,-176.615 127.558,-164.304 150,-155.5 156.819,-152.825 164.142,-150.319 171.373,-148.046"/>
<polygon fill="midnightblue" stroke="midnightblue" points="172.561,-151.343 181.119,-145.098 170.534,-144.643 172.561,-151.343"/>
</g>
<!-- Node12 -->
<g id="node12" class="node"><title>Node12</title>
<g id="a_node12"><a xlink:href="$classAC__PID.html#a2d5bf9811a78c93a396ec1e37ae6fa0a" xlink:title="AC_PID::get_i">
<polygon fill="white" stroke="black" points="343.5,-88 343.5,-107 423.5,-107 423.5,-88 343.5,-88"/>
<text text-anchor="middle" x="383.5" y="-95" font-family="Helvetica,sans-Serif" font-size="10.00">AC_PID::get_i</text>
</a>
</g>
</g>
<!-- Node1&#45;&gt;Node12 -->
<g id="edge12" class="edge"><title>Node1&#45;&gt;Node12</title>
<path fill="none" stroke="midnightblue" d="M69.0711,-186.293C84.6132,-166.292 114.956,-131.886 150,-116.5 208.904,-90.6387 284.223,-89.5556 332.908,-92.4582"/>
<polygon fill="midnightblue" stroke="midnightblue" points="332.964,-95.9699 343.178,-93.1533 333.437,-88.9859 332.964,-95.9699"/>
</g>
<!-- Node13 -->
<g id="node13" class="node"><title>Node13</title>
<g id="a_node13"><a xlink:href="$classAC__PID.html#ad0c0510049ea37401920792e843bec86" xlink:title="AC_PID::get_d">
<polygon fill="white" stroke="black" points="178,-50 178,-69 261,-69 261,-50 178,-50"/>
<text text-anchor="middle" x="219.5" y="-57" font-family="Helvetica,sans-Serif" font-size="10.00">AC_PID::get_d</text>
</a>
</g>
</g>
<!-- Node1&#45;&gt;Node13 -->
<g id="edge14" class="edge"><title>Node1&#45;&gt;Node13</title>
<path fill="none" stroke="midnightblue" d="M66.0713,-186.179C79.9715,-161.204 110.754,-111.683 150,-83.5 155.911,-79.2552 162.641,-75.7042 169.52,-72.75"/>
<polygon fill="midnightblue" stroke="midnightblue" points="170.883,-75.9752 178.929,-69.0823 168.34,-69.4531 170.883,-75.9752"/>
</g>
<!-- Node14 -->
<g id="node14" class="node"><title>Node14</title>
<g id="a_node14"><a xlink:href="$classAC__AttitudeControl.html#afb7047fed5ca67153e98c7369b3b9cd7" xlink:title="AC_AttitudeControl\l::set_throttle_out">
<polygon fill="white" stroke="black" points="169,-0.5 169,-30.5 270,-30.5 270,-0.5 169,-0.5"/>
<text text-anchor="start" x="177" y="-18.5" font-family="Helvetica,sans-Serif" font-size="10.00">AC_AttitudeControl</text>
<text text-anchor="middle" x="219.5" y="-7.5" font-family="Helvetica,sans-Serif" font-size="10.00">::set_throttle_out</text>
</a>
</g>
</g>
<!-- Node1&#45;&gt;Node14 -->
<g id="edge15" class="edge"><title>Node1&#45;&gt;Node14</title>
<path fill="none" stroke="midnightblue" d="M62.6833,-186.303C73.1761,-154.691 101.526,-81.3951 150,-40.5 153.016,-37.9554 156.314,-35.6597 159.779,-33.5902"/>
<polygon fill="midnightblue" stroke="midnightblue" points="161.462,-36.6598 168.674,-28.8987 158.196,-30.4682 161.462,-36.6598"/>
</g>
<!-- Node3 -->
<g id="node3" class="node"><title>Node3</title>
<g id="a_node3"><a xlink:href="$classAP__AHRS.html#abf6bbe1a98a2b7f99289e9394ce8fcd8" xlink:title="AP_AHRS::get_accel\l_ef_blended">
<polygon fill="white" stroke="black" points="327.5,-366.5 327.5,-396.5 439.5,-396.5 439.5,-366.5 327.5,-366.5"/>
<text text-anchor="start" x="335.5" y="-384.5" font-family="Helvetica,sans-Serif" font-size="10.00">AP_AHRS::get_accel</text>
<text text-anchor="middle" x="383.5" y="-373.5" font-family="Helvetica,sans-Serif" font-size="10.00">_ef_blended</text>
</a>
</g>
</g>
<!-- Node2&#45;&gt;Node3 -->
<g id="edge2" class="edge"><title>Node2&#45;&gt;Node3</title>
<path fill="none" stroke="midnightblue" d="M289.203,-381.5C298.476,-381.5 307.969,-381.5 317.181,-381.5"/>
<polygon fill="midnightblue" stroke="midnightblue" points="317.435,-385 327.435,-381.5 317.435,-378 317.435,-385"/>
</g>
<!-- Node5 -->
<g id="node5" class="node"><title>Node5</title>
<g id="a_node5"><a xlink:href="$classAC__PID.html#ac12ffbd4fd053c6152d403b69e07b8e1" xlink:title="AC_PID::get_filt_alpha">
<polygon fill="white" stroke="black" points="325,-126 325,-145 442,-145 442,-126 325,-126"/>
<text text-anchor="middle" x="383.5" y="-133" font-family="Helvetica,sans-Serif" font-size="10.00">AC_PID::get_filt_alpha</text>
</a>
</g>
</g>
<!-- Node4&#45;&gt;Node5 -->
<g id="edge4" class="edge"><title>Node4&#45;&gt;Node5</title>
<path fill="none" stroke="midnightblue" d="M272.895,-327.97C278.693,-325.504 284.219,-322.402 289,-318.5 342.355,-274.955 368.408,-193.032 377.996,-155.365"/>
<polygon fill="midnightblue" stroke="midnightblue" points="381.509,-155.73 380.455,-145.188 374.705,-154.086 381.509,-155.73"/>
</g>
<!-- Node6 -->
<g id="node6" class="node"><title>Node6</title>
<g id="a_node6"><a xlink:href="$AP__Math_8h.html#a2a12cce483e9b870da70d30406d82c60" xlink:title="is_zero">
<polygon fill="white" stroke="black" points="478,-107 478,-126 526,-126 526,-107 478,-107"/>
<text text-anchor="middle" x="502" y="-114" font-family="Helvetica,sans-Serif" font-size="10.00">is_zero</text>
</a>
</g>
</g>
<!-- Node5&#45;&gt;Node6 -->
<g id="edge5" class="edge"><title>Node5&#45;&gt;Node6</title>
<path fill="none" stroke="midnightblue" d="M442.067,-126.111C450.916,-124.668 459.786,-123.222 467.86,-121.905"/>
<polygon fill="midnightblue" stroke="midnightblue" points="468.64,-125.324 477.946,-120.26 467.513,-118.415 468.64,-125.324"/>
</g>
<!-- Node11&#45;&gt;Node5 -->
<g id="edge11" class="edge"><title>Node11&#45;&gt;Node5</title>
<path fill="none" stroke="midnightblue" d="M259.716,-135.5C276.305,-135.5 296.115,-135.5 314.93,-135.5"/>
<polygon fill="midnightblue" stroke="midnightblue" points="314.954,-139 324.954,-135.5 314.954,-132 314.954,-139"/>
</g>
<!-- Node12&#45;&gt;Node6 -->
<g id="edge13" class="edge"><title>Node12&#45;&gt;Node6</title>
<path fill="none" stroke="midnightblue" d="M423.617,-103.88C437.945,-106.216 454.01,-108.836 467.773,-111.081"/>
<polygon fill="midnightblue" stroke="midnightblue" points="467.35,-114.558 477.783,-112.714 468.477,-107.649 467.35,-114.558"/>
</g>
</g>
</svg>
