<?xml version="1.0" encoding="UTF-8" standalone="no"?>
<!DOCTYPE svg PUBLIC "-//W3C//DTD SVG 1.1//EN"
 "http://www.w3.org/Graphics/SVG/1.1/DTD/svg11.dtd">
<!-- Generated by graphviz version 2.38.0 (20140413.2041)
 -->
<!-- Title: AC_Circle::get_closest_point_on_circle Pages: 1 -->
<svg width="329pt" height="116pt"
 viewBox="0.00 0.00 329.00 115.50" xmlns="http://www.w3.org/2000/svg" xmlns:xlink="http://www.w3.org/1999/xlink">
<g id="graph0" class="graph" transform="scale(1 1) rotate(0) translate(4 111.5)">
<title>AC_Circle::get_closest_point_on_circle</title>
<polygon fill="white" stroke="none" points="-4,4 -4,-111.5 325,-111.5 325,4 -4,4"/>
<!-- Node1 -->
<g id="node1" class="node"><title>Node1</title>
<polygon fill="#bfbfbf" stroke="black" points="0,-33 0,-63 118,-63 118,-33 0,-33"/>
<text text-anchor="start" x="8" y="-51" font-family="Helvetica,sans-Serif" font-size="10.00">AC_Circle::get_closest</text>
<text text-anchor="middle" x="59" y="-40" font-family="Helvetica,sans-Serif" font-size="10.00">_point_on_circle</text>
</g>
<!-- Node2 -->
<g id="node2" class="node"><title>Node2</title>
<g id="a_node2"><a xlink:href="$classAP__InertialNav.html#a39348dd51a8c32fe16d01dfef284e31a" xlink:title="AP_InertialNav::get\l_position">
<polygon fill="white" stroke="black" points="154,-77 154,-107 256,-107 256,-77 154,-77"/>
<text text-anchor="start" x="162" y="-95" font-family="Helvetica,sans-Serif" font-size="10.00">AP_InertialNav::get</text>
<text text-anchor="middle" x="205" y="-84" font-family="Helvetica,sans-Serif" font-size="10.00">_position</text>
</a>
</g>
</g>
<!-- Node1&#45;&gt;Node2 -->
<g id="edge1" class="edge"><title>Node1&#45;&gt;Node2</title>
<path fill="none" stroke="midnightblue" d="M109.154,-63.0192C120.611,-66.5202 132.93,-70.2842 144.772,-73.9027"/>
<polygon fill="midnightblue" stroke="midnightblue" points="143.992,-77.324 154.579,-76.8991 146.038,-70.6296 143.992,-77.324"/>
</g>
<!-- Node3 -->
<g id="node3" class="node"><title>Node3</title>
<g id="a_node3"><a xlink:href="$AP__Math_8h.html#adc76d4a5e5c9ae8cb7ab17b55c40d636" xlink:title="norm">
<polygon fill="white" stroke="black" points="186,-38.5 186,-57.5 224,-57.5 224,-38.5 186,-38.5"/>
<text text-anchor="middle" x="205" y="-45.5" font-family="Helvetica,sans-Serif" font-size="10.00">norm</text>
</a>
</g>
</g>
<!-- Node1&#45;&gt;Node3 -->
<g id="edge2" class="edge"><title>Node1&#45;&gt;Node3</title>
<path fill="none" stroke="midnightblue" d="M118.155,-48C138.005,-48 159.314,-48 175.735,-48"/>
<polygon fill="midnightblue" stroke="midnightblue" points="175.757,-51.5001 185.757,-48 175.757,-44.5001 175.757,-51.5001"/>
</g>
<!-- Node5 -->
<g id="node5" class="node"><title>Node5</title>
<g id="a_node5"><a xlink:href="$AP__Math_8h.html#a2a12cce483e9b870da70d30406d82c60" xlink:title="is_zero">
<polygon fill="white" stroke="black" points="181,-0.5 181,-19.5 229,-19.5 229,-0.5 181,-0.5"/>
<text text-anchor="middle" x="205" y="-7.5" font-family="Helvetica,sans-Serif" font-size="10.00">is_zero</text>
</a>
</g>
</g>
<!-- Node1&#45;&gt;Node5 -->
<g id="edge4" class="edge"><title>Node1&#45;&gt;Node5</title>
<path fill="none" stroke="midnightblue" d="M116.913,-32.9814C135.227,-28.1484 154.906,-22.9555 170.915,-18.7308"/>
<polygon fill="midnightblue" stroke="midnightblue" points="172.078,-22.0438 180.854,-16.108 170.292,-15.2755 172.078,-22.0438"/>
</g>
<!-- Node4 -->
<g id="node4" class="node"><title>Node4</title>
<g id="a_node4"><a xlink:href="$AP__Math_8h.html#a0375e3d67fd3911cacee5c3e1408c0f2" xlink:title="sq">
<polygon fill="white" stroke="black" points="292,-38.5 292,-57.5 321,-57.5 321,-38.5 292,-38.5"/>
<text text-anchor="middle" x="306.5" y="-45.5" font-family="Helvetica,sans-Serif" font-size="10.00">sq</text>
</a>
</g>
</g>
<!-- Node3&#45;&gt;Node4 -->
<g id="edge3" class="edge"><title>Node3&#45;&gt;Node4</title>
<path fill="none" stroke="midnightblue" d="M224.25,-48C240.418,-48 264.127,-48 281.765,-48"/>
<polygon fill="midnightblue" stroke="midnightblue" points="281.841,-51.5001 291.841,-48 281.841,-44.5001 281.841,-51.5001"/>
</g>
</g>
</svg>
