<?xml version="1.0" encoding="UTF-8" standalone="no"?>
<!DOCTYPE svg PUBLIC "-//W3C//DTD SVG 1.1//EN"
 "http://www.w3.org/Graphics/SVG/1.1/DTD/svg11.dtd">
<!-- Generated by graphviz version 2.38.0 (20140413.2041)
 -->
<!-- Title: AC_AttitudeControl_Heli::passthrough_bf_roll_pitch_rate_yaw Pages: 1 -->
<svg width="1102pt" height="686pt"
 viewBox="0.00 0.00 1102.00 685.50" xmlns="http://www.w3.org/2000/svg" xmlns:xlink="http://www.w3.org/1999/xlink">
<g id="graph0" class="graph" transform="scale(1 1) rotate(0) translate(4 681.5)">
<title>AC_AttitudeControl_Heli::passthrough_bf_roll_pitch_rate_yaw</title>
<polygon fill="white" stroke="none" points="-4,4 -4,-681.5 1098,-681.5 1098,4 -4,4"/>
<!-- Node1 -->
<g id="node1" class="node"><title>Node1</title>
<polygon fill="#bfbfbf" stroke="black" points="0,-315.5 0,-356.5 112,-356.5 112,-315.5 0,-315.5"/>
<text text-anchor="start" x="8" y="-344.5" font-family="Helvetica,sans-Serif" font-size="10.00">AC_AttitudeControl</text>
<text text-anchor="start" x="8" y="-333.5" font-family="Helvetica,sans-Serif" font-size="10.00">_Heli::passthrough_bf</text>
<text text-anchor="middle" x="56" y="-322.5" font-family="Helvetica,sans-Serif" font-size="10.00">_roll_pitch_rate_yaw</text>
</g>
<!-- Node2 -->
<g id="node2" class="node"><title>Node2</title>
<g id="a_node2"><a xlink:href="$AP__Math_8h.html#a75b14352ec1c95a8276af9a0813cfdc3" xlink:title="radians">
<polygon fill="white" stroke="black" points="528,-559.5 528,-578.5 576,-578.5 576,-559.5 528,-559.5"/>
<text text-anchor="middle" x="552" y="-566.5" font-family="Helvetica,sans-Serif" font-size="10.00">radians</text>
</a>
</g>
</g>
<!-- Node1&#45;&gt;Node2 -->
<g id="edge1" class="edge"><title>Node1&#45;&gt;Node2</title>
<path fill="none" stroke="midnightblue" d="M73.2062,-356.742C89.8689,-376.659 117.614,-406.135 148,-423 268.736,-490.011 323.062,-443.366 449,-500 480.083,-513.978 512.006,-537.303 531.67,-552.914"/>
<polygon fill="midnightblue" stroke="midnightblue" points="529.575,-555.72 539.553,-559.282 533.974,-550.275 529.575,-555.72"/>
</g>
<!-- Node3 -->
<g id="node3" class="node"><title>Node3</title>
<g id="a_node3"><a xlink:href="$classAP__AHRS__View.html#aa83be8ece5cb8f54f9f7eba7839588b6" xlink:title="AP_AHRS_View::get_gyro">
<polygon fill="white" stroke="black" points="310,-232.5 310,-251.5 444,-251.5 444,-232.5 310,-232.5"/>
<text text-anchor="middle" x="377" y="-239.5" font-family="Helvetica,sans-Serif" font-size="10.00">AP_AHRS_View::get_gyro</text>
</a>
</g>
</g>
<!-- Node1&#45;&gt;Node3 -->
<g id="edge2" class="edge"><title>Node1&#45;&gt;Node3</title>
<path fill="none" stroke="midnightblue" d="M66.7787,-315.478C80.6404,-289.09 108.754,-244.468 148,-226 210.886,-196.408 294.447,-214.798 340.956,-229.365"/>
<polygon fill="midnightblue" stroke="midnightblue" points="339.981,-232.728 350.573,-232.49 342.144,-226.071 339.981,-232.728"/>
</g>
<!-- Node12 -->
<g id="node12" class="node"><title>Node12</title>
<g id="a_node12"><a xlink:href="$classAC__AttitudeControl.html#a445cb2fecd81068727882285bf839807" xlink:title="AC_AttitudeControl\l::get_accel_yaw_max_radss">
<polygon fill="white" stroke="black" points="306.5,-647 306.5,-677 447.5,-677 447.5,-647 306.5,-647"/>
<text text-anchor="start" x="314.5" y="-665" font-family="Helvetica,sans-Serif" font-size="10.00">AC_AttitudeControl</text>
<text text-anchor="middle" x="377" y="-654" font-family="Helvetica,sans-Serif" font-size="10.00">::get_accel_yaw_max_radss</text>
</a>
</g>
</g>
<!-- Node1&#45;&gt;Node12 -->
<g id="edge11" class="edge"><title>Node1&#45;&gt;Node12</title>
<path fill="none" stroke="midnightblue" d="M60.3122,-356.549C68.1923,-399.406 91.7679,-499.371 148,-560 187.947,-603.071 249.462,-629.121 298.533,-644.102"/>
<polygon fill="midnightblue" stroke="midnightblue" points="297.589,-647.473 308.171,-646.953 299.574,-640.76 297.589,-647.473"/>
</g>
<!-- Node13 -->
<g id="node13" class="node"><title>Node13</title>
<g id="a_node13"><a xlink:href="$AP__Math_8h.html#ad525609d9dba6ffa556a0fbf08a3f9b4" xlink:title="constrain_float">
<polygon fill="white" stroke="black" points="337,-307.5 337,-326.5 417,-326.5 417,-307.5 337,-307.5"/>
<text text-anchor="middle" x="377" y="-314.5" font-family="Helvetica,sans-Serif" font-size="10.00">constrain_float</text>
</a>
</g>
</g>
<!-- Node1&#45;&gt;Node13 -->
<g id="edge13" class="edge"><title>Node1&#45;&gt;Node13</title>
<path fill="none" stroke="midnightblue" d="M112.201,-332.712C172.594,-329.115 268.511,-323.402 326.533,-319.946"/>
<polygon fill="midnightblue" stroke="midnightblue" points="326.785,-323.438 336.559,-319.349 326.368,-316.45 326.785,-323.438"/>
</g>
<!-- Node19 -->
<g id="node19" class="node"><title>Node19</title>
<g id="a_node19"><a xlink:href="$classAC__AttitudeControl__Heli.html#a3265956995cc26998ae6e816e37d974f" xlink:title="AC_AttitudeControl\l_Heli::integrate_bf\l_rate_error_to_angle\l_errors">
<polygon fill="white" stroke="black" points="156,-236 156,-288 261,-288 261,-236 156,-236"/>
<text text-anchor="start" x="164" y="-276" font-family="Helvetica,sans-Serif" font-size="10.00">AC_AttitudeControl</text>
<text text-anchor="start" x="164" y="-265" font-family="Helvetica,sans-Serif" font-size="10.00">_Heli::integrate_bf</text>
<text text-anchor="start" x="164" y="-254" font-family="Helvetica,sans-Serif" font-size="10.00">_rate_error_to_angle</text>
<text text-anchor="middle" x="208.5" y="-243" font-family="Helvetica,sans-Serif" font-size="10.00">_errors</text>
</a>
</g>
</g>
<!-- Node1&#45;&gt;Node19 -->
<g id="edge19" class="edge"><title>Node1&#45;&gt;Node19</title>
<path fill="none" stroke="midnightblue" d="M98.9226,-315.387C113.682,-308.13 130.585,-299.819 146.589,-291.949"/>
<polygon fill="midnightblue" stroke="midnightblue" points="148.456,-294.932 155.886,-287.378 145.367,-288.65 148.456,-294.932"/>
</g>
<!-- Node20 -->
<g id="node20" class="node"><title>Node20</title>
<g id="a_node20"><a xlink:href="$classAC__AttitudeControl.html#aff1c8dfa418bf13fa324791a2ebe226e" xlink:title="AC_AttitudeControl\l::ang_vel_to_euler_rate">
<polygon fill="white" stroke="black" points="149.5,-384 149.5,-414 267.5,-414 267.5,-384 149.5,-384"/>
<text text-anchor="start" x="157.5" y="-402" font-family="Helvetica,sans-Serif" font-size="10.00">AC_AttitudeControl</text>
<text text-anchor="middle" x="208.5" y="-391" font-family="Helvetica,sans-Serif" font-size="10.00">::ang_vel_to_euler_rate</text>
</a>
</g>
</g>
<!-- Node1&#45;&gt;Node20 -->
<g id="edge22" class="edge"><title>Node1&#45;&gt;Node20</title>
<path fill="none" stroke="midnightblue" d="M106.279,-356.629C124.218,-364.138 144.4,-372.586 161.997,-379.952"/>
<polygon fill="midnightblue" stroke="midnightblue" points="160.899,-383.287 171.475,-383.92 163.603,-376.83 160.899,-383.287"/>
</g>
<!-- Node22 -->
<g id="node22" class="node"><title>Node22</title>
<g id="a_node22"><a xlink:href="$AP__Math_8cpp.html#a21d0562d7b23dd9f04bc30a3611cc577" xlink:title="wrap_PI">
<polygon fill="white" stroke="black" points="182,-95.5 182,-114.5 235,-114.5 235,-95.5 182,-95.5"/>
<text text-anchor="middle" x="208.5" y="-102.5" font-family="Helvetica,sans-Serif" font-size="10.00">wrap_PI</text>
</a>
</g>
</g>
<!-- Node1&#45;&gt;Node22 -->
<g id="edge24" class="edge"><title>Node1&#45;&gt;Node22</title>
<path fill="none" stroke="midnightblue" d="M63.9076,-315.417C76.5739,-279.717 106.115,-205.145 148,-153 158.067,-140.467 171.928,-129.048 183.739,-120.495"/>
<polygon fill="midnightblue" stroke="midnightblue" points="186.074,-123.133 192.274,-114.542 182.07,-117.392 186.074,-123.133"/>
</g>
<!-- Node23 -->
<g id="node23" class="node"><title>Node23</title>
<g id="a_node23"><a xlink:href="$AP__Math_8cpp.html#aa66b7eae8d7e99247c6a2b3d2b5c7b8d" xlink:title="wrap_2PI">
<polygon fill="white" stroke="black" points="348,-152.5 348,-171.5 406,-171.5 406,-152.5 348,-152.5"/>
<text text-anchor="middle" x="377" y="-159.5" font-family="Helvetica,sans-Serif" font-size="10.00">wrap_2PI</text>
</a>
</g>
</g>
<!-- Node1&#45;&gt;Node23 -->
<g id="edge34" class="edge"><title>Node1&#45;&gt;Node23</title>
<path fill="none" stroke="midnightblue" d="M65.5764,-315.257C78.7534,-286.135 106.847,-233.707 148,-207 206.367,-169.121 289.566,-161.856 337.652,-161.147"/>
<polygon fill="midnightblue" stroke="midnightblue" points="337.954,-164.646 347.933,-161.089 337.914,-157.646 337.954,-164.646"/>
</g>
<!-- Node32 -->
<g id="node32" class="node"><title>Node32</title>
<g id="a_node32"><a xlink:href="$classAC__AttitudeControl.html#a6b2d7587c8e5f67432bfc0d306ad9fdc" xlink:title="AC_AttitudeControl\l::update_ang_vel_target\l_from_att_error">
<polygon fill="white" stroke="black" points="148,-509.5 148,-550.5 269,-550.5 269,-509.5 148,-509.5"/>
<text text-anchor="start" x="156" y="-538.5" font-family="Helvetica,sans-Serif" font-size="10.00">AC_AttitudeControl</text>
<text text-anchor="start" x="156" y="-527.5" font-family="Helvetica,sans-Serif" font-size="10.00">::update_ang_vel_target</text>
<text text-anchor="middle" x="208.5" y="-516.5" font-family="Helvetica,sans-Serif" font-size="10.00">_from_att_error</text>
</a>
</g>
</g>
<!-- Node1&#45;&gt;Node32 -->
<g id="edge35" class="edge"><title>Node1&#45;&gt;Node32</title>
<path fill="none" stroke="midnightblue" d="M64.6782,-356.513C77.6936,-389.098 106.754,-453.26 148,-495 150.985,-498.021 154.284,-500.876 157.753,-503.554"/>
<polygon fill="midnightblue" stroke="midnightblue" points="155.906,-506.535 166.086,-509.473 159.96,-500.829 155.906,-506.535"/>
</g>
<!-- Node43 -->
<g id="node43" class="node"><title>Node43</title>
<g id="a_node43"><a xlink:href="$AP__Math_8h.html#adc76d4a5e5c9ae8cb7ab17b55c40d636" xlink:title="norm">
<polygon fill="white" stroke="black" points="189.5,-345.5 189.5,-364.5 227.5,-364.5 227.5,-345.5 189.5,-345.5"/>
<text text-anchor="middle" x="208.5" y="-352.5" font-family="Helvetica,sans-Serif" font-size="10.00">norm</text>
</a>
</g>
</g>
<!-- Node1&#45;&gt;Node43 -->
<g id="edge51" class="edge"><title>Node1&#45;&gt;Node43</title>
<path fill="none" stroke="midnightblue" d="M112.186,-342.967C135.014,-345.849 160.499,-349.066 179.369,-351.449"/>
<polygon fill="midnightblue" stroke="midnightblue" points="179.019,-354.932 189.379,-352.712 179.896,-347.987 179.019,-354.932"/>
</g>
<!-- Node4 -->
<g id="node4" class="node"><title>Node4</title>
<g id="a_node4"><a xlink:href="$classAP__AHRS__View.html#aec99fce6a0287cfe2542ed2b7459d4d1" xlink:title="AP_AHRS_View::get_gyro\l_latest">
<polygon fill="white" stroke="black" points="485,-227 485,-257 619,-257 619,-227 485,-227"/>
<text text-anchor="start" x="493" y="-245" font-family="Helvetica,sans-Serif" font-size="10.00">AP_AHRS_View::get_gyro</text>
<text text-anchor="middle" x="552" y="-234" font-family="Helvetica,sans-Serif" font-size="10.00">_latest</text>
</a>
</g>
</g>
<!-- Node3&#45;&gt;Node4 -->
<g id="edge3" class="edge"><title>Node3&#45;&gt;Node4</title>
<path fill="none" stroke="midnightblue" d="M444.392,-242C454.325,-242 464.633,-242 474.752,-242"/>
<polygon fill="midnightblue" stroke="midnightblue" points="474.786,-245.5 484.786,-242 474.786,-238.5 474.786,-245.5"/>
</g>
<!-- Node5 -->
<g id="node5" class="node"><title>Node5</title>
<g id="a_node5"><a xlink:href="$classAP__AHRS.html#a13ab26b0126885606c1d596072f8af04" xlink:title="AP_AHRS::get_gyro_latest">
<polygon fill="white" stroke="black" points="655,-231.5 655,-250.5 792,-250.5 792,-231.5 655,-231.5"/>
<text text-anchor="middle" x="723.5" y="-238.5" font-family="Helvetica,sans-Serif" font-size="10.00">AP_AHRS::get_gyro_latest</text>
</a>
</g>
</g>
<!-- Node4&#45;&gt;Node5 -->
<g id="edge4" class="edge"><title>Node4&#45;&gt;Node5</title>
<path fill="none" stroke="midnightblue" d="M619.018,-241.611C627.503,-241.56 636.252,-241.509 644.901,-241.458"/>
<polygon fill="midnightblue" stroke="midnightblue" points="645.007,-244.957 654.986,-241.398 644.965,-237.957 645.007,-244.957"/>
</g>
<!-- Node11 -->
<g id="node11" class="node"><title>Node11</title>
<g id="a_node11"><a xlink:href="$classVector3.html#a53d5701ae2db9492944550927279b7b8" xlink:title="Vector3::rotate">
<polygon fill="white" stroke="black" points="683,-193.5 683,-212.5 764,-212.5 764,-193.5 683,-193.5"/>
<text text-anchor="middle" x="723.5" y="-200.5" font-family="Helvetica,sans-Serif" font-size="10.00">Vector3::rotate</text>
</a>
</g>
</g>
<!-- Node4&#45;&gt;Node11 -->
<g id="edge10" class="edge"><title>Node4&#45;&gt;Node11</title>
<path fill="none" stroke="midnightblue" d="M618.533,-226.922C636.431,-222.803 655.536,-218.408 672.423,-214.522"/>
<polygon fill="midnightblue" stroke="midnightblue" points="673.659,-217.829 682.619,-212.176 672.089,-211.008 673.659,-217.829"/>
</g>
<!-- Node6 -->
<g id="node6" class="node"><title>Node6</title>
<g id="a_node6"><a xlink:href="$classAP__AHRS.html#adf9f5cf9e3df1b4318252d07e2817993" xlink:title="AP_AHRS::get_primary\l_gyro_index">
<polygon fill="white" stroke="black" points="832,-292 832,-322 953,-322 953,-292 832,-292"/>
<text text-anchor="start" x="840" y="-310" font-family="Helvetica,sans-Serif" font-size="10.00">AP_AHRS::get_primary</text>
<text text-anchor="middle" x="892.5" y="-299" font-family="Helvetica,sans-Serif" font-size="10.00">_gyro_index</text>
</a>
</g>
</g>
<!-- Node5&#45;&gt;Node6 -->
<g id="edge5" class="edge"><title>Node5&#45;&gt;Node6</title>
<path fill="none" stroke="midnightblue" d="M765.464,-250.587C774.373,-253.205 783.631,-256.348 792,-260 809.186,-267.5 811.213,-273.645 828,-282 832.047,-284.014 836.299,-285.983 840.603,-287.876"/>
<polygon fill="midnightblue" stroke="midnightblue" points="839.482,-291.202 850.054,-291.886 842.215,-284.758 839.482,-291.202"/>
</g>
<!-- Node8 -->
<g id="node8" class="node"><title>Node8</title>
<g id="a_node8"><a xlink:href="$classAP__AHRS.html#a14398c5d2ae68bbe1c67482a91909ad9" xlink:title="AP_AHRS::get_ins">
<polygon fill="white" stroke="black" points="842,-253.5 842,-272.5 943,-272.5 943,-253.5 842,-253.5"/>
<text text-anchor="middle" x="892.5" y="-260.5" font-family="Helvetica,sans-Serif" font-size="10.00">AP_AHRS::get_ins</text>
</a>
</g>
</g>
<!-- Node5&#45;&gt;Node8 -->
<g id="edge7" class="edge"><title>Node5&#45;&gt;Node8</title>
<path fill="none" stroke="midnightblue" d="M792.425,-249.948C805.465,-251.666 819.03,-253.453 831.786,-255.134"/>
<polygon fill="midnightblue" stroke="midnightblue" points="831.447,-258.619 841.818,-256.455 832.361,-251.679 831.447,-258.619"/>
</g>
<!-- Node9 -->
<g id="node9" class="node"><title>Node9</title>
<g id="a_node9"><a xlink:href="$classAP__InertialSensor.html#a6df2d8ad956d4f375bdee541102f16af" xlink:title="AP_InertialSensor::\lget_gyro">
<polygon fill="white" stroke="black" points="842,-204 842,-234 943,-234 943,-204 842,-204"/>
<text text-anchor="start" x="850" y="-222" font-family="Helvetica,sans-Serif" font-size="10.00">AP_InertialSensor::</text>
<text text-anchor="middle" x="892.5" y="-211" font-family="Helvetica,sans-Serif" font-size="10.00">get_gyro</text>
</a>
</g>
</g>
<!-- Node5&#45;&gt;Node9 -->
<g id="edge8" class="edge"><title>Node5&#45;&gt;Node9</title>
<path fill="none" stroke="midnightblue" d="M792.425,-232.052C805.465,-230.334 819.03,-228.547 831.786,-226.866"/>
<polygon fill="midnightblue" stroke="midnightblue" points="832.361,-230.321 841.818,-225.545 831.447,-223.381 832.361,-230.321"/>
</g>
<!-- Node10 -->
<g id="node10" class="node"><title>Node10</title>
<g id="a_node10"><a xlink:href="$classAP__AHRS.html#a6876435645c1049077f33f225ab828f7" xlink:title="AP_AHRS::get_gyro_drift">
<polygon fill="white" stroke="black" points="828,-165.5 828,-184.5 957,-184.5 957,-165.5 828,-165.5"/>
<text text-anchor="middle" x="892.5" y="-172.5" font-family="Helvetica,sans-Serif" font-size="10.00">AP_AHRS::get_gyro_drift</text>
</a>
</g>
</g>
<!-- Node5&#45;&gt;Node10 -->
<g id="edge9" class="edge"><title>Node5&#45;&gt;Node10</title>
<path fill="none" stroke="midnightblue" d="M767.93,-231.459C776.142,-228.913 784.502,-225.787 792,-222 810.093,-212.861 809.982,-203.286 828,-194 832.312,-191.778 836.926,-189.772 841.625,-187.972"/>
<polygon fill="midnightblue" stroke="midnightblue" points="843.049,-191.181 851.322,-184.562 840.727,-184.578 843.049,-191.181"/>
</g>
<!-- Node7 -->
<g id="node7" class="node"><title>Node7</title>
<g id="a_node7"><a xlink:href="$classAP__InertialSensor.html#a7fa04e2f196b27b876d86966f64e1fed" xlink:title="AP_InertialSensor::\lget_primary_gyro">
<polygon fill="white" stroke="black" points="993,-292 993,-322 1094,-322 1094,-292 993,-292"/>
<text text-anchor="start" x="1001" y="-310" font-family="Helvetica,sans-Serif" font-size="10.00">AP_InertialSensor::</text>
<text text-anchor="middle" x="1043.5" y="-299" font-family="Helvetica,sans-Serif" font-size="10.00">get_primary_gyro</text>
</a>
</g>
</g>
<!-- Node6&#45;&gt;Node7 -->
<g id="edge6" class="edge"><title>Node6&#45;&gt;Node7</title>
<path fill="none" stroke="midnightblue" d="M953.245,-307C962.878,-307 972.852,-307 982.491,-307"/>
<polygon fill="midnightblue" stroke="midnightblue" points="982.785,-310.5 992.785,-307 982.785,-303.5 982.785,-310.5"/>
</g>
<!-- Node12&#45;&gt;Node2 -->
<g id="edge12" class="edge"><title>Node12&#45;&gt;Node2</title>
<path fill="none" stroke="midnightblue" d="M428.341,-646.87C435.403,-644.207 442.472,-641.237 449,-638 479.366,-622.941 511.241,-600.071 531.109,-584.84"/>
<polygon fill="midnightblue" stroke="midnightblue" points="533.35,-587.531 539.097,-578.63 529.054,-582.004 533.35,-587.531"/>
</g>
<!-- Node14 -->
<g id="node14" class="node"><title>Node14</title>
<g id="a_node14"><a xlink:href="$AP__Math_8h.html#a20e8f8671c282c69c1954652b6d61585" xlink:title="constrain_value">
<polygon fill="white" stroke="black" points="509.5,-307.5 509.5,-326.5 594.5,-326.5 594.5,-307.5 509.5,-307.5"/>
<text text-anchor="middle" x="552" y="-314.5" font-family="Helvetica,sans-Serif" font-size="10.00">constrain_value</text>
</a>
</g>
</g>
<!-- Node13&#45;&gt;Node14 -->
<g id="edge14" class="edge"><title>Node13&#45;&gt;Node14</title>
<path fill="none" stroke="midnightblue" d="M417.256,-317C441.547,-317 473.007,-317 499.312,-317"/>
<polygon fill="midnightblue" stroke="midnightblue" points="499.487,-320.5 509.487,-317 499.487,-313.5 499.487,-320.5"/>
</g>
<!-- Node15 -->
<g id="node15" class="node"><title>Node15</title>
<g id="a_node15"><a xlink:href="$AP__Math_8cpp.html#a37e8e901754cb9c8e53a8e3030c82c50" xlink:title="constrain_value\&lt; int \&gt;">
<polygon fill="white" stroke="black" points="667,-307.5 667,-326.5 780,-326.5 780,-307.5 667,-307.5"/>
<text text-anchor="middle" x="723.5" y="-314.5" font-family="Helvetica,sans-Serif" font-size="10.00">constrain_value&lt; int &gt;</text>
</a>
</g>
</g>
<!-- Node14&#45;&gt;Node15 -->
<g id="edge15" class="edge"><title>Node14&#45;&gt;Node15</title>
<path fill="none" stroke="midnightblue" d="M594.899,-317C613.518,-317 635.881,-317 656.649,-317"/>
<polygon fill="midnightblue" stroke="midnightblue" points="656.693,-320.5 666.693,-317 656.693,-313.5 656.693,-320.5"/>
</g>
<!-- Node16 -->
<g id="node16" class="node"><title>Node16</title>
<g id="a_node16"><a xlink:href="$AP__Math_8cpp.html#afdbe107ec1987d318a6347816fbf2b89" xlink:title="constrain_value\&lt; short \&gt;">
<polygon fill="white" stroke="black" points="661,-269.5 661,-288.5 786,-288.5 786,-269.5 661,-269.5"/>
<text text-anchor="middle" x="723.5" y="-276.5" font-family="Helvetica,sans-Serif" font-size="10.00">constrain_value&lt; short &gt;</text>
</a>
</g>
</g>
<!-- Node14&#45;&gt;Node16 -->
<g id="edge16" class="edge"><title>Node14&#45;&gt;Node16</title>
<path fill="none" stroke="midnightblue" d="M594.899,-307.607C617.545,-302.53 645.73,-296.211 669.847,-290.804"/>
<polygon fill="midnightblue" stroke="midnightblue" points="670.914,-294.152 679.906,-288.549 669.382,-287.322 670.914,-294.152"/>
</g>
<!-- Node17 -->
<g id="node17" class="node"><title>Node17</title>
<g id="a_node17"><a xlink:href="$AP__Math_8cpp.html#ae6c621670c214da687de21d4e3a92587" xlink:title="constrain_value\&lt; float \&gt;">
<polygon fill="white" stroke="black" points="662.5,-383.5 662.5,-402.5 784.5,-402.5 784.5,-383.5 662.5,-383.5"/>
<text text-anchor="middle" x="723.5" y="-390.5" font-family="Helvetica,sans-Serif" font-size="10.00">constrain_value&lt; float &gt;</text>
</a>
</g>
</g>
<!-- Node14&#45;&gt;Node17 -->
<g id="edge17" class="edge"><title>Node14&#45;&gt;Node17</title>
<path fill="none" stroke="midnightblue" d="M580.157,-326.558C592.408,-331.359 606.827,-337.709 619,-345 636.626,-355.558 636.741,-364.581 655,-374 659.483,-376.313 664.284,-378.375 669.181,-380.206"/>
<polygon fill="midnightblue" stroke="midnightblue" points="668.066,-383.524 678.661,-383.45 670.333,-376.901 668.066,-383.524"/>
</g>
<!-- Node18 -->
<g id="node18" class="node"><title>Node18</title>
<g id="a_node18"><a xlink:href="$AP__Math_8cpp.html#afe3990b00e9abc43fa97dfaf8e32f5c4" xlink:title="constrain_value\&lt; double \&gt;">
<polygon fill="white" stroke="black" points="658,-345.5 658,-364.5 789,-364.5 789,-345.5 658,-345.5"/>
<text text-anchor="middle" x="723.5" y="-352.5" font-family="Helvetica,sans-Serif" font-size="10.00">constrain_value&lt; double &gt;</text>
</a>
</g>
</g>
<!-- Node14&#45;&gt;Node18 -->
<g id="edge18" class="edge"><title>Node14&#45;&gt;Node18</title>
<path fill="none" stroke="midnightblue" d="M594.899,-326.393C617.545,-331.47 645.73,-337.789 669.847,-343.196"/>
<polygon fill="midnightblue" stroke="midnightblue" points="669.382,-346.678 679.906,-345.451 670.914,-339.848 669.382,-346.678"/>
</g>
<!-- Node19&#45;&gt;Node3 -->
<g id="edge20" class="edge"><title>Node19&#45;&gt;Node3</title>
<path fill="none" stroke="midnightblue" d="M261.269,-255.782C273.516,-254.31 286.83,-252.711 299.906,-251.14"/>
<polygon fill="midnightblue" stroke="midnightblue" points="300.327,-254.615 309.838,-249.947 299.492,-247.665 300.327,-254.615"/>
</g>
<!-- Node19&#45;&gt;Node13 -->
<g id="edge21" class="edge"><title>Node19&#45;&gt;Node13</title>
<path fill="none" stroke="midnightblue" d="M261.269,-279.101C285.883,-287.232 314.803,-296.785 337.45,-304.266"/>
<polygon fill="midnightblue" stroke="midnightblue" points="336.464,-307.626 347.057,-307.439 338.66,-300.979 336.464,-307.626"/>
</g>
<!-- Node21 -->
<g id="node21" class="node"><title>Node21</title>
<g id="a_node21"><a xlink:href="$AP__Math_8h.html#a2a12cce483e9b870da70d30406d82c60" xlink:title="is_zero">
<polygon fill="white" stroke="black" points="528,-411.5 528,-430.5 576,-430.5 576,-411.5 528,-411.5"/>
<text text-anchor="middle" x="552" y="-418.5" font-family="Helvetica,sans-Serif" font-size="10.00">is_zero</text>
</a>
</g>
</g>
<!-- Node20&#45;&gt;Node21 -->
<g id="edge23" class="edge"><title>Node20&#45;&gt;Node21</title>
<path fill="none" stroke="midnightblue" d="M267.609,-401.604C316.132,-403.911 387.112,-407.591 449,-412 471.997,-413.638 497.872,-415.926 517.806,-417.786"/>
<polygon fill="midnightblue" stroke="midnightblue" points="517.643,-421.286 527.927,-418.74 518.3,-414.317 517.643,-421.286"/>
</g>
<!-- Node22&#45;&gt;Node23 -->
<g id="edge25" class="edge"><title>Node22&#45;&gt;Node23</title>
<path fill="none" stroke="midnightblue" d="M231.611,-114.655C250.794,-122.824 279.424,-134.522 305,-143 315.555,-146.499 327.152,-149.818 337.858,-152.673"/>
<polygon fill="midnightblue" stroke="midnightblue" points="337.227,-156.126 347.787,-155.26 338.992,-149.352 337.227,-156.126"/>
</g>
<!-- Node28 -->
<g id="node28" class="node"><title>Node28</title>
<g id="a_node28"><a xlink:href="$AP__Math_8cpp.html#a044023fcfa899d449f5a219ca7596ca4" xlink:title="wrap_PI\&lt; int \&gt;">
<polygon fill="white" stroke="black" points="336.5,-76.5 336.5,-95.5 417.5,-95.5 417.5,-76.5 336.5,-76.5"/>
<text text-anchor="middle" x="377" y="-83.5" font-family="Helvetica,sans-Serif" font-size="10.00">wrap_PI&lt; int &gt;</text>
</a>
</g>
</g>
<!-- Node22&#45;&gt;Node28 -->
<g id="edge30" class="edge"><title>Node22&#45;&gt;Node28</title>
<path fill="none" stroke="midnightblue" d="M235.151,-102.073C259.304,-99.3167 296.145,-95.1126 326.091,-91.6953"/>
<polygon fill="midnightblue" stroke="midnightblue" points="326.825,-95.1344 336.364,-90.5231 326.031,-88.1795 326.825,-95.1344"/>
</g>
<!-- Node29 -->
<g id="node29" class="node"><title>Node29</title>
<g id="a_node29"><a xlink:href="$AP__Math_8cpp.html#ad0041912c2965b653fa9cf6854e47bc8" xlink:title="wrap_PI\&lt; short \&gt;">
<polygon fill="white" stroke="black" points="331,-38.5 331,-57.5 423,-57.5 423,-38.5 331,-38.5"/>
<text text-anchor="middle" x="377" y="-45.5" font-family="Helvetica,sans-Serif" font-size="10.00">wrap_PI&lt; short &gt;</text>
</a>
</g>
</g>
<!-- Node22&#45;&gt;Node29 -->
<g id="edge31" class="edge"><title>Node22&#45;&gt;Node29</title>
<path fill="none" stroke="midnightblue" d="M231.611,-95.3448C250.794,-87.1756 279.424,-75.4782 305,-67 312.158,-64.6271 319.796,-62.3371 327.309,-60.2183"/>
<polygon fill="midnightblue" stroke="midnightblue" points="328.349,-63.5625 337.065,-57.5389 326.495,-56.8124 328.349,-63.5625"/>
</g>
<!-- Node30 -->
<g id="node30" class="node"><title>Node30</title>
<g id="a_node30"><a xlink:href="$AP__Math_8cpp.html#a789e7d40c173a1fab6560d1b61609952" xlink:title="wrap_PI\&lt; float \&gt;">
<polygon fill="white" stroke="black" points="332.5,-0.5 332.5,-19.5 421.5,-19.5 421.5,-0.5 332.5,-0.5"/>
<text text-anchor="middle" x="377" y="-7.5" font-family="Helvetica,sans-Serif" font-size="10.00">wrap_PI&lt; float &gt;</text>
</a>
</g>
</g>
<!-- Node22&#45;&gt;Node30 -->
<g id="edge32" class="edge"><title>Node22&#45;&gt;Node30</title>
<path fill="none" stroke="midnightblue" d="M218.862,-95.2993C234.968,-79.1656 269.616,-46.8331 305,-29 310.534,-26.2112 316.523,-23.7967 322.595,-21.7149"/>
<polygon fill="midnightblue" stroke="midnightblue" points="323.663,-25.0483 332.154,-18.7113 321.564,-18.3702 323.663,-25.0483"/>
</g>
<!-- Node31 -->
<g id="node31" class="node"><title>Node31</title>
<g id="a_node31"><a xlink:href="$AP__Math_8cpp.html#a66b3a8191d62a34f4d673d5c62d8d1cf" xlink:title="wrap_PI\&lt; double \&gt;">
<polygon fill="white" stroke="black" points="327.5,-114.5 327.5,-133.5 426.5,-133.5 426.5,-114.5 327.5,-114.5"/>
<text text-anchor="middle" x="377" y="-121.5" font-family="Helvetica,sans-Serif" font-size="10.00">wrap_PI&lt; double &gt;</text>
</a>
</g>
</g>
<!-- Node22&#45;&gt;Node31 -->
<g id="edge33" class="edge"><title>Node22&#45;&gt;Node31</title>
<path fill="none" stroke="midnightblue" d="M235.151,-107.927C256.924,-110.412 289.007,-114.073 317.055,-117.274"/>
<polygon fill="midnightblue" stroke="midnightblue" points="316.848,-120.773 327.18,-118.429 317.641,-113.818 316.848,-120.773"/>
</g>
<!-- Node24 -->
<g id="node24" class="node"><title>Node24</title>
<g id="a_node24"><a xlink:href="$AP__Math_8cpp.html#a50a4ded454375642e1944882b01a1ae5" xlink:title="wrap_2PI\&lt; int \&gt;">
<polygon fill="white" stroke="black" points="509,-112.5 509,-131.5 595,-131.5 595,-112.5 509,-112.5"/>
<text text-anchor="middle" x="552" y="-119.5" font-family="Helvetica,sans-Serif" font-size="10.00">wrap_2PI&lt; int &gt;</text>
</a>
</g>
</g>
<!-- Node23&#45;&gt;Node24 -->
<g id="edge26" class="edge"><title>Node23&#45;&gt;Node24</title>
<path fill="none" stroke="midnightblue" d="M406.18,-155.484C431.471,-149.637 469.211,-140.911 499.823,-133.833"/>
<polygon fill="midnightblue" stroke="midnightblue" points="500.949,-137.165 509.904,-131.502 499.372,-130.345 500.949,-137.165"/>
</g>
<!-- Node25 -->
<g id="node25" class="node"><title>Node25</title>
<g id="a_node25"><a xlink:href="$AP__Math_8cpp.html#aaf8ce7d4f9e3837bdbd5aac6545b4000" xlink:title="wrap_2PI\&lt; short \&gt;">
<polygon fill="white" stroke="black" points="503,-74.5 503,-93.5 601,-93.5 601,-74.5 503,-74.5"/>
<text text-anchor="middle" x="552" y="-81.5" font-family="Helvetica,sans-Serif" font-size="10.00">wrap_2PI&lt; short &gt;</text>
</a>
</g>
</g>
<!-- Node23&#45;&gt;Node25 -->
<g id="edge27" class="edge"><title>Node23&#45;&gt;Node25</title>
<path fill="none" stroke="midnightblue" d="M406.114,-158.316C419.801,-155.597 436.053,-150.933 449,-143 469.394,-130.504 464.725,-115.687 485,-103 488.372,-100.89 491.986,-99.0073 495.721,-97.3285"/>
<polygon fill="midnightblue" stroke="midnightblue" points="497.191,-100.511 505.189,-93.5619 494.603,-94.0065 497.191,-100.511"/>
</g>
<!-- Node26 -->
<g id="node26" class="node"><title>Node26</title>
<g id="a_node26"><a xlink:href="$AP__Math_8cpp.html#a7182302503c136742396e3057b680dc7" xlink:title="wrap_2PI\&lt; float \&gt;">
<polygon fill="white" stroke="black" points="504.5,-188.5 504.5,-207.5 599.5,-207.5 599.5,-188.5 504.5,-188.5"/>
<text text-anchor="middle" x="552" y="-195.5" font-family="Helvetica,sans-Serif" font-size="10.00">wrap_2PI&lt; float &gt;</text>
</a>
</g>
</g>
<!-- Node23&#45;&gt;Node26 -->
<g id="edge28" class="edge"><title>Node23&#45;&gt;Node26</title>
<path fill="none" stroke="midnightblue" d="M406.18,-167.864C430.266,-172.876 465.645,-180.238 495.404,-186.431"/>
<polygon fill="midnightblue" stroke="midnightblue" points="494.753,-189.87 505.256,-188.481 496.179,-183.017 494.753,-189.87"/>
</g>
<!-- Node27 -->
<g id="node27" class="node"><title>Node27</title>
<g id="a_node27"><a xlink:href="$AP__Math_8cpp.html#a0b4be48e39c65e97084146b9f1d22c00" xlink:title="wrap_2PI\&lt; double \&gt;">
<polygon fill="white" stroke="black" points="500,-150.5 500,-169.5 604,-169.5 604,-150.5 500,-150.5"/>
<text text-anchor="middle" x="552" y="-157.5" font-family="Helvetica,sans-Serif" font-size="10.00">wrap_2PI&lt; double &gt;</text>
</a>
</g>
</g>
<!-- Node23&#45;&gt;Node27 -->
<g id="edge29" class="edge"><title>Node23&#45;&gt;Node27</title>
<path fill="none" stroke="midnightblue" d="M406.18,-161.674C428.693,-161.414 461.069,-161.04 489.503,-160.711"/>
<polygon fill="midnightblue" stroke="midnightblue" points="489.816,-164.208 499.775,-160.592 489.735,-157.208 489.816,-164.208"/>
</g>
<!-- Node32&#45;&gt;Node12 -->
<g id="edge50" class="edge"><title>Node32&#45;&gt;Node12</title>
<path fill="none" stroke="midnightblue" d="M225.527,-550.536C247.523,-578.275 286.445,-625.674 305,-638 307.388,-639.586 309.89,-641.077 312.47,-642.477"/>
<polygon fill="midnightblue" stroke="midnightblue" points="310.966,-645.638 321.486,-646.896 314.047,-639.352 310.966,-645.638"/>
</g>
<!-- Node32&#45;&gt;Node13 -->
<g id="edge45" class="edge"><title>Node32&#45;&gt;Node13</title>
<path fill="none" stroke="midnightblue" d="M225.768,-509.189C258.342,-467.517 331.082,-374.463 361.837,-335.119"/>
<polygon fill="midnightblue" stroke="midnightblue" points="364.98,-336.78 368.381,-326.746 359.465,-332.469 364.98,-336.78"/>
</g>
<!-- Node33 -->
<g id="node33" class="node"><title>Node33</title>
<g id="a_node33"><a xlink:href="$classAC__AttitudeControl.html#a1788967db1aa0dfe68fad24da23947f9" xlink:title="AC_AttitudeControl\l::sqrt_controller">
<polygon fill="white" stroke="black" points="326.5,-422 326.5,-452 427.5,-452 427.5,-422 326.5,-422"/>
<text text-anchor="start" x="334.5" y="-440" font-family="Helvetica,sans-Serif" font-size="10.00">AC_AttitudeControl</text>
<text text-anchor="middle" x="377" y="-429" font-family="Helvetica,sans-Serif" font-size="10.00">::sqrt_controller</text>
</a>
</g>
</g>
<!-- Node32&#45;&gt;Node33 -->
<g id="edge36" class="edge"><title>Node32&#45;&gt;Node33</title>
<path fill="none" stroke="midnightblue" d="M246.452,-509.36C274.34,-493.783 312.392,-472.529 340.036,-457.088"/>
<polygon fill="midnightblue" stroke="midnightblue" points="341.959,-460.023 348.983,-452.091 338.546,-453.912 341.959,-460.023"/>
</g>
<!-- Node40 -->
<g id="node40" class="node"><title>Node40</title>
<g id="a_node40"><a xlink:href="$classAC__P.html#a723b372dfceb74ddb2edbe11544e9d5a" xlink:title="AC_P::kP">
<polygon fill="white" stroke="black" points="346.5,-559.5 346.5,-578.5 407.5,-578.5 407.5,-559.5 346.5,-559.5"/>
<text text-anchor="middle" x="377" y="-566.5" font-family="Helvetica,sans-Serif" font-size="10.00">AC_P::kP</text>
</a>
</g>
</g>
<!-- Node32&#45;&gt;Node40 -->
<g id="edge44" class="edge"><title>Node32&#45;&gt;Node40</title>
<path fill="none" stroke="midnightblue" d="M269.14,-543.97C291.491,-549.205 316.317,-555.02 336.411,-559.727"/>
<polygon fill="midnightblue" stroke="midnightblue" points="335.62,-563.136 346.155,-562.009 337.217,-556.321 335.62,-563.136"/>
</g>
<!-- Node41 -->
<g id="node41" class="node"><title>Node41</title>
<g id="a_node41"><a xlink:href="$classAC__AttitudeControl.html#a5a8d0a611d7791820332b37079bdc306" xlink:title="AC_AttitudeControl\l::get_accel_roll_max_radss">
<polygon fill="white" stroke="black" points="309,-598 309,-628 445,-628 445,-598 309,-598"/>
<text text-anchor="start" x="317" y="-616" font-family="Helvetica,sans-Serif" font-size="10.00">AC_AttitudeControl</text>
<text text-anchor="middle" x="377" y="-605" font-family="Helvetica,sans-Serif" font-size="10.00">::get_accel_roll_max_radss</text>
</a>
</g>
</g>
<!-- Node32&#45;&gt;Node41 -->
<g id="edge46" class="edge"><title>Node32&#45;&gt;Node41</title>
<path fill="none" stroke="midnightblue" d="M239.992,-550.754C258.31,-562.649 282.383,-577.292 305,-588 309.606,-590.181 314.457,-592.277 319.371,-594.265"/>
<polygon fill="midnightblue" stroke="midnightblue" points="318.261,-597.589 328.85,-597.946 320.795,-591.063 318.261,-597.589"/>
</g>
<!-- Node42 -->
<g id="node42" class="node"><title>Node42</title>
<g id="a_node42"><a xlink:href="$classAC__AttitudeControl.html#abae95a10026ec6871f01b3e4c0919ea3" xlink:title="AC_AttitudeControl\l::get_accel_pitch_max_radss">
<polygon fill="white" stroke="black" points="305,-510 305,-540 449,-540 449,-510 305,-510"/>
<text text-anchor="start" x="313" y="-528" font-family="Helvetica,sans-Serif" font-size="10.00">AC_AttitudeControl</text>
<text text-anchor="middle" x="377" y="-517" font-family="Helvetica,sans-Serif" font-size="10.00">::get_accel_pitch_max_radss</text>
</a>
</g>
</g>
<!-- Node32&#45;&gt;Node42 -->
<g id="edge48" class="edge"><title>Node32&#45;&gt;Node42</title>
<path fill="none" stroke="midnightblue" d="M269.14,-528.209C277.456,-527.959 286.115,-527.699 294.746,-527.44"/>
<polygon fill="midnightblue" stroke="midnightblue" points="294.951,-530.936 304.842,-527.137 294.741,-523.939 294.951,-530.936"/>
</g>
<!-- Node33&#45;&gt;Node21 -->
<g id="edge37" class="edge"><title>Node33&#45;&gt;Node21</title>
<path fill="none" stroke="midnightblue" d="M427.575,-432.415C456.405,-429.749 491.973,-426.459 517.509,-424.097"/>
<polygon fill="midnightblue" stroke="midnightblue" points="518.155,-427.553 527.791,-423.147 517.511,-420.582 518.155,-427.553"/>
</g>
<!-- Node34 -->
<g id="node34" class="node"><title>Node34</title>
<g id="a_node34"><a xlink:href="$AP__Math_8h.html#a0375e3d67fd3911cacee5c3e1408c0f2" xlink:title="sq">
<polygon fill="white" stroke="black" points="537.5,-354.5 537.5,-373.5 566.5,-373.5 566.5,-354.5 537.5,-354.5"/>
<text text-anchor="middle" x="552" y="-361.5" font-family="Helvetica,sans-Serif" font-size="10.00">sq</text>
</a>
</g>
</g>
<!-- Node33&#45;&gt;Node34 -->
<g id="edge38" class="edge"><title>Node33&#45;&gt;Node34</title>
<path fill="none" stroke="midnightblue" d="M413.846,-421.874C448.019,-407.454 498.478,-386.162 527.715,-373.825"/>
<polygon fill="midnightblue" stroke="midnightblue" points="529.257,-376.974 537.11,-369.861 526.536,-370.524 529.257,-376.974"/>
</g>
<!-- Node35 -->
<g id="node35" class="node"><title>Node35</title>
<g id="a_node35"><a xlink:href="$AP__Math_8cpp.html#ac89eb1832d8e4d67fcf1ac07e3c25184" xlink:title="safe_sqrt">
<polygon fill="white" stroke="black" points="523.5,-459.5 523.5,-478.5 580.5,-478.5 580.5,-459.5 523.5,-459.5"/>
<text text-anchor="middle" x="552" y="-466.5" font-family="Helvetica,sans-Serif" font-size="10.00">safe_sqrt</text>
</a>
</g>
</g>
<!-- Node33&#45;&gt;Node35 -->
<g id="edge39" class="edge"><title>Node33&#45;&gt;Node35</title>
<path fill="none" stroke="midnightblue" d="M427.575,-446.17C454.955,-451.234 488.41,-457.423 513.58,-462.078"/>
<polygon fill="midnightblue" stroke="midnightblue" points="513.004,-465.531 523.474,-463.909 514.278,-458.648 513.004,-465.531"/>
</g>
<!-- Node36 -->
<g id="node36" class="node"><title>Node36</title>
<g id="a_node36"><a xlink:href="$AP__Math_8cpp.html#aa5cb9421d48def32eb7574adb1b152b0" xlink:title="safe_sqrt\&lt; int \&gt;">
<polygon fill="white" stroke="black" points="680.5,-459.5 680.5,-478.5 766.5,-478.5 766.5,-459.5 680.5,-459.5"/>
<text text-anchor="middle" x="723.5" y="-466.5" font-family="Helvetica,sans-Serif" font-size="10.00">safe_sqrt&lt; int &gt;</text>
</a>
</g>
</g>
<!-- Node35&#45;&gt;Node36 -->
<g id="edge40" class="edge"><title>Node35&#45;&gt;Node36</title>
<path fill="none" stroke="midnightblue" d="M580.61,-469C604.778,-469 640.548,-469 670.127,-469"/>
<polygon fill="midnightblue" stroke="midnightblue" points="670.302,-472.5 680.302,-469 670.302,-465.5 670.302,-472.5"/>
</g>
<!-- Node37 -->
<g id="node37" class="node"><title>Node37</title>
<g id="a_node37"><a xlink:href="$AP__Math_8cpp.html#a6952300e3d03222491051d674312b67d" xlink:title="safe_sqrt\&lt; short \&gt;">
<polygon fill="white" stroke="black" points="675,-421.5 675,-440.5 772,-440.5 772,-421.5 675,-421.5"/>
<text text-anchor="middle" x="723.5" y="-428.5" font-family="Helvetica,sans-Serif" font-size="10.00">safe_sqrt&lt; short &gt;</text>
</a>
</g>
</g>
<!-- Node35&#45;&gt;Node37 -->
<g id="edge41" class="edge"><title>Node35&#45;&gt;Node37</title>
<path fill="none" stroke="midnightblue" d="M580.61,-462.81C604.799,-457.387 640.611,-449.359 670.205,-442.724"/>
<polygon fill="midnightblue" stroke="midnightblue" points="670.985,-446.136 679.977,-440.533 669.453,-439.306 670.985,-446.136"/>
</g>
<!-- Node38 -->
<g id="node38" class="node"><title>Node38</title>
<g id="a_node38"><a xlink:href="$AP__Math_8cpp.html#a40ae6cfccff676d9d2ff57e2e9ca549c" xlink:title="safe_sqrt\&lt; float \&gt;">
<polygon fill="white" stroke="black" points="676.5,-535.5 676.5,-554.5 770.5,-554.5 770.5,-535.5 676.5,-535.5"/>
<text text-anchor="middle" x="723.5" y="-542.5" font-family="Helvetica,sans-Serif" font-size="10.00">safe_sqrt&lt; float &gt;</text>
</a>
</g>
</g>
<!-- Node35&#45;&gt;Node38 -->
<g id="edge42" class="edge"><title>Node35&#45;&gt;Node38</title>
<path fill="none" stroke="midnightblue" d="M567.651,-478.648C586.981,-491.029 622.38,-512.516 655,-526 660.759,-528.381 666.914,-530.569 673.075,-532.547"/>
<polygon fill="midnightblue" stroke="midnightblue" points="672.123,-535.915 682.708,-535.478 674.161,-529.218 672.123,-535.915"/>
</g>
<!-- Node39 -->
<g id="node39" class="node"><title>Node39</title>
<g id="a_node39"><a xlink:href="$AP__Math_8cpp.html#acf6795fb73b8b915b53126f71cd2712a" xlink:title="safe_sqrt\&lt; double \&gt;">
<polygon fill="white" stroke="black" points="671.5,-497.5 671.5,-516.5 775.5,-516.5 775.5,-497.5 671.5,-497.5"/>
<text text-anchor="middle" x="723.5" y="-504.5" font-family="Helvetica,sans-Serif" font-size="10.00">safe_sqrt&lt; double &gt;</text>
</a>
</g>
</g>
<!-- Node35&#45;&gt;Node39 -->
<g id="edge43" class="edge"><title>Node35&#45;&gt;Node39</title>
<path fill="none" stroke="midnightblue" d="M580.61,-475.19C604.799,-480.613 640.611,-488.641 670.205,-495.276"/>
<polygon fill="midnightblue" stroke="midnightblue" points="669.453,-498.694 679.977,-497.467 670.985,-491.864 669.453,-498.694"/>
</g>
<!-- Node41&#45;&gt;Node2 -->
<g id="edge47" class="edge"><title>Node41&#45;&gt;Node2</title>
<path fill="none" stroke="midnightblue" d="M437.053,-597.981C464.046,-591.115 495.017,-583.238 517.851,-577.431"/>
<polygon fill="midnightblue" stroke="midnightblue" points="518.897,-580.776 527.726,-574.919 517.172,-573.992 518.897,-580.776"/>
</g>
<!-- Node42&#45;&gt;Node2 -->
<g id="edge49" class="edge"><title>Node42&#45;&gt;Node2</title>
<path fill="none" stroke="midnightblue" d="M437.053,-540.019C464.046,-546.885 495.017,-554.762 517.851,-560.569"/>
<polygon fill="midnightblue" stroke="midnightblue" points="517.172,-564.008 527.726,-563.081 518.897,-557.224 517.172,-564.008"/>
</g>
<!-- Node43&#45;&gt;Node34 -->
<g id="edge52" class="edge"><title>Node43&#45;&gt;Node34</title>
<path fill="none" stroke="midnightblue" d="M227.861,-355.484C285.485,-357.003 462.742,-361.674 527.228,-363.374"/>
<polygon fill="midnightblue" stroke="midnightblue" points="527.154,-366.873 537.243,-363.637 527.339,-359.875 527.154,-366.873"/>
</g>
</g>
</svg>
