<?xml version="1.0" encoding="UTF-8" standalone="no"?>
<!DOCTYPE svg PUBLIC "-//W3C//DTD SVG 1.1//EN"
 "http://www.w3.org/Graphics/SVG/1.1/DTD/svg11.dtd">
<!-- Generated by graphviz version 2.38.0 (20140413.2041)
 -->
<!-- Title: AC_PosControl::get_stopping_point_z Pages: 1 -->
<svg width="807pt" height="225pt"
 viewBox="0.00 0.00 807.00 224.50" xmlns="http://www.w3.org/2000/svg" xmlns:xlink="http://www.w3.org/1999/xlink">
<g id="graph0" class="graph" transform="scale(1 1) rotate(0) translate(4 220.5)">
<title>AC_PosControl::get_stopping_point_z</title>
<polygon fill="white" stroke="none" points="-4,4 -4,-220.5 803,-220.5 803,4 -4,4"/>
<!-- Node1 -->
<g id="node1" class="node"><title>Node1</title>
<polygon fill="#bfbfbf" stroke="black" points="0,-98 0,-128 104,-128 104,-98 0,-98"/>
<text text-anchor="start" x="8" y="-116" font-family="Helvetica,sans-Serif" font-size="10.00">AC_PosControl::get</text>
<text text-anchor="middle" x="52" y="-105" font-family="Helvetica,sans-Serif" font-size="10.00">_stopping_point_z</text>
</g>
<!-- Node2 -->
<g id="node2" class="node"><title>Node2</title>
<g id="a_node2"><a xlink:href="$classAC__PosControl.html#a9113b44ed876dd2d9a326eb59f3d625a" xlink:title="AC_PosControl::get\l_alt_target">
<polygon fill="white" stroke="black" points="353.5,-115 353.5,-145 457.5,-145 457.5,-115 353.5,-115"/>
<text text-anchor="start" x="361.5" y="-133" font-family="Helvetica,sans-Serif" font-size="10.00">AC_PosControl::get</text>
<text text-anchor="middle" x="405.5" y="-122" font-family="Helvetica,sans-Serif" font-size="10.00">_alt_target</text>
</a>
</g>
</g>
<!-- Node1&#45;&gt;Node2 -->
<g id="edge1" class="edge"><title>Node1&#45;&gt;Node2</title>
<path fill="none" stroke="midnightblue" d="M106.231,-130.834C117.272,-133.813 128.919,-136.44 140,-138 213.47,-148.347 299.508,-142.455 353.017,-136.695"/>
<polygon fill="midnightblue" stroke="midnightblue" points="106.871,-127.378 96.2952,-128.02 104.963,-134.113 106.871,-127.378"/>
</g>
<!-- Node6 -->
<g id="node6" class="node"><title>Node6</title>
<g id="a_node6"><a xlink:href="$classAC__WPNav.html#af0e7fe0007beee91d9d8e2a573838f21" xlink:title="get_wp_stopping_point &#45; returns vector to stopping point based on 3D position and velocity ...">
<polygon fill="white" stroke="black" points="145.5,-186 145.5,-216 295.5,-216 295.5,-186 145.5,-186"/>
<text text-anchor="start" x="153.5" y="-204" font-family="Helvetica,sans-Serif" font-size="10.00">AC_WPNav::get_wp_stopping</text>
<text text-anchor="middle" x="220.5" y="-193" font-family="Helvetica,sans-Serif" font-size="10.00">_point</text>
</a>
</g>
</g>
<!-- Node1&#45;&gt;Node6 -->
<g id="edge5" class="edge"><title>Node1&#45;&gt;Node6</title>
<path fill="none" stroke="midnightblue" d="M81.1011,-134.113C97.6707,-145.946 119.373,-160.407 140,-171 150.761,-176.526 162.785,-181.59 174.158,-185.921"/>
<polygon fill="midnightblue" stroke="midnightblue" points="83.0889,-131.231 72.9371,-128.199 78.9825,-136.9 83.0889,-131.231"/>
</g>
<!-- Node8 -->
<g id="node8" class="node"><title>Node8</title>
<g id="a_node8"><a xlink:href="$classAC__WPNav.html#a8caabd95cf51512456cd8d81f38dbff9" xlink:title="AC_WPNav::set_spline\l_destination">
<polygon fill="white" stroke="black" points="160,-98 160,-128 281,-128 281,-98 160,-98"/>
<text text-anchor="start" x="168" y="-116" font-family="Helvetica,sans-Serif" font-size="10.00">AC_WPNav::set_spline</text>
<text text-anchor="middle" x="220.5" y="-105" font-family="Helvetica,sans-Serif" font-size="10.00">_destination</text>
</a>
</g>
</g>
<!-- Node1&#45;&gt;Node8 -->
<g id="edge7" class="edge"><title>Node1&#45;&gt;Node8</title>
<path fill="none" stroke="midnightblue" d="M114.414,-113C129.271,-113 145.125,-113 159.897,-113"/>
<polygon fill="midnightblue" stroke="midnightblue" points="114.314,-109.5 104.314,-113 114.314,-116.5 114.314,-109.5"/>
</g>
<!-- Node9 -->
<g id="node9" class="node"><title>Node9</title>
<g id="a_node9"><a xlink:href="$classAC__PosControl.html#a51caffd56dd27f42595df30f63cd1eaa" xlink:title="set_target_to_stopping_point_z &#45; sets altitude target to reasonable stopping altitude in cm above hom...">
<polygon fill="white" stroke="black" points="168.5,-38.5 168.5,-79.5 272.5,-79.5 272.5,-38.5 168.5,-38.5"/>
<text text-anchor="start" x="176.5" y="-67.5" font-family="Helvetica,sans-Serif" font-size="10.00">AC_PosControl::set</text>
<text text-anchor="start" x="176.5" y="-56.5" font-family="Helvetica,sans-Serif" font-size="10.00">_target_to_stopping</text>
<text text-anchor="middle" x="220.5" y="-45.5" font-family="Helvetica,sans-Serif" font-size="10.00">_point_z</text>
</a>
</g>
</g>
<!-- Node1&#45;&gt;Node9 -->
<g id="edge8" class="edge"><title>Node1&#45;&gt;Node9</title>
<path fill="none" stroke="midnightblue" d="M108.917,-94.8647C128.15,-88.6272 149.571,-81.6796 168.401,-75.5728"/>
<polygon fill="midnightblue" stroke="midnightblue" points="107.812,-91.5436 99.3795,-97.958 109.972,-98.2022 107.812,-91.5436"/>
</g>
<!-- Node11 -->
<g id="node11" class="node"><title>Node11</title>
<g id="a_node11"><a xlink:href="$classAC__WPNav.html#a38519fcac3a24cf64ec7c37e90fc3e13" xlink:title="AC_WPNav::set_wp_destination">
<polygon fill="white" stroke="black" points="140,-0.5 140,-19.5 301,-19.5 301,-0.5 140,-0.5"/>
<text text-anchor="middle" x="220.5" y="-7.5" font-family="Helvetica,sans-Serif" font-size="10.00">AC_WPNav::set_wp_destination</text>
</a>
</g>
</g>
<!-- Node1&#45;&gt;Node11 -->
<g id="edge11" class="edge"><title>Node1&#45;&gt;Node11</title>
<path fill="none" stroke="midnightblue" d="M70.9656,-89.7719C87.0245,-70.6156 112.252,-44.203 140,-29 147.094,-25.1134 154.97,-22.0155 162.928,-19.548"/>
<polygon fill="midnightblue" stroke="midnightblue" points="68.0735,-87.7801 64.4603,-97.7397 73.4958,-92.2071 68.0735,-87.7801"/>
</g>
<!-- Node3 -->
<g id="node3" class="node"><title>Node3</title>
<g id="a_node3"><a xlink:href="$classAC__WPNav.html#a8542028b741ca81881b9e00d42cc2eea" xlink:title="get_desired_alt &#45; get desired altitude (in cm above home) from loiter or wp controller which should b...">
<polygon fill="white" stroke="black" points="510,-139.5 510,-158.5 653,-158.5 653,-139.5 510,-139.5"/>
<text text-anchor="middle" x="581.5" y="-146.5" font-family="Helvetica,sans-Serif" font-size="10.00">AC_WPNav::get_desired_alt</text>
</a>
</g>
</g>
<!-- Node2&#45;&gt;Node3 -->
<g id="edge2" class="edge"><title>Node2&#45;&gt;Node3</title>
<path fill="none" stroke="midnightblue" d="M467.949,-136.71C481.532,-138.193 496.027,-139.776 509.939,-141.295"/>
<polygon fill="midnightblue" stroke="midnightblue" points="468.085,-133.204 457.765,-135.598 467.326,-140.163 468.085,-133.204"/>
</g>
<!-- Node4 -->
<g id="node4" class="node"><title>Node4</title>
<g id="a_node4"><a xlink:href="$classAC__Circle.html#ad28205982ae7bc5f1e72f5285696c99b" xlink:title="update &#45; update circle controller ">
<polygon fill="white" stroke="black" points="533,-101.5 533,-120.5 630,-120.5 630,-101.5 533,-101.5"/>
<text text-anchor="middle" x="581.5" y="-108.5" font-family="Helvetica,sans-Serif" font-size="10.00">AC_Circle::update</text>
</a>
</g>
</g>
<!-- Node2&#45;&gt;Node4 -->
<g id="edge3" class="edge"><title>Node2&#45;&gt;Node4</title>
<path fill="none" stroke="midnightblue" d="M467.727,-123.314C489.107,-120.98 512.769,-118.396 532.875,-116.2"/>
<polygon fill="midnightblue" stroke="midnightblue" points="467.326,-119.837 457.765,-124.402 468.086,-126.796 467.326,-119.837"/>
</g>
<!-- Node5 -->
<g id="node5" class="node"><title>Node5</title>
<g id="a_node5"><a xlink:href="$classAC__Circle.html#a176fe6b798510eb180d35f62d7f6487c" xlink:title="get_angle_total &#45; return total angle in radians that vehicle has circled ">
<polygon fill="white" stroke="black" points="689,-96 689,-126 799,-126 799,-96 689,-96"/>
<text text-anchor="start" x="697" y="-114" font-family="Helvetica,sans-Serif" font-size="10.00">AC_Circle::get_angle</text>
<text text-anchor="middle" x="744" y="-103" font-family="Helvetica,sans-Serif" font-size="10.00">_total</text>
</a>
</g>
</g>
<!-- Node4&#45;&gt;Node5 -->
<g id="edge4" class="edge"><title>Node4&#45;&gt;Node5</title>
<path fill="none" stroke="midnightblue" d="M640.423,-111C656.267,-111 673.374,-111 688.991,-111"/>
<polygon fill="midnightblue" stroke="midnightblue" points="640.221,-107.5 630.221,-111 640.221,-114.5 640.221,-107.5"/>
</g>
<!-- Node7 -->
<g id="node7" class="node"><title>Node7</title>
<g id="a_node7"><a xlink:href="$classAC__WPNav.html#acc07b8521654cf468b6a86fad9104a4c" xlink:title="get origin using position vector (distance from home in cm) ">
<polygon fill="white" stroke="black" points="337,-191.5 337,-210.5 474,-210.5 474,-191.5 337,-191.5"/>
<text text-anchor="middle" x="405.5" y="-198.5" font-family="Helvetica,sans-Serif" font-size="10.00">AC_WPNav::get_wp_origin</text>
</a>
</g>
</g>
<!-- Node6&#45;&gt;Node7 -->
<g id="edge6" class="edge"><title>Node6&#45;&gt;Node7</title>
<path fill="none" stroke="midnightblue" d="M305.929,-201C316.248,-201 326.688,-201 336.72,-201"/>
<polygon fill="midnightblue" stroke="midnightblue" points="305.669,-197.5 295.669,-201 305.669,-204.5 305.669,-197.5"/>
</g>
<!-- Node9&#45;&gt;Node2 -->
<g id="edge9" class="edge"><title>Node9&#45;&gt;Node2</title>
<path fill="none" stroke="midnightblue" d="M282.647,-81.0546C288.857,-83.3696 295.062,-85.7129 301,-88 323.439,-96.6424 348.423,-106.766 368.223,-114.909"/>
<polygon fill="midnightblue" stroke="midnightblue" points="283.512,-77.6429 272.919,-77.4521 281.081,-84.2072 283.512,-77.6429"/>
</g>
<!-- Node10 -->
<g id="node10" class="node"><title>Node10</title>
<g id="a_node10"><a xlink:href="$classAC__Circle.html#aeecf8efd6d546820ee831e749935df8b" xlink:title="AC_Circle::init">
<polygon fill="white" stroke="black" points="365.5,-49.5 365.5,-68.5 445.5,-68.5 445.5,-49.5 365.5,-49.5"/>
<text text-anchor="middle" x="405.5" y="-56.5" font-family="Helvetica,sans-Serif" font-size="10.00">AC_Circle::init</text>
</a>
</g>
</g>
<!-- Node9&#45;&gt;Node10 -->
<g id="edge10" class="edge"><title>Node9&#45;&gt;Node10</title>
<path fill="none" stroke="midnightblue" d="M283.154,-59C310.308,-59 341.4,-59 365.313,-59"/>
<polygon fill="midnightblue" stroke="midnightblue" points="282.963,-55.5001 272.963,-59 282.963,-62.5001 282.963,-55.5001"/>
</g>
</g>
</svg>
