<?xml version="1.0" encoding="UTF-8" standalone="no"?>
<!DOCTYPE svg PUBLIC "-//W3C//DTD SVG 1.1//EN"
 "http://www.w3.org/Graphics/SVG/1.1/DTD/svg11.dtd">
<!-- Generated by graphviz version 2.38.0 (20140413.2041)
 -->
<!-- Title: AC_AttitudeControl::rate_bf_yaw_target Pages: 1 -->
<svg width="517pt" height="303pt"
 viewBox="0.00 0.00 517.00 303.00" xmlns="http://www.w3.org/2000/svg" xmlns:xlink="http://www.w3.org/1999/xlink">
<g id="graph0" class="graph" transform="scale(1 1) rotate(0) translate(4 299)">
<title>AC_AttitudeControl::rate_bf_yaw_target</title>
<polygon fill="white" stroke="none" points="-4,4 -4,-299 513,-299 513,4 -4,4"/>
<!-- Node1 -->
<g id="node1" class="node"><title>Node1</title>
<polygon fill="#bfbfbf" stroke="black" points="0,-156.5 0,-186.5 106,-186.5 106,-156.5 0,-156.5"/>
<text text-anchor="start" x="8" y="-174.5" font-family="Helvetica,sans-Serif" font-size="10.00">AC_AttitudeControl</text>
<text text-anchor="middle" x="53" y="-163.5" font-family="Helvetica,sans-Serif" font-size="10.00">::rate_bf_yaw_target</text>
</g>
<!-- Node2 -->
<g id="node2" class="node"><title>Node2</title>
<g id="a_node2"><a xlink:href="$AP__Math_8h.html#a75b14352ec1c95a8276af9a0813cfdc3" xlink:title="radians">
<polygon fill="white" stroke="black" points="181.5,-231 181.5,-250 229.5,-250 229.5,-231 181.5,-231"/>
<text text-anchor="middle" x="205.5" y="-238" font-family="Helvetica,sans-Serif" font-size="10.00">radians</text>
</a>
</g>
</g>
<!-- Node1&#45;&gt;Node2 -->
<g id="edge1" class="edge"><title>Node1&#45;&gt;Node2</title>
<path fill="none" stroke="midnightblue" d="M77.9941,-186.569C95.3245,-197.025 119.537,-210.767 142,-220.5 151.388,-224.568 161.88,-228.243 171.547,-231.3"/>
<polygon fill="midnightblue" stroke="midnightblue" points="170.656,-234.687 181.242,-234.253 172.695,-227.991 170.656,-234.687"/>
</g>
<!-- Node3 -->
<g id="node3" class="node"><title>Node3</title>
<g id="a_node3"><a xlink:href="$classAC__AttitudeControl.html#a81707c8a063a129c3025c87687b06b52" xlink:title="AC_AttitudeControl\l::max_rate_step_bf_roll">
<polygon fill="white" stroke="black" points="146,-181.5 146,-211.5 265,-211.5 265,-181.5 146,-181.5"/>
<text text-anchor="start" x="154" y="-199.5" font-family="Helvetica,sans-Serif" font-size="10.00">AC_AttitudeControl</text>
<text text-anchor="middle" x="205.5" y="-188.5" font-family="Helvetica,sans-Serif" font-size="10.00">::max_rate_step_bf_roll</text>
</a>
</g>
</g>
<!-- Node1&#45;&gt;Node3 -->
<g id="edge2" class="edge"><title>Node1&#45;&gt;Node3</title>
<path fill="none" stroke="midnightblue" d="M106.215,-180.174C115.83,-181.771 126,-183.46 136.009,-185.123"/>
<polygon fill="midnightblue" stroke="midnightblue" points="135.5,-188.586 145.938,-186.772 136.647,-181.681 135.5,-188.586"/>
</g>
<!-- Node10 -->
<g id="node10" class="node"><title>Node10</title>
<g id="a_node10"><a xlink:href="$classAC__AttitudeControl.html#a874d7c2f98a3ad251d9f91cc936694e2" xlink:title="AC_AttitudeControl\l::max_rate_step_bf_pitch">
<polygon fill="white" stroke="black" points="142,-83.5 142,-113.5 269,-113.5 269,-83.5 142,-83.5"/>
<text text-anchor="start" x="150" y="-101.5" font-family="Helvetica,sans-Serif" font-size="10.00">AC_AttitudeControl</text>
<text text-anchor="middle" x="205.5" y="-90.5" font-family="Helvetica,sans-Serif" font-size="10.00">::max_rate_step_bf_pitch</text>
</a>
</g>
</g>
<!-- Node1&#45;&gt;Node10 -->
<g id="edge9" class="edge"><title>Node1&#45;&gt;Node10</title>
<path fill="none" stroke="midnightblue" d="M78.9208,-156.38C96.276,-146.161 120.14,-132.721 142,-122.5 145.628,-120.804 149.411,-119.13 153.242,-117.502"/>
<polygon fill="midnightblue" stroke="midnightblue" points="154.888,-120.61 162.803,-113.567 152.224,-114.136 154.888,-120.61"/>
</g>
<!-- Node12 -->
<g id="node12" class="node"><title>Node12</title>
<g id="a_node12"><a xlink:href="$classAC__AttitudeControl.html#a8d9a7d9bcefcac0e41adb1136cac46a6" xlink:title="AC_AttitudeControl\l::max_rate_step_bf_yaw">
<polygon fill="white" stroke="black" points="143.5,-132.5 143.5,-162.5 267.5,-162.5 267.5,-132.5 143.5,-132.5"/>
<text text-anchor="start" x="151.5" y="-150.5" font-family="Helvetica,sans-Serif" font-size="10.00">AC_AttitudeControl</text>
<text text-anchor="middle" x="205.5" y="-139.5" font-family="Helvetica,sans-Serif" font-size="10.00">::max_rate_step_bf_yaw</text>
</a>
</g>
</g>
<!-- Node1&#45;&gt;Node12 -->
<g id="edge15" class="edge"><title>Node1&#45;&gt;Node12</title>
<path fill="none" stroke="midnightblue" d="M106.215,-163.173C115.006,-161.771 124.261,-160.296 133.433,-158.833"/>
<polygon fill="midnightblue" stroke="midnightblue" points="134.003,-162.286 143.327,-157.255 132.901,-155.374 134.003,-162.286"/>
</g>
<!-- Node4 -->
<g id="node4" class="node"><title>Node4</title>
<g id="a_node4"><a xlink:href="$classAC__AttitudeControl.html#ad300b51e0777495496adddd1770ee920" xlink:title="AC_AttitudeControl\l::get_rate_roll_pid">
<polygon fill="white" stroke="black" points="314.5,-264.5 314.5,-294.5 415.5,-294.5 415.5,-264.5 314.5,-264.5"/>
<text text-anchor="start" x="322.5" y="-282.5" font-family="Helvetica,sans-Serif" font-size="10.00">AC_AttitudeControl</text>
<text text-anchor="middle" x="365" y="-271.5" font-family="Helvetica,sans-Serif" font-size="10.00">::get_rate_roll_pid</text>
</a>
</g>
</g>
<!-- Node3&#45;&gt;Node4 -->
<g id="edge3" class="edge"><title>Node3&#45;&gt;Node4</title>
<path fill="none" stroke="midnightblue" d="M250.201,-211.609C256.696,-214.524 263.163,-217.83 269,-221.5 287.376,-233.052 286.743,-242.762 305,-254.5 307.943,-256.392 311.054,-258.197 314.246,-259.907"/>
<polygon fill="midnightblue" stroke="midnightblue" points="312.879,-263.136 323.389,-264.47 316.004,-256.873 312.879,-263.136"/>
</g>
<!-- Node5 -->
<g id="node5" class="node"><title>Node5</title>
<g id="a_node5"><a xlink:href="$classAC__PID.html#ac12ffbd4fd053c6152d403b69e07b8e1" xlink:title="AC_PID::get_filt_alpha">
<polygon fill="white" stroke="black" points="306.5,-138 306.5,-157 423.5,-157 423.5,-138 306.5,-138"/>
<text text-anchor="middle" x="365" y="-145" font-family="Helvetica,sans-Serif" font-size="10.00">AC_PID::get_filt_alpha</text>
</a>
</g>
</g>
<!-- Node3&#45;&gt;Node5 -->
<g id="edge4" class="edge"><title>Node3&#45;&gt;Node5</title>
<path fill="none" stroke="midnightblue" d="M255.04,-181.399C276.945,-174.584 302.524,-166.626 323.393,-160.133"/>
<polygon fill="midnightblue" stroke="midnightblue" points="324.713,-163.388 333.222,-157.075 322.634,-156.704 324.713,-163.388"/>
</g>
<!-- Node7 -->
<g id="node7" class="node"><title>Node7</title>
<g id="a_node7"><a xlink:href="$classAP__Motors.html#a6641c5398dea1388547dff3db5d95a86" xlink:title="AP_Motors::get_throttle\l_hover">
<polygon fill="white" stroke="black" points="305,-88.5 305,-118.5 425,-118.5 425,-88.5 305,-88.5"/>
<text text-anchor="start" x="313" y="-106.5" font-family="Helvetica,sans-Serif" font-size="10.00">AP_Motors::get_throttle</text>
<text text-anchor="middle" x="365" y="-95.5" font-family="Helvetica,sans-Serif" font-size="10.00">_hover</text>
</a>
</g>
</g>
<!-- Node3&#45;&gt;Node7 -->
<g id="edge6" class="edge"><title>Node3&#45;&gt;Node7</title>
<path fill="none" stroke="midnightblue" d="M251.96,-181.442C257.942,-178.577 263.796,-175.272 269,-171.5 289.182,-156.873 284.968,-143.33 305,-128.5 307.347,-126.762 309.833,-125.118 312.405,-123.567"/>
<polygon fill="midnightblue" stroke="midnightblue" points="314.308,-126.516 321.403,-118.647 310.949,-120.374 314.308,-126.516"/>
</g>
<!-- Node8 -->
<g id="node8" class="node"><title>Node8</title>
<g id="a_node8"><a xlink:href="$classAC__PID.html#a2d7be199fbc437ee472fad5a4308c668" xlink:title="AC_PID::kD">
<polygon fill="white" stroke="black" points="329,-50 329,-69 401,-69 401,-50 329,-50"/>
<text text-anchor="middle" x="365" y="-57" font-family="Helvetica,sans-Serif" font-size="10.00">AC_PID::kD</text>
</a>
</g>
</g>
<!-- Node3&#45;&gt;Node8 -->
<g id="edge7" class="edge"><title>Node3&#45;&gt;Node8</title>
<path fill="none" stroke="midnightblue" d="M256.04,-181.348C260.78,-178.578 265.22,-175.322 269,-171.5 300.165,-139.985 272.767,-108.922 305,-78.5 309.109,-74.6222 314.013,-71.5359 319.215,-69.0794"/>
<polygon fill="midnightblue" stroke="midnightblue" points="320.772,-72.2278 328.791,-65.3031 318.204,-65.7159 320.772,-72.2278"/>
</g>
<!-- Node9 -->
<g id="node9" class="node"><title>Node9</title>
<g id="a_node9"><a xlink:href="$classAC__PID.html#ac29a8c72a8618d87886599204dcb5b79" xlink:title="AC_PID::kP">
<polygon fill="white" stroke="black" points="329.5,-226 329.5,-245 400.5,-245 400.5,-226 329.5,-226"/>
<text text-anchor="middle" x="365" y="-233" font-family="Helvetica,sans-Serif" font-size="10.00">AC_PID::kP</text>
</a>
</g>
</g>
<!-- Node3&#45;&gt;Node9 -->
<g id="edge8" class="edge"><title>Node3&#45;&gt;Node9</title>
<path fill="none" stroke="midnightblue" d="M265.147,-211.022C282.964,-215.434 302.253,-220.21 319.021,-224.362"/>
<polygon fill="midnightblue" stroke="midnightblue" points="318.552,-227.852 329.101,-226.858 320.235,-221.057 318.552,-227.852"/>
</g>
<!-- Node6 -->
<g id="node6" class="node"><title>Node6</title>
<g id="a_node6"><a xlink:href="$AP__Math_8h.html#a2a12cce483e9b870da70d30406d82c60" xlink:title="is_zero">
<polygon fill="white" stroke="black" points="461,-138 461,-157 509,-157 509,-138 461,-138"/>
<text text-anchor="middle" x="485" y="-145" font-family="Helvetica,sans-Serif" font-size="10.00">is_zero</text>
</a>
</g>
</g>
<!-- Node5&#45;&gt;Node6 -->
<g id="edge5" class="edge"><title>Node5&#45;&gt;Node6</title>
<path fill="none" stroke="midnightblue" d="M423.617,-147.5C432.914,-147.5 442.256,-147.5 450.72,-147.5"/>
<polygon fill="midnightblue" stroke="midnightblue" points="450.903,-151 460.902,-147.5 450.902,-144 450.903,-151"/>
</g>
<!-- Node10&#45;&gt;Node5 -->
<g id="edge11" class="edge"><title>Node10&#45;&gt;Node5</title>
<path fill="none" stroke="midnightblue" d="M255.04,-113.601C276.945,-120.416 302.524,-128.374 323.393,-134.867"/>
<polygon fill="midnightblue" stroke="midnightblue" points="322.634,-138.296 333.222,-137.925 324.713,-131.612 322.634,-138.296"/>
</g>
<!-- Node10&#45;&gt;Node7 -->
<g id="edge12" class="edge"><title>Node10&#45;&gt;Node7</title>
<path fill="none" stroke="midnightblue" d="M269.201,-100.49C277.556,-100.756 286.163,-101.029 294.624,-101.298"/>
<polygon fill="midnightblue" stroke="midnightblue" points="294.738,-104.803 304.844,-101.622 294.96,-97.8064 294.738,-104.803"/>
</g>
<!-- Node10&#45;&gt;Node8 -->
<g id="edge13" class="edge"><title>Node10&#45;&gt;Node8</title>
<path fill="none" stroke="midnightblue" d="M267.394,-83.4216C284.436,-79.2016 302.656,-74.69 318.628,-70.735"/>
<polygon fill="midnightblue" stroke="midnightblue" points="319.899,-74.0261 328.764,-68.225 318.216,-67.2313 319.899,-74.0261"/>
</g>
<!-- Node10&#45;&gt;Node9 -->
<g id="edge14" class="edge"><title>Node10&#45;&gt;Node9</title>
<path fill="none" stroke="midnightblue" d="M257.259,-113.547C261.539,-116.091 265.543,-119.053 269,-122.5 300.383,-153.798 273.001,-184.833 305,-215.5 309.302,-219.623 314.485,-222.898 319.97,-225.498"/>
<polygon fill="midnightblue" stroke="midnightblue" points="318.801,-228.8 329.386,-229.269 321.404,-222.302 318.801,-228.8"/>
</g>
<!-- Node11 -->
<g id="node11" class="node"><title>Node11</title>
<g id="a_node11"><a xlink:href="$classAC__AttitudeControl.html#a9e10a37d28eeb3d6476ec087b3bac3df" xlink:title="AC_AttitudeControl\l::get_rate_pitch_pid">
<polygon fill="white" stroke="black" points="314,-0.5 314,-30.5 416,-30.5 416,-0.5 314,-0.5"/>
<text text-anchor="start" x="322" y="-18.5" font-family="Helvetica,sans-Serif" font-size="10.00">AC_AttitudeControl</text>
<text text-anchor="middle" x="365" y="-7.5" font-family="Helvetica,sans-Serif" font-size="10.00">::get_rate_pitch_pid</text>
</a>
</g>
</g>
<!-- Node10&#45;&gt;Node11 -->
<g id="edge10" class="edge"><title>Node10&#45;&gt;Node11</title>
<path fill="none" stroke="midnightblue" d="M230.294,-83.2945C249.945,-71.0306 278.767,-53.7094 305,-40.5 308.964,-38.5042 313.124,-36.5233 317.325,-34.6012"/>
<polygon fill="midnightblue" stroke="midnightblue" points="318.812,-37.7704 326.523,-30.5043 315.964,-31.3761 318.812,-37.7704"/>
</g>
<!-- Node12&#45;&gt;Node5 -->
<g id="edge17" class="edge"><title>Node12&#45;&gt;Node5</title>
<path fill="none" stroke="midnightblue" d="M267.845,-147.5C277.169,-147.5 286.836,-147.5 296.287,-147.5"/>
<polygon fill="midnightblue" stroke="midnightblue" points="296.43,-151 306.43,-147.5 296.43,-144 296.43,-151"/>
</g>
<!-- Node12&#45;&gt;Node7 -->
<g id="edge18" class="edge"><title>Node12&#45;&gt;Node7</title>
<path fill="none" stroke="midnightblue" d="M260.262,-132.481C273.115,-128.89 286.96,-125.022 300.216,-121.319"/>
<polygon fill="midnightblue" stroke="midnightblue" points="301.524,-124.588 310.213,-118.526 299.64,-117.846 301.524,-124.588"/>
</g>
<!-- Node12&#45;&gt;Node8 -->
<g id="edge19" class="edge"><title>Node12&#45;&gt;Node8</title>
<path fill="none" stroke="midnightblue" d="M251.999,-132.496C257.976,-129.623 263.817,-126.301 269,-122.5 289.375,-107.557 284.122,-92.7315 305,-78.5 309.335,-75.5452 314.158,-73.0268 319.127,-70.8856"/>
<polygon fill="midnightblue" stroke="midnightblue" points="320.668,-74.0441 328.771,-67.2177 318.18,-67.5013 320.668,-74.0441"/>
</g>
<!-- Node12&#45;&gt;Node9 -->
<g id="edge20" class="edge"><title>Node12&#45;&gt;Node9</title>
<path fill="none" stroke="midnightblue" d="M253.953,-162.655C259.245,-165.225 264.384,-168.164 269,-171.5 289.478,-186.301 284.231,-201.109 305,-215.5 309.556,-218.657 314.653,-221.351 319.891,-223.642"/>
<polygon fill="midnightblue" stroke="midnightblue" points="318.797,-226.972 329.385,-227.342 321.339,-220.45 318.797,-226.972"/>
</g>
<!-- Node13 -->
<g id="node13" class="node"><title>Node13</title>
<g id="a_node13"><a xlink:href="$classAC__AttitudeControl.html#a9e430ac947e0924fdc83280a4ed552bf" xlink:title="AC_AttitudeControl\l::get_rate_yaw_pid">
<polygon fill="white" stroke="black" points="314.5,-176.5 314.5,-206.5 415.5,-206.5 415.5,-176.5 314.5,-176.5"/>
<text text-anchor="start" x="322.5" y="-194.5" font-family="Helvetica,sans-Serif" font-size="10.00">AC_AttitudeControl</text>
<text text-anchor="middle" x="365" y="-183.5" font-family="Helvetica,sans-Serif" font-size="10.00">::get_rate_yaw_pid</text>
</a>
</g>
</g>
<!-- Node12&#45;&gt;Node13 -->
<g id="edge16" class="edge"><title>Node12&#45;&gt;Node13</title>
<path fill="none" stroke="midnightblue" d="M260.262,-162.519C274.526,-166.504 290.01,-170.83 304.557,-174.894"/>
<polygon fill="midnightblue" stroke="midnightblue" points="303.879,-178.338 314.452,-177.658 305.763,-171.596 303.879,-178.338"/>
</g>
</g>
</svg>
