<?xml version="1.0" encoding="UTF-8" standalone="no"?>
<!DOCTYPE svg PUBLIC "-//W3C//DTD SVG 1.1//EN"
 "http://www.w3.org/Graphics/SVG/1.1/DTD/svg11.dtd">
<!-- Generated by graphviz version 2.38.0 (20140413.2041)
 -->
<!-- Title: AC_AttitudeControl_Multi::rate_controller_run Pages: 1 -->
<svg width="818pt" height="773pt"
 viewBox="0.00 0.00 818.00 773.00" xmlns="http://www.w3.org/2000/svg" xmlns:xlink="http://www.w3.org/1999/xlink">
<g id="graph0" class="graph" transform="scale(1 1) rotate(0) translate(4 769)">
<title>AC_AttitudeControl_Multi::rate_controller_run</title>
<polygon fill="white" stroke="none" points="-4,4 -4,-769 814,-769 814,4 -4,4"/>
<!-- Node1 -->
<g id="node1" class="node"><title>Node1</title>
<polygon fill="#bfbfbf" stroke="black" points="0,-285 0,-315 129,-315 129,-285 0,-285"/>
<text text-anchor="start" x="8" y="-303" font-family="Helvetica,sans-Serif" font-size="10.00">AC_AttitudeControl</text>
<text text-anchor="middle" x="64.5" y="-292" font-family="Helvetica,sans-Serif" font-size="10.00">_Multi::rate_controller_run</text>
</g>
<!-- Node2 -->
<g id="node2" class="node"><title>Node2</title>
<g id="a_node2"><a xlink:href="$classAC__AttitudeControl__Multi.html#a9125f4bac934eae2cd431a50ea790f46" xlink:title="AC_AttitudeControl\l_Multi::update_throttle\l_rpy_mix">
<polygon fill="white" stroke="black" points="178,-677.5 178,-718.5 291,-718.5 291,-677.5 178,-677.5"/>
<text text-anchor="start" x="186" y="-706.5" font-family="Helvetica,sans-Serif" font-size="10.00">AC_AttitudeControl</text>
<text text-anchor="start" x="186" y="-695.5" font-family="Helvetica,sans-Serif" font-size="10.00">_Multi::update_throttle</text>
<text text-anchor="middle" x="234.5" y="-684.5" font-family="Helvetica,sans-Serif" font-size="10.00">_rpy_mix</text>
</a>
</g>
</g>
<!-- Node1&#45;&gt;Node2 -->
<g id="edge1" class="edge"><title>Node1&#45;&gt;Node2</title>
<path fill="none" stroke="midnightblue" d="M69.9183,-315.068C82.5169,-357.319 120.587,-480.158 165,-577 179.812,-609.298 200.237,-644.457 214.924,-668.51"/>
<polygon fill="midnightblue" stroke="midnightblue" points="212.024,-670.476 220.248,-677.156 217.984,-666.805 212.024,-670.476"/>
</g>
<!-- Node10 -->
<g id="node10" class="node"><title>Node10</title>
<g id="a_node10"><a xlink:href="$classAP__AHRS__View.html#aec99fce6a0287cfe2542ed2b7459d4d1" xlink:title="AP_AHRS_View::get_gyro\l_latest">
<polygon fill="white" stroke="black" points="167.5,-236 167.5,-266 301.5,-266 301.5,-236 167.5,-236"/>
<text text-anchor="start" x="175.5" y="-254" font-family="Helvetica,sans-Serif" font-size="10.00">AP_AHRS_View::get_gyro</text>
<text text-anchor="middle" x="234.5" y="-243" font-family="Helvetica,sans-Serif" font-size="10.00">_latest</text>
</a>
</g>
</g>
<!-- Node1&#45;&gt;Node10 -->
<g id="edge9" class="edge"><title>Node1&#45;&gt;Node10</title>
<path fill="none" stroke="midnightblue" d="M117.276,-284.899C134.603,-279.845 154.086,-274.162 172.077,-268.915"/>
<polygon fill="midnightblue" stroke="midnightblue" points="173.275,-272.212 181.895,-266.052 171.315,-265.492 173.275,-272.212"/>
</g>
<!-- Node18 -->
<g id="node18" class="node"><title>Node18</title>
<g id="a_node18"><a xlink:href="$classAP__Motors.html#a6d8205956720e8f6afb1d2c403f66b64" xlink:title="AP_Motors::set_roll">
<polygon fill="white" stroke="black" points="183,-197.5 183,-216.5 286,-216.5 286,-197.5 183,-197.5"/>
<text text-anchor="middle" x="234.5" y="-204.5" font-family="Helvetica,sans-Serif" font-size="10.00">AP_Motors::set_roll</text>
</a>
</g>
</g>
<!-- Node1&#45;&gt;Node18 -->
<g id="edge17" class="edge"><title>Node1&#45;&gt;Node18</title>
<path fill="none" stroke="midnightblue" d="M81.8441,-284.816C100.593,-268.158 132.9,-241.705 165,-226 169.85,-223.627 175.043,-221.51 180.32,-219.631"/>
<polygon fill="midnightblue" stroke="midnightblue" points="181.443,-222.946 189.853,-216.502 179.26,-216.296 181.443,-222.946"/>
</g>
<!-- Node19 -->
<g id="node19" class="node"><title>Node19</title>
<g id="a_node19"><a xlink:href="$classAC__AttitudeControl.html#a11b25e42766e40c97e90d9dc33164b3e" xlink:title="AC_AttitudeControl\l::rate_target_to_motor_roll">
<polygon fill="white" stroke="black" points="169,-488 169,-518 300,-518 300,-488 169,-488"/>
<text text-anchor="start" x="177" y="-506" font-family="Helvetica,sans-Serif" font-size="10.00">AC_AttitudeControl</text>
<text text-anchor="middle" x="234.5" y="-495" font-family="Helvetica,sans-Serif" font-size="10.00">::rate_target_to_motor_roll</text>
</a>
</g>
</g>
<!-- Node1&#45;&gt;Node19 -->
<g id="edge18" class="edge"><title>Node1&#45;&gt;Node19</title>
<path fill="none" stroke="midnightblue" d="M69.8155,-315.114C80.3295,-349.282 110.487,-433.063 165,-479 166.518,-480.279 168.108,-481.491 169.756,-482.641"/>
<polygon fill="midnightblue" stroke="midnightblue" points="168.043,-485.695 178.411,-487.876 171.666,-479.705 168.043,-485.695"/>
</g>
<!-- Node30 -->
<g id="node30" class="node"><title>Node30</title>
<g id="a_node30"><a xlink:href="$classAP__Motors.html#a81b4dce8b2b85b5e7042f7ccb6744afc" xlink:title="AP_Motors::set_pitch">
<polygon fill="white" stroke="black" points="179,-159.5 179,-178.5 290,-178.5 290,-159.5 179,-159.5"/>
<text text-anchor="middle" x="234.5" y="-166.5" font-family="Helvetica,sans-Serif" font-size="10.00">AP_Motors::set_pitch</text>
</a>
</g>
</g>
<!-- Node1&#45;&gt;Node30 -->
<g id="edge31" class="edge"><title>Node1&#45;&gt;Node30</title>
<path fill="none" stroke="midnightblue" d="M74.793,-284.808C90.3892,-260.611 124.169,-213.457 165,-188 168.379,-185.893 171.994,-184.016 175.733,-182.343"/>
<polygon fill="midnightblue" stroke="midnightblue" points="177.203,-185.526 185.215,-178.594 174.629,-179.016 177.203,-185.526"/>
</g>
<!-- Node31 -->
<g id="node31" class="node"><title>Node31</title>
<g id="a_node31"><a xlink:href="$classAC__AttitudeControl.html#af828fefadbe69fe4b05db836886ffca5" xlink:title="AC_AttitudeControl\l::rate_target_to_motor_pitch">
<polygon fill="white" stroke="black" points="165,-439 165,-469 304,-469 304,-439 165,-439"/>
<text text-anchor="start" x="173" y="-457" font-family="Helvetica,sans-Serif" font-size="10.00">AC_AttitudeControl</text>
<text text-anchor="middle" x="234.5" y="-446" font-family="Helvetica,sans-Serif" font-size="10.00">::rate_target_to_motor_pitch</text>
</a>
</g>
</g>
<!-- Node1&#45;&gt;Node31 -->
<g id="edge32" class="edge"><title>Node1&#45;&gt;Node31</title>
<path fill="none" stroke="midnightblue" d="M81.9144,-315.047C111.572,-342.233 174.226,-399.666 208.981,-431.524"/>
<polygon fill="midnightblue" stroke="midnightblue" points="207.033,-434.487 216.77,-438.664 211.764,-429.327 207.033,-434.487"/>
</g>
<!-- Node33 -->
<g id="node33" class="node"><title>Node33</title>
<g id="a_node33"><a xlink:href="$classAP__Motors.html#aeffa3aa472e13049df93f68ea7c2994b" xlink:title="AP_Motors::set_yaw">
<polygon fill="white" stroke="black" points="180.5,-121.5 180.5,-140.5 288.5,-140.5 288.5,-121.5 180.5,-121.5"/>
<text text-anchor="middle" x="234.5" y="-128.5" font-family="Helvetica,sans-Serif" font-size="10.00">AP_Motors::set_yaw</text>
</a>
</g>
</g>
<!-- Node1&#45;&gt;Node33 -->
<g id="edge42" class="edge"><title>Node1&#45;&gt;Node33</title>
<path fill="none" stroke="midnightblue" d="M71.3556,-284.606C83.766,-254.091 115.683,-185.795 165,-150 167.697,-148.043 170.587,-146.287 173.599,-144.712"/>
<polygon fill="midnightblue" stroke="midnightblue" points="175.251,-147.806 182.932,-140.509 172.377,-141.424 175.251,-147.806"/>
</g>
<!-- Node34 -->
<g id="node34" class="node"><title>Node34</title>
<g id="a_node34"><a xlink:href="$classAC__AttitudeControl.html#aaa638b2161d9a8cddfa0750ab02fb378" xlink:title="AC_AttitudeControl\l::rate_target_to_motor_yaw">
<polygon fill="white" stroke="black" points="166.5,-537 166.5,-567 302.5,-567 302.5,-537 166.5,-537"/>
<text text-anchor="start" x="174.5" y="-555" font-family="Helvetica,sans-Serif" font-size="10.00">AC_AttitudeControl</text>
<text text-anchor="middle" x="234.5" y="-544" font-family="Helvetica,sans-Serif" font-size="10.00">::rate_target_to_motor_yaw</text>
</a>
</g>
</g>
<!-- Node1&#45;&gt;Node34 -->
<g id="edge43" class="edge"><title>Node1&#45;&gt;Node34</title>
<path fill="none" stroke="midnightblue" d="M67.8386,-315.177C74.8606,-355.646 99.4745,-467.182 165,-528 166.27,-529.179 167.601,-530.3 168.983,-531.367"/>
<polygon fill="midnightblue" stroke="midnightblue" points="167.108,-534.322 177.385,-536.898 170.957,-528.476 167.108,-534.322"/>
</g>
<!-- Node37 -->
<g id="node37" class="node"><title>Node37</title>
<g id="a_node37"><a xlink:href="$classAC__AttitudeControl.html#a487553ac1448b6ba791d029c9cf18dac" xlink:title="AC_AttitudeControl\l::control_monitor_update">
<polygon fill="white" stroke="black" points="172.5,-285 172.5,-315 296.5,-315 296.5,-285 172.5,-285"/>
<text text-anchor="start" x="180.5" y="-303" font-family="Helvetica,sans-Serif" font-size="10.00">AC_AttitudeControl</text>
<text text-anchor="middle" x="234.5" y="-292" font-family="Helvetica,sans-Serif" font-size="10.00">::control_monitor_update</text>
</a>
</g>
</g>
<!-- Node1&#45;&gt;Node37 -->
<g id="edge54" class="edge"><title>Node1&#45;&gt;Node37</title>
<path fill="none" stroke="midnightblue" d="M129.014,-300C139.898,-300 151.272,-300 162.34,-300"/>
<polygon fill="midnightblue" stroke="midnightblue" points="162.397,-303.5 172.397,-300 162.397,-296.5 162.397,-303.5"/>
</g>
<!-- Node3 -->
<g id="node3" class="node"><title>Node3</title>
<g id="a_node3"><a xlink:href="$AP__Math_8h.html#a6b187a3fa1e9f663e89175e7e8e213d6" xlink:title="MIN">
<polygon fill="white" stroke="black" points="391.5,-726.5 391.5,-745.5 426.5,-745.5 426.5,-726.5 391.5,-726.5"/>
<text text-anchor="middle" x="409" y="-733.5" font-family="Helvetica,sans-Serif" font-size="10.00">MIN</text>
</a>
</g>
</g>
<!-- Node2&#45;&gt;Node3 -->
<g id="edge2" class="edge"><title>Node2&#45;&gt;Node3</title>
<path fill="none" stroke="midnightblue" d="M291.03,-710.233C321.401,-716.923 357.618,-724.901 381.623,-730.189"/>
<polygon fill="midnightblue" stroke="midnightblue" points="380.9,-733.614 391.418,-732.347 382.406,-726.778 380.9,-733.614"/>
</g>
<!-- Node4 -->
<g id="node4" class="node"><title>Node4</title>
<g id="a_node4"><a xlink:href="$AP__Math_8h.html#ad525609d9dba6ffa556a0fbf08a3f9b4" xlink:title="constrain_float">
<polygon fill="white" stroke="black" points="369,-688.5 369,-707.5 449,-707.5 449,-688.5 369,-688.5"/>
<text text-anchor="middle" x="409" y="-695.5" font-family="Helvetica,sans-Serif" font-size="10.00">constrain_float</text>
</a>
</g>
</g>
<!-- Node2&#45;&gt;Node4 -->
<g id="edge3" class="edge"><title>Node2&#45;&gt;Node4</title>
<path fill="none" stroke="midnightblue" d="M291.03,-698C312.867,-698 337.726,-698 358.895,-698"/>
<polygon fill="midnightblue" stroke="midnightblue" points="358.962,-701.5 368.961,-698 358.961,-694.5 358.962,-701.5"/>
</g>
<!-- Node5 -->
<g id="node5" class="node"><title>Node5</title>
<g id="a_node5"><a xlink:href="$AP__Math_8h.html#a20e8f8671c282c69c1954652b6d61585" xlink:title="constrain_value">
<polygon fill="white" stroke="black" points="536,-688.5 536,-707.5 621,-707.5 621,-688.5 536,-688.5"/>
<text text-anchor="middle" x="578.5" y="-695.5" font-family="Helvetica,sans-Serif" font-size="10.00">constrain_value</text>
</a>
</g>
</g>
<!-- Node4&#45;&gt;Node5 -->
<g id="edge4" class="edge"><title>Node4&#45;&gt;Node5</title>
<path fill="none" stroke="midnightblue" d="M449.271,-698C472.031,-698 500.964,-698 525.585,-698"/>
<polygon fill="midnightblue" stroke="midnightblue" points="525.842,-701.5 535.842,-698 525.842,-694.5 525.842,-701.5"/>
</g>
<!-- Node6 -->
<g id="node6" class="node"><title>Node6</title>
<g id="a_node6"><a xlink:href="$AP__Math_8cpp.html#a37e8e901754cb9c8e53a8e3030c82c50" xlink:title="constrain_value\&lt; int \&gt;">
<polygon fill="white" stroke="black" points="688,-669.5 688,-688.5 801,-688.5 801,-669.5 688,-669.5"/>
<text text-anchor="middle" x="744.5" y="-676.5" font-family="Helvetica,sans-Serif" font-size="10.00">constrain_value&lt; int &gt;</text>
</a>
</g>
</g>
<!-- Node5&#45;&gt;Node6 -->
<g id="edge5" class="edge"><title>Node5&#45;&gt;Node6</title>
<path fill="none" stroke="midnightblue" d="M621.308,-693.156C638.443,-691.171 658.688,-688.826 677.719,-686.621"/>
<polygon fill="midnightblue" stroke="midnightblue" points="678.306,-690.076 687.837,-685.449 677.5,-683.123 678.306,-690.076"/>
</g>
<!-- Node7 -->
<g id="node7" class="node"><title>Node7</title>
<g id="a_node7"><a xlink:href="$AP__Math_8cpp.html#afdbe107ec1987d318a6347816fbf2b89" xlink:title="constrain_value\&lt; short \&gt;">
<polygon fill="white" stroke="black" points="682,-631.5 682,-650.5 807,-650.5 807,-631.5 682,-631.5"/>
<text text-anchor="middle" x="744.5" y="-638.5" font-family="Helvetica,sans-Serif" font-size="10.00">constrain_value&lt; short &gt;</text>
</a>
</g>
</g>
<!-- Node5&#45;&gt;Node7 -->
<g id="edge6" class="edge"><title>Node5&#45;&gt;Node7</title>
<path fill="none" stroke="midnightblue" d="M603.034,-688.414C623.077,-680.395 652.721,-668.874 679,-660 685.539,-657.792 692.499,-655.59 699.335,-653.51"/>
<polygon fill="midnightblue" stroke="midnightblue" points="700.621,-656.779 709.2,-650.562 698.616,-650.072 700.621,-656.779"/>
</g>
<!-- Node8 -->
<g id="node8" class="node"><title>Node8</title>
<g id="a_node8"><a xlink:href="$AP__Math_8cpp.html#ae6c621670c214da687de21d4e3a92587" xlink:title="constrain_value\&lt; float \&gt;">
<polygon fill="white" stroke="black" points="683.5,-745.5 683.5,-764.5 805.5,-764.5 805.5,-745.5 683.5,-745.5"/>
<text text-anchor="middle" x="744.5" y="-752.5" font-family="Helvetica,sans-Serif" font-size="10.00">constrain_value&lt; float &gt;</text>
</a>
</g>
</g>
<!-- Node5&#45;&gt;Node8 -->
<g id="edge7" class="edge"><title>Node5&#45;&gt;Node8</title>
<path fill="none" stroke="midnightblue" d="M603.034,-707.586C623.077,-715.605 652.721,-727.126 679,-736 685.539,-738.208 692.499,-740.41 699.335,-742.49"/>
<polygon fill="midnightblue" stroke="midnightblue" points="698.616,-745.928 709.2,-745.438 700.621,-739.221 698.616,-745.928"/>
</g>
<!-- Node9 -->
<g id="node9" class="node"><title>Node9</title>
<g id="a_node9"><a xlink:href="$AP__Math_8cpp.html#afe3990b00e9abc43fa97dfaf8e32f5c4" xlink:title="constrain_value\&lt; double \&gt;">
<polygon fill="white" stroke="black" points="679,-707.5 679,-726.5 810,-726.5 810,-707.5 679,-707.5"/>
<text text-anchor="middle" x="744.5" y="-714.5" font-family="Helvetica,sans-Serif" font-size="10.00">constrain_value&lt; double &gt;</text>
</a>
</g>
</g>
<!-- Node5&#45;&gt;Node9 -->
<g id="edge8" class="edge"><title>Node5&#45;&gt;Node9</title>
<path fill="none" stroke="midnightblue" d="M621.308,-702.844C635.769,-704.519 652.445,-706.451 668.737,-708.338"/>
<polygon fill="midnightblue" stroke="midnightblue" points="668.472,-711.831 678.808,-709.505 669.277,-704.878 668.472,-711.831"/>
</g>
<!-- Node11 -->
<g id="node11" class="node"><title>Node11</title>
<g id="a_node11"><a xlink:href="$classAP__AHRS.html#a13ab26b0126885606c1d596072f8af04" xlink:title="AP_AHRS::get_gyro_latest">
<polygon fill="white" stroke="black" points="340.5,-72.5 340.5,-91.5 477.5,-91.5 477.5,-72.5 340.5,-72.5"/>
<text text-anchor="middle" x="409" y="-79.5" font-family="Helvetica,sans-Serif" font-size="10.00">AP_AHRS::get_gyro_latest</text>
</a>
</g>
</g>
<!-- Node10&#45;&gt;Node11 -->
<g id="edge10" class="edge"><title>Node10&#45;&gt;Node11</title>
<path fill="none" stroke="midnightblue" d="M291.471,-235.949C296.093,-233.173 300.373,-229.888 304,-226 343.435,-183.723 298.957,-141.718 340,-101 341.468,-99.5432 343.039,-98.1959 344.691,-96.9499"/>
<polygon fill="midnightblue" stroke="midnightblue" points="346.845,-99.735 353.545,-91.5278 343.189,-93.7655 346.845,-99.735"/>
</g>
<!-- Node17 -->
<g id="node17" class="node"><title>Node17</title>
<g id="a_node17"><a xlink:href="$classVector3.html#a53d5701ae2db9492944550927279b7b8" xlink:title="Vector3::rotate">
<polygon fill="white" stroke="black" points="368.5,-110.5 368.5,-129.5 449.5,-129.5 449.5,-110.5 368.5,-110.5"/>
<text text-anchor="middle" x="409" y="-117.5" font-family="Helvetica,sans-Serif" font-size="10.00">Vector3::rotate</text>
</a>
</g>
</g>
<!-- Node10&#45;&gt;Node17 -->
<g id="edge16" class="edge"><title>Node10&#45;&gt;Node17</title>
<path fill="none" stroke="midnightblue" d="M290.351,-235.892C295.316,-233.122 299.979,-229.854 304,-226 334.21,-197.044 308.691,-166.764 340,-139 345.299,-134.301 351.67,-130.755 358.36,-128.081"/>
<polygon fill="midnightblue" stroke="midnightblue" points="359.928,-131.247 368.3,-124.755 357.707,-124.609 359.928,-131.247"/>
</g>
<!-- Node12 -->
<g id="node12" class="node"><title>Node12</title>
<g id="a_node12"><a xlink:href="$classAP__AHRS.html#adf9f5cf9e3df1b4318252d07e2817993" xlink:title="AP_AHRS::get_primary\l_gyro_index">
<polygon fill="white" stroke="black" points="518,-127 518,-157 639,-157 639,-127 518,-127"/>
<text text-anchor="start" x="526" y="-145" font-family="Helvetica,sans-Serif" font-size="10.00">AP_AHRS::get_primary</text>
<text text-anchor="middle" x="578.5" y="-134" font-family="Helvetica,sans-Serif" font-size="10.00">_gyro_index</text>
</a>
</g>
</g>
<!-- Node11&#45;&gt;Node12 -->
<g id="edge11" class="edge"><title>Node11&#45;&gt;Node12</title>
<path fill="none" stroke="midnightblue" d="M448.075,-91.5848C457.913,-94.3479 468.427,-97.5559 478,-101 494.475,-106.927 497.85,-110.236 514,-117 518.795,-119.008 523.811,-121.062 528.832,-123.088"/>
<polygon fill="midnightblue" stroke="midnightblue" points="527.853,-126.466 538.438,-126.928 530.451,-119.966 527.853,-126.466"/>
</g>
<!-- Node14 -->
<g id="node14" class="node"><title>Node14</title>
<g id="a_node14"><a xlink:href="$classAP__AHRS.html#a14398c5d2ae68bbe1c67482a91909ad9" xlink:title="AP_AHRS::get_ins">
<polygon fill="white" stroke="black" points="528,-88.5 528,-107.5 629,-107.5 629,-88.5 528,-88.5"/>
<text text-anchor="middle" x="578.5" y="-95.5" font-family="Helvetica,sans-Serif" font-size="10.00">AP_AHRS::get_ins</text>
</a>
</g>
</g>
<!-- Node11&#45;&gt;Node14 -->
<g id="edge13" class="edge"><title>Node11&#45;&gt;Node14</title>
<path fill="none" stroke="midnightblue" d="M477.646,-88.4617C490.9,-89.7278 504.713,-91.0472 517.689,-92.2867"/>
<polygon fill="midnightblue" stroke="midnightblue" points="517.602,-95.7943 527.89,-93.2611 518.268,-88.826 517.602,-95.7943"/>
</g>
<!-- Node15 -->
<g id="node15" class="node"><title>Node15</title>
<g id="a_node15"><a xlink:href="$classAP__InertialSensor.html#a6df2d8ad956d4f375bdee541102f16af" xlink:title="AP_InertialSensor::\lget_gyro">
<polygon fill="white" stroke="black" points="528,-39 528,-69 629,-69 629,-39 528,-39"/>
<text text-anchor="start" x="536" y="-57" font-family="Helvetica,sans-Serif" font-size="10.00">AP_InertialSensor::</text>
<text text-anchor="middle" x="578.5" y="-46" font-family="Helvetica,sans-Serif" font-size="10.00">get_gyro</text>
</a>
</g>
</g>
<!-- Node11&#45;&gt;Node15 -->
<g id="edge14" class="edge"><title>Node11&#45;&gt;Node15</title>
<path fill="none" stroke="midnightblue" d="M467.176,-72.4423C483.5,-69.7134 501.327,-66.7333 517.799,-63.9799"/>
<polygon fill="midnightblue" stroke="midnightblue" points="518.568,-67.4 527.854,-62.2991 517.413,-60.4958 518.568,-67.4"/>
</g>
<!-- Node16 -->
<g id="node16" class="node"><title>Node16</title>
<g id="a_node16"><a xlink:href="$classAP__AHRS.html#a6876435645c1049077f33f225ab828f7" xlink:title="AP_AHRS::get_gyro_drift">
<polygon fill="white" stroke="black" points="514,-0.5 514,-19.5 643,-19.5 643,-0.5 514,-0.5"/>
<text text-anchor="middle" x="578.5" y="-7.5" font-family="Helvetica,sans-Serif" font-size="10.00">AP_AHRS::get_gyro_drift</text>
</a>
</g>
</g>
<!-- Node11&#45;&gt;Node16 -->
<g id="edge15" class="edge"><title>Node11&#45;&gt;Node16</title>
<path fill="none" stroke="midnightblue" d="M426.498,-72.4122C446.652,-60.9793 482.02,-41.8111 514,-29 519.611,-26.7521 525.594,-24.6267 531.558,-22.6682"/>
<polygon fill="midnightblue" stroke="midnightblue" points="533.022,-25.8768 541.511,-19.5375 530.922,-19.1994 533.022,-25.8768"/>
</g>
<!-- Node13 -->
<g id="node13" class="node"><title>Node13</title>
<g id="a_node13"><a xlink:href="$classAP__InertialSensor.html#a7fa04e2f196b27b876d86966f64e1fed" xlink:title="AP_InertialSensor::\lget_primary_gyro">
<polygon fill="white" stroke="black" points="694,-127 694,-157 795,-157 795,-127 694,-127"/>
<text text-anchor="start" x="702" y="-145" font-family="Helvetica,sans-Serif" font-size="10.00">AP_InertialSensor::</text>
<text text-anchor="middle" x="744.5" y="-134" font-family="Helvetica,sans-Serif" font-size="10.00">get_primary_gyro</text>
</a>
</g>
</g>
<!-- Node12&#45;&gt;Node13 -->
<g id="edge12" class="edge"><title>Node12&#45;&gt;Node13</title>
<path fill="none" stroke="midnightblue" d="M639.172,-142C653.616,-142 669.062,-142 683.521,-142"/>
<polygon fill="midnightblue" stroke="midnightblue" points="683.846,-145.5 693.846,-142 683.846,-138.5 683.846,-145.5"/>
</g>
<!-- Node19&#45;&gt;Node4 -->
<g id="edge30" class="edge"><title>Node19&#45;&gt;Node4</title>
<path fill="none" stroke="midnightblue" d="M291.988,-518.079C296.446,-520.847 300.549,-524.123 304,-528 349.877,-579.528 292.161,-629.287 340,-679 345.259,-684.465 351.948,-688.398 359.069,-691.221"/>
<polygon fill="midnightblue" stroke="midnightblue" points="358.361,-694.671 368.953,-694.421 360.518,-688.011 358.361,-694.671"/>
</g>
<!-- Node20 -->
<g id="node20" class="node"><title>Node20</title>
<g id="a_node20"><a xlink:href="$classAC__AttitudeControl.html#ad300b51e0777495496adddd1770ee920" xlink:title="AC_AttitudeControl\l::get_rate_roll_pid">
<polygon fill="white" stroke="black" points="358.5,-285 358.5,-315 459.5,-315 459.5,-285 358.5,-285"/>
<text text-anchor="start" x="366.5" y="-303" font-family="Helvetica,sans-Serif" font-size="10.00">AC_AttitudeControl</text>
<text text-anchor="middle" x="409" y="-292" font-family="Helvetica,sans-Serif" font-size="10.00">::get_rate_roll_pid</text>
</a>
</g>
</g>
<!-- Node19&#45;&gt;Node20 -->
<g id="edge19" class="edge"><title>Node19&#45;&gt;Node20</title>
<path fill="none" stroke="midnightblue" d="M293.282,-487.975C297.239,-485.437 300.885,-482.469 304,-479 350.964,-426.703 293.438,-377.655 340,-325 342.812,-321.82 346.065,-319.044 349.593,-316.62"/>
<polygon fill="midnightblue" stroke="midnightblue" points="351.366,-319.638 358.247,-311.582 347.844,-313.589 351.366,-319.638"/>
</g>
<!-- Node21 -->
<g id="node21" class="node"><title>Node21</title>
<g id="a_node21"><a xlink:href="$classAC__PID.html#a0217a1314e284babe6fe0d3e3cf92601" xlink:title="AC_PID::set_input_filter_d">
<polygon fill="white" stroke="black" points="342,-334.5 342,-353.5 476,-353.5 476,-334.5 342,-334.5"/>
<text text-anchor="middle" x="409" y="-341.5" font-family="Helvetica,sans-Serif" font-size="10.00">AC_PID::set_input_filter_d</text>
</a>
</g>
</g>
<!-- Node19&#45;&gt;Node21 -->
<g id="edge20" class="edge"><title>Node19&#45;&gt;Node21</title>
<path fill="none" stroke="midnightblue" d="M292.688,-487.927C296.829,-485.399 300.676,-482.446 304,-479 341.476,-440.147 301.29,-400.624 340,-363 341.483,-361.558 343.067,-360.224 344.73,-358.99"/>
<polygon fill="midnightblue" stroke="midnightblue" points="346.88,-361.78 353.626,-353.61 343.258,-355.79 346.88,-361.78"/>
</g>
<!-- Node24 -->
<g id="node24" class="node"><title>Node24</title>
<g id="a_node24"><a xlink:href="$classAC__PID.html#a3f727ab395b401474027b6b9efcab5a3" xlink:title="AC_PID::set_desired_rate">
<polygon fill="white" stroke="black" points="343.5,-460.5 343.5,-479.5 474.5,-479.5 474.5,-460.5 343.5,-460.5"/>
<text text-anchor="middle" x="409" y="-467.5" font-family="Helvetica,sans-Serif" font-size="10.00">AC_PID::set_desired_rate</text>
</a>
</g>
</g>
<!-- Node19&#45;&gt;Node24 -->
<g id="edge23" class="edge"><title>Node19&#45;&gt;Node24</title>
<path fill="none" stroke="midnightblue" d="M300.223,-490.618C315.986,-487.603 332.774,-484.391 348.292,-481.422"/>
<polygon fill="midnightblue" stroke="midnightblue" points="349.118,-484.828 358.282,-479.511 347.803,-477.953 349.118,-484.828"/>
</g>
<!-- Node25 -->
<g id="node25" class="node"><title>Node25</title>
<g id="a_node25"><a xlink:href="$classAC__PID.html#a0fc275cae5ff46799af85af551c65870" xlink:title="AC_PID::get_integrator">
<polygon fill="white" stroke="black" points="349.5,-422.5 349.5,-441.5 468.5,-441.5 468.5,-422.5 349.5,-422.5"/>
<text text-anchor="middle" x="409" y="-429.5" font-family="Helvetica,sans-Serif" font-size="10.00">AC_PID::get_integrator</text>
</a>
</g>
</g>
<!-- Node19&#45;&gt;Node25 -->
<g id="edge24" class="edge"><title>Node19&#45;&gt;Node25</title>
<path fill="none" stroke="midnightblue" d="M284.619,-487.981C291.282,-485.316 297.915,-482.317 304,-479 321.798,-469.3 321.898,-460.121 340,-451 344.603,-448.681 349.528,-446.611 354.545,-444.771"/>
<polygon fill="midnightblue" stroke="midnightblue" points="355.883,-448.014 364.248,-441.511 353.654,-441.378 355.883,-448.014"/>
</g>
<!-- Node26 -->
<g id="node26" class="node"><title>Node26</title>
<g id="a_node26"><a xlink:href="$classAC__PID.html#a2d5bf9811a78c93a396ec1e37ae6fa0a" xlink:title="AC_PID::get_i">
<polygon fill="white" stroke="black" points="369,-574.5 369,-593.5 449,-593.5 449,-574.5 369,-574.5"/>
<text text-anchor="middle" x="409" y="-581.5" font-family="Helvetica,sans-Serif" font-size="10.00">AC_PID::get_i</text>
</a>
</g>
</g>
<!-- Node19&#45;&gt;Node26 -->
<g id="edge25" class="edge"><title>Node19&#45;&gt;Node26</title>
<path fill="none" stroke="midnightblue" d="M285.063,-518.036C291.66,-520.904 298.155,-524.216 304,-528 323.26,-540.468 320.271,-553.287 340,-565 345.878,-568.49 352.421,-571.361 359.062,-573.717"/>
<polygon fill="midnightblue" stroke="midnightblue" points="358.204,-577.116 368.794,-576.812 360.326,-570.446 358.204,-577.116"/>
</g>
<!-- Node27 -->
<g id="node27" class="node"><title>Node27</title>
<g id="a_node27"><a xlink:href="$classAC__PID.html#a4808bb2656a1e8d94c713e58a7a2a222" xlink:title="AC_PID::get_p">
<polygon fill="white" stroke="black" points="367.5,-612.5 367.5,-631.5 450.5,-631.5 450.5,-612.5 367.5,-612.5"/>
<text text-anchor="middle" x="409" y="-619.5" font-family="Helvetica,sans-Serif" font-size="10.00">AC_PID::get_p</text>
</a>
</g>
</g>
<!-- Node19&#45;&gt;Node27 -->
<g id="edge27" class="edge"><title>Node19&#45;&gt;Node27</title>
<path fill="none" stroke="midnightblue" d="M289.794,-518.155C294.927,-520.919 299.78,-524.173 304,-528 331.389,-552.839 311.67,-579.241 340,-603 345.238,-607.392 351.42,-610.773 357.887,-613.374"/>
<polygon fill="midnightblue" stroke="midnightblue" points="356.894,-616.733 367.489,-616.653 359.157,-610.109 356.894,-616.733"/>
</g>
<!-- Node28 -->
<g id="node28" class="node"><title>Node28</title>
<g id="a_node28"><a xlink:href="$classAC__PID.html#ad0c0510049ea37401920792e843bec86" xlink:title="AC_PID::get_d">
<polygon fill="white" stroke="black" points="367.5,-536.5 367.5,-555.5 450.5,-555.5 450.5,-536.5 367.5,-536.5"/>
<text text-anchor="middle" x="409" y="-543.5" font-family="Helvetica,sans-Serif" font-size="10.00">AC_PID::get_d</text>
</a>
</g>
</g>
<!-- Node19&#45;&gt;Node28 -->
<g id="edge28" class="edge"><title>Node19&#45;&gt;Node28</title>
<path fill="none" stroke="midnightblue" d="M295.832,-518.039C316.86,-523.281 340.154,-529.088 360.04,-534.045"/>
<polygon fill="midnightblue" stroke="midnightblue" points="359.251,-537.455 369.8,-536.478 360.944,-530.663 359.251,-537.455"/>
</g>
<!-- Node29 -->
<g id="node29" class="node"><title>Node29</title>
<g id="a_node29"><a xlink:href="$classAC__PID.html#af8b4c040c43a28fbe025de765f38e90d" xlink:title="AC_PID::get_ff">
<polygon fill="white" stroke="black" points="367,-498.5 367,-517.5 451,-517.5 451,-498.5 367,-498.5"/>
<text text-anchor="middle" x="409" y="-505.5" font-family="Helvetica,sans-Serif" font-size="10.00">AC_PID::get_ff</text>
</a>
</g>
</g>
<!-- Node19&#45;&gt;Node29 -->
<g id="edge29" class="edge"><title>Node19&#45;&gt;Node29</title>
<path fill="none" stroke="midnightblue" d="M300.223,-504.876C318.924,-505.418 339.067,-506.002 356.82,-506.517"/>
<polygon fill="midnightblue" stroke="midnightblue" points="356.871,-510.019 366.968,-506.811 357.073,-503.022 356.871,-510.019"/>
</g>
<!-- Node22 -->
<g id="node22" class="node"><title>Node22</title>
<g id="a_node22"><a xlink:href="$classAC__PID.html#ac12ffbd4fd053c6152d403b69e07b8e1" xlink:title="AC_PID::get_filt_alpha">
<polygon fill="white" stroke="black" points="520,-536.5 520,-555.5 637,-555.5 637,-536.5 520,-536.5"/>
<text text-anchor="middle" x="578.5" y="-543.5" font-family="Helvetica,sans-Serif" font-size="10.00">AC_PID::get_filt_alpha</text>
</a>
</g>
</g>
<!-- Node21&#45;&gt;Node22 -->
<g id="edge21" class="edge"><title>Node21&#45;&gt;Node22</title>
<path fill="none" stroke="midnightblue" d="M461.572,-353.545C467.47,-356.008 473.11,-359.105 478,-363 532.837,-406.68 561.681,-489.149 572.452,-526.61"/>
<polygon fill="midnightblue" stroke="midnightblue" points="569.093,-527.595 575.121,-536.307 575.842,-525.737 569.093,-527.595"/>
</g>
<!-- Node23 -->
<g id="node23" class="node"><title>Node23</title>
<g id="a_node23"><a xlink:href="$AP__Math_8h.html#a2a12cce483e9b870da70d30406d82c60" xlink:title="is_zero">
<polygon fill="white" stroke="black" points="720.5,-555.5 720.5,-574.5 768.5,-574.5 768.5,-555.5 720.5,-555.5"/>
<text text-anchor="middle" x="744.5" y="-562.5" font-family="Helvetica,sans-Serif" font-size="10.00">is_zero</text>
</a>
</g>
</g>
<!-- Node22&#45;&gt;Node23 -->
<g id="edge22" class="edge"><title>Node22&#45;&gt;Node23</title>
<path fill="none" stroke="midnightblue" d="M637.32,-552.699C661.777,-555.532 689.384,-558.73 710.318,-561.156"/>
<polygon fill="midnightblue" stroke="midnightblue" points="709.972,-564.639 720.309,-562.313 710.778,-557.686 709.972,-564.639"/>
</g>
<!-- Node26&#45;&gt;Node23 -->
<g id="edge26" class="edge"><title>Node26&#45;&gt;Node23</title>
<path fill="none" stroke="midnightblue" d="M449.237,-581.765C515.484,-577.99 648.332,-570.422 710.278,-566.893"/>
<polygon fill="midnightblue" stroke="midnightblue" points="710.506,-570.386 720.29,-566.322 710.108,-563.397 710.506,-570.386"/>
</g>
<!-- Node31&#45;&gt;Node4 -->
<g id="edge41" class="edge"><title>Node31&#45;&gt;Node4</title>
<path fill="none" stroke="midnightblue" d="M292.543,-469.084C296.826,-471.851 300.74,-475.125 304,-479 362.148,-548.109 279.219,-612.195 340,-679 345.104,-684.61 351.713,-688.618 358.802,-691.471"/>
<polygon fill="midnightblue" stroke="midnightblue" points="358.077,-694.916 368.669,-694.687 360.246,-688.26 358.077,-694.916"/>
</g>
<!-- Node31&#45;&gt;Node21 -->
<g id="edge34" class="edge"><title>Node31&#45;&gt;Node21</title>
<path fill="none" stroke="midnightblue" d="M248.818,-438.781C267.314,-418.57 302.731,-383.093 340,-363 344.228,-360.72 348.755,-358.694 353.391,-356.895"/>
<polygon fill="midnightblue" stroke="midnightblue" points="354.724,-360.137 362.997,-353.518 352.402,-353.533 354.724,-360.137"/>
</g>
<!-- Node31&#45;&gt;Node24 -->
<g id="edge35" class="edge"><title>Node31&#45;&gt;Node24</title>
<path fill="none" stroke="midnightblue" d="M304.172,-460.37C313.795,-461.262 323.723,-462.183 333.449,-463.085"/>
<polygon fill="midnightblue" stroke="midnightblue" points="333.209,-466.578 343.489,-464.016 333.855,-459.608 333.209,-466.578"/>
</g>
<!-- Node31&#45;&gt;Node25 -->
<g id="edge36" class="edge"><title>Node31&#45;&gt;Node25</title>
<path fill="none" stroke="midnightblue" d="M304.172,-445.242C315.726,-443.768 327.72,-442.239 339.276,-440.765"/>
<polygon fill="midnightblue" stroke="midnightblue" points="339.819,-444.224 349.296,-439.487 338.933,-437.28 339.819,-444.224"/>
</g>
<!-- Node31&#45;&gt;Node26 -->
<g id="edge37" class="edge"><title>Node31&#45;&gt;Node26</title>
<path fill="none" stroke="midnightblue" d="M290.335,-469.125C295.303,-471.891 299.971,-475.154 304,-479 333.973,-507.611 308.942,-537.572 340,-565 345.495,-569.853 352.135,-573.476 359.084,-576.178"/>
<polygon fill="midnightblue" stroke="midnightblue" points="358.081,-579.532 368.673,-579.321 360.261,-572.88 358.081,-579.532"/>
</g>
<!-- Node31&#45;&gt;Node27 -->
<g id="edge38" class="edge"><title>Node31&#45;&gt;Node27</title>
<path fill="none" stroke="midnightblue" d="M291.462,-469.059C296.086,-471.833 300.369,-475.116 304,-479 343.189,-520.922 299.217,-562.627 340,-603 344.975,-607.925 351.114,-611.598 357.651,-614.333"/>
<polygon fill="midnightblue" stroke="midnightblue" points="356.828,-617.751 367.423,-617.705 359.112,-611.134 356.828,-617.751"/>
</g>
<!-- Node31&#45;&gt;Node28 -->
<g id="edge39" class="edge"><title>Node31&#45;&gt;Node28</title>
<path fill="none" stroke="midnightblue" d="M286.955,-469.015C292.979,-471.844 298.816,-475.151 304,-479 325.411,-494.896 317.989,-511.946 340,-527 345.312,-530.633 351.305,-533.575 357.476,-535.957"/>
<polygon fill="midnightblue" stroke="midnightblue" points="356.654,-539.373 367.249,-539.257 358.894,-532.741 356.654,-539.373"/>
</g>
<!-- Node31&#45;&gt;Node29 -->
<g id="edge40" class="edge"><title>Node31&#45;&gt;Node29</title>
<path fill="none" stroke="midnightblue" d="M278.812,-469.054C297.556,-475.427 319.789,-482.796 340,-489 347.333,-491.251 355.144,-493.537 362.762,-495.706"/>
<polygon fill="midnightblue" stroke="midnightblue" points="362.033,-499.137 372.607,-498.477 363.93,-492.399 362.033,-499.137"/>
</g>
<!-- Node32 -->
<g id="node32" class="node"><title>Node32</title>
<g id="a_node32"><a xlink:href="$classAC__AttitudeControl.html#a9e10a37d28eeb3d6476ec087b3bac3df" xlink:title="AC_AttitudeControl\l::get_rate_pitch_pid">
<polygon fill="white" stroke="black" points="358,-236 358,-266 460,-266 460,-236 358,-236"/>
<text text-anchor="start" x="366" y="-254" font-family="Helvetica,sans-Serif" font-size="10.00">AC_AttitudeControl</text>
<text text-anchor="middle" x="409" y="-243" font-family="Helvetica,sans-Serif" font-size="10.00">::get_rate_pitch_pid</text>
</a>
</g>
</g>
<!-- Node31&#45;&gt;Node32 -->
<g id="edge33" class="edge"><title>Node31&#45;&gt;Node32</title>
<path fill="none" stroke="midnightblue" d="M243.623,-438.738C265.606,-397.639 325.578,-286.923 340,-275 342.736,-272.738 345.701,-270.682 348.81,-268.815"/>
<polygon fill="midnightblue" stroke="midnightblue" points="350.664,-271.794 357.882,-264.039 347.403,-265.6 350.664,-271.794"/>
</g>
<!-- Node34&#45;&gt;Node4 -->
<g id="edge53" class="edge"><title>Node34&#45;&gt;Node4</title>
<path fill="none" stroke="midnightblue" d="M243.692,-567.067C258.998,-593.775 294.543,-649.388 340,-679 345.797,-682.776 352.342,-685.811 359.025,-688.247"/>
<polygon fill="midnightblue" stroke="midnightblue" points="358.252,-691.675 368.843,-691.406 360.395,-685.011 358.252,-691.675"/>
</g>
<!-- Node34&#45;&gt;Node24 -->
<g id="edge47" class="edge"><title>Node34&#45;&gt;Node24</title>
<path fill="none" stroke="midnightblue" d="M287.309,-536.951C293.144,-534.361 298.839,-531.39 304,-528 323.716,-515.049 319.876,-501.308 340,-489 343.431,-486.901 347.1,-485.029 350.889,-483.358"/>
<polygon fill="midnightblue" stroke="midnightblue" points="352.447,-486.508 360.488,-479.61 349.9,-479.987 352.447,-486.508"/>
</g>
<!-- Node34&#45;&gt;Node25 -->
<g id="edge48" class="edge"><title>Node34&#45;&gt;Node25</title>
<path fill="none" stroke="midnightblue" d="M291.183,-536.983C295.807,-534.436 300.168,-531.465 304,-528 332.019,-502.66 311.178,-475.423 340,-451 342.005,-449.301 344.151,-447.754 346.4,-446.344"/>
<polygon fill="midnightblue" stroke="midnightblue" points="348.281,-449.309 355.508,-441.562 345.027,-443.112 348.281,-449.309"/>
</g>
<!-- Node34&#45;&gt;Node26 -->
<g id="edge49" class="edge"><title>Node34&#45;&gt;Node26</title>
<path fill="none" stroke="midnightblue" d="M302.687,-564.464C321.35,-567.926 341.266,-571.62 358.699,-574.854"/>
<polygon fill="midnightblue" stroke="midnightblue" points="358.177,-578.317 368.648,-576.7 359.454,-571.435 358.177,-578.317"/>
</g>
<!-- Node34&#45;&gt;Node27 -->
<g id="edge50" class="edge"><title>Node34&#45;&gt;Node27</title>
<path fill="none" stroke="midnightblue" d="M262.834,-567.043C283.571,-578.031 313.015,-592.743 340,-603 346.236,-605.37 352.893,-607.591 359.511,-609.62"/>
<polygon fill="midnightblue" stroke="midnightblue" points="358.545,-612.984 369.126,-612.448 360.52,-606.268 358.545,-612.984"/>
</g>
<!-- Node34&#45;&gt;Node28 -->
<g id="edge51" class="edge"><title>Node34&#45;&gt;Node28</title>
<path fill="none" stroke="midnightblue" d="M302.687,-549.663C320.784,-549.034 340.059,-548.363 357.106,-547.77"/>
<polygon fill="midnightblue" stroke="midnightblue" points="357.529,-551.258 367.401,-547.412 357.286,-544.262 357.529,-551.258"/>
</g>
<!-- Node34&#45;&gt;Node29 -->
<g id="edge52" class="edge"><title>Node34&#45;&gt;Node29</title>
<path fill="none" stroke="midnightblue" d="M294.382,-536.981C316.106,-531.44 340.414,-525.239 360.954,-520"/>
<polygon fill="midnightblue" stroke="midnightblue" points="361.882,-523.375 370.707,-517.512 360.152,-516.593 361.882,-523.375"/>
</g>
<!-- Node35 -->
<g id="node35" class="node"><title>Node35</title>
<g id="a_node35"><a xlink:href="$classAC__AttitudeControl.html#a9e430ac947e0924fdc83280a4ed552bf" xlink:title="AC_AttitudeControl\l::get_rate_yaw_pid">
<polygon fill="white" stroke="black" points="358.5,-373 358.5,-403 459.5,-403 459.5,-373 358.5,-373"/>
<text text-anchor="start" x="366.5" y="-391" font-family="Helvetica,sans-Serif" font-size="10.00">AC_AttitudeControl</text>
<text text-anchor="middle" x="409" y="-380" font-family="Helvetica,sans-Serif" font-size="10.00">::get_rate_yaw_pid</text>
</a>
</g>
</g>
<!-- Node34&#45;&gt;Node35 -->
<g id="edge44" class="edge"><title>Node34&#45;&gt;Node35</title>
<path fill="none" stroke="midnightblue" d="M292.679,-536.918C296.822,-534.392 300.671,-531.442 304,-528 341.229,-489.498 303.067,-451.786 340,-413 342.799,-410.061 345.972,-407.466 349.381,-405.174"/>
<polygon fill="midnightblue" stroke="midnightblue" points="351.329,-408.092 358.262,-400.081 347.846,-402.02 351.329,-408.092"/>
</g>
<!-- Node36 -->
<g id="node36" class="node"><title>Node36</title>
<g id="a_node36"><a xlink:href="$classAC__PID.html#ac267330f1299f011febcaaba47994af7" xlink:title="AC_PID::set_input_filter_all">
<polygon fill="white" stroke="black" points="340,-650.5 340,-669.5 478,-669.5 478,-650.5 340,-650.5"/>
<text text-anchor="middle" x="409" y="-657.5" font-family="Helvetica,sans-Serif" font-size="10.00">AC_PID::set_input_filter_all</text>
</a>
</g>
</g>
<!-- Node34&#45;&gt;Node36 -->
<g id="edge45" class="edge"><title>Node34&#45;&gt;Node36</title>
<path fill="none" stroke="midnightblue" d="M249.208,-567.209C267.869,-587.014 303.184,-621.411 340,-641 344.241,-643.256 348.776,-645.267 353.418,-647.054"/>
<polygon fill="midnightblue" stroke="midnightblue" points="352.436,-650.419 363.031,-650.417 354.748,-643.812 352.436,-650.419"/>
</g>
<!-- Node36&#45;&gt;Node22 -->
<g id="edge46" class="edge"><title>Node36&#45;&gt;Node22</title>
<path fill="none" stroke="midnightblue" d="M456.228,-650.398C463.762,-647.91 471.288,-644.819 478,-641 513.576,-620.755 546.113,-585.038 563.735,-563.639"/>
<polygon fill="midnightblue" stroke="midnightblue" points="566.593,-565.671 570.139,-555.688 561.141,-561.281 566.593,-565.671"/>
</g>
<!-- Node37&#45;&gt;Node20 -->
<g id="edge55" class="edge"><title>Node37&#45;&gt;Node20</title>
<path fill="none" stroke="midnightblue" d="M296.803,-300C313.483,-300 331.526,-300 348.126,-300"/>
<polygon fill="midnightblue" stroke="midnightblue" points="348.251,-303.5 358.251,-300 348.25,-296.5 348.251,-303.5"/>
</g>
<!-- Node37&#45;&gt;Node32 -->
<g id="edge59" class="edge"><title>Node37&#45;&gt;Node32</title>
<path fill="none" stroke="midnightblue" d="M288.663,-284.899C307.548,-279.534 328.927,-273.461 348.321,-267.952"/>
<polygon fill="midnightblue" stroke="midnightblue" points="349.295,-271.314 357.958,-265.215 347.383,-264.58 349.295,-271.314"/>
</g>
<!-- Node37&#45;&gt;Node35 -->
<g id="edge60" class="edge"><title>Node37&#45;&gt;Node35</title>
<path fill="none" stroke="midnightblue" d="M257.639,-315.047C278.332,-328.695 310.396,-348.794 340,-363 344.377,-365.1 348.979,-367.135 353.64,-369.077"/>
<polygon fill="midnightblue" stroke="midnightblue" points="352.65,-372.451 363.235,-372.924 355.255,-365.954 352.65,-372.451"/>
</g>
<!-- Node38 -->
<g id="node38" class="node"><title>Node38</title>
<g id="a_node38"><a xlink:href="$classAC__PID.html#aac49c9e75c7bea524fab440e27c6a0fa" xlink:title="AC_PID::get_pid_info">
<polygon fill="white" stroke="black" points="353,-148.5 353,-167.5 465,-167.5 465,-148.5 353,-148.5"/>
<text text-anchor="middle" x="409" y="-155.5" font-family="Helvetica,sans-Serif" font-size="10.00">AC_PID::get_pid_info</text>
</a>
</g>
</g>
<!-- Node37&#45;&gt;Node38 -->
<g id="edge56" class="edge"><title>Node37&#45;&gt;Node38</title>
<path fill="none" stroke="midnightblue" d="M290.849,-284.865C295.655,-282.104 300.147,-278.845 304,-275 336.845,-242.224 305.91,-208.48 340,-177 341.683,-175.446 343.482,-174.018 345.373,-172.705"/>
<polygon fill="midnightblue" stroke="midnightblue" points="347.232,-175.673 354.16,-167.658 343.746,-169.603 347.232,-175.673"/>
</g>
<!-- Node39 -->
<g id="node39" class="node"><title>Node39</title>
<g id="a_node39"><a xlink:href="$classAC__AttitudeControl.html#a9f960478035a8b88322dc90f32b60056" xlink:title="AC_AttitudeControl\l::control_monitor_filter_pid">
<polygon fill="white" stroke="black" points="343.5,-187 343.5,-217 474.5,-217 474.5,-187 343.5,-187"/>
<text text-anchor="start" x="351.5" y="-205" font-family="Helvetica,sans-Serif" font-size="10.00">AC_AttitudeControl</text>
<text text-anchor="middle" x="409" y="-194" font-family="Helvetica,sans-Serif" font-size="10.00">::control_monitor_filter_pid</text>
</a>
</g>
</g>
<!-- Node37&#45;&gt;Node39 -->
<g id="edge57" class="edge"><title>Node37&#45;&gt;Node39</title>
<path fill="none" stroke="midnightblue" d="M287.345,-284.867C293.238,-282.066 298.936,-278.798 304,-275 325.618,-258.785 318.296,-242.1 340,-226 341.879,-224.606 343.846,-223.288 345.878,-222.042"/>
<polygon fill="midnightblue" stroke="midnightblue" points="348.009,-224.868 355.135,-217.028 344.675,-218.713 348.009,-224.868"/>
</g>
<!-- Node40 -->
<g id="node40" class="node"><title>Node40</title>
<g id="a_node40"><a xlink:href="$AP__Math_8h.html#a0375e3d67fd3911cacee5c3e1408c0f2" xlink:title="sq">
<polygon fill="white" stroke="black" points="564,-192.5 564,-211.5 593,-211.5 593,-192.5 564,-192.5"/>
<text text-anchor="middle" x="578.5" y="-199.5" font-family="Helvetica,sans-Serif" font-size="10.00">sq</text>
</a>
</g>
</g>
<!-- Node39&#45;&gt;Node40 -->
<g id="edge58" class="edge"><title>Node39&#45;&gt;Node40</title>
<path fill="none" stroke="midnightblue" d="M474.76,-202C502.54,-202 533.263,-202 553.81,-202"/>
<polygon fill="midnightblue" stroke="midnightblue" points="553.826,-205.5 563.826,-202 553.826,-198.5 553.826,-205.5"/>
</g>
</g>
</svg>
