<?xml version="1.0" encoding="UTF-8" standalone="no"?>
<!DOCTYPE svg PUBLIC "-//W3C//DTD SVG 1.1//EN"
 "http://www.w3.org/Graphics/SVG/1.1/DTD/svg11.dtd">
<!-- Generated by graphviz version 2.38.0 (20140413.2041)
 -->
<!-- Title: AC_AttitudeControl::shift_ef_yaw_target Pages: 1 -->
<svg width="523pt" height="91pt"
 viewBox="0.00 0.00 523.00 91.00" xmlns="http://www.w3.org/2000/svg" xmlns:xlink="http://www.w3.org/1999/xlink">
<g id="graph0" class="graph" transform="scale(1 1) rotate(0) translate(4 87)">
<title>AC_AttitudeControl::shift_ef_yaw_target</title>
<polygon fill="white" stroke="none" points="-4,4 -4,-87 519,-87 519,4 -4,4"/>
<!-- Node1 -->
<g id="node1" class="node"><title>Node1</title>
<polygon fill="#bfbfbf" stroke="black" points="0,-36 0,-66 108,-66 108,-36 0,-36"/>
<text text-anchor="start" x="8" y="-54" font-family="Helvetica,sans-Serif" font-size="10.00">AC_AttitudeControl</text>
<text text-anchor="middle" x="54" y="-43" font-family="Helvetica,sans-Serif" font-size="10.00">::shift_ef_yaw_target</text>
</g>
<!-- Node2 -->
<g id="node2" class="node"><title>Node2</title>
<g id="a_node2"><a xlink:href="$AP__Math_8h.html#a75b14352ec1c95a8276af9a0813cfdc3" xlink:title="radians">
<polygon fill="white" stroke="black" points="176.5,-63.5 176.5,-82.5 224.5,-82.5 224.5,-63.5 176.5,-63.5"/>
<text text-anchor="middle" x="200.5" y="-70.5" font-family="Helvetica,sans-Serif" font-size="10.00">radians</text>
</a>
</g>
</g>
<!-- Node1&#45;&gt;Node2 -->
<g id="edge1" class="edge"><title>Node1&#45;&gt;Node2</title>
<path fill="none" stroke="midnightblue" d="M108.396,-59.1295C127.837,-62.0893 149.236,-65.3473 166.407,-67.9615"/>
<polygon fill="midnightblue" stroke="midnightblue" points="166.083,-71.4526 176.496,-69.4977 167.137,-64.5323 166.083,-71.4526"/>
</g>
<!-- Node3 -->
<g id="node3" class="node"><title>Node3</title>
<g id="a_node3"><a xlink:href="$classQuaternion.html#a6c21fe33378aa16a33cba869ba4af5dc" xlink:title="Quaternion::from_axis\l_angle">
<polygon fill="white" stroke="black" points="144,-14 144,-44 257,-44 257,-14 144,-14"/>
<text text-anchor="start" x="152" y="-32" font-family="Helvetica,sans-Serif" font-size="10.00">Quaternion::from_axis</text>
<text text-anchor="middle" x="200.5" y="-21" font-family="Helvetica,sans-Serif" font-size="10.00">_angle</text>
</a>
</g>
</g>
<!-- Node1&#45;&gt;Node3 -->
<g id="edge2" class="edge"><title>Node1&#45;&gt;Node3</title>
<path fill="none" stroke="midnightblue" d="M108.396,-42.8705C116.717,-41.6037 125.397,-40.2822 133.95,-38.9799"/>
<polygon fill="midnightblue" stroke="midnightblue" points="134.545,-42.4298 143.904,-37.4645 133.491,-35.5096 134.545,-42.4298"/>
</g>
<!-- Node4 -->
<g id="node4" class="node"><title>Node4</title>
<g id="a_node4"><a xlink:href="$classVector3.html#ac1fd5514e368a1e1c2d13f71eda18345" xlink:title="Vector3::length">
<polygon fill="white" stroke="black" points="293,-38.5 293,-57.5 376,-57.5 376,-38.5 293,-38.5"/>
<text text-anchor="middle" x="334.5" y="-45.5" font-family="Helvetica,sans-Serif" font-size="10.00">Vector3::length</text>
</a>
</g>
</g>
<!-- Node3&#45;&gt;Node4 -->
<g id="edge3" class="edge"><title>Node3&#45;&gt;Node4</title>
<path fill="none" stroke="midnightblue" d="M257.097,-37.0026C265.613,-38.2284 274.365,-39.4882 282.769,-40.6978"/>
<polygon fill="midnightblue" stroke="midnightblue" points="282.409,-44.182 292.806,-42.1425 283.407,-37.2534 282.409,-44.182"/>
</g>
<!-- Node7 -->
<g id="node7" class="node"><title>Node7</title>
<g id="a_node7"><a xlink:href="$AP__Math_8h.html#a2a12cce483e9b870da70d30406d82c60" xlink:title="is_zero">
<polygon fill="white" stroke="black" points="310.5,-0.5 310.5,-19.5 358.5,-19.5 358.5,-0.5 310.5,-0.5"/>
<text text-anchor="middle" x="334.5" y="-7.5" font-family="Helvetica,sans-Serif" font-size="10.00">is_zero</text>
</a>
</g>
</g>
<!-- Node3&#45;&gt;Node7 -->
<g id="edge6" class="edge"><title>Node3&#45;&gt;Node7</title>
<path fill="none" stroke="midnightblue" d="M257.097,-20.9974C271.775,-18.8847 287.156,-16.6707 300.239,-14.7876"/>
<polygon fill="midnightblue" stroke="midnightblue" points="300.782,-18.2456 310.181,-13.3565 299.785,-11.317 300.782,-18.2456"/>
</g>
<!-- Node5 -->
<g id="node5" class="node"><title>Node5</title>
<g id="a_node5"><a xlink:href="$AP__Math_8h.html#adc76d4a5e5c9ae8cb7ab17b55c40d636" xlink:title="norm">
<polygon fill="white" stroke="black" points="412,-38.5 412,-57.5 450,-57.5 450,-38.5 412,-38.5"/>
<text text-anchor="middle" x="431" y="-45.5" font-family="Helvetica,sans-Serif" font-size="10.00">norm</text>
</a>
</g>
</g>
<!-- Node4&#45;&gt;Node5 -->
<g id="edge4" class="edge"><title>Node4&#45;&gt;Node5</title>
<path fill="none" stroke="midnightblue" d="M376.125,-48C384.654,-48 393.477,-48 401.453,-48"/>
<polygon fill="midnightblue" stroke="midnightblue" points="401.695,-51.5001 411.695,-48 401.695,-44.5001 401.695,-51.5001"/>
</g>
<!-- Node6 -->
<g id="node6" class="node"><title>Node6</title>
<g id="a_node6"><a xlink:href="$AP__Math_8h.html#a0375e3d67fd3911cacee5c3e1408c0f2" xlink:title="sq">
<polygon fill="white" stroke="black" points="486,-38.5 486,-57.5 515,-57.5 515,-38.5 486,-38.5"/>
<text text-anchor="middle" x="500.5" y="-45.5" font-family="Helvetica,sans-Serif" font-size="10.00">sq</text>
</a>
</g>
</g>
<!-- Node5&#45;&gt;Node6 -->
<g id="edge5" class="edge"><title>Node5&#45;&gt;Node6</title>
<path fill="none" stroke="midnightblue" d="M450.089,-48C457.997,-48 467.379,-48 475.831,-48"/>
<polygon fill="midnightblue" stroke="midnightblue" points="475.861,-51.5001 485.861,-48 475.861,-44.5001 475.861,-51.5001"/>
</g>
</g>
</svg>
