<?xml version="1.0" encoding="UTF-8" standalone="no"?>
<!DOCTYPE svg PUBLIC "-//W3C//DTD SVG 1.1//EN"
 "http://www.w3.org/Graphics/SVG/1.1/DTD/svg11.dtd">
<!-- Generated by graphviz version 2.38.0 (20140413.2041)
 -->
<!-- Title: AC_AttitudeControl::max_angle_step_bf_pitch Pages: 1 -->
<svg width="545pt" height="204pt"
 viewBox="0.00 0.00 545.00 203.50" xmlns="http://www.w3.org/2000/svg" xmlns:xlink="http://www.w3.org/1999/xlink">
<g id="graph0" class="graph" transform="scale(1 1) rotate(0) translate(4 199.5)">
<title>AC_AttitudeControl::max_angle_step_bf_pitch</title>
<polygon fill="white" stroke="none" points="-4,4 -4,-199.5 541,-199.5 541,4 -4,4"/>
<!-- Node1 -->
<g id="node1" class="node"><title>Node1</title>
<polygon fill="#bfbfbf" stroke="black" points="0,-55 0,-85 134,-85 134,-55 0,-55"/>
<text text-anchor="start" x="8" y="-73" font-family="Helvetica,sans-Serif" font-size="10.00">AC_AttitudeControl</text>
<text text-anchor="middle" x="67" y="-62" font-family="Helvetica,sans-Serif" font-size="10.00">::max_angle_step_bf_pitch</text>
</g>
<!-- Node2 -->
<g id="node2" class="node"><title>Node2</title>
<g id="a_node2"><a xlink:href="$classAC__AttitudeControl.html#a874d7c2f98a3ad251d9f91cc936694e2" xlink:title="AC_AttitudeControl\l::max_rate_step_bf_pitch">
<polygon fill="white" stroke="black" points="170,-77 170,-107 297,-107 297,-77 170,-77"/>
<text text-anchor="start" x="178" y="-95" font-family="Helvetica,sans-Serif" font-size="10.00">AC_AttitudeControl</text>
<text text-anchor="middle" x="233.5" y="-84" font-family="Helvetica,sans-Serif" font-size="10.00">::max_rate_step_bf_pitch</text>
</a>
</g>
</g>
<!-- Node1&#45;&gt;Node2 -->
<g id="edge1" class="edge"><title>Node1&#45;&gt;Node2</title>
<path fill="none" stroke="midnightblue" d="M134.434,-78.8848C142.739,-79.9955 151.267,-81.136 159.663,-82.2588"/>
<polygon fill="midnightblue" stroke="midnightblue" points="159.438,-85.7599 169.814,-83.6164 160.366,-78.8216 159.438,-85.7599"/>
</g>
<!-- Node9 -->
<g id="node9" class="node"><title>Node9</title>
<g id="a_node9"><a xlink:href="$classAC__P.html#a723b372dfceb74ddb2edbe11544e9d5a" xlink:title="AC_P::kP">
<polygon fill="white" stroke="black" points="203,-38.5 203,-57.5 264,-57.5 264,-38.5 203,-38.5"/>
<text text-anchor="middle" x="233.5" y="-45.5" font-family="Helvetica,sans-Serif" font-size="10.00">AC_P::kP</text>
</a>
</g>
</g>
<!-- Node1&#45;&gt;Node9 -->
<g id="edge8" class="edge"><title>Node1&#45;&gt;Node9</title>
<path fill="none" stroke="midnightblue" d="M134.434,-61.1152C154.077,-58.4882 174.97,-55.694 192.401,-53.3628"/>
<polygon fill="midnightblue" stroke="midnightblue" points="193.318,-56.7714 202.765,-51.9767 192.39,-49.8332 193.318,-56.7714"/>
</g>
<!-- Node3 -->
<g id="node3" class="node"><title>Node3</title>
<g id="a_node3"><a xlink:href="$classAC__AttitudeControl.html#a9e10a37d28eeb3d6476ec087b3bac3df" xlink:title="AC_AttitudeControl\l::get_rate_pitch_pid">
<polygon fill="white" stroke="black" points="342,-165 342,-195 444,-195 444,-165 342,-165"/>
<text text-anchor="start" x="350" y="-183" font-family="Helvetica,sans-Serif" font-size="10.00">AC_AttitudeControl</text>
<text text-anchor="middle" x="393" y="-172" font-family="Helvetica,sans-Serif" font-size="10.00">::get_rate_pitch_pid</text>
</a>
</g>
</g>
<!-- Node2&#45;&gt;Node3 -->
<g id="edge2" class="edge"><title>Node2&#45;&gt;Node3</title>
<path fill="none" stroke="midnightblue" d="M255.779,-107.095C275.316,-120.59 305.343,-140.428 333,-155 336.709,-156.954 340.605,-158.875 344.552,-160.73"/>
<polygon fill="midnightblue" stroke="midnightblue" points="343.239,-163.977 353.791,-164.922 346.131,-157.603 343.239,-163.977"/>
</g>
<!-- Node4 -->
<g id="node4" class="node"><title>Node4</title>
<g id="a_node4"><a xlink:href="$classAC__PID.html#ac12ffbd4fd053c6152d403b69e07b8e1" xlink:title="AC_PID::get_filt_alpha">
<polygon fill="white" stroke="black" points="334.5,-126.5 334.5,-145.5 451.5,-145.5 451.5,-126.5 334.5,-126.5"/>
<text text-anchor="middle" x="393" y="-133.5" font-family="Helvetica,sans-Serif" font-size="10.00">AC_PID::get_filt_alpha</text>
</a>
</g>
</g>
<!-- Node2&#45;&gt;Node4 -->
<g id="edge3" class="edge"><title>Node2&#45;&gt;Node4</title>
<path fill="none" stroke="midnightblue" d="M288.262,-107.019C307.751,-112.464 329.518,-118.545 348.061,-123.725"/>
<polygon fill="midnightblue" stroke="midnightblue" points="347.141,-127.102 357.714,-126.422 349.025,-120.36 347.141,-127.102"/>
</g>
<!-- Node6 -->
<g id="node6" class="node"><title>Node6</title>
<g id="a_node6"><a xlink:href="$classAP__Motors.html#a6641c5398dea1388547dff3db5d95a86" xlink:title="AP_Motors::get_throttle\l_hover">
<polygon fill="white" stroke="black" points="333,-77 333,-107 453,-107 453,-77 333,-77"/>
<text text-anchor="start" x="341" y="-95" font-family="Helvetica,sans-Serif" font-size="10.00">AP_Motors::get_throttle</text>
<text text-anchor="middle" x="393" y="-84" font-family="Helvetica,sans-Serif" font-size="10.00">_hover</text>
</a>
</g>
</g>
<!-- Node2&#45;&gt;Node6 -->
<g id="edge5" class="edge"><title>Node2&#45;&gt;Node6</title>
<path fill="none" stroke="midnightblue" d="M297.201,-92C305.556,-92 314.163,-92 322.624,-92"/>
<polygon fill="midnightblue" stroke="midnightblue" points="322.844,-95.5001 332.844,-92 322.844,-88.5001 322.844,-95.5001"/>
</g>
<!-- Node7 -->
<g id="node7" class="node"><title>Node7</title>
<g id="a_node7"><a xlink:href="$classAC__PID.html#a2d7be199fbc437ee472fad5a4308c668" xlink:title="AC_PID::kD">
<polygon fill="white" stroke="black" points="357,-38.5 357,-57.5 429,-57.5 429,-38.5 357,-38.5"/>
<text text-anchor="middle" x="393" y="-45.5" font-family="Helvetica,sans-Serif" font-size="10.00">AC_PID::kD</text>
</a>
</g>
</g>
<!-- Node2&#45;&gt;Node7 -->
<g id="edge6" class="edge"><title>Node2&#45;&gt;Node7</title>
<path fill="none" stroke="midnightblue" d="M288.262,-76.9808C307.751,-71.5362 329.518,-65.4554 348.061,-60.2751"/>
<polygon fill="midnightblue" stroke="midnightblue" points="349.025,-63.6399 357.714,-57.5783 347.141,-56.8981 349.025,-63.6399"/>
</g>
<!-- Node8 -->
<g id="node8" class="node"><title>Node8</title>
<g id="a_node8"><a xlink:href="$classAC__PID.html#ac29a8c72a8618d87886599204dcb5b79" xlink:title="AC_PID::kP">
<polygon fill="white" stroke="black" points="357.5,-0.5 357.5,-19.5 428.5,-19.5 428.5,-0.5 357.5,-0.5"/>
<text text-anchor="middle" x="393" y="-7.5" font-family="Helvetica,sans-Serif" font-size="10.00">AC_PID::kP</text>
</a>
</g>
</g>
<!-- Node2&#45;&gt;Node8 -->
<g id="edge7" class="edge"><title>Node2&#45;&gt;Node8</title>
<path fill="none" stroke="midnightblue" d="M279.094,-76.9494C285.333,-74.0567 291.489,-70.7418 297,-67 316.247,-53.9319 313.314,-41.3968 333,-29 337.61,-26.0971 342.704,-23.5992 347.91,-21.4598"/>
<polygon fill="midnightblue" stroke="midnightblue" points="349.153,-24.732 357.322,-17.9858 346.729,-18.165 349.153,-24.732"/>
</g>
<!-- Node5 -->
<g id="node5" class="node"><title>Node5</title>
<g id="a_node5"><a xlink:href="$AP__Math_8h.html#a2a12cce483e9b870da70d30406d82c60" xlink:title="is_zero">
<polygon fill="white" stroke="black" points="489,-126.5 489,-145.5 537,-145.5 537,-126.5 489,-126.5"/>
<text text-anchor="middle" x="513" y="-133.5" font-family="Helvetica,sans-Serif" font-size="10.00">is_zero</text>
</a>
</g>
</g>
<!-- Node4&#45;&gt;Node5 -->
<g id="edge4" class="edge"><title>Node4&#45;&gt;Node5</title>
<path fill="none" stroke="midnightblue" d="M451.617,-136C460.914,-136 470.256,-136 478.72,-136"/>
<polygon fill="midnightblue" stroke="midnightblue" points="478.903,-139.5 488.902,-136 478.902,-132.5 478.903,-139.5"/>
</g>
</g>
</svg>
