<?xml version="1.0" encoding="UTF-8" standalone="no"?>
<!DOCTYPE svg PUBLIC "-//W3C//DTD SVG 1.1//EN"
 "http://www.w3.org/Graphics/SVG/1.1/DTD/svg11.dtd">
<!-- Generated by graphviz version 2.38.0 (20140413.2041)
 -->
<!-- Title: AC_AttitudeControl_Sub::set_throttle_out Pages: 1 -->
<svg width="745pt" height="340pt"
 viewBox="0.00 0.00 745.00 339.50" xmlns="http://www.w3.org/2000/svg" xmlns:xlink="http://www.w3.org/1999/xlink">
<g id="graph0" class="graph" transform="scale(1 1) rotate(0) translate(4 335.5)">
<title>AC_AttitudeControl_Sub::set_throttle_out</title>
<polygon fill="white" stroke="none" points="-4,4 -4,-335.5 741,-335.5 741,4 -4,4"/>
<!-- Node1 -->
<g id="node1" class="node"><title>Node1</title>
<polygon fill="#bfbfbf" stroke="black" points="0,-127 0,-157 113,-157 113,-127 0,-127"/>
<text text-anchor="start" x="8" y="-145" font-family="Helvetica,sans-Serif" font-size="10.00">AC_AttitudeControl</text>
<text text-anchor="middle" x="56.5" y="-134" font-family="Helvetica,sans-Serif" font-size="10.00">_Sub::set_throttle_out</text>
</g>
<!-- Node2 -->
<g id="node2" class="node"><title>Node2</title>
<g id="a_node2"><a xlink:href="$classAC__AttitudeControl__Sub.html#a5b05f03714d372c1b7a7cf1710fcc7f8" xlink:title="AC_AttitudeControl\l_Sub::update_althold\l_lean_angle_max">
<polygon fill="white" stroke="black" points="164.5,-273.5 164.5,-314.5 272.5,-314.5 272.5,-273.5 164.5,-273.5"/>
<text text-anchor="start" x="172.5" y="-302.5" font-family="Helvetica,sans-Serif" font-size="10.00">AC_AttitudeControl</text>
<text text-anchor="start" x="172.5" y="-291.5" font-family="Helvetica,sans-Serif" font-size="10.00">_Sub::update_althold</text>
<text text-anchor="middle" x="218.5" y="-280.5" font-family="Helvetica,sans-Serif" font-size="10.00">_lean_angle_max</text>
</a>
</g>
</g>
<!-- Node1&#45;&gt;Node2 -->
<g id="edge1" class="edge"><title>Node1&#45;&gt;Node2</title>
<path fill="none" stroke="midnightblue" d="M65.4011,-157.11C79.2585,-182.328 110.195,-233.254 149,-264 151.048,-265.623 153.197,-267.175 155.419,-268.66"/>
<polygon fill="midnightblue" stroke="midnightblue" points="153.925,-271.847 164.29,-274.045 157.558,-265.864 153.925,-271.847"/>
</g>
<!-- Node11 -->
<g id="node11" class="node"><title>Node11</title>
<g id="a_node11"><a xlink:href="$classAP__Motors.html#a663672b4ada40c46d343e3f62b51b820" xlink:title="AP_Motors::set_throttle\l_filter_cutoff">
<polygon fill="white" stroke="black" points="158.5,-39 158.5,-69 278.5,-69 278.5,-39 158.5,-39"/>
<text text-anchor="start" x="166.5" y="-57" font-family="Helvetica,sans-Serif" font-size="10.00">AP_Motors::set_throttle</text>
<text text-anchor="middle" x="218.5" y="-46" font-family="Helvetica,sans-Serif" font-size="10.00">_filter_cutoff</text>
</a>
</g>
</g>
<!-- Node1&#45;&gt;Node11 -->
<g id="edge10" class="edge"><title>Node1&#45;&gt;Node11</title>
<path fill="none" stroke="midnightblue" d="M79.1255,-126.97C97.3213,-114.65 124.259,-97.161 149,-84 156.012,-80.2702 163.584,-76.61 171.048,-73.199"/>
<polygon fill="midnightblue" stroke="midnightblue" points="172.69,-76.2986 180.394,-69.0253 169.836,-69.9069 172.69,-76.2986"/>
</g>
<!-- Node13 -->
<g id="node13" class="node"><title>Node13</title>
<g id="a_node13"><a xlink:href="$classAC__AttitudeControl__Sub.html#ad9b99aeb009385e1ba2bd6329befd42c" xlink:title="AC_AttitudeControl\l_Sub::get_throttle_boosted">
<polygon fill="white" stroke="black" points="151.5,-225 151.5,-255 285.5,-255 285.5,-225 151.5,-225"/>
<text text-anchor="start" x="159.5" y="-243" font-family="Helvetica,sans-Serif" font-size="10.00">AC_AttitudeControl</text>
<text text-anchor="middle" x="218.5" y="-232" font-family="Helvetica,sans-Serif" font-size="10.00">_Sub::get_throttle_boosted</text>
</a>
</g>
</g>
<!-- Node1&#45;&gt;Node13 -->
<g id="edge12" class="edge"><title>Node1&#45;&gt;Node13</title>
<path fill="none" stroke="midnightblue" d="M73.1992,-157.185C90.5622,-173.312 119.941,-198.682 149,-215 152.663,-217.057 156.528,-219.001 160.48,-220.827"/>
<polygon fill="midnightblue" stroke="midnightblue" points="159.241,-224.104 169.808,-224.869 162.024,-217.681 159.241,-224.104"/>
</g>
<!-- Node14 -->
<g id="node14" class="node"><title>Node14</title>
<g id="a_node14"><a xlink:href="$classAP__Motors.html#a56d079ad89f5a4d2cacf014c8958a527" xlink:title="AP_Motors::set_throttle">
<polygon fill="white" stroke="black" points="158.5,-0.5 158.5,-19.5 278.5,-19.5 278.5,-0.5 158.5,-0.5"/>
<text text-anchor="middle" x="218.5" y="-7.5" font-family="Helvetica,sans-Serif" font-size="10.00">AP_Motors::set_throttle</text>
</a>
</g>
</g>
<!-- Node1&#45;&gt;Node14 -->
<g id="edge14" class="edge"><title>Node1&#45;&gt;Node14</title>
<path fill="none" stroke="midnightblue" d="M65.6985,-126.655C79.5533,-102.216 109.947,-54.6066 149,-29 152.125,-26.9508 155.47,-25.1206 158.937,-23.4862"/>
<polygon fill="midnightblue" stroke="midnightblue" points="160.434,-26.6548 168.34,-19.6013 157.761,-20.1853 160.434,-26.6548"/>
</g>
<!-- Node15 -->
<g id="node15" class="node"><title>Node15</title>
<g id="a_node15"><a xlink:href="$classAP__Motors.html#a8f1c08d3e3ec39c1ce43a30f8045770c" xlink:title="AP_Motors::set_throttle\l_avg_max">
<polygon fill="white" stroke="black" points="158.5,-176 158.5,-206 278.5,-206 278.5,-176 158.5,-176"/>
<text text-anchor="start" x="166.5" y="-194" font-family="Helvetica,sans-Serif" font-size="10.00">AP_Motors::set_throttle</text>
<text text-anchor="middle" x="218.5" y="-183" font-family="Helvetica,sans-Serif" font-size="10.00">_avg_max</text>
</a>
</g>
</g>
<!-- Node1&#45;&gt;Node15 -->
<g id="edge15" class="edge"><title>Node1&#45;&gt;Node15</title>
<path fill="none" stroke="midnightblue" d="M106.811,-157.101C123.16,-162.108 141.524,-167.732 158.525,-172.939"/>
<polygon fill="midnightblue" stroke="midnightblue" points="157.765,-176.367 168.352,-175.948 159.815,-169.674 157.765,-176.367"/>
</g>
<!-- Node16 -->
<g id="node16" class="node"><title>Node16</title>
<g id="a_node16"><a xlink:href="$classAC__AttitudeControl__Sub.html#a355a53fe627b8f51805b839911350a11" xlink:title="AC_AttitudeControl\l_Sub::get_throttle_avg_max">
<polygon fill="white" stroke="black" points="149,-127 149,-157 288,-157 288,-127 149,-127"/>
<text text-anchor="start" x="157" y="-145" font-family="Helvetica,sans-Serif" font-size="10.00">AC_AttitudeControl</text>
<text text-anchor="middle" x="218.5" y="-134" font-family="Helvetica,sans-Serif" font-size="10.00">_Sub::get_throttle_avg_max</text>
</a>
</g>
</g>
<!-- Node1&#45;&gt;Node16 -->
<g id="edge17" class="edge"><title>Node1&#45;&gt;Node16</title>
<path fill="none" stroke="midnightblue" d="M113.011,-142C121.315,-142 130.008,-142 138.683,-142"/>
<polygon fill="midnightblue" stroke="midnightblue" points="138.833,-145.5 148.833,-142 138.833,-138.5 138.833,-145.5"/>
</g>
<!-- Node17 -->
<g id="node17" class="node"><title>Node17</title>
<g id="a_node17"><a xlink:href="$AP__Math_8h.html#a5c0b5c82749ac54970b2699d3c10ee9b" xlink:title="MAX">
<polygon fill="white" stroke="black" points="367.5,-88.5 367.5,-107.5 405.5,-107.5 405.5,-88.5 367.5,-88.5"/>
<text text-anchor="middle" x="386.5" y="-95.5" font-family="Helvetica,sans-Serif" font-size="10.00">MAX</text>
</a>
</g>
</g>
<!-- Node1&#45;&gt;Node17 -->
<g id="edge21" class="edge"><title>Node1&#45;&gt;Node17</title>
<path fill="none" stroke="midnightblue" d="M106.029,-126.932C119.8,-123.152 134.888,-119.472 149,-117 223.403,-103.965 312.566,-99.855 357.165,-98.5725"/>
<polygon fill="midnightblue" stroke="midnightblue" points="357.35,-102.069 367.255,-98.3095 357.167,-95.0713 357.35,-102.069"/>
</g>
<!-- Node3 -->
<g id="node3" class="node"><title>Node3</title>
<g id="a_node3"><a xlink:href="$classAP__MotorsMulticopter.html#ade105370d07830c76c62cc26d6f7cbaf" xlink:title="AP_MotorsMulticopter\l::get_throttle_thrust_max">
<polygon fill="white" stroke="black" points="324,-301 324,-331 449,-331 449,-301 324,-301"/>
<text text-anchor="start" x="332" y="-319" font-family="Helvetica,sans-Serif" font-size="10.00">AP_MotorsMulticopter</text>
<text text-anchor="middle" x="386.5" y="-308" font-family="Helvetica,sans-Serif" font-size="10.00">::get_throttle_thrust_max</text>
</a>
</g>
</g>
<!-- Node2&#45;&gt;Node3 -->
<g id="edge2" class="edge"><title>Node2&#45;&gt;Node3</title>
<path fill="none" stroke="midnightblue" d="M272.937,-301.082C285.852,-302.794 299.866,-304.651 313.479,-306.455"/>
<polygon fill="midnightblue" stroke="midnightblue" points="313.412,-309.977 323.785,-307.821 314.332,-303.037 313.412,-309.977"/>
</g>
<!-- Node4 -->
<g id="node4" class="node"><title>Node4</title>
<g id="a_node4"><a xlink:href="$AP__Math_8h.html#a2a12cce483e9b870da70d30406d82c60" xlink:title="is_zero">
<polygon fill="white" stroke="black" points="362.5,-262.5 362.5,-281.5 410.5,-281.5 410.5,-262.5 362.5,-262.5"/>
<text text-anchor="middle" x="386.5" y="-269.5" font-family="Helvetica,sans-Serif" font-size="10.00">is_zero</text>
</a>
</g>
</g>
<!-- Node2&#45;&gt;Node4 -->
<g id="edge3" class="edge"><title>Node2&#45;&gt;Node4</title>
<path fill="none" stroke="midnightblue" d="M272.937,-286.918C298.956,-283.47 329.434,-279.43 352.109,-276.425"/>
<polygon fill="midnightblue" stroke="midnightblue" points="352.793,-279.865 362.246,-275.082 351.873,-272.926 352.793,-279.865"/>
</g>
<!-- Node5 -->
<g id="node5" class="node"><title>Node5</title>
<g id="a_node5"><a xlink:href="$AP__Math_8h.html#ad525609d9dba6ffa556a0fbf08a3f9b4" xlink:title="constrain_float">
<polygon fill="white" stroke="black" points="346.5,-202.5 346.5,-221.5 426.5,-221.5 426.5,-202.5 346.5,-202.5"/>
<text text-anchor="middle" x="386.5" y="-209.5" font-family="Helvetica,sans-Serif" font-size="10.00">constrain_float</text>
</a>
</g>
</g>
<!-- Node2&#45;&gt;Node5 -->
<g id="edge4" class="edge"><title>Node2&#45;&gt;Node5</title>
<path fill="none" stroke="midnightblue" d="M267.621,-273.486C274.5,-270.391 281.458,-267.171 288,-264 312.626,-252.062 340.083,-237.282 359.569,-226.534"/>
<polygon fill="midnightblue" stroke="midnightblue" points="361.398,-229.521 368.447,-221.611 358.004,-223.399 361.398,-229.521"/>
</g>
<!-- Node6 -->
<g id="node6" class="node"><title>Node6</title>
<g id="a_node6"><a xlink:href="$AP__Math_8h.html#a20e8f8671c282c69c1954652b6d61585" xlink:title="constrain_value">
<polygon fill="white" stroke="black" points="485,-202.5 485,-221.5 570,-221.5 570,-202.5 485,-202.5"/>
<text text-anchor="middle" x="527.5" y="-209.5" font-family="Helvetica,sans-Serif" font-size="10.00">constrain_value</text>
</a>
</g>
</g>
<!-- Node5&#45;&gt;Node6 -->
<g id="edge5" class="edge"><title>Node5&#45;&gt;Node6</title>
<path fill="none" stroke="midnightblue" d="M426.589,-212C441.476,-212 458.681,-212 474.574,-212"/>
<polygon fill="midnightblue" stroke="midnightblue" points="474.791,-215.5 484.791,-212 474.791,-208.5 474.791,-215.5"/>
</g>
<!-- Node7 -->
<g id="node7" class="node"><title>Node7</title>
<g id="a_node7"><a xlink:href="$AP__Math_8cpp.html#a37e8e901754cb9c8e53a8e3030c82c50" xlink:title="constrain_value\&lt; int \&gt;">
<polygon fill="white" stroke="black" points="615,-259.5 615,-278.5 728,-278.5 728,-259.5 615,-259.5"/>
<text text-anchor="middle" x="671.5" y="-266.5" font-family="Helvetica,sans-Serif" font-size="10.00">constrain_value&lt; int &gt;</text>
</a>
</g>
</g>
<!-- Node6&#45;&gt;Node7 -->
<g id="edge6" class="edge"><title>Node6&#45;&gt;Node7</title>
<path fill="none" stroke="midnightblue" d="M545.97,-221.628C561.432,-229.891 584.774,-241.738 606,-250 611.854,-252.278 618.097,-254.439 624.307,-256.429"/>
<polygon fill="midnightblue" stroke="midnightblue" points="623.389,-259.809 633.977,-259.411 625.452,-253.12 623.389,-259.809"/>
</g>
<!-- Node8 -->
<g id="node8" class="node"><title>Node8</title>
<g id="a_node8"><a xlink:href="$AP__Math_8cpp.html#afdbe107ec1987d318a6347816fbf2b89" xlink:title="constrain_value\&lt; short \&gt;">
<polygon fill="white" stroke="black" points="609,-221.5 609,-240.5 734,-240.5 734,-221.5 609,-221.5"/>
<text text-anchor="middle" x="671.5" y="-228.5" font-family="Helvetica,sans-Serif" font-size="10.00">constrain_value&lt; short &gt;</text>
</a>
</g>
</g>
<!-- Node6&#45;&gt;Node8 -->
<g id="edge7" class="edge"><title>Node6&#45;&gt;Node8</title>
<path fill="none" stroke="midnightblue" d="M570.337,-217.598C579.323,-218.8 589.064,-220.104 598.821,-221.409"/>
<polygon fill="midnightblue" stroke="midnightblue" points="598.589,-224.909 608.965,-222.766 599.518,-217.971 598.589,-224.909"/>
</g>
<!-- Node9 -->
<g id="node9" class="node"><title>Node9</title>
<g id="a_node9"><a xlink:href="$AP__Math_8cpp.html#ae6c621670c214da687de21d4e3a92587" xlink:title="constrain_value\&lt; float \&gt;">
<polygon fill="white" stroke="black" points="610.5,-183.5 610.5,-202.5 732.5,-202.5 732.5,-183.5 610.5,-183.5"/>
<text text-anchor="middle" x="671.5" y="-190.5" font-family="Helvetica,sans-Serif" font-size="10.00">constrain_value&lt; float &gt;</text>
</a>
</g>
</g>
<!-- Node6&#45;&gt;Node9 -->
<g id="edge8" class="edge"><title>Node6&#45;&gt;Node9</title>
<path fill="none" stroke="midnightblue" d="M570.337,-206.402C579.724,-205.146 589.935,-203.78 600.129,-202.416"/>
<polygon fill="midnightblue" stroke="midnightblue" points="600.838,-205.852 610.286,-201.057 599.91,-198.914 600.838,-205.852"/>
</g>
<!-- Node10 -->
<g id="node10" class="node"><title>Node10</title>
<g id="a_node10"><a xlink:href="$AP__Math_8cpp.html#afe3990b00e9abc43fa97dfaf8e32f5c4" xlink:title="constrain_value\&lt; double \&gt;">
<polygon fill="white" stroke="black" points="606,-145.5 606,-164.5 737,-164.5 737,-145.5 606,-145.5"/>
<text text-anchor="middle" x="671.5" y="-152.5" font-family="Helvetica,sans-Serif" font-size="10.00">constrain_value&lt; double &gt;</text>
</a>
</g>
</g>
<!-- Node6&#45;&gt;Node10 -->
<g id="edge9" class="edge"><title>Node6&#45;&gt;Node10</title>
<path fill="none" stroke="midnightblue" d="M545.97,-202.372C561.432,-194.109 584.774,-182.262 606,-174 611.854,-171.722 618.097,-169.561 624.307,-167.571"/>
<polygon fill="midnightblue" stroke="midnightblue" points="625.452,-170.88 633.977,-164.589 623.389,-164.191 625.452,-170.88"/>
</g>
<!-- Node12 -->
<g id="node12" class="node"><title>Node12</title>
<g id="a_node12"><a xlink:href="$classLowPassFilter.html#a1cc5016de137b01080fa0a6fa7fe53cd" xlink:title="LowPassFilter::set\l_cutoff_frequency">
<polygon fill="white" stroke="black" points="337.5,-39 337.5,-69 435.5,-69 435.5,-39 337.5,-39"/>
<text text-anchor="start" x="345.5" y="-57" font-family="Helvetica,sans-Serif" font-size="10.00">LowPassFilter::set</text>
<text text-anchor="middle" x="386.5" y="-46" font-family="Helvetica,sans-Serif" font-size="10.00">_cutoff_frequency</text>
</a>
</g>
</g>
<!-- Node11&#45;&gt;Node12 -->
<g id="edge11" class="edge"><title>Node11&#45;&gt;Node12</title>
<path fill="none" stroke="midnightblue" d="M278.961,-54C294.682,-54 311.631,-54 327.285,-54"/>
<polygon fill="midnightblue" stroke="midnightblue" points="327.359,-57.5001 337.359,-54 327.359,-50.5001 327.359,-57.5001"/>
</g>
<!-- Node13&#45;&gt;Node5 -->
<g id="edge13" class="edge"><title>Node13&#45;&gt;Node5</title>
<path fill="none" stroke="midnightblue" d="M285.585,-228.853C302.495,-226.001 320.383,-222.984 336.279,-220.302"/>
<polygon fill="midnightblue" stroke="midnightblue" points="337.128,-223.709 346.407,-218.594 335.964,-216.806 337.128,-223.709"/>
</g>
<!-- Node15&#45;&gt;Node5 -->
<g id="edge16" class="edge"><title>Node15&#45;&gt;Node5</title>
<path fill="none" stroke="midnightblue" d="M278.961,-198.522C297.713,-200.894 318.212,-203.488 336.176,-205.76"/>
<polygon fill="midnightblue" stroke="midnightblue" points="335.787,-209.239 346.147,-207.022 336.666,-202.294 335.787,-209.239"/>
</g>
<!-- Node16&#45;&gt;Node5 -->
<g id="edge18" class="edge"><title>Node16&#45;&gt;Node5</title>
<path fill="none" stroke="midnightblue" d="M264.704,-157.09C272.525,-159.913 280.538,-162.942 288,-166 311.853,-175.775 338.262,-188.347 357.571,-197.876"/>
<polygon fill="midnightblue" stroke="midnightblue" points="356.192,-201.099 366.704,-202.418 359.309,-194.831 356.192,-201.099"/>
</g>
<!-- Node16&#45;&gt;Node17 -->
<g id="edge19" class="edge"><title>Node16&#45;&gt;Node17</title>
<path fill="none" stroke="midnightblue" d="M276.163,-126.981C303.569,-119.717 335.249,-111.32 357.43,-105.44"/>
<polygon fill="midnightblue" stroke="midnightblue" points="358.43,-108.796 367.199,-102.851 356.636,-102.03 358.43,-108.796"/>
</g>
<!-- Node18 -->
<g id="node18" class="node"><title>Node18</title>
<g id="a_node18"><a xlink:href="$classAP__Motors.html#a6641c5398dea1388547dff3db5d95a86" xlink:title="AP_Motors::get_throttle\l_hover">
<polygon fill="white" stroke="black" points="326.5,-127 326.5,-157 446.5,-157 446.5,-127 326.5,-127"/>
<text text-anchor="start" x="334.5" y="-145" font-family="Helvetica,sans-Serif" font-size="10.00">AP_Motors::get_throttle</text>
<text text-anchor="middle" x="386.5" y="-134" font-family="Helvetica,sans-Serif" font-size="10.00">_hover</text>
</a>
</g>
</g>
<!-- Node16&#45;&gt;Node18 -->
<g id="edge20" class="edge"><title>Node16&#45;&gt;Node18</title>
<path fill="none" stroke="midnightblue" d="M288.457,-142C297.583,-142 306.941,-142 316.075,-142"/>
<polygon fill="midnightblue" stroke="midnightblue" points="316.267,-145.5 326.267,-142 316.267,-138.5 316.267,-145.5"/>
</g>
</g>
</svg>
