<?xml version="1.0" encoding="UTF-8" standalone="no"?>
<!DOCTYPE svg PUBLIC "-//W3C//DTD SVG 1.1//EN"
 "http://www.w3.org/Graphics/SVG/1.1/DTD/svg11.dtd">
<!-- Generated by graphviz version 2.38.0 (20140413.2041)
 -->
<!-- Title: AC_PosControl::get_vel_target Pages: 1 -->
<svg width="426pt" height="88pt"
 viewBox="0.00 0.00 426.00 88.00" xmlns="http://www.w3.org/2000/svg" xmlns:xlink="http://www.w3.org/1999/xlink">
<g id="graph0" class="graph" transform="scale(1 1) rotate(0) translate(4 84)">
<title>AC_PosControl::get_vel_target</title>
<polygon fill="white" stroke="none" points="-4,4 -4,-84 422,-84 422,4 -4,4"/>
<!-- Node1 -->
<g id="node1" class="node"><title>Node1</title>
<polygon fill="#bfbfbf" stroke="black" points="0,-24.5 0,-54.5 104,-54.5 104,-24.5 0,-24.5"/>
<text text-anchor="start" x="8" y="-42.5" font-family="Helvetica,sans-Serif" font-size="10.00">AC_PosControl::get</text>
<text text-anchor="middle" x="52" y="-31.5" font-family="Helvetica,sans-Serif" font-size="10.00">_vel_target</text>
</g>
<!-- Node2 -->
<g id="node2" class="node"><title>Node2</title>
<g id="a_node2"><a xlink:href="$classAC__WPNav.html#a0e91b64e0b97a76cbe20478ac438ab1b" xlink:title="AC_WPNav::set_spline\l_origin_and_destination">
<polygon fill="white" stroke="black" points="140,-24.5 140,-54.5 261,-54.5 261,-24.5 140,-24.5"/>
<text text-anchor="start" x="148" y="-42.5" font-family="Helvetica,sans-Serif" font-size="10.00">AC_WPNav::set_spline</text>
<text text-anchor="middle" x="200.5" y="-31.5" font-family="Helvetica,sans-Serif" font-size="10.00">_origin_and_destination</text>
</a>
</g>
</g>
<!-- Node1&#45;&gt;Node2 -->
<g id="edge1" class="edge"><title>Node1&#45;&gt;Node2</title>
<path fill="none" stroke="midnightblue" d="M114.353,-39.5C122.757,-39.5 131.376,-39.5 139.751,-39.5"/>
<polygon fill="midnightblue" stroke="midnightblue" points="114.239,-36.0001 104.239,-39.5 114.239,-43.0001 114.239,-36.0001"/>
</g>
<!-- Node3 -->
<g id="node3" class="node"><title>Node3</title>
<g id="a_node3"><a xlink:href="$classAC__WPNav.html#a8caabd95cf51512456cd8d81f38dbff9" xlink:title="AC_WPNav::set_spline\l_destination">
<polygon fill="white" stroke="black" points="297,-49.5 297,-79.5 418,-79.5 418,-49.5 297,-49.5"/>
<text text-anchor="start" x="305" y="-67.5" font-family="Helvetica,sans-Serif" font-size="10.00">AC_WPNav::set_spline</text>
<text text-anchor="middle" x="357.5" y="-56.5" font-family="Helvetica,sans-Serif" font-size="10.00">_destination</text>
</a>
</g>
</g>
<!-- Node2&#45;&gt;Node3 -->
<g id="edge2" class="edge"><title>Node2&#45;&gt;Node3</title>
<path fill="none" stroke="midnightblue" d="M271.382,-50.7713C279.933,-52.1505 288.609,-53.5498 296.988,-54.9012"/>
<polygon fill="midnightblue" stroke="midnightblue" points="271.857,-47.3027 261.427,-49.1657 270.742,-54.2134 271.857,-47.3027"/>
</g>
<!-- Node4 -->
<g id="node4" class="node"><title>Node4</title>
<g id="a_node4"><a xlink:href="$classAC__WPNav.html#a4795d6f44811c6ca8b592c5cc098e0c0" xlink:title="set_fast_waypoint &#45; set to true to ignore the waypoint radius and consider the waypoint &#39;reached&#39; the...">
<polygon fill="white" stroke="black" points="301.5,-0.5 301.5,-30.5 413.5,-30.5 413.5,-0.5 301.5,-0.5"/>
<text text-anchor="start" x="309.5" y="-18.5" font-family="Helvetica,sans-Serif" font-size="10.00">AC_WPNav::set_fast</text>
<text text-anchor="middle" x="357.5" y="-7.5" font-family="Helvetica,sans-Serif" font-size="10.00">_waypoint</text>
</a>
</g>
</g>
<!-- Node2&#45;&gt;Node4 -->
<g id="edge3" class="edge"><title>Node2&#45;&gt;Node4</title>
<path fill="none" stroke="midnightblue" d="M271.374,-28.6808C281.404,-27.1278 291.606,-25.5482 301.299,-24.0473"/>
<polygon fill="midnightblue" stroke="midnightblue" points="270.774,-25.232 261.427,-30.221 271.845,-32.1495 270.774,-25.232"/>
</g>
</g>
</svg>
