<?xml version="1.0" encoding="UTF-8" standalone="no"?>
<!DOCTYPE svg PUBLIC "-//W3C//DTD SVG 1.1//EN"
 "http://www.w3.org/Graphics/SVG/1.1/DTD/svg11.dtd">
<!-- Generated by graphviz version 2.38.0 (20140413.2041)
 -->
<!-- Title: AC_PosControl::calc_leash_length_z Pages: 1 -->
<svg width="1713pt" height="767pt"
 viewBox="0.00 0.00 1713.00 767.00" xmlns="http://www.w3.org/2000/svg" xmlns:xlink="http://www.w3.org/1999/xlink">
<g id="graph0" class="graph" transform="scale(1 1) rotate(0) translate(4 763)">
<title>AC_PosControl::calc_leash_length_z</title>
<polygon fill="white" stroke="none" points="-4,4 -4,-763 1709,-763 1709,4 -4,4"/>
<!-- Node1 -->
<g id="node1" class="node"><title>Node1</title>
<polygon fill="#bfbfbf" stroke="black" points="0,-474 0,-504 109,-504 109,-474 0,-474"/>
<text text-anchor="start" x="8" y="-492" font-family="Helvetica,sans-Serif" font-size="10.00">AC_PosControl::calc</text>
<text text-anchor="middle" x="54.5" y="-481" font-family="Helvetica,sans-Serif" font-size="10.00">_leash_length_z</text>
</g>
<!-- Node2 -->
<g id="node2" class="node"><title>Node2</title>
<g id="a_node2"><a xlink:href="$classAC__PosControl.html#af78236603854195f946dff59016363a4" xlink:title="get_accel_z &#45; returns current vertical acceleration in cm/s/s ">
<polygon fill="white" stroke="black" points="153,-594 153,-624 257,-624 257,-594 153,-594"/>
<text text-anchor="start" x="161" y="-612" font-family="Helvetica,sans-Serif" font-size="10.00">AC_PosControl::get</text>
<text text-anchor="middle" x="205" y="-601" font-family="Helvetica,sans-Serif" font-size="10.00">_accel_z</text>
</a>
</g>
</g>
<!-- Node1&#45;&gt;Node2 -->
<g id="edge1" class="edge"><title>Node1&#45;&gt;Node2</title>
<path fill="none" stroke="midnightblue" d="M72.6575,-512.095C89.2474,-533.119 116.066,-563.864 145,-584 150.296,-587.686 156.221,-590.985 162.218,-593.883"/>
<polygon fill="midnightblue" stroke="midnightblue" points="75.2913,-509.78 66.404,-504.012 69.7547,-514.063 75.2913,-509.78"/>
</g>
<!-- Node3 -->
<g id="node3" class="node"><title>Node3</title>
<g id="a_node3"><a xlink:href="$classAC__PosControl.html#ad7ef264f7da50fe3f0e035604fdcfea4" xlink:title="set_accel_z &#45; set vertical acceleration in cm/s/s ">
<polygon fill="white" stroke="black" points="153,-545 153,-575 257,-575 257,-545 153,-545"/>
<text text-anchor="start" x="161" y="-563" font-family="Helvetica,sans-Serif" font-size="10.00">AC_PosControl::set</text>
<text text-anchor="middle" x="205" y="-552" font-family="Helvetica,sans-Serif" font-size="10.00">_accel_z</text>
</a>
</g>
</g>
<!-- Node1&#45;&gt;Node3 -->
<g id="edge2" class="edge"><title>Node1&#45;&gt;Node3</title>
<path fill="none" stroke="midnightblue" d="M92.4941,-508.792C108.504,-517.154 127.54,-526.828 145,-535 152.154,-538.348 159.878,-541.762 167.305,-544.948"/>
<polygon fill="midnightblue" stroke="midnightblue" points="93.9326,-505.594 83.4521,-504.041 90.6767,-511.791 93.9326,-505.594"/>
</g>
<!-- Node5 -->
<g id="node5" class="node"><title>Node5</title>
<g id="a_node5"><a xlink:href="$classAC__WPNav.html#a47964df8ebcc78bb101f328a23187e65" xlink:title="AC_WPNav::wp_and_spline_init">
<polygon fill="white" stroke="black" points="301,-457.5 301,-476.5 460,-476.5 460,-457.5 301,-457.5"/>
<text text-anchor="middle" x="380.5" y="-464.5" font-family="Helvetica,sans-Serif" font-size="10.00">AC_WPNav::wp_and_spline_init</text>
</a>
</g>
</g>
<!-- Node1&#45;&gt;Node5 -->
<g id="edge60" class="edge"><title>Node1&#45;&gt;Node5</title>
<path fill="none" stroke="midnightblue" d="M119.106,-484.681C171.141,-481.148 244.976,-476.134 300.742,-472.348"/>
<polygon fill="midnightblue" stroke="midnightblue" points="118.742,-481.198 109.002,-485.367 119.216,-488.182 118.742,-481.198"/>
</g>
<!-- Node9 -->
<g id="node9" class="node"><title>Node9</title>
<g id="a_node9"><a xlink:href="$classAC__PosControl.html#a4d39e0c0d33f5f6ca20461ad64982e8f" xlink:title="AC_PosControl::set\l_speed_z">
<polygon fill="white" stroke="black" points="153,-496 153,-526 257,-526 257,-496 153,-496"/>
<text text-anchor="start" x="161" y="-514" font-family="Helvetica,sans-Serif" font-size="10.00">AC_PosControl::set</text>
<text text-anchor="middle" x="205" y="-503" font-family="Helvetica,sans-Serif" font-size="10.00">_speed_z</text>
</a>
</g>
</g>
<!-- Node1&#45;&gt;Node9 -->
<g id="edge8" class="edge"><title>Node1&#45;&gt;Node9</title>
<path fill="none" stroke="midnightblue" d="M119.311,-498.454C130.55,-500.119 142.115,-501.832 152.947,-503.437"/>
<polygon fill="midnightblue" stroke="midnightblue" points="119.517,-494.946 109.112,-496.943 118.491,-501.87 119.517,-494.946"/>
</g>
<!-- Node35 -->
<g id="node35" class="node"><title>Node35</title>
<g id="a_node35"><a xlink:href="$classAC__PosControl.html#a51caffd56dd27f42595df30f63cd1eaa" xlink:title="set_target_to_stopping_point_z &#45; sets altitude target to reasonable stopping altitude in cm above hom...">
<polygon fill="white" stroke="black" points="153,-193.5 153,-234.5 257,-234.5 257,-193.5 153,-193.5"/>
<text text-anchor="start" x="161" y="-222.5" font-family="Helvetica,sans-Serif" font-size="10.00">AC_PosControl::set</text>
<text text-anchor="start" x="161" y="-211.5" font-family="Helvetica,sans-Serif" font-size="10.00">_target_to_stopping</text>
<text text-anchor="middle" x="205" y="-200.5" font-family="Helvetica,sans-Serif" font-size="10.00">_point_z</text>
</a>
</g>
</g>
<!-- Node1&#45;&gt;Node35 -->
<g id="edge52" class="edge"><title>Node1&#45;&gt;Node35</title>
<path fill="none" stroke="midnightblue" d="M68.5999,-464.741C97.4427,-411.328 166.005,-284.361 192.901,-234.554"/>
<polygon fill="midnightblue" stroke="midnightblue" points="65.3674,-463.361 63.6955,-473.823 71.5267,-466.687 65.3674,-463.361"/>
</g>
<!-- Node39 -->
<g id="node39" class="node"><title>Node39</title>
<g id="a_node39"><a xlink:href="$classAC__PosControl.html#af9c555a3b07ea1420ea28e7333379941" xlink:title="update_z_controller &#45; fly to altitude in cm above home ">
<polygon fill="white" stroke="black" points="145,-408 145,-438 265,-438 265,-408 145,-408"/>
<text text-anchor="start" x="153" y="-426" font-family="Helvetica,sans-Serif" font-size="10.00">AC_PosControl::update</text>
<text text-anchor="middle" x="205" y="-415" font-family="Helvetica,sans-Serif" font-size="10.00">_z_controller</text>
</a>
</g>
</g>
<!-- Node1&#45;&gt;Node39 -->
<g id="edge57" class="edge"><title>Node1&#45;&gt;Node39</title>
<path fill="none" stroke="midnightblue" d="M98.9728,-469.679C121.654,-459.598 148.992,-447.448 170.09,-438.071"/>
<polygon fill="midnightblue" stroke="midnightblue" points="97.2855,-466.598 89.5689,-473.858 100.129,-472.995 97.2855,-466.598"/>
</g>
<!-- Node4 -->
<g id="node4" class="node"><title>Node4</title>
<g id="a_node4"><a xlink:href="$classAC__PosControl.html#a12a1c556d993320d42af92174aa2048c" xlink:title="get_vel_target_z &#45; returns current vertical speed in cm/s ">
<polygon fill="white" stroke="black" points="328.5,-545 328.5,-575 432.5,-575 432.5,-545 328.5,-545"/>
<text text-anchor="start" x="336.5" y="-563" font-family="Helvetica,sans-Serif" font-size="10.00">AC_PosControl::get</text>
<text text-anchor="middle" x="380.5" y="-552" font-family="Helvetica,sans-Serif" font-size="10.00">_vel_target_z</text>
</a>
</g>
</g>
<!-- Node3&#45;&gt;Node4 -->
<g id="edge3" class="edge"><title>Node3&#45;&gt;Node4</title>
<path fill="none" stroke="midnightblue" d="M267.363,-560C287.347,-560 309.303,-560 328.448,-560"/>
<polygon fill="midnightblue" stroke="midnightblue" points="267.117,-556.5 257.117,-560 267.117,-563.5 267.117,-556.5"/>
</g>
<!-- Node3&#45;&gt;Node5 -->
<g id="edge4" class="edge"><title>Node3&#45;&gt;Node5</title>
<path fill="none" stroke="midnightblue" d="M257.867,-540.025C260.355,-538.453 262.75,-536.779 265,-535 286.199,-518.24 278.505,-500.975 301,-486 306.836,-482.115 313.387,-479.023 320.151,-476.562"/>
<polygon fill="midnightblue" stroke="midnightblue" points="256.095,-537.006 249.124,-544.984 259.549,-543.095 256.095,-537.006"/>
</g>
<!-- Node7 -->
<g id="node7" class="node"><title>Node7</title>
<g id="a_node7"><a xlink:href="$classAC__WPNav.html#a7dc4785fbce8364d7eb3d8e2d0c1b987" xlink:title="update_wpnav &#45; run the wp controller &#45; should be called at 100hz or higher ">
<polygon fill="white" stroke="black" points="1387,-673.5 1387,-692.5 1527,-692.5 1527,-673.5 1387,-673.5"/>
<text text-anchor="middle" x="1457" y="-680.5" font-family="Helvetica,sans-Serif" font-size="10.00">AC_WPNav::update_wpnav</text>
</a>
</g>
</g>
<!-- Node3&#45;&gt;Node7 -->
<g id="edge6" class="edge"><title>Node3&#45;&gt;Node7</title>
<path fill="none" stroke="midnightblue" d="M254.706,-579.181C258.215,-580.756 261.677,-582.37 265,-584 404.097,-652.245 411.563,-759 566.5,-759 566.5,-759 566.5,-759 1075.5,-759 1198.82,-759 1231.64,-756.982 1351,-726 1382.27,-717.884 1416.57,-702.519 1437.18,-692.524"/>
<polygon fill="midnightblue" stroke="midnightblue" points="255.941,-575.901 245.375,-575.123 253.149,-582.321 255.941,-575.901"/>
</g>
<!-- Node6 -->
<g id="node6" class="node"><title>Node6</title>
<g id="a_node6"><a xlink:href="$classAC__WPNav.html#ae34a88192799de8f2b96c8cd295bb971" xlink:title="get_loiter_target &#45; returns loiter target position ">
<polygon fill="white" stroke="black" points="1576,-322 1576,-352 1692,-352 1692,-322 1576,-322"/>
<text text-anchor="start" x="1584" y="-340" font-family="Helvetica,sans-Serif" font-size="10.00">AC_WPNav::get_loiter</text>
<text text-anchor="middle" x="1634" y="-329" font-family="Helvetica,sans-Serif" font-size="10.00">_target</text>
</a>
</g>
</g>
<!-- Node5&#45;&gt;Node6 -->
<g id="edge5" class="edge"><title>Node5&#45;&gt;Node6</title>
<path fill="none" stroke="midnightblue" d="M388.133,-447.832C411.675,-379.899 490.127,-154.39 496,-149 576.303,-75.3075 624.009,-86 733,-86 733,-86 733,-86 895,-86 1176.02,-86 1292.89,50.4433 1527,-105 1566.29,-131.087 1613.58,-274.372 1628.36,-321.77"/>
<polygon fill="midnightblue" stroke="midnightblue" points="384.811,-446.729 384.846,-457.324 391.426,-449.02 384.811,-446.729"/>
</g>
<!-- Node8 -->
<g id="node8" class="node"><title>Node8</title>
<g id="a_node8"><a xlink:href="$classAC__WPNav.html#a4795d6f44811c6ca8b592c5cc098e0c0" xlink:title="set_fast_waypoint &#45; set to true to ignore the waypoint radius and consider the waypoint &#39;reached&#39; the...">
<polygon fill="white" stroke="black" points="1578,-647 1578,-677 1690,-677 1690,-647 1578,-647"/>
<text text-anchor="start" x="1586" y="-665" font-family="Helvetica,sans-Serif" font-size="10.00">AC_WPNav::set_fast</text>
<text text-anchor="middle" x="1634" y="-654" font-family="Helvetica,sans-Serif" font-size="10.00">_waypoint</text>
</a>
</g>
</g>
<!-- Node7&#45;&gt;Node8 -->
<g id="edge7" class="edge"><title>Node7&#45;&gt;Node8</title>
<path fill="none" stroke="midnightblue" d="M1537.11,-673.507C1550.85,-671.858 1564.88,-670.175 1577.81,-668.623"/>
<polygon fill="midnightblue" stroke="midnightblue" points="1536.68,-670.034 1527.16,-674.7 1537.51,-676.984 1536.68,-670.034"/>
</g>
<!-- Node9&#45;&gt;Node5 -->
<g id="edge51" class="edge"><title>Node9&#45;&gt;Node5</title>
<path fill="none" stroke="midnightblue" d="M267.016,-494.752C278.305,-491.8 290.001,-488.778 301,-486 313.507,-482.841 327.163,-479.499 339.527,-476.513"/>
<polygon fill="midnightblue" stroke="midnightblue" points="266.012,-491.397 257.227,-497.32 267.788,-498.168 266.012,-491.397"/>
</g>
<!-- Node10 -->
<g id="node10" class="node"><title>Node10</title>
<g id="a_node10"><a xlink:href="$classAC__PosControl.html#ab4a37d0f0ce8ea8038758158f8d06562" xlink:title="AC_PosControl::get\l_dt_xy">
<polygon fill="white" stroke="black" points="328.5,-496 328.5,-526 432.5,-526 432.5,-496 328.5,-496"/>
<text text-anchor="start" x="336.5" y="-514" font-family="Helvetica,sans-Serif" font-size="10.00">AC_PosControl::get</text>
<text text-anchor="middle" x="380.5" y="-503" font-family="Helvetica,sans-Serif" font-size="10.00">_dt_xy</text>
</a>
</g>
</g>
<!-- Node9&#45;&gt;Node10 -->
<g id="edge9" class="edge"><title>Node9&#45;&gt;Node10</title>
<path fill="none" stroke="midnightblue" d="M267.363,-511C287.347,-511 309.303,-511 328.448,-511"/>
<polygon fill="midnightblue" stroke="midnightblue" points="267.117,-507.5 257.117,-511 267.117,-514.5 267.117,-507.5"/>
</g>
<!-- Node10&#45;&gt;Node7 -->
<g id="edge46" class="edge"><title>Node10&#45;&gt;Node7</title>
<path fill="none" stroke="midnightblue" d="M441.987,-522.335C448.683,-525.564 454.908,-529.702 460,-535 503.623,-580.392 450.318,-628.681 496,-672 574.049,-746.012 625.439,-721 733,-721 733,-721 733,-721 1075.5,-721 1198.18,-721 1229.35,-719.844 1351,-704 1372.29,-701.227 1395.74,-696.681 1415.07,-692.527"/>
<polygon fill="midnightblue" stroke="midnightblue" points="443.207,-519.052 432.628,-518.47 440.535,-525.522 443.207,-519.052"/>
</g>
<!-- Node11 -->
<g id="node11" class="node"><title>Node11</title>
<g id="a_node11"><a xlink:href="$classAC__PosControl.html#ad89eec74ef77005f3f5c449da98ad12c" xlink:title="AC_PosControl::update\l_vel_controller_xyz">
<polygon fill="white" stroke="black" points="507.5,-431 507.5,-461 627.5,-461 627.5,-431 507.5,-431"/>
<text text-anchor="start" x="515.5" y="-449" font-family="Helvetica,sans-Serif" font-size="10.00">AC_PosControl::update</text>
<text text-anchor="middle" x="567.5" y="-438" font-family="Helvetica,sans-Serif" font-size="10.00">_vel_controller_xyz</text>
</a>
</g>
</g>
<!-- Node10&#45;&gt;Node11 -->
<g id="edge10" class="edge"><title>Node10&#45;&gt;Node11</title>
<path fill="none" stroke="midnightblue" d="M440.035,-492.721C446.784,-490.506 453.554,-488.235 460,-486 482.579,-478.17 507.607,-468.806 527.723,-461.107"/>
<polygon fill="midnightblue" stroke="midnightblue" points="438.632,-489.496 430.203,-495.915 440.795,-496.154 438.632,-489.496"/>
</g>
<!-- Node16 -->
<g id="node16" class="node"><title>Node16</title>
<g id="a_node16"><a xlink:href="$classAC__Circle.html#ad28205982ae7bc5f1e72f5285696c99b" xlink:title="update &#45; update circle controller ">
<polygon fill="white" stroke="black" points="1408.5,-114.5 1408.5,-133.5 1505.5,-133.5 1505.5,-114.5 1408.5,-114.5"/>
<text text-anchor="middle" x="1457" y="-121.5" font-family="Helvetica,sans-Serif" font-size="10.00">AC_Circle::update</text>
</a>
</g>
</g>
<!-- Node10&#45;&gt;Node16 -->
<g id="edge43" class="edge"><title>Node10&#45;&gt;Node16</title>
<path fill="none" stroke="midnightblue" d="M442.091,-496.996C448.517,-494.008 454.649,-490.386 460,-486 485.539,-465.064 477.636,-448.447 496,-421 589.907,-280.641 564.124,-124 733,-124 733,-124 733,-124 1075.5,-124 1195.23,-124 1336.16,-124 1408.25,-124"/>
<polygon fill="midnightblue" stroke="midnightblue" points="440.435,-493.893 432.521,-500.938 443.101,-500.366 440.435,-493.893"/>
</g>
<!-- Node18 -->
<g id="node18" class="node"><title>Node18</title>
<g id="a_node18"><a xlink:href="$classAC__WPNav.html#a0a434270245fd8641352af387700dc82" xlink:title="update_loiter &#45; run the loiter controller &#45; should be called at 10hz ">
<polygon fill="white" stroke="black" points="1391,-415.5 1391,-434.5 1523,-434.5 1523,-415.5 1391,-415.5"/>
<text text-anchor="middle" x="1457" y="-422.5" font-family="Helvetica,sans-Serif" font-size="10.00">AC_WPNav::update_loiter</text>
</a>
</g>
</g>
<!-- Node10&#45;&gt;Node18 -->
<g id="edge44" class="edge"><title>Node10&#45;&gt;Node18</title>
<path fill="none" stroke="midnightblue" d="M442.599,-518.83C512.622,-527.114 630.891,-539 733,-539 733,-539 733,-539 895,-539 1104.21,-539 1348.67,-461.922 1428.96,-434.523"/>
<polygon fill="midnightblue" stroke="midnightblue" points="442.97,-515.349 432.625,-517.636 442.138,-522.3 442.97,-515.349"/>
</g>
<!-- Node19 -->
<g id="node19" class="node"><title>Node19</title>
<g id="a_node19"><a xlink:href="$classAC__WPNav.html#af9d3f98ad44166d4c5d072bf3ba4a3db" xlink:title="update_brake &#45; run the brake controller &#45; should be called at 400hz ">
<polygon fill="white" stroke="black" points="1389.5,-371.5 1389.5,-390.5 1524.5,-390.5 1524.5,-371.5 1389.5,-371.5"/>
<text text-anchor="middle" x="1457" y="-378.5" font-family="Helvetica,sans-Serif" font-size="10.00">AC_WPNav::update_brake</text>
</a>
</g>
</g>
<!-- Node10&#45;&gt;Node19 -->
<g id="edge45" class="edge"><title>Node10&#45;&gt;Node19</title>
<path fill="none" stroke="midnightblue" d="M442.782,-502.626C573.481,-484.758 889.282,-441.545 1154,-405 1170,-402.791 1173.93,-401.687 1190,-400 1257.8,-392.878 1335.61,-387.663 1389.48,-384.517"/>
<polygon fill="midnightblue" stroke="midnightblue" points="442.009,-499.199 432.576,-504.021 442.958,-506.134 442.009,-499.199"/>
</g>
<!-- Node20 -->
<g id="node20" class="node"><title>Node20</title>
<g id="a_node20"><a xlink:href="$classAC__WPNav.html#acc138e7bc6435087ab308896358de6a3" xlink:title="update_spline &#45; update spline controller ">
<polygon fill="white" stroke="black" points="1388.5,-497.5 1388.5,-516.5 1525.5,-516.5 1525.5,-497.5 1388.5,-497.5"/>
<text text-anchor="middle" x="1457" y="-504.5" font-family="Helvetica,sans-Serif" font-size="10.00">AC_WPNav::update_spline</text>
</a>
</g>
</g>
<!-- Node10&#45;&gt;Node20 -->
<g id="edge50" class="edge"><title>Node10&#45;&gt;Node20</title>
<path fill="none" stroke="midnightblue" d="M442.15,-528.428C448.229,-530.507 454.268,-532.709 460,-535 476.611,-541.638 478.657,-548.615 496,-553 795.183,-628.651 881.439,-570.11 1190,-575 1261.55,-576.134 1282.38,-595.28 1351,-575 1389.95,-563.49 1428.02,-532.512 1445.72,-516.649"/>
<polygon fill="midnightblue" stroke="midnightblue" points="443.197,-525.088 432.604,-525.269 440.998,-531.734 443.197,-525.088"/>
</g>
<!-- Node34 -->
<g id="node34" class="node"><title>Node34</title>
<g id="a_node34"><a xlink:href="$classAC__WPNav.html#a0e91b64e0b97a76cbe20478ac438ab1b" xlink:title="AC_WPNav::set_spline\l_origin_and_destination">
<polygon fill="white" stroke="black" points="1014,-624 1014,-654 1135,-654 1135,-624 1014,-624"/>
<text text-anchor="start" x="1022" y="-642" font-family="Helvetica,sans-Serif" font-size="10.00">AC_WPNav::set_spline</text>
<text text-anchor="middle" x="1074.5" y="-631" font-family="Helvetica,sans-Serif" font-size="10.00">_origin_and_destination</text>
</a>
</g>
</g>
<!-- Node10&#45;&gt;Node34 -->
<g id="edge47" class="edge"><title>Node10&#45;&gt;Node34</title>
<path fill="none" stroke="midnightblue" d="M442.441,-523.345C448.856,-526.408 454.89,-530.231 460,-535 492.707,-565.523 459.362,-603.328 496,-629 660.656,-744.371 921.636,-685.158 1027.06,-654.061"/>
<polygon fill="midnightblue" stroke="midnightblue" points="443.41,-519.958 432.831,-519.377 440.739,-526.429 443.41,-519.958"/>
</g>
<!-- Node12 -->
<g id="node12" class="node"><title>Node12</title>
<g id="a_node12"><a xlink:href="$classAC__PosControl.html#ac150947d527995a72dff6ad0921a1891" xlink:title="freeze_ff_xy &#45; used to stop the feed forward being calculated during a known discontinuity ...">
<polygon fill="white" stroke="black" points="675,-334 675,-364 793,-364 793,-334 675,-334"/>
<text text-anchor="start" x="683" y="-352" font-family="Helvetica,sans-Serif" font-size="10.00">AC_PosControl::freeze</text>
<text text-anchor="middle" x="734" y="-341" font-family="Helvetica,sans-Serif" font-size="10.00">_ff_xy</text>
</a>
</g>
</g>
<!-- Node11&#45;&gt;Node12 -->
<g id="edge11" class="edge"><title>Node11&#45;&gt;Node12</title>
<path fill="none" stroke="midnightblue" d="M603.003,-425.655C634.202,-407.258 679.423,-380.592 707.477,-364.05"/>
<polygon fill="midnightblue" stroke="midnightblue" points="601.039,-422.749 594.203,-430.844 604.595,-428.779 601.039,-422.749"/>
</g>
<!-- Node12&#45;&gt;Node7 -->
<g id="edge41" class="edge"><title>Node12&#45;&gt;Node7</title>
<path fill="none" stroke="midnightblue" d="M746.339,-373.656C776.435,-435.785 865.02,-598.395 995,-663 1061.81,-696.205 1275.42,-691.68 1386.86,-686.75"/>
<polygon fill="midnightblue" stroke="midnightblue" points="749.319,-371.773 741.859,-364.249 742.999,-374.782 749.319,-371.773"/>
</g>
<!-- Node13 -->
<g id="node13" class="node"><title>Node13</title>
<g id="a_node13"><a xlink:href="$classAC__PosControl.html#a0a3dc64da9e355dea10959cb41e6aa8b" xlink:title="shift position target target in x, y axis ">
<polygon fill="white" stroke="black" points="839,-290 839,-320 949,-320 949,-290 839,-290"/>
<text text-anchor="start" x="847" y="-308" font-family="Helvetica,sans-Serif" font-size="10.00">AC_PosControl::shift</text>
<text text-anchor="middle" x="894" y="-297" font-family="Helvetica,sans-Serif" font-size="10.00">_pos_xy_target</text>
</a>
</g>
</g>
<!-- Node12&#45;&gt;Node13 -->
<g id="edge12" class="edge"><title>Node12&#45;&gt;Node13</title>
<path fill="none" stroke="midnightblue" d="M798.57,-331.297C811.986,-327.561 826.02,-323.653 839.042,-320.026"/>
<polygon fill="midnightblue" stroke="midnightblue" points="797.627,-327.926 788.933,-333.981 799.505,-334.67 797.627,-327.926"/>
</g>
<!-- Node12&#45;&gt;Node20 -->
<g id="edge42" class="edge"><title>Node12&#45;&gt;Node20</title>
<path fill="none" stroke="midnightblue" d="M766.346,-369.39C784.076,-380.04 807.036,-392.401 829,-400 1025.2,-467.875 1271.37,-493.764 1388.31,-502.729"/>
<polygon fill="midnightblue" stroke="midnightblue" points="767.937,-366.26 757.584,-364.011 764.275,-372.225 767.937,-366.26"/>
</g>
<!-- Node27 -->
<g id="node27" class="node"><title>Node27</title>
<g id="a_node27"><a xlink:href="$classAC__WPNav.html#a7ebe48af2381e791cbcdea94c7af2e3e" xlink:title="AC_WPNav::shift_wp\l_origin_to_current_pos">
<polygon fill="white" stroke="black" points="1213,-322 1213,-352 1328,-352 1328,-322 1213,-322"/>
<text text-anchor="start" x="1221" y="-340" font-family="Helvetica,sans-Serif" font-size="10.00">AC_WPNav::shift_wp</text>
<text text-anchor="middle" x="1270.5" y="-329" font-family="Helvetica,sans-Serif" font-size="10.00">_origin_to_current_pos</text>
</a>
</g>
</g>
<!-- Node12&#45;&gt;Node27 -->
<g id="edge40" class="edge"><title>Node12&#45;&gt;Node27</title>
<path fill="none" stroke="midnightblue" d="M803.226,-347.468C909.857,-345.074 1114.02,-340.491 1212.97,-338.269"/>
<polygon fill="midnightblue" stroke="midnightblue" points="803.137,-343.969 793.218,-347.693 803.294,-350.968 803.137,-343.969"/>
</g>
<!-- Node30 -->
<g id="node30" class="node"><title>Node30</title>
<g id="a_node30"><a xlink:href="$classAC__PosControl.html#a26ec8e9313b7c01fa449ba4f2d194d28" xlink:title="AC_PosControl::set\l_desired_velocity">
<polygon fill="white" stroke="black" points="842,-202 842,-232 946,-232 946,-202 842,-202"/>
<text text-anchor="start" x="850" y="-220" font-family="Helvetica,sans-Serif" font-size="10.00">AC_PosControl::set</text>
<text text-anchor="middle" x="894" y="-209" font-family="Helvetica,sans-Serif" font-size="10.00">_desired_velocity</text>
</a>
</g>
</g>
<!-- Node12&#45;&gt;Node30 -->
<g id="edge35" class="edge"><title>Node12&#45;&gt;Node30</title>
<path fill="none" stroke="midnightblue" d="M752.047,-325.794C769.432,-303.377 798.166,-269.588 829,-247 836.721,-241.343 845.679,-236.349 854.402,-232.138"/>
<polygon fill="midnightblue" stroke="midnightblue" points="749.237,-323.707 745.959,-333.781 754.804,-327.95 749.237,-323.707"/>
</g>
<!-- Node32 -->
<g id="node32" class="node"><title>Node32</title>
<g id="a_node32"><a xlink:href="$classAC__WPNav.html#a9b3fd8fd5c74d31ebffa89cdf98f570a" xlink:title="loiter_soften_for_landing &#45; reduce response for landing ">
<polygon fill="white" stroke="black" points="829,-153 829,-183 959,-183 959,-153 829,-153"/>
<text text-anchor="start" x="837" y="-171" font-family="Helvetica,sans-Serif" font-size="10.00">AC_WPNav::loiter_soften</text>
<text text-anchor="middle" x="894" y="-160" font-family="Helvetica,sans-Serif" font-size="10.00">_for_landing</text>
</a>
</g>
</g>
<!-- Node12&#45;&gt;Node32 -->
<g id="edge38" class="edge"><title>Node12&#45;&gt;Node32</title>
<path fill="none" stroke="midnightblue" d="M743.85,-324.026C757.209,-289.711 785.661,-228.139 829,-192 833.101,-188.58 837.738,-185.621 842.596,-183.066"/>
<polygon fill="midnightblue" stroke="midnightblue" points="740.44,-323.149 740.189,-333.741 746.991,-325.618 740.44,-323.149"/>
</g>
<!-- Node14 -->
<g id="node14" class="node"><title>Node14</title>
<g id="a_node14"><a xlink:href="$classAC__PosControl.html#adcd8a80dc29c0e77d0c3f225689319b9" xlink:title="check for ekf position reset and adjust loiter or brake target position ">
<polygon fill="white" stroke="black" points="1016,-366 1016,-396 1133,-396 1133,-366 1016,-366"/>
<text text-anchor="start" x="1024" y="-384" font-family="Helvetica,sans-Serif" font-size="10.00">AC_PosControl::check</text>
<text text-anchor="middle" x="1074.5" y="-373" font-family="Helvetica,sans-Serif" font-size="10.00">_for_ekf_xy_reset</text>
</a>
</g>
</g>
<!-- Node13&#45;&gt;Node14 -->
<g id="edge13" class="edge"><title>Node13&#45;&gt;Node14</title>
<path fill="none" stroke="midnightblue" d="M939.781,-324.066C970.168,-337.004 1009.79,-353.876 1038,-365.886"/>
<polygon fill="midnightblue" stroke="midnightblue" points="940.838,-320.712 930.266,-320.015 938.096,-327.153 940.838,-320.712"/>
</g>
<!-- Node22 -->
<g id="node22" class="node"><title>Node22</title>
<g id="a_node22"><a xlink:href="$classAC__PosControl.html#a6b3617b946ffd6935c11a63629f186ec" xlink:title="get_pos_target &#45; get target as position vector (from home in cm) ">
<polygon fill="white" stroke="black" points="1022.5,-278 1022.5,-308 1126.5,-308 1126.5,-278 1022.5,-278"/>
<text text-anchor="start" x="1030.5" y="-296" font-family="Helvetica,sans-Serif" font-size="10.00">AC_PosControl::get</text>
<text text-anchor="middle" x="1074.5" y="-285" font-family="Helvetica,sans-Serif" font-size="10.00">_pos_target</text>
</a>
</g>
</g>
<!-- Node13&#45;&gt;Node22 -->
<g id="edge26" class="edge"><title>Node13&#45;&gt;Node22</title>
<path fill="none" stroke="midnightblue" d="M959.071,-300.693C979.874,-299.294 1002.66,-297.762 1022.39,-296.436"/>
<polygon fill="midnightblue" stroke="midnightblue" points="958.783,-297.204 949.04,-301.367 959.253,-304.188 958.783,-297.204"/>
</g>
<!-- Node14&#45;&gt;Node11 -->
<g id="edge25" class="edge"><title>Node14&#45;&gt;Node11</title>
<path fill="none" stroke="midnightblue" d="M1005.93,-389.697C906.52,-402.493 722.441,-426.186 627.915,-438.353"/>
<polygon fill="midnightblue" stroke="midnightblue" points="1006.39,-393.166 1015.87,-388.418 1005.5,-386.224 1006.39,-393.166"/>
</g>
<!-- Node15 -->
<g id="node15" class="node"><title>Node15</title>
<g id="a_node15"><a xlink:href="$classAC__PosControl.html#a497c1799c10d146b6f2e2b542889c083" xlink:title="update_xy_controller &#45; run the horizontal position controller &#45; should be called at 100hz or higher ...">
<polygon fill="white" stroke="black" points="1210.5,-410 1210.5,-440 1330.5,-440 1330.5,-410 1210.5,-410"/>
<text text-anchor="start" x="1218.5" y="-428" font-family="Helvetica,sans-Serif" font-size="10.00">AC_PosControl::update</text>
<text text-anchor="middle" x="1270.5" y="-417" font-family="Helvetica,sans-Serif" font-size="10.00">_xy_controller</text>
</a>
</g>
</g>
<!-- Node14&#45;&gt;Node15 -->
<g id="edge14" class="edge"><title>Node14&#45;&gt;Node15</title>
<path fill="none" stroke="midnightblue" d="M1143.07,-396.326C1164.99,-401.296 1189.11,-406.768 1210.36,-411.587"/>
<polygon fill="midnightblue" stroke="midnightblue" points="1143.71,-392.881 1133.18,-394.082 1142.16,-399.708 1143.71,-392.881"/>
</g>
<!-- Node15&#45;&gt;Node7 -->
<g id="edge22" class="edge"><title>Node15&#45;&gt;Node7</title>
<path fill="none" stroke="midnightblue" d="M1290.54,-448.125C1306.98,-468.346 1331.15,-498.669 1351,-526 1390.5,-580.39 1434.07,-648.347 1449.86,-673.265"/>
<polygon fill="midnightblue" stroke="midnightblue" points="1293.03,-445.649 1284,-440.116 1287.61,-450.076 1293.03,-445.649"/>
</g>
<!-- Node15&#45;&gt;Node12 -->
<g id="edge15" class="edge"><title>Node15&#45;&gt;Node12</title>
<path fill="none" stroke="midnightblue" d="M1200.24,-422.626C1144.57,-420.076 1064.46,-414.962 995,-405 924.955,-394.955 845.598,-376.868 793.18,-363.968"/>
<polygon fill="midnightblue" stroke="midnightblue" points="1200.2,-426.127 1210.34,-423.073 1200.51,-419.134 1200.2,-426.127"/>
</g>
<!-- Node15&#45;&gt;Node16 -->
<g id="edge16" class="edge"><title>Node15&#45;&gt;Node16</title>
<path fill="none" stroke="midnightblue" d="M1306.62,-404.113C1322.32,-393.118 1339.78,-378.314 1351,-361 1385.24,-308.167 1360.73,-281.212 1387,-224 1403.64,-187.772 1433.32,-150.531 1447.71,-133.519"/>
<polygon fill="midnightblue" stroke="midnightblue" points="1304.47,-401.338 1298.13,-409.822 1308.38,-407.148 1304.47,-401.338"/>
</g>
<!-- Node15&#45;&gt;Node18 -->
<g id="edge18" class="edge"><title>Node15&#45;&gt;Node18</title>
<path fill="none" stroke="midnightblue" d="M1340.7,-425C1357.12,-425 1374.58,-425 1390.81,-425"/>
<polygon fill="midnightblue" stroke="midnightblue" points="1340.64,-421.5 1330.64,-425 1340.64,-428.5 1340.64,-421.5"/>
</g>
<!-- Node15&#45;&gt;Node19 -->
<g id="edge20" class="edge"><title>Node15&#45;&gt;Node19</title>
<path fill="none" stroke="midnightblue" d="M1340.63,-408.514C1366.11,-402.438 1394.09,-395.763 1416.12,-390.51"/>
<polygon fill="midnightblue" stroke="midnightblue" points="1339.55,-405.172 1330.64,-410.897 1341.18,-411.981 1339.55,-405.172"/>
</g>
<!-- Node15&#45;&gt;Node20 -->
<g id="edge23" class="edge"><title>Node15&#45;&gt;Node20</title>
<path fill="none" stroke="midnightblue" d="M1314.55,-444.132C1352.16,-460.849 1405.2,-484.423 1434.48,-497.436"/>
<polygon fill="midnightblue" stroke="midnightblue" points="1315.9,-440.903 1305.34,-440.04 1313.06,-447.3 1315.9,-440.903"/>
</g>
<!-- Node17 -->
<g id="node17" class="node"><title>Node17</title>
<g id="a_node17"><a xlink:href="$classAC__Circle.html#a176fe6b798510eb180d35f62d7f6487c" xlink:title="get_angle_total &#45; return total angle in radians that vehicle has circled ">
<polygon fill="white" stroke="black" points="1579,-109 1579,-139 1689,-139 1689,-109 1579,-109"/>
<text text-anchor="start" x="1587" y="-127" font-family="Helvetica,sans-Serif" font-size="10.00">AC_Circle::get_angle</text>
<text text-anchor="middle" x="1634" y="-116" font-family="Helvetica,sans-Serif" font-size="10.00">_total</text>
</a>
</g>
</g>
<!-- Node16&#45;&gt;Node17 -->
<g id="edge17" class="edge"><title>Node16&#45;&gt;Node17</title>
<path fill="none" stroke="midnightblue" d="M1515.86,-124C1536.12,-124 1558.79,-124 1578.75,-124"/>
<polygon fill="midnightblue" stroke="midnightblue" points="1515.82,-120.5 1505.82,-124 1515.82,-127.5 1515.82,-120.5"/>
</g>
<!-- Node18&#45;&gt;Node6 -->
<g id="edge19" class="edge"><title>Node18&#45;&gt;Node6</title>
<path fill="none" stroke="midnightblue" d="M1497.57,-412.112C1507.34,-408.537 1517.67,-404.414 1527,-400 1556.99,-385.809 1589.53,-365.707 1610.53,-352.054"/>
<polygon fill="midnightblue" stroke="midnightblue" points="1496.3,-408.849 1488.05,-415.495 1498.64,-415.445 1496.3,-408.849"/>
</g>
<!-- Node19&#45;&gt;Node6 -->
<g id="edge21" class="edge"><title>Node19&#45;&gt;Node6</title>
<path fill="none" stroke="midnightblue" d="M1505.9,-368.956C1527.51,-363.524 1553.2,-357.065 1575.8,-351.381"/>
<polygon fill="midnightblue" stroke="midnightblue" points="1504.82,-365.62 1495.97,-371.453 1506.52,-372.409 1504.82,-365.62"/>
</g>
<!-- Node21 -->
<g id="node21" class="node"><title>Node21</title>
<g id="a_node21"><a xlink:href="$classAC__WPNav.html#a3169a6fb417742e33c3a5197bb7a6c6d" xlink:title="reached_spline_destination &#45; true when we have come within RADIUS cm of the waypoint ...">
<polygon fill="white" stroke="black" points="1563,-492 1563,-522 1705,-522 1705,-492 1563,-492"/>
<text text-anchor="start" x="1571" y="-510" font-family="Helvetica,sans-Serif" font-size="10.00">AC_WPNav::reached_spline</text>
<text text-anchor="middle" x="1634" y="-499" font-family="Helvetica,sans-Serif" font-size="10.00">_destination</text>
</a>
</g>
</g>
<!-- Node20&#45;&gt;Node21 -->
<g id="edge24" class="edge"><title>Node20&#45;&gt;Node21</title>
<path fill="none" stroke="midnightblue" d="M1535.78,-507C1544.82,-507 1553.99,-507 1562.92,-507"/>
<polygon fill="midnightblue" stroke="midnightblue" points="1535.66,-503.5 1525.66,-507 1535.66,-510.5 1535.66,-503.5"/>
</g>
<!-- Node22&#45;&gt;Node6 -->
<g id="edge34" class="edge"><title>Node22&#45;&gt;Node6</title>
<path fill="none" stroke="midnightblue" d="M1137.03,-294.03C1224.11,-296.028 1388.19,-301.778 1527,-318 1542.97,-319.866 1560.17,-322.623 1575.98,-325.461"/>
<polygon fill="midnightblue" stroke="midnightblue" points="1136.87,-290.526 1126.8,-293.805 1136.72,-297.524 1136.87,-290.526"/>
</g>
<!-- Node23 -->
<g id="node23" class="node"><title>Node23</title>
<g id="a_node23"><a xlink:href="$classAC__Circle.html#a20eefa0e2e7172498728dbf1f5eed4af" xlink:title="AC_Circle::init">
<polygon fill="white" stroke="black" points="1230.5,-195.5 1230.5,-214.5 1310.5,-214.5 1310.5,-195.5 1230.5,-195.5"/>
<text text-anchor="middle" x="1270.5" y="-202.5" font-family="Helvetica,sans-Serif" font-size="10.00">AC_Circle::init</text>
</a>
</g>
</g>
<!-- Node22&#45;&gt;Node23 -->
<g id="edge27" class="edge"><title>Node22&#45;&gt;Node23</title>
<path fill="none" stroke="midnightblue" d="M1120.92,-273.491C1132.05,-268.044 1143.72,-261.751 1154,-255 1171.65,-243.413 1171.2,-233.614 1190,-224 1202.38,-217.668 1216.93,-213.399 1230.18,-210.542"/>
<polygon fill="midnightblue" stroke="midnightblue" points="1119.26,-270.402 1111.74,-277.858 1122.27,-276.724 1119.26,-270.402"/>
</g>
<!-- Node24 -->
<g id="node24" class="node"><title>Node24</title>
<g id="a_node24"><a xlink:href="$classAC__WPNav.html#a7f711c7661c335417cbcc28f9546688c" xlink:title="get_loiter_bearing_to_target &#45; get bearing to loiter target in centi&#45;degrees ">
<polygon fill="white" stroke="black" points="1212.5,-234 1212.5,-264 1328.5,-264 1328.5,-234 1212.5,-234"/>
<text text-anchor="start" x="1220.5" y="-252" font-family="Helvetica,sans-Serif" font-size="10.00">AC_WPNav::get_loiter</text>
<text text-anchor="middle" x="1270.5" y="-241" font-family="Helvetica,sans-Serif" font-size="10.00">_bearing_to_target</text>
</a>
</g>
</g>
<!-- Node22&#45;&gt;Node24 -->
<g id="edge28" class="edge"><title>Node22&#45;&gt;Node24</title>
<path fill="none" stroke="midnightblue" d="M1136.5,-279.164C1160.69,-273.679 1188.35,-267.404 1212.17,-262.004"/>
<polygon fill="midnightblue" stroke="midnightblue" points="1135.7,-275.757 1126.72,-281.382 1137.25,-282.583 1135.7,-275.757"/>
</g>
<!-- Node26 -->
<g id="node26" class="node"><title>Node26</title>
<g id="a_node26"><a xlink:href="$classAC__WPNav.html#a38519fcac3a24cf64ec7c37e90fc3e13" xlink:title="AC_WPNav::set_wp_destination">
<polygon fill="white" stroke="black" points="1190,-157.5 1190,-176.5 1351,-176.5 1351,-157.5 1190,-157.5"/>
<text text-anchor="middle" x="1270.5" y="-164.5" font-family="Helvetica,sans-Serif" font-size="10.00">AC_WPNav::set_wp_destination</text>
</a>
</g>
</g>
<!-- Node22&#45;&gt;Node26 -->
<g id="edge30" class="edge"><title>Node22&#45;&gt;Node26</title>
<path fill="none" stroke="midnightblue" d="M1127.98,-273.432C1137.35,-268.383 1146.51,-262.272 1154,-255 1178.82,-230.912 1162.72,-207.269 1190,-186 1194.92,-182.161 1200.5,-179.08 1206.37,-176.61"/>
<polygon fill="midnightblue" stroke="midnightblue" points="1126.34,-270.338 1118.97,-277.95 1129.48,-276.595 1126.34,-270.338"/>
</g>
<!-- Node22&#45;&gt;Node27 -->
<g id="edge31" class="edge"><title>Node22&#45;&gt;Node27</title>
<path fill="none" stroke="midnightblue" d="M1136.59,-306.855C1160.99,-312.39 1188.92,-318.724 1212.86,-324.154"/>
<polygon fill="midnightblue" stroke="midnightblue" points="1137.25,-303.417 1126.72,-304.618 1135.7,-310.243 1137.25,-303.417"/>
</g>
<!-- Node29 -->
<g id="node29" class="node"><title>Node29</title>
<g id="a_node29"><a xlink:href="$classAC__WPNav.html#a8caabd95cf51512456cd8d81f38dbff9" xlink:title="AC_WPNav::set_spline\l_destination">
<polygon fill="white" stroke="black" points="1210,-536 1210,-566 1331,-566 1331,-536 1210,-536"/>
<text text-anchor="start" x="1218" y="-554" font-family="Helvetica,sans-Serif" font-size="10.00">AC_WPNav::set_spline</text>
<text text-anchor="middle" x="1270.5" y="-543" font-family="Helvetica,sans-Serif" font-size="10.00">_destination</text>
</a>
</g>
</g>
<!-- Node22&#45;&gt;Node29 -->
<g id="edge33" class="edge"><title>Node22&#45;&gt;Node29</title>
<path fill="none" stroke="midnightblue" d="M1109,-313.881C1124.4,-324.856 1141.89,-339.463 1154,-356 1180.18,-391.763 1168.14,-410.442 1190,-449 1208.93,-482.4 1238.04,-516.69 1255.29,-535.779"/>
<polygon fill="midnightblue" stroke="midnightblue" points="1110.93,-310.959 1100.71,-308.168 1106.96,-316.723 1110.93,-310.959"/>
</g>
<!-- Node25 -->
<g id="node25" class="node"><title>Node25</title>
<g id="a_node25"><a xlink:href="$classAC__WPNav.html#a828016e98938c6bbb6236e0b92e20807" xlink:title="get_loiter_distance_to_target &#45; get horizontal distance to loiter target in cm ">
<polygon fill="white" stroke="black" points="1399,-234 1399,-264 1515,-264 1515,-234 1399,-234"/>
<text text-anchor="start" x="1407" y="-252" font-family="Helvetica,sans-Serif" font-size="10.00">AC_WPNav::get_loiter</text>
<text text-anchor="middle" x="1457" y="-241" font-family="Helvetica,sans-Serif" font-size="10.00">_distance_to_target</text>
</a>
</g>
</g>
<!-- Node24&#45;&gt;Node25 -->
<g id="edge29" class="edge"><title>Node24&#45;&gt;Node25</title>
<path fill="none" stroke="midnightblue" d="M1338.75,-249C1358.46,-249 1379.82,-249 1398.84,-249"/>
<polygon fill="midnightblue" stroke="midnightblue" points="1338.61,-245.5 1328.61,-249 1338.61,-252.5 1338.61,-245.5"/>
</g>
<!-- Node28 -->
<g id="node28" class="node"><title>Node28</title>
<g id="a_node28"><a xlink:href="$classAC__WPNav.html#acc07b8521654cf468b6a86fad9104a4c" xlink:title="get origin using position vector (distance from home in cm) ">
<polygon fill="white" stroke="black" points="1388.5,-327.5 1388.5,-346.5 1525.5,-346.5 1525.5,-327.5 1388.5,-327.5"/>
<text text-anchor="middle" x="1457" y="-334.5" font-family="Helvetica,sans-Serif" font-size="10.00">AC_WPNav::get_wp_origin</text>
</a>
</g>
</g>
<!-- Node27&#45;&gt;Node28 -->
<g id="edge32" class="edge"><title>Node27&#45;&gt;Node28</title>
<path fill="none" stroke="midnightblue" d="M1338.13,-337C1354.51,-337 1372.05,-337 1388.47,-337"/>
<polygon fill="midnightblue" stroke="midnightblue" points="1338.11,-333.5 1328.11,-337 1338.11,-340.5 1338.11,-333.5"/>
</g>
<!-- Node31 -->
<g id="node31" class="node"><title>Node31</title>
<g id="a_node31"><a xlink:href="$classAC__PosControl.html#ae2897de0075f8f8aaa94eb7e8cad100b" xlink:title="xyz velocity controller ">
<polygon fill="white" stroke="black" points="1022.5,-216 1022.5,-246 1126.5,-246 1126.5,-216 1022.5,-216"/>
<text text-anchor="start" x="1030.5" y="-234" font-family="Helvetica,sans-Serif" font-size="10.00">AC_PosControl::init</text>
<text text-anchor="middle" x="1074.5" y="-223" font-family="Helvetica,sans-Serif" font-size="10.00">_vel_controller_xyz</text>
</a>
</g>
</g>
<!-- Node30&#45;&gt;Node31 -->
<g id="edge36" class="edge"><title>Node30&#45;&gt;Node31</title>
<path fill="none" stroke="midnightblue" d="M956.183,-221.799C977.73,-223.489 1001.71,-225.369 1022.34,-226.988"/>
<polygon fill="midnightblue" stroke="midnightblue" points="956.394,-218.305 946.151,-221.012 955.847,-225.283 956.394,-218.305"/>
</g>
<!-- Node31&#45;&gt;Node12 -->
<g id="edge37" class="edge"><title>Node31&#45;&gt;Node12</title>
<path fill="none" stroke="midnightblue" d="M1012.22,-235.853C961.377,-241.599 888.104,-253.924 829,-280 798.624,-293.401 768.59,-317.95 750.926,-333.863"/>
<polygon fill="midnightblue" stroke="midnightblue" points="1012.83,-239.308 1022.4,-234.757 1012.08,-232.348 1012.83,-239.308"/>
</g>
<!-- Node33 -->
<g id="node33" class="node"><title>Node33</title>
<g id="a_node33"><a xlink:href="$classAC__WPNav.html#af37186ad98df47275d15c04761f81ab4" xlink:title="provide rangefinder altitude ">
<polygon fill="white" stroke="black" points="995,-158.5 995,-177.5 1154,-177.5 1154,-158.5 995,-158.5"/>
<text text-anchor="middle" x="1074.5" y="-165.5" font-family="Helvetica,sans-Serif" font-size="10.00">AC_WPNav::set_rangefinder_alt</text>
</a>
</g>
</g>
<!-- Node32&#45;&gt;Node33 -->
<g id="edge39" class="edge"><title>Node32&#45;&gt;Node33</title>
<path fill="none" stroke="midnightblue" d="M969.378,-168C977.821,-168 986.447,-168 994.941,-168"/>
<polygon fill="midnightblue" stroke="midnightblue" points="969.19,-164.5 959.19,-168 969.19,-171.5 969.19,-164.5"/>
</g>
<!-- Node34&#45;&gt;Node8 -->
<g id="edge49" class="edge"><title>Node34&#45;&gt;Node8</title>
<path fill="none" stroke="midnightblue" d="M1145.36,-641.882C1257.61,-646.513 1475.85,-655.517 1577.91,-659.727"/>
<polygon fill="midnightblue" stroke="midnightblue" points="1145.3,-638.377 1135.16,-641.461 1145.01,-645.371 1145.3,-638.377"/>
</g>
<!-- Node34&#45;&gt;Node29 -->
<g id="edge48" class="edge"><title>Node34&#45;&gt;Node29</title>
<path fill="none" stroke="midnightblue" d="M1118.01,-619.716C1153.57,-603.587 1203.58,-580.901 1236.26,-566.077"/>
<polygon fill="midnightblue" stroke="midnightblue" points="1116.51,-616.554 1108.85,-623.872 1119.4,-622.929 1116.51,-616.554"/>
</g>
<!-- Node36 -->
<g id="node36" class="node"><title>Node36</title>
<g id="a_node36"><a xlink:href="$classAC__PosControl.html#a9113b44ed876dd2d9a326eb59f3d625a" xlink:title="AC_PosControl::get\l_alt_target">
<polygon fill="white" stroke="black" points="328.5,-199 328.5,-229 432.5,-229 432.5,-199 328.5,-199"/>
<text text-anchor="start" x="336.5" y="-217" font-family="Helvetica,sans-Serif" font-size="10.00">AC_PosControl::get</text>
<text text-anchor="middle" x="380.5" y="-206" font-family="Helvetica,sans-Serif" font-size="10.00">_alt_target</text>
</a>
</g>
</g>
<!-- Node35&#45;&gt;Node36 -->
<g id="edge53" class="edge"><title>Node35&#45;&gt;Node36</title>
<path fill="none" stroke="midnightblue" d="M267.363,-214C287.347,-214 309.303,-214 328.448,-214"/>
<polygon fill="midnightblue" stroke="midnightblue" points="267.117,-210.5 257.117,-214 267.117,-217.5 267.117,-210.5"/>
</g>
<!-- Node38 -->
<g id="node38" class="node"><title>Node38</title>
<g id="a_node38"><a xlink:href="$classAC__Circle.html#aeecf8efd6d546820ee831e749935df8b" xlink:title="AC_Circle::init">
<polygon fill="white" stroke="black" points="340.5,-160.5 340.5,-179.5 420.5,-179.5 420.5,-160.5 340.5,-160.5"/>
<text text-anchor="middle" x="380.5" y="-167.5" font-family="Helvetica,sans-Serif" font-size="10.00">AC_Circle::init</text>
</a>
</g>
</g>
<!-- Node35&#45;&gt;Node38 -->
<g id="edge56" class="edge"><title>Node35&#45;&gt;Node38</title>
<path fill="none" stroke="midnightblue" d="M267.016,-197.752C278.305,-194.8 290.001,-191.778 301,-189 313.779,-185.772 327.758,-182.353 340.332,-179.319"/>
<polygon fill="midnightblue" stroke="midnightblue" points="266.012,-194.397 257.227,-200.32 267.788,-201.168 266.012,-194.397"/>
</g>
<!-- Node36&#45;&gt;Node16 -->
<g id="edge54" class="edge"><title>Node36&#45;&gt;Node16</title>
<path fill="none" stroke="midnightblue" d="M442.07,-201.529C448.695,-198.273 454.88,-194.171 460,-189 498.281,-150.341 453.923,-106.489 496,-72 577.881,-4.88574 627.128,-48 733,-48 733,-48 733,-48 895,-48 1090.83,-48 1321.67,-94.0395 1414.39,-114.452"/>
<polygon fill="midnightblue" stroke="midnightblue" points="440.654,-198.327 432.822,-205.463 443.394,-204.769 440.654,-198.327"/>
</g>
<!-- Node37 -->
<g id="node37" class="node"><title>Node37</title>
<g id="a_node37"><a xlink:href="$classAC__WPNav.html#a8542028b741ca81881b9e00d42cc2eea" xlink:title="get_desired_alt &#45; get desired altitude (in cm above home) from loiter or wp controller which should b...">
<polygon fill="white" stroke="black" points="496,-0.5 496,-19.5 639,-19.5 639,-0.5 496,-0.5"/>
<text text-anchor="middle" x="567.5" y="-7.5" font-family="Helvetica,sans-Serif" font-size="10.00">AC_WPNav::get_desired_alt</text>
</a>
</g>
</g>
<!-- Node36&#45;&gt;Node37 -->
<g id="edge55" class="edge"><title>Node36&#45;&gt;Node37</title>
<path fill="none" stroke="midnightblue" d="M442.159,-202.003C448.827,-198.67 454.998,-194.419 460,-189 507.966,-137.029 448.551,-86.4431 496,-34 501.725,-27.6722 509.184,-23.012 517.103,-19.5801"/>
<polygon fill="midnightblue" stroke="midnightblue" points="440.638,-198.847 432.824,-206.002 443.394,-205.281 440.638,-198.847"/>
</g>
<!-- Node39&#45;&gt;Node11 -->
<g id="edge58" class="edge"><title>Node39&#45;&gt;Node11</title>
<path fill="none" stroke="midnightblue" d="M275.215,-427.416C342.527,-431.71 443.68,-438.164 507.342,-442.226"/>
<polygon fill="midnightblue" stroke="midnightblue" points="275.328,-423.916 265.126,-426.772 274.882,-430.902 275.328,-423.916"/>
</g>
<!-- Node39&#45;&gt;Node36 -->
<g id="edge59" class="edge"><title>Node39&#45;&gt;Node36</title>
<path fill="none" stroke="midnightblue" d="M225.055,-400.046C260.761,-357.035 336.841,-265.388 366.902,-229.175"/>
<polygon fill="midnightblue" stroke="midnightblue" points="222.172,-398.039 218.478,-407.969 227.558,-402.511 222.172,-398.039"/>
</g>
</g>
</svg>
