<?xml version="1.0" encoding="UTF-8" standalone="no"?>
<!DOCTYPE svg PUBLIC "-//W3C//DTD SVG 1.1//EN"
 "http://www.w3.org/Graphics/SVG/1.1/DTD/svg11.dtd">
<!-- Generated by graphviz version 2.38.0 (20140413.2041)
 -->
<!-- Title: AC_AttitudeControl_Multi::update_althold_lean_angle_max Pages: 1 -->
<svg width="569pt" height="173pt"
 viewBox="0.00 0.00 569.00 172.50" xmlns="http://www.w3.org/2000/svg" xmlns:xlink="http://www.w3.org/1999/xlink">
<g id="graph0" class="graph" transform="scale(1 1) rotate(0) translate(4 168.5)">
<title>AC_AttitudeControl_Multi::update_althold_lean_angle_max</title>
<polygon fill="white" stroke="none" points="-4,4 -4,-168.5 565,-168.5 565,4 -4,4"/>
<!-- Node1 -->
<g id="node1" class="node"><title>Node1</title>
<polygon fill="#bfbfbf" stroke="black" points="0,-84.5 0,-125.5 112,-125.5 112,-84.5 0,-84.5"/>
<text text-anchor="start" x="8" y="-113.5" font-family="Helvetica,sans-Serif" font-size="10.00">AC_AttitudeControl</text>
<text text-anchor="start" x="8" y="-102.5" font-family="Helvetica,sans-Serif" font-size="10.00">_Multi::update_althold</text>
<text text-anchor="middle" x="56" y="-91.5" font-family="Helvetica,sans-Serif" font-size="10.00">_lean_angle_max</text>
</g>
<!-- Node2 -->
<g id="node2" class="node"><title>Node2</title>
<g id="a_node2"><a xlink:href="$classAP__MotorsMulticopter.html#ade105370d07830c76c62cc26d6f7cbaf" xlink:title="AP_MotorsMulticopter\l::get_throttle_thrust_max">
<polygon fill="white" stroke="black" points="148,-134 148,-164 273,-164 273,-134 148,-134"/>
<text text-anchor="start" x="156" y="-152" font-family="Helvetica,sans-Serif" font-size="10.00">AP_MotorsMulticopter</text>
<text text-anchor="middle" x="210.5" y="-141" font-family="Helvetica,sans-Serif" font-size="10.00">::get_throttle_thrust_max</text>
</a>
</g>
</g>
<!-- Node1&#45;&gt;Node2 -->
<g id="edge1" class="edge"><title>Node1&#45;&gt;Node2</title>
<path fill="none" stroke="midnightblue" d="M112.056,-120.885C123.587,-124.212 135.82,-127.742 147.582,-131.135"/>
<polygon fill="midnightblue" stroke="midnightblue" points="146.746,-134.537 157.325,-133.946 148.687,-127.811 146.746,-134.537"/>
</g>
<!-- Node3 -->
<g id="node3" class="node"><title>Node3</title>
<g id="a_node3"><a xlink:href="$AP__Math_8h.html#a2a12cce483e9b870da70d30406d82c60" xlink:title="is_zero">
<polygon fill="white" stroke="black" points="186.5,-95.5 186.5,-114.5 234.5,-114.5 234.5,-95.5 186.5,-95.5"/>
<text text-anchor="middle" x="210.5" y="-102.5" font-family="Helvetica,sans-Serif" font-size="10.00">is_zero</text>
</a>
</g>
</g>
<!-- Node1&#45;&gt;Node3 -->
<g id="edge2" class="edge"><title>Node1&#45;&gt;Node3</title>
<path fill="none" stroke="midnightblue" d="M112.056,-105C133.552,-105 157.488,-105 176.258,-105"/>
<polygon fill="midnightblue" stroke="midnightblue" points="176.38,-108.5 186.38,-105 176.38,-101.5 176.38,-108.5"/>
</g>
<!-- Node4 -->
<g id="node4" class="node"><title>Node4</title>
<g id="a_node4"><a xlink:href="$AP__Math_8h.html#ad525609d9dba6ffa556a0fbf08a3f9b4" xlink:title="constrain_float">
<polygon fill="white" stroke="black" points="170.5,-57.5 170.5,-76.5 250.5,-76.5 250.5,-57.5 170.5,-57.5"/>
<text text-anchor="middle" x="210.5" y="-64.5" font-family="Helvetica,sans-Serif" font-size="10.00">constrain_float</text>
</a>
</g>
</g>
<!-- Node1&#45;&gt;Node4 -->
<g id="edge3" class="edge"><title>Node1&#45;&gt;Node4</title>
<path fill="none" stroke="midnightblue" d="M112.056,-91.2811C128.153,-87.2701 145.618,-82.9181 161.258,-79.0209"/>
<polygon fill="midnightblue" stroke="midnightblue" points="162.382,-82.3479 171.239,-76.5338 160.69,-75.5556 162.382,-82.3479"/>
</g>
<!-- Node5 -->
<g id="node5" class="node"><title>Node5</title>
<g id="a_node5"><a xlink:href="$AP__Math_8h.html#a20e8f8671c282c69c1954652b6d61585" xlink:title="constrain_value">
<polygon fill="white" stroke="black" points="309,-57.5 309,-76.5 394,-76.5 394,-57.5 309,-57.5"/>
<text text-anchor="middle" x="351.5" y="-64.5" font-family="Helvetica,sans-Serif" font-size="10.00">constrain_value</text>
</a>
</g>
</g>
<!-- Node4&#45;&gt;Node5 -->
<g id="edge4" class="edge"><title>Node4&#45;&gt;Node5</title>
<path fill="none" stroke="midnightblue" d="M250.589,-67C265.476,-67 282.681,-67 298.574,-67"/>
<polygon fill="midnightblue" stroke="midnightblue" points="298.791,-70.5001 308.791,-67 298.791,-63.5001 298.791,-70.5001"/>
</g>
<!-- Node6 -->
<g id="node6" class="node"><title>Node6</title>
<g id="a_node6"><a xlink:href="$AP__Math_8cpp.html#a37e8e901754cb9c8e53a8e3030c82c50" xlink:title="constrain_value\&lt; int \&gt;">
<polygon fill="white" stroke="black" points="439,-114.5 439,-133.5 552,-133.5 552,-114.5 439,-114.5"/>
<text text-anchor="middle" x="495.5" y="-121.5" font-family="Helvetica,sans-Serif" font-size="10.00">constrain_value&lt; int &gt;</text>
</a>
</g>
</g>
<!-- Node5&#45;&gt;Node6 -->
<g id="edge5" class="edge"><title>Node5&#45;&gt;Node6</title>
<path fill="none" stroke="midnightblue" d="M369.97,-76.6284C385.432,-84.891 408.774,-96.7384 430,-105 435.854,-107.278 442.097,-109.439 448.307,-111.429"/>
<polygon fill="midnightblue" stroke="midnightblue" points="447.389,-114.809 457.977,-114.411 449.452,-108.12 447.389,-114.809"/>
</g>
<!-- Node7 -->
<g id="node7" class="node"><title>Node7</title>
<g id="a_node7"><a xlink:href="$AP__Math_8cpp.html#afdbe107ec1987d318a6347816fbf2b89" xlink:title="constrain_value\&lt; short \&gt;">
<polygon fill="white" stroke="black" points="433,-76.5 433,-95.5 558,-95.5 558,-76.5 433,-76.5"/>
<text text-anchor="middle" x="495.5" y="-83.5" font-family="Helvetica,sans-Serif" font-size="10.00">constrain_value&lt; short &gt;</text>
</a>
</g>
</g>
<!-- Node5&#45;&gt;Node7 -->
<g id="edge6" class="edge"><title>Node5&#45;&gt;Node7</title>
<path fill="none" stroke="midnightblue" d="M394.337,-72.5979C403.323,-73.8003 413.064,-75.1036 422.821,-76.4092"/>
<polygon fill="midnightblue" stroke="midnightblue" points="422.589,-79.9093 432.965,-77.7665 423.518,-72.9711 422.589,-79.9093"/>
</g>
<!-- Node8 -->
<g id="node8" class="node"><title>Node8</title>
<g id="a_node8"><a xlink:href="$AP__Math_8cpp.html#ae6c621670c214da687de21d4e3a92587" xlink:title="constrain_value\&lt; float \&gt;">
<polygon fill="white" stroke="black" points="434.5,-38.5 434.5,-57.5 556.5,-57.5 556.5,-38.5 434.5,-38.5"/>
<text text-anchor="middle" x="495.5" y="-45.5" font-family="Helvetica,sans-Serif" font-size="10.00">constrain_value&lt; float &gt;</text>
</a>
</g>
</g>
<!-- Node5&#45;&gt;Node8 -->
<g id="edge7" class="edge"><title>Node5&#45;&gt;Node8</title>
<path fill="none" stroke="midnightblue" d="M394.337,-61.4021C403.724,-60.146 413.935,-58.7798 424.129,-57.4159"/>
<polygon fill="midnightblue" stroke="midnightblue" points="424.838,-60.8522 434.286,-56.0568 423.91,-53.9141 424.838,-60.8522"/>
</g>
<!-- Node9 -->
<g id="node9" class="node"><title>Node9</title>
<g id="a_node9"><a xlink:href="$AP__Math_8cpp.html#afe3990b00e9abc43fa97dfaf8e32f5c4" xlink:title="constrain_value\&lt; double \&gt;">
<polygon fill="white" stroke="black" points="430,-0.5 430,-19.5 561,-19.5 561,-0.5 430,-0.5"/>
<text text-anchor="middle" x="495.5" y="-7.5" font-family="Helvetica,sans-Serif" font-size="10.00">constrain_value&lt; double &gt;</text>
</a>
</g>
</g>
<!-- Node5&#45;&gt;Node9 -->
<g id="edge8" class="edge"><title>Node5&#45;&gt;Node9</title>
<path fill="none" stroke="midnightblue" d="M369.97,-57.3716C385.432,-49.109 408.774,-37.2616 430,-29 435.854,-26.7215 442.097,-24.5614 448.307,-22.5705"/>
<polygon fill="midnightblue" stroke="midnightblue" points="449.452,-25.88 457.977,-19.5887 447.389,-19.1908 449.452,-25.88"/>
</g>
</g>
</svg>
