<?xml version="1.0" encoding="UTF-8" standalone="no"?>
<!DOCTYPE svg PUBLIC "-//W3C//DTD SVG 1.1//EN"
 "http://www.w3.org/Graphics/SVG/1.1/DTD/svg11.dtd">
<!-- Generated by graphviz version 2.38.0 (20140413.2041)
 -->
<!-- Title: AC_AttitudeControl::sqrt_controller Pages: 1 -->
<svg width="342pt" height="161pt"
 viewBox="0.00 0.00 342.00 161.00" xmlns="http://www.w3.org/2000/svg" xmlns:xlink="http://www.w3.org/1999/xlink">
<g id="graph0" class="graph" transform="scale(1 1) rotate(0) translate(4 157)">
<title>AC_AttitudeControl::sqrt_controller</title>
<polygon fill="white" stroke="none" points="-4,4 -4,-157 338,-157 338,4 -4,4"/>
<!-- Node1 -->
<g id="node1" class="node"><title>Node1</title>
<polygon fill="#bfbfbf" stroke="black" points="0,-90 0,-120 101,-120 101,-90 0,-90"/>
<text text-anchor="start" x="8" y="-108" font-family="Helvetica,sans-Serif" font-size="10.00">AC_AttitudeControl</text>
<text text-anchor="middle" x="50.5" y="-97" font-family="Helvetica,sans-Serif" font-size="10.00">::sqrt_controller</text>
</g>
<!-- Node2 -->
<g id="node2" class="node"><title>Node2</title>
<g id="a_node2"><a xlink:href="$AP__Math_8h.html#a2a12cce483e9b870da70d30406d82c60" xlink:title="is_zero">
<polygon fill="white" stroke="black" points="141.5,-133.5 141.5,-152.5 189.5,-152.5 189.5,-133.5 141.5,-133.5"/>
<text text-anchor="middle" x="165.5" y="-140.5" font-family="Helvetica,sans-Serif" font-size="10.00">is_zero</text>
</a>
</g>
</g>
<!-- Node1&#45;&gt;Node2 -->
<g id="edge1" class="edge"><title>Node1&#45;&gt;Node2</title>
<path fill="none" stroke="midnightblue" d="M96.1606,-120.019C107.969,-123.989 120.499,-128.203 131.561,-131.923"/>
<polygon fill="midnightblue" stroke="midnightblue" points="130.651,-135.31 141.245,-135.18 132.882,-128.675 130.651,-135.31"/>
</g>
<!-- Node3 -->
<g id="node3" class="node"><title>Node3</title>
<g id="a_node3"><a xlink:href="$AP__Math_8h.html#a0375e3d67fd3911cacee5c3e1408c0f2" xlink:title="sq">
<polygon fill="white" stroke="black" points="151,-95.5 151,-114.5 180,-114.5 180,-95.5 151,-95.5"/>
<text text-anchor="middle" x="165.5" y="-102.5" font-family="Helvetica,sans-Serif" font-size="10.00">sq</text>
</a>
</g>
</g>
<!-- Node1&#45;&gt;Node3 -->
<g id="edge2" class="edge"><title>Node1&#45;&gt;Node3</title>
<path fill="none" stroke="midnightblue" d="M101.063,-105C114.725,-105 128.935,-105 140.435,-105"/>
<polygon fill="midnightblue" stroke="midnightblue" points="140.524,-108.5 150.524,-105 140.524,-101.5 140.524,-108.5"/>
</g>
<!-- Node4 -->
<g id="node4" class="node"><title>Node4</title>
<g id="a_node4"><a xlink:href="$AP__Math_8cpp.html#ac89eb1832d8e4d67fcf1ac07e3c25184" xlink:title="safe_sqrt">
<polygon fill="white" stroke="black" points="137,-57.5 137,-76.5 194,-76.5 194,-57.5 137,-57.5"/>
<text text-anchor="middle" x="165.5" y="-64.5" font-family="Helvetica,sans-Serif" font-size="10.00">safe_sqrt</text>
</a>
</g>
</g>
<!-- Node1&#45;&gt;Node4 -->
<g id="edge3" class="edge"><title>Node1&#45;&gt;Node4</title>
<path fill="none" stroke="midnightblue" d="M96.1606,-89.9814C106.432,-86.5273 117.25,-82.8894 127.173,-79.5525"/>
<polygon fill="midnightblue" stroke="midnightblue" points="128.381,-82.8388 136.744,-76.3339 126.15,-76.2039 128.381,-82.8388"/>
</g>
<!-- Node5 -->
<g id="node5" class="node"><title>Node5</title>
<g id="a_node5"><a xlink:href="$AP__Math_8cpp.html#aa5cb9421d48def32eb7574adb1b152b0" xlink:title="safe_sqrt\&lt; int \&gt;">
<polygon fill="white" stroke="black" points="239,-114.5 239,-133.5 325,-133.5 325,-114.5 239,-114.5"/>
<text text-anchor="middle" x="282" y="-121.5" font-family="Helvetica,sans-Serif" font-size="10.00">safe_sqrt&lt; int &gt;</text>
</a>
</g>
</g>
<!-- Node4&#45;&gt;Node5 -->
<g id="edge4" class="edge"><title>Node4&#45;&gt;Node5</title>
<path fill="none" stroke="midnightblue" d="M180.71,-76.5312C193.312,-84.7315 212.398,-96.5421 230,-105 234.136,-106.987 238.538,-108.904 242.956,-110.706"/>
<polygon fill="midnightblue" stroke="midnightblue" points="241.969,-114.078 252.558,-114.45 244.512,-107.556 241.969,-114.078"/>
</g>
<!-- Node6 -->
<g id="node6" class="node"><title>Node6</title>
<g id="a_node6"><a xlink:href="$AP__Math_8cpp.html#a6952300e3d03222491051d674312b67d" xlink:title="safe_sqrt\&lt; short \&gt;">
<polygon fill="white" stroke="black" points="233.5,-76.5 233.5,-95.5 330.5,-95.5 330.5,-76.5 233.5,-76.5"/>
<text text-anchor="middle" x="282" y="-83.5" font-family="Helvetica,sans-Serif" font-size="10.00">safe_sqrt&lt; short &gt;</text>
</a>
</g>
</g>
<!-- Node4&#45;&gt;Node6 -->
<g id="edge5" class="edge"><title>Node4&#45;&gt;Node6</title>
<path fill="none" stroke="midnightblue" d="M194.217,-71.5994C203.053,-73.0656 213.181,-74.7462 223.327,-76.4298"/>
<polygon fill="midnightblue" stroke="midnightblue" points="222.993,-79.9222 233.431,-78.1065 224.139,-73.0166 222.993,-79.9222"/>
</g>
<!-- Node7 -->
<g id="node7" class="node"><title>Node7</title>
<g id="a_node7"><a xlink:href="$AP__Math_8cpp.html#a40ae6cfccff676d9d2ff57e2e9ca549c" xlink:title="safe_sqrt\&lt; float \&gt;">
<polygon fill="white" stroke="black" points="235,-38.5 235,-57.5 329,-57.5 329,-38.5 235,-38.5"/>
<text text-anchor="middle" x="282" y="-45.5" font-family="Helvetica,sans-Serif" font-size="10.00">safe_sqrt&lt; float &gt;</text>
</a>
</g>
</g>
<!-- Node4&#45;&gt;Node7 -->
<g id="edge6" class="edge"><title>Node4&#45;&gt;Node7</title>
<path fill="none" stroke="midnightblue" d="M194.217,-62.4006C203.446,-60.8692 214.084,-59.1039 224.68,-57.3456"/>
<polygon fill="midnightblue" stroke="midnightblue" points="225.487,-60.7597 234.779,-55.6698 224.341,-53.8541 225.487,-60.7597"/>
</g>
<!-- Node8 -->
<g id="node8" class="node"><title>Node8</title>
<g id="a_node8"><a xlink:href="$AP__Math_8cpp.html#acf6795fb73b8b915b53126f71cd2712a" xlink:title="safe_sqrt\&lt; double \&gt;">
<polygon fill="white" stroke="black" points="230,-0.5 230,-19.5 334,-19.5 334,-0.5 230,-0.5"/>
<text text-anchor="middle" x="282" y="-7.5" font-family="Helvetica,sans-Serif" font-size="10.00">safe_sqrt&lt; double &gt;</text>
</a>
</g>
</g>
<!-- Node4&#45;&gt;Node8 -->
<g id="edge7" class="edge"><title>Node4&#45;&gt;Node8</title>
<path fill="none" stroke="midnightblue" d="M180.71,-57.4688C193.312,-49.2685 212.398,-37.4579 230,-29 234.136,-27.0127 238.538,-25.0956 242.956,-23.2937"/>
<polygon fill="midnightblue" stroke="midnightblue" points="244.512,-26.4437 252.558,-19.5502 241.969,-19.9219 244.512,-26.4437"/>
</g>
</g>
</svg>
