<?xml version="1.0" encoding="UTF-8" standalone="no"?>
<!DOCTYPE svg PUBLIC "-//W3C//DTD SVG 1.1//EN"
 "http://www.w3.org/Graphics/SVG/1.1/DTD/svg11.dtd">
<!-- Generated by graphviz version 2.38.0 (20140413.2041)
 -->
<!-- Title: AC_PosControl::get_stopping_point_xy Pages: 1 -->
<svg width="1385pt" height="684pt"
 viewBox="0.00 0.00 1385.00 684.07" xmlns="http://www.w3.org/2000/svg" xmlns:xlink="http://www.w3.org/1999/xlink">
<g id="graph0" class="graph" transform="scale(1 1) rotate(0) translate(4 680.073)">
<title>AC_PosControl::get_stopping_point_xy</title>
<polygon fill="white" stroke="none" points="-4,4 -4,-680.073 1381,-680.073 1381,4 -4,4"/>
<!-- Node1 -->
<g id="node1" class="node"><title>Node1</title>
<polygon fill="#bfbfbf" stroke="black" points="0,-151.5 0,-181.5 104,-181.5 104,-151.5 0,-151.5"/>
<text text-anchor="start" x="8" y="-169.5" font-family="Helvetica,sans-Serif" font-size="10.00">AC_PosControl::get</text>
<text text-anchor="middle" x="52" y="-158.5" font-family="Helvetica,sans-Serif" font-size="10.00">_stopping_point_xy</text>
</g>
<!-- Node2 -->
<g id="node2" class="node"><title>Node2</title>
<g id="a_node2"><a xlink:href="$classAC__PosControl.html#ac150947d527995a72dff6ad0921a1891" xlink:title="freeze_ff_xy &#45; used to stop the feed forward being calculated during a known discontinuity ...">
<polygon fill="white" stroke="black" points="311,-400.5 311,-430.5 429,-430.5 429,-400.5 311,-400.5"/>
<text text-anchor="start" x="319" y="-418.5" font-family="Helvetica,sans-Serif" font-size="10.00">AC_PosControl::freeze</text>
<text text-anchor="middle" x="370" y="-407.5" font-family="Helvetica,sans-Serif" font-size="10.00">_ff_xy</text>
</a>
</g>
</g>
<!-- Node1&#45;&gt;Node2 -->
<g id="edge1" class="edge"><title>Node1&#45;&gt;Node2</title>
<path fill="none" stroke="midnightblue" d="M59.6238,-191.734C70.4575,-228.232 95.3622,-295.627 140,-334.5 188.498,-376.734 260.479,-397.394 310.755,-407.196"/>
<polygon fill="midnightblue" stroke="midnightblue" points="62.9248,-190.546 56.8213,-181.886 56.1921,-192.462 62.9248,-190.546"/>
</g>
<!-- Node24 -->
<g id="node24" class="node"><title>Node24</title>
<g id="a_node24"><a xlink:href="$classAC__WPNav.html#a8caabd95cf51512456cd8d81f38dbff9" xlink:title="AC_WPNav::set_spline\l_destination">
<polygon fill="white" stroke="black" points="882,-214.5 882,-244.5 1003,-244.5 1003,-214.5 882,-214.5"/>
<text text-anchor="start" x="890" y="-232.5" font-family="Helvetica,sans-Serif" font-size="10.00">AC_WPNav::set_spline</text>
<text text-anchor="middle" x="942.5" y="-221.5" font-family="Helvetica,sans-Serif" font-size="10.00">_destination</text>
</a>
</g>
</g>
<!-- Node1&#45;&gt;Node24 -->
<g id="edge43" class="edge"><title>Node1&#45;&gt;Node24</title>
<path fill="none" stroke="midnightblue" d="M114.374,-172.379C177.996,-177.96 280.365,-185.5 369,-185.5 369,-185.5 369,-185.5 557,-185.5 672.565,-185.5 806.409,-205.362 881.802,-218.397"/>
<polygon fill="midnightblue" stroke="midnightblue" points="114.388,-168.867 104.117,-171.467 113.768,-175.839 114.388,-168.867"/>
</g>
<!-- Node25 -->
<g id="node25" class="node"><title>Node25</title>
<g id="a_node25"><a xlink:href="$classAC__WPNav.html#a38519fcac3a24cf64ec7c37e90fc3e13" xlink:title="AC_WPNav::set_wp_destination">
<polygon fill="white" stroke="black" points="862,-138 862,-157 1023,-157 1023,-138 862,-138"/>
<text text-anchor="middle" x="942.5" y="-145" font-family="Helvetica,sans-Serif" font-size="10.00">AC_WPNav::set_wp_destination</text>
</a>
</g>
</g>
<!-- Node1&#45;&gt;Node25 -->
<g id="edge47" class="edge"><title>Node1&#45;&gt;Node25</title>
<path fill="none" stroke="midnightblue" d="M114.374,-160.621C177.996,-155.04 280.365,-147.5 369,-147.5 369,-147.5 369,-147.5 557,-147.5 662.47,-147.5 784.215,-147.5 861.969,-147.5"/>
<polygon fill="midnightblue" stroke="midnightblue" points="113.768,-157.161 104.117,-161.533 114.388,-164.133 113.768,-157.161"/>
</g>
<!-- Node28 -->
<g id="node28" class="node"><title>Node28</title>
<g id="a_node28"><a xlink:href="$classAC__WPNav.html#a2b0f45cd553e217e5ee44dfef68a674c" xlink:title="get_stopping_point &#45; returns vector to stopping point based on a horizontal position and velocity ...">
<polygon fill="white" stroke="black" points="141.5,-0.5 141.5,-30.5 257.5,-30.5 257.5,-0.5 141.5,-0.5"/>
<text text-anchor="start" x="149.5" y="-18.5" font-family="Helvetica,sans-Serif" font-size="10.00">AC_WPNav::get_loiter</text>
<text text-anchor="middle" x="199.5" y="-7.5" font-family="Helvetica,sans-Serif" font-size="10.00">_stopping_point_xy</text>
</a>
</g>
</g>
<!-- Node1&#45;&gt;Node28 -->
<g id="edge35" class="edge"><title>Node1&#45;&gt;Node28</title>
<path fill="none" stroke="midnightblue" d="M65.7203,-142.374C80.6413,-115.9 107.514,-73.4588 140,-45.5 146.661,-39.767 154.608,-34.7687 162.464,-30.5817"/>
<polygon fill="midnightblue" stroke="midnightblue" points="62.5358,-140.901 60.7755,-151.348 68.6668,-144.279 62.5358,-140.901"/>
</g>
<!-- Node30 -->
<g id="node30" class="node"><title>Node30</title>
<g id="a_node30"><a xlink:href="$classAC__WPNav.html#af0e7fe0007beee91d9d8e2a573838f21" xlink:title="get_wp_stopping_point &#45; returns vector to stopping point based on 3D position and velocity ...">
<polygon fill="white" stroke="black" points="295,-88.5 295,-118.5 445,-118.5 445,-88.5 295,-88.5"/>
<text text-anchor="start" x="303" y="-106.5" font-family="Helvetica,sans-Serif" font-size="10.00">AC_WPNav::get_wp_stopping</text>
<text text-anchor="middle" x="370" y="-95.5" font-family="Helvetica,sans-Serif" font-size="10.00">_point</text>
</a>
</g>
</g>
<!-- Node1&#45;&gt;Node30 -->
<g id="edge37" class="edge"><title>Node1&#45;&gt;Node30</title>
<path fill="none" stroke="midnightblue" d="M96.7409,-147.64C110.386,-142.376 125.629,-137.115 140,-133.5 190.94,-120.688 249.711,-113.132 294.96,-108.809"/>
<polygon fill="midnightblue" stroke="midnightblue" points="95.1313,-144.513 87.1232,-151.45 97.7094,-151.021 95.1313,-144.513"/>
</g>
<!-- Node31 -->
<g id="node31" class="node"><title>Node31</title>
<g id="a_node31"><a xlink:href="$classAC__WPNav.html#a180fb06a829a1e4168ceb24ca0c41e1f" xlink:title="get_wp_stopping_point_xy &#45; returns vector to stopping point based on a horizontal position and veloci...">
<polygon fill="white" stroke="black" points="481,-44.5 481,-74.5 631,-74.5 631,-44.5 481,-44.5"/>
<text text-anchor="start" x="489" y="-62.5" font-family="Helvetica,sans-Serif" font-size="10.00">AC_WPNav::get_wp_stopping</text>
<text text-anchor="middle" x="556" y="-51.5" font-family="Helvetica,sans-Serif" font-size="10.00">_point_xy</text>
</a>
</g>
</g>
<!-- Node1&#45;&gt;Node31 -->
<g id="edge39" class="edge"><title>Node1&#45;&gt;Node31</title>
<path fill="none" stroke="midnightblue" d="M79.5834,-145.215C96.0829,-133.021 118.228,-118.416 140,-109.5 252.487,-63.4328 395.437,-56.2436 480.831,-56.7785"/>
<polygon fill="midnightblue" stroke="midnightblue" points="77.3652,-142.504 71.5017,-151.328 81.5884,-148.086 77.3652,-142.504"/>
</g>
<!-- Node32 -->
<g id="node32" class="node"><title>Node32</title>
<g id="a_node32"><a xlink:href="$classAC__WPNav.html#a2ed86e41fc51c2ea822711ea95d055f0" xlink:title="init_brake_target &#45; initializes stop position from current position and velocity ">
<polygon fill="white" stroke="black" points="140,-214.5 140,-244.5 259,-244.5 259,-214.5 140,-214.5"/>
<text text-anchor="start" x="148" y="-232.5" font-family="Helvetica,sans-Serif" font-size="10.00">AC_WPNav::init_brake</text>
<text text-anchor="middle" x="199.5" y="-221.5" font-family="Helvetica,sans-Serif" font-size="10.00">_target</text>
</a>
</g>
</g>
<!-- Node1&#45;&gt;Node32 -->
<g id="edge41" class="edge"><title>Node1&#45;&gt;Node32</title>
<path fill="none" stroke="midnightblue" d="M97.0449,-185.571C118.404,-194.819 143.694,-205.77 163.682,-214.424"/>
<polygon fill="midnightblue" stroke="midnightblue" points="98.4183,-182.352 87.8509,-181.59 95.6369,-188.775 98.4183,-182.352"/>
</g>
<!-- Node33 -->
<g id="node33" class="node"><title>Node33</title>
<g id="a_node33"><a xlink:href="$classAC__PosControl.html#a1f4f9aac832250d36fe36a6be1ccbb84" xlink:title="set_target_to_stopping_point_xy &#45; sets horizontal target to reasonable stopping position in cm from h...">
<polygon fill="white" stroke="black" points="147.5,-284 147.5,-325 251.5,-325 251.5,-284 147.5,-284"/>
<text text-anchor="start" x="155.5" y="-313" font-family="Helvetica,sans-Serif" font-size="10.00">AC_PosControl::set</text>
<text text-anchor="start" x="155.5" y="-302" font-family="Helvetica,sans-Serif" font-size="10.00">_target_to_stopping</text>
<text text-anchor="middle" x="199.5" y="-291" font-family="Helvetica,sans-Serif" font-size="10.00">_point_xy</text>
</a>
</g>
</g>
<!-- Node1&#45;&gt;Node33 -->
<g id="edge44" class="edge"><title>Node1&#45;&gt;Node33</title>
<path fill="none" stroke="midnightblue" d="M74.8713,-189.209C92.2223,-207.019 117.256,-232.26 140,-253.5 150.931,-263.708 163.381,-274.652 173.977,-283.774"/>
<polygon fill="midnightblue" stroke="midnightblue" points="76.9523,-186.328 67.4756,-181.591 71.9295,-191.204 76.9523,-186.328"/>
</g>
<!-- Node3 -->
<g id="node3" class="node"><title>Node3</title>
<g id="a_node3"><a xlink:href="$classAC__WPNav.html#a9b3fd8fd5c74d31ebffa89cdf98f570a" xlink:title="loiter_soften_for_landing &#45; reduce response for landing ">
<polygon fill="white" stroke="black" points="491,-532.5 491,-562.5 621,-562.5 621,-532.5 491,-532.5"/>
<text text-anchor="start" x="499" y="-550.5" font-family="Helvetica,sans-Serif" font-size="10.00">AC_WPNav::loiter_soften</text>
<text text-anchor="middle" x="556" y="-539.5" font-family="Helvetica,sans-Serif" font-size="10.00">_for_landing</text>
</a>
</g>
</g>
<!-- Node2&#45;&gt;Node3 -->
<g id="edge2" class="edge"><title>Node2&#45;&gt;Node3</title>
<path fill="none" stroke="midnightblue" d="M390.924,-438.289C411.608,-460.834 445.811,-495.122 481,-517.5 490.007,-523.228 500.291,-528.224 510.268,-532.411"/>
<polygon fill="midnightblue" stroke="midnightblue" points="393.494,-435.913 384.192,-430.843 388.302,-440.608 393.494,-435.913"/>
</g>
<!-- Node5 -->
<g id="node5" class="node"><title>Node5</title>
<g id="a_node5"><a xlink:href="$classAC__PosControl.html#a26ec8e9313b7c01fa449ba4f2d194d28" xlink:title="AC_PosControl::set\l_desired_velocity">
<polygon fill="white" stroke="black" points="504,-444.5 504,-474.5 608,-474.5 608,-444.5 504,-444.5"/>
<text text-anchor="start" x="512" y="-462.5" font-family="Helvetica,sans-Serif" font-size="10.00">AC_PosControl::set</text>
<text text-anchor="middle" x="556" y="-451.5" font-family="Helvetica,sans-Serif" font-size="10.00">_desired_velocity</text>
</a>
</g>
</g>
<!-- Node2&#45;&gt;Node5 -->
<g id="edge4" class="edge"><title>Node2&#45;&gt;Node5</title>
<path fill="none" stroke="midnightblue" d="M438.953,-431.75C460.47,-436.895 483.873,-442.491 503.99,-447.302"/>
<polygon fill="midnightblue" stroke="midnightblue" points="439.759,-428.344 429.219,-429.422 438.131,-435.152 439.759,-428.344"/>
</g>
<!-- Node7 -->
<g id="node7" class="node"><title>Node7</title>
<g id="a_node7"><a xlink:href="$classAC__PosControl.html#a0a3dc64da9e355dea10959cb41e6aa8b" xlink:title="shift position target target in x, y axis ">
<polygon fill="white" stroke="black" points="501,-318.5 501,-348.5 611,-348.5 611,-318.5 501,-318.5"/>
<text text-anchor="start" x="509" y="-336.5" font-family="Helvetica,sans-Serif" font-size="10.00">AC_PosControl::shift</text>
<text text-anchor="middle" x="556" y="-325.5" font-family="Helvetica,sans-Serif" font-size="10.00">_pos_xy_target</text>
</a>
</g>
</g>
<!-- Node2&#45;&gt;Node7 -->
<g id="edge7" class="edge"><title>Node2&#45;&gt;Node7</title>
<path fill="none" stroke="midnightblue" d="M410.771,-396.036C431.565,-386.028 457.515,-373.802 481,-363.5 492.553,-358.432 505.243,-353.177 516.801,-348.507"/>
<polygon fill="midnightblue" stroke="midnightblue" points="409.088,-392.961 401.607,-400.463 412.133,-399.264 409.088,-392.961"/>
</g>
<!-- Node16 -->
<g id="node16" class="node"><title>Node16</title>
<g id="a_node16"><a xlink:href="$classAC__WPNav.html#a7dc4785fbce8364d7eb3d8e2d0c1b987" xlink:title="update_wpnav &#45; run the wp controller &#45; should be called at 100hz or higher ">
<polygon fill="white" stroke="black" points="1059,-618 1059,-637 1199,-637 1199,-618 1059,-618"/>
<text text-anchor="middle" x="1129" y="-625" font-family="Helvetica,sans-Serif" font-size="10.00">AC_WPNav::update_wpnav</text>
</a>
</g>
</g>
<!-- Node2&#45;&gt;Node16 -->
<g id="edge34" class="edge"><title>Node2&#45;&gt;Node16</title>
<path fill="none" stroke="midnightblue" d="M377.68,-440.417C390.219,-481.768 421.538,-563.654 481,-600.5 682.163,-725.151 989.957,-663.065 1093.01,-637.057"/>
<polygon fill="midnightblue" stroke="midnightblue" points="380.977,-439.223 374.826,-430.597 374.255,-441.176 380.977,-439.223"/>
</g>
<!-- Node18 -->
<g id="node18" class="node"><title>Node18</title>
<g id="a_node18"><a xlink:href="$classAC__WPNav.html#acc138e7bc6435087ab308896358de6a3" xlink:title="update_spline &#45; update spline controller ">
<polygon fill="white" stroke="black" points="1060.5,-567 1060.5,-586 1197.5,-586 1197.5,-567 1060.5,-567"/>
<text text-anchor="middle" x="1129" y="-574" font-family="Helvetica,sans-Serif" font-size="10.00">AC_WPNav::update_spline</text>
</a>
</g>
</g>
<!-- Node2&#45;&gt;Node18 -->
<g id="edge33" class="edge"><title>Node2&#45;&gt;Node18</title>
<path fill="none" stroke="midnightblue" d="M379.89,-440.119C394.546,-476.558 427.593,-543.547 481,-571.5 579.9,-623.263 915.211,-597.666 1060.24,-583.628"/>
<polygon fill="midnightblue" stroke="midnightblue" points="383.12,-438.768 376.242,-430.709 376.593,-441.298 383.12,-438.768"/>
</g>
<!-- Node26 -->
<g id="node26" class="node"><title>Node26</title>
<g id="a_node26"><a xlink:href="$classAC__WPNav.html#a7ebe48af2381e791cbcdea94c7af2e3e" xlink:title="AC_WPNav::shift_wp\l_origin_to_current_pos">
<polygon fill="white" stroke="black" points="885,-263.5 885,-293.5 1000,-293.5 1000,-263.5 885,-263.5"/>
<text text-anchor="start" x="893" y="-281.5" font-family="Helvetica,sans-Serif" font-size="10.00">AC_WPNav::shift_wp</text>
<text text-anchor="middle" x="942.5" y="-270.5" font-family="Helvetica,sans-Serif" font-size="10.00">_origin_to_current_pos</text>
</a>
</g>
</g>
<!-- Node2&#45;&gt;Node26 -->
<g id="edge32" class="edge"><title>Node2&#45;&gt;Node26</title>
<path fill="none" stroke="midnightblue" d="M387.111,-391.963C406.175,-366.305 440.495,-326.507 481,-308.5 615.705,-248.617 794.667,-259.318 884.677,-270.074"/>
<polygon fill="midnightblue" stroke="midnightblue" points="384.041,-390.235 381.019,-400.39 389.714,-394.336 384.041,-390.235"/>
</g>
<!-- Node4 -->
<g id="node4" class="node"><title>Node4</title>
<g id="a_node4"><a xlink:href="$classAC__WPNav.html#af37186ad98df47275d15c04761f81ab4" xlink:title="provide rangefinder altitude ">
<polygon fill="white" stroke="black" points="667,-538 667,-557 826,-557 826,-538 667,-538"/>
<text text-anchor="middle" x="746.5" y="-545" font-family="Helvetica,sans-Serif" font-size="10.00">AC_WPNav::set_rangefinder_alt</text>
</a>
</g>
</g>
<!-- Node3&#45;&gt;Node4 -->
<g id="edge3" class="edge"><title>Node3&#45;&gt;Node4</title>
<path fill="none" stroke="midnightblue" d="M631.241,-547.5C642.953,-547.5 655.096,-547.5 666.902,-547.5"/>
<polygon fill="midnightblue" stroke="midnightblue" points="631.081,-544 621.081,-547.5 631.08,-551 631.081,-544"/>
</g>
<!-- Node6 -->
<g id="node6" class="node"><title>Node6</title>
<g id="a_node6"><a xlink:href="$classAC__PosControl.html#ae2897de0075f8f8aaa94eb7e8cad100b" xlink:title="xyz velocity controller ">
<polygon fill="white" stroke="black" points="694.5,-444.5 694.5,-474.5 798.5,-474.5 798.5,-444.5 694.5,-444.5"/>
<text text-anchor="start" x="702.5" y="-462.5" font-family="Helvetica,sans-Serif" font-size="10.00">AC_PosControl::init</text>
<text text-anchor="middle" x="746.5" y="-451.5" font-family="Helvetica,sans-Serif" font-size="10.00">_vel_controller_xyz</text>
</a>
</g>
</g>
<!-- Node5&#45;&gt;Node6 -->
<g id="edge5" class="edge"><title>Node5&#45;&gt;Node6</title>
<path fill="none" stroke="midnightblue" d="M618.325,-459.5C642.937,-459.5 670.974,-459.5 694.448,-459.5"/>
<polygon fill="midnightblue" stroke="midnightblue" points="618.011,-456 608.011,-459.5 618.011,-463 618.011,-456"/>
</g>
<!-- Node6&#45;&gt;Node2 -->
<g id="edge6" class="edge"><title>Node6&#45;&gt;Node2</title>
<path fill="none" stroke="midnightblue" d="M684.551,-444.512C667.327,-440.735 648.506,-437.038 631,-434.5 562.022,-424.501 481.945,-419.656 429.084,-417.383"/>
<polygon fill="midnightblue" stroke="midnightblue" points="683.962,-447.966 694.486,-446.736 685.492,-441.136 683.962,-447.966"/>
</g>
<!-- Node8 -->
<g id="node8" class="node"><title>Node8</title>
<g id="a_node8"><a xlink:href="$classAC__PosControl.html#adcd8a80dc29c0e77d0c3f225689319b9" xlink:title="check for ekf position reset and adjust loiter or brake target position ">
<polygon fill="white" stroke="black" points="688,-356.5 688,-386.5 805,-386.5 805,-356.5 688,-356.5"/>
<text text-anchor="start" x="696" y="-374.5" font-family="Helvetica,sans-Serif" font-size="10.00">AC_PosControl::check</text>
<text text-anchor="middle" x="746.5" y="-363.5" font-family="Helvetica,sans-Serif" font-size="10.00">_for_ekf_xy_reset</text>
</a>
</g>
</g>
<!-- Node7&#45;&gt;Node8 -->
<g id="edge8" class="edge"><title>Node7&#45;&gt;Node8</title>
<path fill="none" stroke="midnightblue" d="M621.098,-346.422C642.737,-350.784 666.746,-355.624 687.854,-359.879"/>
<polygon fill="midnightblue" stroke="midnightblue" points="621.511,-342.935 611.017,-344.389 620.128,-349.796 621.511,-342.935"/>
</g>
<!-- Node20 -->
<g id="node20" class="node"><title>Node20</title>
<g id="a_node20"><a xlink:href="$classAC__PosControl.html#a6b3617b946ffd6935c11a63629f186ec" xlink:title="get_pos_target &#45; get target as position vector (from home in cm) ">
<polygon fill="white" stroke="black" points="694.5,-307.5 694.5,-337.5 798.5,-337.5 798.5,-307.5 694.5,-307.5"/>
<text text-anchor="start" x="702.5" y="-325.5" font-family="Helvetica,sans-Serif" font-size="10.00">AC_PosControl::get</text>
<text text-anchor="middle" x="746.5" y="-314.5" font-family="Helvetica,sans-Serif" font-size="10.00">_pos_target</text>
</a>
</g>
</g>
<!-- Node7&#45;&gt;Node20 -->
<g id="edge23" class="edge"><title>Node7&#45;&gt;Node20</title>
<path fill="none" stroke="midnightblue" d="M621.068,-329.761C644.982,-328.366 671.796,-326.801 694.391,-325.482"/>
<polygon fill="midnightblue" stroke="midnightblue" points="620.796,-326.271 611.017,-330.348 621.203,-333.259 620.796,-326.271"/>
</g>
<!-- Node9 -->
<g id="node9" class="node"><title>Node9</title>
<g id="a_node9"><a xlink:href="$classAC__PosControl.html#ad89eec74ef77005f3f5c449da98ad12c" xlink:title="AC_PosControl::update\l_vel_controller_xyz">
<polygon fill="white" stroke="black" points="882.5,-438.5 882.5,-468.5 1002.5,-468.5 1002.5,-438.5 882.5,-438.5"/>
<text text-anchor="start" x="890.5" y="-456.5" font-family="Helvetica,sans-Serif" font-size="10.00">AC_PosControl::update</text>
<text text-anchor="middle" x="942.5" y="-445.5" font-family="Helvetica,sans-Serif" font-size="10.00">_vel_controller_xyz</text>
</a>
</g>
</g>
<!-- Node8&#45;&gt;Node9 -->
<g id="edge9" class="edge"><title>Node8&#45;&gt;Node9</title>
<path fill="none" stroke="midnightblue" d="M800.837,-390.364C809.366,-393.813 818.009,-397.573 826,-401.5 842.829,-409.771 845.154,-415.265 862,-423.5 873.133,-428.942 885.519,-434.043 897.138,-438.44"/>
<polygon fill="midnightblue" stroke="midnightblue" points="801.883,-387.014 791.296,-386.609 799.32,-393.528 801.883,-387.014"/>
</g>
<!-- Node10 -->
<g id="node10" class="node"><title>Node10</title>
<g id="a_node10"><a xlink:href="$classAC__PosControl.html#a497c1799c10d146b6f2e2b542889c083" xlink:title="update_xy_controller &#45; run the horizontal position controller &#45; should be called at 100hz or higher ...">
<polygon fill="white" stroke="black" points="882.5,-488.5 882.5,-518.5 1002.5,-518.5 1002.5,-488.5 882.5,-488.5"/>
<text text-anchor="start" x="890.5" y="-506.5" font-family="Helvetica,sans-Serif" font-size="10.00">AC_PosControl::update</text>
<text text-anchor="middle" x="942.5" y="-495.5" font-family="Helvetica,sans-Serif" font-size="10.00">_xy_controller</text>
</a>
</g>
</g>
<!-- Node8&#45;&gt;Node10 -->
<g id="edge11" class="edge"><title>Node8&#45;&gt;Node10</title>
<path fill="none" stroke="midnightblue" d="M776.545,-392.613C791.866,-404.283 810.621,-419.437 826,-434.5 843.806,-451.941 841.358,-463.531 862,-477.5 868.254,-481.732 875.247,-485.318 882.422,-488.345"/>
<polygon fill="midnightblue" stroke="midnightblue" points="778.526,-389.723 768.43,-386.511 774.319,-395.318 778.526,-389.723"/>
</g>
<!-- Node9&#45;&gt;Node2 -->
<g id="edge10" class="edge"><title>Node9&#45;&gt;Node2</title>
<path fill="none" stroke="midnightblue" d="M872.388,-441.309C857.139,-438.849 841.047,-436.43 826,-434.5 739.672,-423.429 717.935,-420.671 631,-416.5 561.678,-413.174 481.841,-413.482 429.124,-414.259"/>
<polygon fill="midnightblue" stroke="midnightblue" points="871.833,-444.765 882.267,-442.927 872.964,-437.857 871.833,-444.765"/>
</g>
<!-- Node10&#45;&gt;Node2 -->
<g id="edge12" class="edge"><title>Node10&#45;&gt;Node2</title>
<path fill="none" stroke="midnightblue" d="M872.476,-511.139C780.781,-518.915 614.802,-524.676 481,-483.5 445.379,-472.538 409.702,-447.2 389.019,-430.74"/>
<polygon fill="midnightblue" stroke="midnightblue" points="872.815,-514.623 882.469,-510.258 872.2,-507.65 872.815,-514.623"/>
</g>
<!-- Node11 -->
<g id="node11" class="node"><title>Node11</title>
<g id="a_node11"><a xlink:href="$classAC__Circle.html#ad28205982ae7bc5f1e72f5285696c99b" xlink:title="update &#45; update circle controller ">
<polygon fill="white" stroke="black" points="1080.5,-514 1080.5,-533 1177.5,-533 1177.5,-514 1080.5,-514"/>
<text text-anchor="middle" x="1129" y="-521" font-family="Helvetica,sans-Serif" font-size="10.00">AC_Circle::update</text>
</a>
</g>
</g>
<!-- Node10&#45;&gt;Node11 -->
<g id="edge13" class="edge"><title>Node10&#45;&gt;Node11</title>
<path fill="none" stroke="midnightblue" d="M1012.81,-511.013C1035.3,-513.451 1059.72,-516.099 1080.27,-518.326"/>
<polygon fill="midnightblue" stroke="midnightblue" points="1012.96,-507.509 1002.64,-509.911 1012.2,-514.468 1012.96,-507.509"/>
</g>
<!-- Node13 -->
<g id="node13" class="node"><title>Node13</title>
<g id="a_node13"><a xlink:href="$classAC__WPNav.html#a0a434270245fd8641352af387700dc82" xlink:title="update_loiter &#45; run the loiter controller &#45; should be called at 10hz ">
<polygon fill="white" stroke="black" points="1063,-476 1063,-495 1195,-495 1195,-476 1063,-476"/>
<text text-anchor="middle" x="1129" y="-483" font-family="Helvetica,sans-Serif" font-size="10.00">AC_WPNav::update_loiter</text>
</a>
</g>
</g>
<!-- Node10&#45;&gt;Node13 -->
<g id="edge15" class="edge"><title>Node10&#45;&gt;Node13</title>
<path fill="none" stroke="midnightblue" d="M1012.7,-496.748C1029.12,-495.147 1046.58,-493.444 1062.81,-491.86"/>
<polygon fill="midnightblue" stroke="midnightblue" points="1012.25,-493.276 1002.64,-497.73 1012.93,-500.243 1012.25,-493.276"/>
</g>
<!-- Node15 -->
<g id="node15" class="node"><title>Node15</title>
<g id="a_node15"><a xlink:href="$classAC__WPNav.html#af9d3f98ad44166d4c5d072bf3ba4a3db" xlink:title="update_brake &#45; run the brake controller &#45; should be called at 400hz ">
<polygon fill="white" stroke="black" points="1061.5,-438 1061.5,-457 1196.5,-457 1196.5,-438 1061.5,-438"/>
<text text-anchor="middle" x="1129" y="-445" font-family="Helvetica,sans-Serif" font-size="10.00">AC_WPNav::update_brake</text>
</a>
</g>
</g>
<!-- Node10&#45;&gt;Node15 -->
<g id="edge17" class="edge"><title>Node10&#45;&gt;Node15</title>
<path fill="none" stroke="midnightblue" d="M998.622,-485.33C1017.69,-479.18 1039.24,-472.384 1059,-466.5 1069.72,-463.309 1081.43,-460.014 1092.11,-457.081"/>
<polygon fill="midnightblue" stroke="midnightblue" points="997.332,-482.069 988.897,-488.479 999.489,-488.729 997.332,-482.069"/>
</g>
<!-- Node10&#45;&gt;Node16 -->
<g id="edge19" class="edge"><title>Node10&#45;&gt;Node16</title>
<path fill="none" stroke="midnightblue" d="M967.477,-525.42C989.999,-545.305 1025.2,-574.619 1059,-595.5 1073.15,-604.245 1090.09,-612.134 1103.64,-617.89"/>
<polygon fill="midnightblue" stroke="midnightblue" points="969.571,-522.599 959.779,-518.554 964.912,-527.823 969.571,-522.599"/>
</g>
<!-- Node10&#45;&gt;Node18 -->
<g id="edge21" class="edge"><title>Node10&#45;&gt;Node18</title>
<path fill="none" stroke="midnightblue" d="M991.101,-522.334C1027.22,-536.626 1075.38,-555.681 1103.9,-566.964"/>
<polygon fill="midnightblue" stroke="midnightblue" points="992.315,-519.05 981.729,-518.626 989.739,-525.559 992.315,-519.05"/>
</g>
<!-- Node12 -->
<g id="node12" class="node"><title>Node12</title>
<g id="a_node12"><a xlink:href="$classAC__Circle.html#a176fe6b798510eb180d35f62d7f6487c" xlink:title="get_angle_total &#45; return total angle in radians that vehicle has circled ">
<polygon fill="white" stroke="black" points="1251,-508.5 1251,-538.5 1361,-538.5 1361,-508.5 1251,-508.5"/>
<text text-anchor="start" x="1259" y="-526.5" font-family="Helvetica,sans-Serif" font-size="10.00">AC_Circle::get_angle</text>
<text text-anchor="middle" x="1306" y="-515.5" font-family="Helvetica,sans-Serif" font-size="10.00">_total</text>
</a>
</g>
</g>
<!-- Node11&#45;&gt;Node12 -->
<g id="edge14" class="edge"><title>Node11&#45;&gt;Node12</title>
<path fill="none" stroke="midnightblue" d="M1187.86,-523.5C1208.12,-523.5 1230.79,-523.5 1250.75,-523.5"/>
<polygon fill="midnightblue" stroke="midnightblue" points="1187.82,-520 1177.82,-523.5 1187.82,-527 1187.82,-520"/>
</g>
<!-- Node14 -->
<g id="node14" class="node"><title>Node14</title>
<g id="a_node14"><a xlink:href="$classAC__WPNav.html#ae34a88192799de8f2b96c8cd295bb971" xlink:title="get_loiter_target &#45; returns loiter target position ">
<polygon fill="white" stroke="black" points="1248,-413.5 1248,-443.5 1364,-443.5 1364,-413.5 1248,-413.5"/>
<text text-anchor="start" x="1256" y="-431.5" font-family="Helvetica,sans-Serif" font-size="10.00">AC_WPNav::get_loiter</text>
<text text-anchor="middle" x="1306" y="-420.5" font-family="Helvetica,sans-Serif" font-size="10.00">_target</text>
</a>
</g>
</g>
<!-- Node13&#45;&gt;Node14 -->
<g id="edge16" class="edge"><title>Node13&#45;&gt;Node14</title>
<path fill="none" stroke="midnightblue" d="M1176.47,-473.222C1184.03,-471.076 1191.75,-468.794 1199,-466.5 1221.09,-459.511 1245.44,-450.85 1265.23,-443.563"/>
<polygon fill="midnightblue" stroke="midnightblue" points="1175.37,-469.895 1166.68,-475.954 1177.25,-476.637 1175.37,-469.895"/>
</g>
<!-- Node15&#45;&gt;Node14 -->
<g id="edge18" class="edge"><title>Node15&#45;&gt;Node14</title>
<path fill="none" stroke="midnightblue" d="M1206.67,-439.176C1220.53,-437.671 1234.77,-436.125 1247.95,-434.694"/>
<polygon fill="midnightblue" stroke="midnightblue" points="1206.22,-435.704 1196.66,-440.263 1206.98,-442.663 1206.22,-435.704"/>
</g>
<!-- Node17 -->
<g id="node17" class="node"><title>Node17</title>
<g id="a_node17"><a xlink:href="$classAC__WPNav.html#a4795d6f44811c6ca8b592c5cc098e0c0" xlink:title="set_fast_waypoint &#45; set to true to ignore the waypoint radius and consider the waypoint &#39;reached&#39; the...">
<polygon fill="white" stroke="black" points="1250,-612.5 1250,-642.5 1362,-642.5 1362,-612.5 1250,-612.5"/>
<text text-anchor="start" x="1258" y="-630.5" font-family="Helvetica,sans-Serif" font-size="10.00">AC_WPNav::set_fast</text>
<text text-anchor="middle" x="1306" y="-619.5" font-family="Helvetica,sans-Serif" font-size="10.00">_waypoint</text>
</a>
</g>
</g>
<!-- Node16&#45;&gt;Node17 -->
<g id="edge20" class="edge"><title>Node16&#45;&gt;Node17</title>
<path fill="none" stroke="midnightblue" d="M1209.51,-627.5C1223.12,-627.5 1237,-627.5 1249.81,-627.5"/>
<polygon fill="midnightblue" stroke="midnightblue" points="1209.16,-624 1199.16,-627.5 1209.16,-631 1209.16,-624"/>
</g>
<!-- Node19 -->
<g id="node19" class="node"><title>Node19</title>
<g id="a_node19"><a xlink:href="$classAC__WPNav.html#a3169a6fb417742e33c3a5197bb7a6c6d" xlink:title="reached_spline_destination &#45; true when we have come within RADIUS cm of the waypoint ...">
<polygon fill="white" stroke="black" points="1235,-561.5 1235,-591.5 1377,-591.5 1377,-561.5 1235,-561.5"/>
<text text-anchor="start" x="1243" y="-579.5" font-family="Helvetica,sans-Serif" font-size="10.00">AC_WPNav::reached_spline</text>
<text text-anchor="middle" x="1306" y="-568.5" font-family="Helvetica,sans-Serif" font-size="10.00">_destination</text>
</a>
</g>
</g>
<!-- Node18&#45;&gt;Node19 -->
<g id="edge22" class="edge"><title>Node18&#45;&gt;Node19</title>
<path fill="none" stroke="midnightblue" d="M1207.78,-576.5C1216.82,-576.5 1225.99,-576.5 1234.92,-576.5"/>
<polygon fill="midnightblue" stroke="midnightblue" points="1207.66,-573 1197.66,-576.5 1207.66,-580 1207.66,-573"/>
</g>
<!-- Node20&#45;&gt;Node14 -->
<g id="edge26" class="edge"><title>Node20&#45;&gt;Node14</title>
<path fill="none" stroke="midnightblue" d="M808.608,-337.206C814.722,-339.831 820.641,-342.905 826,-346.5 846.983,-360.576 839.651,-378.713 862,-390.5 895.328,-408.077 1135.51,-420.947 1247.63,-426.065"/>
<polygon fill="midnightblue" stroke="midnightblue" points="809.483,-333.791 798.894,-333.44 806.953,-340.318 809.483,-333.791"/>
</g>
<!-- Node21 -->
<g id="node21" class="node"><title>Node21</title>
<g id="a_node21"><a xlink:href="$classAC__WPNav.html#a7f711c7661c335417cbcc28f9546688c" xlink:title="get_loiter_bearing_to_target &#45; get bearing to loiter target in centi&#45;degrees ">
<polygon fill="white" stroke="black" points="884.5,-312.5 884.5,-342.5 1000.5,-342.5 1000.5,-312.5 884.5,-312.5"/>
<text text-anchor="start" x="892.5" y="-330.5" font-family="Helvetica,sans-Serif" font-size="10.00">AC_WPNav::get_loiter</text>
<text text-anchor="middle" x="942.5" y="-319.5" font-family="Helvetica,sans-Serif" font-size="10.00">_bearing_to_target</text>
</a>
</g>
</g>
<!-- Node20&#45;&gt;Node21 -->
<g id="edge24" class="edge"><title>Node20&#45;&gt;Node21</title>
<path fill="none" stroke="midnightblue" d="M808.827,-324.081C832.936,-324.702 860.46,-325.411 884.166,-326.022"/>
<polygon fill="midnightblue" stroke="midnightblue" points="808.812,-320.579 798.725,-323.82 808.631,-327.577 808.812,-320.579"/>
</g>
<!-- Node23 -->
<g id="node23" class="node"><title>Node23</title>
<g id="a_node23"><a xlink:href="$classAC__Circle.html#a20eefa0e2e7172498728dbf1f5eed4af" xlink:title="AC_Circle::init">
<polygon fill="white" stroke="black" points="902.5,-362 902.5,-381 982.5,-381 982.5,-362 902.5,-362"/>
<text text-anchor="middle" x="942.5" y="-369" font-family="Helvetica,sans-Serif" font-size="10.00">AC_Circle::init</text>
</a>
</g>
</g>
<!-- Node20&#45;&gt;Node23 -->
<g id="edge27" class="edge"><title>Node20&#45;&gt;Node23</title>
<path fill="none" stroke="midnightblue" d="M808.489,-337.966C825.784,-342.347 844.632,-347.116 862,-351.5 875.523,-354.914 890.343,-358.645 903.485,-361.95"/>
<polygon fill="midnightblue" stroke="midnightblue" points="809.062,-334.501 798.509,-335.438 807.343,-341.287 809.062,-334.501"/>
</g>
<!-- Node20&#45;&gt;Node24 -->
<g id="edge28" class="edge"><title>Node20&#45;&gt;Node24</title>
<path fill="none" stroke="midnightblue" d="M777.412,-301.634C799.883,-286.675 831.85,-266.884 862,-253.5 869.379,-250.224 877.334,-247.233 885.26,-244.559"/>
<polygon fill="midnightblue" stroke="midnightblue" points="775.328,-298.818 768.991,-307.309 779.24,-304.623 775.328,-298.818"/>
</g>
<!-- Node20&#45;&gt;Node25 -->
<g id="edge29" class="edge"><title>Node20&#45;&gt;Node25</title>
<path fill="none" stroke="midnightblue" d="M767.689,-299.355C789.738,-274.656 826.64,-234.969 862,-204.5 883.228,-186.208 910.118,-167.816 926.552,-157.053"/>
<polygon fill="midnightblue" stroke="midnightblue" points="764.819,-297.317 760.805,-307.122 770.058,-301.96 764.819,-297.317"/>
</g>
<!-- Node20&#45;&gt;Node26 -->
<g id="edge30" class="edge"><title>Node20&#45;&gt;Node26</title>
<path fill="none" stroke="midnightblue" d="M808.59,-308.645C832.99,-303.11 860.921,-296.776 884.86,-291.346"/>
<polygon fill="midnightblue" stroke="midnightblue" points="807.703,-305.257 798.725,-310.882 809.251,-312.083 807.703,-305.257"/>
</g>
<!-- Node22 -->
<g id="node22" class="node"><title>Node22</title>
<g id="a_node22"><a xlink:href="$classAC__WPNav.html#a828016e98938c6bbb6236e0b92e20807" xlink:title="get_loiter_distance_to_target &#45; get horizontal distance to loiter target in cm ">
<polygon fill="white" stroke="black" points="1071,-312.5 1071,-342.5 1187,-342.5 1187,-312.5 1071,-312.5"/>
<text text-anchor="start" x="1079" y="-330.5" font-family="Helvetica,sans-Serif" font-size="10.00">AC_WPNav::get_loiter</text>
<text text-anchor="middle" x="1129" y="-319.5" font-family="Helvetica,sans-Serif" font-size="10.00">_distance_to_target</text>
</a>
</g>
</g>
<!-- Node21&#45;&gt;Node22 -->
<g id="edge25" class="edge"><title>Node21&#45;&gt;Node22</title>
<path fill="none" stroke="midnightblue" d="M1010.75,-327.5C1030.46,-327.5 1051.82,-327.5 1070.84,-327.5"/>
<polygon fill="midnightblue" stroke="midnightblue" points="1010.61,-324 1000.61,-327.5 1010.61,-331 1010.61,-324"/>
</g>
<!-- Node27 -->
<g id="node27" class="node"><title>Node27</title>
<g id="a_node27"><a xlink:href="$classAC__WPNav.html#acc07b8521654cf468b6a86fad9104a4c" xlink:title="get origin using position vector (distance from home in cm) ">
<polygon fill="white" stroke="black" points="1060.5,-94 1060.5,-113 1197.5,-113 1197.5,-94 1060.5,-94"/>
<text text-anchor="middle" x="1129" y="-101" font-family="Helvetica,sans-Serif" font-size="10.00">AC_WPNav::get_wp_origin</text>
</a>
</g>
</g>
<!-- Node26&#45;&gt;Node27 -->
<g id="edge31" class="edge"><title>Node26&#45;&gt;Node27</title>
<path fill="none" stroke="midnightblue" d="M1009.44,-261.656C1014.22,-259.279 1018.8,-256.575 1023,-253.5 1076.33,-214.42 1112.32,-139.821 1123.94,-113.221"/>
<polygon fill="midnightblue" stroke="midnightblue" points="1007.76,-258.571 1000.05,-265.835 1010.6,-264.966 1007.76,-258.571"/>
</g>
<!-- Node29 -->
<g id="node29" class="node"><title>Node29</title>
<g id="a_node29"><a xlink:href="$classAC__WPNav.html#a453cf776e495ef52f7a071281ba9b30c" xlink:title="clear_pilot_desired_acceleration &#45; clear pilot desired acceleration ">
<polygon fill="white" stroke="black" points="309.5,-0.5 309.5,-30.5 430.5,-30.5 430.5,-0.5 309.5,-0.5"/>
<text text-anchor="start" x="317.5" y="-18.5" font-family="Helvetica,sans-Serif" font-size="10.00">AC_WPNav::clear_pilot</text>
<text text-anchor="middle" x="370" y="-7.5" font-family="Helvetica,sans-Serif" font-size="10.00">_desired_acceleration</text>
</a>
</g>
</g>
<!-- Node28&#45;&gt;Node29 -->
<g id="edge36" class="edge"><title>Node28&#45;&gt;Node29</title>
<path fill="none" stroke="midnightblue" d="M267.9,-15.5C281.632,-15.5 295.987,-15.5 309.423,-15.5"/>
<polygon fill="midnightblue" stroke="midnightblue" points="267.546,-12.0001 257.546,-15.5 267.546,-19.0001 267.546,-12.0001"/>
</g>
<!-- Node30&#45;&gt;Node27 -->
<g id="edge38" class="edge"><title>Node30&#45;&gt;Node27</title>
<path fill="none" stroke="midnightblue" d="M455.491,-103.5C607.025,-103.5 922.067,-103.5 1060.4,-103.5"/>
<polygon fill="midnightblue" stroke="midnightblue" points="455.309,-100 445.309,-103.5 455.309,-107 455.309,-100"/>
</g>
<!-- Node31&#45;&gt;Node27 -->
<g id="edge40" class="edge"><title>Node31&#45;&gt;Node27</title>
<path fill="none" stroke="midnightblue" d="M641.629,-63.2093C735.111,-67.7116 890.026,-76.3702 1023,-89.5 1035.63,-90.7469 1049.08,-92.3387 1061.99,-93.9989"/>
<polygon fill="midnightblue" stroke="midnightblue" points="641.534,-59.7009 631.379,-62.7205 641.201,-66.693 641.534,-59.7009"/>
</g>
<!-- Node32&#45;&gt;Node14 -->
<g id="edge42" class="edge"><title>Node32&#45;&gt;Node14</title>
<path fill="none" stroke="midnightblue" d="M269.316,-222.462C440.421,-205.755 881.479,-167.755 1023,-204.5 1109.66,-227 1129.93,-245.529 1199,-302.5 1240.24,-336.516 1277.79,-388.068 1295.04,-413.387"/>
<polygon fill="midnightblue" stroke="midnightblue" points="268.782,-218.998 259.172,-223.459 269.466,-225.964 268.782,-218.998"/>
</g>
<!-- Node33&#45;&gt;Node2 -->
<g id="edge45" class="edge"><title>Node33&#45;&gt;Node2</title>
<path fill="none" stroke="midnightblue" d="M240.298,-330.717C273.218,-352.403 318.827,-382.448 345.982,-400.337"/>
<polygon fill="midnightblue" stroke="midnightblue" points="242.075,-327.697 231.799,-325.118 238.224,-333.542 242.075,-327.697"/>
</g>
<!-- Node34 -->
<g id="node34" class="node"><title>Node34</title>
<g id="a_node34"><a xlink:href="$classAC__Circle.html#aeecf8efd6d546820ee831e749935df8b" xlink:title="AC_Circle::init">
<polygon fill="white" stroke="black" points="330,-295 330,-314 410,-314 410,-295 330,-295"/>
<text text-anchor="middle" x="370" y="-302" font-family="Helvetica,sans-Serif" font-size="10.00">AC_Circle::init</text>
</a>
</g>
</g>
<!-- Node33&#45;&gt;Node34 -->
<g id="edge46" class="edge"><title>Node33&#45;&gt;Node34</title>
<path fill="none" stroke="midnightblue" d="M261.771,-304.5C284.524,-304.5 309.7,-304.5 329.936,-304.5"/>
<polygon fill="midnightblue" stroke="midnightblue" points="261.513,-301 251.513,-304.5 261.513,-308 261.513,-301"/>
</g>
</g>
</svg>
