<?xml version="1.0" encoding="UTF-8" standalone="no"?>
<!DOCTYPE svg PUBLIC "-//W3C//DTD SVG 1.1//EN"
 "http://www.w3.org/Graphics/SVG/1.1/DTD/svg11.dtd">
<!-- Generated by graphviz version 2.38.0 (20140413.2041)
 -->
<!-- Title: AC_PID::get_pi Pages: 1 -->
<svg width="297pt" height="66pt"
 viewBox="0.00 0.00 297.00 66.00" xmlns="http://www.w3.org/2000/svg" xmlns:xlink="http://www.w3.org/1999/xlink">
<g id="graph0" class="graph" transform="scale(1 1) rotate(0) translate(4 62)">
<title>AC_PID::get_pi</title>
<polygon fill="white" stroke="none" points="-4,4 -4,-62 293,-62 293,4 -4,4"/>
<!-- Node1 -->
<g id="node1" class="node"><title>Node1</title>
<polygon fill="#bfbfbf" stroke="black" points="0,-19.5 0,-38.5 86,-38.5 86,-19.5 0,-19.5"/>
<text text-anchor="middle" x="43" y="-26.5" font-family="Helvetica,sans-Serif" font-size="10.00">AC_PID::get_pi</text>
</g>
<!-- Node2 -->
<g id="node2" class="node"><title>Node2</title>
<g id="a_node2"><a xlink:href="$classAC__PID.html#a4808bb2656a1e8d94c713e58a7a2a222" xlink:title="AC_PID::get_p">
<polygon fill="white" stroke="black" points="122,-38.5 122,-57.5 205,-57.5 205,-38.5 122,-38.5"/>
<text text-anchor="middle" x="163.5" y="-45.5" font-family="Helvetica,sans-Serif" font-size="10.00">AC_PID::get_p</text>
</a>
</g>
</g>
<!-- Node1&#45;&gt;Node2 -->
<g id="edge1" class="edge"><title>Node1&#45;&gt;Node2</title>
<path fill="none" stroke="midnightblue" d="M86.1123,-35.7522C94.432,-37.0861 103.245,-38.4992 111.814,-39.8731"/>
<polygon fill="midnightblue" stroke="midnightblue" points="111.288,-43.3335 121.716,-41.4609 112.397,-36.4218 111.288,-43.3335"/>
</g>
<!-- Node3 -->
<g id="node3" class="node"><title>Node3</title>
<g id="a_node3"><a xlink:href="$classAC__PID.html#a2d5bf9811a78c93a396ec1e37ae6fa0a" xlink:title="AC_PID::get_i">
<polygon fill="white" stroke="black" points="123.5,-0.5 123.5,-19.5 203.5,-19.5 203.5,-0.5 123.5,-0.5"/>
<text text-anchor="middle" x="163.5" y="-7.5" font-family="Helvetica,sans-Serif" font-size="10.00">AC_PID::get_i</text>
</a>
</g>
</g>
<!-- Node1&#45;&gt;Node3 -->
<g id="edge2" class="edge"><title>Node1&#45;&gt;Node3</title>
<path fill="none" stroke="midnightblue" d="M86.1123,-22.2478C94.9091,-20.8374 104.257,-19.3385 113.285,-17.891"/>
<polygon fill="midnightblue" stroke="midnightblue" points="113.976,-21.325 123.296,-16.2859 112.868,-14.4133 113.976,-21.325"/>
</g>
<!-- Node4 -->
<g id="node4" class="node"><title>Node4</title>
<g id="a_node4"><a xlink:href="$AP__Math_8h.html#a2a12cce483e9b870da70d30406d82c60" xlink:title="is_zero">
<polygon fill="white" stroke="black" points="241,-0.5 241,-19.5 289,-19.5 289,-0.5 241,-0.5"/>
<text text-anchor="middle" x="265" y="-7.5" font-family="Helvetica,sans-Serif" font-size="10.00">is_zero</text>
</a>
</g>
</g>
<!-- Node3&#45;&gt;Node4 -->
<g id="edge3" class="edge"><title>Node3&#45;&gt;Node4</title>
<path fill="none" stroke="midnightblue" d="M203.539,-10C212.519,-10 221.988,-10 230.699,-10"/>
<polygon fill="midnightblue" stroke="midnightblue" points="230.864,-13.5001 240.864,-10 230.864,-6.5001 230.864,-13.5001"/>
</g>
</g>
</svg>
