<?xml version="1.0" encoding="UTF-8" standalone="no"?>
<!DOCTYPE svg PUBLIC "-//W3C//DTD SVG 1.1//EN"
 "http://www.w3.org/Graphics/SVG/1.1/DTD/svg11.dtd">
<!-- Generated by graphviz version 2.38.0 (20140413.2041)
 -->
<!-- Title: AC_AttitudeControl::get_accel_yaw_max_radss Pages: 1 -->
<svg width="1879pt" height="613pt"
 viewBox="0.00 0.00 1879.00 613.07" xmlns="http://www.w3.org/2000/svg" xmlns:xlink="http://www.w3.org/1999/xlink">
<g id="graph0" class="graph" transform="scale(1 1) rotate(0) translate(4 609.067)">
<title>AC_AttitudeControl::get_accel_yaw_max_radss</title>
<polygon fill="white" stroke="none" points="-4,4 -4,-609.067 1875,-609.067 1875,4 -4,4"/>
<!-- Node1 -->
<g id="node1" class="node"><title>Node1</title>
<polygon fill="#bfbfbf" stroke="black" points="0,-157.5 0,-187.5 141,-187.5 141,-157.5 0,-157.5"/>
<text text-anchor="start" x="8" y="-175.5" font-family="Helvetica,sans-Serif" font-size="10.00">AC_AttitudeControl</text>
<text text-anchor="middle" x="70.5" y="-164.5" font-family="Helvetica,sans-Serif" font-size="10.00">::get_accel_yaw_max_radss</text>
</g>
<!-- Node2 -->
<g id="node2" class="node"><title>Node2</title>
<g id="a_node2"><a xlink:href="$classAC__AttitudeControl.html#a33492a0f71a317f64c14332075a6d3ec" xlink:title="AC_AttitudeControl\l::input_euler_angle\l_roll_pitch_euler_rate_yaw">
<polygon fill="white" stroke="black" points="482,-381 482,-422 614,-422 614,-381 482,-381"/>
<text text-anchor="start" x="490" y="-410" font-family="Helvetica,sans-Serif" font-size="10.00">AC_AttitudeControl</text>
<text text-anchor="start" x="490" y="-399" font-family="Helvetica,sans-Serif" font-size="10.00">::input_euler_angle</text>
<text text-anchor="middle" x="548" y="-388" font-family="Helvetica,sans-Serif" font-size="10.00">_roll_pitch_euler_rate_yaw</text>
</a>
</g>
</g>
<!-- Node1&#45;&gt;Node2 -->
<g id="edge1" class="edge"><title>Node1&#45;&gt;Node2</title>
<path fill="none" stroke="midnightblue" d="M89.6633,-195.777C109.022,-219.16 141.698,-254.758 177,-276.5 274.711,-336.679 404.948,-371.922 481.994,-388.898"/>
<polygon fill="midnightblue" stroke="midnightblue" points="92.1752,-193.318 83.1534,-187.763 86.742,-197.732 92.1752,-193.318"/>
</g>
<!-- Node4 -->
<g id="node4" class="node"><title>Node4</title>
<g id="a_node4"><a xlink:href="$classAC__AttitudeControl.html#aadd2cdd6b18aceaea1134d99ef870b18" xlink:title="AC_AttitudeControl\l::input_euler_angle\l_roll_pitch_yaw">
<polygon fill="white" stroke="black" points="497.5,-321 497.5,-362 598.5,-362 598.5,-321 497.5,-321"/>
<text text-anchor="start" x="505.5" y="-350" font-family="Helvetica,sans-Serif" font-size="10.00">AC_AttitudeControl</text>
<text text-anchor="start" x="505.5" y="-339" font-family="Helvetica,sans-Serif" font-size="10.00">::input_euler_angle</text>
<text text-anchor="middle" x="548" y="-328" font-family="Helvetica,sans-Serif" font-size="10.00">_roll_pitch_yaw</text>
</a>
</g>
</g>
<!-- Node1&#45;&gt;Node4 -->
<g id="edge3" class="edge"><title>Node1&#45;&gt;Node4</title>
<path fill="none" stroke="midnightblue" d="M99.3082,-193.801C119.836,-208.662 148.964,-227.996 177,-240.5 286.463,-289.318 424.916,-319.419 497.475,-332.988"/>
<polygon fill="midnightblue" stroke="midnightblue" points="101.195,-190.844 91.0653,-187.739 97.0476,-196.484 101.195,-190.844"/>
</g>
<!-- Node5 -->
<g id="node5" class="node"><title>Node5</title>
<g id="a_node5"><a xlink:href="$classAC__AttitudeControl.html#a49cd1e5d7c1a3550080c9ccca6ce8da8" xlink:title="AC_AttitudeControl\l::input_euler_rate_roll\l_pitch_yaw">
<polygon fill="white" stroke="black" points="493,-261 493,-302 603,-302 603,-261 493,-261"/>
<text text-anchor="start" x="501" y="-290" font-family="Helvetica,sans-Serif" font-size="10.00">AC_AttitudeControl</text>
<text text-anchor="start" x="501" y="-279" font-family="Helvetica,sans-Serif" font-size="10.00">::input_euler_rate_roll</text>
<text text-anchor="middle" x="548" y="-268" font-family="Helvetica,sans-Serif" font-size="10.00">_pitch_yaw</text>
</a>
</g>
</g>
<!-- Node1&#45;&gt;Node5 -->
<g id="edge5" class="edge"><title>Node1&#45;&gt;Node5</title>
<path fill="none" stroke="midnightblue" d="M123.932,-190.862C176.479,-208.648 259.979,-235.248 334,-251.5 387.436,-263.232 449.468,-271.361 492.758,-276.169"/>
<polygon fill="midnightblue" stroke="midnightblue" points="124.763,-187.448 114.169,-187.538 122.507,-194.074 124.763,-187.448"/>
</g>
<!-- Node6 -->
<g id="node6" class="node"><title>Node6</title>
<g id="a_node6"><a xlink:href="$classAC__AttitudeControl.html#afb04b29d33ac55ff34c03e2209c61b27" xlink:title="AC_AttitudeControl\l::input_quaternion">
<polygon fill="white" stroke="black" points="497.5,-152.5 497.5,-182.5 598.5,-182.5 598.5,-152.5 497.5,-152.5"/>
<text text-anchor="start" x="505.5" y="-170.5" font-family="Helvetica,sans-Serif" font-size="10.00">AC_AttitudeControl</text>
<text text-anchor="middle" x="548" y="-159.5" font-family="Helvetica,sans-Serif" font-size="10.00">::input_quaternion</text>
</a>
</g>
</g>
<!-- Node1&#45;&gt;Node6 -->
<g id="edge7" class="edge"><title>Node1&#45;&gt;Node6</title>
<path fill="none" stroke="midnightblue" d="M151.372,-171.66C250.046,-170.623 414.927,-168.889 497.177,-168.024"/>
<polygon fill="midnightblue" stroke="midnightblue" points="151.114,-168.163 141.151,-171.768 151.187,-175.162 151.114,-168.163"/>
</g>
<!-- Node7 -->
<g id="node7" class="node"><title>Node7</title>
<g id="a_node7"><a xlink:href="$classAC__AttitudeControl.html#a2ca277e7c4a5ac2980814673aae2d037" xlink:title="AC_AttitudeControl\l::input_rate_bf_roll\l_pitch_yaw">
<polygon fill="white" stroke="black" points="497.5,-44 497.5,-85 598.5,-85 598.5,-44 497.5,-44"/>
<text text-anchor="start" x="505.5" y="-73" font-family="Helvetica,sans-Serif" font-size="10.00">AC_AttitudeControl</text>
<text text-anchor="start" x="505.5" y="-62" font-family="Helvetica,sans-Serif" font-size="10.00">::input_rate_bf_roll</text>
<text text-anchor="middle" x="548" y="-51" font-family="Helvetica,sans-Serif" font-size="10.00">_pitch_yaw</text>
</a>
</g>
</g>
<!-- Node1&#45;&gt;Node7 -->
<g id="edge9" class="edge"><title>Node1&#45;&gt;Node7</title>
<path fill="none" stroke="midnightblue" d="M147.485,-155.242C245.741,-132.925 414.105,-94.6843 497.375,-75.7713"/>
<polygon fill="midnightblue" stroke="midnightblue" points="146.593,-151.855 137.616,-157.483 148.143,-158.681 146.593,-151.855"/>
</g>
<!-- Node10 -->
<g id="node10" class="node"><title>Node10</title>
<g id="a_node10"><a xlink:href="$classAC__AttitudeControl__Heli.html#a3741c5f0deabfef2c6889171b5c4a217" xlink:title="AC_AttitudeControl\l_Heli::passthrough_bf\l_roll_pitch_rate_yaw">
<polygon fill="white" stroke="black" points="334,-16 334,-57 446,-57 446,-16 334,-16"/>
<text text-anchor="start" x="342" y="-45" font-family="Helvetica,sans-Serif" font-size="10.00">AC_AttitudeControl</text>
<text text-anchor="start" x="342" y="-34" font-family="Helvetica,sans-Serif" font-size="10.00">_Heli::passthrough_bf</text>
<text text-anchor="middle" x="390" y="-23" font-family="Helvetica,sans-Serif" font-size="10.00">_roll_pitch_rate_yaw</text>
</a>
</g>
</g>
<!-- Node1&#45;&gt;Node10 -->
<g id="edge13" class="edge"><title>Node1&#45;&gt;Node10</title>
<path fill="none" stroke="midnightblue" d="M85.1958,-148.698C102.604,-120.95 135.451,-76.2519 177,-55.5 225.927,-31.063 289.139,-28.531 333.766,-30.7438"/>
<polygon fill="midnightblue" stroke="midnightblue" points="82.1085,-147.038 79.8936,-157.399 88.0861,-150.681 82.1085,-147.038"/>
</g>
<!-- Node11 -->
<g id="node11" class="node"><title>Node11</title>
<g id="a_node11"><a xlink:href="$classAC__AttitudeControl.html#a6b2d7587c8e5f67432bfc0d306ad9fdc" xlink:title="AC_AttitudeControl\l::update_ang_vel_target\l_from_att_error">
<polygon fill="white" stroke="black" points="177,-65 177,-106 298,-106 298,-65 177,-65"/>
<text text-anchor="start" x="185" y="-94" font-family="Helvetica,sans-Serif" font-size="10.00">AC_AttitudeControl</text>
<text text-anchor="start" x="185" y="-83" font-family="Helvetica,sans-Serif" font-size="10.00">::update_ang_vel_target</text>
<text text-anchor="middle" x="237.5" y="-72" font-family="Helvetica,sans-Serif" font-size="10.00">_from_att_error</text>
</a>
</g>
</g>
<!-- Node1&#45;&gt;Node11 -->
<g id="edge15" class="edge"><title>Node1&#45;&gt;Node11</title>
<path fill="none" stroke="midnightblue" d="M109.196,-152.624C135.632,-138.685 170.878,-120.101 197.58,-106.021"/>
<polygon fill="midnightblue" stroke="midnightblue" points="107.454,-149.586 100.241,-157.346 110.719,-155.778 107.454,-149.586"/>
</g>
<!-- Node3 -->
<g id="node3" class="node"><title>Node3</title>
<g id="a_node3"><a xlink:href="$classAC__AttitudeControl.html#a5d0d15f6a4e5321e8102528b1a67fa0a" xlink:title="AC_AttitudeControl\l::set_yaw_target_to\l_current_heading">
<polygon fill="white" stroke="black" points="655.5,-231 655.5,-272 758.5,-272 758.5,-231 655.5,-231"/>
<text text-anchor="start" x="663.5" y="-260" font-family="Helvetica,sans-Serif" font-size="10.00">AC_AttitudeControl</text>
<text text-anchor="start" x="663.5" y="-249" font-family="Helvetica,sans-Serif" font-size="10.00">::set_yaw_target_to</text>
<text text-anchor="middle" x="707" y="-238" font-family="Helvetica,sans-Serif" font-size="10.00">_current_heading</text>
</a>
</g>
</g>
<!-- Node2&#45;&gt;Node3 -->
<g id="edge2" class="edge"><title>Node2&#45;&gt;Node3</title>
<path fill="none" stroke="midnightblue" d="M608.59,-375.52C610.455,-374.228 612.265,-372.888 614,-371.5 649.468,-343.136 679.014,-298.306 694.443,-272.218"/>
<polygon fill="midnightblue" stroke="midnightblue" points="606.694,-372.578 600.113,-380.881 610.435,-378.494 606.694,-372.578"/>
</g>
<!-- Node4&#45;&gt;Node3 -->
<g id="edge4" class="edge"><title>Node4&#45;&gt;Node3</title>
<path fill="none" stroke="midnightblue" d="M605.105,-316.241C608.136,-314.679 611.118,-313.094 614,-311.5 635.693,-299.503 659.079,-284.218 676.843,-272.078"/>
<polygon fill="midnightblue" stroke="midnightblue" points="603.297,-313.232 595.921,-320.839 606.43,-319.492 603.297,-313.232"/>
</g>
<!-- Node5&#45;&gt;Node3 -->
<g id="edge6" class="edge"><title>Node5&#45;&gt;Node3</title>
<path fill="none" stroke="midnightblue" d="M613.124,-269.247C627.176,-266.562 641.866,-263.755 655.306,-261.187"/>
<polygon fill="midnightblue" stroke="midnightblue" points="612.196,-265.861 603.03,-271.176 613.51,-272.737 612.196,-265.861"/>
</g>
<!-- Node6&#45;&gt;Node3 -->
<g id="edge8" class="edge"><title>Node6&#45;&gt;Node3</title>
<path fill="none" stroke="midnightblue" d="M603.216,-186.458C606.906,-188.072 610.532,-189.757 614,-191.5 636.489,-202.805 660.246,-218.404 677.985,-230.863"/>
<polygon fill="midnightblue" stroke="midnightblue" points="604.545,-183.22 593.968,-182.6 601.85,-189.68 604.545,-183.22"/>
</g>
<!-- Node7&#45;&gt;Node3 -->
<g id="edge10" class="edge"><title>Node7&#45;&gt;Node3</title>
<path fill="none" stroke="midnightblue" d="M607.13,-88.0251C609.54,-89.7417 611.845,-91.5652 614,-93.5 636.734,-113.91 677.298,-192.964 696.023,-230.926"/>
<polygon fill="midnightblue" stroke="midnightblue" points="608.914,-85.0123 598.599,-82.5954 605.156,-90.9176 608.914,-85.0123"/>
</g>
<!-- Node8 -->
<g id="node8" class="node"><title>Node8</title>
<g id="a_node8"><a xlink:href="$classAC__AttitudeControl__Heli.html#aa78e07c940c43aa150caf3c52cf76809" xlink:title="AC_AttitudeControl\l_Heli::input_rate_bf\l_roll_pitch_yaw">
<polygon fill="white" stroke="black" points="656.5,-44 656.5,-85 757.5,-85 757.5,-44 656.5,-44"/>
<text text-anchor="start" x="664.5" y="-73" font-family="Helvetica,sans-Serif" font-size="10.00">AC_AttitudeControl</text>
<text text-anchor="start" x="664.5" y="-62" font-family="Helvetica,sans-Serif" font-size="10.00">_Heli::input_rate_bf</text>
<text text-anchor="middle" x="707" y="-51" font-family="Helvetica,sans-Serif" font-size="10.00">_roll_pitch_yaw</text>
</a>
</g>
</g>
<!-- Node7&#45;&gt;Node8 -->
<g id="edge11" class="edge"><title>Node7&#45;&gt;Node8</title>
<path fill="none" stroke="midnightblue" d="M608.813,-64.5C624.514,-64.5 641.275,-64.5 656.378,-64.5"/>
<polygon fill="midnightblue" stroke="midnightblue" points="608.676,-61.0001 598.676,-64.5 608.676,-68.0001 608.676,-61.0001"/>
</g>
<!-- Node9 -->
<g id="node9" class="node"><title>Node9</title>
<g id="a_node9"><a xlink:href="$classAC__AttitudeControl__Heli.html#aae3cc5dc6f4db3bdb7d17b9d7f54f371" xlink:title="AC_AttitudeControl\l_Heli::get_rate_yaw_pid">
<polygon fill="white" stroke="black" points="818.5,-0.5 818.5,-30.5 940.5,-30.5 940.5,-0.5 818.5,-0.5"/>
<text text-anchor="start" x="826.5" y="-18.5" font-family="Helvetica,sans-Serif" font-size="10.00">AC_AttitudeControl</text>
<text text-anchor="middle" x="879.5" y="-7.5" font-family="Helvetica,sans-Serif" font-size="10.00">_Heli::get_rate_yaw_pid</text>
</a>
</g>
</g>
<!-- Node8&#45;&gt;Node9 -->
<g id="edge12" class="edge"><title>Node8&#45;&gt;Node9</title>
<path fill="none" stroke="midnightblue" d="M767.579,-47.3775C786.706,-41.8808 807.733,-35.8376 826.29,-30.5046"/>
<polygon fill="midnightblue" stroke="midnightblue" points="766.418,-44.0694 757.774,-50.1954 768.352,-50.7971 766.418,-44.0694"/>
</g>
<!-- Node10&#45;&gt;Node9 -->
<g id="edge14" class="edge"><title>Node10&#45;&gt;Node9</title>
<path fill="none" stroke="midnightblue" d="M456.506,-33.6782C551.497,-29.5863 726.151,-22.0627 818.155,-18.0995"/>
<polygon fill="midnightblue" stroke="midnightblue" points="456.288,-30.1843 446.448,-34.1115 456.589,-37.1778 456.288,-30.1843"/>
</g>
<!-- Node11&#45;&gt;Node10 -->
<g id="edge63" class="edge"><title>Node11&#45;&gt;Node10</title>
<path fill="none" stroke="midnightblue" d="M308.053,-62.8548C316.649,-60.056 325.345,-57.2248 333.689,-54.5083"/>
<polygon fill="midnightblue" stroke="midnightblue" points="306.839,-59.5691 298.414,-65.9931 309.006,-66.2252 306.839,-59.5691"/>
</g>
<!-- Node12 -->
<g id="node12" class="node"><title>Node12</title>
<g id="a_node12"><a xlink:href="$classAC__AttitudeControl.html#a7b9cf8568575052931b43054717b4f87" xlink:title="AC_AttitudeControl\l::attitude_controller\l_run_quat">
<polygon fill="white" stroke="black" points="339.5,-201 339.5,-242 440.5,-242 440.5,-201 339.5,-201"/>
<text text-anchor="start" x="347.5" y="-230" font-family="Helvetica,sans-Serif" font-size="10.00">AC_AttitudeControl</text>
<text text-anchor="start" x="347.5" y="-219" font-family="Helvetica,sans-Serif" font-size="10.00">::attitude_controller</text>
<text text-anchor="middle" x="390" y="-208" font-family="Helvetica,sans-Serif" font-size="10.00">_run_quat</text>
</a>
</g>
</g>
<!-- Node11&#45;&gt;Node12 -->
<g id="edge16" class="edge"><title>Node11&#45;&gt;Node12</title>
<path fill="none" stroke="midnightblue" d="M269.06,-113.116C297.733,-139.026 339.98,-177.203 365.927,-200.65"/>
<polygon fill="midnightblue" stroke="midnightblue" points="271.124,-110.263 261.358,-106.155 266.431,-115.457 271.124,-110.263"/>
</g>
<!-- Node12&#45;&gt;Node2 -->
<g id="edge19" class="edge"><title>Node12&#45;&gt;Node2</title>
<path fill="none" stroke="midnightblue" d="M402.891,-251.689C417.271,-284.849 444.322,-337.853 482,-371.5 485.893,-374.977 490.259,-378.121 494.837,-380.947"/>
<polygon fill="midnightblue" stroke="midnightblue" points="405.948,-249.932 398.837,-242.078 399.498,-252.652 405.948,-249.932"/>
</g>
<!-- Node12&#45;&gt;Node4 -->
<g id="edge20" class="edge"><title>Node12&#45;&gt;Node4</title>
<path fill="none" stroke="midnightblue" d="M414.792,-249.742C432.017,-268.931 456.64,-293.921 482,-311.5 486.903,-314.899 492.252,-318.078 497.709,-321"/>
<polygon fill="midnightblue" stroke="midnightblue" points="417.354,-247.356 408.112,-242.176 412.107,-251.989 417.354,-247.356"/>
</g>
<!-- Node12&#45;&gt;Node5 -->
<g id="edge21" class="edge"><title>Node12&#45;&gt;Node5</title>
<path fill="none" stroke="midnightblue" d="M450.457,-244.368C464.661,-249.831 479.735,-255.629 493.644,-260.978"/>
<polygon fill="midnightblue" stroke="midnightblue" points="451.378,-240.972 440.788,-240.649 448.865,-247.506 451.378,-240.972"/>
</g>
<!-- Node12&#45;&gt;Node6 -->
<g id="edge22" class="edge"><title>Node12&#45;&gt;Node6</title>
<path fill="none" stroke="midnightblue" d="M450.423,-200.931C468.058,-194.826 487.038,-188.256 503.466,-182.569"/>
<polygon fill="midnightblue" stroke="midnightblue" points="449.093,-197.687 440.788,-204.266 451.383,-204.302 449.093,-197.687"/>
</g>
<!-- Node12&#45;&gt;Node7 -->
<g id="edge23" class="edge"><title>Node12&#45;&gt;Node7</title>
<path fill="none" stroke="midnightblue" d="M413.606,-192.417C423.722,-179.17 435.671,-163.196 446,-148.5 462.799,-124.598 459.758,-112.442 482,-93.5 486.61,-89.5742 491.836,-86.0888 497.274,-83.019"/>
<polygon fill="midnightblue" stroke="midnightblue" points="410.57,-190.624 407.258,-200.688 416.123,-194.886 410.57,-190.624"/>
</g>
<!-- Node13 -->
<g id="node13" class="node"><title>Node13</title>
<g id="a_node13"><a xlink:href="$classAC__AttitudeControl.html#a2115e6e5df7db5798f73423d5d2a5149" xlink:title="AC_AttitudeControl\l::input_angle_step_bf\l_roll_pitch_yaw">
<polygon fill="white" stroke="black" points="493,-201 493,-242 603,-242 603,-201 493,-201"/>
<text text-anchor="start" x="501" y="-230" font-family="Helvetica,sans-Serif" font-size="10.00">AC_AttitudeControl</text>
<text text-anchor="start" x="501" y="-219" font-family="Helvetica,sans-Serif" font-size="10.00">::input_angle_step_bf</text>
<text text-anchor="middle" x="548" y="-208" font-family="Helvetica,sans-Serif" font-size="10.00">_roll_pitch_yaw</text>
</a>
</g>
</g>
<!-- Node12&#45;&gt;Node13 -->
<g id="edge17" class="edge"><title>Node12&#45;&gt;Node13</title>
<path fill="none" stroke="midnightblue" d="M451.108,-221.5C464.842,-221.5 479.359,-221.5 492.827,-221.5"/>
<polygon fill="midnightblue" stroke="midnightblue" points="450.788,-218 440.788,-221.5 450.788,-225 450.788,-218"/>
</g>
<!-- Node14 -->
<g id="node14" class="node"><title>Node14</title>
<g id="a_node14"><a xlink:href="$classAC__AttitudeControl.html#a080c9527e2d43eac62e370fbe61eaa8d" xlink:title="AC_AttitudeControl\l::lean_angle_max">
<polygon fill="white" stroke="black" points="497.5,-103.5 497.5,-133.5 598.5,-133.5 598.5,-103.5 497.5,-103.5"/>
<text text-anchor="start" x="505.5" y="-121.5" font-family="Helvetica,sans-Serif" font-size="10.00">AC_AttitudeControl</text>
<text text-anchor="middle" x="548" y="-110.5" font-family="Helvetica,sans-Serif" font-size="10.00">::lean_angle_max</text>
</a>
</g>
</g>
<!-- Node12&#45;&gt;Node14 -->
<g id="edge24" class="edge"><title>Node12&#45;&gt;Node14</title>
<path fill="none" stroke="midnightblue" d="M417.712,-193.679C434.848,-177.069 458.267,-156.544 482,-142.5 487.59,-139.192 493.715,-136.212 499.899,-133.568"/>
<polygon fill="midnightblue" stroke="midnightblue" points="414.958,-191.48 410.303,-200.997 419.877,-196.46 414.958,-191.48"/>
</g>
<!-- Node13&#45;&gt;Node3 -->
<g id="edge18" class="edge"><title>Node13&#45;&gt;Node3</title>
<path fill="none" stroke="midnightblue" d="M613.124,-233.753C627.176,-236.438 641.866,-239.245 655.306,-241.813"/>
<polygon fill="midnightblue" stroke="midnightblue" points="613.51,-230.263 603.03,-231.824 612.196,-237.139 613.51,-230.263"/>
</g>
<!-- Node15 -->
<g id="node15" class="node"><title>Node15</title>
<g id="a_node15"><a xlink:href="$classAC__PosControl.html#ab7a53930119bbcbb951f982fcb8d3ce1" xlink:title="AC_PosControl::accel\l_to_lean_angles">
<polygon fill="white" stroke="black" points="650,-103.5 650,-133.5 764,-133.5 764,-103.5 650,-103.5"/>
<text text-anchor="start" x="658" y="-121.5" font-family="Helvetica,sans-Serif" font-size="10.00">AC_PosControl::accel</text>
<text text-anchor="middle" x="707" y="-110.5" font-family="Helvetica,sans-Serif" font-size="10.00">_to_lean_angles</text>
</a>
</g>
</g>
<!-- Node14&#45;&gt;Node15 -->
<g id="edge25" class="edge"><title>Node14&#45;&gt;Node15</title>
<path fill="none" stroke="midnightblue" d="M608.793,-118.5C622.26,-118.5 636.506,-118.5 649.818,-118.5"/>
<polygon fill="midnightblue" stroke="midnightblue" points="608.676,-115 598.676,-118.5 608.676,-122 608.676,-115"/>
</g>
<!-- Node42 -->
<g id="node42" class="node"><title>Node42</title>
<g id="a_node42"><a xlink:href="$classAC__WPNav.html#a47964df8ebcc78bb101f328a23187e65" xlink:title="AC_WPNav::wp_and_spline_init">
<polygon fill="white" stroke="black" points="800,-540 800,-559 959,-559 959,-540 800,-540"/>
<text text-anchor="middle" x="879.5" y="-547" font-family="Helvetica,sans-Serif" font-size="10.00">AC_WPNav::wp_and_spline_init</text>
</a>
</g>
</g>
<!-- Node14&#45;&gt;Node42 -->
<g id="edge61" class="edge"><title>Node14&#45;&gt;Node42</title>
<path fill="none" stroke="midnightblue" d="M608.62,-130.385C658.577,-143.66 727.426,-170.376 764,-221.5 823.945,-305.293 758.633,-356.142 800,-450.5 816.47,-488.067 850.765,-523.576 868.055,-539.988"/>
<polygon fill="midnightblue" stroke="midnightblue" points="609.45,-126.985 598.896,-127.906 607.721,-133.768 609.45,-126.985"/>
</g>
<!-- Node16 -->
<g id="node16" class="node"><title>Node16</title>
<g id="a_node16"><a xlink:href="$classAC__PosControl.html#a497c1799c10d146b6f2e2b542889c083" xlink:title="update_xy_controller &#45; run the horizontal position controller &#45; should be called at 100hz or higher ...">
<polygon fill="white" stroke="black" points="819.5,-411.5 819.5,-441.5 939.5,-441.5 939.5,-411.5 819.5,-411.5"/>
<text text-anchor="start" x="827.5" y="-429.5" font-family="Helvetica,sans-Serif" font-size="10.00">AC_PosControl::update</text>
<text text-anchor="middle" x="879.5" y="-418.5" font-family="Helvetica,sans-Serif" font-size="10.00">_xy_controller</text>
</a>
</g>
</g>
<!-- Node15&#45;&gt;Node16 -->
<g id="edge26" class="edge"><title>Node15&#45;&gt;Node16</title>
<path fill="none" stroke="midnightblue" d="M729.997,-140.931C741.052,-152.931 754.154,-168.332 764,-183.5 816.18,-263.887 858.368,-371.8 872.983,-411.247"/>
<polygon fill="midnightblue" stroke="midnightblue" points="732.481,-138.463 723.082,-133.572 727.379,-143.256 732.481,-138.463"/>
</g>
<!-- Node20 -->
<g id="node20" class="node"><title>Node20</title>
<g id="a_node20"><a xlink:href="$classAC__PosControl.html#ad89eec74ef77005f3f5c449da98ad12c" xlink:title="AC_PosControl::update\l_vel_controller_xyz">
<polygon fill="white" stroke="black" points="1557.5,-88.5 1557.5,-118.5 1677.5,-118.5 1677.5,-88.5 1557.5,-88.5"/>
<text text-anchor="start" x="1565.5" y="-106.5" font-family="Helvetica,sans-Serif" font-size="10.00">AC_PosControl::update</text>
<text text-anchor="middle" x="1617.5" y="-95.5" font-family="Helvetica,sans-Serif" font-size="10.00">_vel_controller_xyz</text>
</a>
</g>
</g>
<!-- Node15&#45;&gt;Node20 -->
<g id="edge60" class="edge"><title>Node15&#45;&gt;Node20</title>
<path fill="none" stroke="midnightblue" d="M773.31,-100.945C843.846,-83.5547 959.794,-59.5 1061.5,-59.5 1061.5,-59.5 1061.5,-59.5 1237,-59.5 1354.64,-59.5 1384.56,-61.793 1501,-78.5 1519.48,-81.1515 1539.42,-85.077 1557.44,-89.0356"/>
<polygon fill="midnightblue" stroke="midnightblue" points="772.094,-97.6413 763.24,-103.459 773.79,-104.433 772.094,-97.6413"/>
</g>
<!-- Node17 -->
<g id="node17" class="node"><title>Node17</title>
<g id="a_node17"><a xlink:href="$classAC__PosControl.html#ac150947d527995a72dff6ad0921a1891" xlink:title="freeze_ff_xy &#45; used to stop the feed forward being calculated during a known discontinuity ...">
<polygon fill="white" stroke="black" points="1003.5,-316.5 1003.5,-346.5 1121.5,-346.5 1121.5,-316.5 1003.5,-316.5"/>
<text text-anchor="start" x="1011.5" y="-334.5" font-family="Helvetica,sans-Serif" font-size="10.00">AC_PosControl::freeze</text>
<text text-anchor="middle" x="1062.5" y="-323.5" font-family="Helvetica,sans-Serif" font-size="10.00">_ff_xy</text>
</a>
</g>
</g>
<!-- Node16&#45;&gt;Node17 -->
<g id="edge27" class="edge"><title>Node16&#45;&gt;Node17</title>
<path fill="none" stroke="midnightblue" d="M918.352,-406.633C952.404,-388.76 1001.7,-362.886 1032.66,-346.64"/>
<polygon fill="midnightblue" stroke="midnightblue" points="916.408,-403.7 909.18,-411.447 919.661,-409.899 916.408,-403.7"/>
</g>
<!-- Node34 -->
<g id="node34" class="node"><title>Node34</title>
<g id="a_node34"><a xlink:href="$classAC__WPNav.html#a7dc4785fbce8364d7eb3d8e2d0c1b987" xlink:title="update_wpnav &#45; run the wp controller &#45; should be called at 100hz or higher ">
<polygon fill="white" stroke="black" points="1166,-436 1166,-455 1306,-455 1306,-436 1166,-436"/>
<text text-anchor="middle" x="1236" y="-443" font-family="Helvetica,sans-Serif" font-size="10.00">AC_WPNav::update_wpnav</text>
</a>
</g>
</g>
<!-- Node16&#45;&gt;Node34 -->
<g id="edge58" class="edge"><title>Node16&#45;&gt;Node34</title>
<path fill="none" stroke="midnightblue" d="M949.976,-430.224C1012.35,-433.567 1103.43,-438.448 1165.73,-441.788"/>
<polygon fill="midnightblue" stroke="midnightblue" points="950.008,-426.72 939.835,-429.68 949.634,-433.71 950.008,-426.72"/>
</g>
<!-- Node36 -->
<g id="node36" class="node"><title>Node36</title>
<g id="a_node36"><a xlink:href="$classAC__WPNav.html#acc138e7bc6435087ab308896358de6a3" xlink:title="update_spline &#45; update spline controller ">
<polygon fill="white" stroke="black" points="1167.5,-398 1167.5,-417 1304.5,-417 1304.5,-398 1167.5,-398"/>
<text text-anchor="middle" x="1236" y="-405" font-family="Helvetica,sans-Serif" font-size="10.00">AC_WPNav::update_spline</text>
</a>
</g>
</g>
<!-- Node16&#45;&gt;Node36 -->
<g id="edge59" class="edge"><title>Node16&#45;&gt;Node36</title>
<path fill="none" stroke="midnightblue" d="M950.058,-422.772C1012.95,-419.401 1104.98,-414.469 1167.29,-411.129"/>
<polygon fill="midnightblue" stroke="midnightblue" points="949.634,-419.29 939.835,-423.32 950.008,-426.28 949.634,-419.29"/>
</g>
<!-- Node38 -->
<g id="node38" class="node"><title>Node38</title>
<g id="a_node38"><a xlink:href="$classAC__Circle.html#ad28205982ae7bc5f1e72f5285696c99b" xlink:title="update &#45; update circle controller ">
<polygon fill="white" stroke="black" points="1014,-477 1014,-496 1111,-496 1111,-477 1014,-477"/>
<text text-anchor="middle" x="1062.5" y="-484" font-family="Helvetica,sans-Serif" font-size="10.00">AC_Circle::update</text>
</a>
</g>
</g>
<!-- Node16&#45;&gt;Node38 -->
<g id="edge52" class="edge"><title>Node16&#45;&gt;Node38</title>
<path fill="none" stroke="midnightblue" d="M935.866,-444.854C967.888,-455.468 1006.86,-468.386 1032.82,-476.993"/>
<polygon fill="midnightblue" stroke="midnightblue" points="936.767,-441.465 926.174,-441.641 934.565,-448.109 936.767,-441.465"/>
</g>
<!-- Node40 -->
<g id="node40" class="node"><title>Node40</title>
<g id="a_node40"><a xlink:href="$classAC__WPNav.html#a0a434270245fd8641352af387700dc82" xlink:title="update_loiter &#45; run the loiter controller &#45; should be called at 10hz ">
<polygon fill="white" stroke="black" points="996.5,-562 996.5,-581 1128.5,-581 1128.5,-562 996.5,-562"/>
<text text-anchor="middle" x="1062.5" y="-569" font-family="Helvetica,sans-Serif" font-size="10.00">AC_WPNav::update_loiter</text>
</a>
</g>
</g>
<!-- Node16&#45;&gt;Node40 -->
<g id="edge54" class="edge"><title>Node16&#45;&gt;Node40</title>
<path fill="none" stroke="midnightblue" d="M897.004,-450.07C917.214,-477.323 953.868,-521.842 995,-548.5 1003.71,-554.147 1013.97,-558.58 1023.79,-561.982"/>
<polygon fill="midnightblue" stroke="midnightblue" points="899.752,-447.897 891.036,-441.873 894.093,-452.017 899.752,-447.897"/>
</g>
<!-- Node41 -->
<g id="node41" class="node"><title>Node41</title>
<g id="a_node41"><a xlink:href="$classAC__WPNav.html#af9d3f98ad44166d4c5d072bf3ba4a3db" xlink:title="update_brake &#45; run the brake controller &#45; should be called at 400hz ">
<polygon fill="white" stroke="black" points="995,-520 995,-539 1130,-539 1130,-520 995,-520"/>
<text text-anchor="middle" x="1062.5" y="-527" font-family="Helvetica,sans-Serif" font-size="10.00">AC_WPNav::update_brake</text>
</a>
</g>
</g>
<!-- Node16&#45;&gt;Node41 -->
<g id="edge56" class="edge"><title>Node16&#45;&gt;Node41</title>
<path fill="none" stroke="midnightblue" d="M907.031,-447.75C929.477,-464.987 963.008,-489.041 995,-505.5 1006.02,-511.171 1018.7,-516.103 1030.01,-519.997"/>
<polygon fill="midnightblue" stroke="midnightblue" points="909.042,-444.879 898.998,-441.507 904.747,-450.407 909.042,-444.879"/>
</g>
<!-- Node18 -->
<g id="node18" class="node"><title>Node18</title>
<g id="a_node18"><a xlink:href="$classAC__PosControl.html#a0a3dc64da9e355dea10959cb41e6aa8b" xlink:title="shift position target target in x, y axis ">
<polygon fill="white" stroke="black" points="1181,-174.5 1181,-204.5 1291,-204.5 1291,-174.5 1181,-174.5"/>
<text text-anchor="start" x="1189" y="-192.5" font-family="Helvetica,sans-Serif" font-size="10.00">AC_PosControl::shift</text>
<text text-anchor="middle" x="1236" y="-181.5" font-family="Helvetica,sans-Serif" font-size="10.00">_pos_xy_target</text>
</a>
</g>
</g>
<!-- Node17&#45;&gt;Node18 -->
<g id="edge28" class="edge"><title>Node17&#45;&gt;Node18</title>
<path fill="none" stroke="midnightblue" d="M1078.64,-307.549C1096.53,-281.067 1128.61,-238.812 1166,-213.5 1171.04,-210.087 1176.62,-207.11 1182.35,-204.526"/>
<polygon fill="midnightblue" stroke="midnightblue" points="1075.52,-305.931 1072.93,-316.204 1081.36,-309.79 1075.52,-305.931"/>
</g>
<!-- Node26 -->
<g id="node26" class="node"><title>Node26</title>
<g id="a_node26"><a xlink:href="$classAC__WPNav.html#a7ebe48af2381e791cbcdea94c7af2e3e" xlink:title="AC_WPNav::shift_wp\l_origin_to_current_pos">
<polygon fill="white" stroke="black" points="1560,-334.5 1560,-364.5 1675,-364.5 1675,-334.5 1560,-334.5"/>
<text text-anchor="start" x="1568" y="-352.5" font-family="Helvetica,sans-Serif" font-size="10.00">AC_WPNav::shift_wp</text>
<text text-anchor="middle" x="1617.5" y="-341.5" font-family="Helvetica,sans-Serif" font-size="10.00">_origin_to_current_pos</text>
</a>
</g>
</g>
<!-- Node17&#45;&gt;Node26 -->
<g id="edge47" class="edge"><title>Node17&#45;&gt;Node26</title>
<path fill="none" stroke="midnightblue" d="M1131.65,-340.274C1143.1,-341.52 1154.88,-342.661 1166,-343.5 1307.37,-354.167 1474.38,-352.737 1559.86,-350.992"/>
<polygon fill="midnightblue" stroke="midnightblue" points="1132.02,-336.793 1121.69,-339.157 1131.24,-343.75 1132.02,-336.793"/>
</g>
<!-- Node30 -->
<g id="node30" class="node"><title>Node30</title>
<g id="a_node30"><a xlink:href="$classAC__PosControl.html#a26ec8e9313b7c01fa449ba4f2d194d28" xlink:title="AC_PosControl::set\l_desired_velocity">
<polygon fill="white" stroke="black" points="1184,-272.5 1184,-302.5 1288,-302.5 1288,-272.5 1184,-272.5"/>
<text text-anchor="start" x="1192" y="-290.5" font-family="Helvetica,sans-Serif" font-size="10.00">AC_PosControl::set</text>
<text text-anchor="middle" x="1236" y="-279.5" font-family="Helvetica,sans-Serif" font-size="10.00">_desired_velocity</text>
</a>
</g>
</g>
<!-- Node17&#45;&gt;Node30 -->
<g id="edge42" class="edge"><title>Node17&#45;&gt;Node30</title>
<path fill="none" stroke="midnightblue" d="M1131.67,-314.01C1149.08,-309.543 1167.5,-304.817 1183.89,-300.612"/>
<polygon fill="midnightblue" stroke="midnightblue" points="1130.38,-310.728 1121.56,-316.604 1132.12,-317.509 1130.38,-310.728"/>
</g>
<!-- Node32 -->
<g id="node32" class="node"><title>Node32</title>
<g id="a_node32"><a xlink:href="$classAC__WPNav.html#a9b3fd8fd5c74d31ebffa89cdf98f570a" xlink:title="loiter_soften_for_landing &#45; reduce response for landing ">
<polygon fill="white" stroke="black" points="1171,-223.5 1171,-253.5 1301,-253.5 1301,-223.5 1171,-223.5"/>
<text text-anchor="start" x="1179" y="-241.5" font-family="Helvetica,sans-Serif" font-size="10.00">AC_WPNav::loiter_soften</text>
<text text-anchor="middle" x="1236" y="-230.5" font-family="Helvetica,sans-Serif" font-size="10.00">_for_landing</text>
</a>
</g>
</g>
<!-- Node17&#45;&gt;Node32 -->
<g id="edge45" class="edge"><title>Node17&#45;&gt;Node32</title>
<path fill="none" stroke="midnightblue" d="M1090.64,-310.387C1110.65,-295.549 1138.97,-276.014 1166,-262.5 1172.47,-259.267 1179.47,-256.284 1186.46,-253.6"/>
<polygon fill="midnightblue" stroke="midnightblue" points="1088.5,-307.621 1082.61,-316.427 1092.7,-313.217 1088.5,-307.621"/>
</g>
<!-- Node17&#45;&gt;Node34 -->
<g id="edge48" class="edge"><title>Node17&#45;&gt;Node34</title>
<path fill="none" stroke="midnightblue" d="M1082.4,-354.475C1101.38,-376.1 1132.54,-407.869 1166,-426.5 1172.95,-430.369 1180.73,-433.49 1188.51,-435.997"/>
<polygon fill="midnightblue" stroke="midnightblue" points="1084.91,-352.033 1075.74,-346.732 1079.61,-356.596 1084.91,-352.033"/>
</g>
<!-- Node17&#45;&gt;Node36 -->
<g id="edge50" class="edge"><title>Node17&#45;&gt;Node36</title>
<path fill="none" stroke="midnightblue" d="M1099.92,-351.488C1119.26,-361.71 1143.59,-373.97 1166,-383.5 1178.49,-388.811 1192.59,-393.875 1204.78,-397.971"/>
<polygon fill="midnightblue" stroke="midnightblue" points="1101.33,-348.274 1090.86,-346.654 1098.04,-354.45 1101.33,-348.274"/>
</g>
<!-- Node19 -->
<g id="node19" class="node"><title>Node19</title>
<g id="a_node19"><a xlink:href="$classAC__PosControl.html#adcd8a80dc29c0e77d0c3f225689319b9" xlink:title="check for ekf position reset and adjust loiter or brake target position ">
<polygon fill="white" stroke="black" points="1363,-88.5 1363,-118.5 1480,-118.5 1480,-88.5 1363,-88.5"/>
<text text-anchor="start" x="1371" y="-106.5" font-family="Helvetica,sans-Serif" font-size="10.00">AC_PosControl::check</text>
<text text-anchor="middle" x="1421.5" y="-95.5" font-family="Helvetica,sans-Serif" font-size="10.00">_for_ekf_xy_reset</text>
</a>
</g>
</g>
<!-- Node18&#45;&gt;Node19 -->
<g id="edge29" class="edge"><title>Node18&#45;&gt;Node19</title>
<path fill="none" stroke="midnightblue" d="M1278.85,-169.888C1312.14,-154.287 1358.02,-132.782 1388.44,-118.525"/>
<polygon fill="midnightblue" stroke="midnightblue" points="1276.95,-166.91 1269.38,-174.323 1279.92,-173.248 1276.95,-166.91"/>
</g>
<!-- Node21 -->
<g id="node21" class="node"><title>Node21</title>
<g id="a_node21"><a xlink:href="$classAC__PosControl.html#a6b3617b946ffd6935c11a63629f186ec" xlink:title="get_pos_target &#45; get target as position vector (from home in cm) ">
<polygon fill="white" stroke="black" points="1369.5,-222.5 1369.5,-252.5 1473.5,-252.5 1473.5,-222.5 1369.5,-222.5"/>
<text text-anchor="start" x="1377.5" y="-240.5" font-family="Helvetica,sans-Serif" font-size="10.00">AC_PosControl::get</text>
<text text-anchor="middle" x="1421.5" y="-229.5" font-family="Helvetica,sans-Serif" font-size="10.00">_pos_target</text>
</a>
</g>
</g>
<!-- Node18&#45;&gt;Node21 -->
<g id="edge33" class="edge"><title>Node18&#45;&gt;Node21</title>
<path fill="none" stroke="midnightblue" d="M1300.83,-206.197C1323.24,-212.059 1348.11,-218.563 1369.34,-224.117"/>
<polygon fill="midnightblue" stroke="midnightblue" points="1301.62,-202.787 1291.06,-203.642 1299.85,-209.559 1301.62,-202.787"/>
</g>
<!-- Node19&#45;&gt;Node16 -->
<g id="edge30" class="edge"><title>Node19&#45;&gt;Node16</title>
<path fill="none" stroke="midnightblue" d="M1352.85,-99.573C1299.5,-99.2041 1224.59,-104.889 1166,-133.5 1029.11,-200.351 921.178,-360.878 889.783,-411.167"/>
<polygon fill="midnightblue" stroke="midnightblue" points="1352.84,-103.073 1362.89,-99.7153 1352.94,-96.0738 1352.84,-103.073"/>
</g>
<!-- Node19&#45;&gt;Node20 -->
<g id="edge31" class="edge"><title>Node19&#45;&gt;Node20</title>
<path fill="none" stroke="midnightblue" d="M1490.37,-103.5C1512.2,-103.5 1536.21,-103.5 1557.36,-103.5"/>
<polygon fill="midnightblue" stroke="midnightblue" points="1490.18,-100 1480.18,-103.5 1490.18,-107 1490.18,-100"/>
</g>
<!-- Node20&#45;&gt;Node17 -->
<g id="edge32" class="edge"><title>Node20&#45;&gt;Node17</title>
<path fill="none" stroke="midnightblue" d="M1547.47,-118.959C1532.21,-122.063 1516.1,-125.103 1501,-127.5 1427.03,-139.243 1229.25,-124.389 1166,-164.5 1108.54,-200.937 1078.3,-282.37 1067.82,-316.253"/>
<polygon fill="midnightblue" stroke="midnightblue" points="1548.26,-122.369 1557.35,-116.916 1546.85,-115.514 1548.26,-122.369"/>
</g>
<!-- Node22 -->
<g id="node22" class="node"><title>Node22</title>
<g id="a_node22"><a xlink:href="$classAC__Circle.html#a20eefa0e2e7172498728dbf1f5eed4af" xlink:title="AC_Circle::init">
<polygon fill="white" stroke="black" points="1577.5,-286 1577.5,-305 1657.5,-305 1657.5,-286 1577.5,-286"/>
<text text-anchor="middle" x="1617.5" y="-293" font-family="Helvetica,sans-Serif" font-size="10.00">AC_Circle::init</text>
</a>
</g>
</g>
<!-- Node21&#45;&gt;Node22 -->
<g id="edge34" class="edge"><title>Node21&#45;&gt;Node22</title>
<path fill="none" stroke="midnightblue" d="M1480.72,-255.768C1487.57,-257.998 1494.45,-260.275 1501,-262.5 1517.11,-267.971 1520.73,-270.53 1537,-275.5 1550.07,-279.492 1564.51,-283.302 1577.47,-286.506"/>
<polygon fill="midnightblue" stroke="midnightblue" points="1481.34,-252.291 1470.75,-252.547 1479.19,-258.952 1481.34,-252.291"/>
</g>
<!-- Node23 -->
<g id="node23" class="node"><title>Node23</title>
<g id="a_node23"><a xlink:href="$classAC__WPNav.html#a7f711c7661c335417cbcc28f9546688c" xlink:title="get_loiter_bearing_to_target &#45; get bearing to loiter target in centi&#45;degrees ">
<polygon fill="white" stroke="black" points="1559.5,-236.5 1559.5,-266.5 1675.5,-266.5 1675.5,-236.5 1559.5,-236.5"/>
<text text-anchor="start" x="1567.5" y="-254.5" font-family="Helvetica,sans-Serif" font-size="10.00">AC_WPNav::get_loiter</text>
<text text-anchor="middle" x="1617.5" y="-243.5" font-family="Helvetica,sans-Serif" font-size="10.00">_bearing_to_target</text>
</a>
</g>
</g>
<!-- Node21&#45;&gt;Node23 -->
<g id="edge35" class="edge"><title>Node21&#45;&gt;Node23</title>
<path fill="none" stroke="midnightblue" d="M1483.83,-241.926C1507.94,-243.665 1535.46,-245.652 1559.17,-247.362"/>
<polygon fill="midnightblue" stroke="midnightblue" points="1483.95,-238.426 1473.72,-241.197 1483.45,-245.407 1483.95,-238.426"/>
</g>
<!-- Node25 -->
<g id="node25" class="node"><title>Node25</title>
<g id="a_node25"><a xlink:href="$classAC__WPNav.html#a38519fcac3a24cf64ec7c37e90fc3e13" xlink:title="AC_WPNav::set_wp_destination">
<polygon fill="white" stroke="black" points="1537,-198 1537,-217 1698,-217 1698,-198 1537,-198"/>
<text text-anchor="middle" x="1617.5" y="-205" font-family="Helvetica,sans-Serif" font-size="10.00">AC_WPNav::set_wp_destination</text>
</a>
</g>
</g>
<!-- Node21&#45;&gt;Node25 -->
<g id="edge37" class="edge"><title>Node21&#45;&gt;Node25</title>
<path fill="none" stroke="midnightblue" d="M1483.91,-228.004C1506.59,-224.497 1532.27,-220.525 1554.96,-217.016"/>
<polygon fill="midnightblue" stroke="midnightblue" points="1483.07,-224.591 1473.72,-229.579 1484.14,-231.509 1483.07,-224.591"/>
</g>
<!-- Node21&#45;&gt;Node26 -->
<g id="edge38" class="edge"><title>Node21&#45;&gt;Node26</title>
<path fill="none" stroke="midnightblue" d="M1483.21,-252.283C1489.52,-255.126 1495.59,-258.5 1501,-262.5 1523.6,-279.214 1515.32,-296.608 1537,-314.5 1546.89,-322.659 1558.97,-329.259 1570.71,-334.435"/>
<polygon fill="midnightblue" stroke="midnightblue" points="1484.44,-249.002 1473.85,-248.487 1481.8,-255.489 1484.44,-249.002"/>
</g>
<!-- Node28 -->
<g id="node28" class="node"><title>Node28</title>
<g id="a_node28"><a xlink:href="$classAC__WPNav.html#a8caabd95cf51512456cd8d81f38dbff9" xlink:title="AC_WPNav::set_spline\l_destination">
<polygon fill="white" stroke="black" points="1557,-148.5 1557,-178.5 1678,-178.5 1678,-148.5 1557,-148.5"/>
<text text-anchor="start" x="1565" y="-166.5" font-family="Helvetica,sans-Serif" font-size="10.00">AC_WPNav::set_spline</text>
<text text-anchor="middle" x="1617.5" y="-155.5" font-family="Helvetica,sans-Serif" font-size="10.00">_destination</text>
</a>
</g>
</g>
<!-- Node21&#45;&gt;Node28 -->
<g id="edge40" class="edge"><title>Node21&#45;&gt;Node28</title>
<path fill="none" stroke="midnightblue" d="M1464.39,-218.382C1485.89,-208.877 1512.62,-197.523 1537,-188.5 1546.23,-185.085 1556.16,-181.72 1565.78,-178.62"/>
<polygon fill="midnightblue" stroke="midnightblue" points="1462.93,-215.203 1455.22,-222.467 1465.78,-221.598 1462.93,-215.203"/>
</g>
<!-- Node29 -->
<g id="node29" class="node"><title>Node29</title>
<g id="a_node29"><a xlink:href="$classAC__WPNav.html#ae34a88192799de8f2b96c8cd295bb971" xlink:title="get_loiter_target &#45; returns loiter target position ">
<polygon fill="white" stroke="black" points="1559.5,-537.5 1559.5,-567.5 1675.5,-567.5 1675.5,-537.5 1559.5,-537.5"/>
<text text-anchor="start" x="1567.5" y="-555.5" font-family="Helvetica,sans-Serif" font-size="10.00">AC_WPNav::get_loiter</text>
<text text-anchor="middle" x="1617.5" y="-544.5" font-family="Helvetica,sans-Serif" font-size="10.00">_target</text>
</a>
</g>
</g>
<!-- Node21&#45;&gt;Node29 -->
<g id="edge41" class="edge"><title>Node21&#45;&gt;Node29</title>
<path fill="none" stroke="midnightblue" d="M1482.99,-250.046C1489.63,-253.289 1495.84,-257.368 1501,-262.5 1537.77,-299.075 1518.45,-325.068 1537,-373.5 1560.72,-435.42 1594.43,-506.867 1609.15,-537.401"/>
<polygon fill="midnightblue" stroke="midnightblue" points="1484.31,-246.802 1473.74,-246.123 1481.58,-253.247 1484.31,-246.802"/>
</g>
<!-- Node24 -->
<g id="node24" class="node"><title>Node24</title>
<g id="a_node24"><a xlink:href="$classAC__WPNav.html#a828016e98938c6bbb6236e0b92e20807" xlink:title="get_loiter_distance_to_target &#45; get horizontal distance to loiter target in cm ">
<polygon fill="white" stroke="black" points="1744.5,-236.5 1744.5,-266.5 1860.5,-266.5 1860.5,-236.5 1744.5,-236.5"/>
<text text-anchor="start" x="1752.5" y="-254.5" font-family="Helvetica,sans-Serif" font-size="10.00">AC_WPNav::get_loiter</text>
<text text-anchor="middle" x="1802.5" y="-243.5" font-family="Helvetica,sans-Serif" font-size="10.00">_distance_to_target</text>
</a>
</g>
</g>
<!-- Node23&#45;&gt;Node24 -->
<g id="edge36" class="edge"><title>Node23&#45;&gt;Node24</title>
<path fill="none" stroke="midnightblue" d="M1685.86,-251.5C1705.11,-251.5 1725.9,-251.5 1744.47,-251.5"/>
<polygon fill="midnightblue" stroke="midnightblue" points="1685.65,-248 1675.65,-251.5 1685.65,-255 1685.65,-248"/>
</g>
<!-- Node27 -->
<g id="node27" class="node"><title>Node27</title>
<g id="a_node27"><a xlink:href="$classAC__WPNav.html#acc07b8521654cf468b6a86fad9104a4c" xlink:title="get origin using position vector (distance from home in cm) ">
<polygon fill="white" stroke="black" points="1734,-340 1734,-359 1871,-359 1871,-340 1734,-340"/>
<text text-anchor="middle" x="1802.5" y="-347" font-family="Helvetica,sans-Serif" font-size="10.00">AC_WPNav::get_wp_origin</text>
</a>
</g>
</g>
<!-- Node26&#45;&gt;Node27 -->
<g id="edge39" class="edge"><title>Node26&#45;&gt;Node27</title>
<path fill="none" stroke="midnightblue" d="M1685.55,-349.5C1701.25,-349.5 1717.98,-349.5 1733.72,-349.5"/>
<polygon fill="midnightblue" stroke="midnightblue" points="1685.4,-346 1675.4,-349.5 1685.4,-353 1685.4,-346"/>
</g>
<!-- Node31 -->
<g id="node31" class="node"><title>Node31</title>
<g id="a_node31"><a xlink:href="$classAC__PosControl.html#ae2897de0075f8f8aaa94eb7e8cad100b" xlink:title="xyz velocity controller ">
<polygon fill="white" stroke="black" points="1369.5,-310.5 1369.5,-340.5 1473.5,-340.5 1473.5,-310.5 1369.5,-310.5"/>
<text text-anchor="start" x="1377.5" y="-328.5" font-family="Helvetica,sans-Serif" font-size="10.00">AC_PosControl::init</text>
<text text-anchor="middle" x="1421.5" y="-317.5" font-family="Helvetica,sans-Serif" font-size="10.00">_vel_controller_xyz</text>
</a>
</g>
</g>
<!-- Node30&#45;&gt;Node31 -->
<g id="edge43" class="edge"><title>Node30&#45;&gt;Node31</title>
<path fill="none" stroke="midnightblue" d="M1298.15,-300.164C1321.25,-304.946 1347.26,-310.333 1369.34,-314.906"/>
<polygon fill="midnightblue" stroke="midnightblue" points="1298.62,-296.686 1288.11,-298.085 1297.2,-303.54 1298.62,-296.686"/>
</g>
<!-- Node31&#45;&gt;Node17 -->
<g id="edge44" class="edge"><title>Node31&#45;&gt;Node17</title>
<path fill="none" stroke="midnightblue" d="M1358.98,-326.534C1292.36,-327.654 1186.92,-329.426 1121.65,-330.523"/>
<polygon fill="midnightblue" stroke="midnightblue" points="1359.38,-330.028 1369.32,-326.36 1359.26,-323.029 1359.38,-330.028"/>
</g>
<!-- Node33 -->
<g id="node33" class="node"><title>Node33</title>
<g id="a_node33"><a xlink:href="$classAC__WPNav.html#af37186ad98df47275d15c04761f81ab4" xlink:title="provide rangefinder altitude ">
<polygon fill="white" stroke="black" points="1342,-272 1342,-291 1501,-291 1501,-272 1342,-272"/>
<text text-anchor="middle" x="1421.5" y="-279" font-family="Helvetica,sans-Serif" font-size="10.00">AC_WPNav::set_rangefinder_alt</text>
</a>
</g>
</g>
<!-- Node32&#45;&gt;Node33 -->
<g id="edge46" class="edge"><title>Node32&#45;&gt;Node33</title>
<path fill="none" stroke="midnightblue" d="M1311.12,-255.869C1334.59,-261.368 1359.66,-267.242 1379.86,-271.978"/>
<polygon fill="midnightblue" stroke="midnightblue" points="1311.71,-252.413 1301.18,-253.539 1310.12,-259.229 1311.71,-252.413"/>
</g>
<!-- Node35 -->
<g id="node35" class="node"><title>Node35</title>
<g id="a_node35"><a xlink:href="$classAC__WPNav.html#a4795d6f44811c6ca8b592c5cc098e0c0" xlink:title="set_fast_waypoint &#45; set to true to ignore the waypoint radius and consider the waypoint &#39;reached&#39; the...">
<polygon fill="white" stroke="black" points="1365.5,-447.5 1365.5,-477.5 1477.5,-477.5 1477.5,-447.5 1365.5,-447.5"/>
<text text-anchor="start" x="1373.5" y="-465.5" font-family="Helvetica,sans-Serif" font-size="10.00">AC_WPNav::set_fast</text>
<text text-anchor="middle" x="1421.5" y="-454.5" font-family="Helvetica,sans-Serif" font-size="10.00">_waypoint</text>
</a>
</g>
</g>
<!-- Node34&#45;&gt;Node35 -->
<g id="edge49" class="edge"><title>Node34&#45;&gt;Node35</title>
<path fill="none" stroke="midnightblue" d="M1316.33,-452.85C1332.89,-454.384 1350.01,-455.969 1365.45,-457.4"/>
<polygon fill="midnightblue" stroke="midnightblue" points="1316.39,-449.34 1306.11,-451.903 1315.75,-456.31 1316.39,-449.34"/>
</g>
<!-- Node37 -->
<g id="node37" class="node"><title>Node37</title>
<g id="a_node37"><a xlink:href="$classAC__WPNav.html#a3169a6fb417742e33c3a5197bb7a6c6d" xlink:title="reached_spline_destination &#45; true when we have come within RADIUS cm of the waypoint ...">
<polygon fill="white" stroke="black" points="1350.5,-398.5 1350.5,-428.5 1492.5,-428.5 1492.5,-398.5 1350.5,-398.5"/>
<text text-anchor="start" x="1358.5" y="-416.5" font-family="Helvetica,sans-Serif" font-size="10.00">AC_WPNav::reached_spline</text>
<text text-anchor="middle" x="1421.5" y="-405.5" font-family="Helvetica,sans-Serif" font-size="10.00">_destination</text>
</a>
</g>
</g>
<!-- Node36&#45;&gt;Node37 -->
<g id="edge51" class="edge"><title>Node36&#45;&gt;Node37</title>
<path fill="none" stroke="midnightblue" d="M1314.81,-410.044C1326.6,-410.43 1338.71,-410.826 1350.33,-411.206"/>
<polygon fill="midnightblue" stroke="midnightblue" points="1314.66,-406.537 1304.55,-409.709 1314.43,-413.534 1314.66,-406.537"/>
</g>
<!-- Node39 -->
<g id="node39" class="node"><title>Node39</title>
<g id="a_node39"><a xlink:href="$classAC__Circle.html#a176fe6b798510eb180d35f62d7f6487c" xlink:title="get_angle_total &#45; return total angle in radians that vehicle has circled ">
<polygon fill="white" stroke="black" points="1181,-474.5 1181,-504.5 1291,-504.5 1291,-474.5 1181,-474.5"/>
<text text-anchor="start" x="1189" y="-492.5" font-family="Helvetica,sans-Serif" font-size="10.00">AC_Circle::get_angle</text>
<text text-anchor="middle" x="1236" y="-481.5" font-family="Helvetica,sans-Serif" font-size="10.00">_total</text>
</a>
</g>
</g>
<!-- Node38&#45;&gt;Node39 -->
<g id="edge53" class="edge"><title>Node38&#45;&gt;Node39</title>
<path fill="none" stroke="midnightblue" d="M1121.4,-487.513C1140.61,-487.849 1161.92,-488.222 1180.84,-488.553"/>
<polygon fill="midnightblue" stroke="midnightblue" points="1121.33,-484.011 1111.27,-487.336 1121.21,-491.01 1121.33,-484.011"/>
</g>
<!-- Node40&#45;&gt;Node29 -->
<g id="edge55" class="edge"><title>Node40&#45;&gt;Node29</title>
<path fill="none" stroke="midnightblue" d="M1138.76,-568.914C1250.72,-565.068 1458.7,-557.922 1559.2,-554.469"/>
<polygon fill="midnightblue" stroke="midnightblue" points="1138.44,-565.423 1128.56,-569.265 1138.68,-572.419 1138.44,-565.423"/>
</g>
<!-- Node41&#45;&gt;Node29 -->
<g id="edge57" class="edge"><title>Node41&#45;&gt;Node29</title>
<path fill="none" stroke="midnightblue" d="M1140.45,-532.7C1252.79,-537.373 1459.18,-545.957 1559.19,-550.116"/>
<polygon fill="midnightblue" stroke="midnightblue" points="1140.34,-529.193 1130.2,-532.274 1140.05,-536.187 1140.34,-529.193"/>
</g>
<!-- Node42&#45;&gt;Node29 -->
<g id="edge62" class="edge"><title>Node42&#45;&gt;Node29</title>
<path fill="none" stroke="midnightblue" d="M909.997,-563.244C932.681,-573.022 965.1,-585.308 995,-590.5 1200.56,-626.193 1449.42,-586.47 1559.45,-564.756"/>
<polygon fill="midnightblue" stroke="midnightblue" points="911.168,-559.935 900.606,-559.1 908.342,-566.339 911.168,-559.935"/>
</g>
</g>
</svg>
