<?xml version="1.0" encoding="UTF-8" standalone="no"?>
<!DOCTYPE svg PUBLIC "-//W3C//DTD SVG 1.1//EN"
 "http://www.w3.org/Graphics/SVG/1.1/DTD/svg11.dtd">
<!-- Generated by graphviz version 2.38.0 (20140413.2041)
 -->
<!-- Title: AC_AttitudeControl::attitude_controller_run_quat Pages: 1 -->
<svg width="953pt" height="874pt"
 viewBox="0.00 0.00 953.00 873.50" xmlns="http://www.w3.org/2000/svg" xmlns:xlink="http://www.w3.org/1999/xlink">
<g id="graph0" class="graph" transform="scale(1 1) rotate(0) translate(4 869.5)">
<title>AC_AttitudeControl::attitude_controller_run_quat</title>
<polygon fill="white" stroke="none" points="-4,4 -4,-869.5 949,-869.5 949,4 -4,4"/>
<!-- Node1 -->
<g id="node1" class="node"><title>Node1</title>
<polygon fill="#bfbfbf" stroke="black" points="0,-492 0,-533 101,-533 101,-492 0,-492"/>
<text text-anchor="start" x="8" y="-521" font-family="Helvetica,sans-Serif" font-size="10.00">AC_AttitudeControl</text>
<text text-anchor="start" x="8" y="-510" font-family="Helvetica,sans-Serif" font-size="10.00">::attitude_controller</text>
<text text-anchor="middle" x="50.5" y="-499" font-family="Helvetica,sans-Serif" font-size="10.00">_run_quat</text>
</g>
<!-- Node2 -->
<g id="node2" class="node"><title>Node2</title>
<g id="a_node2"><a xlink:href="$classQuaternion.html#a5ee01ee833114be6181887d0dcfb33b1" xlink:title="Quaternion::from_rotation\l_matrix">
<polygon fill="white" stroke="black" points="147.5,-664.5 147.5,-694.5 274.5,-694.5 274.5,-664.5 147.5,-664.5"/>
<text text-anchor="start" x="155.5" y="-682.5" font-family="Helvetica,sans-Serif" font-size="10.00">Quaternion::from_rotation</text>
<text text-anchor="middle" x="211" y="-671.5" font-family="Helvetica,sans-Serif" font-size="10.00">_matrix</text>
</a>
</g>
</g>
<!-- Node1&#45;&gt;Node2 -->
<g id="edge1" class="edge"><title>Node1&#45;&gt;Node2</title>
<path fill="none" stroke="midnightblue" d="M58.4978,-533.194C70.0205,-564.21 95.8928,-622.612 137,-655.5 138.602,-656.781 140.274,-657.995 142.003,-659.146"/>
<polygon fill="midnightblue" stroke="midnightblue" points="140.646,-662.404 151.055,-664.38 144.151,-656.344 140.646,-662.404"/>
</g>
<!-- Node3 -->
<g id="node3" class="node"><title>Node3</title>
<g id="a_node3"><a xlink:href="$classAP__AHRS__View.html#ab5593b92f3931a696a3fa8e5f38013b0" xlink:title="AP_AHRS_View::get_rotation\l_body_to_ned">
<polygon fill="white" stroke="black" points="137,-615.5 137,-645.5 285,-645.5 285,-615.5 137,-615.5"/>
<text text-anchor="start" x="145" y="-633.5" font-family="Helvetica,sans-Serif" font-size="10.00">AP_AHRS_View::get_rotation</text>
<text text-anchor="middle" x="211" y="-622.5" font-family="Helvetica,sans-Serif" font-size="10.00">_body_to_ned</text>
</a>
</g>
</g>
<!-- Node1&#45;&gt;Node3 -->
<g id="edge2" class="edge"><title>Node1&#45;&gt;Node3</title>
<path fill="none" stroke="midnightblue" d="M67.2411,-533.023C83.0896,-552.539 109.125,-581.639 137,-600.5 142.719,-604.369 149.014,-607.878 155.438,-611.017"/>
<polygon fill="midnightblue" stroke="midnightblue" points="154.341,-614.365 164.89,-615.353 157.26,-608.002 154.341,-614.365"/>
</g>
<!-- Node4 -->
<g id="node4" class="node"><title>Node4</title>
<g id="a_node4"><a xlink:href="$classAC__AttitudeControl.html#a36d027a3fc3c3c002d7490367688d1ea" xlink:title="AC_AttitudeControl\l::thrust_heading_rotation\l_angles">
<polygon fill="white" stroke="black" points="149,-517 149,-558 273,-558 273,-517 149,-517"/>
<text text-anchor="start" x="157" y="-546" font-family="Helvetica,sans-Serif" font-size="10.00">AC_AttitudeControl</text>
<text text-anchor="start" x="157" y="-535" font-family="Helvetica,sans-Serif" font-size="10.00">::thrust_heading_rotation</text>
<text text-anchor="middle" x="211" y="-524" font-family="Helvetica,sans-Serif" font-size="10.00">_angles</text>
</a>
</g>
</g>
<!-- Node1&#45;&gt;Node4 -->
<g id="edge3" class="edge"><title>Node1&#45;&gt;Node4</title>
<path fill="none" stroke="midnightblue" d="M101.216,-520.342C113.107,-522.217 126.034,-524.256 138.688,-526.252"/>
<polygon fill="midnightblue" stroke="midnightblue" points="138.33,-529.739 148.753,-527.84 139.421,-522.824 138.33,-529.739"/>
</g>
<!-- Node16 -->
<g id="node16" class="node"><title>Node16</title>
<g id="a_node16"><a xlink:href="$classQuaternion.html#a6c21fe33378aa16a33cba869ba4af5dc" xlink:title="Quaternion::from_axis\l_angle">
<polygon fill="white" stroke="black" points="336.5,-736.5 336.5,-766.5 449.5,-766.5 449.5,-736.5 336.5,-736.5"/>
<text text-anchor="start" x="344.5" y="-754.5" font-family="Helvetica,sans-Serif" font-size="10.00">Quaternion::from_axis</text>
<text text-anchor="middle" x="393" y="-743.5" font-family="Helvetica,sans-Serif" font-size="10.00">_angle</text>
</a>
</g>
</g>
<!-- Node1&#45;&gt;Node16 -->
<g id="edge62" class="edge"><title>Node1&#45;&gt;Node16</title>
<path fill="none" stroke="midnightblue" d="M78.7421,-533.174C94.9478,-544.649 116.323,-558.399 137,-567.5 199.259,-594.904 235.511,-559.831 285,-606.5 322.424,-641.792 287.293,-677.642 321,-716.5 325.953,-722.21 332.055,-727.081 338.583,-731.212"/>
<polygon fill="midnightblue" stroke="midnightblue" points="337.261,-734.486 347.683,-736.394 340.725,-728.404 337.261,-734.486"/>
</g>
<!-- Node17 -->
<g id="node17" class="node"><title>Node17</title>
<g id="a_node17"><a xlink:href="$classQuaternion.html#a0df66e20ea437eb346f8852690ede6a9" xlink:title="Quaternion::inverse">
<polygon fill="white" stroke="black" points="342.5,-485 342.5,-504 443.5,-504 443.5,-485 342.5,-485"/>
<text text-anchor="middle" x="393" y="-492" font-family="Helvetica,sans-Serif" font-size="10.00">Quaternion::inverse</text>
</a>
</g>
</g>
<!-- Node1&#45;&gt;Node17 -->
<g id="edge61" class="edge"><title>Node1&#45;&gt;Node17</title>
<path fill="none" stroke="midnightblue" d="M101.229,-509.529C112.958,-508.846 125.419,-508.134 137,-507.5 203.808,-503.844 280.481,-499.98 332.162,-497.424"/>
<polygon fill="midnightblue" stroke="midnightblue" points="332.34,-500.92 342.155,-496.931 331.994,-493.928 332.34,-500.92"/>
</g>
<!-- Node31 -->
<g id="node31" class="node"><title>Node31</title>
<g id="a_node31"><a xlink:href="$classAC__AttitudeControl.html#a6b2d7587c8e5f67432bfc0d306ad9fdc" xlink:title="AC_AttitudeControl\l::update_ang_vel_target\l_from_att_error">
<polygon fill="white" stroke="black" points="150.5,-316 150.5,-357 271.5,-357 271.5,-316 150.5,-316"/>
<text text-anchor="start" x="158.5" y="-345" font-family="Helvetica,sans-Serif" font-size="10.00">AC_AttitudeControl</text>
<text text-anchor="start" x="158.5" y="-334" font-family="Helvetica,sans-Serif" font-size="10.00">::update_ang_vel_target</text>
<text text-anchor="middle" x="211" y="-323" font-family="Helvetica,sans-Serif" font-size="10.00">_from_att_error</text>
</a>
</g>
</g>
<!-- Node1&#45;&gt;Node31 -->
<g id="edge35" class="edge"><title>Node1&#45;&gt;Node31</title>
<path fill="none" stroke="midnightblue" d="M69.9922,-491.966C98.3101,-460.522 152.494,-400.355 184.516,-364.798"/>
<polygon fill="midnightblue" stroke="midnightblue" points="187.289,-366.948 191.381,-357.175 182.088,-362.264 187.289,-366.948"/>
</g>
<!-- Node42 -->
<g id="node42" class="node"><title>Node42</title>
<g id="a_node42"><a xlink:href="$classAP__AHRS__View.html#aa83be8ece5cb8f54f9f7eba7839588b6" xlink:title="AP_AHRS_View::get_gyro">
<polygon fill="white" stroke="black" points="144,-205 144,-224 278,-224 278,-205 144,-205"/>
<text text-anchor="middle" x="211" y="-212" font-family="Helvetica,sans-Serif" font-size="10.00">AP_AHRS_View::get_gyro</text>
</a>
</g>
</g>
<!-- Node1&#45;&gt;Node42 -->
<g id="edge52" class="edge"><title>Node1&#45;&gt;Node42</title>
<path fill="none" stroke="midnightblue" d="M57.9802,-491.729C70.352,-453.536 99.4785,-370.234 137,-306.5 153.535,-278.414 177.881,-249.534 193.838,-231.801"/>
<polygon fill="midnightblue" stroke="midnightblue" points="196.765,-233.787 200.926,-224.044 191.597,-229.065 196.765,-233.787"/>
</g>
<!-- Node51 -->
<g id="node51" class="node"><title>Node51</title>
<g id="a_node51"><a xlink:href="$classQuaternion.html#a48e6bafb249c895ed25f29dc9170e11e" xlink:title="Quaternion::normalize">
<polygon fill="white" stroke="black" points="337,-409 337,-428 449,-428 449,-409 337,-409"/>
<text text-anchor="middle" x="393" y="-416" font-family="Helvetica,sans-Serif" font-size="10.00">Quaternion::normalize</text>
</a>
</g>
</g>
<!-- Node1&#45;&gt;Node51 -->
<g id="edge63" class="edge"><title>Node1&#45;&gt;Node51</title>
<path fill="none" stroke="midnightblue" d="M101.13,-498.529C155.17,-483.354 244.162,-458.472 321,-437.5 329.14,-435.278 337.812,-432.937 346.198,-430.685"/>
<polygon fill="midnightblue" stroke="midnightblue" points="347.108,-434.065 355.862,-428.096 345.297,-427.303 347.108,-434.065"/>
</g>
<!-- Node5 -->
<g id="node5" class="node"><title>Node5</title>
<g id="a_node5"><a xlink:href="$classQuaternion.html#afb7132c9c69a984a40be950a17effeaa" xlink:title="Quaternion::rotation\l_matrix">
<polygon fill="white" stroke="black" points="342,-610.5 342,-640.5 444,-640.5 444,-610.5 342,-610.5"/>
<text text-anchor="start" x="350" y="-628.5" font-family="Helvetica,sans-Serif" font-size="10.00">Quaternion::rotation</text>
<text text-anchor="middle" x="393" y="-617.5" font-family="Helvetica,sans-Serif" font-size="10.00">_matrix</text>
</a>
</g>
</g>
<!-- Node4&#45;&gt;Node5 -->
<g id="edge4" class="edge"><title>Node4&#45;&gt;Node5</title>
<path fill="none" stroke="midnightblue" d="M259.205,-558.156C267.975,-562.543 276.916,-567.402 285,-572.5 302.379,-583.459 302.99,-591.613 321,-601.5 324.657,-603.508 328.512,-605.389 332.457,-607.144"/>
<polygon fill="midnightblue" stroke="midnightblue" points="331.2,-610.411 341.778,-611.009 333.882,-603.945 331.2,-610.411"/>
</g>
<!-- Node6 -->
<g id="node6" class="node"><title>Node6</title>
<g id="a_node6"><a xlink:href="$AP__Math_8h.html#ad525609d9dba6ffa556a0fbf08a3f9b4" xlink:title="constrain_float">
<polygon fill="white" stroke="black" points="353,-447 353,-466 433,-466 433,-447 353,-447"/>
<text text-anchor="middle" x="393" y="-454" font-family="Helvetica,sans-Serif" font-size="10.00">constrain_float</text>
</a>
</g>
</g>
<!-- Node4&#45;&gt;Node6 -->
<g id="edge5" class="edge"><title>Node4&#45;&gt;Node6</title>
<path fill="none" stroke="midnightblue" d="M243.341,-516.81C264.557,-503.534 293.608,-486.738 321,-475.5 327.977,-472.638 335.517,-470.084 342.988,-467.85"/>
<polygon fill="midnightblue" stroke="midnightblue" points="344.047,-471.187 352.716,-465.097 342.141,-464.452 344.047,-471.187"/>
</g>
<!-- Node12 -->
<g id="node12" class="node"><title>Node12</title>
<g id="a_node12"><a xlink:href="$classVector3.html#ac1fd5514e368a1e1c2d13f71eda18345" xlink:title="Vector3::length">
<polygon fill="white" stroke="black" points="528,-742 528,-761 611,-761 611,-742 528,-742"/>
<text text-anchor="middle" x="569.5" y="-749" font-family="Helvetica,sans-Serif" font-size="10.00">Vector3::length</text>
</a>
</g>
</g>
<!-- Node4&#45;&gt;Node12 -->
<g id="edge11" class="edge"><title>Node4&#45;&gt;Node12</title>
<path fill="none" stroke="midnightblue" d="M267.614,-558.082C274.057,-562.139 280.073,-566.913 285,-572.5 318.466,-610.447 284.473,-645.489 321,-680.5 335.37,-694.273 449.544,-723.248 517.694,-739.606"/>
<polygon fill="midnightblue" stroke="midnightblue" points="517.266,-743.102 527.806,-742.021 518.893,-736.294 517.266,-743.102"/>
</g>
<!-- Node15 -->
<g id="node15" class="node"><title>Node15</title>
<g id="a_node15"><a xlink:href="$AP__Math_8h.html#a2a12cce483e9b870da70d30406d82c60" xlink:title="is_zero">
<polygon fill="white" stroke="black" points="545.5,-523 545.5,-542 593.5,-542 593.5,-523 545.5,-523"/>
<text text-anchor="middle" x="569.5" y="-530" font-family="Helvetica,sans-Serif" font-size="10.00">is_zero</text>
</a>
</g>
</g>
<!-- Node4&#45;&gt;Node15 -->
<g id="edge14" class="edge"><title>Node4&#45;&gt;Node15</title>
<path fill="none" stroke="midnightblue" d="M273.285,-536.64C349.157,-535.576 475.65,-533.802 535.363,-532.965"/>
<polygon fill="midnightblue" stroke="midnightblue" points="535.421,-536.464 545.371,-532.824 535.323,-529.465 535.421,-536.464"/>
</g>
<!-- Node4&#45;&gt;Node16 -->
<g id="edge15" class="edge"><title>Node4&#45;&gt;Node16</title>
<path fill="none" stroke="midnightblue" d="M268.788,-558.167C274.881,-562.187 280.491,-566.928 285,-572.5 327.859,-625.457 276.901,-669.571 321,-721.5 324.005,-725.038 327.499,-728.168 331.294,-730.936"/>
<polygon fill="midnightblue" stroke="midnightblue" points="329.686,-734.06 340.012,-736.434 333.42,-728.139 329.686,-734.06"/>
</g>
<!-- Node4&#45;&gt;Node17 -->
<g id="edge18" class="edge"><title>Node4&#45;&gt;Node17</title>
<path fill="none" stroke="midnightblue" d="M273.191,-522.882C295.715,-517.501 320.93,-511.478 342.317,-506.369"/>
<polygon fill="midnightblue" stroke="midnightblue" points="343.251,-509.744 352.164,-504.016 341.624,-502.936 343.251,-509.744"/>
</g>
<!-- Node19 -->
<g id="node19" class="node"><title>Node19</title>
<g id="a_node19"><a xlink:href="$classQuaternion.html#aa4262462e1c1217fd3bd97b6421dd318" xlink:title="Quaternion::to_axis\l_angle">
<polygon fill="white" stroke="black" points="342.5,-561.5 342.5,-591.5 443.5,-591.5 443.5,-561.5 342.5,-561.5"/>
<text text-anchor="start" x="350.5" y="-579.5" font-family="Helvetica,sans-Serif" font-size="10.00">Quaternion::to_axis</text>
<text text-anchor="middle" x="393" y="-568.5" font-family="Helvetica,sans-Serif" font-size="10.00">_angle</text>
</a>
</g>
</g>
<!-- Node4&#45;&gt;Node19 -->
<g id="edge20" class="edge"><title>Node4&#45;&gt;Node19</title>
<path fill="none" stroke="midnightblue" d="M273.191,-550.758C292.284,-554.895 313.31,-559.45 332.299,-563.565"/>
<polygon fill="midnightblue" stroke="midnightblue" points="331.802,-567.038 342.317,-565.735 333.285,-560.197 331.802,-567.038"/>
</g>
<!-- Node20 -->
<g id="node20" class="node"><title>Node20</title>
<g id="a_node20"><a xlink:href="$AP__Math_8cpp.html#a21d0562d7b23dd9f04bc30a3611cc577" xlink:title="wrap_PI">
<polygon fill="white" stroke="black" points="543,-660 543,-679 596,-679 596,-660 543,-660"/>
<text text-anchor="middle" x="569.5" y="-667" font-family="Helvetica,sans-Serif" font-size="10.00">wrap_PI</text>
</a>
</g>
</g>
<!-- Node4&#45;&gt;Node20 -->
<g id="edge34" class="edge"><title>Node4&#45;&gt;Node20</title>
<path fill="none" stroke="midnightblue" d="M266.305,-558.165C273.11,-562.238 279.574,-566.994 285,-572.5 311.799,-599.695 289.651,-628.706 321,-650.5 384.725,-694.802 481.277,-686.175 532.932,-677.164"/>
<polygon fill="midnightblue" stroke="midnightblue" points="533.746,-680.573 542.943,-675.314 532.474,-673.69 533.746,-680.573"/>
</g>
<!-- Node30 -->
<g id="node30" class="node"><title>Node30</title>
<g id="a_node30"><a xlink:href="$classAC__P.html#a723b372dfceb74ddb2edbe11544e9d5a" xlink:title="AC_P::kP">
<polygon fill="white" stroke="black" points="362.5,-371 362.5,-390 423.5,-390 423.5,-371 362.5,-371"/>
<text text-anchor="middle" x="393" y="-378" font-family="Helvetica,sans-Serif" font-size="10.00">AC_P::kP</text>
</a>
</g>
</g>
<!-- Node4&#45;&gt;Node30 -->
<g id="edge33" class="edge"><title>Node4&#45;&gt;Node30</title>
<path fill="none" stroke="midnightblue" d="M222.559,-516.978C239.266,-486.592 274.706,-429.954 321,-399.5 330.29,-393.388 341.483,-389.236 352.207,-386.417"/>
<polygon fill="midnightblue" stroke="midnightblue" points="353.307,-389.756 362.267,-384.103 351.737,-382.934 353.307,-389.756"/>
</g>
<!-- Node7 -->
<g id="node7" class="node"><title>Node7</title>
<g id="a_node7"><a xlink:href="$AP__Math_8h.html#a20e8f8671c282c69c1954652b6d61585" xlink:title="constrain_value">
<polygon fill="white" stroke="black" points="527,-447 527,-466 612,-466 612,-447 527,-447"/>
<text text-anchor="middle" x="569.5" y="-454" font-family="Helvetica,sans-Serif" font-size="10.00">constrain_value</text>
</a>
</g>
</g>
<!-- Node6&#45;&gt;Node7 -->
<g id="edge6" class="edge"><title>Node6&#45;&gt;Node7</title>
<path fill="none" stroke="midnightblue" d="M433.161,-456.5C457.734,-456.5 489.707,-456.5 516.406,-456.5"/>
<polygon fill="midnightblue" stroke="midnightblue" points="516.73,-460 526.73,-456.5 516.73,-453 516.73,-460"/>
</g>
<!-- Node8 -->
<g id="node8" class="node"><title>Node8</title>
<g id="a_node8"><a xlink:href="$AP__Math_8cpp.html#a37e8e901754cb9c8e53a8e3030c82c50" xlink:title="constrain_value\&lt; int \&gt;">
<polygon fill="white" stroke="black" points="683,-485 683,-504 796,-504 796,-485 683,-485"/>
<text text-anchor="middle" x="739.5" y="-492" font-family="Helvetica,sans-Serif" font-size="10.00">constrain_value&lt; int &gt;</text>
</a>
</g>
</g>
<!-- Node7&#45;&gt;Node8 -->
<g id="edge7" class="edge"><title>Node7&#45;&gt;Node8</title>
<path fill="none" stroke="midnightblue" d="M612.028,-465.893C634.474,-470.97 662.41,-477.289 686.313,-482.696"/>
<polygon fill="midnightblue" stroke="midnightblue" points="685.757,-486.158 696.283,-484.951 687.301,-479.331 685.757,-486.158"/>
</g>
<!-- Node9 -->
<g id="node9" class="node"><title>Node9</title>
<g id="a_node9"><a xlink:href="$AP__Math_8cpp.html#afdbe107ec1987d318a6347816fbf2b89" xlink:title="constrain_value\&lt; short \&gt;">
<polygon fill="white" stroke="black" points="677,-447 677,-466 802,-466 802,-447 677,-447"/>
<text text-anchor="middle" x="739.5" y="-454" font-family="Helvetica,sans-Serif" font-size="10.00">constrain_value&lt; short &gt;</text>
</a>
</g>
</g>
<!-- Node7&#45;&gt;Node9 -->
<g id="edge8" class="edge"><title>Node7&#45;&gt;Node9</title>
<path fill="none" stroke="midnightblue" d="M612.028,-456.5C628.507,-456.5 647.945,-456.5 666.575,-456.5"/>
<polygon fill="midnightblue" stroke="midnightblue" points="666.817,-460 676.817,-456.5 666.817,-453 666.817,-460"/>
</g>
<!-- Node10 -->
<g id="node10" class="node"><title>Node10</title>
<g id="a_node10"><a xlink:href="$AP__Math_8cpp.html#ae6c621670c214da687de21d4e3a92587" xlink:title="constrain_value\&lt; float \&gt;">
<polygon fill="white" stroke="black" points="678.5,-409 678.5,-428 800.5,-428 800.5,-409 678.5,-409"/>
<text text-anchor="middle" x="739.5" y="-416" font-family="Helvetica,sans-Serif" font-size="10.00">constrain_value&lt; float &gt;</text>
</a>
</g>
</g>
<!-- Node7&#45;&gt;Node10 -->
<g id="edge9" class="edge"><title>Node7&#45;&gt;Node10</title>
<path fill="none" stroke="midnightblue" d="M612.028,-447.107C634.474,-442.03 662.41,-435.711 686.313,-430.304"/>
<polygon fill="midnightblue" stroke="midnightblue" points="687.301,-433.669 696.283,-428.049 685.757,-426.842 687.301,-433.669"/>
</g>
<!-- Node11 -->
<g id="node11" class="node"><title>Node11</title>
<g id="a_node11"><a xlink:href="$AP__Math_8cpp.html#afe3990b00e9abc43fa97dfaf8e32f5c4" xlink:title="constrain_value\&lt; double \&gt;">
<polygon fill="white" stroke="black" points="674,-523 674,-542 805,-542 805,-523 674,-523"/>
<text text-anchor="middle" x="739.5" y="-530" font-family="Helvetica,sans-Serif" font-size="10.00">constrain_value&lt; double &gt;</text>
</a>
</g>
</g>
<!-- Node7&#45;&gt;Node11 -->
<g id="edge10" class="edge"><title>Node7&#45;&gt;Node11</title>
<path fill="none" stroke="midnightblue" d="M612.293,-464.483C621.155,-467.193 630.185,-470.779 638,-475.5 657.913,-487.529 654.16,-501.351 674,-513.5 677.43,-515.6 681.105,-517.479 684.897,-519.159"/>
<polygon fill="midnightblue" stroke="midnightblue" points="683.904,-522.529 694.491,-522.934 686.467,-516.015 683.904,-522.529"/>
</g>
<!-- Node13 -->
<g id="node13" class="node"><title>Node13</title>
<g id="a_node13"><a xlink:href="$AP__Math_8h.html#adc76d4a5e5c9ae8cb7ab17b55c40d636" xlink:title="norm">
<polygon fill="white" stroke="black" points="720.5,-751 720.5,-770 758.5,-770 758.5,-751 720.5,-751"/>
<text text-anchor="middle" x="739.5" y="-758" font-family="Helvetica,sans-Serif" font-size="10.00">norm</text>
</a>
</g>
</g>
<!-- Node12&#45;&gt;Node13 -->
<g id="edge12" class="edge"><title>Node12&#45;&gt;Node13</title>
<path fill="none" stroke="midnightblue" d="M611.168,-753.679C641.859,-755.323 683.178,-757.536 710.31,-758.99"/>
<polygon fill="midnightblue" stroke="midnightblue" points="710.133,-762.485 720.306,-759.525 710.508,-755.495 710.133,-762.485"/>
</g>
<!-- Node14 -->
<g id="node14" class="node"><title>Node14</title>
<g id="a_node14"><a xlink:href="$AP__Math_8h.html#a0375e3d67fd3911cacee5c3e1408c0f2" xlink:title="sq">
<polygon fill="white" stroke="black" points="878.5,-466 878.5,-485 907.5,-485 907.5,-466 878.5,-466"/>
<text text-anchor="middle" x="893" y="-473" font-family="Helvetica,sans-Serif" font-size="10.00">sq</text>
</a>
</g>
</g>
<!-- Node13&#45;&gt;Node14 -->
<g id="edge13" class="edge"><title>Node13&#45;&gt;Node14</title>
<path fill="none" stroke="midnightblue" d="M758.634,-759.634C772.983,-758.004 792.604,-753.534 805,-741.5 876.165,-672.413 889.155,-544.37 891.497,-495.323"/>
<polygon fill="midnightblue" stroke="midnightblue" points="895.002,-495.246 891.88,-485.122 888.007,-494.983 895.002,-495.246"/>
</g>
<!-- Node16&#45;&gt;Node12 -->
<g id="edge16" class="edge"><title>Node16&#45;&gt;Node12</title>
<path fill="none" stroke="midnightblue" d="M449.693,-751.5C471.551,-751.5 496.462,-751.5 517.809,-751.5"/>
<polygon fill="midnightblue" stroke="midnightblue" points="517.974,-755 527.974,-751.5 517.973,-748 517.974,-755"/>
</g>
<!-- Node16&#45;&gt;Node15 -->
<g id="edge17" class="edge"><title>Node16&#45;&gt;Node15</title>
<path fill="none" stroke="midnightblue" d="M405.994,-736.447C437.193,-697.292 520.784,-592.385 554.305,-550.315"/>
<polygon fill="midnightblue" stroke="midnightblue" points="557.167,-552.34 560.661,-542.338 551.692,-547.977 557.167,-552.34"/>
</g>
<!-- Node18 -->
<g id="node18" class="node"><title>Node18</title>
<g id="a_node18"><a xlink:href="$classQuaternion.html#abcc01358aada56ea5f0db4da18aaf77d" xlink:title="Quaternion::Quaternion">
<polygon fill="white" stroke="black" points="511,-485 511,-504 628,-504 628,-485 511,-485"/>
<text text-anchor="middle" x="569.5" y="-492" font-family="Helvetica,sans-Serif" font-size="10.00">Quaternion::Quaternion</text>
</a>
</g>
</g>
<!-- Node17&#45;&gt;Node18 -->
<g id="edge19" class="edge"><title>Node17&#45;&gt;Node18</title>
<path fill="none" stroke="midnightblue" d="M443.538,-494.5C461.303,-494.5 481.652,-494.5 500.698,-494.5"/>
<polygon fill="midnightblue" stroke="midnightblue" points="500.818,-498 510.818,-494.5 500.818,-491 500.818,-498"/>
</g>
<!-- Node19&#45;&gt;Node14 -->
<g id="edge21" class="edge"><title>Node19&#45;&gt;Node14</title>
<path fill="none" stroke="midnightblue" d="M443.719,-583.456C523.362,-592.453 682.981,-601.569 805,-551.5 835.296,-539.069 862.338,-511.577 877.952,-493.295"/>
<polygon fill="midnightblue" stroke="midnightblue" points="880.996,-495.105 884.663,-485.165 875.598,-490.649 880.996,-495.105"/>
</g>
<!-- Node19&#45;&gt;Node15 -->
<g id="edge22" class="edge"><title>Node19&#45;&gt;Node15</title>
<path fill="none" stroke="midnightblue" d="M443.538,-564.009C473.07,-556.562 509.741,-547.316 535.7,-540.771"/>
<polygon fill="midnightblue" stroke="midnightblue" points="536.588,-544.156 545.429,-538.317 534.877,-537.369 536.588,-544.156"/>
</g>
<!-- Node19&#45;&gt;Node20 -->
<g id="edge23" class="edge"><title>Node19&#45;&gt;Node20</title>
<path fill="none" stroke="midnightblue" d="M442.015,-591.615C449.832,-594.583 457.74,-597.904 465,-601.5 495.376,-616.547 527.595,-638.853 547.865,-653.769"/>
<polygon fill="midnightblue" stroke="midnightblue" points="545.924,-656.688 556.034,-659.858 550.108,-651.076 545.924,-656.688"/>
</g>
<!-- Node21 -->
<g id="node21" class="node"><title>Node21</title>
<g id="a_node21"><a xlink:href="$AP__Math_8cpp.html#aa66b7eae8d7e99247c6a2b3d2b5c7b8d" xlink:title="wrap_2PI">
<polygon fill="white" stroke="black" points="710.5,-789 710.5,-808 768.5,-808 768.5,-789 710.5,-789"/>
<text text-anchor="middle" x="739.5" y="-796" font-family="Helvetica,sans-Serif" font-size="10.00">wrap_2PI</text>
</a>
</g>
</g>
<!-- Node20&#45;&gt;Node21 -->
<g id="edge24" class="edge"><title>Node20&#45;&gt;Node21</title>
<path fill="none" stroke="midnightblue" d="M582.036,-679.219C595.932,-691.158 619.691,-712.317 638,-732.5 655.679,-751.988 652.31,-764.603 674,-779.5 681.915,-784.936 691.402,-788.84 700.634,-791.636"/>
<polygon fill="midnightblue" stroke="midnightblue" points="699.901,-795.062 710.465,-794.254 701.702,-788.298 699.901,-795.062"/>
</g>
<!-- Node26 -->
<g id="node26" class="node"><title>Node26</title>
<g id="a_node26"><a xlink:href="$AP__Math_8cpp.html#a044023fcfa899d449f5a219ca7596ca4" xlink:title="wrap_PI\&lt; int \&gt;">
<polygon fill="white" stroke="black" points="699,-675 699,-694 780,-694 780,-675 699,-675"/>
<text text-anchor="middle" x="739.5" y="-682" font-family="Helvetica,sans-Serif" font-size="10.00">wrap_PI&lt; int &gt;</text>
</a>
</g>
</g>
<!-- Node20&#45;&gt;Node26 -->
<g id="edge29" class="edge"><title>Node20&#45;&gt;Node26</title>
<path fill="none" stroke="midnightblue" d="M596.016,-671.778C620.591,-673.972 658.426,-677.351 688.934,-680.074"/>
<polygon fill="midnightblue" stroke="midnightblue" points="688.697,-683.567 698.969,-680.97 689.32,-676.595 688.697,-683.567"/>
</g>
<!-- Node27 -->
<g id="node27" class="node"><title>Node27</title>
<g id="a_node27"><a xlink:href="$AP__Math_8cpp.html#ad0041912c2965b653fa9cf6854e47bc8" xlink:title="wrap_PI\&lt; short \&gt;">
<polygon fill="white" stroke="black" points="693.5,-637 693.5,-656 785.5,-656 785.5,-637 693.5,-637"/>
<text text-anchor="middle" x="739.5" y="-644" font-family="Helvetica,sans-Serif" font-size="10.00">wrap_PI&lt; short &gt;</text>
</a>
</g>
</g>
<!-- Node20&#45;&gt;Node27 -->
<g id="edge30" class="edge"><title>Node20&#45;&gt;Node27</title>
<path fill="none" stroke="midnightblue" d="M596.016,-666.007C619.089,-662.848 653.849,-658.089 683.26,-654.063"/>
<polygon fill="midnightblue" stroke="midnightblue" points="683.979,-657.497 693.412,-652.673 683.029,-650.562 683.979,-657.497"/>
</g>
<!-- Node28 -->
<g id="node28" class="node"><title>Node28</title>
<g id="a_node28"><a xlink:href="$AP__Math_8cpp.html#a789e7d40c173a1fab6560d1b61609952" xlink:title="wrap_PI\&lt; float \&gt;">
<polygon fill="white" stroke="black" points="695,-599 695,-618 784,-618 784,-599 695,-599"/>
<text text-anchor="middle" x="739.5" y="-606" font-family="Helvetica,sans-Serif" font-size="10.00">wrap_PI&lt; float &gt;</text>
</a>
</g>
</g>
<!-- Node20&#45;&gt;Node28 -->
<g id="edge31" class="edge"><title>Node20&#45;&gt;Node28</title>
<path fill="none" stroke="midnightblue" d="M592.467,-659.846C613.254,-650.888 645.44,-637.474 674,-627.5 680.442,-625.25 687.305,-623.037 694.061,-620.962"/>
<polygon fill="midnightblue" stroke="midnightblue" points="695.25,-624.259 703.821,-618.031 693.236,-617.555 695.25,-624.259"/>
</g>
<!-- Node29 -->
<g id="node29" class="node"><title>Node29</title>
<g id="a_node29"><a xlink:href="$AP__Math_8cpp.html#a66b3a8191d62a34f4d673d5c62d8d1cf" xlink:title="wrap_PI\&lt; double \&gt;">
<polygon fill="white" stroke="black" points="690,-713 690,-732 789,-732 789,-713 690,-713"/>
<text text-anchor="middle" x="739.5" y="-720" font-family="Helvetica,sans-Serif" font-size="10.00">wrap_PI&lt; double &gt;</text>
</a>
</g>
</g>
<!-- Node20&#45;&gt;Node29 -->
<g id="edge32" class="edge"><title>Node20&#45;&gt;Node29</title>
<path fill="none" stroke="midnightblue" d="M596.375,-678.246C617.268,-685.249 647.455,-695.232 674,-703.5 680.973,-705.672 688.39,-707.917 695.617,-710.07"/>
<polygon fill="midnightblue" stroke="midnightblue" points="694.714,-713.452 705.296,-712.932 696.7,-706.74 694.714,-713.452"/>
</g>
<!-- Node22 -->
<g id="node22" class="node"><title>Node22</title>
<g id="a_node22"><a xlink:href="$AP__Math_8cpp.html#a50a4ded454375642e1944882b01a1ae5" xlink:title="wrap_2PI\&lt; int \&gt;">
<polygon fill="white" stroke="black" points="850,-808 850,-827 936,-827 936,-808 850,-808"/>
<text text-anchor="middle" x="893" y="-815" font-family="Helvetica,sans-Serif" font-size="10.00">wrap_2PI&lt; int &gt;</text>
</a>
</g>
</g>
<!-- Node21&#45;&gt;Node22 -->
<g id="edge25" class="edge"><title>Node21&#45;&gt;Node22</title>
<path fill="none" stroke="midnightblue" d="M768.641,-802.029C788.633,-804.536 816.064,-807.977 839.984,-810.977"/>
<polygon fill="midnightblue" stroke="midnightblue" points="839.63,-814.46 849.988,-812.231 840.501,-807.514 839.63,-814.46"/>
</g>
<!-- Node23 -->
<g id="node23" class="node"><title>Node23</title>
<g id="a_node23"><a xlink:href="$AP__Math_8cpp.html#aaf8ce7d4f9e3837bdbd5aac6545b4000" xlink:title="wrap_2PI\&lt; short \&gt;">
<polygon fill="white" stroke="black" points="844,-770 844,-789 942,-789 942,-770 844,-770"/>
<text text-anchor="middle" x="893" y="-777" font-family="Helvetica,sans-Serif" font-size="10.00">wrap_2PI&lt; short &gt;</text>
</a>
</g>
</g>
<!-- Node21&#45;&gt;Node23 -->
<g id="edge26" class="edge"><title>Node21&#45;&gt;Node23</title>
<path fill="none" stroke="midnightblue" d="M768.641,-794.971C786.896,-792.681 811.354,-789.614 833.677,-786.814"/>
<polygon fill="midnightblue" stroke="midnightblue" points="834.267,-790.268 843.754,-785.551 833.396,-783.322 834.267,-790.268"/>
</g>
<!-- Node24 -->
<g id="node24" class="node"><title>Node24</title>
<g id="a_node24"><a xlink:href="$AP__Math_8cpp.html#a7182302503c136742396e3057b680dc7" xlink:title="wrap_2PI\&lt; float \&gt;">
<polygon fill="white" stroke="black" points="845.5,-732 845.5,-751 940.5,-751 940.5,-732 845.5,-732"/>
<text text-anchor="middle" x="893" y="-739" font-family="Helvetica,sans-Serif" font-size="10.00">wrap_2PI&lt; float &gt;</text>
</a>
</g>
</g>
<!-- Node21&#45;&gt;Node24 -->
<g id="edge27" class="edge"><title>Node21&#45;&gt;Node24</title>
<path fill="none" stroke="midnightblue" d="M768.536,-791.551C780.016,-788.37 793.32,-784.247 805,-779.5 821.76,-772.688 824.489,-767.896 841,-760.5 845.454,-758.505 850.188,-756.541 854.906,-754.678"/>
<polygon fill="midnightblue" stroke="midnightblue" points="856.387,-757.858 864.475,-751.015 853.885,-751.321 856.387,-757.858"/>
</g>
<!-- Node25 -->
<g id="node25" class="node"><title>Node25</title>
<g id="a_node25"><a xlink:href="$AP__Math_8cpp.html#a0b4be48e39c65e97084146b9f1d22c00" xlink:title="wrap_2PI\&lt; double \&gt;">
<polygon fill="white" stroke="black" points="841,-846 841,-865 945,-865 945,-846 841,-846"/>
<text text-anchor="middle" x="893" y="-853" font-family="Helvetica,sans-Serif" font-size="10.00">wrap_2PI&lt; double &gt;</text>
</a>
</g>
</g>
<!-- Node21&#45;&gt;Node25 -->
<g id="edge28" class="edge"><title>Node21&#45;&gt;Node25</title>
<path fill="none" stroke="midnightblue" d="M765.681,-808.06C786.001,-815.765 815.328,-826.865 841,-836.5 846.142,-838.43 851.578,-840.463 856.909,-842.453"/>
<polygon fill="midnightblue" stroke="midnightblue" points="855.715,-845.743 866.307,-845.956 858.16,-839.183 855.715,-845.743"/>
</g>
<!-- Node31&#45;&gt;Node6 -->
<g id="edge45" class="edge"><title>Node31&#45;&gt;Node6</title>
<path fill="none" stroke="midnightblue" d="M228.686,-357.084C248.389,-380.042 283.282,-416.678 321,-437.5 327.834,-441.272 335.455,-444.327 343.098,-446.791"/>
<polygon fill="midnightblue" stroke="midnightblue" points="342.153,-450.161 352.733,-449.606 344.116,-443.442 342.153,-450.161"/>
</g>
<!-- Node31&#45;&gt;Node30 -->
<g id="edge44" class="edge"><title>Node31&#45;&gt;Node30</title>
<path fill="none" stroke="midnightblue" d="M271.937,-351.151C298.307,-357.597 328.567,-364.994 352.111,-370.749"/>
<polygon fill="midnightblue" stroke="midnightblue" points="351.542,-374.213 362.087,-373.188 353.204,-367.413 351.542,-374.213"/>
</g>
<!-- Node32 -->
<g id="node32" class="node"><title>Node32</title>
<g id="a_node32"><a xlink:href="$classAC__AttitudeControl.html#a1788967db1aa0dfe68fad24da23947f9" xlink:title="AC_AttitudeControl\l::sqrt_controller">
<polygon fill="white" stroke="black" points="342.5,-321.5 342.5,-351.5 443.5,-351.5 443.5,-321.5 342.5,-321.5"/>
<text text-anchor="start" x="350.5" y="-339.5" font-family="Helvetica,sans-Serif" font-size="10.00">AC_AttitudeControl</text>
<text text-anchor="middle" x="393" y="-328.5" font-family="Helvetica,sans-Serif" font-size="10.00">::sqrt_controller</text>
</a>
</g>
</g>
<!-- Node31&#45;&gt;Node32 -->
<g id="edge36" class="edge"><title>Node31&#45;&gt;Node32</title>
<path fill="none" stroke="midnightblue" d="M271.937,-336.5C291.269,-336.5 312.692,-336.5 332.026,-336.5"/>
<polygon fill="midnightblue" stroke="midnightblue" points="332.224,-340 342.224,-336.5 332.224,-333 332.224,-340"/>
</g>
<!-- Node38 -->
<g id="node38" class="node"><title>Node38</title>
<g id="a_node38"><a xlink:href="$classAC__AttitudeControl.html#a5a8d0a611d7791820332b37079bdc306" xlink:title="AC_AttitudeControl\l::get_accel_roll_max_radss">
<polygon fill="white" stroke="black" points="325,-272.5 325,-302.5 461,-302.5 461,-272.5 325,-272.5"/>
<text text-anchor="start" x="333" y="-290.5" font-family="Helvetica,sans-Serif" font-size="10.00">AC_AttitudeControl</text>
<text text-anchor="middle" x="393" y="-279.5" font-family="Helvetica,sans-Serif" font-size="10.00">::get_accel_roll_max_radss</text>
</a>
</g>
</g>
<!-- Node31&#45;&gt;Node38 -->
<g id="edge46" class="edge"><title>Node31&#45;&gt;Node38</title>
<path fill="none" stroke="midnightblue" d="M271.937,-320.184C289.627,-315.368 309.067,-310.076 327.056,-305.179"/>
<polygon fill="midnightblue" stroke="midnightblue" points="328.15,-308.509 336.88,-302.505 326.312,-301.754 328.15,-308.509"/>
</g>
<!-- Node40 -->
<g id="node40" class="node"><title>Node40</title>
<g id="a_node40"><a xlink:href="$classAC__AttitudeControl.html#abae95a10026ec6871f01b3e4c0919ea3" xlink:title="AC_AttitudeControl\l::get_accel_pitch_max_radss">
<polygon fill="white" stroke="black" points="321,-223.5 321,-253.5 465,-253.5 465,-223.5 321,-223.5"/>
<text text-anchor="start" x="329" y="-241.5" font-family="Helvetica,sans-Serif" font-size="10.00">AC_AttitudeControl</text>
<text text-anchor="middle" x="393" y="-230.5" font-family="Helvetica,sans-Serif" font-size="10.00">::get_accel_pitch_max_radss</text>
</a>
</g>
</g>
<!-- Node31&#45;&gt;Node40 -->
<g id="edge48" class="edge"><title>Node31&#45;&gt;Node40</title>
<path fill="none" stroke="midnightblue" d="M238.079,-315.816C259.419,-299.642 290.89,-277.463 321,-262.5 324.568,-260.727 328.299,-259.034 332.102,-257.429"/>
<polygon fill="midnightblue" stroke="midnightblue" points="333.662,-260.575 341.654,-253.62 331.069,-254.073 333.662,-260.575"/>
</g>
<!-- Node41 -->
<g id="node41" class="node"><title>Node41</title>
<g id="a_node41"><a xlink:href="$classAC__AttitudeControl.html#a445cb2fecd81068727882285bf839807" xlink:title="AC_AttitudeControl\l::get_accel_yaw_max_radss">
<polygon fill="white" stroke="black" points="322.5,-174.5 322.5,-204.5 463.5,-204.5 463.5,-174.5 322.5,-174.5"/>
<text text-anchor="start" x="330.5" y="-192.5" font-family="Helvetica,sans-Serif" font-size="10.00">AC_AttitudeControl</text>
<text text-anchor="middle" x="393" y="-181.5" font-family="Helvetica,sans-Serif" font-size="10.00">::get_accel_yaw_max_radss</text>
</a>
</g>
</g>
<!-- Node31&#45;&gt;Node41 -->
<g id="edge50" class="edge"><title>Node31&#45;&gt;Node41</title>
<path fill="none" stroke="midnightblue" d="M225.336,-315.642C243.735,-288.448 279.394,-241.106 321,-213.5 323.389,-211.915 325.892,-210.425 328.473,-209.026"/>
<polygon fill="midnightblue" stroke="midnightblue" points="330.049,-212.151 337.49,-204.609 326.97,-205.865 330.049,-212.151"/>
</g>
<!-- Node32&#45;&gt;Node14 -->
<g id="edge38" class="edge"><title>Node32&#45;&gt;Node14</title>
<path fill="none" stroke="midnightblue" d="M443.664,-330.762C524.266,-323.754 686.469,-319.381 805,-379.5 839.578,-397.038 867.035,-434.483 881.284,-457.075"/>
<polygon fill="midnightblue" stroke="midnightblue" points="878.374,-459.026 886.564,-465.747 884.353,-455.385 878.374,-459.026"/>
</g>
<!-- Node32&#45;&gt;Node15 -->
<g id="edge37" class="edge"><title>Node32&#45;&gt;Node15</title>
<path fill="none" stroke="midnightblue" d="M443.745,-346.774C451.72,-350.319 459.233,-355.087 465,-361.5 511.421,-413.122 452.947,-463.394 501,-513.5 509.953,-522.836 523.102,-527.695 535.421,-530.185"/>
<polygon fill="midnightblue" stroke="midnightblue" points="535.042,-533.669 545.464,-531.766 536.13,-526.754 535.042,-533.669"/>
</g>
<!-- Node33 -->
<g id="node33" class="node"><title>Node33</title>
<g id="a_node33"><a xlink:href="$AP__Math_8cpp.html#ac89eb1832d8e4d67fcf1ac07e3c25184" xlink:title="safe_sqrt">
<polygon fill="white" stroke="black" points="541,-262 541,-281 598,-281 598,-262 541,-262"/>
<text text-anchor="middle" x="569.5" y="-269" font-family="Helvetica,sans-Serif" font-size="10.00">safe_sqrt</text>
</a>
</g>
</g>
<!-- Node32&#45;&gt;Node33 -->
<g id="edge39" class="edge"><title>Node32&#45;&gt;Node33</title>
<path fill="none" stroke="midnightblue" d="M437.631,-321.371C446.695,-318.162 456.173,-314.759 465,-311.5 488.451,-302.842 514.721,-292.684 534.927,-284.771"/>
<polygon fill="midnightblue" stroke="midnightblue" points="536.291,-287.995 544.32,-281.083 533.733,-281.479 536.291,-287.995"/>
</g>
<!-- Node34 -->
<g id="node34" class="node"><title>Node34</title>
<g id="a_node34"><a xlink:href="$AP__Math_8cpp.html#aa5cb9421d48def32eb7574adb1b152b0" xlink:title="safe_sqrt\&lt; int \&gt;">
<polygon fill="white" stroke="black" points="696.5,-257 696.5,-276 782.5,-276 782.5,-257 696.5,-257"/>
<text text-anchor="middle" x="739.5" y="-264" font-family="Helvetica,sans-Serif" font-size="10.00">safe_sqrt&lt; int &gt;</text>
</a>
</g>
</g>
<!-- Node33&#45;&gt;Node34 -->
<g id="edge40" class="edge"><title>Node33&#45;&gt;Node34</title>
<path fill="none" stroke="midnightblue" d="M598.242,-270.674C622.085,-269.965 657.12,-268.922 686.209,-268.056"/>
<polygon fill="midnightblue" stroke="midnightblue" points="686.33,-271.554 696.222,-267.758 686.122,-264.557 686.33,-271.554"/>
</g>
<!-- Node35 -->
<g id="node35" class="node"><title>Node35</title>
<g id="a_node35"><a xlink:href="$AP__Math_8cpp.html#a6952300e3d03222491051d674312b67d" xlink:title="safe_sqrt\&lt; short \&gt;">
<polygon fill="white" stroke="black" points="691,-219 691,-238 788,-238 788,-219 691,-219"/>
<text text-anchor="middle" x="739.5" y="-226" font-family="Helvetica,sans-Serif" font-size="10.00">safe_sqrt&lt; short &gt;</text>
</a>
</g>
</g>
<!-- Node33&#45;&gt;Node35 -->
<g id="edge41" class="edge"><title>Node33&#45;&gt;Node35</title>
<path fill="none" stroke="midnightblue" d="M598.242,-264.399C623.529,-257.927 661.404,-248.233 691.424,-240.549"/>
<polygon fill="midnightblue" stroke="midnightblue" points="692.454,-243.898 701.274,-238.028 690.718,-237.117 692.454,-243.898"/>
</g>
<!-- Node36 -->
<g id="node36" class="node"><title>Node36</title>
<g id="a_node36"><a xlink:href="$AP__Math_8cpp.html#a40ae6cfccff676d9d2ff57e2e9ca549c" xlink:title="safe_sqrt\&lt; float \&gt;">
<polygon fill="white" stroke="black" points="692.5,-181 692.5,-200 786.5,-200 786.5,-181 692.5,-181"/>
<text text-anchor="middle" x="739.5" y="-188" font-family="Helvetica,sans-Serif" font-size="10.00">safe_sqrt&lt; float &gt;</text>
</a>
</g>
</g>
<!-- Node33&#45;&gt;Node36 -->
<g id="edge42" class="edge"><title>Node33&#45;&gt;Node36</title>
<path fill="none" stroke="midnightblue" d="M598.012,-267.62C610.913,-264.869 626.04,-260.235 638,-252.5 658.929,-238.964 653.153,-223.162 674,-209.5 677.112,-207.46 680.449,-205.634 683.907,-204"/>
<polygon fill="midnightblue" stroke="midnightblue" points="685.381,-207.178 693.27,-200.107 682.693,-200.714 685.381,-207.178"/>
</g>
<!-- Node37 -->
<g id="node37" class="node"><title>Node37</title>
<g id="a_node37"><a xlink:href="$AP__Math_8cpp.html#acf6795fb73b8b915b53126f71cd2712a" xlink:title="safe_sqrt\&lt; double \&gt;">
<polygon fill="white" stroke="black" points="687.5,-295 687.5,-314 791.5,-314 791.5,-295 687.5,-295"/>
<text text-anchor="middle" x="739.5" y="-302" font-family="Helvetica,sans-Serif" font-size="10.00">safe_sqrt&lt; double &gt;</text>
</a>
</g>
</g>
<!-- Node33&#45;&gt;Node37 -->
<g id="edge43" class="edge"><title>Node33&#45;&gt;Node37</title>
<path fill="none" stroke="midnightblue" d="M598.242,-276.949C620.404,-281.303 652.235,-287.555 679.973,-293.004"/>
<polygon fill="midnightblue" stroke="midnightblue" points="679.494,-296.476 689.981,-294.97 680.844,-289.608 679.494,-296.476"/>
</g>
<!-- Node39 -->
<g id="node39" class="node"><title>Node39</title>
<g id="a_node39"><a xlink:href="$AP__Math_8h.html#a75b14352ec1c95a8276af9a0813cfdc3" xlink:title="radians">
<polygon fill="white" stroke="black" points="545.5,-224 545.5,-243 593.5,-243 593.5,-224 545.5,-224"/>
<text text-anchor="middle" x="569.5" y="-231" font-family="Helvetica,sans-Serif" font-size="10.00">radians</text>
</a>
</g>
</g>
<!-- Node38&#45;&gt;Node39 -->
<g id="edge47" class="edge"><title>Node38&#45;&gt;Node39</title>
<path fill="none" stroke="midnightblue" d="M438.64,-272.437C457.783,-266.098 480.431,-258.756 501,-252.5 512.236,-249.083 524.589,-245.543 535.622,-242.458"/>
<polygon fill="midnightblue" stroke="midnightblue" points="536.612,-245.815 545.312,-239.77 534.741,-239.07 536.612,-245.815"/>
</g>
<!-- Node40&#45;&gt;Node39 -->
<g id="edge49" class="edge"><title>Node40&#45;&gt;Node39</title>
<path fill="none" stroke="midnightblue" d="M465.228,-236.459C489.512,-235.763 515.512,-235.018 535.348,-234.45"/>
<polygon fill="midnightblue" stroke="midnightblue" points="535.505,-237.947 545.401,-234.162 535.305,-230.95 535.505,-237.947"/>
</g>
<!-- Node41&#45;&gt;Node39 -->
<g id="edge51" class="edge"><title>Node41&#45;&gt;Node39</title>
<path fill="none" stroke="midnightblue" d="M453.565,-204.519C480.963,-211.428 512.425,-219.361 535.497,-225.178"/>
<polygon fill="midnightblue" stroke="midnightblue" points="534.911,-228.64 545.463,-227.691 536.622,-221.852 534.911,-228.64"/>
</g>
<!-- Node43 -->
<g id="node43" class="node"><title>Node43</title>
<g id="a_node43"><a xlink:href="$classAP__AHRS__View.html#aec99fce6a0287cfe2542ed2b7459d4d1" xlink:title="AP_AHRS_View::get_gyro\l_latest">
<polygon fill="white" stroke="black" points="326,-125.5 326,-155.5 460,-155.5 460,-125.5 326,-125.5"/>
<text text-anchor="start" x="334" y="-143.5" font-family="Helvetica,sans-Serif" font-size="10.00">AP_AHRS_View::get_gyro</text>
<text text-anchor="middle" x="393" y="-132.5" font-family="Helvetica,sans-Serif" font-size="10.00">_latest</text>
</a>
</g>
</g>
<!-- Node42&#45;&gt;Node43 -->
<g id="edge53" class="edge"><title>Node42&#45;&gt;Node43</title>
<path fill="none" stroke="midnightblue" d="M231.425,-204.844C253.021,-194.285 289.073,-177.179 321,-164.5 325.716,-162.627 330.643,-160.768 335.608,-158.961"/>
<polygon fill="midnightblue" stroke="midnightblue" points="336.907,-162.214 345.154,-155.563 334.559,-155.619 336.907,-162.214"/>
</g>
<!-- Node44 -->
<g id="node44" class="node"><title>Node44</title>
<g id="a_node44"><a xlink:href="$classAP__AHRS.html#a13ab26b0126885606c1d596072f8af04" xlink:title="AP_AHRS::get_gyro_latest">
<polygon fill="white" stroke="black" points="501,-96 501,-115 638,-115 638,-96 501,-96"/>
<text text-anchor="middle" x="569.5" y="-103" font-family="Helvetica,sans-Serif" font-size="10.00">AP_AHRS::get_gyro_latest</text>
</a>
</g>
</g>
<!-- Node43&#45;&gt;Node44 -->
<g id="edge54" class="edge"><title>Node43&#45;&gt;Node44</title>
<path fill="none" stroke="midnightblue" d="M460.469,-127.168C477.139,-123.825 494.884,-120.265 511.072,-117.019"/>
<polygon fill="midnightblue" stroke="midnightblue" points="511.81,-120.44 520.926,-115.042 510.433,-113.577 511.81,-120.44"/>
</g>
<!-- Node50 -->
<g id="node50" class="node"><title>Node50</title>
<g id="a_node50"><a xlink:href="$classVector3.html#a53d5701ae2db9492944550927279b7b8" xlink:title="Vector3::rotate">
<polygon fill="white" stroke="black" points="529,-134 529,-153 610,-153 610,-134 529,-134"/>
<text text-anchor="middle" x="569.5" y="-141" font-family="Helvetica,sans-Serif" font-size="10.00">Vector3::rotate</text>
</a>
</g>
</g>
<!-- Node43&#45;&gt;Node50 -->
<g id="edge60" class="edge"><title>Node43&#45;&gt;Node50</title>
<path fill="none" stroke="midnightblue" d="M460.469,-141.643C479.882,-141.976 500.753,-142.335 518.926,-142.648"/>
<polygon fill="midnightblue" stroke="midnightblue" points="518.94,-146.148 528.999,-142.821 519.06,-139.149 518.94,-146.148"/>
</g>
<!-- Node45 -->
<g id="node45" class="node"><title>Node45</title>
<g id="a_node45"><a xlink:href="$classAP__AHRS.html#adf9f5cf9e3df1b4318252d07e2817993" xlink:title="AP_AHRS::get_primary\l_gyro_index">
<polygon fill="white" stroke="black" points="679,-0.5 679,-30.5 800,-30.5 800,-0.5 679,-0.5"/>
<text text-anchor="start" x="687" y="-18.5" font-family="Helvetica,sans-Serif" font-size="10.00">AP_AHRS::get_primary</text>
<text text-anchor="middle" x="739.5" y="-7.5" font-family="Helvetica,sans-Serif" font-size="10.00">_gyro_index</text>
</a>
</g>
</g>
<!-- Node44&#45;&gt;Node45 -->
<g id="edge55" class="edge"><title>Node44&#45;&gt;Node45</title>
<path fill="none" stroke="midnightblue" d="M583.69,-95.7934C602.855,-81.9955 639.851,-56.5017 674,-39.5 677.51,-37.7527 681.179,-36.059 684.91,-34.434"/>
<polygon fill="midnightblue" stroke="midnightblue" points="686.367,-37.6187 694.254,-30.5443 683.677,-31.1562 686.367,-37.6187"/>
</g>
<!-- Node47 -->
<g id="node47" class="node"><title>Node47</title>
<g id="a_node47"><a xlink:href="$classAP__AHRS.html#a14398c5d2ae68bbe1c67482a91909ad9" xlink:title="AP_AHRS::get_ins">
<polygon fill="white" stroke="black" points="689,-99 689,-118 790,-118 790,-99 689,-99"/>
<text text-anchor="middle" x="739.5" y="-106" font-family="Helvetica,sans-Serif" font-size="10.00">AP_AHRS::get_ins</text>
</a>
</g>
</g>
<!-- Node44&#45;&gt;Node47 -->
<g id="edge57" class="edge"><title>Node44&#45;&gt;Node47</title>
<path fill="none" stroke="midnightblue" d="M638.348,-106.712C651.713,-106.95 665.646,-107.199 678.722,-107.433"/>
<polygon fill="midnightblue" stroke="midnightblue" points="678.937,-110.937 688.998,-107.616 679.062,-103.938 678.937,-110.937"/>
</g>
<!-- Node48 -->
<g id="node48" class="node"><title>Node48</title>
<g id="a_node48"><a xlink:href="$classAP__InertialSensor.html#a6df2d8ad956d4f375bdee541102f16af" xlink:title="AP_InertialSensor::\lget_gyro">
<polygon fill="white" stroke="black" points="689,-49.5 689,-79.5 790,-79.5 790,-49.5 689,-49.5"/>
<text text-anchor="start" x="697" y="-67.5" font-family="Helvetica,sans-Serif" font-size="10.00">AP_InertialSensor::</text>
<text text-anchor="middle" x="739.5" y="-56.5" font-family="Helvetica,sans-Serif" font-size="10.00">get_gyro</text>
</a>
</g>
</g>
<!-- Node44&#45;&gt;Node48 -->
<g id="edge58" class="edge"><title>Node44&#45;&gt;Node48</title>
<path fill="none" stroke="midnightblue" d="M609.465,-95.9907C630.16,-90.9402 656.032,-84.626 679.166,-78.9803"/>
<polygon fill="midnightblue" stroke="midnightblue" points="680.005,-82.3784 688.89,-76.6073 678.345,-75.578 680.005,-82.3784"/>
</g>
<!-- Node49 -->
<g id="node49" class="node"><title>Node49</title>
<g id="a_node49"><a xlink:href="$classAP__AHRS.html#a6876435645c1049077f33f225ab828f7" xlink:title="AP_AHRS::get_gyro_drift">
<polygon fill="white" stroke="black" points="675,-137 675,-156 804,-156 804,-137 675,-137"/>
<text text-anchor="middle" x="739.5" y="-144" font-family="Helvetica,sans-Serif" font-size="10.00">AP_AHRS::get_gyro_drift</text>
</a>
</g>
</g>
<!-- Node44&#45;&gt;Node49 -->
<g id="edge59" class="edge"><title>Node44&#45;&gt;Node49</title>
<path fill="none" stroke="midnightblue" d="M609.465,-115.009C633.34,-120.836 664.105,-128.344 689.607,-134.568"/>
<polygon fill="midnightblue" stroke="midnightblue" points="688.911,-138.001 699.456,-136.971 690.571,-131.2 688.911,-138.001"/>
</g>
<!-- Node46 -->
<g id="node46" class="node"><title>Node46</title>
<g id="a_node46"><a xlink:href="$classAP__InertialSensor.html#a7fa04e2f196b27b876d86966f64e1fed" xlink:title="AP_InertialSensor::\lget_primary_gyro">
<polygon fill="white" stroke="black" points="842.5,-0.5 842.5,-30.5 943.5,-30.5 943.5,-0.5 842.5,-0.5"/>
<text text-anchor="start" x="850.5" y="-18.5" font-family="Helvetica,sans-Serif" font-size="10.00">AP_InertialSensor::</text>
<text text-anchor="middle" x="893" y="-7.5" font-family="Helvetica,sans-Serif" font-size="10.00">get_primary_gyro</text>
</a>
</g>
</g>
<!-- Node45&#45;&gt;Node46 -->
<g id="edge56" class="edge"><title>Node45&#45;&gt;Node46</title>
<path fill="none" stroke="midnightblue" d="M800.377,-15.5C810.798,-15.5 821.639,-15.5 832.062,-15.5"/>
<polygon fill="midnightblue" stroke="midnightblue" points="832.315,-19.0001 842.315,-15.5 832.315,-12.0001 832.315,-19.0001"/>
</g>
<!-- Node51&#45;&gt;Node15 -->
<g id="edge66" class="edge"><title>Node51&#45;&gt;Node15</title>
<path fill="none" stroke="midnightblue" d="M449.131,-427.979C454.859,-430.459 460.296,-433.578 465,-437.5 493.708,-461.433 472.447,-489.382 501,-513.5 510.567,-521.581 523.344,-526.236 535.207,-528.913"/>
<polygon fill="midnightblue" stroke="midnightblue" points="534.821,-532.401 545.293,-530.792 536.104,-525.519 534.821,-532.401"/>
</g>
<!-- Node52 -->
<g id="node52" class="node"><title>Node52</title>
<g id="a_node52"><a xlink:href="$classQuaternion.html#a6f5e82dd828c59392a3133d6d5877f39" xlink:title="Quaternion::length">
<polygon fill="white" stroke="black" points="521.5,-390 521.5,-409 617.5,-409 617.5,-390 521.5,-390"/>
<text text-anchor="middle" x="569.5" y="-397" font-family="Helvetica,sans-Serif" font-size="10.00">Quaternion::length</text>
</a>
</g>
</g>
<!-- Node51&#45;&gt;Node52 -->
<g id="edge64" class="edge"><title>Node51&#45;&gt;Node52</title>
<path fill="none" stroke="midnightblue" d="M449.213,-412.488C468.939,-410.34 491.203,-407.916 511.109,-405.749"/>
<polygon fill="midnightblue" stroke="midnightblue" points="511.715,-409.204 521.278,-404.642 510.958,-402.245 511.715,-409.204"/>
</g>
<!-- Node52&#45;&gt;Node14 -->
<g id="edge65" class="edge"><title>Node52&#45;&gt;Node14</title>
<path fill="none" stroke="midnightblue" d="M617.607,-390.057C666.226,-382.445 743.442,-376.399 805,-399.5 835.961,-411.119 863.131,-439.299 878.549,-457.887"/>
<polygon fill="midnightblue" stroke="midnightblue" points="875.976,-460.273 884.958,-465.892 881.44,-455.898 875.976,-460.273"/>
</g>
</g>
</svg>
