<?xml version="1.0" encoding="UTF-8" standalone="no"?>
<!DOCTYPE svg PUBLIC "-//W3C//DTD SVG 1.1//EN"
 "http://www.w3.org/Graphics/SVG/1.1/DTD/svg11.dtd">
<!-- Generated by graphviz version 2.38.0 (20140413.2041)
 -->
<!-- Title: AC_AttitudeControl::rate_target_to_motor_yaw Pages: 1 -->
<svg width="638pt" height="401pt"
 viewBox="0.00 0.00 638.00 400.50" xmlns="http://www.w3.org/2000/svg" xmlns:xlink="http://www.w3.org/1999/xlink">
<g id="graph0" class="graph" transform="scale(1 1) rotate(0) translate(4 396.5)">
<title>AC_AttitudeControl::rate_target_to_motor_yaw</title>
<polygon fill="white" stroke="none" points="-4,4 -4,-396.5 634,-396.5 634,4 -4,4"/>
<!-- Node1 -->
<g id="node1" class="node"><title>Node1</title>
<polygon fill="#bfbfbf" stroke="black" points="0,-204 0,-234 136,-234 136,-204 0,-204"/>
<text text-anchor="start" x="8" y="-222" font-family="Helvetica,sans-Serif" font-size="10.00">AC_AttitudeControl</text>
<text text-anchor="middle" x="68" y="-211" font-family="Helvetica,sans-Serif" font-size="10.00">::rate_target_to_motor_yaw</text>
</g>
<!-- Node2 -->
<g id="node2" class="node"><title>Node2</title>
<g id="a_node2"><a xlink:href="$classAC__AttitudeControl.html#a9e430ac947e0924fdc83280a4ed552bf" xlink:title="AC_AttitudeControl\l::get_rate_yaw_pid">
<polygon fill="white" stroke="black" points="190.5,-362 190.5,-392 291.5,-392 291.5,-362 190.5,-362"/>
<text text-anchor="start" x="198.5" y="-380" font-family="Helvetica,sans-Serif" font-size="10.00">AC_AttitudeControl</text>
<text text-anchor="middle" x="241" y="-369" font-family="Helvetica,sans-Serif" font-size="10.00">::get_rate_yaw_pid</text>
</a>
</g>
</g>
<!-- Node1&#45;&gt;Node2 -->
<g id="edge1" class="edge"><title>Node1&#45;&gt;Node2</title>
<path fill="none" stroke="midnightblue" d="M77.0813,-234.425C92.1792,-261.834 127.231,-319.216 172,-352 174.965,-354.171 178.139,-356.173 181.436,-358.015"/>
<polygon fill="midnightblue" stroke="midnightblue" points="179.884,-361.152 190.39,-362.525 183.034,-354.9 179.884,-361.152"/>
</g>
<!-- Node3 -->
<g id="node3" class="node"><title>Node3</title>
<g id="a_node3"><a xlink:href="$classAC__PID.html#ac267330f1299f011febcaaba47994af7" xlink:title="AC_PID::set_input_filter_all">
<polygon fill="white" stroke="black" points="172,-323.5 172,-342.5 310,-342.5 310,-323.5 172,-323.5"/>
<text text-anchor="middle" x="241" y="-330.5" font-family="Helvetica,sans-Serif" font-size="10.00">AC_PID::set_input_filter_all</text>
</a>
</g>
</g>
<!-- Node1&#45;&gt;Node3 -->
<g id="edge2" class="edge"><title>Node1&#45;&gt;Node3</title>
<path fill="none" stroke="midnightblue" d="M81.3267,-234.21C99.1585,-255.219 134.182,-292.909 172,-314 175.961,-316.209 180.197,-318.176 184.547,-319.926"/>
<polygon fill="midnightblue" stroke="midnightblue" points="183.593,-323.303 194.187,-323.417 185.976,-316.721 183.593,-323.303"/>
</g>
<!-- Node6 -->
<g id="node6" class="node"><title>Node6</title>
<g id="a_node6"><a xlink:href="$classAC__PID.html#a3f727ab395b401474027b6b9efcab5a3" xlink:title="AC_PID::set_desired_rate">
<polygon fill="white" stroke="black" points="175.5,-285.5 175.5,-304.5 306.5,-304.5 306.5,-285.5 175.5,-285.5"/>
<text text-anchor="middle" x="241" y="-292.5" font-family="Helvetica,sans-Serif" font-size="10.00">AC_PID::set_desired_rate</text>
</a>
</g>
</g>
<!-- Node1&#45;&gt;Node6 -->
<g id="edge5" class="edge"><title>Node1&#45;&gt;Node6</title>
<path fill="none" stroke="midnightblue" d="M92.7633,-234.245C113.147,-246.803 143.634,-264.374 172,-276 177.806,-278.379 184.008,-280.567 190.217,-282.544"/>
<polygon fill="midnightblue" stroke="midnightblue" points="189.338,-285.935 199.923,-285.475 191.362,-279.234 189.338,-285.935"/>
</g>
<!-- Node7 -->
<g id="node7" class="node"><title>Node7</title>
<g id="a_node7"><a xlink:href="$classAC__PID.html#a0fc275cae5ff46799af85af551c65870" xlink:title="AC_PID::get_integrator">
<polygon fill="white" stroke="black" points="181.5,-247.5 181.5,-266.5 300.5,-266.5 300.5,-247.5 181.5,-247.5"/>
<text text-anchor="middle" x="241" y="-254.5" font-family="Helvetica,sans-Serif" font-size="10.00">AC_PID::get_integrator</text>
</a>
</g>
</g>
<!-- Node1&#45;&gt;Node7 -->
<g id="edge6" class="edge"><title>Node1&#45;&gt;Node7</title>
<path fill="none" stroke="midnightblue" d="M136.093,-233.91C153.14,-237.698 171.211,-241.714 187.42,-245.316"/>
<polygon fill="midnightblue" stroke="midnightblue" points="186.725,-248.746 197.246,-247.499 188.243,-241.913 186.725,-248.746"/>
</g>
<!-- Node8 -->
<g id="node8" class="node"><title>Node8</title>
<g id="a_node8"><a xlink:href="$classAC__PID.html#a2d5bf9811a78c93a396ec1e37ae6fa0a" xlink:title="AC_PID::get_i">
<polygon fill="white" stroke="black" points="364.5,-228.5 364.5,-247.5 444.5,-247.5 444.5,-228.5 364.5,-228.5"/>
<text text-anchor="middle" x="404.5" y="-235.5" font-family="Helvetica,sans-Serif" font-size="10.00">AC_PID::get_i</text>
</a>
</g>
</g>
<!-- Node1&#45;&gt;Node8 -->
<g id="edge7" class="edge"><title>Node1&#45;&gt;Node8</title>
<path fill="none" stroke="midnightblue" d="M136.289,-222.822C200.586,-226.474 296.017,-231.895 353.734,-235.173"/>
<polygon fill="midnightblue" stroke="midnightblue" points="353.874,-238.687 364.056,-235.76 354.271,-231.698 353.874,-238.687"/>
</g>
<!-- Node9 -->
<g id="node9" class="node"><title>Node9</title>
<g id="a_node9"><a xlink:href="$classAC__PID.html#a4808bb2656a1e8d94c713e58a7a2a222" xlink:title="AC_PID::get_p">
<polygon fill="white" stroke="black" points="199.5,-171.5 199.5,-190.5 282.5,-190.5 282.5,-171.5 199.5,-171.5"/>
<text text-anchor="middle" x="241" y="-178.5" font-family="Helvetica,sans-Serif" font-size="10.00">AC_PID::get_p</text>
</a>
</g>
</g>
<!-- Node1&#45;&gt;Node9 -->
<g id="edge9" class="edge"><title>Node1&#45;&gt;Node9</title>
<path fill="none" stroke="midnightblue" d="M136.093,-204.09C153.76,-200.165 172.527,-195.994 189.181,-192.293"/>
<polygon fill="midnightblue" stroke="midnightblue" points="190.246,-195.642 199.248,-190.056 188.727,-188.809 190.246,-195.642"/>
</g>
<!-- Node10 -->
<g id="node10" class="node"><title>Node10</title>
<g id="a_node10"><a xlink:href="$classAC__PID.html#ad0c0510049ea37401920792e843bec86" xlink:title="AC_PID::get_d">
<polygon fill="white" stroke="black" points="199.5,-133.5 199.5,-152.5 282.5,-152.5 282.5,-133.5 199.5,-133.5"/>
<text text-anchor="middle" x="241" y="-140.5" font-family="Helvetica,sans-Serif" font-size="10.00">AC_PID::get_d</text>
</a>
</g>
</g>
<!-- Node1&#45;&gt;Node10 -->
<g id="edge10" class="edge"><title>Node1&#45;&gt;Node10</title>
<path fill="none" stroke="midnightblue" d="M92.7633,-203.755C113.147,-191.197 143.634,-173.626 172,-162 177.806,-159.621 184.008,-157.433 190.217,-155.456"/>
<polygon fill="midnightblue" stroke="midnightblue" points="191.362,-158.766 199.923,-152.525 189.338,-152.065 191.362,-158.766"/>
</g>
<!-- Node11 -->
<g id="node11" class="node"><title>Node11</title>
<g id="a_node11"><a xlink:href="$classAC__PID.html#af8b4c040c43a28fbe025de765f38e90d" xlink:title="AC_PID::get_ff">
<polygon fill="white" stroke="black" points="199,-95.5 199,-114.5 283,-114.5 283,-95.5 199,-95.5"/>
<text text-anchor="middle" x="241" y="-102.5" font-family="Helvetica,sans-Serif" font-size="10.00">AC_PID::get_ff</text>
</a>
</g>
</g>
<!-- Node1&#45;&gt;Node11 -->
<g id="edge11" class="edge"><title>Node1&#45;&gt;Node11</title>
<path fill="none" stroke="midnightblue" d="M81.3267,-203.79C99.1585,-182.781 134.182,-145.091 172,-124 177.281,-121.055 183.051,-118.539 188.927,-116.397"/>
<polygon fill="midnightblue" stroke="midnightblue" points="190.44,-119.584 198.845,-113.134 188.252,-112.934 190.44,-119.584"/>
</g>
<!-- Node12 -->
<g id="node12" class="node"><title>Node12</title>
<g id="a_node12"><a xlink:href="$AP__Math_8h.html#ad525609d9dba6ffa556a0fbf08a3f9b4" xlink:title="constrain_float">
<polygon fill="white" stroke="black" points="201,-57.5 201,-76.5 281,-76.5 281,-57.5 201,-57.5"/>
<text text-anchor="middle" x="241" y="-64.5" font-family="Helvetica,sans-Serif" font-size="10.00">constrain_float</text>
</a>
</g>
</g>
<!-- Node1&#45;&gt;Node12 -->
<g id="edge12" class="edge"><title>Node1&#45;&gt;Node12</title>
<path fill="none" stroke="midnightblue" d="M76.5971,-203.653C91.1608,-175.846 125.716,-117.134 172,-86 177.74,-82.1388 184.254,-79.0566 190.922,-76.5976"/>
<polygon fill="midnightblue" stroke="midnightblue" points="192.293,-79.8326 200.729,-73.4227 190.137,-73.1729 192.293,-79.8326"/>
</g>
<!-- Node4 -->
<g id="node4" class="node"><title>Node4</title>
<g id="a_node4"><a xlink:href="$classAC__PID.html#ac12ffbd4fd053c6152d403b69e07b8e1" xlink:title="AC_PID::get_filt_alpha">
<polygon fill="white" stroke="black" points="346,-304.5 346,-323.5 463,-323.5 463,-304.5 346,-304.5"/>
<text text-anchor="middle" x="404.5" y="-311.5" font-family="Helvetica,sans-Serif" font-size="10.00">AC_PID::get_filt_alpha</text>
</a>
</g>
</g>
<!-- Node3&#45;&gt;Node4 -->
<g id="edge3" class="edge"><title>Node3&#45;&gt;Node4</title>
<path fill="none" stroke="midnightblue" d="M310.022,-324.997C318.48,-324.002 327.129,-322.985 335.584,-321.99"/>
<polygon fill="midnightblue" stroke="midnightblue" points="336.255,-325.435 345.777,-320.791 335.437,-318.483 336.255,-325.435"/>
</g>
<!-- Node5 -->
<g id="node5" class="node"><title>Node5</title>
<g id="a_node5"><a xlink:href="$AP__Math_8h.html#a2a12cce483e9b870da70d30406d82c60" xlink:title="is_zero">
<polygon fill="white" stroke="black" points="540.5,-266.5 540.5,-285.5 588.5,-285.5 588.5,-266.5 540.5,-266.5"/>
<text text-anchor="middle" x="564.5" y="-273.5" font-family="Helvetica,sans-Serif" font-size="10.00">is_zero</text>
</a>
</g>
</g>
<!-- Node4&#45;&gt;Node5 -->
<g id="edge4" class="edge"><title>Node4&#45;&gt;Node5</title>
<path fill="none" stroke="midnightblue" d="M445.37,-304.411C471.607,-298.101 505.548,-289.938 530.312,-283.982"/>
<polygon fill="midnightblue" stroke="midnightblue" points="531.41,-287.318 540.314,-281.576 529.773,-280.512 531.41,-287.318"/>
</g>
<!-- Node8&#45;&gt;Node5 -->
<g id="edge8" class="edge"><title>Node8&#45;&gt;Node5</title>
<path fill="none" stroke="midnightblue" d="M444.556,-247.393C470.9,-253.729 505.286,-261.999 530.307,-268.017"/>
<polygon fill="midnightblue" stroke="midnightblue" points="529.528,-271.429 540.07,-270.365 531.165,-264.623 529.528,-271.429"/>
</g>
<!-- Node13 -->
<g id="node13" class="node"><title>Node13</title>
<g id="a_node13"><a xlink:href="$AP__Math_8h.html#a20e8f8671c282c69c1954652b6d61585" xlink:title="constrain_value">
<polygon fill="white" stroke="black" points="362,-57.5 362,-76.5 447,-76.5 447,-57.5 362,-57.5"/>
<text text-anchor="middle" x="404.5" y="-64.5" font-family="Helvetica,sans-Serif" font-size="10.00">constrain_value</text>
</a>
</g>
</g>
<!-- Node12&#45;&gt;Node13 -->
<g id="edge13" class="edge"><title>Node12&#45;&gt;Node13</title>
<path fill="none" stroke="midnightblue" d="M281.095,-67C302.305,-67 328.794,-67 351.702,-67"/>
<polygon fill="midnightblue" stroke="midnightblue" points="351.943,-70.5001 361.943,-67 351.942,-63.5001 351.943,-70.5001"/>
</g>
<!-- Node14 -->
<g id="node14" class="node"><title>Node14</title>
<g id="a_node14"><a xlink:href="$AP__Math_8cpp.html#a37e8e901754cb9c8e53a8e3030c82c50" xlink:title="constrain_value\&lt; int \&gt;">
<polygon fill="white" stroke="black" points="508,-114.5 508,-133.5 621,-133.5 621,-114.5 508,-114.5"/>
<text text-anchor="middle" x="564.5" y="-121.5" font-family="Helvetica,sans-Serif" font-size="10.00">constrain_value&lt; int &gt;</text>
</a>
</g>
</g>
<!-- Node13&#45;&gt;Node14 -->
<g id="edge14" class="edge"><title>Node13&#45;&gt;Node14</title>
<path fill="none" stroke="midnightblue" d="M427.18,-76.5282C445.981,-84.618 474.023,-96.2701 499,-105 505.441,-107.251 512.304,-109.465 519.06,-111.541"/>
<polygon fill="midnightblue" stroke="midnightblue" points="518.235,-114.948 528.819,-114.473 520.249,-108.244 518.235,-114.948"/>
</g>
<!-- Node15 -->
<g id="node15" class="node"><title>Node15</title>
<g id="a_node15"><a xlink:href="$AP__Math_8cpp.html#afdbe107ec1987d318a6347816fbf2b89" xlink:title="constrain_value\&lt; short \&gt;">
<polygon fill="white" stroke="black" points="502,-76.5 502,-95.5 627,-95.5 627,-76.5 502,-76.5"/>
<text text-anchor="middle" x="564.5" y="-83.5" font-family="Helvetica,sans-Serif" font-size="10.00">constrain_value&lt; short &gt;</text>
</a>
</g>
</g>
<!-- Node13&#45;&gt;Node15 -->
<g id="edge15" class="edge"><title>Node13&#45;&gt;Node15</title>
<path fill="none" stroke="midnightblue" d="M447.013,-71.992C460.738,-73.6425 476.429,-75.5294 491.752,-77.3721"/>
<polygon fill="midnightblue" stroke="midnightblue" points="491.398,-80.8547 501.745,-78.5737 492.234,-73.9048 491.398,-80.8547"/>
</g>
<!-- Node16 -->
<g id="node16" class="node"><title>Node16</title>
<g id="a_node16"><a xlink:href="$AP__Math_8cpp.html#ae6c621670c214da687de21d4e3a92587" xlink:title="constrain_value\&lt; float \&gt;">
<polygon fill="white" stroke="black" points="503.5,-38.5 503.5,-57.5 625.5,-57.5 625.5,-38.5 503.5,-38.5"/>
<text text-anchor="middle" x="564.5" y="-45.5" font-family="Helvetica,sans-Serif" font-size="10.00">constrain_value&lt; float &gt;</text>
</a>
</g>
</g>
<!-- Node13&#45;&gt;Node16 -->
<g id="edge16" class="edge"><title>Node13&#45;&gt;Node16</title>
<path fill="none" stroke="midnightblue" d="M447.013,-62.008C461.113,-60.3124 477.288,-58.3673 493.008,-56.4769"/>
<polygon fill="midnightblue" stroke="midnightblue" points="493.735,-59.9147 503.246,-55.2458 492.899,-52.9648 493.735,-59.9147"/>
</g>
<!-- Node17 -->
<g id="node17" class="node"><title>Node17</title>
<g id="a_node17"><a xlink:href="$AP__Math_8cpp.html#afe3990b00e9abc43fa97dfaf8e32f5c4" xlink:title="constrain_value\&lt; double \&gt;">
<polygon fill="white" stroke="black" points="499,-0.5 499,-19.5 630,-19.5 630,-0.5 499,-0.5"/>
<text text-anchor="middle" x="564.5" y="-7.5" font-family="Helvetica,sans-Serif" font-size="10.00">constrain_value&lt; double &gt;</text>
</a>
</g>
</g>
<!-- Node13&#45;&gt;Node17 -->
<g id="edge17" class="edge"><title>Node13&#45;&gt;Node17</title>
<path fill="none" stroke="midnightblue" d="M427.18,-57.4718C445.981,-49.382 474.023,-37.7299 499,-29 505.441,-26.7486 512.304,-24.5347 519.06,-22.4586"/>
<polygon fill="midnightblue" stroke="midnightblue" points="520.249,-25.756 528.819,-19.5272 518.235,-19.0519 520.249,-25.756"/>
</g>
</g>
</svg>
