<?xml version="1.0" encoding="UTF-8" standalone="no"?>
<!DOCTYPE svg PUBLIC "-//W3C//DTD SVG 1.1//EN"
 "http://www.w3.org/Graphics/SVG/1.1/DTD/svg11.dtd">
<!-- Generated by graphviz version 2.38.0 (20140413.2041)
 -->
<!-- Title: AC_PI_2D::get_pi Pages: 1 -->
<svg width="492pt" height="85pt"
 viewBox="0.00 0.00 492.00 85.00" xmlns="http://www.w3.org/2000/svg" xmlns:xlink="http://www.w3.org/1999/xlink">
<g id="graph0" class="graph" transform="scale(1 1) rotate(0) translate(4 81)">
<title>AC_PI_2D::get_pi</title>
<polygon fill="white" stroke="none" points="-4,4 -4,-81 488,-81 488,4 -4,4"/>
<!-- Node1 -->
<g id="node1" class="node"><title>Node1</title>
<polygon fill="#bfbfbf" stroke="black" points="0,-38.5 0,-57.5 96,-57.5 96,-38.5 0,-38.5"/>
<text text-anchor="middle" x="48" y="-45.5" font-family="Helvetica,sans-Serif" font-size="10.00">AC_PI_2D::get_pi</text>
</g>
<!-- Node2 -->
<g id="node2" class="node"><title>Node2</title>
<g id="a_node2"><a xlink:href="$classAC__PI__2D.html#aa8564949b84f613cad26c7b9f557bb3e" xlink:title="AC_PI_2D::get_p">
<polygon fill="white" stroke="black" points="132,-57.5 132,-76.5 226,-76.5 226,-57.5 132,-57.5"/>
<text text-anchor="middle" x="179" y="-64.5" font-family="Helvetica,sans-Serif" font-size="10.00">AC_PI_2D::get_p</text>
</a>
</g>
</g>
<!-- Node1&#45;&gt;Node2 -->
<g id="edge1" class="edge"><title>Node1&#45;&gt;Node2</title>
<path fill="none" stroke="midnightblue" d="M96.3023,-54.967C104.675,-56.2002 113.465,-57.4948 122.049,-58.7592"/>
<polygon fill="midnightblue" stroke="midnightblue" points="121.591,-62.2294 131.994,-60.224 122.611,-55.3041 121.591,-62.2294"/>
</g>
<!-- Node3 -->
<g id="node3" class="node"><title>Node3</title>
<g id="a_node3"><a xlink:href="$classAC__PI__2D.html#af464bd8936fccc9a0b11ab183e9ca384" xlink:title="AC_PI_2D::get_i">
<polygon fill="white" stroke="black" points="133.5,-19.5 133.5,-38.5 224.5,-38.5 224.5,-19.5 133.5,-19.5"/>
<text text-anchor="middle" x="179" y="-26.5" font-family="Helvetica,sans-Serif" font-size="10.00">AC_PI_2D::get_i</text>
</a>
</g>
</g>
<!-- Node1&#45;&gt;Node3 -->
<g id="edge2" class="edge"><title>Node1&#45;&gt;Node3</title>
<path fill="none" stroke="midnightblue" d="M96.3023,-41.033C105.08,-39.7402 114.315,-38.38 123.292,-37.0578"/>
<polygon fill="midnightblue" stroke="midnightblue" points="123.895,-40.5068 133.278,-35.587 122.875,-33.5815 123.895,-40.5068"/>
</g>
<!-- Node4 -->
<g id="node4" class="node"><title>Node4</title>
<g id="a_node4"><a xlink:href="$AP__Math_8h.html#a2a12cce483e9b870da70d30406d82c60" xlink:title="is_zero">
<polygon fill="white" stroke="black" points="279.5,-38.5 279.5,-57.5 327.5,-57.5 327.5,-38.5 279.5,-38.5"/>
<text text-anchor="middle" x="303.5" y="-45.5" font-family="Helvetica,sans-Serif" font-size="10.00">is_zero</text>
</a>
</g>
</g>
<!-- Node3&#45;&gt;Node4 -->
<g id="edge3" class="edge"><title>Node3&#45;&gt;Node4</title>
<path fill="none" stroke="midnightblue" d="M224.572,-35.9132C239.4,-38.213 255.639,-40.7318 269.438,-42.8719"/>
<polygon fill="midnightblue" stroke="midnightblue" points="269.031,-46.3507 279.45,-44.4249 270.104,-39.4334 269.031,-46.3507"/>
</g>
<!-- Node5 -->
<g id="node5" class="node"><title>Node5</title>
<g id="a_node5"><a xlink:href="$structVector2.html#ad8ebafde96f43521d3647e2552387529" xlink:title="Vector2::length">
<polygon fill="white" stroke="black" points="262,-0.5 262,-19.5 345,-19.5 345,-0.5 262,-0.5"/>
<text text-anchor="middle" x="303.5" y="-7.5" font-family="Helvetica,sans-Serif" font-size="10.00">Vector2::length</text>
</a>
</g>
</g>
<!-- Node3&#45;&gt;Node5 -->
<g id="edge4" class="edge"><title>Node3&#45;&gt;Node5</title>
<path fill="none" stroke="midnightblue" d="M224.572,-22.0868C233.419,-20.7146 242.769,-19.2644 251.803,-17.8632"/>
<polygon fill="midnightblue" stroke="midnightblue" points="252.48,-21.3002 261.825,-16.3088 251.407,-14.3829 252.48,-21.3002"/>
</g>
<!-- Node6 -->
<g id="node6" class="node"><title>Node6</title>
<g id="a_node6"><a xlink:href="$AP__Math_8h.html#adc76d4a5e5c9ae8cb7ab17b55c40d636" xlink:title="norm">
<polygon fill="white" stroke="black" points="381,-0.5 381,-19.5 419,-19.5 419,-0.5 381,-0.5"/>
<text text-anchor="middle" x="400" y="-7.5" font-family="Helvetica,sans-Serif" font-size="10.00">norm</text>
</a>
</g>
</g>
<!-- Node5&#45;&gt;Node6 -->
<g id="edge5" class="edge"><title>Node5&#45;&gt;Node6</title>
<path fill="none" stroke="midnightblue" d="M345.125,-10C353.654,-10 362.477,-10 370.453,-10"/>
<polygon fill="midnightblue" stroke="midnightblue" points="370.695,-13.5001 380.695,-10 370.695,-6.5001 370.695,-13.5001"/>
</g>
<!-- Node7 -->
<g id="node7" class="node"><title>Node7</title>
<g id="a_node7"><a xlink:href="$AP__Math_8h.html#a0375e3d67fd3911cacee5c3e1408c0f2" xlink:title="sq">
<polygon fill="white" stroke="black" points="455,-0.5 455,-19.5 484,-19.5 484,-0.5 455,-0.5"/>
<text text-anchor="middle" x="469.5" y="-7.5" font-family="Helvetica,sans-Serif" font-size="10.00">sq</text>
</a>
</g>
</g>
<!-- Node6&#45;&gt;Node7 -->
<g id="edge6" class="edge"><title>Node6&#45;&gt;Node7</title>
<path fill="none" stroke="midnightblue" d="M419.089,-10C426.997,-10 436.379,-10 444.831,-10"/>
<polygon fill="midnightblue" stroke="midnightblue" points="444.861,-13.5001 454.861,-10 444.861,-6.5001 444.861,-13.5001"/>
</g>
</g>
</svg>
