<?xml version="1.0" encoding="UTF-8" standalone="no"?>
<!DOCTYPE svg PUBLIC "-//W3C//DTD SVG 1.1//EN"
 "http://www.w3.org/Graphics/SVG/1.1/DTD/svg11.dtd">
<!-- Generated by graphviz version 2.38.0 (20140413.2041)
 -->
<!-- Title: AC_Fence::get_margin Pages: 1 -->
<svg width="949pt" height="137pt"
 viewBox="0.00 0.00 949.00 137.00" xmlns="http://www.w3.org/2000/svg" xmlns:xlink="http://www.w3.org/1999/xlink">
<g id="graph0" class="graph" transform="scale(1 1) rotate(0) translate(4 133)">
<title>AC_Fence::get_margin</title>
<polygon fill="white" stroke="none" points="-4,4 -4,-133 945,-133 945,4 -4,4"/>
<!-- Node1 -->
<g id="node1" class="node"><title>Node1</title>
<polygon fill="#bfbfbf" stroke="black" points="0,-55 0,-74 117,-74 117,-55 0,-55"/>
<text text-anchor="middle" x="58.5" y="-62" font-family="Helvetica,sans-Serif" font-size="10.00">AC_Fence::get_margin</text>
</g>
<!-- Node2 -->
<g id="node2" class="node"><title>Node2</title>
<g id="a_node2"><a xlink:href="$classAC__Avoid.html#acda5962c20c1d4c06eb2137c092e9569" xlink:title="AC_Avoid::adjust_velocity\l_beacon_fence">
<polygon fill="white" stroke="black" points="153,-98.5 153,-128.5 285,-128.5 285,-98.5 153,-98.5"/>
<text text-anchor="start" x="161" y="-116.5" font-family="Helvetica,sans-Serif" font-size="10.00">AC_Avoid::adjust_velocity</text>
<text text-anchor="middle" x="219" y="-105.5" font-family="Helvetica,sans-Serif" font-size="10.00">_beacon_fence</text>
</a>
</g>
</g>
<!-- Node1&#45;&gt;Node2 -->
<g id="edge1" class="edge"><title>Node1&#45;&gt;Node2</title>
<path fill="none" stroke="midnightblue" d="M100.072,-77.0426C121.192,-83.5719 147.168,-91.6024 169.36,-98.463"/>
<polygon fill="midnightblue" stroke="midnightblue" points="101.024,-73.6738 90.4367,-74.064 98.9568,-80.3615 101.024,-73.6738"/>
</g>
<!-- Node8 -->
<g id="node8" class="node"><title>Node8</title>
<g id="a_node8"><a xlink:href="$classAC__Avoid.html#ab17bec0b2b5b58be5d4686d680a68a6a" xlink:title="AC_Avoid::adjust_velocity\l_circle_fence">
<polygon fill="white" stroke="black" points="153,-49.5 153,-79.5 285,-79.5 285,-49.5 153,-49.5"/>
<text text-anchor="start" x="161" y="-67.5" font-family="Helvetica,sans-Serif" font-size="10.00">AC_Avoid::adjust_velocity</text>
<text text-anchor="middle" x="219" y="-56.5" font-family="Helvetica,sans-Serif" font-size="10.00">_circle_fence</text>
</a>
</g>
</g>
<!-- Node1&#45;&gt;Node8 -->
<g id="edge7" class="edge"><title>Node1&#45;&gt;Node8</title>
<path fill="none" stroke="midnightblue" d="M127.366,-64.5C135.819,-64.5 144.448,-64.5 152.857,-64.5"/>
<polygon fill="midnightblue" stroke="midnightblue" points="127.171,-61.0001 117.171,-64.5 127.17,-68.0001 127.171,-61.0001"/>
</g>
<!-- Node9 -->
<g id="node9" class="node"><title>Node9</title>
<g id="a_node9"><a xlink:href="$classAC__Avoid.html#ac02a966259c9abb5ca2e5e4ee8e72d91" xlink:title="AC_Avoid::adjust_velocity\l_polygon_fence">
<polygon fill="white" stroke="black" points="153,-0.5 153,-30.5 285,-30.5 285,-0.5 153,-0.5"/>
<text text-anchor="start" x="161" y="-18.5" font-family="Helvetica,sans-Serif" font-size="10.00">AC_Avoid::adjust_velocity</text>
<text text-anchor="middle" x="219" y="-7.5" font-family="Helvetica,sans-Serif" font-size="10.00">_polygon_fence</text>
</a>
</g>
</g>
<!-- Node1&#45;&gt;Node9 -->
<g id="edge9" class="edge"><title>Node1&#45;&gt;Node9</title>
<path fill="none" stroke="midnightblue" d="M100.072,-51.9574C121.192,-45.4281 147.168,-37.3976 169.36,-30.537"/>
<polygon fill="midnightblue" stroke="midnightblue" points="98.9568,-48.6385 90.4367,-54.936 101.024,-55.3262 98.9568,-48.6385"/>
</g>
<!-- Node3 -->
<g id="node3" class="node"><title>Node3</title>
<g id="a_node3"><a xlink:href="$classAC__Avoid.html#abee541d127ce0da1fe6be54f987a0779" xlink:title="AC_Avoid::adjust_velocity">
<polygon fill="white" stroke="black" points="321,-55 321,-74 453,-74 453,-55 321,-55"/>
<text text-anchor="middle" x="387" y="-62" font-family="Helvetica,sans-Serif" font-size="10.00">AC_Avoid::adjust_velocity</text>
</a>
</g>
</g>
<!-- Node2&#45;&gt;Node3 -->
<g id="edge2" class="edge"><title>Node2&#45;&gt;Node3</title>
<path fill="none" stroke="midnightblue" d="M280.798,-95.5536C305.431,-88.2825 332.879,-80.1803 353.561,-74.0754"/>
<polygon fill="midnightblue" stroke="midnightblue" points="279.76,-92.2106 271.16,-98.3986 281.742,-98.9243 279.76,-92.2106"/>
</g>
<!-- Node4 -->
<g id="node4" class="node"><title>Node4</title>
<g id="a_node4"><a xlink:href="$classAC__Avoid.html#a95e227fdefd6f8c85b4d4888cad8993f" xlink:title="AC_Avoid::adjust_velocity">
<polygon fill="white" stroke="black" points="489,-77 489,-96 621,-96 621,-77 489,-77"/>
<text text-anchor="middle" x="555" y="-84" font-family="Helvetica,sans-Serif" font-size="10.00">AC_Avoid::adjust_velocity</text>
</a>
</g>
</g>
<!-- Node3&#45;&gt;Node4 -->
<g id="edge3" class="edge"><title>Node3&#45;&gt;Node4</title>
<path fill="none" stroke="midnightblue" d="M463.114,-74.4548C471.681,-75.5902 480.361,-76.7406 488.784,-77.8569"/>
<polygon fill="midnightblue" stroke="midnightblue" points="463.504,-70.9761 453.131,-73.1318 462.585,-77.9154 463.504,-70.9761"/>
</g>
<!-- Node5 -->
<g id="node5" class="node"><title>Node5</title>
<g id="a_node5"><a xlink:href="$classAC__WPNav.html#a3dbf7bda89b127cdc81bca29e2af25de" xlink:title="AC_WPNav::calc_loiter\l_desired_velocity">
<polygon fill="white" stroke="black" points="494.5,-27.5 494.5,-57.5 615.5,-57.5 615.5,-27.5 494.5,-27.5"/>
<text text-anchor="start" x="502.5" y="-45.5" font-family="Helvetica,sans-Serif" font-size="10.00">AC_WPNav::calc_loiter</text>
<text text-anchor="middle" x="555" y="-34.5" font-family="Helvetica,sans-Serif" font-size="10.00">_desired_velocity</text>
</a>
</g>
</g>
<!-- Node3&#45;&gt;Node5 -->
<g id="edge4" class="edge"><title>Node3&#45;&gt;Node5</title>
<path fill="none" stroke="midnightblue" d="M463.127,-54.5434C473.63,-53.1515 484.303,-51.737 494.464,-50.3903"/>
<polygon fill="midnightblue" stroke="midnightblue" points="462.585,-51.0846 453.131,-55.8682 463.504,-58.0239 462.585,-51.0846"/>
</g>
<!-- Node6 -->
<g id="node6" class="node"><title>Node6</title>
<g id="a_node6"><a xlink:href="$classAC__WPNav.html#a0a434270245fd8641352af387700dc82" xlink:title="update_loiter &#45; run the loiter controller &#45; should be called at 10hz ">
<polygon fill="white" stroke="black" points="657,-33 657,-52 789,-52 789,-33 657,-33"/>
<text text-anchor="middle" x="723" y="-40" font-family="Helvetica,sans-Serif" font-size="10.00">AC_WPNav::update_loiter</text>
</a>
</g>
</g>
<!-- Node5&#45;&gt;Node6 -->
<g id="edge5" class="edge"><title>Node5&#45;&gt;Node6</title>
<path fill="none" stroke="midnightblue" d="M626.027,-42.5C636.237,-42.5 646.716,-42.5 656.824,-42.5"/>
<polygon fill="midnightblue" stroke="midnightblue" points="625.93,-39.0001 615.93,-42.5 625.93,-46.0001 625.93,-39.0001"/>
</g>
<!-- Node7 -->
<g id="node7" class="node"><title>Node7</title>
<g id="a_node7"><a xlink:href="$classAC__WPNav.html#ae34a88192799de8f2b96c8cd295bb971" xlink:title="get_loiter_target &#45; returns loiter target position ">
<polygon fill="white" stroke="black" points="825,-27.5 825,-57.5 941,-57.5 941,-27.5 825,-27.5"/>
<text text-anchor="start" x="833" y="-45.5" font-family="Helvetica,sans-Serif" font-size="10.00">AC_WPNav::get_loiter</text>
<text text-anchor="middle" x="883" y="-34.5" font-family="Helvetica,sans-Serif" font-size="10.00">_target</text>
</a>
</g>
</g>
<!-- Node6&#45;&gt;Node7 -->
<g id="edge6" class="edge"><title>Node6&#45;&gt;Node7</title>
<path fill="none" stroke="midnightblue" d="M799.429,-42.5C807.877,-42.5 816.38,-42.5 824.55,-42.5"/>
<polygon fill="midnightblue" stroke="midnightblue" points="799.177,-39.0001 789.177,-42.5 799.177,-46.0001 799.177,-39.0001"/>
</g>
<!-- Node8&#45;&gt;Node3 -->
<g id="edge8" class="edge"><title>Node8&#45;&gt;Node3</title>
<path fill="none" stroke="midnightblue" d="M295.393,-64.5C303.869,-64.5 312.452,-64.5 320.784,-64.5"/>
<polygon fill="midnightblue" stroke="midnightblue" points="295.131,-61.0001 285.131,-64.5 295.131,-68.0001 295.131,-61.0001"/>
</g>
<!-- Node9&#45;&gt;Node3 -->
<g id="edge10" class="edge"><title>Node9&#45;&gt;Node3</title>
<path fill="none" stroke="midnightblue" d="M280.798,-33.4464C305.431,-40.7175 332.879,-48.8197 353.561,-54.9246"/>
<polygon fill="midnightblue" stroke="midnightblue" points="281.742,-30.0757 271.16,-30.6014 279.76,-36.7894 281.742,-30.0757"/>
</g>
</g>
</svg>
