<?xml version="1.0" encoding="UTF-8" standalone="no"?>
<!DOCTYPE svg PUBLIC "-//W3C//DTD SVG 1.1//EN"
 "http://www.w3.org/Graphics/SVG/1.1/DTD/svg11.dtd">
<!-- Generated by graphviz version 2.38.0 (20140413.2041)
 -->
<!-- Title: AC_Fence::record_breach Pages: 1 -->
<svg width="1992pt" height="648pt"
 viewBox="0.00 0.00 1992.00 647.50" xmlns="http://www.w3.org/2000/svg" xmlns:xlink="http://www.w3.org/1999/xlink">
<g id="graph0" class="graph" transform="scale(1 1) rotate(0) translate(4 643.5)">
<title>AC_Fence::record_breach</title>
<polygon fill="white" stroke="none" points="-4,4 -4,-643.5 1988,-643.5 1988,4 -4,4"/>
<!-- Node1 -->
<g id="node1" class="node"><title>Node1</title>
<polygon fill="#bfbfbf" stroke="black" points="0,-459 0,-478 131,-478 131,-459 0,-459"/>
<text text-anchor="middle" x="65.5" y="-466" font-family="Helvetica,sans-Serif" font-size="10.00">AC_Fence::record_breach</text>
</g>
<!-- Node2 -->
<g id="node2" class="node"><title>Node2</title>
<g id="a_node2"><a xlink:href="$namespaceAP__HAL.html#a77dffbb18891996280308e21316ec186" xlink:title="AP_HAL::millis">
<polygon fill="white" stroke="black" points="167,-459 167,-478 250,-478 250,-459 167,-459"/>
<text text-anchor="middle" x="208.5" y="-466" font-family="Helvetica,sans-Serif" font-size="10.00">AP_HAL::millis</text>
</a>
</g>
</g>
<!-- Node1&#45;&gt;Node2 -->
<g id="edge1" class="edge"><title>Node1&#45;&gt;Node2</title>
<path fill="none" stroke="midnightblue" d="M131.223,-468.5C139.774,-468.5 148.44,-468.5 156.712,-468.5"/>
<polygon fill="midnightblue" stroke="midnightblue" points="156.942,-472 166.942,-468.5 156.942,-465 156.942,-472"/>
</g>
<!-- Node3 -->
<g id="node3" class="node"><title>Node3</title>
<g id="a_node3"><a xlink:href="$namespaceAP__HAL.html#a59336c5fceaf28a76d1df1581a87a25d" xlink:title="AP_HAL::millis64">
<polygon fill="white" stroke="black" points="286,-459 286,-478 380,-478 380,-459 286,-459"/>
<text text-anchor="middle" x="333" y="-466" font-family="Helvetica,sans-Serif" font-size="10.00">AP_HAL::millis64</text>
</a>
</g>
</g>
<!-- Node2&#45;&gt;Node3 -->
<g id="edge2" class="edge"><title>Node2&#45;&gt;Node3</title>
<path fill="none" stroke="midnightblue" d="M250.291,-468.5C258.495,-468.5 267.252,-468.5 275.873,-468.5"/>
<polygon fill="midnightblue" stroke="midnightblue" points="275.89,-472 285.89,-468.5 275.89,-465 275.89,-472"/>
</g>
<!-- Node4 -->
<g id="node4" class="node"><title>Node4</title>
<g id="a_node4"><a xlink:href="$classLinux_1_1Scheduler.html#a53ecaae0fdc72f85bd57c4b0cff93653" xlink:title="Linux::Scheduler::from">
<polygon fill="white" stroke="black" points="416,-337 416,-356 531,-356 531,-337 416,-337"/>
<text text-anchor="middle" x="473.5" y="-344" font-family="Helvetica,sans-Serif" font-size="10.00">Linux::Scheduler::from</text>
</a>
</g>
</g>
<!-- Node3&#45;&gt;Node4 -->
<g id="edge3" class="edge"><title>Node3&#45;&gt;Node4</title>
<path fill="none" stroke="midnightblue" d="M344.868,-458.927C368.432,-438.17 424.465,-388.813 453.825,-362.951"/>
<polygon fill="midnightblue" stroke="midnightblue" points="456.492,-365.265 461.683,-356.029 451.865,-360.012 456.492,-365.265"/>
</g>
<!-- Node32 -->
<g id="node32" class="node"><title>Node32</title>
<g id="a_node32"><a xlink:href="$classLinux_1_1Scheduler.html#a682b4c34f330f66db5ab4aa5d96e13f9" xlink:title="Linux::Scheduler::stopped\l_clock_usec">
<polygon fill="white" stroke="black" points="1236,-475.5 1236,-505.5 1366,-505.5 1366,-475.5 1236,-475.5"/>
<text text-anchor="start" x="1244" y="-493.5" font-family="Helvetica,sans-Serif" font-size="10.00">Linux::Scheduler::stopped</text>
<text text-anchor="middle" x="1301" y="-482.5" font-family="Helvetica,sans-Serif" font-size="10.00">_clock_usec</text>
</a>
</g>
</g>
<!-- Node3&#45;&gt;Node32 -->
<g id="edge58" class="edge"><title>Node3&#45;&gt;Node32</title>
<path fill="none" stroke="midnightblue" d="M346.771,-478.152C386.452,-507.148 512.024,-591.5 630,-591.5 630,-591.5 630,-591.5 971.5,-591.5 1081.09,-591.5 1202.53,-539.508 1262.4,-510.13"/>
<polygon fill="midnightblue" stroke="midnightblue" points="1264.07,-513.207 1271.46,-505.621 1260.95,-506.939 1264.07,-513.207"/>
</g>
<!-- Node5 -->
<g id="node5" class="node"><title>Node5</title>
<g id="a_node5"><a xlink:href="$classLinux_1_1Scheduler.html#a3d77c332e051c28c83fb07757e7100bd" xlink:title="Linux::Scheduler::init">
<polygon fill="white" stroke="black" points="577,-68 577,-87 685,-87 685,-68 577,-68"/>
<text text-anchor="middle" x="631" y="-75" font-family="Helvetica,sans-Serif" font-size="10.00">Linux::Scheduler::init</text>
</a>
</g>
</g>
<!-- Node4&#45;&gt;Node5 -->
<g id="edge4" class="edge"><title>Node4&#45;&gt;Node5</title>
<path fill="none" stroke="midnightblue" d="M475.092,-336.947C477.894,-300.136 492.998,-166.088 567,-96.5 568.691,-94.9103 570.509,-93.4533 572.426,-92.1179"/>
<polygon fill="midnightblue" stroke="midnightblue" points="574.414,-95.0126 581.354,-87.0075 570.937,-88.9373 574.414,-95.0126"/>
</g>
<!-- Node12 -->
<g id="node12" class="node"><title>Node12</title>
<g id="a_node12"><a xlink:href="$classLinux_1_1Scheduler.html#a02a34a123dfebaf360f7010745e1e646" xlink:title="Linux::Scheduler::register\l_timer_process">
<polygon fill="white" stroke="black" points="733,-62.5 733,-92.5 861,-92.5 861,-62.5 733,-62.5"/>
<text text-anchor="start" x="741" y="-80.5" font-family="Helvetica,sans-Serif" font-size="10.00">Linux::Scheduler::register</text>
<text text-anchor="middle" x="797" y="-69.5" font-family="Helvetica,sans-Serif" font-size="10.00">_timer_process</text>
</a>
</g>
</g>
<!-- Node4&#45;&gt;Node12 -->
<g id="edge29" class="edge"><title>Node4&#45;&gt;Node12</title>
<path fill="none" stroke="midnightblue" d="M473.998,-336.816C472.415,-294.824 472.373,-127.496 567,-58.5 621.547,-18.7278 704.04,-39.837 753.7,-58.7191"/>
<polygon fill="midnightblue" stroke="midnightblue" points="752.589,-62.0431 763.176,-62.4471 755.152,-55.529 752.589,-62.0431"/>
</g>
<!-- Node23 -->
<g id="node23" class="node"><title>Node23</title>
<g id="a_node23"><a xlink:href="$classLinux_1_1Scheduler.html#a14f3239ecbb9889823b20dc9de655c2f" xlink:title="Linux::Scheduler::delay">
<polygon fill="white" stroke="black" points="571.5,-620 571.5,-639 690.5,-639 690.5,-620 571.5,-620"/>
<text text-anchor="middle" x="631" y="-627" font-family="Helvetica,sans-Serif" font-size="10.00">Linux::Scheduler::delay</text>
</a>
</g>
</g>
<!-- Node4&#45;&gt;Node23 -->
<g id="edge23" class="edge"><title>Node4&#45;&gt;Node23</title>
<path fill="none" stroke="midnightblue" d="M477.124,-356.441C485.994,-388.878 517.117,-493.782 567,-567.5 578.894,-585.077 596.323,-601.757 609.836,-613.38"/>
<polygon fill="midnightblue" stroke="midnightblue" points="607.743,-616.192 617.659,-619.926 612.235,-610.824 607.743,-616.192"/>
</g>
<!-- Node25 -->
<g id="node25" class="node"><title>Node25</title>
<g id="a_node25"><a xlink:href="$classLinux_1_1Scheduler.html#a4cffd5bcba0175bf49c7aa75ff3bf09a" xlink:title="Linux::Scheduler::delay\l_microseconds">
<polygon fill="white" stroke="black" points="1241.5,-538.5 1241.5,-568.5 1360.5,-568.5 1360.5,-538.5 1241.5,-538.5"/>
<text text-anchor="start" x="1249.5" y="-556.5" font-family="Helvetica,sans-Serif" font-size="10.00">Linux::Scheduler::delay</text>
<text text-anchor="middle" x="1301" y="-545.5" font-family="Helvetica,sans-Serif" font-size="10.00">_microseconds</text>
</a>
</g>
</g>
<!-- Node4&#45;&gt;Node25 -->
<g id="edge26" class="edge"><title>Node4&#45;&gt;Node25</title>
<path fill="none" stroke="midnightblue" d="M475.885,-356.033C481.055,-387.79 502.372,-490.459 567,-534.5 651.395,-592.011 693.873,-553.5 796,-553.5 796,-553.5 796,-553.5 971.5,-553.5 1061.09,-553.5 1164.43,-553.5 1230.91,-553.5"/>
<polygon fill="midnightblue" stroke="midnightblue" points="1231.25,-557 1241.25,-553.5 1231.25,-550 1231.25,-557"/>
</g>
<!-- Node26 -->
<g id="node26" class="node"><title>Node26</title>
<g id="a_node26"><a xlink:href="$classLinux_1_1Scheduler.html#a5cb50b637d5fd3e5f9220bc23db0fb3f" xlink:title="Linux::Scheduler::register\l_delay_callback">
<polygon fill="white" stroke="black" points="567,-380.5 567,-410.5 695,-410.5 695,-380.5 567,-380.5"/>
<text text-anchor="start" x="575" y="-398.5" font-family="Helvetica,sans-Serif" font-size="10.00">Linux::Scheduler::register</text>
<text text-anchor="middle" x="631" y="-387.5" font-family="Helvetica,sans-Serif" font-size="10.00">_delay_callback</text>
</a>
</g>
</g>
<!-- Node4&#45;&gt;Node26 -->
<g id="edge28" class="edge"><title>Node4&#45;&gt;Node26</title>
<path fill="none" stroke="midnightblue" d="M504.851,-356.064C524.108,-362.132 549.638,-370.177 572.615,-377.417"/>
<polygon fill="midnightblue" stroke="midnightblue" points="571.691,-380.796 582.281,-380.463 573.795,-374.119 571.691,-380.796"/>
</g>
<!-- Node27 -->
<g id="node27" class="node"><title>Node27</title>
<g id="a_node27"><a xlink:href="$classLinux_1_1Scheduler.html#aa2be97cb8686d72cc322fb38f69a940c" xlink:title="Linux::Scheduler::register\l_io_process">
<polygon fill="white" stroke="black" points="733,-128.5 733,-158.5 861,-158.5 861,-128.5 733,-128.5"/>
<text text-anchor="start" x="741" y="-146.5" font-family="Helvetica,sans-Serif" font-size="10.00">Linux::Scheduler::register</text>
<text text-anchor="middle" x="797" y="-135.5" font-family="Helvetica,sans-Serif" font-size="10.00">_io_process</text>
</a>
</g>
</g>
<!-- Node4&#45;&gt;Node27 -->
<g id="edge30" class="edge"><title>Node4&#45;&gt;Node27</title>
<path fill="none" stroke="midnightblue" d="M476.894,-336.895C484.533,-308.405 511.168,-223.903 567,-184.5 591.631,-167.117 665.41,-156.065 722.639,-149.872"/>
<polygon fill="midnightblue" stroke="midnightblue" points="723.175,-153.335 732.754,-148.808 722.443,-146.373 723.175,-153.335"/>
</g>
<!-- Node28 -->
<g id="node28" class="node"><title>Node28</title>
<g id="a_node28"><a xlink:href="$classLinux_1_1Scheduler.html#abba967d02c28cb0b16a7cebbff9bc6d6" xlink:title="Linux::Scheduler::suspend\l_timer_procs">
<polygon fill="white" stroke="black" points="731,-285.5 731,-315.5 863,-315.5 863,-285.5 731,-285.5"/>
<text text-anchor="start" x="739" y="-303.5" font-family="Helvetica,sans-Serif" font-size="10.00">Linux::Scheduler::suspend</text>
<text text-anchor="middle" x="797" y="-292.5" font-family="Helvetica,sans-Serif" font-size="10.00">_timer_procs</text>
</a>
</g>
</g>
<!-- Node4&#45;&gt;Node28 -->
<g id="edge32" class="edge"><title>Node4&#45;&gt;Node28</title>
<path fill="none" stroke="midnightblue" d="M482.422,-336.859C497.035,-319.931 530.128,-285.434 567,-272.5 626.809,-251.52 700.177,-267.176 747.489,-282.192"/>
<polygon fill="midnightblue" stroke="midnightblue" points="746.583,-285.578 757.176,-285.373 748.767,-278.928 746.583,-285.578"/>
</g>
<!-- Node38 -->
<g id="node38" class="node"><title>Node38</title>
<g id="a_node38"><a xlink:href="$classLinux_1_1Scheduler.html#aee4e701b92cb4721c4de1bfcdcded70c" xlink:title="Linux::Scheduler::resume\l_timer_procs">
<polygon fill="white" stroke="black" points="733,-401.5 733,-431.5 861,-431.5 861,-401.5 733,-401.5"/>
<text text-anchor="start" x="741" y="-419.5" font-family="Helvetica,sans-Serif" font-size="10.00">Linux::Scheduler::resume</text>
<text text-anchor="middle" x="797" y="-408.5" font-family="Helvetica,sans-Serif" font-size="10.00">_timer_procs</text>
</a>
</g>
</g>
<!-- Node4&#45;&gt;Node38 -->
<g id="edge46" class="edge"><title>Node4&#45;&gt;Node38</title>
<path fill="none" stroke="midnightblue" d="M482.452,-356.013C497.113,-372.717 530.279,-406.756 567,-419.5 616.937,-436.832 676.767,-435.353 722.747,-429.927"/>
<polygon fill="midnightblue" stroke="midnightblue" points="723.452,-433.365 732.932,-428.634 722.571,-426.421 723.452,-433.365"/>
</g>
<!-- Node40 -->
<g id="node40" class="node"><title>Node40</title>
<g id="a_node40"><a xlink:href="$classLinux_1_1Scheduler.html#af23753e7c6bfa97553db215a64235455" xlink:title="Linux::Scheduler::in\l_timerprocess">
<polygon fill="white" stroke="black" points="579.5,-282.5 579.5,-312.5 682.5,-312.5 682.5,-282.5 579.5,-282.5"/>
<text text-anchor="start" x="587.5" y="-300.5" font-family="Helvetica,sans-Serif" font-size="10.00">Linux::Scheduler::in</text>
<text text-anchor="middle" x="631" y="-289.5" font-family="Helvetica,sans-Serif" font-size="10.00">_timerprocess</text>
</a>
</g>
</g>
<!-- Node4&#45;&gt;Node40 -->
<g id="edge48" class="edge"><title>Node4&#45;&gt;Node40</title>
<path fill="none" stroke="midnightblue" d="M504.851,-336.936C524.108,-330.868 549.638,-322.823 572.615,-315.583"/>
<polygon fill="midnightblue" stroke="midnightblue" points="573.795,-318.881 582.281,-312.537 571.691,-312.204 573.795,-318.881"/>
</g>
<!-- Node41 -->
<g id="node41" class="node"><title>Node41</title>
<g id="a_node41"><a xlink:href="$classLinux_1_1Scheduler.html#ac193459e3575c7a0588fdc72250c2044" xlink:title="Linux::Scheduler::register\l_timer_failsafe">
<polygon fill="white" stroke="black" points="567,-106.5 567,-136.5 695,-136.5 695,-106.5 567,-106.5"/>
<text text-anchor="start" x="575" y="-124.5" font-family="Helvetica,sans-Serif" font-size="10.00">Linux::Scheduler::register</text>
<text text-anchor="middle" x="631" y="-113.5" font-family="Helvetica,sans-Serif" font-size="10.00">_timer_failsafe</text>
</a>
</g>
</g>
<!-- Node4&#45;&gt;Node41 -->
<g id="edge49" class="edge"><title>Node4&#45;&gt;Node41</title>
<path fill="none" stroke="midnightblue" d="M476.679,-336.624C484.02,-305.467 510.607,-207.977 567,-151.5 570.599,-147.896 574.715,-144.666 579.082,-141.785"/>
<polygon fill="midnightblue" stroke="midnightblue" points="580.899,-144.777 587.717,-136.668 577.33,-138.755 580.899,-144.777"/>
</g>
<!-- Node42 -->
<g id="node42" class="node"><title>Node42</title>
<g id="a_node42"><a xlink:href="$classLinux_1_1Scheduler.html#ad6070a7ee637adf5101b1e6b6efbf8f6" xlink:title="Linux::Scheduler::system\l_initialized">
<polygon fill="white" stroke="black" points="567,-194.5 567,-224.5 695,-224.5 695,-194.5 567,-194.5"/>
<text text-anchor="start" x="575" y="-212.5" font-family="Helvetica,sans-Serif" font-size="10.00">Linux::Scheduler::system</text>
<text text-anchor="middle" x="631" y="-201.5" font-family="Helvetica,sans-Serif" font-size="10.00">_initialized</text>
</a>
</g>
</g>
<!-- Node4&#45;&gt;Node42 -->
<g id="edge50" class="edge"><title>Node4&#45;&gt;Node42</title>
<path fill="none" stroke="midnightblue" d="M480.844,-336.742C494.489,-316.378 528.525,-268.821 567,-239.5 571.815,-235.831 577.15,-232.451 582.619,-229.388"/>
<polygon fill="midnightblue" stroke="midnightblue" points="584.648,-232.276 591.882,-224.535 581.4,-226.075 584.648,-232.276"/>
</g>
<!-- Node44 -->
<g id="node44" class="node"><title>Node44</title>
<g id="a_node44"><a xlink:href="$classLinux_1_1Scheduler.html#ae72cfa66c849ffd882ef518c35c71e69" xlink:title="Linux::Scheduler::reboot">
<polygon fill="white" stroke="black" points="570,-506 570,-525 692,-525 692,-506 570,-506"/>
<text text-anchor="middle" x="631" y="-513" font-family="Helvetica,sans-Serif" font-size="10.00">Linux::Scheduler::reboot</text>
</a>
</g>
</g>
<!-- Node4&#45;&gt;Node44 -->
<g id="edge53" class="edge"><title>Node4&#45;&gt;Node44</title>
<path fill="none" stroke="midnightblue" d="M478.102,-356.113C488.174,-381.754 519.074,-452.468 567,-491.5 572.003,-495.574 577.772,-499.007 583.746,-501.885"/>
<polygon fill="midnightblue" stroke="midnightblue" points="582.652,-505.225 593.221,-505.964 585.42,-498.795 582.652,-505.225"/>
</g>
<!-- Node45 -->
<g id="node45" class="node"><title>Node45</title>
<g id="a_node45"><a xlink:href="$classLinux_1_1Scheduler.html#a392aebafcdfe9a812e4db4b7a9dcce9c" xlink:title="Linux::Scheduler::stop\l_clock">
<polygon fill="white" stroke="black" points="574,-331.5 574,-361.5 688,-361.5 688,-331.5 574,-331.5"/>
<text text-anchor="start" x="582" y="-349.5" font-family="Helvetica,sans-Serif" font-size="10.00">Linux::Scheduler::stop</text>
<text text-anchor="middle" x="631" y="-338.5" font-family="Helvetica,sans-Serif" font-size="10.00">_clock</text>
</a>
</g>
</g>
<!-- Node4&#45;&gt;Node45 -->
<g id="edge54" class="edge"><title>Node4&#45;&gt;Node45</title>
<path fill="none" stroke="midnightblue" d="M531.079,-346.5C541.674,-346.5 552.837,-346.5 563.695,-346.5"/>
<polygon fill="midnightblue" stroke="midnightblue" points="563.984,-350 573.984,-346.5 563.984,-343 563.984,-350"/>
</g>
<!-- Node6 -->
<g id="node6" class="node"><title>Node6</title>
<g id="a_node6"><a xlink:href="$namespaceAP__HAL.html#a71832f03d849a0c088f04fc98d3c8143" xlink:title="AP_HAL::panic">
<polygon fill="white" stroke="black" points="755,-196 755,-215 839,-215 839,-196 755,-196"/>
<text text-anchor="middle" x="797" y="-203" font-family="Helvetica,sans-Serif" font-size="10.00">AP_HAL::panic</text>
</a>
</g>
</g>
<!-- Node5&#45;&gt;Node6 -->
<g id="edge5" class="edge"><title>Node5&#45;&gt;Node6</title>
<path fill="none" stroke="midnightblue" d="M679.261,-87.0603C684.938,-89.52 690.358,-92.6123 695,-96.5 722.123,-119.217 706.741,-141.746 731,-167.5 740.103,-177.164 752.214,-185.141 763.513,-191.248"/>
<polygon fill="midnightblue" stroke="midnightblue" points="762.229,-194.522 772.729,-195.935 765.402,-188.282 762.229,-194.522"/>
</g>
<!-- Node5&#45;&gt;Node12 -->
<g id="edge11" class="edge"><title>Node5&#45;&gt;Node12</title>
<path fill="none" stroke="midnightblue" d="M685.246,-77.5C697.202,-77.5 710.091,-77.5 722.703,-77.5"/>
<polygon fill="midnightblue" stroke="midnightblue" points="722.734,-81.0001 732.734,-77.5 722.734,-74.0001 722.734,-81.0001"/>
</g>
<!-- Node21 -->
<g id="node21" class="node"><title>Node21</title>
<g id="a_node21"><a xlink:href="$classLinux_1_1Scheduler.html#a163eb7b285c95b1b1d036fc61d723910" xlink:title="Linux::Scheduler::\l_debug_stack">
<polygon fill="white" stroke="black" points="749.5,-0.5 749.5,-30.5 844.5,-30.5 844.5,-0.5 749.5,-0.5"/>
<text text-anchor="start" x="757.5" y="-18.5" font-family="Helvetica,sans-Serif" font-size="10.00">Linux::Scheduler::</text>
<text text-anchor="middle" x="797" y="-7.5" font-family="Helvetica,sans-Serif" font-size="10.00">_debug_stack</text>
</a>
</g>
</g>
<!-- Node5&#45;&gt;Node21 -->
<g id="edge20" class="edge"><title>Node5&#45;&gt;Node21</title>
<path fill="none" stroke="midnightblue" d="M657.266,-67.9484C680.918,-59.0066 716.923,-45.3951 746.325,-34.2794"/>
<polygon fill="midnightblue" stroke="midnightblue" points="747.9,-37.4259 756.016,-30.6158 745.425,-30.8782 747.9,-37.4259"/>
</g>
<!-- Node7 -->
<g id="node7" class="node"><title>Node7</title>
<g id="a_node7"><a xlink:href="$classAP__HAL_1_1RCInput.html#a2bea13d38f2b9ae8bf5193a3a69f0a31" xlink:title="AP_HAL::RCInput::teardown">
<polygon fill="white" stroke="black" points="899,-196 899,-215 1042,-215 1042,-196 899,-196"/>
<text text-anchor="middle" x="970.5" y="-203" font-family="Helvetica,sans-Serif" font-size="10.00">AP_HAL::RCInput::teardown</text>
</a>
</g>
</g>
<!-- Node6&#45;&gt;Node7 -->
<g id="edge6" class="edge"><title>Node6&#45;&gt;Node7</title>
<path fill="none" stroke="midnightblue" d="M839.079,-205.5C854.072,-205.5 871.594,-205.5 888.84,-205.5"/>
<polygon fill="midnightblue" stroke="midnightblue" points="888.941,-209 898.941,-205.5 888.941,-202 888.941,-209"/>
</g>
<!-- Node11 -->
<g id="node11" class="node"><title>Node11</title>
<g id="a_node11"><a xlink:href="$classAP__HAL_1_1Scheduler.html#a78c4f1b1f192ac1c99544b6cc8f099b0" xlink:title="AP_HAL::Scheduler::\ldelay_microseconds">
<polygon fill="white" stroke="black" points="1084,-288.5 1084,-318.5 1194,-318.5 1194,-288.5 1084,-288.5"/>
<text text-anchor="start" x="1092" y="-306.5" font-family="Helvetica,sans-Serif" font-size="10.00">AP_HAL::Scheduler::</text>
<text text-anchor="middle" x="1139" y="-295.5" font-family="Helvetica,sans-Serif" font-size="10.00">delay_microseconds</text>
</a>
</g>
</g>
<!-- Node6&#45;&gt;Node11 -->
<g id="edge10" class="edge"><title>Node6&#45;&gt;Node11</title>
<path fill="none" stroke="midnightblue" d="M831.22,-215.075C887.874,-231.405 1004.02,-264.884 1076.03,-285.638"/>
<polygon fill="midnightblue" stroke="midnightblue" points="1075.31,-289.072 1085.89,-288.479 1077.25,-282.346 1075.31,-289.072"/>
</g>
<!-- Node8 -->
<g id="node8" class="node"><title>Node8</title>
<g id="a_node8"><a xlink:href="$classAP__HAL_1_1RCInput.html#aee1fade33080edef83dd7db0fad0f7da" xlink:title="AP_HAL::RCInput::new\l_input">
<polygon fill="white" stroke="black" points="1078,-239.5 1078,-269.5 1200,-269.5 1200,-239.5 1078,-239.5"/>
<text text-anchor="start" x="1086" y="-257.5" font-family="Helvetica,sans-Serif" font-size="10.00">AP_HAL::RCInput::new</text>
<text text-anchor="middle" x="1139" y="-246.5" font-family="Helvetica,sans-Serif" font-size="10.00">_input</text>
</a>
</g>
</g>
<!-- Node7&#45;&gt;Node8 -->
<g id="edge7" class="edge"><title>Node7&#45;&gt;Node8</title>
<path fill="none" stroke="midnightblue" d="M1004,-215.064C1024.8,-221.186 1052.44,-229.321 1077.21,-236.611"/>
<polygon fill="midnightblue" stroke="midnightblue" points="1076.32,-239.997 1086.91,-239.463 1078.3,-233.282 1076.32,-239.997"/>
</g>
<!-- Node9 -->
<g id="node9" class="node"><title>Node9</title>
<g id="a_node9"><a xlink:href="$classAP__HAL_1_1RCInput.html#ae55f959c6115c1f41783af3a2b6c4fcd" xlink:title="AP_HAL::RCInput::num\l_channels">
<polygon fill="white" stroke="black" points="1078,-190.5 1078,-220.5 1200,-220.5 1200,-190.5 1078,-190.5"/>
<text text-anchor="start" x="1086" y="-208.5" font-family="Helvetica,sans-Serif" font-size="10.00">AP_HAL::RCInput::num</text>
<text text-anchor="middle" x="1139" y="-197.5" font-family="Helvetica,sans-Serif" font-size="10.00">_channels</text>
</a>
</g>
</g>
<!-- Node7&#45;&gt;Node9 -->
<g id="edge8" class="edge"><title>Node7&#45;&gt;Node9</title>
<path fill="none" stroke="midnightblue" d="M1042.11,-205.5C1050.55,-205.5 1059.18,-205.5 1067.62,-205.5"/>
<polygon fill="midnightblue" stroke="midnightblue" points="1067.8,-209 1077.8,-205.5 1067.8,-202 1067.8,-209"/>
</g>
<!-- Node10 -->
<g id="node10" class="node"><title>Node10</title>
<g id="a_node10"><a xlink:href="$classAP__HAL_1_1RCInput.html#a078fd7e6d2e6a899009ec674a8e03498" xlink:title="AP_HAL::RCInput::read">
<polygon fill="white" stroke="black" points="1078,-152 1078,-171 1200,-171 1200,-152 1078,-152"/>
<text text-anchor="middle" x="1139" y="-159" font-family="Helvetica,sans-Serif" font-size="10.00">AP_HAL::RCInput::read</text>
</a>
</g>
</g>
<!-- Node7&#45;&gt;Node10 -->
<g id="edge9" class="edge"><title>Node7&#45;&gt;Node10</title>
<path fill="none" stroke="midnightblue" d="M1007.63,-195.953C1032.39,-189.408 1065.45,-180.672 1092.08,-173.635"/>
<polygon fill="midnightblue" stroke="midnightblue" points="1093.17,-176.968 1101.94,-171.029 1091.38,-170.2 1093.17,-176.968"/>
</g>
<!-- Node13 -->
<g id="node13" class="node"><title>Node13</title>
<g id="a_node13"><a xlink:href="$classAP__HAL_1_1UARTDriver.html#a6ceedc792594e59fc7d80b39a435f027" xlink:title="AP_HAL::UARTDriver\l::printf">
<polygon fill="white" stroke="black" points="913,-102.5 913,-132.5 1028,-132.5 1028,-102.5 913,-102.5"/>
<text text-anchor="start" x="921" y="-120.5" font-family="Helvetica,sans-Serif" font-size="10.00">AP_HAL::UARTDriver</text>
<text text-anchor="middle" x="970.5" y="-109.5" font-family="Helvetica,sans-Serif" font-size="10.00">::printf</text>
</a>
</g>
</g>
<!-- Node12&#45;&gt;Node13 -->
<g id="edge12" class="edge"><title>Node12&#45;&gt;Node13</title>
<path fill="none" stroke="midnightblue" d="M861.373,-92.2809C874.963,-95.4506 889.36,-98.8084 903.063,-102.004"/>
<polygon fill="midnightblue" stroke="midnightblue" points="902.362,-105.435 912.896,-104.298 903.953,-98.6179 902.362,-105.435"/>
</g>
<!-- Node14 -->
<g id="node14" class="node"><title>Node14</title>
<g id="a_node14"><a xlink:href="$classAP__HAL_1_1UARTDriver.html#aa8abfb6d6641299472c29ac1edde559f" xlink:title="AP_HAL::UARTDriver\l::vprintf">
<polygon fill="white" stroke="black" points="1081.5,-102.5 1081.5,-132.5 1196.5,-132.5 1196.5,-102.5 1081.5,-102.5"/>
<text text-anchor="start" x="1089.5" y="-120.5" font-family="Helvetica,sans-Serif" font-size="10.00">AP_HAL::UARTDriver</text>
<text text-anchor="middle" x="1139" y="-109.5" font-family="Helvetica,sans-Serif" font-size="10.00">::vprintf</text>
</a>
</g>
</g>
<!-- Node13&#45;&gt;Node14 -->
<g id="edge13" class="edge"><title>Node13&#45;&gt;Node14</title>
<path fill="none" stroke="midnightblue" d="M1028.33,-117.5C1042.13,-117.5 1057.01,-117.5 1071.22,-117.5"/>
<polygon fill="midnightblue" stroke="midnightblue" points="1071.42,-121 1081.42,-117.5 1071.42,-114 1071.42,-121"/>
</g>
<!-- Node15 -->
<g id="node15" class="node"><title>Node15</title>
<g id="a_node15"><a xlink:href="$print__vprintf_8cpp.html#a1534eaeab54696df96975b56d9f49212" xlink:title="print_vprintf">
<polygon fill="white" stroke="black" points="1267,-114 1267,-133 1335,-133 1335,-114 1267,-114"/>
<text text-anchor="middle" x="1301" y="-121" font-family="Helvetica,sans-Serif" font-size="10.00">print_vprintf</text>
</a>
</g>
</g>
<!-- Node14&#45;&gt;Node15 -->
<g id="edge14" class="edge"><title>Node14&#45;&gt;Node15</title>
<path fill="none" stroke="midnightblue" d="M1196.86,-119.632C1216.47,-120.368 1238.12,-121.179 1256.49,-121.868"/>
<polygon fill="midnightblue" stroke="midnightblue" points="1256.49,-125.371 1266.61,-122.248 1256.75,-118.376 1256.49,-125.371"/>
</g>
<!-- Node16 -->
<g id="node16" class="node"><title>Node16</title>
<g id="a_node16"><a xlink:href="$classAP__HAL_1_1Print.html#acc65391952a43334f8f5c9bef341f501" xlink:title="AP_HAL::Print::write">
<polygon fill="white" stroke="black" points="1419.5,-44 1419.5,-63 1527.5,-63 1527.5,-44 1419.5,-44"/>
<text text-anchor="middle" x="1473.5" y="-51" font-family="Helvetica,sans-Serif" font-size="10.00">AP_HAL::Print::write</text>
</a>
</g>
</g>
<!-- Node15&#45;&gt;Node16 -->
<g id="edge15" class="edge"><title>Node15&#45;&gt;Node16</title>
<path fill="none" stroke="midnightblue" d="M1318.15,-113.932C1337.53,-102.768 1371.26,-84.3312 1402,-72.5 1408.28,-70.083 1414.99,-67.8516 1421.67,-65.8325"/>
<polygon fill="midnightblue" stroke="midnightblue" points="1422.76,-69.1612 1431.4,-63.0296 1420.82,-62.4348 1422.76,-69.1612"/>
</g>
<!-- Node17 -->
<g id="node17" class="node"><title>Node17</title>
<g id="a_node17"><a xlink:href="$ftoa__engine_8cpp.html#a1c28234da8f20b43c85890d4bb452947" xlink:title="ftoa_engine">
<polygon fill="white" stroke="black" points="1440,-196 1440,-215 1507,-215 1507,-196 1440,-196"/>
<text text-anchor="middle" x="1473.5" y="-203" font-family="Helvetica,sans-Serif" font-size="10.00">ftoa_engine</text>
</a>
</g>
</g>
<!-- Node15&#45;&gt;Node17 -->
<g id="edge16" class="edge"><title>Node15&#45;&gt;Node17</title>
<path fill="none" stroke="midnightblue" d="M1314.57,-133.172C1332.87,-146.837 1368.35,-171.768 1402,-186.5 1410.78,-190.346 1420.53,-193.578 1429.91,-196.223"/>
<polygon fill="midnightblue" stroke="midnightblue" points="1429.31,-199.685 1439.87,-198.864 1431.1,-192.919 1429.31,-199.685"/>
</g>
<!-- Node18 -->
<g id="node18" class="node"><title>Node18</title>
<g id="a_node18"><a xlink:href="$replace_8cpp.html#a880bcc7b85a09e6254691bebd5344b51" xlink:title="strnlen">
<polygon fill="white" stroke="black" points="1450.5,-158 1450.5,-177 1496.5,-177 1496.5,-158 1450.5,-158"/>
<text text-anchor="middle" x="1473.5" y="-165" font-family="Helvetica,sans-Serif" font-size="10.00">strnlen</text>
</a>
</g>
</g>
<!-- Node15&#45;&gt;Node18 -->
<g id="edge17" class="edge"><title>Node15&#45;&gt;Node18</title>
<path fill="none" stroke="midnightblue" d="M1335.28,-132.088C1365.71,-139.941 1410.42,-151.479 1440.45,-159.23"/>
<polygon fill="midnightblue" stroke="midnightblue" points="1439.86,-162.692 1450.42,-161.801 1441.61,-155.914 1439.86,-162.692"/>
</g>
<!-- Node19 -->
<g id="node19" class="node"><title>Node19</title>
<g id="a_node19"><a xlink:href="$utoa__invert_8cpp.html#a34926f552460b47c414ec4d83b32815c" xlink:title="ulltoa_invert">
<polygon fill="white" stroke="black" points="1439,-120 1439,-139 1508,-139 1508,-120 1439,-120"/>
<text text-anchor="middle" x="1473.5" y="-127" font-family="Helvetica,sans-Serif" font-size="10.00">ulltoa_invert</text>
</a>
</g>
</g>
<!-- Node15&#45;&gt;Node19 -->
<g id="edge18" class="edge"><title>Node15&#45;&gt;Node19</title>
<path fill="none" stroke="midnightblue" d="M1335.28,-124.671C1361.86,-125.607 1399.35,-126.926 1428.43,-127.949"/>
<polygon fill="midnightblue" stroke="midnightblue" points="1428.61,-131.457 1438.72,-128.311 1428.85,-124.462 1428.61,-131.457"/>
</g>
<!-- Node20 -->
<g id="node20" class="node"><title>Node20</title>
<g id="a_node20"><a xlink:href="$utoa__invert_8cpp.html#a5d99bba8e697c1e11da489d88fca8559" xlink:title="ultoa_invert">
<polygon fill="white" stroke="black" points="1440,-82 1440,-101 1507,-101 1507,-82 1440,-82"/>
<text text-anchor="middle" x="1473.5" y="-89" font-family="Helvetica,sans-Serif" font-size="10.00">ultoa_invert</text>
</a>
</g>
</g>
<!-- Node15&#45;&gt;Node20 -->
<g id="edge19" class="edge"><title>Node15&#45;&gt;Node20</title>
<path fill="none" stroke="midnightblue" d="M1335.28,-117.254C1362.33,-112.178 1400.66,-104.983 1429.94,-99.488"/>
<polygon fill="midnightblue" stroke="midnightblue" points="1430.7,-102.906 1439.88,-97.6214 1429.41,-96.0262 1430.7,-102.906"/>
</g>
<!-- Node21&#45;&gt;Node3 -->
<g id="edge21" class="edge"><title>Node21&#45;&gt;Node3</title>
<path fill="none" stroke="midnightblue" d="M749.308,-6.62654C699.886,0.132112 621.627,3.06017 567,-32.5 410.631,-134.291 351.812,-377.622 337.63,-448.692"/>
<polygon fill="midnightblue" stroke="midnightblue" points="334.117,-448.425 335.667,-458.906 340.991,-449.746 334.117,-448.425"/>
</g>
<!-- Node22 -->
<g id="node22" class="node"><title>Node22</title>
<g id="a_node22"><a xlink:href="$classLinux_1_1Thread.html#a6884970a0811ae21953c57fb98aa6e96" xlink:title="Linux::Thread::get\l_stack_usage">
<polygon fill="white" stroke="black" points="1889,-151.5 1889,-181.5 1984,-181.5 1984,-151.5 1889,-151.5"/>
<text text-anchor="start" x="1897" y="-169.5" font-family="Helvetica,sans-Serif" font-size="10.00">Linux::Thread::get</text>
<text text-anchor="middle" x="1936.5" y="-158.5" font-family="Helvetica,sans-Serif" font-size="10.00">_stack_usage</text>
</a>
</g>
</g>
<!-- Node21&#45;&gt;Node22 -->
<g id="edge22" class="edge"><title>Node21&#45;&gt;Node22</title>
<path fill="none" stroke="midnightblue" d="M844.747,-15.5C910.29,-15.5 1033.23,-15.5 1138,-15.5 1138,-15.5 1138,-15.5 1637.5,-15.5 1750.44,-15.5 1863.99,-102.874 1911.87,-144.695"/>
<polygon fill="midnightblue" stroke="midnightblue" points="1909.71,-147.452 1919.51,-151.469 1914.35,-142.215 1909.71,-147.452"/>
</g>
<!-- Node23&#45;&gt;Node3 -->
<g id="edge24" class="edge"><title>Node23&#45;&gt;Node3</title>
<path fill="none" stroke="midnightblue" d="M571.319,-636.345C525.489,-638.705 462.065,-635.128 416,-605.5 373.019,-577.855 349.417,-518.976 339.573,-488.187"/>
<polygon fill="midnightblue" stroke="midnightblue" points="342.805,-486.782 336.558,-478.225 336.105,-488.81 342.805,-486.782"/>
</g>
<!-- Node24 -->
<g id="node24" class="node"><title>Node24</title>
<g id="a_node24"><a xlink:href="$classLinux_1_1Scheduler.html#a647872aff158b510c56862f51f951538" xlink:title="Linux::Scheduler::microsleep">
<polygon fill="white" stroke="black" points="1402,-544 1402,-563 1545,-563 1545,-544 1402,-544"/>
<text text-anchor="middle" x="1473.5" y="-551" font-family="Helvetica,sans-Serif" font-size="10.00">Linux::Scheduler::microsleep</text>
</a>
</g>
</g>
<!-- Node23&#45;&gt;Node24 -->
<g id="edge25" class="edge"><title>Node23&#45;&gt;Node24</title>
<path fill="none" stroke="midnightblue" d="M690.532,-629.5C757.839,-629.5 871.648,-629.5 969.5,-629.5 969.5,-629.5 969.5,-629.5 1140,-629.5 1251.39,-629.5 1378.62,-588.462 1438.26,-566.697"/>
<polygon fill="midnightblue" stroke="midnightblue" points="1439.75,-569.878 1447.91,-563.125 1437.32,-563.312 1439.75,-569.878"/>
</g>
<!-- Node25&#45;&gt;Node24 -->
<g id="edge27" class="edge"><title>Node25&#45;&gt;Node24</title>
<path fill="none" stroke="midnightblue" d="M1360.68,-553.5C1370.75,-553.5 1381.37,-553.5 1391.9,-553.5"/>
<polygon fill="midnightblue" stroke="midnightblue" points="1391.95,-557 1401.95,-553.5 1391.95,-550 1391.95,-557"/>
</g>
<!-- Node27&#45;&gt;Node13 -->
<g id="edge31" class="edge"><title>Node27&#45;&gt;Node13</title>
<path fill="none" stroke="midnightblue" d="M861.373,-133.892C874.831,-131.852 889.081,-129.692 902.663,-127.633"/>
<polygon fill="midnightblue" stroke="midnightblue" points="903.534,-131.041 912.896,-126.081 902.484,-124.12 903.534,-131.041"/>
</g>
<!-- Node29 -->
<g id="node29" class="node"><title>Node29</title>
<g id="a_node29"><a xlink:href="$classLinux_1_1Semaphore.html#afc4c8706abb7e68aa4001ea372dc614e" xlink:title="Linux::Semaphore::take">
<polygon fill="white" stroke="black" points="910.5,-341 910.5,-360 1030.5,-360 1030.5,-341 910.5,-341"/>
<text text-anchor="middle" x="970.5" y="-348" font-family="Helvetica,sans-Serif" font-size="10.00">Linux::Semaphore::take</text>
</a>
</g>
</g>
<!-- Node28&#45;&gt;Node29 -->
<g id="edge33" class="edge"><title>Node28&#45;&gt;Node29</title>
<path fill="none" stroke="midnightblue" d="M849.456,-315.502C874.233,-322.725 903.584,-331.282 927.061,-338.127"/>
<polygon fill="midnightblue" stroke="midnightblue" points="926.153,-341.508 936.733,-340.947 928.112,-334.788 926.153,-341.508"/>
</g>
<!-- Node29&#45;&gt;Node11 -->
<g id="edge45" class="edge"><title>Node29&#45;&gt;Node11</title>
<path fill="none" stroke="midnightblue" d="M1005.19,-340.989C1025.24,-335.331 1051.31,-327.972 1075.04,-321.274"/>
<polygon fill="midnightblue" stroke="midnightblue" points="1076.02,-324.634 1084.69,-318.549 1074.11,-317.897 1076.02,-324.634"/>
</g>
<!-- Node30 -->
<g id="node30" class="node"><title>Node30</title>
<g id="a_node30"><a xlink:href="$classLinux_1_1Semaphore.html#a561b4f40f3a76335f1a686c2aed526f9" xlink:title="Linux::Semaphore::take\l_nonblocking">
<polygon fill="white" stroke="black" points="1079,-337.5 1079,-367.5 1199,-367.5 1199,-337.5 1079,-337.5"/>
<text text-anchor="start" x="1087" y="-355.5" font-family="Helvetica,sans-Serif" font-size="10.00">Linux::Semaphore::take</text>
<text text-anchor="middle" x="1139" y="-344.5" font-family="Helvetica,sans-Serif" font-size="10.00">_nonblocking</text>
</a>
</g>
</g>
<!-- Node29&#45;&gt;Node30 -->
<g id="edge34" class="edge"><title>Node29&#45;&gt;Node30</title>
<path fill="none" stroke="midnightblue" d="M1030.67,-351.211C1042.99,-351.359 1056.07,-351.516 1068.72,-351.668"/>
<polygon fill="midnightblue" stroke="midnightblue" points="1068.7,-355.168 1078.74,-351.788 1068.78,-348.168 1068.7,-355.168"/>
</g>
<!-- Node31 -->
<g id="node31" class="node"><title>Node31</title>
<g id="a_node31"><a xlink:href="$namespaceAP__HAL.html#a7aa0ce7625c9680e30ff4a99940907a5" xlink:title="AP_HAL::micros64">
<polygon fill="white" stroke="black" points="1088.5,-468 1088.5,-487 1189.5,-487 1189.5,-468 1088.5,-468"/>
<text text-anchor="middle" x="1139" y="-475" font-family="Helvetica,sans-Serif" font-size="10.00">AP_HAL::micros64</text>
</a>
</g>
</g>
<!-- Node29&#45;&gt;Node31 -->
<g id="edge35" class="edge"><title>Node29&#45;&gt;Node31</title>
<path fill="none" stroke="midnightblue" d="M989.762,-360.139C1004.35,-368.13 1025.09,-380.145 1042,-392.5 1071.44,-414.007 1102.5,-442.782 1121.06,-460.725"/>
<polygon fill="midnightblue" stroke="midnightblue" points="1118.83,-463.441 1128.43,-467.92 1123.72,-458.431 1118.83,-463.441"/>
</g>
<!-- Node31&#45;&gt;Node4 -->
<g id="edge36" class="edge"><title>Node31&#45;&gt;Node4</title>
<path fill="none" stroke="midnightblue" d="M1088.15,-485.837C985.242,-500.659 744.118,-522.912 567,-441.5 530.785,-424.854 501.244,-387.268 485.916,-364.682"/>
<polygon fill="midnightblue" stroke="midnightblue" points="488.823,-362.733 480.409,-356.294 482.972,-366.574 488.823,-362.733"/>
</g>
<!-- Node31&#45;&gt;Node32 -->
<g id="edge37" class="edge"><title>Node31&#45;&gt;Node32</title>
<path fill="none" stroke="midnightblue" d="M1189.75,-481.542C1201.14,-482.468 1213.5,-483.472 1225.68,-484.461"/>
<polygon fill="midnightblue" stroke="midnightblue" points="1225.59,-487.966 1235.84,-485.287 1226.16,-480.989 1225.59,-487.966"/>
</g>
<!-- Node32&#45;&gt;Node24 -->
<g id="edge38" class="edge"><title>Node32&#45;&gt;Node24</title>
<path fill="none" stroke="midnightblue" d="M1342.84,-505.59C1371.53,-516.192 1409.53,-530.234 1436.97,-540.372"/>
<polygon fill="midnightblue" stroke="midnightblue" points="1435.97,-543.734 1446.57,-543.917 1438.4,-537.168 1435.97,-543.734"/>
</g>
<!-- Node33 -->
<g id="node33" class="node"><title>Node33</title>
<g id="a_node33"><a xlink:href="$classLinux_1_1Scheduler.html#ab373a83d818679432520ea881044b2a7" xlink:title="Linux::Scheduler::teardown">
<polygon fill="white" stroke="black" points="1406,-357 1406,-376 1541,-376 1541,-357 1406,-357"/>
<text text-anchor="middle" x="1473.5" y="-364" font-family="Helvetica,sans-Serif" font-size="10.00">Linux::Scheduler::teardown</text>
</a>
</g>
</g>
<!-- Node32&#45;&gt;Node33 -->
<g id="edge39" class="edge"><title>Node32&#45;&gt;Node33</title>
<path fill="none" stroke="midnightblue" d="M1322.91,-475.295C1355.42,-451.65 1417.78,-406.295 1450.78,-382.294"/>
<polygon fill="midnightblue" stroke="midnightblue" points="1453.23,-384.839 1459.26,-376.127 1449.12,-379.178 1453.23,-384.839"/>
</g>
<!-- Node34 -->
<g id="node34" class="node"><title>Node34</title>
<g id="a_node34"><a xlink:href="$classLinux_1_1PeriodicThread.html#a136aaf6e713f63b246fc4a2905e6e9a1" xlink:title="Linux::PeriodicThread\l::stop">
<polygon fill="white" stroke="black" points="1581,-351.5 1581,-381.5 1692,-381.5 1692,-351.5 1581,-351.5"/>
<text text-anchor="start" x="1589" y="-369.5" font-family="Helvetica,sans-Serif" font-size="10.00">Linux::PeriodicThread</text>
<text text-anchor="middle" x="1636.5" y="-358.5" font-family="Helvetica,sans-Serif" font-size="10.00">::stop</text>
</a>
</g>
</g>
<!-- Node33&#45;&gt;Node34 -->
<g id="edge40" class="edge"><title>Node33&#45;&gt;Node34</title>
<path fill="none" stroke="midnightblue" d="M1541.38,-366.5C1551.02,-366.5 1560.94,-366.5 1570.54,-366.5"/>
<polygon fill="midnightblue" stroke="midnightblue" points="1570.82,-370 1580.82,-366.5 1570.82,-363 1570.82,-370"/>
</g>
<!-- Node37 -->
<g id="node37" class="node"><title>Node37</title>
<g id="a_node37"><a xlink:href="$classLinux_1_1Thread.html#a32b7d184279634922e2f3b23b584fbcd" xlink:title="Linux::Thread::join">
<polygon fill="white" stroke="black" points="1588,-313 1588,-332 1685,-332 1685,-313 1588,-313"/>
<text text-anchor="middle" x="1636.5" y="-320" font-family="Helvetica,sans-Serif" font-size="10.00">Linux::Thread::join</text>
</a>
</g>
</g>
<!-- Node33&#45;&gt;Node37 -->
<g id="edge44" class="edge"><title>Node33&#45;&gt;Node37</title>
<path fill="none" stroke="midnightblue" d="M1509.43,-356.953C1533.28,-350.437 1565.07,-341.749 1590.76,-334.728"/>
<polygon fill="midnightblue" stroke="midnightblue" points="1591.91,-338.041 1600.63,-332.029 1590.06,-331.289 1591.91,-338.041"/>
</g>
<!-- Node35 -->
<g id="node35" class="node"><title>Node35</title>
<g id="a_node35"><a xlink:href="$classLinux_1_1Thread.html#a240d7b48a9a8eb43638f67295a1819e5" xlink:title="Linux::Thread::is_started">
<polygon fill="white" stroke="black" points="1728,-281 1728,-300 1853,-300 1853,-281 1728,-281"/>
<text text-anchor="middle" x="1790.5" y="-288" font-family="Helvetica,sans-Serif" font-size="10.00">Linux::Thread::is_started</text>
</a>
</g>
</g>
<!-- Node34&#45;&gt;Node35 -->
<g id="edge41" class="edge"><title>Node34&#45;&gt;Node35</title>
<path fill="none" stroke="midnightblue" d="M1671.06,-351.436C1678.02,-348.222 1685.27,-344.801 1692,-341.5 1716.17,-329.644 1743.28,-315.385 1762.77,-304.962"/>
<polygon fill="midnightblue" stroke="midnightblue" points="1764.52,-307.994 1771.67,-300.18 1761.21,-301.826 1764.52,-307.994"/>
</g>
<!-- Node35&#45;&gt;Node22 -->
<g id="edge42" class="edge"><title>Node35&#45;&gt;Node22</title>
<path fill="none" stroke="midnightblue" d="M1802.8,-280.77C1825.68,-261.064 1878.02,-215.996 1909.7,-188.717"/>
<polygon fill="midnightblue" stroke="midnightblue" points="1912.37,-191.038 1917.66,-181.86 1907.8,-185.733 1912.37,-191.038"/>
</g>
<!-- Node36 -->
<g id="node36" class="node"><title>Node36</title>
<g id="a_node36"><a xlink:href="$classLinux_1_1Thread.html#a8d3282b714faaf68eae534e9276419f0" xlink:title="Linux::Thread::set\l_stack_size">
<polygon fill="white" stroke="black" points="1889,-275.5 1889,-305.5 1984,-305.5 1984,-275.5 1889,-275.5"/>
<text text-anchor="start" x="1897" y="-293.5" font-family="Helvetica,sans-Serif" font-size="10.00">Linux::Thread::set</text>
<text text-anchor="middle" x="1936.5" y="-282.5" font-family="Helvetica,sans-Serif" font-size="10.00">_stack_size</text>
</a>
</g>
</g>
<!-- Node35&#45;&gt;Node36 -->
<g id="edge43" class="edge"><title>Node35&#45;&gt;Node36</title>
<path fill="none" stroke="midnightblue" d="M1853.4,-290.5C1861.86,-290.5 1870.5,-290.5 1878.86,-290.5"/>
<polygon fill="midnightblue" stroke="midnightblue" points="1878.87,-294 1888.87,-290.5 1878.87,-287 1878.87,-294"/>
</g>
<!-- Node39 -->
<g id="node39" class="node"><title>Node39</title>
<g id="a_node39"><a xlink:href="$classLinux_1_1Semaphore.html#a216f91636f64b57b59d43ef64af91624" xlink:title="Linux::Semaphore::give">
<polygon fill="white" stroke="black" points="911,-402 911,-421 1030,-421 1030,-402 911,-402"/>
<text text-anchor="middle" x="970.5" y="-409" font-family="Helvetica,sans-Serif" font-size="10.00">Linux::Semaphore::give</text>
</a>
</g>
</g>
<!-- Node38&#45;&gt;Node39 -->
<g id="edge47" class="edge"><title>Node38&#45;&gt;Node39</title>
<path fill="none" stroke="midnightblue" d="M861.373,-414.652C874.172,-414.279 887.687,-413.885 900.663,-413.507"/>
<polygon fill="midnightblue" stroke="midnightblue" points="901.037,-416.998 910.931,-413.208 900.833,-410.001 901.037,-416.998"/>
</g>
<!-- Node42&#45;&gt;Node6 -->
<g id="edge51" class="edge"><title>Node42&#45;&gt;Node6</title>
<path fill="none" stroke="midnightblue" d="M695.407,-207.953C711.518,-207.561 728.641,-207.143 744.105,-206.766"/>
<polygon fill="midnightblue" stroke="midnightblue" points="744.602,-210.255 754.513,-206.512 744.431,-203.257 744.602,-210.255"/>
</g>
<!-- Node43 -->
<g id="node43" class="node"><title>Node43</title>
<g id="a_node43"><a xlink:href="$classLinux_1_1Scheduler.html#ac52c8da3f1f4fd79c50bd64379daf399" xlink:title="Linux::Scheduler::\l_wait_all_threads">
<polygon fill="white" stroke="black" points="749.5,-234.5 749.5,-264.5 844.5,-264.5 844.5,-234.5 749.5,-234.5"/>
<text text-anchor="start" x="757.5" y="-252.5" font-family="Helvetica,sans-Serif" font-size="10.00">Linux::Scheduler::</text>
<text text-anchor="middle" x="797" y="-241.5" font-family="Helvetica,sans-Serif" font-size="10.00">_wait_all_threads</text>
</a>
</g>
</g>
<!-- Node42&#45;&gt;Node43 -->
<g id="edge52" class="edge"><title>Node42&#45;&gt;Node43</title>
<path fill="none" stroke="midnightblue" d="M693.534,-224.508C708.525,-228.165 724.491,-232.059 739.249,-235.658"/>
<polygon fill="midnightblue" stroke="midnightblue" points="738.7,-239.127 749.245,-238.096 740.359,-232.326 738.7,-239.127"/>
</g>
<!-- Node46 -->
<g id="node46" class="node"><title>Node46</title>
<g id="a_node46"><a xlink:href="$classLinux_1_1Scheduler.html#a70b024d7d0886bf47b46cc3ee310d638" xlink:title="Linux::Scheduler::\l_run_io">
<polygon fill="white" stroke="black" points="749.5,-335.5 749.5,-365.5 844.5,-365.5 844.5,-335.5 749.5,-335.5"/>
<text text-anchor="start" x="757.5" y="-353.5" font-family="Helvetica,sans-Serif" font-size="10.00">Linux::Scheduler::</text>
<text text-anchor="middle" x="797" y="-342.5" font-family="Helvetica,sans-Serif" font-size="10.00">_run_io</text>
</a>
</g>
</g>
<!-- Node45&#45;&gt;Node46 -->
<g id="edge55" class="edge"><title>Node45&#45;&gt;Node46</title>
<path fill="none" stroke="midnightblue" d="M688.439,-347.877C704.86,-348.277 722.799,-348.715 739.239,-349.116"/>
<polygon fill="midnightblue" stroke="midnightblue" points="739.172,-352.615 749.255,-349.36 739.343,-345.617 739.172,-352.615"/>
</g>
<!-- Node46&#45;&gt;Node29 -->
<g id="edge56" class="edge"><title>Node46&#45;&gt;Node29</title>
<path fill="none" stroke="midnightblue" d="M844.863,-350.5C861.934,-350.5 881.613,-350.5 900.217,-350.5"/>
<polygon fill="midnightblue" stroke="midnightblue" points="900.419,-354 910.419,-350.5 900.419,-347 900.419,-354"/>
</g>
<!-- Node46&#45;&gt;Node39 -->
<g id="edge57" class="edge"><title>Node46&#45;&gt;Node39</title>
<path fill="none" stroke="midnightblue" d="M840.393,-365.579C868.84,-375.697 905.924,-388.887 933.046,-398.534"/>
<polygon fill="midnightblue" stroke="midnightblue" points="931.958,-401.862 942.553,-401.915 934.304,-395.266 931.958,-401.862"/>
</g>
</g>
</svg>
