<?xml version="1.0" encoding="UTF-8" standalone="no"?>
<!DOCTYPE svg PUBLIC "-//W3C//DTD SVG 1.1//EN"
 "http://www.w3.org/Graphics/SVG/1.1/DTD/svg11.dtd">
<!-- Generated by graphviz version 2.38.0 (20140413.2041)
 -->
<!-- Title: AC_AttitudeControl::update_ang_vel_target_from_att_error Pages: 1 -->
<svg width="597pt" height="338pt"
 viewBox="0.00 0.00 597.00 337.50" xmlns="http://www.w3.org/2000/svg" xmlns:xlink="http://www.w3.org/1999/xlink">
<g id="graph0" class="graph" transform="scale(1 1) rotate(0) translate(4 333.5)">
<title>AC_AttitudeControl::update_ang_vel_target_from_att_error</title>
<polygon fill="white" stroke="none" points="-4,4 -4,-333.5 593,-333.5 593,4 -4,4"/>
<!-- Node1 -->
<g id="node1" class="node"><title>Node1</title>
<polygon fill="#bfbfbf" stroke="black" points="0,-115 0,-156 121,-156 121,-115 0,-115"/>
<text text-anchor="start" x="8" y="-144" font-family="Helvetica,sans-Serif" font-size="10.00">AC_AttitudeControl</text>
<text text-anchor="start" x="8" y="-133" font-family="Helvetica,sans-Serif" font-size="10.00">::update_ang_vel_target</text>
<text text-anchor="middle" x="60.5" y="-122" font-family="Helvetica,sans-Serif" font-size="10.00">_from_att_error</text>
</g>
<!-- Node2 -->
<g id="node2" class="node"><title>Node2</title>
<g id="a_node2"><a xlink:href="$classAC__AttitudeControl.html#a1788967db1aa0dfe68fad24da23947f9" xlink:title="AC_AttitudeControl\l::sqrt_controller">
<polygon fill="white" stroke="black" points="178.5,-247.5 178.5,-277.5 279.5,-277.5 279.5,-247.5 178.5,-247.5"/>
<text text-anchor="start" x="186.5" y="-265.5" font-family="Helvetica,sans-Serif" font-size="10.00">AC_AttitudeControl</text>
<text text-anchor="middle" x="229" y="-254.5" font-family="Helvetica,sans-Serif" font-size="10.00">::sqrt_controller</text>
</a>
</g>
</g>
<!-- Node1&#45;&gt;Node2 -->
<g id="edge1" class="edge"><title>Node1&#45;&gt;Node2</title>
<path fill="none" stroke="midnightblue" d="M85.3161,-156.292C104.329,-172.621 131.854,-195.668 157,-214.5 169.458,-223.83 183.591,-233.55 195.948,-241.783"/>
<polygon fill="midnightblue" stroke="midnightblue" points="194.311,-244.896 204.584,-247.489 198.17,-239.056 194.311,-244.896"/>
</g>
<!-- Node10 -->
<g id="node10" class="node"><title>Node10</title>
<g id="a_node10"><a xlink:href="$classAC__P.html#a723b372dfceb74ddb2edbe11544e9d5a" xlink:title="AC_P::kP">
<polygon fill="white" stroke="black" points="198.5,-186 198.5,-205 259.5,-205 259.5,-186 198.5,-186"/>
<text text-anchor="middle" x="229" y="-193" font-family="Helvetica,sans-Serif" font-size="10.00">AC_P::kP</text>
</a>
</g>
</g>
<!-- Node1&#45;&gt;Node10 -->
<g id="edge9" class="edge"><title>Node1&#45;&gt;Node10</title>
<path fill="none" stroke="midnightblue" d="M105.675,-156.039C121.649,-163.045 139.951,-170.593 157,-176.5 167.038,-179.977 178.055,-183.202 188.354,-185.971"/>
<polygon fill="midnightblue" stroke="midnightblue" points="187.79,-189.442 198.35,-188.581 189.558,-182.669 187.79,-189.442"/>
</g>
<!-- Node11 -->
<g id="node11" class="node"><title>Node11</title>
<g id="a_node11"><a xlink:href="$AP__Math_8h.html#ad525609d9dba6ffa556a0fbf08a3f9b4" xlink:title="constrain_float">
<polygon fill="white" stroke="black" points="189,-148 189,-167 269,-167 269,-148 189,-148"/>
<text text-anchor="middle" x="229" y="-155" font-family="Helvetica,sans-Serif" font-size="10.00">constrain_float</text>
</a>
</g>
</g>
<!-- Node1&#45;&gt;Node11 -->
<g id="edge10" class="edge"><title>Node1&#45;&gt;Node11</title>
<path fill="none" stroke="midnightblue" d="M121.14,-143.38C139.948,-145.866 160.509,-148.582 178.527,-150.963"/>
<polygon fill="midnightblue" stroke="midnightblue" points="178.156,-154.444 188.529,-152.285 179.073,-147.505 178.156,-154.444"/>
</g>
<!-- Node17 -->
<g id="node17" class="node"><title>Node17</title>
<g id="a_node17"><a xlink:href="$classAC__AttitudeControl.html#a5a8d0a611d7791820332b37079bdc306" xlink:title="AC_AttitudeControl\l::get_accel_roll_max_radss">
<polygon fill="white" stroke="black" points="161,-98.5 161,-128.5 297,-128.5 297,-98.5 161,-98.5"/>
<text text-anchor="start" x="169" y="-116.5" font-family="Helvetica,sans-Serif" font-size="10.00">AC_AttitudeControl</text>
<text text-anchor="middle" x="229" y="-105.5" font-family="Helvetica,sans-Serif" font-size="10.00">::get_accel_roll_max_radss</text>
</a>
</g>
</g>
<!-- Node1&#45;&gt;Node17 -->
<g id="edge16" class="edge"><title>Node1&#45;&gt;Node17</title>
<path fill="none" stroke="midnightblue" d="M121.14,-127.62C130.798,-126.344 140.918,-125.006 150.918,-123.685"/>
<polygon fill="midnightblue" stroke="midnightblue" points="151.402,-127.152 160.857,-122.372 150.485,-120.212 151.402,-127.152"/>
</g>
<!-- Node19 -->
<g id="node19" class="node"><title>Node19</title>
<g id="a_node19"><a xlink:href="$classAC__AttitudeControl.html#abae95a10026ec6871f01b3e4c0919ea3" xlink:title="AC_AttitudeControl\l::get_accel_pitch_max_radss">
<polygon fill="white" stroke="black" points="157,-49.5 157,-79.5 301,-79.5 301,-49.5 157,-49.5"/>
<text text-anchor="start" x="165" y="-67.5" font-family="Helvetica,sans-Serif" font-size="10.00">AC_AttitudeControl</text>
<text text-anchor="middle" x="229" y="-56.5" font-family="Helvetica,sans-Serif" font-size="10.00">::get_accel_pitch_max_radss</text>
</a>
</g>
</g>
<!-- Node1&#45;&gt;Node19 -->
<g id="edge18" class="edge"><title>Node1&#45;&gt;Node19</title>
<path fill="none" stroke="midnightblue" d="M100.46,-114.882C117.569,-106.206 138.042,-96.3297 157,-88.5 161.499,-86.6421 166.198,-84.8148 170.945,-83.0487"/>
<polygon fill="midnightblue" stroke="midnightblue" points="172.489,-86.2121 180.702,-79.5195 170.108,-79.6294 172.489,-86.2121"/>
</g>
<!-- Node20 -->
<g id="node20" class="node"><title>Node20</title>
<g id="a_node20"><a xlink:href="$classAC__AttitudeControl.html#a445cb2fecd81068727882285bf839807" xlink:title="AC_AttitudeControl\l::get_accel_yaw_max_radss">
<polygon fill="white" stroke="black" points="158.5,-0.5 158.5,-30.5 299.5,-30.5 299.5,-0.5 158.5,-0.5"/>
<text text-anchor="start" x="166.5" y="-18.5" font-family="Helvetica,sans-Serif" font-size="10.00">AC_AttitudeControl</text>
<text text-anchor="middle" x="229" y="-7.5" font-family="Helvetica,sans-Serif" font-size="10.00">::get_accel_yaw_max_radss</text>
</a>
</g>
</g>
<!-- Node1&#45;&gt;Node20 -->
<g id="edge20" class="edge"><title>Node1&#45;&gt;Node20</title>
<path fill="none" stroke="midnightblue" d="M77.2748,-114.717C94.65,-93.1374 124.472,-59.757 157,-39.5 159.621,-37.8675 162.367,-36.3314 165.191,-34.8878"/>
<polygon fill="midnightblue" stroke="midnightblue" points="166.836,-37.9828 174.423,-30.5879 163.881,-31.6374 166.836,-37.9828"/>
</g>
<!-- Node3 -->
<g id="node3" class="node"><title>Node3</title>
<g id="a_node3"><a xlink:href="$AP__Math_8h.html#a2a12cce483e9b870da70d30406d82c60" xlink:title="is_zero">
<polygon fill="white" stroke="black" points="355.5,-310 355.5,-329 403.5,-329 403.5,-310 355.5,-310"/>
<text text-anchor="middle" x="379.5" y="-317" font-family="Helvetica,sans-Serif" font-size="10.00">is_zero</text>
</a>
</g>
</g>
<!-- Node2&#45;&gt;Node3 -->
<g id="edge2" class="edge"><title>Node2&#45;&gt;Node3</title>
<path fill="none" stroke="midnightblue" d="M269.405,-277.625C293.207,-286.761 323.188,-298.269 345.694,-306.908"/>
<polygon fill="midnightblue" stroke="midnightblue" points="344.56,-310.221 355.15,-310.537 347.068,-303.686 344.56,-310.221"/>
</g>
<!-- Node4 -->
<g id="node4" class="node"><title>Node4</title>
<g id="a_node4"><a xlink:href="$AP__Math_8h.html#a0375e3d67fd3911cacee5c3e1408c0f2" xlink:title="sq">
<polygon fill="white" stroke="black" points="365,-272 365,-291 394,-291 394,-272 365,-272"/>
<text text-anchor="middle" x="379.5" y="-279" font-family="Helvetica,sans-Serif" font-size="10.00">sq</text>
</a>
</g>
</g>
<!-- Node2&#45;&gt;Node4 -->
<g id="edge3" class="edge"><title>Node2&#45;&gt;Node4</title>
<path fill="none" stroke="midnightblue" d="M279.861,-268.88C305.171,-272.118 334.733,-275.9 354.848,-278.474"/>
<polygon fill="midnightblue" stroke="midnightblue" points="354.6,-281.97 364.963,-279.768 355.488,-275.027 354.6,-281.97"/>
</g>
<!-- Node5 -->
<g id="node5" class="node"><title>Node5</title>
<g id="a_node5"><a xlink:href="$AP__Math_8cpp.html#ac89eb1832d8e4d67fcf1ac07e3c25184" xlink:title="safe_sqrt">
<polygon fill="white" stroke="black" points="351,-234 351,-253 408,-253 408,-234 351,-234"/>
<text text-anchor="middle" x="379.5" y="-241" font-family="Helvetica,sans-Serif" font-size="10.00">safe_sqrt</text>
</a>
</g>
</g>
<!-- Node2&#45;&gt;Node5 -->
<g id="edge4" class="edge"><title>Node2&#45;&gt;Node5</title>
<path fill="none" stroke="midnightblue" d="M279.861,-256.12C299.676,-253.585 322.096,-250.717 340.55,-248.356"/>
<polygon fill="midnightblue" stroke="midnightblue" points="341.153,-251.807 350.628,-247.066 340.265,-244.864 341.153,-251.807"/>
</g>
<!-- Node6 -->
<g id="node6" class="node"><title>Node6</title>
<g id="a_node6"><a xlink:href="$AP__Math_8cpp.html#aa5cb9421d48def32eb7574adb1b152b0" xlink:title="safe_sqrt\&lt; int \&gt;">
<polygon fill="white" stroke="black" points="480.5,-310 480.5,-329 566.5,-329 566.5,-310 480.5,-310"/>
<text text-anchor="middle" x="523.5" y="-317" font-family="Helvetica,sans-Serif" font-size="10.00">safe_sqrt&lt; int &gt;</text>
</a>
</g>
</g>
<!-- Node5&#45;&gt;Node6 -->
<g id="edge5" class="edge"><title>Node5&#45;&gt;Node6</title>
<path fill="none" stroke="midnightblue" d="M405.498,-253.068C411.156,-255.736 416.973,-258.904 422,-262.5 440.922,-276.034 438.16,-288.351 458,-300.5 461.914,-302.897 466.147,-305.005 470.508,-306.858"/>
<polygon fill="midnightblue" stroke="midnightblue" points="469.596,-310.255 480.188,-310.516 472.071,-303.707 469.596,-310.255"/>
</g>
<!-- Node7 -->
<g id="node7" class="node"><title>Node7</title>
<g id="a_node7"><a xlink:href="$AP__Math_8cpp.html#a6952300e3d03222491051d674312b67d" xlink:title="safe_sqrt\&lt; short \&gt;">
<polygon fill="white" stroke="black" points="475,-272 475,-291 572,-291 572,-272 475,-272"/>
<text text-anchor="middle" x="523.5" y="-279" font-family="Helvetica,sans-Serif" font-size="10.00">safe_sqrt&lt; short &gt;</text>
</a>
</g>
</g>
<!-- Node5&#45;&gt;Node7 -->
<g id="edge6" class="edge"><title>Node5&#45;&gt;Node7</title>
<path fill="none" stroke="midnightblue" d="M408.216,-250.917C427.762,-256.147 454.384,-263.272 477.017,-269.328"/>
<polygon fill="midnightblue" stroke="midnightblue" points="476.201,-272.733 486.766,-271.937 478.011,-265.971 476.201,-272.733"/>
</g>
<!-- Node8 -->
<g id="node8" class="node"><title>Node8</title>
<g id="a_node8"><a xlink:href="$AP__Math_8cpp.html#a40ae6cfccff676d9d2ff57e2e9ca549c" xlink:title="safe_sqrt\&lt; float \&gt;">
<polygon fill="white" stroke="black" points="476.5,-234 476.5,-253 570.5,-253 570.5,-234 476.5,-234"/>
<text text-anchor="middle" x="523.5" y="-241" font-family="Helvetica,sans-Serif" font-size="10.00">safe_sqrt&lt; float &gt;</text>
</a>
</g>
</g>
<!-- Node5&#45;&gt;Node8 -->
<g id="edge7" class="edge"><title>Node5&#45;&gt;Node8</title>
<path fill="none" stroke="midnightblue" d="M408.216,-243.5C424.712,-243.5 446.248,-243.5 466.172,-243.5"/>
<polygon fill="midnightblue" stroke="midnightblue" points="466.409,-247 476.409,-243.5 466.409,-240 466.409,-247"/>
</g>
<!-- Node9 -->
<g id="node9" class="node"><title>Node9</title>
<g id="a_node9"><a xlink:href="$AP__Math_8cpp.html#acf6795fb73b8b915b53126f71cd2712a" xlink:title="safe_sqrt\&lt; double \&gt;">
<polygon fill="white" stroke="black" points="471.5,-196 471.5,-215 575.5,-215 575.5,-196 471.5,-196"/>
<text text-anchor="middle" x="523.5" y="-203" font-family="Helvetica,sans-Serif" font-size="10.00">safe_sqrt&lt; double &gt;</text>
</a>
</g>
</g>
<!-- Node5&#45;&gt;Node9 -->
<g id="edge8" class="edge"><title>Node5&#45;&gt;Node9</title>
<path fill="none" stroke="midnightblue" d="M408.216,-236.083C427.762,-230.853 454.384,-223.728 477.017,-217.672"/>
<polygon fill="midnightblue" stroke="midnightblue" points="478.011,-221.029 486.766,-215.063 476.201,-214.267 478.011,-221.029"/>
</g>
<!-- Node12 -->
<g id="node12" class="node"><title>Node12</title>
<g id="a_node12"><a xlink:href="$AP__Math_8h.html#a20e8f8671c282c69c1954652b6d61585" xlink:title="constrain_value">
<polygon fill="white" stroke="black" points="337,-120 337,-139 422,-139 422,-120 337,-120"/>
<text text-anchor="middle" x="379.5" y="-127" font-family="Helvetica,sans-Serif" font-size="10.00">constrain_value</text>
</a>
</g>
</g>
<!-- Node11&#45;&gt;Node12 -->
<g id="edge11" class="edge"><title>Node11&#45;&gt;Node12</title>
<path fill="none" stroke="midnightblue" d="M269.017,-150.143C286.717,-146.806 307.896,-142.813 326.889,-139.231"/>
<polygon fill="midnightblue" stroke="midnightblue" points="327.706,-142.639 336.885,-137.347 326.409,-135.76 327.706,-142.639"/>
</g>
<!-- Node13 -->
<g id="node13" class="node"><title>Node13</title>
<g id="a_node13"><a xlink:href="$AP__Math_8cpp.html#a37e8e901754cb9c8e53a8e3030c82c50" xlink:title="constrain_value\&lt; int \&gt;">
<polygon fill="white" stroke="black" points="467,-158 467,-177 580,-177 580,-158 467,-158"/>
<text text-anchor="middle" x="523.5" y="-165" font-family="Helvetica,sans-Serif" font-size="10.00">constrain_value&lt; int &gt;</text>
</a>
</g>
</g>
<!-- Node12&#45;&gt;Node13 -->
<g id="edge12" class="edge"><title>Node12&#45;&gt;Node13</title>
<path fill="none" stroke="midnightblue" d="M416.333,-139.089C434.663,-143.994 457.178,-150.02 476.75,-155.257"/>
<polygon fill="midnightblue" stroke="midnightblue" points="476.114,-158.71 486.679,-157.914 477.924,-151.948 476.114,-158.71"/>
</g>
<!-- Node14 -->
<g id="node14" class="node"><title>Node14</title>
<g id="a_node14"><a xlink:href="$AP__Math_8cpp.html#afdbe107ec1987d318a6347816fbf2b89" xlink:title="constrain_value\&lt; short \&gt;">
<polygon fill="white" stroke="black" points="461,-120 461,-139 586,-139 586,-120 461,-120"/>
<text text-anchor="middle" x="523.5" y="-127" font-family="Helvetica,sans-Serif" font-size="10.00">constrain_value&lt; short &gt;</text>
</a>
</g>
</g>
<!-- Node12&#45;&gt;Node14 -->
<g id="edge13" class="edge"><title>Node12&#45;&gt;Node14</title>
<path fill="none" stroke="midnightblue" d="M422.337,-129.5C431.323,-129.5 441.064,-129.5 450.821,-129.5"/>
<polygon fill="midnightblue" stroke="midnightblue" points="450.965,-133 460.965,-129.5 450.965,-126 450.965,-133"/>
</g>
<!-- Node15 -->
<g id="node15" class="node"><title>Node15</title>
<g id="a_node15"><a xlink:href="$AP__Math_8cpp.html#ae6c621670c214da687de21d4e3a92587" xlink:title="constrain_value\&lt; float \&gt;">
<polygon fill="white" stroke="black" points="462.5,-82 462.5,-101 584.5,-101 584.5,-82 462.5,-82"/>
<text text-anchor="middle" x="523.5" y="-89" font-family="Helvetica,sans-Serif" font-size="10.00">constrain_value&lt; float &gt;</text>
</a>
</g>
</g>
<!-- Node12&#45;&gt;Node15 -->
<g id="edge14" class="edge"><title>Node12&#45;&gt;Node15</title>
<path fill="none" stroke="midnightblue" d="M416.333,-119.911C434.663,-115.006 457.178,-108.98 476.75,-103.743"/>
<polygon fill="midnightblue" stroke="midnightblue" points="477.924,-107.052 486.679,-101.086 476.114,-100.29 477.924,-107.052"/>
</g>
<!-- Node16 -->
<g id="node16" class="node"><title>Node16</title>
<g id="a_node16"><a xlink:href="$AP__Math_8cpp.html#afe3990b00e9abc43fa97dfaf8e32f5c4" xlink:title="constrain_value\&lt; double \&gt;">
<polygon fill="white" stroke="black" points="458,-44 458,-63 589,-63 589,-44 458,-44"/>
<text text-anchor="middle" x="523.5" y="-51" font-family="Helvetica,sans-Serif" font-size="10.00">constrain_value&lt; double &gt;</text>
</a>
</g>
</g>
<!-- Node12&#45;&gt;Node16 -->
<g id="edge15" class="edge"><title>Node12&#45;&gt;Node16</title>
<path fill="none" stroke="midnightblue" d="M391.246,-119.676C405.517,-107.103 431.963,-85.4099 458,-72.5 462.589,-70.2248 467.499,-68.1713 472.486,-66.3305"/>
<polygon fill="midnightblue" stroke="midnightblue" points="473.771,-69.5902 482.107,-63.0501 471.512,-62.9648 473.771,-69.5902"/>
</g>
<!-- Node18 -->
<g id="node18" class="node"><title>Node18</title>
<g id="a_node18"><a xlink:href="$AP__Math_8h.html#a75b14352ec1c95a8276af9a0813cfdc3" xlink:title="radians">
<polygon fill="white" stroke="black" points="355.5,-55 355.5,-74 403.5,-74 403.5,-55 355.5,-55"/>
<text text-anchor="middle" x="379.5" y="-62" font-family="Helvetica,sans-Serif" font-size="10.00">radians</text>
</a>
</g>
</g>
<!-- Node17&#45;&gt;Node18 -->
<g id="edge17" class="edge"><title>Node17&#45;&gt;Node18</title>
<path fill="none" stroke="midnightblue" d="M275.767,-98.3986C298.47,-90.9073 325.361,-82.0342 345.935,-75.2454"/>
<polygon fill="midnightblue" stroke="midnightblue" points="347.082,-78.5526 355.481,-72.0954 344.888,-71.9052 347.082,-78.5526"/>
</g>
<!-- Node19&#45;&gt;Node18 -->
<g id="edge19" class="edge"><title>Node19&#45;&gt;Node18</title>
<path fill="none" stroke="midnightblue" d="M301.205,-64.5C316.558,-64.5 332.084,-64.5 345.153,-64.5"/>
<polygon fill="midnightblue" stroke="midnightblue" points="345.495,-68.0001 355.495,-64.5 345.495,-61.0001 345.495,-68.0001"/>
</g>
<!-- Node20&#45;&gt;Node18 -->
<g id="edge21" class="edge"><title>Node20&#45;&gt;Node18</title>
<path fill="none" stroke="midnightblue" d="M275.767,-30.6014C298.47,-38.0927 325.361,-46.9658 345.935,-53.7546"/>
<polygon fill="midnightblue" stroke="midnightblue" points="344.888,-57.0948 355.481,-56.9046 347.082,-50.4474 344.888,-57.0948"/>
</g>
</g>
</svg>
