<?xml version="1.0" encoding="UTF-8" standalone="no"?>
<!DOCTYPE svg PUBLIC "-//W3C//DTD SVG 1.1//EN"
 "http://www.w3.org/Graphics/SVG/1.1/DTD/svg11.dtd">
<!-- Generated by graphviz version 2.38.0 (20140413.2041)
 -->
<!-- Title: AC_PosControl::check_for_ekf_z_reset Pages: 1 -->
<svg width="514pt" height="115pt"
 viewBox="0.00 0.00 514.00 114.50" xmlns="http://www.w3.org/2000/svg" xmlns:xlink="http://www.w3.org/1999/xlink">
<g id="graph0" class="graph" transform="scale(1 1) rotate(0) translate(4 110.5)">
<title>AC_PosControl::check_for_ekf_z_reset</title>
<polygon fill="white" stroke="none" points="-4,4 -4,-110.5 510,-110.5 510,4 -4,4"/>
<!-- Node1 -->
<g id="node1" class="node"><title>Node1</title>
<polygon fill="#bfbfbf" stroke="black" points="0,-51 0,-81 117,-81 117,-51 0,-51"/>
<text text-anchor="start" x="8" y="-69" font-family="Helvetica,sans-Serif" font-size="10.00">AC_PosControl::check</text>
<text text-anchor="middle" x="58.5" y="-58" font-family="Helvetica,sans-Serif" font-size="10.00">_for_ekf_z_reset</text>
</g>
<!-- Node2 -->
<g id="node2" class="node"><title>Node2</title>
<g id="a_node2"><a xlink:href="$classAP__AHRS__View.html#a26c40a71ff04297ec75f7fbcf0cc89ad" xlink:title="AP_AHRS_View::getLastPos\lDownReset">
<polygon fill="white" stroke="black" points="153,-76 153,-106 299,-106 299,-76 153,-76"/>
<text text-anchor="start" x="161" y="-94" font-family="Helvetica,sans-Serif" font-size="10.00">AP_AHRS_View::getLastPos</text>
<text text-anchor="middle" x="226" y="-83" font-family="Helvetica,sans-Serif" font-size="10.00">DownReset</text>
</a>
</g>
</g>
<!-- Node1&#45;&gt;Node2 -->
<g id="edge1" class="edge"><title>Node1&#45;&gt;Node2</title>
<path fill="none" stroke="midnightblue" d="M117.384,-74.7438C125.625,-75.9886 134.228,-77.2882 142.823,-78.5866"/>
<polygon fill="midnightblue" stroke="midnightblue" points="142.476,-82.0738 152.887,-80.1068 143.522,-75.1523 142.476,-82.0738"/>
</g>
<!-- Node4 -->
<g id="node4" class="node"><title>Node4</title>
<g id="a_node4"><a xlink:href="$classAC__PosControl.html#add9f8e5a5f3e35c0e99ddc3af4d9090b" xlink:title="shift altitude target (positive means move altitude up) ">
<polygon fill="white" stroke="black" points="171,-27 171,-57 281,-57 281,-27 171,-27"/>
<text text-anchor="start" x="179" y="-45" font-family="Helvetica,sans-Serif" font-size="10.00">AC_PosControl::shift</text>
<text text-anchor="middle" x="226" y="-34" font-family="Helvetica,sans-Serif" font-size="10.00">_alt_target</text>
</a>
</g>
</g>
<!-- Node1&#45;&gt;Node4 -->
<g id="edge3" class="edge"><title>Node1&#45;&gt;Node4</title>
<path fill="none" stroke="midnightblue" d="M117.384,-57.606C131.335,-55.5828 146.326,-53.4089 160.557,-51.3452"/>
<polygon fill="midnightblue" stroke="midnightblue" points="161.365,-54.7648 170.759,-49.8658 160.36,-47.8372 161.365,-54.7648"/>
</g>
<!-- Node3 -->
<g id="node3" class="node"><title>Node3</title>
<g id="a_node3"><a xlink:href="$classAP__AHRS.html#a943d914cf96c8e823f73249758e39209" xlink:title="AP_AHRS::getLastPosDownReset">
<polygon fill="white" stroke="black" points="335,-81.5 335,-100.5 506,-100.5 506,-81.5 335,-81.5"/>
<text text-anchor="middle" x="420.5" y="-88.5" font-family="Helvetica,sans-Serif" font-size="10.00">AP_AHRS::getLastPosDownReset</text>
</a>
</g>
</g>
<!-- Node2&#45;&gt;Node3 -->
<g id="edge2" class="edge"><title>Node2&#45;&gt;Node3</title>
<path fill="none" stroke="midnightblue" d="M299.228,-91C307.586,-91 316.202,-91 324.802,-91"/>
<polygon fill="midnightblue" stroke="midnightblue" points="324.873,-94.5001 334.873,-91 324.873,-87.5001 324.873,-94.5001"/>
</g>
<!-- Node5 -->
<g id="node5" class="node"><title>Node5</title>
<g id="a_node5"><a xlink:href="$AP__Math_8h.html#a2a12cce483e9b870da70d30406d82c60" xlink:title="is_zero">
<polygon fill="white" stroke="black" points="396.5,-38.5 396.5,-57.5 444.5,-57.5 444.5,-38.5 396.5,-38.5"/>
<text text-anchor="middle" x="420.5" y="-45.5" font-family="Helvetica,sans-Serif" font-size="10.00">is_zero</text>
</a>
</g>
</g>
<!-- Node4&#45;&gt;Node5 -->
<g id="edge4" class="edge"><title>Node4&#45;&gt;Node5</title>
<path fill="none" stroke="midnightblue" d="M281.134,-43.6873C314.858,-44.7384 357.174,-46.0574 386.073,-46.9581"/>
<polygon fill="midnightblue" stroke="midnightblue" points="386.342,-50.4681 396.446,-47.2814 386.56,-43.4715 386.342,-50.4681"/>
</g>
<!-- Node6 -->
<g id="node6" class="node"><title>Node6</title>
<g id="a_node6"><a xlink:href="$classAC__PosControl.html#aa979d20c99f08a96d0f482c1dad50f78" xlink:title="freeze_ff_z &#45; used to stop the feed forward being calculated during a known discontinuity ...">
<polygon fill="white" stroke="black" points="350.5,-0.5 350.5,-19.5 490.5,-19.5 490.5,-0.5 350.5,-0.5"/>
<text text-anchor="middle" x="420.5" y="-7.5" font-family="Helvetica,sans-Serif" font-size="10.00">AC_PosControl::freeze_ff_z</text>
</a>
</g>
</g>
<!-- Node4&#45;&gt;Node6 -->
<g id="edge5" class="edge"><title>Node4&#45;&gt;Node6</title>
<path fill="none" stroke="midnightblue" d="M281.134,-33.0011C303.124,-29.3457 328.766,-25.083 351.96,-21.2274"/>
<polygon fill="midnightblue" stroke="midnightblue" points="352.786,-24.6382 362.077,-19.5457 351.638,-17.733 352.786,-24.6382"/>
</g>
</g>
</svg>
