<?xml version="1.0" encoding="UTF-8" standalone="no"?>
<!DOCTYPE svg PUBLIC "-//W3C//DTD SVG 1.1//EN"
 "http://www.w3.org/Graphics/SVG/1.1/DTD/svg11.dtd">
<!-- Generated by graphviz version 2.38.0 (20140413.2041)
 -->
<!-- Title: AC_AttitudeControl_Sub::is_throttle_mix_min Pages: 1 -->
<svg width="1007pt" height="773pt"
 viewBox="0.00 0.00 1007.00 773.00" xmlns="http://www.w3.org/2000/svg" xmlns:xlink="http://www.w3.org/1999/xlink">
<g id="graph0" class="graph" transform="scale(1 1) rotate(0) translate(4 769)">
<title>AC_AttitudeControl_Sub::is_throttle_mix_min</title>
<polygon fill="white" stroke="none" points="-4,4 -4,-769 1003,-769 1003,4 -4,4"/>
<!-- Node1 -->
<g id="node1" class="node"><title>Node1</title>
<polygon fill="#bfbfbf" stroke="black" points="0,-260 0,-290 130,-290 130,-260 0,-260"/>
<text text-anchor="start" x="8" y="-278" font-family="Helvetica,sans-Serif" font-size="10.00">AC_AttitudeControl</text>
<text text-anchor="middle" x="65" y="-267" font-family="Helvetica,sans-Serif" font-size="10.00">_Sub::is_throttle_mix_min</text>
</g>
<!-- Node2 -->
<g id="node2" class="node"><title>Node2</title>
<g id="a_node2"><a xlink:href="$classAC__AttitudeControl__Sub.html#a448de11eb6f1caa81c9195c8e958ca37" xlink:title="AC_AttitudeControl\l_Sub::rate_controller_run">
<polygon fill="white" stroke="black" points="179.5,-285 179.5,-315 304.5,-315 304.5,-285 179.5,-285"/>
<text text-anchor="start" x="187.5" y="-303" font-family="Helvetica,sans-Serif" font-size="10.00">AC_AttitudeControl</text>
<text text-anchor="middle" x="242" y="-292" font-family="Helvetica,sans-Serif" font-size="10.00">_Sub::rate_controller_run</text>
</a>
</g>
</g>
<!-- Node1&#45;&gt;Node2 -->
<g id="edge1" class="edge"><title>Node1&#45;&gt;Node2</title>
<path fill="none" stroke="midnightblue" d="M130.17,-284.167C142.87,-285.981 156.278,-287.897 169.212,-289.745"/>
<polygon fill="midnightblue" stroke="midnightblue" points="169.067,-293.259 179.461,-291.209 170.057,-286.33 169.067,-293.259"/>
</g>
<!-- Node42 -->
<g id="node42" class="node"><title>Node42</title>
<g id="a_node42"><a xlink:href="$classAC__AttitudeControl__Sub.html#a4d799fe691a22600f54a2ab0da338d33" xlink:title="AC_AttitudeControl\l_Sub::parameter_sanity_check">
<polygon fill="white" stroke="black" points="166,-236 166,-266 318,-266 318,-236 166,-236"/>
<text text-anchor="start" x="174" y="-254" font-family="Helvetica,sans-Serif" font-size="10.00">AC_AttitudeControl</text>
<text text-anchor="middle" x="242" y="-243" font-family="Helvetica,sans-Serif" font-size="10.00">_Sub::parameter_sanity_check</text>
</a>
</g>
</g>
<!-- Node1&#45;&gt;Node42 -->
<g id="edge62" class="edge"><title>Node1&#45;&gt;Node42</title>
<path fill="none" stroke="midnightblue" d="M130.17,-266.2C138.513,-265.055 147.162,-263.869 155.781,-262.687"/>
<polygon fill="midnightblue" stroke="midnightblue" points="156.434,-266.13 165.866,-261.304 155.483,-259.195 156.434,-266.13"/>
</g>
<!-- Node3 -->
<g id="node3" class="node"><title>Node3</title>
<g id="a_node3"><a xlink:href="$classAC__AttitudeControl__Sub.html#acfec4c0405a1f2125e974506d0104eb0" xlink:title="AC_AttitudeControl\l_Sub::update_throttle\l_rpy_mix">
<polygon fill="white" stroke="black" points="368.5,-677.5 368.5,-718.5 478.5,-718.5 478.5,-677.5 368.5,-677.5"/>
<text text-anchor="start" x="376.5" y="-706.5" font-family="Helvetica,sans-Serif" font-size="10.00">AC_AttitudeControl</text>
<text text-anchor="start" x="376.5" y="-695.5" font-family="Helvetica,sans-Serif" font-size="10.00">_Sub::update_throttle</text>
<text text-anchor="middle" x="423.5" y="-684.5" font-family="Helvetica,sans-Serif" font-size="10.00">_rpy_mix</text>
</a>
</g>
</g>
<!-- Node2&#45;&gt;Node3 -->
<g id="edge2" class="edge"><title>Node2&#45;&gt;Node3</title>
<path fill="none" stroke="midnightblue" d="M248.346,-315.254C263.309,-357.47 307.565,-479.13 354,-576 369.548,-608.436 390.029,-644.168 404.533,-668.53"/>
<polygon fill="midnightblue" stroke="midnightblue" points="401.634,-670.501 409.777,-677.28 407.639,-666.903 401.634,-670.501"/>
</g>
<!-- Node11 -->
<g id="node11" class="node"><title>Node11</title>
<g id="a_node11"><a xlink:href="$classAP__AHRS__View.html#aec99fce6a0287cfe2542ed2b7459d4d1" xlink:title="AP_AHRS_View::get_gyro\l_latest">
<polygon fill="white" stroke="black" points="356.5,-236 356.5,-266 490.5,-266 490.5,-236 356.5,-236"/>
<text text-anchor="start" x="364.5" y="-254" font-family="Helvetica,sans-Serif" font-size="10.00">AP_AHRS_View::get_gyro</text>
<text text-anchor="middle" x="423.5" y="-243" font-family="Helvetica,sans-Serif" font-size="10.00">_latest</text>
</a>
</g>
</g>
<!-- Node2&#45;&gt;Node11 -->
<g id="edge10" class="edge"><title>Node2&#45;&gt;Node11</title>
<path fill="none" stroke="midnightblue" d="M298.321,-284.899C317.091,-279.775 338.229,-274.004 357.672,-268.697"/>
<polygon fill="midnightblue" stroke="midnightblue" points="358.637,-272.062 367.362,-266.052 356.793,-265.309 358.637,-272.062"/>
</g>
<!-- Node19 -->
<g id="node19" class="node"><title>Node19</title>
<g id="a_node19"><a xlink:href="$classAP__Motors.html#a6d8205956720e8f6afb1d2c403f66b64" xlink:title="AP_Motors::set_roll">
<polygon fill="white" stroke="black" points="372,-197.5 372,-216.5 475,-216.5 475,-197.5 372,-197.5"/>
<text text-anchor="middle" x="423.5" y="-204.5" font-family="Helvetica,sans-Serif" font-size="10.00">AP_Motors::set_roll</text>
</a>
</g>
</g>
<!-- Node2&#45;&gt;Node19 -->
<g id="edge18" class="edge"><title>Node2&#45;&gt;Node19</title>
<path fill="none" stroke="midnightblue" d="M300.532,-284.988C306.709,-282.181 312.675,-278.878 318,-275 339.844,-259.091 331.756,-241.345 354,-226 356.881,-224.013 359.964,-222.232 363.17,-220.638"/>
<polygon fill="midnightblue" stroke="midnightblue" points="364.672,-223.801 372.46,-216.618 361.892,-217.377 364.672,-223.801"/>
</g>
<!-- Node20 -->
<g id="node20" class="node"><title>Node20</title>
<g id="a_node20"><a xlink:href="$classAC__AttitudeControl.html#a11b25e42766e40c97e90d9dc33164b3e" xlink:title="AC_AttitudeControl\l::rate_target_to_motor_roll">
<polygon fill="white" stroke="black" points="358,-488 358,-518 489,-518 489,-488 358,-488"/>
<text text-anchor="start" x="366" y="-506" font-family="Helvetica,sans-Serif" font-size="10.00">AC_AttitudeControl</text>
<text text-anchor="middle" x="423.5" y="-495" font-family="Helvetica,sans-Serif" font-size="10.00">::rate_target_to_motor_roll</text>
</a>
</g>
</g>
<!-- Node2&#45;&gt;Node20 -->
<g id="edge19" class="edge"><title>Node2&#45;&gt;Node20</title>
<path fill="none" stroke="midnightblue" d="M248.491,-315.239C261.504,-349.281 297.435,-432.111 354,-478 356.065,-479.675 358.251,-481.243 360.526,-482.711"/>
<polygon fill="midnightblue" stroke="midnightblue" points="359.241,-486.006 369.667,-487.889 362.691,-479.915 359.241,-486.006"/>
</g>
<!-- Node31 -->
<g id="node31" class="node"><title>Node31</title>
<g id="a_node31"><a xlink:href="$classAP__Motors.html#a81b4dce8b2b85b5e7042f7ccb6744afc" xlink:title="AP_Motors::set_pitch">
<polygon fill="white" stroke="black" points="368,-159.5 368,-178.5 479,-178.5 479,-159.5 368,-159.5"/>
<text text-anchor="middle" x="423.5" y="-166.5" font-family="Helvetica,sans-Serif" font-size="10.00">AP_Motors::set_pitch</text>
</a>
</g>
</g>
<!-- Node2&#45;&gt;Node31 -->
<g id="edge32" class="edge"><title>Node2&#45;&gt;Node31</title>
<path fill="none" stroke="midnightblue" d="M304.133,-284.836C309.161,-282.085 313.883,-278.836 318,-275 348.616,-246.473 322.665,-215.735 354,-188 355.765,-186.438 357.647,-185.004 359.62,-183.686"/>
<polygon fill="midnightblue" stroke="midnightblue" points="361.708,-186.531 368.764,-178.627 358.32,-180.406 361.708,-186.531"/>
</g>
<!-- Node32 -->
<g id="node32" class="node"><title>Node32</title>
<g id="a_node32"><a xlink:href="$classAC__AttitudeControl.html#af828fefadbe69fe4b05db836886ffca5" xlink:title="AC_AttitudeControl\l::rate_target_to_motor_pitch">
<polygon fill="white" stroke="black" points="354,-439 354,-469 493,-469 493,-439 354,-439"/>
<text text-anchor="start" x="362" y="-457" font-family="Helvetica,sans-Serif" font-size="10.00">AC_AttitudeControl</text>
<text text-anchor="middle" x="423.5" y="-446" font-family="Helvetica,sans-Serif" font-size="10.00">::rate_target_to_motor_pitch</text>
</a>
</g>
</g>
<!-- Node2&#45;&gt;Node32 -->
<g id="edge33" class="edge"><title>Node2&#45;&gt;Node32</title>
<path fill="none" stroke="midnightblue" d="M260.538,-315.047C292.441,-342.418 360.082,-400.449 397.056,-432.171"/>
<polygon fill="midnightblue" stroke="midnightblue" points="395.022,-435.037 404.891,-438.892 399.58,-429.725 395.022,-435.037"/>
</g>
<!-- Node34 -->
<g id="node34" class="node"><title>Node34</title>
<g id="a_node34"><a xlink:href="$classAP__Motors.html#aeffa3aa472e13049df93f68ea7c2994b" xlink:title="AP_Motors::set_yaw">
<polygon fill="white" stroke="black" points="369.5,-121.5 369.5,-140.5 477.5,-140.5 477.5,-121.5 369.5,-121.5"/>
<text text-anchor="middle" x="423.5" y="-128.5" font-family="Helvetica,sans-Serif" font-size="10.00">AP_Motors::set_yaw</text>
</a>
</g>
</g>
<!-- Node2&#45;&gt;Node34 -->
<g id="edge43" class="edge"><title>Node2&#45;&gt;Node34</title>
<path fill="none" stroke="midnightblue" d="M304.601,-285.31C309.532,-282.462 314.104,-279.061 318,-275 358.027,-233.283 312.919,-190.679 354,-150 355.918,-148.1 358.009,-146.387 360.228,-144.841"/>
<polygon fill="midnightblue" stroke="midnightblue" points="362.365,-147.653 369.336,-139.675 358.911,-141.565 362.365,-147.653"/>
</g>
<!-- Node35 -->
<g id="node35" class="node"><title>Node35</title>
<g id="a_node35"><a xlink:href="$classAC__AttitudeControl.html#aaa638b2161d9a8cddfa0750ab02fb378" xlink:title="AC_AttitudeControl\l::rate_target_to_motor_yaw">
<polygon fill="white" stroke="black" points="355.5,-537 355.5,-567 491.5,-567 491.5,-537 355.5,-537"/>
<text text-anchor="start" x="363.5" y="-555" font-family="Helvetica,sans-Serif" font-size="10.00">AC_AttitudeControl</text>
<text text-anchor="middle" x="423.5" y="-544" font-family="Helvetica,sans-Serif" font-size="10.00">::rate_target_to_motor_yaw</text>
</a>
</g>
</g>
<!-- Node2&#45;&gt;Node35 -->
<g id="edge44" class="edge"><title>Node2&#45;&gt;Node35</title>
<path fill="none" stroke="midnightblue" d="M246.226,-315.088C255.59,-355.323 286.512,-466.242 354,-527 355.893,-528.705 357.913,-530.296 360.026,-531.781"/>
<polygon fill="midnightblue" stroke="midnightblue" points="358.217,-534.777 368.577,-536.997 361.863,-528.801 358.217,-534.777"/>
</g>
<!-- Node38 -->
<g id="node38" class="node"><title>Node38</title>
<g id="a_node38"><a xlink:href="$classAC__AttitudeControl.html#a487553ac1448b6ba791d029c9cf18dac" xlink:title="AC_AttitudeControl\l::control_monitor_update">
<polygon fill="white" stroke="black" points="361.5,-285 361.5,-315 485.5,-315 485.5,-285 361.5,-285"/>
<text text-anchor="start" x="369.5" y="-303" font-family="Helvetica,sans-Serif" font-size="10.00">AC_AttitudeControl</text>
<text text-anchor="middle" x="423.5" y="-292" font-family="Helvetica,sans-Serif" font-size="10.00">::control_monitor_update</text>
</a>
</g>
</g>
<!-- Node2&#45;&gt;Node38 -->
<g id="edge55" class="edge"><title>Node2&#45;&gt;Node38</title>
<path fill="none" stroke="midnightblue" d="M304.523,-300C319.591,-300 335.842,-300 351.321,-300"/>
<polygon fill="midnightblue" stroke="midnightblue" points="351.362,-303.5 361.362,-300 351.362,-296.5 351.362,-303.5"/>
</g>
<!-- Node4 -->
<g id="node4" class="node"><title>Node4</title>
<g id="a_node4"><a xlink:href="$AP__Math_8h.html#a6b187a3fa1e9f663e89175e7e8e213d6" xlink:title="MIN">
<polygon fill="white" stroke="black" points="580.5,-726.5 580.5,-745.5 615.5,-745.5 615.5,-726.5 580.5,-726.5"/>
<text text-anchor="middle" x="598" y="-733.5" font-family="Helvetica,sans-Serif" font-size="10.00">MIN</text>
</a>
</g>
</g>
<!-- Node3&#45;&gt;Node4 -->
<g id="edge3" class="edge"><title>Node3&#45;&gt;Node4</title>
<path fill="none" stroke="midnightblue" d="M478.607,-709.919C509.075,-716.631 545.789,-724.719 570.173,-730.09"/>
<polygon fill="midnightblue" stroke="midnightblue" points="569.609,-733.55 580.127,-732.283 571.115,-726.714 569.609,-733.55"/>
</g>
<!-- Node5 -->
<g id="node5" class="node"><title>Node5</title>
<g id="a_node5"><a xlink:href="$AP__Math_8h.html#ad525609d9dba6ffa556a0fbf08a3f9b4" xlink:title="constrain_float">
<polygon fill="white" stroke="black" points="558,-688.5 558,-707.5 638,-707.5 638,-688.5 558,-688.5"/>
<text text-anchor="middle" x="598" y="-695.5" font-family="Helvetica,sans-Serif" font-size="10.00">constrain_float</text>
</a>
</g>
</g>
<!-- Node3&#45;&gt;Node5 -->
<g id="edge4" class="edge"><title>Node3&#45;&gt;Node5</title>
<path fill="none" stroke="midnightblue" d="M478.607,-698C500.684,-698 526.039,-698 547.608,-698"/>
<polygon fill="midnightblue" stroke="midnightblue" points="547.86,-701.5 557.86,-698 547.86,-694.5 547.86,-701.5"/>
</g>
<!-- Node6 -->
<g id="node6" class="node"><title>Node6</title>
<g id="a_node6"><a xlink:href="$AP__Math_8h.html#a20e8f8671c282c69c1954652b6d61585" xlink:title="constrain_value">
<polygon fill="white" stroke="black" points="725,-688.5 725,-707.5 810,-707.5 810,-688.5 725,-688.5"/>
<text text-anchor="middle" x="767.5" y="-695.5" font-family="Helvetica,sans-Serif" font-size="10.00">constrain_value</text>
</a>
</g>
</g>
<!-- Node5&#45;&gt;Node6 -->
<g id="edge5" class="edge"><title>Node5&#45;&gt;Node6</title>
<path fill="none" stroke="midnightblue" d="M638.271,-698C661.031,-698 689.964,-698 714.585,-698"/>
<polygon fill="midnightblue" stroke="midnightblue" points="714.842,-701.5 724.842,-698 714.842,-694.5 714.842,-701.5"/>
</g>
<!-- Node7 -->
<g id="node7" class="node"><title>Node7</title>
<g id="a_node7"><a xlink:href="$AP__Math_8cpp.html#a37e8e901754cb9c8e53a8e3030c82c50" xlink:title="constrain_value\&lt; int \&gt;">
<polygon fill="white" stroke="black" points="877,-669.5 877,-688.5 990,-688.5 990,-669.5 877,-669.5"/>
<text text-anchor="middle" x="933.5" y="-676.5" font-family="Helvetica,sans-Serif" font-size="10.00">constrain_value&lt; int &gt;</text>
</a>
</g>
</g>
<!-- Node6&#45;&gt;Node7 -->
<g id="edge6" class="edge"><title>Node6&#45;&gt;Node7</title>
<path fill="none" stroke="midnightblue" d="M810.308,-693.156C827.443,-691.171 847.688,-688.826 866.719,-686.621"/>
<polygon fill="midnightblue" stroke="midnightblue" points="867.306,-690.076 876.837,-685.449 866.5,-683.123 867.306,-690.076"/>
</g>
<!-- Node8 -->
<g id="node8" class="node"><title>Node8</title>
<g id="a_node8"><a xlink:href="$AP__Math_8cpp.html#afdbe107ec1987d318a6347816fbf2b89" xlink:title="constrain_value\&lt; short \&gt;">
<polygon fill="white" stroke="black" points="871,-631.5 871,-650.5 996,-650.5 996,-631.5 871,-631.5"/>
<text text-anchor="middle" x="933.5" y="-638.5" font-family="Helvetica,sans-Serif" font-size="10.00">constrain_value&lt; short &gt;</text>
</a>
</g>
</g>
<!-- Node6&#45;&gt;Node8 -->
<g id="edge7" class="edge"><title>Node6&#45;&gt;Node8</title>
<path fill="none" stroke="midnightblue" d="M792.034,-688.414C812.077,-680.395 841.721,-668.874 868,-660 874.539,-657.792 881.499,-655.59 888.335,-653.51"/>
<polygon fill="midnightblue" stroke="midnightblue" points="889.621,-656.779 898.2,-650.562 887.616,-650.072 889.621,-656.779"/>
</g>
<!-- Node9 -->
<g id="node9" class="node"><title>Node9</title>
<g id="a_node9"><a xlink:href="$AP__Math_8cpp.html#ae6c621670c214da687de21d4e3a92587" xlink:title="constrain_value\&lt; float \&gt;">
<polygon fill="white" stroke="black" points="872.5,-745.5 872.5,-764.5 994.5,-764.5 994.5,-745.5 872.5,-745.5"/>
<text text-anchor="middle" x="933.5" y="-752.5" font-family="Helvetica,sans-Serif" font-size="10.00">constrain_value&lt; float &gt;</text>
</a>
</g>
</g>
<!-- Node6&#45;&gt;Node9 -->
<g id="edge8" class="edge"><title>Node6&#45;&gt;Node9</title>
<path fill="none" stroke="midnightblue" d="M792.034,-707.586C812.077,-715.605 841.721,-727.126 868,-736 874.539,-738.208 881.499,-740.41 888.335,-742.49"/>
<polygon fill="midnightblue" stroke="midnightblue" points="887.616,-745.928 898.2,-745.438 889.621,-739.221 887.616,-745.928"/>
</g>
<!-- Node10 -->
<g id="node10" class="node"><title>Node10</title>
<g id="a_node10"><a xlink:href="$AP__Math_8cpp.html#afe3990b00e9abc43fa97dfaf8e32f5c4" xlink:title="constrain_value\&lt; double \&gt;">
<polygon fill="white" stroke="black" points="868,-707.5 868,-726.5 999,-726.5 999,-707.5 868,-707.5"/>
<text text-anchor="middle" x="933.5" y="-714.5" font-family="Helvetica,sans-Serif" font-size="10.00">constrain_value&lt; double &gt;</text>
</a>
</g>
</g>
<!-- Node6&#45;&gt;Node10 -->
<g id="edge9" class="edge"><title>Node6&#45;&gt;Node10</title>
<path fill="none" stroke="midnightblue" d="M810.308,-702.844C824.769,-704.519 841.445,-706.451 857.737,-708.338"/>
<polygon fill="midnightblue" stroke="midnightblue" points="857.472,-711.831 867.808,-709.505 858.277,-704.878 857.472,-711.831"/>
</g>
<!-- Node12 -->
<g id="node12" class="node"><title>Node12</title>
<g id="a_node12"><a xlink:href="$classAP__AHRS.html#a13ab26b0126885606c1d596072f8af04" xlink:title="AP_AHRS::get_gyro_latest">
<polygon fill="white" stroke="black" points="529.5,-72.5 529.5,-91.5 666.5,-91.5 666.5,-72.5 529.5,-72.5"/>
<text text-anchor="middle" x="598" y="-79.5" font-family="Helvetica,sans-Serif" font-size="10.00">AP_AHRS::get_gyro_latest</text>
</a>
</g>
</g>
<!-- Node11&#45;&gt;Node12 -->
<g id="edge11" class="edge"><title>Node11&#45;&gt;Node12</title>
<path fill="none" stroke="midnightblue" d="M480.471,-235.949C485.093,-233.173 489.373,-229.888 493,-226 532.435,-183.723 487.957,-141.718 529,-101 530.468,-99.5432 532.039,-98.1959 533.691,-96.9499"/>
<polygon fill="midnightblue" stroke="midnightblue" points="535.845,-99.735 542.545,-91.5278 532.189,-93.7655 535.845,-99.735"/>
</g>
<!-- Node18 -->
<g id="node18" class="node"><title>Node18</title>
<g id="a_node18"><a xlink:href="$classVector3.html#a53d5701ae2db9492944550927279b7b8" xlink:title="Vector3::rotate">
<polygon fill="white" stroke="black" points="557.5,-110.5 557.5,-129.5 638.5,-129.5 638.5,-110.5 557.5,-110.5"/>
<text text-anchor="middle" x="598" y="-117.5" font-family="Helvetica,sans-Serif" font-size="10.00">Vector3::rotate</text>
</a>
</g>
</g>
<!-- Node11&#45;&gt;Node18 -->
<g id="edge17" class="edge"><title>Node11&#45;&gt;Node18</title>
<path fill="none" stroke="midnightblue" d="M479.351,-235.892C484.316,-233.122 488.979,-229.854 493,-226 523.21,-197.044 497.691,-166.764 529,-139 534.299,-134.301 540.67,-130.755 547.36,-128.081"/>
<polygon fill="midnightblue" stroke="midnightblue" points="548.928,-131.247 557.3,-124.755 546.707,-124.609 548.928,-131.247"/>
</g>
<!-- Node13 -->
<g id="node13" class="node"><title>Node13</title>
<g id="a_node13"><a xlink:href="$classAP__AHRS.html#adf9f5cf9e3df1b4318252d07e2817993" xlink:title="AP_AHRS::get_primary\l_gyro_index">
<polygon fill="white" stroke="black" points="707,-127 707,-157 828,-157 828,-127 707,-127"/>
<text text-anchor="start" x="715" y="-145" font-family="Helvetica,sans-Serif" font-size="10.00">AP_AHRS::get_primary</text>
<text text-anchor="middle" x="767.5" y="-134" font-family="Helvetica,sans-Serif" font-size="10.00">_gyro_index</text>
</a>
</g>
</g>
<!-- Node12&#45;&gt;Node13 -->
<g id="edge12" class="edge"><title>Node12&#45;&gt;Node13</title>
<path fill="none" stroke="midnightblue" d="M637.075,-91.5848C646.913,-94.3479 657.427,-97.5559 667,-101 683.475,-106.927 686.85,-110.236 703,-117 707.795,-119.008 712.811,-121.062 717.832,-123.088"/>
<polygon fill="midnightblue" stroke="midnightblue" points="716.853,-126.466 727.438,-126.928 719.451,-119.966 716.853,-126.466"/>
</g>
<!-- Node15 -->
<g id="node15" class="node"><title>Node15</title>
<g id="a_node15"><a xlink:href="$classAP__AHRS.html#a14398c5d2ae68bbe1c67482a91909ad9" xlink:title="AP_AHRS::get_ins">
<polygon fill="white" stroke="black" points="717,-88.5 717,-107.5 818,-107.5 818,-88.5 717,-88.5"/>
<text text-anchor="middle" x="767.5" y="-95.5" font-family="Helvetica,sans-Serif" font-size="10.00">AP_AHRS::get_ins</text>
</a>
</g>
</g>
<!-- Node12&#45;&gt;Node15 -->
<g id="edge14" class="edge"><title>Node12&#45;&gt;Node15</title>
<path fill="none" stroke="midnightblue" d="M666.646,-88.4617C679.9,-89.7278 693.713,-91.0472 706.689,-92.2867"/>
<polygon fill="midnightblue" stroke="midnightblue" points="706.602,-95.7943 716.89,-93.2611 707.268,-88.826 706.602,-95.7943"/>
</g>
<!-- Node16 -->
<g id="node16" class="node"><title>Node16</title>
<g id="a_node16"><a xlink:href="$classAP__InertialSensor.html#a6df2d8ad956d4f375bdee541102f16af" xlink:title="AP_InertialSensor::\lget_gyro">
<polygon fill="white" stroke="black" points="717,-39 717,-69 818,-69 818,-39 717,-39"/>
<text text-anchor="start" x="725" y="-57" font-family="Helvetica,sans-Serif" font-size="10.00">AP_InertialSensor::</text>
<text text-anchor="middle" x="767.5" y="-46" font-family="Helvetica,sans-Serif" font-size="10.00">get_gyro</text>
</a>
</g>
</g>
<!-- Node12&#45;&gt;Node16 -->
<g id="edge15" class="edge"><title>Node12&#45;&gt;Node16</title>
<path fill="none" stroke="midnightblue" d="M656.176,-72.4423C672.5,-69.7134 690.327,-66.7333 706.799,-63.9799"/>
<polygon fill="midnightblue" stroke="midnightblue" points="707.568,-67.4 716.854,-62.2991 706.413,-60.4958 707.568,-67.4"/>
</g>
<!-- Node17 -->
<g id="node17" class="node"><title>Node17</title>
<g id="a_node17"><a xlink:href="$classAP__AHRS.html#a6876435645c1049077f33f225ab828f7" xlink:title="AP_AHRS::get_gyro_drift">
<polygon fill="white" stroke="black" points="703,-0.5 703,-19.5 832,-19.5 832,-0.5 703,-0.5"/>
<text text-anchor="middle" x="767.5" y="-7.5" font-family="Helvetica,sans-Serif" font-size="10.00">AP_AHRS::get_gyro_drift</text>
</a>
</g>
</g>
<!-- Node12&#45;&gt;Node17 -->
<g id="edge16" class="edge"><title>Node12&#45;&gt;Node17</title>
<path fill="none" stroke="midnightblue" d="M615.498,-72.4122C635.652,-60.9793 671.02,-41.8111 703,-29 708.611,-26.7521 714.594,-24.6267 720.558,-22.6682"/>
<polygon fill="midnightblue" stroke="midnightblue" points="722.022,-25.8768 730.511,-19.5375 719.922,-19.1994 722.022,-25.8768"/>
</g>
<!-- Node14 -->
<g id="node14" class="node"><title>Node14</title>
<g id="a_node14"><a xlink:href="$classAP__InertialSensor.html#a7fa04e2f196b27b876d86966f64e1fed" xlink:title="AP_InertialSensor::\lget_primary_gyro">
<polygon fill="white" stroke="black" points="883,-127 883,-157 984,-157 984,-127 883,-127"/>
<text text-anchor="start" x="891" y="-145" font-family="Helvetica,sans-Serif" font-size="10.00">AP_InertialSensor::</text>
<text text-anchor="middle" x="933.5" y="-134" font-family="Helvetica,sans-Serif" font-size="10.00">get_primary_gyro</text>
</a>
</g>
</g>
<!-- Node13&#45;&gt;Node14 -->
<g id="edge13" class="edge"><title>Node13&#45;&gt;Node14</title>
<path fill="none" stroke="midnightblue" d="M828.172,-142C842.616,-142 858.062,-142 872.521,-142"/>
<polygon fill="midnightblue" stroke="midnightblue" points="872.846,-145.5 882.846,-142 872.846,-138.5 872.846,-145.5"/>
</g>
<!-- Node20&#45;&gt;Node5 -->
<g id="edge31" class="edge"><title>Node20&#45;&gt;Node5</title>
<path fill="none" stroke="midnightblue" d="M482.27,-518.035C486.231,-520.571 489.88,-523.536 493,-527 539.461,-578.586 480.899,-628.94 529,-679 534.255,-684.469 540.942,-688.404 548.062,-691.228"/>
<polygon fill="midnightblue" stroke="midnightblue" points="547.354,-694.677 557.946,-694.428 549.511,-688.018 547.354,-694.677"/>
</g>
<!-- Node21 -->
<g id="node21" class="node"><title>Node21</title>
<g id="a_node21"><a xlink:href="$classAC__AttitudeControl.html#ad300b51e0777495496adddd1770ee920" xlink:title="AC_AttitudeControl\l::get_rate_roll_pid">
<polygon fill="white" stroke="black" points="547.5,-285 547.5,-315 648.5,-315 648.5,-285 547.5,-285"/>
<text text-anchor="start" x="555.5" y="-303" font-family="Helvetica,sans-Serif" font-size="10.00">AC_AttitudeControl</text>
<text text-anchor="middle" x="598" y="-292" font-family="Helvetica,sans-Serif" font-size="10.00">::get_rate_roll_pid</text>
</a>
</g>
</g>
<!-- Node20&#45;&gt;Node21 -->
<g id="edge20" class="edge"><title>Node20&#45;&gt;Node21</title>
<path fill="none" stroke="midnightblue" d="M481,-487.932C485.455,-485.161 489.554,-481.882 493,-478 539.375,-425.757 482.686,-377.298 529,-325 531.814,-321.822 535.069,-319.047 538.598,-316.625"/>
<polygon fill="midnightblue" stroke="midnightblue" points="540.371,-319.643 547.254,-311.588 536.85,-313.592 540.371,-319.643"/>
</g>
<!-- Node22 -->
<g id="node22" class="node"><title>Node22</title>
<g id="a_node22"><a xlink:href="$classAC__PID.html#a0217a1314e284babe6fe0d3e3cf92601" xlink:title="AC_PID::set_input_filter_d">
<polygon fill="white" stroke="black" points="531,-334.5 531,-353.5 665,-353.5 665,-334.5 531,-334.5"/>
<text text-anchor="middle" x="598" y="-341.5" font-family="Helvetica,sans-Serif" font-size="10.00">AC_PID::set_input_filter_d</text>
</a>
</g>
</g>
<!-- Node20&#45;&gt;Node22 -->
<g id="edge21" class="edge"><title>Node20&#45;&gt;Node22</title>
<path fill="none" stroke="midnightblue" d="M480.377,-487.861C485.018,-485.103 489.329,-481.846 493,-478 529.979,-439.258 490.549,-400.281 529,-363 530.485,-361.56 532.07,-360.228 533.735,-358.994"/>
<polygon fill="midnightblue" stroke="midnightblue" points="535.884,-361.785 542.636,-353.62 532.266,-355.793 535.884,-361.785"/>
</g>
<!-- Node25 -->
<g id="node25" class="node"><title>Node25</title>
<g id="a_node25"><a xlink:href="$classAC__PID.html#a3f727ab395b401474027b6b9efcab5a3" xlink:title="AC_PID::set_desired_rate">
<polygon fill="white" stroke="black" points="532.5,-460.5 532.5,-479.5 663.5,-479.5 663.5,-460.5 532.5,-460.5"/>
<text text-anchor="middle" x="598" y="-467.5" font-family="Helvetica,sans-Serif" font-size="10.00">AC_PID::set_desired_rate</text>
</a>
</g>
</g>
<!-- Node20&#45;&gt;Node25 -->
<g id="edge24" class="edge"><title>Node20&#45;&gt;Node25</title>
<path fill="none" stroke="midnightblue" d="M489.223,-490.618C504.986,-487.603 521.774,-484.391 537.292,-481.422"/>
<polygon fill="midnightblue" stroke="midnightblue" points="538.118,-484.828 547.282,-479.511 536.803,-477.953 538.118,-484.828"/>
</g>
<!-- Node26 -->
<g id="node26" class="node"><title>Node26</title>
<g id="a_node26"><a xlink:href="$classAC__PID.html#a0fc275cae5ff46799af85af551c65870" xlink:title="AC_PID::get_integrator">
<polygon fill="white" stroke="black" points="538.5,-422.5 538.5,-441.5 657.5,-441.5 657.5,-422.5 538.5,-422.5"/>
<text text-anchor="middle" x="598" y="-429.5" font-family="Helvetica,sans-Serif" font-size="10.00">AC_PID::get_integrator</text>
</a>
</g>
</g>
<!-- Node20&#45;&gt;Node26 -->
<g id="edge25" class="edge"><title>Node20&#45;&gt;Node26</title>
<path fill="none" stroke="midnightblue" d="M471.368,-487.988C478.768,-485.026 486.211,-481.68 493,-478 510.583,-468.469 511.061,-459.843 529,-451 533.69,-448.688 538.705,-446.619 543.806,-444.777"/>
<polygon fill="midnightblue" stroke="midnightblue" points="545.271,-447.978 553.661,-441.507 543.067,-441.334 545.271,-447.978"/>
</g>
<!-- Node27 -->
<g id="node27" class="node"><title>Node27</title>
<g id="a_node27"><a xlink:href="$classAC__PID.html#a2d5bf9811a78c93a396ec1e37ae6fa0a" xlink:title="AC_PID::get_i">
<polygon fill="white" stroke="black" points="558,-574.5 558,-593.5 638,-593.5 638,-574.5 558,-574.5"/>
<text text-anchor="middle" x="598" y="-581.5" font-family="Helvetica,sans-Serif" font-size="10.00">AC_PID::get_i</text>
</a>
</g>
</g>
<!-- Node20&#45;&gt;Node27 -->
<g id="edge26" class="edge"><title>Node20&#45;&gt;Node27</title>
<path fill="none" stroke="midnightblue" d="M476.266,-518.115C482.109,-520.693 487.817,-523.644 493,-527 512.527,-539.646 509.075,-552.99 529,-565 534.854,-568.529 541.385,-571.422 548.019,-573.788"/>
<polygon fill="midnightblue" stroke="midnightblue" points="547.156,-577.187 557.747,-576.892 549.284,-570.518 547.156,-577.187"/>
</g>
<!-- Node28 -->
<g id="node28" class="node"><title>Node28</title>
<g id="a_node28"><a xlink:href="$classAC__PID.html#a4808bb2656a1e8d94c713e58a7a2a222" xlink:title="AC_PID::get_p">
<polygon fill="white" stroke="black" points="556.5,-612.5 556.5,-631.5 639.5,-631.5 639.5,-612.5 556.5,-612.5"/>
<text text-anchor="middle" x="598" y="-619.5" font-family="Helvetica,sans-Serif" font-size="10.00">AC_PID::get_p</text>
</a>
</g>
</g>
<!-- Node20&#45;&gt;Node28 -->
<g id="edge28" class="edge"><title>Node20&#45;&gt;Node28</title>
<path fill="none" stroke="midnightblue" d="M480.165,-518.038C484.792,-520.58 489.159,-523.544 493,-527 520.784,-552 500.424,-578.909 529,-603 534.226,-607.406 540.402,-610.794 546.866,-613.398"/>
<polygon fill="midnightblue" stroke="midnightblue" points="545.871,-616.757 556.466,-616.681 548.136,-610.134 545.871,-616.757"/>
</g>
<!-- Node29 -->
<g id="node29" class="node"><title>Node29</title>
<g id="a_node29"><a xlink:href="$classAC__PID.html#ad0c0510049ea37401920792e843bec86" xlink:title="AC_PID::get_d">
<polygon fill="white" stroke="black" points="556.5,-536.5 556.5,-555.5 639.5,-555.5 639.5,-536.5 556.5,-536.5"/>
<text text-anchor="middle" x="598" y="-543.5" font-family="Helvetica,sans-Serif" font-size="10.00">AC_PID::get_d</text>
</a>
</g>
</g>
<!-- Node20&#45;&gt;Node29 -->
<g id="edge29" class="edge"><title>Node20&#45;&gt;Node29</title>
<path fill="none" stroke="midnightblue" d="M484.832,-518.039C505.86,-523.281 529.154,-529.088 549.04,-534.045"/>
<polygon fill="midnightblue" stroke="midnightblue" points="548.251,-537.455 558.8,-536.478 549.944,-530.663 548.251,-537.455"/>
</g>
<!-- Node30 -->
<g id="node30" class="node"><title>Node30</title>
<g id="a_node30"><a xlink:href="$classAC__PID.html#af8b4c040c43a28fbe025de765f38e90d" xlink:title="AC_PID::get_ff">
<polygon fill="white" stroke="black" points="556,-498.5 556,-517.5 640,-517.5 640,-498.5 556,-498.5"/>
<text text-anchor="middle" x="598" y="-505.5" font-family="Helvetica,sans-Serif" font-size="10.00">AC_PID::get_ff</text>
</a>
</g>
</g>
<!-- Node20&#45;&gt;Node30 -->
<g id="edge30" class="edge"><title>Node20&#45;&gt;Node30</title>
<path fill="none" stroke="midnightblue" d="M489.223,-504.876C507.924,-505.418 528.067,-506.002 545.82,-506.517"/>
<polygon fill="midnightblue" stroke="midnightblue" points="545.871,-510.019 555.968,-506.811 546.073,-503.022 545.871,-510.019"/>
</g>
<!-- Node23 -->
<g id="node23" class="node"><title>Node23</title>
<g id="a_node23"><a xlink:href="$classAC__PID.html#ac12ffbd4fd053c6152d403b69e07b8e1" xlink:title="AC_PID::get_filt_alpha">
<polygon fill="white" stroke="black" points="709,-536.5 709,-555.5 826,-555.5 826,-536.5 709,-536.5"/>
<text text-anchor="middle" x="767.5" y="-543.5" font-family="Helvetica,sans-Serif" font-size="10.00">AC_PID::get_filt_alpha</text>
</a>
</g>
</g>
<!-- Node22&#45;&gt;Node23 -->
<g id="edge22" class="edge"><title>Node22&#45;&gt;Node23</title>
<path fill="none" stroke="midnightblue" d="M650.572,-353.545C656.47,-356.008 662.11,-359.105 667,-363 721.837,-406.68 750.681,-489.149 761.452,-526.61"/>
<polygon fill="midnightblue" stroke="midnightblue" points="758.093,-527.595 764.121,-536.307 764.842,-525.737 758.093,-527.595"/>
</g>
<!-- Node24 -->
<g id="node24" class="node"><title>Node24</title>
<g id="a_node24"><a xlink:href="$AP__Math_8h.html#a2a12cce483e9b870da70d30406d82c60" xlink:title="is_zero">
<polygon fill="white" stroke="black" points="909.5,-555.5 909.5,-574.5 957.5,-574.5 957.5,-555.5 909.5,-555.5"/>
<text text-anchor="middle" x="933.5" y="-562.5" font-family="Helvetica,sans-Serif" font-size="10.00">is_zero</text>
</a>
</g>
</g>
<!-- Node23&#45;&gt;Node24 -->
<g id="edge23" class="edge"><title>Node23&#45;&gt;Node24</title>
<path fill="none" stroke="midnightblue" d="M826.32,-552.699C850.777,-555.532 878.384,-558.73 899.318,-561.156"/>
<polygon fill="midnightblue" stroke="midnightblue" points="898.972,-564.639 909.309,-562.313 899.778,-557.686 898.972,-564.639"/>
</g>
<!-- Node27&#45;&gt;Node24 -->
<g id="edge27" class="edge"><title>Node27&#45;&gt;Node24</title>
<path fill="none" stroke="midnightblue" d="M638.237,-581.765C704.484,-577.99 837.332,-570.422 899.278,-566.893"/>
<polygon fill="midnightblue" stroke="midnightblue" points="899.506,-570.386 909.29,-566.322 899.108,-563.397 899.506,-570.386"/>
</g>
<!-- Node32&#45;&gt;Node5 -->
<g id="edge42" class="edge"><title>Node32&#45;&gt;Node5</title>
<path fill="none" stroke="midnightblue" d="M482.8,-469.058C486.59,-471.59 490.058,-474.547 493,-478 551.848,-547.09 467.954,-611.845 529,-679 534.102,-684.612 540.71,-688.621 547.798,-691.475"/>
<polygon fill="midnightblue" stroke="midnightblue" points="547.072,-694.919 557.665,-694.691 549.242,-688.264 547.072,-694.919"/>
</g>
<!-- Node32&#45;&gt;Node22 -->
<g id="edge35" class="edge"><title>Node32&#45;&gt;Node22</title>
<path fill="none" stroke="midnightblue" d="M437.818,-438.781C456.314,-418.57 491.731,-383.093 529,-363 533.228,-360.72 537.755,-358.694 542.391,-356.895"/>
<polygon fill="midnightblue" stroke="midnightblue" points="543.724,-360.137 551.997,-353.518 541.402,-353.533 543.724,-360.137"/>
</g>
<!-- Node32&#45;&gt;Node25 -->
<g id="edge36" class="edge"><title>Node32&#45;&gt;Node25</title>
<path fill="none" stroke="midnightblue" d="M493.172,-460.37C502.795,-461.262 512.723,-462.183 522.449,-463.085"/>
<polygon fill="midnightblue" stroke="midnightblue" points="522.209,-466.578 532.489,-464.016 522.855,-459.608 522.209,-466.578"/>
</g>
<!-- Node32&#45;&gt;Node26 -->
<g id="edge37" class="edge"><title>Node32&#45;&gt;Node26</title>
<path fill="none" stroke="midnightblue" d="M493.172,-445.242C504.726,-443.768 516.72,-442.239 528.276,-440.765"/>
<polygon fill="midnightblue" stroke="midnightblue" points="528.819,-444.224 538.296,-439.487 527.933,-437.28 528.819,-444.224"/>
</g>
<!-- Node32&#45;&gt;Node27 -->
<g id="edge38" class="edge"><title>Node32&#45;&gt;Node27</title>
<path fill="none" stroke="midnightblue" d="M480.686,-469.027C485.149,-471.568 489.339,-474.536 493,-478 523.397,-506.76 497.691,-537.236 529,-565 534.486,-569.864 541.12,-573.493 548.067,-576.198"/>
<polygon fill="midnightblue" stroke="midnightblue" points="547.062,-579.551 557.655,-579.342 549.243,-572.9 547.062,-579.551"/>
</g>
<!-- Node32&#45;&gt;Node28 -->
<g id="edge39" class="edge"><title>Node32&#45;&gt;Node28</title>
<path fill="none" stroke="midnightblue" d="M482.09,-469.201C486.09,-471.701 489.798,-474.611 493,-478 532.708,-520.021 487.957,-562.282 529,-603 533.97,-607.93 540.106,-611.606 546.641,-614.342"/>
<polygon fill="midnightblue" stroke="midnightblue" points="545.818,-617.761 556.412,-617.715 548.102,-611.144 545.818,-617.761"/>
</g>
<!-- Node32&#45;&gt;Node29 -->
<g id="edge40" class="edge"><title>Node32&#45;&gt;Node29</title>
<path fill="none" stroke="midnightblue" d="M478.105,-469.162C483.37,-471.698 488.442,-474.627 493,-478 514.722,-494.075 506.77,-511.634 529,-527 534.294,-530.659 540.276,-533.617 546.442,-536.006"/>
<polygon fill="midnightblue" stroke="midnightblue" points="545.615,-539.421 556.21,-539.313 547.86,-532.791 545.615,-539.421"/>
</g>
<!-- Node32&#45;&gt;Node30 -->
<g id="edge41" class="edge"><title>Node32&#45;&gt;Node30</title>
<path fill="none" stroke="midnightblue" d="M467.812,-469.054C486.556,-475.427 508.789,-482.796 529,-489 536.333,-491.251 544.144,-493.537 551.762,-495.706"/>
<polygon fill="midnightblue" stroke="midnightblue" points="551.033,-499.137 561.607,-498.477 552.93,-492.399 551.033,-499.137"/>
</g>
<!-- Node33 -->
<g id="node33" class="node"><title>Node33</title>
<g id="a_node33"><a xlink:href="$classAC__AttitudeControl.html#a9e10a37d28eeb3d6476ec087b3bac3df" xlink:title="AC_AttitudeControl\l::get_rate_pitch_pid">
<polygon fill="white" stroke="black" points="547,-236 547,-266 649,-266 649,-236 547,-236"/>
<text text-anchor="start" x="555" y="-254" font-family="Helvetica,sans-Serif" font-size="10.00">AC_AttitudeControl</text>
<text text-anchor="middle" x="598" y="-243" font-family="Helvetica,sans-Serif" font-size="10.00">::get_rate_pitch_pid</text>
</a>
</g>
</g>
<!-- Node32&#45;&gt;Node33 -->
<g id="edge34" class="edge"><title>Node32&#45;&gt;Node33</title>
<path fill="none" stroke="midnightblue" d="M432.623,-438.738C454.606,-397.639 514.578,-286.923 529,-275 531.736,-272.738 534.701,-270.682 537.81,-268.815"/>
<polygon fill="midnightblue" stroke="midnightblue" points="539.664,-271.794 546.882,-264.039 536.403,-265.6 539.664,-271.794"/>
</g>
<!-- Node35&#45;&gt;Node5 -->
<g id="edge54" class="edge"><title>Node35&#45;&gt;Node5</title>
<path fill="none" stroke="midnightblue" d="M432.692,-567.067C447.998,-593.775 483.543,-649.388 529,-679 534.797,-682.776 541.342,-685.811 548.025,-688.247"/>
<polygon fill="midnightblue" stroke="midnightblue" points="547.252,-691.675 557.843,-691.406 549.395,-685.011 547.252,-691.675"/>
</g>
<!-- Node35&#45;&gt;Node25 -->
<g id="edge48" class="edge"><title>Node35&#45;&gt;Node25</title>
<path fill="none" stroke="midnightblue" d="M474.47,-536.878C480.935,-534.035 487.286,-530.753 493,-527 512.445,-514.228 509.075,-501.01 529,-489 532.602,-486.829 536.46,-484.898 540.441,-483.183"/>
<polygon fill="midnightblue" stroke="midnightblue" points="541.806,-486.408 549.89,-479.559 539.299,-479.872 541.806,-486.408"/>
</g>
<!-- Node35&#45;&gt;Node26 -->
<g id="edge49" class="edge"><title>Node35&#45;&gt;Node26</title>
<path fill="none" stroke="midnightblue" d="M478.814,-536.867C483.943,-534.099 488.79,-530.838 493,-527 520.621,-501.821 500.424,-475.091 529,-451 531.009,-449.306 533.158,-447.763 535.411,-446.357"/>
<polygon fill="midnightblue" stroke="midnightblue" points="537.291,-449.323 544.527,-441.585 534.045,-443.121 537.291,-449.323"/>
</g>
<!-- Node35&#45;&gt;Node27 -->
<g id="edge50" class="edge"><title>Node35&#45;&gt;Node27</title>
<path fill="none" stroke="midnightblue" d="M491.687,-564.464C510.35,-567.926 530.266,-571.62 547.699,-574.854"/>
<polygon fill="midnightblue" stroke="midnightblue" points="547.177,-578.317 557.648,-576.7 548.454,-571.435 547.177,-578.317"/>
</g>
<!-- Node35&#45;&gt;Node28 -->
<g id="edge51" class="edge"><title>Node35&#45;&gt;Node28</title>
<path fill="none" stroke="midnightblue" d="M451.834,-567.043C472.571,-578.031 502.015,-592.743 529,-603 535.236,-605.37 541.893,-607.591 548.511,-609.62"/>
<polygon fill="midnightblue" stroke="midnightblue" points="547.545,-612.984 558.126,-612.448 549.52,-606.268 547.545,-612.984"/>
</g>
<!-- Node35&#45;&gt;Node29 -->
<g id="edge52" class="edge"><title>Node35&#45;&gt;Node29</title>
<path fill="none" stroke="midnightblue" d="M491.687,-549.663C509.784,-549.034 529.059,-548.363 546.106,-547.77"/>
<polygon fill="midnightblue" stroke="midnightblue" points="546.529,-551.258 556.401,-547.412 546.286,-544.262 546.529,-551.258"/>
</g>
<!-- Node35&#45;&gt;Node30 -->
<g id="edge53" class="edge"><title>Node35&#45;&gt;Node30</title>
<path fill="none" stroke="midnightblue" d="M483.382,-536.981C505.106,-531.44 529.414,-525.239 549.954,-520"/>
<polygon fill="midnightblue" stroke="midnightblue" points="550.882,-523.375 559.707,-517.512 549.152,-516.593 550.882,-523.375"/>
</g>
<!-- Node36 -->
<g id="node36" class="node"><title>Node36</title>
<g id="a_node36"><a xlink:href="$classAC__AttitudeControl.html#a9e430ac947e0924fdc83280a4ed552bf" xlink:title="AC_AttitudeControl\l::get_rate_yaw_pid">
<polygon fill="white" stroke="black" points="547.5,-373 547.5,-403 648.5,-403 648.5,-373 547.5,-373"/>
<text text-anchor="start" x="555.5" y="-391" font-family="Helvetica,sans-Serif" font-size="10.00">AC_AttitudeControl</text>
<text text-anchor="middle" x="598" y="-380" font-family="Helvetica,sans-Serif" font-size="10.00">::get_rate_yaw_pid</text>
</a>
</g>
</g>
<!-- Node35&#45;&gt;Node36 -->
<g id="edge45" class="edge"><title>Node35&#45;&gt;Node36</title>
<path fill="none" stroke="midnightblue" d="M480.367,-536.851C485.01,-534.096 489.324,-530.842 493,-527 529.734,-488.611 492.312,-451.433 529,-413 531.802,-410.064 534.978,-407.472 538.39,-405.182"/>
<polygon fill="midnightblue" stroke="midnightblue" points="540.337,-408.1 547.274,-400.092 536.857,-402.026 540.337,-408.1"/>
</g>
<!-- Node37 -->
<g id="node37" class="node"><title>Node37</title>
<g id="a_node37"><a xlink:href="$classAC__PID.html#ac267330f1299f011febcaaba47994af7" xlink:title="AC_PID::set_input_filter_all">
<polygon fill="white" stroke="black" points="529,-650.5 529,-669.5 667,-669.5 667,-650.5 529,-650.5"/>
<text text-anchor="middle" x="598" y="-657.5" font-family="Helvetica,sans-Serif" font-size="10.00">AC_PID::set_input_filter_all</text>
</a>
</g>
</g>
<!-- Node35&#45;&gt;Node37 -->
<g id="edge46" class="edge"><title>Node35&#45;&gt;Node37</title>
<path fill="none" stroke="midnightblue" d="M438.208,-567.209C456.869,-587.014 492.184,-621.411 529,-641 533.241,-643.256 537.776,-645.267 542.418,-647.054"/>
<polygon fill="midnightblue" stroke="midnightblue" points="541.436,-650.419 552.031,-650.417 543.748,-643.812 541.436,-650.419"/>
</g>
<!-- Node37&#45;&gt;Node23 -->
<g id="edge47" class="edge"><title>Node37&#45;&gt;Node23</title>
<path fill="none" stroke="midnightblue" d="M645.228,-650.398C652.762,-647.91 660.288,-644.819 667,-641 702.576,-620.755 735.113,-585.038 752.735,-563.639"/>
<polygon fill="midnightblue" stroke="midnightblue" points="755.593,-565.671 759.139,-555.688 750.141,-561.281 755.593,-565.671"/>
</g>
<!-- Node38&#45;&gt;Node21 -->
<g id="edge56" class="edge"><title>Node38&#45;&gt;Node21</title>
<path fill="none" stroke="midnightblue" d="M485.803,-300C502.483,-300 520.526,-300 537.126,-300"/>
<polygon fill="midnightblue" stroke="midnightblue" points="537.251,-303.5 547.251,-300 537.25,-296.5 537.251,-303.5"/>
</g>
<!-- Node38&#45;&gt;Node33 -->
<g id="edge60" class="edge"><title>Node38&#45;&gt;Node33</title>
<path fill="none" stroke="midnightblue" d="M477.663,-284.899C496.548,-279.534 517.927,-273.461 537.321,-267.952"/>
<polygon fill="midnightblue" stroke="midnightblue" points="538.295,-271.314 546.958,-265.215 536.383,-264.58 538.295,-271.314"/>
</g>
<!-- Node38&#45;&gt;Node36 -->
<g id="edge61" class="edge"><title>Node38&#45;&gt;Node36</title>
<path fill="none" stroke="midnightblue" d="M446.639,-315.047C467.332,-328.695 499.396,-348.794 529,-363 533.377,-365.1 537.979,-367.135 542.64,-369.077"/>
<polygon fill="midnightblue" stroke="midnightblue" points="541.65,-372.451 552.235,-372.924 544.255,-365.954 541.65,-372.451"/>
</g>
<!-- Node39 -->
<g id="node39" class="node"><title>Node39</title>
<g id="a_node39"><a xlink:href="$classAC__PID.html#aac49c9e75c7bea524fab440e27c6a0fa" xlink:title="AC_PID::get_pid_info">
<polygon fill="white" stroke="black" points="542,-148.5 542,-167.5 654,-167.5 654,-148.5 542,-148.5"/>
<text text-anchor="middle" x="598" y="-155.5" font-family="Helvetica,sans-Serif" font-size="10.00">AC_PID::get_pid_info</text>
</a>
</g>
</g>
<!-- Node38&#45;&gt;Node39 -->
<g id="edge57" class="edge"><title>Node38&#45;&gt;Node39</title>
<path fill="none" stroke="midnightblue" d="M479.849,-284.865C484.655,-282.104 489.147,-278.845 493,-275 525.845,-242.224 494.91,-208.48 529,-177 530.683,-175.446 532.482,-174.018 534.373,-172.705"/>
<polygon fill="midnightblue" stroke="midnightblue" points="536.232,-175.673 543.16,-167.658 532.746,-169.603 536.232,-175.673"/>
</g>
<!-- Node40 -->
<g id="node40" class="node"><title>Node40</title>
<g id="a_node40"><a xlink:href="$classAC__AttitudeControl.html#a9f960478035a8b88322dc90f32b60056" xlink:title="AC_AttitudeControl\l::control_monitor_filter_pid">
<polygon fill="white" stroke="black" points="532.5,-187 532.5,-217 663.5,-217 663.5,-187 532.5,-187"/>
<text text-anchor="start" x="540.5" y="-205" font-family="Helvetica,sans-Serif" font-size="10.00">AC_AttitudeControl</text>
<text text-anchor="middle" x="598" y="-194" font-family="Helvetica,sans-Serif" font-size="10.00">::control_monitor_filter_pid</text>
</a>
</g>
</g>
<!-- Node38&#45;&gt;Node40 -->
<g id="edge58" class="edge"><title>Node38&#45;&gt;Node40</title>
<path fill="none" stroke="midnightblue" d="M476.345,-284.867C482.238,-282.066 487.936,-278.798 493,-275 514.618,-258.785 507.296,-242.1 529,-226 530.879,-224.606 532.846,-223.288 534.878,-222.042"/>
<polygon fill="midnightblue" stroke="midnightblue" points="537.009,-224.868 544.135,-217.028 533.675,-218.713 537.009,-224.868"/>
</g>
<!-- Node41 -->
<g id="node41" class="node"><title>Node41</title>
<g id="a_node41"><a xlink:href="$AP__Math_8h.html#a0375e3d67fd3911cacee5c3e1408c0f2" xlink:title="sq">
<polygon fill="white" stroke="black" points="753,-192.5 753,-211.5 782,-211.5 782,-192.5 753,-192.5"/>
<text text-anchor="middle" x="767.5" y="-199.5" font-family="Helvetica,sans-Serif" font-size="10.00">sq</text>
</a>
</g>
</g>
<!-- Node40&#45;&gt;Node41 -->
<g id="edge59" class="edge"><title>Node40&#45;&gt;Node41</title>
<path fill="none" stroke="midnightblue" d="M663.76,-202C691.54,-202 722.263,-202 742.81,-202"/>
<polygon fill="midnightblue" stroke="midnightblue" points="742.826,-205.5 752.826,-202 742.826,-198.5 742.826,-205.5"/>
</g>
</g>
</svg>
