<?xml version="1.0" encoding="UTF-8" standalone="no"?>
<!DOCTYPE svg PUBLIC "-//W3C//DTD SVG 1.1//EN"
 "http://www.w3.org/Graphics/SVG/1.1/DTD/svg11.dtd">
<!-- Generated by graphviz version 2.38.0 (20140413.2041)
 -->
<!-- Title: AC_Fence::manual_recovery_start Pages: 1 -->
<svg width="2004pt" height="648pt"
 viewBox="0.00 0.00 2004.00 647.50" xmlns="http://www.w3.org/2000/svg" xmlns:xlink="http://www.w3.org/1999/xlink">
<g id="graph0" class="graph" transform="scale(1 1) rotate(0) translate(4 643.5)">
<title>AC_Fence::manual_recovery_start</title>
<polygon fill="white" stroke="none" points="-4,4 -4,-643.5 2000,-643.5 2000,4 -4,4"/>
<!-- Node1 -->
<g id="node1" class="node"><title>Node1</title>
<polygon fill="#bfbfbf" stroke="black" points="0,-453.5 0,-483.5 143,-483.5 143,-453.5 0,-453.5"/>
<text text-anchor="start" x="8" y="-471.5" font-family="Helvetica,sans-Serif" font-size="10.00">AC_Fence::manual_recovery</text>
<text text-anchor="middle" x="71.5" y="-460.5" font-family="Helvetica,sans-Serif" font-size="10.00">_start</text>
</g>
<!-- Node2 -->
<g id="node2" class="node"><title>Node2</title>
<g id="a_node2"><a xlink:href="$namespaceAP__HAL.html#a77dffbb18891996280308e21316ec186" xlink:title="AP_HAL::millis">
<polygon fill="white" stroke="black" points="179,-459 179,-478 262,-478 262,-459 179,-459"/>
<text text-anchor="middle" x="220.5" y="-466" font-family="Helvetica,sans-Serif" font-size="10.00">AP_HAL::millis</text>
</a>
</g>
</g>
<!-- Node1&#45;&gt;Node2 -->
<g id="edge1" class="edge"><title>Node1&#45;&gt;Node2</title>
<path fill="none" stroke="midnightblue" d="M143.416,-468.5C151.986,-468.5 160.602,-468.5 168.799,-468.5"/>
<polygon fill="midnightblue" stroke="midnightblue" points="168.921,-472 178.921,-468.5 168.921,-465 168.921,-472"/>
</g>
<!-- Node3 -->
<g id="node3" class="node"><title>Node3</title>
<g id="a_node3"><a xlink:href="$namespaceAP__HAL.html#a59336c5fceaf28a76d1df1581a87a25d" xlink:title="AP_HAL::millis64">
<polygon fill="white" stroke="black" points="298,-459 298,-478 392,-478 392,-459 298,-459"/>
<text text-anchor="middle" x="345" y="-466" font-family="Helvetica,sans-Serif" font-size="10.00">AP_HAL::millis64</text>
</a>
</g>
</g>
<!-- Node2&#45;&gt;Node3 -->
<g id="edge2" class="edge"><title>Node2&#45;&gt;Node3</title>
<path fill="none" stroke="midnightblue" d="M262.291,-468.5C270.495,-468.5 279.252,-468.5 287.873,-468.5"/>
<polygon fill="midnightblue" stroke="midnightblue" points="287.89,-472 297.89,-468.5 287.89,-465 287.89,-472"/>
</g>
<!-- Node4 -->
<g id="node4" class="node"><title>Node4</title>
<g id="a_node4"><a xlink:href="$classLinux_1_1Scheduler.html#a53ecaae0fdc72f85bd57c4b0cff93653" xlink:title="Linux::Scheduler::from">
<polygon fill="white" stroke="black" points="428,-337 428,-356 543,-356 543,-337 428,-337"/>
<text text-anchor="middle" x="485.5" y="-344" font-family="Helvetica,sans-Serif" font-size="10.00">Linux::Scheduler::from</text>
</a>
</g>
</g>
<!-- Node3&#45;&gt;Node4 -->
<g id="edge3" class="edge"><title>Node3&#45;&gt;Node4</title>
<path fill="none" stroke="midnightblue" d="M356.868,-458.927C380.432,-438.17 436.465,-388.813 465.825,-362.951"/>
<polygon fill="midnightblue" stroke="midnightblue" points="468.492,-365.265 473.683,-356.029 463.865,-360.012 468.492,-365.265"/>
</g>
<!-- Node32 -->
<g id="node32" class="node"><title>Node32</title>
<g id="a_node32"><a xlink:href="$classLinux_1_1Scheduler.html#a682b4c34f330f66db5ab4aa5d96e13f9" xlink:title="Linux::Scheduler::stopped\l_clock_usec">
<polygon fill="white" stroke="black" points="1248,-475.5 1248,-505.5 1378,-505.5 1378,-475.5 1248,-475.5"/>
<text text-anchor="start" x="1256" y="-493.5" font-family="Helvetica,sans-Serif" font-size="10.00">Linux::Scheduler::stopped</text>
<text text-anchor="middle" x="1313" y="-482.5" font-family="Helvetica,sans-Serif" font-size="10.00">_clock_usec</text>
</a>
</g>
</g>
<!-- Node3&#45;&gt;Node32 -->
<g id="edge58" class="edge"><title>Node3&#45;&gt;Node32</title>
<path fill="none" stroke="midnightblue" d="M358.771,-478.152C398.452,-507.148 524.024,-591.5 642,-591.5 642,-591.5 642,-591.5 983.5,-591.5 1093.09,-591.5 1214.53,-539.508 1274.4,-510.13"/>
<polygon fill="midnightblue" stroke="midnightblue" points="1276.07,-513.207 1283.46,-505.621 1272.95,-506.939 1276.07,-513.207"/>
</g>
<!-- Node5 -->
<g id="node5" class="node"><title>Node5</title>
<g id="a_node5"><a xlink:href="$classLinux_1_1Scheduler.html#a3d77c332e051c28c83fb07757e7100bd" xlink:title="Linux::Scheduler::init">
<polygon fill="white" stroke="black" points="589,-68 589,-87 697,-87 697,-68 589,-68"/>
<text text-anchor="middle" x="643" y="-75" font-family="Helvetica,sans-Serif" font-size="10.00">Linux::Scheduler::init</text>
</a>
</g>
</g>
<!-- Node4&#45;&gt;Node5 -->
<g id="edge4" class="edge"><title>Node4&#45;&gt;Node5</title>
<path fill="none" stroke="midnightblue" d="M487.092,-336.947C489.894,-300.136 504.998,-166.088 579,-96.5 580.691,-94.9103 582.509,-93.4533 584.426,-92.1179"/>
<polygon fill="midnightblue" stroke="midnightblue" points="586.414,-95.0126 593.354,-87.0075 582.937,-88.9373 586.414,-95.0126"/>
</g>
<!-- Node12 -->
<g id="node12" class="node"><title>Node12</title>
<g id="a_node12"><a xlink:href="$classLinux_1_1Scheduler.html#a02a34a123dfebaf360f7010745e1e646" xlink:title="Linux::Scheduler::register\l_timer_process">
<polygon fill="white" stroke="black" points="745,-62.5 745,-92.5 873,-92.5 873,-62.5 745,-62.5"/>
<text text-anchor="start" x="753" y="-80.5" font-family="Helvetica,sans-Serif" font-size="10.00">Linux::Scheduler::register</text>
<text text-anchor="middle" x="809" y="-69.5" font-family="Helvetica,sans-Serif" font-size="10.00">_timer_process</text>
</a>
</g>
</g>
<!-- Node4&#45;&gt;Node12 -->
<g id="edge29" class="edge"><title>Node4&#45;&gt;Node12</title>
<path fill="none" stroke="midnightblue" d="M485.998,-336.816C484.415,-294.824 484.373,-127.496 579,-58.5 633.547,-18.7278 716.04,-39.837 765.7,-58.7191"/>
<polygon fill="midnightblue" stroke="midnightblue" points="764.589,-62.0431 775.176,-62.4471 767.152,-55.529 764.589,-62.0431"/>
</g>
<!-- Node23 -->
<g id="node23" class="node"><title>Node23</title>
<g id="a_node23"><a xlink:href="$classLinux_1_1Scheduler.html#a14f3239ecbb9889823b20dc9de655c2f" xlink:title="Linux::Scheduler::delay">
<polygon fill="white" stroke="black" points="583.5,-620 583.5,-639 702.5,-639 702.5,-620 583.5,-620"/>
<text text-anchor="middle" x="643" y="-627" font-family="Helvetica,sans-Serif" font-size="10.00">Linux::Scheduler::delay</text>
</a>
</g>
</g>
<!-- Node4&#45;&gt;Node23 -->
<g id="edge23" class="edge"><title>Node4&#45;&gt;Node23</title>
<path fill="none" stroke="midnightblue" d="M489.124,-356.441C497.994,-388.878 529.117,-493.782 579,-567.5 590.894,-585.077 608.323,-601.757 621.836,-613.38"/>
<polygon fill="midnightblue" stroke="midnightblue" points="619.743,-616.192 629.659,-619.926 624.235,-610.824 619.743,-616.192"/>
</g>
<!-- Node25 -->
<g id="node25" class="node"><title>Node25</title>
<g id="a_node25"><a xlink:href="$classLinux_1_1Scheduler.html#a4cffd5bcba0175bf49c7aa75ff3bf09a" xlink:title="Linux::Scheduler::delay\l_microseconds">
<polygon fill="white" stroke="black" points="1253.5,-538.5 1253.5,-568.5 1372.5,-568.5 1372.5,-538.5 1253.5,-538.5"/>
<text text-anchor="start" x="1261.5" y="-556.5" font-family="Helvetica,sans-Serif" font-size="10.00">Linux::Scheduler::delay</text>
<text text-anchor="middle" x="1313" y="-545.5" font-family="Helvetica,sans-Serif" font-size="10.00">_microseconds</text>
</a>
</g>
</g>
<!-- Node4&#45;&gt;Node25 -->
<g id="edge26" class="edge"><title>Node4&#45;&gt;Node25</title>
<path fill="none" stroke="midnightblue" d="M487.885,-356.033C493.055,-387.79 514.372,-490.459 579,-534.5 663.395,-592.011 705.873,-553.5 808,-553.5 808,-553.5 808,-553.5 983.5,-553.5 1073.09,-553.5 1176.43,-553.5 1242.91,-553.5"/>
<polygon fill="midnightblue" stroke="midnightblue" points="1243.25,-557 1253.25,-553.5 1243.25,-550 1243.25,-557"/>
</g>
<!-- Node26 -->
<g id="node26" class="node"><title>Node26</title>
<g id="a_node26"><a xlink:href="$classLinux_1_1Scheduler.html#a5cb50b637d5fd3e5f9220bc23db0fb3f" xlink:title="Linux::Scheduler::register\l_delay_callback">
<polygon fill="white" stroke="black" points="579,-380.5 579,-410.5 707,-410.5 707,-380.5 579,-380.5"/>
<text text-anchor="start" x="587" y="-398.5" font-family="Helvetica,sans-Serif" font-size="10.00">Linux::Scheduler::register</text>
<text text-anchor="middle" x="643" y="-387.5" font-family="Helvetica,sans-Serif" font-size="10.00">_delay_callback</text>
</a>
</g>
</g>
<!-- Node4&#45;&gt;Node26 -->
<g id="edge28" class="edge"><title>Node4&#45;&gt;Node26</title>
<path fill="none" stroke="midnightblue" d="M516.851,-356.064C536.108,-362.132 561.638,-370.177 584.615,-377.417"/>
<polygon fill="midnightblue" stroke="midnightblue" points="583.691,-380.796 594.281,-380.463 585.795,-374.119 583.691,-380.796"/>
</g>
<!-- Node27 -->
<g id="node27" class="node"><title>Node27</title>
<g id="a_node27"><a xlink:href="$classLinux_1_1Scheduler.html#aa2be97cb8686d72cc322fb38f69a940c" xlink:title="Linux::Scheduler::register\l_io_process">
<polygon fill="white" stroke="black" points="745,-128.5 745,-158.5 873,-158.5 873,-128.5 745,-128.5"/>
<text text-anchor="start" x="753" y="-146.5" font-family="Helvetica,sans-Serif" font-size="10.00">Linux::Scheduler::register</text>
<text text-anchor="middle" x="809" y="-135.5" font-family="Helvetica,sans-Serif" font-size="10.00">_io_process</text>
</a>
</g>
</g>
<!-- Node4&#45;&gt;Node27 -->
<g id="edge30" class="edge"><title>Node4&#45;&gt;Node27</title>
<path fill="none" stroke="midnightblue" d="M488.894,-336.895C496.533,-308.405 523.168,-223.903 579,-184.5 603.631,-167.117 677.41,-156.065 734.639,-149.872"/>
<polygon fill="midnightblue" stroke="midnightblue" points="735.175,-153.335 744.754,-148.808 734.443,-146.373 735.175,-153.335"/>
</g>
<!-- Node28 -->
<g id="node28" class="node"><title>Node28</title>
<g id="a_node28"><a xlink:href="$classLinux_1_1Scheduler.html#abba967d02c28cb0b16a7cebbff9bc6d6" xlink:title="Linux::Scheduler::suspend\l_timer_procs">
<polygon fill="white" stroke="black" points="743,-285.5 743,-315.5 875,-315.5 875,-285.5 743,-285.5"/>
<text text-anchor="start" x="751" y="-303.5" font-family="Helvetica,sans-Serif" font-size="10.00">Linux::Scheduler::suspend</text>
<text text-anchor="middle" x="809" y="-292.5" font-family="Helvetica,sans-Serif" font-size="10.00">_timer_procs</text>
</a>
</g>
</g>
<!-- Node4&#45;&gt;Node28 -->
<g id="edge32" class="edge"><title>Node4&#45;&gt;Node28</title>
<path fill="none" stroke="midnightblue" d="M494.422,-336.859C509.035,-319.931 542.128,-285.434 579,-272.5 638.809,-251.52 712.177,-267.176 759.489,-282.192"/>
<polygon fill="midnightblue" stroke="midnightblue" points="758.583,-285.578 769.176,-285.373 760.767,-278.928 758.583,-285.578"/>
</g>
<!-- Node38 -->
<g id="node38" class="node"><title>Node38</title>
<g id="a_node38"><a xlink:href="$classLinux_1_1Scheduler.html#aee4e701b92cb4721c4de1bfcdcded70c" xlink:title="Linux::Scheduler::resume\l_timer_procs">
<polygon fill="white" stroke="black" points="745,-401.5 745,-431.5 873,-431.5 873,-401.5 745,-401.5"/>
<text text-anchor="start" x="753" y="-419.5" font-family="Helvetica,sans-Serif" font-size="10.00">Linux::Scheduler::resume</text>
<text text-anchor="middle" x="809" y="-408.5" font-family="Helvetica,sans-Serif" font-size="10.00">_timer_procs</text>
</a>
</g>
</g>
<!-- Node4&#45;&gt;Node38 -->
<g id="edge46" class="edge"><title>Node4&#45;&gt;Node38</title>
<path fill="none" stroke="midnightblue" d="M494.452,-356.013C509.113,-372.717 542.279,-406.756 579,-419.5 628.937,-436.832 688.767,-435.353 734.747,-429.927"/>
<polygon fill="midnightblue" stroke="midnightblue" points="735.452,-433.365 744.932,-428.634 734.571,-426.421 735.452,-433.365"/>
</g>
<!-- Node40 -->
<g id="node40" class="node"><title>Node40</title>
<g id="a_node40"><a xlink:href="$classLinux_1_1Scheduler.html#af23753e7c6bfa97553db215a64235455" xlink:title="Linux::Scheduler::in\l_timerprocess">
<polygon fill="white" stroke="black" points="591.5,-282.5 591.5,-312.5 694.5,-312.5 694.5,-282.5 591.5,-282.5"/>
<text text-anchor="start" x="599.5" y="-300.5" font-family="Helvetica,sans-Serif" font-size="10.00">Linux::Scheduler::in</text>
<text text-anchor="middle" x="643" y="-289.5" font-family="Helvetica,sans-Serif" font-size="10.00">_timerprocess</text>
</a>
</g>
</g>
<!-- Node4&#45;&gt;Node40 -->
<g id="edge48" class="edge"><title>Node4&#45;&gt;Node40</title>
<path fill="none" stroke="midnightblue" d="M516.851,-336.936C536.108,-330.868 561.638,-322.823 584.615,-315.583"/>
<polygon fill="midnightblue" stroke="midnightblue" points="585.795,-318.881 594.281,-312.537 583.691,-312.204 585.795,-318.881"/>
</g>
<!-- Node41 -->
<g id="node41" class="node"><title>Node41</title>
<g id="a_node41"><a xlink:href="$classLinux_1_1Scheduler.html#ac193459e3575c7a0588fdc72250c2044" xlink:title="Linux::Scheduler::register\l_timer_failsafe">
<polygon fill="white" stroke="black" points="579,-106.5 579,-136.5 707,-136.5 707,-106.5 579,-106.5"/>
<text text-anchor="start" x="587" y="-124.5" font-family="Helvetica,sans-Serif" font-size="10.00">Linux::Scheduler::register</text>
<text text-anchor="middle" x="643" y="-113.5" font-family="Helvetica,sans-Serif" font-size="10.00">_timer_failsafe</text>
</a>
</g>
</g>
<!-- Node4&#45;&gt;Node41 -->
<g id="edge49" class="edge"><title>Node4&#45;&gt;Node41</title>
<path fill="none" stroke="midnightblue" d="M488.679,-336.624C496.02,-305.467 522.607,-207.977 579,-151.5 582.599,-147.896 586.715,-144.666 591.082,-141.785"/>
<polygon fill="midnightblue" stroke="midnightblue" points="592.899,-144.777 599.717,-136.668 589.33,-138.755 592.899,-144.777"/>
</g>
<!-- Node42 -->
<g id="node42" class="node"><title>Node42</title>
<g id="a_node42"><a xlink:href="$classLinux_1_1Scheduler.html#ad6070a7ee637adf5101b1e6b6efbf8f6" xlink:title="Linux::Scheduler::system\l_initialized">
<polygon fill="white" stroke="black" points="579,-194.5 579,-224.5 707,-224.5 707,-194.5 579,-194.5"/>
<text text-anchor="start" x="587" y="-212.5" font-family="Helvetica,sans-Serif" font-size="10.00">Linux::Scheduler::system</text>
<text text-anchor="middle" x="643" y="-201.5" font-family="Helvetica,sans-Serif" font-size="10.00">_initialized</text>
</a>
</g>
</g>
<!-- Node4&#45;&gt;Node42 -->
<g id="edge50" class="edge"><title>Node4&#45;&gt;Node42</title>
<path fill="none" stroke="midnightblue" d="M492.844,-336.742C506.489,-316.378 540.525,-268.821 579,-239.5 583.815,-235.831 589.15,-232.451 594.619,-229.388"/>
<polygon fill="midnightblue" stroke="midnightblue" points="596.648,-232.276 603.882,-224.535 593.4,-226.075 596.648,-232.276"/>
</g>
<!-- Node44 -->
<g id="node44" class="node"><title>Node44</title>
<g id="a_node44"><a xlink:href="$classLinux_1_1Scheduler.html#ae72cfa66c849ffd882ef518c35c71e69" xlink:title="Linux::Scheduler::reboot">
<polygon fill="white" stroke="black" points="582,-506 582,-525 704,-525 704,-506 582,-506"/>
<text text-anchor="middle" x="643" y="-513" font-family="Helvetica,sans-Serif" font-size="10.00">Linux::Scheduler::reboot</text>
</a>
</g>
</g>
<!-- Node4&#45;&gt;Node44 -->
<g id="edge53" class="edge"><title>Node4&#45;&gt;Node44</title>
<path fill="none" stroke="midnightblue" d="M490.102,-356.113C500.174,-381.754 531.074,-452.468 579,-491.5 584.003,-495.574 589.772,-499.007 595.746,-501.885"/>
<polygon fill="midnightblue" stroke="midnightblue" points="594.652,-505.225 605.221,-505.964 597.42,-498.795 594.652,-505.225"/>
</g>
<!-- Node45 -->
<g id="node45" class="node"><title>Node45</title>
<g id="a_node45"><a xlink:href="$classLinux_1_1Scheduler.html#a392aebafcdfe9a812e4db4b7a9dcce9c" xlink:title="Linux::Scheduler::stop\l_clock">
<polygon fill="white" stroke="black" points="586,-331.5 586,-361.5 700,-361.5 700,-331.5 586,-331.5"/>
<text text-anchor="start" x="594" y="-349.5" font-family="Helvetica,sans-Serif" font-size="10.00">Linux::Scheduler::stop</text>
<text text-anchor="middle" x="643" y="-338.5" font-family="Helvetica,sans-Serif" font-size="10.00">_clock</text>
</a>
</g>
</g>
<!-- Node4&#45;&gt;Node45 -->
<g id="edge54" class="edge"><title>Node4&#45;&gt;Node45</title>
<path fill="none" stroke="midnightblue" d="M543.079,-346.5C553.674,-346.5 564.837,-346.5 575.695,-346.5"/>
<polygon fill="midnightblue" stroke="midnightblue" points="575.984,-350 585.984,-346.5 575.984,-343 575.984,-350"/>
</g>
<!-- Node6 -->
<g id="node6" class="node"><title>Node6</title>
<g id="a_node6"><a xlink:href="$namespaceAP__HAL.html#a71832f03d849a0c088f04fc98d3c8143" xlink:title="AP_HAL::panic">
<polygon fill="white" stroke="black" points="767,-196 767,-215 851,-215 851,-196 767,-196"/>
<text text-anchor="middle" x="809" y="-203" font-family="Helvetica,sans-Serif" font-size="10.00">AP_HAL::panic</text>
</a>
</g>
</g>
<!-- Node5&#45;&gt;Node6 -->
<g id="edge5" class="edge"><title>Node5&#45;&gt;Node6</title>
<path fill="none" stroke="midnightblue" d="M691.261,-87.0603C696.938,-89.52 702.358,-92.6123 707,-96.5 734.123,-119.217 718.741,-141.746 743,-167.5 752.103,-177.164 764.214,-185.141 775.513,-191.248"/>
<polygon fill="midnightblue" stroke="midnightblue" points="774.229,-194.522 784.729,-195.935 777.402,-188.282 774.229,-194.522"/>
</g>
<!-- Node5&#45;&gt;Node12 -->
<g id="edge11" class="edge"><title>Node5&#45;&gt;Node12</title>
<path fill="none" stroke="midnightblue" d="M697.246,-77.5C709.202,-77.5 722.091,-77.5 734.703,-77.5"/>
<polygon fill="midnightblue" stroke="midnightblue" points="734.734,-81.0001 744.734,-77.5 734.734,-74.0001 734.734,-81.0001"/>
</g>
<!-- Node21 -->
<g id="node21" class="node"><title>Node21</title>
<g id="a_node21"><a xlink:href="$classLinux_1_1Scheduler.html#a163eb7b285c95b1b1d036fc61d723910" xlink:title="Linux::Scheduler::\l_debug_stack">
<polygon fill="white" stroke="black" points="761.5,-0.5 761.5,-30.5 856.5,-30.5 856.5,-0.5 761.5,-0.5"/>
<text text-anchor="start" x="769.5" y="-18.5" font-family="Helvetica,sans-Serif" font-size="10.00">Linux::Scheduler::</text>
<text text-anchor="middle" x="809" y="-7.5" font-family="Helvetica,sans-Serif" font-size="10.00">_debug_stack</text>
</a>
</g>
</g>
<!-- Node5&#45;&gt;Node21 -->
<g id="edge20" class="edge"><title>Node5&#45;&gt;Node21</title>
<path fill="none" stroke="midnightblue" d="M669.266,-67.9484C692.918,-59.0066 728.923,-45.3951 758.325,-34.2794"/>
<polygon fill="midnightblue" stroke="midnightblue" points="759.9,-37.4259 768.016,-30.6158 757.425,-30.8782 759.9,-37.4259"/>
</g>
<!-- Node7 -->
<g id="node7" class="node"><title>Node7</title>
<g id="a_node7"><a xlink:href="$classAP__HAL_1_1RCInput.html#a2bea13d38f2b9ae8bf5193a3a69f0a31" xlink:title="AP_HAL::RCInput::teardown">
<polygon fill="white" stroke="black" points="911,-196 911,-215 1054,-215 1054,-196 911,-196"/>
<text text-anchor="middle" x="982.5" y="-203" font-family="Helvetica,sans-Serif" font-size="10.00">AP_HAL::RCInput::teardown</text>
</a>
</g>
</g>
<!-- Node6&#45;&gt;Node7 -->
<g id="edge6" class="edge"><title>Node6&#45;&gt;Node7</title>
<path fill="none" stroke="midnightblue" d="M851.079,-205.5C866.072,-205.5 883.594,-205.5 900.84,-205.5"/>
<polygon fill="midnightblue" stroke="midnightblue" points="900.941,-209 910.941,-205.5 900.941,-202 900.941,-209"/>
</g>
<!-- Node11 -->
<g id="node11" class="node"><title>Node11</title>
<g id="a_node11"><a xlink:href="$classAP__HAL_1_1Scheduler.html#a78c4f1b1f192ac1c99544b6cc8f099b0" xlink:title="AP_HAL::Scheduler::\ldelay_microseconds">
<polygon fill="white" stroke="black" points="1096,-288.5 1096,-318.5 1206,-318.5 1206,-288.5 1096,-288.5"/>
<text text-anchor="start" x="1104" y="-306.5" font-family="Helvetica,sans-Serif" font-size="10.00">AP_HAL::Scheduler::</text>
<text text-anchor="middle" x="1151" y="-295.5" font-family="Helvetica,sans-Serif" font-size="10.00">delay_microseconds</text>
</a>
</g>
</g>
<!-- Node6&#45;&gt;Node11 -->
<g id="edge10" class="edge"><title>Node6&#45;&gt;Node11</title>
<path fill="none" stroke="midnightblue" d="M843.22,-215.075C899.874,-231.405 1016.02,-264.884 1088.03,-285.638"/>
<polygon fill="midnightblue" stroke="midnightblue" points="1087.31,-289.072 1097.89,-288.479 1089.25,-282.346 1087.31,-289.072"/>
</g>
<!-- Node8 -->
<g id="node8" class="node"><title>Node8</title>
<g id="a_node8"><a xlink:href="$classAP__HAL_1_1RCInput.html#aee1fade33080edef83dd7db0fad0f7da" xlink:title="AP_HAL::RCInput::new\l_input">
<polygon fill="white" stroke="black" points="1090,-239.5 1090,-269.5 1212,-269.5 1212,-239.5 1090,-239.5"/>
<text text-anchor="start" x="1098" y="-257.5" font-family="Helvetica,sans-Serif" font-size="10.00">AP_HAL::RCInput::new</text>
<text text-anchor="middle" x="1151" y="-246.5" font-family="Helvetica,sans-Serif" font-size="10.00">_input</text>
</a>
</g>
</g>
<!-- Node7&#45;&gt;Node8 -->
<g id="edge7" class="edge"><title>Node7&#45;&gt;Node8</title>
<path fill="none" stroke="midnightblue" d="M1016,-215.064C1036.8,-221.186 1064.44,-229.321 1089.21,-236.611"/>
<polygon fill="midnightblue" stroke="midnightblue" points="1088.32,-239.997 1098.91,-239.463 1090.3,-233.282 1088.32,-239.997"/>
</g>
<!-- Node9 -->
<g id="node9" class="node"><title>Node9</title>
<g id="a_node9"><a xlink:href="$classAP__HAL_1_1RCInput.html#ae55f959c6115c1f41783af3a2b6c4fcd" xlink:title="AP_HAL::RCInput::num\l_channels">
<polygon fill="white" stroke="black" points="1090,-190.5 1090,-220.5 1212,-220.5 1212,-190.5 1090,-190.5"/>
<text text-anchor="start" x="1098" y="-208.5" font-family="Helvetica,sans-Serif" font-size="10.00">AP_HAL::RCInput::num</text>
<text text-anchor="middle" x="1151" y="-197.5" font-family="Helvetica,sans-Serif" font-size="10.00">_channels</text>
</a>
</g>
</g>
<!-- Node7&#45;&gt;Node9 -->
<g id="edge8" class="edge"><title>Node7&#45;&gt;Node9</title>
<path fill="none" stroke="midnightblue" d="M1054.11,-205.5C1062.55,-205.5 1071.18,-205.5 1079.62,-205.5"/>
<polygon fill="midnightblue" stroke="midnightblue" points="1079.8,-209 1089.8,-205.5 1079.8,-202 1079.8,-209"/>
</g>
<!-- Node10 -->
<g id="node10" class="node"><title>Node10</title>
<g id="a_node10"><a xlink:href="$classAP__HAL_1_1RCInput.html#a078fd7e6d2e6a899009ec674a8e03498" xlink:title="AP_HAL::RCInput::read">
<polygon fill="white" stroke="black" points="1090,-152 1090,-171 1212,-171 1212,-152 1090,-152"/>
<text text-anchor="middle" x="1151" y="-159" font-family="Helvetica,sans-Serif" font-size="10.00">AP_HAL::RCInput::read</text>
</a>
</g>
</g>
<!-- Node7&#45;&gt;Node10 -->
<g id="edge9" class="edge"><title>Node7&#45;&gt;Node10</title>
<path fill="none" stroke="midnightblue" d="M1019.63,-195.953C1044.39,-189.408 1077.45,-180.672 1104.08,-173.635"/>
<polygon fill="midnightblue" stroke="midnightblue" points="1105.17,-176.968 1113.94,-171.029 1103.38,-170.2 1105.17,-176.968"/>
</g>
<!-- Node13 -->
<g id="node13" class="node"><title>Node13</title>
<g id="a_node13"><a xlink:href="$classAP__HAL_1_1UARTDriver.html#a6ceedc792594e59fc7d80b39a435f027" xlink:title="AP_HAL::UARTDriver\l::printf">
<polygon fill="white" stroke="black" points="925,-102.5 925,-132.5 1040,-132.5 1040,-102.5 925,-102.5"/>
<text text-anchor="start" x="933" y="-120.5" font-family="Helvetica,sans-Serif" font-size="10.00">AP_HAL::UARTDriver</text>
<text text-anchor="middle" x="982.5" y="-109.5" font-family="Helvetica,sans-Serif" font-size="10.00">::printf</text>
</a>
</g>
</g>
<!-- Node12&#45;&gt;Node13 -->
<g id="edge12" class="edge"><title>Node12&#45;&gt;Node13</title>
<path fill="none" stroke="midnightblue" d="M873.373,-92.2809C886.963,-95.4506 901.36,-98.8084 915.063,-102.004"/>
<polygon fill="midnightblue" stroke="midnightblue" points="914.362,-105.435 924.896,-104.298 915.953,-98.6179 914.362,-105.435"/>
</g>
<!-- Node14 -->
<g id="node14" class="node"><title>Node14</title>
<g id="a_node14"><a xlink:href="$classAP__HAL_1_1UARTDriver.html#aa8abfb6d6641299472c29ac1edde559f" xlink:title="AP_HAL::UARTDriver\l::vprintf">
<polygon fill="white" stroke="black" points="1093.5,-102.5 1093.5,-132.5 1208.5,-132.5 1208.5,-102.5 1093.5,-102.5"/>
<text text-anchor="start" x="1101.5" y="-120.5" font-family="Helvetica,sans-Serif" font-size="10.00">AP_HAL::UARTDriver</text>
<text text-anchor="middle" x="1151" y="-109.5" font-family="Helvetica,sans-Serif" font-size="10.00">::vprintf</text>
</a>
</g>
</g>
<!-- Node13&#45;&gt;Node14 -->
<g id="edge13" class="edge"><title>Node13&#45;&gt;Node14</title>
<path fill="none" stroke="midnightblue" d="M1040.33,-117.5C1054.13,-117.5 1069.01,-117.5 1083.22,-117.5"/>
<polygon fill="midnightblue" stroke="midnightblue" points="1083.42,-121 1093.42,-117.5 1083.42,-114 1083.42,-121"/>
</g>
<!-- Node15 -->
<g id="node15" class="node"><title>Node15</title>
<g id="a_node15"><a xlink:href="$print__vprintf_8cpp.html#a1534eaeab54696df96975b56d9f49212" xlink:title="print_vprintf">
<polygon fill="white" stroke="black" points="1279,-114 1279,-133 1347,-133 1347,-114 1279,-114"/>
<text text-anchor="middle" x="1313" y="-121" font-family="Helvetica,sans-Serif" font-size="10.00">print_vprintf</text>
</a>
</g>
</g>
<!-- Node14&#45;&gt;Node15 -->
<g id="edge14" class="edge"><title>Node14&#45;&gt;Node15</title>
<path fill="none" stroke="midnightblue" d="M1208.86,-119.632C1228.47,-120.368 1250.12,-121.179 1268.49,-121.868"/>
<polygon fill="midnightblue" stroke="midnightblue" points="1268.49,-125.371 1278.61,-122.248 1268.75,-118.376 1268.49,-125.371"/>
</g>
<!-- Node16 -->
<g id="node16" class="node"><title>Node16</title>
<g id="a_node16"><a xlink:href="$classAP__HAL_1_1Print.html#acc65391952a43334f8f5c9bef341f501" xlink:title="AP_HAL::Print::write">
<polygon fill="white" stroke="black" points="1431.5,-44 1431.5,-63 1539.5,-63 1539.5,-44 1431.5,-44"/>
<text text-anchor="middle" x="1485.5" y="-51" font-family="Helvetica,sans-Serif" font-size="10.00">AP_HAL::Print::write</text>
</a>
</g>
</g>
<!-- Node15&#45;&gt;Node16 -->
<g id="edge15" class="edge"><title>Node15&#45;&gt;Node16</title>
<path fill="none" stroke="midnightblue" d="M1330.15,-113.932C1349.53,-102.768 1383.26,-84.3312 1414,-72.5 1420.28,-70.083 1426.99,-67.8516 1433.67,-65.8325"/>
<polygon fill="midnightblue" stroke="midnightblue" points="1434.76,-69.1612 1443.4,-63.0296 1432.82,-62.4348 1434.76,-69.1612"/>
</g>
<!-- Node17 -->
<g id="node17" class="node"><title>Node17</title>
<g id="a_node17"><a xlink:href="$ftoa__engine_8cpp.html#a1c28234da8f20b43c85890d4bb452947" xlink:title="ftoa_engine">
<polygon fill="white" stroke="black" points="1452,-196 1452,-215 1519,-215 1519,-196 1452,-196"/>
<text text-anchor="middle" x="1485.5" y="-203" font-family="Helvetica,sans-Serif" font-size="10.00">ftoa_engine</text>
</a>
</g>
</g>
<!-- Node15&#45;&gt;Node17 -->
<g id="edge16" class="edge"><title>Node15&#45;&gt;Node17</title>
<path fill="none" stroke="midnightblue" d="M1326.57,-133.172C1344.87,-146.837 1380.35,-171.768 1414,-186.5 1422.78,-190.346 1432.53,-193.578 1441.91,-196.223"/>
<polygon fill="midnightblue" stroke="midnightblue" points="1441.31,-199.685 1451.87,-198.864 1443.1,-192.919 1441.31,-199.685"/>
</g>
<!-- Node18 -->
<g id="node18" class="node"><title>Node18</title>
<g id="a_node18"><a xlink:href="$replace_8cpp.html#a880bcc7b85a09e6254691bebd5344b51" xlink:title="strnlen">
<polygon fill="white" stroke="black" points="1462.5,-158 1462.5,-177 1508.5,-177 1508.5,-158 1462.5,-158"/>
<text text-anchor="middle" x="1485.5" y="-165" font-family="Helvetica,sans-Serif" font-size="10.00">strnlen</text>
</a>
</g>
</g>
<!-- Node15&#45;&gt;Node18 -->
<g id="edge17" class="edge"><title>Node15&#45;&gt;Node18</title>
<path fill="none" stroke="midnightblue" d="M1347.28,-132.088C1377.71,-139.941 1422.42,-151.479 1452.45,-159.23"/>
<polygon fill="midnightblue" stroke="midnightblue" points="1451.86,-162.692 1462.42,-161.801 1453.61,-155.914 1451.86,-162.692"/>
</g>
<!-- Node19 -->
<g id="node19" class="node"><title>Node19</title>
<g id="a_node19"><a xlink:href="$utoa__invert_8cpp.html#a34926f552460b47c414ec4d83b32815c" xlink:title="ulltoa_invert">
<polygon fill="white" stroke="black" points="1451,-120 1451,-139 1520,-139 1520,-120 1451,-120"/>
<text text-anchor="middle" x="1485.5" y="-127" font-family="Helvetica,sans-Serif" font-size="10.00">ulltoa_invert</text>
</a>
</g>
</g>
<!-- Node15&#45;&gt;Node19 -->
<g id="edge18" class="edge"><title>Node15&#45;&gt;Node19</title>
<path fill="none" stroke="midnightblue" d="M1347.28,-124.671C1373.86,-125.607 1411.35,-126.926 1440.43,-127.949"/>
<polygon fill="midnightblue" stroke="midnightblue" points="1440.61,-131.457 1450.72,-128.311 1440.85,-124.462 1440.61,-131.457"/>
</g>
<!-- Node20 -->
<g id="node20" class="node"><title>Node20</title>
<g id="a_node20"><a xlink:href="$utoa__invert_8cpp.html#a5d99bba8e697c1e11da489d88fca8559" xlink:title="ultoa_invert">
<polygon fill="white" stroke="black" points="1452,-82 1452,-101 1519,-101 1519,-82 1452,-82"/>
<text text-anchor="middle" x="1485.5" y="-89" font-family="Helvetica,sans-Serif" font-size="10.00">ultoa_invert</text>
</a>
</g>
</g>
<!-- Node15&#45;&gt;Node20 -->
<g id="edge19" class="edge"><title>Node15&#45;&gt;Node20</title>
<path fill="none" stroke="midnightblue" d="M1347.28,-117.254C1374.33,-112.178 1412.66,-104.983 1441.94,-99.488"/>
<polygon fill="midnightblue" stroke="midnightblue" points="1442.7,-102.906 1451.88,-97.6214 1441.41,-96.0262 1442.7,-102.906"/>
</g>
<!-- Node21&#45;&gt;Node3 -->
<g id="edge21" class="edge"><title>Node21&#45;&gt;Node3</title>
<path fill="none" stroke="midnightblue" d="M761.308,-6.62654C711.886,0.132112 633.627,3.06017 579,-32.5 422.631,-134.291 363.812,-377.622 349.63,-448.692"/>
<polygon fill="midnightblue" stroke="midnightblue" points="346.117,-448.425 347.667,-458.906 352.991,-449.746 346.117,-448.425"/>
</g>
<!-- Node22 -->
<g id="node22" class="node"><title>Node22</title>
<g id="a_node22"><a xlink:href="$classLinux_1_1Thread.html#a6884970a0811ae21953c57fb98aa6e96" xlink:title="Linux::Thread::get\l_stack_usage">
<polygon fill="white" stroke="black" points="1901,-151.5 1901,-181.5 1996,-181.5 1996,-151.5 1901,-151.5"/>
<text text-anchor="start" x="1909" y="-169.5" font-family="Helvetica,sans-Serif" font-size="10.00">Linux::Thread::get</text>
<text text-anchor="middle" x="1948.5" y="-158.5" font-family="Helvetica,sans-Serif" font-size="10.00">_stack_usage</text>
</a>
</g>
</g>
<!-- Node21&#45;&gt;Node22 -->
<g id="edge22" class="edge"><title>Node21&#45;&gt;Node22</title>
<path fill="none" stroke="midnightblue" d="M856.747,-15.5C922.29,-15.5 1045.23,-15.5 1150,-15.5 1150,-15.5 1150,-15.5 1649.5,-15.5 1762.44,-15.5 1875.99,-102.874 1923.87,-144.695"/>
<polygon fill="midnightblue" stroke="midnightblue" points="1921.71,-147.452 1931.51,-151.469 1926.35,-142.215 1921.71,-147.452"/>
</g>
<!-- Node23&#45;&gt;Node3 -->
<g id="edge24" class="edge"><title>Node23&#45;&gt;Node3</title>
<path fill="none" stroke="midnightblue" d="M583.319,-636.345C537.489,-638.705 474.065,-635.128 428,-605.5 385.019,-577.855 361.417,-518.976 351.573,-488.187"/>
<polygon fill="midnightblue" stroke="midnightblue" points="354.805,-486.782 348.558,-478.225 348.105,-488.81 354.805,-486.782"/>
</g>
<!-- Node24 -->
<g id="node24" class="node"><title>Node24</title>
<g id="a_node24"><a xlink:href="$classLinux_1_1Scheduler.html#a647872aff158b510c56862f51f951538" xlink:title="Linux::Scheduler::microsleep">
<polygon fill="white" stroke="black" points="1414,-544 1414,-563 1557,-563 1557,-544 1414,-544"/>
<text text-anchor="middle" x="1485.5" y="-551" font-family="Helvetica,sans-Serif" font-size="10.00">Linux::Scheduler::microsleep</text>
</a>
</g>
</g>
<!-- Node23&#45;&gt;Node24 -->
<g id="edge25" class="edge"><title>Node23&#45;&gt;Node24</title>
<path fill="none" stroke="midnightblue" d="M702.532,-629.5C769.839,-629.5 883.648,-629.5 981.5,-629.5 981.5,-629.5 981.5,-629.5 1152,-629.5 1263.39,-629.5 1390.62,-588.462 1450.26,-566.697"/>
<polygon fill="midnightblue" stroke="midnightblue" points="1451.75,-569.878 1459.91,-563.125 1449.32,-563.312 1451.75,-569.878"/>
</g>
<!-- Node25&#45;&gt;Node24 -->
<g id="edge27" class="edge"><title>Node25&#45;&gt;Node24</title>
<path fill="none" stroke="midnightblue" d="M1372.68,-553.5C1382.75,-553.5 1393.37,-553.5 1403.9,-553.5"/>
<polygon fill="midnightblue" stroke="midnightblue" points="1403.95,-557 1413.95,-553.5 1403.95,-550 1403.95,-557"/>
</g>
<!-- Node27&#45;&gt;Node13 -->
<g id="edge31" class="edge"><title>Node27&#45;&gt;Node13</title>
<path fill="none" stroke="midnightblue" d="M873.373,-133.892C886.831,-131.852 901.081,-129.692 914.663,-127.633"/>
<polygon fill="midnightblue" stroke="midnightblue" points="915.534,-131.041 924.896,-126.081 914.484,-124.12 915.534,-131.041"/>
</g>
<!-- Node29 -->
<g id="node29" class="node"><title>Node29</title>
<g id="a_node29"><a xlink:href="$classLinux_1_1Semaphore.html#afc4c8706abb7e68aa4001ea372dc614e" xlink:title="Linux::Semaphore::take">
<polygon fill="white" stroke="black" points="922.5,-341 922.5,-360 1042.5,-360 1042.5,-341 922.5,-341"/>
<text text-anchor="middle" x="982.5" y="-348" font-family="Helvetica,sans-Serif" font-size="10.00">Linux::Semaphore::take</text>
</a>
</g>
</g>
<!-- Node28&#45;&gt;Node29 -->
<g id="edge33" class="edge"><title>Node28&#45;&gt;Node29</title>
<path fill="none" stroke="midnightblue" d="M861.456,-315.502C886.233,-322.725 915.584,-331.282 939.061,-338.127"/>
<polygon fill="midnightblue" stroke="midnightblue" points="938.153,-341.508 948.733,-340.947 940.112,-334.788 938.153,-341.508"/>
</g>
<!-- Node29&#45;&gt;Node11 -->
<g id="edge45" class="edge"><title>Node29&#45;&gt;Node11</title>
<path fill="none" stroke="midnightblue" d="M1017.19,-340.989C1037.24,-335.331 1063.31,-327.972 1087.04,-321.274"/>
<polygon fill="midnightblue" stroke="midnightblue" points="1088.02,-324.634 1096.69,-318.549 1086.11,-317.897 1088.02,-324.634"/>
</g>
<!-- Node30 -->
<g id="node30" class="node"><title>Node30</title>
<g id="a_node30"><a xlink:href="$classLinux_1_1Semaphore.html#a561b4f40f3a76335f1a686c2aed526f9" xlink:title="Linux::Semaphore::take\l_nonblocking">
<polygon fill="white" stroke="black" points="1091,-337.5 1091,-367.5 1211,-367.5 1211,-337.5 1091,-337.5"/>
<text text-anchor="start" x="1099" y="-355.5" font-family="Helvetica,sans-Serif" font-size="10.00">Linux::Semaphore::take</text>
<text text-anchor="middle" x="1151" y="-344.5" font-family="Helvetica,sans-Serif" font-size="10.00">_nonblocking</text>
</a>
</g>
</g>
<!-- Node29&#45;&gt;Node30 -->
<g id="edge34" class="edge"><title>Node29&#45;&gt;Node30</title>
<path fill="none" stroke="midnightblue" d="M1042.67,-351.211C1054.99,-351.359 1068.07,-351.516 1080.72,-351.668"/>
<polygon fill="midnightblue" stroke="midnightblue" points="1080.7,-355.168 1090.74,-351.788 1080.78,-348.168 1080.7,-355.168"/>
</g>
<!-- Node31 -->
<g id="node31" class="node"><title>Node31</title>
<g id="a_node31"><a xlink:href="$namespaceAP__HAL.html#a7aa0ce7625c9680e30ff4a99940907a5" xlink:title="AP_HAL::micros64">
<polygon fill="white" stroke="black" points="1100.5,-468 1100.5,-487 1201.5,-487 1201.5,-468 1100.5,-468"/>
<text text-anchor="middle" x="1151" y="-475" font-family="Helvetica,sans-Serif" font-size="10.00">AP_HAL::micros64</text>
</a>
</g>
</g>
<!-- Node29&#45;&gt;Node31 -->
<g id="edge35" class="edge"><title>Node29&#45;&gt;Node31</title>
<path fill="none" stroke="midnightblue" d="M1001.76,-360.139C1016.35,-368.13 1037.09,-380.145 1054,-392.5 1083.44,-414.007 1114.5,-442.782 1133.06,-460.725"/>
<polygon fill="midnightblue" stroke="midnightblue" points="1130.83,-463.441 1140.43,-467.92 1135.72,-458.431 1130.83,-463.441"/>
</g>
<!-- Node31&#45;&gt;Node4 -->
<g id="edge36" class="edge"><title>Node31&#45;&gt;Node4</title>
<path fill="none" stroke="midnightblue" d="M1100.15,-485.837C997.242,-500.659 756.118,-522.912 579,-441.5 542.785,-424.854 513.244,-387.268 497.916,-364.682"/>
<polygon fill="midnightblue" stroke="midnightblue" points="500.823,-362.733 492.409,-356.294 494.972,-366.574 500.823,-362.733"/>
</g>
<!-- Node31&#45;&gt;Node32 -->
<g id="edge37" class="edge"><title>Node31&#45;&gt;Node32</title>
<path fill="none" stroke="midnightblue" d="M1201.75,-481.542C1213.14,-482.468 1225.5,-483.472 1237.68,-484.461"/>
<polygon fill="midnightblue" stroke="midnightblue" points="1237.59,-487.966 1247.84,-485.287 1238.16,-480.989 1237.59,-487.966"/>
</g>
<!-- Node32&#45;&gt;Node24 -->
<g id="edge38" class="edge"><title>Node32&#45;&gt;Node24</title>
<path fill="none" stroke="midnightblue" d="M1354.84,-505.59C1383.53,-516.192 1421.53,-530.234 1448.97,-540.372"/>
<polygon fill="midnightblue" stroke="midnightblue" points="1447.97,-543.734 1458.57,-543.917 1450.4,-537.168 1447.97,-543.734"/>
</g>
<!-- Node33 -->
<g id="node33" class="node"><title>Node33</title>
<g id="a_node33"><a xlink:href="$classLinux_1_1Scheduler.html#ab373a83d818679432520ea881044b2a7" xlink:title="Linux::Scheduler::teardown">
<polygon fill="white" stroke="black" points="1418,-357 1418,-376 1553,-376 1553,-357 1418,-357"/>
<text text-anchor="middle" x="1485.5" y="-364" font-family="Helvetica,sans-Serif" font-size="10.00">Linux::Scheduler::teardown</text>
</a>
</g>
</g>
<!-- Node32&#45;&gt;Node33 -->
<g id="edge39" class="edge"><title>Node32&#45;&gt;Node33</title>
<path fill="none" stroke="midnightblue" d="M1334.91,-475.295C1367.42,-451.65 1429.78,-406.295 1462.78,-382.294"/>
<polygon fill="midnightblue" stroke="midnightblue" points="1465.23,-384.839 1471.26,-376.127 1461.12,-379.178 1465.23,-384.839"/>
</g>
<!-- Node34 -->
<g id="node34" class="node"><title>Node34</title>
<g id="a_node34"><a xlink:href="$classLinux_1_1PeriodicThread.html#a136aaf6e713f63b246fc4a2905e6e9a1" xlink:title="Linux::PeriodicThread\l::stop">
<polygon fill="white" stroke="black" points="1593,-351.5 1593,-381.5 1704,-381.5 1704,-351.5 1593,-351.5"/>
<text text-anchor="start" x="1601" y="-369.5" font-family="Helvetica,sans-Serif" font-size="10.00">Linux::PeriodicThread</text>
<text text-anchor="middle" x="1648.5" y="-358.5" font-family="Helvetica,sans-Serif" font-size="10.00">::stop</text>
</a>
</g>
</g>
<!-- Node33&#45;&gt;Node34 -->
<g id="edge40" class="edge"><title>Node33&#45;&gt;Node34</title>
<path fill="none" stroke="midnightblue" d="M1553.38,-366.5C1563.02,-366.5 1572.94,-366.5 1582.54,-366.5"/>
<polygon fill="midnightblue" stroke="midnightblue" points="1582.82,-370 1592.82,-366.5 1582.82,-363 1582.82,-370"/>
</g>
<!-- Node37 -->
<g id="node37" class="node"><title>Node37</title>
<g id="a_node37"><a xlink:href="$classLinux_1_1Thread.html#a32b7d184279634922e2f3b23b584fbcd" xlink:title="Linux::Thread::join">
<polygon fill="white" stroke="black" points="1600,-313 1600,-332 1697,-332 1697,-313 1600,-313"/>
<text text-anchor="middle" x="1648.5" y="-320" font-family="Helvetica,sans-Serif" font-size="10.00">Linux::Thread::join</text>
</a>
</g>
</g>
<!-- Node33&#45;&gt;Node37 -->
<g id="edge44" class="edge"><title>Node33&#45;&gt;Node37</title>
<path fill="none" stroke="midnightblue" d="M1521.43,-356.953C1545.28,-350.437 1577.07,-341.749 1602.76,-334.728"/>
<polygon fill="midnightblue" stroke="midnightblue" points="1603.91,-338.041 1612.63,-332.029 1602.06,-331.289 1603.91,-338.041"/>
</g>
<!-- Node35 -->
<g id="node35" class="node"><title>Node35</title>
<g id="a_node35"><a xlink:href="$classLinux_1_1Thread.html#a240d7b48a9a8eb43638f67295a1819e5" xlink:title="Linux::Thread::is_started">
<polygon fill="white" stroke="black" points="1740,-281 1740,-300 1865,-300 1865,-281 1740,-281"/>
<text text-anchor="middle" x="1802.5" y="-288" font-family="Helvetica,sans-Serif" font-size="10.00">Linux::Thread::is_started</text>
</a>
</g>
</g>
<!-- Node34&#45;&gt;Node35 -->
<g id="edge41" class="edge"><title>Node34&#45;&gt;Node35</title>
<path fill="none" stroke="midnightblue" d="M1683.06,-351.436C1690.02,-348.222 1697.27,-344.801 1704,-341.5 1728.17,-329.644 1755.28,-315.385 1774.77,-304.962"/>
<polygon fill="midnightblue" stroke="midnightblue" points="1776.52,-307.994 1783.67,-300.18 1773.21,-301.826 1776.52,-307.994"/>
</g>
<!-- Node35&#45;&gt;Node22 -->
<g id="edge42" class="edge"><title>Node35&#45;&gt;Node22</title>
<path fill="none" stroke="midnightblue" d="M1814.8,-280.77C1837.68,-261.064 1890.02,-215.996 1921.7,-188.717"/>
<polygon fill="midnightblue" stroke="midnightblue" points="1924.37,-191.038 1929.66,-181.86 1919.8,-185.733 1924.37,-191.038"/>
</g>
<!-- Node36 -->
<g id="node36" class="node"><title>Node36</title>
<g id="a_node36"><a xlink:href="$classLinux_1_1Thread.html#a8d3282b714faaf68eae534e9276419f0" xlink:title="Linux::Thread::set\l_stack_size">
<polygon fill="white" stroke="black" points="1901,-275.5 1901,-305.5 1996,-305.5 1996,-275.5 1901,-275.5"/>
<text text-anchor="start" x="1909" y="-293.5" font-family="Helvetica,sans-Serif" font-size="10.00">Linux::Thread::set</text>
<text text-anchor="middle" x="1948.5" y="-282.5" font-family="Helvetica,sans-Serif" font-size="10.00">_stack_size</text>
</a>
</g>
</g>
<!-- Node35&#45;&gt;Node36 -->
<g id="edge43" class="edge"><title>Node35&#45;&gt;Node36</title>
<path fill="none" stroke="midnightblue" d="M1865.4,-290.5C1873.86,-290.5 1882.5,-290.5 1890.86,-290.5"/>
<polygon fill="midnightblue" stroke="midnightblue" points="1890.87,-294 1900.87,-290.5 1890.87,-287 1890.87,-294"/>
</g>
<!-- Node39 -->
<g id="node39" class="node"><title>Node39</title>
<g id="a_node39"><a xlink:href="$classLinux_1_1Semaphore.html#a216f91636f64b57b59d43ef64af91624" xlink:title="Linux::Semaphore::give">
<polygon fill="white" stroke="black" points="923,-402 923,-421 1042,-421 1042,-402 923,-402"/>
<text text-anchor="middle" x="982.5" y="-409" font-family="Helvetica,sans-Serif" font-size="10.00">Linux::Semaphore::give</text>
</a>
</g>
</g>
<!-- Node38&#45;&gt;Node39 -->
<g id="edge47" class="edge"><title>Node38&#45;&gt;Node39</title>
<path fill="none" stroke="midnightblue" d="M873.373,-414.652C886.172,-414.279 899.687,-413.885 912.663,-413.507"/>
<polygon fill="midnightblue" stroke="midnightblue" points="913.037,-416.998 922.931,-413.208 912.833,-410.001 913.037,-416.998"/>
</g>
<!-- Node42&#45;&gt;Node6 -->
<g id="edge51" class="edge"><title>Node42&#45;&gt;Node6</title>
<path fill="none" stroke="midnightblue" d="M707.407,-207.953C723.518,-207.561 740.641,-207.143 756.105,-206.766"/>
<polygon fill="midnightblue" stroke="midnightblue" points="756.602,-210.255 766.513,-206.512 756.431,-203.257 756.602,-210.255"/>
</g>
<!-- Node43 -->
<g id="node43" class="node"><title>Node43</title>
<g id="a_node43"><a xlink:href="$classLinux_1_1Scheduler.html#ac52c8da3f1f4fd79c50bd64379daf399" xlink:title="Linux::Scheduler::\l_wait_all_threads">
<polygon fill="white" stroke="black" points="761.5,-234.5 761.5,-264.5 856.5,-264.5 856.5,-234.5 761.5,-234.5"/>
<text text-anchor="start" x="769.5" y="-252.5" font-family="Helvetica,sans-Serif" font-size="10.00">Linux::Scheduler::</text>
<text text-anchor="middle" x="809" y="-241.5" font-family="Helvetica,sans-Serif" font-size="10.00">_wait_all_threads</text>
</a>
</g>
</g>
<!-- Node42&#45;&gt;Node43 -->
<g id="edge52" class="edge"><title>Node42&#45;&gt;Node43</title>
<path fill="none" stroke="midnightblue" d="M705.534,-224.508C720.525,-228.165 736.491,-232.059 751.249,-235.658"/>
<polygon fill="midnightblue" stroke="midnightblue" points="750.7,-239.127 761.245,-238.096 752.359,-232.326 750.7,-239.127"/>
</g>
<!-- Node46 -->
<g id="node46" class="node"><title>Node46</title>
<g id="a_node46"><a xlink:href="$classLinux_1_1Scheduler.html#a70b024d7d0886bf47b46cc3ee310d638" xlink:title="Linux::Scheduler::\l_run_io">
<polygon fill="white" stroke="black" points="761.5,-335.5 761.5,-365.5 856.5,-365.5 856.5,-335.5 761.5,-335.5"/>
<text text-anchor="start" x="769.5" y="-353.5" font-family="Helvetica,sans-Serif" font-size="10.00">Linux::Scheduler::</text>
<text text-anchor="middle" x="809" y="-342.5" font-family="Helvetica,sans-Serif" font-size="10.00">_run_io</text>
</a>
</g>
</g>
<!-- Node45&#45;&gt;Node46 -->
<g id="edge55" class="edge"><title>Node45&#45;&gt;Node46</title>
<path fill="none" stroke="midnightblue" d="M700.439,-347.877C716.86,-348.277 734.799,-348.715 751.239,-349.116"/>
<polygon fill="midnightblue" stroke="midnightblue" points="751.172,-352.615 761.255,-349.36 751.343,-345.617 751.172,-352.615"/>
</g>
<!-- Node46&#45;&gt;Node29 -->
<g id="edge56" class="edge"><title>Node46&#45;&gt;Node29</title>
<path fill="none" stroke="midnightblue" d="M856.863,-350.5C873.934,-350.5 893.613,-350.5 912.217,-350.5"/>
<polygon fill="midnightblue" stroke="midnightblue" points="912.419,-354 922.419,-350.5 912.419,-347 912.419,-354"/>
</g>
<!-- Node46&#45;&gt;Node39 -->
<g id="edge57" class="edge"><title>Node46&#45;&gt;Node39</title>
<path fill="none" stroke="midnightblue" d="M852.393,-365.579C880.84,-375.697 917.924,-388.887 945.046,-398.534"/>
<polygon fill="midnightblue" stroke="midnightblue" points="943.958,-401.862 954.553,-401.915 946.304,-395.266 943.958,-401.862"/>
</g>
</g>
</svg>
