<?xml version="1.0" encoding="UTF-8" standalone="no"?>
<!DOCTYPE svg PUBLIC "-//W3C//DTD SVG 1.1//EN"
 "http://www.w3.org/Graphics/SVG/1.1/DTD/svg11.dtd">
<!-- Generated by graphviz version 2.38.0 (20140413.2041)
 -->
<!-- Title: AC_Avoid::limit_velocity Pages: 1 -->
<svg width="1124pt" height="137pt"
 viewBox="0.00 0.00 1124.00 137.00" xmlns="http://www.w3.org/2000/svg" xmlns:xlink="http://www.w3.org/1999/xlink">
<g id="graph0" class="graph" transform="scale(1 1) rotate(0) translate(4 133)">
<title>AC_Avoid::limit_velocity</title>
<polygon fill="white" stroke="none" points="-4,4 -4,-133 1120,-133 1120,4 -4,4"/>
<!-- Node1 -->
<g id="node1" class="node"><title>Node1</title>
<polygon fill="#bfbfbf" stroke="black" points="0,-55 0,-74 124,-74 124,-55 0,-55"/>
<text text-anchor="middle" x="62" y="-62" font-family="Helvetica,sans-Serif" font-size="10.00">AC_Avoid::limit_velocity</text>
</g>
<!-- Node2 -->
<g id="node2" class="node"><title>Node2</title>
<g id="a_node2"><a xlink:href="$classAC__Avoid.html#a7e9a8c28e3f61c7e7ee3bf5afe986e4f" xlink:title="AC_Avoid::adjust_velocity\l_polygon">
<polygon fill="white" stroke="black" points="160,-49.5 160,-79.5 292,-79.5 292,-49.5 160,-49.5"/>
<text text-anchor="start" x="168" y="-67.5" font-family="Helvetica,sans-Serif" font-size="10.00">AC_Avoid::adjust_velocity</text>
<text text-anchor="middle" x="226" y="-56.5" font-family="Helvetica,sans-Serif" font-size="10.00">_polygon</text>
</a>
</g>
</g>
<!-- Node1&#45;&gt;Node2 -->
<g id="edge1" class="edge"><title>Node1&#45;&gt;Node2</title>
<path fill="none" stroke="midnightblue" d="M134.467,-64.5C142.924,-64.5 151.522,-64.5 159.885,-64.5"/>
<polygon fill="midnightblue" stroke="midnightblue" points="134.245,-61.0001 124.245,-64.5 134.245,-68.0001 134.245,-61.0001"/>
</g>
<!-- Node3 -->
<g id="node3" class="node"><title>Node3</title>
<g id="a_node3"><a xlink:href="$classAC__Avoid.html#acda5962c20c1d4c06eb2137c092e9569" xlink:title="AC_Avoid::adjust_velocity\l_beacon_fence">
<polygon fill="white" stroke="black" points="328,-98.5 328,-128.5 460,-128.5 460,-98.5 328,-98.5"/>
<text text-anchor="start" x="336" y="-116.5" font-family="Helvetica,sans-Serif" font-size="10.00">AC_Avoid::adjust_velocity</text>
<text text-anchor="middle" x="394" y="-105.5" font-family="Helvetica,sans-Serif" font-size="10.00">_beacon_fence</text>
</a>
</g>
</g>
<!-- Node2&#45;&gt;Node3 -->
<g id="edge2" class="edge"><title>Node2&#45;&gt;Node3</title>
<path fill="none" stroke="midnightblue" d="M287.868,-82.467C305.654,-87.717 324.902,-93.3989 342.009,-98.4484"/>
<polygon fill="midnightblue" stroke="midnightblue" points="288.742,-79.0757 278.16,-79.6014 286.76,-85.7894 288.742,-79.0757"/>
</g>
<!-- Node9 -->
<g id="node9" class="node"><title>Node9</title>
<g id="a_node9"><a xlink:href="$classAC__Avoid.html#ac02a966259c9abb5ca2e5e4ee8e72d91" xlink:title="AC_Avoid::adjust_velocity\l_polygon_fence">
<polygon fill="white" stroke="black" points="328,-49.5 328,-79.5 460,-79.5 460,-49.5 328,-49.5"/>
<text text-anchor="start" x="336" y="-67.5" font-family="Helvetica,sans-Serif" font-size="10.00">AC_Avoid::adjust_velocity</text>
<text text-anchor="middle" x="394" y="-56.5" font-family="Helvetica,sans-Serif" font-size="10.00">_polygon_fence</text>
</a>
</g>
</g>
<!-- Node2&#45;&gt;Node9 -->
<g id="edge8" class="edge"><title>Node2&#45;&gt;Node9</title>
<path fill="none" stroke="midnightblue" d="M302.393,-64.5C310.869,-64.5 319.452,-64.5 327.784,-64.5"/>
<polygon fill="midnightblue" stroke="midnightblue" points="302.131,-61.0001 292.131,-64.5 302.131,-68.0001 302.131,-61.0001"/>
</g>
<!-- Node10 -->
<g id="node10" class="node"><title>Node10</title>
<g id="a_node10"><a xlink:href="$classAC__Avoid.html#aac95ba12099c07f5b9c6bfd5f7cee4b2" xlink:title="AC_Avoid::adjust_velocity\l_proximity">
<polygon fill="white" stroke="black" points="328,-0.5 328,-30.5 460,-30.5 460,-0.5 328,-0.5"/>
<text text-anchor="start" x="336" y="-18.5" font-family="Helvetica,sans-Serif" font-size="10.00">AC_Avoid::adjust_velocity</text>
<text text-anchor="middle" x="394" y="-7.5" font-family="Helvetica,sans-Serif" font-size="10.00">_proximity</text>
</a>
</g>
</g>
<!-- Node2&#45;&gt;Node10 -->
<g id="edge10" class="edge"><title>Node2&#45;&gt;Node10</title>
<path fill="none" stroke="midnightblue" d="M287.868,-46.533C305.654,-41.283 324.902,-35.6011 342.009,-30.5516"/>
<polygon fill="midnightblue" stroke="midnightblue" points="286.76,-43.2106 278.16,-49.3986 288.742,-49.9243 286.76,-43.2106"/>
</g>
<!-- Node4 -->
<g id="node4" class="node"><title>Node4</title>
<g id="a_node4"><a xlink:href="$classAC__Avoid.html#abee541d127ce0da1fe6be54f987a0779" xlink:title="AC_Avoid::adjust_velocity">
<polygon fill="white" stroke="black" points="496,-55 496,-74 628,-74 628,-55 496,-55"/>
<text text-anchor="middle" x="562" y="-62" font-family="Helvetica,sans-Serif" font-size="10.00">AC_Avoid::adjust_velocity</text>
</a>
</g>
</g>
<!-- Node3&#45;&gt;Node4 -->
<g id="edge3" class="edge"><title>Node3&#45;&gt;Node4</title>
<path fill="none" stroke="midnightblue" d="M455.798,-95.5536C480.431,-88.2825 507.879,-80.1803 528.561,-74.0754"/>
<polygon fill="midnightblue" stroke="midnightblue" points="454.76,-92.2106 446.16,-98.3986 456.742,-98.9243 454.76,-92.2106"/>
</g>
<!-- Node5 -->
<g id="node5" class="node"><title>Node5</title>
<g id="a_node5"><a xlink:href="$classAC__Avoid.html#a95e227fdefd6f8c85b4d4888cad8993f" xlink:title="AC_Avoid::adjust_velocity">
<polygon fill="white" stroke="black" points="664,-77 664,-96 796,-96 796,-77 664,-77"/>
<text text-anchor="middle" x="730" y="-84" font-family="Helvetica,sans-Serif" font-size="10.00">AC_Avoid::adjust_velocity</text>
</a>
</g>
</g>
<!-- Node4&#45;&gt;Node5 -->
<g id="edge4" class="edge"><title>Node4&#45;&gt;Node5</title>
<path fill="none" stroke="midnightblue" d="M638.114,-74.4548C646.681,-75.5902 655.361,-76.7406 663.784,-77.8569"/>
<polygon fill="midnightblue" stroke="midnightblue" points="638.504,-70.9761 628.131,-73.1318 637.585,-77.9154 638.504,-70.9761"/>
</g>
<!-- Node6 -->
<g id="node6" class="node"><title>Node6</title>
<g id="a_node6"><a xlink:href="$classAC__WPNav.html#a3dbf7bda89b127cdc81bca29e2af25de" xlink:title="AC_WPNav::calc_loiter\l_desired_velocity">
<polygon fill="white" stroke="black" points="669.5,-27.5 669.5,-57.5 790.5,-57.5 790.5,-27.5 669.5,-27.5"/>
<text text-anchor="start" x="677.5" y="-45.5" font-family="Helvetica,sans-Serif" font-size="10.00">AC_WPNav::calc_loiter</text>
<text text-anchor="middle" x="730" y="-34.5" font-family="Helvetica,sans-Serif" font-size="10.00">_desired_velocity</text>
</a>
</g>
</g>
<!-- Node4&#45;&gt;Node6 -->
<g id="edge5" class="edge"><title>Node4&#45;&gt;Node6</title>
<path fill="none" stroke="midnightblue" d="M638.127,-54.5434C648.63,-53.1515 659.303,-51.737 669.464,-50.3903"/>
<polygon fill="midnightblue" stroke="midnightblue" points="637.585,-51.0846 628.131,-55.8682 638.504,-58.0239 637.585,-51.0846"/>
</g>
<!-- Node7 -->
<g id="node7" class="node"><title>Node7</title>
<g id="a_node7"><a xlink:href="$classAC__WPNav.html#a0a434270245fd8641352af387700dc82" xlink:title="update_loiter &#45; run the loiter controller &#45; should be called at 10hz ">
<polygon fill="white" stroke="black" points="832,-33 832,-52 964,-52 964,-33 832,-33"/>
<text text-anchor="middle" x="898" y="-40" font-family="Helvetica,sans-Serif" font-size="10.00">AC_WPNav::update_loiter</text>
</a>
</g>
</g>
<!-- Node6&#45;&gt;Node7 -->
<g id="edge6" class="edge"><title>Node6&#45;&gt;Node7</title>
<path fill="none" stroke="midnightblue" d="M801.027,-42.5C811.237,-42.5 821.716,-42.5 831.824,-42.5"/>
<polygon fill="midnightblue" stroke="midnightblue" points="800.93,-39.0001 790.93,-42.5 800.93,-46.0001 800.93,-39.0001"/>
</g>
<!-- Node8 -->
<g id="node8" class="node"><title>Node8</title>
<g id="a_node8"><a xlink:href="$classAC__WPNav.html#ae34a88192799de8f2b96c8cd295bb971" xlink:title="get_loiter_target &#45; returns loiter target position ">
<polygon fill="white" stroke="black" points="1000,-27.5 1000,-57.5 1116,-57.5 1116,-27.5 1000,-27.5"/>
<text text-anchor="start" x="1008" y="-45.5" font-family="Helvetica,sans-Serif" font-size="10.00">AC_WPNav::get_loiter</text>
<text text-anchor="middle" x="1058" y="-34.5" font-family="Helvetica,sans-Serif" font-size="10.00">_target</text>
</a>
</g>
</g>
<!-- Node7&#45;&gt;Node8 -->
<g id="edge7" class="edge"><title>Node7&#45;&gt;Node8</title>
<path fill="none" stroke="midnightblue" d="M974.429,-42.5C982.877,-42.5 991.38,-42.5 999.55,-42.5"/>
<polygon fill="midnightblue" stroke="midnightblue" points="974.177,-39.0001 964.177,-42.5 974.177,-46.0001 974.177,-39.0001"/>
</g>
<!-- Node9&#45;&gt;Node4 -->
<g id="edge9" class="edge"><title>Node9&#45;&gt;Node4</title>
<path fill="none" stroke="midnightblue" d="M470.393,-64.5C478.869,-64.5 487.452,-64.5 495.784,-64.5"/>
<polygon fill="midnightblue" stroke="midnightblue" points="470.131,-61.0001 460.131,-64.5 470.131,-68.0001 470.131,-61.0001"/>
</g>
<!-- Node10&#45;&gt;Node4 -->
<g id="edge11" class="edge"><title>Node10&#45;&gt;Node4</title>
<path fill="none" stroke="midnightblue" d="M455.798,-33.4464C480.431,-40.7175 507.879,-48.8197 528.561,-54.9246"/>
<polygon fill="midnightblue" stroke="midnightblue" points="456.742,-30.0757 446.16,-30.6014 454.76,-36.7894 456.742,-30.0757"/>
</g>
</g>
</svg>
