<?xml version="1.0" encoding="UTF-8" standalone="no"?>
<!DOCTYPE svg PUBLIC "-//W3C//DTD SVG 1.1//EN"
 "http://www.w3.org/Graphics/SVG/1.1/DTD/svg11.dtd">
<!-- Generated by graphviz version 2.38.0 (20140413.2041)
 -->
<!-- Title: AC_AttitudeControl::euler_accel_limit Pages: 1 -->
<svg width="513pt" height="161pt"
 viewBox="0.00 0.00 513.00 161.00" xmlns="http://www.w3.org/2000/svg" xmlns:xlink="http://www.w3.org/1999/xlink">
<g id="graph0" class="graph" transform="scale(1 1) rotate(0) translate(4 157)">
<title>AC_AttitudeControl::euler_accel_limit</title>
<polygon fill="white" stroke="none" points="-4,4 -4,-157 509,-157 509,4 -4,4"/>
<!-- Node1 -->
<g id="node1" class="node"><title>Node1</title>
<polygon fill="#bfbfbf" stroke="black" points="0,-33 0,-63 101,-63 101,-33 0,-33"/>
<text text-anchor="start" x="8" y="-51" font-family="Helvetica,sans-Serif" font-size="10.00">AC_AttitudeControl</text>
<text text-anchor="middle" x="50.5" y="-40" font-family="Helvetica,sans-Serif" font-size="10.00">::euler_accel_limit</text>
</g>
<!-- Node2 -->
<g id="node2" class="node"><title>Node2</title>
<g id="a_node2"><a xlink:href="$AP__Math_8h.html#ad525609d9dba6ffa556a0fbf08a3f9b4" xlink:title="constrain_float">
<polygon fill="white" stroke="black" points="137,-76.5 137,-95.5 217,-95.5 217,-76.5 137,-76.5"/>
<text text-anchor="middle" x="177" y="-83.5" font-family="Helvetica,sans-Serif" font-size="10.00">constrain_float</text>
</a>
</g>
</g>
<!-- Node1&#45;&gt;Node2 -->
<g id="edge1" class="edge"><title>Node1&#45;&gt;Node2</title>
<path fill="none" stroke="midnightblue" d="M100.706,-63.0186C112.05,-66.4811 124,-70.1284 134.954,-73.472"/>
<polygon fill="midnightblue" stroke="midnightblue" points="134.103,-76.8714 144.689,-76.4432 136.146,-70.1763 134.103,-76.8714"/>
</g>
<!-- Node8 -->
<g id="node8" class="node"><title>Node8</title>
<g id="a_node8"><a xlink:href="$AP__Math_8h.html#a2a12cce483e9b870da70d30406d82c60" xlink:title="is_zero">
<polygon fill="white" stroke="black" points="153,-38.5 153,-57.5 201,-57.5 201,-38.5 153,-38.5"/>
<text text-anchor="middle" x="177" y="-45.5" font-family="Helvetica,sans-Serif" font-size="10.00">is_zero</text>
</a>
</g>
</g>
<!-- Node1&#45;&gt;Node8 -->
<g id="edge7" class="edge"><title>Node1&#45;&gt;Node8</title>
<path fill="none" stroke="midnightblue" d="M101.063,-48C115.049,-48 129.928,-48 142.71,-48"/>
<polygon fill="midnightblue" stroke="midnightblue" points="142.888,-51.5001 152.888,-48 142.888,-44.5001 142.888,-51.5001"/>
</g>
<!-- Node9 -->
<g id="node9" class="node"><title>Node9</title>
<g id="a_node9"><a xlink:href="$AP__Math_8h.html#a6b187a3fa1e9f663e89175e7e8e213d6" xlink:title="MIN">
<polygon fill="white" stroke="black" points="159.5,-0.5 159.5,-19.5 194.5,-19.5 194.5,-0.5 159.5,-0.5"/>
<text text-anchor="middle" x="177" y="-7.5" font-family="Helvetica,sans-Serif" font-size="10.00">MIN</text>
</a>
</g>
</g>
<!-- Node1&#45;&gt;Node9 -->
<g id="edge8" class="edge"><title>Node1&#45;&gt;Node9</title>
<path fill="none" stroke="midnightblue" d="M100.706,-32.9814C117.442,-27.8732 135.495,-22.3629 149.728,-18.0188"/>
<polygon fill="midnightblue" stroke="midnightblue" points="150.8,-21.3511 159.343,-15.0842 148.756,-14.656 150.8,-21.3511"/>
</g>
<!-- Node3 -->
<g id="node3" class="node"><title>Node3</title>
<g id="a_node3"><a xlink:href="$AP__Math_8h.html#a20e8f8671c282c69c1954652b6d61585" xlink:title="constrain_value">
<polygon fill="white" stroke="black" points="253,-76.5 253,-95.5 338,-95.5 338,-76.5 253,-76.5"/>
<text text-anchor="middle" x="295.5" y="-83.5" font-family="Helvetica,sans-Serif" font-size="10.00">constrain_value</text>
</a>
</g>
</g>
<!-- Node2&#45;&gt;Node3 -->
<g id="edge2" class="edge"><title>Node2&#45;&gt;Node3</title>
<path fill="none" stroke="midnightblue" d="M217.117,-86C225.384,-86 234.229,-86 242.877,-86"/>
<polygon fill="midnightblue" stroke="midnightblue" points="242.892,-89.5001 252.892,-86 242.892,-82.5001 242.892,-89.5001"/>
</g>
<!-- Node4 -->
<g id="node4" class="node"><title>Node4</title>
<g id="a_node4"><a xlink:href="$AP__Math_8cpp.html#a37e8e901754cb9c8e53a8e3030c82c50" xlink:title="constrain_value\&lt; int \&gt;">
<polygon fill="white" stroke="black" points="383,-133.5 383,-152.5 496,-152.5 496,-133.5 383,-133.5"/>
<text text-anchor="middle" x="439.5" y="-140.5" font-family="Helvetica,sans-Serif" font-size="10.00">constrain_value&lt; int &gt;</text>
</a>
</g>
</g>
<!-- Node3&#45;&gt;Node4 -->
<g id="edge3" class="edge"><title>Node3&#45;&gt;Node4</title>
<path fill="none" stroke="midnightblue" d="M313.97,-95.6284C329.432,-103.891 352.774,-115.738 374,-124 379.854,-126.278 386.097,-128.439 392.307,-130.429"/>
<polygon fill="midnightblue" stroke="midnightblue" points="391.389,-133.809 401.977,-133.411 393.452,-127.12 391.389,-133.809"/>
</g>
<!-- Node5 -->
<g id="node5" class="node"><title>Node5</title>
<g id="a_node5"><a xlink:href="$AP__Math_8cpp.html#afdbe107ec1987d318a6347816fbf2b89" xlink:title="constrain_value\&lt; short \&gt;">
<polygon fill="white" stroke="black" points="377,-95.5 377,-114.5 502,-114.5 502,-95.5 377,-95.5"/>
<text text-anchor="middle" x="439.5" y="-102.5" font-family="Helvetica,sans-Serif" font-size="10.00">constrain_value&lt; short &gt;</text>
</a>
</g>
</g>
<!-- Node3&#45;&gt;Node5 -->
<g id="edge4" class="edge"><title>Node3&#45;&gt;Node5</title>
<path fill="none" stroke="midnightblue" d="M338.337,-91.5979C347.323,-92.8003 357.064,-94.1036 366.821,-95.4092"/>
<polygon fill="midnightblue" stroke="midnightblue" points="366.589,-98.9093 376.965,-96.7665 367.518,-91.9711 366.589,-98.9093"/>
</g>
<!-- Node6 -->
<g id="node6" class="node"><title>Node6</title>
<g id="a_node6"><a xlink:href="$AP__Math_8cpp.html#ae6c621670c214da687de21d4e3a92587" xlink:title="constrain_value\&lt; float \&gt;">
<polygon fill="white" stroke="black" points="378.5,-57.5 378.5,-76.5 500.5,-76.5 500.5,-57.5 378.5,-57.5"/>
<text text-anchor="middle" x="439.5" y="-64.5" font-family="Helvetica,sans-Serif" font-size="10.00">constrain_value&lt; float &gt;</text>
</a>
</g>
</g>
<!-- Node3&#45;&gt;Node6 -->
<g id="edge5" class="edge"><title>Node3&#45;&gt;Node6</title>
<path fill="none" stroke="midnightblue" d="M338.337,-80.4021C347.724,-79.146 357.935,-77.7798 368.129,-76.4159"/>
<polygon fill="midnightblue" stroke="midnightblue" points="368.838,-79.8522 378.286,-75.0568 367.91,-72.9141 368.838,-79.8522"/>
</g>
<!-- Node7 -->
<g id="node7" class="node"><title>Node7</title>
<g id="a_node7"><a xlink:href="$AP__Math_8cpp.html#afe3990b00e9abc43fa97dfaf8e32f5c4" xlink:title="constrain_value\&lt; double \&gt;">
<polygon fill="white" stroke="black" points="374,-19.5 374,-38.5 505,-38.5 505,-19.5 374,-19.5"/>
<text text-anchor="middle" x="439.5" y="-26.5" font-family="Helvetica,sans-Serif" font-size="10.00">constrain_value&lt; double &gt;</text>
</a>
</g>
</g>
<!-- Node3&#45;&gt;Node7 -->
<g id="edge6" class="edge"><title>Node3&#45;&gt;Node7</title>
<path fill="none" stroke="midnightblue" d="M313.97,-76.3716C329.432,-68.109 352.774,-56.2616 374,-48 379.854,-45.7215 386.097,-43.5614 392.307,-41.5705"/>
<polygon fill="midnightblue" stroke="midnightblue" points="393.452,-44.88 401.977,-38.5887 391.389,-38.1908 393.452,-44.88"/>
</g>
</g>
</svg>
