<?xml version="1.0" encoding="UTF-8" standalone="no"?>
<!DOCTYPE svg PUBLIC "-//W3C//DTD SVG 1.1//EN"
 "http://www.w3.org/Graphics/SVG/1.1/DTD/svg11.dtd">
<!-- Generated by graphviz version 2.38.0 (20140413.2041)
 -->
<!-- Title: AC_PID::set_input_filter_all Pages: 1 -->
<svg width="383pt" height="28pt"
 viewBox="0.00 0.00 383.00 28.00" xmlns="http://www.w3.org/2000/svg" xmlns:xlink="http://www.w3.org/1999/xlink">
<g id="graph0" class="graph" transform="scale(1 1) rotate(0) translate(4 24)">
<title>AC_PID::set_input_filter_all</title>
<polygon fill="white" stroke="none" points="-4,4 -4,-24 379,-24 379,4 -4,4"/>
<!-- Node1 -->
<g id="node1" class="node"><title>Node1</title>
<polygon fill="#bfbfbf" stroke="black" points="0,-0.5 0,-19.5 138,-19.5 138,-0.5 0,-0.5"/>
<text text-anchor="middle" x="69" y="-7.5" font-family="Helvetica,sans-Serif" font-size="10.00">AC_PID::set_input_filter_all</text>
</g>
<!-- Node2 -->
<g id="node2" class="node"><title>Node2</title>
<g id="a_node2"><a xlink:href="$classAC__PID.html#ac12ffbd4fd053c6152d403b69e07b8e1" xlink:title="AC_PID::get_filt_alpha">
<polygon fill="white" stroke="black" points="174,-0.5 174,-19.5 291,-19.5 291,-0.5 174,-0.5"/>
<text text-anchor="middle" x="232.5" y="-7.5" font-family="Helvetica,sans-Serif" font-size="10.00">AC_PID::get_filt_alpha</text>
</a>
</g>
</g>
<!-- Node1&#45;&gt;Node2 -->
<g id="edge1" class="edge"><title>Node1&#45;&gt;Node2</title>
<path fill="none" stroke="midnightblue" d="M138.022,-10C146.48,-10 155.129,-10 163.584,-10"/>
<polygon fill="midnightblue" stroke="midnightblue" points="163.777,-13.5001 173.777,-10 163.777,-6.5001 163.777,-13.5001"/>
</g>
<!-- Node3 -->
<g id="node3" class="node"><title>Node3</title>
<g id="a_node3"><a xlink:href="$AP__Math_8h.html#a2a12cce483e9b870da70d30406d82c60" xlink:title="is_zero">
<polygon fill="white" stroke="black" points="327,-0.5 327,-19.5 375,-19.5 375,-0.5 327,-0.5"/>
<text text-anchor="middle" x="351" y="-7.5" font-family="Helvetica,sans-Serif" font-size="10.00">is_zero</text>
</a>
</g>
</g>
<!-- Node2&#45;&gt;Node3 -->
<g id="edge2" class="edge"><title>Node2&#45;&gt;Node3</title>
<path fill="none" stroke="midnightblue" d="M291.067,-10C299.916,-10 308.786,-10 316.86,-10"/>
<polygon fill="midnightblue" stroke="midnightblue" points="316.946,-13.5001 326.946,-10 316.946,-6.5001 316.946,-13.5001"/>
</g>
</g>
</svg>
