<?xml version="1.0" encoding="UTF-8" standalone="no"?>
<!DOCTYPE svg PUBLIC "-//W3C//DTD SVG 1.1//EN"
 "http://www.w3.org/Graphics/SVG/1.1/DTD/svg11.dtd">
<!-- Generated by graphviz version 2.38.0 (20140413.2041)
 -->
<!-- Title: AC_AttitudeControl_Heli::rate_controller_run Pages: 1 -->
<svg width="817pt" height="670pt"
 viewBox="0.00 0.00 817.00 669.50" xmlns="http://www.w3.org/2000/svg" xmlns:xlink="http://www.w3.org/1999/xlink">
<g id="graph0" class="graph" transform="scale(1 1) rotate(0) translate(4 665.5)">
<title>AC_AttitudeControl_Heli::rate_controller_run</title>
<polygon fill="white" stroke="none" points="-4,4 -4,-665.5 813,-665.5 813,4 -4,4"/>
<!-- Node1 -->
<g id="node1" class="node"><title>Node1</title>
<polygon fill="#bfbfbf" stroke="black" points="0,-302 0,-332 125,-332 125,-302 0,-302"/>
<text text-anchor="start" x="8" y="-320" font-family="Helvetica,sans-Serif" font-size="10.00">AC_AttitudeControl</text>
<text text-anchor="middle" x="62.5" y="-309" font-family="Helvetica,sans-Serif" font-size="10.00">_Heli::rate_controller_run</text>
</g>
<!-- Node2 -->
<g id="node2" class="node"><title>Node2</title>
<g id="a_node2"><a xlink:href="$classAP__AHRS__View.html#aec99fce6a0287cfe2542ed2b7459d4d1" xlink:title="AP_AHRS_View::get_gyro\l_latest">
<polygon fill="white" stroke="black" points="161,-527 161,-557 295,-557 295,-527 161,-527"/>
<text text-anchor="start" x="169" y="-545" font-family="Helvetica,sans-Serif" font-size="10.00">AP_AHRS_View::get_gyro</text>
<text text-anchor="middle" x="228" y="-534" font-family="Helvetica,sans-Serif" font-size="10.00">_latest</text>
</a>
</g>
</g>
<!-- Node1&#45;&gt;Node2 -->
<g id="edge1" class="edge"><title>Node1&#45;&gt;Node2</title>
<path fill="none" stroke="midnightblue" d="M70.9362,-332.031C85.8757,-361.523 121.502,-428.415 161,-478 173.024,-493.094 188.412,-508.206 201.304,-519.953"/>
<polygon fill="midnightblue" stroke="midnightblue" points="199.171,-522.741 208.957,-526.801 203.839,-517.524 199.171,-522.741"/>
</g>
<!-- Node10 -->
<g id="node10" class="node"><title>Node10</title>
<g id="a_node10"><a xlink:href="$classAP__Motors.html#a6d8205956720e8f6afb1d2c403f66b64" xlink:title="AP_Motors::set_roll">
<polygon fill="white" stroke="black" points="348.5,-494.5 348.5,-513.5 451.5,-513.5 451.5,-494.5 348.5,-494.5"/>
<text text-anchor="middle" x="400" y="-501.5" font-family="Helvetica,sans-Serif" font-size="10.00">AP_Motors::set_roll</text>
</a>
</g>
</g>
<!-- Node1&#45;&gt;Node10 -->
<g id="edge9" class="edge"><title>Node1&#45;&gt;Node10</title>
<path fill="none" stroke="midnightblue" d="M75.2474,-332.137C92.2209,-353.153 125.485,-391.258 161,-415 218.933,-453.729 295.992,-478.55 346.514,-491.88"/>
<polygon fill="midnightblue" stroke="midnightblue" points="345.694,-495.283 356.251,-494.394 347.444,-488.505 345.694,-495.283"/>
</g>
<!-- Node11 -->
<g id="node11" class="node"><title>Node11</title>
<g id="a_node11"><a xlink:href="$classAP__Motors.html#a81b4dce8b2b85b5e7042f7ccb6744afc" xlink:title="AP_Motors::set_pitch">
<polygon fill="white" stroke="black" points="344.5,-456.5 344.5,-475.5 455.5,-475.5 455.5,-456.5 344.5,-456.5"/>
<text text-anchor="middle" x="400" y="-463.5" font-family="Helvetica,sans-Serif" font-size="10.00">AP_Motors::set_pitch</text>
</a>
</g>
</g>
<!-- Node1&#45;&gt;Node11 -->
<g id="edge10" class="edge"><title>Node1&#45;&gt;Node11</title>
<path fill="none" stroke="midnightblue" d="M90.5033,-332.151C137.974,-358.319 239.991,-412.493 331,-447 337.238,-449.365 343.896,-451.583 350.515,-453.61"/>
<polygon fill="midnightblue" stroke="midnightblue" points="349.549,-456.974 360.13,-456.438 351.524,-450.258 349.549,-456.974"/>
</g>
<!-- Node12 -->
<g id="node12" class="node"><title>Node12</title>
<g id="a_node12"><a xlink:href="$classAC__AttitudeControl__Heli.html#ae1e17847d017cc4f71e36397df689ddb" xlink:title="AC_AttitudeControl\l_Heli::rate_bf_to_motor\l_roll_pitch">
<polygon fill="white" stroke="black" points="168.5,-255.5 168.5,-296.5 287.5,-296.5 287.5,-255.5 168.5,-255.5"/>
<text text-anchor="start" x="176.5" y="-284.5" font-family="Helvetica,sans-Serif" font-size="10.00">AC_AttitudeControl</text>
<text text-anchor="start" x="176.5" y="-273.5" font-family="Helvetica,sans-Serif" font-size="10.00">_Heli::rate_bf_to_motor</text>
<text text-anchor="middle" x="228" y="-262.5" font-family="Helvetica,sans-Serif" font-size="10.00">_roll_pitch</text>
</a>
</g>
</g>
<!-- Node1&#45;&gt;Node12 -->
<g id="edge11" class="edge"><title>Node1&#45;&gt;Node12</title>
<path fill="none" stroke="midnightblue" d="M123.453,-301.966C134.916,-299.091 146.997,-296.062 158.699,-293.127"/>
<polygon fill="midnightblue" stroke="midnightblue" points="159.57,-296.518 168.418,-290.69 157.867,-289.728 159.57,-296.518"/>
</g>
<!-- Node32 -->
<g id="node32" class="node"><title>Node32</title>
<g id="a_node32"><a xlink:href="$classAP__Motors.html#aeffa3aa472e13049df93f68ea7c2994b" xlink:title="AP_Motors::set_yaw">
<polygon fill="white" stroke="black" points="174,-141.5 174,-160.5 282,-160.5 282,-141.5 174,-141.5"/>
<text text-anchor="middle" x="228" y="-148.5" font-family="Helvetica,sans-Serif" font-size="10.00">AP_Motors::set_yaw</text>
</a>
</g>
</g>
<!-- Node1&#45;&gt;Node32 -->
<g id="edge35" class="edge"><title>Node1&#45;&gt;Node32</title>
<path fill="none" stroke="midnightblue" d="M69.2666,-301.954C81.4792,-272.121 112.843,-205.313 161,-170 163.644,-168.061 166.482,-166.319 169.441,-164.755"/>
<polygon fill="midnightblue" stroke="midnightblue" points="170.964,-167.907 178.611,-160.574 168.06,-161.538 170.964,-167.907"/>
</g>
<!-- Node33 -->
<g id="node33" class="node"><title>Node33</title>
<g id="a_node33"><a xlink:href="$classAC__AttitudeControl__Heli.html#aef34dd1057c38a30edc419bdfc257bab" xlink:title="AC_AttitudeControl\l_Heli::rate_target_to\l_motor_yaw">
<polygon fill="white" stroke="black" points="175.5,-179.5 175.5,-220.5 280.5,-220.5 280.5,-179.5 175.5,-179.5"/>
<text text-anchor="start" x="183.5" y="-208.5" font-family="Helvetica,sans-Serif" font-size="10.00">AC_AttitudeControl</text>
<text text-anchor="start" x="183.5" y="-197.5" font-family="Helvetica,sans-Serif" font-size="10.00">_Heli::rate_target_to</text>
<text text-anchor="middle" x="228" y="-186.5" font-family="Helvetica,sans-Serif" font-size="10.00">_motor_yaw</text>
</a>
</g>
</g>
<!-- Node1&#45;&gt;Node33 -->
<g id="edge36" class="edge"><title>Node1&#45;&gt;Node33</title>
<path fill="none" stroke="midnightblue" d="M83.9536,-301.917C103.62,-287.458 134.225,-265.076 161,-246 169.879,-239.674 179.479,-232.929 188.535,-226.609"/>
<polygon fill="midnightblue" stroke="midnightblue" points="190.804,-229.295 197.01,-220.708 186.803,-223.55 190.804,-229.295"/>
</g>
<!-- Node3 -->
<g id="node3" class="node"><title>Node3</title>
<g id="a_node3"><a xlink:href="$classAP__AHRS.html#a13ab26b0126885606c1d596072f8af04" xlink:title="AP_AHRS::get_gyro_latest">
<polygon fill="white" stroke="black" points="331.5,-570.5 331.5,-589.5 468.5,-589.5 468.5,-570.5 331.5,-570.5"/>
<text text-anchor="middle" x="400" y="-577.5" font-family="Helvetica,sans-Serif" font-size="10.00">AP_AHRS::get_gyro_latest</text>
</a>
</g>
</g>
<!-- Node2&#45;&gt;Node3 -->
<g id="edge2" class="edge"><title>Node2&#45;&gt;Node3</title>
<path fill="none" stroke="midnightblue" d="M295.213,-556.801C312.276,-560.615 330.401,-564.666 346.649,-568.298"/>
<polygon fill="midnightblue" stroke="midnightblue" points="345.975,-571.734 356.498,-570.499 347.502,-564.902 345.975,-571.734"/>
</g>
<!-- Node9 -->
<g id="node9" class="node"><title>Node9</title>
<g id="a_node9"><a xlink:href="$classVector3.html#a53d5701ae2db9492944550927279b7b8" xlink:title="Vector3::rotate">
<polygon fill="white" stroke="black" points="359.5,-532.5 359.5,-551.5 440.5,-551.5 440.5,-532.5 359.5,-532.5"/>
<text text-anchor="middle" x="400" y="-539.5" font-family="Helvetica,sans-Serif" font-size="10.00">Vector3::rotate</text>
</a>
</g>
</g>
<!-- Node2&#45;&gt;Node9 -->
<g id="edge8" class="edge"><title>Node2&#45;&gt;Node9</title>
<path fill="none" stroke="midnightblue" d="M295.213,-542C313.125,-542 332.208,-542 349.061,-542"/>
<polygon fill="midnightblue" stroke="midnightblue" points="349.236,-545.5 359.236,-542 349.236,-538.5 349.236,-545.5"/>
</g>
<!-- Node4 -->
<g id="node4" class="node"><title>Node4</title>
<g id="a_node4"><a xlink:href="$classAP__AHRS.html#adf9f5cf9e3df1b4318252d07e2817993" xlink:title="AP_AHRS::get_primary\l_gyro_index">
<polygon fill="white" stroke="black" points="513,-631 513,-661 634,-661 634,-631 513,-631"/>
<text text-anchor="start" x="521" y="-649" font-family="Helvetica,sans-Serif" font-size="10.00">AP_AHRS::get_primary</text>
<text text-anchor="middle" x="573.5" y="-638" font-family="Helvetica,sans-Serif" font-size="10.00">_gyro_index</text>
</a>
</g>
</g>
<!-- Node3&#45;&gt;Node4 -->
<g id="edge3" class="edge"><title>Node3&#45;&gt;Node4</title>
<path fill="none" stroke="midnightblue" d="M424.903,-589.587C445.947,-597.988 477.444,-610.467 505,-621 510.459,-623.087 516.176,-625.245 521.875,-627.38"/>
<polygon fill="midnightblue" stroke="midnightblue" points="520.806,-630.717 531.399,-630.933 523.253,-624.158 520.806,-630.717"/>
</g>
<!-- Node6 -->
<g id="node6" class="node"><title>Node6</title>
<g id="a_node6"><a xlink:href="$classAP__AHRS.html#a14398c5d2ae68bbe1c67482a91909ad9" xlink:title="AP_AHRS::get_ins">
<polygon fill="white" stroke="black" points="523,-592.5 523,-611.5 624,-611.5 624,-592.5 523,-592.5"/>
<text text-anchor="middle" x="573.5" y="-599.5" font-family="Helvetica,sans-Serif" font-size="10.00">AP_AHRS::get_ins</text>
</a>
</g>
</g>
<!-- Node3&#45;&gt;Node6 -->
<g id="edge5" class="edge"><title>Node3&#45;&gt;Node6</title>
<path fill="none" stroke="midnightblue" d="M468.781,-588.695C483.322,-590.56 498.585,-592.518 512.793,-594.341"/>
<polygon fill="midnightblue" stroke="midnightblue" points="512.563,-597.84 522.927,-595.641 513.454,-590.897 512.563,-597.84"/>
</g>
<!-- Node7 -->
<g id="node7" class="node"><title>Node7</title>
<g id="a_node7"><a xlink:href="$classAP__InertialSensor.html#a6df2d8ad956d4f375bdee541102f16af" xlink:title="AP_InertialSensor::\lget_gyro">
<polygon fill="white" stroke="black" points="523,-543 523,-573 624,-573 624,-543 523,-543"/>
<text text-anchor="start" x="531" y="-561" font-family="Helvetica,sans-Serif" font-size="10.00">AP_InertialSensor::</text>
<text text-anchor="middle" x="573.5" y="-550" font-family="Helvetica,sans-Serif" font-size="10.00">get_gyro</text>
</a>
</g>
</g>
<!-- Node3&#45;&gt;Node7 -->
<g id="edge6" class="edge"><title>Node3&#45;&gt;Node7</title>
<path fill="none" stroke="midnightblue" d="M468.781,-571.305C483.322,-569.44 498.585,-567.482 512.793,-565.659"/>
<polygon fill="midnightblue" stroke="midnightblue" points="513.454,-569.103 522.927,-564.359 512.563,-562.16 513.454,-569.103"/>
</g>
<!-- Node8 -->
<g id="node8" class="node"><title>Node8</title>
<g id="a_node8"><a xlink:href="$classAP__AHRS.html#a6876435645c1049077f33f225ab828f7" xlink:title="AP_AHRS::get_gyro_drift">
<polygon fill="white" stroke="black" points="509,-504.5 509,-523.5 638,-523.5 638,-504.5 509,-504.5"/>
<text text-anchor="middle" x="573.5" y="-511.5" font-family="Helvetica,sans-Serif" font-size="10.00">AP_AHRS::get_gyro_drift</text>
</a>
</g>
</g>
<!-- Node3&#45;&gt;Node8 -->
<g id="edge7" class="edge"><title>Node3&#45;&gt;Node8</title>
<path fill="none" stroke="midnightblue" d="M444.339,-570.493C452.732,-567.933 461.304,-564.794 469,-561 486.939,-552.157 487.131,-542.982 505,-534 510.317,-531.327 516.053,-528.948 521.856,-526.847"/>
<polygon fill="midnightblue" stroke="midnightblue" points="523.256,-530.069 531.624,-523.571 521.03,-523.432 523.256,-530.069"/>
</g>
<!-- Node5 -->
<g id="node5" class="node"><title>Node5</title>
<g id="a_node5"><a xlink:href="$classAP__InertialSensor.html#a7fa04e2f196b27b876d86966f64e1fed" xlink:title="AP_InertialSensor::\lget_primary_gyro">
<polygon fill="white" stroke="black" points="693,-631 693,-661 794,-661 794,-631 693,-631"/>
<text text-anchor="start" x="701" y="-649" font-family="Helvetica,sans-Serif" font-size="10.00">AP_InertialSensor::</text>
<text text-anchor="middle" x="743.5" y="-638" font-family="Helvetica,sans-Serif" font-size="10.00">get_primary_gyro</text>
</a>
</g>
</g>
<!-- Node4&#45;&gt;Node5 -->
<g id="edge4" class="edge"><title>Node4&#45;&gt;Node5</title>
<path fill="none" stroke="midnightblue" d="M634.204,-646C649.986,-646 667.021,-646 682.803,-646"/>
<polygon fill="midnightblue" stroke="midnightblue" points="682.968,-649.5 692.968,-646 682.968,-642.5 682.968,-649.5"/>
</g>
<!-- Node12&#45;&gt;Node10 -->
<g id="edge31" class="edge"><title>Node12&#45;&gt;Node10</title>
<path fill="none" stroke="midnightblue" d="M233.163,-296.713C242.709,-338.744 270.2,-434.346 331,-485 333.543,-487.118 336.306,-489.001 339.214,-490.675"/>
<polygon fill="midnightblue" stroke="midnightblue" points="337.776,-493.868 348.299,-495.093 340.837,-487.572 337.776,-493.868"/>
</g>
<!-- Node12&#45;&gt;Node11 -->
<g id="edge32" class="edge"><title>Node12&#45;&gt;Node11</title>
<path fill="none" stroke="midnightblue" d="M253.344,-296.646C267.129,-309.405 283.8,-326.783 295,-345 320.178,-385.953 295.89,-414.161 331,-447 332.673,-448.565 334.464,-450.002 336.347,-451.323"/>
<polygon fill="midnightblue" stroke="midnightblue" points="334.703,-454.415 345.111,-456.395 338.209,-448.357 334.703,-454.415"/>
</g>
<!-- Node13 -->
<g id="node13" class="node"><title>Node13</title>
<g id="a_node13"><a xlink:href="$classAC__PID.html#ac267330f1299f011febcaaba47994af7" xlink:title="AC_PID::set_input_filter_all">
<polygon fill="white" stroke="black" points="331,-266.5 331,-285.5 469,-285.5 469,-266.5 331,-266.5"/>
<text text-anchor="middle" x="400" y="-273.5" font-family="Helvetica,sans-Serif" font-size="10.00">AC_PID::set_input_filter_all</text>
</a>
</g>
</g>
<!-- Node12&#45;&gt;Node13 -->
<g id="edge12" class="edge"><title>Node12&#45;&gt;Node13</title>
<path fill="none" stroke="midnightblue" d="M287.504,-276C298.167,-276 309.447,-276 320.577,-276"/>
<polygon fill="midnightblue" stroke="midnightblue" points="320.733,-279.5 330.733,-276 320.733,-272.5 320.733,-279.5"/>
</g>
<!-- Node16 -->
<g id="node16" class="node"><title>Node16</title>
<g id="a_node16"><a xlink:href="$classAC__PID.html#a3f727ab395b401474027b6b9efcab5a3" xlink:title="AC_PID::set_desired_rate">
<polygon fill="white" stroke="black" points="334.5,-152.5 334.5,-171.5 465.5,-171.5 465.5,-152.5 334.5,-152.5"/>
<text text-anchor="middle" x="400" y="-159.5" font-family="Helvetica,sans-Serif" font-size="10.00">AC_PID::set_desired_rate</text>
</a>
</g>
</g>
<!-- Node12&#45;&gt;Node16 -->
<g id="edge15" class="edge"><title>Node12&#45;&gt;Node16</title>
<path fill="none" stroke="midnightblue" d="M263.208,-255.295C273.964,-247.988 285.502,-239.264 295,-230 314.345,-211.131 308.77,-196.366 331,-181 333.912,-178.987 337.031,-177.187 340.276,-175.577"/>
<polygon fill="midnightblue" stroke="midnightblue" points="341.88,-178.697 349.677,-171.523 339.109,-172.269 341.88,-178.697"/>
</g>
<!-- Node17 -->
<g id="node17" class="node"><title>Node17</title>
<g id="a_node17"><a xlink:href="$classAC__PID.html#a4808bb2656a1e8d94c713e58a7a2a222" xlink:title="AC_PID::get_p">
<polygon fill="white" stroke="black" points="358.5,-114.5 358.5,-133.5 441.5,-133.5 441.5,-114.5 358.5,-114.5"/>
<text text-anchor="middle" x="400" y="-121.5" font-family="Helvetica,sans-Serif" font-size="10.00">AC_PID::get_p</text>
</a>
</g>
</g>
<!-- Node12&#45;&gt;Node17 -->
<g id="edge16" class="edge"><title>Node12&#45;&gt;Node17</title>
<path fill="none" stroke="midnightblue" d="M266.328,-255.416C276.627,-248.39 287.123,-239.796 295,-230 321.222,-197.389 299.691,-170.764 331,-143 336.114,-138.465 342.227,-135.004 348.661,-132.364"/>
<polygon fill="midnightblue" stroke="midnightblue" points="349.929,-135.629 358.238,-129.055 347.643,-129.013 349.929,-135.629"/>
</g>
<!-- Node18 -->
<g id="node18" class="node"><title>Node18</title>
<g id="a_node18"><a xlink:href="$classAC__PID.html#ad0c0510049ea37401920792e843bec86" xlink:title="AC_PID::get_d">
<polygon fill="white" stroke="black" points="358.5,-76.5 358.5,-95.5 441.5,-95.5 441.5,-76.5 358.5,-76.5"/>
<text text-anchor="middle" x="400" y="-83.5" font-family="Helvetica,sans-Serif" font-size="10.00">AC_PID::get_d</text>
</a>
</g>
</g>
<!-- Node12&#45;&gt;Node18 -->
<g id="edge17" class="edge"><title>Node12&#45;&gt;Node18</title>
<path fill="none" stroke="midnightblue" d="M267.722,-255.482C277.812,-248.553 287.846,-239.994 295,-230 328.651,-182.989 289.957,-145.718 331,-105 335.97,-100.07 342.106,-96.3936 348.641,-93.6575"/>
<polygon fill="midnightblue" stroke="midnightblue" points="350.102,-96.8561 358.412,-90.2847 347.818,-90.2392 350.102,-96.8561"/>
</g>
<!-- Node19 -->
<g id="node19" class="node"><title>Node19</title>
<g id="a_node19"><a xlink:href="$classAC__PID.html#a0fc275cae5ff46799af85af551c65870" xlink:title="AC_PID::get_integrator">
<polygon fill="white" stroke="black" points="340.5,-38.5 340.5,-57.5 459.5,-57.5 459.5,-38.5 340.5,-38.5"/>
<text text-anchor="middle" x="400" y="-45.5" font-family="Helvetica,sans-Serif" font-size="10.00">AC_PID::get_integrator</text>
</a>
</g>
</g>
<!-- Node12&#45;&gt;Node19 -->
<g id="edge18" class="edge"><title>Node12&#45;&gt;Node19</title>
<path fill="none" stroke="midnightblue" d="M268.822,-255.292C278.68,-248.449 288.32,-239.983 295,-230 336.26,-168.341 280.004,-120.885 331,-67 332.245,-65.684 333.574,-64.4567 334.971,-63.3121"/>
<polygon fill="midnightblue" stroke="midnightblue" points="337.199,-66.0366 343.635,-57.6212 333.356,-60.1858 337.199,-66.0366"/>
</g>
<!-- Node20 -->
<g id="node20" class="node"><title>Node20</title>
<g id="a_node20"><a xlink:href="$classAC__HELI__PID.html#a97915f24591e2c9c5b4c42867446b31e" xlink:title="get_leaky_i &#45; replacement for get_i but output is leaded at leak_rate ">
<polygon fill="white" stroke="black" points="505,-323.5 505,-342.5 642,-342.5 642,-323.5 505,-323.5"/>
<text text-anchor="middle" x="573.5" y="-330.5" font-family="Helvetica,sans-Serif" font-size="10.00">AC_HELI_PID::get_leaky_i</text>
</a>
</g>
</g>
<!-- Node12&#45;&gt;Node20 -->
<g id="edge19" class="edge"><title>Node12&#45;&gt;Node20</title>
<path fill="none" stroke="midnightblue" d="M256.768,-296.67C276.386,-309.932 303.909,-325.944 331,-333 384.504,-346.936 446.968,-346.514 494.963,-342.829"/>
<polygon fill="midnightblue" stroke="midnightblue" points="495.301,-346.313 504.977,-341.997 494.721,-339.337 495.301,-346.313"/>
</g>
<!-- Node21 -->
<g id="node21" class="node"><title>Node21</title>
<g id="a_node21"><a xlink:href="$classAC__PID.html#a2d5bf9811a78c93a396ec1e37ae6fa0a" xlink:title="AC_PID::get_i">
<polygon fill="white" stroke="black" points="360,-228.5 360,-247.5 440,-247.5 440,-228.5 360,-228.5"/>
<text text-anchor="middle" x="400" y="-235.5" font-family="Helvetica,sans-Serif" font-size="10.00">AC_PID::get_i</text>
</a>
</g>
</g>
<!-- Node12&#45;&gt;Node21 -->
<g id="edge21" class="edge"><title>Node12&#45;&gt;Node21</title>
<path fill="none" stroke="midnightblue" d="M287.504,-262.923C307.87,-258.37 330.489,-253.314 350.004,-248.952"/>
<polygon fill="midnightblue" stroke="midnightblue" points="350.901,-252.338 359.897,-246.741 349.374,-245.507 350.901,-252.338"/>
</g>
<!-- Node22 -->
<g id="node22" class="node"><title>Node22</title>
<g id="a_node22"><a xlink:href="$classLowPassFilter.html#aa390849d2e18ff3287f92b89d8657841" xlink:title="LowPassFilter::apply">
<polygon fill="white" stroke="black" points="346,-0.5 346,-19.5 454,-19.5 454,-0.5 346,-0.5"/>
<text text-anchor="middle" x="400" y="-7.5" font-family="Helvetica,sans-Serif" font-size="10.00">LowPassFilter::apply</text>
</a>
</g>
</g>
<!-- Node12&#45;&gt;Node22 -->
<g id="edge23" class="edge"><title>Node12&#45;&gt;Node22</title>
<path fill="none" stroke="midnightblue" d="M269.089,-255.467C278.948,-248.625 288.522,-240.115 295,-230 343.949,-153.577 269.954,-96.1553 331,-29 332.804,-27.0159 334.796,-25.2321 336.93,-23.6289"/>
<polygon fill="midnightblue" stroke="midnightblue" points="339.018,-26.4575 345.777,-18.2989 335.405,-20.4616 339.018,-26.4575"/>
</g>
<!-- Node23 -->
<g id="node23" class="node"><title>Node23</title>
<g id="a_node23"><a xlink:href="$classAC__PID.html#af8b4c040c43a28fbe025de765f38e90d" xlink:title="AC_PID::get_ff">
<polygon fill="white" stroke="black" points="358,-304.5 358,-323.5 442,-323.5 442,-304.5 358,-304.5"/>
<text text-anchor="middle" x="400" y="-311.5" font-family="Helvetica,sans-Serif" font-size="10.00">AC_PID::get_ff</text>
</a>
</g>
</g>
<!-- Node12&#45;&gt;Node23 -->
<g id="edge24" class="edge"><title>Node12&#45;&gt;Node23</title>
<path fill="none" stroke="midnightblue" d="M287.504,-289.077C307.125,-293.463 328.838,-298.317 347.851,-302.567"/>
<polygon fill="midnightblue" stroke="midnightblue" points="347.289,-306.027 357.812,-304.793 348.817,-299.196 347.289,-306.027"/>
</g>
<!-- Node24 -->
<g id="node24" class="node"><title>Node24</title>
<g id="a_node24"><a xlink:href="$AP__Math_8h.html#ad525609d9dba6ffa556a0fbf08a3f9b4" xlink:title="constrain_float">
<polygon fill="white" stroke="black" points="360,-190.5 360,-209.5 440,-209.5 440,-190.5 360,-190.5"/>
<text text-anchor="middle" x="400" y="-197.5" font-family="Helvetica,sans-Serif" font-size="10.00">constrain_float</text>
</a>
</g>
</g>
<!-- Node12&#45;&gt;Node24 -->
<g id="edge25" class="edge"><title>Node12&#45;&gt;Node24</title>
<path fill="none" stroke="midnightblue" d="M261.086,-255.473C280.697,-243.593 306.619,-229.051 331,-219 337.167,-216.457 343.786,-214.137 350.384,-212.06"/>
<polygon fill="midnightblue" stroke="midnightblue" points="351.404,-215.408 359.984,-209.192 349.4,-208.701 351.404,-215.408"/>
</g>
<!-- Node30 -->
<g id="node30" class="node"><title>Node30</title>
<g id="a_node30"><a xlink:href="$structVector2.html#ace2a626eaa79412e2946216e9c3e63c6" xlink:title="Vector2::normalize">
<polygon fill="white" stroke="black" points="351,-380.5 351,-399.5 449,-399.5 449,-380.5 351,-380.5"/>
<text text-anchor="middle" x="400" y="-387.5" font-family="Helvetica,sans-Serif" font-size="10.00">Vector2::normalize</text>
</a>
</g>
</g>
<!-- Node12&#45;&gt;Node30 -->
<g id="edge33" class="edge"><title>Node12&#45;&gt;Node30</title>
<path fill="none" stroke="midnightblue" d="M247.89,-296.78C267.117,-316.869 298.623,-346.981 331,-366 338.214,-370.238 346.295,-373.898 354.3,-376.995"/>
<polygon fill="midnightblue" stroke="midnightblue" points="353.367,-380.379 363.962,-380.492 355.75,-373.797 353.367,-380.379"/>
</g>
<!-- Node31 -->
<g id="node31" class="node"><title>Node31</title>
<g id="a_node31"><a xlink:href="$classAC__PID.html#a0ae837f35a5f8886c192e0400b1c5b4c" xlink:title="AC_PID::set_integrator">
<polygon fill="white" stroke="black" points="340.5,-418.5 340.5,-437.5 459.5,-437.5 459.5,-418.5 340.5,-418.5"/>
<text text-anchor="middle" x="400" y="-425.5" font-family="Helvetica,sans-Serif" font-size="10.00">AC_PID::set_integrator</text>
</a>
</g>
</g>
<!-- Node12&#45;&gt;Node31 -->
<g id="edge34" class="edge"><title>Node12&#45;&gt;Node31</title>
<path fill="none" stroke="midnightblue" d="M251.283,-296.51C264.831,-309.624 281.971,-327.42 295,-345 314.432,-371.22 305.327,-388.851 331,-409 333.305,-410.809 335.773,-412.446 338.352,-413.927"/>
<polygon fill="midnightblue" stroke="midnightblue" points="336.96,-417.142 347.481,-418.387 340.032,-410.853 336.96,-417.142"/>
</g>
<!-- Node14 -->
<g id="node14" class="node"><title>Node14</title>
<g id="a_node14"><a xlink:href="$classAC__PID.html#ac12ffbd4fd053c6152d403b69e07b8e1" xlink:title="AC_PID::get_filt_alpha">
<polygon fill="white" stroke="black" points="515,-266.5 515,-285.5 632,-285.5 632,-266.5 515,-266.5"/>
<text text-anchor="middle" x="573.5" y="-273.5" font-family="Helvetica,sans-Serif" font-size="10.00">AC_PID::get_filt_alpha</text>
</a>
</g>
</g>
<!-- Node13&#45;&gt;Node14 -->
<g id="edge13" class="edge"><title>Node13&#45;&gt;Node14</title>
<path fill="none" stroke="midnightblue" d="M469.274,-276C480.978,-276 493.136,-276 504.824,-276"/>
<polygon fill="midnightblue" stroke="midnightblue" points="504.951,-279.5 514.951,-276 504.951,-272.5 504.951,-279.5"/>
</g>
<!-- Node15 -->
<g id="node15" class="node"><title>Node15</title>
<g id="a_node15"><a xlink:href="$AP__Math_8h.html#a2a12cce483e9b870da70d30406d82c60" xlink:title="is_zero">
<polygon fill="white" stroke="black" points="719.5,-266.5 719.5,-285.5 767.5,-285.5 767.5,-266.5 719.5,-266.5"/>
<text text-anchor="middle" x="743.5" y="-273.5" font-family="Helvetica,sans-Serif" font-size="10.00">is_zero</text>
</a>
</g>
</g>
<!-- Node14&#45;&gt;Node15 -->
<g id="edge14" class="edge"><title>Node14&#45;&gt;Node15</title>
<path fill="none" stroke="midnightblue" d="M632.316,-276C657.928,-276 687.149,-276 709.06,-276"/>
<polygon fill="midnightblue" stroke="midnightblue" points="709.182,-279.5 719.182,-276 709.182,-272.5 709.182,-279.5"/>
</g>
<!-- Node20&#45;&gt;Node15 -->
<g id="edge20" class="edge"><title>Node20&#45;&gt;Node15</title>
<path fill="none" stroke="midnightblue" d="M602.619,-323.459C632.204,-313.422 678.714,-297.642 709.888,-287.065"/>
<polygon fill="midnightblue" stroke="midnightblue" points="711.085,-290.355 719.43,-283.827 708.836,-283.726 711.085,-290.355"/>
</g>
<!-- Node21&#45;&gt;Node15 -->
<g id="edge22" class="edge"><title>Node21&#45;&gt;Node15</title>
<path fill="none" stroke="midnightblue" d="M440.376,-239.794C488.208,-242.276 571.279,-247.555 642,-257 664.677,-260.029 689.985,-264.821 709.531,-268.835"/>
<polygon fill="midnightblue" stroke="midnightblue" points="708.959,-272.291 719.463,-270.91 710.39,-265.439 708.959,-272.291"/>
</g>
<!-- Node25 -->
<g id="node25" class="node"><title>Node25</title>
<g id="a_node25"><a xlink:href="$AP__Math_8h.html#a20e8f8671c282c69c1954652b6d61585" xlink:title="constrain_value">
<polygon fill="white" stroke="black" points="531,-190.5 531,-209.5 616,-209.5 616,-190.5 531,-190.5"/>
<text text-anchor="middle" x="573.5" y="-197.5" font-family="Helvetica,sans-Serif" font-size="10.00">constrain_value</text>
</a>
</g>
</g>
<!-- Node24&#45;&gt;Node25 -->
<g id="edge26" class="edge"><title>Node24&#45;&gt;Node25</title>
<path fill="none" stroke="midnightblue" d="M440.346,-200C464.267,-200 495.082,-200 520.938,-200"/>
<polygon fill="midnightblue" stroke="midnightblue" points="520.945,-203.5 530.945,-200 520.945,-196.5 520.945,-203.5"/>
</g>
<!-- Node26 -->
<g id="node26" class="node"><title>Node26</title>
<g id="a_node26"><a xlink:href="$AP__Math_8cpp.html#a37e8e901754cb9c8e53a8e3030c82c50" xlink:title="constrain_value\&lt; int \&gt;">
<polygon fill="white" stroke="black" points="687,-152.5 687,-171.5 800,-171.5 800,-152.5 687,-152.5"/>
<text text-anchor="middle" x="743.5" y="-159.5" font-family="Helvetica,sans-Serif" font-size="10.00">constrain_value&lt; int &gt;</text>
</a>
</g>
</g>
<!-- Node25&#45;&gt;Node26 -->
<g id="edge27" class="edge"><title>Node25&#45;&gt;Node26</title>
<path fill="none" stroke="midnightblue" d="M616.028,-190.607C638.474,-185.53 666.41,-179.211 690.313,-173.804"/>
<polygon fill="midnightblue" stroke="midnightblue" points="691.301,-177.169 700.283,-171.549 689.757,-170.342 691.301,-177.169"/>
</g>
<!-- Node27 -->
<g id="node27" class="node"><title>Node27</title>
<g id="a_node27"><a xlink:href="$AP__Math_8cpp.html#afdbe107ec1987d318a6347816fbf2b89" xlink:title="constrain_value\&lt; short \&gt;">
<polygon fill="white" stroke="black" points="681,-114.5 681,-133.5 806,-133.5 806,-114.5 681,-114.5"/>
<text text-anchor="middle" x="743.5" y="-121.5" font-family="Helvetica,sans-Serif" font-size="10.00">constrain_value&lt; short &gt;</text>
</a>
</g>
</g>
<!-- Node25&#45;&gt;Node27 -->
<g id="edge28" class="edge"><title>Node25&#45;&gt;Node27</title>
<path fill="none" stroke="midnightblue" d="M589.414,-190.429C609.08,-178.13 645.054,-156.733 678,-143 683.453,-140.727 689.271,-138.61 695.096,-136.676"/>
<polygon fill="midnightblue" stroke="midnightblue" points="696.361,-139.948 704.844,-133.6 694.254,-133.272 696.361,-139.948"/>
</g>
<!-- Node28 -->
<g id="node28" class="node"><title>Node28</title>
<g id="a_node28"><a xlink:href="$AP__Math_8cpp.html#ae6c621670c214da687de21d4e3a92587" xlink:title="constrain_value\&lt; float \&gt;">
<polygon fill="white" stroke="black" points="682.5,-228.5 682.5,-247.5 804.5,-247.5 804.5,-228.5 682.5,-228.5"/>
<text text-anchor="middle" x="743.5" y="-235.5" font-family="Helvetica,sans-Serif" font-size="10.00">constrain_value&lt; float &gt;</text>
</a>
</g>
</g>
<!-- Node25&#45;&gt;Node28 -->
<g id="edge29" class="edge"><title>Node25&#45;&gt;Node28</title>
<path fill="none" stroke="midnightblue" d="M616.028,-209.393C638.474,-214.47 666.41,-220.789 690.313,-226.196"/>
<polygon fill="midnightblue" stroke="midnightblue" points="689.757,-229.658 700.283,-228.451 691.301,-222.831 689.757,-229.658"/>
</g>
<!-- Node29 -->
<g id="node29" class="node"><title>Node29</title>
<g id="a_node29"><a xlink:href="$AP__Math_8cpp.html#afe3990b00e9abc43fa97dfaf8e32f5c4" xlink:title="constrain_value\&lt; double \&gt;">
<polygon fill="white" stroke="black" points="678,-190.5 678,-209.5 809,-209.5 809,-190.5 678,-190.5"/>
<text text-anchor="middle" x="743.5" y="-197.5" font-family="Helvetica,sans-Serif" font-size="10.00">constrain_value&lt; double &gt;</text>
</a>
</g>
</g>
<!-- Node25&#45;&gt;Node29 -->
<g id="edge30" class="edge"><title>Node25&#45;&gt;Node29</title>
<path fill="none" stroke="midnightblue" d="M616.028,-200C631.623,-200 649.869,-200 667.571,-200"/>
<polygon fill="midnightblue" stroke="midnightblue" points="667.907,-203.5 677.907,-200 667.907,-196.5 667.907,-203.5"/>
</g>
<!-- Node33&#45;&gt;Node13 -->
<g id="edge37" class="edge"><title>Node33&#45;&gt;Node13</title>
<path fill="none" stroke="midnightblue" d="M261.086,-220.527C280.697,-232.407 306.619,-246.949 331,-257 336.726,-259.361 342.842,-261.53 348.969,-263.491"/>
<polygon fill="midnightblue" stroke="midnightblue" points="347.968,-266.845 358.554,-266.399 350.001,-260.146 347.968,-266.845"/>
</g>
<!-- Node33&#45;&gt;Node16 -->
<g id="edge38" class="edge"><title>Node33&#45;&gt;Node16</title>
<path fill="none" stroke="midnightblue" d="M280.929,-188.392C301.656,-183.759 325.49,-178.432 346.294,-173.781"/>
<polygon fill="midnightblue" stroke="midnightblue" points="347.24,-177.156 356.236,-171.559 345.713,-170.325 347.24,-177.156"/>
</g>
<!-- Node33&#45;&gt;Node17 -->
<g id="edge39" class="edge"><title>Node33&#45;&gt;Node17</title>
<path fill="none" stroke="midnightblue" d="M277.563,-179.394C283.537,-176.433 289.478,-173.273 295,-170 312.205,-159.802 313.061,-151.843 331,-143 336.556,-140.261 342.568,-137.864 348.639,-135.779"/>
<polygon fill="midnightblue" stroke="midnightblue" points="349.697,-139.115 358.172,-132.756 347.582,-132.442 349.697,-139.115"/>
</g>
<!-- Node33&#45;&gt;Node18 -->
<g id="edge40" class="edge"><title>Node33&#45;&gt;Node18</title>
<path fill="none" stroke="midnightblue" d="M280.788,-180.489C285.892,-177.414 290.747,-173.929 295,-170 319.257,-147.591 305.089,-125.475 331,-105 336.299,-100.813 342.466,-97.5482 348.883,-95.0026"/>
<polygon fill="midnightblue" stroke="midnightblue" points="350.053,-98.3014 358.391,-91.7639 347.796,-91.6753 350.053,-98.3014"/>
</g>
<!-- Node33&#45;&gt;Node19 -->
<g id="edge41" class="edge"><title>Node33&#45;&gt;Node19</title>
<path fill="none" stroke="midnightblue" d="M280.513,-181.808C285.855,-178.463 290.84,-174.554 295,-170 327.706,-134.196 295.634,-100.179 331,-67 332.671,-65.4327 334.46,-63.993 336.341,-62.6706"/>
<polygon fill="midnightblue" stroke="midnightblue" points="338.204,-65.6362 345.099,-57.592 334.692,-59.5806 338.204,-65.6362"/>
</g>
<!-- Node33&#45;&gt;Node21 -->
<g id="edge42" class="edge"><title>Node33&#45;&gt;Node21</title>
<path fill="none" stroke="midnightblue" d="M280.929,-211.608C302.846,-216.507 328.238,-222.183 349.846,-227.013"/>
<polygon fill="midnightblue" stroke="midnightblue" points="349.276,-230.471 359.798,-229.237 350.803,-223.64 349.276,-230.471"/>
</g>
<!-- Node33&#45;&gt;Node22 -->
<g id="edge43" class="edge"><title>Node33&#45;&gt;Node22</title>
<path fill="none" stroke="midnightblue" d="M280.582,-182.359C285.98,-178.91 290.96,-174.825 295,-170 336.521,-120.411 285.783,-75.2448 331,-29 332.837,-27.1211 334.843,-25.4237 336.978,-23.8905"/>
<polygon fill="midnightblue" stroke="midnightblue" points="338.892,-26.8252 345.756,-18.7545 335.358,-20.7832 338.892,-26.8252"/>
</g>
<!-- Node33&#45;&gt;Node23 -->
<g id="edge44" class="edge"><title>Node33&#45;&gt;Node23</title>
<path fill="none" stroke="midnightblue" d="M263.208,-220.705C273.964,-228.012 285.502,-236.736 295,-246 314.345,-264.869 308.77,-279.634 331,-295 336.228,-298.613 342.127,-301.543 348.211,-303.916"/>
<polygon fill="midnightblue" stroke="midnightblue" points="347.26,-307.29 357.854,-307.208 349.521,-300.665 347.26,-307.29"/>
</g>
<!-- Node33&#45;&gt;Node24 -->
<g id="edge45" class="edge"><title>Node33&#45;&gt;Node24</title>
<path fill="none" stroke="midnightblue" d="M280.929,-200C302.747,-200 328.008,-200 349.552,-200"/>
<polygon fill="midnightblue" stroke="midnightblue" points="349.798,-203.5 359.798,-200 349.798,-196.5 349.798,-203.5"/>
</g>
</g>
</svg>
