<?xml version="1.0" encoding="UTF-8" standalone="no"?>
<!DOCTYPE svg PUBLIC "-//W3C//DTD SVG 1.1//EN"
 "http://www.w3.org/Graphics/SVG/1.1/DTD/svg11.dtd">
<!-- Generated by graphviz version 2.38.0 (20140413.2041)
 -->
<!-- Title: AC_Fence::check_destination_within_fence Pages: 1 -->
<svg width="1132pt" height="362pt"
 viewBox="0.00 0.00 1132.00 362.00" xmlns="http://www.w3.org/2000/svg" xmlns:xlink="http://www.w3.org/1999/xlink">
<g id="graph0" class="graph" transform="scale(1 1) rotate(0) translate(4 358)">
<title>AC_Fence::check_destination_within_fence</title>
<polygon fill="white" stroke="none" points="-4,4 -4,-358 1128,-358 1128,4 -4,4"/>
<!-- Node1 -->
<g id="node1" class="node"><title>Node1</title>
<polygon fill="#bfbfbf" stroke="black" points="0,-159.5 0,-189.5 148,-189.5 148,-159.5 0,-159.5"/>
<text text-anchor="start" x="8" y="-177.5" font-family="Helvetica,sans-Serif" font-size="10.00">AC_Fence::check_destination</text>
<text text-anchor="middle" x="74" y="-166.5" font-family="Helvetica,sans-Serif" font-size="10.00">_within_fence</text>
</g>
<!-- Node2 -->
<g id="node2" class="node"><title>Node2</title>
<g id="a_node2"><a xlink:href="$classAC__Fence.html#a233d3a13b201e30c21c6d319f73d1ab2" xlink:title="get_enabled_fences &#45; returns bitmask of enabled fences ">
<polygon fill="white" stroke="black" points="184,-312.5 184,-342.5 306,-342.5 306,-312.5 184,-312.5"/>
<text text-anchor="start" x="192" y="-330.5" font-family="Helvetica,sans-Serif" font-size="10.00">AC_Fence::get_enabled</text>
<text text-anchor="middle" x="245" y="-319.5" font-family="Helvetica,sans-Serif" font-size="10.00">_fences</text>
</a>
</g>
</g>
<!-- Node1&#45;&gt;Node2 -->
<g id="edge1" class="edge"><title>Node1&#45;&gt;Node2</title>
<path fill="none" stroke="midnightblue" d="M84.2548,-189.722C101.063,-216.219 139.056,-271.083 184,-303.5 185.885,-304.86 187.858,-306.157 189.893,-307.392"/>
<polygon fill="midnightblue" stroke="midnightblue" points="188.666,-310.709 199.122,-312.417 192.013,-304.561 188.666,-310.709"/>
</g>
<!-- Node3 -->
<g id="node3" class="node"><title>Node3</title>
<g id="a_node3"><a xlink:href="$classLocation__Class.html#a94d8de310c8bdf8441c367e90d6b3f90" xlink:title="get altitude in desired frame ">
<polygon fill="white" stroke="black" points="193,-263.5 193,-293.5 297,-293.5 297,-263.5 193,-263.5"/>
<text text-anchor="start" x="201" y="-281.5" font-family="Helvetica,sans-Serif" font-size="10.00">Location_Class::get</text>
<text text-anchor="middle" x="245" y="-270.5" font-family="Helvetica,sans-Serif" font-size="10.00">_alt_cm</text>
</a>
</g>
</g>
<!-- Node1&#45;&gt;Node3 -->
<g id="edge2" class="edge"><title>Node1&#45;&gt;Node3</title>
<path fill="none" stroke="midnightblue" d="M95.3649,-189.527C116.873,-205.11 152.031,-229.767 184,-248.5 189.941,-251.981 196.338,-255.455 202.664,-258.738"/>
<polygon fill="midnightblue" stroke="midnightblue" points="201.319,-261.981 211.82,-263.392 204.491,-255.741 201.319,-261.981"/>
</g>
<!-- Node5 -->
<g id="node5" class="node"><title>Node5</title>
<g id="a_node5"><a xlink:href="$classAP__AHRS.html#aea45b16e6469a3b392b8bf52fb864732" xlink:title="AP_AHRS::get_home">
<polygon fill="white" stroke="black" points="348.5,-225 348.5,-244 461.5,-244 461.5,-225 348.5,-225"/>
<text text-anchor="middle" x="405" y="-232" font-family="Helvetica,sans-Serif" font-size="10.00">AP_AHRS::get_home</text>
</a>
</g>
</g>
<!-- Node1&#45;&gt;Node5 -->
<g id="edge24" class="edge"><title>Node1&#45;&gt;Node5</title>
<path fill="none" stroke="midnightblue" d="M108.147,-189.682C129.38,-198.72 157.776,-209.554 184,-215.5 234.988,-227.061 294.086,-231.696 338.183,-233.504"/>
<polygon fill="midnightblue" stroke="midnightblue" points="338.08,-237.003 348.203,-233.877 338.34,-230.007 338.08,-237.003"/>
</g>
<!-- Node14 -->
<g id="node14" class="node"><title>Node14</title>
<g id="a_node14"><a xlink:href="$location_8cpp.html#ac4acf5d14c42d6255cd005460de4d1ad" xlink:title="get_distance_cm">
<polygon fill="white" stroke="black" points="199.5,-187 199.5,-206 290.5,-206 290.5,-187 199.5,-187"/>
<text text-anchor="middle" x="245" y="-194" font-family="Helvetica,sans-Serif" font-size="10.00">get_distance_cm</text>
</a>
</g>
</g>
<!-- Node1&#45;&gt;Node14 -->
<g id="edge13" class="edge"><title>Node1&#45;&gt;Node14</title>
<path fill="none" stroke="midnightblue" d="M148.143,-184.022C161.799,-185.799 175.857,-187.629 188.857,-189.322"/>
<polygon fill="midnightblue" stroke="midnightblue" points="188.66,-192.825 199.028,-190.646 189.564,-185.884 188.66,-192.825"/>
</g>
<!-- Node25 -->
<g id="node25" class="node"><title>Node25</title>
<g id="a_node25"><a xlink:href="$classAP__InertialNav.html#ad5e3413a7b1422a48869b660911b3634" xlink:title="AP_InertialNav::get\l_location">
<polygon fill="white" stroke="black" points="194,-137.5 194,-167.5 296,-167.5 296,-137.5 194,-137.5"/>
<text text-anchor="start" x="202" y="-155.5" font-family="Helvetica,sans-Serif" font-size="10.00">AP_InertialNav::get</text>
<text text-anchor="middle" x="245" y="-144.5" font-family="Helvetica,sans-Serif" font-size="10.00">_location</text>
</a>
</g>
</g>
<!-- Node1&#45;&gt;Node25 -->
<g id="edge25" class="edge"><title>Node1&#45;&gt;Node25</title>
<path fill="none" stroke="midnightblue" d="M148.143,-164.978C160.01,-163.434 172.182,-161.849 183.699,-160.35"/>
<polygon fill="midnightblue" stroke="midnightblue" points="184.162,-163.819 193.627,-159.057 183.259,-156.878 184.162,-163.819"/>
</g>
<!-- Node26 -->
<g id="node26" class="node"><title>Node26</title>
<g id="a_node26"><a xlink:href="$classAP__InertialNav.html#a0400fb5866678c5657542a4c2769839b" xlink:title="AP_InertialNav::get\l_origin">
<polygon fill="white" stroke="black" points="194,-88.5 194,-118.5 296,-118.5 296,-88.5 194,-88.5"/>
<text text-anchor="start" x="202" y="-106.5" font-family="Helvetica,sans-Serif" font-size="10.00">AP_InertialNav::get</text>
<text text-anchor="middle" x="245" y="-95.5" font-family="Helvetica,sans-Serif" font-size="10.00">_origin</text>
</a>
</g>
</g>
<!-- Node1&#45;&gt;Node26 -->
<g id="edge26" class="edge"><title>Node1&#45;&gt;Node26</title>
<path fill="none" stroke="midnightblue" d="M109.265,-159.448C130.685,-150.107 158.88,-137.938 184,-127.5 188.073,-125.808 192.31,-124.069 196.564,-122.338"/>
<polygon fill="midnightblue" stroke="midnightblue" points="197.891,-125.577 205.849,-118.583 195.267,-119.088 197.891,-125.577"/>
</g>
<!-- Node27 -->
<g id="node27" class="node"><title>Node27</title>
<g id="a_node27"><a xlink:href="$location_8cpp.html#a527b26472ed6f2e0c141e109a0722a0a" xlink:title="location_diff">
<polygon fill="white" stroke="black" points="370.5,-60 370.5,-79 439.5,-79 439.5,-60 370.5,-60"/>
<text text-anchor="middle" x="405" y="-67" font-family="Helvetica,sans-Serif" font-size="10.00">location_diff</text>
</a>
</g>
</g>
<!-- Node1&#45;&gt;Node27 -->
<g id="edge27" class="edge"><title>Node1&#45;&gt;Node27</title>
<path fill="none" stroke="midnightblue" d="M86.3804,-159.356C104.283,-136.899 141.405,-95.5861 184,-78.5 241.436,-55.4609 314.208,-57.9616 359.951,-62.9139"/>
<polygon fill="midnightblue" stroke="midnightblue" points="359.79,-66.4187 370.129,-64.1048 360.603,-59.4662 359.79,-66.4187"/>
</g>
<!-- Node28 -->
<g id="node28" class="node"><title>Node28</title>
<g id="a_node28"><a xlink:href="$classAC__PolyFence__loader.html#a91a6b4c5611590d524eacac2c2aeec3a" xlink:title="AC_PolyFence_loader\l::boundary_breached">
<polygon fill="white" stroke="black" points="188,-0.5 188,-30.5 302,-30.5 302,-0.5 188,-0.5"/>
<text text-anchor="start" x="196" y="-18.5" font-family="Helvetica,sans-Serif" font-size="10.00">AC_PolyFence_loader</text>
<text text-anchor="middle" x="245" y="-7.5" font-family="Helvetica,sans-Serif" font-size="10.00">::boundary_breached</text>
</a>
</g>
</g>
<!-- Node1&#45;&gt;Node28 -->
<g id="edge29" class="edge"><title>Node1&#45;&gt;Node28</title>
<path fill="none" stroke="midnightblue" d="M84.8152,-159.243C102.198,-133.173 140.673,-79.576 184,-45.5 188.633,-41.8563 193.779,-38.4808 199.054,-35.4099"/>
<polygon fill="midnightblue" stroke="midnightblue" points="200.885,-38.3982 207.986,-30.5357 197.532,-32.2536 200.885,-38.3982"/>
</g>
<!-- Node4 -->
<g id="node4" class="node"><title>Node4</title>
<g id="a_node4"><a xlink:href="$classLocation__Class.html#a12eedb8fc1b0f9391bc07891decf95fc" xlink:title="Location_Class::get\l_alt_frame">
<polygon fill="white" stroke="black" points="353,-312.5 353,-342.5 457,-342.5 457,-312.5 353,-312.5"/>
<text text-anchor="start" x="361" y="-330.5" font-family="Helvetica,sans-Serif" font-size="10.00">Location_Class::get</text>
<text text-anchor="middle" x="405" y="-319.5" font-family="Helvetica,sans-Serif" font-size="10.00">_alt_frame</text>
</a>
</g>
</g>
<!-- Node3&#45;&gt;Node4 -->
<g id="edge3" class="edge"><title>Node3&#45;&gt;Node4</title>
<path fill="none" stroke="midnightblue" d="M294.694,-293.601C310.839,-298.608 328.974,-304.232 345.762,-309.439"/>
<polygon fill="midnightblue" stroke="midnightblue" points="344.878,-312.829 355.466,-312.448 346.952,-306.143 344.878,-312.829"/>
</g>
<!-- Node3&#45;&gt;Node5 -->
<g id="edge4" class="edge"><title>Node3&#45;&gt;Node5</title>
<path fill="none" stroke="midnightblue" d="M297.298,-264.214C317.402,-258.616 340.246,-252.254 359.625,-246.858"/>
<polygon fill="midnightblue" stroke="midnightblue" points="360.716,-250.187 369.41,-244.133 358.838,-243.444 360.716,-250.187"/>
</g>
<!-- Node7 -->
<g id="node7" class="node"><title>Node7</title>
<g id="a_node7"><a xlink:href="$classAP__AHRS__NavEKF.html#a8e90dbad885e5d8d4efe9a34d635886a" xlink:title="AP_AHRS_NavEKF::get\l_origin">
<polygon fill="white" stroke="black" points="342,-263.5 342,-293.5 468,-293.5 468,-263.5 342,-263.5"/>
<text text-anchor="start" x="350" y="-281.5" font-family="Helvetica,sans-Serif" font-size="10.00">AP_AHRS_NavEKF::get</text>
<text text-anchor="middle" x="405" y="-270.5" font-family="Helvetica,sans-Serif" font-size="10.00">_origin</text>
</a>
</g>
</g>
<!-- Node3&#45;&gt;Node7 -->
<g id="edge6" class="edge"><title>Node3&#45;&gt;Node7</title>
<path fill="none" stroke="midnightblue" d="M297.298,-278.5C308.309,-278.5 320.143,-278.5 331.779,-278.5"/>
<polygon fill="midnightblue" stroke="midnightblue" points="331.928,-282 341.928,-278.5 331.928,-275 331.928,-282"/>
</g>
<!-- Node6 -->
<g id="node6" class="node"><title>Node6</title>
<g id="a_node6"><a xlink:href="$classAP__AHRS.html#a702b6313fff141dced78533a4d258ab0" xlink:title="AP_AHRS::set_home">
<polygon fill="white" stroke="black" points="522.5,-209 522.5,-228 635.5,-228 635.5,-209 522.5,-209"/>
<text text-anchor="middle" x="579" y="-216" font-family="Helvetica,sans-Serif" font-size="10.00">AP_AHRS::set_home</text>
</a>
</g>
</g>
<!-- Node5&#45;&gt;Node6 -->
<g id="edge5" class="edge"><title>Node5&#45;&gt;Node6</title>
<path fill="none" stroke="midnightblue" d="M461.843,-229.305C477.927,-227.809 495.623,-226.163 512.248,-224.616"/>
<polygon fill="midnightblue" stroke="midnightblue" points="512.804,-228.08 522.437,-223.669 512.155,-221.11 512.804,-228.08"/>
</g>
<!-- Node8 -->
<g id="node8" class="node"><title>Node8</title>
<g id="a_node8"><a xlink:href="$classAP__AHRS__NavEKF.html#a2421598bfc909c228709f99347a5fcea" xlink:title="AP_AHRS_NavEKF::ekf_type">
<polygon fill="white" stroke="black" points="504,-326 504,-345 654,-345 654,-326 504,-326"/>
<text text-anchor="middle" x="579" y="-333" font-family="Helvetica,sans-Serif" font-size="10.00">AP_AHRS_NavEKF::ekf_type</text>
</a>
</g>
</g>
<!-- Node7&#45;&gt;Node8 -->
<g id="edge7" class="edge"><title>Node7&#45;&gt;Node8</title>
<path fill="none" stroke="midnightblue" d="M446.836,-293.641C464.361,-299.994 485.111,-307.324 504,-313.5 513.841,-316.718 524.481,-319.997 534.542,-323.007"/>
<polygon fill="midnightblue" stroke="midnightblue" points="533.776,-326.43 544.359,-325.916 535.765,-319.719 533.776,-326.43"/>
</g>
<!-- Node10 -->
<g id="node10" class="node"><title>Node10</title>
<g id="a_node10"><a xlink:href="$classNavEKF2.html#a3ca4f95954622760541df4ee9bf1b12c" xlink:title="NavEKF2::getOriginLLH">
<polygon fill="white" stroke="black" points="518,-285 518,-304 640,-304 640,-285 518,-285"/>
<text text-anchor="middle" x="579" y="-292" font-family="Helvetica,sans-Serif" font-size="10.00">NavEKF2::getOriginLLH</text>
</a>
</g>
</g>
<!-- Node7&#45;&gt;Node10 -->
<g id="edge9" class="edge"><title>Node7&#45;&gt;Node10</title>
<path fill="none" stroke="midnightblue" d="M468.096,-284.276C480.852,-285.463 494.37,-286.72 507.4,-287.933"/>
<polygon fill="midnightblue" stroke="midnightblue" points="507.441,-291.451 517.722,-288.893 508.089,-284.481 507.441,-291.451"/>
</g>
<!-- Node12 -->
<g id="node12" class="node"><title>Node12</title>
<g id="a_node12"><a xlink:href="$classNavEKF3.html#af8ef515efb2e3a0f23ffc105e3d52382" xlink:title="NavEKF3::getOriginLLH">
<polygon fill="white" stroke="black" points="518,-247 518,-266 640,-266 640,-247 518,-247"/>
<text text-anchor="middle" x="579" y="-254" font-family="Helvetica,sans-Serif" font-size="10.00">NavEKF3::getOriginLLH</text>
</a>
</g>
</g>
<!-- Node7&#45;&gt;Node12 -->
<g id="edge11" class="edge"><title>Node7&#45;&gt;Node12</title>
<path fill="none" stroke="midnightblue" d="M468.096,-270.557C480.978,-268.91 494.638,-267.163 507.787,-265.481"/>
<polygon fill="midnightblue" stroke="midnightblue" points="508.247,-268.951 517.722,-264.21 507.359,-262.007 508.247,-268.951"/>
</g>
<!-- Node9 -->
<g id="node9" class="node"><title>Node9</title>
<g id="a_node9"><a xlink:href="$classAP__AHRS__NavEKF.html#a9af775a381a41ff78ac75a06ba7b1a05" xlink:title="AP_AHRS_NavEKF::always\l_use_EKF">
<polygon fill="white" stroke="black" points="691.5,-323.5 691.5,-353.5 834.5,-353.5 834.5,-323.5 691.5,-323.5"/>
<text text-anchor="start" x="699.5" y="-341.5" font-family="Helvetica,sans-Serif" font-size="10.00">AP_AHRS_NavEKF::always</text>
<text text-anchor="middle" x="763" y="-330.5" font-family="Helvetica,sans-Serif" font-size="10.00">_use_EKF</text>
</a>
</g>
</g>
<!-- Node8&#45;&gt;Node9 -->
<g id="edge8" class="edge"><title>Node8&#45;&gt;Node9</title>
<path fill="none" stroke="midnightblue" d="M654.026,-336.72C662.964,-336.868 672.129,-337.019 681.158,-337.167"/>
<polygon fill="midnightblue" stroke="midnightblue" points="681.219,-340.669 691.276,-337.334 681.335,-333.67 681.219,-340.669"/>
</g>
<!-- Node11 -->
<g id="node11" class="node"><title>Node11</title>
<g id="a_node11"><a xlink:href="$classNavEKF2__core.html#a0f070d9946f12e2dd0484ba395475f95" xlink:title="NavEKF2_core::getOriginLLH">
<polygon fill="white" stroke="black" points="690,-285 690,-304 836,-304 836,-285 690,-285"/>
<text text-anchor="middle" x="763" y="-292" font-family="Helvetica,sans-Serif" font-size="10.00">NavEKF2_core::getOriginLLH</text>
</a>
</g>
</g>
<!-- Node10&#45;&gt;Node11 -->
<g id="edge10" class="edge"><title>Node10&#45;&gt;Node11</title>
<path fill="none" stroke="midnightblue" d="M640.098,-294.5C652.804,-294.5 666.423,-294.5 679.786,-294.5"/>
<polygon fill="midnightblue" stroke="midnightblue" points="679.936,-298 689.936,-294.5 679.936,-291 679.936,-298"/>
</g>
<!-- Node13 -->
<g id="node13" class="node"><title>Node13</title>
<g id="a_node13"><a xlink:href="$classNavEKF3__core.html#af7d59bec1dcc3663bf68de8eaf0b2856" xlink:title="NavEKF3_core::getOriginLLH">
<polygon fill="white" stroke="black" points="690,-247 690,-266 836,-266 836,-247 690,-247"/>
<text text-anchor="middle" x="763" y="-254" font-family="Helvetica,sans-Serif" font-size="10.00">NavEKF3_core::getOriginLLH</text>
</a>
</g>
</g>
<!-- Node12&#45;&gt;Node13 -->
<g id="edge12" class="edge"><title>Node12&#45;&gt;Node13</title>
<path fill="none" stroke="midnightblue" d="M640.098,-256.5C652.804,-256.5 666.423,-256.5 679.786,-256.5"/>
<polygon fill="midnightblue" stroke="midnightblue" points="679.936,-260 689.936,-256.5 679.936,-253 679.936,-260"/>
</g>
<!-- Node15 -->
<g id="node15" class="node"><title>Node15</title>
<g id="a_node15"><a xlink:href="$location_8cpp.html#aa825a788804b8dd4cf1e3cfb42960a8b" xlink:title="get_distance">
<polygon fill="white" stroke="black" points="369,-130 369,-149 441,-149 441,-130 369,-130"/>
<text text-anchor="middle" x="405" y="-137" font-family="Helvetica,sans-Serif" font-size="10.00">get_distance</text>
</a>
</g>
</g>
<!-- Node14&#45;&gt;Node15 -->
<g id="edge14" class="edge"><title>Node14&#45;&gt;Node15</title>
<path fill="none" stroke="midnightblue" d="M275.376,-186.964C285.147,-183.724 296.067,-180.029 306,-176.5 327.452,-168.878 351.357,-159.864 370.186,-152.641"/>
<polygon fill="midnightblue" stroke="midnightblue" points="371.456,-155.902 379.531,-149.043 368.941,-149.37 371.456,-155.902"/>
</g>
<!-- Node16 -->
<g id="node16" class="node"><title>Node16</title>
<g id="a_node16"><a xlink:href="$location_8cpp.html#ad2368c582f3e0c135e2a74772f4db61a" xlink:title="longitude_scale">
<polygon fill="white" stroke="black" points="537,-71 537,-90 621,-90 621,-71 537,-71"/>
<text text-anchor="middle" x="579" y="-78" font-family="Helvetica,sans-Serif" font-size="10.00">longitude_scale</text>
</a>
</g>
</g>
<!-- Node15&#45;&gt;Node16 -->
<g id="edge15" class="edge"><title>Node15&#45;&gt;Node16</title>
<path fill="none" stroke="midnightblue" d="M434.018,-129.889C463.09,-119.917 508.709,-104.268 540.791,-93.2636"/>
<polygon fill="midnightblue" stroke="midnightblue" points="541.956,-96.5642 550.279,-90.0088 539.685,-89.9429 541.956,-96.5642"/>
</g>
<!-- Node23 -->
<g id="node23" class="node"><title>Node23</title>
<g id="a_node23"><a xlink:href="$AP__Math_8h.html#adc76d4a5e5c9ae8cb7ab17b55c40d636" xlink:title="norm">
<polygon fill="white" stroke="black" points="560,-130 560,-149 598,-149 598,-130 560,-130"/>
<text text-anchor="middle" x="579" y="-137" font-family="Helvetica,sans-Serif" font-size="10.00">norm</text>
</a>
</g>
</g>
<!-- Node15&#45;&gt;Node23 -->
<g id="edge22" class="edge"><title>Node15&#45;&gt;Node23</title>
<path fill="none" stroke="midnightblue" d="M441.222,-139.5C473.259,-139.5 519.943,-139.5 549.639,-139.5"/>
<polygon fill="midnightblue" stroke="midnightblue" points="549.752,-143 559.752,-139.5 549.752,-136 549.752,-143"/>
</g>
<!-- Node17 -->
<g id="node17" class="node"><title>Node17</title>
<g id="a_node17"><a xlink:href="$AP__Math_8h.html#ad525609d9dba6ffa556a0fbf08a3f9b4" xlink:title="constrain_float">
<polygon fill="white" stroke="black" points="723,-71 723,-90 803,-90 803,-71 723,-71"/>
<text text-anchor="middle" x="763" y="-78" font-family="Helvetica,sans-Serif" font-size="10.00">constrain_float</text>
</a>
</g>
</g>
<!-- Node16&#45;&gt;Node17 -->
<g id="edge16" class="edge"><title>Node16&#45;&gt;Node17</title>
<path fill="none" stroke="midnightblue" d="M621.299,-80.5C648.387,-80.5 683.95,-80.5 712.545,-80.5"/>
<polygon fill="midnightblue" stroke="midnightblue" points="712.736,-84.0001 722.736,-80.5 712.736,-77.0001 712.736,-84.0001"/>
</g>
<!-- Node18 -->
<g id="node18" class="node"><title>Node18</title>
<g id="a_node18"><a xlink:href="$AP__Math_8h.html#a20e8f8671c282c69c1954652b6d61585" xlink:title="constrain_value">
<polygon fill="white" stroke="black" points="872,-71 872,-90 957,-90 957,-71 872,-71"/>
<text text-anchor="middle" x="914.5" y="-78" font-family="Helvetica,sans-Serif" font-size="10.00">constrain_value</text>
</a>
</g>
</g>
<!-- Node17&#45;&gt;Node18 -->
<g id="edge17" class="edge"><title>Node17&#45;&gt;Node18</title>
<path fill="none" stroke="midnightblue" d="M803.279,-80.5C821.173,-80.5 842.596,-80.5 861.777,-80.5"/>
<polygon fill="midnightblue" stroke="midnightblue" points="861.868,-84.0001 871.868,-80.5 861.868,-77.0001 861.868,-84.0001"/>
</g>
<!-- Node19 -->
<g id="node19" class="node"><title>Node19</title>
<g id="a_node19"><a xlink:href="$AP__Math_8cpp.html#a37e8e901754cb9c8e53a8e3030c82c50" xlink:title="constrain_value\&lt; int \&gt;">
<polygon fill="white" stroke="black" points="1002,-128 1002,-147 1115,-147 1115,-128 1002,-128"/>
<text text-anchor="middle" x="1058.5" y="-135" font-family="Helvetica,sans-Serif" font-size="10.00">constrain_value&lt; int &gt;</text>
</a>
</g>
</g>
<!-- Node18&#45;&gt;Node19 -->
<g id="edge18" class="edge"><title>Node18&#45;&gt;Node19</title>
<path fill="none" stroke="midnightblue" d="M932.97,-90.1284C948.432,-98.391 971.774,-110.238 993,-118.5 998.854,-120.778 1005.1,-122.939 1011.31,-124.929"/>
<polygon fill="midnightblue" stroke="midnightblue" points="1010.39,-128.309 1020.98,-127.911 1012.45,-121.62 1010.39,-128.309"/>
</g>
<!-- Node20 -->
<g id="node20" class="node"><title>Node20</title>
<g id="a_node20"><a xlink:href="$AP__Math_8cpp.html#afdbe107ec1987d318a6347816fbf2b89" xlink:title="constrain_value\&lt; short \&gt;">
<polygon fill="white" stroke="black" points="996,-90 996,-109 1121,-109 1121,-90 996,-90"/>
<text text-anchor="middle" x="1058.5" y="-97" font-family="Helvetica,sans-Serif" font-size="10.00">constrain_value&lt; short &gt;</text>
</a>
</g>
</g>
<!-- Node18&#45;&gt;Node20 -->
<g id="edge19" class="edge"><title>Node18&#45;&gt;Node20</title>
<path fill="none" stroke="midnightblue" d="M957.337,-86.0979C966.323,-87.3003 976.064,-88.6036 985.821,-89.9092"/>
<polygon fill="midnightblue" stroke="midnightblue" points="985.589,-93.4093 995.965,-91.2665 986.518,-86.4711 985.589,-93.4093"/>
</g>
<!-- Node21 -->
<g id="node21" class="node"><title>Node21</title>
<g id="a_node21"><a xlink:href="$AP__Math_8cpp.html#ae6c621670c214da687de21d4e3a92587" xlink:title="constrain_value\&lt; float \&gt;">
<polygon fill="white" stroke="black" points="997.5,-52 997.5,-71 1119.5,-71 1119.5,-52 997.5,-52"/>
<text text-anchor="middle" x="1058.5" y="-59" font-family="Helvetica,sans-Serif" font-size="10.00">constrain_value&lt; float &gt;</text>
</a>
</g>
</g>
<!-- Node18&#45;&gt;Node21 -->
<g id="edge20" class="edge"><title>Node18&#45;&gt;Node21</title>
<path fill="none" stroke="midnightblue" d="M957.337,-74.9021C966.724,-73.646 976.935,-72.2798 987.129,-70.9159"/>
<polygon fill="midnightblue" stroke="midnightblue" points="987.838,-74.3522 997.286,-69.5568 986.91,-67.4141 987.838,-74.3522"/>
</g>
<!-- Node22 -->
<g id="node22" class="node"><title>Node22</title>
<g id="a_node22"><a xlink:href="$AP__Math_8cpp.html#afe3990b00e9abc43fa97dfaf8e32f5c4" xlink:title="constrain_value\&lt; double \&gt;">
<polygon fill="white" stroke="black" points="993,-14 993,-33 1124,-33 1124,-14 993,-14"/>
<text text-anchor="middle" x="1058.5" y="-21" font-family="Helvetica,sans-Serif" font-size="10.00">constrain_value&lt; double &gt;</text>
</a>
</g>
</g>
<!-- Node18&#45;&gt;Node22 -->
<g id="edge21" class="edge"><title>Node18&#45;&gt;Node22</title>
<path fill="none" stroke="midnightblue" d="M932.97,-70.8716C948.432,-62.609 971.774,-50.7616 993,-42.5 998.854,-40.2215 1005.1,-38.0614 1011.31,-36.0705"/>
<polygon fill="midnightblue" stroke="midnightblue" points="1012.45,-39.38 1020.98,-33.0887 1010.39,-32.6908 1012.45,-39.38"/>
</g>
<!-- Node24 -->
<g id="node24" class="node"><title>Node24</title>
<g id="a_node24"><a xlink:href="$AP__Math_8h.html#a0375e3d67fd3911cacee5c3e1408c0f2" xlink:title="sq">
<polygon fill="white" stroke="black" points="748.5,-130 748.5,-149 777.5,-149 777.5,-130 748.5,-130"/>
<text text-anchor="middle" x="763" y="-137" font-family="Helvetica,sans-Serif" font-size="10.00">sq</text>
</a>
</g>
</g>
<!-- Node23&#45;&gt;Node24 -->
<g id="edge23" class="edge"><title>Node23&#45;&gt;Node24</title>
<path fill="none" stroke="midnightblue" d="M598.116,-139.5C631.035,-139.5 700.676,-139.5 737.687,-139.5"/>
<polygon fill="midnightblue" stroke="midnightblue" points="738.049,-143 748.049,-139.5 738.049,-136 738.049,-143"/>
</g>
<!-- Node27&#45;&gt;Node16 -->
<g id="edge28" class="edge"><title>Node27&#45;&gt;Node16</title>
<path fill="none" stroke="midnightblue" d="M439.572,-71.647C464.387,-73.234 498.62,-75.4234 526.834,-77.2277"/>
<polygon fill="midnightblue" stroke="midnightblue" points="526.724,-80.7278 536.927,-77.8733 527.171,-73.7421 526.724,-80.7278"/>
</g>
<!-- Node29 -->
<g id="node29" class="node"><title>Node29</title>
<g id="a_node29"><a xlink:href="$polygon_8cpp.html#a69c7755ab39f2ede645c4542b3aed07c" xlink:title="Polygon_outside">
<polygon fill="white" stroke="black" points="360.5,-6 360.5,-25 449.5,-25 449.5,-6 360.5,-6"/>
<text text-anchor="middle" x="405" y="-13" font-family="Helvetica,sans-Serif" font-size="10.00">Polygon_outside</text>
</a>
</g>
</g>
<!-- Node28&#45;&gt;Node29 -->
<g id="edge30" class="edge"><title>Node28&#45;&gt;Node29</title>
<path fill="none" stroke="midnightblue" d="M302.15,-15.5C317.716,-15.5 334.578,-15.5 350.018,-15.5"/>
<polygon fill="midnightblue" stroke="midnightblue" points="350.447,-19.0001 360.447,-15.5 350.447,-12.0001 350.447,-19.0001"/>
</g>
</g>
</svg>
