<?xml version="1.0" encoding="UTF-8" standalone="no"?>
<!DOCTYPE svg PUBLIC "-//W3C//DTD SVG 1.1//EN"
 "http://www.w3.org/Graphics/SVG/1.1/DTD/svg11.dtd">
<!-- Generated by graphviz version 2.38.0 (20140413.2041)
 -->
<!-- Title: AC_Avoid::adjust_velocity_polygon Pages: 1 -->
<svg width="843pt" height="392pt"
 viewBox="0.00 0.00 843.00 391.58" xmlns="http://www.w3.org/2000/svg" xmlns:xlink="http://www.w3.org/1999/xlink">
<g id="graph0" class="graph" transform="scale(1 1) rotate(0) translate(4 387.583)">
<title>AC_Avoid::adjust_velocity_polygon</title>
<polygon fill="white" stroke="none" points="-4,4 -4,-387.583 839,-387.583 839,4 -4,4"/>
<!-- Node1 -->
<g id="node1" class="node"><title>Node1</title>
<polygon fill="#bfbfbf" stroke="black" points="0,-184.083 0,-214.083 132,-214.083 132,-184.083 0,-184.083"/>
<text text-anchor="start" x="8" y="-202.083" font-family="Helvetica,sans-Serif" font-size="10.00">AC_Avoid::adjust_velocity</text>
<text text-anchor="middle" x="66" y="-191.083" font-family="Helvetica,sans-Serif" font-size="10.00">_polygon</text>
</g>
<!-- Node2 -->
<g id="node2" class="node"><title>Node2</title>
<g id="a_node2"><a xlink:href="$classAP__InertialNav.html#a39348dd51a8c32fe16d01dfef284e31a" xlink:title="AP_InertialNav::get\l_position">
<polygon fill="white" stroke="black" points="179.5,-353.083 179.5,-383.083 281.5,-383.083 281.5,-353.083 179.5,-353.083"/>
<text text-anchor="start" x="187.5" y="-371.083" font-family="Helvetica,sans-Serif" font-size="10.00">AP_InertialNav::get</text>
<text text-anchor="middle" x="230.5" y="-360.083" font-family="Helvetica,sans-Serif" font-size="10.00">_position</text>
</a>
</g>
</g>
<!-- Node1&#45;&gt;Node2 -->
<g id="edge1" class="edge"><title>Node1&#45;&gt;Node2</title>
<path fill="none" stroke="midnightblue" d="M73.8892,-214.449C87.7017,-243.635 121.488,-307.444 168,-344.083 169.756,-345.466 171.601,-346.778 173.511,-348.021"/>
<polygon fill="midnightblue" stroke="midnightblue" points="171.821,-351.086 182.234,-353.04 175.312,-345.019 171.821,-351.086"/>
</g>
<!-- Node3 -->
<g id="node3" class="node"><title>Node3</title>
<g id="a_node3"><a xlink:href="$classAC__Fence.html#a9ab2e92431697e0f47896edce9e87cf9" xlink:title="returns true if we&#39;ve breached the polygon boundary. simple passthrough to underlying _poly_loader ob...">
<polygon fill="white" stroke="black" points="176,-304.083 176,-334.083 285,-334.083 285,-304.083 176,-304.083"/>
<text text-anchor="start" x="184" y="-322.083" font-family="Helvetica,sans-Serif" font-size="10.00">AC_Fence::boundary</text>
<text text-anchor="middle" x="230.5" y="-311.083" font-family="Helvetica,sans-Serif" font-size="10.00">_breached</text>
</a>
</g>
</g>
<!-- Node1&#45;&gt;Node3 -->
<g id="edge2" class="edge"><title>Node1&#45;&gt;Node3</title>
<path fill="none" stroke="midnightblue" d="M79.9783,-214.414C97.9748,-234.882 132.341,-271.204 168,-294.083 170.951,-295.977 174.069,-297.773 177.273,-299.469"/>
<polygon fill="midnightblue" stroke="midnightblue" points="175.943,-302.715 186.462,-303.978 179.027,-296.431 175.943,-302.715"/>
</g>
<!-- Node6 -->
<g id="node6" class="node"><title>Node6</title>
<g id="a_node6"><a xlink:href="$classAP__AHRS.html#ae559b9d6fdd1e8ed3001258f58c98c39" xlink:title="AP_AHRS::sin_yaw">
<polygon fill="white" stroke="black" points="177.5,-265.583 177.5,-284.583 283.5,-284.583 283.5,-265.583 177.5,-265.583"/>
<text text-anchor="middle" x="230.5" y="-272.583" font-family="Helvetica,sans-Serif" font-size="10.00">AP_AHRS::sin_yaw</text>
</a>
</g>
</g>
<!-- Node1&#45;&gt;Node6 -->
<g id="edge5" class="edge"><title>Node1&#45;&gt;Node6</title>
<path fill="none" stroke="midnightblue" d="M90.3419,-214.163C110.354,-226.62 140.262,-244.135 168,-256.083 173.132,-258.294 178.605,-260.365 184.09,-262.268"/>
<polygon fill="midnightblue" stroke="midnightblue" points="183.313,-265.697 193.906,-265.505 185.505,-259.049 183.313,-265.697"/>
</g>
<!-- Node7 -->
<g id="node7" class="node"><title>Node7</title>
<g id="a_node7"><a xlink:href="$classAP__AHRS.html#a1aaffcffc239930cb651fad539362fa0" xlink:title="AP_AHRS::cos_yaw">
<polygon fill="white" stroke="black" points="176,-227.583 176,-246.583 285,-246.583 285,-227.583 176,-227.583"/>
<text text-anchor="middle" x="230.5" y="-234.583" font-family="Helvetica,sans-Serif" font-size="10.00">AP_AHRS::cos_yaw</text>
</a>
</g>
</g>
<!-- Node1&#45;&gt;Node7 -->
<g id="edge6" class="edge"><title>Node1&#45;&gt;Node7</title>
<path fill="none" stroke="midnightblue" d="M131.224,-214.102C146.938,-217.776 163.541,-221.659 178.537,-225.166"/>
<polygon fill="midnightblue" stroke="midnightblue" points="178.098,-228.657 188.632,-227.526 179.692,-221.841 178.098,-228.657"/>
</g>
<!-- Node8 -->
<g id="node8" class="node"><title>Node8</title>
<g id="a_node8"><a xlink:href="$AP__Math_8h.html#a5c0b5c82749ac54970b2699d3c10ee9b" xlink:title="MAX">
<polygon fill="white" stroke="black" points="211.5,-189.583 211.5,-208.583 249.5,-208.583 249.5,-189.583 211.5,-189.583"/>
<text text-anchor="middle" x="230.5" y="-196.583" font-family="Helvetica,sans-Serif" font-size="10.00">MAX</text>
</a>
</g>
</g>
<!-- Node1&#45;&gt;Node8 -->
<g id="edge7" class="edge"><title>Node1&#45;&gt;Node8</title>
<path fill="none" stroke="midnightblue" d="M132.159,-199.083C156.185,-199.083 182.168,-199.083 201.241,-199.083"/>
<polygon fill="midnightblue" stroke="midnightblue" points="201.337,-202.583 211.337,-199.083 201.337,-195.583 201.337,-202.583"/>
</g>
<!-- Node9 -->
<g id="node9" class="node"><title>Node9</title>
<g id="a_node9"><a xlink:href="$structVector2.html#a6dbbf670e7cdee42222de3aacb63d56a" xlink:title="Vector2\&lt; float \&gt;::closest\l_point">
<polygon fill="white" stroke="black" points="168,-140.083 168,-170.083 293,-170.083 293,-140.083 168,-140.083"/>
<text text-anchor="start" x="176" y="-158.083" font-family="Helvetica,sans-Serif" font-size="10.00">Vector2&lt; float &gt;::closest</text>
<text text-anchor="middle" x="230.5" y="-147.083" font-family="Helvetica,sans-Serif" font-size="10.00">_point</text>
</a>
</g>
</g>
<!-- Node1&#45;&gt;Node9 -->
<g id="edge8" class="edge"><title>Node1&#45;&gt;Node9</title>
<path fill="none" stroke="midnightblue" d="M122.469,-184.064C135.86,-180.438 150.294,-176.53 164.093,-172.793"/>
<polygon fill="midnightblue" stroke="midnightblue" points="165.268,-176.101 174.005,-170.109 163.438,-169.345 165.268,-176.101"/>
</g>
<!-- Node10 -->
<g id="node10" class="node"><title>Node10</title>
<g id="a_node10"><a xlink:href="$structVector2.html#ad8ebafde96f43521d3647e2552387529" xlink:title="Vector2::length">
<polygon fill="white" stroke="black" points="189,-101.583 189,-120.583 272,-120.583 272,-101.583 189,-101.583"/>
<text text-anchor="middle" x="230.5" y="-108.583" font-family="Helvetica,sans-Serif" font-size="10.00">Vector2::length</text>
</a>
</g>
</g>
<!-- Node1&#45;&gt;Node10 -->
<g id="edge9" class="edge"><title>Node1&#45;&gt;Node10</title>
<path fill="none" stroke="midnightblue" d="M85.3193,-184.052C104.8,-168.692 137.015,-145.031 168,-130.083 172.6,-127.864 177.518,-125.832 182.493,-123.99"/>
<polygon fill="midnightblue" stroke="midnightblue" points="183.754,-127.258 192.064,-120.685 181.469,-120.641 183.754,-127.258"/>
</g>
<!-- Node13 -->
<g id="node13" class="node"><title>Node13</title>
<g id="a_node13"><a xlink:href="$AP__Math_8h.html#a2a12cce483e9b870da70d30406d82c60" xlink:title="is_zero">
<polygon fill="white" stroke="black" points="642.5,-22.5832 642.5,-41.5832 690.5,-41.5832 690.5,-22.5832 642.5,-22.5832"/>
<text text-anchor="middle" x="666.5" y="-29.5832" font-family="Helvetica,sans-Serif" font-size="10.00">is_zero</text>
</a>
</g>
</g>
<!-- Node1&#45;&gt;Node13 -->
<g id="edge12" class="edge"><title>Node1&#45;&gt;Node13</title>
<path fill="none" stroke="midnightblue" d="M72.3632,-183.701C84.1047,-152.674 115.326,-83.0846 168,-54.0832 323.063,31.2919 548.317,-5.82308 632.303,-24.1081"/>
<polygon fill="midnightblue" stroke="midnightblue" points="631.764,-27.5741 642.287,-26.3399 633.292,-20.7427 631.764,-27.5741"/>
</g>
<!-- Node14 -->
<g id="node14" class="node"><title>Node14</title>
<g id="a_node14"><a xlink:href="$classAC__Avoid.html#a888f3551abae1ca6982f69ee8a42d09a" xlink:title="AC_Avoid::limit_velocity">
<polygon fill="white" stroke="black" points="168.5,-63.5832 168.5,-82.5832 292.5,-82.5832 292.5,-63.5832 168.5,-63.5832"/>
<text text-anchor="middle" x="230.5" y="-70.5832" font-family="Helvetica,sans-Serif" font-size="10.00">AC_Avoid::limit_velocity</text>
</a>
</g>
</g>
<!-- Node1&#45;&gt;Node14 -->
<g id="edge13" class="edge"><title>Node1&#45;&gt;Node14</title>
<path fill="none" stroke="midnightblue" d="M77.274,-183.971C93.7572,-160.853 128.317,-116.793 168,-92.0832 171.372,-89.9834 174.993,-88.1005 178.73,-86.4146"/>
<polygon fill="midnightblue" stroke="midnightblue" points="180.204,-89.5944 188.178,-82.6186 177.594,-83.099 180.204,-89.5944"/>
</g>
<!-- Node4 -->
<g id="node4" class="node"><title>Node4</title>
<g id="a_node4"><a xlink:href="$classAC__PolyFence__loader.html#a91a6b4c5611590d524eacac2c2aeec3a" xlink:title="AC_PolyFence_loader\l::boundary_breached">
<polygon fill="white" stroke="black" points="340,-304.083 340,-334.083 454,-334.083 454,-304.083 340,-304.083"/>
<text text-anchor="start" x="348" y="-322.083" font-family="Helvetica,sans-Serif" font-size="10.00">AC_PolyFence_loader</text>
<text text-anchor="middle" x="397" y="-311.083" font-family="Helvetica,sans-Serif" font-size="10.00">::boundary_breached</text>
</a>
</g>
</g>
<!-- Node3&#45;&gt;Node4 -->
<g id="edge3" class="edge"><title>Node3&#45;&gt;Node4</title>
<path fill="none" stroke="midnightblue" d="M285.363,-319.083C299.524,-319.083 314.964,-319.083 329.695,-319.083"/>
<polygon fill="midnightblue" stroke="midnightblue" points="329.755,-322.583 339.755,-319.083 329.755,-315.583 329.755,-322.583"/>
</g>
<!-- Node5 -->
<g id="node5" class="node"><title>Node5</title>
<g id="a_node5"><a xlink:href="$polygon_8cpp.html#a69c7755ab39f2ede645c4542b3aed07c" xlink:title="Polygon_outside">
<polygon fill="white" stroke="black" points="507,-309.583 507,-328.583 596,-328.583 596,-309.583 507,-309.583"/>
<text text-anchor="middle" x="551.5" y="-316.583" font-family="Helvetica,sans-Serif" font-size="10.00">Polygon_outside</text>
</a>
</g>
</g>
<!-- Node4&#45;&gt;Node5 -->
<g id="edge4" class="edge"><title>Node4&#45;&gt;Node5</title>
<path fill="none" stroke="midnightblue" d="M454.352,-319.083C468.145,-319.083 482.872,-319.083 496.549,-319.083"/>
<polygon fill="midnightblue" stroke="midnightblue" points="496.771,-322.583 506.771,-319.083 496.771,-315.583 496.771,-322.583"/>
</g>
<!-- Node11 -->
<g id="node11" class="node"><title>Node11</title>
<g id="a_node11"><a xlink:href="$AP__Math_8h.html#adc76d4a5e5c9ae8cb7ab17b55c40d636" xlink:title="norm">
<polygon fill="white" stroke="black" points="532.5,-107.583 532.5,-126.583 570.5,-126.583 570.5,-107.583 532.5,-107.583"/>
<text text-anchor="middle" x="551.5" y="-114.583" font-family="Helvetica,sans-Serif" font-size="10.00">norm</text>
</a>
</g>
</g>
<!-- Node10&#45;&gt;Node11 -->
<g id="edge10" class="edge"><title>Node10&#45;&gt;Node11</title>
<path fill="none" stroke="midnightblue" d="M272.226,-111.849C337.869,-113.084 465.433,-115.483 522.143,-116.55"/>
<polygon fill="midnightblue" stroke="midnightblue" points="522.125,-120.05 532.189,-116.739 522.257,-113.051 522.125,-120.05"/>
</g>
<!-- Node12 -->
<g id="node12" class="node"><title>Node12</title>
<g id="a_node12"><a xlink:href="$AP__Math_8h.html#a0375e3d67fd3911cacee5c3e1408c0f2" xlink:title="sq">
<polygon fill="white" stroke="black" points="652,-104.583 652,-123.583 681,-123.583 681,-104.583 652,-104.583"/>
<text text-anchor="middle" x="666.5" y="-111.583" font-family="Helvetica,sans-Serif" font-size="10.00">sq</text>
</a>
</g>
</g>
<!-- Node11&#45;&gt;Node12 -->
<g id="edge11" class="edge"><title>Node11&#45;&gt;Node12</title>
<path fill="none" stroke="midnightblue" d="M570.655,-116.601C589.994,-116.088 620.679,-115.273 641.885,-114.71"/>
<polygon fill="midnightblue" stroke="midnightblue" points="642.096,-118.206 651.999,-114.442 641.91,-111.208 642.096,-118.206"/>
</g>
<!-- Node15 -->
<g id="node15" class="node"><title>Node15</title>
<g id="a_node15"><a xlink:href="$classAC__Avoid.html#a2ba87fd18a092d9f11ba197255064d16" xlink:title="AC_Avoid::get_max_speed">
<polygon fill="white" stroke="black" points="329,-63.5832 329,-82.5832 465,-82.5832 465,-63.5832 329,-63.5832"/>
<text text-anchor="middle" x="397" y="-70.5832" font-family="Helvetica,sans-Serif" font-size="10.00">AC_Avoid::get_max_speed</text>
</a>
</g>
</g>
<!-- Node14&#45;&gt;Node15 -->
<g id="edge14" class="edge"><title>Node14&#45;&gt;Node15</title>
<path fill="none" stroke="midnightblue" d="M292.754,-73.0832C301.223,-73.0832 310.011,-73.0832 318.724,-73.0832"/>
<polygon fill="midnightblue" stroke="midnightblue" points="318.895,-76.5833 328.895,-73.0832 318.895,-69.5833 318.895,-76.5833"/>
</g>
<!-- Node16 -->
<g id="node16" class="node"><title>Node16</title>
<g id="a_node16"><a xlink:href="$classAC__AttitudeControl.html#a1788967db1aa0dfe68fad24da23947f9" xlink:title="AC_AttitudeControl\l::sqrt_controller">
<polygon fill="white" stroke="black" points="501,-58.0832 501,-88.0832 602,-88.0832 602,-58.0832 501,-58.0832"/>
<text text-anchor="start" x="509" y="-76.0832" font-family="Helvetica,sans-Serif" font-size="10.00">AC_AttitudeControl</text>
<text text-anchor="middle" x="551.5" y="-65.0832" font-family="Helvetica,sans-Serif" font-size="10.00">::sqrt_controller</text>
</a>
</g>
</g>
<!-- Node15&#45;&gt;Node16 -->
<g id="edge15" class="edge"><title>Node15&#45;&gt;Node16</title>
<path fill="none" stroke="midnightblue" d="M465.333,-73.0832C473.842,-73.0832 482.501,-73.0832 490.878,-73.0832"/>
<polygon fill="midnightblue" stroke="midnightblue" points="490.928,-76.5833 500.928,-73.0832 490.928,-69.5833 490.928,-76.5833"/>
</g>
<!-- Node16&#45;&gt;Node12 -->
<g id="edge17" class="edge"><title>Node16&#45;&gt;Node12</title>
<path fill="none" stroke="midnightblue" d="M593.935,-88.1173C610.198,-94.0179 628.257,-100.57 642.166,-105.617"/>
<polygon fill="midnightblue" stroke="midnightblue" points="641.3,-109.026 651.894,-109.147 643.688,-102.446 641.3,-109.026"/>
</g>
<!-- Node16&#45;&gt;Node13 -->
<g id="edge16" class="edge"><title>Node16&#45;&gt;Node13</title>
<path fill="none" stroke="midnightblue" d="M593.935,-58.0491C606.73,-53.4068 620.636,-48.3611 632.759,-43.9628"/>
<polygon fill="midnightblue" stroke="midnightblue" points="634.252,-47.1444 642.458,-40.4435 631.864,-40.5642 634.252,-47.1444"/>
</g>
<!-- Node17 -->
<g id="node17" class="node"><title>Node17</title>
<g id="a_node17"><a xlink:href="$AP__Math_8cpp.html#ac89eb1832d8e4d67fcf1ac07e3c25184" xlink:title="safe_sqrt">
<polygon fill="white" stroke="black" points="638,-63.5832 638,-82.5832 695,-82.5832 695,-63.5832 638,-63.5832"/>
<text text-anchor="middle" x="666.5" y="-70.5832" font-family="Helvetica,sans-Serif" font-size="10.00">safe_sqrt</text>
</a>
</g>
</g>
<!-- Node16&#45;&gt;Node17 -->
<g id="edge18" class="edge"><title>Node16&#45;&gt;Node17</title>
<path fill="none" stroke="midnightblue" d="M602.063,-73.0832C610.653,-73.0832 619.459,-73.0832 627.672,-73.0832"/>
<polygon fill="midnightblue" stroke="midnightblue" points="627.698,-76.5833 637.698,-73.0832 627.698,-69.5833 627.698,-76.5833"/>
</g>
<!-- Node18 -->
<g id="node18" class="node"><title>Node18</title>
<g id="a_node18"><a xlink:href="$AP__Math_8cpp.html#aa5cb9421d48def32eb7574adb1b152b0" xlink:title="safe_sqrt\&lt; int \&gt;">
<polygon fill="white" stroke="black" points="740,-120.583 740,-139.583 826,-139.583 826,-120.583 740,-120.583"/>
<text text-anchor="middle" x="783" y="-127.583" font-family="Helvetica,sans-Serif" font-size="10.00">safe_sqrt&lt; int &gt;</text>
</a>
</g>
</g>
<!-- Node17&#45;&gt;Node18 -->
<g id="edge19" class="edge"><title>Node17&#45;&gt;Node18</title>
<path fill="none" stroke="midnightblue" d="M681.71,-82.6144C694.312,-90.8147 713.398,-102.625 731,-111.083 735.136,-113.071 739.538,-114.988 743.956,-116.79"/>
<polygon fill="midnightblue" stroke="midnightblue" points="742.969,-120.161 753.558,-120.533 745.512,-113.639 742.969,-120.161"/>
</g>
<!-- Node19 -->
<g id="node19" class="node"><title>Node19</title>
<g id="a_node19"><a xlink:href="$AP__Math_8cpp.html#a6952300e3d03222491051d674312b67d" xlink:title="safe_sqrt\&lt; short \&gt;">
<polygon fill="white" stroke="black" points="734.5,-82.5832 734.5,-101.583 831.5,-101.583 831.5,-82.5832 734.5,-82.5832"/>
<text text-anchor="middle" x="783" y="-89.5832" font-family="Helvetica,sans-Serif" font-size="10.00">safe_sqrt&lt; short &gt;</text>
</a>
</g>
</g>
<!-- Node17&#45;&gt;Node19 -->
<g id="edge20" class="edge"><title>Node17&#45;&gt;Node19</title>
<path fill="none" stroke="midnightblue" d="M695.217,-77.6826C704.053,-79.1487 714.181,-80.8294 724.327,-82.513"/>
<polygon fill="midnightblue" stroke="midnightblue" points="723.993,-86.0054 734.431,-84.1897 725.139,-79.0998 723.993,-86.0054"/>
</g>
<!-- Node20 -->
<g id="node20" class="node"><title>Node20</title>
<g id="a_node20"><a xlink:href="$AP__Math_8cpp.html#a40ae6cfccff676d9d2ff57e2e9ca549c" xlink:title="safe_sqrt\&lt; float \&gt;">
<polygon fill="white" stroke="black" points="736,-44.5832 736,-63.5832 830,-63.5832 830,-44.5832 736,-44.5832"/>
<text text-anchor="middle" x="783" y="-51.5832" font-family="Helvetica,sans-Serif" font-size="10.00">safe_sqrt&lt; float &gt;</text>
</a>
</g>
</g>
<!-- Node17&#45;&gt;Node20 -->
<g id="edge21" class="edge"><title>Node17&#45;&gt;Node20</title>
<path fill="none" stroke="midnightblue" d="M695.217,-68.4838C704.446,-66.9524 715.084,-65.1871 725.68,-63.4288"/>
<polygon fill="midnightblue" stroke="midnightblue" points="726.487,-66.8429 735.779,-61.753 725.341,-59.9373 726.487,-66.8429"/>
</g>
<!-- Node21 -->
<g id="node21" class="node"><title>Node21</title>
<g id="a_node21"><a xlink:href="$AP__Math_8cpp.html#acf6795fb73b8b915b53126f71cd2712a" xlink:title="safe_sqrt\&lt; double \&gt;">
<polygon fill="white" stroke="black" points="731,-6.58319 731,-25.5832 835,-25.5832 835,-6.58319 731,-6.58319"/>
<text text-anchor="middle" x="783" y="-13.5832" font-family="Helvetica,sans-Serif" font-size="10.00">safe_sqrt&lt; double &gt;</text>
</a>
</g>
</g>
<!-- Node17&#45;&gt;Node21 -->
<g id="edge22" class="edge"><title>Node17&#45;&gt;Node21</title>
<path fill="none" stroke="midnightblue" d="M681.71,-63.552C694.312,-55.3517 713.398,-43.5411 731,-35.0832 735.136,-33.0959 739.538,-31.1788 743.956,-29.3769"/>
<polygon fill="midnightblue" stroke="midnightblue" points="745.512,-32.5269 753.558,-25.6334 742.969,-26.005 745.512,-32.5269"/>
</g>
</g>
</svg>
