<?xml version="1.0" encoding="UTF-8" standalone="no"?>
<!DOCTYPE svg PUBLIC "-//W3C//DTD SVG 1.1//EN"
 "http://www.w3.org/Graphics/SVG/1.1/DTD/svg11.dtd">
<!-- Generated by graphviz version 2.38.0 (20140413.2041)
 -->
<!-- Title: AC_AttitudeControl::rate_target_to_motor_pitch Pages: 1 -->
<svg width="637pt" height="401pt"
 viewBox="0.00 0.00 637.00 400.50" xmlns="http://www.w3.org/2000/svg" xmlns:xlink="http://www.w3.org/1999/xlink">
<g id="graph0" class="graph" transform="scale(1 1) rotate(0) translate(4 396.5)">
<title>AC_AttitudeControl::rate_target_to_motor_pitch</title>
<polygon fill="white" stroke="none" points="-4,4 -4,-396.5 633,-396.5 633,4 -4,4"/>
<!-- Node1 -->
<g id="node1" class="node"><title>Node1</title>
<polygon fill="#bfbfbf" stroke="black" points="0,-204 0,-234 139,-234 139,-204 0,-204"/>
<text text-anchor="start" x="8" y="-222" font-family="Helvetica,sans-Serif" font-size="10.00">AC_AttitudeControl</text>
<text text-anchor="middle" x="69.5" y="-211" font-family="Helvetica,sans-Serif" font-size="10.00">::rate_target_to_motor_pitch</text>
</g>
<!-- Node2 -->
<g id="node2" class="node"><title>Node2</title>
<g id="a_node2"><a xlink:href="$classAC__AttitudeControl.html#a9e10a37d28eeb3d6476ec087b3bac3df" xlink:title="AC_AttitudeControl\l::get_rate_pitch_pid">
<polygon fill="white" stroke="black" points="191,-362 191,-392 293,-392 293,-362 191,-362"/>
<text text-anchor="start" x="199" y="-380" font-family="Helvetica,sans-Serif" font-size="10.00">AC_AttitudeControl</text>
<text text-anchor="middle" x="242" y="-369" font-family="Helvetica,sans-Serif" font-size="10.00">::get_rate_pitch_pid</text>
</a>
</g>
</g>
<!-- Node1&#45;&gt;Node2 -->
<g id="edge1" class="edge"><title>Node1&#45;&gt;Node2</title>
<path fill="none" stroke="midnightblue" d="M78.7892,-234.377C94.2499,-261.709 130.031,-318.974 175,-352 177.487,-353.827 180.124,-355.536 182.857,-357.133"/>
<polygon fill="midnightblue" stroke="midnightblue" points="181.366,-360.304 191.846,-361.86 184.624,-354.108 181.366,-360.304"/>
</g>
<!-- Node3 -->
<g id="node3" class="node"><title>Node3</title>
<g id="a_node3"><a xlink:href="$classAC__PID.html#a0217a1314e284babe6fe0d3e3cf92601" xlink:title="AC_PID::set_input_filter_d">
<polygon fill="white" stroke="black" points="175,-323.5 175,-342.5 309,-342.5 309,-323.5 175,-323.5"/>
<text text-anchor="middle" x="242" y="-330.5" font-family="Helvetica,sans-Serif" font-size="10.00">AC_PID::set_input_filter_d</text>
</a>
</g>
</g>
<!-- Node1&#45;&gt;Node3 -->
<g id="edge2" class="edge"><title>Node1&#45;&gt;Node3</title>
<path fill="none" stroke="midnightblue" d="M83.0783,-234.16C101.256,-255.11 136.891,-292.73 175,-314 178.973,-316.217 183.227,-318.196 187.592,-319.957"/>
<polygon fill="midnightblue" stroke="midnightblue" points="186.66,-323.343 197.254,-323.475 189.055,-316.765 186.66,-323.343"/>
</g>
<!-- Node6 -->
<g id="node6" class="node"><title>Node6</title>
<g id="a_node6"><a xlink:href="$classAC__PID.html#a3f727ab395b401474027b6b9efcab5a3" xlink:title="AC_PID::set_desired_rate">
<polygon fill="white" stroke="black" points="176.5,-285.5 176.5,-304.5 307.5,-304.5 307.5,-285.5 176.5,-285.5"/>
<text text-anchor="middle" x="242" y="-292.5" font-family="Helvetica,sans-Serif" font-size="10.00">AC_PID::set_desired_rate</text>
</a>
</g>
</g>
<!-- Node1&#45;&gt;Node6 -->
<g id="edge5" class="edge"><title>Node1&#45;&gt;Node6</title>
<path fill="none" stroke="midnightblue" d="M94.6642,-234.166C115.378,-246.675 146.327,-264.22 175,-276 180.582,-278.293 186.536,-280.422 192.497,-282.363"/>
<polygon fill="midnightblue" stroke="midnightblue" points="191.884,-285.836 202.472,-285.445 193.951,-279.149 191.884,-285.836"/>
</g>
<!-- Node7 -->
<g id="node7" class="node"><title>Node7</title>
<g id="a_node7"><a xlink:href="$classAC__PID.html#a0fc275cae5ff46799af85af551c65870" xlink:title="AC_PID::get_integrator">
<polygon fill="white" stroke="black" points="182.5,-247.5 182.5,-266.5 301.5,-266.5 301.5,-247.5 182.5,-247.5"/>
<text text-anchor="middle" x="242" y="-254.5" font-family="Helvetica,sans-Serif" font-size="10.00">AC_PID::get_integrator</text>
</a>
</g>
</g>
<!-- Node1&#45;&gt;Node7 -->
<g id="edge6" class="edge"><title>Node1&#45;&gt;Node7</title>
<path fill="none" stroke="midnightblue" d="M137.886,-234.019C154.608,-237.745 172.29,-241.686 188.2,-245.232"/>
<polygon fill="midnightblue" stroke="midnightblue" points="187.849,-248.74 198.371,-247.499 189.372,-241.907 187.849,-248.74"/>
</g>
<!-- Node8 -->
<g id="node8" class="node"><title>Node8</title>
<g id="a_node8"><a xlink:href="$classAC__PID.html#a2d5bf9811a78c93a396ec1e37ae6fa0a" xlink:title="AC_PID::get_i">
<polygon fill="white" stroke="black" points="363.5,-228.5 363.5,-247.5 443.5,-247.5 443.5,-228.5 363.5,-228.5"/>
<text text-anchor="middle" x="403.5" y="-235.5" font-family="Helvetica,sans-Serif" font-size="10.00">AC_PID::get_i</text>
</a>
</g>
</g>
<!-- Node1&#45;&gt;Node8 -->
<g id="edge7" class="edge"><title>Node1&#45;&gt;Node8</title>
<path fill="none" stroke="midnightblue" d="M139.291,-222.937C203.123,-226.59 296.565,-231.937 353.241,-235.181"/>
<polygon fill="midnightblue" stroke="midnightblue" points="353.197,-238.684 363.38,-235.761 353.597,-231.695 353.197,-238.684"/>
</g>
<!-- Node9 -->
<g id="node9" class="node"><title>Node9</title>
<g id="a_node9"><a xlink:href="$classAC__PID.html#a4808bb2656a1e8d94c713e58a7a2a222" xlink:title="AC_PID::get_p">
<polygon fill="white" stroke="black" points="200.5,-171.5 200.5,-190.5 283.5,-190.5 283.5,-171.5 200.5,-171.5"/>
<text text-anchor="middle" x="242" y="-178.5" font-family="Helvetica,sans-Serif" font-size="10.00">AC_PID::get_p</text>
</a>
</g>
</g>
<!-- Node1&#45;&gt;Node9 -->
<g id="edge9" class="edge"><title>Node1&#45;&gt;Node9</title>
<path fill="none" stroke="midnightblue" d="M137.886,-203.981C155.307,-200.099 173.77,-195.984 190.185,-192.325"/>
<polygon fill="midnightblue" stroke="midnightblue" points="191.114,-195.704 200.114,-190.113 189.592,-188.872 191.114,-195.704"/>
</g>
<!-- Node10 -->
<g id="node10" class="node"><title>Node10</title>
<g id="a_node10"><a xlink:href="$classAC__PID.html#ad0c0510049ea37401920792e843bec86" xlink:title="AC_PID::get_d">
<polygon fill="white" stroke="black" points="200.5,-133.5 200.5,-152.5 283.5,-152.5 283.5,-133.5 200.5,-133.5"/>
<text text-anchor="middle" x="242" y="-140.5" font-family="Helvetica,sans-Serif" font-size="10.00">AC_PID::get_d</text>
</a>
</g>
</g>
<!-- Node1&#45;&gt;Node10 -->
<g id="edge10" class="edge"><title>Node1&#45;&gt;Node10</title>
<path fill="none" stroke="midnightblue" d="M94.6642,-203.834C115.378,-191.325 146.327,-173.78 175,-162 180.582,-159.707 186.536,-157.578 192.497,-155.637"/>
<polygon fill="midnightblue" stroke="midnightblue" points="193.951,-158.851 202.472,-152.555 191.884,-152.164 193.951,-158.851"/>
</g>
<!-- Node11 -->
<g id="node11" class="node"><title>Node11</title>
<g id="a_node11"><a xlink:href="$classAC__PID.html#af8b4c040c43a28fbe025de765f38e90d" xlink:title="AC_PID::get_ff">
<polygon fill="white" stroke="black" points="200,-95.5 200,-114.5 284,-114.5 284,-95.5 200,-95.5"/>
<text text-anchor="middle" x="242" y="-102.5" font-family="Helvetica,sans-Serif" font-size="10.00">AC_PID::get_ff</text>
</a>
</g>
</g>
<!-- Node1&#45;&gt;Node11 -->
<g id="edge11" class="edge"><title>Node1&#45;&gt;Node11</title>
<path fill="none" stroke="midnightblue" d="M83.0783,-203.84C101.256,-182.89 136.891,-145.27 175,-124 179.75,-121.349 184.904,-119.039 190.166,-117.033"/>
<polygon fill="midnightblue" stroke="midnightblue" points="191.382,-120.316 199.691,-113.743 189.097,-113.7 191.382,-120.316"/>
</g>
<!-- Node12 -->
<g id="node12" class="node"><title>Node12</title>
<g id="a_node12"><a xlink:href="$AP__Math_8h.html#ad525609d9dba6ffa556a0fbf08a3f9b4" xlink:title="constrain_float">
<polygon fill="white" stroke="black" points="202,-57.5 202,-76.5 282,-76.5 282,-57.5 202,-57.5"/>
<text text-anchor="middle" x="242" y="-64.5" font-family="Helvetica,sans-Serif" font-size="10.00">constrain_float</text>
</a>
</g>
</g>
<!-- Node1&#45;&gt;Node12 -->
<g id="edge12" class="edge"><title>Node1&#45;&gt;Node12</title>
<path fill="none" stroke="midnightblue" d="M78.2916,-203.689C93.2035,-175.942 128.475,-117.324 175,-86 180.258,-82.4602 186.177,-79.5712 192.258,-77.2154"/>
<polygon fill="midnightblue" stroke="midnightblue" points="193.538,-80.4767 201.873,-73.9354 191.278,-73.8516 193.538,-80.4767"/>
</g>
<!-- Node4 -->
<g id="node4" class="node"><title>Node4</title>
<g id="a_node4"><a xlink:href="$classAC__PID.html#ac12ffbd4fd053c6152d403b69e07b8e1" xlink:title="AC_PID::get_filt_alpha">
<polygon fill="white" stroke="black" points="345,-304.5 345,-323.5 462,-323.5 462,-304.5 345,-304.5"/>
<text text-anchor="middle" x="403.5" y="-311.5" font-family="Helvetica,sans-Serif" font-size="10.00">AC_PID::get_filt_alpha</text>
</a>
</g>
</g>
<!-- Node3&#45;&gt;Node4 -->
<g id="edge3" class="edge"><title>Node3&#45;&gt;Node4</title>
<path fill="none" stroke="midnightblue" d="M309.257,-325.107C317.654,-324.107 326.257,-323.082 334.678,-322.079"/>
<polygon fill="midnightblue" stroke="midnightblue" points="335.318,-325.528 344.834,-320.869 334.49,-318.577 335.318,-325.528"/>
</g>
<!-- Node5 -->
<g id="node5" class="node"><title>Node5</title>
<g id="a_node5"><a xlink:href="$AP__Math_8h.html#a2a12cce483e9b870da70d30406d82c60" xlink:title="is_zero">
<polygon fill="white" stroke="black" points="539.5,-266.5 539.5,-285.5 587.5,-285.5 587.5,-266.5 539.5,-266.5"/>
<text text-anchor="middle" x="563.5" y="-273.5" font-family="Helvetica,sans-Serif" font-size="10.00">is_zero</text>
</a>
</g>
</g>
<!-- Node4&#45;&gt;Node5 -->
<g id="edge4" class="edge"><title>Node4&#45;&gt;Node5</title>
<path fill="none" stroke="midnightblue" d="M444.37,-304.411C470.607,-298.101 504.548,-289.938 529.312,-283.982"/>
<polygon fill="midnightblue" stroke="midnightblue" points="530.41,-287.318 539.314,-281.576 528.773,-280.512 530.41,-287.318"/>
</g>
<!-- Node8&#45;&gt;Node5 -->
<g id="edge8" class="edge"><title>Node8&#45;&gt;Node5</title>
<path fill="none" stroke="midnightblue" d="M443.556,-247.393C469.9,-253.729 504.286,-261.999 529.307,-268.017"/>
<polygon fill="midnightblue" stroke="midnightblue" points="528.528,-271.429 539.07,-270.365 530.165,-264.623 528.528,-271.429"/>
</g>
<!-- Node13 -->
<g id="node13" class="node"><title>Node13</title>
<g id="a_node13"><a xlink:href="$AP__Math_8h.html#a20e8f8671c282c69c1954652b6d61585" xlink:title="constrain_value">
<polygon fill="white" stroke="black" points="361,-57.5 361,-76.5 446,-76.5 446,-57.5 361,-57.5"/>
<text text-anchor="middle" x="403.5" y="-64.5" font-family="Helvetica,sans-Serif" font-size="10.00">constrain_value</text>
</a>
</g>
</g>
<!-- Node12&#45;&gt;Node13 -->
<g id="edge13" class="edge"><title>Node12&#45;&gt;Node13</title>
<path fill="none" stroke="midnightblue" d="M282.018,-67C302.732,-67 328.458,-67 350.812,-67"/>
<polygon fill="midnightblue" stroke="midnightblue" points="350.815,-70.5001 360.815,-67 350.815,-63.5001 350.815,-70.5001"/>
</g>
<!-- Node14 -->
<g id="node14" class="node"><title>Node14</title>
<g id="a_node14"><a xlink:href="$AP__Math_8cpp.html#a37e8e901754cb9c8e53a8e3030c82c50" xlink:title="constrain_value\&lt; int \&gt;">
<polygon fill="white" stroke="black" points="507,-114.5 507,-133.5 620,-133.5 620,-114.5 507,-114.5"/>
<text text-anchor="middle" x="563.5" y="-121.5" font-family="Helvetica,sans-Serif" font-size="10.00">constrain_value&lt; int &gt;</text>
</a>
</g>
</g>
<!-- Node13&#45;&gt;Node14 -->
<g id="edge14" class="edge"><title>Node13&#45;&gt;Node14</title>
<path fill="none" stroke="midnightblue" d="M426.18,-76.5282C444.981,-84.618 473.023,-96.2701 498,-105 504.441,-107.251 511.304,-109.465 518.06,-111.541"/>
<polygon fill="midnightblue" stroke="midnightblue" points="517.235,-114.948 527.819,-114.473 519.249,-108.244 517.235,-114.948"/>
</g>
<!-- Node15 -->
<g id="node15" class="node"><title>Node15</title>
<g id="a_node15"><a xlink:href="$AP__Math_8cpp.html#afdbe107ec1987d318a6347816fbf2b89" xlink:title="constrain_value\&lt; short \&gt;">
<polygon fill="white" stroke="black" points="501,-76.5 501,-95.5 626,-95.5 626,-76.5 501,-76.5"/>
<text text-anchor="middle" x="563.5" y="-83.5" font-family="Helvetica,sans-Serif" font-size="10.00">constrain_value&lt; short &gt;</text>
</a>
</g>
</g>
<!-- Node13&#45;&gt;Node15 -->
<g id="edge15" class="edge"><title>Node13&#45;&gt;Node15</title>
<path fill="none" stroke="midnightblue" d="M446.013,-71.992C459.738,-73.6425 475.429,-75.5294 490.752,-77.3721"/>
<polygon fill="midnightblue" stroke="midnightblue" points="490.398,-80.8547 500.745,-78.5737 491.234,-73.9048 490.398,-80.8547"/>
</g>
<!-- Node16 -->
<g id="node16" class="node"><title>Node16</title>
<g id="a_node16"><a xlink:href="$AP__Math_8cpp.html#ae6c621670c214da687de21d4e3a92587" xlink:title="constrain_value\&lt; float \&gt;">
<polygon fill="white" stroke="black" points="502.5,-38.5 502.5,-57.5 624.5,-57.5 624.5,-38.5 502.5,-38.5"/>
<text text-anchor="middle" x="563.5" y="-45.5" font-family="Helvetica,sans-Serif" font-size="10.00">constrain_value&lt; float &gt;</text>
</a>
</g>
</g>
<!-- Node13&#45;&gt;Node16 -->
<g id="edge16" class="edge"><title>Node13&#45;&gt;Node16</title>
<path fill="none" stroke="midnightblue" d="M446.013,-62.008C460.113,-60.3124 476.288,-58.3673 492.008,-56.4769"/>
<polygon fill="midnightblue" stroke="midnightblue" points="492.735,-59.9147 502.246,-55.2458 491.899,-52.9648 492.735,-59.9147"/>
</g>
<!-- Node17 -->
<g id="node17" class="node"><title>Node17</title>
<g id="a_node17"><a xlink:href="$AP__Math_8cpp.html#afe3990b00e9abc43fa97dfaf8e32f5c4" xlink:title="constrain_value\&lt; double \&gt;">
<polygon fill="white" stroke="black" points="498,-0.5 498,-19.5 629,-19.5 629,-0.5 498,-0.5"/>
<text text-anchor="middle" x="563.5" y="-7.5" font-family="Helvetica,sans-Serif" font-size="10.00">constrain_value&lt; double &gt;</text>
</a>
</g>
</g>
<!-- Node13&#45;&gt;Node17 -->
<g id="edge17" class="edge"><title>Node13&#45;&gt;Node17</title>
<path fill="none" stroke="midnightblue" d="M426.18,-57.4718C444.981,-49.382 473.023,-37.7299 498,-29 504.441,-26.7486 511.304,-24.5347 518.06,-22.4586"/>
<polygon fill="midnightblue" stroke="midnightblue" points="519.249,-25.756 527.819,-19.5272 517.235,-19.0519 519.249,-25.756"/>
</g>
</g>
</svg>
