<?xml version="1.0" encoding="UTF-8" standalone="no"?>
<!DOCTYPE svg PUBLIC "-//W3C//DTD SVG 1.1//EN"
 "http://www.w3.org/Graphics/SVG/1.1/DTD/svg11.dtd">
<!-- Generated by graphviz version 2.38.0 (20140413.2041)
 -->
<!-- Title: AC_PosControl::get_dt_xy Pages: 1 -->
<svg width="1334pt" height="597pt"
 viewBox="0.00 0.00 1334.00 597.04" xmlns="http://www.w3.org/2000/svg" xmlns:xlink="http://www.w3.org/1999/xlink">
<g id="graph0" class="graph" transform="scale(1 1) rotate(0) translate(4 593.036)">
<title>AC_PosControl::get_dt_xy</title>
<polygon fill="white" stroke="none" points="-4,4 -4,-593.036 1330,-593.036 1330,4 -4,4"/>
<!-- Node1 -->
<g id="node1" class="node"><title>Node1</title>
<polygon fill="#bfbfbf" stroke="black" points="0,-99.0358 0,-129.036 104,-129.036 104,-99.0358 0,-99.0358"/>
<text text-anchor="start" x="8" y="-117.036" font-family="Helvetica,sans-Serif" font-size="10.00">AC_PosControl::get</text>
<text text-anchor="middle" x="52" y="-106.036" font-family="Helvetica,sans-Serif" font-size="10.00">_dt_xy</text>
</g>
<!-- Node2 -->
<g id="node2" class="node"><title>Node2</title>
<g id="a_node2"><a xlink:href="$classAC__WPNav.html#a0e91b64e0b97a76cbe20478ac438ab1b" xlink:title="AC_WPNav::set_spline\l_origin_and_destination">
<polygon fill="white" stroke="black" points="635,-530.036 635,-560.036 756,-560.036 756,-530.036 635,-530.036"/>
<text text-anchor="start" x="643" y="-548.036" font-family="Helvetica,sans-Serif" font-size="10.00">AC_WPNav::set_spline</text>
<text text-anchor="middle" x="695.5" y="-537.036" font-family="Helvetica,sans-Serif" font-size="10.00">_origin_and_destination</text>
</a>
</g>
</g>
<!-- Node1&#45;&gt;Node2 -->
<g id="edge1" class="edge"><title>Node1&#45;&gt;Node2</title>
<path fill="none" stroke="midnightblue" d="M68.4565,-137.73C115.738,-207.972 266.427,-415.729 450,-505.036 508.597,-533.543 583.469,-542.318 634.83,-544.732"/>
<polygon fill="midnightblue" stroke="midnightblue" points="71.1785,-135.503 62.7198,-129.124 65.3539,-139.386 71.1785,-135.503"/>
</g>
<!-- Node5 -->
<g id="node5" class="node"><title>Node5</title>
<g id="a_node5"><a xlink:href="$classAC__Circle.html#ad28205982ae7bc5f1e72f5285696c99b" xlink:title="update &#45; update circle controller ">
<polygon fill="white" stroke="black" points="1029.5,-11.5358 1029.5,-30.5358 1126.5,-30.5358 1126.5,-11.5358 1029.5,-11.5358"/>
<text text-anchor="middle" x="1078" y="-18.5358" font-family="Helvetica,sans-Serif" font-size="10.00">AC_Circle::update</text>
</a>
</g>
</g>
<!-- Node1&#45;&gt;Node5 -->
<g id="edge4" class="edge"><title>Node1&#45;&gt;Node5</title>
<path fill="none" stroke="midnightblue" d="M73.827,-91.1757C90.1987,-74.6534 114.443,-53.1834 140,-41.0358 227.463,0.537152 257.159,-0.0358101 354,-0.0358101 354,-0.0358101 354,-0.0358101 696.5,-0.0358101 816.414,-0.0358101 957.263,-10.5626 1029.29,-16.7101"/>
<polygon fill="midnightblue" stroke="midnightblue" points="70.8719,-89.1981 66.4512,-98.8266 75.9115,-94.0564 70.8719,-89.1981"/>
</g>
<!-- Node7 -->
<g id="node7" class="node"><title>Node7</title>
<g id="a_node7"><a xlink:href="$classAC__WPNav.html#af9d3f98ad44166d4c5d072bf3ba4a3db" xlink:title="update_brake &#45; run the brake controller &#45; should be called at 400hz ">
<polygon fill="white" stroke="black" points="1010.5,-71.5358 1010.5,-90.5358 1145.5,-90.5358 1145.5,-71.5358 1010.5,-71.5358"/>
<text text-anchor="middle" x="1078" y="-78.5358" font-family="Helvetica,sans-Serif" font-size="10.00">AC_WPNav::update_brake</text>
</a>
</g>
</g>
<!-- Node1&#45;&gt;Node7 -->
<g id="edge6" class="edge"><title>Node1&#45;&gt;Node7</title>
<path fill="none" stroke="midnightblue" d="M94.5405,-94.788C108.732,-88.7689 124.849,-82.5334 140,-78.0358 232.758,-50.5009 257.242,-38.0358 354,-38.0358 354,-38.0358 354,-38.0358 696.5,-38.0358 814.834,-38.0358 952.566,-58.8246 1025.51,-71.4927"/>
<polygon fill="midnightblue" stroke="midnightblue" points="92.8428,-91.7091 85.0586,-98.8965 95.6259,-98.1321 92.8428,-91.7091"/>
</g>
<!-- Node9 -->
<g id="node9" class="node"><title>Node9</title>
<g id="a_node9"><a xlink:href="$classAC__WPNav.html#a0a434270245fd8641352af387700dc82" xlink:title="update_loiter &#45; run the loiter controller &#45; should be called at 10hz ">
<polygon fill="white" stroke="black" points="1012,-109.536 1012,-128.536 1144,-128.536 1144,-109.536 1012,-109.536"/>
<text text-anchor="middle" x="1078" y="-116.536" font-family="Helvetica,sans-Serif" font-size="10.00">AC_WPNav::update_loiter</text>
</a>
</g>
</g>
<!-- Node1&#45;&gt;Node9 -->
<g id="edge8" class="edge"><title>Node1&#45;&gt;Node9</title>
<path fill="none" stroke="midnightblue" d="M114.309,-101.714C174.932,-90.6165 270.475,-76.0358 354,-76.0358 354,-76.0358 354,-76.0358 696.5,-76.0358 819.235,-76.0358 850.585,-77.0849 972,-95.0358 995.308,-98.4818 1021.11,-104.35 1041.3,-109.42"/>
<polygon fill="midnightblue" stroke="midnightblue" points="113.34,-98.3344 104.148,-103.602 114.619,-105.217 113.34,-98.3344"/>
</g>
<!-- Node10 -->
<g id="node10" class="node"><title>Node10</title>
<g id="a_node10"><a xlink:href="$classAC__WPNav.html#acc138e7bc6435087ab308896358de6a3" xlink:title="update_spline &#45; update spline controller ">
<polygon fill="white" stroke="black" points="1009.5,-155.536 1009.5,-174.536 1146.5,-174.536 1146.5,-155.536 1009.5,-155.536"/>
<text text-anchor="middle" x="1078" y="-162.536" font-family="Helvetica,sans-Serif" font-size="10.00">AC_WPNav::update_spline</text>
</a>
</g>
</g>
<!-- Node1&#45;&gt;Node10 -->
<g id="edge10" class="edge"><title>Node1&#45;&gt;Node10</title>
<path fill="none" stroke="midnightblue" d="M114.323,-114.036C175.148,-114.036 271.009,-114.036 354,-114.036 354,-114.036 354,-114.036 516,-114.036 647.787,-114.036 679.747,-132.182 811,-144.036 878.475,-150.129 955.669,-156.114 1009.46,-160.126"/>
<polygon fill="midnightblue" stroke="midnightblue" points="114.128,-110.536 104.128,-114.036 114.128,-117.536 114.128,-110.536"/>
</g>
<!-- Node12 -->
<g id="node12" class="node"><title>Node12</title>
<g id="a_node12"><a xlink:href="$classAC__PosControl.html#ad89eec74ef77005f3f5c449da98ad12c" xlink:title="AC_PosControl::update\l_vel_controller_xyz">
<polygon fill="white" stroke="black" points="140,-181.036 140,-211.036 260,-211.036 260,-181.036 140,-181.036"/>
<text text-anchor="start" x="148" y="-199.036" font-family="Helvetica,sans-Serif" font-size="10.00">AC_PosControl::update</text>
<text text-anchor="middle" x="200" y="-188.036" font-family="Helvetica,sans-Serif" font-size="10.00">_vel_controller_xyz</text>
</a>
</g>
</g>
<!-- Node1&#45;&gt;Node12 -->
<g id="edge12" class="edge"><title>Node1&#45;&gt;Node12</title>
<path fill="none" stroke="midnightblue" d="M88.8168,-134.152C114.471,-148.561 148.483,-167.663 171.897,-180.813"/>
<polygon fill="midnightblue" stroke="midnightblue" points="90.2116,-130.921 79.7787,-129.076 86.7837,-137.024 90.2116,-130.921"/>
</g>
<!-- Node21 -->
<g id="node21" class="node"><title>Node21</title>
<g id="a_node21"><a xlink:href="$classAC__WPNav.html#a7dc4785fbce8364d7eb3d8e2d0c1b987" xlink:title="update_wpnav &#45; run the wp controller &#45; should be called at 100hz or higher ">
<polygon fill="white" stroke="black" points="1008,-496.536 1008,-515.536 1148,-515.536 1148,-496.536 1008,-496.536"/>
<text text-anchor="middle" x="1078" y="-503.536" font-family="Helvetica,sans-Serif" font-size="10.00">AC_WPNav::update_wpnav</text>
</a>
</g>
</g>
<!-- Node1&#45;&gt;Node21 -->
<g id="edge42" class="edge"><title>Node1&#45;&gt;Node21</title>
<path fill="none" stroke="midnightblue" d="M56.3881,-139.223C71.1352,-237.403 138.962,-589.036 354,-589.036 354,-589.036 354,-589.036 696.5,-589.036 833.077,-589.036 991.025,-537.358 1051.58,-515.557"/>
<polygon fill="midnightblue" stroke="midnightblue" points="59.8102,-138.432 54.9142,-129.036 52.8823,-139.434 59.8102,-138.432"/>
</g>
<!-- Node3 -->
<g id="node3" class="node"><title>Node3</title>
<g id="a_node3"><a xlink:href="$classAC__WPNav.html#a8caabd95cf51512456cd8d81f38dbff9" xlink:title="AC_WPNav::set_spline\l_destination">
<polygon fill="white" stroke="black" points="831,-447.036 831,-477.036 952,-477.036 952,-447.036 831,-447.036"/>
<text text-anchor="start" x="839" y="-465.036" font-family="Helvetica,sans-Serif" font-size="10.00">AC_WPNav::set_spline</text>
<text text-anchor="middle" x="891.5" y="-454.036" font-family="Helvetica,sans-Serif" font-size="10.00">_destination</text>
</a>
</g>
</g>
<!-- Node2&#45;&gt;Node3 -->
<g id="edge2" class="edge"><title>Node2&#45;&gt;Node3</title>
<path fill="none" stroke="midnightblue" d="M741.055,-525.974C775.749,-511.13 823.243,-490.811 855.302,-477.095"/>
<polygon fill="midnightblue" stroke="midnightblue" points="739.449,-522.854 731.632,-530.005 742.203,-529.289 739.449,-522.854"/>
</g>
<!-- Node4 -->
<g id="node4" class="node"><title>Node4</title>
<g id="a_node4"><a xlink:href="$classAC__WPNav.html#a4795d6f44811c6ca8b592c5cc098e0c0" xlink:title="set_fast_waypoint &#45; set to true to ignore the waypoint radius and consider the waypoint &#39;reached&#39; the...">
<polygon fill="white" stroke="black" points="1199,-510.036 1199,-540.036 1311,-540.036 1311,-510.036 1199,-510.036"/>
<text text-anchor="start" x="1207" y="-528.036" font-family="Helvetica,sans-Serif" font-size="10.00">AC_WPNav::set_fast</text>
<text text-anchor="middle" x="1255" y="-517.036" font-family="Helvetica,sans-Serif" font-size="10.00">_waypoint</text>
</a>
</g>
</g>
<!-- Node2&#45;&gt;Node4 -->
<g id="edge3" class="edge"><title>Node2&#45;&gt;Node4</title>
<path fill="none" stroke="midnightblue" d="M766.359,-542.53C878.61,-538.503 1096.85,-530.673 1198.91,-527.012"/>
<polygon fill="midnightblue" stroke="midnightblue" points="766.03,-539.039 756.162,-542.895 766.281,-546.035 766.03,-539.039"/>
</g>
<!-- Node6 -->
<g id="node6" class="node"><title>Node6</title>
<g id="a_node6"><a xlink:href="$classAC__Circle.html#a176fe6b798510eb180d35f62d7f6487c" xlink:title="get_angle_total &#45; return total angle in radians that vehicle has circled ">
<polygon fill="white" stroke="black" points="1200,-6.03581 1200,-36.0358 1310,-36.0358 1310,-6.03581 1200,-6.03581"/>
<text text-anchor="start" x="1208" y="-24.0358" font-family="Helvetica,sans-Serif" font-size="10.00">AC_Circle::get_angle</text>
<text text-anchor="middle" x="1255" y="-13.0358" font-family="Helvetica,sans-Serif" font-size="10.00">_total</text>
</a>
</g>
</g>
<!-- Node5&#45;&gt;Node6 -->
<g id="edge5" class="edge"><title>Node5&#45;&gt;Node6</title>
<path fill="none" stroke="midnightblue" d="M1136.86,-21.0358C1157.12,-21.0358 1179.79,-21.0358 1199.75,-21.0358"/>
<polygon fill="midnightblue" stroke="midnightblue" points="1136.82,-17.5359 1126.82,-21.0358 1136.82,-24.5359 1136.82,-17.5359"/>
</g>
<!-- Node8 -->
<g id="node8" class="node"><title>Node8</title>
<g id="a_node8"><a xlink:href="$classAC__WPNav.html#ae34a88192799de8f2b96c8cd295bb971" xlink:title="get_loiter_target &#45; returns loiter target position ">
<polygon fill="white" stroke="black" points="1197,-103.036 1197,-133.036 1313,-133.036 1313,-103.036 1197,-103.036"/>
<text text-anchor="start" x="1205" y="-121.036" font-family="Helvetica,sans-Serif" font-size="10.00">AC_WPNav::get_loiter</text>
<text text-anchor="middle" x="1255" y="-110.036" font-family="Helvetica,sans-Serif" font-size="10.00">_target</text>
</a>
</g>
</g>
<!-- Node7&#45;&gt;Node8 -->
<g id="edge7" class="edge"><title>Node7&#45;&gt;Node8</title>
<path fill="none" stroke="midnightblue" d="M1133.96,-92.6558C1153.97,-96.8873 1176.64,-101.679 1196.84,-105.95"/>
<polygon fill="midnightblue" stroke="midnightblue" points="1134.57,-89.2086 1124.07,-90.5642 1133.13,-96.0572 1134.57,-89.2086"/>
</g>
<!-- Node9&#45;&gt;Node8 -->
<g id="edge9" class="edge"><title>Node9&#45;&gt;Node8</title>
<path fill="none" stroke="midnightblue" d="M1154.42,-118.605C1168.64,-118.524 1183.3,-118.44 1196.84,-118.362"/>
<polygon fill="midnightblue" stroke="midnightblue" points="1154.14,-115.106 1144.16,-118.663 1154.18,-122.106 1154.14,-115.106"/>
</g>
<!-- Node11 -->
<g id="node11" class="node"><title>Node11</title>
<g id="a_node11"><a xlink:href="$classAC__WPNav.html#a3169a6fb417742e33c3a5197bb7a6c6d" xlink:title="reached_spline_destination &#45; true when we have come within RADIUS cm of the waypoint ...">
<polygon fill="white" stroke="black" points="1184,-152.036 1184,-182.036 1326,-182.036 1326,-152.036 1184,-152.036"/>
<text text-anchor="start" x="1192" y="-170.036" font-family="Helvetica,sans-Serif" font-size="10.00">AC_WPNav::reached_spline</text>
<text text-anchor="middle" x="1255" y="-159.036" font-family="Helvetica,sans-Serif" font-size="10.00">_destination</text>
</a>
</g>
</g>
<!-- Node10&#45;&gt;Node11 -->
<g id="edge11" class="edge"><title>Node10&#45;&gt;Node11</title>
<path fill="none" stroke="midnightblue" d="M1156.78,-165.925C1165.82,-166.028 1174.99,-166.133 1183.92,-166.235"/>
<polygon fill="midnightblue" stroke="midnightblue" points="1156.7,-162.424 1146.66,-165.809 1156.62,-169.423 1156.7,-162.424"/>
</g>
<!-- Node13 -->
<g id="node13" class="node"><title>Node13</title>
<g id="a_node13"><a xlink:href="$classAC__PosControl.html#ac150947d527995a72dff6ad0921a1891" xlink:title="freeze_ff_xy &#45; used to stop the feed forward being calculated during a known discontinuity ...">
<polygon fill="white" stroke="black" points="296,-310.036 296,-340.036 414,-340.036 414,-310.036 296,-310.036"/>
<text text-anchor="start" x="304" y="-328.036" font-family="Helvetica,sans-Serif" font-size="10.00">AC_PosControl::freeze</text>
<text text-anchor="middle" x="355" y="-317.036" font-family="Helvetica,sans-Serif" font-size="10.00">_ff_xy</text>
</a>
</g>
</g>
<!-- Node12&#45;&gt;Node13 -->
<g id="edge13" class="edge"><title>Node12&#45;&gt;Node13</title>
<path fill="none" stroke="midnightblue" d="M226.615,-217.633C257.508,-243.679 308.656,-286.805 335.789,-309.681"/>
<polygon fill="midnightblue" stroke="midnightblue" points="228.752,-214.856 218.85,-211.086 224.24,-220.208 228.752,-214.856"/>
</g>
<!-- Node13&#45;&gt;Node10 -->
<g id="edge40" class="edge"><title>Node13&#45;&gt;Node10</title>
<path fill="none" stroke="midnightblue" d="M378.655,-303.036C396.51,-287.12 422.849,-266.622 450,-256.036 585.4,-203.244 631.202,-241.068 775,-220.036 865.831,-206.751 971.154,-186.443 1030.35,-174.578"/>
<polygon fill="midnightblue" stroke="midnightblue" points="376.089,-300.64 371.076,-309.974 380.815,-305.803 376.089,-300.64"/>
</g>
<!-- Node14 -->
<g id="node14" class="node"><title>Node14</title>
<g id="a_node14"><a xlink:href="$classAC__WPNav.html#a9b3fd8fd5c74d31ebffa89cdf98f570a" xlink:title="loiter_soften_for_landing &#45; reduce response for landing ">
<polygon fill="white" stroke="black" points="450,-442.036 450,-472.036 580,-472.036 580,-442.036 450,-442.036"/>
<text text-anchor="start" x="458" y="-460.036" font-family="Helvetica,sans-Serif" font-size="10.00">AC_WPNav::loiter_soften</text>
<text text-anchor="middle" x="515" y="-449.036" font-family="Helvetica,sans-Serif" font-size="10.00">_for_landing</text>
</a>
</g>
</g>
<!-- Node13&#45;&gt;Node14 -->
<g id="edge14" class="edge"><title>Node13&#45;&gt;Node14</title>
<path fill="none" stroke="midnightblue" d="M373.047,-348.242C390.432,-370.659 419.166,-404.447 450,-427.036 457.721,-432.692 466.679,-437.687 475.402,-441.898"/>
<polygon fill="midnightblue" stroke="midnightblue" points="375.804,-346.086 366.959,-340.254 370.237,-350.329 375.804,-346.086"/>
</g>
<!-- Node16 -->
<g id="node16" class="node"><title>Node16</title>
<g id="a_node16"><a xlink:href="$classAC__PosControl.html#a26ec8e9313b7c01fa449ba4f2d194d28" xlink:title="AC_PosControl::set\l_desired_velocity">
<polygon fill="white" stroke="black" points="463,-354.036 463,-384.036 567,-384.036 567,-354.036 463,-354.036"/>
<text text-anchor="start" x="471" y="-372.036" font-family="Helvetica,sans-Serif" font-size="10.00">AC_PosControl::set</text>
<text text-anchor="middle" x="515" y="-361.036" font-family="Helvetica,sans-Serif" font-size="10.00">_desired_velocity</text>
</a>
</g>
</g>
<!-- Node13&#45;&gt;Node16 -->
<g id="edge16" class="edge"><title>Node13&#45;&gt;Node16</title>
<path fill="none" stroke="midnightblue" d="M419.749,-342.789C434.125,-346.792 449.201,-350.991 462.975,-354.826"/>
<polygon fill="midnightblue" stroke="midnightblue" points="420.505,-339.366 409.933,-340.055 418.627,-346.11 420.505,-339.366"/>
</g>
<!-- Node18 -->
<g id="node18" class="node"><title>Node18</title>
<g id="a_node18"><a xlink:href="$classAC__PosControl.html#a0a3dc64da9e355dea10959cb41e6aa8b" xlink:title="shift position target target in x, y axis ">
<polygon fill="white" stroke="black" points="460,-266.036 460,-296.036 570,-296.036 570,-266.036 460,-266.036"/>
<text text-anchor="start" x="468" y="-284.036" font-family="Helvetica,sans-Serif" font-size="10.00">AC_PosControl::shift</text>
<text text-anchor="middle" x="515" y="-273.036" font-family="Helvetica,sans-Serif" font-size="10.00">_pos_xy_target</text>
</a>
</g>
</g>
<!-- Node13&#45;&gt;Node18 -->
<g id="edge19" class="edge"><title>Node13&#45;&gt;Node18</title>
<path fill="none" stroke="midnightblue" d="M419.57,-307.333C432.986,-303.597 447.02,-299.688 460.042,-296.062"/>
<polygon fill="midnightblue" stroke="midnightblue" points="418.627,-303.962 409.933,-310.017 420.505,-310.705 418.627,-303.962"/>
</g>
<!-- Node13&#45;&gt;Node21 -->
<g id="edge41" class="edge"><title>Node13&#45;&gt;Node21</title>
<path fill="none" stroke="midnightblue" d="M362.942,-350.33C374.379,-386.553 400.955,-452.024 450,-481.036 496.999,-508.838 854.985,-508.426 1008,-506.94"/>
<polygon fill="midnightblue" stroke="midnightblue" points="366.224,-349.089 359.991,-340.522 359.521,-351.106 366.224,-349.089"/>
</g>
<!-- Node27 -->
<g id="node27" class="node"><title>Node27</title>
<g id="a_node27"><a xlink:href="$classAC__WPNav.html#a7ebe48af2381e791cbcdea94c7af2e3e" xlink:title="AC_WPNav::shift_wp\l_origin_to_current_pos">
<polygon fill="white" stroke="black" points="834,-398.036 834,-428.036 949,-428.036 949,-398.036 834,-398.036"/>
<text text-anchor="start" x="842" y="-416.036" font-family="Helvetica,sans-Serif" font-size="10.00">AC_WPNav::shift_wp</text>
<text text-anchor="middle" x="891.5" y="-405.036" font-family="Helvetica,sans-Serif" font-size="10.00">_origin_to_current_pos</text>
</a>
</g>
</g>
<!-- Node13&#45;&gt;Node27 -->
<g id="edge39" class="edge"><title>Node13&#45;&gt;Node27</title>
<path fill="none" stroke="midnightblue" d="M378.526,-347.221C396.314,-363.17 422.625,-383.481 450,-393.036 581.366,-438.887 748.234,-429.714 833.98,-420.536"/>
<polygon fill="midnightblue" stroke="midnightblue" points="380.702,-344.466 370.98,-340.255 375.954,-349.61 380.702,-344.466"/>
</g>
<!-- Node15 -->
<g id="node15" class="node"><title>Node15</title>
<g id="a_node15"><a xlink:href="$classAC__WPNav.html#af37186ad98df47275d15c04761f81ab4" xlink:title="provide rangefinder altitude ">
<polygon fill="white" stroke="black" points="616,-447.536 616,-466.536 775,-466.536 775,-447.536 616,-447.536"/>
<text text-anchor="middle" x="695.5" y="-454.536" font-family="Helvetica,sans-Serif" font-size="10.00">AC_WPNav::set_rangefinder_alt</text>
</a>
</g>
</g>
<!-- Node14&#45;&gt;Node15 -->
<g id="edge15" class="edge"><title>Node14&#45;&gt;Node15</title>
<path fill="none" stroke="midnightblue" d="M590.378,-457.036C598.821,-457.036 607.447,-457.036 615.941,-457.036"/>
<polygon fill="midnightblue" stroke="midnightblue" points="590.19,-453.536 580.19,-457.036 590.19,-460.536 590.19,-453.536"/>
</g>
<!-- Node17 -->
<g id="node17" class="node"><title>Node17</title>
<g id="a_node17"><a xlink:href="$classAC__PosControl.html#ae2897de0075f8f8aaa94eb7e8cad100b" xlink:title="xyz velocity controller ">
<polygon fill="white" stroke="black" points="643.5,-354.036 643.5,-384.036 747.5,-384.036 747.5,-354.036 643.5,-354.036"/>
<text text-anchor="start" x="651.5" y="-372.036" font-family="Helvetica,sans-Serif" font-size="10.00">AC_PosControl::init</text>
<text text-anchor="middle" x="695.5" y="-361.036" font-family="Helvetica,sans-Serif" font-size="10.00">_vel_controller_xyz</text>
</a>
</g>
</g>
<!-- Node16&#45;&gt;Node17 -->
<g id="edge17" class="edge"><title>Node16&#45;&gt;Node17</title>
<path fill="none" stroke="midnightblue" d="M577.183,-369.036C598.73,-369.036 622.708,-369.036 643.342,-369.036"/>
<polygon fill="midnightblue" stroke="midnightblue" points="577.151,-365.536 567.151,-369.036 577.151,-372.536 577.151,-365.536"/>
</g>
<!-- Node17&#45;&gt;Node13 -->
<g id="edge18" class="edge"><title>Node17&#45;&gt;Node13</title>
<path fill="none" stroke="midnightblue" d="M633.531,-354.181C616.307,-350.406 597.491,-346.676 580,-344.036 524.042,-335.59 459.611,-330.617 414.258,-327.891"/>
<polygon fill="midnightblue" stroke="midnightblue" points="632.944,-357.636 643.466,-356.401 634.47,-350.804 632.944,-357.636"/>
</g>
<!-- Node19 -->
<g id="node19" class="node"><title>Node19</title>
<g id="a_node19"><a xlink:href="$classAC__PosControl.html#adcd8a80dc29c0e77d0c3f225689319b9" xlink:title="check for ekf position reset and adjust loiter or brake target position ">
<polygon fill="white" stroke="black" points="637,-181.036 637,-211.036 754,-211.036 754,-181.036 637,-181.036"/>
<text text-anchor="start" x="645" y="-199.036" font-family="Helvetica,sans-Serif" font-size="10.00">AC_PosControl::check</text>
<text text-anchor="middle" x="695.5" y="-188.036" font-family="Helvetica,sans-Serif" font-size="10.00">_for_ekf_xy_reset</text>
</a>
</g>
</g>
<!-- Node18&#45;&gt;Node19 -->
<g id="edge20" class="edge"><title>Node18&#45;&gt;Node19</title>
<path fill="none" stroke="midnightblue" d="M556.647,-261.68C588.816,-246.362 633.104,-225.272 662.713,-211.172"/>
<polygon fill="midnightblue" stroke="midnightblue" points="555.025,-258.576 547.501,-266.035 558.035,-264.896 555.025,-258.576"/>
</g>
<!-- Node22 -->
<g id="node22" class="node"><title>Node22</title>
<g id="a_node22"><a xlink:href="$classAC__PosControl.html#a6b3617b946ffd6935c11a63629f186ec" xlink:title="get_pos_target &#45; get target as position vector (from home in cm) ">
<polygon fill="white" stroke="black" points="643.5,-305.036 643.5,-335.036 747.5,-335.036 747.5,-305.036 643.5,-305.036"/>
<text text-anchor="start" x="651.5" y="-323.036" font-family="Helvetica,sans-Serif" font-size="10.00">AC_PosControl::get</text>
<text text-anchor="middle" x="695.5" y="-312.036" font-family="Helvetica,sans-Serif" font-size="10.00">_pos_target</text>
</a>
</g>
</g>
<!-- Node18&#45;&gt;Node22 -->
<g id="edge30" class="edge"><title>Node18&#45;&gt;Node22</title>
<path fill="none" stroke="midnightblue" d="M580.071,-295.034C600.874,-299.58 623.665,-304.559 643.393,-308.87"/>
<polygon fill="midnightblue" stroke="midnightblue" points="580.557,-291.558 570.04,-292.843 579.063,-298.397 580.557,-291.558"/>
</g>
<!-- Node19&#45;&gt;Node12 -->
<g id="edge21" class="edge"><title>Node19&#45;&gt;Node12</title>
<path fill="none" stroke="midnightblue" d="M626.917,-196.036C529.763,-196.036 352.205,-196.036 260.037,-196.036"/>
<polygon fill="midnightblue" stroke="midnightblue" points="626.923,-199.536 636.922,-196.036 626.922,-192.536 626.923,-199.536"/>
</g>
<!-- Node20 -->
<g id="node20" class="node"><title>Node20</title>
<g id="a_node20"><a xlink:href="$classAC__PosControl.html#a497c1799c10d146b6f2e2b542889c083" xlink:title="update_xy_controller &#45; run the horizontal position controller &#45; should be called at 100hz or higher ...">
<polygon fill="white" stroke="black" points="831.5,-105.036 831.5,-135.036 951.5,-135.036 951.5,-105.036 831.5,-105.036"/>
<text text-anchor="start" x="839.5" y="-123.036" font-family="Helvetica,sans-Serif" font-size="10.00">AC_PosControl::update</text>
<text text-anchor="middle" x="891.5" y="-112.036" font-family="Helvetica,sans-Serif" font-size="10.00">_xy_controller</text>
</a>
</g>
</g>
<!-- Node19&#45;&gt;Node20 -->
<g id="edge22" class="edge"><title>Node19&#45;&gt;Node20</title>
<path fill="none" stroke="midnightblue" d="M745.639,-177.377C755.378,-173.645 765.52,-169.735 775,-166.036 801.14,-155.836 830.516,-144.133 853.1,-135.084"/>
<polygon fill="midnightblue" stroke="midnightblue" points="744.164,-174.194 736.074,-181.035 746.664,-180.732 744.164,-174.194"/>
</g>
<!-- Node20&#45;&gt;Node5 -->
<g id="edge24" class="edge"><title>Node20&#45;&gt;Node5</title>
<path fill="none" stroke="midnightblue" d="M929.534,-100.164C968.811,-79.0885 1029.22,-46.6757 1059.05,-30.6655"/>
<polygon fill="midnightblue" stroke="midnightblue" points="927.678,-97.1875 920.522,-105 930.988,-103.356 927.678,-97.1875"/>
</g>
<!-- Node20&#45;&gt;Node7 -->
<g id="edge26" class="edge"><title>Node20&#45;&gt;Node7</title>
<path fill="none" stroke="midnightblue" d="M961.572,-105.435C985.103,-100.461 1010.79,-95.0325 1031.94,-90.5612"/>
<polygon fill="midnightblue" stroke="midnightblue" points="960.698,-102.043 951.638,-107.535 962.146,-108.891 960.698,-102.043"/>
</g>
<!-- Node20&#45;&gt;Node9 -->
<g id="edge25" class="edge"><title>Node20&#45;&gt;Node9</title>
<path fill="none" stroke="midnightblue" d="M961.704,-119.661C978.12,-119.572 995.575,-119.477 1011.81,-119.389"/>
<polygon fill="midnightblue" stroke="midnightblue" points="961.619,-116.161 951.638,-119.715 961.657,-123.161 961.619,-116.161"/>
</g>
<!-- Node20&#45;&gt;Node10 -->
<g id="edge29" class="edge"><title>Node20&#45;&gt;Node10</title>
<path fill="none" stroke="midnightblue" d="M961.403,-136.842C987.265,-143.149 1015.75,-150.096 1037.97,-155.516"/>
<polygon fill="midnightblue" stroke="midnightblue" points="962.183,-133.429 951.638,-134.46 960.524,-140.23 962.183,-133.429"/>
</g>
<!-- Node20&#45;&gt;Node13 -->
<g id="edge23" class="edge"><title>Node20&#45;&gt;Node13</title>
<path fill="none" stroke="midnightblue" d="M821.261,-122.329C729.651,-128.301 566.212,-149.384 450,-223.036 413.184,-246.369 381.438,-287.697 365.997,-309.909"/>
<polygon fill="midnightblue" stroke="midnightblue" points="821.487,-125.822 831.255,-121.719 821.06,-118.835 821.487,-125.822"/>
</g>
<!-- Node20&#45;&gt;Node21 -->
<g id="edge27" class="edge"><title>Node20&#45;&gt;Node21</title>
<path fill="none" stroke="midnightblue" d="M908.573,-143.709C926.554,-171.235 955.339,-218.588 972,-263.036 998.955,-334.946 972.526,-363.924 1008,-432.036 1022.12,-459.144 1048.92,-483.588 1064.64,-496.466"/>
<polygon fill="midnightblue" stroke="midnightblue" points="911.358,-141.577 902.922,-135.167 905.52,-145.439 911.358,-141.577"/>
</g>
<!-- Node21&#45;&gt;Node4 -->
<g id="edge28" class="edge"><title>Node21&#45;&gt;Node4</title>
<path fill="none" stroke="midnightblue" d="M1158.51,-514.668C1172.12,-516.146 1186,-517.653 1198.81,-519.044"/>
<polygon fill="midnightblue" stroke="midnightblue" points="1158.48,-511.145 1148.16,-513.545 1157.73,-518.104 1158.48,-511.145"/>
</g>
<!-- Node22&#45;&gt;Node3 -->
<g id="edge37" class="edge"><title>Node22&#45;&gt;Node3</title>
<path fill="none" stroke="midnightblue" d="M757.424,-332.398C763.843,-335.459 769.881,-339.276 775,-344.036 807.458,-374.218 778.663,-406.725 811,-437.036 816.7,-442.379 823.533,-446.58 830.767,-449.884"/>
<polygon fill="midnightblue" stroke="midnightblue" points="758.391,-329.011 747.812,-328.434 755.722,-335.482 758.391,-329.011"/>
</g>
<!-- Node22&#45;&gt;Node8 -->
<g id="edge38" class="edge"><title>Node22&#45;&gt;Node8</title>
<path fill="none" stroke="midnightblue" d="M731.597,-299.904C753.79,-287.851 783.401,-272.988 811,-263.036 955.717,-210.852 1016.55,-263.948 1148,-184.036 1169.01,-171.265 1163.66,-155.841 1184,-142.036 1189,-138.645 1194.52,-135.691 1200.2,-133.126"/>
<polygon fill="midnightblue" stroke="midnightblue" points="729.639,-296.986 722.567,-304.875 733.015,-303.118 729.639,-296.986"/>
</g>
<!-- Node23 -->
<g id="node23" class="node"><title>Node23</title>
<g id="a_node23"><a xlink:href="$classAC__Circle.html#a20eefa0e2e7172498728dbf1f5eed4af" xlink:title="AC_Circle::init">
<polygon fill="white" stroke="black" points="851.5,-272.536 851.5,-291.536 931.5,-291.536 931.5,-272.536 851.5,-272.536"/>
<text text-anchor="middle" x="891.5" y="-279.536" font-family="Helvetica,sans-Serif" font-size="10.00">AC_Circle::init</text>
</a>
</g>
</g>
<!-- Node22&#45;&gt;Node23 -->
<g id="edge31" class="edge"><title>Node22&#45;&gt;Node23</title>
<path fill="none" stroke="midnightblue" d="M757.863,-308.016C788.44,-302.027 824.504,-294.963 851.303,-289.714"/>
<polygon fill="midnightblue" stroke="midnightblue" points="756.866,-304.645 747.725,-310.002 758.211,-311.514 756.866,-304.645"/>
</g>
<!-- Node24 -->
<g id="node24" class="node"><title>Node24</title>
<g id="a_node24"><a xlink:href="$classAC__WPNav.html#a7f711c7661c335417cbcc28f9546688c" xlink:title="get_loiter_bearing_to_target &#45; get bearing to loiter target in centi&#45;degrees ">
<polygon fill="white" stroke="black" points="833.5,-349.036 833.5,-379.036 949.5,-379.036 949.5,-349.036 833.5,-349.036"/>
<text text-anchor="start" x="841.5" y="-367.036" font-family="Helvetica,sans-Serif" font-size="10.00">AC_WPNav::get_loiter</text>
<text text-anchor="middle" x="891.5" y="-356.036" font-family="Helvetica,sans-Serif" font-size="10.00">_bearing_to_target</text>
</a>
</g>
</g>
<!-- Node22&#45;&gt;Node24 -->
<g id="edge32" class="edge"><title>Node22&#45;&gt;Node24</title>
<path fill="none" stroke="midnightblue" d="M757.504,-333.872C781.69,-339.357 809.354,-345.632 833.166,-351.032"/>
<polygon fill="midnightblue" stroke="midnightblue" points="758.251,-330.452 747.725,-331.654 756.703,-337.279 758.251,-330.452"/>
</g>
<!-- Node26 -->
<g id="node26" class="node"><title>Node26</title>
<g id="a_node26"><a xlink:href="$classAC__WPNav.html#a38519fcac3a24cf64ec7c37e90fc3e13" xlink:title="AC_WPNav::set_wp_destination">
<polygon fill="white" stroke="black" points="811,-310.536 811,-329.536 972,-329.536 972,-310.536 811,-310.536"/>
<text text-anchor="middle" x="891.5" y="-317.536" font-family="Helvetica,sans-Serif" font-size="10.00">AC_WPNav::set_wp_destination</text>
</a>
</g>
</g>
<!-- Node22&#45;&gt;Node26 -->
<g id="edge34" class="edge"><title>Node22&#45;&gt;Node26</title>
<path fill="none" stroke="midnightblue" d="M757.937,-320.036C774.716,-320.036 793.143,-320.036 810.781,-320.036"/>
<polygon fill="midnightblue" stroke="midnightblue" points="757.725,-316.536 747.725,-320.036 757.725,-323.536 757.725,-316.536"/>
</g>
<!-- Node22&#45;&gt;Node27 -->
<g id="edge35" class="edge"><title>Node22&#45;&gt;Node27</title>
<path fill="none" stroke="midnightblue" d="M757.608,-334.742C763.722,-337.367 769.641,-340.441 775,-344.036 795.983,-358.112 790.073,-373.876 811,-388.036 817.95,-392.739 825.832,-396.594 833.866,-399.744"/>
<polygon fill="midnightblue" stroke="midnightblue" points="758.483,-331.327 747.894,-330.976 755.953,-337.854 758.483,-331.327"/>
</g>
<!-- Node25 -->
<g id="node25" class="node"><title>Node25</title>
<g id="a_node25"><a xlink:href="$classAC__WPNav.html#a828016e98938c6bbb6236e0b92e20807" xlink:title="get_loiter_distance_to_target &#45; get horizontal distance to loiter target in cm ">
<polygon fill="white" stroke="black" points="1020,-349.036 1020,-379.036 1136,-379.036 1136,-349.036 1020,-349.036"/>
<text text-anchor="start" x="1028" y="-367.036" font-family="Helvetica,sans-Serif" font-size="10.00">AC_WPNav::get_loiter</text>
<text text-anchor="middle" x="1078" y="-356.036" font-family="Helvetica,sans-Serif" font-size="10.00">_distance_to_target</text>
</a>
</g>
</g>
<!-- Node24&#45;&gt;Node25 -->
<g id="edge33" class="edge"><title>Node24&#45;&gt;Node25</title>
<path fill="none" stroke="midnightblue" d="M959.75,-364.036C979.461,-364.036 1000.82,-364.036 1019.84,-364.036"/>
<polygon fill="midnightblue" stroke="midnightblue" points="959.613,-360.536 949.613,-364.036 959.613,-367.536 959.613,-360.536"/>
</g>
<!-- Node28 -->
<g id="node28" class="node"><title>Node28</title>
<g id="a_node28"><a xlink:href="$classAC__WPNav.html#acc07b8521654cf468b6a86fad9104a4c" xlink:title="get origin using position vector (distance from home in cm) ">
<polygon fill="white" stroke="black" points="1009.5,-403.536 1009.5,-422.536 1146.5,-422.536 1146.5,-403.536 1009.5,-403.536"/>
<text text-anchor="middle" x="1078" y="-410.536" font-family="Helvetica,sans-Serif" font-size="10.00">AC_WPNav::get_wp_origin</text>
</a>
</g>
</g>
<!-- Node27&#45;&gt;Node28 -->
<g id="edge36" class="edge"><title>Node27&#45;&gt;Node28</title>
<path fill="none" stroke="midnightblue" d="M959.133,-413.036C975.508,-413.036 993.051,-413.036 1009.47,-413.036"/>
<polygon fill="midnightblue" stroke="midnightblue" points="959.11,-409.536 949.11,-413.036 959.11,-416.536 959.11,-409.536"/>
</g>
</g>
</svg>
