<?xml version="1.0" encoding="UTF-8" standalone="no"?>
<!DOCTYPE svg PUBLIC "-//W3C//DTD SVG 1.1//EN"
 "http://www.w3.org/Graphics/SVG/1.1/DTD/svg11.dtd">
<!-- Generated by graphviz version 2.38.0 (20140413.2041)
 -->
<!-- Title: AC_AttitudeControl::get_bf_feedforward Pages: 1 -->
<svg width="1293pt" height="362pt"
 viewBox="0.00 0.00 1293.00 362.00" xmlns="http://www.w3.org/2000/svg" xmlns:xlink="http://www.w3.org/1999/xlink">
<g id="graph0" class="graph" transform="scale(1 1) rotate(0) translate(4 358)">
<title>AC_AttitudeControl::get_bf_feedforward</title>
<polygon fill="white" stroke="none" points="-4,4 -4,-358 1289,-358 1289,4 -4,4"/>
<!-- Node1 -->
<g id="node1" class="node"><title>Node1</title>
<polygon fill="#bfbfbf" stroke="black" points="0,-235.5 0,-265.5 106,-265.5 106,-235.5 0,-235.5"/>
<text text-anchor="start" x="8" y="-253.5" font-family="Helvetica,sans-Serif" font-size="10.00">AC_AttitudeControl</text>
<text text-anchor="middle" x="53" y="-242.5" font-family="Helvetica,sans-Serif" font-size="10.00">::get_bf_feedforward</text>
</g>
<!-- Node2 -->
<g id="node2" class="node"><title>Node2</title>
<g id="a_node2"><a xlink:href="$classAC__AttitudeControl.html#a7dd813967745babdc2656ffa3d5888c0" xlink:title="AC_AttitudeControl\l::accel_limiting">
<polygon fill="white" stroke="black" points="165,-316.5 165,-346.5 266,-346.5 266,-316.5 165,-316.5"/>
<text text-anchor="start" x="173" y="-334.5" font-family="Helvetica,sans-Serif" font-size="10.00">AC_AttitudeControl</text>
<text text-anchor="middle" x="215.5" y="-323.5" font-family="Helvetica,sans-Serif" font-size="10.00">::accel_limiting</text>
</a>
</g>
</g>
<!-- Node1&#45;&gt;Node2 -->
<g id="edge1" class="edge"><title>Node1&#45;&gt;Node2</title>
<path fill="none" stroke="midnightblue" d="M74.1055,-265.651C91.4003,-278.152 117.381,-295.692 142,-307.5 146.259,-309.543 150.736,-311.482 155.289,-313.306"/>
<polygon fill="midnightblue" stroke="midnightblue" points="154.103,-316.6 164.694,-316.887 156.594,-310.058 154.103,-316.6"/>
</g>
<!-- Node4 -->
<g id="node4" class="node"><title>Node4</title>
<g id="a_node4"><a xlink:href="$classAC__AttitudeControl.html#a5acdd6fd7b4ec664e4ca5a0b02a38f56" xlink:title="AC_AttitudeControl\l::update_althold_lean\l_angle_max">
<polygon fill="white" stroke="black" points="161,-257 161,-298 270,-298 270,-257 161,-257"/>
<text text-anchor="start" x="169" y="-286" font-family="Helvetica,sans-Serif" font-size="10.00">AC_AttitudeControl</text>
<text text-anchor="start" x="169" y="-275" font-family="Helvetica,sans-Serif" font-size="10.00">::update_althold_lean</text>
<text text-anchor="middle" x="215.5" y="-264" font-family="Helvetica,sans-Serif" font-size="10.00">_angle_max</text>
</a>
</g>
</g>
<!-- Node1&#45;&gt;Node4 -->
<g id="edge3" class="edge"><title>Node1&#45;&gt;Node4</title>
<path fill="none" stroke="midnightblue" d="M106.11,-259.266C120.315,-261.656 135.866,-264.272 150.643,-266.758"/>
<polygon fill="midnightblue" stroke="midnightblue" points="150.282,-270.246 160.724,-268.454 151.443,-263.343 150.282,-270.246"/>
</g>
<!-- Node5 -->
<g id="node5" class="node"><title>Node5</title>
<g id="a_node5"><a xlink:href="$classAC__AttitudeControl.html#afb7047fed5ca67153e98c7369b3b9cd7" xlink:title="AC_AttitudeControl\l::set_throttle_out">
<polygon fill="white" stroke="black" points="165,-208.5 165,-238.5 266,-238.5 266,-208.5 165,-208.5"/>
<text text-anchor="start" x="173" y="-226.5" font-family="Helvetica,sans-Serif" font-size="10.00">AC_AttitudeControl</text>
<text text-anchor="middle" x="215.5" y="-215.5" font-family="Helvetica,sans-Serif" font-size="10.00">::set_throttle_out</text>
</a>
</g>
</g>
<!-- Node1&#45;&gt;Node5 -->
<g id="edge4" class="edge"><title>Node1&#45;&gt;Node5</title>
<path fill="none" stroke="midnightblue" d="M106.11,-241.734C121.577,-239.132 138.642,-236.261 154.565,-233.583"/>
<polygon fill="midnightblue" stroke="midnightblue" points="155.554,-236.965 164.835,-231.855 154.393,-230.062 155.554,-236.965"/>
</g>
<!-- Node6 -->
<g id="node6" class="node"><title>Node6</title>
<g id="a_node6"><a xlink:href="$classAC__AttitudeControl.html#a76dacd70bc0485c1046bf0c948bc0156" xlink:title="AC_AttitudeControl\l::set_throttle_out_unstabilized">
<polygon fill="white" stroke="black" points="142,-159.5 142,-189.5 289,-189.5 289,-159.5 142,-159.5"/>
<text text-anchor="start" x="150" y="-177.5" font-family="Helvetica,sans-Serif" font-size="10.00">AC_AttitudeControl</text>
<text text-anchor="middle" x="215.5" y="-166.5" font-family="Helvetica,sans-Serif" font-size="10.00">::set_throttle_out_unstabilized</text>
</a>
</g>
</g>
<!-- Node1&#45;&gt;Node6 -->
<g id="edge5" class="edge"><title>Node1&#45;&gt;Node6</title>
<path fill="none" stroke="midnightblue" d="M77.2426,-235.367C94.6128,-224.474 119.194,-209.922 142,-199.5 146.723,-197.342 151.689,-195.261 156.715,-193.284"/>
<polygon fill="midnightblue" stroke="midnightblue" points="158.292,-196.43 166.406,-189.617 155.815,-189.882 158.292,-196.43"/>
</g>
<!-- Node3 -->
<g id="node3" class="node"><title>Node3</title>
<g id="a_node3"><a xlink:href="$AP__Math_8h.html#a2a12cce483e9b870da70d30406d82c60" xlink:title="is_zero">
<polygon fill="white" stroke="black" points="366.5,-322 366.5,-341 414.5,-341 414.5,-322 366.5,-322"/>
<text text-anchor="middle" x="390.5" y="-329" font-family="Helvetica,sans-Serif" font-size="10.00">is_zero</text>
</a>
</g>
</g>
<!-- Node2&#45;&gt;Node3 -->
<g id="edge2" class="edge"><title>Node2&#45;&gt;Node3</title>
<path fill="none" stroke="midnightblue" d="M266.075,-331.5C294.905,-331.5 330.473,-331.5 356.009,-331.5"/>
<polygon fill="midnightblue" stroke="midnightblue" points="356.291,-335 366.291,-331.5 356.29,-328 356.291,-335"/>
</g>
<!-- Node7 -->
<g id="node7" class="node"><title>Node7</title>
<g id="a_node7"><a xlink:href="$classAP__Motors.html#a663672b4ada40c46d343e3f62b51b820" xlink:title="AP_Motors::set_throttle\l_filter_cutoff">
<polygon fill="white" stroke="black" points="330.5,-240.5 330.5,-270.5 450.5,-270.5 450.5,-240.5 330.5,-240.5"/>
<text text-anchor="start" x="338.5" y="-258.5" font-family="Helvetica,sans-Serif" font-size="10.00">AP_Motors::set_throttle</text>
<text text-anchor="middle" x="390.5" y="-247.5" font-family="Helvetica,sans-Serif" font-size="10.00">_filter_cutoff</text>
</a>
</g>
</g>
<!-- Node6&#45;&gt;Node7 -->
<g id="edge6" class="edge"><title>Node6&#45;&gt;Node7</title>
<path fill="none" stroke="midnightblue" d="M264.157,-189.587C272.536,-192.62 281.099,-195.969 289,-199.5 312.299,-209.911 337.375,-223.879 356.651,-235.26"/>
<polygon fill="midnightblue" stroke="midnightblue" points="354.962,-238.328 365.342,-240.448 358.55,-232.317 354.962,-238.328"/>
</g>
<!-- Node9 -->
<g id="node9" class="node"><title>Node9</title>
<g id="a_node9"><a xlink:href="$classAC__AttitudeControl.html#ad5f06ff5ba37d9af1afdb1ab18827a06" xlink:title="AC_AttitudeControl\l::relax_attitude_controllers">
<polygon fill="white" stroke="black" points="325,-159.5 325,-189.5 456,-189.5 456,-159.5 325,-159.5"/>
<text text-anchor="start" x="333" y="-177.5" font-family="Helvetica,sans-Serif" font-size="10.00">AC_AttitudeControl</text>
<text text-anchor="middle" x="390.5" y="-166.5" font-family="Helvetica,sans-Serif" font-size="10.00">::relax_attitude_controllers</text>
</a>
</g>
</g>
<!-- Node6&#45;&gt;Node9 -->
<g id="edge8" class="edge"><title>Node6&#45;&gt;Node9</title>
<path fill="none" stroke="midnightblue" d="M289.116,-174.5C297.53,-174.5 306.125,-174.5 314.569,-174.5"/>
<polygon fill="midnightblue" stroke="midnightblue" points="314.774,-178 324.774,-174.5 314.774,-171 314.774,-178"/>
</g>
<!-- Node25 -->
<g id="node25" class="node"><title>Node25</title>
<g id="a_node25"><a xlink:href="$classAP__Motors.html#a56d079ad89f5a4d2cacf014c8958a527" xlink:title="AP_Motors::set_throttle">
<polygon fill="white" stroke="black" points="330.5,-121 330.5,-140 450.5,-140 450.5,-121 330.5,-121"/>
<text text-anchor="middle" x="390.5" y="-128" font-family="Helvetica,sans-Serif" font-size="10.00">AP_Motors::set_throttle</text>
</a>
</g>
</g>
<!-- Node6&#45;&gt;Node25 -->
<g id="edge24" class="edge"><title>Node6&#45;&gt;Node25</title>
<path fill="none" stroke="midnightblue" d="M275.553,-159.481C297.34,-153.94 321.718,-147.739 342.318,-142.5"/>
<polygon fill="midnightblue" stroke="midnightblue" points="343.27,-145.869 352.099,-140.012 341.545,-139.085 343.27,-145.869"/>
</g>
<!-- Node8 -->
<g id="node8" class="node"><title>Node8</title>
<g id="a_node8"><a xlink:href="$classLowPassFilter.html#a1cc5016de137b01080fa0a6fa7fe53cd" xlink:title="LowPassFilter::set\l_cutoff_frequency">
<polygon fill="white" stroke="black" points="517,-323.5 517,-353.5 615,-353.5 615,-323.5 517,-323.5"/>
<text text-anchor="start" x="525" y="-341.5" font-family="Helvetica,sans-Serif" font-size="10.00">LowPassFilter::set</text>
<text text-anchor="middle" x="566" y="-330.5" font-family="Helvetica,sans-Serif" font-size="10.00">_cutoff_frequency</text>
</a>
</g>
</g>
<!-- Node7&#45;&gt;Node8 -->
<g id="edge7" class="edge"><title>Node7&#45;&gt;Node8</title>
<path fill="none" stroke="midnightblue" d="M413.906,-270.533C433.798,-283.415 463.973,-301.841 492,-314.5 496.939,-316.731 502.149,-318.858 507.42,-320.859"/>
<polygon fill="midnightblue" stroke="midnightblue" points="506.332,-324.187 516.926,-324.317 508.725,-317.609 506.332,-324.187"/>
</g>
<!-- Node10 -->
<g id="node10" class="node"><title>Node10</title>
<g id="a_node10"><a xlink:href="$classQuaternion.html#a5ee01ee833114be6181887d0dcfb33b1" xlink:title="Quaternion::from_rotation\l_matrix">
<polygon fill="white" stroke="black" points="502.5,-274.5 502.5,-304.5 629.5,-304.5 629.5,-274.5 502.5,-274.5"/>
<text text-anchor="start" x="510.5" y="-292.5" font-family="Helvetica,sans-Serif" font-size="10.00">Quaternion::from_rotation</text>
<text text-anchor="middle" x="566" y="-281.5" font-family="Helvetica,sans-Serif" font-size="10.00">_matrix</text>
</a>
</g>
</g>
<!-- Node9&#45;&gt;Node10 -->
<g id="edge9" class="edge"><title>Node9&#45;&gt;Node10</title>
<path fill="none" stroke="midnightblue" d="M408.885,-189.588C421.946,-200.99 440.223,-217.086 456,-231.5 472.248,-246.344 473.092,-254.237 492,-265.5 494.808,-267.173 497.747,-268.745 500.767,-270.221"/>
<polygon fill="midnightblue" stroke="midnightblue" points="499.458,-273.47 510.016,-274.363 502.32,-267.081 499.458,-273.47"/>
</g>
<!-- Node11 -->
<g id="node11" class="node"><title>Node11</title>
<g id="a_node11"><a xlink:href="$classAP__AHRS__View.html#ab5593b92f3931a696a3fa8e5f38013b0" xlink:title="AP_AHRS_View::get_rotation\l_body_to_ned">
<polygon fill="white" stroke="black" points="492,-225.5 492,-255.5 640,-255.5 640,-225.5 492,-225.5"/>
<text text-anchor="start" x="500" y="-243.5" font-family="Helvetica,sans-Serif" font-size="10.00">AP_AHRS_View::get_rotation</text>
<text text-anchor="middle" x="566" y="-232.5" font-family="Helvetica,sans-Serif" font-size="10.00">_body_to_ned</text>
</a>
</g>
</g>
<!-- Node9&#45;&gt;Node11 -->
<g id="edge10" class="edge"><title>Node9&#45;&gt;Node11</title>
<path fill="none" stroke="midnightblue" d="M427.119,-189.613C446.248,-197.582 470.297,-207.364 492,-215.5 497.845,-217.691 503.98,-219.912 510.107,-222.081"/>
<polygon fill="midnightblue" stroke="midnightblue" points="509.089,-225.433 519.684,-225.433 511.401,-218.826 509.089,-225.433"/>
</g>
<!-- Node12 -->
<g id="node12" class="node"><title>Node12</title>
<g id="a_node12"><a xlink:href="$classAP__AHRS__View.html#aa83be8ece5cb8f54f9f7eba7839588b6" xlink:title="AP_AHRS_View::get_gyro">
<polygon fill="white" stroke="black" points="499,-187 499,-206 633,-206 633,-187 499,-187"/>
<text text-anchor="middle" x="566" y="-194" font-family="Helvetica,sans-Serif" font-size="10.00">AP_AHRS_View::get_gyro</text>
</a>
</g>
</g>
<!-- Node9&#45;&gt;Node12 -->
<g id="edge11" class="edge"><title>Node9&#45;&gt;Node12</title>
<path fill="none" stroke="midnightblue" d="M456.105,-182.692C466.801,-184.048 477.978,-185.465 488.925,-186.854"/>
<polygon fill="midnightblue" stroke="midnightblue" points="488.532,-190.332 498.893,-188.118 489.413,-183.387 488.532,-190.332"/>
</g>
<!-- Node21 -->
<g id="node21" class="node"><title>Node21</title>
<g id="a_node21"><a xlink:href="$classAC__AttitudeControl.html#ad300b51e0777495496adddd1770ee920" xlink:title="AC_AttitudeControl\l::get_rate_roll_pid">
<polygon fill="white" stroke="black" points="515.5,-137.5 515.5,-167.5 616.5,-167.5 616.5,-137.5 515.5,-137.5"/>
<text text-anchor="start" x="523.5" y="-155.5" font-family="Helvetica,sans-Serif" font-size="10.00">AC_AttitudeControl</text>
<text text-anchor="middle" x="566" y="-144.5" font-family="Helvetica,sans-Serif" font-size="10.00">::get_rate_roll_pid</text>
</a>
</g>
</g>
<!-- Node9&#45;&gt;Node21 -->
<g id="edge20" class="edge"><title>Node9&#45;&gt;Node21</title>
<path fill="none" stroke="midnightblue" d="M456.105,-166.308C472.149,-164.274 489.275,-162.102 505.083,-160.098"/>
<polygon fill="midnightblue" stroke="midnightblue" points="505.776,-163.538 515.256,-158.808 504.896,-156.593 505.776,-163.538"/>
</g>
<!-- Node22 -->
<g id="node22" class="node"><title>Node22</title>
<g id="a_node22"><a xlink:href="$classAC__PID.html#aeee26e2bec3de02355b307b2b40ddbaa" xlink:title="AC_PID::reset_I">
<polygon fill="white" stroke="black" points="521.5,-99 521.5,-118 610.5,-118 610.5,-99 521.5,-99"/>
<text text-anchor="middle" x="566" y="-106" font-family="Helvetica,sans-Serif" font-size="10.00">AC_PID::reset_I</text>
</a>
</g>
</g>
<!-- Node9&#45;&gt;Node22 -->
<g id="edge21" class="edge"><title>Node9&#45;&gt;Node22</title>
<path fill="none" stroke="midnightblue" d="M433.205,-159.451C440.878,-156.369 448.751,-152.992 456,-149.5 472.688,-141.461 474.923,-135.675 492,-128.5 498.663,-125.701 505.833,-123.181 512.984,-120.95"/>
<polygon fill="midnightblue" stroke="midnightblue" points="514.075,-124.277 522.674,-118.087 512.092,-117.564 514.075,-124.277"/>
</g>
<!-- Node23 -->
<g id="node23" class="node"><title>Node23</title>
<g id="a_node23"><a xlink:href="$classAC__AttitudeControl.html#a9e10a37d28eeb3d6476ec087b3bac3df" xlink:title="AC_AttitudeControl\l::get_rate_pitch_pid">
<polygon fill="white" stroke="black" points="515,-49.5 515,-79.5 617,-79.5 617,-49.5 515,-49.5"/>
<text text-anchor="start" x="523" y="-67.5" font-family="Helvetica,sans-Serif" font-size="10.00">AC_AttitudeControl</text>
<text text-anchor="middle" x="566" y="-56.5" font-family="Helvetica,sans-Serif" font-size="10.00">::get_rate_pitch_pid</text>
</a>
</g>
</g>
<!-- Node9&#45;&gt;Node23 -->
<g id="edge22" class="edge"><title>Node9&#45;&gt;Node23</title>
<path fill="none" stroke="midnightblue" d="M440.988,-159.334C446.359,-156.547 451.499,-153.291 456,-149.5 479.784,-129.464 467.822,-109.058 492,-89.5 496.062,-86.2142 500.58,-83.3493 505.322,-80.8534"/>
<polygon fill="midnightblue" stroke="midnightblue" points="507.075,-83.8976 514.655,-76.4946 504.113,-77.5553 507.075,-83.8976"/>
</g>
<!-- Node24 -->
<g id="node24" class="node"><title>Node24</title>
<g id="a_node24"><a xlink:href="$classAC__AttitudeControl.html#a9e430ac947e0924fdc83280a4ed552bf" xlink:title="AC_AttitudeControl\l::get_rate_yaw_pid">
<polygon fill="white" stroke="black" points="515.5,-0.5 515.5,-30.5 616.5,-30.5 616.5,-0.5 515.5,-0.5"/>
<text text-anchor="start" x="523.5" y="-18.5" font-family="Helvetica,sans-Serif" font-size="10.00">AC_AttitudeControl</text>
<text text-anchor="middle" x="566" y="-7.5" font-family="Helvetica,sans-Serif" font-size="10.00">::get_rate_yaw_pid</text>
</a>
</g>
</g>
<!-- Node9&#45;&gt;Node24 -->
<g id="edge23" class="edge"><title>Node9&#45;&gt;Node24</title>
<path fill="none" stroke="midnightblue" d="M443.449,-159.342C448.065,-156.582 452.36,-153.33 456,-149.5 491.148,-112.521 456.123,-76.7724 492,-40.5 496.164,-36.29 501.067,-32.7885 506.329,-29.8763"/>
<polygon fill="midnightblue" stroke="midnightblue" points="507.945,-32.983 515.456,-25.5107 504.925,-26.6681 507.945,-32.983"/>
</g>
<!-- Node13 -->
<g id="node13" class="node"><title>Node13</title>
<g id="a_node13"><a xlink:href="$classAP__AHRS__View.html#aec99fce6a0287cfe2542ed2b7459d4d1" xlink:title="AP_AHRS_View::get_gyro\l_latest">
<polygon fill="white" stroke="black" points="676,-181.5 676,-211.5 810,-211.5 810,-181.5 676,-181.5"/>
<text text-anchor="start" x="684" y="-199.5" font-family="Helvetica,sans-Serif" font-size="10.00">AP_AHRS_View::get_gyro</text>
<text text-anchor="middle" x="743" y="-188.5" font-family="Helvetica,sans-Serif" font-size="10.00">_latest</text>
</a>
</g>
</g>
<!-- Node12&#45;&gt;Node13 -->
<g id="edge12" class="edge"><title>Node12&#45;&gt;Node13</title>
<path fill="none" stroke="midnightblue" d="M633.16,-196.5C643.722,-196.5 654.726,-196.5 665.504,-196.5"/>
<polygon fill="midnightblue" stroke="midnightblue" points="665.746,-200 675.746,-196.5 665.746,-193 665.746,-200"/>
</g>
<!-- Node14 -->
<g id="node14" class="node"><title>Node14</title>
<g id="a_node14"><a xlink:href="$classAP__AHRS.html#a13ab26b0126885606c1d596072f8af04" xlink:title="AP_AHRS::get_gyro_latest">
<polygon fill="white" stroke="black" points="846,-206 846,-225 983,-225 983,-206 846,-206"/>
<text text-anchor="middle" x="914.5" y="-213" font-family="Helvetica,sans-Serif" font-size="10.00">AP_AHRS::get_gyro_latest</text>
</a>
</g>
</g>
<!-- Node13&#45;&gt;Node14 -->
<g id="edge13" class="edge"><title>Node13&#45;&gt;Node14</title>
<path fill="none" stroke="midnightblue" d="M810.018,-203.9C818.503,-204.851 827.252,-205.832 835.901,-206.802"/>
<polygon fill="midnightblue" stroke="midnightblue" points="835.658,-210.296 845.986,-207.932 836.438,-203.34 835.658,-210.296"/>
</g>
<!-- Node20 -->
<g id="node20" class="node"><title>Node20</title>
<g id="a_node20"><a xlink:href="$classVector3.html#a53d5701ae2db9492944550927279b7b8" xlink:title="Vector3::rotate">
<polygon fill="white" stroke="black" points="874,-168 874,-187 955,-187 955,-168 874,-168"/>
<text text-anchor="middle" x="914.5" y="-175" font-family="Helvetica,sans-Serif" font-size="10.00">Vector3::rotate</text>
</a>
</g>
</g>
<!-- Node13&#45;&gt;Node20 -->
<g id="edge19" class="edge"><title>Node13&#45;&gt;Node20</title>
<path fill="none" stroke="midnightblue" d="M810.018,-189.1C827.877,-187.098 846.904,-184.965 863.708,-183.081"/>
<polygon fill="midnightblue" stroke="midnightblue" points="864.306,-186.536 873.853,-181.944 863.526,-179.58 864.306,-186.536"/>
</g>
<!-- Node15 -->
<g id="node15" class="node"><title>Node15</title>
<g id="a_node15"><a xlink:href="$classAP__AHRS.html#adf9f5cf9e3df1b4318252d07e2817993" xlink:title="AP_AHRS::get_primary\l_gyro_index">
<polygon fill="white" stroke="black" points="1023,-266.5 1023,-296.5 1144,-296.5 1144,-266.5 1023,-266.5"/>
<text text-anchor="start" x="1031" y="-284.5" font-family="Helvetica,sans-Serif" font-size="10.00">AP_AHRS::get_primary</text>
<text text-anchor="middle" x="1083.5" y="-273.5" font-family="Helvetica,sans-Serif" font-size="10.00">_gyro_index</text>
</a>
</g>
</g>
<!-- Node14&#45;&gt;Node15 -->
<g id="edge14" class="edge"><title>Node14&#45;&gt;Node15</title>
<path fill="none" stroke="midnightblue" d="M939.753,-225.124C960.724,-233.442 991.856,-245.78 1019,-256.5 1024.1,-258.513 1029.42,-260.614 1034.73,-262.707"/>
<polygon fill="midnightblue" stroke="midnightblue" points="1033.63,-266.033 1044.21,-266.442 1036.19,-259.52 1033.63,-266.033"/>
</g>
<!-- Node17 -->
<g id="node17" class="node"><title>Node17</title>
<g id="a_node17"><a xlink:href="$classAP__AHRS.html#a14398c5d2ae68bbe1c67482a91909ad9" xlink:title="AP_AHRS::get_ins">
<polygon fill="white" stroke="black" points="1033,-228 1033,-247 1134,-247 1134,-228 1033,-228"/>
<text text-anchor="middle" x="1083.5" y="-235" font-family="Helvetica,sans-Serif" font-size="10.00">AP_AHRS::get_ins</text>
</a>
</g>
</g>
<!-- Node14&#45;&gt;Node17 -->
<g id="edge16" class="edge"><title>Node14&#45;&gt;Node17</title>
<path fill="none" stroke="midnightblue" d="M983.425,-224.448C996.465,-226.166 1010.03,-227.953 1022.79,-229.634"/>
<polygon fill="midnightblue" stroke="midnightblue" points="1022.45,-233.119 1032.82,-230.955 1023.36,-226.179 1022.45,-233.119"/>
</g>
<!-- Node18 -->
<g id="node18" class="node"><title>Node18</title>
<g id="a_node18"><a xlink:href="$classAP__InertialSensor.html#a6df2d8ad956d4f375bdee541102f16af" xlink:title="AP_InertialSensor::\lget_gyro">
<polygon fill="white" stroke="black" points="1033,-178.5 1033,-208.5 1134,-208.5 1134,-178.5 1033,-178.5"/>
<text text-anchor="start" x="1041" y="-196.5" font-family="Helvetica,sans-Serif" font-size="10.00">AP_InertialSensor::</text>
<text text-anchor="middle" x="1083.5" y="-185.5" font-family="Helvetica,sans-Serif" font-size="10.00">get_gyro</text>
</a>
</g>
</g>
<!-- Node14&#45;&gt;Node18 -->
<g id="edge17" class="edge"><title>Node14&#45;&gt;Node18</title>
<path fill="none" stroke="midnightblue" d="M983.425,-206.552C996.465,-204.834 1010.03,-203.047 1022.79,-201.366"/>
<polygon fill="midnightblue" stroke="midnightblue" points="1023.36,-204.821 1032.82,-200.045 1022.45,-197.881 1023.36,-204.821"/>
</g>
<!-- Node19 -->
<g id="node19" class="node"><title>Node19</title>
<g id="a_node19"><a xlink:href="$classAP__AHRS.html#a6876435645c1049077f33f225ab828f7" xlink:title="AP_AHRS::get_gyro_drift">
<polygon fill="white" stroke="black" points="1019,-140 1019,-159 1148,-159 1148,-140 1019,-140"/>
<text text-anchor="middle" x="1083.5" y="-147" font-family="Helvetica,sans-Serif" font-size="10.00">AP_AHRS::get_gyro_drift</text>
</a>
</g>
</g>
<!-- Node14&#45;&gt;Node19 -->
<g id="edge18" class="edge"><title>Node14&#45;&gt;Node19</title>
<path fill="none" stroke="midnightblue" d="M958.52,-205.964C966.851,-203.406 975.36,-200.275 983,-196.5 1000.93,-187.64 1001.21,-178.635 1019,-169.5 1024.01,-166.927 1029.42,-164.608 1034.89,-162.54"/>
<polygon fill="midnightblue" stroke="midnightblue" points="1036.45,-165.702 1044.72,-159.089 1034.13,-159.097 1036.45,-165.702"/>
</g>
<!-- Node16 -->
<g id="node16" class="node"><title>Node16</title>
<g id="a_node16"><a xlink:href="$classAP__InertialSensor.html#a7fa04e2f196b27b876d86966f64e1fed" xlink:title="AP_InertialSensor::\lget_primary_gyro">
<polygon fill="white" stroke="black" points="1184,-266.5 1184,-296.5 1285,-296.5 1285,-266.5 1184,-266.5"/>
<text text-anchor="start" x="1192" y="-284.5" font-family="Helvetica,sans-Serif" font-size="10.00">AP_InertialSensor::</text>
<text text-anchor="middle" x="1234.5" y="-273.5" font-family="Helvetica,sans-Serif" font-size="10.00">get_primary_gyro</text>
</a>
</g>
</g>
<!-- Node15&#45;&gt;Node16 -->
<g id="edge15" class="edge"><title>Node15&#45;&gt;Node16</title>
<path fill="none" stroke="midnightblue" d="M1144.25,-281.5C1153.88,-281.5 1163.85,-281.5 1173.49,-281.5"/>
<polygon fill="midnightblue" stroke="midnightblue" points="1173.78,-285 1183.78,-281.5 1173.78,-278 1173.78,-285"/>
</g>
</g>
</svg>
