<?xml version="1.0" encoding="UTF-8" standalone="no"?>
<!DOCTYPE svg PUBLIC "-//W3C//DTD SVG 1.1//EN"
 "http://www.w3.org/Graphics/SVG/1.1/DTD/svg11.dtd">
<!-- Generated by graphviz version 2.38.0 (20140413.2041)
 -->
<!-- Title: ardupilot_get_storage Pages: 1 -->
<svg width="1886pt" height="758pt"
 viewBox="0.00 0.00 1886.00 758.00" xmlns="http://www.w3.org/2000/svg" xmlns:xlink="http://www.w3.org/1999/xlink">
<g id="graph0" class="graph" transform="scale(1 1) rotate(0) translate(4 754)">
<title>ardupilot_get_storage</title>
<polygon fill="white" stroke="none" points="-4,4 -4,-754 1882,-754 1882,4 -4,4"/>
<!-- Node1 -->
<g id="node1" class="node"><title>Node1</title>
<polygon fill="#bfbfbf" stroke="black" points="0,-662 0,-681 110,-681 110,-662 0,-662"/>
<text text-anchor="middle" x="55" y="-669" font-family="Helvetica,sans-Serif" font-size="10.00">ardupilot_get_storage</text>
</g>
<!-- Node2 -->
<g id="node2" class="node"><title>Node2</title>
<g id="a_node2"><a xlink:href="$classQURT_1_1Semaphore.html#afc4c8706abb7e68aa4001ea372dc614e" xlink:title="QURT::Semaphore::take">
<polygon fill="white" stroke="black" points="146,-681 146,-700 271,-700 271,-681 146,-681"/>
<text text-anchor="middle" x="208.5" y="-688" font-family="Helvetica,sans-Serif" font-size="10.00">QURT::Semaphore::take</text>
</a>
</g>
</g>
<!-- Node1&#45;&gt;Node2 -->
<g id="edge1" class="edge"><title>Node1&#45;&gt;Node2</title>
<path fill="none" stroke="midnightblue" d="M110.267,-678.306C118.567,-679.347 127.241,-680.435 135.845,-681.514"/>
<polygon fill="midnightblue" stroke="midnightblue" points="135.528,-685.001 145.886,-682.773 136.399,-678.056 135.528,-685.001"/>
</g>
<!-- Node48 -->
<g id="node48" class="node"><title>Node48</title>
<g id="a_node48"><a xlink:href="$classQURT_1_1Semaphore.html#a216f91636f64b57b59d43ef64af91624" xlink:title="QURT::Semaphore::give">
<polygon fill="white" stroke="black" points="146,-643 146,-662 271,-662 271,-643 146,-643"/>
<text text-anchor="middle" x="208.5" y="-650" font-family="Helvetica,sans-Serif" font-size="10.00">QURT::Semaphore::give</text>
</a>
</g>
</g>
<!-- Node1&#45;&gt;Node48 -->
<g id="edge61" class="edge"><title>Node1&#45;&gt;Node48</title>
<path fill="none" stroke="midnightblue" d="M110.267,-664.694C118.567,-663.653 127.241,-662.565 135.845,-661.486"/>
<polygon fill="midnightblue" stroke="midnightblue" points="136.399,-664.944 145.886,-660.227 135.528,-657.999 136.399,-664.944"/>
</g>
<!-- Node3 -->
<g id="node3" class="node"><title>Node3</title>
<g id="a_node3"><a xlink:href="$classQURT_1_1Semaphore.html#a561b4f40f3a76335f1a686c2aed526f9" xlink:title="QURT::Semaphore::take\l_nonblocking">
<polygon fill="white" stroke="black" points="307,-719.5 307,-749.5 432,-749.5 432,-719.5 307,-719.5"/>
<text text-anchor="start" x="315" y="-737.5" font-family="Helvetica,sans-Serif" font-size="10.00">QURT::Semaphore::take</text>
<text text-anchor="middle" x="369.5" y="-726.5" font-family="Helvetica,sans-Serif" font-size="10.00">_nonblocking</text>
</a>
</g>
</g>
<!-- Node2&#45;&gt;Node3 -->
<g id="edge2" class="edge"><title>Node2&#45;&gt;Node3</title>
<path fill="none" stroke="midnightblue" d="M244.001,-700.047C261.662,-704.935 283.742,-711.045 304.384,-716.757"/>
<polygon fill="midnightblue" stroke="midnightblue" points="303.488,-720.141 314.059,-719.435 305.355,-713.394 303.488,-720.141"/>
</g>
<!-- Node4 -->
<g id="node4" class="node"><title>Node4</title>
<g id="a_node4"><a xlink:href="$namespaceAP__HAL.html#a7aa0ce7625c9680e30ff4a99940907a5" xlink:title="AP_HAL::micros64">
<polygon fill="white" stroke="black" points="319,-487 319,-506 420,-506 420,-487 319,-487"/>
<text text-anchor="middle" x="369.5" y="-494" font-family="Helvetica,sans-Serif" font-size="10.00">AP_HAL::micros64</text>
</a>
</g>
</g>
<!-- Node2&#45;&gt;Node4 -->
<g id="edge3" class="edge"><title>Node2&#45;&gt;Node4</title>
<path fill="none" stroke="midnightblue" d="M254.873,-680.911C260.663,-678.454 266.225,-675.37 271,-671.5 322.912,-629.429 351.821,-551.94 363.015,-515.89"/>
<polygon fill="midnightblue" stroke="midnightblue" points="366.425,-516.701 365.926,-506.118 359.716,-514.702 366.425,-516.701"/>
</g>
<!-- Node12 -->
<g id="node12" class="node"><title>Node12</title>
<g id="a_node12"><a xlink:href="$classAP__HAL_1_1Scheduler.html#a78c4f1b1f192ac1c99544b6cc8f099b0" xlink:title="AP_HAL::Scheduler::\ldelay_microseconds">
<polygon fill="white" stroke="black" points="1140,-568.5 1140,-598.5 1250,-598.5 1250,-568.5 1140,-568.5"/>
<text text-anchor="start" x="1148" y="-586.5" font-family="Helvetica,sans-Serif" font-size="10.00">AP_HAL::Scheduler::</text>
<text text-anchor="middle" x="1195" y="-575.5" font-family="Helvetica,sans-Serif" font-size="10.00">delay_microseconds</text>
</a>
</g>
</g>
<!-- Node2&#45;&gt;Node12 -->
<g id="edge60" class="edge"><title>Node2&#45;&gt;Node12</title>
<path fill="none" stroke="midnightblue" d="M271.066,-690.5C334.563,-690.5 436.453,-690.5 524.5,-690.5 524.5,-690.5 524.5,-690.5 850,-690.5 962.001,-690.5 989.984,-669.032 1094,-627.5 1111,-620.713 1113.39,-615.179 1130,-607.5 1133.82,-605.736 1137.8,-604 1141.84,-602.319"/>
<polygon fill="midnightblue" stroke="midnightblue" points="1143.33,-605.493 1151.29,-598.507 1140.71,-599.001 1143.33,-605.493"/>
</g>
<!-- Node5 -->
<g id="node5" class="node"><title>Node5</title>
<g id="a_node5"><a xlink:href="$classLinux_1_1Scheduler.html#a53ecaae0fdc72f85bd57c4b0cff93653" xlink:title="Linux::Scheduler::from">
<polygon fill="white" stroke="black" points="468,-331 468,-350 583,-350 583,-331 468,-331"/>
<text text-anchor="middle" x="525.5" y="-338" font-family="Helvetica,sans-Serif" font-size="10.00">Linux::Scheduler::from</text>
</a>
</g>
</g>
<!-- Node4&#45;&gt;Node5 -->
<g id="edge4" class="edge"><title>Node4&#45;&gt;Node5</title>
<path fill="none" stroke="midnightblue" d="M380.133,-486.742C405.629,-460.915 475.124,-390.518 507.491,-357.73"/>
<polygon fill="midnightblue" stroke="midnightblue" points="510.336,-359.83 514.87,-350.255 505.354,-354.913 510.336,-359.83"/>
</g>
<!-- Node24 -->
<g id="node24" class="node"><title>Node24</title>
<g id="a_node24"><a xlink:href="$classLinux_1_1Scheduler.html#a682b4c34f330f66db5ab4aa5d96e13f9" xlink:title="Linux::Scheduler::stopped\l_clock_usec">
<polygon fill="white" stroke="black" points="1130,-88.5 1130,-118.5 1260,-118.5 1260,-88.5 1130,-88.5"/>
<text text-anchor="start" x="1138" y="-106.5" font-family="Helvetica,sans-Serif" font-size="10.00">Linux::Scheduler::stopped</text>
<text text-anchor="middle" x="1195" y="-95.5" font-family="Helvetica,sans-Serif" font-size="10.00">_clock_usec</text>
</a>
</g>
</g>
<!-- Node4&#45;&gt;Node24 -->
<g id="edge59" class="edge"><title>Node4&#45;&gt;Node24</title>
<path fill="none" stroke="midnightblue" d="M372.859,-486.909C386.096,-435.477 456.438,-191.517 619,-106.5 786.062,-19.1297 1019.56,-59.0349 1130.56,-85.979"/>
<polygon fill="midnightblue" stroke="midnightblue" points="1130.04,-89.4566 1140.59,-88.4602 1131.72,-82.6614 1130.04,-89.4566"/>
</g>
<!-- Node6 -->
<g id="node6" class="node"><title>Node6</title>
<g id="a_node6"><a xlink:href="$classLinux_1_1Scheduler.html#a3d77c332e051c28c83fb07757e7100bd" xlink:title="Linux::Scheduler::init">
<polygon fill="white" stroke="black" points="629,-205 629,-224 737,-224 737,-205 629,-205"/>
<text text-anchor="middle" x="683" y="-212" font-family="Helvetica,sans-Serif" font-size="10.00">Linux::Scheduler::init</text>
</a>
</g>
</g>
<!-- Node5&#45;&gt;Node6 -->
<g id="edge5" class="edge"><title>Node5&#45;&gt;Node6</title>
<path fill="none" stroke="midnightblue" d="M532.778,-330.975C546.296,-311.143 580.107,-265.056 619,-238.5 625.047,-234.371 631.901,-230.827 638.807,-227.828"/>
<polygon fill="midnightblue" stroke="midnightblue" points="640.202,-231.04 648.184,-224.073 637.6,-224.541 640.202,-231.04"/>
</g>
<!-- Node13 -->
<g id="node13" class="node"><title>Node13</title>
<g id="a_node13"><a xlink:href="$classLinux_1_1Scheduler.html#a02a34a123dfebaf360f7010745e1e646" xlink:title="Linux::Scheduler::register\l_timer_process">
<polygon fill="white" stroke="black" points="785,-251.5 785,-281.5 913,-281.5 913,-251.5 785,-251.5"/>
<text text-anchor="start" x="793" y="-269.5" font-family="Helvetica,sans-Serif" font-size="10.00">Linux::Scheduler::register</text>
<text text-anchor="middle" x="849" y="-258.5" font-family="Helvetica,sans-Serif" font-size="10.00">_timer_process</text>
</a>
</g>
</g>
<!-- Node5&#45;&gt;Node13 -->
<g id="edge39" class="edge"><title>Node5&#45;&gt;Node13</title>
<path fill="none" stroke="midnightblue" d="M535.316,-330.821C550.546,-314.888 583.573,-283.689 619,-271.5 668.992,-254.3 728.819,-253.616 774.785,-256.933"/>
<polygon fill="midnightblue" stroke="midnightblue" points="774.718,-260.439 784.966,-257.749 775.277,-253.461 774.718,-260.439"/>
</g>
<!-- Node32 -->
<g id="node32" class="node"><title>Node32</title>
<g id="a_node32"><a xlink:href="$classLinux_1_1Scheduler.html#a14f3239ecbb9889823b20dc9de655c2f" xlink:title="Linux::Scheduler::delay">
<polygon fill="white" stroke="black" points="789.5,-126 789.5,-145 908.5,-145 908.5,-126 789.5,-126"/>
<text text-anchor="middle" x="849" y="-133" font-family="Helvetica,sans-Serif" font-size="10.00">Linux::Scheduler::delay</text>
</a>
</g>
</g>
<!-- Node5&#45;&gt;Node32 -->
<g id="edge33" class="edge"><title>Node5&#45;&gt;Node32</title>
<path fill="none" stroke="midnightblue" d="M527.02,-330.658C529.513,-294.674 543.515,-169.736 619,-119.5 646.443,-101.236 734.046,-113.258 792.597,-124.051"/>
<polygon fill="midnightblue" stroke="midnightblue" points="791.974,-127.495 802.449,-125.906 793.269,-120.616 791.974,-127.495"/>
</g>
<!-- Node33 -->
<g id="node33" class="node"><title>Node33</title>
<g id="a_node33"><a xlink:href="$classLinux_1_1Scheduler.html#a4cffd5bcba0175bf49c7aa75ff3bf09a" xlink:title="Linux::Scheduler::delay\l_microseconds">
<polygon fill="white" stroke="black" points="963,-0.5 963,-30.5 1082,-30.5 1082,-0.5 963,-0.5"/>
<text text-anchor="start" x="971" y="-18.5" font-family="Helvetica,sans-Serif" font-size="10.00">Linux::Scheduler::delay</text>
<text text-anchor="middle" x="1022.5" y="-7.5" font-family="Helvetica,sans-Serif" font-size="10.00">_microseconds</text>
</a>
</g>
</g>
<!-- Node5&#45;&gt;Node33 -->
<g id="edge36" class="edge"><title>Node5&#45;&gt;Node33</title>
<path fill="none" stroke="midnightblue" d="M527.229,-330.658C530.452,-294.58 546.678,-168.455 619,-106.5 713.466,-25.5749 864.939,-12.5616 952.639,-12.5659"/>
<polygon fill="midnightblue" stroke="midnightblue" points="952.728,-16.0663 962.748,-12.6242 952.769,-9.06645 952.728,-16.0663"/>
</g>
<!-- Node34 -->
<g id="node34" class="node"><title>Node34</title>
<g id="a_node34"><a xlink:href="$classLinux_1_1Scheduler.html#a5cb50b637d5fd3e5f9220bc23db0fb3f" xlink:title="Linux::Scheduler::register\l_delay_callback">
<polygon fill="white" stroke="black" points="619,-555.5 619,-585.5 747,-585.5 747,-555.5 619,-555.5"/>
<text text-anchor="start" x="627" y="-573.5" font-family="Helvetica,sans-Serif" font-size="10.00">Linux::Scheduler::register</text>
<text text-anchor="middle" x="683" y="-562.5" font-family="Helvetica,sans-Serif" font-size="10.00">_delay_callback</text>
</a>
</g>
</g>
<!-- Node5&#45;&gt;Node34 -->
<g id="edge38" class="edge"><title>Node5&#45;&gt;Node34</title>
<path fill="none" stroke="midnightblue" d="M528.186,-350.129C534.309,-382.335 558.287,-487.524 619,-545.5 620.625,-547.052 622.358,-548.511 624.174,-549.883"/>
<polygon fill="midnightblue" stroke="midnightblue" points="622.297,-552.838 632.589,-555.356 626.114,-546.97 622.297,-552.838"/>
</g>
<!-- Node35 -->
<g id="node35" class="node"><title>Node35</title>
<g id="a_node35"><a xlink:href="$classLinux_1_1Scheduler.html#aa2be97cb8686d72cc322fb38f69a940c" xlink:title="Linux::Scheduler::register\l_io_process">
<polygon fill="white" stroke="black" points="785,-314.5 785,-344.5 913,-344.5 913,-314.5 785,-314.5"/>
<text text-anchor="start" x="793" y="-332.5" font-family="Helvetica,sans-Serif" font-size="10.00">Linux::Scheduler::register</text>
<text text-anchor="middle" x="849" y="-321.5" font-family="Helvetica,sans-Serif" font-size="10.00">_io_process</text>
</a>
</g>
</g>
<!-- Node5&#45;&gt;Node35 -->
<g id="edge40" class="edge"><title>Node5&#45;&gt;Node35</title>
<path fill="none" stroke="midnightblue" d="M583.238,-338.559C636.55,-336.735 716.611,-333.995 774.732,-332.007"/>
<polygon fill="midnightblue" stroke="midnightblue" points="775.079,-335.497 784.953,-331.657 774.839,-328.501 775.079,-335.497"/>
</g>
<!-- Node36 -->
<g id="node36" class="node"><title>Node36</title>
<g id="a_node36"><a xlink:href="$classLinux_1_1Scheduler.html#abba967d02c28cb0b16a7cebbff9bc6d6" xlink:title="Linux::Scheduler::suspend\l_timer_procs">
<polygon fill="white" stroke="black" points="783,-593.5 783,-623.5 915,-623.5 915,-593.5 783,-593.5"/>
<text text-anchor="start" x="791" y="-611.5" font-family="Helvetica,sans-Serif" font-size="10.00">Linux::Scheduler::suspend</text>
<text text-anchor="middle" x="849" y="-600.5" font-family="Helvetica,sans-Serif" font-size="10.00">_timer_procs</text>
</a>
</g>
</g>
<!-- Node5&#45;&gt;Node36 -->
<g id="edge42" class="edge"><title>Node5&#45;&gt;Node36</title>
<path fill="none" stroke="midnightblue" d="M526.559,-350.227C527.378,-388.891 536.079,-532.593 619,-594.5 662.356,-626.868 724.177,-628.828 772.66,-623.536"/>
<polygon fill="midnightblue" stroke="midnightblue" points="773.287,-626.986 782.792,-622.305 772.443,-620.037 773.287,-626.986"/>
</g>
<!-- Node39 -->
<g id="node39" class="node"><title>Node39</title>
<g id="a_node39"><a xlink:href="$classLinux_1_1Scheduler.html#aee4e701b92cb4721c4de1bfcdcded70c" xlink:title="Linux::Scheduler::resume\l_timer_procs">
<polygon fill="white" stroke="black" points="785,-473.5 785,-503.5 913,-503.5 913,-473.5 785,-473.5"/>
<text text-anchor="start" x="793" y="-491.5" font-family="Helvetica,sans-Serif" font-size="10.00">Linux::Scheduler::resume</text>
<text text-anchor="middle" x="849" y="-480.5" font-family="Helvetica,sans-Serif" font-size="10.00">_timer_procs</text>
</a>
</g>
</g>
<!-- Node5&#45;&gt;Node39 -->
<g id="edge47" class="edge"><title>Node5&#45;&gt;Node39</title>
<path fill="none" stroke="midnightblue" d="M530.881,-350.12C541.928,-373.15 573.336,-431.465 619,-457.5 666.082,-484.344 727.241,-491.489 774.51,-492.251"/>
<polygon fill="midnightblue" stroke="midnightblue" points="774.656,-495.752 784.679,-492.321 774.704,-488.752 774.656,-495.752"/>
</g>
<!-- Node41 -->
<g id="node41" class="node"><title>Node41</title>
<g id="a_node41"><a xlink:href="$classLinux_1_1Scheduler.html#af23753e7c6bfa97553db215a64235455" xlink:title="Linux::Scheduler::in\l_timerprocess">
<polygon fill="white" stroke="black" points="631.5,-369.5 631.5,-399.5 734.5,-399.5 734.5,-369.5 631.5,-369.5"/>
<text text-anchor="start" x="639.5" y="-387.5" font-family="Helvetica,sans-Serif" font-size="10.00">Linux::Scheduler::in</text>
<text text-anchor="middle" x="683" y="-376.5" font-family="Helvetica,sans-Serif" font-size="10.00">_timerprocess</text>
</a>
</g>
</g>
<!-- Node5&#45;&gt;Node41 -->
<g id="edge49" class="edge"><title>Node5&#45;&gt;Node41</title>
<path fill="none" stroke="midnightblue" d="M560.241,-350.047C578.208,-355.131 600.85,-361.538 621.721,-367.444"/>
<polygon fill="midnightblue" stroke="midnightblue" points="620.903,-370.85 631.478,-370.204 622.809,-364.114 620.903,-370.85"/>
</g>
<!-- Node42 -->
<g id="node42" class="node"><title>Node42</title>
<g id="a_node42"><a xlink:href="$classLinux_1_1Scheduler.html#ac193459e3575c7a0588fdc72250c2044" xlink:title="Linux::Scheduler::register\l_timer_failsafe">
<polygon fill="white" stroke="black" points="619,-281.5 619,-311.5 747,-311.5 747,-281.5 619,-281.5"/>
<text text-anchor="start" x="627" y="-299.5" font-family="Helvetica,sans-Serif" font-size="10.00">Linux::Scheduler::register</text>
<text text-anchor="middle" x="683" y="-288.5" font-family="Helvetica,sans-Serif" font-size="10.00">_timer_failsafe</text>
</a>
</g>
</g>
<!-- Node5&#45;&gt;Node42 -->
<g id="edge50" class="edge"><title>Node5&#45;&gt;Node42</title>
<path fill="none" stroke="midnightblue" d="M560.241,-330.953C577.436,-326.087 598.913,-320.01 619.021,-314.32"/>
<polygon fill="midnightblue" stroke="midnightblue" points="620.088,-317.656 628.758,-311.565 618.182,-310.92 620.088,-317.656"/>
</g>
<!-- Node43 -->
<g id="node43" class="node"><title>Node43</title>
<g id="a_node43"><a xlink:href="$classLinux_1_1Scheduler.html#ad6070a7ee637adf5101b1e6b6efbf8f6" xlink:title="Linux::Scheduler::system\l_initialized">
<polygon fill="white" stroke="black" points="619,-418.5 619,-448.5 747,-448.5 747,-418.5 619,-418.5"/>
<text text-anchor="start" x="627" y="-436.5" font-family="Helvetica,sans-Serif" font-size="10.00">Linux::Scheduler::system</text>
<text text-anchor="middle" x="683" y="-425.5" font-family="Helvetica,sans-Serif" font-size="10.00">_initialized</text>
</a>
</g>
</g>
<!-- Node5&#45;&gt;Node43 -->
<g id="edge51" class="edge"><title>Node5&#45;&gt;Node43</title>
<path fill="none" stroke="midnightblue" d="M537.54,-350.089C554.269,-364.265 587.442,-391.02 619,-408.5 622.648,-410.521 626.493,-412.461 630.411,-414.304"/>
<polygon fill="midnightblue" stroke="midnightblue" points="629.068,-417.538 639.626,-418.422 631.924,-411.147 629.068,-417.538"/>
</g>
<!-- Node45 -->
<g id="node45" class="node"><title>Node45</title>
<g id="a_node45"><a xlink:href="$classLinux_1_1Scheduler.html#ae72cfa66c849ffd882ef518c35c71e69" xlink:title="Linux::Scheduler::reboot">
<polygon fill="white" stroke="black" points="622,-129 622,-148 744,-148 744,-129 622,-129"/>
<text text-anchor="middle" x="683" y="-136" font-family="Helvetica,sans-Serif" font-size="10.00">Linux::Scheduler::reboot</text>
</a>
</g>
</g>
<!-- Node5&#45;&gt;Node45 -->
<g id="edge54" class="edge"><title>Node5&#45;&gt;Node45</title>
<path fill="none" stroke="midnightblue" d="M528.873,-330.885C536.614,-301.453 563.872,-211.613 619,-162.5 623.479,-158.51 628.689,-155.155 634.159,-152.342"/>
<polygon fill="midnightblue" stroke="midnightblue" points="635.859,-155.415 643.525,-148.102 632.972,-149.038 635.859,-155.415"/>
</g>
<!-- Node46 -->
<g id="node46" class="node"><title>Node46</title>
<g id="a_node46"><a xlink:href="$classLinux_1_1Scheduler.html#a392aebafcdfe9a812e4db4b7a9dcce9c" xlink:title="Linux::Scheduler::stop\l_clock">
<polygon fill="white" stroke="black" points="626,-506.5 626,-536.5 740,-536.5 740,-506.5 626,-506.5"/>
<text text-anchor="start" x="634" y="-524.5" font-family="Helvetica,sans-Serif" font-size="10.00">Linux::Scheduler::stop</text>
<text text-anchor="middle" x="683" y="-513.5" font-family="Helvetica,sans-Serif" font-size="10.00">_clock</text>
</a>
</g>
</g>
<!-- Node5&#45;&gt;Node46 -->
<g id="edge55" class="edge"><title>Node5&#45;&gt;Node46</title>
<path fill="none" stroke="midnightblue" d="M530.17,-350.3C540.413,-376.476 571.697,-448.929 619,-491.5 623.108,-495.197 627.753,-498.53 632.613,-501.51"/>
<polygon fill="midnightblue" stroke="midnightblue" points="631.088,-504.667 641.524,-506.496 634.506,-498.558 631.088,-504.667"/>
</g>
<!-- Node7 -->
<g id="node7" class="node"><title>Node7</title>
<g id="a_node7"><a xlink:href="$namespaceAP__HAL.html#a71832f03d849a0c088f04fc98d3c8143" xlink:title="AP_HAL::panic">
<polygon fill="white" stroke="black" points="807,-386 807,-405 891,-405 891,-386 807,-386"/>
<text text-anchor="middle" x="849" y="-393" font-family="Helvetica,sans-Serif" font-size="10.00">AP_HAL::panic</text>
</a>
</g>
</g>
<!-- Node6&#45;&gt;Node7 -->
<g id="edge6" class="edge"><title>Node6&#45;&gt;Node7</title>
<path fill="none" stroke="midnightblue" d="M697.593,-224.071C711.511,-234.439 733.029,-252.116 747,-271.5 770.273,-303.789 757.195,-323.197 783,-353.5 792.579,-364.749 805.923,-374.084 818.029,-381.073"/>
<polygon fill="midnightblue" stroke="midnightblue" points="816.509,-384.231 826.963,-385.953 819.865,-378.088 816.509,-384.231"/>
</g>
<!-- Node6&#45;&gt;Node13 -->
<g id="edge12" class="edge"><title>Node6&#45;&gt;Node13</title>
<path fill="none" stroke="midnightblue" d="M714.08,-224.038C735.481,-230.823 764.897,-240.15 790.71,-248.335"/>
<polygon fill="midnightblue" stroke="midnightblue" points="789.812,-251.722 800.403,-251.408 791.928,-245.049 789.812,-251.722"/>
</g>
<!-- Node22 -->
<g id="node22" class="node"><title>Node22</title>
<g id="a_node22"><a xlink:href="$classLinux_1_1Scheduler.html#a163eb7b285c95b1b1d036fc61d723910" xlink:title="Linux::Scheduler::\l_debug_stack">
<polygon fill="white" stroke="black" points="801.5,-202.5 801.5,-232.5 896.5,-232.5 896.5,-202.5 801.5,-202.5"/>
<text text-anchor="start" x="809.5" y="-220.5" font-family="Helvetica,sans-Serif" font-size="10.00">Linux::Scheduler::</text>
<text text-anchor="middle" x="849" y="-209.5" font-family="Helvetica,sans-Serif" font-size="10.00">_debug_stack</text>
</a>
</g>
</g>
<!-- Node6&#45;&gt;Node22 -->
<g id="edge21" class="edge"><title>Node6&#45;&gt;Node22</title>
<path fill="none" stroke="midnightblue" d="M737.246,-215.474C754.525,-215.79 773.754,-216.142 791.276,-216.462"/>
<polygon fill="midnightblue" stroke="midnightblue" points="791.306,-219.963 801.368,-216.647 791.434,-212.965 791.306,-219.963"/>
</g>
<!-- Node8 -->
<g id="node8" class="node"><title>Node8</title>
<g id="a_node8"><a xlink:href="$classAP__HAL_1_1RCInput.html#a2bea13d38f2b9ae8bf5193a3a69f0a31" xlink:title="AP_HAL::RCInput::teardown">
<polygon fill="white" stroke="black" points="951,-387 951,-406 1094,-406 1094,-387 951,-387"/>
<text text-anchor="middle" x="1022.5" y="-394" font-family="Helvetica,sans-Serif" font-size="10.00">AP_HAL::RCInput::teardown</text>
</a>
</g>
</g>
<!-- Node7&#45;&gt;Node8 -->
<g id="edge7" class="edge"><title>Node7&#45;&gt;Node8</title>
<path fill="none" stroke="midnightblue" d="M891.079,-395.74C906.072,-395.827 923.594,-395.929 940.84,-396.03"/>
<polygon fill="midnightblue" stroke="midnightblue" points="940.921,-399.53 950.941,-396.089 940.962,-392.53 940.921,-399.53"/>
</g>
<!-- Node7&#45;&gt;Node12 -->
<g id="edge11" class="edge"><title>Node7&#45;&gt;Node12</title>
<path fill="none" stroke="midnightblue" d="M885.567,-405.078C934.974,-419.394 1025.97,-449.486 1094,-493.5 1123.95,-512.877 1153.76,-541.166 1172.93,-560.837"/>
<polygon fill="midnightblue" stroke="midnightblue" points="1170.53,-563.388 1179.98,-568.174 1175.58,-558.538 1170.53,-563.388"/>
</g>
<!-- Node9 -->
<g id="node9" class="node"><title>Node9</title>
<g id="a_node9"><a xlink:href="$classAP__HAL_1_1RCInput.html#aee1fade33080edef83dd7db0fad0f7da" xlink:title="AP_HAL::RCInput::new\l_input">
<polygon fill="white" stroke="black" points="1134,-431.5 1134,-461.5 1256,-461.5 1256,-431.5 1134,-431.5"/>
<text text-anchor="start" x="1142" y="-449.5" font-family="Helvetica,sans-Serif" font-size="10.00">AP_HAL::RCInput::new</text>
<text text-anchor="middle" x="1195" y="-438.5" font-family="Helvetica,sans-Serif" font-size="10.00">_input</text>
</a>
</g>
</g>
<!-- Node8&#45;&gt;Node9 -->
<g id="edge8" class="edge"><title>Node8&#45;&gt;Node9</title>
<path fill="none" stroke="midnightblue" d="M1055.97,-406.022C1077.65,-412.379 1106.83,-420.936 1132.77,-428.545"/>
<polygon fill="midnightblue" stroke="midnightblue" points="1131.96,-431.953 1142.54,-431.409 1133.93,-425.236 1131.96,-431.953"/>
</g>
<!-- Node10 -->
<g id="node10" class="node"><title>Node10</title>
<g id="a_node10"><a xlink:href="$classAP__HAL_1_1RCInput.html#ae55f959c6115c1f41783af3a2b6c4fcd" xlink:title="AP_HAL::RCInput::num\l_channels">
<polygon fill="white" stroke="black" points="1134,-382.5 1134,-412.5 1256,-412.5 1256,-382.5 1134,-382.5"/>
<text text-anchor="start" x="1142" y="-400.5" font-family="Helvetica,sans-Serif" font-size="10.00">AP_HAL::RCInput::num</text>
<text text-anchor="middle" x="1195" y="-389.5" font-family="Helvetica,sans-Serif" font-size="10.00">_channels</text>
</a>
</g>
</g>
<!-- Node8&#45;&gt;Node10 -->
<g id="edge9" class="edge"><title>Node8&#45;&gt;Node10</title>
<path fill="none" stroke="midnightblue" d="M1094.33,-396.915C1104.1,-396.973 1114.14,-397.032 1123.91,-397.089"/>
<polygon fill="midnightblue" stroke="midnightblue" points="1123.94,-400.589 1133.96,-397.148 1123.98,-393.589 1123.94,-400.589"/>
</g>
<!-- Node11 -->
<g id="node11" class="node"><title>Node11</title>
<g id="a_node11"><a xlink:href="$classAP__HAL_1_1RCInput.html#a078fd7e6d2e6a899009ec674a8e03498" xlink:title="AP_HAL::RCInput::read">
<polygon fill="white" stroke="black" points="1134,-344 1134,-363 1256,-363 1256,-344 1134,-344"/>
<text text-anchor="middle" x="1195" y="-351" font-family="Helvetica,sans-Serif" font-size="10.00">AP_HAL::RCInput::read</text>
</a>
</g>
</g>
<!-- Node8&#45;&gt;Node11 -->
<g id="edge10" class="edge"><title>Node8&#45;&gt;Node11</title>
<path fill="none" stroke="midnightblue" d="M1061.34,-386.957C1086.39,-380.638 1119.46,-372.299 1146.31,-365.528"/>
<polygon fill="midnightblue" stroke="midnightblue" points="1147.43,-368.856 1156.27,-363.016 1145.71,-362.068 1147.43,-368.856"/>
</g>
<!-- Node14 -->
<g id="node14" class="node"><title>Node14</title>
<g id="a_node14"><a xlink:href="$classAP__HAL_1_1UARTDriver.html#a6ceedc792594e59fc7d80b39a435f027" xlink:title="AP_HAL::UARTDriver\l::printf">
<polygon fill="white" stroke="black" points="965,-294.5 965,-324.5 1080,-324.5 1080,-294.5 965,-294.5"/>
<text text-anchor="start" x="973" y="-312.5" font-family="Helvetica,sans-Serif" font-size="10.00">AP_HAL::UARTDriver</text>
<text text-anchor="middle" x="1022.5" y="-301.5" font-family="Helvetica,sans-Serif" font-size="10.00">::printf</text>
</a>
</g>
</g>
<!-- Node13&#45;&gt;Node14 -->
<g id="edge13" class="edge"><title>Node13&#45;&gt;Node14</title>
<path fill="none" stroke="midnightblue" d="M909.982,-281.539C924.423,-285.16 939.939,-289.05 954.67,-292.744"/>
<polygon fill="midnightblue" stroke="midnightblue" points="954.169,-296.227 964.72,-295.264 955.872,-289.437 954.169,-296.227"/>
</g>
<!-- Node15 -->
<g id="node15" class="node"><title>Node15</title>
<g id="a_node15"><a xlink:href="$classAP__HAL_1_1UARTDriver.html#aa8abfb6d6641299472c29ac1edde559f" xlink:title="AP_HAL::UARTDriver\l::vprintf">
<polygon fill="white" stroke="black" points="1137.5,-294.5 1137.5,-324.5 1252.5,-324.5 1252.5,-294.5 1137.5,-294.5"/>
<text text-anchor="start" x="1145.5" y="-312.5" font-family="Helvetica,sans-Serif" font-size="10.00">AP_HAL::UARTDriver</text>
<text text-anchor="middle" x="1195" y="-301.5" font-family="Helvetica,sans-Serif" font-size="10.00">::vprintf</text>
</a>
</g>
</g>
<!-- Node14&#45;&gt;Node15 -->
<g id="edge14" class="edge"><title>Node14&#45;&gt;Node15</title>
<path fill="none" stroke="midnightblue" d="M1080.27,-309.5C1095.37,-309.5 1111.82,-309.5 1127.39,-309.5"/>
<polygon fill="midnightblue" stroke="midnightblue" points="1127.47,-313 1137.47,-309.5 1127.47,-306 1127.47,-313"/>
</g>
<!-- Node16 -->
<g id="node16" class="node"><title>Node16</title>
<g id="a_node16"><a xlink:href="$print__vprintf_8cpp.html#a1534eaeab54696df96975b56d9f49212" xlink:title="print_vprintf">
<polygon fill="white" stroke="black" points="1333.5,-300 1333.5,-319 1401.5,-319 1401.5,-300 1333.5,-300"/>
<text text-anchor="middle" x="1367.5" y="-307" font-family="Helvetica,sans-Serif" font-size="10.00">print_vprintf</text>
</a>
</g>
</g>
<!-- Node15&#45;&gt;Node16 -->
<g id="edge15" class="edge"><title>Node15&#45;&gt;Node16</title>
<path fill="none" stroke="midnightblue" d="M1252.77,-309.5C1275.75,-309.5 1301.85,-309.5 1323.24,-309.5"/>
<polygon fill="midnightblue" stroke="midnightblue" points="1323.33,-313 1333.33,-309.5 1323.33,-306 1323.33,-313"/>
</g>
<!-- Node17 -->
<g id="node17" class="node"><title>Node17</title>
<g id="a_node17"><a xlink:href="$classAP__HAL_1_1Print.html#acc65391952a43334f8f5c9bef341f501" xlink:title="AP_HAL::Print::write">
<polygon fill="white" stroke="black" points="1476.5,-263 1476.5,-282 1584.5,-282 1584.5,-263 1476.5,-263"/>
<text text-anchor="middle" x="1530.5" y="-270" font-family="Helvetica,sans-Serif" font-size="10.00">AP_HAL::Print::write</text>
</a>
</g>
</g>
<!-- Node16&#45;&gt;Node17 -->
<g id="edge16" class="edge"><title>Node16&#45;&gt;Node17</title>
<path fill="none" stroke="midnightblue" d="M1401.86,-301.834C1423.8,-296.792 1452.95,-290.093 1477.85,-284.37"/>
<polygon fill="midnightblue" stroke="midnightblue" points="1478.91,-287.717 1487.87,-282.066 1477.34,-280.895 1478.91,-287.717"/>
</g>
<!-- Node18 -->
<g id="node18" class="node"><title>Node18</title>
<g id="a_node18"><a xlink:href="$ftoa__engine_8cpp.html#a1c28234da8f20b43c85890d4bb452947" xlink:title="ftoa_engine">
<polygon fill="white" stroke="black" points="1497,-225 1497,-244 1564,-244 1564,-225 1497,-225"/>
<text text-anchor="middle" x="1530.5" y="-232" font-family="Helvetica,sans-Serif" font-size="10.00">ftoa_engine</text>
</a>
</g>
</g>
<!-- Node16&#45;&gt;Node18 -->
<g id="edge17" class="edge"><title>Node16&#45;&gt;Node18</title>
<path fill="none" stroke="midnightblue" d="M1384.73,-299.992C1405.3,-288.173 1442.04,-267.815 1475,-253.5 1479.76,-251.432 1484.83,-249.423 1489.88,-247.534"/>
<polygon fill="midnightblue" stroke="midnightblue" points="1491.27,-250.751 1499.49,-244.065 1488.9,-244.167 1491.27,-250.751"/>
</g>
<!-- Node19 -->
<g id="node19" class="node"><title>Node19</title>
<g id="a_node19"><a xlink:href="$replace_8cpp.html#a880bcc7b85a09e6254691bebd5344b51" xlink:title="strnlen">
<polygon fill="white" stroke="black" points="1507.5,-377 1507.5,-396 1553.5,-396 1553.5,-377 1507.5,-377"/>
<text text-anchor="middle" x="1530.5" y="-384" font-family="Helvetica,sans-Serif" font-size="10.00">strnlen</text>
</a>
</g>
</g>
<!-- Node16&#45;&gt;Node19 -->
<g id="edge18" class="edge"><title>Node16&#45;&gt;Node19</title>
<path fill="none" stroke="midnightblue" d="M1384.32,-319.184C1404.77,-331.445 1441.7,-352.746 1475,-367.5 1482.26,-370.717 1490.25,-373.764 1497.82,-376.437"/>
<polygon fill="midnightblue" stroke="midnightblue" points="1496.84,-379.801 1507.44,-379.719 1499.1,-373.176 1496.84,-379.801"/>
</g>
<!-- Node20 -->
<g id="node20" class="node"><title>Node20</title>
<g id="a_node20"><a xlink:href="$utoa__invert_8cpp.html#a34926f552460b47c414ec4d83b32815c" xlink:title="ulltoa_invert">
<polygon fill="white" stroke="black" points="1496,-339 1496,-358 1565,-358 1565,-339 1496,-339"/>
<text text-anchor="middle" x="1530.5" y="-346" font-family="Helvetica,sans-Serif" font-size="10.00">ulltoa_invert</text>
</a>
</g>
</g>
<!-- Node16&#45;&gt;Node20 -->
<g id="edge19" class="edge"><title>Node16&#45;&gt;Node20</title>
<path fill="none" stroke="midnightblue" d="M1401.86,-317.581C1426.28,-323.496 1459.63,-331.576 1486.12,-337.993"/>
<polygon fill="midnightblue" stroke="midnightblue" points="1485.36,-341.41 1495.91,-340.363 1487.01,-334.607 1485.36,-341.41"/>
</g>
<!-- Node21 -->
<g id="node21" class="node"><title>Node21</title>
<g id="a_node21"><a xlink:href="$utoa__invert_8cpp.html#a5d99bba8e697c1e11da489d88fca8559" xlink:title="ultoa_invert">
<polygon fill="white" stroke="black" points="1497,-301 1497,-320 1564,-320 1564,-301 1497,-301"/>
<text text-anchor="middle" x="1530.5" y="-308" font-family="Helvetica,sans-Serif" font-size="10.00">ultoa_invert</text>
</a>
</g>
</g>
<!-- Node16&#45;&gt;Node21 -->
<g id="edge20" class="edge"><title>Node16&#45;&gt;Node21</title>
<path fill="none" stroke="midnightblue" d="M1401.86,-309.707C1426.42,-309.86 1460.01,-310.068 1486.57,-310.233"/>
<polygon fill="midnightblue" stroke="midnightblue" points="1486.71,-313.734 1496.73,-310.296 1486.76,-306.734 1486.71,-313.734"/>
</g>
<!-- Node23 -->
<g id="node23" class="node"><title>Node23</title>
<g id="a_node23"><a xlink:href="$namespaceAP__HAL.html#a59336c5fceaf28a76d1df1581a87a25d" xlink:title="AP_HAL::millis64">
<polygon fill="white" stroke="black" points="975.5,-137 975.5,-156 1069.5,-156 1069.5,-137 975.5,-137"/>
<text text-anchor="middle" x="1022.5" y="-144" font-family="Helvetica,sans-Serif" font-size="10.00">AP_HAL::millis64</text>
</a>
</g>
</g>
<!-- Node22&#45;&gt;Node23 -->
<g id="edge22" class="edge"><title>Node22&#45;&gt;Node23</title>
<path fill="none" stroke="midnightblue" d="M886.371,-202.443C916.759,-189.862 959.699,-172.085 988.964,-159.97"/>
<polygon fill="midnightblue" stroke="midnightblue" points="990.425,-163.153 998.326,-156.094 987.748,-156.685 990.425,-163.153"/>
</g>
<!-- Node29 -->
<g id="node29" class="node"><title>Node29</title>
<g id="a_node29"><a xlink:href="$classLinux_1_1Thread.html#a6884970a0811ae21953c57fb98aa6e96" xlink:title="Linux::Thread::get\l_stack_usage">
<polygon fill="white" stroke="black" points="1783,-181.5 1783,-211.5 1878,-211.5 1878,-181.5 1783,-181.5"/>
<text text-anchor="start" x="1791" y="-199.5" font-family="Helvetica,sans-Serif" font-size="10.00">Linux::Thread::get</text>
<text text-anchor="middle" x="1830.5" y="-188.5" font-family="Helvetica,sans-Serif" font-size="10.00">_stack_usage</text>
</a>
</g>
</g>
<!-- Node22&#45;&gt;Node29 -->
<g id="edge32" class="edge"><title>Node22&#45;&gt;Node29</title>
<path fill="none" stroke="midnightblue" d="M896.683,-212.839C962.789,-206.653 1087.5,-196.5 1194,-196.5 1194,-196.5 1194,-196.5 1531.5,-196.5 1615.5,-196.5 1712.81,-196.5 1772.77,-196.5"/>
<polygon fill="midnightblue" stroke="midnightblue" points="1772.79,-200 1782.79,-196.5 1772.79,-193 1772.79,-200"/>
</g>
<!-- Node23&#45;&gt;Node5 -->
<g id="edge23" class="edge"><title>Node23&#45;&gt;Node5</title>
<path fill="none" stroke="midnightblue" d="M975.305,-149.901C875.982,-157.532 648.671,-176.813 619,-195.5 571.557,-225.38 543.946,-289.438 532.599,-321.46"/>
<polygon fill="midnightblue" stroke="midnightblue" points="529.262,-320.401 529.369,-330.995 535.892,-322.647 529.262,-320.401"/>
</g>
<!-- Node23&#45;&gt;Node24 -->
<g id="edge24" class="edge"><title>Node23&#45;&gt;Node24</title>
<path fill="none" stroke="midnightblue" d="M1061.34,-136.957C1079.97,-132.258 1103.03,-126.442 1124.68,-120.984"/>
<polygon fill="midnightblue" stroke="midnightblue" points="1125.66,-124.346 1134.5,-118.506 1123.95,-117.558 1125.66,-124.346"/>
</g>
<!-- Node25 -->
<g id="node25" class="node"><title>Node25</title>
<g id="a_node25"><a xlink:href="$classLinux_1_1Scheduler.html#a647872aff158b510c56862f51f951538" xlink:title="Linux::Scheduler::microsleep">
<polygon fill="white" stroke="black" points="1296,-50 1296,-69 1439,-69 1439,-50 1296,-50"/>
<text text-anchor="middle" x="1367.5" y="-57" font-family="Helvetica,sans-Serif" font-size="10.00">Linux::Scheduler::microsleep</text>
</a>
</g>
</g>
<!-- Node24&#45;&gt;Node25 -->
<g id="edge25" class="edge"><title>Node24&#45;&gt;Node25</title>
<path fill="none" stroke="midnightblue" d="M1254.2,-88.4808C1275.57,-82.9648 1299.48,-76.7956 1319.72,-71.5716"/>
<polygon fill="midnightblue" stroke="midnightblue" points="1320.83,-74.9002 1329.64,-69.0124 1319.08,-68.1223 1320.83,-74.9002"/>
</g>
<!-- Node26 -->
<g id="node26" class="node"><title>Node26</title>
<g id="a_node26"><a xlink:href="$classLinux_1_1Scheduler.html#ab373a83d818679432520ea881044b2a7" xlink:title="Linux::Scheduler::teardown">
<polygon fill="white" stroke="black" points="1300,-94 1300,-113 1435,-113 1435,-94 1300,-94"/>
<text text-anchor="middle" x="1367.5" y="-101" font-family="Helvetica,sans-Serif" font-size="10.00">Linux::Scheduler::teardown</text>
</a>
</g>
</g>
<!-- Node24&#45;&gt;Node26 -->
<g id="edge26" class="edge"><title>Node24&#45;&gt;Node26</title>
<path fill="none" stroke="midnightblue" d="M1260.46,-103.5C1270.05,-103.5 1280.01,-103.5 1289.82,-103.5"/>
<polygon fill="midnightblue" stroke="midnightblue" points="1289.96,-107 1299.96,-103.5 1289.96,-100 1289.96,-107"/>
</g>
<!-- Node27 -->
<g id="node27" class="node"><title>Node27</title>
<g id="a_node27"><a xlink:href="$classLinux_1_1PeriodicThread.html#a136aaf6e713f63b246fc4a2905e6e9a1" xlink:title="Linux::PeriodicThread\l::stop">
<polygon fill="white" stroke="black" points="1475,-132.5 1475,-162.5 1586,-162.5 1586,-132.5 1475,-132.5"/>
<text text-anchor="start" x="1483" y="-150.5" font-family="Helvetica,sans-Serif" font-size="10.00">Linux::PeriodicThread</text>
<text text-anchor="middle" x="1530.5" y="-139.5" font-family="Helvetica,sans-Serif" font-size="10.00">::stop</text>
</a>
</g>
</g>
<!-- Node26&#45;&gt;Node27 -->
<g id="edge27" class="edge"><title>Node26&#45;&gt;Node27</title>
<path fill="none" stroke="midnightblue" d="M1403.43,-113.047C1421.4,-117.957 1443.88,-124.1 1464.86,-129.834"/>
<polygon fill="midnightblue" stroke="midnightblue" points="1464.12,-133.26 1474.69,-132.521 1465.97,-126.508 1464.12,-133.26"/>
</g>
<!-- Node31 -->
<g id="node31" class="node"><title>Node31</title>
<g id="a_node31"><a xlink:href="$classLinux_1_1Thread.html#a32b7d184279634922e2f3b23b584fbcd" xlink:title="Linux::Thread::join">
<polygon fill="white" stroke="black" points="1482,-94 1482,-113 1579,-113 1579,-94 1482,-94"/>
<text text-anchor="middle" x="1530.5" y="-101" font-family="Helvetica,sans-Serif" font-size="10.00">Linux::Thread::join</text>
</a>
</g>
</g>
<!-- Node26&#45;&gt;Node31 -->
<g id="edge31" class="edge"><title>Node26&#45;&gt;Node31</title>
<path fill="none" stroke="midnightblue" d="M1435.38,-103.5C1447.41,-103.5 1459.85,-103.5 1471.6,-103.5"/>
<polygon fill="midnightblue" stroke="midnightblue" points="1471.72,-107 1481.72,-103.5 1471.72,-100 1471.72,-107"/>
</g>
<!-- Node28 -->
<g id="node28" class="node"><title>Node28</title>
<g id="a_node28"><a xlink:href="$classLinux_1_1Thread.html#a240d7b48a9a8eb43638f67295a1819e5" xlink:title="Linux::Thread::is_started">
<polygon fill="white" stroke="black" points="1622,-138 1622,-157 1747,-157 1747,-138 1622,-138"/>
<text text-anchor="middle" x="1684.5" y="-145" font-family="Helvetica,sans-Serif" font-size="10.00">Linux::Thread::is_started</text>
</a>
</g>
</g>
<!-- Node27&#45;&gt;Node28 -->
<g id="edge28" class="edge"><title>Node27&#45;&gt;Node28</title>
<path fill="none" stroke="midnightblue" d="M1586.38,-147.5C1594.54,-147.5 1603.05,-147.5 1611.5,-147.5"/>
<polygon fill="midnightblue" stroke="midnightblue" points="1611.74,-151 1621.74,-147.5 1611.74,-144 1611.74,-151"/>
</g>
<!-- Node28&#45;&gt;Node29 -->
<g id="edge29" class="edge"><title>Node28&#45;&gt;Node29</title>
<path fill="none" stroke="midnightblue" d="M1713.61,-157.064C1731.28,-163.078 1754.66,-171.033 1775.79,-178.223"/>
<polygon fill="midnightblue" stroke="midnightblue" points="1774.72,-181.555 1785.31,-181.463 1776.97,-174.928 1774.72,-181.555"/>
</g>
<!-- Node30 -->
<g id="node30" class="node"><title>Node30</title>
<g id="a_node30"><a xlink:href="$classLinux_1_1Thread.html#a8d3282b714faaf68eae534e9276419f0" xlink:title="Linux::Thread::set\l_stack_size">
<polygon fill="white" stroke="black" points="1783,-132.5 1783,-162.5 1878,-162.5 1878,-132.5 1783,-132.5"/>
<text text-anchor="start" x="1791" y="-150.5" font-family="Helvetica,sans-Serif" font-size="10.00">Linux::Thread::set</text>
<text text-anchor="middle" x="1830.5" y="-139.5" font-family="Helvetica,sans-Serif" font-size="10.00">_stack_size</text>
</a>
</g>
</g>
<!-- Node28&#45;&gt;Node30 -->
<g id="edge30" class="edge"><title>Node28&#45;&gt;Node30</title>
<path fill="none" stroke="midnightblue" d="M1747.4,-147.5C1755.86,-147.5 1764.5,-147.5 1772.86,-147.5"/>
<polygon fill="midnightblue" stroke="midnightblue" points="1772.87,-151 1782.87,-147.5 1772.87,-144 1772.87,-151"/>
</g>
<!-- Node32&#45;&gt;Node23 -->
<g id="edge34" class="edge"><title>Node32&#45;&gt;Node23</title>
<path fill="none" stroke="midnightblue" d="M908.541,-139.255C926.877,-140.431 947.065,-141.726 965.241,-142.892"/>
<polygon fill="midnightblue" stroke="midnightblue" points="965.189,-146.395 975.392,-143.543 965.637,-139.41 965.189,-146.395"/>
</g>
<!-- Node32&#45;&gt;Node25 -->
<g id="edge35" class="edge"><title>Node32&#45;&gt;Node25</title>
<path fill="none" stroke="midnightblue" d="M889.155,-125.97C943.057,-113.21 1043.3,-90.7612 1130,-78.5 1181.57,-71.2068 1239.89,-66.483 1285.71,-63.5697"/>
<polygon fill="midnightblue" stroke="midnightblue" points="1286.12,-67.0511 1295.89,-62.9394 1285.69,-60.0645 1286.12,-67.0511"/>
</g>
<!-- Node33&#45;&gt;Node25 -->
<g id="edge37" class="edge"><title>Node33&#45;&gt;Node25</title>
<path fill="none" stroke="midnightblue" d="M1082.31,-22.885C1130.17,-28.9126 1199.46,-37.6806 1260,-45.5 1268.31,-46.573 1276.98,-47.7006 1285.63,-48.8304"/>
<polygon fill="midnightblue" stroke="midnightblue" points="1285.39,-52.3281 1295.76,-50.1548 1286.3,-45.3873 1285.39,-52.3281"/>
</g>
<!-- Node35&#45;&gt;Node14 -->
<g id="edge41" class="edge"><title>Node35&#45;&gt;Node14</title>
<path fill="none" stroke="midnightblue" d="M913.373,-322.11C926.831,-320.54 941.081,-318.878 954.663,-317.294"/>
<polygon fill="midnightblue" stroke="midnightblue" points="955.369,-320.736 964.896,-316.101 954.558,-313.783 955.369,-320.736"/>
</g>
<!-- Node37 -->
<g id="node37" class="node"><title>Node37</title>
<g id="a_node37"><a xlink:href="$classLinux_1_1Semaphore.html#afc4c8706abb7e68aa4001ea372dc614e" xlink:title="Linux::Semaphore::take">
<polygon fill="white" stroke="black" points="962.5,-599 962.5,-618 1082.5,-618 1082.5,-599 962.5,-599"/>
<text text-anchor="middle" x="1022.5" y="-606" font-family="Helvetica,sans-Serif" font-size="10.00">Linux::Semaphore::take</text>
</a>
</g>
</g>
<!-- Node36&#45;&gt;Node37 -->
<g id="edge43" class="edge"><title>Node36&#45;&gt;Node37</title>
<path fill="none" stroke="midnightblue" d="M915.326,-608.5C927.38,-608.5 940.006,-608.5 952.174,-608.5"/>
<polygon fill="midnightblue" stroke="midnightblue" points="952.265,-612 962.265,-608.5 952.265,-605 952.265,-612"/>
</g>
<!-- Node37&#45;&gt;Node4 -->
<g id="edge45" class="edge"><title>Node37&#45;&gt;Node4</title>
<path fill="none" stroke="midnightblue" d="M987.772,-618.114C966.986,-623.534 939.676,-629.754 915,-632.5 784.204,-647.055 746.106,-658.612 619,-624.5 528.828,-600.3 433.844,-540.185 392.205,-511.801"/>
<polygon fill="midnightblue" stroke="midnightblue" points="394.143,-508.887 383.924,-506.093 390.17,-514.65 394.143,-508.887"/>
</g>
<!-- Node37&#45;&gt;Node12 -->
<g id="edge46" class="edge"><title>Node37&#45;&gt;Node12</title>
<path fill="none" stroke="midnightblue" d="M1082.65,-599.826C1097.88,-597.594 1114.34,-595.181 1129.81,-592.912"/>
<polygon fill="midnightblue" stroke="midnightblue" points="1130.42,-596.36 1139.81,-591.446 1129.41,-589.434 1130.42,-596.36"/>
</g>
<!-- Node38 -->
<g id="node38" class="node"><title>Node38</title>
<g id="a_node38"><a xlink:href="$classLinux_1_1Semaphore.html#a561b4f40f3a76335f1a686c2aed526f9" xlink:title="Linux::Semaphore::take\l_nonblocking">
<polygon fill="white" stroke="black" points="1135,-617.5 1135,-647.5 1255,-647.5 1255,-617.5 1135,-617.5"/>
<text text-anchor="start" x="1143" y="-635.5" font-family="Helvetica,sans-Serif" font-size="10.00">Linux::Semaphore::take</text>
<text text-anchor="middle" x="1195" y="-624.5" font-family="Helvetica,sans-Serif" font-size="10.00">_nonblocking</text>
</a>
</g>
</g>
<!-- Node37&#45;&gt;Node38 -->
<g id="edge44" class="edge"><title>Node37&#45;&gt;Node38</title>
<path fill="none" stroke="midnightblue" d="M1082.65,-616.827C1096.28,-618.744 1110.88,-620.8 1124.88,-622.771"/>
<polygon fill="midnightblue" stroke="midnightblue" points="1124.56,-626.26 1134.95,-624.188 1125.54,-619.328 1124.56,-626.26"/>
</g>
<!-- Node40 -->
<g id="node40" class="node"><title>Node40</title>
<g id="a_node40"><a xlink:href="$classLinux_1_1Semaphore.html#a216f91636f64b57b59d43ef64af91624" xlink:title="Linux::Semaphore::give">
<polygon fill="white" stroke="black" points="963,-503 963,-522 1082,-522 1082,-503 963,-503"/>
<text text-anchor="middle" x="1022.5" y="-510" font-family="Helvetica,sans-Serif" font-size="10.00">Linux::Semaphore::give</text>
</a>
</g>
</g>
<!-- Node39&#45;&gt;Node40 -->
<g id="edge48" class="edge"><title>Node39&#45;&gt;Node40</title>
<path fill="none" stroke="midnightblue" d="M913.373,-497.369C926.172,-499.16 939.687,-501.051 952.663,-502.867"/>
<polygon fill="midnightblue" stroke="midnightblue" points="952.542,-506.384 962.931,-504.304 953.513,-499.452 952.542,-506.384"/>
</g>
<!-- Node43&#45;&gt;Node7 -->
<g id="edge52" class="edge"><title>Node43&#45;&gt;Node7</title>
<path fill="none" stroke="midnightblue" d="M747.407,-418.808C763.673,-415.039 780.971,-411.031 796.551,-407.421"/>
<polygon fill="midnightblue" stroke="midnightblue" points="797.561,-410.78 806.513,-405.113 795.981,-403.96 797.561,-410.78"/>
</g>
<!-- Node44 -->
<g id="node44" class="node"><title>Node44</title>
<g id="a_node44"><a xlink:href="$classLinux_1_1Scheduler.html#ac52c8da3f1f4fd79c50bd64379daf399" xlink:title="Linux::Scheduler::\l_wait_all_threads">
<polygon fill="white" stroke="black" points="801.5,-424.5 801.5,-454.5 896.5,-454.5 896.5,-424.5 801.5,-424.5"/>
<text text-anchor="start" x="809.5" y="-442.5" font-family="Helvetica,sans-Serif" font-size="10.00">Linux::Scheduler::</text>
<text text-anchor="middle" x="849" y="-431.5" font-family="Helvetica,sans-Serif" font-size="10.00">_wait_all_threads</text>
</a>
</g>
</g>
<!-- Node43&#45;&gt;Node44 -->
<g id="edge53" class="edge"><title>Node43&#45;&gt;Node44</title>
<path fill="none" stroke="midnightblue" d="M747.407,-435.82C761.84,-436.348 777.085,-436.906 791.222,-437.423"/>
<polygon fill="midnightblue" stroke="midnightblue" points="791.172,-440.923 801.293,-437.791 791.428,-433.928 791.172,-440.923"/>
</g>
<!-- Node47 -->
<g id="node47" class="node"><title>Node47</title>
<g id="a_node47"><a xlink:href="$classLinux_1_1Scheduler.html#a70b024d7d0886bf47b46cc3ee310d638" xlink:title="Linux::Scheduler::\l_run_io">
<polygon fill="white" stroke="black" points="801.5,-522.5 801.5,-552.5 896.5,-552.5 896.5,-522.5 801.5,-522.5"/>
<text text-anchor="start" x="809.5" y="-540.5" font-family="Helvetica,sans-Serif" font-size="10.00">Linux::Scheduler::</text>
<text text-anchor="middle" x="849" y="-529.5" font-family="Helvetica,sans-Serif" font-size="10.00">_run_io</text>
</a>
</g>
</g>
<!-- Node46&#45;&gt;Node47 -->
<g id="edge56" class="edge"><title>Node46&#45;&gt;Node47</title>
<path fill="none" stroke="midnightblue" d="M740.439,-527.006C756.86,-528.608 774.799,-530.358 791.239,-531.962"/>
<polygon fill="midnightblue" stroke="midnightblue" points="790.962,-535.452 801.255,-532.939 791.642,-528.485 790.962,-535.452"/>
</g>
<!-- Node47&#45;&gt;Node37 -->
<g id="edge57" class="edge"><title>Node47&#45;&gt;Node37</title>
<path fill="none" stroke="midnightblue" d="M886.371,-552.557C916.759,-565.138 959.699,-582.915 988.964,-595.03"/>
<polygon fill="midnightblue" stroke="midnightblue" points="987.748,-598.315 998.326,-598.906 990.425,-591.847 987.748,-598.315"/>
</g>
<!-- Node47&#45;&gt;Node40 -->
<g id="edge58" class="edge"><title>Node47&#45;&gt;Node40</title>
<path fill="none" stroke="midnightblue" d="M896.863,-530.669C914.097,-528.156 933.989,-525.257 952.75,-522.522"/>
<polygon fill="midnightblue" stroke="midnightblue" points="953.344,-525.972 962.734,-521.066 952.334,-519.046 953.344,-525.972"/>
</g>
</g>
</svg>
