<?xml version="1.0" encoding="UTF-8" standalone="no"?>
<!DOCTYPE svg PUBLIC "-//W3C//DTD SVG 1.1//EN"
 "http://www.w3.org/Graphics/SVG/1.1/DTD/svg11.dtd">
<!-- Generated by graphviz version 2.38.0 (20140413.2041)
 -->
<!-- Title: crc16_ccitt Pages: 1 -->
<svg width="799pt" height="262pt"
 viewBox="0.00 0.00 799.00 262.00" xmlns="http://www.w3.org/2000/svg" xmlns:xlink="http://www.w3.org/1999/xlink">
<g id="graph0" class="graph" transform="scale(1 1) rotate(0) translate(4 258)">
<title>crc16_ccitt</title>
<polygon fill="white" stroke="none" points="-4,4 -4,-258 795,-258 795,4 -4,4"/>
<!-- Node1 -->
<g id="node1" class="node"><title>Node1</title>
<polygon fill="#bfbfbf" stroke="black" points="0,-123.5 0,-142.5 65,-142.5 65,-123.5 0,-123.5"/>
<text text-anchor="middle" x="32.5" y="-130.5" font-family="Helvetica,sans-Serif" font-size="10.00">crc16_ccitt</text>
</g>
<!-- Node2 -->
<g id="node2" class="node"><title>Node2</title>
<g id="a_node2"><a xlink:href="$classAP__GPS__SBP.html#ae1ae391d424ba0cc24b0b8b70a263bcc" xlink:title="AP_GPS_SBP::_detect">
<polygon fill="white" stroke="black" points="118,-142.5 118,-161.5 238,-161.5 238,-142.5 118,-142.5"/>
<text text-anchor="middle" x="178" y="-149.5" font-family="Helvetica,sans-Serif" font-size="10.00">AP_GPS_SBP::_detect</text>
</a>
</g>
</g>
<!-- Node1&#45;&gt;Node2 -->
<g id="edge1" class="edge"><title>Node1&#45;&gt;Node2</title>
<path fill="none" stroke="midnightblue" d="M75.5568,-138.569C88.7789,-140.319 103.634,-142.286 117.814,-144.164"/>
<polygon fill="midnightblue" stroke="midnightblue" points="75.7202,-135.06 65.3473,-137.217 74.8013,-141.999 75.7202,-135.06"/>
</g>
<!-- Node8 -->
<g id="node8" class="node"><title>Node8</title>
<g id="a_node8"><a xlink:href="$classAP__GPS__SBP2.html#aa7c133a66a1d1b717fced68f92dcec14" xlink:title="AP_GPS_SBP2::_detect">
<polygon fill="white" stroke="black" points="115.5,-180.5 115.5,-199.5 240.5,-199.5 240.5,-180.5 115.5,-180.5"/>
<text text-anchor="middle" x="178" y="-187.5" font-family="Helvetica,sans-Serif" font-size="10.00">AP_GPS_SBP2::_detect</text>
</a>
</g>
</g>
<!-- Node1&#45;&gt;Node8 -->
<g id="edge7" class="edge"><title>Node1&#45;&gt;Node8</title>
<path fill="none" stroke="midnightblue" d="M56.4981,-147.986C69.2064,-155.736 85.5166,-164.836 101,-171 110.351,-174.722 120.646,-177.88 130.558,-180.489"/>
<polygon fill="midnightblue" stroke="midnightblue" points="58.2799,-144.972 47.9443,-142.642 54.5714,-150.909 58.2799,-144.972"/>
</g>
<!-- Node10 -->
<g id="node10" class="node"><title>Node10</title>
<g id="a_node10"><a xlink:href="$classAP__GPS__SBP.html#ad6291fa91e5c338da770ffdfefb6cd8a" xlink:title="AP_GPS_SBP::_sbp_process">
<polygon fill="white" stroke="black" points="103.5,-104.5 103.5,-123.5 252.5,-123.5 252.5,-104.5 103.5,-104.5"/>
<text text-anchor="middle" x="178" y="-111.5" font-family="Helvetica,sans-Serif" font-size="10.00">AP_GPS_SBP::_sbp_process</text>
</a>
</g>
</g>
<!-- Node1&#45;&gt;Node10 -->
<g id="edge10" class="edge"><title>Node1&#45;&gt;Node10</title>
<path fill="none" stroke="midnightblue" d="M75.4645,-127.444C84.7692,-126.212 94.8865,-124.872 105.01,-123.532"/>
<polygon fill="midnightblue" stroke="midnightblue" points="74.8013,-124.001 65.3473,-128.783 75.7202,-130.94 74.8013,-124.001"/>
</g>
<!-- Node12 -->
<g id="node12" class="node"><title>Node12</title>
<g id="a_node12"><a xlink:href="$classAP__GPS__SBP2.html#a401dc8505b1460b2cacbafea3d223a91" xlink:title="AP_GPS_SBP2::_sbp_process">
<polygon fill="white" stroke="black" points="101,-226.5 101,-245.5 255,-245.5 255,-226.5 101,-226.5"/>
<text text-anchor="middle" x="178" y="-233.5" font-family="Helvetica,sans-Serif" font-size="10.00">AP_GPS_SBP2::_sbp_process</text>
</a>
</g>
</g>
<!-- Node1&#45;&gt;Node12 -->
<g id="edge13" class="edge"><title>Node1&#45;&gt;Node12</title>
<path fill="none" stroke="midnightblue" d="M45.4869,-151.106C57.6407,-168.191 77.9093,-193.44 101,-209 112.264,-216.59 125.903,-222.305 138.5,-226.475"/>
<polygon fill="midnightblue" stroke="midnightblue" points="48.1596,-148.816 39.6033,-142.568 42.3957,-152.788 48.1596,-148.816"/>
</g>
<!-- Node14 -->
<g id="node14" class="node"><title>Node14</title>
<g id="a_node14"><a xlink:href="$classHALSITL_1_1SITL__State.html#afe25d2bc40c62f835000762f7b0897ee" xlink:title="HALSITL::SITL_State\l::_sbp_send_message">
<polygon fill="white" stroke="black" points="120.5,-55 120.5,-85 235.5,-85 235.5,-55 120.5,-55"/>
<text text-anchor="start" x="128.5" y="-73" font-family="Helvetica,sans-Serif" font-size="10.00">HALSITL::SITL_State</text>
<text text-anchor="middle" x="178" y="-62" font-family="Helvetica,sans-Serif" font-size="10.00">::_sbp_send_message</text>
</a>
</g>
</g>
<!-- Node1&#45;&gt;Node14 -->
<g id="edge16" class="edge"><title>Node1&#45;&gt;Node14</title>
<path fill="none" stroke="midnightblue" d="M57.1845,-118.164C69.8718,-110.605 85.9493,-101.636 101,-95 109.134,-91.4136 117.951,-88.0579 126.601,-85.0417"/>
<polygon fill="midnightblue" stroke="midnightblue" points="55.3443,-115.186 48.6085,-123.364 58.974,-121.172 55.3443,-115.186"/>
</g>
<!-- Node15 -->
<g id="node15" class="node"><title>Node15</title>
<g id="a_node15"><a xlink:href="$classAP__GPS__SBF.html#a4ff03181a0163ebda3dcc6b550e0d05a" xlink:title="AP_GPS_SBF::parse">
<polygon fill="white" stroke="black" points="122.5,-16.5 122.5,-35.5 233.5,-35.5 233.5,-16.5 122.5,-16.5"/>
<text text-anchor="middle" x="178" y="-23.5" font-family="Helvetica,sans-Serif" font-size="10.00">AP_GPS_SBF::parse</text>
</a>
</g>
</g>
<!-- Node1&#45;&gt;Node15 -->
<g id="edge17" class="edge"><title>Node1&#45;&gt;Node15</title>
<path fill="none" stroke="midnightblue" d="M42.7819,-114.469C53.8634,-94.2774 74.2998,-62.5209 101,-45 107.481,-40.7468 114.844,-37.4457 122.375,-34.8836"/>
<polygon fill="midnightblue" stroke="midnightblue" points="39.6732,-112.86 38.1069,-123.339 45.8658,-116.124 39.6732,-112.86"/>
</g>
<!-- Node3 -->
<g id="node3" class="node"><title>Node3</title>
<g id="a_node3"><a xlink:href="$classAP__GPS.html#a4bdd5c70ed358b4147a58c7d09f040dd" xlink:title="AP_GPS::detect_instance">
<polygon fill="white" stroke="black" points="291,-158.5 291,-177.5 422,-177.5 422,-158.5 291,-158.5"/>
<text text-anchor="middle" x="356.5" y="-165.5" font-family="Helvetica,sans-Serif" font-size="10.00">AP_GPS::detect_instance</text>
</a>
</g>
</g>
<!-- Node2&#45;&gt;Node3 -->
<g id="edge2" class="edge"><title>Node2&#45;&gt;Node3</title>
<path fill="none" stroke="midnightblue" d="M248.341,-158.286C262.374,-159.558 277.077,-160.891 290.937,-162.147"/>
<polygon fill="midnightblue" stroke="midnightblue" points="248.538,-154.789 238.263,-157.372 247.906,-161.761 248.538,-154.789"/>
</g>
<!-- Node7 -->
<g id="node7" class="node"><title>Node7</title>
<g id="a_node7"><a xlink:href="$classAP__GPS__SBP.html#ad2aa36fb56f231229ca47df94c7c926f" xlink:title="AP_GPS_SBP::highest\l_supported_status">
<polygon fill="white" stroke="black" points="465.5,-96 465.5,-126 584.5,-126 584.5,-96 465.5,-96"/>
<text text-anchor="start" x="473.5" y="-114" font-family="Helvetica,sans-Serif" font-size="10.00">AP_GPS_SBP::highest</text>
<text text-anchor="middle" x="525" y="-103" font-family="Helvetica,sans-Serif" font-size="10.00">_supported_status</text>
</a>
</g>
</g>
<!-- Node2&#45;&gt;Node7 -->
<g id="edge6" class="edge"><title>Node2&#45;&gt;Node7</title>
<path fill="none" stroke="midnightblue" d="M248.268,-143.768C311.976,-136.197 405.403,-125.094 465.466,-117.956"/>
<polygon fill="midnightblue" stroke="midnightblue" points="247.825,-140.296 238.308,-144.952 248.651,-147.247 247.825,-140.296"/>
</g>
<!-- Node4 -->
<g id="node4" class="node"><title>Node4</title>
<g id="a_node4"><a xlink:href="$classAP__GPS.html#a83302e8b52e5d01ae67375b3542eb460" xlink:title="AP_GPS::update_instance">
<polygon fill="white" stroke="black" points="458,-158.5 458,-177.5 592,-177.5 592,-158.5 458,-158.5"/>
<text text-anchor="middle" x="525" y="-165.5" font-family="Helvetica,sans-Serif" font-size="10.00">AP_GPS::update_instance</text>
</a>
</g>
</g>
<!-- Node3&#45;&gt;Node4 -->
<g id="edge3" class="edge"><title>Node3&#45;&gt;Node4</title>
<path fill="none" stroke="midnightblue" d="M432.589,-168C441.049,-168 449.623,-168 457.956,-168"/>
<polygon fill="midnightblue" stroke="midnightblue" points="432.35,-164.5 422.35,-168 432.35,-171.5 432.35,-164.5"/>
</g>
<!-- Node5 -->
<g id="node5" class="node"><title>Node5</title>
<g id="a_node5"><a xlink:href="$classAP__GPS.html#afe04427a47ab5e630cb979815abd911e" xlink:title="AP_GPS::update">
<polygon fill="white" stroke="black" points="628,-158.5 628,-177.5 720,-177.5 720,-158.5 628,-158.5"/>
<text text-anchor="middle" x="674" y="-165.5" font-family="Helvetica,sans-Serif" font-size="10.00">AP_GPS::update</text>
</a>
</g>
</g>
<!-- Node4&#45;&gt;Node5 -->
<g id="edge4" class="edge"><title>Node4&#45;&gt;Node5</title>
<path fill="none" stroke="midnightblue" d="M602.382,-168C611.069,-168 619.702,-168 627.794,-168"/>
<polygon fill="midnightblue" stroke="midnightblue" points="602.19,-164.5 592.189,-168 602.189,-171.5 602.19,-164.5"/>
</g>
<!-- Node6 -->
<g id="node6" class="node"><title>Node6</title>
<g id="a_node6"><a xlink:href="$GPS__AUTO__test_8cpp.html#afe461d27b9c48d5921c00d521181f12f" xlink:title="loop">
<polygon fill="white" stroke="black" points="756,-158.5 756,-177.5 791,-177.5 791,-158.5 756,-158.5"/>
<text text-anchor="middle" x="773.5" y="-165.5" font-family="Helvetica,sans-Serif" font-size="10.00">loop</text>
</a>
</g>
</g>
<!-- Node5&#45;&gt;Node6 -->
<g id="edge5" class="edge"><title>Node5&#45;&gt;Node6</title>
<path fill="none" stroke="midnightblue" d="M730.225,-168C739.555,-168 748.564,-168 755.85,-168"/>
<polygon fill="midnightblue" stroke="midnightblue" points="730.04,-164.5 720.04,-168 730.04,-171.5 730.04,-164.5"/>
</g>
<!-- Node8&#45;&gt;Node3 -->
<g id="edge8" class="edge"><title>Node8&#45;&gt;Node3</title>
<path fill="none" stroke="midnightblue" d="M250.747,-181.057C264.004,-179.405 277.775,-177.688 290.807,-176.064"/>
<polygon fill="midnightblue" stroke="midnightblue" points="250.221,-177.595 240.731,-182.305 251.087,-184.542 250.221,-177.595"/>
</g>
<!-- Node9 -->
<g id="node9" class="node"><title>Node9</title>
<g id="a_node9"><a xlink:href="$classAP__GPS__SBP2.html#a471fd2a813238296dcbb8a5e3d031514" xlink:title="AP_GPS_SBP2::highest\l_supported_status">
<polygon fill="white" stroke="black" points="462.5,-213 462.5,-243 587.5,-243 587.5,-213 462.5,-213"/>
<text text-anchor="start" x="470.5" y="-231" font-family="Helvetica,sans-Serif" font-size="10.00">AP_GPS_SBP2::highest</text>
<text text-anchor="middle" x="525" y="-220" font-family="Helvetica,sans-Serif" font-size="10.00">_supported_status</text>
</a>
</g>
</g>
<!-- Node8&#45;&gt;Node9 -->
<g id="edge9" class="edge"><title>Node8&#45;&gt;Node9</title>
<path fill="none" stroke="midnightblue" d="M250.855,-197.914C313.352,-204.798 402.957,-214.668 462.274,-221.201"/>
<polygon fill="midnightblue" stroke="midnightblue" points="251.002,-194.41 240.679,-196.794 250.236,-201.368 251.002,-194.41"/>
</g>
<!-- Node11 -->
<g id="node11" class="node"><title>Node11</title>
<g id="a_node11"><a xlink:href="$classAP__GPS__SBP.html#a3fa95c1c1f83ad45a11a61d604e61d8d" xlink:title="AP_GPS_SBP::read">
<polygon fill="white" stroke="black" points="303,-82.5 303,-101.5 410,-101.5 410,-82.5 303,-82.5"/>
<text text-anchor="middle" x="356.5" y="-89.5" font-family="Helvetica,sans-Serif" font-size="10.00">AP_GPS_SBP::read</text>
</a>
</g>
</g>
<!-- Node10&#45;&gt;Node11 -->
<g id="edge11" class="edge"><title>Node10&#45;&gt;Node11</title>
<path fill="none" stroke="midnightblue" d="M262.504,-103.592C276.205,-101.884 290.059,-100.157 302.739,-98.5764"/>
<polygon fill="midnightblue" stroke="midnightblue" points="262.064,-100.119 252.574,-104.829 262.93,-107.065 262.064,-100.119"/>
</g>
<!-- Node11&#45;&gt;Node7 -->
<g id="edge12" class="edge"><title>Node11&#45;&gt;Node7</title>
<path fill="none" stroke="midnightblue" d="M420.239,-99.1594C435.014,-100.845 450.709,-102.636 465.298,-104.301"/>
<polygon fill="midnightblue" stroke="midnightblue" points="420.514,-95.6682 410.182,-98.0117 419.72,-102.623 420.514,-95.6682"/>
</g>
<!-- Node13 -->
<g id="node13" class="node"><title>Node13</title>
<g id="a_node13"><a xlink:href="$classAP__GPS__SBP2.html#a251cdad10dff6c4e02d59f0507e5f3b6" xlink:title="AP_GPS_SBP2::read">
<polygon fill="white" stroke="black" points="300.5,-234.5 300.5,-253.5 412.5,-253.5 412.5,-234.5 300.5,-234.5"/>
<text text-anchor="middle" x="356.5" y="-241.5" font-family="Helvetica,sans-Serif" font-size="10.00">AP_GPS_SBP2::read</text>
</a>
</g>
</g>
<!-- Node12&#45;&gt;Node13 -->
<g id="edge14" class="edge"><title>Node12&#45;&gt;Node13</title>
<path fill="none" stroke="midnightblue" d="M265.164,-239.905C277.143,-240.448 289.173,-240.994 300.371,-241.501"/>
<polygon fill="midnightblue" stroke="midnightblue" points="265.281,-236.407 255.133,-239.451 264.964,-243.4 265.281,-236.407"/>
</g>
<!-- Node13&#45;&gt;Node9 -->
<g id="edge15" class="edge"><title>Node13&#45;&gt;Node9</title>
<path fill="none" stroke="midnightblue" d="M423.178,-237.689C436.131,-236.444 449.68,-235.142 462.489,-233.911"/>
<polygon fill="midnightblue" stroke="midnightblue" points="422.561,-234.232 412.942,-238.672 423.231,-241.2 422.561,-234.232"/>
</g>
<!-- Node16 -->
<g id="node16" class="node"><title>Node16</title>
<g id="a_node16"><a xlink:href="$classAP__GPS__SBF.html#a5d9c1999aa212fff0587dad4b306c97d" xlink:title="AP_GPS_SBF::read">
<polygon fill="white" stroke="black" points="303.5,-38.5 303.5,-57.5 409.5,-57.5 409.5,-38.5 303.5,-38.5"/>
<text text-anchor="middle" x="356.5" y="-45.5" font-family="Helvetica,sans-Serif" font-size="10.00">AP_GPS_SBF::read</text>
</a>
</g>
</g>
<!-- Node15&#45;&gt;Node16 -->
<g id="edge18" class="edge"><title>Node15&#45;&gt;Node16</title>
<path fill="none" stroke="midnightblue" d="M243.942,-34.0948C263.518,-36.5348 284.742,-39.1803 303.37,-41.5023"/>
<polygon fill="midnightblue" stroke="midnightblue" points="244.234,-30.6042 233.878,-32.8403 243.368,-37.5504 244.234,-30.6042"/>
</g>
<!-- Node18 -->
<g id="node18" class="node"><title>Node18</title>
<g id="a_node18"><a xlink:href="$classAP__GPS__SBF.html#ac390273f48b232915b30f6aeed7560f6" xlink:title="AP_GPS_SBF::get_lag">
<polygon fill="white" stroke="black" points="297,-0.5 297,-19.5 416,-19.5 416,-0.5 297,-0.5"/>
<text text-anchor="middle" x="356.5" y="-7.5" font-family="Helvetica,sans-Serif" font-size="10.00">AP_GPS_SBF::get_lag</text>
</a>
</g>
</g>
<!-- Node15&#45;&gt;Node18 -->
<g id="edge20" class="edge"><title>Node15&#45;&gt;Node18</title>
<path fill="none" stroke="midnightblue" d="M243.935,-20.1135C261.308,-18.5386 279.98,-16.846 296.985,-15.3045"/>
<polygon fill="midnightblue" stroke="midnightblue" points="243.521,-16.6366 233.878,-21.0252 244.153,-23.608 243.521,-16.6366"/>
</g>
<!-- Node17 -->
<g id="node17" class="node"><title>Node17</title>
<g id="a_node17"><a xlink:href="$classAP__GPS__SBF.html#a3aa88ec618ee6552f1823afae4a7c2c1" xlink:title="AP_GPS_SBF::highest\l_supported_status">
<polygon fill="white" stroke="black" points="465.5,-33 465.5,-63 584.5,-63 584.5,-33 465.5,-33"/>
<text text-anchor="start" x="473.5" y="-51" font-family="Helvetica,sans-Serif" font-size="10.00">AP_GPS_SBF::highest</text>
<text text-anchor="middle" x="525" y="-40" font-family="Helvetica,sans-Serif" font-size="10.00">_supported_status</text>
</a>
</g>
</g>
<!-- Node16&#45;&gt;Node17 -->
<g id="edge19" class="edge"><title>Node16&#45;&gt;Node17</title>
<path fill="none" stroke="midnightblue" d="M419.852,-48C434.738,-48 450.577,-48 465.292,-48"/>
<polygon fill="midnightblue" stroke="midnightblue" points="419.725,-44.5001 409.725,-48 419.725,-51.5001 419.725,-44.5001"/>
</g>
</g>
</svg>
