<?xml version="1.0" encoding="UTF-8" standalone="no"?>
<!DOCTYPE svg PUBLIC "-//W3C//DTD SVG 1.1//EN"
 "http://www.w3.org/Graphics/SVG/1.1/DTD/svg11.dtd">
<!-- Generated by graphviz version 2.38.0 (20140413.2041)
 -->
<!-- Title: test_frame_transforms Pages: 1 -->
<svg width="689pt" height="268pt"
 viewBox="0.00 0.00 689.00 267.50" xmlns="http://www.w3.org/2000/svg" xmlns:xlink="http://www.w3.org/1999/xlink">
<g id="graph0" class="graph" transform="scale(1 1) rotate(0) translate(4 263.5)">
<title>test_frame_transforms</title>
<polygon fill="white" stroke="none" points="-4,4 -4,-263.5 685,-263.5 685,4 -4,4"/>
<!-- Node1 -->
<g id="node1" class="node"><title>Node1</title>
<polygon fill="#bfbfbf" stroke="black" points="0,-82 0,-101 115,-101 115,-82 0,-82"/>
<text text-anchor="middle" x="57.5" y="-89" font-family="Helvetica,sans-Serif" font-size="10.00">test_frame_transforms</text>
</g>
<!-- Node2 -->
<g id="node2" class="node"><title>Node2</title>
<g id="a_node2"><a xlink:href="$classAP__HAL_1_1UARTDriver.html#a6ceedc792594e59fc7d80b39a435f027" xlink:title="AP_HAL::UARTDriver\l::printf">
<polygon fill="white" stroke="black" points="159,-158.5 159,-188.5 274,-188.5 274,-158.5 159,-158.5"/>
<text text-anchor="start" x="167" y="-176.5" font-family="Helvetica,sans-Serif" font-size="10.00">AP_HAL::UARTDriver</text>
<text text-anchor="middle" x="216.5" y="-165.5" font-family="Helvetica,sans-Serif" font-size="10.00">::printf</text>
</a>
</g>
</g>
<!-- Node1&#45;&gt;Node2 -->
<g id="edge1" class="edge"><title>Node1&#45;&gt;Node2</title>
<path fill="none" stroke="midnightblue" d="M72.1485,-101.012C89.8055,-113.056 121.774,-133.983 151,-148.5 155.215,-150.594 159.651,-152.632 164.141,-154.583"/>
<polygon fill="midnightblue" stroke="midnightblue" points="162.806,-157.819 173.382,-158.455 165.512,-151.362 162.806,-157.819"/>
</g>
<!-- Node10 -->
<g id="node10" class="node"><title>Node10</title>
<g id="a_node10"><a xlink:href="$classQuaternion.html#aff2d2d3d1c5937523df8357deae4eeab" xlink:title="Quaternion::from_euler">
<polygon fill="white" stroke="black" points="158.5,-120 158.5,-139 274.5,-139 274.5,-120 158.5,-120"/>
<text text-anchor="middle" x="216.5" y="-127" font-family="Helvetica,sans-Serif" font-size="10.00">Quaternion::from_euler</text>
</a>
</g>
</g>
<!-- Node1&#45;&gt;Node10 -->
<g id="edge9" class="edge"><title>Node1&#45;&gt;Node10</title>
<path fill="none" stroke="midnightblue" d="M98.1177,-101.089C118.836,-106.104 144.388,-112.288 166.356,-117.605"/>
<polygon fill="midnightblue" stroke="midnightblue" points="165.624,-121.029 176.167,-119.98 167.271,-114.226 165.624,-121.029"/>
</g>
<!-- Node11 -->
<g id="node11" class="node"><title>Node11</title>
<g id="a_node11"><a xlink:href="$classQuaternion.html#a48e6bafb249c895ed25f29dc9170e11e" xlink:title="Quaternion::normalize">
<polygon fill="white" stroke="black" points="160.5,-82 160.5,-101 272.5,-101 272.5,-82 160.5,-82"/>
<text text-anchor="middle" x="216.5" y="-89" font-family="Helvetica,sans-Serif" font-size="10.00">Quaternion::normalize</text>
</a>
</g>
</g>
<!-- Node1&#45;&gt;Node11 -->
<g id="edge10" class="edge"><title>Node1&#45;&gt;Node11</title>
<path fill="none" stroke="midnightblue" d="M115.181,-91.5C126.593,-91.5 138.675,-91.5 150.35,-91.5"/>
<polygon fill="midnightblue" stroke="midnightblue" points="150.479,-95.0001 160.479,-91.5 150.479,-88.0001 150.479,-95.0001"/>
</g>
<!-- Node15 -->
<g id="node15" class="node"><title>Node15</title>
<g id="a_node15"><a xlink:href="$classMatrix3.html#a62587bd216436f09f06b9e1330f84bc0" xlink:title="Matrix3::from_euler">
<polygon fill="white" stroke="black" points="166,-44 166,-63 267,-63 267,-44 166,-44"/>
<text text-anchor="middle" x="216.5" y="-51" font-family="Helvetica,sans-Serif" font-size="10.00">Matrix3::from_euler</text>
</a>
</g>
</g>
<!-- Node1&#45;&gt;Node15 -->
<g id="edge14" class="edge"><title>Node1&#45;&gt;Node15</title>
<path fill="none" stroke="midnightblue" d="M98.1177,-81.911C118.836,-76.8965 144.388,-70.7119 166.356,-65.3947"/>
<polygon fill="midnightblue" stroke="midnightblue" points="167.271,-68.7744 176.167,-63.0201 165.624,-61.9708 167.271,-68.7744"/>
</g>
<!-- Node16 -->
<g id="node16" class="node"><title>Node16</title>
<g id="a_node16"><a xlink:href="$classQuaternion.html#a20c1310cb43b19ab1fdcbde038d1e508" xlink:title="Quaternion::earth_to_body">
<polygon fill="white" stroke="black" points="151,-6 151,-25 282,-25 282,-6 151,-6"/>
<text text-anchor="middle" x="216.5" y="-13" font-family="Helvetica,sans-Serif" font-size="10.00">Quaternion::earth_to_body</text>
</a>
</g>
</g>
<!-- Node1&#45;&gt;Node16 -->
<g id="edge15" class="edge"><title>Node1&#45;&gt;Node16</title>
<path fill="none" stroke="midnightblue" d="M71.6645,-81.8155C89.0627,-69.3942 121.022,-47.8644 151,-34.5 156.131,-32.2125 161.612,-30.1136 167.131,-28.2132"/>
<polygon fill="midnightblue" stroke="midnightblue" points="168.6,-31.4168 177.037,-25.009 166.445,-24.7565 168.6,-31.4168"/>
</g>
<!-- Node3 -->
<g id="node3" class="node"><title>Node3</title>
<g id="a_node3"><a xlink:href="$classAP__HAL_1_1UARTDriver.html#aa8abfb6d6641299472c29ac1edde559f" xlink:title="AP_HAL::UARTDriver\l::vprintf">
<polygon fill="white" stroke="black" points="318,-158.5 318,-188.5 433,-188.5 433,-158.5 318,-158.5"/>
<text text-anchor="start" x="326" y="-176.5" font-family="Helvetica,sans-Serif" font-size="10.00">AP_HAL::UARTDriver</text>
<text text-anchor="middle" x="375.5" y="-165.5" font-family="Helvetica,sans-Serif" font-size="10.00">::vprintf</text>
</a>
</g>
</g>
<!-- Node2&#45;&gt;Node3 -->
<g id="edge2" class="edge"><title>Node2&#45;&gt;Node3</title>
<path fill="none" stroke="midnightblue" d="M274.181,-173.5C285.075,-173.5 296.578,-173.5 307.756,-173.5"/>
<polygon fill="midnightblue" stroke="midnightblue" points="307.903,-177 317.903,-173.5 307.903,-170 307.903,-177"/>
</g>
<!-- Node4 -->
<g id="node4" class="node"><title>Node4</title>
<g id="a_node4"><a xlink:href="$print__vprintf_8cpp.html#a1534eaeab54696df96975b56d9f49212" xlink:title="print_vprintf">
<polygon fill="white" stroke="black" points="469,-164 469,-183 537,-183 537,-164 469,-164"/>
<text text-anchor="middle" x="503" y="-171" font-family="Helvetica,sans-Serif" font-size="10.00">print_vprintf</text>
</a>
</g>
</g>
<!-- Node3&#45;&gt;Node4 -->
<g id="edge3" class="edge"><title>Node3&#45;&gt;Node4</title>
<path fill="none" stroke="midnightblue" d="M433.009,-173.5C441.609,-173.5 450.367,-173.5 458.628,-173.5"/>
<polygon fill="midnightblue" stroke="midnightblue" points="458.777,-177 468.777,-173.5 458.777,-170 458.777,-177"/>
</g>
<!-- Node5 -->
<g id="node5" class="node"><title>Node5</title>
<g id="a_node5"><a xlink:href="$classAP__HAL_1_1Print.html#acc65391952a43334f8f5c9bef341f501" xlink:title="AP_HAL::Print::write">
<polygon fill="white" stroke="black" points="573,-240 573,-259 681,-259 681,-240 573,-240"/>
<text text-anchor="middle" x="627" y="-247" font-family="Helvetica,sans-Serif" font-size="10.00">AP_HAL::Print::write</text>
</a>
</g>
</g>
<!-- Node4&#45;&gt;Node5 -->
<g id="edge4" class="edge"><title>Node4&#45;&gt;Node5</title>
<path fill="none" stroke="midnightblue" d="M513.47,-183.183C526.07,-195.602 549.502,-217.129 573,-230.5 576.632,-232.567 580.529,-234.473 584.501,-236.215"/>
<polygon fill="midnightblue" stroke="midnightblue" points="583.233,-239.477 593.816,-239.979 585.856,-232.987 583.233,-239.477"/>
</g>
<!-- Node6 -->
<g id="node6" class="node"><title>Node6</title>
<g id="a_node6"><a xlink:href="$ftoa__engine_8cpp.html#a1c28234da8f20b43c85890d4bb452947" xlink:title="ftoa_engine">
<polygon fill="white" stroke="black" points="593.5,-202 593.5,-221 660.5,-221 660.5,-202 593.5,-202"/>
<text text-anchor="middle" x="627" y="-209" font-family="Helvetica,sans-Serif" font-size="10.00">ftoa_engine</text>
</a>
</g>
</g>
<!-- Node4&#45;&gt;Node6 -->
<g id="edge5" class="edge"><title>Node4&#45;&gt;Node6</title>
<path fill="none" stroke="midnightblue" d="M534.786,-183.089C550.101,-187.859 568.817,-193.689 585.3,-198.823"/>
<polygon fill="midnightblue" stroke="midnightblue" points="584.636,-202.282 595.224,-201.914 586.717,-195.599 584.636,-202.282"/>
</g>
<!-- Node7 -->
<g id="node7" class="node"><title>Node7</title>
<g id="a_node7"><a xlink:href="$replace_8cpp.html#a880bcc7b85a09e6254691bebd5344b51" xlink:title="strnlen">
<polygon fill="white" stroke="black" points="604,-164 604,-183 650,-183 650,-164 604,-164"/>
<text text-anchor="middle" x="627" y="-171" font-family="Helvetica,sans-Serif" font-size="10.00">strnlen</text>
</a>
</g>
</g>
<!-- Node4&#45;&gt;Node7 -->
<g id="edge6" class="edge"><title>Node4&#45;&gt;Node7</title>
<path fill="none" stroke="midnightblue" d="M537.015,-173.5C554.547,-173.5 576.016,-173.5 593.474,-173.5"/>
<polygon fill="midnightblue" stroke="midnightblue" points="593.754,-177 603.754,-173.5 593.754,-170 593.754,-177"/>
</g>
<!-- Node8 -->
<g id="node8" class="node"><title>Node8</title>
<g id="a_node8"><a xlink:href="$utoa__invert_8cpp.html#a34926f552460b47c414ec4d83b32815c" xlink:title="ulltoa_invert">
<polygon fill="white" stroke="black" points="592.5,-126 592.5,-145 661.5,-145 661.5,-126 592.5,-126"/>
<text text-anchor="middle" x="627" y="-133" font-family="Helvetica,sans-Serif" font-size="10.00">ulltoa_invert</text>
</a>
</g>
</g>
<!-- Node4&#45;&gt;Node8 -->
<g id="edge7" class="edge"><title>Node4&#45;&gt;Node8</title>
<path fill="none" stroke="midnightblue" d="M534.786,-163.911C550.101,-159.141 568.817,-153.311 585.3,-148.177"/>
<polygon fill="midnightblue" stroke="midnightblue" points="586.717,-151.401 595.224,-145.086 584.636,-144.718 586.717,-151.401"/>
</g>
<!-- Node9 -->
<g id="node9" class="node"><title>Node9</title>
<g id="a_node9"><a xlink:href="$utoa__invert_8cpp.html#a5d99bba8e697c1e11da489d88fca8559" xlink:title="ultoa_invert">
<polygon fill="white" stroke="black" points="593.5,-88 593.5,-107 660.5,-107 660.5,-88 593.5,-88"/>
<text text-anchor="middle" x="627" y="-95" font-family="Helvetica,sans-Serif" font-size="10.00">ultoa_invert</text>
</a>
</g>
</g>
<!-- Node4&#45;&gt;Node9 -->
<g id="edge8" class="edge"><title>Node4&#45;&gt;Node9</title>
<path fill="none" stroke="midnightblue" d="M513.47,-163.817C526.07,-151.398 549.502,-129.871 573,-116.5 576.632,-114.433 580.529,-112.527 584.501,-110.785"/>
<polygon fill="midnightblue" stroke="midnightblue" points="585.856,-114.013 593.816,-107.021 583.233,-107.523 585.856,-114.013"/>
</g>
<!-- Node12 -->
<g id="node12" class="node"><title>Node12</title>
<g id="a_node12"><a xlink:href="$classQuaternion.html#a6f5e82dd828c59392a3133d6d5877f39" xlink:title="Quaternion::length">
<polygon fill="white" stroke="black" points="327.5,-104 327.5,-123 423.5,-123 423.5,-104 327.5,-104"/>
<text text-anchor="middle" x="375.5" y="-111" font-family="Helvetica,sans-Serif" font-size="10.00">Quaternion::length</text>
</a>
</g>
</g>
<!-- Node11&#45;&gt;Node12 -->
<g id="edge11" class="edge"><title>Node11&#45;&gt;Node12</title>
<path fill="none" stroke="midnightblue" d="M272.852,-99.2564C287.203,-101.267 302.686,-103.437 317.137,-105.462"/>
<polygon fill="midnightblue" stroke="midnightblue" points="317.057,-108.985 327.446,-106.906 318.029,-102.053 317.057,-108.985"/>
</g>
<!-- Node14 -->
<g id="node14" class="node"><title>Node14</title>
<g id="a_node14"><a xlink:href="$AP__Math_8h.html#a2a12cce483e9b870da70d30406d82c60" xlink:title="is_zero">
<polygon fill="white" stroke="black" points="351.5,-66 351.5,-85 399.5,-85 399.5,-66 351.5,-66"/>
<text text-anchor="middle" x="375.5" y="-73" font-family="Helvetica,sans-Serif" font-size="10.00">is_zero</text>
</a>
</g>
</g>
<!-- Node11&#45;&gt;Node14 -->
<g id="edge13" class="edge"><title>Node11&#45;&gt;Node14</title>
<path fill="none" stroke="midnightblue" d="M272.852,-85.859C295.752,-83.5253 321.537,-80.8975 341.407,-78.8725"/>
<polygon fill="midnightblue" stroke="midnightblue" points="341.903,-82.3403 351.496,-77.8443 341.193,-75.3763 341.903,-82.3403"/>
</g>
<!-- Node13 -->
<g id="node13" class="node"><title>Node13</title>
<g id="a_node13"><a xlink:href="$AP__Math_8h.html#a0375e3d67fd3911cacee5c3e1408c0f2" xlink:title="sq">
<polygon fill="white" stroke="black" points="488.5,-104 488.5,-123 517.5,-123 517.5,-104 488.5,-104"/>
<text text-anchor="middle" x="503" y="-111" font-family="Helvetica,sans-Serif" font-size="10.00">sq</text>
</a>
</g>
</g>
<!-- Node12&#45;&gt;Node13 -->
<g id="edge12" class="edge"><title>Node12&#45;&gt;Node13</title>
<path fill="none" stroke="midnightblue" d="M423.589,-113.5C442.17,-113.5 462.709,-113.5 478.103,-113.5"/>
<polygon fill="midnightblue" stroke="midnightblue" points="478.302,-117 488.302,-113.5 478.302,-110 478.302,-117"/>
</g>
<!-- Node17 -->
<g id="node17" class="node"><title>Node17</title>
<g id="a_node17"><a xlink:href="$classQuaternion.html#afb7132c9c69a984a40be950a17effeaa" xlink:title="Quaternion::rotation\l_matrix">
<polygon fill="white" stroke="black" points="324.5,-0.5 324.5,-30.5 426.5,-30.5 426.5,-0.5 324.5,-0.5"/>
<text text-anchor="start" x="332.5" y="-18.5" font-family="Helvetica,sans-Serif" font-size="10.00">Quaternion::rotation</text>
<text text-anchor="middle" x="375.5" y="-7.5" font-family="Helvetica,sans-Serif" font-size="10.00">_matrix</text>
</a>
</g>
</g>
<!-- Node16&#45;&gt;Node17 -->
<g id="edge16" class="edge"><title>Node16&#45;&gt;Node17</title>
<path fill="none" stroke="midnightblue" d="M282.264,-15.5C292.781,-15.5 303.636,-15.5 314.044,-15.5"/>
<polygon fill="midnightblue" stroke="midnightblue" points="314.274,-19.0001 324.274,-15.5 314.274,-12.0001 314.274,-19.0001"/>
</g>
</g>
</svg>
