<?xml version="1.0" encoding="UTF-8" standalone="no"?>
<!DOCTYPE svg PUBLIC "-//W3C//DTD SVG 1.1//EN"
 "http://www.w3.org/Graphics/SVG/1.1/DTD/svg11.dtd">
<!-- Generated by graphviz version 2.38.0 (20140413.2041)
 -->
<!-- Title: setup Pages: 1 -->
<svg width="1135pt" height="811pt"
 viewBox="0.00 0.00 1135.00 811.00" xmlns="http://www.w3.org/2000/svg" xmlns:xlink="http://www.w3.org/1999/xlink">
<g id="graph0" class="graph" transform="scale(1 1) rotate(0) translate(4 807)">
<title>setup</title>
<polygon fill="white" stroke="none" points="-4,4 -4,-807 1131,-807 1131,4 -4,4"/>
<!-- Node1 -->
<g id="node1" class="node"><title>Node1</title>
<polygon fill="#bfbfbf" stroke="black" points="0,-418.5 0,-437.5 41,-437.5 41,-418.5 0,-418.5"/>
<text text-anchor="middle" x="20.5" y="-425.5" font-family="Helvetica,sans-Serif" font-size="10.00">setup</text>
</g>
<!-- Node2 -->
<g id="node2" class="node"><title>Node2</title>
<g id="a_node2"><a xlink:href="$classAP__HAL_1_1UARTDriver.html#a6ceedc792594e59fc7d80b39a435f027" xlink:title="AP_HAL::UARTDriver\l::printf">
<polygon fill="white" stroke="black" points="567,-356 567,-386 682,-386 682,-356 567,-356"/>
<text text-anchor="start" x="575" y="-374" font-family="Helvetica,sans-Serif" font-size="10.00">AP_HAL::UARTDriver</text>
<text text-anchor="middle" x="624.5" y="-363" font-family="Helvetica,sans-Serif" font-size="10.00">::printf</text>
</a>
</g>
</g>
<!-- Node1&#45;&gt;Node2 -->
<g id="edge1" class="edge"><title>Node1&#45;&gt;Node2</title>
<path fill="none" stroke="midnightblue" d="M30.1197,-418.282C40.6935,-406.57 59.3893,-386.53 77,-371 140.069,-315.382 151.749,-292.452 228,-257 297.024,-224.908 319.356,-227.498 395,-219 451.092,-212.699 472.224,-192.385 522,-219 572.428,-245.963 602.156,-310.288 615.339,-346.011"/>
<polygon fill="midnightblue" stroke="midnightblue" points="612.128,-347.43 618.763,-355.691 618.727,-345.096 612.128,-347.43"/>
</g>
<!-- Node10 -->
<g id="node10" class="node"><title>Node10</title>
<g id="a_node10"><a xlink:href="$eulers_8cpp.html#ada3aa00f3fc83688f3bb0c2c847b7e50" xlink:title="test_conversion">
<polygon fill="white" stroke="black" points="250.5,-608.5 250.5,-627.5 336.5,-627.5 336.5,-608.5 250.5,-608.5"/>
<text text-anchor="middle" x="293.5" y="-615.5" font-family="Helvetica,sans-Serif" font-size="10.00">test_conversion</text>
</a>
</g>
</g>
<!-- Node1&#45;&gt;Node10 -->
<g id="edge9" class="edge"><title>Node1&#45;&gt;Node10</title>
<path fill="none" stroke="midnightblue" d="M30.2677,-437.898C56.8792,-467.302 140.283,-554.821 228,-599 232.511,-601.272 237.339,-603.319 242.249,-605.151"/>
<polygon fill="midnightblue" stroke="midnightblue" points="241.135,-608.469 251.729,-608.415 243.413,-601.85 241.135,-608.469"/>
</g>
<!-- Node27 -->
<g id="node27" class="node"><title>Node27</title>
<g id="a_node27"><a xlink:href="$eulers_8cpp.html#a97831e3cea863b581f8e989164514a25" xlink:title="test_frame_transforms">
<polygon fill="white" stroke="black" points="77,-380.5 77,-399.5 192,-399.5 192,-380.5 77,-380.5"/>
<text text-anchor="middle" x="134.5" y="-387.5" font-family="Helvetica,sans-Serif" font-size="10.00">test_frame_transforms</text>
</a>
</g>
</g>
<!-- Node1&#45;&gt;Node27 -->
<g id="edge29" class="edge"><title>Node1&#45;&gt;Node27</title>
<path fill="none" stroke="midnightblue" d="M41.0118,-421.291C51.6459,-417.642 65.041,-413.058 77,-409 82.9811,-406.971 89.3216,-404.829 95.5102,-402.744"/>
<polygon fill="midnightblue" stroke="midnightblue" points="96.6751,-406.045 105.037,-399.538 94.4426,-399.41 96.6751,-406.045"/>
</g>
<!-- Node33 -->
<g id="node33" class="node"><title>Node33</title>
<g id="a_node33"><a xlink:href="$eulers_8cpp.html#ac5851b63c32809e725e1fadbec137224" xlink:title="test_conversions">
<polygon fill="white" stroke="black" points="89,-608.5 89,-627.5 180,-627.5 180,-608.5 89,-608.5"/>
<text text-anchor="middle" x="134.5" y="-615.5" font-family="Helvetica,sans-Serif" font-size="10.00">test_conversions</text>
</a>
</g>
</g>
<!-- Node1&#45;&gt;Node33 -->
<g id="edge39" class="edge"><title>Node1&#45;&gt;Node33</title>
<path fill="none" stroke="midnightblue" d="M24.4235,-437.525C31.4256,-459.526 50.5615,-515.12 77,-556 87.8989,-572.852 103.437,-589.528 115.461,-601.333"/>
<polygon fill="midnightblue" stroke="midnightblue" points="113.13,-603.947 122.771,-608.341 117.974,-598.894 113.13,-603.947"/>
</g>
<!-- Node34 -->
<g id="node34" class="node"><title>Node34</title>
<g id="a_node34"><a xlink:href="$eulers_8cpp.html#a1e4ca41feae51e8f6dc923cde8d1ad39" xlink:title="test_quaternion_eulers">
<polygon fill="white" stroke="black" points="77,-418.5 77,-437.5 192,-437.5 192,-418.5 77,-418.5"/>
<text text-anchor="middle" x="134.5" y="-425.5" font-family="Helvetica,sans-Serif" font-size="10.00">test_quaternion_eulers</text>
</a>
</g>
</g>
<!-- Node1&#45;&gt;Node34 -->
<g id="edge42" class="edge"><title>Node1&#45;&gt;Node34</title>
<path fill="none" stroke="midnightblue" d="M41.0089,-428C48.373,-428 57.2283,-428 66.5025,-428"/>
<polygon fill="midnightblue" stroke="midnightblue" points="66.6797,-431.5 76.6797,-428 66.6797,-424.5 66.6797,-431.5"/>
</g>
<!-- Node37 -->
<g id="node37" class="node"><title>Node37</title>
<g id="a_node37"><a xlink:href="$eulers_8cpp.html#aceb2646dd2a8910fd27813e20e13c6a4" xlink:title="test_matrix_eulers">
<polygon fill="white" stroke="black" points="86,-456.5 86,-475.5 183,-475.5 183,-456.5 86,-456.5"/>
<text text-anchor="middle" x="134.5" y="-463.5" font-family="Helvetica,sans-Serif" font-size="10.00">test_matrix_eulers</text>
</a>
</g>
</g>
<!-- Node1&#45;&gt;Node37 -->
<g id="edge52" class="edge"><title>Node1&#45;&gt;Node37</title>
<path fill="none" stroke="midnightblue" d="M41.0118,-434.709C51.6459,-438.358 65.041,-442.942 77,-447 82.9811,-449.029 89.3216,-451.171 95.5102,-453.256"/>
<polygon fill="midnightblue" stroke="midnightblue" points="94.4426,-456.59 105.037,-456.462 96.6751,-449.955 94.4426,-456.59"/>
</g>
<!-- Node39 -->
<g id="node39" class="node"><title>Node39</title>
<g id="a_node39"><a xlink:href="$eulers_8cpp.html#a399d6b75c71672b952b356e8ad32ff9f" xlink:title="test_matrix_rotate">
<polygon fill="white" stroke="black" points="87,-95.5 87,-114.5 182,-114.5 182,-95.5 87,-95.5"/>
<text text-anchor="middle" x="134.5" y="-102.5" font-family="Helvetica,sans-Serif" font-size="10.00">test_matrix_rotate</text>
</a>
</g>
</g>
<!-- Node1&#45;&gt;Node39 -->
<g id="edge58" class="edge"><title>Node1&#45;&gt;Node39</title>
<path fill="none" stroke="midnightblue" d="M22.378,-418.356C25.6977,-384.883 39.2687,-271.118 77,-186 87.5527,-162.194 105.47,-138.126 118.3,-122.485"/>
<polygon fill="midnightblue" stroke="midnightblue" points="121.072,-124.626 124.825,-114.718 115.712,-120.123 121.072,-124.626"/>
</g>
<!-- Node3 -->
<g id="node3" class="node"><title>Node3</title>
<g id="a_node3"><a xlink:href="$classAP__HAL_1_1UARTDriver.html#aa8abfb6d6641299472c29ac1edde559f" xlink:title="AP_HAL::UARTDriver\l::vprintf">
<polygon fill="white" stroke="black" points="727,-356 727,-386 842,-386 842,-356 727,-356"/>
<text text-anchor="start" x="735" y="-374" font-family="Helvetica,sans-Serif" font-size="10.00">AP_HAL::UARTDriver</text>
<text text-anchor="middle" x="784.5" y="-363" font-family="Helvetica,sans-Serif" font-size="10.00">::vprintf</text>
</a>
</g>
</g>
<!-- Node2&#45;&gt;Node3 -->
<g id="edge2" class="edge"><title>Node2&#45;&gt;Node3</title>
<path fill="none" stroke="midnightblue" d="M682.095,-371C693.327,-371 705.217,-371 716.751,-371"/>
<polygon fill="midnightblue" stroke="midnightblue" points="716.769,-374.5 726.769,-371 716.769,-367.5 716.769,-374.5"/>
</g>
<!-- Node4 -->
<g id="node4" class="node"><title>Node4</title>
<g id="a_node4"><a xlink:href="$print__vprintf_8cpp.html#a1534eaeab54696df96975b56d9f49212" xlink:title="print_vprintf">
<polygon fill="white" stroke="black" points="896.5,-361.5 896.5,-380.5 964.5,-380.5 964.5,-361.5 896.5,-361.5"/>
<text text-anchor="middle" x="930.5" y="-368.5" font-family="Helvetica,sans-Serif" font-size="10.00">print_vprintf</text>
</a>
</g>
</g>
<!-- Node3&#45;&gt;Node4 -->
<g id="edge3" class="edge"><title>Node3&#45;&gt;Node4</title>
<path fill="none" stroke="midnightblue" d="M842.413,-371C856.946,-371 872.339,-371 886.075,-371"/>
<polygon fill="midnightblue" stroke="midnightblue" points="886.215,-374.5 896.215,-371 886.215,-367.5 886.215,-374.5"/>
</g>
<!-- Node5 -->
<g id="node5" class="node"><title>Node5</title>
<g id="a_node5"><a xlink:href="$classAP__HAL_1_1Print.html#acc65391952a43334f8f5c9bef341f501" xlink:title="AP_HAL::Print::write">
<polygon fill="white" stroke="black" points="1019,-437.5 1019,-456.5 1127,-456.5 1127,-437.5 1019,-437.5"/>
<text text-anchor="middle" x="1073" y="-444.5" font-family="Helvetica,sans-Serif" font-size="10.00">AP_HAL::Print::write</text>
</a>
</g>
</g>
<!-- Node4&#45;&gt;Node5 -->
<g id="edge4" class="edge"><title>Node4&#45;&gt;Node5</title>
<path fill="none" stroke="midnightblue" d="M944.27,-380.692C960.824,-392.926 990.907,-414.053 1019,-428 1023.1,-430.035 1027.47,-431.962 1031.88,-433.751"/>
<polygon fill="midnightblue" stroke="midnightblue" points="1030.91,-437.127 1041.5,-437.438 1033.42,-430.591 1030.91,-437.127"/>
</g>
<!-- Node6 -->
<g id="node6" class="node"><title>Node6</title>
<g id="a_node6"><a xlink:href="$ftoa__engine_8cpp.html#a1c28234da8f20b43c85890d4bb452947" xlink:title="ftoa_engine">
<polygon fill="white" stroke="black" points="1039.5,-399.5 1039.5,-418.5 1106.5,-418.5 1106.5,-399.5 1039.5,-399.5"/>
<text text-anchor="middle" x="1073" y="-406.5" font-family="Helvetica,sans-Serif" font-size="10.00">ftoa_engine</text>
</a>
</g>
</g>
<!-- Node4&#45;&gt;Node6 -->
<g id="edge5" class="edge"><title>Node4&#45;&gt;Node6</title>
<path fill="none" stroke="midnightblue" d="M964.797,-380.005C984.183,-385.249 1008.82,-391.912 1029.58,-397.528"/>
<polygon fill="midnightblue" stroke="midnightblue" points="1028.86,-400.958 1039.43,-400.19 1030.69,-394.201 1028.86,-400.958"/>
</g>
<!-- Node7 -->
<g id="node7" class="node"><title>Node7</title>
<g id="a_node7"><a xlink:href="$replace_8cpp.html#a880bcc7b85a09e6254691bebd5344b51" xlink:title="strnlen">
<polygon fill="white" stroke="black" points="1050,-361.5 1050,-380.5 1096,-380.5 1096,-361.5 1050,-361.5"/>
<text text-anchor="middle" x="1073" y="-368.5" font-family="Helvetica,sans-Serif" font-size="10.00">strnlen</text>
</a>
</g>
</g>
<!-- Node4&#45;&gt;Node7 -->
<g id="edge6" class="edge"><title>Node4&#45;&gt;Node7</title>
<path fill="none" stroke="midnightblue" d="M964.797,-371C987.494,-371 1017.39,-371 1039.84,-371"/>
<polygon fill="midnightblue" stroke="midnightblue" points="1039.89,-374.5 1049.89,-371 1039.89,-367.5 1039.89,-374.5"/>
</g>
<!-- Node8 -->
<g id="node8" class="node"><title>Node8</title>
<g id="a_node8"><a xlink:href="$utoa__invert_8cpp.html#a34926f552460b47c414ec4d83b32815c" xlink:title="ulltoa_invert">
<polygon fill="white" stroke="black" points="1038.5,-323.5 1038.5,-342.5 1107.5,-342.5 1107.5,-323.5 1038.5,-323.5"/>
<text text-anchor="middle" x="1073" y="-330.5" font-family="Helvetica,sans-Serif" font-size="10.00">ulltoa_invert</text>
</a>
</g>
</g>
<!-- Node4&#45;&gt;Node8 -->
<g id="edge7" class="edge"><title>Node4&#45;&gt;Node8</title>
<path fill="none" stroke="midnightblue" d="M964.797,-361.995C983.904,-356.827 1008.11,-350.28 1028.69,-344.715"/>
<polygon fill="midnightblue" stroke="midnightblue" points="1029.72,-348.062 1038.46,-342.073 1027.89,-341.305 1029.72,-348.062"/>
</g>
<!-- Node9 -->
<g id="node9" class="node"><title>Node9</title>
<g id="a_node9"><a xlink:href="$utoa__invert_8cpp.html#a5d99bba8e697c1e11da489d88fca8559" xlink:title="ultoa_invert">
<polygon fill="white" stroke="black" points="1039.5,-285.5 1039.5,-304.5 1106.5,-304.5 1106.5,-285.5 1039.5,-285.5"/>
<text text-anchor="middle" x="1073" y="-292.5" font-family="Helvetica,sans-Serif" font-size="10.00">ultoa_invert</text>
</a>
</g>
</g>
<!-- Node4&#45;&gt;Node9 -->
<g id="edge8" class="edge"><title>Node4&#45;&gt;Node9</title>
<path fill="none" stroke="midnightblue" d="M944.27,-361.308C960.824,-349.074 990.907,-327.947 1019,-314 1023.1,-311.965 1027.47,-310.038 1031.88,-308.249"/>
<polygon fill="midnightblue" stroke="midnightblue" points="1033.42,-311.409 1041.5,-304.562 1030.91,-304.873 1033.42,-311.409"/>
</g>
<!-- Node10&#45;&gt;Node2 -->
<g id="edge28" class="edge"><title>Node10&#45;&gt;Node2</title>
<path fill="none" stroke="midnightblue" d="M309.42,-627.655C348.319,-651.491 454.495,-707.839 522,-660 544.548,-644.021 597.405,-463.43 616.479,-396.102"/>
<polygon fill="midnightblue" stroke="midnightblue" points="619.895,-396.886 619.241,-386.311 613.158,-394.985 619.895,-396.886"/>
</g>
<!-- Node11 -->
<g id="node11" class="node"><title>Node11</title>
<g id="a_node11"><a xlink:href="$classQuaternion.html#aff2d2d3d1c5937523df8357deae4eeab" xlink:title="Quaternion::from_euler">
<polygon fill="white" stroke="black" points="400.5,-517.5 400.5,-536.5 516.5,-536.5 516.5,-517.5 400.5,-517.5"/>
<text text-anchor="middle" x="458.5" y="-524.5" font-family="Helvetica,sans-Serif" font-size="10.00">Quaternion::from_euler</text>
</a>
</g>
</g>
<!-- Node10&#45;&gt;Node11 -->
<g id="edge10" class="edge"><title>Node10&#45;&gt;Node11</title>
<path fill="none" stroke="midnightblue" d="M336.715,-610.112C344.585,-607.419 352.399,-603.816 359,-599 382.004,-582.217 372.069,-562.883 395,-546 397.649,-544.05 400.499,-542.298 403.472,-540.724"/>
<polygon fill="midnightblue" stroke="midnightblue" points="405.037,-543.857 412.677,-536.517 402.127,-537.491 405.037,-543.857"/>
</g>
<!-- Node12 -->
<g id="node12" class="node"><title>Node12</title>
<g id="a_node12"><a xlink:href="$classQuaternion.html#ab3049efa36b211699ca03ea53970f0fd" xlink:title="Quaternion::to_euler">
<polygon fill="white" stroke="black" points="406.5,-745.5 406.5,-764.5 510.5,-764.5 510.5,-745.5 406.5,-745.5"/>
<text text-anchor="middle" x="458.5" y="-752.5" font-family="Helvetica,sans-Serif" font-size="10.00">Quaternion::to_euler</text>
</a>
</g>
</g>
<!-- Node10&#45;&gt;Node12 -->
<g id="edge11" class="edge"><title>Node10&#45;&gt;Node12</title>
<path fill="none" stroke="midnightblue" d="M305.962,-627.634C333.485,-650.767 403.565,-709.668 437.917,-738.54"/>
<polygon fill="midnightblue" stroke="midnightblue" points="435.925,-741.439 445.833,-745.194 440.429,-736.08 435.925,-741.439"/>
</g>
<!-- Node21 -->
<g id="node21" class="node"><title>Node21</title>
<g id="a_node21"><a xlink:href="$eulers_8cpp.html#a6bfa6320a080694c8cdf18de74004189" xlink:title="check_result">
<polygon fill="white" stroke="black" points="422.5,-593.5 422.5,-612.5 494.5,-612.5 494.5,-593.5 422.5,-593.5"/>
<text text-anchor="middle" x="458.5" y="-600.5" font-family="Helvetica,sans-Serif" font-size="10.00">check_result</text>
</a>
</g>
</g>
<!-- Node10&#45;&gt;Node21 -->
<g id="edge20" class="edge"><title>Node10&#45;&gt;Node21</title>
<path fill="none" stroke="midnightblue" d="M336.901,-614.098C360.072,-611.966 388.77,-609.325 412.358,-607.154"/>
<polygon fill="midnightblue" stroke="midnightblue" points="412.822,-610.626 422.459,-606.225 412.18,-603.656 412.822,-610.626"/>
</g>
<!-- Node23 -->
<g id="node23" class="node"><title>Node23</title>
<g id="a_node23"><a xlink:href="$classQuaternion.html#afb7132c9c69a984a40be950a17effeaa" xlink:title="Quaternion::rotation\l_matrix">
<polygon fill="white" stroke="black" points="407.5,-419 407.5,-449 509.5,-449 509.5,-419 407.5,-419"/>
<text text-anchor="start" x="415.5" y="-437" font-family="Helvetica,sans-Serif" font-size="10.00">Quaternion::rotation</text>
<text text-anchor="middle" x="458.5" y="-426" font-family="Helvetica,sans-Serif" font-size="10.00">_matrix</text>
</a>
</g>
</g>
<!-- Node10&#45;&gt;Node23 -->
<g id="edge23" class="edge"><title>Node10&#45;&gt;Node23</title>
<path fill="none" stroke="midnightblue" d="M336.522,-612.389C344.871,-609.543 352.923,-605.303 359,-599 403.891,-552.44 352.01,-506.322 395,-458 396.195,-456.657 397.474,-455.388 398.822,-454.19"/>
<polygon fill="midnightblue" stroke="midnightblue" points="401.188,-456.796 407.2,-448.072 397.06,-451.143 401.188,-456.796"/>
</g>
<!-- Node24 -->
<g id="node24" class="node"><title>Node24</title>
<g id="a_node24"><a xlink:href="$classMatrix3.html#a893c6a712d52e47dbb7ed2d7a548046e" xlink:title="Matrix3::to_euler">
<polygon fill="white" stroke="black" points="414,-631.5 414,-650.5 503,-650.5 503,-631.5 414,-631.5"/>
<text text-anchor="middle" x="458.5" y="-638.5" font-family="Helvetica,sans-Serif" font-size="10.00">Matrix3::to_euler</text>
</a>
</g>
</g>
<!-- Node10&#45;&gt;Node24 -->
<g id="edge24" class="edge"><title>Node10&#45;&gt;Node24</title>
<path fill="none" stroke="midnightblue" d="M336.901,-623.983C357.34,-626.867 382.079,-630.358 403.818,-633.425"/>
<polygon fill="midnightblue" stroke="midnightblue" points="403.501,-636.915 413.892,-634.847 404.479,-629.984 403.501,-636.915"/>
</g>
<!-- Node25 -->
<g id="node25" class="node"><title>Node25</title>
<g id="a_node25"><a xlink:href="$classMatrix3.html#a62587bd216436f09f06b9e1330f84bc0" xlink:title="Matrix3::from_euler">
<polygon fill="white" stroke="black" points="408,-555.5 408,-574.5 509,-574.5 509,-555.5 408,-555.5"/>
<text text-anchor="middle" x="458.5" y="-562.5" font-family="Helvetica,sans-Serif" font-size="10.00">Matrix3::from_euler</text>
</a>
</g>
</g>
<!-- Node10&#45;&gt;Node25 -->
<g id="edge26" class="edge"><title>Node10&#45;&gt;Node25</title>
<path fill="none" stroke="midnightblue" d="M329.535,-608.429C339.154,-605.599 349.537,-602.354 359,-599 375.337,-593.209 378.688,-589.861 395,-584 401.094,-581.81 407.578,-579.652 413.975,-577.621"/>
<polygon fill="midnightblue" stroke="midnightblue" points="415.375,-580.852 423.889,-574.546 413.301,-574.166 415.375,-580.852"/>
</g>
<!-- Node26 -->
<g id="node26" class="node"><title>Node26</title>
<g id="a_node26"><a xlink:href="$classMatrix3.html#a2c69227a793818d8a8f47e99ffa99885" xlink:title="Matrix3::is_nan">
<polygon fill="white" stroke="black" points="417,-783.5 417,-802.5 500,-802.5 500,-783.5 417,-783.5"/>
<text text-anchor="middle" x="458.5" y="-790.5" font-family="Helvetica,sans-Serif" font-size="10.00">Matrix3::is_nan</text>
</a>
</g>
</g>
<!-- Node10&#45;&gt;Node26 -->
<g id="edge27" class="edge"><title>Node10&#45;&gt;Node26</title>
<path fill="none" stroke="midnightblue" d="M297.985,-627.741C308.285,-655.123 341.267,-733.422 395,-774 398.815,-776.881 403.069,-779.329 407.513,-781.407"/>
<polygon fill="midnightblue" stroke="midnightblue" points="406.24,-784.668 416.823,-785.176 408.867,-778.179 406.24,-784.668"/>
</g>
<!-- Node13 -->
<g id="node13" class="node"><title>Node13</title>
<g id="a_node13"><a xlink:href="$classQuaternion.html#a9ae6c42349ddc744022a4a1cf7868eb0" xlink:title="Quaternion::get_euler_roll">
<polygon fill="white" stroke="black" points="560.5,-741.5 560.5,-760.5 688.5,-760.5 688.5,-741.5 560.5,-741.5"/>
<text text-anchor="middle" x="624.5" y="-748.5" font-family="Helvetica,sans-Serif" font-size="10.00">Quaternion::get_euler_roll</text>
</a>
</g>
</g>
<!-- Node12&#45;&gt;Node13 -->
<g id="edge12" class="edge"><title>Node12&#45;&gt;Node13</title>
<path fill="none" stroke="midnightblue" d="M510.941,-753.745C523.442,-753.44 537.048,-753.109 550.342,-752.784"/>
<polygon fill="midnightblue" stroke="midnightblue" points="550.511,-756.281 560.422,-752.538 550.34,-749.283 550.511,-756.281"/>
</g>
<!-- Node14 -->
<g id="node14" class="node"><title>Node14</title>
<g id="a_node14"><a xlink:href="$classQuaternion.html#a0bfe50c332309932cd833b83f6524e5f" xlink:title="Quaternion::get_euler\l_pitch">
<polygon fill="white" stroke="black" points="569.5,-686 569.5,-716 679.5,-716 679.5,-686 569.5,-686"/>
<text text-anchor="start" x="577.5" y="-704" font-family="Helvetica,sans-Serif" font-size="10.00">Quaternion::get_euler</text>
<text text-anchor="middle" x="624.5" y="-693" font-family="Helvetica,sans-Serif" font-size="10.00">_pitch</text>
</a>
</g>
</g>
<!-- Node12&#45;&gt;Node14 -->
<g id="edge13" class="edge"><title>Node12&#45;&gt;Node14</title>
<path fill="none" stroke="midnightblue" d="M488.442,-745.47C510.473,-738.216 541.458,-728.014 568.193,-719.211"/>
<polygon fill="midnightblue" stroke="midnightblue" points="569.423,-722.491 577.826,-716.039 567.233,-715.842 569.423,-722.491"/>
</g>
<!-- Node20 -->
<g id="node20" class="node"><title>Node20</title>
<g id="a_node20"><a xlink:href="$classQuaternion.html#a35c2a1030832728574363ed8655da625" xlink:title="Quaternion::get_euler_yaw">
<polygon fill="white" stroke="black" points="558,-779.5 558,-798.5 691,-798.5 691,-779.5 558,-779.5"/>
<text text-anchor="middle" x="624.5" y="-786.5" font-family="Helvetica,sans-Serif" font-size="10.00">Quaternion::get_euler_yaw</text>
</a>
</g>
</g>
<!-- Node12&#45;&gt;Node20 -->
<g id="edge19" class="edge"><title>Node12&#45;&gt;Node20</title>
<path fill="none" stroke="midnightblue" d="M505.62,-764.561C524.828,-768.544 547.308,-773.204 567.457,-777.381"/>
<polygon fill="midnightblue" stroke="midnightblue" points="566.94,-780.849 577.443,-779.452 568.361,-773.994 566.94,-780.849"/>
</g>
<!-- Node15 -->
<g id="node15" class="node"><title>Node15</title>
<g id="a_node15"><a xlink:href="$AP__Math_8cpp.html#a3370ada2588e54722319d65e00d8545c" xlink:title="safe_asin">
<polygon fill="white" stroke="black" points="755,-662.5 755,-681.5 814,-681.5 814,-662.5 755,-662.5"/>
<text text-anchor="middle" x="784.5" y="-669.5" font-family="Helvetica,sans-Serif" font-size="10.00">safe_asin</text>
</a>
</g>
</g>
<!-- Node14&#45;&gt;Node15 -->
<g id="edge14" class="edge"><title>Node14&#45;&gt;Node15</title>
<path fill="none" stroke="midnightblue" d="M679.875,-691.02C701.212,-687.103 725.213,-682.698 744.74,-679.114"/>
<polygon fill="midnightblue" stroke="midnightblue" points="745.589,-682.517 754.793,-677.269 744.325,-675.632 745.589,-682.517"/>
</g>
<!-- Node16 -->
<g id="node16" class="node"><title>Node16</title>
<g id="a_node16"><a xlink:href="$AP__Math_8cpp.html#acde8e5813f30717986b84509948bf530" xlink:title="safe_asin\&lt; int \&gt;">
<polygon fill="white" stroke="black" points="887,-719.5 887,-738.5 974,-738.5 974,-719.5 887,-719.5"/>
<text text-anchor="middle" x="930.5" y="-726.5" font-family="Helvetica,sans-Serif" font-size="10.00">safe_asin&lt; int &gt;</text>
</a>
</g>
</g>
<!-- Node15&#45;&gt;Node16 -->
<g id="edge15" class="edge"><title>Node15&#45;&gt;Node16</title>
<path fill="none" stroke="midnightblue" d="M808.215,-681.601C826.884,-689.427 854.059,-700.67 878,-710 882.924,-711.919 888.131,-713.898 893.268,-715.821"/>
<polygon fill="midnightblue" stroke="midnightblue" points="892.373,-719.222 902.966,-719.42 894.809,-712.66 892.373,-719.222"/>
</g>
<!-- Node17 -->
<g id="node17" class="node"><title>Node17</title>
<g id="a_node17"><a xlink:href="$AP__Math_8cpp.html#a6baeda4985886aba9f6d5d5008ac2b10" xlink:title="safe_asin\&lt; short \&gt;">
<polygon fill="white" stroke="black" points="881.5,-681.5 881.5,-700.5 979.5,-700.5 979.5,-681.5 881.5,-681.5"/>
<text text-anchor="middle" x="930.5" y="-688.5" font-family="Helvetica,sans-Serif" font-size="10.00">safe_asin&lt; short &gt;</text>
</a>
</g>
</g>
<!-- Node15&#45;&gt;Node17 -->
<g id="edge16" class="edge"><title>Node15&#45;&gt;Node17</title>
<path fill="none" stroke="midnightblue" d="M814.294,-675.799C830.649,-677.957 851.724,-680.738 871.367,-683.33"/>
<polygon fill="midnightblue" stroke="midnightblue" points="871.105,-686.825 881.477,-684.664 872.02,-679.885 871.105,-686.825"/>
</g>
<!-- Node18 -->
<g id="node18" class="node"><title>Node18</title>
<g id="a_node18"><a xlink:href="$AP__Math_8cpp.html#a48612e903b0ef12fa5653056a6d5b3f7" xlink:title="safe_asin\&lt; float \&gt;">
<polygon fill="white" stroke="black" points="883,-643.5 883,-662.5 978,-662.5 978,-643.5 883,-643.5"/>
<text text-anchor="middle" x="930.5" y="-650.5" font-family="Helvetica,sans-Serif" font-size="10.00">safe_asin&lt; float &gt;</text>
</a>
</g>
</g>
<!-- Node15&#45;&gt;Node18 -->
<g id="edge17" class="edge"><title>Node15&#45;&gt;Node18</title>
<path fill="none" stroke="midnightblue" d="M814.294,-668.201C831.075,-665.987 852.825,-663.117 872.9,-660.468"/>
<polygon fill="midnightblue" stroke="midnightblue" points="873.443,-663.927 882.899,-659.149 872.527,-656.987 873.443,-663.927"/>
</g>
<!-- Node19 -->
<g id="node19" class="node"><title>Node19</title>
<g id="a_node19"><a xlink:href="$AP__Math_8cpp.html#a9f2aae5b5adb09329c1a64b433d148dd" xlink:title="safe_asin\&lt; double \&gt;">
<polygon fill="white" stroke="black" points="878,-605.5 878,-624.5 983,-624.5 983,-605.5 878,-605.5"/>
<text text-anchor="middle" x="930.5" y="-612.5" font-family="Helvetica,sans-Serif" font-size="10.00">safe_asin&lt; double &gt;</text>
</a>
</g>
</g>
<!-- Node15&#45;&gt;Node19 -->
<g id="edge18" class="edge"><title>Node15&#45;&gt;Node19</title>
<path fill="none" stroke="midnightblue" d="M808.215,-662.399C826.884,-654.573 854.059,-643.33 878,-634 882.924,-632.081 888.131,-630.102 893.268,-628.179"/>
<polygon fill="midnightblue" stroke="midnightblue" points="894.809,-631.34 902.966,-624.58 892.373,-624.778 894.809,-631.34"/>
</g>
<!-- Node21&#45;&gt;Node2 -->
<g id="edge21" class="edge"><title>Node21&#45;&gt;Node2</title>
<path fill="none" stroke="midnightblue" d="M494.823,-597.698C504.464,-594.886 514.35,-590.584 522,-584 580.945,-533.273 608.284,-440.643 618.478,-396.157"/>
<polygon fill="midnightblue" stroke="midnightblue" points="621.941,-396.702 620.658,-386.185 615.103,-395.207 621.941,-396.702"/>
</g>
<!-- Node22 -->
<g id="node22" class="node"><title>Node22</title>
<g id="a_node22"><a xlink:href="$eulers_8cpp.html#aa94c06a1eb86dc7dd817303e608203b6" xlink:title="rad_diff">
<polygon fill="white" stroke="black" points="600,-593.5 600,-612.5 649,-612.5 649,-593.5 600,-593.5"/>
<text text-anchor="middle" x="624.5" y="-600.5" font-family="Helvetica,sans-Serif" font-size="10.00">rad_diff</text>
</a>
</g>
</g>
<!-- Node21&#45;&gt;Node22 -->
<g id="edge22" class="edge"><title>Node21&#45;&gt;Node22</title>
<path fill="none" stroke="midnightblue" d="M494.682,-603C522.724,-603 561.75,-603 589.481,-603"/>
<polygon fill="midnightblue" stroke="midnightblue" points="589.51,-606.5 599.51,-603 589.51,-599.5 589.51,-606.5"/>
</g>
<!-- Node24&#45;&gt;Node15 -->
<g id="edge25" class="edge"><title>Node24&#45;&gt;Node15</title>
<path fill="none" stroke="midnightblue" d="M503.196,-645.181C566.745,-651.261 683.7,-662.451 744.494,-668.268"/>
<polygon fill="midnightblue" stroke="midnightblue" points="744.526,-671.787 754.814,-669.255 745.193,-664.819 744.526,-671.787"/>
</g>
<!-- Node27&#45;&gt;Node2 -->
<g id="edge30" class="edge"><title>Node27&#45;&gt;Node2</title>
<path fill="none" stroke="midnightblue" d="M147.764,-380.345C164.675,-367.711 196.633,-346.212 228,-338 354.406,-304.905 392.944,-317.547 522,-338 540.358,-340.909 559.914,-346.606 576.91,-352.458"/>
<polygon fill="midnightblue" stroke="midnightblue" points="575.998,-355.848 586.593,-355.902 578.344,-349.253 575.998,-355.848"/>
</g>
<!-- Node27&#45;&gt;Node11 -->
<g id="edge31" class="edge"><title>Node27&#45;&gt;Node11</title>
<path fill="none" stroke="midnightblue" d="M166.252,-399.563C174.678,-402.394 183.758,-405.64 192,-409 203.597,-413.727 383.369,-502.358 395,-507 401.398,-509.554 408.261,-512.017 415.012,-514.29"/>
<polygon fill="midnightblue" stroke="midnightblue" points="414.163,-517.694 424.755,-517.472 416.336,-511.04 414.163,-517.694"/>
</g>
<!-- Node27&#45;&gt;Node25 -->
<g id="edge36" class="edge"><title>Node27&#45;&gt;Node25</title>
<path fill="none" stroke="midnightblue" d="M176.024,-399.521C181.76,-401.999 187.296,-405.107 192,-409 217.141,-429.809 203.283,-451.69 228,-473 275.199,-513.693 303.342,-494.967 359,-523 375.957,-531.541 377.756,-538.054 395,-546 399.957,-548.284 405.259,-550.381 410.601,-552.28"/>
<polygon fill="midnightblue" stroke="midnightblue" points="409.6,-555.636 420.194,-555.483 411.817,-548.997 409.6,-555.636"/>
</g>
<!-- Node28 -->
<g id="node28" class="node"><title>Node28</title>
<g id="a_node28"><a xlink:href="$classQuaternion.html#a48e6bafb249c895ed25f29dc9170e11e" xlink:title="Quaternion::normalize">
<polygon fill="white" stroke="black" points="237.5,-266.5 237.5,-285.5 349.5,-285.5 349.5,-266.5 237.5,-266.5"/>
<text text-anchor="middle" x="293.5" y="-273.5" font-family="Helvetica,sans-Serif" font-size="10.00">Quaternion::normalize</text>
</a>
</g>
</g>
<!-- Node27&#45;&gt;Node28 -->
<g id="edge32" class="edge"><title>Node27&#45;&gt;Node28</title>
<path fill="none" stroke="midnightblue" d="M143.136,-380.249C157.79,-362.123 191.642,-322.996 228,-300 234.456,-295.917 241.711,-292.376 248.962,-289.361"/>
<polygon fill="midnightblue" stroke="midnightblue" points="250.704,-292.441 258.774,-285.575 248.184,-285.91 250.704,-292.441"/>
</g>
<!-- Node32 -->
<g id="node32" class="node"><title>Node32</title>
<g id="a_node32"><a xlink:href="$classQuaternion.html#a20c1310cb43b19ab1fdcbde038d1e508" xlink:title="Quaternion::earth_to_body">
<polygon fill="white" stroke="black" points="228,-380.5 228,-399.5 359,-399.5 359,-380.5 228,-380.5"/>
<text text-anchor="middle" x="293.5" y="-387.5" font-family="Helvetica,sans-Serif" font-size="10.00">Quaternion::earth_to_body</text>
</a>
</g>
</g>
<!-- Node27&#45;&gt;Node32 -->
<g id="edge37" class="edge"><title>Node27&#45;&gt;Node32</title>
<path fill="none" stroke="midnightblue" d="M192.181,-390C200.514,-390 209.203,-390 217.831,-390"/>
<polygon fill="midnightblue" stroke="midnightblue" points="217.906,-393.5 227.906,-390 217.906,-386.5 217.906,-393.5"/>
</g>
<!-- Node29 -->
<g id="node29" class="node"><title>Node29</title>
<g id="a_node29"><a xlink:href="$classQuaternion.html#a6f5e82dd828c59392a3133d6d5877f39" xlink:title="Quaternion::length">
<polygon fill="white" stroke="black" points="410.5,-228.5 410.5,-247.5 506.5,-247.5 506.5,-228.5 410.5,-228.5"/>
<text text-anchor="middle" x="458.5" y="-235.5" font-family="Helvetica,sans-Serif" font-size="10.00">Quaternion::length</text>
</a>
</g>
</g>
<!-- Node28&#45;&gt;Node29 -->
<g id="edge33" class="edge"><title>Node28&#45;&gt;Node29</title>
<path fill="none" stroke="midnightblue" d="M335.632,-266.411C357.238,-261.374 383.909,-255.156 406.786,-249.823"/>
<polygon fill="midnightblue" stroke="midnightblue" points="407.72,-253.199 416.664,-247.52 406.13,-246.382 407.72,-253.199"/>
</g>
<!-- Node31 -->
<g id="node31" class="node"><title>Node31</title>
<g id="a_node31"><a xlink:href="$AP__Math_8h.html#a2a12cce483e9b870da70d30406d82c60" xlink:title="is_zero">
<polygon fill="white" stroke="black" points="434.5,-266.5 434.5,-285.5 482.5,-285.5 482.5,-266.5 434.5,-266.5"/>
<text text-anchor="middle" x="458.5" y="-273.5" font-family="Helvetica,sans-Serif" font-size="10.00">is_zero</text>
</a>
</g>
</g>
<!-- Node28&#45;&gt;Node31 -->
<g id="edge35" class="edge"><title>Node28&#45;&gt;Node31</title>
<path fill="none" stroke="midnightblue" d="M349.684,-276C374.335,-276 402.585,-276 423.982,-276"/>
<polygon fill="midnightblue" stroke="midnightblue" points="424.189,-279.5 434.189,-276 424.189,-272.5 424.189,-279.5"/>
</g>
<!-- Node30 -->
<g id="node30" class="node"><title>Node30</title>
<g id="a_node30"><a xlink:href="$AP__Math_8h.html#a0375e3d67fd3911cacee5c3e1408c0f2" xlink:title="sq">
<polygon fill="white" stroke="black" points="610,-114.5 610,-133.5 639,-133.5 639,-114.5 610,-114.5"/>
<text text-anchor="middle" x="624.5" y="-121.5" font-family="Helvetica,sans-Serif" font-size="10.00">sq</text>
</a>
</g>
</g>
<!-- Node29&#45;&gt;Node30 -->
<g id="edge34" class="edge"><title>Node29&#45;&gt;Node30</title>
<path fill="none" stroke="midnightblue" d="M473.2,-228.477C501.609,-208.729 567.144,-163.174 601.53,-139.272"/>
<polygon fill="midnightblue" stroke="midnightblue" points="603.74,-141.998 609.954,-133.416 599.745,-136.25 603.74,-141.998"/>
</g>
<!-- Node32&#45;&gt;Node23 -->
<g id="edge38" class="edge"><title>Node32&#45;&gt;Node23</title>
<path fill="none" stroke="midnightblue" d="M329.869,-399.547C349.607,-404.875 374.727,-411.656 397.452,-417.791"/>
<polygon fill="midnightblue" stroke="midnightblue" points="396.792,-421.238 407.358,-420.465 398.616,-414.48 396.792,-421.238"/>
</g>
<!-- Node33&#45;&gt;Node2 -->
<g id="edge40" class="edge"><title>Node33&#45;&gt;Node2</title>
<path fill="none" stroke="midnightblue" d="M150.586,-627.699C206.092,-662.045 401.97,-771.26 522,-684 528.097,-679.568 593.167,-469.577 615.796,-396.081"/>
<polygon fill="midnightblue" stroke="midnightblue" points="619.22,-396.855 618.815,-386.268 612.529,-394.797 619.22,-396.855"/>
</g>
<!-- Node33&#45;&gt;Node10 -->
<g id="edge41" class="edge"><title>Node33&#45;&gt;Node10</title>
<path fill="none" stroke="midnightblue" d="M180.07,-618C198.743,-618 220.589,-618 240.032,-618"/>
<polygon fill="midnightblue" stroke="midnightblue" points="240.249,-621.5 250.249,-618 240.249,-614.5 240.249,-621.5"/>
</g>
<!-- Node34&#45;&gt;Node2 -->
<g id="edge43" class="edge"><title>Node34&#45;&gt;Node2</title>
<path fill="none" stroke="midnightblue" d="M172.563,-418.438C179.303,-415.904 186.069,-412.788 192,-409 211.606,-396.477 206.629,-380.192 228,-371 335.67,-324.688 475.597,-340.137 556.893,-355.574"/>
<polygon fill="midnightblue" stroke="midnightblue" points="556.509,-359.066 566.995,-357.55 557.852,-352.196 556.509,-359.066"/>
</g>
<!-- Node35 -->
<g id="node35" class="node"><title>Node35</title>
<g id="a_node35"><a xlink:href="$eulers_8cpp.html#a288b88e3267221134f72a170d9895cef" xlink:title="test_quaternion">
<polygon fill="white" stroke="black" points="252,-532.5 252,-551.5 335,-551.5 335,-532.5 252,-532.5"/>
<text text-anchor="middle" x="293.5" y="-539.5" font-family="Helvetica,sans-Serif" font-size="10.00">test_quaternion</text>
</a>
</g>
</g>
<!-- Node34&#45;&gt;Node35 -->
<g id="edge44" class="edge"><title>Node34&#45;&gt;Node35</title>
<path fill="none" stroke="midnightblue" d="M176.756,-437.599C182.262,-440.06 187.538,-443.142 192,-447 218.762,-470.141 201.609,-494.436 228,-518 232.51,-522.027 237.758,-525.4 243.276,-528.22"/>
<polygon fill="midnightblue" stroke="midnightblue" points="242.177,-531.563 252.733,-532.462 245.041,-525.176 242.177,-531.563"/>
</g>
<!-- Node35&#45;&gt;Node11 -->
<g id="edge45" class="edge"><title>Node35&#45;&gt;Node11</title>
<path fill="none" stroke="midnightblue" d="M335.211,-538.254C351.917,-536.716 371.703,-534.895 390.437,-533.171"/>
<polygon fill="midnightblue" stroke="midnightblue" points="390.776,-536.655 400.413,-532.253 390.134,-529.685 390.776,-536.655"/>
</g>
<!-- Node35&#45;&gt;Node12 -->
<g id="edge46" class="edge"><title>Node35&#45;&gt;Node12</title>
<path fill="none" stroke="midnightblue" d="M335.061,-547.74C343.784,-550.566 352.364,-554.765 359,-561 393.121,-593.059 373.991,-618.159 395,-660 409.313,-688.505 430.453,-718.868 444.102,-737.391"/>
<polygon fill="midnightblue" stroke="midnightblue" points="441.35,-739.556 450.139,-745.473 446.959,-735.367 441.35,-739.556"/>
</g>
<!-- Node35&#45;&gt;Node21 -->
<g id="edge47" class="edge"><title>Node35&#45;&gt;Node21</title>
<path fill="none" stroke="midnightblue" d="M333.347,-551.515C341.962,-554.153 350.926,-557.322 359,-561 376.278,-568.872 377.756,-576.054 395,-584 400.678,-586.617 406.808,-588.987 412.934,-591.097"/>
<polygon fill="midnightblue" stroke="midnightblue" points="411.896,-594.44 422.488,-594.194 414.055,-587.781 411.896,-594.44"/>
</g>
<!-- Node35&#45;&gt;Node23 -->
<g id="edge51" class="edge"><title>Node35&#45;&gt;Node23</title>
<path fill="none" stroke="midnightblue" d="M303.668,-532.495C320.435,-515.56 357.753,-479.895 395,-458 397.806,-456.351 400.745,-454.775 403.756,-453.277"/>
<polygon fill="midnightblue" stroke="midnightblue" points="405.34,-456.401 412.938,-449.017 402.394,-450.05 405.34,-456.401"/>
</g>
<!-- Node35&#45;&gt;Node24 -->
<g id="edge49" class="edge"><title>Node35&#45;&gt;Node24</title>
<path fill="none" stroke="midnightblue" d="M335.279,-548.992C343.699,-551.758 352.094,-555.618 359,-561 383.829,-580.352 370.254,-602.541 395,-622 397.936,-624.309 401.152,-626.338 404.526,-628.122"/>
<polygon fill="midnightblue" stroke="midnightblue" points="403.191,-631.359 413.744,-632.292 406.076,-624.982 403.191,-631.359"/>
</g>
<!-- Node35&#45;&gt;Node25 -->
<g id="edge48" class="edge"><title>Node35&#45;&gt;Node25</title>
<path fill="none" stroke="midnightblue" d="M335.211,-547.745C354.093,-550.409 376.909,-553.628 397.695,-556.561"/>
<polygon fill="midnightblue" stroke="midnightblue" points="397.319,-560.043 407.71,-557.974 398.297,-553.111 397.319,-560.043"/>
</g>
<!-- Node36 -->
<g id="node36" class="node"><title>Node36</title>
<g id="a_node36"><a xlink:href="$classQuaternion.html#a5ee01ee833114be6181887d0dcfb33b1" xlink:title="Quaternion::from_rotation\l_matrix">
<polygon fill="white" stroke="black" points="395,-468 395,-498 522,-498 522,-468 395,-468"/>
<text text-anchor="start" x="403" y="-486" font-family="Helvetica,sans-Serif" font-size="10.00">Quaternion::from_rotation</text>
<text text-anchor="middle" x="458.5" y="-475" font-family="Helvetica,sans-Serif" font-size="10.00">_matrix</text>
</a>
</g>
</g>
<!-- Node35&#45;&gt;Node36 -->
<g id="edge50" class="edge"><title>Node35&#45;&gt;Node36</title>
<path fill="none" stroke="midnightblue" d="M321.052,-532.389C344.05,-524.065 377.976,-511.785 406.244,-501.553"/>
<polygon fill="midnightblue" stroke="midnightblue" points="407.769,-504.723 415.98,-498.029 405.386,-498.141 407.769,-504.723"/>
</g>
<!-- Node37&#45;&gt;Node2 -->
<g id="edge53" class="edge"><title>Node37&#45;&gt;Node2</title>
<path fill="none" stroke="midnightblue" d="M175.821,-456.469C226.735,-444.59 317.098,-424.023 395,-409 449.149,-398.558 510.851,-388.399 556.477,-381.216"/>
<polygon fill="midnightblue" stroke="midnightblue" points="557.206,-384.645 566.543,-379.639 556.122,-377.729 557.206,-384.645"/>
</g>
<!-- Node38 -->
<g id="node38" class="node"><title>Node38</title>
<g id="a_node38"><a xlink:href="$eulers_8cpp.html#ab0e4b7cf8126ff5efa48d6f91eaad6ea" xlink:title="test_euler">
<polygon fill="white" stroke="black" points="264,-570.5 264,-589.5 323,-589.5 323,-570.5 264,-570.5"/>
<text text-anchor="middle" x="293.5" y="-577.5" font-family="Helvetica,sans-Serif" font-size="10.00">test_euler</text>
</a>
</g>
</g>
<!-- Node37&#45;&gt;Node38 -->
<g id="edge54" class="edge"><title>Node37&#45;&gt;Node38</title>
<path fill="none" stroke="midnightblue" d="M144.466,-475.754C165.694,-498.766 217.995,-554.968 228,-561 235.917,-565.774 245.109,-569.412 254.028,-572.161"/>
<polygon fill="midnightblue" stroke="midnightblue" points="253.329,-575.599 263.901,-574.9 255.2,-568.854 253.329,-575.599"/>
</g>
<!-- Node38&#45;&gt;Node21 -->
<g id="edge57" class="edge"><title>Node38&#45;&gt;Node21</title>
<path fill="none" stroke="midnightblue" d="M323.266,-584.059C347.848,-587.528 383.648,-592.579 412.095,-596.593"/>
<polygon fill="midnightblue" stroke="midnightblue" points="411.817,-600.089 422.208,-598.02 412.795,-593.157 411.817,-600.089"/>
</g>
<!-- Node38&#45;&gt;Node24 -->
<g id="edge56" class="edge"><title>Node38&#45;&gt;Node24</title>
<path fill="none" stroke="midnightblue" d="M323.064,-586.554C334.5,-589.652 347.633,-593.821 359,-599 376.278,-606.872 377.756,-614.054 395,-622 399.957,-624.284 405.259,-626.381 410.601,-628.28"/>
<polygon fill="midnightblue" stroke="midnightblue" points="409.6,-631.636 420.194,-631.483 411.817,-624.997 409.6,-631.636"/>
</g>
<!-- Node38&#45;&gt;Node25 -->
<g id="edge55" class="edge"><title>Node38&#45;&gt;Node25</title>
<path fill="none" stroke="midnightblue" d="M323.266,-577.353C343.83,-575.46 372.243,-572.846 397.636,-570.509"/>
<polygon fill="midnightblue" stroke="midnightblue" points="398.294,-573.963 407.931,-569.562 397.652,-566.993 398.294,-573.963"/>
</g>
<!-- Node39&#45;&gt;Node2 -->
<g id="edge65" class="edge"><title>Node39&#45;&gt;Node2</title>
<path fill="none" stroke="midnightblue" d="M154.859,-114.588C173.245,-123.296 201.88,-135.841 228,-143 355.36,-177.907 413.542,-110.662 522,-186 578.187,-225.029 606.412,-305.56 617.57,-346.276"/>
<polygon fill="midnightblue" stroke="midnightblue" points="614.185,-347.163 620.104,-355.95 620.956,-345.39 614.185,-347.163"/>
</g>
<!-- Node40 -->
<g id="node40" class="node"><title>Node40</title>
<g id="a_node40"><a xlink:href="$classMatrix3.html#acfd79fa5d5968b42219a9b6d017ac5b5" xlink:title="Matrix3::identity">
<polygon fill="white" stroke="black" points="250.5,-114.5 250.5,-133.5 336.5,-133.5 336.5,-114.5 250.5,-114.5"/>
<text text-anchor="middle" x="293.5" y="-121.5" font-family="Helvetica,sans-Serif" font-size="10.00">Matrix3::identity</text>
</a>
</g>
</g>
<!-- Node39&#45;&gt;Node40 -->
<g id="edge59" class="edge"><title>Node39&#45;&gt;Node40</title>
<path fill="none" stroke="midnightblue" d="M182.18,-110.649C200.408,-112.855 221.39,-115.394 240.131,-117.662"/>
<polygon fill="midnightblue" stroke="midnightblue" points="239.931,-121.164 250.279,-118.89 240.772,-114.214 239.931,-121.164"/>
</g>
<!-- Node41 -->
<g id="node41" class="node"><title>Node41</title>
<g id="a_node41"><a xlink:href="$eulers_8cpp.html#a947c961d7787a2c96e3f6768e6e6c38c" xlink:title="rand_num">
<polygon fill="white" stroke="black" points="264,-76.5 264,-95.5 323,-95.5 323,-76.5 264,-76.5"/>
<text text-anchor="middle" x="293.5" y="-83.5" font-family="Helvetica,sans-Serif" font-size="10.00">rand_num</text>
</a>
</g>
</g>
<!-- Node39&#45;&gt;Node41 -->
<g id="edge60" class="edge"><title>Node39&#45;&gt;Node41</title>
<path fill="none" stroke="midnightblue" d="M182.18,-99.3508C205.018,-96.5871 232.18,-93.2999 253.838,-90.6789"/>
<polygon fill="midnightblue" stroke="midnightblue" points="254.478,-94.1271 263.985,-89.4509 253.636,-87.1778 254.478,-94.1271"/>
</g>
<!-- Node42 -->
<g id="node42" class="node"><title>Node42</title>
<g id="a_node42"><a xlink:href="$classMatrix3.html#a6f044e8d64f6f10e054af962487399b9" xlink:title="Matrix3::rotate">
<polygon fill="white" stroke="black" points="253.5,-38.5 253.5,-57.5 333.5,-57.5 333.5,-38.5 253.5,-38.5"/>
<text text-anchor="middle" x="293.5" y="-45.5" font-family="Helvetica,sans-Serif" font-size="10.00">Matrix3::rotate</text>
</a>
</g>
</g>
<!-- Node39&#45;&gt;Node42 -->
<g id="edge61" class="edge"><title>Node39&#45;&gt;Node42</title>
<path fill="none" stroke="midnightblue" d="M156.937,-95.4549C175.531,-87.3545 203.269,-75.6964 228,-67 234.437,-64.7364 241.298,-62.516 248.052,-60.437"/>
<polygon fill="midnightblue" stroke="midnightblue" points="249.242,-63.7341 257.811,-57.5036 247.227,-57.0304 249.242,-63.7341"/>
</g>
<!-- Node43 -->
<g id="node43" class="node"><title>Node43</title>
<g id="a_node43"><a xlink:href="$classVector3.html#ac1fd5514e368a1e1c2d13f71eda18345" xlink:title="Vector3::length">
<polygon fill="white" stroke="black" points="252,-0.5 252,-19.5 335,-19.5 335,-0.5 252,-0.5"/>
<text text-anchor="middle" x="293.5" y="-7.5" font-family="Helvetica,sans-Serif" font-size="10.00">Vector3::length</text>
</a>
</g>
</g>
<!-- Node39&#45;&gt;Node43 -->
<g id="edge62" class="edge"><title>Node39&#45;&gt;Node43</title>
<path fill="none" stroke="midnightblue" d="M144.552,-95.3777C160.129,-79.3596 193.654,-47.1931 228,-29 232.526,-26.6025 237.395,-24.4687 242.357,-22.5787"/>
<polygon fill="midnightblue" stroke="midnightblue" points="243.654,-25.8331 251.947,-19.2392 241.352,-19.2225 243.654,-25.8331"/>
</g>
<!-- Node44 -->
<g id="node44" class="node"><title>Node44</title>
<g id="a_node44"><a xlink:href="$AP__Math_8h.html#adc76d4a5e5c9ae8cb7ab17b55c40d636" xlink:title="norm">
<polygon fill="white" stroke="black" points="439.5,-57.5 439.5,-76.5 477.5,-76.5 477.5,-57.5 439.5,-57.5"/>
<text text-anchor="middle" x="458.5" y="-64.5" font-family="Helvetica,sans-Serif" font-size="10.00">norm</text>
</a>
</g>
</g>
<!-- Node43&#45;&gt;Node44 -->
<g id="edge63" class="edge"><title>Node43&#45;&gt;Node44</title>
<path fill="none" stroke="midnightblue" d="M328.807,-19.5408C338.611,-22.4198 349.273,-25.6971 359,-29 383.091,-37.18 410.015,-47.661 429.618,-55.543"/>
<polygon fill="midnightblue" stroke="midnightblue" points="428.565,-58.8927 439.147,-59.4019 431.192,-52.4044 428.565,-58.8927"/>
</g>
<!-- Node44&#45;&gt;Node30 -->
<g id="edge64" class="edge"><title>Node44&#45;&gt;Node30</title>
<path fill="none" stroke="midnightblue" d="M477.677,-73.3178C507.628,-83.7275 567.308,-104.47 600.275,-115.928"/>
<polygon fill="midnightblue" stroke="midnightblue" points="599.373,-119.32 609.968,-119.297 601.671,-112.708 599.373,-119.32"/>
</g>
</g>
</svg>
