<?xml version="1.0" encoding="UTF-8" standalone="no"?>
<!DOCTYPE svg PUBLIC "-//W3C//DTD SVG 1.1//EN"
 "http://www.w3.org/Graphics/SVG/1.1/DTD/svg11.dtd">
<!-- Generated by graphviz version 2.38.0 (20140413.2041)
 -->
<!-- Title: test_matrix_inverse Pages: 1 -->
<svg width="878pt" height="376pt"
 viewBox="0.00 0.00 878.00 376.00" xmlns="http://www.w3.org/2000/svg" xmlns:xlink="http://www.w3.org/1999/xlink">
<g id="graph0" class="graph" transform="scale(1 1) rotate(0) translate(4 372)">
<title>test_matrix_inverse</title>
<polygon fill="white" stroke="none" points="-4,4 -4,-372 874,-372 874,4 -4,4"/>
<!-- Node1 -->
<g id="node1" class="node"><title>Node1</title>
<polygon fill="#bfbfbf" stroke="black" points="0,-120.5 0,-139.5 102,-139.5 102,-120.5 0,-120.5"/>
<text text-anchor="middle" x="51" y="-127.5" font-family="Helvetica,sans-Serif" font-size="10.00">test_matrix_inverse</text>
</g>
<!-- Node2 -->
<g id="node2" class="node"><title>Node2</title>
<g id="a_node2"><a xlink:href="$examples_2matrix__alg_2matrix__alg_8cpp.html#ae90ca0cc108035a18d1a2b972743b781" xlink:title="get_random">
<polygon fill="white" stroke="black" points="142,-348.5 142,-367.5 210,-367.5 210,-348.5 142,-348.5"/>
<text text-anchor="middle" x="176" y="-355.5" font-family="Helvetica,sans-Serif" font-size="10.00">get_random</text>
</a>
</g>
</g>
<!-- Node1&#45;&gt;Node2 -->
<g id="edge1" class="edge"><title>Node1&#45;&gt;Node2</title>
<path fill="none" stroke="midnightblue" d="M53.9206,-139.579C60.5759,-170.755 85.1908,-270.941 138,-334 140.635,-337.146 143.788,-340.027 147.127,-342.615"/>
<polygon fill="midnightblue" stroke="midnightblue" points="145.392,-345.669 155.621,-348.432 149.348,-339.894 145.392,-345.669"/>
</g>
<!-- Node3 -->
<g id="node3" class="node"><title>Node3</title>
<g id="a_node3"><a xlink:href="$matrix__alg_8cpp.html#adfb798dabbcb4c7a82b3a08978bd8738" xlink:title="inverse">
<polygon fill="white" stroke="black" points="152,-139.5 152,-158.5 200,-158.5 200,-139.5 152,-139.5"/>
<text text-anchor="middle" x="176" y="-146.5" font-family="Helvetica,sans-Serif" font-size="10.00">inverse</text>
</a>
</g>
</g>
<!-- Node1&#45;&gt;Node3 -->
<g id="edge2" class="edge"><title>Node1&#45;&gt;Node3</title>
<path fill="none" stroke="midnightblue" d="M102.029,-137.728C115.404,-139.794 129.529,-141.976 141.752,-143.864"/>
<polygon fill="midnightblue" stroke="midnightblue" points="141.52,-147.37 151.937,-145.437 142.588,-140.452 141.52,-147.37"/>
</g>
<!-- Node7 -->
<g id="node7" class="node"><title>Node7</title>
<g id="a_node7"><a xlink:href="$classAP__HAL_1_1UARTDriver.html#a6ceedc792594e59fc7d80b39a435f027" xlink:title="AP_HAL::UARTDriver\l::printf">
<polygon fill="white" stroke="black" points="356,-71 356,-101 471,-101 471,-71 356,-71"/>
<text text-anchor="start" x="364" y="-89" font-family="Helvetica,sans-Serif" font-size="10.00">AP_HAL::UARTDriver</text>
<text text-anchor="middle" x="413.5" y="-78" font-family="Helvetica,sans-Serif" font-size="10.00">::printf</text>
</a>
</g>
</g>
<!-- Node1&#45;&gt;Node7 -->
<g id="edge24" class="edge"><title>Node1&#45;&gt;Node7</title>
<path fill="none" stroke="midnightblue" d="M102.126,-123.882C165.651,-116.129 275.348,-102.74 345.87,-94.1324"/>
<polygon fill="midnightblue" stroke="midnightblue" points="346.478,-97.5843 355.98,-92.8984 345.63,-90.6358 346.478,-97.5843"/>
</g>
<!-- Node19 -->
<g id="node19" class="node"><title>Node19</title>
<g id="a_node19"><a xlink:href="$matrix__alg_8cpp.html#a9e2d939e8250f6c633d3b87661b04d45" xlink:title="mat_mul">
<polygon fill="white" stroke="black" points="537.5,-196.5 537.5,-215.5 591.5,-215.5 591.5,-196.5 537.5,-196.5"/>
<text text-anchor="middle" x="564.5" y="-203.5" font-family="Helvetica,sans-Serif" font-size="10.00">mat_mul</text>
</a>
</g>
</g>
<!-- Node1&#45;&gt;Node19 -->
<g id="edge23" class="edge"><title>Node1&#45;&gt;Node19</title>
<path fill="none" stroke="midnightblue" d="M63.7404,-139.646C102.435,-170.732 230.643,-268.163 356,-301 405.443,-313.952 423.911,-320.874 471,-301 507.908,-285.423 537.381,-247.125 552.473,-224.194"/>
<polygon fill="midnightblue" stroke="midnightblue" points="555.467,-226.008 557.874,-215.69 549.558,-222.255 555.467,-226.008"/>
</g>
<!-- Node22 -->
<g id="node22" class="node"><title>Node22</title>
<g id="a_node22"><a xlink:href="$examples_2matrix__alg_2matrix__alg_8cpp.html#a6012b8662c48e5734649a5d39fcecd5f" xlink:title="show_matrix">
<polygon fill="white" stroke="black" points="140,-44.5 140,-63.5 212,-63.5 212,-44.5 140,-44.5"/>
<text text-anchor="middle" x="176" y="-51.5" font-family="Helvetica,sans-Serif" font-size="10.00">show_matrix</text>
</a>
</g>
</g>
<!-- Node1&#45;&gt;Node22 -->
<g id="edge25" class="edge"><title>Node1&#45;&gt;Node22</title>
<path fill="none" stroke="midnightblue" d="M67.578,-120.375C88.5574,-107.412 126.101,-84.2139 150.781,-68.9646"/>
<polygon fill="midnightblue" stroke="midnightblue" points="152.881,-71.7812 159.548,-63.5473 149.202,-65.8263 152.881,-71.7812"/>
</g>
<!-- Node23 -->
<g id="node23" class="node"><title>Node23</title>
<g id="a_node23"><a xlink:href="$examples_2matrix__alg_2matrix__alg_8cpp.html#a858f8d26fcfdfab738a4a08e7ff382cc" xlink:title="compare_mat">
<polygon fill="white" stroke="black" points="138,-6.5 138,-25.5 214,-25.5 214,-6.5 138,-6.5"/>
<text text-anchor="middle" x="176" y="-13.5" font-family="Helvetica,sans-Serif" font-size="10.00">compare_mat</text>
</a>
</g>
</g>
<!-- Node1&#45;&gt;Node23 -->
<g id="edge26" class="edge"><title>Node1&#45;&gt;Node23</title>
<path fill="none" stroke="midnightblue" d="M58.8737,-120.322C72.3568,-101.865 103.942,-61.1468 138,-35 140.005,-33.461 142.153,-31.9876 144.368,-30.5907"/>
<polygon fill="midnightblue" stroke="midnightblue" points="146.138,-33.6101 153.079,-25.6051 142.661,-27.5347 146.138,-33.6101"/>
</g>
<!-- Node4 -->
<g id="node4" class="node"><title>Node4</title>
<g id="a_node4"><a xlink:href="$matrix__alg_8cpp.html#a3aede2abf8bd30869b72dadaeb9e2c17" xlink:title="inverse3x3">
<polygon fill="white" stroke="black" points="253,-158.5 253,-177.5 317,-177.5 317,-158.5 253,-158.5"/>
<text text-anchor="middle" x="285" y="-165.5" font-family="Helvetica,sans-Serif" font-size="10.00">inverse3x3</text>
</a>
</g>
</g>
<!-- Node3&#45;&gt;Node4 -->
<g id="edge3" class="edge"><title>Node3&#45;&gt;Node4</title>
<path fill="none" stroke="midnightblue" d="M200.217,-153.123C212.582,-155.318 228.165,-158.085 242.528,-160.636"/>
<polygon fill="midnightblue" stroke="midnightblue" points="242.249,-164.141 252.707,-162.443 243.473,-157.249 242.249,-164.141"/>
</g>
<!-- Node6 -->
<g id="node6" class="node"><title>Node6</title>
<g id="a_node6"><a xlink:href="$matrix__alg_8cpp.html#a5b0d60d12edb0ce4c1ed6599acccc6db" xlink:title="inverse4x4">
<polygon fill="white" stroke="black" points="253,-120.5 253,-139.5 317,-139.5 317,-120.5 253,-120.5"/>
<text text-anchor="middle" x="285" y="-127.5" font-family="Helvetica,sans-Serif" font-size="10.00">inverse4x4</text>
</a>
</g>
</g>
<!-- Node3&#45;&gt;Node6 -->
<g id="edge5" class="edge"><title>Node3&#45;&gt;Node6</title>
<path fill="none" stroke="midnightblue" d="M200.217,-144.877C212.582,-142.682 228.165,-139.915 242.528,-137.364"/>
<polygon fill="midnightblue" stroke="midnightblue" points="243.473,-140.751 252.707,-135.557 242.249,-133.859 243.473,-140.751"/>
</g>
<!-- Node15 -->
<g id="node15" class="node"><title>Node15</title>
<g id="a_node15"><a xlink:href="$matrix__alg_8cpp.html#aec3cfc51b8c044f4faa4ab1d3a146435" xlink:title="mat_inverse">
<polygon fill="white" stroke="black" points="250,-196.5 250,-215.5 320,-215.5 320,-196.5 250,-196.5"/>
<text text-anchor="middle" x="285" y="-203.5" font-family="Helvetica,sans-Serif" font-size="10.00">mat_inverse</text>
</a>
</g>
</g>
<!-- Node3&#45;&gt;Node15 -->
<g id="edge15" class="edge"><title>Node3&#45;&gt;Node15</title>
<path fill="none" stroke="midnightblue" d="M195.151,-158.669C212.163,-167.731 237.805,-181.391 257.176,-191.711"/>
<polygon fill="midnightblue" stroke="midnightblue" points="255.646,-194.861 266.117,-196.474 258.937,-188.683 255.646,-194.861"/>
</g>
<!-- Node5 -->
<g id="node5" class="node"><title>Node5</title>
<g id="a_node5"><a xlink:href="$AP__Math_8h.html#a2a12cce483e9b870da70d30406d82c60" xlink:title="is_zero">
<polygon fill="white" stroke="black" points="389.5,-120.5 389.5,-139.5 437.5,-139.5 437.5,-120.5 389.5,-120.5"/>
<text text-anchor="middle" x="413.5" y="-127.5" font-family="Helvetica,sans-Serif" font-size="10.00">is_zero</text>
</a>
</g>
</g>
<!-- Node4&#45;&gt;Node5 -->
<g id="edge4" class="edge"><title>Node4&#45;&gt;Node5</title>
<path fill="none" stroke="midnightblue" d="M317.27,-158.607C336.123,-152.943 360.121,-145.734 379.31,-139.97"/>
<polygon fill="midnightblue" stroke="midnightblue" points="380.562,-143.249 389.132,-137.02 378.548,-136.545 380.562,-143.249"/>
</g>
<!-- Node6&#45;&gt;Node5 -->
<g id="edge14" class="edge"><title>Node6&#45;&gt;Node5</title>
<path fill="none" stroke="midnightblue" d="M317.27,-130C336.036,-130 359.9,-130 379.044,-130"/>
<polygon fill="midnightblue" stroke="midnightblue" points="379.132,-133.5 389.132,-130 379.132,-126.5 379.132,-133.5"/>
</g>
<!-- Node6&#45;&gt;Node7 -->
<g id="edge6" class="edge"><title>Node6&#45;&gt;Node7</title>
<path fill="none" stroke="midnightblue" d="M313.449,-120.453C326.928,-115.764 343.642,-109.951 359.478,-104.443"/>
<polygon fill="midnightblue" stroke="midnightblue" points="360.892,-107.656 369.187,-101.065 358.592,-101.045 360.892,-107.656"/>
</g>
<!-- Node8 -->
<g id="node8" class="node"><title>Node8</title>
<g id="a_node8"><a xlink:href="$classAP__HAL_1_1UARTDriver.html#aa8abfb6d6641299472c29ac1edde559f" xlink:title="AP_HAL::UARTDriver\l::vprintf">
<polygon fill="white" stroke="black" points="507,-71 507,-101 622,-101 622,-71 507,-71"/>
<text text-anchor="start" x="515" y="-89" font-family="Helvetica,sans-Serif" font-size="10.00">AP_HAL::UARTDriver</text>
<text text-anchor="middle" x="564.5" y="-78" font-family="Helvetica,sans-Serif" font-size="10.00">::vprintf</text>
</a>
</g>
</g>
<!-- Node7&#45;&gt;Node8 -->
<g id="edge7" class="edge"><title>Node7&#45;&gt;Node8</title>
<path fill="none" stroke="midnightblue" d="M471.256,-86C479.558,-86 488.173,-86 496.654,-86"/>
<polygon fill="midnightblue" stroke="midnightblue" points="496.902,-89.5001 506.902,-86 496.902,-82.5001 496.902,-89.5001"/>
</g>
<!-- Node9 -->
<g id="node9" class="node"><title>Node9</title>
<g id="a_node9"><a xlink:href="$print__vprintf_8cpp.html#a1534eaeab54696df96975b56d9f49212" xlink:title="print_vprintf">
<polygon fill="white" stroke="black" points="658,-76.5 658,-95.5 726,-95.5 726,-76.5 658,-76.5"/>
<text text-anchor="middle" x="692" y="-83.5" font-family="Helvetica,sans-Serif" font-size="10.00">print_vprintf</text>
</a>
</g>
</g>
<!-- Node8&#45;&gt;Node9 -->
<g id="edge8" class="edge"><title>Node8&#45;&gt;Node9</title>
<path fill="none" stroke="midnightblue" d="M622.009,-86C630.609,-86 639.367,-86 647.628,-86"/>
<polygon fill="midnightblue" stroke="midnightblue" points="647.777,-89.5001 657.777,-86 647.777,-82.5001 647.777,-89.5001"/>
</g>
<!-- Node10 -->
<g id="node10" class="node"><title>Node10</title>
<g id="a_node10"><a xlink:href="$classAP__HAL_1_1Print.html#acc65391952a43334f8f5c9bef341f501" xlink:title="AP_HAL::Print::write">
<polygon fill="white" stroke="black" points="762,-152.5 762,-171.5 870,-171.5 870,-152.5 762,-152.5"/>
<text text-anchor="middle" x="816" y="-159.5" font-family="Helvetica,sans-Serif" font-size="10.00">AP_HAL::Print::write</text>
</a>
</g>
</g>
<!-- Node9&#45;&gt;Node10 -->
<g id="edge9" class="edge"><title>Node9&#45;&gt;Node10</title>
<path fill="none" stroke="midnightblue" d="M702.47,-95.6825C715.07,-108.102 738.502,-129.629 762,-143 765.632,-145.067 769.529,-146.973 773.501,-148.715"/>
<polygon fill="midnightblue" stroke="midnightblue" points="772.233,-151.977 782.816,-152.479 774.856,-145.487 772.233,-151.977"/>
</g>
<!-- Node11 -->
<g id="node11" class="node"><title>Node11</title>
<g id="a_node11"><a xlink:href="$ftoa__engine_8cpp.html#a1c28234da8f20b43c85890d4bb452947" xlink:title="ftoa_engine">
<polygon fill="white" stroke="black" points="782.5,-114.5 782.5,-133.5 849.5,-133.5 849.5,-114.5 782.5,-114.5"/>
<text text-anchor="middle" x="816" y="-121.5" font-family="Helvetica,sans-Serif" font-size="10.00">ftoa_engine</text>
</a>
</g>
</g>
<!-- Node9&#45;&gt;Node11 -->
<g id="edge10" class="edge"><title>Node9&#45;&gt;Node11</title>
<path fill="none" stroke="midnightblue" d="M723.786,-95.589C739.101,-100.359 757.817,-106.189 774.3,-111.323"/>
<polygon fill="midnightblue" stroke="midnightblue" points="773.636,-114.782 784.224,-114.414 775.717,-108.099 773.636,-114.782"/>
</g>
<!-- Node12 -->
<g id="node12" class="node"><title>Node12</title>
<g id="a_node12"><a xlink:href="$replace_8cpp.html#a880bcc7b85a09e6254691bebd5344b51" xlink:title="strnlen">
<polygon fill="white" stroke="black" points="793,-76.5 793,-95.5 839,-95.5 839,-76.5 793,-76.5"/>
<text text-anchor="middle" x="816" y="-83.5" font-family="Helvetica,sans-Serif" font-size="10.00">strnlen</text>
</a>
</g>
</g>
<!-- Node9&#45;&gt;Node12 -->
<g id="edge11" class="edge"><title>Node9&#45;&gt;Node12</title>
<path fill="none" stroke="midnightblue" d="M726.015,-86C743.547,-86 765.016,-86 782.474,-86"/>
<polygon fill="midnightblue" stroke="midnightblue" points="782.754,-89.5001 792.754,-86 782.754,-82.5001 782.754,-89.5001"/>
</g>
<!-- Node13 -->
<g id="node13" class="node"><title>Node13</title>
<g id="a_node13"><a xlink:href="$utoa__invert_8cpp.html#a34926f552460b47c414ec4d83b32815c" xlink:title="ulltoa_invert">
<polygon fill="white" stroke="black" points="781.5,-38.5 781.5,-57.5 850.5,-57.5 850.5,-38.5 781.5,-38.5"/>
<text text-anchor="middle" x="816" y="-45.5" font-family="Helvetica,sans-Serif" font-size="10.00">ulltoa_invert</text>
</a>
</g>
</g>
<!-- Node9&#45;&gt;Node13 -->
<g id="edge12" class="edge"><title>Node9&#45;&gt;Node13</title>
<path fill="none" stroke="midnightblue" d="M723.786,-76.411C739.101,-71.6406 757.817,-65.8112 774.3,-60.6771"/>
<polygon fill="midnightblue" stroke="midnightblue" points="775.717,-63.9015 784.224,-57.5859 773.636,-57.2182 775.717,-63.9015"/>
</g>
<!-- Node14 -->
<g id="node14" class="node"><title>Node14</title>
<g id="a_node14"><a xlink:href="$utoa__invert_8cpp.html#a5d99bba8e697c1e11da489d88fca8559" xlink:title="ultoa_invert">
<polygon fill="white" stroke="black" points="782.5,-0.5 782.5,-19.5 849.5,-19.5 849.5,-0.5 782.5,-0.5"/>
<text text-anchor="middle" x="816" y="-7.5" font-family="Helvetica,sans-Serif" font-size="10.00">ultoa_invert</text>
</a>
</g>
</g>
<!-- Node9&#45;&gt;Node14 -->
<g id="edge13" class="edge"><title>Node9&#45;&gt;Node14</title>
<path fill="none" stroke="midnightblue" d="M702.47,-76.3175C715.07,-63.8984 738.502,-42.371 762,-29 765.632,-26.9334 769.529,-25.0271 773.501,-23.2853"/>
<polygon fill="midnightblue" stroke="midnightblue" points="774.856,-26.5129 782.816,-19.5214 772.233,-20.0226 774.856,-26.5129"/>
</g>
<!-- Node16 -->
<g id="node16" class="node"><title>Node16</title>
<g id="a_node16"><a xlink:href="$matrix__alg_8cpp.html#a71120309d433abdf23de6c2d78440b1c" xlink:title="mat_LU_decompose">
<polygon fill="white" stroke="black" points="360,-158.5 360,-177.5 467,-177.5 467,-158.5 360,-158.5"/>
<text text-anchor="middle" x="413.5" y="-165.5" font-family="Helvetica,sans-Serif" font-size="10.00">mat_LU_decompose</text>
</a>
</g>
</g>
<!-- Node15&#45;&gt;Node16 -->
<g id="edge16" class="edge"><title>Node15&#45;&gt;Node16</title>
<path fill="none" stroke="midnightblue" d="M317.921,-196.411C333.952,-191.596 353.574,-185.701 370.782,-180.532"/>
<polygon fill="midnightblue" stroke="midnightblue" points="372.019,-183.815 380.589,-177.586 370.005,-177.111 372.019,-183.815"/>
</g>
<!-- Node15&#45;&gt;Node19 -->
<g id="edge22" class="edge"><title>Node15&#45;&gt;Node19</title>
<path fill="none" stroke="midnightblue" d="M320.027,-206C372.672,-206 473.404,-206 527.324,-206"/>
<polygon fill="midnightblue" stroke="midnightblue" points="527.456,-209.5 537.456,-206 527.456,-202.5 527.456,-209.5"/>
</g>
<!-- Node20 -->
<g id="node20" class="node"><title>Node20</title>
<g id="a_node20"><a xlink:href="$matrix__alg_8cpp.html#ae99d89fadc41e4ff699c74822490a71e" xlink:title="mat_forward_sub">
<polygon fill="white" stroke="black" points="367.5,-272.5 367.5,-291.5 459.5,-291.5 459.5,-272.5 367.5,-272.5"/>
<text text-anchor="middle" x="413.5" y="-279.5" font-family="Helvetica,sans-Serif" font-size="10.00">mat_forward_sub</text>
</a>
</g>
</g>
<!-- Node15&#45;&gt;Node20 -->
<g id="edge20" class="edge"><title>Node15&#45;&gt;Node20</title>
<path fill="none" stroke="midnightblue" d="M295.595,-215.745C308.363,-228.232 332.12,-249.833 356,-263 359.772,-265.08 363.812,-266.986 367.931,-268.719"/>
<polygon fill="midnightblue" stroke="midnightblue" points="367.013,-272.116 377.602,-272.452 369.533,-265.586 367.013,-272.116"/>
</g>
<!-- Node21 -->
<g id="node21" class="node"><title>Node21</title>
<g id="a_node21"><a xlink:href="$matrix__alg_8cpp.html#a5f5a54d345886bbaf464910d3a1cf139" xlink:title="mat_back_sub">
<polygon fill="white" stroke="black" points="373.5,-234.5 373.5,-253.5 453.5,-253.5 453.5,-234.5 373.5,-234.5"/>
<text text-anchor="middle" x="413.5" y="-241.5" font-family="Helvetica,sans-Serif" font-size="10.00">mat_back_sub</text>
</a>
</g>
</g>
<!-- Node15&#45;&gt;Node21 -->
<g id="edge21" class="edge"><title>Node15&#45;&gt;Node21</title>
<path fill="none" stroke="midnightblue" d="M317.921,-215.589C333.952,-220.404 353.574,-226.299 370.782,-231.468"/>
<polygon fill="midnightblue" stroke="midnightblue" points="370.005,-234.889 380.589,-234.414 372.019,-228.185 370.005,-234.889"/>
</g>
<!-- Node17 -->
<g id="node17" class="node"><title>Node17</title>
<g id="a_node17"><a xlink:href="$matrix__alg_8cpp.html#a7a49fc8b7a650e05045994ffba7c1dbc" xlink:title="mat_pivot">
<polygon fill="white" stroke="black" points="535,-158.5 535,-177.5 594,-177.5 594,-158.5 535,-158.5"/>
<text text-anchor="middle" x="564.5" y="-165.5" font-family="Helvetica,sans-Serif" font-size="10.00">mat_pivot</text>
</a>
</g>
</g>
<!-- Node16&#45;&gt;Node17 -->
<g id="edge17" class="edge"><title>Node16&#45;&gt;Node17</title>
<path fill="none" stroke="midnightblue" d="M467.032,-168C485.904,-168 506.843,-168 524.376,-168"/>
<polygon fill="midnightblue" stroke="midnightblue" points="524.804,-171.5 534.804,-168 524.804,-164.5 524.804,-171.5"/>
</g>
<!-- Node16&#45;&gt;Node19 -->
<g id="edge19" class="edge"><title>Node16&#45;&gt;Node19</title>
<path fill="none" stroke="midnightblue" d="M452.099,-177.589C475.125,-183.462 504.444,-190.939 527.223,-196.748"/>
<polygon fill="midnightblue" stroke="midnightblue" points="526.629,-200.209 537.183,-199.288 528.359,-193.426 526.629,-200.209"/>
</g>
<!-- Node18 -->
<g id="node18" class="node"><title>Node18</title>
<g id="a_node18"><a xlink:href="$matrix__alg_8cpp.html#a4ae7bd9da0bae1b05a7c352df26008ff" xlink:title="swap">
<polygon fill="white" stroke="black" points="672,-158.5 672,-177.5 712,-177.5 712,-158.5 672,-158.5"/>
<text text-anchor="middle" x="692" y="-165.5" font-family="Helvetica,sans-Serif" font-size="10.00">swap</text>
</a>
</g>
</g>
<!-- Node17&#45;&gt;Node18 -->
<g id="edge18" class="edge"><title>Node17&#45;&gt;Node18</title>
<path fill="none" stroke="midnightblue" d="M594.292,-168C614.413,-168 641.198,-168 661.477,-168"/>
<polygon fill="midnightblue" stroke="midnightblue" points="661.704,-171.5 671.704,-168 661.704,-164.5 661.704,-171.5"/>
</g>
</g>
</svg>
