<?xml version="1.0" encoding="UTF-8" standalone="no"?>
<!DOCTYPE svg PUBLIC "-//W3C//DTD SVG 1.1//EN"
 "http://www.w3.org/Graphics/SVG/1.1/DTD/svg11.dtd">
<!-- Generated by graphviz version 2.38.0 (20140413.2041)
 -->
<!-- Title: setup Pages: 1 -->
<svg width="1808pt" height="763pt"
 viewBox="0.00 0.00 1808.00 763.00" xmlns="http://www.w3.org/2000/svg" xmlns:xlink="http://www.w3.org/1999/xlink">
<g id="graph0" class="graph" transform="scale(1 1) rotate(0) translate(4 759)">
<title>setup</title>
<polygon fill="white" stroke="none" points="-4,4 -4,-759 1804,-759 1804,4 -4,4"/>
<!-- Node1 -->
<g id="node1" class="node"><title>Node1</title>
<polygon fill="#bfbfbf" stroke="black" points="0,-503.5 0,-522.5 41,-522.5 41,-503.5 0,-503.5"/>
<text text-anchor="middle" x="20.5" y="-510.5" font-family="Helvetica,sans-Serif" font-size="10.00">setup</text>
</g>
<!-- Node2 -->
<g id="node2" class="node"><title>Node2</title>
<g id="a_node2"><a xlink:href="$classAP__HAL_1_1UARTDriver.html#a6ceedc792594e59fc7d80b39a435f027" xlink:title="AP_HAL::UARTDriver\l::printf">
<polygon fill="white" stroke="black" points="887,-654 887,-684 1002,-684 1002,-654 887,-654"/>
<text text-anchor="start" x="895" y="-672" font-family="Helvetica,sans-Serif" font-size="10.00">AP_HAL::UARTDriver</text>
<text text-anchor="middle" x="944.5" y="-661" font-family="Helvetica,sans-Serif" font-size="10.00">::printf</text>
</a>
</g>
</g>
<!-- Node1&#45;&gt;Node2 -->
<g id="edge1" class="edge"><title>Node1&#45;&gt;Node2</title>
<path fill="none" stroke="midnightblue" d="M27.5801,-522.62C53.1484,-561.766 156.406,-707 281,-707 281,-707 281,-707 606,-707 700.503,-707 808.961,-692.106 876.86,-680.967"/>
<polygon fill="midnightblue" stroke="midnightblue" points="877.698,-684.375 886.989,-679.283 876.55,-677.47 877.698,-684.375"/>
</g>
<!-- Node10 -->
<g id="node10" class="node"><title>Node10</title>
<g id="a_node10"><a xlink:href="$polygon_8cpp.html#a296ad0a1a7b2ee7ce09a49163781d7d7" xlink:title="Polygon_complete">
<polygon fill="white" stroke="black" points="77,-522.5 77,-541.5 174,-541.5 174,-522.5 77,-522.5"/>
<text text-anchor="middle" x="125.5" y="-529.5" font-family="Helvetica,sans-Serif" font-size="10.00">Polygon_complete</text>
</a>
</g>
</g>
<!-- Node1&#45;&gt;Node10 -->
<g id="edge9" class="edge"><title>Node1&#45;&gt;Node10</title>
<path fill="none" stroke="midnightblue" d="M41.3594,-516.663C48.8293,-518.041 57.7492,-519.687 66.93,-521.38"/>
<polygon fill="midnightblue" stroke="midnightblue" points="66.4693,-524.854 76.9383,-523.226 67.7392,-517.97 66.4693,-524.854"/>
</g>
<!-- Node15 -->
<g id="node15" class="node"><title>Node15</title>
<g id="a_node15"><a xlink:href="$polygon_8cpp.html#a69c7755ab39f2ede645c4542b3aed07c" xlink:title="Polygon_outside">
<polygon fill="white" stroke="black" points="81,-484.5 81,-503.5 170,-503.5 170,-484.5 81,-484.5"/>
<text text-anchor="middle" x="125.5" y="-491.5" font-family="Helvetica,sans-Serif" font-size="10.00">Polygon_outside</text>
</a>
</g>
</g>
<!-- Node1&#45;&gt;Node15 -->
<g id="edge14" class="edge"><title>Node1&#45;&gt;Node15</title>
<path fill="none" stroke="midnightblue" d="M41.3594,-509.337C49.8651,-507.768 60.2508,-505.852 70.761,-503.913"/>
<polygon fill="midnightblue" stroke="midnightblue" points="71.6196,-507.314 80.8187,-502.058 70.3497,-500.43 71.6196,-507.314"/>
</g>
<!-- Node16 -->
<g id="node16" class="node"><title>Node16</title>
<g id="a_node16"><a xlink:href="$namespaceAP__HAL.html#a8293355e35887733b1fd151aef08a787" xlink:title="AP_HAL::micros">
<polygon fill="white" stroke="black" points="80.5,-427.5 80.5,-446.5 170.5,-446.5 170.5,-427.5 80.5,-427.5"/>
<text text-anchor="middle" x="125.5" y="-434.5" font-family="Helvetica,sans-Serif" font-size="10.00">AP_HAL::micros</text>
</a>
</g>
</g>
<!-- Node1&#45;&gt;Node16 -->
<g id="edge15" class="edge"><title>Node1&#45;&gt;Node16</title>
<path fill="none" stroke="midnightblue" d="M34.545,-503.375C51.881,-490.583 82.7236,-467.825 103.394,-452.573"/>
<polygon fill="midnightblue" stroke="midnightblue" points="105.592,-455.301 111.561,-446.547 101.436,-449.668 105.592,-455.301"/>
</g>
<!-- Node3 -->
<g id="node3" class="node"><title>Node3</title>
<g id="a_node3"><a xlink:href="$classAP__HAL_1_1UARTDriver.html#aa8abfb6d6641299472c29ac1edde559f" xlink:title="AP_HAL::UARTDriver\l::vprintf">
<polygon fill="white" stroke="black" points="1059.5,-654 1059.5,-684 1174.5,-684 1174.5,-654 1059.5,-654"/>
<text text-anchor="start" x="1067.5" y="-672" font-family="Helvetica,sans-Serif" font-size="10.00">AP_HAL::UARTDriver</text>
<text text-anchor="middle" x="1117" y="-661" font-family="Helvetica,sans-Serif" font-size="10.00">::vprintf</text>
</a>
</g>
</g>
<!-- Node2&#45;&gt;Node3 -->
<g id="edge2" class="edge"><title>Node2&#45;&gt;Node3</title>
<path fill="none" stroke="midnightblue" d="M1002.27,-669C1017.37,-669 1033.82,-669 1049.39,-669"/>
<polygon fill="midnightblue" stroke="midnightblue" points="1049.47,-672.5 1059.47,-669 1049.47,-665.5 1049.47,-672.5"/>
</g>
<!-- Node4 -->
<g id="node4" class="node"><title>Node4</title>
<g id="a_node4"><a xlink:href="$print__vprintf_8cpp.html#a1534eaeab54696df96975b56d9f49212" xlink:title="print_vprintf">
<polygon fill="white" stroke="black" points="1255.5,-659.5 1255.5,-678.5 1323.5,-678.5 1323.5,-659.5 1255.5,-659.5"/>
<text text-anchor="middle" x="1289.5" y="-666.5" font-family="Helvetica,sans-Serif" font-size="10.00">print_vprintf</text>
</a>
</g>
</g>
<!-- Node3&#45;&gt;Node4 -->
<g id="edge3" class="edge"><title>Node3&#45;&gt;Node4</title>
<path fill="none" stroke="midnightblue" d="M1174.77,-669C1197.75,-669 1223.85,-669 1245.24,-669"/>
<polygon fill="midnightblue" stroke="midnightblue" points="1245.33,-672.5 1255.33,-669 1245.33,-665.5 1245.33,-672.5"/>
</g>
<!-- Node5 -->
<g id="node5" class="node"><title>Node5</title>
<g id="a_node5"><a xlink:href="$classAP__HAL_1_1Print.html#acc65391952a43334f8f5c9bef341f501" xlink:title="AP_HAL::Print::write">
<polygon fill="white" stroke="black" points="1398.5,-621.5 1398.5,-640.5 1506.5,-640.5 1506.5,-621.5 1398.5,-621.5"/>
<text text-anchor="middle" x="1452.5" y="-628.5" font-family="Helvetica,sans-Serif" font-size="10.00">AP_HAL::Print::write</text>
</a>
</g>
</g>
<!-- Node4&#45;&gt;Node5 -->
<g id="edge4" class="edge"><title>Node4&#45;&gt;Node5</title>
<path fill="none" stroke="midnightblue" d="M1323.86,-661.126C1346.22,-655.849 1376.07,-648.803 1401.29,-642.852"/>
<polygon fill="midnightblue" stroke="midnightblue" points="1402.12,-646.25 1411.05,-640.546 1400.52,-639.437 1402.12,-646.25"/>
</g>
<!-- Node6 -->
<g id="node6" class="node"><title>Node6</title>
<g id="a_node6"><a xlink:href="$ftoa__engine_8cpp.html#a1c28234da8f20b43c85890d4bb452947" xlink:title="ftoa_engine">
<polygon fill="white" stroke="black" points="1419,-583.5 1419,-602.5 1486,-602.5 1486,-583.5 1419,-583.5"/>
<text text-anchor="middle" x="1452.5" y="-590.5" font-family="Helvetica,sans-Serif" font-size="10.00">ftoa_engine</text>
</a>
</g>
</g>
<!-- Node4&#45;&gt;Node6 -->
<g id="edge5" class="edge"><title>Node4&#45;&gt;Node6</title>
<path fill="none" stroke="midnightblue" d="M1306.71,-659.297C1327.25,-647.241 1363.97,-626.492 1397,-612 1401.75,-609.915 1406.81,-607.896 1411.86,-606.001"/>
<polygon fill="midnightblue" stroke="midnightblue" points="1413.26,-609.218 1421.48,-602.527 1410.88,-602.634 1413.26,-609.218"/>
</g>
<!-- Node7 -->
<g id="node7" class="node"><title>Node7</title>
<g id="a_node7"><a xlink:href="$replace_8cpp.html#a880bcc7b85a09e6254691bebd5344b51" xlink:title="strnlen">
<polygon fill="white" stroke="black" points="1429.5,-735.5 1429.5,-754.5 1475.5,-754.5 1475.5,-735.5 1429.5,-735.5"/>
<text text-anchor="middle" x="1452.5" y="-742.5" font-family="Helvetica,sans-Serif" font-size="10.00">strnlen</text>
</a>
</g>
</g>
<!-- Node4&#45;&gt;Node7 -->
<g id="edge6" class="edge"><title>Node4&#45;&gt;Node7</title>
<path fill="none" stroke="midnightblue" d="M1306.71,-678.703C1327.25,-690.759 1363.97,-711.508 1397,-726 1404.27,-729.191 1412.27,-732.228 1419.84,-734.899"/>
<polygon fill="midnightblue" stroke="midnightblue" points="1418.86,-738.263 1429.45,-738.184 1421.12,-731.639 1418.86,-738.263"/>
</g>
<!-- Node8 -->
<g id="node8" class="node"><title>Node8</title>
<g id="a_node8"><a xlink:href="$utoa__invert_8cpp.html#a34926f552460b47c414ec4d83b32815c" xlink:title="ulltoa_invert">
<polygon fill="white" stroke="black" points="1418,-697.5 1418,-716.5 1487,-716.5 1487,-697.5 1418,-697.5"/>
<text text-anchor="middle" x="1452.5" y="-704.5" font-family="Helvetica,sans-Serif" font-size="10.00">ulltoa_invert</text>
</a>
</g>
</g>
<!-- Node4&#45;&gt;Node8 -->
<g id="edge7" class="edge"><title>Node4&#45;&gt;Node8</title>
<path fill="none" stroke="midnightblue" d="M1323.86,-676.874C1348.28,-682.637 1381.63,-690.51 1408.12,-696.762"/>
<polygon fill="midnightblue" stroke="midnightblue" points="1407.37,-700.18 1417.91,-699.071 1408.98,-693.368 1407.37,-700.18"/>
</g>
<!-- Node9 -->
<g id="node9" class="node"><title>Node9</title>
<g id="a_node9"><a xlink:href="$utoa__invert_8cpp.html#a5d99bba8e697c1e11da489d88fca8559" xlink:title="ultoa_invert">
<polygon fill="white" stroke="black" points="1419,-659.5 1419,-678.5 1486,-678.5 1486,-659.5 1419,-659.5"/>
<text text-anchor="middle" x="1452.5" y="-666.5" font-family="Helvetica,sans-Serif" font-size="10.00">ultoa_invert</text>
</a>
</g>
</g>
<!-- Node4&#45;&gt;Node9 -->
<g id="edge8" class="edge"><title>Node4&#45;&gt;Node9</title>
<path fill="none" stroke="midnightblue" d="M1323.86,-669C1348.42,-669 1382.01,-669 1408.57,-669"/>
<polygon fill="midnightblue" stroke="midnightblue" points="1408.73,-672.5 1418.73,-669 1408.73,-665.5 1408.73,-672.5"/>
</g>
<!-- Node11 -->
<g id="node11" class="node"><title>Node11</title>
<g id="a_node11"><a xlink:href="$polygon_8cpp.html#a326b22042d7cce5627736e6718db1746" xlink:title="Polygon_outside\&lt; int32_t \&gt;">
<polygon fill="white" stroke="black" points="214,-508.5 214,-527.5 350,-527.5 350,-508.5 214,-508.5"/>
<text text-anchor="middle" x="282" y="-515.5" font-family="Helvetica,sans-Serif" font-size="10.00">Polygon_outside&lt; int32_t &gt;</text>
</a>
</g>
</g>
<!-- Node10&#45;&gt;Node11 -->
<g id="edge10" class="edge"><title>Node10&#45;&gt;Node11</title>
<path fill="none" stroke="midnightblue" d="M174.116,-527.685C183.558,-526.83 193.697,-525.911 203.834,-524.992"/>
<polygon fill="midnightblue" stroke="midnightblue" points="204.302,-528.464 213.945,-524.076 203.67,-521.493 204.302,-528.464"/>
</g>
<!-- Node12 -->
<g id="node12" class="node"><title>Node12</title>
<g id="a_node12"><a xlink:href="$polygon_8cpp.html#af27eb0c479c954ded601aca8480fd496" xlink:title="Polygon_complete\&lt; int32_t \&gt;">
<polygon fill="white" stroke="black" points="210,-470.5 210,-489.5 354,-489.5 354,-470.5 210,-470.5"/>
<text text-anchor="middle" x="282" y="-477.5" font-family="Helvetica,sans-Serif" font-size="10.00">Polygon_complete&lt; int32_t &gt;</text>
</a>
</g>
</g>
<!-- Node10&#45;&gt;Node12 -->
<g id="edge11" class="edge"><title>Node10&#45;&gt;Node12</title>
<path fill="none" stroke="midnightblue" d="M150.359,-522.493C173.957,-513.102 206.984,-499.996 210,-499 217.161,-496.635 224.8,-494.35 232.314,-492.233"/>
<polygon fill="midnightblue" stroke="midnightblue" points="233.353,-495.577 242.07,-489.555 231.5,-488.827 233.353,-495.577"/>
</g>
<!-- Node13 -->
<g id="node13" class="node"><title>Node13</title>
<g id="a_node13"><a xlink:href="$polygon_8cpp.html#abbf13089b7566afd646ac6005e5df2f8" xlink:title="Polygon_outside\&lt; float \&gt;">
<polygon fill="white" stroke="black" points="219.5,-584.5 219.5,-603.5 344.5,-603.5 344.5,-584.5 219.5,-584.5"/>
<text text-anchor="middle" x="282" y="-591.5" font-family="Helvetica,sans-Serif" font-size="10.00">Polygon_outside&lt; float &gt;</text>
</a>
</g>
</g>
<!-- Node10&#45;&gt;Node13 -->
<g id="edge12" class="edge"><title>Node10&#45;&gt;Node13</title>
<path fill="none" stroke="midnightblue" d="M142.652,-541.641C159.129,-551.154 185.662,-565.602 210,-575 216.238,-577.409 222.898,-579.628 229.545,-581.633"/>
<polygon fill="midnightblue" stroke="midnightblue" points="228.646,-585.017 239.224,-584.417 230.58,-578.289 228.646,-585.017"/>
</g>
<!-- Node14 -->
<g id="node14" class="node"><title>Node14</title>
<g id="a_node14"><a xlink:href="$polygon_8cpp.html#a4d47eaff22b1f855bb2e3612d295b0f0" xlink:title="Polygon_complete\&lt; float \&gt;">
<polygon fill="white" stroke="black" points="215,-546.5 215,-565.5 349,-565.5 349,-546.5 215,-546.5"/>
<text text-anchor="middle" x="282" y="-553.5" font-family="Helvetica,sans-Serif" font-size="10.00">Polygon_complete&lt; float &gt;</text>
</a>
</g>
</g>
<!-- Node10&#45;&gt;Node14 -->
<g id="edge13" class="edge"><title>Node10&#45;&gt;Node14</title>
<path fill="none" stroke="midnightblue" d="M174.116,-539.397C185.337,-541.14 197.542,-543.036 209.558,-544.902"/>
<polygon fill="midnightblue" stroke="midnightblue" points="209.163,-548.383 219.582,-546.459 210.238,-541.466 209.163,-548.383"/>
</g>
<!-- Node17 -->
<g id="node17" class="node"><title>Node17</title>
<g id="a_node17"><a xlink:href="$namespaceAP__HAL.html#a7aa0ce7625c9680e30ff4a99940907a5" xlink:title="AP_HAL::micros64">
<polygon fill="white" stroke="black" points="231.5,-418.5 231.5,-437.5 332.5,-437.5 332.5,-418.5 231.5,-418.5"/>
<text text-anchor="middle" x="282" y="-425.5" font-family="Helvetica,sans-Serif" font-size="10.00">AP_HAL::micros64</text>
</a>
</g>
</g>
<!-- Node16&#45;&gt;Node17 -->
<g id="edge16" class="edge"><title>Node16&#45;&gt;Node17</title>
<path fill="none" stroke="midnightblue" d="M170.773,-434.421C186.428,-433.509 204.307,-432.468 221.044,-431.493"/>
<polygon fill="midnightblue" stroke="midnightblue" points="221.509,-434.972 231.288,-430.896 221.101,-427.983 221.509,-434.972"/>
</g>
<!-- Node18 -->
<g id="node18" class="node"><title>Node18</title>
<g id="a_node18"><a xlink:href="$classLinux_1_1Scheduler.html#a53ecaae0fdc72f85bd57c4b0cff93653" xlink:title="Linux::Scheduler::from">
<polygon fill="white" stroke="black" points="390,-334.5 390,-353.5 505,-353.5 505,-334.5 390,-334.5"/>
<text text-anchor="middle" x="447.5" y="-341.5" font-family="Helvetica,sans-Serif" font-size="10.00">Linux::Scheduler::from</text>
</a>
</g>
</g>
<!-- Node17&#45;&gt;Node18 -->
<g id="edge17" class="edge"><title>Node17&#45;&gt;Node18</title>
<path fill="none" stroke="midnightblue" d="M301.756,-418.364C330.461,-403.617 385.458,-375.361 418.776,-358.243"/>
<polygon fill="midnightblue" stroke="midnightblue" points="420.668,-361.207 427.963,-353.523 417.469,-354.98 420.668,-361.207"/>
</g>
<!-- Node29 -->
<g id="node29" class="node"><title>Node29</title>
<g id="a_node29"><a xlink:href="$classLinux_1_1Scheduler.html#a682b4c34f330f66db5ab4aa5d96e13f9" xlink:title="Linux::Scheduler::stopped\l_clock_usec">
<polygon fill="white" stroke="black" points="1052,-133 1052,-163 1182,-163 1182,-133 1052,-133"/>
<text text-anchor="start" x="1060" y="-151" font-family="Helvetica,sans-Serif" font-size="10.00">Linux::Scheduler::stopped</text>
<text text-anchor="middle" x="1117" y="-140" font-family="Helvetica,sans-Serif" font-size="10.00">_clock_usec</text>
</a>
</g>
</g>
<!-- Node17&#45;&gt;Node29 -->
<g id="edge65" class="edge"><title>Node17&#45;&gt;Node29</title>
<path fill="none" stroke="midnightblue" d="M285.067,-418.256C299.202,-354.549 387.585,-0 604,-0 604,-0 604,-0 772,-0 898.821,-0 1032.1,-85.9287 1088.36,-126.836"/>
<polygon fill="midnightblue" stroke="midnightblue" points="1086.59,-129.879 1096.72,-132.995 1090.75,-124.244 1086.59,-129.879"/>
</g>
<!-- Node19 -->
<g id="node19" class="node"><title>Node19</title>
<g id="a_node19"><a xlink:href="$classLinux_1_1Scheduler.html#a3d77c332e051c28c83fb07757e7100bd" xlink:title="Linux::Scheduler::init">
<polygon fill="white" stroke="black" points="551,-378.5 551,-397.5 659,-397.5 659,-378.5 551,-378.5"/>
<text text-anchor="middle" x="605" y="-385.5" font-family="Helvetica,sans-Serif" font-size="10.00">Linux::Scheduler::init</text>
</a>
</g>
</g>
<!-- Node18&#45;&gt;Node19 -->
<g id="edge18" class="edge"><title>Node18&#45;&gt;Node19</title>
<path fill="none" stroke="midnightblue" d="M482.241,-353.547C505.165,-360.034 535.7,-368.674 560.456,-375.679"/>
<polygon fill="midnightblue" stroke="midnightblue" points="559.749,-379.116 570.325,-378.471 561.655,-372.381 559.749,-379.116"/>
</g>
<!-- Node26 -->
<g id="node26" class="node"><title>Node26</title>
<g id="a_node26"><a xlink:href="$classLinux_1_1Scheduler.html#a02a34a123dfebaf360f7010745e1e646" xlink:title="Linux::Scheduler::register\l_timer_process">
<polygon fill="white" stroke="black" points="707,-564 707,-594 835,-594 835,-564 707,-564"/>
<text text-anchor="start" x="715" y="-582" font-family="Helvetica,sans-Serif" font-size="10.00">Linux::Scheduler::register</text>
<text text-anchor="middle" x="771" y="-571" font-family="Helvetica,sans-Serif" font-size="10.00">_timer_process</text>
</a>
</g>
</g>
<!-- Node18&#45;&gt;Node26 -->
<g id="edge45" class="edge"><title>Node18&#45;&gt;Node26</title>
<path fill="none" stroke="midnightblue" d="M450.394,-353.804C456.889,-384.635 481.24,-480.328 541,-527 565.022,-545.761 639.104,-560.345 696.574,-569.232"/>
<polygon fill="midnightblue" stroke="midnightblue" points="696.32,-572.734 706.731,-570.771 697.368,-565.813 696.32,-572.734"/>
</g>
<!-- Node37 -->
<g id="node37" class="node"><title>Node37</title>
<g id="a_node37"><a xlink:href="$classLinux_1_1Scheduler.html#a14f3239ecbb9889823b20dc9de655c2f" xlink:title="Linux::Scheduler::delay">
<polygon fill="white" stroke="black" points="711.5,-182.5 711.5,-201.5 830.5,-201.5 830.5,-182.5 711.5,-182.5"/>
<text text-anchor="middle" x="771" y="-189.5" font-family="Helvetica,sans-Serif" font-size="10.00">Linux::Scheduler::delay</text>
</a>
</g>
</g>
<!-- Node18&#45;&gt;Node37 -->
<g id="edge39" class="edge"><title>Node18&#45;&gt;Node37</title>
<path fill="none" stroke="midnightblue" d="M453.745,-334.419C465.961,-313.095 498.527,-261.657 541,-237 589.804,-208.667 653.289,-197.843 701.033,-193.864"/>
<polygon fill="midnightblue" stroke="midnightblue" points="701.567,-197.334 711.276,-193.094 701.042,-190.353 701.567,-197.334"/>
</g>
<!-- Node38 -->
<g id="node38" class="node"><title>Node38</title>
<g id="a_node38"><a xlink:href="$classLinux_1_1Scheduler.html#a4cffd5bcba0175bf49c7aa75ff3bf09a" xlink:title="Linux::Scheduler::delay\l_microseconds">
<polygon fill="white" stroke="black" points="885,-228 885,-258 1004,-258 1004,-228 885,-228"/>
<text text-anchor="start" x="893" y="-246" font-family="Helvetica,sans-Serif" font-size="10.00">Linux::Scheduler::delay</text>
<text text-anchor="middle" x="944.5" y="-235" font-family="Helvetica,sans-Serif" font-size="10.00">_microseconds</text>
</a>
</g>
</g>
<!-- Node18&#45;&gt;Node38 -->
<g id="edge42" class="edge"><title>Node18&#45;&gt;Node38</title>
<path fill="none" stroke="midnightblue" d="M456.747,-334.342C471.62,-317.708 504.774,-284.087 541,-270 651.753,-226.933 792.507,-229.094 874.842,-235.448"/>
<polygon fill="midnightblue" stroke="midnightblue" points="874.581,-238.939 884.833,-236.262 875.15,-231.962 874.581,-238.939"/>
</g>
<!-- Node39 -->
<g id="node39" class="node"><title>Node39</title>
<g id="a_node39"><a xlink:href="$classLinux_1_1Scheduler.html#a5cb50b637d5fd3e5f9220bc23db0fb3f" xlink:title="Linux::Scheduler::register\l_delay_callback">
<polygon fill="white" stroke="black" points="541,-329 541,-359 669,-359 669,-329 541,-329"/>
<text text-anchor="start" x="549" y="-347" font-family="Helvetica,sans-Serif" font-size="10.00">Linux::Scheduler::register</text>
<text text-anchor="middle" x="605" y="-336" font-family="Helvetica,sans-Serif" font-size="10.00">_delay_callback</text>
</a>
</g>
</g>
<!-- Node18&#45;&gt;Node39 -->
<g id="edge44" class="edge"><title>Node18&#45;&gt;Node39</title>
<path fill="none" stroke="midnightblue" d="M505.079,-344C513.443,-344 522.16,-344 530.802,-344"/>
<polygon fill="midnightblue" stroke="midnightblue" points="530.887,-347.5 540.887,-344 530.887,-340.5 530.887,-347.5"/>
</g>
<!-- Node40 -->
<g id="node40" class="node"><title>Node40</title>
<g id="a_node40"><a xlink:href="$classLinux_1_1Scheduler.html#aa2be97cb8686d72cc322fb38f69a940c" xlink:title="Linux::Scheduler::register\l_io_process">
<polygon fill="white" stroke="black" points="541,-581 541,-611 669,-611 669,-581 541,-581"/>
<text text-anchor="start" x="549" y="-599" font-family="Helvetica,sans-Serif" font-size="10.00">Linux::Scheduler::register</text>
<text text-anchor="middle" x="605" y="-588" font-family="Helvetica,sans-Serif" font-size="10.00">_io_process</text>
</a>
</g>
</g>
<!-- Node18&#45;&gt;Node40 -->
<g id="edge46" class="edge"><title>Node18&#45;&gt;Node40</title>
<path fill="none" stroke="midnightblue" d="M450.016,-353.781C455.72,-387.538 478.83,-500.665 541,-566 544.372,-569.543 548.247,-572.715 552.383,-575.545"/>
<polygon fill="midnightblue" stroke="midnightblue" points="550.798,-578.677 561.161,-580.881 554.434,-572.696 550.798,-578.677"/>
</g>
<!-- Node41 -->
<g id="node41" class="node"><title>Node41</title>
<g id="a_node41"><a xlink:href="$classLinux_1_1Scheduler.html#abba967d02c28cb0b16a7cebbff9bc6d6" xlink:title="Linux::Scheduler::suspend\l_timer_procs">
<polygon fill="white" stroke="black" points="705,-515 705,-545 837,-545 837,-515 705,-515"/>
<text text-anchor="start" x="713" y="-533" font-family="Helvetica,sans-Serif" font-size="10.00">Linux::Scheduler::suspend</text>
<text text-anchor="middle" x="771" y="-522" font-family="Helvetica,sans-Serif" font-size="10.00">_timer_procs</text>
</a>
</g>
</g>
<!-- Node18&#45;&gt;Node41 -->
<g id="edge48" class="edge"><title>Node18&#45;&gt;Node41</title>
<path fill="none" stroke="midnightblue" d="M451.325,-353.73C459.799,-381.016 487.763,-458.58 541,-494 586.03,-523.959 646.89,-532.385 694.551,-533.629"/>
<polygon fill="midnightblue" stroke="midnightblue" points="694.763,-537.133 704.817,-533.792 694.874,-530.133 694.763,-537.133"/>
</g>
<!-- Node44 -->
<g id="node44" class="node"><title>Node44</title>
<g id="a_node44"><a xlink:href="$classLinux_1_1Scheduler.html#aee4e701b92cb4721c4de1bfcdcded70c" xlink:title="Linux::Scheduler::resume\l_timer_procs">
<polygon fill="white" stroke="black" points="707,-417 707,-447 835,-447 835,-417 707,-417"/>
<text text-anchor="start" x="715" y="-435" font-family="Helvetica,sans-Serif" font-size="10.00">Linux::Scheduler::resume</text>
<text text-anchor="middle" x="771" y="-424" font-family="Helvetica,sans-Serif" font-size="10.00">_timer_procs</text>
</a>
</g>
</g>
<!-- Node18&#45;&gt;Node44 -->
<g id="edge53" class="edge"><title>Node18&#45;&gt;Node44</title>
<path fill="none" stroke="midnightblue" d="M458.902,-353.682C475.067,-368.084 507.822,-394.764 541,-407 590.885,-425.398 650.716,-431.429 696.711,-432.977"/>
<polygon fill="midnightblue" stroke="midnightblue" points="696.807,-436.481 706.899,-433.254 696.998,-429.483 696.807,-436.481"/>
</g>
<!-- Node46 -->
<g id="node46" class="node"><title>Node46</title>
<g id="a_node46"><a xlink:href="$classLinux_1_1Scheduler.html#af23753e7c6bfa97553db215a64235455" xlink:title="Linux::Scheduler::in\l_timerprocess">
<polygon fill="white" stroke="black" points="553.5,-154 553.5,-184 656.5,-184 656.5,-154 553.5,-154"/>
<text text-anchor="start" x="561.5" y="-172" font-family="Helvetica,sans-Serif" font-size="10.00">Linux::Scheduler::in</text>
<text text-anchor="middle" x="605" y="-161" font-family="Helvetica,sans-Serif" font-size="10.00">_timerprocess</text>
</a>
</g>
</g>
<!-- Node18&#45;&gt;Node46 -->
<g id="edge55" class="edge"><title>Node18&#45;&gt;Node46</title>
<path fill="none" stroke="midnightblue" d="M452.432,-334.228C463.099,-308.801 494.905,-239.73 541,-199 545.142,-195.34 549.808,-192.032 554.681,-189.066"/>
<polygon fill="midnightblue" stroke="midnightblue" points="556.572,-192.019 563.606,-184.096 553.166,-185.904 556.572,-192.019"/>
</g>
<!-- Node47 -->
<g id="node47" class="node"><title>Node47</title>
<g id="a_node47"><a xlink:href="$classLinux_1_1Scheduler.html#ac193459e3575c7a0588fdc72250c2044" xlink:title="Linux::Scheduler::register\l_timer_failsafe">
<polygon fill="white" stroke="black" points="541,-105 541,-135 669,-135 669,-105 541,-105"/>
<text text-anchor="start" x="549" y="-123" font-family="Helvetica,sans-Serif" font-size="10.00">Linux::Scheduler::register</text>
<text text-anchor="middle" x="605" y="-112" font-family="Helvetica,sans-Serif" font-size="10.00">_timer_failsafe</text>
</a>
</g>
</g>
<!-- Node18&#45;&gt;Node47 -->
<g id="edge56" class="edge"><title>Node18&#45;&gt;Node47</title>
<path fill="none" stroke="midnightblue" d="M450.319,-334.126C456.721,-302.085 481.142,-199.852 541,-144 542.265,-142.82 543.594,-141.696 544.975,-140.626"/>
<polygon fill="midnightblue" stroke="midnightblue" points="546.969,-143.503 553.377,-135.065 543.107,-137.665 546.969,-143.503"/>
</g>
<!-- Node48 -->
<g id="node48" class="node"><title>Node48</title>
<g id="a_node48"><a xlink:href="$classLinux_1_1Scheduler.html#ad6070a7ee637adf5101b1e6b6efbf8f6" xlink:title="Linux::Scheduler::system\l_initialized">
<polygon fill="white" stroke="black" points="541,-280 541,-310 669,-310 669,-280 541,-280"/>
<text text-anchor="start" x="549" y="-298" font-family="Helvetica,sans-Serif" font-size="10.00">Linux::Scheduler::system</text>
<text text-anchor="middle" x="605" y="-287" font-family="Helvetica,sans-Serif" font-size="10.00">_initialized</text>
</a>
</g>
</g>
<!-- Node18&#45;&gt;Node48 -->
<g id="edge57" class="edge"><title>Node18&#45;&gt;Node48</title>
<path fill="none" stroke="midnightblue" d="M478.851,-334.436C498.108,-328.368 523.638,-320.323 546.615,-313.083"/>
<polygon fill="midnightblue" stroke="midnightblue" points="547.795,-316.381 556.281,-310.037 545.691,-309.704 547.795,-316.381"/>
</g>
<!-- Node50 -->
<g id="node50" class="node"><title>Node50</title>
<g id="a_node50"><a xlink:href="$classLinux_1_1Scheduler.html#ae72cfa66c849ffd882ef518c35c71e69" xlink:title="Linux::Scheduler::reboot">
<polygon fill="white" stroke="black" points="544,-66.5 544,-85.5 666,-85.5 666,-66.5 544,-66.5"/>
<text text-anchor="middle" x="605" y="-73.5" font-family="Helvetica,sans-Serif" font-size="10.00">Linux::Scheduler::reboot</text>
</a>
</g>
</g>
<!-- Node18&#45;&gt;Node50 -->
<g id="edge60" class="edge"><title>Node18&#45;&gt;Node50</title>
<path fill="none" stroke="midnightblue" d="M449.105,-334.484C451.956,-297.818 467.213,-164.295 541,-95 542.692,-93.4114 544.511,-91.9554 546.428,-90.6207"/>
<polygon fill="midnightblue" stroke="midnightblue" points="548.416,-93.5156 555.359,-85.5128 544.941,-87.4392 548.416,-93.5156"/>
</g>
<!-- Node51 -->
<g id="node51" class="node"><title>Node51</title>
<g id="a_node51"><a xlink:href="$classLinux_1_1Scheduler.html#a392aebafcdfe9a812e4db4b7a9dcce9c" xlink:title="Linux::Scheduler::stop\l_clock">
<polygon fill="white" stroke="black" points="548,-455 548,-485 662,-485 662,-455 548,-455"/>
<text text-anchor="start" x="556" y="-473" font-family="Helvetica,sans-Serif" font-size="10.00">Linux::Scheduler::stop</text>
<text text-anchor="middle" x="605" y="-462" font-family="Helvetica,sans-Serif" font-size="10.00">_clock</text>
</a>
</g>
</g>
<!-- Node18&#45;&gt;Node51 -->
<g id="edge61" class="edge"><title>Node18&#45;&gt;Node51</title>
<path fill="none" stroke="midnightblue" d="M455.738,-353.548C470.231,-372.158 504.566,-413.758 541,-440 546.161,-443.717 551.854,-447.171 557.645,-450.314"/>
<polygon fill="midnightblue" stroke="midnightblue" points="556.267,-453.541 566.763,-454.989 559.461,-447.312 556.267,-453.541"/>
</g>
<!-- Node20 -->
<g id="node20" class="node"><title>Node20</title>
<g id="a_node20"><a xlink:href="$namespaceAP__HAL.html#a71832f03d849a0c088f04fc98d3c8143" xlink:title="AP_HAL::panic">
<polygon fill="white" stroke="black" points="729,-378.5 729,-397.5 813,-397.5 813,-378.5 729,-378.5"/>
<text text-anchor="middle" x="771" y="-385.5" font-family="Helvetica,sans-Serif" font-size="10.00">AP_HAL::panic</text>
</a>
</g>
</g>
<!-- Node19&#45;&gt;Node20 -->
<g id="edge19" class="edge"><title>Node19&#45;&gt;Node20</title>
<path fill="none" stroke="midnightblue" d="M659.246,-388C678.344,-388 699.824,-388 718.748,-388"/>
<polygon fill="midnightblue" stroke="midnightblue" points="718.968,-391.5 728.968,-388 718.968,-384.5 718.968,-391.5"/>
</g>
<!-- Node19&#45;&gt;Node26 -->
<g id="edge25" class="edge"><title>Node19&#45;&gt;Node26</title>
<path fill="none" stroke="midnightblue" d="M620.235,-397.501C634.465,-407.685 656.042,-425.1 669,-445 696.839,-487.754 669.804,-517.066 705,-554 706.376,-555.444 707.845,-556.806 709.389,-558.09"/>
<polygon fill="midnightblue" stroke="midnightblue" points="707.454,-561.008 717.651,-563.885 711.474,-555.277 707.454,-561.008"/>
</g>
<!-- Node27 -->
<g id="node27" class="node"><title>Node27</title>
<g id="a_node27"><a xlink:href="$classLinux_1_1Scheduler.html#a163eb7b285c95b1b1d036fc61d723910" xlink:title="Linux::Scheduler::\l_debug_stack">
<polygon fill="white" stroke="black" points="723.5,-329 723.5,-359 818.5,-359 818.5,-329 723.5,-329"/>
<text text-anchor="start" x="731.5" y="-347" font-family="Helvetica,sans-Serif" font-size="10.00">Linux::Scheduler::</text>
<text text-anchor="middle" x="771" y="-336" font-family="Helvetica,sans-Serif" font-size="10.00">_debug_stack</text>
</a>
</g>
</g>
<!-- Node19&#45;&gt;Node27 -->
<g id="edge27" class="edge"><title>Node19&#45;&gt;Node27</title>
<path fill="none" stroke="midnightblue" d="M641.586,-378.453C662.616,-372.81 689.721,-365.538 713.604,-359.131"/>
<polygon fill="midnightblue" stroke="midnightblue" points="714.517,-362.51 723.268,-356.538 712.703,-355.749 714.517,-362.51"/>
</g>
<!-- Node21 -->
<g id="node21" class="node"><title>Node21</title>
<g id="a_node21"><a xlink:href="$classAP__HAL_1_1RCInput.html#a2bea13d38f2b9ae8bf5193a3a69f0a31" xlink:title="AP_HAL::RCInput::teardown">
<polygon fill="white" stroke="black" points="873,-335.5 873,-354.5 1016,-354.5 1016,-335.5 873,-335.5"/>
<text text-anchor="middle" x="944.5" y="-342.5" font-family="Helvetica,sans-Serif" font-size="10.00">AP_HAL::RCInput::teardown</text>
</a>
</g>
</g>
<!-- Node20&#45;&gt;Node21 -->
<g id="edge20" class="edge"><title>Node20&#45;&gt;Node21</title>
<path fill="none" stroke="midnightblue" d="M810.061,-378.457C835.262,-372.138 868.521,-363.799 895.529,-357.028"/>
<polygon fill="midnightblue" stroke="midnightblue" points="896.696,-360.343 905.545,-354.516 894.994,-353.554 896.696,-360.343"/>
</g>
<!-- Node25 -->
<g id="node25" class="node"><title>Node25</title>
<g id="a_node25"><a xlink:href="$classAP__HAL_1_1Scheduler.html#a78c4f1b1f192ac1c99544b6cc8f099b0" xlink:title="AP_HAL::Scheduler::\ldelay_microseconds">
<polygon fill="white" stroke="black" points="1062,-448 1062,-478 1172,-478 1172,-448 1062,-448"/>
<text text-anchor="start" x="1070" y="-466" font-family="Helvetica,sans-Serif" font-size="10.00">AP_HAL::Scheduler::</text>
<text text-anchor="middle" x="1117" y="-455" font-family="Helvetica,sans-Serif" font-size="10.00">delay_microseconds</text>
</a>
</g>
</g>
<!-- Node20&#45;&gt;Node25 -->
<g id="edge24" class="edge"><title>Node20&#45;&gt;Node25</title>
<path fill="none" stroke="midnightblue" d="M805.473,-397.525C815.624,-400.483 826.789,-403.807 837,-407 853.097,-412.033 856.661,-414.82 873,-419 933.037,-434.358 1002.74,-446.4 1052.06,-453.975"/>
<polygon fill="midnightblue" stroke="midnightblue" points="1051.54,-457.436 1061.96,-455.476 1052.59,-450.515 1051.54,-457.436"/>
</g>
<!-- Node22 -->
<g id="node22" class="node"><title>Node22</title>
<g id="a_node22"><a xlink:href="$classAP__HAL_1_1RCInput.html#aee1fade33080edef83dd7db0fad0f7da" xlink:title="AP_HAL::RCInput::new\l_input">
<polygon fill="white" stroke="black" points="1056,-308 1056,-338 1178,-338 1178,-308 1056,-308"/>
<text text-anchor="start" x="1064" y="-326" font-family="Helvetica,sans-Serif" font-size="10.00">AP_HAL::RCInput::new</text>
<text text-anchor="middle" x="1117" y="-315" font-family="Helvetica,sans-Serif" font-size="10.00">_input</text>
</a>
</g>
</g>
<!-- Node21&#45;&gt;Node22 -->
<g id="edge21" class="edge"><title>Node21&#45;&gt;Node22</title>
<path fill="none" stroke="midnightblue" d="M1016.33,-335.861C1026.1,-334.599 1036.14,-333.304 1045.91,-332.044"/>
<polygon fill="midnightblue" stroke="midnightblue" points="1046.49,-335.498 1055.96,-330.747 1045.6,-328.555 1046.49,-335.498"/>
</g>
<!-- Node23 -->
<g id="node23" class="node"><title>Node23</title>
<g id="a_node23"><a xlink:href="$classAP__HAL_1_1RCInput.html#ae55f959c6115c1f41783af3a2b6c4fcd" xlink:title="AP_HAL::RCInput::num\l_channels">
<polygon fill="white" stroke="black" points="1056,-259 1056,-289 1178,-289 1178,-259 1056,-259"/>
<text text-anchor="start" x="1064" y="-277" font-family="Helvetica,sans-Serif" font-size="10.00">AP_HAL::RCInput::num</text>
<text text-anchor="middle" x="1117" y="-266" font-family="Helvetica,sans-Serif" font-size="10.00">_channels</text>
</a>
</g>
</g>
<!-- Node21&#45;&gt;Node23 -->
<g id="edge22" class="edge"><title>Node21&#45;&gt;Node23</title>
<path fill="none" stroke="midnightblue" d="M966.166,-335.462C987.515,-325.708 1021.87,-310.286 1052,-298 1056.37,-296.218 1060.93,-294.409 1065.51,-292.627"/>
<polygon fill="midnightblue" stroke="midnightblue" points="1066.82,-295.875 1074.9,-289.02 1064.31,-289.341 1066.82,-295.875"/>
</g>
<!-- Node24 -->
<g id="node24" class="node"><title>Node24</title>
<g id="a_node24"><a xlink:href="$classAP__HAL_1_1RCInput.html#a078fd7e6d2e6a899009ec674a8e03498" xlink:title="AP_HAL::RCInput::read">
<polygon fill="white" stroke="black" points="1056,-357.5 1056,-376.5 1178,-376.5 1178,-357.5 1056,-357.5"/>
<text text-anchor="middle" x="1117" y="-364.5" font-family="Helvetica,sans-Serif" font-size="10.00">AP_HAL::RCInput::read</text>
</a>
</g>
</g>
<!-- Node21&#45;&gt;Node24 -->
<g id="edge23" class="edge"><title>Node21&#45;&gt;Node24</title>
<path fill="none" stroke="midnightblue" d="M1016.33,-354.139C1026.1,-355.401 1036.14,-356.696 1045.91,-357.956"/>
<polygon fill="midnightblue" stroke="midnightblue" points="1045.6,-361.445 1055.96,-359.253 1046.49,-354.502 1045.6,-361.445"/>
</g>
<!-- Node26&#45;&gt;Node2 -->
<g id="edge26" class="edge"><title>Node26&#45;&gt;Node2</title>
<path fill="none" stroke="midnightblue" d="M800.705,-594.064C829.519,-609.185 874.059,-632.559 905.727,-649.177"/>
<polygon fill="midnightblue" stroke="midnightblue" points="904.22,-652.339 914.701,-653.887 907.473,-646.141 904.22,-652.339"/>
</g>
<!-- Node28 -->
<g id="node28" class="node"><title>Node28</title>
<g id="a_node28"><a xlink:href="$namespaceAP__HAL.html#a59336c5fceaf28a76d1df1581a87a25d" xlink:title="AP_HAL::millis64">
<polygon fill="white" stroke="black" points="897.5,-141.5 897.5,-160.5 991.5,-160.5 991.5,-141.5 897.5,-141.5"/>
<text text-anchor="middle" x="944.5" y="-148.5" font-family="Helvetica,sans-Serif" font-size="10.00">AP_HAL::millis64</text>
</a>
</g>
</g>
<!-- Node27&#45;&gt;Node28 -->
<g id="edge28" class="edge"><title>Node27&#45;&gt;Node28</title>
<path fill="none" stroke="midnightblue" d="M818.723,-331.771C825.464,-328.462 831.85,-324.279 837,-319 870.277,-284.888 847.019,-257.95 873,-218 886.127,-197.816 906.503,-179.33 921.98,-166.913"/>
<polygon fill="midnightblue" stroke="midnightblue" points="924.26,-169.573 929.998,-160.666 919.958,-164.051 924.26,-169.573"/>
</g>
<!-- Node34 -->
<g id="node34" class="node"><title>Node34</title>
<g id="a_node34"><a xlink:href="$classLinux_1_1Thread.html#a6884970a0811ae21953c57fb98aa6e96" xlink:title="Linux::Thread::get\l_stack_usage">
<polygon fill="white" stroke="black" points="1705,-288 1705,-318 1800,-318 1800,-288 1705,-288"/>
<text text-anchor="start" x="1713" y="-306" font-family="Helvetica,sans-Serif" font-size="10.00">Linux::Thread::get</text>
<text text-anchor="middle" x="1752.5" y="-295" font-family="Helvetica,sans-Serif" font-size="10.00">_stack_usage</text>
</a>
</g>
</g>
<!-- Node27&#45;&gt;Node34 -->
<g id="edge38" class="edge"><title>Node27&#45;&gt;Node34</title>
<path fill="none" stroke="midnightblue" d="M818.553,-357.614C884.248,-375.592 1008.19,-405 1116,-405 1116,-405 1116,-405 1453.5,-405 1553.78,-405 1663.32,-352.655 1717.38,-322.962"/>
<polygon fill="midnightblue" stroke="midnightblue" points="1719.16,-325.975 1726.2,-318.05 1715.76,-319.861 1719.16,-325.975"/>
</g>
<!-- Node28&#45;&gt;Node18 -->
<g id="edge29" class="edge"><title>Node28&#45;&gt;Node18</title>
<path fill="none" stroke="midnightblue" d="M930.54,-141.24C876.953,-102.149 669.479,36.5784 541,-57 453.086,-121.032 446.944,-270.155 447.75,-324.086"/>
<polygon fill="midnightblue" stroke="midnightblue" points="444.258,-324.441 448.011,-334.349 451.256,-324.263 444.258,-324.441"/>
</g>
<!-- Node28&#45;&gt;Node29 -->
<g id="edge30" class="edge"><title>Node28&#45;&gt;Node29</title>
<path fill="none" stroke="midnightblue" d="M991.64,-150.188C1006.99,-149.918 1024.51,-149.61 1041.45,-149.312"/>
<polygon fill="midnightblue" stroke="midnightblue" points="1041.96,-152.803 1051.9,-149.128 1041.84,-145.804 1041.96,-152.803"/>
</g>
<!-- Node30 -->
<g id="node30" class="node"><title>Node30</title>
<g id="a_node30"><a xlink:href="$classLinux_1_1Scheduler.html#a647872aff158b510c56862f51f951538" xlink:title="Linux::Scheduler::microsleep">
<polygon fill="white" stroke="black" points="1218,-182.5 1218,-201.5 1361,-201.5 1361,-182.5 1218,-182.5"/>
<text text-anchor="middle" x="1289.5" y="-189.5" font-family="Helvetica,sans-Serif" font-size="10.00">Linux::Scheduler::microsleep</text>
</a>
</g>
</g>
<!-- Node29&#45;&gt;Node30 -->
<g id="edge31" class="edge"><title>Node29&#45;&gt;Node30</title>
<path fill="none" stroke="midnightblue" d="M1176.2,-163.019C1197.57,-168.535 1221.48,-174.704 1241.72,-179.928"/>
<polygon fill="midnightblue" stroke="midnightblue" points="1241.08,-183.378 1251.64,-182.488 1242.83,-176.6 1241.08,-183.378"/>
</g>
<!-- Node31 -->
<g id="node31" class="node"><title>Node31</title>
<g id="a_node31"><a xlink:href="$classLinux_1_1Scheduler.html#ab373a83d818679432520ea881044b2a7" xlink:title="Linux::Scheduler::teardown">
<polygon fill="white" stroke="black" points="1222,-141.5 1222,-160.5 1357,-160.5 1357,-141.5 1222,-141.5"/>
<text text-anchor="middle" x="1289.5" y="-148.5" font-family="Helvetica,sans-Serif" font-size="10.00">Linux::Scheduler::teardown</text>
</a>
</g>
</g>
<!-- Node29&#45;&gt;Node31 -->
<g id="edge32" class="edge"><title>Node29&#45;&gt;Node31</title>
<path fill="none" stroke="midnightblue" d="M1182.46,-149.134C1192.05,-149.303 1202.01,-149.478 1211.82,-149.651"/>
<polygon fill="midnightblue" stroke="midnightblue" points="1211.9,-153.153 1221.96,-149.829 1212.03,-146.154 1211.9,-153.153"/>
</g>
<!-- Node32 -->
<g id="node32" class="node"><title>Node32</title>
<g id="a_node32"><a xlink:href="$classLinux_1_1PeriodicThread.html#a136aaf6e713f63b246fc4a2905e6e9a1" xlink:title="Linux::PeriodicThread\l::stop">
<polygon fill="white" stroke="black" points="1397,-136 1397,-166 1508,-166 1508,-136 1397,-136"/>
<text text-anchor="start" x="1405" y="-154" font-family="Helvetica,sans-Serif" font-size="10.00">Linux::PeriodicThread</text>
<text text-anchor="middle" x="1452.5" y="-143" font-family="Helvetica,sans-Serif" font-size="10.00">::stop</text>
</a>
</g>
</g>
<!-- Node31&#45;&gt;Node32 -->
<g id="edge33" class="edge"><title>Node31&#45;&gt;Node32</title>
<path fill="none" stroke="midnightblue" d="M1357.38,-151C1367.02,-151 1376.94,-151 1386.54,-151"/>
<polygon fill="midnightblue" stroke="midnightblue" points="1386.82,-154.5 1396.82,-151 1386.82,-147.5 1386.82,-154.5"/>
</g>
<!-- Node36 -->
<g id="node36" class="node"><title>Node36</title>
<g id="a_node36"><a xlink:href="$classLinux_1_1Thread.html#a32b7d184279634922e2f3b23b584fbcd" xlink:title="Linux::Thread::join">
<polygon fill="white" stroke="black" points="1404,-185.5 1404,-204.5 1501,-204.5 1501,-185.5 1404,-185.5"/>
<text text-anchor="middle" x="1452.5" y="-192.5" font-family="Helvetica,sans-Serif" font-size="10.00">Linux::Thread::join</text>
</a>
</g>
</g>
<!-- Node31&#45;&gt;Node36 -->
<g id="edge37" class="edge"><title>Node31&#45;&gt;Node36</title>
<path fill="none" stroke="midnightblue" d="M1325.43,-160.547C1349.28,-167.063 1381.07,-175.751 1406.76,-182.772"/>
<polygon fill="midnightblue" stroke="midnightblue" points="1406.06,-186.211 1416.63,-185.471 1407.91,-179.459 1406.06,-186.211"/>
</g>
<!-- Node33 -->
<g id="node33" class="node"><title>Node33</title>
<g id="a_node33"><a xlink:href="$classLinux_1_1Thread.html#a240d7b48a9a8eb43638f67295a1819e5" xlink:title="Linux::Thread::is_started">
<polygon fill="white" stroke="black" points="1544,-193.5 1544,-212.5 1669,-212.5 1669,-193.5 1544,-193.5"/>
<text text-anchor="middle" x="1606.5" y="-200.5" font-family="Helvetica,sans-Serif" font-size="10.00">Linux::Thread::is_started</text>
</a>
</g>
</g>
<!-- Node32&#45;&gt;Node33 -->
<g id="edge34" class="edge"><title>Node32&#45;&gt;Node33</title>
<path fill="none" stroke="midnightblue" d="M1497.46,-166.041C1519.72,-173.653 1546.46,-182.801 1567.76,-190.091"/>
<polygon fill="midnightblue" stroke="midnightblue" points="1566.85,-193.475 1577.44,-193.401 1569.11,-186.852 1566.85,-193.475"/>
</g>
<!-- Node33&#45;&gt;Node34 -->
<g id="edge35" class="edge"><title>Node33&#45;&gt;Node34</title>
<path fill="none" stroke="midnightblue" d="M1621.31,-212.588C1644.28,-228.541 1690.85,-260.885 1721.61,-282.246"/>
<polygon fill="midnightblue" stroke="midnightblue" points="1719.63,-285.128 1729.84,-287.957 1723.62,-279.378 1719.63,-285.128"/>
</g>
<!-- Node35 -->
<g id="node35" class="node"><title>Node35</title>
<g id="a_node35"><a xlink:href="$classLinux_1_1Thread.html#a8d3282b714faaf68eae534e9276419f0" xlink:title="Linux::Thread::set\l_stack_size">
<polygon fill="white" stroke="black" points="1705,-188 1705,-218 1800,-218 1800,-188 1705,-188"/>
<text text-anchor="start" x="1713" y="-206" font-family="Helvetica,sans-Serif" font-size="10.00">Linux::Thread::set</text>
<text text-anchor="middle" x="1752.5" y="-195" font-family="Helvetica,sans-Serif" font-size="10.00">_stack_size</text>
</a>
</g>
</g>
<!-- Node33&#45;&gt;Node35 -->
<g id="edge36" class="edge"><title>Node33&#45;&gt;Node35</title>
<path fill="none" stroke="midnightblue" d="M1669.4,-203C1677.86,-203 1686.5,-203 1694.86,-203"/>
<polygon fill="midnightblue" stroke="midnightblue" points="1694.87,-206.5 1704.87,-203 1694.87,-199.5 1694.87,-206.5"/>
</g>
<!-- Node37&#45;&gt;Node28 -->
<g id="edge40" class="edge"><title>Node37&#45;&gt;Node28</title>
<path fill="none" stroke="midnightblue" d="M811.777,-182.491C836.149,-176.664 867.555,-169.156 893.588,-162.932"/>
<polygon fill="midnightblue" stroke="midnightblue" points="894.73,-166.258 903.642,-160.529 893.103,-159.45 894.73,-166.258"/>
</g>
<!-- Node37&#45;&gt;Node30 -->
<g id="edge41" class="edge"><title>Node37&#45;&gt;Node30</title>
<path fill="none" stroke="midnightblue" d="M830.746,-192C923.248,-192 1103.06,-192 1207.68,-192"/>
<polygon fill="midnightblue" stroke="midnightblue" points="1207.87,-195.5 1217.87,-192 1207.87,-188.5 1207.87,-195.5"/>
</g>
<!-- Node38&#45;&gt;Node30 -->
<g id="edge43" class="edge"><title>Node38&#45;&gt;Node30</title>
<path fill="none" stroke="midnightblue" d="M1004.07,-234.291C1062.07,-225.667 1151.09,-212.431 1214.07,-203.067"/>
<polygon fill="midnightblue" stroke="midnightblue" points="1214.96,-206.473 1224.34,-201.54 1213.93,-199.549 1214.96,-206.473"/>
</g>
<!-- Node40&#45;&gt;Node2 -->
<g id="edge47" class="edge"><title>Node40&#45;&gt;Node2</title>
<path fill="none" stroke="midnightblue" d="M669.085,-609.645C728.364,-622.467 816.753,-641.585 877.091,-654.636"/>
<polygon fill="midnightblue" stroke="midnightblue" points="876.383,-658.064 886.897,-656.757 877.863,-651.222 876.383,-658.064"/>
</g>
<!-- Node42 -->
<g id="node42" class="node"><title>Node42</title>
<g id="a_node42"><a xlink:href="$classLinux_1_1Semaphore.html#afc4c8706abb7e68aa4001ea372dc614e" xlink:title="Linux::Semaphore::take">
<polygon fill="white" stroke="black" points="884.5,-515.5 884.5,-534.5 1004.5,-534.5 1004.5,-515.5 884.5,-515.5"/>
<text text-anchor="middle" x="944.5" y="-522.5" font-family="Helvetica,sans-Serif" font-size="10.00">Linux::Semaphore::take</text>
</a>
</g>
</g>
<!-- Node41&#45;&gt;Node42 -->
<g id="edge49" class="edge"><title>Node41&#45;&gt;Node42</title>
<path fill="none" stroke="midnightblue" d="M837.326,-528.095C849.38,-527.744 862.006,-527.376 874.174,-527.021"/>
<polygon fill="midnightblue" stroke="midnightblue" points="874.371,-530.517 884.265,-526.727 874.167,-523.52 874.371,-530.517"/>
</g>
<!-- Node42&#45;&gt;Node17 -->
<g id="edge51" class="edge"><title>Node42&#45;&gt;Node17</title>
<path fill="none" stroke="midnightblue" d="M934.02,-534.769C916.626,-551.989 877.653,-587.396 837,-603 713.979,-650.22 664.678,-665.472 541,-620 438.608,-582.354 445.853,-519.858 354,-461 342.531,-453.651 329.162,-446.999 317.137,-441.624"/>
<polygon fill="midnightblue" stroke="midnightblue" points="318.411,-438.362 307.844,-437.599 315.629,-444.785 318.411,-438.362"/>
</g>
<!-- Node42&#45;&gt;Node25 -->
<g id="edge52" class="edge"><title>Node42&#45;&gt;Node25</title>
<path fill="none" stroke="midnightblue" d="M972.648,-515.47C985.761,-510.842 1001.71,-505.175 1016,-500 1032.29,-494.1 1050.03,-487.569 1065.99,-481.657"/>
<polygon fill="midnightblue" stroke="midnightblue" points="1067.5,-484.827 1075.66,-478.067 1065.07,-478.264 1067.5,-484.827"/>
</g>
<!-- Node43 -->
<g id="node43" class="node"><title>Node43</title>
<g id="a_node43"><a xlink:href="$classLinux_1_1Semaphore.html#a561b4f40f3a76335f1a686c2aed526f9" xlink:title="Linux::Semaphore::take\l_nonblocking">
<polygon fill="white" stroke="black" points="1057,-510 1057,-540 1177,-540 1177,-510 1057,-510"/>
<text text-anchor="start" x="1065" y="-528" font-family="Helvetica,sans-Serif" font-size="10.00">Linux::Semaphore::take</text>
<text text-anchor="middle" x="1117" y="-517" font-family="Helvetica,sans-Serif" font-size="10.00">_nonblocking</text>
</a>
</g>
</g>
<!-- Node42&#45;&gt;Node43 -->
<g id="edge50" class="edge"><title>Node42&#45;&gt;Node43</title>
<path fill="none" stroke="midnightblue" d="M1004.65,-525C1018.28,-525 1032.88,-525 1046.88,-525"/>
<polygon fill="midnightblue" stroke="midnightblue" points="1046.95,-528.5 1056.95,-525 1046.95,-521.5 1046.95,-528.5"/>
</g>
<!-- Node45 -->
<g id="node45" class="node"><title>Node45</title>
<g id="a_node45"><a xlink:href="$classLinux_1_1Semaphore.html#a216f91636f64b57b59d43ef64af91624" xlink:title="Linux::Semaphore::give">
<polygon fill="white" stroke="black" points="885,-471.5 885,-490.5 1004,-490.5 1004,-471.5 885,-471.5"/>
<text text-anchor="middle" x="944.5" y="-478.5" font-family="Helvetica,sans-Serif" font-size="10.00">Linux::Semaphore::give</text>
</a>
</g>
</g>
<!-- Node44&#45;&gt;Node45 -->
<g id="edge54" class="edge"><title>Node44&#45;&gt;Node45</title>
<path fill="none" stroke="midnightblue" d="M824.855,-447.101C849.117,-454.034 877.521,-462.149 900.453,-468.701"/>
<polygon fill="midnightblue" stroke="midnightblue" points="899.666,-472.116 910.243,-471.498 901.59,-465.385 899.666,-472.116"/>
</g>
<!-- Node48&#45;&gt;Node20 -->
<g id="edge58" class="edge"><title>Node48&#45;&gt;Node20</title>
<path fill="none" stroke="midnightblue" d="M654.332,-310.047C659.521,-312.627 664.53,-315.597 669,-319 690.504,-335.367 682.972,-352.346 705,-368 709.451,-371.163 714.416,-373.836 719.563,-376.093"/>
<polygon fill="midnightblue" stroke="midnightblue" points="718.363,-379.382 728.953,-379.721 720.886,-372.852 718.363,-379.382"/>
</g>
<!-- Node49 -->
<g id="node49" class="node"><title>Node49</title>
<g id="a_node49"><a xlink:href="$classLinux_1_1Scheduler.html#ac52c8da3f1f4fd79c50bd64379daf399" xlink:title="Linux::Scheduler::\l_wait_all_threads">
<polygon fill="white" stroke="black" points="723.5,-280 723.5,-310 818.5,-310 818.5,-280 723.5,-280"/>
<text text-anchor="start" x="731.5" y="-298" font-family="Helvetica,sans-Serif" font-size="10.00">Linux::Scheduler::</text>
<text text-anchor="middle" x="771" y="-287" font-family="Helvetica,sans-Serif" font-size="10.00">_wait_all_threads</text>
</a>
</g>
</g>
<!-- Node48&#45;&gt;Node49 -->
<g id="edge59" class="edge"><title>Node48&#45;&gt;Node49</title>
<path fill="none" stroke="midnightblue" d="M669.407,-295C683.84,-295 699.085,-295 713.222,-295"/>
<polygon fill="midnightblue" stroke="midnightblue" points="713.293,-298.5 723.293,-295 713.293,-291.5 713.293,-298.5"/>
</g>
<!-- Node52 -->
<g id="node52" class="node"><title>Node52</title>
<g id="a_node52"><a xlink:href="$classLinux_1_1Scheduler.html#a70b024d7d0886bf47b46cc3ee310d638" xlink:title="Linux::Scheduler::\l_run_io">
<polygon fill="white" stroke="black" points="723.5,-466 723.5,-496 818.5,-496 818.5,-466 723.5,-466"/>
<text text-anchor="start" x="731.5" y="-484" font-family="Helvetica,sans-Serif" font-size="10.00">Linux::Scheduler::</text>
<text text-anchor="middle" x="771" y="-473" font-family="Helvetica,sans-Serif" font-size="10.00">_run_io</text>
</a>
</g>
</g>
<!-- Node51&#45;&gt;Node52 -->
<g id="edge62" class="edge"><title>Node51&#45;&gt;Node52</title>
<path fill="none" stroke="midnightblue" d="M662.439,-473.786C678.86,-474.887 696.799,-476.09 713.239,-477.193"/>
<polygon fill="midnightblue" stroke="midnightblue" points="713.043,-480.687 723.255,-477.865 713.511,-473.703 713.043,-480.687"/>
</g>
<!-- Node52&#45;&gt;Node42 -->
<g id="edge63" class="edge"><title>Node52&#45;&gt;Node42</title>
<path fill="none" stroke="midnightblue" d="M818.863,-493.023C842.901,-499.19 872.111,-506.684 896.21,-512.867"/>
<polygon fill="midnightblue" stroke="midnightblue" points="895.638,-516.334 906.195,-515.429 897.378,-509.554 895.638,-516.334"/>
</g>
<!-- Node52&#45;&gt;Node45 -->
<g id="edge64" class="edge"><title>Node52&#45;&gt;Node45</title>
<path fill="none" stroke="midnightblue" d="M818.863,-481C836.017,-481 855.806,-481 874.491,-481"/>
<polygon fill="midnightblue" stroke="midnightblue" points="874.734,-484.5 884.734,-481 874.734,-477.5 874.734,-484.5"/>
</g>
</g>
</svg>
