<?xml version="1.0" encoding="UTF-8" standalone="no"?>
<!DOCTYPE svg PUBLIC "-//W3C//DTD SVG 1.1//EN"
 "http://www.w3.org/Graphics/SVG/1.1/DTD/svg11.dtd">
<!-- Generated by graphviz version 2.38.0 (20140413.2041)
 -->
<!-- Title: test_wgs_conversion_functions Pages: 1 -->
<svg width="667pt" height="186pt"
 viewBox="0.00 0.00 667.00 186.00" xmlns="http://www.w3.org/2000/svg" xmlns:xlink="http://www.w3.org/1999/xlink">
<g id="graph0" class="graph" transform="scale(1 1) rotate(0) translate(4 182)">
<title>test_wgs_conversion_functions</title>
<polygon fill="white" stroke="none" points="-4,4 -4,-182 663,-182 663,4 -4,4"/>
<!-- Node1 -->
<g id="node1" class="node"><title>Node1</title>
<polygon fill="#bfbfbf" stroke="black" points="0,-33 0,-63 109,-63 109,-33 0,-33"/>
<text text-anchor="start" x="8" y="-51" font-family="Helvetica,sans-Serif" font-size="10.00">test_wgs_conversion</text>
<text text-anchor="middle" x="54.5" y="-40" font-family="Helvetica,sans-Serif" font-size="10.00">_functions</text>
</g>
<!-- Node2 -->
<g id="node2" class="node"><title>Node2</title>
<g id="a_node2"><a xlink:href="$classAP__HAL_1_1UARTDriver.html#a6ceedc792594e59fc7d80b39a435f027" xlink:title="AP_HAL::UARTDriver\l::printf">
<polygon fill="white" stroke="black" points="145,-77 145,-107 260,-107 260,-77 145,-77"/>
<text text-anchor="start" x="153" y="-95" font-family="Helvetica,sans-Serif" font-size="10.00">AP_HAL::UARTDriver</text>
<text text-anchor="middle" x="202.5" y="-84" font-family="Helvetica,sans-Serif" font-size="10.00">::printf</text>
</a>
</g>
</g>
<!-- Node1&#45;&gt;Node2 -->
<g id="edge1" class="edge"><title>Node1&#45;&gt;Node2</title>
<path fill="none" stroke="midnightblue" d="M105.337,-63.0192C117.069,-66.5552 129.693,-70.3595 141.81,-74.0112"/>
<polygon fill="midnightblue" stroke="midnightblue" points="140.808,-77.3646 151.392,-76.8991 142.828,-70.6624 140.808,-77.3646"/>
</g>
<!-- Node10 -->
<g id="node10" class="node"><title>Node10</title>
<g id="a_node10"><a xlink:href="$location_8cpp.html#a5b6072b7df92379eadfe4cf9cf7e60c7" xlink:title="wgsllh2ecef">
<polygon fill="white" stroke="black" points="168.5,-38.5 168.5,-57.5 236.5,-57.5 236.5,-38.5 168.5,-38.5"/>
<text text-anchor="middle" x="202.5" y="-45.5" font-family="Helvetica,sans-Serif" font-size="10.00">wgsllh2ecef</text>
</a>
</g>
</g>
<!-- Node1&#45;&gt;Node10 -->
<g id="edge9" class="edge"><title>Node1&#45;&gt;Node10</title>
<path fill="none" stroke="midnightblue" d="M109.036,-48C125.17,-48 142.673,-48 158.065,-48"/>
<polygon fill="midnightblue" stroke="midnightblue" points="158.342,-51.5001 168.342,-48 158.342,-44.5001 158.342,-51.5001"/>
</g>
<!-- Node11 -->
<g id="node11" class="node"><title>Node11</title>
<g id="a_node11"><a xlink:href="$location_8cpp.html#ae2228950bd3572416f45c4cd13450b71" xlink:title="wgsecef2llh">
<polygon fill="white" stroke="black" points="168.5,-0.5 168.5,-19.5 236.5,-19.5 236.5,-0.5 168.5,-0.5"/>
<text text-anchor="middle" x="202.5" y="-7.5" font-family="Helvetica,sans-Serif" font-size="10.00">wgsecef2llh</text>
</a>
</g>
</g>
<!-- Node1&#45;&gt;Node11 -->
<g id="edge10" class="edge"><title>Node1&#45;&gt;Node11</title>
<path fill="none" stroke="midnightblue" d="M109.036,-34.066C125.325,-29.8263 143.01,-25.2235 158.509,-21.1895"/>
<polygon fill="midnightblue" stroke="midnightblue" points="159.546,-24.5363 168.342,-18.6302 157.783,-17.762 159.546,-24.5363"/>
</g>
<!-- Node3 -->
<g id="node3" class="node"><title>Node3</title>
<g id="a_node3"><a xlink:href="$classAP__HAL_1_1UARTDriver.html#aa8abfb6d6641299472c29ac1edde559f" xlink:title="AP_HAL::UARTDriver\l::vprintf">
<polygon fill="white" stroke="black" points="296,-77 296,-107 411,-107 411,-77 296,-77"/>
<text text-anchor="start" x="304" y="-95" font-family="Helvetica,sans-Serif" font-size="10.00">AP_HAL::UARTDriver</text>
<text text-anchor="middle" x="353.5" y="-84" font-family="Helvetica,sans-Serif" font-size="10.00">::vprintf</text>
</a>
</g>
</g>
<!-- Node2&#45;&gt;Node3 -->
<g id="edge2" class="edge"><title>Node2&#45;&gt;Node3</title>
<path fill="none" stroke="midnightblue" d="M260.256,-92C268.558,-92 277.173,-92 285.654,-92"/>
<polygon fill="midnightblue" stroke="midnightblue" points="285.902,-95.5001 295.902,-92 285.902,-88.5001 285.902,-95.5001"/>
</g>
<!-- Node4 -->
<g id="node4" class="node"><title>Node4</title>
<g id="a_node4"><a xlink:href="$print__vprintf_8cpp.html#a1534eaeab54696df96975b56d9f49212" xlink:title="print_vprintf">
<polygon fill="white" stroke="black" points="447,-82.5 447,-101.5 515,-101.5 515,-82.5 447,-82.5"/>
<text text-anchor="middle" x="481" y="-89.5" font-family="Helvetica,sans-Serif" font-size="10.00">print_vprintf</text>
</a>
</g>
</g>
<!-- Node3&#45;&gt;Node4 -->
<g id="edge3" class="edge"><title>Node3&#45;&gt;Node4</title>
<path fill="none" stroke="midnightblue" d="M411.009,-92C419.609,-92 428.367,-92 436.628,-92"/>
<polygon fill="midnightblue" stroke="midnightblue" points="436.777,-95.5001 446.777,-92 436.777,-88.5001 436.777,-95.5001"/>
</g>
<!-- Node5 -->
<g id="node5" class="node"><title>Node5</title>
<g id="a_node5"><a xlink:href="$classAP__HAL_1_1Print.html#acc65391952a43334f8f5c9bef341f501" xlink:title="AP_HAL::Print::write">
<polygon fill="white" stroke="black" points="551,-158.5 551,-177.5 659,-177.5 659,-158.5 551,-158.5"/>
<text text-anchor="middle" x="605" y="-165.5" font-family="Helvetica,sans-Serif" font-size="10.00">AP_HAL::Print::write</text>
</a>
</g>
</g>
<!-- Node4&#45;&gt;Node5 -->
<g id="edge4" class="edge"><title>Node4&#45;&gt;Node5</title>
<path fill="none" stroke="midnightblue" d="M491.47,-101.683C504.07,-114.102 527.502,-135.629 551,-149 554.632,-151.067 558.529,-152.973 562.501,-154.715"/>
<polygon fill="midnightblue" stroke="midnightblue" points="561.233,-157.977 571.816,-158.479 563.856,-151.487 561.233,-157.977"/>
</g>
<!-- Node6 -->
<g id="node6" class="node"><title>Node6</title>
<g id="a_node6"><a xlink:href="$ftoa__engine_8cpp.html#a1c28234da8f20b43c85890d4bb452947" xlink:title="ftoa_engine">
<polygon fill="white" stroke="black" points="571.5,-120.5 571.5,-139.5 638.5,-139.5 638.5,-120.5 571.5,-120.5"/>
<text text-anchor="middle" x="605" y="-127.5" font-family="Helvetica,sans-Serif" font-size="10.00">ftoa_engine</text>
</a>
</g>
</g>
<!-- Node4&#45;&gt;Node6 -->
<g id="edge5" class="edge"><title>Node4&#45;&gt;Node6</title>
<path fill="none" stroke="midnightblue" d="M512.786,-101.589C528.101,-106.359 546.817,-112.189 563.3,-117.323"/>
<polygon fill="midnightblue" stroke="midnightblue" points="562.636,-120.782 573.224,-120.414 564.717,-114.099 562.636,-120.782"/>
</g>
<!-- Node7 -->
<g id="node7" class="node"><title>Node7</title>
<g id="a_node7"><a xlink:href="$replace_8cpp.html#a880bcc7b85a09e6254691bebd5344b51" xlink:title="strnlen">
<polygon fill="white" stroke="black" points="582,-82.5 582,-101.5 628,-101.5 628,-82.5 582,-82.5"/>
<text text-anchor="middle" x="605" y="-89.5" font-family="Helvetica,sans-Serif" font-size="10.00">strnlen</text>
</a>
</g>
</g>
<!-- Node4&#45;&gt;Node7 -->
<g id="edge6" class="edge"><title>Node4&#45;&gt;Node7</title>
<path fill="none" stroke="midnightblue" d="M515.015,-92C532.547,-92 554.016,-92 571.474,-92"/>
<polygon fill="midnightblue" stroke="midnightblue" points="571.754,-95.5001 581.754,-92 571.754,-88.5001 571.754,-95.5001"/>
</g>
<!-- Node8 -->
<g id="node8" class="node"><title>Node8</title>
<g id="a_node8"><a xlink:href="$utoa__invert_8cpp.html#a34926f552460b47c414ec4d83b32815c" xlink:title="ulltoa_invert">
<polygon fill="white" stroke="black" points="570.5,-44.5 570.5,-63.5 639.5,-63.5 639.5,-44.5 570.5,-44.5"/>
<text text-anchor="middle" x="605" y="-51.5" font-family="Helvetica,sans-Serif" font-size="10.00">ulltoa_invert</text>
</a>
</g>
</g>
<!-- Node4&#45;&gt;Node8 -->
<g id="edge7" class="edge"><title>Node4&#45;&gt;Node8</title>
<path fill="none" stroke="midnightblue" d="M512.786,-82.411C528.101,-77.6406 546.817,-71.8112 563.3,-66.6771"/>
<polygon fill="midnightblue" stroke="midnightblue" points="564.717,-69.9015 573.224,-63.5859 562.636,-63.2182 564.717,-69.9015"/>
</g>
<!-- Node9 -->
<g id="node9" class="node"><title>Node9</title>
<g id="a_node9"><a xlink:href="$utoa__invert_8cpp.html#a5d99bba8e697c1e11da489d88fca8559" xlink:title="ultoa_invert">
<polygon fill="white" stroke="black" points="571.5,-6.5 571.5,-25.5 638.5,-25.5 638.5,-6.5 571.5,-6.5"/>
<text text-anchor="middle" x="605" y="-13.5" font-family="Helvetica,sans-Serif" font-size="10.00">ultoa_invert</text>
</a>
</g>
</g>
<!-- Node4&#45;&gt;Node9 -->
<g id="edge8" class="edge"><title>Node4&#45;&gt;Node9</title>
<path fill="none" stroke="midnightblue" d="M491.47,-82.3175C504.07,-69.8984 527.502,-48.371 551,-35 554.632,-32.9334 558.529,-31.0271 562.501,-29.2853"/>
<polygon fill="midnightblue" stroke="midnightblue" points="563.856,-32.5129 571.816,-25.5214 561.233,-26.0226 563.856,-32.5129"/>
</g>
<!-- Node12 -->
<g id="node12" class="node"><title>Node12</title>
<g id="a_node12"><a xlink:href="$AP__Math_8h.html#a2a12cce483e9b870da70d30406d82c60" xlink:title="is_zero">
<polygon fill="white" stroke="black" points="329.5,-0.5 329.5,-19.5 377.5,-19.5 377.5,-0.5 329.5,-0.5"/>
<text text-anchor="middle" x="353.5" y="-7.5" font-family="Helvetica,sans-Serif" font-size="10.00">is_zero</text>
</a>
</g>
</g>
<!-- Node11&#45;&gt;Node12 -->
<g id="edge11" class="edge"><title>Node11&#45;&gt;Node12</title>
<path fill="none" stroke="midnightblue" d="M236.568,-10C261.064,-10 294.323,-10 318.937,-10"/>
<polygon fill="midnightblue" stroke="midnightblue" points="319.239,-13.5001 329.239,-10 319.239,-6.5001 319.239,-13.5001"/>
</g>
</g>
</svg>
