<?xml version="1.0" encoding="UTF-8" standalone="no"?>
<!DOCTYPE svg PUBLIC "-//W3C//DTD SVG 1.1//EN"
 "http://www.w3.org/Graphics/SVG/1.1/DTD/svg11.dtd">
<!-- Generated by graphviz version 2.38.0 (20140413.2041)
 -->
<!-- Title: setup Pages: 1 -->
<svg width="955pt" height="414pt"
 viewBox="0.00 0.00 955.00 414.00" xmlns="http://www.w3.org/2000/svg" xmlns:xlink="http://www.w3.org/1999/xlink">
<g id="graph0" class="graph" transform="scale(1 1) rotate(0) translate(4 410)">
<title>setup</title>
<polygon fill="white" stroke="none" points="-4,4 -4,-410 951,-410 951,4 -4,4"/>
<!-- Node1 -->
<g id="node1" class="node"><title>Node1</title>
<polygon fill="#bfbfbf" stroke="black" points="0,-250.5 0,-269.5 41,-269.5 41,-250.5 0,-250.5"/>
<text text-anchor="middle" x="20.5" y="-257.5" font-family="Helvetica,sans-Serif" font-size="10.00">setup</text>
</g>
<!-- Node2 -->
<g id="node2" class="node"><title>Node2</title>
<g id="a_node2"><a xlink:href="$classAP__HAL_1_1UARTDriver.html#a6ceedc792594e59fc7d80b39a435f027" xlink:title="AP_HAL::UARTDriver\l::printf">
<polygon fill="white" stroke="black" points="433,-305 433,-335 548,-335 548,-305 433,-305"/>
<text text-anchor="start" x="441" y="-323" font-family="Helvetica,sans-Serif" font-size="10.00">AP_HAL::UARTDriver</text>
<text text-anchor="middle" x="490.5" y="-312" font-family="Helvetica,sans-Serif" font-size="10.00">::printf</text>
</a>
</g>
</g>
<!-- Node1&#45;&gt;Node2 -->
<g id="edge1" class="edge"><title>Node1&#45;&gt;Node2</title>
<path fill="none" stroke="midnightblue" d="M41.0139,-264.548C89.2184,-275.556 217.93,-303.567 327,-315 358.388,-318.29 393.359,-319.66 422.793,-320.16"/>
<polygon fill="midnightblue" stroke="midnightblue" points="422.911,-323.661 432.959,-320.302 423.009,-316.662 422.911,-323.661"/>
</g>
<!-- Node10 -->
<g id="node10" class="node"><title>Node10</title>
<g id="a_node10"><a xlink:href="$examples_2matrix__alg_2matrix__alg_8cpp.html#ae8e7c670ea1148547afa4fa716bf5d93" xlink:title="test_matrix_inverse">
<polygon fill="white" stroke="black" points="77,-193.5 77,-212.5 179,-212.5 179,-193.5 77,-193.5"/>
<text text-anchor="middle" x="128" y="-200.5" font-family="Helvetica,sans-Serif" font-size="10.00">test_matrix_inverse</text>
</a>
</g>
</g>
<!-- Node1&#45;&gt;Node10 -->
<g id="edge9" class="edge"><title>Node1&#45;&gt;Node10</title>
<path fill="none" stroke="midnightblue" d="M39.3966,-250.331C56.1697,-241.269 81.4525,-227.609 100.552,-217.289"/>
<polygon fill="midnightblue" stroke="midnightblue" points="102.233,-220.359 109.368,-212.526 98.9059,-214.201 102.233,-220.359"/>
</g>
<!-- Node3 -->
<g id="node3" class="node"><title>Node3</title>
<g id="a_node3"><a xlink:href="$classAP__HAL_1_1UARTDriver.html#aa8abfb6d6641299472c29ac1edde559f" xlink:title="AP_HAL::UARTDriver\l::vprintf">
<polygon fill="white" stroke="black" points="584,-305 584,-335 699,-335 699,-305 584,-305"/>
<text text-anchor="start" x="592" y="-323" font-family="Helvetica,sans-Serif" font-size="10.00">AP_HAL::UARTDriver</text>
<text text-anchor="middle" x="641.5" y="-312" font-family="Helvetica,sans-Serif" font-size="10.00">::vprintf</text>
</a>
</g>
</g>
<!-- Node2&#45;&gt;Node3 -->
<g id="edge2" class="edge"><title>Node2&#45;&gt;Node3</title>
<path fill="none" stroke="midnightblue" d="M548.256,-320C556.558,-320 565.173,-320 573.654,-320"/>
<polygon fill="midnightblue" stroke="midnightblue" points="573.902,-323.5 583.902,-320 573.902,-316.5 573.902,-323.5"/>
</g>
<!-- Node4 -->
<g id="node4" class="node"><title>Node4</title>
<g id="a_node4"><a xlink:href="$print__vprintf_8cpp.html#a1534eaeab54696df96975b56d9f49212" xlink:title="print_vprintf">
<polygon fill="white" stroke="black" points="735,-310.5 735,-329.5 803,-329.5 803,-310.5 735,-310.5"/>
<text text-anchor="middle" x="769" y="-317.5" font-family="Helvetica,sans-Serif" font-size="10.00">print_vprintf</text>
</a>
</g>
</g>
<!-- Node3&#45;&gt;Node4 -->
<g id="edge3" class="edge"><title>Node3&#45;&gt;Node4</title>
<path fill="none" stroke="midnightblue" d="M699.009,-320C707.609,-320 716.367,-320 724.628,-320"/>
<polygon fill="midnightblue" stroke="midnightblue" points="724.777,-323.5 734.777,-320 724.777,-316.5 724.777,-323.5"/>
</g>
<!-- Node5 -->
<g id="node5" class="node"><title>Node5</title>
<g id="a_node5"><a xlink:href="$classAP__HAL_1_1Print.html#acc65391952a43334f8f5c9bef341f501" xlink:title="AP_HAL::Print::write">
<polygon fill="white" stroke="black" points="839,-386.5 839,-405.5 947,-405.5 947,-386.5 839,-386.5"/>
<text text-anchor="middle" x="893" y="-393.5" font-family="Helvetica,sans-Serif" font-size="10.00">AP_HAL::Print::write</text>
</a>
</g>
</g>
<!-- Node4&#45;&gt;Node5 -->
<g id="edge4" class="edge"><title>Node4&#45;&gt;Node5</title>
<path fill="none" stroke="midnightblue" d="M779.47,-329.683C792.07,-342.102 815.502,-363.629 839,-377 842.632,-379.067 846.529,-380.973 850.501,-382.715"/>
<polygon fill="midnightblue" stroke="midnightblue" points="849.233,-385.977 859.816,-386.479 851.856,-379.487 849.233,-385.977"/>
</g>
<!-- Node6 -->
<g id="node6" class="node"><title>Node6</title>
<g id="a_node6"><a xlink:href="$ftoa__engine_8cpp.html#a1c28234da8f20b43c85890d4bb452947" xlink:title="ftoa_engine">
<polygon fill="white" stroke="black" points="859.5,-348.5 859.5,-367.5 926.5,-367.5 926.5,-348.5 859.5,-348.5"/>
<text text-anchor="middle" x="893" y="-355.5" font-family="Helvetica,sans-Serif" font-size="10.00">ftoa_engine</text>
</a>
</g>
</g>
<!-- Node4&#45;&gt;Node6 -->
<g id="edge5" class="edge"><title>Node4&#45;&gt;Node6</title>
<path fill="none" stroke="midnightblue" d="M800.786,-329.589C816.101,-334.359 834.817,-340.189 851.3,-345.323"/>
<polygon fill="midnightblue" stroke="midnightblue" points="850.636,-348.782 861.224,-348.414 852.717,-342.099 850.636,-348.782"/>
</g>
<!-- Node7 -->
<g id="node7" class="node"><title>Node7</title>
<g id="a_node7"><a xlink:href="$replace_8cpp.html#a880bcc7b85a09e6254691bebd5344b51" xlink:title="strnlen">
<polygon fill="white" stroke="black" points="870,-310.5 870,-329.5 916,-329.5 916,-310.5 870,-310.5"/>
<text text-anchor="middle" x="893" y="-317.5" font-family="Helvetica,sans-Serif" font-size="10.00">strnlen</text>
</a>
</g>
</g>
<!-- Node4&#45;&gt;Node7 -->
<g id="edge6" class="edge"><title>Node4&#45;&gt;Node7</title>
<path fill="none" stroke="midnightblue" d="M803.015,-320C820.547,-320 842.016,-320 859.474,-320"/>
<polygon fill="midnightblue" stroke="midnightblue" points="859.754,-323.5 869.754,-320 859.754,-316.5 859.754,-323.5"/>
</g>
<!-- Node8 -->
<g id="node8" class="node"><title>Node8</title>
<g id="a_node8"><a xlink:href="$utoa__invert_8cpp.html#a34926f552460b47c414ec4d83b32815c" xlink:title="ulltoa_invert">
<polygon fill="white" stroke="black" points="858.5,-272.5 858.5,-291.5 927.5,-291.5 927.5,-272.5 858.5,-272.5"/>
<text text-anchor="middle" x="893" y="-279.5" font-family="Helvetica,sans-Serif" font-size="10.00">ulltoa_invert</text>
</a>
</g>
</g>
<!-- Node4&#45;&gt;Node8 -->
<g id="edge7" class="edge"><title>Node4&#45;&gt;Node8</title>
<path fill="none" stroke="midnightblue" d="M800.786,-310.411C816.101,-305.641 834.817,-299.811 851.3,-294.677"/>
<polygon fill="midnightblue" stroke="midnightblue" points="852.717,-297.901 861.224,-291.586 850.636,-291.218 852.717,-297.901"/>
</g>
<!-- Node9 -->
<g id="node9" class="node"><title>Node9</title>
<g id="a_node9"><a xlink:href="$utoa__invert_8cpp.html#a5d99bba8e697c1e11da489d88fca8559" xlink:title="ultoa_invert">
<polygon fill="white" stroke="black" points="859.5,-234.5 859.5,-253.5 926.5,-253.5 926.5,-234.5 859.5,-234.5"/>
<text text-anchor="middle" x="893" y="-241.5" font-family="Helvetica,sans-Serif" font-size="10.00">ultoa_invert</text>
</a>
</g>
</g>
<!-- Node4&#45;&gt;Node9 -->
<g id="edge8" class="edge"><title>Node4&#45;&gt;Node9</title>
<path fill="none" stroke="midnightblue" d="M779.47,-310.317C792.07,-297.898 815.502,-276.371 839,-263 842.632,-260.933 846.529,-259.027 850.501,-257.285"/>
<polygon fill="midnightblue" stroke="midnightblue" points="851.856,-260.513 859.816,-253.521 849.233,-254.023 851.856,-260.513"/>
</g>
<!-- Node10&#45;&gt;Node2 -->
<g id="edge26" class="edge"><title>Node10&#45;&gt;Node2</title>
<path fill="none" stroke="midnightblue" d="M140.44,-212.621C156.205,-225.381 185.966,-247.716 215,-260 282.81,-288.69 366.082,-304.406 423.011,-312.474"/>
<polygon fill="midnightblue" stroke="midnightblue" points="422.587,-315.949 432.971,-313.846 423.542,-309.014 422.587,-315.949"/>
</g>
<!-- Node11 -->
<g id="node11" class="node"><title>Node11</title>
<g id="a_node11"><a xlink:href="$examples_2matrix__alg_2matrix__alg_8cpp.html#ae90ca0cc108035a18d1a2b972743b781" xlink:title="get_random">
<polygon fill="white" stroke="black" points="219,-231.5 219,-250.5 287,-250.5 287,-231.5 219,-231.5"/>
<text text-anchor="middle" x="253" y="-238.5" font-family="Helvetica,sans-Serif" font-size="10.00">get_random</text>
</a>
</g>
</g>
<!-- Node10&#45;&gt;Node11 -->
<g id="edge10" class="edge"><title>Node10&#45;&gt;Node11</title>
<path fill="none" stroke="midnightblue" d="M160.038,-212.589C175.479,-217.359 194.348,-223.189 210.966,-228.323"/>
<polygon fill="midnightblue" stroke="midnightblue" points="210.384,-231.806 220.972,-231.414 212.451,-225.118 210.384,-231.806"/>
</g>
<!-- Node12 -->
<g id="node12" class="node"><title>Node12</title>
<g id="a_node12"><a xlink:href="$matrix__alg_8cpp.html#adfb798dabbcb4c7a82b3a08978bd8738" xlink:title="inverse">
<polygon fill="white" stroke="black" points="229,-193.5 229,-212.5 277,-212.5 277,-193.5 229,-193.5"/>
<text text-anchor="middle" x="253" y="-200.5" font-family="Helvetica,sans-Serif" font-size="10.00">inverse</text>
</a>
</g>
</g>
<!-- Node10&#45;&gt;Node12 -->
<g id="edge11" class="edge"><title>Node10&#45;&gt;Node12</title>
<path fill="none" stroke="midnightblue" d="M179.029,-203C192.404,-203 206.529,-203 218.752,-203"/>
<polygon fill="midnightblue" stroke="midnightblue" points="218.937,-206.5 228.937,-203 218.937,-199.5 218.937,-206.5"/>
</g>
<!-- Node20 -->
<g id="node20" class="node"><title>Node20</title>
<g id="a_node20"><a xlink:href="$matrix__alg_8cpp.html#a9e2d939e8250f6c633d3b87661b04d45" xlink:title="mat_mul">
<polygon fill="white" stroke="black" points="614.5,-190.5 614.5,-209.5 668.5,-209.5 668.5,-190.5 614.5,-190.5"/>
<text text-anchor="middle" x="641.5" y="-197.5" font-family="Helvetica,sans-Serif" font-size="10.00">mat_mul</text>
</a>
</g>
</g>
<!-- Node10&#45;&gt;Node20 -->
<g id="edge25" class="edge"><title>Node10&#45;&gt;Node20</title>
<path fill="none" stroke="midnightblue" d="M143.282,-193.464C197.794,-158.33 397.268,-41.3842 548,-105 584.908,-120.577 614.381,-158.875 629.473,-181.806"/>
<polygon fill="midnightblue" stroke="midnightblue" points="626.558,-183.745 634.874,-190.31 632.467,-179.992 626.558,-183.745"/>
</g>
<!-- Node23 -->
<g id="node23" class="node"><title>Node23</title>
<g id="a_node23"><a xlink:href="$examples_2matrix__alg_2matrix__alg_8cpp.html#a6012b8662c48e5734649a5d39fcecd5f" xlink:title="show_matrix">
<polygon fill="white" stroke="black" points="217,-38.5 217,-57.5 289,-57.5 289,-38.5 217,-38.5"/>
<text text-anchor="middle" x="253" y="-45.5" font-family="Helvetica,sans-Serif" font-size="10.00">show_matrix</text>
</a>
</g>
</g>
<!-- Node10&#45;&gt;Node23 -->
<g id="edge27" class="edge"><title>Node10&#45;&gt;Node23</title>
<path fill="none" stroke="midnightblue" d="M133.497,-193.488C144.709,-170.498 175.841,-110.945 215,-72 218.115,-68.9022 221.692,-65.9875 225.368,-63.3293"/>
<polygon fill="midnightblue" stroke="midnightblue" points="227.559,-66.0756 233.952,-57.6272 223.686,-60.2447 227.559,-66.0756"/>
</g>
<!-- Node24 -->
<g id="node24" class="node"><title>Node24</title>
<g id="a_node24"><a xlink:href="$examples_2matrix__alg_2matrix__alg_8cpp.html#a858f8d26fcfdfab738a4a08e7ff382cc" xlink:title="compare_mat">
<polygon fill="white" stroke="black" points="215,-0.5 215,-19.5 291,-19.5 291,-0.5 215,-0.5"/>
<text text-anchor="middle" x="253" y="-7.5" font-family="Helvetica,sans-Serif" font-size="10.00">compare_mat</text>
</a>
</g>
</g>
<!-- Node10&#45;&gt;Node24 -->
<g id="edge28" class="edge"><title>Node10&#45;&gt;Node24</title>
<path fill="none" stroke="midnightblue" d="M131.413,-193.457C139.038,-165.015 165.112,-79.6599 215,-29 216.254,-27.7266 217.611,-26.5218 219.04,-25.3843"/>
<polygon fill="midnightblue" stroke="midnightblue" points="221.38,-28.033 227.788,-19.5954 217.517,-22.1955 221.38,-28.033"/>
</g>
<!-- Node13 -->
<g id="node13" class="node"><title>Node13</title>
<g id="a_node13"><a xlink:href="$matrix__alg_8cpp.html#a3aede2abf8bd30869b72dadaeb9e2c17" xlink:title="inverse3x3">
<polygon fill="white" stroke="black" points="330,-212.5 330,-231.5 394,-231.5 394,-212.5 330,-212.5"/>
<text text-anchor="middle" x="362" y="-219.5" font-family="Helvetica,sans-Serif" font-size="10.00">inverse3x3</text>
</a>
</g>
</g>
<!-- Node12&#45;&gt;Node13 -->
<g id="edge12" class="edge"><title>Node12&#45;&gt;Node13</title>
<path fill="none" stroke="midnightblue" d="M277.217,-207.123C289.582,-209.318 305.165,-212.085 319.528,-214.636"/>
<polygon fill="midnightblue" stroke="midnightblue" points="319.249,-218.141 329.707,-216.443 320.473,-211.249 319.249,-218.141"/>
</g>
<!-- Node15 -->
<g id="node15" class="node"><title>Node15</title>
<g id="a_node15"><a xlink:href="$matrix__alg_8cpp.html#a5b0d60d12edb0ce4c1ed6599acccc6db" xlink:title="inverse4x4">
<polygon fill="white" stroke="black" points="330,-250.5 330,-269.5 394,-269.5 394,-250.5 330,-250.5"/>
<text text-anchor="middle" x="362" y="-257.5" font-family="Helvetica,sans-Serif" font-size="10.00">inverse4x4</text>
</a>
</g>
</g>
<!-- Node12&#45;&gt;Node15 -->
<g id="edge14" class="edge"><title>Node12&#45;&gt;Node15</title>
<path fill="none" stroke="midnightblue" d="M272.866,-212.583C278.695,-215.571 285.125,-218.898 291,-222 305.464,-229.638 321.507,-238.331 334.581,-245.473"/>
<polygon fill="midnightblue" stroke="midnightblue" points="333.059,-248.63 343.512,-250.362 336.421,-242.49 333.059,-248.63"/>
</g>
<!-- Node16 -->
<g id="node16" class="node"><title>Node16</title>
<g id="a_node16"><a xlink:href="$matrix__alg_8cpp.html#aec3cfc51b8c044f4faa4ab1d3a146435" xlink:title="mat_inverse">
<polygon fill="white" stroke="black" points="327,-174.5 327,-193.5 397,-193.5 397,-174.5 327,-174.5"/>
<text text-anchor="middle" x="362" y="-181.5" font-family="Helvetica,sans-Serif" font-size="10.00">mat_inverse</text>
</a>
</g>
</g>
<!-- Node12&#45;&gt;Node16 -->
<g id="edge17" class="edge"><title>Node12&#45;&gt;Node16</title>
<path fill="none" stroke="midnightblue" d="M277.217,-198.877C288.776,-196.825 303.148,-194.273 316.706,-191.865"/>
<polygon fill="midnightblue" stroke="midnightblue" points="317.621,-195.258 326.855,-190.063 316.397,-188.365 317.621,-195.258"/>
</g>
<!-- Node14 -->
<g id="node14" class="node"><title>Node14</title>
<g id="a_node14"><a xlink:href="$AP__Math_8h.html#a2a12cce483e9b870da70d30406d82c60" xlink:title="is_zero">
<polygon fill="white" stroke="black" points="466.5,-266.5 466.5,-285.5 514.5,-285.5 514.5,-266.5 466.5,-266.5"/>
<text text-anchor="middle" x="490.5" y="-273.5" font-family="Helvetica,sans-Serif" font-size="10.00">is_zero</text>
</a>
</g>
</g>
<!-- Node13&#45;&gt;Node14 -->
<g id="edge13" class="edge"><title>Node13&#45;&gt;Node14</title>
<path fill="none" stroke="midnightblue" d="M380.52,-231.615C394.491,-239.071 414.683,-249.384 433,-257 440.592,-260.157 448.914,-263.184 456.782,-265.858"/>
<polygon fill="midnightblue" stroke="midnightblue" points="455.822,-269.227 466.415,-269.04 458.017,-262.58 455.822,-269.227"/>
</g>
<!-- Node15&#45;&gt;Node2 -->
<g id="edge15" class="edge"><title>Node15&#45;&gt;Node2</title>
<path fill="none" stroke="midnightblue" d="M381.601,-269.599C395.64,-276.771 415.422,-286.722 433,-295 437.039,-296.902 441.259,-298.847 445.493,-300.77"/>
<polygon fill="midnightblue" stroke="midnightblue" points="444.166,-304.011 454.722,-304.92 447.037,-297.626 444.166,-304.011"/>
</g>
<!-- Node15&#45;&gt;Node14 -->
<g id="edge16" class="edge"><title>Node15&#45;&gt;Node14</title>
<path fill="none" stroke="midnightblue" d="M394.27,-263.955C413.036,-266.329 436.9,-269.347 456.044,-271.768"/>
<polygon fill="midnightblue" stroke="midnightblue" points="455.772,-275.262 466.132,-273.044 456.65,-268.317 455.772,-275.262"/>
</g>
<!-- Node17 -->
<g id="node17" class="node"><title>Node17</title>
<g id="a_node17"><a xlink:href="$matrix__alg_8cpp.html#a71120309d433abdf23de6c2d78440b1c" xlink:title="mat_LU_decompose">
<polygon fill="white" stroke="black" points="437,-228.5 437,-247.5 544,-247.5 544,-228.5 437,-228.5"/>
<text text-anchor="middle" x="490.5" y="-235.5" font-family="Helvetica,sans-Serif" font-size="10.00">mat_LU_decompose</text>
</a>
</g>
</g>
<!-- Node16&#45;&gt;Node17 -->
<g id="edge18" class="edge"><title>Node16&#45;&gt;Node17</title>
<path fill="none" stroke="midnightblue" d="M385.375,-193.611C399.112,-199.506 417.069,-207.203 433,-214 440.944,-217.39 449.522,-221.039 457.535,-224.443"/>
<polygon fill="midnightblue" stroke="midnightblue" points="456.376,-227.753 466.948,-228.44 459.112,-221.31 456.376,-227.753"/>
</g>
<!-- Node16&#45;&gt;Node20 -->
<g id="edge24" class="edge"><title>Node16&#45;&gt;Node20</title>
<path fill="none" stroke="midnightblue" d="M397.027,-185.962C449.672,-188.997 550.404,-194.805 604.324,-197.914"/>
<polygon fill="midnightblue" stroke="midnightblue" points="604.271,-201.417 614.456,-198.498 604.674,-194.428 604.271,-201.417"/>
</g>
<!-- Node21 -->
<g id="node21" class="node"><title>Node21</title>
<g id="a_node21"><a xlink:href="$matrix__alg_8cpp.html#ae99d89fadc41e4ff699c74822490a71e" xlink:title="mat_forward_sub">
<polygon fill="white" stroke="black" points="444.5,-152.5 444.5,-171.5 536.5,-171.5 536.5,-152.5 444.5,-152.5"/>
<text text-anchor="middle" x="490.5" y="-159.5" font-family="Helvetica,sans-Serif" font-size="10.00">mat_forward_sub</text>
</a>
</g>
</g>
<!-- Node16&#45;&gt;Node21 -->
<g id="edge22" class="edge"><title>Node16&#45;&gt;Node21</title>
<path fill="none" stroke="midnightblue" d="M397.233,-178.046C408.665,-176.058 421.711,-173.789 434.322,-171.596"/>
<polygon fill="midnightblue" stroke="midnightblue" points="435.051,-175.022 444.304,-169.86 433.852,-168.125 435.051,-175.022"/>
</g>
<!-- Node22 -->
<g id="node22" class="node"><title>Node22</title>
<g id="a_node22"><a xlink:href="$matrix__alg_8cpp.html#a5f5a54d345886bbaf464910d3a1cf139" xlink:title="mat_back_sub">
<polygon fill="white" stroke="black" points="450.5,-114.5 450.5,-133.5 530.5,-133.5 530.5,-114.5 450.5,-114.5"/>
<text text-anchor="middle" x="490.5" y="-121.5" font-family="Helvetica,sans-Serif" font-size="10.00">mat_back_sub</text>
</a>
</g>
</g>
<!-- Node16&#45;&gt;Node22 -->
<g id="edge23" class="edge"><title>Node16&#45;&gt;Node22</title>
<path fill="none" stroke="midnightblue" d="M377.28,-174.457C391.106,-165.505 412.875,-152.16 433,-143 437.707,-140.858 442.728,-138.828 447.763,-136.948"/>
<polygon fill="midnightblue" stroke="midnightblue" points="449.132,-140.176 457.381,-133.529 446.787,-133.581 449.132,-140.176"/>
</g>
<!-- Node18 -->
<g id="node18" class="node"><title>Node18</title>
<g id="a_node18"><a xlink:href="$matrix__alg_8cpp.html#a7a49fc8b7a650e05045994ffba7c1dbc" xlink:title="mat_pivot">
<polygon fill="white" stroke="black" points="612,-228.5 612,-247.5 671,-247.5 671,-228.5 612,-228.5"/>
<text text-anchor="middle" x="641.5" y="-235.5" font-family="Helvetica,sans-Serif" font-size="10.00">mat_pivot</text>
</a>
</g>
</g>
<!-- Node17&#45;&gt;Node18 -->
<g id="edge19" class="edge"><title>Node17&#45;&gt;Node18</title>
<path fill="none" stroke="midnightblue" d="M544.032,-238C562.904,-238 583.843,-238 601.376,-238"/>
<polygon fill="midnightblue" stroke="midnightblue" points="601.804,-241.5 611.804,-238 601.804,-234.5 601.804,-241.5"/>
</g>
<!-- Node17&#45;&gt;Node20 -->
<g id="edge21" class="edge"><title>Node17&#45;&gt;Node20</title>
<path fill="none" stroke="midnightblue" d="M529.099,-228.411C552.125,-222.538 581.444,-215.061 604.223,-209.252"/>
<polygon fill="midnightblue" stroke="midnightblue" points="605.359,-212.574 614.183,-206.712 603.629,-205.791 605.359,-212.574"/>
</g>
<!-- Node19 -->
<g id="node19" class="node"><title>Node19</title>
<g id="a_node19"><a xlink:href="$matrix__alg_8cpp.html#a4ae7bd9da0bae1b05a7c352df26008ff" xlink:title="swap">
<polygon fill="white" stroke="black" points="749,-228.5 749,-247.5 789,-247.5 789,-228.5 749,-228.5"/>
<text text-anchor="middle" x="769" y="-235.5" font-family="Helvetica,sans-Serif" font-size="10.00">swap</text>
</a>
</g>
</g>
<!-- Node18&#45;&gt;Node19 -->
<g id="edge20" class="edge"><title>Node18&#45;&gt;Node19</title>
<path fill="none" stroke="midnightblue" d="M671.292,-238C691.413,-238 718.198,-238 738.477,-238"/>
<polygon fill="midnightblue" stroke="midnightblue" points="738.704,-241.5 748.704,-238 738.704,-234.5 738.704,-241.5"/>
</g>
</g>
</svg>
