<?xml version="1.0" encoding="UTF-8" standalone="no"?>
<!DOCTYPE svg PUBLIC "-//W3C//DTD SVG 1.1//EN"
 "http://www.w3.org/Graphics/SVG/1.1/DTD/svg11.dtd">
<!-- Generated by graphviz version 2.38.0 (20140413.2041)
 -->
<!-- Title: libraries/AP_Common/missing/fenv.h Pages: 1 -->
<svg width="412pt" height="106pt"
 viewBox="0.00 0.00 411.50 106.00" xmlns="http://www.w3.org/2000/svg" xmlns:xlink="http://www.w3.org/1999/xlink">
<g id="graph0" class="graph" transform="scale(1 1) rotate(0) translate(4 102)">
<title>libraries/AP_Common/missing/fenv.h</title>
<polygon fill="white" stroke="none" points="-4,4 -4,-102 407.5,-102 407.5,4 -4,4"/>
<!-- Node1 -->
<g id="node1" class="node"><title>Node1</title>
<polygon fill="#bfbfbf" stroke="black" points="146.5,-67.5 146.5,-97.5 258.5,-97.5 258.5,-67.5 146.5,-67.5"/>
<text text-anchor="start" x="154.5" y="-85.5" font-family="Helvetica,sans-Serif" font-size="10.00">libraries/AP_Common</text>
<text text-anchor="middle" x="202.5" y="-74.5" font-family="Helvetica,sans-Serif" font-size="10.00">/missing/fenv.h</text>
</g>
<!-- Node2 -->
<g id="node2" class="node"><title>Node2</title>
<g id="a_node2"><a xlink:href="$AP__HAL__QURT_2system_8cpp.html" xlink:title="libraries/AP_HAL_QURT\l/system.cpp">
<polygon fill="white" stroke="black" points="0,-0.5 0,-30.5 125,-30.5 125,-0.5 0,-0.5"/>
<text text-anchor="start" x="8" y="-18.5" font-family="Helvetica,sans-Serif" font-size="10.00">libraries/AP_HAL_QURT</text>
<text text-anchor="middle" x="62.5" y="-7.5" font-family="Helvetica,sans-Serif" font-size="10.00">/system.cpp</text>
</a>
</g>
</g>
<!-- Node1&#45;&gt;Node2 -->
<g id="edge1" class="edge"><title>Node1&#45;&gt;Node2</title>
<path fill="none" stroke="midnightblue" d="M162.935,-63.1305C140.69,-52.8025 113.353,-40.1103 92.8186,-30.5765"/>
<polygon fill="midnightblue" stroke="midnightblue" points="161.578,-66.3593 172.122,-67.396 164.526,-60.0103 161.578,-66.3593"/>
</g>
<!-- Node3 -->
<g id="node3" class="node"><title>Node3</title>
<g id="a_node3"><a xlink:href="$AP__HAL__SITL_2Scheduler_8cpp.html" xlink:title="libraries/AP_HAL_SITL\l/Scheduler.cpp">
<polygon fill="white" stroke="black" points="143.5,-0.5 143.5,-30.5 261.5,-30.5 261.5,-0.5 143.5,-0.5"/>
<text text-anchor="start" x="151.5" y="-18.5" font-family="Helvetica,sans-Serif" font-size="10.00">libraries/AP_HAL_SITL</text>
<text text-anchor="middle" x="202.5" y="-7.5" font-family="Helvetica,sans-Serif" font-size="10.00">/Scheduler.cpp</text>
</a>
</g>
</g>
<!-- Node1&#45;&gt;Node3 -->
<g id="edge2" class="edge"><title>Node1&#45;&gt;Node3</title>
<path fill="none" stroke="midnightblue" d="M202.5,-57.1081C202.5,-48.1539 202.5,-38.3227 202.5,-30.5765"/>
<polygon fill="midnightblue" stroke="midnightblue" points="199,-57.3959 202.5,-67.396 206,-57.396 199,-57.3959"/>
</g>
<!-- Node4 -->
<g id="node4" class="node"><title>Node4</title>
<g id="a_node4"><a xlink:href="$matrix__alg_8cpp.html" xlink:title="libraries/AP_Math/matrix\l_alg.cpp">
<polygon fill="white" stroke="black" points="279.5,-0.5 279.5,-30.5 403.5,-30.5 403.5,-0.5 279.5,-0.5"/>
<text text-anchor="start" x="287.5" y="-18.5" font-family="Helvetica,sans-Serif" font-size="10.00">libraries/AP_Math/matrix</text>
<text text-anchor="middle" x="341.5" y="-7.5" font-family="Helvetica,sans-Serif" font-size="10.00">_alg.cpp</text>
</a>
</g>
</g>
<!-- Node1&#45;&gt;Node4 -->
<g id="edge3" class="edge"><title>Node1&#45;&gt;Node4</title>
<path fill="none" stroke="midnightblue" d="M241.782,-63.1305C263.869,-52.8025 291.01,-40.1103 311.398,-30.5765"/>
<polygon fill="midnightblue" stroke="midnightblue" points="240.237,-59.9894 232.661,-67.396 243.202,-66.3304 240.237,-59.9894"/>
</g>
</g>
</svg>
