<?xml version="1.0" encoding="UTF-8" standalone="no"?>
<!DOCTYPE svg PUBLIC "-//W3C//DTD SVG 1.1//EN"
 "http://www.w3.org/Graphics/SVG/1.1/DTD/svg11.dtd">
<!-- Generated by graphviz version 2.38.0 (20140413.2041)
 -->
<!-- Title: libraries/GCS_MAVLink/GCS_Dummy.h Pages: 1 -->
<svg width="490pt" height="117pt"
 viewBox="0.00 0.00 489.50 117.00" xmlns="http://www.w3.org/2000/svg" xmlns:xlink="http://www.w3.org/1999/xlink">
<g id="graph0" class="graph" transform="scale(1 1) rotate(0) translate(4 113)">
<title>libraries/GCS_MAVLink/GCS_Dummy.h</title>
<polygon fill="white" stroke="none" points="-4,4 -4,-113 485.5,-113 485.5,4 -4,4"/>
<!-- Node1 -->
<g id="node1" class="node"><title>Node1</title>
<polygon fill="#bfbfbf" stroke="black" points="191,-78.5 191,-108.5 311,-108.5 311,-78.5 191,-78.5"/>
<text text-anchor="start" x="199" y="-96.5" font-family="Helvetica,sans-Serif" font-size="10.00">libraries/GCS_MAVLink</text>
<text text-anchor="middle" x="251" y="-85.5" font-family="Helvetica,sans-Serif" font-size="10.00">/GCS_Dummy.h</text>
</g>
<!-- Node2 -->
<g id="node2" class="node"><title>Node2</title>
<g id="a_node2"><a xlink:href="$AHRS__Test_8cpp.html" xlink:title="libraries/AP_AHRS/examples\l/AHRS_Test/AHRS_Test.cpp">
<polygon fill="white" stroke="black" points="0,-6 0,-36 148,-36 148,-6 0,-6"/>
<text text-anchor="start" x="8" y="-24" font-family="Helvetica,sans-Serif" font-size="10.00">libraries/AP_AHRS/examples</text>
<text text-anchor="middle" x="74" y="-13" font-family="Helvetica,sans-Serif" font-size="10.00">/AHRS_Test/AHRS_Test.cpp</text>
</a>
</g>
</g>
<!-- Node1&#45;&gt;Node2 -->
<g id="edge1" class="edge"><title>Node1&#45;&gt;Node2</title>
<path fill="none" stroke="midnightblue" d="M206.197,-74.6546C176.165,-62.6929 137.172,-47.1615 109.332,-36.0729"/>
<polygon fill="midnightblue" stroke="midnightblue" points="205.021,-77.9539 215.607,-78.4027 207.612,-71.4508 205.021,-77.9539"/>
</g>
<!-- Node3 -->
<g id="node3" class="node"><title>Node3</title>
<g id="a_node3"><a xlink:href="$DataFlash__AllTypes_8cpp.html" xlink:title="libraries/DataFlash\l/examples/DataFlash\l_AllTypes/DataFlash_AllTypes.cpp">
<polygon fill="white" stroke="black" points="166,-0.5 166,-41.5 336,-41.5 336,-0.5 166,-0.5"/>
<text text-anchor="start" x="174" y="-29.5" font-family="Helvetica,sans-Serif" font-size="10.00">libraries/DataFlash</text>
<text text-anchor="start" x="174" y="-18.5" font-family="Helvetica,sans-Serif" font-size="10.00">/examples/DataFlash</text>
<text text-anchor="middle" x="251" y="-7.5" font-family="Helvetica,sans-Serif" font-size="10.00">_AllTypes/DataFlash_AllTypes.cpp</text>
</a>
</g>
</g>
<!-- Node1&#45;&gt;Node3 -->
<g id="edge2" class="edge"><title>Node1&#45;&gt;Node3</title>
<path fill="none" stroke="midnightblue" d="M251,-67.9815C251,-59.3468 251,-49.7625 251,-41.5884"/>
<polygon fill="midnightblue" stroke="midnightblue" points="247.5,-68.2332 251,-78.2333 254.5,-68.2333 247.5,-68.2332"/>
</g>
<!-- Node4 -->
<g id="node4" class="node"><title>Node4</title>
<g id="a_node4"><a xlink:href="$DataFlash__test_8cpp.html" xlink:title="libraries/DataFlash\l/examples/DataFlash\l_test/DataFlash_test.cpp">
<polygon fill="white" stroke="black" points="354.5,-0.5 354.5,-41.5 481.5,-41.5 481.5,-0.5 354.5,-0.5"/>
<text text-anchor="start" x="362.5" y="-29.5" font-family="Helvetica,sans-Serif" font-size="10.00">libraries/DataFlash</text>
<text text-anchor="start" x="362.5" y="-18.5" font-family="Helvetica,sans-Serif" font-size="10.00">/examples/DataFlash</text>
<text text-anchor="middle" x="418" y="-7.5" font-family="Helvetica,sans-Serif" font-size="10.00">_test/DataFlash_test.cpp</text>
</a>
</g>
</g>
<!-- Node1&#45;&gt;Node4 -->
<g id="edge3" class="edge"><title>Node1&#45;&gt;Node4</title>
<path fill="none" stroke="midnightblue" d="M293.878,-74.3987C317.699,-64.3428 347.351,-51.825 371.699,-41.5464"/>
<polygon fill="midnightblue" stroke="midnightblue" points="292.245,-71.289 284.394,-78.4027 294.968,-77.7379 292.245,-71.289"/>
</g>
</g>
</svg>
