<?xml version="1.0" encoding="UTF-8" standalone="no"?>
<!DOCTYPE svg PUBLIC "-//W3C//DTD SVG 1.1//EN"
 "http://www.w3.org/Graphics/SVG/1.1/DTD/svg11.dtd">
<!-- Generated by graphviz version 2.38.0 (20140413.2041)
 -->
<!-- Title: libraries/AP_HAL_SITL/HAL_SITL_Class.h Pages: 1 -->
<svg width="1631pt" height="307pt"
 viewBox="0.00 0.00 1630.50 307.00" xmlns="http://www.w3.org/2000/svg" xmlns:xlink="http://www.w3.org/1999/xlink">
<g id="graph0" class="graph" transform="scale(1 1) rotate(0) translate(4 303)">
<title>libraries/AP_HAL_SITL/HAL_SITL_Class.h</title>
<polygon fill="white" stroke="none" points="-4,4 -4,-303 1626.5,-303 1626.5,4 -4,4"/>
<!-- Node1 -->
<g id="node1" class="node"><title>Node1</title>
<polygon fill="#bfbfbf" stroke="black" points="820,-268.5 820,-298.5 938,-298.5 938,-268.5 820,-268.5"/>
<text text-anchor="start" x="828" y="-286.5" font-family="Helvetica,sans-Serif" font-size="10.00">libraries/AP_HAL_SITL</text>
<text text-anchor="middle" x="879" y="-275.5" font-family="Helvetica,sans-Serif" font-size="10.00">/HAL_SITL_Class.h</text>
</g>
<!-- Node2 -->
<g id="node2" class="node"><title>Node2</title>
<g id="a_node2"><a xlink:href="$AP__HAL__SITL_8h.html" xlink:title="libraries/AP_HAL_SITL\l/AP_HAL_SITL.h">
<polygon fill="white" stroke="black" points="742,-201.5 742,-231.5 860,-231.5 860,-201.5 742,-201.5"/>
<text text-anchor="start" x="750" y="-219.5" font-family="Helvetica,sans-Serif" font-size="10.00">libraries/AP_HAL_SITL</text>
<text text-anchor="middle" x="801" y="-208.5" font-family="Helvetica,sans-Serif" font-size="10.00">/AP_HAL_SITL.h</text>
</a>
</g>
</g>
<!-- Node1&#45;&gt;Node2 -->
<g id="edge1" class="edge"><title>Node1&#45;&gt;Node2</title>
<path fill="none" stroke="midnightblue" d="M848.291,-262.168C835.612,-252.228 821.767,-240.514 812.217,-231.577"/>
<polygon fill="midnightblue" stroke="midnightblue" points="846.335,-265.079 856.397,-268.396 850.6,-259.528 846.335,-265.079"/>
</g>
<!-- Node4 -->
<g id="node4" class="node"><title>Node4</title>
<g id="a_node4"><a xlink:href="$SITL__State_8h.html" xlink:title="libraries/AP_HAL_SITL\l/SITL_State.h">
<polygon fill="white" stroke="black" points="155,-67.5 155,-97.5 273,-97.5 273,-67.5 155,-67.5"/>
<text text-anchor="start" x="163" y="-85.5" font-family="Helvetica,sans-Serif" font-size="10.00">libraries/AP_HAL_SITL</text>
<text text-anchor="middle" x="214" y="-74.5" font-family="Helvetica,sans-Serif" font-size="10.00">/SITL_State.h</text>
</a>
</g>
</g>
<!-- Node1&#45;&gt;Node4 -->
<g id="edge34" class="edge"><title>Node1&#45;&gt;Node4</title>
<path fill="none" stroke="midnightblue" d="M809.947,-283.326C631.797,-284.013 164.379,-275.391 69,-165 39.6664,-131.049 102.823,-107.292 154.905,-94.511"/>
<polygon fill="midnightblue" stroke="midnightblue" points="810.008,-286.826 819.99,-283.276 809.973,-279.826 810.008,-286.826"/>
</g>
<!-- Node6 -->
<g id="node6" class="node"><title>Node6</title>
<g id="a_node6"><a xlink:href="$HAL__SITL__Class_8cpp.html" xlink:title="libraries/AP_HAL_SITL\l/HAL_SITL_Class.cpp">
<polygon fill="white" stroke="black" points="799,-0.5 799,-30.5 917,-30.5 917,-0.5 799,-0.5"/>
<text text-anchor="start" x="807" y="-18.5" font-family="Helvetica,sans-Serif" font-size="10.00">libraries/AP_HAL_SITL</text>
<text text-anchor="middle" x="858" y="-7.5" font-family="Helvetica,sans-Serif" font-size="10.00">/HAL_SITL_Class.cpp</text>
</a>
</g>
</g>
<!-- Node1&#45;&gt;Node6 -->
<g id="edge35" class="edge"><title>Node1&#45;&gt;Node6</title>
<path fill="none" stroke="midnightblue" d="M948.151,-282.774C1117.47,-282.723 1542.2,-277.969 1585,-232 1634.97,-178.328 1635.03,-120.621 1585,-67 1539.82,-18.5765 1082.24,-15.5813 917.066,-16.0965"/>
<polygon fill="midnightblue" stroke="midnightblue" points="948.1,-279.274 938.099,-282.771 948.098,-286.274 948.1,-279.274"/>
</g>
<!-- Node7 -->
<g id="node7" class="node"><title>Node7</title>
<g id="a_node7"><a xlink:href="$sitl__airspeed_8cpp.html" xlink:title="libraries/AP_HAL_SITL\l/sitl_airspeed.cpp">
<polygon fill="white" stroke="black" points="0,-0.5 0,-30.5 118,-30.5 118,-0.5 0,-0.5"/>
<text text-anchor="start" x="8" y="-18.5" font-family="Helvetica,sans-Serif" font-size="10.00">libraries/AP_HAL_SITL</text>
<text text-anchor="middle" x="59" y="-7.5" font-family="Helvetica,sans-Serif" font-size="10.00">/sitl_airspeed.cpp</text>
</a>
</g>
</g>
<!-- Node1&#45;&gt;Node7 -->
<g id="edge36" class="edge"><title>Node1&#45;&gt;Node7</title>
<path fill="none" stroke="midnightblue" d="M809.782,-280.856C635.176,-276.285 186.388,-261.76 126,-232 63.9866,-201.439 56.9925,-166.409 47,-98 43.5479,-74.3667 49.7063,-46.8849 54.4056,-30.633"/>
<polygon fill="midnightblue" stroke="midnightblue" points="809.797,-284.357 819.885,-281.117 809.978,-277.359 809.797,-284.357"/>
</g>
<!-- Node8 -->
<g id="node8" class="node"><title>Node8</title>
<g id="a_node8"><a xlink:href="$sitl__rangefinder_8cpp.html" xlink:title="libraries/AP_HAL_SITL\l/sitl_rangefinder.cpp">
<polygon fill="white" stroke="black" points="428,-0.5 428,-30.5 546,-30.5 546,-0.5 428,-0.5"/>
<text text-anchor="start" x="436" y="-18.5" font-family="Helvetica,sans-Serif" font-size="10.00">libraries/AP_HAL_SITL</text>
<text text-anchor="middle" x="487" y="-7.5" font-family="Helvetica,sans-Serif" font-size="10.00">/sitl_rangefinder.cpp</text>
</a>
</g>
</g>
<!-- Node1&#45;&gt;Node8 -->
<g id="edge39" class="edge"><title>Node1&#45;&gt;Node8</title>
<path fill="none" stroke="midnightblue" d="M948.055,-278.964C1135.02,-268.082 1631.86,-229.851 1552,-134 1446.43,-7.2836 1350.61,-87.8541 1187,-67 950.707,-36.8814 667.079,-23.3129 546.217,-18.5819"/>
<polygon fill="midnightblue" stroke="midnightblue" points="947.839,-275.47 938.055,-279.537 948.239,-282.459 947.839,-275.47"/>
</g>
<!-- Node21 -->
<g id="node21" class="node"><title>Node21</title>
<g id="a_node21"><a xlink:href="$SITL__cmdline_8cpp.html" xlink:title="libraries/AP_HAL_SITL\l/SITL_cmdline.cpp">
<polygon fill="white" stroke="black" points="1153,-134.5 1153,-164.5 1271,-164.5 1271,-134.5 1153,-134.5"/>
<text text-anchor="start" x="1161" y="-152.5" font-family="Helvetica,sans-Serif" font-size="10.00">libraries/AP_HAL_SITL</text>
<text text-anchor="middle" x="1212" y="-141.5" font-family="Helvetica,sans-Serif" font-size="10.00">/SITL_cmdline.cpp</text>
</a>
</g>
</g>
<!-- Node1&#45;&gt;Node21 -->
<g id="edge37" class="edge"><title>Node1&#45;&gt;Node21</title>
<path fill="none" stroke="midnightblue" d="M923.762,-264.756C990.693,-238.225 1115.5,-188.753 1176.54,-164.556"/>
<polygon fill="midnightblue" stroke="midnightblue" points="922.328,-261.56 914.322,-268.499 924.908,-268.067 922.328,-261.56"/>
</g>
<!-- Node22 -->
<g id="node22" class="node"><title>Node22</title>
<g id="a_node22"><a xlink:href="$sitl__gps_8cpp.html" xlink:title="libraries/AP_HAL_SITL\l/sitl_gps.cpp">
<polygon fill="white" stroke="black" points="1289,-134.5 1289,-164.5 1407,-164.5 1407,-134.5 1289,-134.5"/>
<text text-anchor="start" x="1297" y="-152.5" font-family="Helvetica,sans-Serif" font-size="10.00">libraries/AP_HAL_SITL</text>
<text text-anchor="middle" x="1348" y="-141.5" font-family="Helvetica,sans-Serif" font-size="10.00">/sitl_gps.cpp</text>
</a>
</g>
</g>
<!-- Node1&#45;&gt;Node22 -->
<g id="edge38" class="edge"><title>Node1&#45;&gt;Node22</title>
<path fill="none" stroke="midnightblue" d="M939.375,-265.715C974.571,-255.915 1019.81,-243.294 1060,-232 1143.79,-208.454 1241.23,-180.83 1298.58,-164.544"/>
<polygon fill="midnightblue" stroke="midnightblue" points="938.422,-262.347 929.726,-268.401 940.299,-269.091 938.422,-262.347"/>
</g>
<!-- Node23 -->
<g id="node23" class="node"><title>Node23</title>
<g id="a_node23"><a xlink:href="$SITL__State_8cpp.html" xlink:title="libraries/AP_HAL_SITL\l/SITL_State.cpp">
<polygon fill="white" stroke="black" points="1425,-134.5 1425,-164.5 1543,-164.5 1543,-134.5 1425,-134.5"/>
<text text-anchor="start" x="1433" y="-152.5" font-family="Helvetica,sans-Serif" font-size="10.00">libraries/AP_HAL_SITL</text>
<text text-anchor="middle" x="1484" y="-141.5" font-family="Helvetica,sans-Serif" font-size="10.00">/SITL_State.cpp</text>
</a>
</g>
</g>
<!-- Node1&#45;&gt;Node23 -->
<g id="edge40" class="edge"><title>Node1&#45;&gt;Node23</title>
<path fill="none" stroke="midnightblue" d="M948.186,-268.781C997.754,-258.848 1066.06,-244.948 1126,-232 1231.45,-209.22 1353.95,-180.938 1424.86,-164.386"/>
<polygon fill="midnightblue" stroke="midnightblue" points="947.336,-265.382 938.217,-270.776 948.71,-272.246 947.336,-265.382"/>
</g>
<!-- Node2&#45;&gt;Node1 -->
<g id="edge3" class="edge"><title>Node2&#45;&gt;Node1</title>
<path fill="none" stroke="midnightblue" d="M831.67,-237.802C844.346,-247.737 858.194,-259.452 867.754,-268.396"/>
<polygon fill="midnightblue" stroke="midnightblue" points="833.629,-234.893 823.567,-231.577 829.365,-240.444 833.629,-234.893"/>
</g>
<!-- Node3 -->
<g id="node3" class="node"><title>Node3</title>
<g id="a_node3"><a xlink:href="$SITL_2AnalogIn_8cpp.html" xlink:title="libraries/AP_HAL_SITL\l/AnalogIn.cpp">
<polygon fill="white" stroke="black" points="87,-134.5 87,-164.5 205,-164.5 205,-134.5 87,-134.5"/>
<text text-anchor="start" x="95" y="-152.5" font-family="Helvetica,sans-Serif" font-size="10.00">libraries/AP_HAL_SITL</text>
<text text-anchor="middle" x="146" y="-141.5" font-family="Helvetica,sans-Serif" font-size="10.00">/AnalogIn.cpp</text>
</a>
</g>
</g>
<!-- Node2&#45;&gt;Node3 -->
<g id="edge2" class="edge"><title>Node2&#45;&gt;Node3</title>
<path fill="none" stroke="midnightblue" d="M731.443,-211.934C622,-205.768 403.088,-191.189 219,-165 214.523,-164.363 209.905,-163.629 205.269,-162.837"/>
<polygon fill="midnightblue" stroke="midnightblue" points="731.508,-215.443 741.687,-212.504 731.898,-208.454 731.508,-215.443"/>
</g>
<!-- Node2&#45;&gt;Node4 -->
<g id="edge4" class="edge"><title>Node2&#45;&gt;Node4</title>
<path fill="none" stroke="midnightblue" d="M731.701,-212.955C592.83,-207.305 290.424,-192.034 252,-165 229.528,-149.189 219.994,-116.597 216.23,-97.7706"/>
<polygon fill="midnightblue" stroke="midnightblue" points="731.68,-216.457 741.813,-213.361 731.961,-209.462 731.68,-216.457"/>
</g>
<!-- Node2&#45;&gt;Node6 -->
<g id="edge24" class="edge"><title>Node2&#45;&gt;Node6</title>
<path fill="none" stroke="midnightblue" d="M870.472,-214.238C934.314,-210.75 1030.24,-199.523 1106,-165 1106.66,-164.697 1186.69,-98.6605 1187,-98 1192.87,-85.5337 1195.97,-77.4553 1187,-67 1152.89,-27.2592 1002.16,-18.4776 917.046,-16.7376"/>
<polygon fill="midnightblue" stroke="midnightblue" points="869.931,-210.76 860.117,-214.751 870.278,-217.751 869.931,-210.76"/>
</g>
<!-- Node2&#45;&gt;Node7 -->
<g id="edge29" class="edge"><title>Node2&#45;&gt;Node7</title>
<path fill="none" stroke="midnightblue" d="M731.778,-215.556C560.046,-215.018 124.877,-209.255 78,-165 40.7678,-129.85 49.5869,-60.8596 55.6296,-30.9263"/>
<polygon fill="midnightblue" stroke="midnightblue" points="731.958,-219.057 741.967,-215.583 731.976,-212.057 731.958,-219.057"/>
</g>
<!-- Node2&#45;&gt;Node8 -->
<g id="edge32" class="edge"><title>Node2&#45;&gt;Node8</title>
<path fill="none" stroke="midnightblue" d="M758.184,-197.183C739.204,-188.393 716.933,-177.137 698,-165 679.651,-153.237 678.841,-144.959 660,-134 621.687,-111.716 604.025,-122.364 567,-98 538.347,-79.1449 511.886,-48.5542 497.739,-30.7001"/>
<polygon fill="midnightblue" stroke="midnightblue" points="756.939,-200.462 767.491,-201.419 759.839,-194.091 756.939,-200.462"/>
</g>
<!-- Node10 -->
<g id="node10" class="node"><title>Node10</title>
<g id="a_node10"><a xlink:href="$SITL_2RCInput_8h.html" xlink:title="libraries/AP_HAL_SITL\l/RCInput.h">
<polygon fill="white" stroke="black" points="261,-134.5 261,-164.5 379,-164.5 379,-134.5 261,-134.5"/>
<text text-anchor="start" x="269" y="-152.5" font-family="Helvetica,sans-Serif" font-size="10.00">libraries/AP_HAL_SITL</text>
<text text-anchor="middle" x="320" y="-141.5" font-family="Helvetica,sans-Serif" font-size="10.00">/RCInput.h</text>
</a>
</g>
</g>
<!-- Node2&#45;&gt;Node10 -->
<g id="edge11" class="edge"><title>Node2&#45;&gt;Node10</title>
<path fill="none" stroke="midnightblue" d="M731.972,-208.944C649.745,-200.7 508.369,-185.152 388,-165 385.143,-164.522 382.224,-164.006 379.279,-163.463"/>
<polygon fill="midnightblue" stroke="midnightblue" points="731.649,-212.429 741.947,-209.938 732.343,-205.464 731.649,-212.429"/>
</g>
<!-- Node12 -->
<g id="node12" class="node"><title>Node12</title>
<g id="a_node12"><a xlink:href="$SITL_2Semaphores_8h.html" xlink:title="libraries/AP_HAL_SITL\l/Semaphores.h">
<polygon fill="white" stroke="black" points="707,-134.5 707,-164.5 825,-164.5 825,-134.5 707,-134.5"/>
<text text-anchor="start" x="715" y="-152.5" font-family="Helvetica,sans-Serif" font-size="10.00">libraries/AP_HAL_SITL</text>
<text text-anchor="middle" x="766" y="-141.5" font-family="Helvetica,sans-Serif" font-size="10.00">/Semaphores.h</text>
</a>
</g>
</g>
<!-- Node2&#45;&gt;Node12 -->
<g id="edge15" class="edge"><title>Node2&#45;&gt;Node12</title>
<path fill="none" stroke="midnightblue" d="M788.656,-192.576C783.63,-183.241 777.98,-172.748 773.58,-164.577"/>
<polygon fill="midnightblue" stroke="midnightblue" points="785.583,-194.251 793.406,-201.396 791.746,-190.932 785.583,-194.251"/>
</g>
<!-- Node15 -->
<g id="node15" class="node"><title>Node15</title>
<g id="a_node15"><a xlink:href="$SITL_2CAN_8h.html" xlink:title="libraries/AP_HAL_SITL\l/CAN.h">
<polygon fill="white" stroke="black" points="397,-134.5 397,-164.5 515,-164.5 515,-134.5 397,-134.5"/>
<text text-anchor="start" x="405" y="-152.5" font-family="Helvetica,sans-Serif" font-size="10.00">libraries/AP_HAL_SITL</text>
<text text-anchor="middle" x="456" y="-141.5" font-family="Helvetica,sans-Serif" font-size="10.00">/CAN.h</text>
</a>
</g>
</g>
<!-- Node2&#45;&gt;Node15 -->
<g id="edge20" class="edge"><title>Node2&#45;&gt;Node15</title>
<path fill="none" stroke="midnightblue" d="M731.559,-203.431C675.468,-193.539 594.539,-178.947 524,-165 521.158,-164.438 518.251,-163.854 515.317,-163.257"/>
<polygon fill="midnightblue" stroke="midnightblue" points="731.28,-206.935 741.735,-205.222 732.493,-200.041 731.28,-206.935"/>
</g>
<!-- Node16 -->
<g id="node16" class="node"><title>Node16</title>
<g id="a_node16"><a xlink:href="$SITL_2GPIO_8h.html" xlink:title="libraries/AP_HAL_SITL\l/GPIO.h">
<polygon fill="white" stroke="black" points="843,-134.5 843,-164.5 961,-164.5 961,-134.5 843,-134.5"/>
<text text-anchor="start" x="851" y="-152.5" font-family="Helvetica,sans-Serif" font-size="10.00">libraries/AP_HAL_SITL</text>
<text text-anchor="middle" x="902" y="-141.5" font-family="Helvetica,sans-Serif" font-size="10.00">/GPIO.h</text>
</a>
</g>
</g>
<!-- Node2&#45;&gt;Node16 -->
<g id="edge21" class="edge"><title>Node2&#45;&gt;Node16</title>
<path fill="none" stroke="midnightblue" d="M831.714,-195.734C847.343,-185.676 865.975,-173.685 880.127,-164.577"/>
<polygon fill="midnightblue" stroke="midnightblue" points="829.43,-193.041 822.915,-201.396 833.219,-198.927 829.43,-193.041"/>
</g>
<!-- Node18 -->
<g id="node18" class="node"><title>Node18</title>
<g id="a_node18"><a xlink:href="$SITL_2RCOutput_8h.html" xlink:title="libraries/AP_HAL_SITL\l/RCOutput.h">
<polygon fill="white" stroke="black" points="979,-134.5 979,-164.5 1097,-164.5 1097,-134.5 979,-134.5"/>
<text text-anchor="start" x="987" y="-152.5" font-family="Helvetica,sans-Serif" font-size="10.00">libraries/AP_HAL_SITL</text>
<text text-anchor="middle" x="1038" y="-141.5" font-family="Helvetica,sans-Serif" font-size="10.00">/RCOutput.h</text>
</a>
</g>
</g>
<!-- Node2&#45;&gt;Node18 -->
<g id="edge25" class="edge"><title>Node2&#45;&gt;Node18</title>
<path fill="none" stroke="midnightblue" d="M862.201,-198.715C900.768,-188.137 950.001,-174.635 986.549,-164.611"/>
<polygon fill="midnightblue" stroke="midnightblue" points="860.852,-195.456 852.134,-201.476 862.703,-202.206 860.852,-195.456"/>
</g>
<!-- Node20 -->
<g id="node20" class="node"><title>Node20</title>
<g id="a_node20"><a xlink:href="$AP__HAL__SITL_2Scheduler_8cpp.html" xlink:title="libraries/AP_HAL_SITL\l/Scheduler.cpp">
<polygon fill="white" stroke="black" points="533,-134.5 533,-164.5 651,-164.5 651,-134.5 533,-134.5"/>
<text text-anchor="start" x="541" y="-152.5" font-family="Helvetica,sans-Serif" font-size="10.00">libraries/AP_HAL_SITL</text>
<text text-anchor="middle" x="592" y="-141.5" font-family="Helvetica,sans-Serif" font-size="10.00">/Scheduler.cpp</text>
</a>
</g>
</g>
<!-- Node2&#45;&gt;Node20 -->
<g id="edge28" class="edge"><title>Node2&#45;&gt;Node20</title>
<path fill="none" stroke="midnightblue" d="M746.159,-198.444C712.28,-187.908 669.328,-174.549 637.372,-164.611"/>
<polygon fill="midnightblue" stroke="midnightblue" points="745.319,-201.848 755.907,-201.476 747.398,-195.164 745.319,-201.848"/>
</g>
<!-- Node2&#45;&gt;Node21 -->
<g id="edge30" class="edge"><title>Node2&#45;&gt;Node21</title>
<path fill="none" stroke="midnightblue" d="M870.281,-206.135C938.713,-196.653 1046.29,-181.124 1139,-165 1143.46,-164.225 1148.06,-163.391 1152.68,-162.529"/>
<polygon fill="midnightblue" stroke="midnightblue" points="869.486,-202.712 860.059,-207.547 870.444,-209.646 869.486,-202.712"/>
</g>
<!-- Node2&#45;&gt;Node22 -->
<g id="edge31" class="edge"><title>Node2&#45;&gt;Node22</title>
<path fill="none" stroke="midnightblue" d="M870.432,-210.481C963.88,-203.203 1135.13,-188.018 1280,-165 1282.86,-164.545 1285.78,-164.049 1288.73,-163.522"/>
<polygon fill="midnightblue" stroke="midnightblue" points="869.957,-207.008 860.256,-211.267 870.495,-213.987 869.957,-207.008"/>
</g>
<!-- Node2&#45;&gt;Node23 -->
<g id="edge33" class="edge"><title>Node2&#45;&gt;Node23</title>
<path fill="none" stroke="midnightblue" d="M870.231,-212.71C984.427,-207.462 1219.23,-193.936 1416,-165 1418.87,-164.579 1421.79,-164.109 1424.74,-163.603"/>
<polygon fill="midnightblue" stroke="midnightblue" points="870.057,-209.215 860.225,-213.163 870.373,-216.207 870.057,-209.215"/>
</g>
<!-- Node4&#45;&gt;Node1 -->
<g id="edge5" class="edge"><title>Node4&#45;&gt;Node1</title>
<path fill="none" stroke="midnightblue" d="M147.894,-100.463C105.077,-114.081 61.7366,-135.76 87,-165 182.68,-275.739 652.75,-284.066 819.935,-283.319"/>
<polygon fill="midnightblue" stroke="midnightblue" points="149.026,-103.777 157.57,-97.5119 146.983,-97.0817 149.026,-103.777"/>
</g>
<!-- Node5 -->
<g id="node5" class="node"><title>Node5</title>
<g id="a_node5"><a xlink:href="$AP__HAL__SITL__Private_8h.html" xlink:title="libraries/AP_HAL_SITL\l/AP_HAL_SITL_Private.h">
<polygon fill="white" stroke="black" points="282,-0.5 282,-30.5 410,-30.5 410,-0.5 282,-0.5"/>
<text text-anchor="start" x="290" y="-18.5" font-family="Helvetica,sans-Serif" font-size="10.00">libraries/AP_HAL_SITL</text>
<text text-anchor="middle" x="346" y="-7.5" font-family="Helvetica,sans-Serif" font-size="10.00">/AP_HAL_SITL_Private.h</text>
</a>
</g>
</g>
<!-- Node4&#45;&gt;Node5 -->
<g id="edge6" class="edge"><title>Node4&#45;&gt;Node5</title>
<path fill="none" stroke="midnightblue" d="M251.867,-62.8533C272.738,-52.5761 298.226,-40.0252 317.414,-30.5765"/>
<polygon fill="midnightblue" stroke="midnightblue" points="250.067,-59.8383 242.642,-67.396 253.16,-66.1182 250.067,-59.8383"/>
</g>
<!-- Node4&#45;&gt;Node6 -->
<g id="edge7" class="edge"><title>Node4&#45;&gt;Node6</title>
<path fill="none" stroke="midnightblue" d="M283.352,-66.9155C477.269,-38.3985 695.955,-24.6614 798.845,-19.288"/>
<polygon fill="midnightblue" stroke="midnightblue" points="282.636,-63.4833 273.26,-68.4164 283.666,-70.4072 282.636,-63.4833"/>
</g>
<!-- Node4&#45;&gt;Node7 -->
<g id="edge8" class="edge"><title>Node4&#45;&gt;Node7</title>
<path fill="none" stroke="midnightblue" d="M170.854,-63.4066C146.109,-53.0294 115.504,-40.1954 92.5671,-30.5765"/>
<polygon fill="midnightblue" stroke="midnightblue" points="169.792,-66.7563 180.367,-67.396 172.499,-60.301 169.792,-66.7563"/>
</g>
<!-- Node4&#45;&gt;Node8 -->
<g id="edge9" class="edge"><title>Node4&#45;&gt;Node8</title>
<path fill="none" stroke="midnightblue" d="M282.802,-65.1186C327.473,-54.4827 385.096,-40.7628 427.734,-30.6109"/>
<polygon fill="midnightblue" stroke="midnightblue" points="281.818,-61.7549 272.901,-67.476 283.44,-68.5645 281.818,-61.7549"/>
</g>
<!-- Node9 -->
<g id="node9" class="node"><title>Node9</title>
<g id="a_node9"><a xlink:href="$SITL_2UARTDriver_8cpp.html" xlink:title="libraries/AP_HAL_SITL\l/UARTDriver.cpp">
<polygon fill="white" stroke="black" points="146,-0.5 146,-30.5 264,-30.5 264,-0.5 146,-0.5"/>
<text text-anchor="start" x="154" y="-18.5" font-family="Helvetica,sans-Serif" font-size="10.00">libraries/AP_HAL_SITL</text>
<text text-anchor="middle" x="205" y="-7.5" font-family="Helvetica,sans-Serif" font-size="10.00">/UARTDriver.cpp</text>
</a>
</g>
</g>
<!-- Node4&#45;&gt;Node9 -->
<g id="edge10" class="edge"><title>Node4&#45;&gt;Node9</title>
<path fill="none" stroke="midnightblue" d="M210.663,-57.4029C209.413,-48.3703 208.033,-38.4078 206.949,-30.5765"/>
<polygon fill="midnightblue" stroke="midnightblue" points="207.209,-57.9705 212.047,-67.396 214.142,-57.0104 207.209,-57.9705"/>
</g>
<!-- Node10&#45;&gt;Node4 -->
<g id="edge12" class="edge"><title>Node10&#45;&gt;Node4</title>
<path fill="none" stroke="midnightblue" d="M288.225,-129.015C271.729,-118.9 251.948,-106.77 236.956,-97.5765"/>
<polygon fill="midnightblue" stroke="midnightblue" points="286.645,-132.152 297,-134.396 290.304,-126.185 286.645,-132.152"/>
</g>
<!-- Node10&#45;&gt;Node6 -->
<g id="edge13" class="edge"><title>Node10&#45;&gt;Node6</title>
<path fill="none" stroke="midnightblue" d="M366.15,-131.009C415.326,-112.908 495.749,-84.8347 567,-67 646.337,-47.1411 739.776,-32.4248 798.946,-24.1519"/>
<polygon fill="midnightblue" stroke="midnightblue" points="364.907,-127.737 356.744,-134.49 367.337,-134.302 364.907,-127.737"/>
</g>
<!-- Node11 -->
<g id="node11" class="node"><title>Node11</title>
<g id="a_node11"><a xlink:href="$SITL_2RCInput_8cpp.html" xlink:title="libraries/AP_HAL_SITL\l/RCInput.cpp">
<polygon fill="white" stroke="black" points="291,-67.5 291,-97.5 409,-97.5 409,-67.5 291,-67.5"/>
<text text-anchor="start" x="299" y="-85.5" font-family="Helvetica,sans-Serif" font-size="10.00">libraries/AP_HAL_SITL</text>
<text text-anchor="middle" x="350" y="-74.5" font-family="Helvetica,sans-Serif" font-size="10.00">/RCInput.cpp</text>
</a>
</g>
</g>
<!-- Node10&#45;&gt;Node11 -->
<g id="edge14" class="edge"><title>Node10&#45;&gt;Node11</title>
<path fill="none" stroke="midnightblue" d="M330.715,-125.283C334.99,-116.022 339.771,-105.663 343.503,-97.5765"/>
<polygon fill="midnightblue" stroke="midnightblue" points="327.522,-123.85 326.51,-134.396 333.878,-126.783 327.522,-123.85"/>
</g>
<!-- Node12&#45;&gt;Node5 -->
<g id="edge16" class="edge"><title>Node12&#45;&gt;Node5</title>
<path fill="none" stroke="midnightblue" d="M696.71,-132.803C658.23,-123.615 609.656,-111.238 567,-98 500.214,-77.2737 424.043,-47.8726 380.824,-30.6334"/>
<polygon fill="midnightblue" stroke="midnightblue" points="696.235,-136.287 706.772,-135.188 697.849,-129.476 696.235,-136.287"/>
</g>
<!-- Node13 -->
<g id="node13" class="node"><title>Node13</title>
<g id="a_node13"><a xlink:href="$SITL_2Util_8h.html" xlink:title="libraries/AP_HAL_SITL\l/Util.h">
<polygon fill="white" stroke="black" points="712,-67.5 712,-97.5 830,-97.5 830,-67.5 712,-67.5"/>
<text text-anchor="start" x="720" y="-85.5" font-family="Helvetica,sans-Serif" font-size="10.00">libraries/AP_HAL_SITL</text>
<text text-anchor="middle" x="771" y="-74.5" font-family="Helvetica,sans-Serif" font-size="10.00">/Util.h</text>
</a>
</g>
</g>
<!-- Node12&#45;&gt;Node13 -->
<g id="edge17" class="edge"><title>Node12&#45;&gt;Node13</title>
<path fill="none" stroke="midnightblue" d="M767.854,-124.403C768.548,-115.37 769.315,-105.408 769.917,-97.5765"/>
<polygon fill="midnightblue" stroke="midnightblue" points="764.362,-124.157 767.085,-134.396 771.342,-124.694 764.362,-124.157"/>
</g>
<!-- Node14 -->
<g id="node14" class="node"><title>Node14</title>
<g id="a_node14"><a xlink:href="$AP__HAL__SITL_2Semaphores_8cpp.html" xlink:title="libraries/AP_HAL_SITL\l/Semaphores.cpp">
<polygon fill="white" stroke="black" points="576,-67.5 576,-97.5 694,-97.5 694,-67.5 576,-67.5"/>
<text text-anchor="start" x="584" y="-85.5" font-family="Helvetica,sans-Serif" font-size="10.00">libraries/AP_HAL_SITL</text>
<text text-anchor="middle" x="635" y="-74.5" font-family="Helvetica,sans-Serif" font-size="10.00">/Semaphores.cpp</text>
</a>
</g>
</g>
<!-- Node12&#45;&gt;Node14 -->
<g id="edge19" class="edge"><title>Node12&#45;&gt;Node14</title>
<path fill="none" stroke="midnightblue" d="M728.42,-129.853C707.707,-119.576 682.412,-107.025 663.37,-97.5765"/>
<polygon fill="midnightblue" stroke="midnightblue" points="727.061,-133.086 737.575,-134.396 730.173,-126.816 727.061,-133.086"/>
</g>
<!-- Node13&#45;&gt;Node6 -->
<g id="edge18" class="edge"><title>Node13&#45;&gt;Node6</title>
<path fill="none" stroke="midnightblue" d="M798.214,-61.1677C811.518,-51.2283 827.196,-39.5144 839.159,-30.5765"/>
<polygon fill="midnightblue" stroke="midnightblue" points="795.794,-58.6068 789.878,-67.396 799.984,-64.2145 795.794,-58.6068"/>
</g>
<!-- Node16&#45;&gt;Node6 -->
<g id="edge23" class="edge"><title>Node16&#45;&gt;Node6</title>
<path fill="none" stroke="midnightblue" d="M889.177,-125.423C884.864,-116.98 880.311,-107.233 877,-98 868.76,-75.0247 863.152,-47.1054 860.271,-30.6257"/>
<polygon fill="midnightblue" stroke="midnightblue" points="886.102,-127.094 893.867,-134.303 892.292,-123.826 886.102,-127.094"/>
</g>
<!-- Node17 -->
<g id="node17" class="node"><title>Node17</title>
<g id="a_node17"><a xlink:href="$AP__HAL__SITL_2GPIO_8cpp.html" xlink:title="libraries/AP_HAL_SITL\l/GPIO.cpp">
<polygon fill="white" stroke="black" points="886,-67.5 886,-97.5 1004,-97.5 1004,-67.5 886,-67.5"/>
<text text-anchor="start" x="894" y="-85.5" font-family="Helvetica,sans-Serif" font-size="10.00">libraries/AP_HAL_SITL</text>
<text text-anchor="middle" x="945" y="-74.5" font-family="Helvetica,sans-Serif" font-size="10.00">/GPIO.cpp</text>
</a>
</g>
</g>
<!-- Node16&#45;&gt;Node17 -->
<g id="edge22" class="edge"><title>Node16&#45;&gt;Node17</title>
<path fill="none" stroke="midnightblue" d="M916.973,-125.867C923.196,-116.459 930.226,-105.833 935.688,-97.5765"/>
<polygon fill="midnightblue" stroke="midnightblue" points="913.929,-124.125 911.33,-134.396 919.767,-127.987 913.929,-124.125"/>
</g>
<!-- Node18&#45;&gt;Node6 -->
<g id="edge26" class="edge"><title>Node18&#45;&gt;Node6</title>
<path fill="none" stroke="midnightblue" d="M1036.45,-124.368C1034.05,-106.344 1028.02,-82.2815 1013,-67 987.805,-41.3649 949.462,-28.7362 917.216,-22.518"/>
<polygon fill="midnightblue" stroke="midnightblue" points="1032.98,-124.845 1037.5,-134.424 1039.94,-124.114 1032.98,-124.845"/>
</g>
<!-- Node19 -->
<g id="node19" class="node"><title>Node19</title>
<g id="a_node19"><a xlink:href="$SITL_2RCOutput_8cpp.html" xlink:title="libraries/AP_HAL_SITL\l/RCOutput.cpp">
<polygon fill="white" stroke="black" points="1060,-67.5 1060,-97.5 1178,-97.5 1178,-67.5 1060,-67.5"/>
<text text-anchor="start" x="1068" y="-85.5" font-family="Helvetica,sans-Serif" font-size="10.00">libraries/AP_HAL_SITL</text>
<text text-anchor="middle" x="1119" y="-74.5" font-family="Helvetica,sans-Serif" font-size="10.00">/RCOutput.cpp</text>
</a>
</g>
</g>
<!-- Node18&#45;&gt;Node19 -->
<g id="edge27" class="edge"><title>Node18&#45;&gt;Node19</title>
<path fill="none" stroke="midnightblue" d="M1063.69,-127.883C1076,-118.005 1090.43,-106.429 1101.46,-97.5765"/>
<polygon fill="midnightblue" stroke="midnightblue" points="1061.18,-125.407 1055.58,-134.396 1065.57,-130.867 1061.18,-125.407"/>
</g>
</g>
</svg>
