<?xml version="1.0" encoding="UTF-8" standalone="no"?>
<!DOCTYPE svg PUBLIC "-//W3C//DTD SVG 1.1//EN"
 "http://www.w3.org/Graphics/SVG/1.1/DTD/svg11.dtd">
<!-- Generated by graphviz version 2.38.0 (20140413.2041)
 -->
<!-- Title: check_lng Pages: 1 -->
<svg width="885pt" height="289pt"
 viewBox="0.00 0.00 885.00 289.00" xmlns="http://www.w3.org/2000/svg" xmlns:xlink="http://www.w3.org/1999/xlink">
<g id="graph0" class="graph" transform="scale(1 1) rotate(0) translate(4 285)">
<title>check_lng</title>
<polygon fill="white" stroke="none" points="-4,4 -4,-285 881,-285 881,4 -4,4"/>
<!-- Node1 -->
<g id="node1" class="node"><title>Node1</title>
<polygon fill="#bfbfbf" stroke="black" points="0,-88 0,-107 61,-107 61,-88 0,-88"/>
<text text-anchor="middle" x="30.5" y="-95" font-family="Helvetica,sans-Serif" font-size="10.00">check_lng</text>
</g>
<!-- Node2 -->
<g id="node2" class="node"><title>Node2</title>
<g id="a_node2"><a xlink:href="$location_8h.html#a8e3c1a8152caf33ff0ec0d96e4c79a96" xlink:title="check_latlng">
<polygon fill="white" stroke="black" points="116,-196 116,-215 187,-215 187,-196 116,-196"/>
<text text-anchor="middle" x="151.5" y="-203" font-family="Helvetica,sans-Serif" font-size="10.00">check_latlng</text>
</a>
</g>
</g>
<!-- Node1&#45;&gt;Node2 -->
<g id="edge1" class="edge"><title>Node1&#45;&gt;Node2</title>
<path fill="none" stroke="midnightblue" d="M49.79,-114.099C74.9518,-136.935 119.437,-177.309 139.792,-195.782"/>
<polygon fill="midnightblue" stroke="midnightblue" points="51.8177,-111.213 42.0605,-107.084 47.1133,-116.397 51.8177,-111.213"/>
</g>
<!-- Node9 -->
<g id="node9" class="node"><title>Node9</title>
<g id="a_node9"><a xlink:href="$classAP__Mission.html#a80b09bc9fa20ca29268f08f51de9050e" xlink:title="AP_Mission::mavlink\l_int_to_mission_cmd">
<polygon fill="white" stroke="black" points="97,-82.5 97,-112.5 206,-112.5 206,-82.5 97,-82.5"/>
<text text-anchor="start" x="105" y="-100.5" font-family="Helvetica,sans-Serif" font-size="10.00">AP_Mission::mavlink</text>
<text text-anchor="middle" x="151.5" y="-89.5" font-family="Helvetica,sans-Serif" font-size="10.00">_int_to_mission_cmd</text>
</a>
</g>
</g>
<!-- Node1&#45;&gt;Node9 -->
<g id="edge8" class="edge"><title>Node1&#45;&gt;Node9</title>
<path fill="none" stroke="midnightblue" d="M71.4656,-97.5C79.5387,-97.5 88.1514,-97.5 96.6116,-97.5"/>
<polygon fill="midnightblue" stroke="midnightblue" points="71.2218,-94.0001 61.2218,-97.5 71.2217,-101 71.2218,-94.0001"/>
</g>
<!-- Node10 -->
<g id="node10" class="node"><title>Node10</title>
<g id="a_node10"><a xlink:href="$classAP__Mission.html#acc409102a42d51e3c909f5205ccd9895" xlink:title="AP_Mission::mavlink\l_to_mission_cmd">
<polygon fill="white" stroke="black" points="248.5,-38.5 248.5,-68.5 357.5,-68.5 357.5,-38.5 248.5,-38.5"/>
<text text-anchor="start" x="256.5" y="-56.5" font-family="Helvetica,sans-Serif" font-size="10.00">AP_Mission::mavlink</text>
<text text-anchor="middle" x="303" y="-45.5" font-family="Helvetica,sans-Serif" font-size="10.00">_to_mission_cmd</text>
</a>
</g>
</g>
<!-- Node1&#45;&gt;Node10 -->
<g id="edge18" class="edge"><title>Node1&#45;&gt;Node10</title>
<path fill="none" stroke="midnightblue" d="M61.7717,-83.9742C72.6749,-79.6338 85.2003,-75.2444 97,-72.5 147.48,-60.7595 206.543,-56.2233 248.271,-54.4968"/>
<polygon fill="midnightblue" stroke="midnightblue" points="60.1858,-80.8425 52.282,-87.8979 62.8606,-87.3113 60.1858,-80.8425"/>
</g>
<!-- Node3 -->
<g id="node3" class="node"><title>Node3</title>
<g id="a_node3"><a xlink:href="$classAC__Fence.html#a9e7499c3b42f4ef5cc120bf103d17fe3" xlink:title="handler for polygon fence messages with GCS ">
<polygon fill="white" stroke="black" points="242,-256 242,-275 364,-275 364,-256 242,-256"/>
<text text-anchor="middle" x="303" y="-263" font-family="Helvetica,sans-Serif" font-size="10.00">AC_Fence::handle_msg</text>
</a>
</g>
</g>
<!-- Node2&#45;&gt;Node3 -->
<g id="edge2" class="edge"><title>Node2&#45;&gt;Node3</title>
<path fill="none" stroke="midnightblue" d="M180.823,-219.559C198.241,-227.931 221.146,-238.456 242,-246.5 250.767,-249.882 260.415,-253.135 269.363,-255.966"/>
<polygon fill="midnightblue" stroke="midnightblue" points="182.284,-216.377 171.759,-215.158 179.227,-222.674 182.284,-216.377"/>
</g>
<!-- Node5 -->
<g id="node5" class="node"><title>Node5</title>
<g id="a_node5"><a xlink:href="$location_8h.html#a9b7e911ac78bab5a978b4f0d3941e250" xlink:title="location_sanitize">
<polygon fill="white" stroke="black" points="258.5,-218 258.5,-237 347.5,-237 347.5,-218 258.5,-218"/>
<text text-anchor="middle" x="303" y="-225" font-family="Helvetica,sans-Serif" font-size="10.00">location_sanitize</text>
</a>
</g>
</g>
<!-- Node2&#45;&gt;Node5 -->
<g id="edge4" class="edge"><title>Node2&#45;&gt;Node5</title>
<path fill="none" stroke="midnightblue" d="M197.26,-212.087C216.614,-214.935 239.185,-218.256 258.407,-221.085"/>
<polygon fill="midnightblue" stroke="midnightblue" points="197.577,-208.596 187.174,-210.603 196.558,-215.521 197.577,-208.596"/>
</g>
<!-- Node6 -->
<g id="node6" class="node"><title>Node6</title>
<g id="a_node6"><a xlink:href="$structGCS__MAVLINK.html#ae507720fd8a0a7f67bc8100a5ae55c40" xlink:title="GCS_MAVLINK::handle\l_rally_point">
<polygon fill="white" stroke="black" points="242,-168.5 242,-198.5 364,-198.5 364,-168.5 242,-168.5"/>
<text text-anchor="start" x="250" y="-186.5" font-family="Helvetica,sans-Serif" font-size="10.00">GCS_MAVLINK::handle</text>
<text text-anchor="middle" x="303" y="-175.5" font-family="Helvetica,sans-Serif" font-size="10.00">_rally_point</text>
</a>
</g>
</g>
<!-- Node2&#45;&gt;Node6 -->
<g id="edge5" class="edge"><title>Node2&#45;&gt;Node6</title>
<path fill="none" stroke="midnightblue" d="M197.458,-198.884C211.379,-196.836 226.948,-194.544 241.731,-192.369"/>
<polygon fill="midnightblue" stroke="midnightblue" points="196.558,-195.479 187.174,-200.397 197.577,-202.404 196.558,-195.479"/>
</g>
<!-- Node4 -->
<g id="node4" class="node"><title>Node4</title>
<g id="a_node4"><a xlink:href="$classAC__Fence.html#ae37cf33a4fd250b66386253720fddbc9" xlink:title="set_home_distance &#45; update vehicle&#39;s distance from home in meters &#45; required for circular horizontal ...">
<polygon fill="white" stroke="black" points="414,-250.5 414,-280.5 526,-280.5 526,-250.5 414,-250.5"/>
<text text-anchor="start" x="422" y="-268.5" font-family="Helvetica,sans-Serif" font-size="10.00">AC_Fence::set_home</text>
<text text-anchor="middle" x="470" y="-257.5" font-family="Helvetica,sans-Serif" font-size="10.00">_distance</text>
</a>
</g>
</g>
<!-- Node3&#45;&gt;Node4 -->
<g id="edge3" class="edge"><title>Node3&#45;&gt;Node4</title>
<path fill="none" stroke="midnightblue" d="M374.107,-265.5C387.422,-265.5 401.176,-265.5 413.942,-265.5"/>
<polygon fill="midnightblue" stroke="midnightblue" points="374.036,-262 364.036,-265.5 374.036,-269 374.036,-262"/>
</g>
<!-- Node7 -->
<g id="node7" class="node"><title>Node7</title>
<g id="a_node7"><a xlink:href="$structGCS__MAVLINK.html#a0cddddd51bc5ea4c137c1927d2e34d97" xlink:title="GCS_MAVLINK::handle\l_common_rally_message">
<polygon fill="white" stroke="black" points="583.5,-173.5 583.5,-203.5 711.5,-203.5 711.5,-173.5 583.5,-173.5"/>
<text text-anchor="start" x="591.5" y="-191.5" font-family="Helvetica,sans-Serif" font-size="10.00">GCS_MAVLINK::handle</text>
<text text-anchor="middle" x="647.5" y="-180.5" font-family="Helvetica,sans-Serif" font-size="10.00">_common_rally_message</text>
</a>
</g>
</g>
<!-- Node6&#45;&gt;Node7 -->
<g id="edge6" class="edge"><title>Node6&#45;&gt;Node7</title>
<path fill="none" stroke="midnightblue" d="M374.05,-184.523C435.487,-185.42 524.025,-186.712 583.324,-187.578"/>
<polygon fill="midnightblue" stroke="midnightblue" points="374.101,-181.023 364.051,-184.377 373.999,-188.022 374.101,-181.023"/>
</g>
<!-- Node8 -->
<g id="node8" class="node"><title>Node8</title>
<g id="a_node8"><a xlink:href="$structGCS__MAVLINK.html#a13da94a2548ade6552a5250eb3251e89" xlink:title="GCS_MAVLINK::handle\l_common_message">
<polygon fill="white" stroke="black" points="755,-148.5 755,-178.5 877,-178.5 877,-148.5 755,-148.5"/>
<text text-anchor="start" x="763" y="-166.5" font-family="Helvetica,sans-Serif" font-size="10.00">GCS_MAVLINK::handle</text>
<text text-anchor="middle" x="816" y="-155.5" font-family="Helvetica,sans-Serif" font-size="10.00">_common_message</text>
</a>
</g>
</g>
<!-- Node7&#45;&gt;Node8 -->
<g id="edge7" class="edge"><title>Node7&#45;&gt;Node8</title>
<path fill="none" stroke="midnightblue" d="M721.918,-177.476C732.897,-175.828 744.109,-174.144 754.773,-172.543"/>
<polygon fill="midnightblue" stroke="midnightblue" points="721.291,-174.031 711.921,-178.977 722.33,-180.954 721.291,-174.031"/>
</g>
<!-- Node9&#45;&gt;Node10 -->
<g id="edge9" class="edge"><title>Node9&#45;&gt;Node10</title>
<path fill="none" stroke="midnightblue" d="M213.39,-79.5793C225.86,-75.9092 238.863,-72.0821 250.945,-68.5262"/>
<polygon fill="midnightblue" stroke="midnightblue" points="212.136,-76.2997 203.531,-82.4808 214.113,-83.0149 212.136,-76.2997"/>
</g>
<!-- Node12 -->
<g id="node12" class="node"><title>Node12</title>
<g id="a_node12"><a xlink:href="$classAP__Mission.html#abf0a05bca7e8ec89b416f7b04877c40c" xlink:title="get_current_do_cmd &#45; returns active &quot;do&quot; command ">
<polygon fill="white" stroke="black" points="585.5,-44.5 585.5,-74.5 709.5,-74.5 709.5,-44.5 585.5,-44.5"/>
<text text-anchor="start" x="593.5" y="-62.5" font-family="Helvetica,sans-Serif" font-size="10.00">AP_Mission::get_current</text>
<text text-anchor="middle" x="647.5" y="-51.5" font-family="Helvetica,sans-Serif" font-size="10.00">_do_cmd</text>
</a>
</g>
</g>
<!-- Node9&#45;&gt;Node12 -->
<g id="edge16" class="edge"><title>Node9&#45;&gt;Node12</title>
<path fill="none" stroke="midnightblue" d="M216.138,-93.7189C292.955,-89.0038 426.029,-80.3537 540,-70.5 554.722,-69.2271 570.572,-67.684 585.428,-66.1612"/>
<polygon fill="midnightblue" stroke="midnightblue" points="215.906,-90.2264 206.138,-94.3299 216.333,-97.2134 215.906,-90.2264"/>
</g>
<!-- Node13 -->
<g id="node13" class="node"><title>Node13</title>
<g id="a_node13"><a xlink:href="$structGCS__MAVLINK.html#a143a91427102a9aea995d10bad67f435" xlink:title="GCS_MAVLINK::handle\l_mission_item">
<polygon fill="white" stroke="black" points="409,-126.5 409,-156.5 531,-156.5 531,-126.5 409,-126.5"/>
<text text-anchor="start" x="417" y="-144.5" font-family="Helvetica,sans-Serif" font-size="10.00">GCS_MAVLINK::handle</text>
<text text-anchor="middle" x="470" y="-133.5" font-family="Helvetica,sans-Serif" font-size="10.00">_mission_item</text>
</a>
</g>
</g>
<!-- Node9&#45;&gt;Node13 -->
<g id="edge17" class="edge"><title>Node9&#45;&gt;Node13</title>
<path fill="none" stroke="midnightblue" d="M216.426,-107.689C225.019,-109.003 233.721,-110.306 242,-111.5 298.46,-119.646 362.949,-128.086 408.726,-133.93"/>
<polygon fill="midnightblue" stroke="midnightblue" points="216.839,-104.211 206.422,-106.147 215.772,-111.13 216.839,-104.211"/>
</g>
<!-- Node11 -->
<g id="node11" class="node"><title>Node11</title>
<g id="a_node11"><a xlink:href="$classAP__Mission.html#a626a17fce34227b3f40ca8d4a8605231" xlink:title="AP_Mission::mavlink\l_cmd_long_to_mission_cmd">
<polygon fill="white" stroke="black" points="400,-0.5 400,-30.5 540,-30.5 540,-0.5 400,-0.5"/>
<text text-anchor="start" x="408" y="-18.5" font-family="Helvetica,sans-Serif" font-size="10.00">AP_Mission::mavlink</text>
<text text-anchor="middle" x="470" y="-7.5" font-family="Helvetica,sans-Serif" font-size="10.00">_cmd_long_to_mission_cmd</text>
</a>
</g>
</g>
<!-- Node10&#45;&gt;Node11 -->
<g id="edge10" class="edge"><title>Node10&#45;&gt;Node11</title>
<path fill="none" stroke="midnightblue" d="M367.382,-38.903C379.246,-36.1707 391.668,-33.3099 403.591,-30.5638"/>
<polygon fill="midnightblue" stroke="midnightblue" points="366.53,-35.5074 357.571,-41.1625 368.101,-42.3288 366.53,-35.5074"/>
</g>
<!-- Node10&#45;&gt;Node12 -->
<g id="edge12" class="edge"><title>Node10&#45;&gt;Node12</title>
<path fill="none" stroke="midnightblue" d="M367.597,-54.6141C429.802,-55.7038 523.886,-57.352 585.268,-58.4273"/>
<polygon fill="midnightblue" stroke="midnightblue" points="367.575,-51.1133 357.516,-54.4375 367.453,-58.1122 367.575,-51.1133"/>
</g>
<!-- Node10&#45;&gt;Node13 -->
<g id="edge13" class="edge"><title>Node10&#45;&gt;Node13</title>
<path fill="none" stroke="midnightblue" d="M341.322,-73.405C371.482,-89.4907 413.291,-111.788 440.73,-126.423"/>
<polygon fill="midnightblue" stroke="midnightblue" points="342.835,-70.2454 332.365,-68.6277 339.541,-76.4219 342.835,-70.2454"/>
</g>
<!-- Node11&#45;&gt;Node12 -->
<g id="edge11" class="edge"><title>Node11&#45;&gt;Node12</title>
<path fill="none" stroke="midnightblue" d="M540.743,-32.9855C555.907,-36.7873 571.821,-40.777 586.566,-44.4738"/>
<polygon fill="midnightblue" stroke="midnightblue" points="541.457,-29.5562 530.906,-30.5192 539.755,-36.3461 541.457,-29.5562"/>
</g>
<!-- Node14 -->
<g id="node14" class="node"><title>Node14</title>
<g id="a_node14"><a xlink:href="$structGCS__MAVLINK.html#a00013e2a14c47d88af2638763d82e7d3" xlink:title="GCS_MAVLINK::handle\l_common_mission_message">
<polygon fill="white" stroke="black" points="576,-124.5 576,-154.5 719,-154.5 719,-124.5 576,-124.5"/>
<text text-anchor="start" x="584" y="-142.5" font-family="Helvetica,sans-Serif" font-size="10.00">GCS_MAVLINK::handle</text>
<text text-anchor="middle" x="647.5" y="-131.5" font-family="Helvetica,sans-Serif" font-size="10.00">_common_mission_message</text>
</a>
</g>
</g>
<!-- Node13&#45;&gt;Node14 -->
<g id="edge14" class="edge"><title>Node13&#45;&gt;Node14</title>
<path fill="none" stroke="midnightblue" d="M541.591,-140.696C552.835,-140.567 564.47,-140.435 575.718,-140.307"/>
<polygon fill="midnightblue" stroke="midnightblue" points="541.357,-137.198 531.397,-140.812 541.436,-144.197 541.357,-137.198"/>
</g>
<!-- Node14&#45;&gt;Node8 -->
<g id="edge15" class="edge"><title>Node14&#45;&gt;Node8</title>
<path fill="none" stroke="midnightblue" d="M729.193,-151.131C737.815,-152.374 746.473,-153.622 754.798,-154.822"/>
<polygon fill="midnightblue" stroke="midnightblue" points="729.508,-147.641 719.111,-149.678 728.509,-154.569 729.508,-147.641"/>
</g>
</g>
</svg>
