<?xml version="1.0" encoding="UTF-8" standalone="no"?>
<!DOCTYPE svg PUBLIC "-//W3C//DTD SVG 1.1//EN"
 "http://www.w3.org/Graphics/SVG/1.1/DTD/svg11.dtd">
<!-- Generated by graphviz version 2.38.0 (20140413.2041)
 -->
<!-- Title: location_update Pages: 1 -->
<svg width="733pt" height="142pt"
 viewBox="0.00 0.00 733.00 142.00" xmlns="http://www.w3.org/2000/svg" xmlns:xlink="http://www.w3.org/1999/xlink">
<g id="graph0" class="graph" transform="scale(1 1) rotate(0) translate(4 138)">
<title>location_update</title>
<polygon fill="white" stroke="none" points="-4,4 -4,-138 729,-138 729,4 -4,4"/>
<!-- Node1 -->
<g id="node1" class="node"><title>Node1</title>
<polygon fill="#bfbfbf" stroke="black" points="0,-95.5 0,-114.5 85,-114.5 85,-95.5 0,-95.5"/>
<text text-anchor="middle" x="42.5" y="-102.5" font-family="Helvetica,sans-Serif" font-size="10.00">location_update</text>
</g>
<!-- Node2 -->
<g id="node2" class="node"><title>Node2</title>
<g id="a_node2"><a xlink:href="$AP__Math_8h.html#a75b14352ec1c95a8276af9a0813cfdc3" xlink:title="radians">
<polygon fill="white" stroke="black" points="137,-114.5 137,-133.5 185,-133.5 185,-114.5 137,-114.5"/>
<text text-anchor="middle" x="161" y="-121.5" font-family="Helvetica,sans-Serif" font-size="10.00">radians</text>
</a>
</g>
</g>
<!-- Node1&#45;&gt;Node2 -->
<g id="edge1" class="edge"><title>Node1&#45;&gt;Node2</title>
<path fill="none" stroke="midnightblue" d="M85.2301,-111.806C98.9339,-114.041 113.967,-116.493 126.938,-118.608"/>
<polygon fill="midnightblue" stroke="midnightblue" points="126.399,-122.066 136.832,-120.222 127.526,-115.157 126.399,-122.066"/>
</g>
<!-- Node3 -->
<g id="node3" class="node"><title>Node3</title>
<g id="a_node3"><a xlink:href="$location_8cpp.html#a717b438a67f0b41665feec9009ba1bd4" xlink:title="location_offset">
<polygon fill="white" stroke="black" points="121,-76.5 121,-95.5 201,-95.5 201,-76.5 121,-76.5"/>
<text text-anchor="middle" x="161" y="-83.5" font-family="Helvetica,sans-Serif" font-size="10.00">location_offset</text>
</a>
</g>
</g>
<!-- Node1&#45;&gt;Node3 -->
<g id="edge2" class="edge"><title>Node1&#45;&gt;Node3</title>
<path fill="none" stroke="midnightblue" d="M85.2301,-98.1942C93.5831,-96.8319 102.43,-95.3891 111.003,-93.9909"/>
<polygon fill="midnightblue" stroke="midnightblue" points="111.588,-97.4418 120.895,-92.3777 110.461,-90.5331 111.588,-97.4418"/>
</g>
<!-- Node4 -->
<g id="node4" class="node"><title>Node4</title>
<g id="a_node4"><a xlink:href="$AP__Math_8h.html#a2a12cce483e9b870da70d30406d82c60" xlink:title="is_zero">
<polygon fill="white" stroke="black" points="255,-95.5 255,-114.5 303,-114.5 303,-95.5 255,-95.5"/>
<text text-anchor="middle" x="279" y="-102.5" font-family="Helvetica,sans-Serif" font-size="10.00">is_zero</text>
</a>
</g>
</g>
<!-- Node3&#45;&gt;Node4 -->
<g id="edge3" class="edge"><title>Node3&#45;&gt;Node4</title>
<path fill="none" stroke="midnightblue" d="M201.272,-92.4325C215.414,-94.7488 231.22,-97.3377 244.793,-99.561"/>
<polygon fill="midnightblue" stroke="midnightblue" points="244.24,-103.017 254.674,-101.179 245.371,-96.1089 244.24,-103.017"/>
</g>
<!-- Node5 -->
<g id="node5" class="node"><title>Node5</title>
<g id="a_node5"><a xlink:href="$location_8cpp.html#ad2368c582f3e0c135e2a74772f4db61a" xlink:title="longitude_scale">
<polygon fill="white" stroke="black" points="237,-57.5 237,-76.5 321,-76.5 321,-57.5 237,-57.5"/>
<text text-anchor="middle" x="279" y="-64.5" font-family="Helvetica,sans-Serif" font-size="10.00">longitude_scale</text>
</a>
</g>
</g>
<!-- Node3&#45;&gt;Node5 -->
<g id="edge4" class="edge"><title>Node3&#45;&gt;Node5</title>
<path fill="none" stroke="midnightblue" d="M201.272,-79.5675C209.492,-78.2211 218.275,-76.7826 226.854,-75.3774"/>
<polygon fill="midnightblue" stroke="midnightblue" points="227.484,-78.821 236.786,-73.7505 226.352,-71.913 227.484,-78.821"/>
</g>
<!-- Node6 -->
<g id="node6" class="node"><title>Node6</title>
<g id="a_node6"><a xlink:href="$AP__Math_8h.html#ad525609d9dba6ffa556a0fbf08a3f9b4" xlink:title="constrain_float">
<polygon fill="white" stroke="black" points="357,-57.5 357,-76.5 437,-76.5 437,-57.5 357,-57.5"/>
<text text-anchor="middle" x="397" y="-64.5" font-family="Helvetica,sans-Serif" font-size="10.00">constrain_float</text>
</a>
</g>
</g>
<!-- Node5&#45;&gt;Node6 -->
<g id="edge5" class="edge"><title>Node5&#45;&gt;Node6</title>
<path fill="none" stroke="midnightblue" d="M321.224,-67C329.465,-67 338.2,-67 346.682,-67"/>
<polygon fill="midnightblue" stroke="midnightblue" points="346.852,-70.5001 356.852,-67 346.851,-63.5001 346.852,-70.5001"/>
</g>
<!-- Node7 -->
<g id="node7" class="node"><title>Node7</title>
<g id="a_node7"><a xlink:href="$AP__Math_8h.html#a20e8f8671c282c69c1954652b6d61585" xlink:title="constrain_value">
<polygon fill="white" stroke="black" points="473,-57.5 473,-76.5 558,-76.5 558,-57.5 473,-57.5"/>
<text text-anchor="middle" x="515.5" y="-64.5" font-family="Helvetica,sans-Serif" font-size="10.00">constrain_value</text>
</a>
</g>
</g>
<!-- Node6&#45;&gt;Node7 -->
<g id="edge6" class="edge"><title>Node6&#45;&gt;Node7</title>
<path fill="none" stroke="midnightblue" d="M437.117,-67C445.384,-67 454.229,-67 462.877,-67"/>
<polygon fill="midnightblue" stroke="midnightblue" points="462.892,-70.5001 472.892,-67 462.892,-63.5001 462.892,-70.5001"/>
</g>
<!-- Node8 -->
<g id="node8" class="node"><title>Node8</title>
<g id="a_node8"><a xlink:href="$AP__Math_8cpp.html#a37e8e901754cb9c8e53a8e3030c82c50" xlink:title="constrain_value\&lt; int \&gt;">
<polygon fill="white" stroke="black" points="603,-114.5 603,-133.5 716,-133.5 716,-114.5 603,-114.5"/>
<text text-anchor="middle" x="659.5" y="-121.5" font-family="Helvetica,sans-Serif" font-size="10.00">constrain_value&lt; int &gt;</text>
</a>
</g>
</g>
<!-- Node7&#45;&gt;Node8 -->
<g id="edge7" class="edge"><title>Node7&#45;&gt;Node8</title>
<path fill="none" stroke="midnightblue" d="M533.97,-76.6284C549.432,-84.891 572.774,-96.7384 594,-105 599.854,-107.278 606.097,-109.439 612.307,-111.429"/>
<polygon fill="midnightblue" stroke="midnightblue" points="611.389,-114.809 621.977,-114.411 613.452,-108.12 611.389,-114.809"/>
</g>
<!-- Node9 -->
<g id="node9" class="node"><title>Node9</title>
<g id="a_node9"><a xlink:href="$AP__Math_8cpp.html#afdbe107ec1987d318a6347816fbf2b89" xlink:title="constrain_value\&lt; short \&gt;">
<polygon fill="white" stroke="black" points="597,-76.5 597,-95.5 722,-95.5 722,-76.5 597,-76.5"/>
<text text-anchor="middle" x="659.5" y="-83.5" font-family="Helvetica,sans-Serif" font-size="10.00">constrain_value&lt; short &gt;</text>
</a>
</g>
</g>
<!-- Node7&#45;&gt;Node9 -->
<g id="edge8" class="edge"><title>Node7&#45;&gt;Node9</title>
<path fill="none" stroke="midnightblue" d="M558.337,-72.5979C567.323,-73.8003 577.064,-75.1036 586.821,-76.4092"/>
<polygon fill="midnightblue" stroke="midnightblue" points="586.589,-79.9093 596.965,-77.7665 587.518,-72.9711 586.589,-79.9093"/>
</g>
<!-- Node10 -->
<g id="node10" class="node"><title>Node10</title>
<g id="a_node10"><a xlink:href="$AP__Math_8cpp.html#ae6c621670c214da687de21d4e3a92587" xlink:title="constrain_value\&lt; float \&gt;">
<polygon fill="white" stroke="black" points="598.5,-38.5 598.5,-57.5 720.5,-57.5 720.5,-38.5 598.5,-38.5"/>
<text text-anchor="middle" x="659.5" y="-45.5" font-family="Helvetica,sans-Serif" font-size="10.00">constrain_value&lt; float &gt;</text>
</a>
</g>
</g>
<!-- Node7&#45;&gt;Node10 -->
<g id="edge9" class="edge"><title>Node7&#45;&gt;Node10</title>
<path fill="none" stroke="midnightblue" d="M558.337,-61.4021C567.724,-60.146 577.935,-58.7798 588.129,-57.4159"/>
<polygon fill="midnightblue" stroke="midnightblue" points="588.838,-60.8522 598.286,-56.0568 587.91,-53.9141 588.838,-60.8522"/>
</g>
<!-- Node11 -->
<g id="node11" class="node"><title>Node11</title>
<g id="a_node11"><a xlink:href="$AP__Math_8cpp.html#afe3990b00e9abc43fa97dfaf8e32f5c4" xlink:title="constrain_value\&lt; double \&gt;">
<polygon fill="white" stroke="black" points="594,-0.5 594,-19.5 725,-19.5 725,-0.5 594,-0.5"/>
<text text-anchor="middle" x="659.5" y="-7.5" font-family="Helvetica,sans-Serif" font-size="10.00">constrain_value&lt; double &gt;</text>
</a>
</g>
</g>
<!-- Node7&#45;&gt;Node11 -->
<g id="edge10" class="edge"><title>Node7&#45;&gt;Node11</title>
<path fill="none" stroke="midnightblue" d="M533.97,-57.3716C549.432,-49.109 572.774,-37.2616 594,-29 599.854,-26.7215 606.097,-24.5614 612.307,-22.5705"/>
<polygon fill="midnightblue" stroke="midnightblue" points="613.452,-25.88 621.977,-19.5887 611.389,-19.1908 613.452,-25.88"/>
</g>
</g>
</svg>
