<?xml version="1.0" encoding="UTF-8" standalone="no"?>
<!DOCTYPE svg PUBLIC "-//W3C//DTD SVG 1.1//EN"
 "http://www.w3.org/Graphics/SVG/1.1/DTD/svg11.dtd">
<!-- Generated by graphviz version 2.38.0 (20140413.2041)
 -->
<!-- Title: location_offset Pages: 1 -->
<svg width="612pt" height="142pt"
 viewBox="0.00 0.00 612.00 142.00" xmlns="http://www.w3.org/2000/svg" xmlns:xlink="http://www.w3.org/1999/xlink">
<g id="graph0" class="graph" transform="scale(1 1) rotate(0) translate(4 138)">
<title>location_offset</title>
<polygon fill="white" stroke="none" points="-4,4 -4,-138 608,-138 608,4 -4,4"/>
<!-- Node1 -->
<g id="node1" class="node"><title>Node1</title>
<polygon fill="#bfbfbf" stroke="black" points="0,-76.5 0,-95.5 80,-95.5 80,-76.5 0,-76.5"/>
<text text-anchor="middle" x="40" y="-83.5" font-family="Helvetica,sans-Serif" font-size="10.00">location_offset</text>
</g>
<!-- Node2 -->
<g id="node2" class="node"><title>Node2</title>
<g id="a_node2"><a xlink:href="$AP__Math_8h.html#a2a12cce483e9b870da70d30406d82c60" xlink:title="is_zero">
<polygon fill="white" stroke="black" points="134,-95.5 134,-114.5 182,-114.5 182,-95.5 134,-95.5"/>
<text text-anchor="middle" x="158" y="-102.5" font-family="Helvetica,sans-Serif" font-size="10.00">is_zero</text>
</a>
</g>
</g>
<!-- Node1&#45;&gt;Node2 -->
<g id="edge1" class="edge"><title>Node1&#45;&gt;Node2</title>
<path fill="none" stroke="midnightblue" d="M80.2723,-92.4325C94.414,-94.7488 110.22,-97.3377 123.793,-99.561"/>
<polygon fill="midnightblue" stroke="midnightblue" points="123.24,-103.017 133.674,-101.179 124.371,-96.1089 123.24,-103.017"/>
</g>
<!-- Node3 -->
<g id="node3" class="node"><title>Node3</title>
<g id="a_node3"><a xlink:href="$location_8cpp.html#ad2368c582f3e0c135e2a74772f4db61a" xlink:title="longitude_scale">
<polygon fill="white" stroke="black" points="116,-57.5 116,-76.5 200,-76.5 200,-57.5 116,-57.5"/>
<text text-anchor="middle" x="158" y="-64.5" font-family="Helvetica,sans-Serif" font-size="10.00">longitude_scale</text>
</a>
</g>
</g>
<!-- Node1&#45;&gt;Node3 -->
<g id="edge2" class="edge"><title>Node1&#45;&gt;Node3</title>
<path fill="none" stroke="midnightblue" d="M80.2723,-79.5675C88.4924,-78.2211 97.2746,-76.7826 105.854,-75.3774"/>
<polygon fill="midnightblue" stroke="midnightblue" points="106.484,-78.821 115.786,-73.7505 105.352,-71.913 106.484,-78.821"/>
</g>
<!-- Node4 -->
<g id="node4" class="node"><title>Node4</title>
<g id="a_node4"><a xlink:href="$AP__Math_8h.html#ad525609d9dba6ffa556a0fbf08a3f9b4" xlink:title="constrain_float">
<polygon fill="white" stroke="black" points="236,-57.5 236,-76.5 316,-76.5 316,-57.5 236,-57.5"/>
<text text-anchor="middle" x="276" y="-64.5" font-family="Helvetica,sans-Serif" font-size="10.00">constrain_float</text>
</a>
</g>
</g>
<!-- Node3&#45;&gt;Node4 -->
<g id="edge3" class="edge"><title>Node3&#45;&gt;Node4</title>
<path fill="none" stroke="midnightblue" d="M200.224,-67C208.465,-67 217.2,-67 225.682,-67"/>
<polygon fill="midnightblue" stroke="midnightblue" points="225.852,-70.5001 235.852,-67 225.851,-63.5001 225.852,-70.5001"/>
</g>
<!-- Node5 -->
<g id="node5" class="node"><title>Node5</title>
<g id="a_node5"><a xlink:href="$AP__Math_8h.html#a20e8f8671c282c69c1954652b6d61585" xlink:title="constrain_value">
<polygon fill="white" stroke="black" points="352,-57.5 352,-76.5 437,-76.5 437,-57.5 352,-57.5"/>
<text text-anchor="middle" x="394.5" y="-64.5" font-family="Helvetica,sans-Serif" font-size="10.00">constrain_value</text>
</a>
</g>
</g>
<!-- Node4&#45;&gt;Node5 -->
<g id="edge4" class="edge"><title>Node4&#45;&gt;Node5</title>
<path fill="none" stroke="midnightblue" d="M316.117,-67C324.384,-67 333.229,-67 341.877,-67"/>
<polygon fill="midnightblue" stroke="midnightblue" points="341.892,-70.5001 351.892,-67 341.892,-63.5001 341.892,-70.5001"/>
</g>
<!-- Node6 -->
<g id="node6" class="node"><title>Node6</title>
<g id="a_node6"><a xlink:href="$AP__Math_8cpp.html#a37e8e901754cb9c8e53a8e3030c82c50" xlink:title="constrain_value\&lt; int \&gt;">
<polygon fill="white" stroke="black" points="482,-114.5 482,-133.5 595,-133.5 595,-114.5 482,-114.5"/>
<text text-anchor="middle" x="538.5" y="-121.5" font-family="Helvetica,sans-Serif" font-size="10.00">constrain_value&lt; int &gt;</text>
</a>
</g>
</g>
<!-- Node5&#45;&gt;Node6 -->
<g id="edge5" class="edge"><title>Node5&#45;&gt;Node6</title>
<path fill="none" stroke="midnightblue" d="M412.97,-76.6284C428.432,-84.891 451.774,-96.7384 473,-105 478.854,-107.278 485.097,-109.439 491.307,-111.429"/>
<polygon fill="midnightblue" stroke="midnightblue" points="490.389,-114.809 500.977,-114.411 492.452,-108.12 490.389,-114.809"/>
</g>
<!-- Node7 -->
<g id="node7" class="node"><title>Node7</title>
<g id="a_node7"><a xlink:href="$AP__Math_8cpp.html#afdbe107ec1987d318a6347816fbf2b89" xlink:title="constrain_value\&lt; short \&gt;">
<polygon fill="white" stroke="black" points="476,-76.5 476,-95.5 601,-95.5 601,-76.5 476,-76.5"/>
<text text-anchor="middle" x="538.5" y="-83.5" font-family="Helvetica,sans-Serif" font-size="10.00">constrain_value&lt; short &gt;</text>
</a>
</g>
</g>
<!-- Node5&#45;&gt;Node7 -->
<g id="edge6" class="edge"><title>Node5&#45;&gt;Node7</title>
<path fill="none" stroke="midnightblue" d="M437.337,-72.5979C446.323,-73.8003 456.064,-75.1036 465.821,-76.4092"/>
<polygon fill="midnightblue" stroke="midnightblue" points="465.589,-79.9093 475.965,-77.7665 466.518,-72.9711 465.589,-79.9093"/>
</g>
<!-- Node8 -->
<g id="node8" class="node"><title>Node8</title>
<g id="a_node8"><a xlink:href="$AP__Math_8cpp.html#ae6c621670c214da687de21d4e3a92587" xlink:title="constrain_value\&lt; float \&gt;">
<polygon fill="white" stroke="black" points="477.5,-38.5 477.5,-57.5 599.5,-57.5 599.5,-38.5 477.5,-38.5"/>
<text text-anchor="middle" x="538.5" y="-45.5" font-family="Helvetica,sans-Serif" font-size="10.00">constrain_value&lt; float &gt;</text>
</a>
</g>
</g>
<!-- Node5&#45;&gt;Node8 -->
<g id="edge7" class="edge"><title>Node5&#45;&gt;Node8</title>
<path fill="none" stroke="midnightblue" d="M437.337,-61.4021C446.724,-60.146 456.935,-58.7798 467.129,-57.4159"/>
<polygon fill="midnightblue" stroke="midnightblue" points="467.838,-60.8522 477.286,-56.0568 466.91,-53.9141 467.838,-60.8522"/>
</g>
<!-- Node9 -->
<g id="node9" class="node"><title>Node9</title>
<g id="a_node9"><a xlink:href="$AP__Math_8cpp.html#afe3990b00e9abc43fa97dfaf8e32f5c4" xlink:title="constrain_value\&lt; double \&gt;">
<polygon fill="white" stroke="black" points="473,-0.5 473,-19.5 604,-19.5 604,-0.5 473,-0.5"/>
<text text-anchor="middle" x="538.5" y="-7.5" font-family="Helvetica,sans-Serif" font-size="10.00">constrain_value&lt; double &gt;</text>
</a>
</g>
</g>
<!-- Node5&#45;&gt;Node9 -->
<g id="edge8" class="edge"><title>Node5&#45;&gt;Node9</title>
<path fill="none" stroke="midnightblue" d="M412.97,-57.3716C428.432,-49.109 451.774,-37.2616 473,-29 478.854,-26.7215 485.097,-24.5614 491.307,-22.5705"/>
<polygon fill="midnightblue" stroke="midnightblue" points="492.452,-25.88 500.977,-19.5887 490.389,-19.1908 492.452,-25.88"/>
</g>
</g>
</svg>
