<?xml version="1.0" encoding="UTF-8" standalone="no"?>
<!DOCTYPE svg PUBLIC "-//W3C//DTD SVG 1.1//EN"
 "http://www.w3.org/Graphics/SVG/1.1/DTD/svg11.dtd">
<!-- Generated by graphviz version 2.38.0 (20140413.2041)
 -->
<!-- Title: check_latlng Pages: 1 -->
<svg width="559pt" height="125pt"
 viewBox="0.00 0.00 559.00 124.50" xmlns="http://www.w3.org/2000/svg" xmlns:xlink="http://www.w3.org/1999/xlink">
<g id="graph0" class="graph" transform="scale(1 1) rotate(0) translate(4 120.5)">
<title>check_latlng</title>
<polygon fill="white" stroke="none" points="-4,4 -4,-120.5 555,-120.5 555,4 -4,4"/>
<!-- Node1 -->
<g id="node1" class="node"><title>Node1</title>
<polygon fill="#bfbfbf" stroke="black" points="0,-44.5 0,-63.5 71,-63.5 71,-44.5 0,-44.5"/>
<text text-anchor="middle" x="35.5" y="-51.5" font-family="Helvetica,sans-Serif" font-size="10.00">check_latlng</text>
</g>
<!-- Node2 -->
<g id="node2" class="node"><title>Node2</title>
<g id="a_node2"><a xlink:href="$classAC__Fence.html#a9e7499c3b42f4ef5cc120bf103d17fe3" xlink:title="handler for polygon fence messages with GCS ">
<polygon fill="white" stroke="black" points="107,-89.5 107,-108.5 229,-108.5 229,-89.5 107,-89.5"/>
<text text-anchor="middle" x="168" y="-96.5" font-family="Helvetica,sans-Serif" font-size="10.00">AC_Fence::handle_msg</text>
</a>
</g>
</g>
<!-- Node1&#45;&gt;Node2 -->
<g id="edge1" class="edge"><title>Node1&#45;&gt;Node2</title>
<path fill="none" stroke="midnightblue" d="M73.7056,-66.8295C94.609,-74.0376 120.255,-82.881 139.364,-89.4704"/>
<polygon fill="midnightblue" stroke="midnightblue" points="74.7704,-63.4945 64.1757,-63.5433 72.4884,-70.1121 74.7704,-63.4945"/>
</g>
<!-- Node4 -->
<g id="node4" class="node"><title>Node4</title>
<g id="a_node4"><a xlink:href="$structGCS__MAVLINK.html#ae507720fd8a0a7f67bc8100a5ae55c40" xlink:title="GCS_MAVLINK::handle\l_rally_point">
<polygon fill="white" stroke="black" points="107,-39 107,-69 229,-69 229,-39 107,-39"/>
<text text-anchor="start" x="115" y="-57" font-family="Helvetica,sans-Serif" font-size="10.00">GCS_MAVLINK::handle</text>
<text text-anchor="middle" x="168" y="-46" font-family="Helvetica,sans-Serif" font-size="10.00">_rally_point</text>
</a>
</g>
</g>
<!-- Node1&#45;&gt;Node4 -->
<g id="edge3" class="edge"><title>Node1&#45;&gt;Node4</title>
<path fill="none" stroke="midnightblue" d="M81.3005,-54C89.5729,-54 98.3332,-54 106.971,-54"/>
<polygon fill="midnightblue" stroke="midnightblue" points="81.129,-50.5001 71.129,-54 81.129,-57.5001 81.129,-50.5001"/>
</g>
<!-- Node7 -->
<g id="node7" class="node"><title>Node7</title>
<g id="a_node7"><a xlink:href="$location_8h.html#a9b7e911ac78bab5a978b4f0d3941e250" xlink:title="location_sanitize">
<polygon fill="white" stroke="black" points="123.5,-0.5 123.5,-19.5 212.5,-19.5 212.5,-0.5 123.5,-0.5"/>
<text text-anchor="middle" x="168" y="-7.5" font-family="Helvetica,sans-Serif" font-size="10.00">location_sanitize</text>
</a>
</g>
</g>
<!-- Node1&#45;&gt;Node7 -->
<g id="edge6" class="edge"><title>Node1&#45;&gt;Node7</title>
<path fill="none" stroke="midnightblue" d="M72.606,-40.9301C83.6202,-37.015 95.7828,-32.7637 107,-29 116.427,-25.8371 126.733,-22.522 136.103,-19.5626"/>
<polygon fill="midnightblue" stroke="midnightblue" points="71.1131,-37.7467 62.8738,-44.4074 73.4684,-44.3386 71.1131,-37.7467"/>
</g>
<!-- Node3 -->
<g id="node3" class="node"><title>Node3</title>
<g id="a_node3"><a xlink:href="$classAC__Fence.html#ae37cf33a4fd250b66386253720fddbc9" xlink:title="set_home_distance &#45; update vehicle&#39;s distance from home in meters &#45; required for circular horizontal ...">
<polygon fill="white" stroke="black" points="273,-86 273,-116 385,-116 385,-86 273,-86"/>
<text text-anchor="start" x="281" y="-104" font-family="Helvetica,sans-Serif" font-size="10.00">AC_Fence::set_home</text>
<text text-anchor="middle" x="329" y="-93" font-family="Helvetica,sans-Serif" font-size="10.00">_distance</text>
</a>
</g>
</g>
<!-- Node2&#45;&gt;Node3 -->
<g id="edge2" class="edge"><title>Node2&#45;&gt;Node3</title>
<path fill="none" stroke="midnightblue" d="M239.312,-99.8844C250.523,-100.025 261.981,-100.17 272.778,-100.305"/>
<polygon fill="midnightblue" stroke="midnightblue" points="239.154,-96.3823 229.111,-99.7561 239.066,-103.382 239.154,-96.3823"/>
</g>
<!-- Node5 -->
<g id="node5" class="node"><title>Node5</title>
<g id="a_node5"><a xlink:href="$structGCS__MAVLINK.html#a0cddddd51bc5ea4c137c1927d2e34d97" xlink:title="GCS_MAVLINK::handle\l_common_rally_message">
<polygon fill="white" stroke="black" points="265,-37 265,-67 393,-67 393,-37 265,-37"/>
<text text-anchor="start" x="273" y="-55" font-family="Helvetica,sans-Serif" font-size="10.00">GCS_MAVLINK::handle</text>
<text text-anchor="middle" x="329" y="-44" font-family="Helvetica,sans-Serif" font-size="10.00">_common_rally_message</text>
</a>
</g>
</g>
<!-- Node4&#45;&gt;Node5 -->
<g id="edge4" class="edge"><title>Node4&#45;&gt;Node5</title>
<path fill="none" stroke="midnightblue" d="M239.377,-53.1148C247.872,-53.0079 256.508,-52.8993 264.89,-52.7938"/>
<polygon fill="midnightblue" stroke="midnightblue" points="239.066,-49.6183 229.111,-53.2439 239.154,-56.6177 239.066,-49.6183"/>
</g>
<!-- Node6 -->
<g id="node6" class="node"><title>Node6</title>
<g id="a_node6"><a xlink:href="$structGCS__MAVLINK.html#a13da94a2548ade6552a5250eb3251e89" xlink:title="GCS_MAVLINK::handle\l_common_message">
<polygon fill="white" stroke="black" points="429,-37 429,-67 551,-67 551,-37 429,-37"/>
<text text-anchor="start" x="437" y="-55" font-family="Helvetica,sans-Serif" font-size="10.00">GCS_MAVLINK::handle</text>
<text text-anchor="middle" x="490" y="-44" font-family="Helvetica,sans-Serif" font-size="10.00">_common_message</text>
</a>
</g>
</g>
<!-- Node5&#45;&gt;Node6 -->
<g id="edge5" class="edge"><title>Node5&#45;&gt;Node6</title>
<path fill="none" stroke="midnightblue" d="M403.533,-52C411.982,-52 420.521,-52 428.766,-52"/>
<polygon fill="midnightblue" stroke="midnightblue" points="403.298,-48.5001 393.298,-52 403.298,-55.5001 403.298,-48.5001"/>
</g>
</g>
</svg>
