<?xml version="1.0" encoding="UTF-8" standalone="no"?>
<!DOCTYPE svg PUBLIC "-//W3C//DTD SVG 1.1//EN"
 "http://www.w3.org/Graphics/SVG/1.1/DTD/svg11.dtd">
<!-- Generated by graphviz version 2.38.0 (20140413.2041)
 -->
<!-- Title: check_lat Pages: 1 -->
<svg width="883pt" height="289pt"
 viewBox="0.00 0.00 883.00 289.00" xmlns="http://www.w3.org/2000/svg" xmlns:xlink="http://www.w3.org/1999/xlink">
<g id="graph0" class="graph" transform="scale(1 1) rotate(0) translate(4 285)">
<title>check_lat</title>
<polygon fill="white" stroke="none" points="-4,4 -4,-285 879,-285 879,4 -4,4"/>
<!-- Node1 -->
<g id="node1" class="node"><title>Node1</title>
<polygon fill="#bfbfbf" stroke="black" points="0,-88 0,-107 59,-107 59,-88 0,-88"/>
<text text-anchor="middle" x="29.5" y="-95" font-family="Helvetica,sans-Serif" font-size="10.00">check_lat</text>
</g>
<!-- Node2 -->
<g id="node2" class="node"><title>Node2</title>
<g id="a_node2"><a xlink:href="$location_8h.html#a8e3c1a8152caf33ff0ec0d96e4c79a96" xlink:title="check_latlng">
<polygon fill="white" stroke="black" points="114,-196 114,-215 185,-215 185,-196 114,-196"/>
<text text-anchor="middle" x="149.5" y="-203" font-family="Helvetica,sans-Serif" font-size="10.00">check_latlng</text>
</a>
</g>
</g>
<!-- Node1&#45;&gt;Node2 -->
<g id="edge1" class="edge"><title>Node1&#45;&gt;Node2</title>
<path fill="none" stroke="midnightblue" d="M48.6363,-114.099C73.5867,-136.935 117.698,-177.309 137.882,-195.782"/>
<polygon fill="midnightblue" stroke="midnightblue" points="50.7115,-111.254 40.9717,-107.084 45.9854,-116.418 50.7115,-111.254"/>
</g>
<!-- Node9 -->
<g id="node9" class="node"><title>Node9</title>
<g id="a_node9"><a xlink:href="$classAP__Mission.html#a80b09bc9fa20ca29268f08f51de9050e" xlink:title="AP_Mission::mavlink\l_int_to_mission_cmd">
<polygon fill="white" stroke="black" points="95,-82.5 95,-112.5 204,-112.5 204,-82.5 95,-82.5"/>
<text text-anchor="start" x="103" y="-100.5" font-family="Helvetica,sans-Serif" font-size="10.00">AP_Mission::mavlink</text>
<text text-anchor="middle" x="149.5" y="-89.5" font-family="Helvetica,sans-Serif" font-size="10.00">_int_to_mission_cmd</text>
</a>
</g>
</g>
<!-- Node1&#45;&gt;Node9 -->
<g id="edge8" class="edge"><title>Node1&#45;&gt;Node9</title>
<path fill="none" stroke="midnightblue" d="M69.0989,-97.5C77.3203,-97.5 86.1444,-97.5 94.8142,-97.5"/>
<polygon fill="midnightblue" stroke="midnightblue" points="69.0645,-94.0001 59.0645,-97.5 69.0645,-101 69.0645,-94.0001"/>
</g>
<!-- Node10 -->
<g id="node10" class="node"><title>Node10</title>
<g id="a_node10"><a xlink:href="$classAP__Mission.html#acc409102a42d51e3c909f5205ccd9895" xlink:title="AP_Mission::mavlink\l_to_mission_cmd">
<polygon fill="white" stroke="black" points="246.5,-38.5 246.5,-68.5 355.5,-68.5 355.5,-38.5 246.5,-38.5"/>
<text text-anchor="start" x="254.5" y="-56.5" font-family="Helvetica,sans-Serif" font-size="10.00">AP_Mission::mavlink</text>
<text text-anchor="middle" x="301" y="-45.5" font-family="Helvetica,sans-Serif" font-size="10.00">_to_mission_cmd</text>
</a>
</g>
</g>
<!-- Node1&#45;&gt;Node10 -->
<g id="edge18" class="edge"><title>Node1&#45;&gt;Node10</title>
<path fill="none" stroke="midnightblue" d="M60.2916,-83.9669C71.0267,-79.6258 83.3644,-75.2378 95,-72.5 145.449,-60.6294 204.516,-56.1105 246.254,-54.4234"/>
<polygon fill="midnightblue" stroke="midnightblue" points="58.8132,-80.7916 50.9495,-87.8917 61.5246,-87.2451 58.8132,-80.7916"/>
</g>
<!-- Node3 -->
<g id="node3" class="node"><title>Node3</title>
<g id="a_node3"><a xlink:href="$classAC__Fence.html#a9e7499c3b42f4ef5cc120bf103d17fe3" xlink:title="handler for polygon fence messages with GCS ">
<polygon fill="white" stroke="black" points="240,-256 240,-275 362,-275 362,-256 240,-256"/>
<text text-anchor="middle" x="301" y="-263" font-family="Helvetica,sans-Serif" font-size="10.00">AC_Fence::handle_msg</text>
</a>
</g>
</g>
<!-- Node2&#45;&gt;Node3 -->
<g id="edge2" class="edge"><title>Node2&#45;&gt;Node3</title>
<path fill="none" stroke="midnightblue" d="M178.823,-219.559C196.241,-227.931 219.146,-238.456 240,-246.5 248.767,-249.882 258.415,-253.135 267.363,-255.966"/>
<polygon fill="midnightblue" stroke="midnightblue" points="180.284,-216.377 169.759,-215.158 177.227,-222.674 180.284,-216.377"/>
</g>
<!-- Node5 -->
<g id="node5" class="node"><title>Node5</title>
<g id="a_node5"><a xlink:href="$location_8h.html#a9b7e911ac78bab5a978b4f0d3941e250" xlink:title="location_sanitize">
<polygon fill="white" stroke="black" points="256.5,-218 256.5,-237 345.5,-237 345.5,-218 256.5,-218"/>
<text text-anchor="middle" x="301" y="-225" font-family="Helvetica,sans-Serif" font-size="10.00">location_sanitize</text>
</a>
</g>
</g>
<!-- Node2&#45;&gt;Node5 -->
<g id="edge4" class="edge"><title>Node2&#45;&gt;Node5</title>
<path fill="none" stroke="midnightblue" d="M195.26,-212.087C214.614,-214.935 237.185,-218.256 256.407,-221.085"/>
<polygon fill="midnightblue" stroke="midnightblue" points="195.577,-208.596 185.174,-210.603 194.558,-215.521 195.577,-208.596"/>
</g>
<!-- Node6 -->
<g id="node6" class="node"><title>Node6</title>
<g id="a_node6"><a xlink:href="$structGCS__MAVLINK.html#ae507720fd8a0a7f67bc8100a5ae55c40" xlink:title="GCS_MAVLINK::handle\l_rally_point">
<polygon fill="white" stroke="black" points="240,-168.5 240,-198.5 362,-198.5 362,-168.5 240,-168.5"/>
<text text-anchor="start" x="248" y="-186.5" font-family="Helvetica,sans-Serif" font-size="10.00">GCS_MAVLINK::handle</text>
<text text-anchor="middle" x="301" y="-175.5" font-family="Helvetica,sans-Serif" font-size="10.00">_rally_point</text>
</a>
</g>
</g>
<!-- Node2&#45;&gt;Node6 -->
<g id="edge5" class="edge"><title>Node2&#45;&gt;Node6</title>
<path fill="none" stroke="midnightblue" d="M195.458,-198.884C209.379,-196.836 224.948,-194.544 239.731,-192.369"/>
<polygon fill="midnightblue" stroke="midnightblue" points="194.558,-195.479 185.174,-200.397 195.577,-202.404 194.558,-195.479"/>
</g>
<!-- Node4 -->
<g id="node4" class="node"><title>Node4</title>
<g id="a_node4"><a xlink:href="$classAC__Fence.html#ae37cf33a4fd250b66386253720fddbc9" xlink:title="set_home_distance &#45; update vehicle&#39;s distance from home in meters &#45; required for circular horizontal ...">
<polygon fill="white" stroke="black" points="412,-250.5 412,-280.5 524,-280.5 524,-250.5 412,-250.5"/>
<text text-anchor="start" x="420" y="-268.5" font-family="Helvetica,sans-Serif" font-size="10.00">AC_Fence::set_home</text>
<text text-anchor="middle" x="468" y="-257.5" font-family="Helvetica,sans-Serif" font-size="10.00">_distance</text>
</a>
</g>
</g>
<!-- Node3&#45;&gt;Node4 -->
<g id="edge3" class="edge"><title>Node3&#45;&gt;Node4</title>
<path fill="none" stroke="midnightblue" d="M372.107,-265.5C385.422,-265.5 399.176,-265.5 411.942,-265.5"/>
<polygon fill="midnightblue" stroke="midnightblue" points="372.036,-262 362.036,-265.5 372.036,-269 372.036,-262"/>
</g>
<!-- Node7 -->
<g id="node7" class="node"><title>Node7</title>
<g id="a_node7"><a xlink:href="$structGCS__MAVLINK.html#a0cddddd51bc5ea4c137c1927d2e34d97" xlink:title="GCS_MAVLINK::handle\l_common_rally_message">
<polygon fill="white" stroke="black" points="581.5,-173.5 581.5,-203.5 709.5,-203.5 709.5,-173.5 581.5,-173.5"/>
<text text-anchor="start" x="589.5" y="-191.5" font-family="Helvetica,sans-Serif" font-size="10.00">GCS_MAVLINK::handle</text>
<text text-anchor="middle" x="645.5" y="-180.5" font-family="Helvetica,sans-Serif" font-size="10.00">_common_rally_message</text>
</a>
</g>
</g>
<!-- Node6&#45;&gt;Node7 -->
<g id="edge6" class="edge"><title>Node6&#45;&gt;Node7</title>
<path fill="none" stroke="midnightblue" d="M372.05,-184.523C433.487,-185.42 522.025,-186.712 581.324,-187.578"/>
<polygon fill="midnightblue" stroke="midnightblue" points="372.101,-181.023 362.051,-184.377 371.999,-188.022 372.101,-181.023"/>
</g>
<!-- Node8 -->
<g id="node8" class="node"><title>Node8</title>
<g id="a_node8"><a xlink:href="$structGCS__MAVLINK.html#a13da94a2548ade6552a5250eb3251e89" xlink:title="GCS_MAVLINK::handle\l_common_message">
<polygon fill="white" stroke="black" points="753,-148.5 753,-178.5 875,-178.5 875,-148.5 753,-148.5"/>
<text text-anchor="start" x="761" y="-166.5" font-family="Helvetica,sans-Serif" font-size="10.00">GCS_MAVLINK::handle</text>
<text text-anchor="middle" x="814" y="-155.5" font-family="Helvetica,sans-Serif" font-size="10.00">_common_message</text>
</a>
</g>
</g>
<!-- Node7&#45;&gt;Node8 -->
<g id="edge7" class="edge"><title>Node7&#45;&gt;Node8</title>
<path fill="none" stroke="midnightblue" d="M719.918,-177.476C730.897,-175.828 742.109,-174.144 752.773,-172.543"/>
<polygon fill="midnightblue" stroke="midnightblue" points="719.291,-174.031 709.921,-178.977 720.33,-180.954 719.291,-174.031"/>
</g>
<!-- Node9&#45;&gt;Node10 -->
<g id="edge9" class="edge"><title>Node9&#45;&gt;Node10</title>
<path fill="none" stroke="midnightblue" d="M211.39,-79.5793C223.86,-75.9092 236.863,-72.0821 248.945,-68.5262"/>
<polygon fill="midnightblue" stroke="midnightblue" points="210.136,-76.2997 201.531,-82.4808 212.113,-83.0149 210.136,-76.2997"/>
</g>
<!-- Node12 -->
<g id="node12" class="node"><title>Node12</title>
<g id="a_node12"><a xlink:href="$classAP__Mission.html#abf0a05bca7e8ec89b416f7b04877c40c" xlink:title="get_current_do_cmd &#45; returns active &quot;do&quot; command ">
<polygon fill="white" stroke="black" points="583.5,-44.5 583.5,-74.5 707.5,-74.5 707.5,-44.5 583.5,-44.5"/>
<text text-anchor="start" x="591.5" y="-62.5" font-family="Helvetica,sans-Serif" font-size="10.00">AP_Mission::get_current</text>
<text text-anchor="middle" x="645.5" y="-51.5" font-family="Helvetica,sans-Serif" font-size="10.00">_do_cmd</text>
</a>
</g>
</g>
<!-- Node9&#45;&gt;Node12 -->
<g id="edge16" class="edge"><title>Node9&#45;&gt;Node12</title>
<path fill="none" stroke="midnightblue" d="M214.138,-93.7189C290.955,-89.0038 424.029,-80.3537 538,-70.5 552.722,-69.2271 568.572,-67.684 583.428,-66.1612"/>
<polygon fill="midnightblue" stroke="midnightblue" points="213.906,-90.2264 204.138,-94.3299 214.333,-97.2134 213.906,-90.2264"/>
</g>
<!-- Node13 -->
<g id="node13" class="node"><title>Node13</title>
<g id="a_node13"><a xlink:href="$structGCS__MAVLINK.html#a143a91427102a9aea995d10bad67f435" xlink:title="GCS_MAVLINK::handle\l_mission_item">
<polygon fill="white" stroke="black" points="407,-126.5 407,-156.5 529,-156.5 529,-126.5 407,-126.5"/>
<text text-anchor="start" x="415" y="-144.5" font-family="Helvetica,sans-Serif" font-size="10.00">GCS_MAVLINK::handle</text>
<text text-anchor="middle" x="468" y="-133.5" font-family="Helvetica,sans-Serif" font-size="10.00">_mission_item</text>
</a>
</g>
</g>
<!-- Node9&#45;&gt;Node13 -->
<g id="edge17" class="edge"><title>Node9&#45;&gt;Node13</title>
<path fill="none" stroke="midnightblue" d="M214.426,-107.689C223.019,-109.003 231.721,-110.306 240,-111.5 296.46,-119.646 360.949,-128.086 406.726,-133.93"/>
<polygon fill="midnightblue" stroke="midnightblue" points="214.839,-104.211 204.422,-106.147 213.772,-111.13 214.839,-104.211"/>
</g>
<!-- Node11 -->
<g id="node11" class="node"><title>Node11</title>
<g id="a_node11"><a xlink:href="$classAP__Mission.html#a626a17fce34227b3f40ca8d4a8605231" xlink:title="AP_Mission::mavlink\l_cmd_long_to_mission_cmd">
<polygon fill="white" stroke="black" points="398,-0.5 398,-30.5 538,-30.5 538,-0.5 398,-0.5"/>
<text text-anchor="start" x="406" y="-18.5" font-family="Helvetica,sans-Serif" font-size="10.00">AP_Mission::mavlink</text>
<text text-anchor="middle" x="468" y="-7.5" font-family="Helvetica,sans-Serif" font-size="10.00">_cmd_long_to_mission_cmd</text>
</a>
</g>
</g>
<!-- Node10&#45;&gt;Node11 -->
<g id="edge10" class="edge"><title>Node10&#45;&gt;Node11</title>
<path fill="none" stroke="midnightblue" d="M365.382,-38.903C377.246,-36.1707 389.668,-33.3099 401.591,-30.5638"/>
<polygon fill="midnightblue" stroke="midnightblue" points="364.53,-35.5074 355.571,-41.1625 366.101,-42.3288 364.53,-35.5074"/>
</g>
<!-- Node10&#45;&gt;Node12 -->
<g id="edge12" class="edge"><title>Node10&#45;&gt;Node12</title>
<path fill="none" stroke="midnightblue" d="M365.597,-54.6141C427.802,-55.7038 521.886,-57.352 583.268,-58.4273"/>
<polygon fill="midnightblue" stroke="midnightblue" points="365.575,-51.1133 355.516,-54.4375 365.453,-58.1122 365.575,-51.1133"/>
</g>
<!-- Node10&#45;&gt;Node13 -->
<g id="edge13" class="edge"><title>Node10&#45;&gt;Node13</title>
<path fill="none" stroke="midnightblue" d="M339.322,-73.405C369.482,-89.4907 411.291,-111.788 438.73,-126.423"/>
<polygon fill="midnightblue" stroke="midnightblue" points="340.835,-70.2454 330.365,-68.6277 337.541,-76.4219 340.835,-70.2454"/>
</g>
<!-- Node11&#45;&gt;Node12 -->
<g id="edge11" class="edge"><title>Node11&#45;&gt;Node12</title>
<path fill="none" stroke="midnightblue" d="M538.743,-32.9855C553.907,-36.7873 569.821,-40.777 584.566,-44.4738"/>
<polygon fill="midnightblue" stroke="midnightblue" points="539.457,-29.5562 528.906,-30.5192 537.755,-36.3461 539.457,-29.5562"/>
</g>
<!-- Node14 -->
<g id="node14" class="node"><title>Node14</title>
<g id="a_node14"><a xlink:href="$structGCS__MAVLINK.html#a00013e2a14c47d88af2638763d82e7d3" xlink:title="GCS_MAVLINK::handle\l_common_mission_message">
<polygon fill="white" stroke="black" points="574,-124.5 574,-154.5 717,-154.5 717,-124.5 574,-124.5"/>
<text text-anchor="start" x="582" y="-142.5" font-family="Helvetica,sans-Serif" font-size="10.00">GCS_MAVLINK::handle</text>
<text text-anchor="middle" x="645.5" y="-131.5" font-family="Helvetica,sans-Serif" font-size="10.00">_common_mission_message</text>
</a>
</g>
</g>
<!-- Node13&#45;&gt;Node14 -->
<g id="edge14" class="edge"><title>Node13&#45;&gt;Node14</title>
<path fill="none" stroke="midnightblue" d="M539.591,-140.696C550.835,-140.567 562.47,-140.435 573.718,-140.307"/>
<polygon fill="midnightblue" stroke="midnightblue" points="539.357,-137.198 529.397,-140.812 539.436,-144.197 539.357,-137.198"/>
</g>
<!-- Node14&#45;&gt;Node8 -->
<g id="edge15" class="edge"><title>Node14&#45;&gt;Node8</title>
<path fill="none" stroke="midnightblue" d="M727.193,-151.131C735.815,-152.374 744.473,-153.622 752.798,-154.822"/>
<polygon fill="midnightblue" stroke="midnightblue" points="727.508,-147.641 717.111,-149.678 726.509,-154.569 727.508,-147.641"/>
</g>
</g>
</svg>
