<?xml version="1.0" encoding="UTF-8" standalone="no"?>
<!DOCTYPE svg PUBLIC "-//W3C//DTD SVG 1.1//EN"
 "http://www.w3.org/Graphics/SVG/1.1/DTD/svg11.dtd">
<!-- Generated by graphviz version 2.38.0 (20140413.2041)
 -->
<!-- Title: check_lng Pages: 1 -->
<svg width="885pt" height="266pt"
 viewBox="0.00 0.00 885.00 266.24" xmlns="http://www.w3.org/2000/svg" xmlns:xlink="http://www.w3.org/1999/xlink">
<g id="graph0" class="graph" transform="scale(1 1) rotate(0) translate(4 262.242)">
<title>check_lng</title>
<polygon fill="white" stroke="none" points="-4,4 -4,-262.242 881,-262.242 881,4 -4,4"/>
<!-- Node1 -->
<g id="node1" class="node"><title>Node1</title>
<polygon fill="#bfbfbf" stroke="black" points="0,-65.2415 0,-84.2415 61,-84.2415 61,-65.2415 0,-65.2415"/>
<text text-anchor="middle" x="30.5" y="-72.2415" font-family="Helvetica,sans-Serif" font-size="10.00">check_lng</text>
</g>
<!-- Node2 -->
<g id="node2" class="node"><title>Node2</title>
<g id="a_node2"><a xlink:href="$location_8h.html#a8e3c1a8152caf33ff0ec0d96e4c79a96" xlink:title="check_latlng">
<polygon fill="white" stroke="black" points="116,-173.242 116,-192.242 187,-192.242 187,-173.242 116,-173.242"/>
<text text-anchor="middle" x="151.5" y="-180.242" font-family="Helvetica,sans-Serif" font-size="10.00">check_latlng</text>
</a>
</g>
</g>
<!-- Node1&#45;&gt;Node2 -->
<g id="edge1" class="edge"><title>Node1&#45;&gt;Node2</title>
<path fill="none" stroke="midnightblue" d="M49.79,-91.3409C74.9518,-114.177 119.437,-154.55 139.792,-173.023"/>
<polygon fill="midnightblue" stroke="midnightblue" points="51.8177,-88.4546 42.0605,-84.3258 47.1133,-93.6381 51.8177,-88.4546"/>
</g>
<!-- Node9 -->
<g id="node9" class="node"><title>Node9</title>
<g id="a_node9"><a xlink:href="$classAP__Mission.html#a80b09bc9fa20ca29268f08f51de9050e" xlink:title="AP_Mission::mavlink\l_int_to_mission_cmd">
<polygon fill="white" stroke="black" points="97,-59.7415 97,-89.7415 206,-89.7415 206,-59.7415 97,-59.7415"/>
<text text-anchor="start" x="105" y="-77.7415" font-family="Helvetica,sans-Serif" font-size="10.00">AP_Mission::mavlink</text>
<text text-anchor="middle" x="151.5" y="-66.7415" font-family="Helvetica,sans-Serif" font-size="10.00">_int_to_mission_cmd</text>
</a>
</g>
</g>
<!-- Node1&#45;&gt;Node9 -->
<g id="edge8" class="edge"><title>Node1&#45;&gt;Node9</title>
<path fill="none" stroke="midnightblue" d="M71.4656,-74.7415C79.5387,-74.7415 88.1514,-74.7415 96.6116,-74.7415"/>
<polygon fill="midnightblue" stroke="midnightblue" points="71.2218,-71.2416 61.2218,-74.7415 71.2217,-78.2416 71.2218,-71.2416"/>
</g>
<!-- Node10 -->
<g id="node10" class="node"><title>Node10</title>
<g id="a_node10"><a xlink:href="$classAP__Mission.html#acc409102a42d51e3c909f5205ccd9895" xlink:title="AP_Mission::mavlink\l_to_mission_cmd">
<polygon fill="white" stroke="black" points="248.5,-15.7415 248.5,-45.7415 357.5,-45.7415 357.5,-15.7415 248.5,-15.7415"/>
<text text-anchor="start" x="256.5" y="-33.7415" font-family="Helvetica,sans-Serif" font-size="10.00">AP_Mission::mavlink</text>
<text text-anchor="middle" x="303" y="-22.7415" font-family="Helvetica,sans-Serif" font-size="10.00">_to_mission_cmd</text>
</a>
</g>
</g>
<!-- Node1&#45;&gt;Node10 -->
<g id="edge18" class="edge"><title>Node1&#45;&gt;Node10</title>
<path fill="none" stroke="midnightblue" d="M61.7717,-61.2157C72.6749,-56.8753 85.2003,-52.4859 97,-49.7415 147.48,-38.001 206.543,-33.4648 248.271,-31.7383"/>
<polygon fill="midnightblue" stroke="midnightblue" points="60.1858,-58.084 52.282,-65.1395 62.8606,-64.5528 60.1858,-58.084"/>
</g>
<!-- Node3 -->
<g id="node3" class="node"><title>Node3</title>
<g id="a_node3"><a xlink:href="$classAC__Fence.html#a9e7499c3b42f4ef5cc120bf103d17fe3" xlink:title="handler for polygon fence messages with GCS ">
<polygon fill="white" stroke="black" points="242,-233.242 242,-252.242 364,-252.242 364,-233.242 242,-233.242"/>
<text text-anchor="middle" x="303" y="-240.242" font-family="Helvetica,sans-Serif" font-size="10.00">AC_Fence::handle_msg</text>
</a>
</g>
</g>
<!-- Node2&#45;&gt;Node3 -->
<g id="edge2" class="edge"><title>Node2&#45;&gt;Node3</title>
<path fill="none" stroke="midnightblue" d="M180.823,-196.8C198.241,-205.172 221.146,-215.698 242,-223.742 250.767,-227.123 260.415,-230.377 269.363,-233.207"/>
<polygon fill="midnightblue" stroke="midnightblue" points="182.284,-193.618 171.759,-192.4 179.227,-199.916 182.284,-193.618"/>
</g>
<!-- Node5 -->
<g id="node5" class="node"><title>Node5</title>
<g id="a_node5"><a xlink:href="$structGCS__MAVLINK.html#ae507720fd8a0a7f67bc8100a5ae55c40" xlink:title="GCS_MAVLINK::handle\l_rally_point">
<polygon fill="white" stroke="black" points="242,-145.742 242,-175.742 364,-175.742 364,-145.742 242,-145.742"/>
<text text-anchor="start" x="250" y="-163.742" font-family="Helvetica,sans-Serif" font-size="10.00">GCS_MAVLINK::handle</text>
<text text-anchor="middle" x="303" y="-152.742" font-family="Helvetica,sans-Serif" font-size="10.00">_rally_point</text>
</a>
</g>
</g>
<!-- Node2&#45;&gt;Node5 -->
<g id="edge4" class="edge"><title>Node2&#45;&gt;Node5</title>
<path fill="none" stroke="midnightblue" d="M197.458,-176.126C211.379,-174.077 226.948,-171.786 241.731,-169.611"/>
<polygon fill="midnightblue" stroke="midnightblue" points="196.558,-172.72 187.174,-177.639 197.577,-179.646 196.558,-172.72"/>
</g>
<!-- Node8 -->
<g id="node8" class="node"><title>Node8</title>
<g id="a_node8"><a xlink:href="$location_8h.html#a9b7e911ac78bab5a978b4f0d3941e250" xlink:title="location_sanitize">
<polygon fill="white" stroke="black" points="258.5,-195.242 258.5,-214.242 347.5,-214.242 347.5,-195.242 258.5,-195.242"/>
<text text-anchor="middle" x="303" y="-202.242" font-family="Helvetica,sans-Serif" font-size="10.00">location_sanitize</text>
</a>
</g>
</g>
<!-- Node2&#45;&gt;Node8 -->
<g id="edge7" class="edge"><title>Node2&#45;&gt;Node8</title>
<path fill="none" stroke="midnightblue" d="M197.26,-189.328C216.614,-192.176 239.185,-195.498 258.407,-198.326"/>
<polygon fill="midnightblue" stroke="midnightblue" points="197.577,-185.837 187.174,-187.844 196.558,-192.763 197.577,-185.837"/>
</g>
<!-- Node4 -->
<g id="node4" class="node"><title>Node4</title>
<g id="a_node4"><a xlink:href="$classAC__Fence.html#ae37cf33a4fd250b66386253720fddbc9" xlink:title="set_home_distance &#45; update vehicle&#39;s distance from home in meters &#45; required for circular horizontal ...">
<polygon fill="white" stroke="black" points="414,-227.742 414,-257.742 526,-257.742 526,-227.742 414,-227.742"/>
<text text-anchor="start" x="422" y="-245.742" font-family="Helvetica,sans-Serif" font-size="10.00">AC_Fence::set_home</text>
<text text-anchor="middle" x="470" y="-234.742" font-family="Helvetica,sans-Serif" font-size="10.00">_distance</text>
</a>
</g>
</g>
<!-- Node3&#45;&gt;Node4 -->
<g id="edge3" class="edge"><title>Node3&#45;&gt;Node4</title>
<path fill="none" stroke="midnightblue" d="M374.107,-242.742C387.422,-242.742 401.176,-242.742 413.942,-242.742"/>
<polygon fill="midnightblue" stroke="midnightblue" points="374.036,-239.242 364.036,-242.742 374.036,-246.242 374.036,-239.242"/>
</g>
<!-- Node6 -->
<g id="node6" class="node"><title>Node6</title>
<g id="a_node6"><a xlink:href="$structGCS__MAVLINK.html#a0cddddd51bc5ea4c137c1927d2e34d97" xlink:title="GCS_MAVLINK::handle\l_common_rally_message">
<polygon fill="white" stroke="black" points="583.5,-150.742 583.5,-180.742 711.5,-180.742 711.5,-150.742 583.5,-150.742"/>
<text text-anchor="start" x="591.5" y="-168.742" font-family="Helvetica,sans-Serif" font-size="10.00">GCS_MAVLINK::handle</text>
<text text-anchor="middle" x="647.5" y="-157.742" font-family="Helvetica,sans-Serif" font-size="10.00">_common_rally_message</text>
</a>
</g>
</g>
<!-- Node5&#45;&gt;Node6 -->
<g id="edge5" class="edge"><title>Node5&#45;&gt;Node6</title>
<path fill="none" stroke="midnightblue" d="M374.05,-161.764C435.487,-162.661 524.025,-163.954 583.324,-164.819"/>
<polygon fill="midnightblue" stroke="midnightblue" points="374.101,-158.265 364.051,-161.618 373.999,-165.264 374.101,-158.265"/>
</g>
<!-- Node7 -->
<g id="node7" class="node"><title>Node7</title>
<g id="a_node7"><a xlink:href="$structGCS__MAVLINK.html#a13da94a2548ade6552a5250eb3251e89" xlink:title="GCS_MAVLINK::handle\l_common_message">
<polygon fill="white" stroke="black" points="755,-125.742 755,-155.742 877,-155.742 877,-125.742 755,-125.742"/>
<text text-anchor="start" x="763" y="-143.742" font-family="Helvetica,sans-Serif" font-size="10.00">GCS_MAVLINK::handle</text>
<text text-anchor="middle" x="816" y="-132.742" font-family="Helvetica,sans-Serif" font-size="10.00">_common_message</text>
</a>
</g>
</g>
<!-- Node6&#45;&gt;Node7 -->
<g id="edge6" class="edge"><title>Node6&#45;&gt;Node7</title>
<path fill="none" stroke="midnightblue" d="M721.918,-154.718C732.897,-153.069 744.109,-151.386 754.773,-149.785"/>
<polygon fill="midnightblue" stroke="midnightblue" points="721.291,-151.273 711.921,-156.219 722.33,-158.195 721.291,-151.273"/>
</g>
<!-- Node9&#45;&gt;Node10 -->
<g id="edge9" class="edge"><title>Node9&#45;&gt;Node10</title>
<path fill="none" stroke="midnightblue" d="M213.39,-56.8208C225.86,-53.1507 238.863,-49.3237 250.945,-45.7677"/>
<polygon fill="midnightblue" stroke="midnightblue" points="212.136,-53.5412 203.531,-59.7223 214.113,-60.2564 212.136,-53.5412"/>
</g>
<!-- Node12 -->
<g id="node12" class="node"><title>Node12</title>
<g id="a_node12"><a xlink:href="$classAP__Mission.html#abf0a05bca7e8ec89b416f7b04877c40c" xlink:title="get_current_do_cmd &#45; returns active &quot;do&quot; command ">
<polygon fill="white" stroke="black" points="585.5,-15.7415 585.5,-45.7415 709.5,-45.7415 709.5,-15.7415 585.5,-15.7415"/>
<text text-anchor="start" x="593.5" y="-33.7415" font-family="Helvetica,sans-Serif" font-size="10.00">AP_Mission::get_current</text>
<text text-anchor="middle" x="647.5" y="-22.7415" font-family="Helvetica,sans-Serif" font-size="10.00">_do_cmd</text>
</a>
</g>
</g>
<!-- Node9&#45;&gt;Node12 -->
<g id="edge16" class="edge"><title>Node9&#45;&gt;Node12</title>
<path fill="none" stroke="midnightblue" d="M216.073,-74.7652C293.095,-74.0339 426.633,-70.3255 540,-54.7415 555.772,-52.5734 572.661,-49.2441 588.234,-45.7491"/>
<polygon fill="midnightblue" stroke="midnightblue" points="216.019,-71.2654 206.048,-74.8465 216.076,-78.2652 216.019,-71.2654"/>
</g>
<!-- Node13 -->
<g id="node13" class="node"><title>Node13</title>
<g id="a_node13"><a xlink:href="$structGCS__MAVLINK.html#a143a91427102a9aea995d10bad67f435" xlink:title="GCS_MAVLINK::handle\l_mission_item">
<polygon fill="white" stroke="black" points="409,-103.742 409,-133.742 531,-133.742 531,-103.742 409,-103.742"/>
<text text-anchor="start" x="417" y="-121.742" font-family="Helvetica,sans-Serif" font-size="10.00">GCS_MAVLINK::handle</text>
<text text-anchor="middle" x="470" y="-110.742" font-family="Helvetica,sans-Serif" font-size="10.00">_mission_item</text>
</a>
</g>
</g>
<!-- Node9&#45;&gt;Node13 -->
<g id="edge17" class="edge"><title>Node9&#45;&gt;Node13</title>
<path fill="none" stroke="midnightblue" d="M216.426,-84.9307C225.019,-86.2447 233.721,-87.5471 242,-88.7415 298.46,-96.8871 362.949,-105.327 408.726,-111.172"/>
<polygon fill="midnightblue" stroke="midnightblue" points="216.839,-81.453 206.422,-83.3886 215.772,-88.3713 216.839,-81.453"/>
</g>
<!-- Node11 -->
<g id="node11" class="node"><title>Node11</title>
<g id="a_node11"><a xlink:href="$classAP__Mission.html#a626a17fce34227b3f40ca8d4a8605231" xlink:title="AP_Mission::mavlink\l_cmd_long_to_mission_cmd">
<polygon fill="white" stroke="black" points="400,-15.7415 400,-45.7415 540,-45.7415 540,-15.7415 400,-15.7415"/>
<text text-anchor="start" x="408" y="-33.7415" font-family="Helvetica,sans-Serif" font-size="10.00">AP_Mission::mavlink</text>
<text text-anchor="middle" x="470" y="-22.7415" font-family="Helvetica,sans-Serif" font-size="10.00">_cmd_long_to_mission_cmd</text>
</a>
</g>
</g>
<!-- Node10&#45;&gt;Node11 -->
<g id="edge10" class="edge"><title>Node10&#45;&gt;Node11</title>
<path fill="none" stroke="midnightblue" d="M367.857,-30.7415C378.31,-30.7415 389.184,-30.7415 399.76,-30.7415"/>
<polygon fill="midnightblue" stroke="midnightblue" points="367.571,-27.2416 357.571,-30.7415 367.571,-34.2416 367.571,-27.2416"/>
</g>
<!-- Node10&#45;&gt;Node12 -->
<g id="edge12" class="edge"><title>Node10&#45;&gt;Node12</title>
<path fill="none" stroke="midnightblue" d="M361.72,-13.1775C374.227,-10.0863 387.464,-7.34705 400,-5.74153 461.718,2.16287 478.191,1.41579 540,-5.74153 557.545,-7.77325 576.398,-11.6281 593.293,-15.7134"/>
<polygon fill="midnightblue" stroke="midnightblue" points="360.683,-9.83034 351.874,-15.717 362.432,-16.6085 360.683,-9.83034"/>
</g>
<!-- Node10&#45;&gt;Node13 -->
<g id="edge13" class="edge"><title>Node10&#45;&gt;Node13</title>
<path fill="none" stroke="midnightblue" d="M341.322,-50.6466C371.482,-66.7322 413.291,-89.0299 440.73,-103.664"/>
<polygon fill="midnightblue" stroke="midnightblue" points="342.835,-47.487 332.365,-45.8693 339.541,-53.6634 342.835,-47.487"/>
</g>
<!-- Node11&#45;&gt;Node12 -->
<g id="edge11" class="edge"><title>Node11&#45;&gt;Node12</title>
<path fill="none" stroke="midnightblue" d="M550.376,-30.7415C562.142,-30.7415 574.11,-30.7415 585.425,-30.7415"/>
<polygon fill="midnightblue" stroke="midnightblue" points="550.11,-27.2416 540.11,-30.7415 550.11,-34.2416 550.11,-27.2416"/>
</g>
<!-- Node14 -->
<g id="node14" class="node"><title>Node14</title>
<g id="a_node14"><a xlink:href="$structGCS__MAVLINK.html#a00013e2a14c47d88af2638763d82e7d3" xlink:title="GCS_MAVLINK::handle\l_common_mission_message">
<polygon fill="white" stroke="black" points="576,-101.742 576,-131.742 719,-131.742 719,-101.742 576,-101.742"/>
<text text-anchor="start" x="584" y="-119.742" font-family="Helvetica,sans-Serif" font-size="10.00">GCS_MAVLINK::handle</text>
<text text-anchor="middle" x="647.5" y="-108.742" font-family="Helvetica,sans-Serif" font-size="10.00">_common_mission_message</text>
</a>
</g>
</g>
<!-- Node13&#45;&gt;Node14 -->
<g id="edge14" class="edge"><title>Node13&#45;&gt;Node14</title>
<path fill="none" stroke="midnightblue" d="M541.591,-117.937C552.835,-117.809 564.47,-117.676 575.718,-117.548"/>
<polygon fill="midnightblue" stroke="midnightblue" points="541.357,-114.439 531.397,-118.053 541.436,-121.439 541.357,-114.439"/>
</g>
<!-- Node14&#45;&gt;Node7 -->
<g id="edge15" class="edge"><title>Node14&#45;&gt;Node7</title>
<path fill="none" stroke="midnightblue" d="M729.193,-128.373C737.815,-129.616 746.473,-130.864 754.798,-132.064"/>
<polygon fill="midnightblue" stroke="midnightblue" points="729.508,-124.882 719.111,-126.92 728.509,-131.811 729.508,-124.882"/>
</g>
</g>
</svg>
