<?xml version="1.0" encoding="UTF-8" standalone="no"?>
<!DOCTYPE svg PUBLIC "-//W3C//DTD SVG 1.1//EN"
 "http://www.w3.org/Graphics/SVG/1.1/DTD/svg11.dtd">
<!-- Generated by graphviz version 2.38.0 (20140413.2041)
 -->
<!-- Title: send_storage Pages: 1 -->
<svg width="1997pt" height="758pt"
 viewBox="0.00 0.00 1997.00 758.00" xmlns="http://www.w3.org/2000/svg" xmlns:xlink="http://www.w3.org/1999/xlink">
<g id="graph0" class="graph" transform="scale(1 1) rotate(0) translate(4 754)">
<title>send_storage</title>
<polygon fill="white" stroke="none" points="-4,4 -4,-754 1993,-754 1993,4 -4,4"/>
<!-- Node1 -->
<g id="node1" class="node"><title>Node1</title>
<polygon fill="#bfbfbf" stroke="black" points="0,-662 0,-681 75,-681 75,-662 0,-662"/>
<text text-anchor="middle" x="37.5" y="-669" font-family="Helvetica,sans-Serif" font-size="10.00">send_storage</text>
</g>
<!-- Node2 -->
<g id="node2" class="node"><title>Node2</title>
<g id="a_node2"><a xlink:href="$dsp__main_8cpp.html#afa61830afe9cd699edd91416a0620452" xlink:title="ardupilot_set_storage">
<polygon fill="white" stroke="black" points="111,-662 111,-681 221,-681 221,-662 111,-662"/>
<text text-anchor="middle" x="166" y="-669" font-family="Helvetica,sans-Serif" font-size="10.00">ardupilot_set_storage</text>
</a>
</g>
</g>
<!-- Node1&#45;&gt;Node2 -->
<g id="edge1" class="edge"><title>Node1&#45;&gt;Node2</title>
<path fill="none" stroke="midnightblue" d="M75.089,-671.5C83.0609,-671.5 91.7245,-671.5 100.421,-671.5"/>
<polygon fill="midnightblue" stroke="midnightblue" points="100.607,-675 110.607,-671.5 100.607,-668 100.607,-675"/>
</g>
<!-- Node3 -->
<g id="node3" class="node"><title>Node3</title>
<g id="a_node3"><a xlink:href="$classQURT_1_1Semaphore.html#afc4c8706abb7e68aa4001ea372dc614e" xlink:title="QURT::Semaphore::take">
<polygon fill="white" stroke="black" points="257,-681 257,-700 382,-700 382,-681 257,-681"/>
<text text-anchor="middle" x="319.5" y="-688" font-family="Helvetica,sans-Serif" font-size="10.00">QURT::Semaphore::take</text>
</a>
</g>
</g>
<!-- Node2&#45;&gt;Node3 -->
<g id="edge2" class="edge"><title>Node2&#45;&gt;Node3</title>
<path fill="none" stroke="midnightblue" d="M221.267,-678.306C229.567,-679.347 238.241,-680.435 246.845,-681.514"/>
<polygon fill="midnightblue" stroke="midnightblue" points="246.528,-685.001 256.886,-682.773 247.399,-678.056 246.528,-685.001"/>
</g>
<!-- Node49 -->
<g id="node49" class="node"><title>Node49</title>
<g id="a_node49"><a xlink:href="$classQURT_1_1Semaphore.html#a216f91636f64b57b59d43ef64af91624" xlink:title="QURT::Semaphore::give">
<polygon fill="white" stroke="black" points="257,-643 257,-662 382,-662 382,-643 257,-643"/>
<text text-anchor="middle" x="319.5" y="-650" font-family="Helvetica,sans-Serif" font-size="10.00">QURT::Semaphore::give</text>
</a>
</g>
</g>
<!-- Node2&#45;&gt;Node49 -->
<g id="edge62" class="edge"><title>Node2&#45;&gt;Node49</title>
<path fill="none" stroke="midnightblue" d="M221.267,-664.694C229.567,-663.653 238.241,-662.565 246.845,-661.486"/>
<polygon fill="midnightblue" stroke="midnightblue" points="247.399,-664.944 256.886,-660.227 246.528,-657.999 247.399,-664.944"/>
</g>
<!-- Node4 -->
<g id="node4" class="node"><title>Node4</title>
<g id="a_node4"><a xlink:href="$classQURT_1_1Semaphore.html#a561b4f40f3a76335f1a686c2aed526f9" xlink:title="QURT::Semaphore::take\l_nonblocking">
<polygon fill="white" stroke="black" points="418,-719.5 418,-749.5 543,-749.5 543,-719.5 418,-719.5"/>
<text text-anchor="start" x="426" y="-737.5" font-family="Helvetica,sans-Serif" font-size="10.00">QURT::Semaphore::take</text>
<text text-anchor="middle" x="480.5" y="-726.5" font-family="Helvetica,sans-Serif" font-size="10.00">_nonblocking</text>
</a>
</g>
</g>
<!-- Node3&#45;&gt;Node4 -->
<g id="edge3" class="edge"><title>Node3&#45;&gt;Node4</title>
<path fill="none" stroke="midnightblue" d="M355.001,-700.047C372.662,-704.935 394.742,-711.045 415.384,-716.757"/>
<polygon fill="midnightblue" stroke="midnightblue" points="414.488,-720.141 425.059,-719.435 416.355,-713.394 414.488,-720.141"/>
</g>
<!-- Node5 -->
<g id="node5" class="node"><title>Node5</title>
<g id="a_node5"><a xlink:href="$namespaceAP__HAL.html#a7aa0ce7625c9680e30ff4a99940907a5" xlink:title="AP_HAL::micros64">
<polygon fill="white" stroke="black" points="430,-487 430,-506 531,-506 531,-487 430,-487"/>
<text text-anchor="middle" x="480.5" y="-494" font-family="Helvetica,sans-Serif" font-size="10.00">AP_HAL::micros64</text>
</a>
</g>
</g>
<!-- Node3&#45;&gt;Node5 -->
<g id="edge4" class="edge"><title>Node3&#45;&gt;Node5</title>
<path fill="none" stroke="midnightblue" d="M365.873,-680.911C371.663,-678.454 377.225,-675.37 382,-671.5 433.912,-629.429 462.821,-551.94 474.015,-515.89"/>
<polygon fill="midnightblue" stroke="midnightblue" points="477.425,-516.701 476.926,-506.118 470.716,-514.702 477.425,-516.701"/>
</g>
<!-- Node13 -->
<g id="node13" class="node"><title>Node13</title>
<g id="a_node13"><a xlink:href="$classAP__HAL_1_1Scheduler.html#a78c4f1b1f192ac1c99544b6cc8f099b0" xlink:title="AP_HAL::Scheduler::\ldelay_microseconds">
<polygon fill="white" stroke="black" points="1251,-568.5 1251,-598.5 1361,-598.5 1361,-568.5 1251,-568.5"/>
<text text-anchor="start" x="1259" y="-586.5" font-family="Helvetica,sans-Serif" font-size="10.00">AP_HAL::Scheduler::</text>
<text text-anchor="middle" x="1306" y="-575.5" font-family="Helvetica,sans-Serif" font-size="10.00">delay_microseconds</text>
</a>
</g>
</g>
<!-- Node3&#45;&gt;Node13 -->
<g id="edge61" class="edge"><title>Node3&#45;&gt;Node13</title>
<path fill="none" stroke="midnightblue" d="M382.066,-690.5C445.563,-690.5 547.453,-690.5 635.5,-690.5 635.5,-690.5 635.5,-690.5 961,-690.5 1073,-690.5 1100.98,-669.032 1205,-627.5 1222,-620.713 1224.39,-615.179 1241,-607.5 1244.82,-605.736 1248.8,-604 1252.84,-602.319"/>
<polygon fill="midnightblue" stroke="midnightblue" points="1254.33,-605.493 1262.29,-598.507 1251.71,-599.001 1254.33,-605.493"/>
</g>
<!-- Node6 -->
<g id="node6" class="node"><title>Node6</title>
<g id="a_node6"><a xlink:href="$classLinux_1_1Scheduler.html#a53ecaae0fdc72f85bd57c4b0cff93653" xlink:title="Linux::Scheduler::from">
<polygon fill="white" stroke="black" points="579,-331 579,-350 694,-350 694,-331 579,-331"/>
<text text-anchor="middle" x="636.5" y="-338" font-family="Helvetica,sans-Serif" font-size="10.00">Linux::Scheduler::from</text>
</a>
</g>
</g>
<!-- Node5&#45;&gt;Node6 -->
<g id="edge5" class="edge"><title>Node5&#45;&gt;Node6</title>
<path fill="none" stroke="midnightblue" d="M491.133,-486.742C516.629,-460.915 586.124,-390.518 618.491,-357.73"/>
<polygon fill="midnightblue" stroke="midnightblue" points="621.336,-359.83 625.87,-350.255 616.354,-354.913 621.336,-359.83"/>
</g>
<!-- Node25 -->
<g id="node25" class="node"><title>Node25</title>
<g id="a_node25"><a xlink:href="$classLinux_1_1Scheduler.html#a682b4c34f330f66db5ab4aa5d96e13f9" xlink:title="Linux::Scheduler::stopped\l_clock_usec">
<polygon fill="white" stroke="black" points="1241,-88.5 1241,-118.5 1371,-118.5 1371,-88.5 1241,-88.5"/>
<text text-anchor="start" x="1249" y="-106.5" font-family="Helvetica,sans-Serif" font-size="10.00">Linux::Scheduler::stopped</text>
<text text-anchor="middle" x="1306" y="-95.5" font-family="Helvetica,sans-Serif" font-size="10.00">_clock_usec</text>
</a>
</g>
</g>
<!-- Node5&#45;&gt;Node25 -->
<g id="edge60" class="edge"><title>Node5&#45;&gt;Node25</title>
<path fill="none" stroke="midnightblue" d="M483.859,-486.909C497.096,-435.477 567.438,-191.517 730,-106.5 897.062,-19.1297 1130.56,-59.0349 1241.56,-85.979"/>
<polygon fill="midnightblue" stroke="midnightblue" points="1241.04,-89.4566 1251.59,-88.4602 1242.72,-82.6614 1241.04,-89.4566"/>
</g>
<!-- Node7 -->
<g id="node7" class="node"><title>Node7</title>
<g id="a_node7"><a xlink:href="$classLinux_1_1Scheduler.html#a3d77c332e051c28c83fb07757e7100bd" xlink:title="Linux::Scheduler::init">
<polygon fill="white" stroke="black" points="740,-205 740,-224 848,-224 848,-205 740,-205"/>
<text text-anchor="middle" x="794" y="-212" font-family="Helvetica,sans-Serif" font-size="10.00">Linux::Scheduler::init</text>
</a>
</g>
</g>
<!-- Node6&#45;&gt;Node7 -->
<g id="edge6" class="edge"><title>Node6&#45;&gt;Node7</title>
<path fill="none" stroke="midnightblue" d="M643.778,-330.975C657.296,-311.143 691.107,-265.056 730,-238.5 736.047,-234.371 742.901,-230.827 749.807,-227.828"/>
<polygon fill="midnightblue" stroke="midnightblue" points="751.202,-231.04 759.184,-224.073 748.6,-224.541 751.202,-231.04"/>
</g>
<!-- Node14 -->
<g id="node14" class="node"><title>Node14</title>
<g id="a_node14"><a xlink:href="$classLinux_1_1Scheduler.html#a02a34a123dfebaf360f7010745e1e646" xlink:title="Linux::Scheduler::register\l_timer_process">
<polygon fill="white" stroke="black" points="896,-251.5 896,-281.5 1024,-281.5 1024,-251.5 896,-251.5"/>
<text text-anchor="start" x="904" y="-269.5" font-family="Helvetica,sans-Serif" font-size="10.00">Linux::Scheduler::register</text>
<text text-anchor="middle" x="960" y="-258.5" font-family="Helvetica,sans-Serif" font-size="10.00">_timer_process</text>
</a>
</g>
</g>
<!-- Node6&#45;&gt;Node14 -->
<g id="edge40" class="edge"><title>Node6&#45;&gt;Node14</title>
<path fill="none" stroke="midnightblue" d="M646.316,-330.821C661.546,-314.888 694.573,-283.689 730,-271.5 779.992,-254.3 839.819,-253.616 885.785,-256.933"/>
<polygon fill="midnightblue" stroke="midnightblue" points="885.718,-260.439 895.966,-257.749 886.277,-253.461 885.718,-260.439"/>
</g>
<!-- Node33 -->
<g id="node33" class="node"><title>Node33</title>
<g id="a_node33"><a xlink:href="$classLinux_1_1Scheduler.html#a14f3239ecbb9889823b20dc9de655c2f" xlink:title="Linux::Scheduler::delay">
<polygon fill="white" stroke="black" points="900.5,-126 900.5,-145 1019.5,-145 1019.5,-126 900.5,-126"/>
<text text-anchor="middle" x="960" y="-133" font-family="Helvetica,sans-Serif" font-size="10.00">Linux::Scheduler::delay</text>
</a>
</g>
</g>
<!-- Node6&#45;&gt;Node33 -->
<g id="edge34" class="edge"><title>Node6&#45;&gt;Node33</title>
<path fill="none" stroke="midnightblue" d="M638.02,-330.658C640.513,-294.674 654.515,-169.736 730,-119.5 757.443,-101.236 845.046,-113.258 903.597,-124.051"/>
<polygon fill="midnightblue" stroke="midnightblue" points="902.974,-127.495 913.449,-125.906 904.269,-120.616 902.974,-127.495"/>
</g>
<!-- Node34 -->
<g id="node34" class="node"><title>Node34</title>
<g id="a_node34"><a xlink:href="$classLinux_1_1Scheduler.html#a4cffd5bcba0175bf49c7aa75ff3bf09a" xlink:title="Linux::Scheduler::delay\l_microseconds">
<polygon fill="white" stroke="black" points="1074,-0.5 1074,-30.5 1193,-30.5 1193,-0.5 1074,-0.5"/>
<text text-anchor="start" x="1082" y="-18.5" font-family="Helvetica,sans-Serif" font-size="10.00">Linux::Scheduler::delay</text>
<text text-anchor="middle" x="1133.5" y="-7.5" font-family="Helvetica,sans-Serif" font-size="10.00">_microseconds</text>
</a>
</g>
</g>
<!-- Node6&#45;&gt;Node34 -->
<g id="edge37" class="edge"><title>Node6&#45;&gt;Node34</title>
<path fill="none" stroke="midnightblue" d="M638.229,-330.658C641.452,-294.58 657.678,-168.455 730,-106.5 824.466,-25.5749 975.939,-12.5616 1063.64,-12.5659"/>
<polygon fill="midnightblue" stroke="midnightblue" points="1063.73,-16.0663 1073.75,-12.6242 1063.77,-9.06645 1063.73,-16.0663"/>
</g>
<!-- Node35 -->
<g id="node35" class="node"><title>Node35</title>
<g id="a_node35"><a xlink:href="$classLinux_1_1Scheduler.html#a5cb50b637d5fd3e5f9220bc23db0fb3f" xlink:title="Linux::Scheduler::register\l_delay_callback">
<polygon fill="white" stroke="black" points="730,-555.5 730,-585.5 858,-585.5 858,-555.5 730,-555.5"/>
<text text-anchor="start" x="738" y="-573.5" font-family="Helvetica,sans-Serif" font-size="10.00">Linux::Scheduler::register</text>
<text text-anchor="middle" x="794" y="-562.5" font-family="Helvetica,sans-Serif" font-size="10.00">_delay_callback</text>
</a>
</g>
</g>
<!-- Node6&#45;&gt;Node35 -->
<g id="edge39" class="edge"><title>Node6&#45;&gt;Node35</title>
<path fill="none" stroke="midnightblue" d="M639.186,-350.129C645.309,-382.335 669.287,-487.524 730,-545.5 731.625,-547.052 733.358,-548.511 735.174,-549.883"/>
<polygon fill="midnightblue" stroke="midnightblue" points="733.297,-552.838 743.589,-555.356 737.114,-546.97 733.297,-552.838"/>
</g>
<!-- Node36 -->
<g id="node36" class="node"><title>Node36</title>
<g id="a_node36"><a xlink:href="$classLinux_1_1Scheduler.html#aa2be97cb8686d72cc322fb38f69a940c" xlink:title="Linux::Scheduler::register\l_io_process">
<polygon fill="white" stroke="black" points="896,-314.5 896,-344.5 1024,-344.5 1024,-314.5 896,-314.5"/>
<text text-anchor="start" x="904" y="-332.5" font-family="Helvetica,sans-Serif" font-size="10.00">Linux::Scheduler::register</text>
<text text-anchor="middle" x="960" y="-321.5" font-family="Helvetica,sans-Serif" font-size="10.00">_io_process</text>
</a>
</g>
</g>
<!-- Node6&#45;&gt;Node36 -->
<g id="edge41" class="edge"><title>Node6&#45;&gt;Node36</title>
<path fill="none" stroke="midnightblue" d="M694.238,-338.559C747.55,-336.735 827.611,-333.995 885.732,-332.007"/>
<polygon fill="midnightblue" stroke="midnightblue" points="886.079,-335.497 895.953,-331.657 885.839,-328.501 886.079,-335.497"/>
</g>
<!-- Node37 -->
<g id="node37" class="node"><title>Node37</title>
<g id="a_node37"><a xlink:href="$classLinux_1_1Scheduler.html#abba967d02c28cb0b16a7cebbff9bc6d6" xlink:title="Linux::Scheduler::suspend\l_timer_procs">
<polygon fill="white" stroke="black" points="894,-593.5 894,-623.5 1026,-623.5 1026,-593.5 894,-593.5"/>
<text text-anchor="start" x="902" y="-611.5" font-family="Helvetica,sans-Serif" font-size="10.00">Linux::Scheduler::suspend</text>
<text text-anchor="middle" x="960" y="-600.5" font-family="Helvetica,sans-Serif" font-size="10.00">_timer_procs</text>
</a>
</g>
</g>
<!-- Node6&#45;&gt;Node37 -->
<g id="edge43" class="edge"><title>Node6&#45;&gt;Node37</title>
<path fill="none" stroke="midnightblue" d="M637.559,-350.227C638.378,-388.891 647.079,-532.593 730,-594.5 773.356,-626.868 835.177,-628.828 883.66,-623.536"/>
<polygon fill="midnightblue" stroke="midnightblue" points="884.287,-626.986 893.792,-622.305 883.443,-620.037 884.287,-626.986"/>
</g>
<!-- Node40 -->
<g id="node40" class="node"><title>Node40</title>
<g id="a_node40"><a xlink:href="$classLinux_1_1Scheduler.html#aee4e701b92cb4721c4de1bfcdcded70c" xlink:title="Linux::Scheduler::resume\l_timer_procs">
<polygon fill="white" stroke="black" points="896,-473.5 896,-503.5 1024,-503.5 1024,-473.5 896,-473.5"/>
<text text-anchor="start" x="904" y="-491.5" font-family="Helvetica,sans-Serif" font-size="10.00">Linux::Scheduler::resume</text>
<text text-anchor="middle" x="960" y="-480.5" font-family="Helvetica,sans-Serif" font-size="10.00">_timer_procs</text>
</a>
</g>
</g>
<!-- Node6&#45;&gt;Node40 -->
<g id="edge48" class="edge"><title>Node6&#45;&gt;Node40</title>
<path fill="none" stroke="midnightblue" d="M641.881,-350.12C652.928,-373.15 684.336,-431.465 730,-457.5 777.082,-484.344 838.241,-491.489 885.51,-492.251"/>
<polygon fill="midnightblue" stroke="midnightblue" points="885.656,-495.752 895.679,-492.321 885.704,-488.752 885.656,-495.752"/>
</g>
<!-- Node42 -->
<g id="node42" class="node"><title>Node42</title>
<g id="a_node42"><a xlink:href="$classLinux_1_1Scheduler.html#af23753e7c6bfa97553db215a64235455" xlink:title="Linux::Scheduler::in\l_timerprocess">
<polygon fill="white" stroke="black" points="742.5,-369.5 742.5,-399.5 845.5,-399.5 845.5,-369.5 742.5,-369.5"/>
<text text-anchor="start" x="750.5" y="-387.5" font-family="Helvetica,sans-Serif" font-size="10.00">Linux::Scheduler::in</text>
<text text-anchor="middle" x="794" y="-376.5" font-family="Helvetica,sans-Serif" font-size="10.00">_timerprocess</text>
</a>
</g>
</g>
<!-- Node6&#45;&gt;Node42 -->
<g id="edge50" class="edge"><title>Node6&#45;&gt;Node42</title>
<path fill="none" stroke="midnightblue" d="M671.241,-350.047C689.208,-355.131 711.85,-361.538 732.721,-367.444"/>
<polygon fill="midnightblue" stroke="midnightblue" points="731.903,-370.85 742.478,-370.204 733.809,-364.114 731.903,-370.85"/>
</g>
<!-- Node43 -->
<g id="node43" class="node"><title>Node43</title>
<g id="a_node43"><a xlink:href="$classLinux_1_1Scheduler.html#ac193459e3575c7a0588fdc72250c2044" xlink:title="Linux::Scheduler::register\l_timer_failsafe">
<polygon fill="white" stroke="black" points="730,-281.5 730,-311.5 858,-311.5 858,-281.5 730,-281.5"/>
<text text-anchor="start" x="738" y="-299.5" font-family="Helvetica,sans-Serif" font-size="10.00">Linux::Scheduler::register</text>
<text text-anchor="middle" x="794" y="-288.5" font-family="Helvetica,sans-Serif" font-size="10.00">_timer_failsafe</text>
</a>
</g>
</g>
<!-- Node6&#45;&gt;Node43 -->
<g id="edge51" class="edge"><title>Node6&#45;&gt;Node43</title>
<path fill="none" stroke="midnightblue" d="M671.241,-330.953C688.436,-326.087 709.913,-320.01 730.021,-314.32"/>
<polygon fill="midnightblue" stroke="midnightblue" points="731.088,-317.656 739.758,-311.565 729.182,-310.92 731.088,-317.656"/>
</g>
<!-- Node44 -->
<g id="node44" class="node"><title>Node44</title>
<g id="a_node44"><a xlink:href="$classLinux_1_1Scheduler.html#ad6070a7ee637adf5101b1e6b6efbf8f6" xlink:title="Linux::Scheduler::system\l_initialized">
<polygon fill="white" stroke="black" points="730,-418.5 730,-448.5 858,-448.5 858,-418.5 730,-418.5"/>
<text text-anchor="start" x="738" y="-436.5" font-family="Helvetica,sans-Serif" font-size="10.00">Linux::Scheduler::system</text>
<text text-anchor="middle" x="794" y="-425.5" font-family="Helvetica,sans-Serif" font-size="10.00">_initialized</text>
</a>
</g>
</g>
<!-- Node6&#45;&gt;Node44 -->
<g id="edge52" class="edge"><title>Node6&#45;&gt;Node44</title>
<path fill="none" stroke="midnightblue" d="M648.54,-350.089C665.269,-364.265 698.442,-391.02 730,-408.5 733.648,-410.521 737.493,-412.461 741.411,-414.304"/>
<polygon fill="midnightblue" stroke="midnightblue" points="740.068,-417.538 750.626,-418.422 742.924,-411.147 740.068,-417.538"/>
</g>
<!-- Node46 -->
<g id="node46" class="node"><title>Node46</title>
<g id="a_node46"><a xlink:href="$classLinux_1_1Scheduler.html#ae72cfa66c849ffd882ef518c35c71e69" xlink:title="Linux::Scheduler::reboot">
<polygon fill="white" stroke="black" points="733,-129 733,-148 855,-148 855,-129 733,-129"/>
<text text-anchor="middle" x="794" y="-136" font-family="Helvetica,sans-Serif" font-size="10.00">Linux::Scheduler::reboot</text>
</a>
</g>
</g>
<!-- Node6&#45;&gt;Node46 -->
<g id="edge55" class="edge"><title>Node6&#45;&gt;Node46</title>
<path fill="none" stroke="midnightblue" d="M639.873,-330.885C647.614,-301.453 674.872,-211.613 730,-162.5 734.479,-158.51 739.689,-155.155 745.159,-152.342"/>
<polygon fill="midnightblue" stroke="midnightblue" points="746.859,-155.415 754.525,-148.102 743.972,-149.038 746.859,-155.415"/>
</g>
<!-- Node47 -->
<g id="node47" class="node"><title>Node47</title>
<g id="a_node47"><a xlink:href="$classLinux_1_1Scheduler.html#a392aebafcdfe9a812e4db4b7a9dcce9c" xlink:title="Linux::Scheduler::stop\l_clock">
<polygon fill="white" stroke="black" points="737,-506.5 737,-536.5 851,-536.5 851,-506.5 737,-506.5"/>
<text text-anchor="start" x="745" y="-524.5" font-family="Helvetica,sans-Serif" font-size="10.00">Linux::Scheduler::stop</text>
<text text-anchor="middle" x="794" y="-513.5" font-family="Helvetica,sans-Serif" font-size="10.00">_clock</text>
</a>
</g>
</g>
<!-- Node6&#45;&gt;Node47 -->
<g id="edge56" class="edge"><title>Node6&#45;&gt;Node47</title>
<path fill="none" stroke="midnightblue" d="M641.17,-350.3C651.413,-376.476 682.697,-448.929 730,-491.5 734.108,-495.197 738.753,-498.53 743.613,-501.51"/>
<polygon fill="midnightblue" stroke="midnightblue" points="742.088,-504.667 752.524,-506.496 745.506,-498.558 742.088,-504.667"/>
</g>
<!-- Node8 -->
<g id="node8" class="node"><title>Node8</title>
<g id="a_node8"><a xlink:href="$namespaceAP__HAL.html#a71832f03d849a0c088f04fc98d3c8143" xlink:title="AP_HAL::panic">
<polygon fill="white" stroke="black" points="918,-386 918,-405 1002,-405 1002,-386 918,-386"/>
<text text-anchor="middle" x="960" y="-393" font-family="Helvetica,sans-Serif" font-size="10.00">AP_HAL::panic</text>
</a>
</g>
</g>
<!-- Node7&#45;&gt;Node8 -->
<g id="edge7" class="edge"><title>Node7&#45;&gt;Node8</title>
<path fill="none" stroke="midnightblue" d="M808.593,-224.071C822.511,-234.439 844.029,-252.116 858,-271.5 881.273,-303.789 868.195,-323.197 894,-353.5 903.579,-364.749 916.923,-374.084 929.029,-381.073"/>
<polygon fill="midnightblue" stroke="midnightblue" points="927.509,-384.231 937.963,-385.953 930.865,-378.088 927.509,-384.231"/>
</g>
<!-- Node7&#45;&gt;Node14 -->
<g id="edge13" class="edge"><title>Node7&#45;&gt;Node14</title>
<path fill="none" stroke="midnightblue" d="M825.08,-224.038C846.481,-230.823 875.897,-240.15 901.71,-248.335"/>
<polygon fill="midnightblue" stroke="midnightblue" points="900.812,-251.722 911.403,-251.408 902.928,-245.049 900.812,-251.722"/>
</g>
<!-- Node23 -->
<g id="node23" class="node"><title>Node23</title>
<g id="a_node23"><a xlink:href="$classLinux_1_1Scheduler.html#a163eb7b285c95b1b1d036fc61d723910" xlink:title="Linux::Scheduler::\l_debug_stack">
<polygon fill="white" stroke="black" points="912.5,-202.5 912.5,-232.5 1007.5,-232.5 1007.5,-202.5 912.5,-202.5"/>
<text text-anchor="start" x="920.5" y="-220.5" font-family="Helvetica,sans-Serif" font-size="10.00">Linux::Scheduler::</text>
<text text-anchor="middle" x="960" y="-209.5" font-family="Helvetica,sans-Serif" font-size="10.00">_debug_stack</text>
</a>
</g>
</g>
<!-- Node7&#45;&gt;Node23 -->
<g id="edge22" class="edge"><title>Node7&#45;&gt;Node23</title>
<path fill="none" stroke="midnightblue" d="M848.246,-215.474C865.525,-215.79 884.754,-216.142 902.276,-216.462"/>
<polygon fill="midnightblue" stroke="midnightblue" points="902.306,-219.963 912.368,-216.647 902.434,-212.965 902.306,-219.963"/>
</g>
<!-- Node9 -->
<g id="node9" class="node"><title>Node9</title>
<g id="a_node9"><a xlink:href="$classAP__HAL_1_1RCInput.html#a2bea13d38f2b9ae8bf5193a3a69f0a31" xlink:title="AP_HAL::RCInput::teardown">
<polygon fill="white" stroke="black" points="1062,-387 1062,-406 1205,-406 1205,-387 1062,-387"/>
<text text-anchor="middle" x="1133.5" y="-394" font-family="Helvetica,sans-Serif" font-size="10.00">AP_HAL::RCInput::teardown</text>
</a>
</g>
</g>
<!-- Node8&#45;&gt;Node9 -->
<g id="edge8" class="edge"><title>Node8&#45;&gt;Node9</title>
<path fill="none" stroke="midnightblue" d="M1002.08,-395.74C1017.07,-395.827 1034.59,-395.929 1051.84,-396.03"/>
<polygon fill="midnightblue" stroke="midnightblue" points="1051.92,-399.53 1061.94,-396.089 1051.96,-392.53 1051.92,-399.53"/>
</g>
<!-- Node8&#45;&gt;Node13 -->
<g id="edge12" class="edge"><title>Node8&#45;&gt;Node13</title>
<path fill="none" stroke="midnightblue" d="M996.567,-405.078C1045.97,-419.394 1136.97,-449.486 1205,-493.5 1234.95,-512.877 1264.76,-541.166 1283.93,-560.837"/>
<polygon fill="midnightblue" stroke="midnightblue" points="1281.53,-563.388 1290.98,-568.174 1286.58,-558.538 1281.53,-563.388"/>
</g>
<!-- Node10 -->
<g id="node10" class="node"><title>Node10</title>
<g id="a_node10"><a xlink:href="$classAP__HAL_1_1RCInput.html#aee1fade33080edef83dd7db0fad0f7da" xlink:title="AP_HAL::RCInput::new\l_input">
<polygon fill="white" stroke="black" points="1245,-431.5 1245,-461.5 1367,-461.5 1367,-431.5 1245,-431.5"/>
<text text-anchor="start" x="1253" y="-449.5" font-family="Helvetica,sans-Serif" font-size="10.00">AP_HAL::RCInput::new</text>
<text text-anchor="middle" x="1306" y="-438.5" font-family="Helvetica,sans-Serif" font-size="10.00">_input</text>
</a>
</g>
</g>
<!-- Node9&#45;&gt;Node10 -->
<g id="edge9" class="edge"><title>Node9&#45;&gt;Node10</title>
<path fill="none" stroke="midnightblue" d="M1166.97,-406.022C1188.65,-412.379 1217.83,-420.936 1243.77,-428.545"/>
<polygon fill="midnightblue" stroke="midnightblue" points="1242.96,-431.953 1253.54,-431.409 1244.93,-425.236 1242.96,-431.953"/>
</g>
<!-- Node11 -->
<g id="node11" class="node"><title>Node11</title>
<g id="a_node11"><a xlink:href="$classAP__HAL_1_1RCInput.html#ae55f959c6115c1f41783af3a2b6c4fcd" xlink:title="AP_HAL::RCInput::num\l_channels">
<polygon fill="white" stroke="black" points="1245,-382.5 1245,-412.5 1367,-412.5 1367,-382.5 1245,-382.5"/>
<text text-anchor="start" x="1253" y="-400.5" font-family="Helvetica,sans-Serif" font-size="10.00">AP_HAL::RCInput::num</text>
<text text-anchor="middle" x="1306" y="-389.5" font-family="Helvetica,sans-Serif" font-size="10.00">_channels</text>
</a>
</g>
</g>
<!-- Node9&#45;&gt;Node11 -->
<g id="edge10" class="edge"><title>Node9&#45;&gt;Node11</title>
<path fill="none" stroke="midnightblue" d="M1205.33,-396.915C1215.1,-396.973 1225.14,-397.032 1234.91,-397.089"/>
<polygon fill="midnightblue" stroke="midnightblue" points="1234.94,-400.589 1244.96,-397.148 1234.98,-393.589 1234.94,-400.589"/>
</g>
<!-- Node12 -->
<g id="node12" class="node"><title>Node12</title>
<g id="a_node12"><a xlink:href="$classAP__HAL_1_1RCInput.html#a078fd7e6d2e6a899009ec674a8e03498" xlink:title="AP_HAL::RCInput::read">
<polygon fill="white" stroke="black" points="1245,-344 1245,-363 1367,-363 1367,-344 1245,-344"/>
<text text-anchor="middle" x="1306" y="-351" font-family="Helvetica,sans-Serif" font-size="10.00">AP_HAL::RCInput::read</text>
</a>
</g>
</g>
<!-- Node9&#45;&gt;Node12 -->
<g id="edge11" class="edge"><title>Node9&#45;&gt;Node12</title>
<path fill="none" stroke="midnightblue" d="M1172.34,-386.957C1197.39,-380.638 1230.46,-372.299 1257.31,-365.528"/>
<polygon fill="midnightblue" stroke="midnightblue" points="1258.43,-368.856 1267.27,-363.016 1256.71,-362.068 1258.43,-368.856"/>
</g>
<!-- Node15 -->
<g id="node15" class="node"><title>Node15</title>
<g id="a_node15"><a xlink:href="$classAP__HAL_1_1UARTDriver.html#a6ceedc792594e59fc7d80b39a435f027" xlink:title="AP_HAL::UARTDriver\l::printf">
<polygon fill="white" stroke="black" points="1076,-294.5 1076,-324.5 1191,-324.5 1191,-294.5 1076,-294.5"/>
<text text-anchor="start" x="1084" y="-312.5" font-family="Helvetica,sans-Serif" font-size="10.00">AP_HAL::UARTDriver</text>
<text text-anchor="middle" x="1133.5" y="-301.5" font-family="Helvetica,sans-Serif" font-size="10.00">::printf</text>
</a>
</g>
</g>
<!-- Node14&#45;&gt;Node15 -->
<g id="edge14" class="edge"><title>Node14&#45;&gt;Node15</title>
<path fill="none" stroke="midnightblue" d="M1020.98,-281.539C1035.42,-285.16 1050.94,-289.05 1065.67,-292.744"/>
<polygon fill="midnightblue" stroke="midnightblue" points="1065.17,-296.227 1075.72,-295.264 1066.87,-289.437 1065.17,-296.227"/>
</g>
<!-- Node16 -->
<g id="node16" class="node"><title>Node16</title>
<g id="a_node16"><a xlink:href="$classAP__HAL_1_1UARTDriver.html#aa8abfb6d6641299472c29ac1edde559f" xlink:title="AP_HAL::UARTDriver\l::vprintf">
<polygon fill="white" stroke="black" points="1248.5,-294.5 1248.5,-324.5 1363.5,-324.5 1363.5,-294.5 1248.5,-294.5"/>
<text text-anchor="start" x="1256.5" y="-312.5" font-family="Helvetica,sans-Serif" font-size="10.00">AP_HAL::UARTDriver</text>
<text text-anchor="middle" x="1306" y="-301.5" font-family="Helvetica,sans-Serif" font-size="10.00">::vprintf</text>
</a>
</g>
</g>
<!-- Node15&#45;&gt;Node16 -->
<g id="edge15" class="edge"><title>Node15&#45;&gt;Node16</title>
<path fill="none" stroke="midnightblue" d="M1191.27,-309.5C1206.37,-309.5 1222.82,-309.5 1238.39,-309.5"/>
<polygon fill="midnightblue" stroke="midnightblue" points="1238.47,-313 1248.47,-309.5 1238.47,-306 1238.47,-313"/>
</g>
<!-- Node17 -->
<g id="node17" class="node"><title>Node17</title>
<g id="a_node17"><a xlink:href="$print__vprintf_8cpp.html#a1534eaeab54696df96975b56d9f49212" xlink:title="print_vprintf">
<polygon fill="white" stroke="black" points="1444.5,-300 1444.5,-319 1512.5,-319 1512.5,-300 1444.5,-300"/>
<text text-anchor="middle" x="1478.5" y="-307" font-family="Helvetica,sans-Serif" font-size="10.00">print_vprintf</text>
</a>
</g>
</g>
<!-- Node16&#45;&gt;Node17 -->
<g id="edge16" class="edge"><title>Node16&#45;&gt;Node17</title>
<path fill="none" stroke="midnightblue" d="M1363.77,-309.5C1386.75,-309.5 1412.85,-309.5 1434.24,-309.5"/>
<polygon fill="midnightblue" stroke="midnightblue" points="1434.33,-313 1444.33,-309.5 1434.33,-306 1434.33,-313"/>
</g>
<!-- Node18 -->
<g id="node18" class="node"><title>Node18</title>
<g id="a_node18"><a xlink:href="$classAP__HAL_1_1Print.html#acc65391952a43334f8f5c9bef341f501" xlink:title="AP_HAL::Print::write">
<polygon fill="white" stroke="black" points="1587.5,-263 1587.5,-282 1695.5,-282 1695.5,-263 1587.5,-263"/>
<text text-anchor="middle" x="1641.5" y="-270" font-family="Helvetica,sans-Serif" font-size="10.00">AP_HAL::Print::write</text>
</a>
</g>
</g>
<!-- Node17&#45;&gt;Node18 -->
<g id="edge17" class="edge"><title>Node17&#45;&gt;Node18</title>
<path fill="none" stroke="midnightblue" d="M1512.86,-301.834C1534.8,-296.792 1563.95,-290.093 1588.85,-284.37"/>
<polygon fill="midnightblue" stroke="midnightblue" points="1589.91,-287.717 1598.87,-282.066 1588.34,-280.895 1589.91,-287.717"/>
</g>
<!-- Node19 -->
<g id="node19" class="node"><title>Node19</title>
<g id="a_node19"><a xlink:href="$ftoa__engine_8cpp.html#a1c28234da8f20b43c85890d4bb452947" xlink:title="ftoa_engine">
<polygon fill="white" stroke="black" points="1608,-225 1608,-244 1675,-244 1675,-225 1608,-225"/>
<text text-anchor="middle" x="1641.5" y="-232" font-family="Helvetica,sans-Serif" font-size="10.00">ftoa_engine</text>
</a>
</g>
</g>
<!-- Node17&#45;&gt;Node19 -->
<g id="edge18" class="edge"><title>Node17&#45;&gt;Node19</title>
<path fill="none" stroke="midnightblue" d="M1495.73,-299.992C1516.3,-288.173 1553.04,-267.815 1586,-253.5 1590.76,-251.432 1595.83,-249.423 1600.88,-247.534"/>
<polygon fill="midnightblue" stroke="midnightblue" points="1602.27,-250.751 1610.49,-244.065 1599.9,-244.167 1602.27,-250.751"/>
</g>
<!-- Node20 -->
<g id="node20" class="node"><title>Node20</title>
<g id="a_node20"><a xlink:href="$replace_8cpp.html#a880bcc7b85a09e6254691bebd5344b51" xlink:title="strnlen">
<polygon fill="white" stroke="black" points="1618.5,-377 1618.5,-396 1664.5,-396 1664.5,-377 1618.5,-377"/>
<text text-anchor="middle" x="1641.5" y="-384" font-family="Helvetica,sans-Serif" font-size="10.00">strnlen</text>
</a>
</g>
</g>
<!-- Node17&#45;&gt;Node20 -->
<g id="edge19" class="edge"><title>Node17&#45;&gt;Node20</title>
<path fill="none" stroke="midnightblue" d="M1495.32,-319.184C1515.77,-331.445 1552.7,-352.746 1586,-367.5 1593.26,-370.717 1601.25,-373.764 1608.82,-376.437"/>
<polygon fill="midnightblue" stroke="midnightblue" points="1607.84,-379.801 1618.44,-379.719 1610.1,-373.176 1607.84,-379.801"/>
</g>
<!-- Node21 -->
<g id="node21" class="node"><title>Node21</title>
<g id="a_node21"><a xlink:href="$utoa__invert_8cpp.html#a34926f552460b47c414ec4d83b32815c" xlink:title="ulltoa_invert">
<polygon fill="white" stroke="black" points="1607,-339 1607,-358 1676,-358 1676,-339 1607,-339"/>
<text text-anchor="middle" x="1641.5" y="-346" font-family="Helvetica,sans-Serif" font-size="10.00">ulltoa_invert</text>
</a>
</g>
</g>
<!-- Node17&#45;&gt;Node21 -->
<g id="edge20" class="edge"><title>Node17&#45;&gt;Node21</title>
<path fill="none" stroke="midnightblue" d="M1512.86,-317.581C1537.28,-323.496 1570.63,-331.576 1597.12,-337.993"/>
<polygon fill="midnightblue" stroke="midnightblue" points="1596.36,-341.41 1606.91,-340.363 1598.01,-334.607 1596.36,-341.41"/>
</g>
<!-- Node22 -->
<g id="node22" class="node"><title>Node22</title>
<g id="a_node22"><a xlink:href="$utoa__invert_8cpp.html#a5d99bba8e697c1e11da489d88fca8559" xlink:title="ultoa_invert">
<polygon fill="white" stroke="black" points="1608,-301 1608,-320 1675,-320 1675,-301 1608,-301"/>
<text text-anchor="middle" x="1641.5" y="-308" font-family="Helvetica,sans-Serif" font-size="10.00">ultoa_invert</text>
</a>
</g>
</g>
<!-- Node17&#45;&gt;Node22 -->
<g id="edge21" class="edge"><title>Node17&#45;&gt;Node22</title>
<path fill="none" stroke="midnightblue" d="M1512.86,-309.707C1537.42,-309.86 1571.01,-310.068 1597.57,-310.233"/>
<polygon fill="midnightblue" stroke="midnightblue" points="1597.71,-313.734 1607.73,-310.296 1597.76,-306.734 1597.71,-313.734"/>
</g>
<!-- Node24 -->
<g id="node24" class="node"><title>Node24</title>
<g id="a_node24"><a xlink:href="$namespaceAP__HAL.html#a59336c5fceaf28a76d1df1581a87a25d" xlink:title="AP_HAL::millis64">
<polygon fill="white" stroke="black" points="1086.5,-137 1086.5,-156 1180.5,-156 1180.5,-137 1086.5,-137"/>
<text text-anchor="middle" x="1133.5" y="-144" font-family="Helvetica,sans-Serif" font-size="10.00">AP_HAL::millis64</text>
</a>
</g>
</g>
<!-- Node23&#45;&gt;Node24 -->
<g id="edge23" class="edge"><title>Node23&#45;&gt;Node24</title>
<path fill="none" stroke="midnightblue" d="M997.371,-202.443C1027.76,-189.862 1070.7,-172.085 1099.96,-159.97"/>
<polygon fill="midnightblue" stroke="midnightblue" points="1101.43,-163.153 1109.33,-156.094 1098.75,-156.685 1101.43,-163.153"/>
</g>
<!-- Node30 -->
<g id="node30" class="node"><title>Node30</title>
<g id="a_node30"><a xlink:href="$classLinux_1_1Thread.html#a6884970a0811ae21953c57fb98aa6e96" xlink:title="Linux::Thread::get\l_stack_usage">
<polygon fill="white" stroke="black" points="1894,-181.5 1894,-211.5 1989,-211.5 1989,-181.5 1894,-181.5"/>
<text text-anchor="start" x="1902" y="-199.5" font-family="Helvetica,sans-Serif" font-size="10.00">Linux::Thread::get</text>
<text text-anchor="middle" x="1941.5" y="-188.5" font-family="Helvetica,sans-Serif" font-size="10.00">_stack_usage</text>
</a>
</g>
</g>
<!-- Node23&#45;&gt;Node30 -->
<g id="edge33" class="edge"><title>Node23&#45;&gt;Node30</title>
<path fill="none" stroke="midnightblue" d="M1007.68,-212.839C1073.79,-206.653 1198.5,-196.5 1305,-196.5 1305,-196.5 1305,-196.5 1642.5,-196.5 1726.5,-196.5 1823.81,-196.5 1883.77,-196.5"/>
<polygon fill="midnightblue" stroke="midnightblue" points="1883.79,-200 1893.79,-196.5 1883.79,-193 1883.79,-200"/>
</g>
<!-- Node24&#45;&gt;Node6 -->
<g id="edge24" class="edge"><title>Node24&#45;&gt;Node6</title>
<path fill="none" stroke="midnightblue" d="M1086.3,-149.901C986.982,-157.532 759.671,-176.813 730,-195.5 682.557,-225.38 654.946,-289.438 643.599,-321.46"/>
<polygon fill="midnightblue" stroke="midnightblue" points="640.262,-320.401 640.369,-330.995 646.892,-322.647 640.262,-320.401"/>
</g>
<!-- Node24&#45;&gt;Node25 -->
<g id="edge25" class="edge"><title>Node24&#45;&gt;Node25</title>
<path fill="none" stroke="midnightblue" d="M1172.34,-136.957C1190.97,-132.258 1214.03,-126.442 1235.68,-120.984"/>
<polygon fill="midnightblue" stroke="midnightblue" points="1236.66,-124.346 1245.5,-118.506 1234.95,-117.558 1236.66,-124.346"/>
</g>
<!-- Node26 -->
<g id="node26" class="node"><title>Node26</title>
<g id="a_node26"><a xlink:href="$classLinux_1_1Scheduler.html#a647872aff158b510c56862f51f951538" xlink:title="Linux::Scheduler::microsleep">
<polygon fill="white" stroke="black" points="1407,-50 1407,-69 1550,-69 1550,-50 1407,-50"/>
<text text-anchor="middle" x="1478.5" y="-57" font-family="Helvetica,sans-Serif" font-size="10.00">Linux::Scheduler::microsleep</text>
</a>
</g>
</g>
<!-- Node25&#45;&gt;Node26 -->
<g id="edge26" class="edge"><title>Node25&#45;&gt;Node26</title>
<path fill="none" stroke="midnightblue" d="M1365.2,-88.4808C1386.57,-82.9648 1410.48,-76.7956 1430.72,-71.5716"/>
<polygon fill="midnightblue" stroke="midnightblue" points="1431.83,-74.9002 1440.64,-69.0124 1430.08,-68.1223 1431.83,-74.9002"/>
</g>
<!-- Node27 -->
<g id="node27" class="node"><title>Node27</title>
<g id="a_node27"><a xlink:href="$classLinux_1_1Scheduler.html#ab373a83d818679432520ea881044b2a7" xlink:title="Linux::Scheduler::teardown">
<polygon fill="white" stroke="black" points="1411,-94 1411,-113 1546,-113 1546,-94 1411,-94"/>
<text text-anchor="middle" x="1478.5" y="-101" font-family="Helvetica,sans-Serif" font-size="10.00">Linux::Scheduler::teardown</text>
</a>
</g>
</g>
<!-- Node25&#45;&gt;Node27 -->
<g id="edge27" class="edge"><title>Node25&#45;&gt;Node27</title>
<path fill="none" stroke="midnightblue" d="M1371.46,-103.5C1381.05,-103.5 1391.01,-103.5 1400.82,-103.5"/>
<polygon fill="midnightblue" stroke="midnightblue" points="1400.96,-107 1410.96,-103.5 1400.96,-100 1400.96,-107"/>
</g>
<!-- Node28 -->
<g id="node28" class="node"><title>Node28</title>
<g id="a_node28"><a xlink:href="$classLinux_1_1PeriodicThread.html#a136aaf6e713f63b246fc4a2905e6e9a1" xlink:title="Linux::PeriodicThread\l::stop">
<polygon fill="white" stroke="black" points="1586,-132.5 1586,-162.5 1697,-162.5 1697,-132.5 1586,-132.5"/>
<text text-anchor="start" x="1594" y="-150.5" font-family="Helvetica,sans-Serif" font-size="10.00">Linux::PeriodicThread</text>
<text text-anchor="middle" x="1641.5" y="-139.5" font-family="Helvetica,sans-Serif" font-size="10.00">::stop</text>
</a>
</g>
</g>
<!-- Node27&#45;&gt;Node28 -->
<g id="edge28" class="edge"><title>Node27&#45;&gt;Node28</title>
<path fill="none" stroke="midnightblue" d="M1514.43,-113.047C1532.4,-117.957 1554.88,-124.1 1575.86,-129.834"/>
<polygon fill="midnightblue" stroke="midnightblue" points="1575.12,-133.26 1585.69,-132.521 1576.97,-126.508 1575.12,-133.26"/>
</g>
<!-- Node32 -->
<g id="node32" class="node"><title>Node32</title>
<g id="a_node32"><a xlink:href="$classLinux_1_1Thread.html#a32b7d184279634922e2f3b23b584fbcd" xlink:title="Linux::Thread::join">
<polygon fill="white" stroke="black" points="1593,-94 1593,-113 1690,-113 1690,-94 1593,-94"/>
<text text-anchor="middle" x="1641.5" y="-101" font-family="Helvetica,sans-Serif" font-size="10.00">Linux::Thread::join</text>
</a>
</g>
</g>
<!-- Node27&#45;&gt;Node32 -->
<g id="edge32" class="edge"><title>Node27&#45;&gt;Node32</title>
<path fill="none" stroke="midnightblue" d="M1546.38,-103.5C1558.41,-103.5 1570.85,-103.5 1582.6,-103.5"/>
<polygon fill="midnightblue" stroke="midnightblue" points="1582.72,-107 1592.72,-103.5 1582.72,-100 1582.72,-107"/>
</g>
<!-- Node29 -->
<g id="node29" class="node"><title>Node29</title>
<g id="a_node29"><a xlink:href="$classLinux_1_1Thread.html#a240d7b48a9a8eb43638f67295a1819e5" xlink:title="Linux::Thread::is_started">
<polygon fill="white" stroke="black" points="1733,-138 1733,-157 1858,-157 1858,-138 1733,-138"/>
<text text-anchor="middle" x="1795.5" y="-145" font-family="Helvetica,sans-Serif" font-size="10.00">Linux::Thread::is_started</text>
</a>
</g>
</g>
<!-- Node28&#45;&gt;Node29 -->
<g id="edge29" class="edge"><title>Node28&#45;&gt;Node29</title>
<path fill="none" stroke="midnightblue" d="M1697.38,-147.5C1705.54,-147.5 1714.05,-147.5 1722.5,-147.5"/>
<polygon fill="midnightblue" stroke="midnightblue" points="1722.74,-151 1732.74,-147.5 1722.74,-144 1722.74,-151"/>
</g>
<!-- Node29&#45;&gt;Node30 -->
<g id="edge30" class="edge"><title>Node29&#45;&gt;Node30</title>
<path fill="none" stroke="midnightblue" d="M1824.61,-157.064C1842.28,-163.078 1865.66,-171.033 1886.79,-178.223"/>
<polygon fill="midnightblue" stroke="midnightblue" points="1885.72,-181.555 1896.31,-181.463 1887.97,-174.928 1885.72,-181.555"/>
</g>
<!-- Node31 -->
<g id="node31" class="node"><title>Node31</title>
<g id="a_node31"><a xlink:href="$classLinux_1_1Thread.html#a8d3282b714faaf68eae534e9276419f0" xlink:title="Linux::Thread::set\l_stack_size">
<polygon fill="white" stroke="black" points="1894,-132.5 1894,-162.5 1989,-162.5 1989,-132.5 1894,-132.5"/>
<text text-anchor="start" x="1902" y="-150.5" font-family="Helvetica,sans-Serif" font-size="10.00">Linux::Thread::set</text>
<text text-anchor="middle" x="1941.5" y="-139.5" font-family="Helvetica,sans-Serif" font-size="10.00">_stack_size</text>
</a>
</g>
</g>
<!-- Node29&#45;&gt;Node31 -->
<g id="edge31" class="edge"><title>Node29&#45;&gt;Node31</title>
<path fill="none" stroke="midnightblue" d="M1858.4,-147.5C1866.86,-147.5 1875.5,-147.5 1883.86,-147.5"/>
<polygon fill="midnightblue" stroke="midnightblue" points="1883.87,-151 1893.87,-147.5 1883.87,-144 1883.87,-151"/>
</g>
<!-- Node33&#45;&gt;Node24 -->
<g id="edge35" class="edge"><title>Node33&#45;&gt;Node24</title>
<path fill="none" stroke="midnightblue" d="M1019.54,-139.255C1037.88,-140.431 1058.07,-141.726 1076.24,-142.892"/>
<polygon fill="midnightblue" stroke="midnightblue" points="1076.19,-146.395 1086.39,-143.543 1076.64,-139.41 1076.19,-146.395"/>
</g>
<!-- Node33&#45;&gt;Node26 -->
<g id="edge36" class="edge"><title>Node33&#45;&gt;Node26</title>
<path fill="none" stroke="midnightblue" d="M1000.16,-125.97C1054.06,-113.21 1154.3,-90.7612 1241,-78.5 1292.57,-71.2068 1350.89,-66.483 1396.71,-63.5697"/>
<polygon fill="midnightblue" stroke="midnightblue" points="1397.12,-67.0511 1406.89,-62.9394 1396.69,-60.0645 1397.12,-67.0511"/>
</g>
<!-- Node34&#45;&gt;Node26 -->
<g id="edge38" class="edge"><title>Node34&#45;&gt;Node26</title>
<path fill="none" stroke="midnightblue" d="M1193.31,-22.885C1241.17,-28.9126 1310.46,-37.6806 1371,-45.5 1379.31,-46.573 1387.98,-47.7006 1396.63,-48.8304"/>
<polygon fill="midnightblue" stroke="midnightblue" points="1396.39,-52.3281 1406.76,-50.1548 1397.3,-45.3873 1396.39,-52.3281"/>
</g>
<!-- Node36&#45;&gt;Node15 -->
<g id="edge42" class="edge"><title>Node36&#45;&gt;Node15</title>
<path fill="none" stroke="midnightblue" d="M1024.37,-322.11C1037.83,-320.54 1052.08,-318.878 1065.66,-317.294"/>
<polygon fill="midnightblue" stroke="midnightblue" points="1066.37,-320.736 1075.9,-316.101 1065.56,-313.783 1066.37,-320.736"/>
</g>
<!-- Node38 -->
<g id="node38" class="node"><title>Node38</title>
<g id="a_node38"><a xlink:href="$classLinux_1_1Semaphore.html#afc4c8706abb7e68aa4001ea372dc614e" xlink:title="Linux::Semaphore::take">
<polygon fill="white" stroke="black" points="1073.5,-599 1073.5,-618 1193.5,-618 1193.5,-599 1073.5,-599"/>
<text text-anchor="middle" x="1133.5" y="-606" font-family="Helvetica,sans-Serif" font-size="10.00">Linux::Semaphore::take</text>
</a>
</g>
</g>
<!-- Node37&#45;&gt;Node38 -->
<g id="edge44" class="edge"><title>Node37&#45;&gt;Node38</title>
<path fill="none" stroke="midnightblue" d="M1026.33,-608.5C1038.38,-608.5 1051.01,-608.5 1063.17,-608.5"/>
<polygon fill="midnightblue" stroke="midnightblue" points="1063.26,-612 1073.26,-608.5 1063.26,-605 1063.26,-612"/>
</g>
<!-- Node38&#45;&gt;Node5 -->
<g id="edge46" class="edge"><title>Node38&#45;&gt;Node5</title>
<path fill="none" stroke="midnightblue" d="M1098.77,-618.114C1077.99,-623.534 1050.68,-629.754 1026,-632.5 895.204,-647.055 857.106,-658.612 730,-624.5 639.828,-600.3 544.844,-540.185 503.205,-511.801"/>
<polygon fill="midnightblue" stroke="midnightblue" points="505.143,-508.887 494.924,-506.093 501.17,-514.65 505.143,-508.887"/>
</g>
<!-- Node38&#45;&gt;Node13 -->
<g id="edge47" class="edge"><title>Node38&#45;&gt;Node13</title>
<path fill="none" stroke="midnightblue" d="M1193.65,-599.826C1208.88,-597.594 1225.34,-595.181 1240.81,-592.912"/>
<polygon fill="midnightblue" stroke="midnightblue" points="1241.42,-596.36 1250.81,-591.446 1240.41,-589.434 1241.42,-596.36"/>
</g>
<!-- Node39 -->
<g id="node39" class="node"><title>Node39</title>
<g id="a_node39"><a xlink:href="$classLinux_1_1Semaphore.html#a561b4f40f3a76335f1a686c2aed526f9" xlink:title="Linux::Semaphore::take\l_nonblocking">
<polygon fill="white" stroke="black" points="1246,-617.5 1246,-647.5 1366,-647.5 1366,-617.5 1246,-617.5"/>
<text text-anchor="start" x="1254" y="-635.5" font-family="Helvetica,sans-Serif" font-size="10.00">Linux::Semaphore::take</text>
<text text-anchor="middle" x="1306" y="-624.5" font-family="Helvetica,sans-Serif" font-size="10.00">_nonblocking</text>
</a>
</g>
</g>
<!-- Node38&#45;&gt;Node39 -->
<g id="edge45" class="edge"><title>Node38&#45;&gt;Node39</title>
<path fill="none" stroke="midnightblue" d="M1193.65,-616.827C1207.28,-618.744 1221.88,-620.8 1235.88,-622.771"/>
<polygon fill="midnightblue" stroke="midnightblue" points="1235.56,-626.26 1245.95,-624.188 1236.54,-619.328 1235.56,-626.26"/>
</g>
<!-- Node41 -->
<g id="node41" class="node"><title>Node41</title>
<g id="a_node41"><a xlink:href="$classLinux_1_1Semaphore.html#a216f91636f64b57b59d43ef64af91624" xlink:title="Linux::Semaphore::give">
<polygon fill="white" stroke="black" points="1074,-503 1074,-522 1193,-522 1193,-503 1074,-503"/>
<text text-anchor="middle" x="1133.5" y="-510" font-family="Helvetica,sans-Serif" font-size="10.00">Linux::Semaphore::give</text>
</a>
</g>
</g>
<!-- Node40&#45;&gt;Node41 -->
<g id="edge49" class="edge"><title>Node40&#45;&gt;Node41</title>
<path fill="none" stroke="midnightblue" d="M1024.37,-497.369C1037.17,-499.16 1050.69,-501.051 1063.66,-502.867"/>
<polygon fill="midnightblue" stroke="midnightblue" points="1063.54,-506.384 1073.93,-504.304 1064.51,-499.452 1063.54,-506.384"/>
</g>
<!-- Node44&#45;&gt;Node8 -->
<g id="edge53" class="edge"><title>Node44&#45;&gt;Node8</title>
<path fill="none" stroke="midnightblue" d="M858.407,-418.808C874.673,-415.039 891.971,-411.031 907.551,-407.421"/>
<polygon fill="midnightblue" stroke="midnightblue" points="908.561,-410.78 917.513,-405.113 906.981,-403.96 908.561,-410.78"/>
</g>
<!-- Node45 -->
<g id="node45" class="node"><title>Node45</title>
<g id="a_node45"><a xlink:href="$classLinux_1_1Scheduler.html#ac52c8da3f1f4fd79c50bd64379daf399" xlink:title="Linux::Scheduler::\l_wait_all_threads">
<polygon fill="white" stroke="black" points="912.5,-424.5 912.5,-454.5 1007.5,-454.5 1007.5,-424.5 912.5,-424.5"/>
<text text-anchor="start" x="920.5" y="-442.5" font-family="Helvetica,sans-Serif" font-size="10.00">Linux::Scheduler::</text>
<text text-anchor="middle" x="960" y="-431.5" font-family="Helvetica,sans-Serif" font-size="10.00">_wait_all_threads</text>
</a>
</g>
</g>
<!-- Node44&#45;&gt;Node45 -->
<g id="edge54" class="edge"><title>Node44&#45;&gt;Node45</title>
<path fill="none" stroke="midnightblue" d="M858.407,-435.82C872.84,-436.348 888.085,-436.906 902.222,-437.423"/>
<polygon fill="midnightblue" stroke="midnightblue" points="902.172,-440.923 912.293,-437.791 902.428,-433.928 902.172,-440.923"/>
</g>
<!-- Node48 -->
<g id="node48" class="node"><title>Node48</title>
<g id="a_node48"><a xlink:href="$classLinux_1_1Scheduler.html#a70b024d7d0886bf47b46cc3ee310d638" xlink:title="Linux::Scheduler::\l_run_io">
<polygon fill="white" stroke="black" points="912.5,-522.5 912.5,-552.5 1007.5,-552.5 1007.5,-522.5 912.5,-522.5"/>
<text text-anchor="start" x="920.5" y="-540.5" font-family="Helvetica,sans-Serif" font-size="10.00">Linux::Scheduler::</text>
<text text-anchor="middle" x="960" y="-529.5" font-family="Helvetica,sans-Serif" font-size="10.00">_run_io</text>
</a>
</g>
</g>
<!-- Node47&#45;&gt;Node48 -->
<g id="edge57" class="edge"><title>Node47&#45;&gt;Node48</title>
<path fill="none" stroke="midnightblue" d="M851.439,-527.006C867.86,-528.608 885.799,-530.358 902.239,-531.962"/>
<polygon fill="midnightblue" stroke="midnightblue" points="901.962,-535.452 912.255,-532.939 902.642,-528.485 901.962,-535.452"/>
</g>
<!-- Node48&#45;&gt;Node38 -->
<g id="edge58" class="edge"><title>Node48&#45;&gt;Node38</title>
<path fill="none" stroke="midnightblue" d="M997.371,-552.557C1027.76,-565.138 1070.7,-582.915 1099.96,-595.03"/>
<polygon fill="midnightblue" stroke="midnightblue" points="1098.75,-598.315 1109.33,-598.906 1101.43,-591.847 1098.75,-598.315"/>
</g>
<!-- Node48&#45;&gt;Node41 -->
<g id="edge59" class="edge"><title>Node48&#45;&gt;Node41</title>
<path fill="none" stroke="midnightblue" d="M1007.86,-530.669C1025.1,-528.156 1044.99,-525.257 1063.75,-522.522"/>
<polygon fill="midnightblue" stroke="midnightblue" points="1064.34,-525.972 1073.73,-521.066 1063.33,-519.046 1064.34,-525.972"/>
</g>
</g>
</svg>
