<?xml version="1.0" encoding="UTF-8" standalone="no"?>
<!DOCTYPE svg PUBLIC "-//W3C//DTD SVG 1.1//EN"
 "http://www.w3.org/Graphics/SVG/1.1/DTD/svg11.dtd">
<!-- Generated by graphviz version 2.38.0 (20140413.2041)
 -->
<!-- Title: get_storage Pages: 1 -->
<svg width="1990pt" height="758pt"
 viewBox="0.00 0.00 1990.00 758.00" xmlns="http://www.w3.org/2000/svg" xmlns:xlink="http://www.w3.org/1999/xlink">
<g id="graph0" class="graph" transform="scale(1 1) rotate(0) translate(4 754)">
<title>get_storage</title>
<polygon fill="white" stroke="none" points="-4,4 -4,-754 1986,-754 1986,4 -4,4"/>
<!-- Node1 -->
<g id="node1" class="node"><title>Node1</title>
<polygon fill="#bfbfbf" stroke="black" points="0,-662 0,-681 68,-681 68,-662 0,-662"/>
<text text-anchor="middle" x="34" y="-669" font-family="Helvetica,sans-Serif" font-size="10.00">get_storage</text>
</g>
<!-- Node2 -->
<g id="node2" class="node"><title>Node2</title>
<g id="a_node2"><a xlink:href="$dsp__main_8cpp.html#a4e9fe5732f83bcaa465809dd7b09dc43" xlink:title="ardupilot_get_storage">
<polygon fill="white" stroke="black" points="104,-662 104,-681 214,-681 214,-662 104,-662"/>
<text text-anchor="middle" x="159" y="-669" font-family="Helvetica,sans-Serif" font-size="10.00">ardupilot_get_storage</text>
</a>
</g>
</g>
<!-- Node1&#45;&gt;Node2 -->
<g id="edge1" class="edge"><title>Node1&#45;&gt;Node2</title>
<path fill="none" stroke="midnightblue" d="M68.2856,-671.5C76.1606,-671.5 84.8236,-671.5 93.5659,-671.5"/>
<polygon fill="midnightblue" stroke="midnightblue" points="93.8225,-675 103.822,-671.5 93.8224,-668 93.8225,-675"/>
</g>
<!-- Node3 -->
<g id="node3" class="node"><title>Node3</title>
<g id="a_node3"><a xlink:href="$classQURT_1_1Semaphore.html#afc4c8706abb7e68aa4001ea372dc614e" xlink:title="QURT::Semaphore::take">
<polygon fill="white" stroke="black" points="250,-681 250,-700 375,-700 375,-681 250,-681"/>
<text text-anchor="middle" x="312.5" y="-688" font-family="Helvetica,sans-Serif" font-size="10.00">QURT::Semaphore::take</text>
</a>
</g>
</g>
<!-- Node2&#45;&gt;Node3 -->
<g id="edge2" class="edge"><title>Node2&#45;&gt;Node3</title>
<path fill="none" stroke="midnightblue" d="M214.267,-678.306C222.567,-679.347 231.241,-680.435 239.845,-681.514"/>
<polygon fill="midnightblue" stroke="midnightblue" points="239.528,-685.001 249.886,-682.773 240.399,-678.056 239.528,-685.001"/>
</g>
<!-- Node49 -->
<g id="node49" class="node"><title>Node49</title>
<g id="a_node49"><a xlink:href="$classQURT_1_1Semaphore.html#a216f91636f64b57b59d43ef64af91624" xlink:title="QURT::Semaphore::give">
<polygon fill="white" stroke="black" points="250,-643 250,-662 375,-662 375,-643 250,-643"/>
<text text-anchor="middle" x="312.5" y="-650" font-family="Helvetica,sans-Serif" font-size="10.00">QURT::Semaphore::give</text>
</a>
</g>
</g>
<!-- Node2&#45;&gt;Node49 -->
<g id="edge62" class="edge"><title>Node2&#45;&gt;Node49</title>
<path fill="none" stroke="midnightblue" d="M214.267,-664.694C222.567,-663.653 231.241,-662.565 239.845,-661.486"/>
<polygon fill="midnightblue" stroke="midnightblue" points="240.399,-664.944 249.886,-660.227 239.528,-657.999 240.399,-664.944"/>
</g>
<!-- Node4 -->
<g id="node4" class="node"><title>Node4</title>
<g id="a_node4"><a xlink:href="$classQURT_1_1Semaphore.html#a561b4f40f3a76335f1a686c2aed526f9" xlink:title="QURT::Semaphore::take\l_nonblocking">
<polygon fill="white" stroke="black" points="411,-719.5 411,-749.5 536,-749.5 536,-719.5 411,-719.5"/>
<text text-anchor="start" x="419" y="-737.5" font-family="Helvetica,sans-Serif" font-size="10.00">QURT::Semaphore::take</text>
<text text-anchor="middle" x="473.5" y="-726.5" font-family="Helvetica,sans-Serif" font-size="10.00">_nonblocking</text>
</a>
</g>
</g>
<!-- Node3&#45;&gt;Node4 -->
<g id="edge3" class="edge"><title>Node3&#45;&gt;Node4</title>
<path fill="none" stroke="midnightblue" d="M348.001,-700.047C365.662,-704.935 387.742,-711.045 408.384,-716.757"/>
<polygon fill="midnightblue" stroke="midnightblue" points="407.488,-720.141 418.059,-719.435 409.355,-713.394 407.488,-720.141"/>
</g>
<!-- Node5 -->
<g id="node5" class="node"><title>Node5</title>
<g id="a_node5"><a xlink:href="$namespaceAP__HAL.html#a7aa0ce7625c9680e30ff4a99940907a5" xlink:title="AP_HAL::micros64">
<polygon fill="white" stroke="black" points="423,-487 423,-506 524,-506 524,-487 423,-487"/>
<text text-anchor="middle" x="473.5" y="-494" font-family="Helvetica,sans-Serif" font-size="10.00">AP_HAL::micros64</text>
</a>
</g>
</g>
<!-- Node3&#45;&gt;Node5 -->
<g id="edge4" class="edge"><title>Node3&#45;&gt;Node5</title>
<path fill="none" stroke="midnightblue" d="M358.873,-680.911C364.663,-678.454 370.225,-675.37 375,-671.5 426.912,-629.429 455.821,-551.94 467.015,-515.89"/>
<polygon fill="midnightblue" stroke="midnightblue" points="470.425,-516.701 469.926,-506.118 463.716,-514.702 470.425,-516.701"/>
</g>
<!-- Node13 -->
<g id="node13" class="node"><title>Node13</title>
<g id="a_node13"><a xlink:href="$classAP__HAL_1_1Scheduler.html#a78c4f1b1f192ac1c99544b6cc8f099b0" xlink:title="AP_HAL::Scheduler::\ldelay_microseconds">
<polygon fill="white" stroke="black" points="1244,-568.5 1244,-598.5 1354,-598.5 1354,-568.5 1244,-568.5"/>
<text text-anchor="start" x="1252" y="-586.5" font-family="Helvetica,sans-Serif" font-size="10.00">AP_HAL::Scheduler::</text>
<text text-anchor="middle" x="1299" y="-575.5" font-family="Helvetica,sans-Serif" font-size="10.00">delay_microseconds</text>
</a>
</g>
</g>
<!-- Node3&#45;&gt;Node13 -->
<g id="edge61" class="edge"><title>Node3&#45;&gt;Node13</title>
<path fill="none" stroke="midnightblue" d="M375.066,-690.5C438.563,-690.5 540.453,-690.5 628.5,-690.5 628.5,-690.5 628.5,-690.5 954,-690.5 1066,-690.5 1093.98,-669.032 1198,-627.5 1215,-620.713 1217.39,-615.179 1234,-607.5 1237.82,-605.736 1241.8,-604 1245.84,-602.319"/>
<polygon fill="midnightblue" stroke="midnightblue" points="1247.33,-605.493 1255.29,-598.507 1244.71,-599.001 1247.33,-605.493"/>
</g>
<!-- Node6 -->
<g id="node6" class="node"><title>Node6</title>
<g id="a_node6"><a xlink:href="$classLinux_1_1Scheduler.html#a53ecaae0fdc72f85bd57c4b0cff93653" xlink:title="Linux::Scheduler::from">
<polygon fill="white" stroke="black" points="572,-331 572,-350 687,-350 687,-331 572,-331"/>
<text text-anchor="middle" x="629.5" y="-338" font-family="Helvetica,sans-Serif" font-size="10.00">Linux::Scheduler::from</text>
</a>
</g>
</g>
<!-- Node5&#45;&gt;Node6 -->
<g id="edge5" class="edge"><title>Node5&#45;&gt;Node6</title>
<path fill="none" stroke="midnightblue" d="M484.133,-486.742C509.629,-460.915 579.124,-390.518 611.491,-357.73"/>
<polygon fill="midnightblue" stroke="midnightblue" points="614.336,-359.83 618.87,-350.255 609.354,-354.913 614.336,-359.83"/>
</g>
<!-- Node25 -->
<g id="node25" class="node"><title>Node25</title>
<g id="a_node25"><a xlink:href="$classLinux_1_1Scheduler.html#a682b4c34f330f66db5ab4aa5d96e13f9" xlink:title="Linux::Scheduler::stopped\l_clock_usec">
<polygon fill="white" stroke="black" points="1234,-88.5 1234,-118.5 1364,-118.5 1364,-88.5 1234,-88.5"/>
<text text-anchor="start" x="1242" y="-106.5" font-family="Helvetica,sans-Serif" font-size="10.00">Linux::Scheduler::stopped</text>
<text text-anchor="middle" x="1299" y="-95.5" font-family="Helvetica,sans-Serif" font-size="10.00">_clock_usec</text>
</a>
</g>
</g>
<!-- Node5&#45;&gt;Node25 -->
<g id="edge60" class="edge"><title>Node5&#45;&gt;Node25</title>
<path fill="none" stroke="midnightblue" d="M476.859,-486.909C490.096,-435.477 560.438,-191.517 723,-106.5 890.062,-19.1297 1123.56,-59.0349 1234.56,-85.979"/>
<polygon fill="midnightblue" stroke="midnightblue" points="1234.04,-89.4566 1244.59,-88.4602 1235.72,-82.6614 1234.04,-89.4566"/>
</g>
<!-- Node7 -->
<g id="node7" class="node"><title>Node7</title>
<g id="a_node7"><a xlink:href="$classLinux_1_1Scheduler.html#a3d77c332e051c28c83fb07757e7100bd" xlink:title="Linux::Scheduler::init">
<polygon fill="white" stroke="black" points="733,-205 733,-224 841,-224 841,-205 733,-205"/>
<text text-anchor="middle" x="787" y="-212" font-family="Helvetica,sans-Serif" font-size="10.00">Linux::Scheduler::init</text>
</a>
</g>
</g>
<!-- Node6&#45;&gt;Node7 -->
<g id="edge6" class="edge"><title>Node6&#45;&gt;Node7</title>
<path fill="none" stroke="midnightblue" d="M636.778,-330.975C650.296,-311.143 684.107,-265.056 723,-238.5 729.047,-234.371 735.901,-230.827 742.807,-227.828"/>
<polygon fill="midnightblue" stroke="midnightblue" points="744.202,-231.04 752.184,-224.073 741.6,-224.541 744.202,-231.04"/>
</g>
<!-- Node14 -->
<g id="node14" class="node"><title>Node14</title>
<g id="a_node14"><a xlink:href="$classLinux_1_1Scheduler.html#a02a34a123dfebaf360f7010745e1e646" xlink:title="Linux::Scheduler::register\l_timer_process">
<polygon fill="white" stroke="black" points="889,-251.5 889,-281.5 1017,-281.5 1017,-251.5 889,-251.5"/>
<text text-anchor="start" x="897" y="-269.5" font-family="Helvetica,sans-Serif" font-size="10.00">Linux::Scheduler::register</text>
<text text-anchor="middle" x="953" y="-258.5" font-family="Helvetica,sans-Serif" font-size="10.00">_timer_process</text>
</a>
</g>
</g>
<!-- Node6&#45;&gt;Node14 -->
<g id="edge40" class="edge"><title>Node6&#45;&gt;Node14</title>
<path fill="none" stroke="midnightblue" d="M639.316,-330.821C654.546,-314.888 687.573,-283.689 723,-271.5 772.992,-254.3 832.819,-253.616 878.785,-256.933"/>
<polygon fill="midnightblue" stroke="midnightblue" points="878.718,-260.439 888.966,-257.749 879.277,-253.461 878.718,-260.439"/>
</g>
<!-- Node33 -->
<g id="node33" class="node"><title>Node33</title>
<g id="a_node33"><a xlink:href="$classLinux_1_1Scheduler.html#a14f3239ecbb9889823b20dc9de655c2f" xlink:title="Linux::Scheduler::delay">
<polygon fill="white" stroke="black" points="893.5,-126 893.5,-145 1012.5,-145 1012.5,-126 893.5,-126"/>
<text text-anchor="middle" x="953" y="-133" font-family="Helvetica,sans-Serif" font-size="10.00">Linux::Scheduler::delay</text>
</a>
</g>
</g>
<!-- Node6&#45;&gt;Node33 -->
<g id="edge34" class="edge"><title>Node6&#45;&gt;Node33</title>
<path fill="none" stroke="midnightblue" d="M631.02,-330.658C633.513,-294.674 647.515,-169.736 723,-119.5 750.443,-101.236 838.046,-113.258 896.597,-124.051"/>
<polygon fill="midnightblue" stroke="midnightblue" points="895.974,-127.495 906.449,-125.906 897.269,-120.616 895.974,-127.495"/>
</g>
<!-- Node34 -->
<g id="node34" class="node"><title>Node34</title>
<g id="a_node34"><a xlink:href="$classLinux_1_1Scheduler.html#a4cffd5bcba0175bf49c7aa75ff3bf09a" xlink:title="Linux::Scheduler::delay\l_microseconds">
<polygon fill="white" stroke="black" points="1067,-0.5 1067,-30.5 1186,-30.5 1186,-0.5 1067,-0.5"/>
<text text-anchor="start" x="1075" y="-18.5" font-family="Helvetica,sans-Serif" font-size="10.00">Linux::Scheduler::delay</text>
<text text-anchor="middle" x="1126.5" y="-7.5" font-family="Helvetica,sans-Serif" font-size="10.00">_microseconds</text>
</a>
</g>
</g>
<!-- Node6&#45;&gt;Node34 -->
<g id="edge37" class="edge"><title>Node6&#45;&gt;Node34</title>
<path fill="none" stroke="midnightblue" d="M631.229,-330.658C634.452,-294.58 650.678,-168.455 723,-106.5 817.466,-25.5749 968.939,-12.5616 1056.64,-12.5659"/>
<polygon fill="midnightblue" stroke="midnightblue" points="1056.73,-16.0663 1066.75,-12.6242 1056.77,-9.06645 1056.73,-16.0663"/>
</g>
<!-- Node35 -->
<g id="node35" class="node"><title>Node35</title>
<g id="a_node35"><a xlink:href="$classLinux_1_1Scheduler.html#a5cb50b637d5fd3e5f9220bc23db0fb3f" xlink:title="Linux::Scheduler::register\l_delay_callback">
<polygon fill="white" stroke="black" points="723,-555.5 723,-585.5 851,-585.5 851,-555.5 723,-555.5"/>
<text text-anchor="start" x="731" y="-573.5" font-family="Helvetica,sans-Serif" font-size="10.00">Linux::Scheduler::register</text>
<text text-anchor="middle" x="787" y="-562.5" font-family="Helvetica,sans-Serif" font-size="10.00">_delay_callback</text>
</a>
</g>
</g>
<!-- Node6&#45;&gt;Node35 -->
<g id="edge39" class="edge"><title>Node6&#45;&gt;Node35</title>
<path fill="none" stroke="midnightblue" d="M632.186,-350.129C638.309,-382.335 662.287,-487.524 723,-545.5 724.625,-547.052 726.358,-548.511 728.174,-549.883"/>
<polygon fill="midnightblue" stroke="midnightblue" points="726.297,-552.838 736.589,-555.356 730.114,-546.97 726.297,-552.838"/>
</g>
<!-- Node36 -->
<g id="node36" class="node"><title>Node36</title>
<g id="a_node36"><a xlink:href="$classLinux_1_1Scheduler.html#aa2be97cb8686d72cc322fb38f69a940c" xlink:title="Linux::Scheduler::register\l_io_process">
<polygon fill="white" stroke="black" points="889,-314.5 889,-344.5 1017,-344.5 1017,-314.5 889,-314.5"/>
<text text-anchor="start" x="897" y="-332.5" font-family="Helvetica,sans-Serif" font-size="10.00">Linux::Scheduler::register</text>
<text text-anchor="middle" x="953" y="-321.5" font-family="Helvetica,sans-Serif" font-size="10.00">_io_process</text>
</a>
</g>
</g>
<!-- Node6&#45;&gt;Node36 -->
<g id="edge41" class="edge"><title>Node6&#45;&gt;Node36</title>
<path fill="none" stroke="midnightblue" d="M687.238,-338.559C740.55,-336.735 820.611,-333.995 878.732,-332.007"/>
<polygon fill="midnightblue" stroke="midnightblue" points="879.079,-335.497 888.953,-331.657 878.839,-328.501 879.079,-335.497"/>
</g>
<!-- Node37 -->
<g id="node37" class="node"><title>Node37</title>
<g id="a_node37"><a xlink:href="$classLinux_1_1Scheduler.html#abba967d02c28cb0b16a7cebbff9bc6d6" xlink:title="Linux::Scheduler::suspend\l_timer_procs">
<polygon fill="white" stroke="black" points="887,-593.5 887,-623.5 1019,-623.5 1019,-593.5 887,-593.5"/>
<text text-anchor="start" x="895" y="-611.5" font-family="Helvetica,sans-Serif" font-size="10.00">Linux::Scheduler::suspend</text>
<text text-anchor="middle" x="953" y="-600.5" font-family="Helvetica,sans-Serif" font-size="10.00">_timer_procs</text>
</a>
</g>
</g>
<!-- Node6&#45;&gt;Node37 -->
<g id="edge43" class="edge"><title>Node6&#45;&gt;Node37</title>
<path fill="none" stroke="midnightblue" d="M630.559,-350.227C631.378,-388.891 640.079,-532.593 723,-594.5 766.356,-626.868 828.177,-628.828 876.66,-623.536"/>
<polygon fill="midnightblue" stroke="midnightblue" points="877.287,-626.986 886.792,-622.305 876.443,-620.037 877.287,-626.986"/>
</g>
<!-- Node40 -->
<g id="node40" class="node"><title>Node40</title>
<g id="a_node40"><a xlink:href="$classLinux_1_1Scheduler.html#aee4e701b92cb4721c4de1bfcdcded70c" xlink:title="Linux::Scheduler::resume\l_timer_procs">
<polygon fill="white" stroke="black" points="889,-473.5 889,-503.5 1017,-503.5 1017,-473.5 889,-473.5"/>
<text text-anchor="start" x="897" y="-491.5" font-family="Helvetica,sans-Serif" font-size="10.00">Linux::Scheduler::resume</text>
<text text-anchor="middle" x="953" y="-480.5" font-family="Helvetica,sans-Serif" font-size="10.00">_timer_procs</text>
</a>
</g>
</g>
<!-- Node6&#45;&gt;Node40 -->
<g id="edge48" class="edge"><title>Node6&#45;&gt;Node40</title>
<path fill="none" stroke="midnightblue" d="M634.881,-350.12C645.928,-373.15 677.336,-431.465 723,-457.5 770.082,-484.344 831.241,-491.489 878.51,-492.251"/>
<polygon fill="midnightblue" stroke="midnightblue" points="878.656,-495.752 888.679,-492.321 878.704,-488.752 878.656,-495.752"/>
</g>
<!-- Node42 -->
<g id="node42" class="node"><title>Node42</title>
<g id="a_node42"><a xlink:href="$classLinux_1_1Scheduler.html#af23753e7c6bfa97553db215a64235455" xlink:title="Linux::Scheduler::in\l_timerprocess">
<polygon fill="white" stroke="black" points="735.5,-369.5 735.5,-399.5 838.5,-399.5 838.5,-369.5 735.5,-369.5"/>
<text text-anchor="start" x="743.5" y="-387.5" font-family="Helvetica,sans-Serif" font-size="10.00">Linux::Scheduler::in</text>
<text text-anchor="middle" x="787" y="-376.5" font-family="Helvetica,sans-Serif" font-size="10.00">_timerprocess</text>
</a>
</g>
</g>
<!-- Node6&#45;&gt;Node42 -->
<g id="edge50" class="edge"><title>Node6&#45;&gt;Node42</title>
<path fill="none" stroke="midnightblue" d="M664.241,-350.047C682.208,-355.131 704.85,-361.538 725.721,-367.444"/>
<polygon fill="midnightblue" stroke="midnightblue" points="724.903,-370.85 735.478,-370.204 726.809,-364.114 724.903,-370.85"/>
</g>
<!-- Node43 -->
<g id="node43" class="node"><title>Node43</title>
<g id="a_node43"><a xlink:href="$classLinux_1_1Scheduler.html#ac193459e3575c7a0588fdc72250c2044" xlink:title="Linux::Scheduler::register\l_timer_failsafe">
<polygon fill="white" stroke="black" points="723,-281.5 723,-311.5 851,-311.5 851,-281.5 723,-281.5"/>
<text text-anchor="start" x="731" y="-299.5" font-family="Helvetica,sans-Serif" font-size="10.00">Linux::Scheduler::register</text>
<text text-anchor="middle" x="787" y="-288.5" font-family="Helvetica,sans-Serif" font-size="10.00">_timer_failsafe</text>
</a>
</g>
</g>
<!-- Node6&#45;&gt;Node43 -->
<g id="edge51" class="edge"><title>Node6&#45;&gt;Node43</title>
<path fill="none" stroke="midnightblue" d="M664.241,-330.953C681.436,-326.087 702.913,-320.01 723.021,-314.32"/>
<polygon fill="midnightblue" stroke="midnightblue" points="724.088,-317.656 732.758,-311.565 722.182,-310.92 724.088,-317.656"/>
</g>
<!-- Node44 -->
<g id="node44" class="node"><title>Node44</title>
<g id="a_node44"><a xlink:href="$classLinux_1_1Scheduler.html#ad6070a7ee637adf5101b1e6b6efbf8f6" xlink:title="Linux::Scheduler::system\l_initialized">
<polygon fill="white" stroke="black" points="723,-418.5 723,-448.5 851,-448.5 851,-418.5 723,-418.5"/>
<text text-anchor="start" x="731" y="-436.5" font-family="Helvetica,sans-Serif" font-size="10.00">Linux::Scheduler::system</text>
<text text-anchor="middle" x="787" y="-425.5" font-family="Helvetica,sans-Serif" font-size="10.00">_initialized</text>
</a>
</g>
</g>
<!-- Node6&#45;&gt;Node44 -->
<g id="edge52" class="edge"><title>Node6&#45;&gt;Node44</title>
<path fill="none" stroke="midnightblue" d="M641.54,-350.089C658.269,-364.265 691.442,-391.02 723,-408.5 726.648,-410.521 730.493,-412.461 734.411,-414.304"/>
<polygon fill="midnightblue" stroke="midnightblue" points="733.068,-417.538 743.626,-418.422 735.924,-411.147 733.068,-417.538"/>
</g>
<!-- Node46 -->
<g id="node46" class="node"><title>Node46</title>
<g id="a_node46"><a xlink:href="$classLinux_1_1Scheduler.html#ae72cfa66c849ffd882ef518c35c71e69" xlink:title="Linux::Scheduler::reboot">
<polygon fill="white" stroke="black" points="726,-129 726,-148 848,-148 848,-129 726,-129"/>
<text text-anchor="middle" x="787" y="-136" font-family="Helvetica,sans-Serif" font-size="10.00">Linux::Scheduler::reboot</text>
</a>
</g>
</g>
<!-- Node6&#45;&gt;Node46 -->
<g id="edge55" class="edge"><title>Node6&#45;&gt;Node46</title>
<path fill="none" stroke="midnightblue" d="M632.873,-330.885C640.614,-301.453 667.872,-211.613 723,-162.5 727.479,-158.51 732.689,-155.155 738.159,-152.342"/>
<polygon fill="midnightblue" stroke="midnightblue" points="739.859,-155.415 747.525,-148.102 736.972,-149.038 739.859,-155.415"/>
</g>
<!-- Node47 -->
<g id="node47" class="node"><title>Node47</title>
<g id="a_node47"><a xlink:href="$classLinux_1_1Scheduler.html#a392aebafcdfe9a812e4db4b7a9dcce9c" xlink:title="Linux::Scheduler::stop\l_clock">
<polygon fill="white" stroke="black" points="730,-506.5 730,-536.5 844,-536.5 844,-506.5 730,-506.5"/>
<text text-anchor="start" x="738" y="-524.5" font-family="Helvetica,sans-Serif" font-size="10.00">Linux::Scheduler::stop</text>
<text text-anchor="middle" x="787" y="-513.5" font-family="Helvetica,sans-Serif" font-size="10.00">_clock</text>
</a>
</g>
</g>
<!-- Node6&#45;&gt;Node47 -->
<g id="edge56" class="edge"><title>Node6&#45;&gt;Node47</title>
<path fill="none" stroke="midnightblue" d="M634.17,-350.3C644.413,-376.476 675.697,-448.929 723,-491.5 727.108,-495.197 731.753,-498.53 736.613,-501.51"/>
<polygon fill="midnightblue" stroke="midnightblue" points="735.088,-504.667 745.524,-506.496 738.506,-498.558 735.088,-504.667"/>
</g>
<!-- Node8 -->
<g id="node8" class="node"><title>Node8</title>
<g id="a_node8"><a xlink:href="$namespaceAP__HAL.html#a71832f03d849a0c088f04fc98d3c8143" xlink:title="AP_HAL::panic">
<polygon fill="white" stroke="black" points="911,-386 911,-405 995,-405 995,-386 911,-386"/>
<text text-anchor="middle" x="953" y="-393" font-family="Helvetica,sans-Serif" font-size="10.00">AP_HAL::panic</text>
</a>
</g>
</g>
<!-- Node7&#45;&gt;Node8 -->
<g id="edge7" class="edge"><title>Node7&#45;&gt;Node8</title>
<path fill="none" stroke="midnightblue" d="M801.593,-224.071C815.511,-234.439 837.029,-252.116 851,-271.5 874.273,-303.789 861.195,-323.197 887,-353.5 896.579,-364.749 909.923,-374.084 922.029,-381.073"/>
<polygon fill="midnightblue" stroke="midnightblue" points="920.509,-384.231 930.963,-385.953 923.865,-378.088 920.509,-384.231"/>
</g>
<!-- Node7&#45;&gt;Node14 -->
<g id="edge13" class="edge"><title>Node7&#45;&gt;Node14</title>
<path fill="none" stroke="midnightblue" d="M818.08,-224.038C839.481,-230.823 868.897,-240.15 894.71,-248.335"/>
<polygon fill="midnightblue" stroke="midnightblue" points="893.812,-251.722 904.403,-251.408 895.928,-245.049 893.812,-251.722"/>
</g>
<!-- Node23 -->
<g id="node23" class="node"><title>Node23</title>
<g id="a_node23"><a xlink:href="$classLinux_1_1Scheduler.html#a163eb7b285c95b1b1d036fc61d723910" xlink:title="Linux::Scheduler::\l_debug_stack">
<polygon fill="white" stroke="black" points="905.5,-202.5 905.5,-232.5 1000.5,-232.5 1000.5,-202.5 905.5,-202.5"/>
<text text-anchor="start" x="913.5" y="-220.5" font-family="Helvetica,sans-Serif" font-size="10.00">Linux::Scheduler::</text>
<text text-anchor="middle" x="953" y="-209.5" font-family="Helvetica,sans-Serif" font-size="10.00">_debug_stack</text>
</a>
</g>
</g>
<!-- Node7&#45;&gt;Node23 -->
<g id="edge22" class="edge"><title>Node7&#45;&gt;Node23</title>
<path fill="none" stroke="midnightblue" d="M841.246,-215.474C858.525,-215.79 877.754,-216.142 895.276,-216.462"/>
<polygon fill="midnightblue" stroke="midnightblue" points="895.306,-219.963 905.368,-216.647 895.434,-212.965 895.306,-219.963"/>
</g>
<!-- Node9 -->
<g id="node9" class="node"><title>Node9</title>
<g id="a_node9"><a xlink:href="$classAP__HAL_1_1RCInput.html#a2bea13d38f2b9ae8bf5193a3a69f0a31" xlink:title="AP_HAL::RCInput::teardown">
<polygon fill="white" stroke="black" points="1055,-387 1055,-406 1198,-406 1198,-387 1055,-387"/>
<text text-anchor="middle" x="1126.5" y="-394" font-family="Helvetica,sans-Serif" font-size="10.00">AP_HAL::RCInput::teardown</text>
</a>
</g>
</g>
<!-- Node8&#45;&gt;Node9 -->
<g id="edge8" class="edge"><title>Node8&#45;&gt;Node9</title>
<path fill="none" stroke="midnightblue" d="M995.079,-395.74C1010.07,-395.827 1027.59,-395.929 1044.84,-396.03"/>
<polygon fill="midnightblue" stroke="midnightblue" points="1044.92,-399.53 1054.94,-396.089 1044.96,-392.53 1044.92,-399.53"/>
</g>
<!-- Node8&#45;&gt;Node13 -->
<g id="edge12" class="edge"><title>Node8&#45;&gt;Node13</title>
<path fill="none" stroke="midnightblue" d="M989.567,-405.078C1038.97,-419.394 1129.97,-449.486 1198,-493.5 1227.95,-512.877 1257.76,-541.166 1276.93,-560.837"/>
<polygon fill="midnightblue" stroke="midnightblue" points="1274.53,-563.388 1283.98,-568.174 1279.58,-558.538 1274.53,-563.388"/>
</g>
<!-- Node10 -->
<g id="node10" class="node"><title>Node10</title>
<g id="a_node10"><a xlink:href="$classAP__HAL_1_1RCInput.html#aee1fade33080edef83dd7db0fad0f7da" xlink:title="AP_HAL::RCInput::new\l_input">
<polygon fill="white" stroke="black" points="1238,-431.5 1238,-461.5 1360,-461.5 1360,-431.5 1238,-431.5"/>
<text text-anchor="start" x="1246" y="-449.5" font-family="Helvetica,sans-Serif" font-size="10.00">AP_HAL::RCInput::new</text>
<text text-anchor="middle" x="1299" y="-438.5" font-family="Helvetica,sans-Serif" font-size="10.00">_input</text>
</a>
</g>
</g>
<!-- Node9&#45;&gt;Node10 -->
<g id="edge9" class="edge"><title>Node9&#45;&gt;Node10</title>
<path fill="none" stroke="midnightblue" d="M1159.97,-406.022C1181.65,-412.379 1210.83,-420.936 1236.77,-428.545"/>
<polygon fill="midnightblue" stroke="midnightblue" points="1235.96,-431.953 1246.54,-431.409 1237.93,-425.236 1235.96,-431.953"/>
</g>
<!-- Node11 -->
<g id="node11" class="node"><title>Node11</title>
<g id="a_node11"><a xlink:href="$classAP__HAL_1_1RCInput.html#ae55f959c6115c1f41783af3a2b6c4fcd" xlink:title="AP_HAL::RCInput::num\l_channels">
<polygon fill="white" stroke="black" points="1238,-382.5 1238,-412.5 1360,-412.5 1360,-382.5 1238,-382.5"/>
<text text-anchor="start" x="1246" y="-400.5" font-family="Helvetica,sans-Serif" font-size="10.00">AP_HAL::RCInput::num</text>
<text text-anchor="middle" x="1299" y="-389.5" font-family="Helvetica,sans-Serif" font-size="10.00">_channels</text>
</a>
</g>
</g>
<!-- Node9&#45;&gt;Node11 -->
<g id="edge10" class="edge"><title>Node9&#45;&gt;Node11</title>
<path fill="none" stroke="midnightblue" d="M1198.33,-396.915C1208.1,-396.973 1218.14,-397.032 1227.91,-397.089"/>
<polygon fill="midnightblue" stroke="midnightblue" points="1227.94,-400.589 1237.96,-397.148 1227.98,-393.589 1227.94,-400.589"/>
</g>
<!-- Node12 -->
<g id="node12" class="node"><title>Node12</title>
<g id="a_node12"><a xlink:href="$classAP__HAL_1_1RCInput.html#a078fd7e6d2e6a899009ec674a8e03498" xlink:title="AP_HAL::RCInput::read">
<polygon fill="white" stroke="black" points="1238,-344 1238,-363 1360,-363 1360,-344 1238,-344"/>
<text text-anchor="middle" x="1299" y="-351" font-family="Helvetica,sans-Serif" font-size="10.00">AP_HAL::RCInput::read</text>
</a>
</g>
</g>
<!-- Node9&#45;&gt;Node12 -->
<g id="edge11" class="edge"><title>Node9&#45;&gt;Node12</title>
<path fill="none" stroke="midnightblue" d="M1165.34,-386.957C1190.39,-380.638 1223.46,-372.299 1250.31,-365.528"/>
<polygon fill="midnightblue" stroke="midnightblue" points="1251.43,-368.856 1260.27,-363.016 1249.71,-362.068 1251.43,-368.856"/>
</g>
<!-- Node15 -->
<g id="node15" class="node"><title>Node15</title>
<g id="a_node15"><a xlink:href="$classAP__HAL_1_1UARTDriver.html#a6ceedc792594e59fc7d80b39a435f027" xlink:title="AP_HAL::UARTDriver\l::printf">
<polygon fill="white" stroke="black" points="1069,-294.5 1069,-324.5 1184,-324.5 1184,-294.5 1069,-294.5"/>
<text text-anchor="start" x="1077" y="-312.5" font-family="Helvetica,sans-Serif" font-size="10.00">AP_HAL::UARTDriver</text>
<text text-anchor="middle" x="1126.5" y="-301.5" font-family="Helvetica,sans-Serif" font-size="10.00">::printf</text>
</a>
</g>
</g>
<!-- Node14&#45;&gt;Node15 -->
<g id="edge14" class="edge"><title>Node14&#45;&gt;Node15</title>
<path fill="none" stroke="midnightblue" d="M1013.98,-281.539C1028.42,-285.16 1043.94,-289.05 1058.67,-292.744"/>
<polygon fill="midnightblue" stroke="midnightblue" points="1058.17,-296.227 1068.72,-295.264 1059.87,-289.437 1058.17,-296.227"/>
</g>
<!-- Node16 -->
<g id="node16" class="node"><title>Node16</title>
<g id="a_node16"><a xlink:href="$classAP__HAL_1_1UARTDriver.html#aa8abfb6d6641299472c29ac1edde559f" xlink:title="AP_HAL::UARTDriver\l::vprintf">
<polygon fill="white" stroke="black" points="1241.5,-294.5 1241.5,-324.5 1356.5,-324.5 1356.5,-294.5 1241.5,-294.5"/>
<text text-anchor="start" x="1249.5" y="-312.5" font-family="Helvetica,sans-Serif" font-size="10.00">AP_HAL::UARTDriver</text>
<text text-anchor="middle" x="1299" y="-301.5" font-family="Helvetica,sans-Serif" font-size="10.00">::vprintf</text>
</a>
</g>
</g>
<!-- Node15&#45;&gt;Node16 -->
<g id="edge15" class="edge"><title>Node15&#45;&gt;Node16</title>
<path fill="none" stroke="midnightblue" d="M1184.27,-309.5C1199.37,-309.5 1215.82,-309.5 1231.39,-309.5"/>
<polygon fill="midnightblue" stroke="midnightblue" points="1231.47,-313 1241.47,-309.5 1231.47,-306 1231.47,-313"/>
</g>
<!-- Node17 -->
<g id="node17" class="node"><title>Node17</title>
<g id="a_node17"><a xlink:href="$print__vprintf_8cpp.html#a1534eaeab54696df96975b56d9f49212" xlink:title="print_vprintf">
<polygon fill="white" stroke="black" points="1437.5,-300 1437.5,-319 1505.5,-319 1505.5,-300 1437.5,-300"/>
<text text-anchor="middle" x="1471.5" y="-307" font-family="Helvetica,sans-Serif" font-size="10.00">print_vprintf</text>
</a>
</g>
</g>
<!-- Node16&#45;&gt;Node17 -->
<g id="edge16" class="edge"><title>Node16&#45;&gt;Node17</title>
<path fill="none" stroke="midnightblue" d="M1356.77,-309.5C1379.75,-309.5 1405.85,-309.5 1427.24,-309.5"/>
<polygon fill="midnightblue" stroke="midnightblue" points="1427.33,-313 1437.33,-309.5 1427.33,-306 1427.33,-313"/>
</g>
<!-- Node18 -->
<g id="node18" class="node"><title>Node18</title>
<g id="a_node18"><a xlink:href="$classAP__HAL_1_1Print.html#acc65391952a43334f8f5c9bef341f501" xlink:title="AP_HAL::Print::write">
<polygon fill="white" stroke="black" points="1580.5,-263 1580.5,-282 1688.5,-282 1688.5,-263 1580.5,-263"/>
<text text-anchor="middle" x="1634.5" y="-270" font-family="Helvetica,sans-Serif" font-size="10.00">AP_HAL::Print::write</text>
</a>
</g>
</g>
<!-- Node17&#45;&gt;Node18 -->
<g id="edge17" class="edge"><title>Node17&#45;&gt;Node18</title>
<path fill="none" stroke="midnightblue" d="M1505.86,-301.834C1527.8,-296.792 1556.95,-290.093 1581.85,-284.37"/>
<polygon fill="midnightblue" stroke="midnightblue" points="1582.91,-287.717 1591.87,-282.066 1581.34,-280.895 1582.91,-287.717"/>
</g>
<!-- Node19 -->
<g id="node19" class="node"><title>Node19</title>
<g id="a_node19"><a xlink:href="$ftoa__engine_8cpp.html#a1c28234da8f20b43c85890d4bb452947" xlink:title="ftoa_engine">
<polygon fill="white" stroke="black" points="1601,-225 1601,-244 1668,-244 1668,-225 1601,-225"/>
<text text-anchor="middle" x="1634.5" y="-232" font-family="Helvetica,sans-Serif" font-size="10.00">ftoa_engine</text>
</a>
</g>
</g>
<!-- Node17&#45;&gt;Node19 -->
<g id="edge18" class="edge"><title>Node17&#45;&gt;Node19</title>
<path fill="none" stroke="midnightblue" d="M1488.73,-299.992C1509.3,-288.173 1546.04,-267.815 1579,-253.5 1583.76,-251.432 1588.83,-249.423 1593.88,-247.534"/>
<polygon fill="midnightblue" stroke="midnightblue" points="1595.27,-250.751 1603.49,-244.065 1592.9,-244.167 1595.27,-250.751"/>
</g>
<!-- Node20 -->
<g id="node20" class="node"><title>Node20</title>
<g id="a_node20"><a xlink:href="$replace_8cpp.html#a880bcc7b85a09e6254691bebd5344b51" xlink:title="strnlen">
<polygon fill="white" stroke="black" points="1611.5,-377 1611.5,-396 1657.5,-396 1657.5,-377 1611.5,-377"/>
<text text-anchor="middle" x="1634.5" y="-384" font-family="Helvetica,sans-Serif" font-size="10.00">strnlen</text>
</a>
</g>
</g>
<!-- Node17&#45;&gt;Node20 -->
<g id="edge19" class="edge"><title>Node17&#45;&gt;Node20</title>
<path fill="none" stroke="midnightblue" d="M1488.32,-319.184C1508.77,-331.445 1545.7,-352.746 1579,-367.5 1586.26,-370.717 1594.25,-373.764 1601.82,-376.437"/>
<polygon fill="midnightblue" stroke="midnightblue" points="1600.84,-379.801 1611.44,-379.719 1603.1,-373.176 1600.84,-379.801"/>
</g>
<!-- Node21 -->
<g id="node21" class="node"><title>Node21</title>
<g id="a_node21"><a xlink:href="$utoa__invert_8cpp.html#a34926f552460b47c414ec4d83b32815c" xlink:title="ulltoa_invert">
<polygon fill="white" stroke="black" points="1600,-339 1600,-358 1669,-358 1669,-339 1600,-339"/>
<text text-anchor="middle" x="1634.5" y="-346" font-family="Helvetica,sans-Serif" font-size="10.00">ulltoa_invert</text>
</a>
</g>
</g>
<!-- Node17&#45;&gt;Node21 -->
<g id="edge20" class="edge"><title>Node17&#45;&gt;Node21</title>
<path fill="none" stroke="midnightblue" d="M1505.86,-317.581C1530.28,-323.496 1563.63,-331.576 1590.12,-337.993"/>
<polygon fill="midnightblue" stroke="midnightblue" points="1589.36,-341.41 1599.91,-340.363 1591.01,-334.607 1589.36,-341.41"/>
</g>
<!-- Node22 -->
<g id="node22" class="node"><title>Node22</title>
<g id="a_node22"><a xlink:href="$utoa__invert_8cpp.html#a5d99bba8e697c1e11da489d88fca8559" xlink:title="ultoa_invert">
<polygon fill="white" stroke="black" points="1601,-301 1601,-320 1668,-320 1668,-301 1601,-301"/>
<text text-anchor="middle" x="1634.5" y="-308" font-family="Helvetica,sans-Serif" font-size="10.00">ultoa_invert</text>
</a>
</g>
</g>
<!-- Node17&#45;&gt;Node22 -->
<g id="edge21" class="edge"><title>Node17&#45;&gt;Node22</title>
<path fill="none" stroke="midnightblue" d="M1505.86,-309.707C1530.42,-309.86 1564.01,-310.068 1590.57,-310.233"/>
<polygon fill="midnightblue" stroke="midnightblue" points="1590.71,-313.734 1600.73,-310.296 1590.76,-306.734 1590.71,-313.734"/>
</g>
<!-- Node24 -->
<g id="node24" class="node"><title>Node24</title>
<g id="a_node24"><a xlink:href="$namespaceAP__HAL.html#a59336c5fceaf28a76d1df1581a87a25d" xlink:title="AP_HAL::millis64">
<polygon fill="white" stroke="black" points="1079.5,-137 1079.5,-156 1173.5,-156 1173.5,-137 1079.5,-137"/>
<text text-anchor="middle" x="1126.5" y="-144" font-family="Helvetica,sans-Serif" font-size="10.00">AP_HAL::millis64</text>
</a>
</g>
</g>
<!-- Node23&#45;&gt;Node24 -->
<g id="edge23" class="edge"><title>Node23&#45;&gt;Node24</title>
<path fill="none" stroke="midnightblue" d="M990.371,-202.443C1020.76,-189.862 1063.7,-172.085 1092.96,-159.97"/>
<polygon fill="midnightblue" stroke="midnightblue" points="1094.43,-163.153 1102.33,-156.094 1091.75,-156.685 1094.43,-163.153"/>
</g>
<!-- Node30 -->
<g id="node30" class="node"><title>Node30</title>
<g id="a_node30"><a xlink:href="$classLinux_1_1Thread.html#a6884970a0811ae21953c57fb98aa6e96" xlink:title="Linux::Thread::get\l_stack_usage">
<polygon fill="white" stroke="black" points="1887,-181.5 1887,-211.5 1982,-211.5 1982,-181.5 1887,-181.5"/>
<text text-anchor="start" x="1895" y="-199.5" font-family="Helvetica,sans-Serif" font-size="10.00">Linux::Thread::get</text>
<text text-anchor="middle" x="1934.5" y="-188.5" font-family="Helvetica,sans-Serif" font-size="10.00">_stack_usage</text>
</a>
</g>
</g>
<!-- Node23&#45;&gt;Node30 -->
<g id="edge33" class="edge"><title>Node23&#45;&gt;Node30</title>
<path fill="none" stroke="midnightblue" d="M1000.68,-212.839C1066.79,-206.653 1191.5,-196.5 1298,-196.5 1298,-196.5 1298,-196.5 1635.5,-196.5 1719.5,-196.5 1816.81,-196.5 1876.77,-196.5"/>
<polygon fill="midnightblue" stroke="midnightblue" points="1876.79,-200 1886.79,-196.5 1876.79,-193 1876.79,-200"/>
</g>
<!-- Node24&#45;&gt;Node6 -->
<g id="edge24" class="edge"><title>Node24&#45;&gt;Node6</title>
<path fill="none" stroke="midnightblue" d="M1079.3,-149.901C979.982,-157.532 752.671,-176.813 723,-195.5 675.557,-225.38 647.946,-289.438 636.599,-321.46"/>
<polygon fill="midnightblue" stroke="midnightblue" points="633.262,-320.401 633.369,-330.995 639.892,-322.647 633.262,-320.401"/>
</g>
<!-- Node24&#45;&gt;Node25 -->
<g id="edge25" class="edge"><title>Node24&#45;&gt;Node25</title>
<path fill="none" stroke="midnightblue" d="M1165.34,-136.957C1183.97,-132.258 1207.03,-126.442 1228.68,-120.984"/>
<polygon fill="midnightblue" stroke="midnightblue" points="1229.66,-124.346 1238.5,-118.506 1227.95,-117.558 1229.66,-124.346"/>
</g>
<!-- Node26 -->
<g id="node26" class="node"><title>Node26</title>
<g id="a_node26"><a xlink:href="$classLinux_1_1Scheduler.html#a647872aff158b510c56862f51f951538" xlink:title="Linux::Scheduler::microsleep">
<polygon fill="white" stroke="black" points="1400,-50 1400,-69 1543,-69 1543,-50 1400,-50"/>
<text text-anchor="middle" x="1471.5" y="-57" font-family="Helvetica,sans-Serif" font-size="10.00">Linux::Scheduler::microsleep</text>
</a>
</g>
</g>
<!-- Node25&#45;&gt;Node26 -->
<g id="edge26" class="edge"><title>Node25&#45;&gt;Node26</title>
<path fill="none" stroke="midnightblue" d="M1358.2,-88.4808C1379.57,-82.9648 1403.48,-76.7956 1423.72,-71.5716"/>
<polygon fill="midnightblue" stroke="midnightblue" points="1424.83,-74.9002 1433.64,-69.0124 1423.08,-68.1223 1424.83,-74.9002"/>
</g>
<!-- Node27 -->
<g id="node27" class="node"><title>Node27</title>
<g id="a_node27"><a xlink:href="$classLinux_1_1Scheduler.html#ab373a83d818679432520ea881044b2a7" xlink:title="Linux::Scheduler::teardown">
<polygon fill="white" stroke="black" points="1404,-94 1404,-113 1539,-113 1539,-94 1404,-94"/>
<text text-anchor="middle" x="1471.5" y="-101" font-family="Helvetica,sans-Serif" font-size="10.00">Linux::Scheduler::teardown</text>
</a>
</g>
</g>
<!-- Node25&#45;&gt;Node27 -->
<g id="edge27" class="edge"><title>Node25&#45;&gt;Node27</title>
<path fill="none" stroke="midnightblue" d="M1364.46,-103.5C1374.05,-103.5 1384.01,-103.5 1393.82,-103.5"/>
<polygon fill="midnightblue" stroke="midnightblue" points="1393.96,-107 1403.96,-103.5 1393.96,-100 1393.96,-107"/>
</g>
<!-- Node28 -->
<g id="node28" class="node"><title>Node28</title>
<g id="a_node28"><a xlink:href="$classLinux_1_1PeriodicThread.html#a136aaf6e713f63b246fc4a2905e6e9a1" xlink:title="Linux::PeriodicThread\l::stop">
<polygon fill="white" stroke="black" points="1579,-132.5 1579,-162.5 1690,-162.5 1690,-132.5 1579,-132.5"/>
<text text-anchor="start" x="1587" y="-150.5" font-family="Helvetica,sans-Serif" font-size="10.00">Linux::PeriodicThread</text>
<text text-anchor="middle" x="1634.5" y="-139.5" font-family="Helvetica,sans-Serif" font-size="10.00">::stop</text>
</a>
</g>
</g>
<!-- Node27&#45;&gt;Node28 -->
<g id="edge28" class="edge"><title>Node27&#45;&gt;Node28</title>
<path fill="none" stroke="midnightblue" d="M1507.43,-113.047C1525.4,-117.957 1547.88,-124.1 1568.86,-129.834"/>
<polygon fill="midnightblue" stroke="midnightblue" points="1568.12,-133.26 1578.69,-132.521 1569.97,-126.508 1568.12,-133.26"/>
</g>
<!-- Node32 -->
<g id="node32" class="node"><title>Node32</title>
<g id="a_node32"><a xlink:href="$classLinux_1_1Thread.html#a32b7d184279634922e2f3b23b584fbcd" xlink:title="Linux::Thread::join">
<polygon fill="white" stroke="black" points="1586,-94 1586,-113 1683,-113 1683,-94 1586,-94"/>
<text text-anchor="middle" x="1634.5" y="-101" font-family="Helvetica,sans-Serif" font-size="10.00">Linux::Thread::join</text>
</a>
</g>
</g>
<!-- Node27&#45;&gt;Node32 -->
<g id="edge32" class="edge"><title>Node27&#45;&gt;Node32</title>
<path fill="none" stroke="midnightblue" d="M1539.38,-103.5C1551.41,-103.5 1563.85,-103.5 1575.6,-103.5"/>
<polygon fill="midnightblue" stroke="midnightblue" points="1575.72,-107 1585.72,-103.5 1575.72,-100 1575.72,-107"/>
</g>
<!-- Node29 -->
<g id="node29" class="node"><title>Node29</title>
<g id="a_node29"><a xlink:href="$classLinux_1_1Thread.html#a240d7b48a9a8eb43638f67295a1819e5" xlink:title="Linux::Thread::is_started">
<polygon fill="white" stroke="black" points="1726,-138 1726,-157 1851,-157 1851,-138 1726,-138"/>
<text text-anchor="middle" x="1788.5" y="-145" font-family="Helvetica,sans-Serif" font-size="10.00">Linux::Thread::is_started</text>
</a>
</g>
</g>
<!-- Node28&#45;&gt;Node29 -->
<g id="edge29" class="edge"><title>Node28&#45;&gt;Node29</title>
<path fill="none" stroke="midnightblue" d="M1690.38,-147.5C1698.54,-147.5 1707.05,-147.5 1715.5,-147.5"/>
<polygon fill="midnightblue" stroke="midnightblue" points="1715.74,-151 1725.74,-147.5 1715.74,-144 1715.74,-151"/>
</g>
<!-- Node29&#45;&gt;Node30 -->
<g id="edge30" class="edge"><title>Node29&#45;&gt;Node30</title>
<path fill="none" stroke="midnightblue" d="M1817.61,-157.064C1835.28,-163.078 1858.66,-171.033 1879.79,-178.223"/>
<polygon fill="midnightblue" stroke="midnightblue" points="1878.72,-181.555 1889.31,-181.463 1880.97,-174.928 1878.72,-181.555"/>
</g>
<!-- Node31 -->
<g id="node31" class="node"><title>Node31</title>
<g id="a_node31"><a xlink:href="$classLinux_1_1Thread.html#a8d3282b714faaf68eae534e9276419f0" xlink:title="Linux::Thread::set\l_stack_size">
<polygon fill="white" stroke="black" points="1887,-132.5 1887,-162.5 1982,-162.5 1982,-132.5 1887,-132.5"/>
<text text-anchor="start" x="1895" y="-150.5" font-family="Helvetica,sans-Serif" font-size="10.00">Linux::Thread::set</text>
<text text-anchor="middle" x="1934.5" y="-139.5" font-family="Helvetica,sans-Serif" font-size="10.00">_stack_size</text>
</a>
</g>
</g>
<!-- Node29&#45;&gt;Node31 -->
<g id="edge31" class="edge"><title>Node29&#45;&gt;Node31</title>
<path fill="none" stroke="midnightblue" d="M1851.4,-147.5C1859.86,-147.5 1868.5,-147.5 1876.86,-147.5"/>
<polygon fill="midnightblue" stroke="midnightblue" points="1876.87,-151 1886.87,-147.5 1876.87,-144 1876.87,-151"/>
</g>
<!-- Node33&#45;&gt;Node24 -->
<g id="edge35" class="edge"><title>Node33&#45;&gt;Node24</title>
<path fill="none" stroke="midnightblue" d="M1012.54,-139.255C1030.88,-140.431 1051.07,-141.726 1069.24,-142.892"/>
<polygon fill="midnightblue" stroke="midnightblue" points="1069.19,-146.395 1079.39,-143.543 1069.64,-139.41 1069.19,-146.395"/>
</g>
<!-- Node33&#45;&gt;Node26 -->
<g id="edge36" class="edge"><title>Node33&#45;&gt;Node26</title>
<path fill="none" stroke="midnightblue" d="M993.155,-125.97C1047.06,-113.21 1147.3,-90.7612 1234,-78.5 1285.57,-71.2068 1343.89,-66.483 1389.71,-63.5697"/>
<polygon fill="midnightblue" stroke="midnightblue" points="1390.12,-67.0511 1399.89,-62.9394 1389.69,-60.0645 1390.12,-67.0511"/>
</g>
<!-- Node34&#45;&gt;Node26 -->
<g id="edge38" class="edge"><title>Node34&#45;&gt;Node26</title>
<path fill="none" stroke="midnightblue" d="M1186.31,-22.885C1234.17,-28.9126 1303.46,-37.6806 1364,-45.5 1372.31,-46.573 1380.98,-47.7006 1389.63,-48.8304"/>
<polygon fill="midnightblue" stroke="midnightblue" points="1389.39,-52.3281 1399.76,-50.1548 1390.3,-45.3873 1389.39,-52.3281"/>
</g>
<!-- Node36&#45;&gt;Node15 -->
<g id="edge42" class="edge"><title>Node36&#45;&gt;Node15</title>
<path fill="none" stroke="midnightblue" d="M1017.37,-322.11C1030.83,-320.54 1045.08,-318.878 1058.66,-317.294"/>
<polygon fill="midnightblue" stroke="midnightblue" points="1059.37,-320.736 1068.9,-316.101 1058.56,-313.783 1059.37,-320.736"/>
</g>
<!-- Node38 -->
<g id="node38" class="node"><title>Node38</title>
<g id="a_node38"><a xlink:href="$classLinux_1_1Semaphore.html#afc4c8706abb7e68aa4001ea372dc614e" xlink:title="Linux::Semaphore::take">
<polygon fill="white" stroke="black" points="1066.5,-599 1066.5,-618 1186.5,-618 1186.5,-599 1066.5,-599"/>
<text text-anchor="middle" x="1126.5" y="-606" font-family="Helvetica,sans-Serif" font-size="10.00">Linux::Semaphore::take</text>
</a>
</g>
</g>
<!-- Node37&#45;&gt;Node38 -->
<g id="edge44" class="edge"><title>Node37&#45;&gt;Node38</title>
<path fill="none" stroke="midnightblue" d="M1019.33,-608.5C1031.38,-608.5 1044.01,-608.5 1056.17,-608.5"/>
<polygon fill="midnightblue" stroke="midnightblue" points="1056.26,-612 1066.26,-608.5 1056.26,-605 1056.26,-612"/>
</g>
<!-- Node38&#45;&gt;Node5 -->
<g id="edge46" class="edge"><title>Node38&#45;&gt;Node5</title>
<path fill="none" stroke="midnightblue" d="M1091.77,-618.114C1070.99,-623.534 1043.68,-629.754 1019,-632.5 888.204,-647.055 850.106,-658.612 723,-624.5 632.828,-600.3 537.844,-540.185 496.205,-511.801"/>
<polygon fill="midnightblue" stroke="midnightblue" points="498.143,-508.887 487.924,-506.093 494.17,-514.65 498.143,-508.887"/>
</g>
<!-- Node38&#45;&gt;Node13 -->
<g id="edge47" class="edge"><title>Node38&#45;&gt;Node13</title>
<path fill="none" stroke="midnightblue" d="M1186.65,-599.826C1201.88,-597.594 1218.34,-595.181 1233.81,-592.912"/>
<polygon fill="midnightblue" stroke="midnightblue" points="1234.42,-596.36 1243.81,-591.446 1233.41,-589.434 1234.42,-596.36"/>
</g>
<!-- Node39 -->
<g id="node39" class="node"><title>Node39</title>
<g id="a_node39"><a xlink:href="$classLinux_1_1Semaphore.html#a561b4f40f3a76335f1a686c2aed526f9" xlink:title="Linux::Semaphore::take\l_nonblocking">
<polygon fill="white" stroke="black" points="1239,-617.5 1239,-647.5 1359,-647.5 1359,-617.5 1239,-617.5"/>
<text text-anchor="start" x="1247" y="-635.5" font-family="Helvetica,sans-Serif" font-size="10.00">Linux::Semaphore::take</text>
<text text-anchor="middle" x="1299" y="-624.5" font-family="Helvetica,sans-Serif" font-size="10.00">_nonblocking</text>
</a>
</g>
</g>
<!-- Node38&#45;&gt;Node39 -->
<g id="edge45" class="edge"><title>Node38&#45;&gt;Node39</title>
<path fill="none" stroke="midnightblue" d="M1186.65,-616.827C1200.28,-618.744 1214.88,-620.8 1228.88,-622.771"/>
<polygon fill="midnightblue" stroke="midnightblue" points="1228.56,-626.26 1238.95,-624.188 1229.54,-619.328 1228.56,-626.26"/>
</g>
<!-- Node41 -->
<g id="node41" class="node"><title>Node41</title>
<g id="a_node41"><a xlink:href="$classLinux_1_1Semaphore.html#a216f91636f64b57b59d43ef64af91624" xlink:title="Linux::Semaphore::give">
<polygon fill="white" stroke="black" points="1067,-503 1067,-522 1186,-522 1186,-503 1067,-503"/>
<text text-anchor="middle" x="1126.5" y="-510" font-family="Helvetica,sans-Serif" font-size="10.00">Linux::Semaphore::give</text>
</a>
</g>
</g>
<!-- Node40&#45;&gt;Node41 -->
<g id="edge49" class="edge"><title>Node40&#45;&gt;Node41</title>
<path fill="none" stroke="midnightblue" d="M1017.37,-497.369C1030.17,-499.16 1043.69,-501.051 1056.66,-502.867"/>
<polygon fill="midnightblue" stroke="midnightblue" points="1056.54,-506.384 1066.93,-504.304 1057.51,-499.452 1056.54,-506.384"/>
</g>
<!-- Node44&#45;&gt;Node8 -->
<g id="edge53" class="edge"><title>Node44&#45;&gt;Node8</title>
<path fill="none" stroke="midnightblue" d="M851.407,-418.808C867.673,-415.039 884.971,-411.031 900.551,-407.421"/>
<polygon fill="midnightblue" stroke="midnightblue" points="901.561,-410.78 910.513,-405.113 899.981,-403.96 901.561,-410.78"/>
</g>
<!-- Node45 -->
<g id="node45" class="node"><title>Node45</title>
<g id="a_node45"><a xlink:href="$classLinux_1_1Scheduler.html#ac52c8da3f1f4fd79c50bd64379daf399" xlink:title="Linux::Scheduler::\l_wait_all_threads">
<polygon fill="white" stroke="black" points="905.5,-424.5 905.5,-454.5 1000.5,-454.5 1000.5,-424.5 905.5,-424.5"/>
<text text-anchor="start" x="913.5" y="-442.5" font-family="Helvetica,sans-Serif" font-size="10.00">Linux::Scheduler::</text>
<text text-anchor="middle" x="953" y="-431.5" font-family="Helvetica,sans-Serif" font-size="10.00">_wait_all_threads</text>
</a>
</g>
</g>
<!-- Node44&#45;&gt;Node45 -->
<g id="edge54" class="edge"><title>Node44&#45;&gt;Node45</title>
<path fill="none" stroke="midnightblue" d="M851.407,-435.82C865.84,-436.348 881.085,-436.906 895.222,-437.423"/>
<polygon fill="midnightblue" stroke="midnightblue" points="895.172,-440.923 905.293,-437.791 895.428,-433.928 895.172,-440.923"/>
</g>
<!-- Node48 -->
<g id="node48" class="node"><title>Node48</title>
<g id="a_node48"><a xlink:href="$classLinux_1_1Scheduler.html#a70b024d7d0886bf47b46cc3ee310d638" xlink:title="Linux::Scheduler::\l_run_io">
<polygon fill="white" stroke="black" points="905.5,-522.5 905.5,-552.5 1000.5,-552.5 1000.5,-522.5 905.5,-522.5"/>
<text text-anchor="start" x="913.5" y="-540.5" font-family="Helvetica,sans-Serif" font-size="10.00">Linux::Scheduler::</text>
<text text-anchor="middle" x="953" y="-529.5" font-family="Helvetica,sans-Serif" font-size="10.00">_run_io</text>
</a>
</g>
</g>
<!-- Node47&#45;&gt;Node48 -->
<g id="edge57" class="edge"><title>Node47&#45;&gt;Node48</title>
<path fill="none" stroke="midnightblue" d="M844.439,-527.006C860.86,-528.608 878.799,-530.358 895.239,-531.962"/>
<polygon fill="midnightblue" stroke="midnightblue" points="894.962,-535.452 905.255,-532.939 895.642,-528.485 894.962,-535.452"/>
</g>
<!-- Node48&#45;&gt;Node38 -->
<g id="edge58" class="edge"><title>Node48&#45;&gt;Node38</title>
<path fill="none" stroke="midnightblue" d="M990.371,-552.557C1020.76,-565.138 1063.7,-582.915 1092.96,-595.03"/>
<polygon fill="midnightblue" stroke="midnightblue" points="1091.75,-598.315 1102.33,-598.906 1094.43,-591.847 1091.75,-598.315"/>
</g>
<!-- Node48&#45;&gt;Node41 -->
<g id="edge59" class="edge"><title>Node48&#45;&gt;Node41</title>
<path fill="none" stroke="midnightblue" d="M1000.86,-530.669C1018.1,-528.156 1037.99,-525.257 1056.75,-522.522"/>
<polygon fill="midnightblue" stroke="midnightblue" points="1057.34,-525.972 1066.73,-521.066 1056.33,-519.046 1057.34,-525.972"/>
</g>
</g>
</svg>
