<?xml version="1.0" encoding="UTF-8" standalone="no"?>
<!DOCTYPE svg PUBLIC "-//W3C//DTD SVG 1.1//EN"
 "http://www.w3.org/Graphics/SVG/1.1/DTD/svg11.dtd">
<!-- Generated by graphviz version 2.38.0 (20140413.2041)
 -->
<!-- Title: inverse Pages: 1 -->
<svg width="712pt" height="262pt"
 viewBox="0.00 0.00 712.00 262.00" xmlns="http://www.w3.org/2000/svg" xmlns:xlink="http://www.w3.org/1999/xlink">
<g id="graph0" class="graph" transform="scale(1 1) rotate(0) translate(4 258)">
<title>inverse</title>
<polygon fill="white" stroke="none" points="-4,4 -4,-258 708,-258 708,4 -4,4"/>
<!-- Node1 -->
<g id="node1" class="node"><title>Node1</title>
<polygon fill="#bfbfbf" stroke="black" points="0,-159.5 0,-178.5 48,-178.5 48,-159.5 0,-159.5"/>
<text text-anchor="middle" x="24" y="-166.5" font-family="Helvetica,sans-Serif" font-size="10.00">inverse</text>
</g>
<!-- Node2 -->
<g id="node2" class="node"><title>Node2</title>
<g id="a_node2"><a xlink:href="$matrix__alg_8cpp.html#a3aede2abf8bd30869b72dadaeb9e2c17" xlink:title="inverse3x3">
<polygon fill="white" stroke="black" points="87,-200.5 87,-219.5 151,-219.5 151,-200.5 87,-200.5"/>
<text text-anchor="middle" x="119" y="-207.5" font-family="Helvetica,sans-Serif" font-size="10.00">inverse3x3</text>
</a>
</g>
</g>
<!-- Node1&#45;&gt;Node2 -->
<g id="edge1" class="edge"><title>Node1&#45;&gt;Node2</title>
<path fill="none" stroke="midnightblue" d="M46.5698,-178.509C58.5734,-183.801 73.7237,-190.48 86.9796,-196.324"/>
<polygon fill="midnightblue" stroke="midnightblue" points="85.6628,-199.569 96.225,-200.4 88.4867,-193.164 85.6628,-199.569"/>
</g>
<!-- Node4 -->
<g id="node4" class="node"><title>Node4</title>
<g id="a_node4"><a xlink:href="$matrix__alg_8cpp.html#a5b0d60d12edb0ce4c1ed6599acccc6db" xlink:title="inverse4x4">
<polygon fill="white" stroke="black" points="87,-159.5 87,-178.5 151,-178.5 151,-159.5 87,-159.5"/>
<text text-anchor="middle" x="119" y="-166.5" font-family="Helvetica,sans-Serif" font-size="10.00">inverse4x4</text>
</a>
</g>
</g>
<!-- Node1&#45;&gt;Node4 -->
<g id="edge3" class="edge"><title>Node1&#45;&gt;Node4</title>
<path fill="none" stroke="midnightblue" d="M48.4678,-169C57.0034,-169 66.9241,-169 76.5524,-169"/>
<polygon fill="midnightblue" stroke="midnightblue" points="76.806,-172.5 86.806,-169 76.806,-165.5 76.806,-172.5"/>
</g>
<!-- Node13 -->
<g id="node13" class="node"><title>Node13</title>
<g id="a_node13"><a xlink:href="$matrix__alg_8cpp.html#aec3cfc51b8c044f4faa4ab1d3a146435" xlink:title="mat_inverse">
<polygon fill="white" stroke="black" points="84,-76.5 84,-95.5 154,-95.5 154,-76.5 84,-76.5"/>
<text text-anchor="middle" x="119" y="-83.5" font-family="Helvetica,sans-Serif" font-size="10.00">mat_inverse</text>
</a>
</g>
</g>
<!-- Node1&#45;&gt;Node13 -->
<g id="edge13" class="edge"><title>Node1&#45;&gt;Node13</title>
<path fill="none" stroke="midnightblue" d="M35.6683,-159.479C51.2817,-145.544 80.5708,-119.405 99.6752,-102.354"/>
<polygon fill="midnightblue" stroke="midnightblue" points="102.039,-104.936 107.17,-95.6658 97.3783,-99.7131 102.039,-104.936"/>
</g>
<!-- Node3 -->
<g id="node3" class="node"><title>Node3</title>
<g id="a_node3"><a xlink:href="$AP__Math_8h.html#a2a12cce483e9b870da70d30406d82c60" xlink:title="is_zero">
<polygon fill="white" stroke="black" points="223.5,-202.5 223.5,-221.5 271.5,-221.5 271.5,-202.5 223.5,-202.5"/>
<text text-anchor="middle" x="247.5" y="-209.5" font-family="Helvetica,sans-Serif" font-size="10.00">is_zero</text>
</a>
</g>
</g>
<!-- Node2&#45;&gt;Node3 -->
<g id="edge2" class="edge"><title>Node2&#45;&gt;Node3</title>
<path fill="none" stroke="midnightblue" d="M151.27,-210.494C170.036,-210.791 193.9,-211.168 213.044,-211.471"/>
<polygon fill="midnightblue" stroke="midnightblue" points="213.078,-214.972 223.132,-211.631 213.189,-207.973 213.078,-214.972"/>
</g>
<!-- Node4&#45;&gt;Node3 -->
<g id="edge12" class="edge"><title>Node4&#45;&gt;Node3</title>
<path fill="none" stroke="midnightblue" d="M147.919,-178.614C160.734,-183.017 176.132,-188.291 190,-193 197.717,-195.62 206.033,-198.427 213.848,-201.056"/>
<polygon fill="midnightblue" stroke="midnightblue" points="212.805,-204.398 223.399,-204.266 215.034,-197.762 212.805,-204.398"/>
</g>
<!-- Node5 -->
<g id="node5" class="node"><title>Node5</title>
<g id="a_node5"><a xlink:href="$classAP__HAL_1_1UARTDriver.html#a6ceedc792594e59fc7d80b39a435f027" xlink:title="AP_HAL::UARTDriver\l::printf">
<polygon fill="white" stroke="black" points="190,-153 190,-183 305,-183 305,-153 190,-153"/>
<text text-anchor="start" x="198" y="-171" font-family="Helvetica,sans-Serif" font-size="10.00">AP_HAL::UARTDriver</text>
<text text-anchor="middle" x="247.5" y="-160" font-family="Helvetica,sans-Serif" font-size="10.00">::printf</text>
</a>
</g>
</g>
<!-- Node4&#45;&gt;Node5 -->
<g id="edge4" class="edge"><title>Node4&#45;&gt;Node5</title>
<path fill="none" stroke="midnightblue" d="M151.27,-168.753C160.049,-168.683 169.945,-168.605 179.951,-168.526"/>
<polygon fill="midnightblue" stroke="midnightblue" points="179.984,-172.026 189.956,-168.447 179.929,-165.026 179.984,-172.026"/>
</g>
<!-- Node6 -->
<g id="node6" class="node"><title>Node6</title>
<g id="a_node6"><a xlink:href="$classAP__HAL_1_1UARTDriver.html#aa8abfb6d6641299472c29ac1edde559f" xlink:title="AP_HAL::UARTDriver\l::vprintf">
<polygon fill="white" stroke="black" points="341,-153 341,-183 456,-183 456,-153 341,-153"/>
<text text-anchor="start" x="349" y="-171" font-family="Helvetica,sans-Serif" font-size="10.00">AP_HAL::UARTDriver</text>
<text text-anchor="middle" x="398.5" y="-160" font-family="Helvetica,sans-Serif" font-size="10.00">::vprintf</text>
</a>
</g>
</g>
<!-- Node5&#45;&gt;Node6 -->
<g id="edge5" class="edge"><title>Node5&#45;&gt;Node6</title>
<path fill="none" stroke="midnightblue" d="M305.256,-168C313.558,-168 322.173,-168 330.654,-168"/>
<polygon fill="midnightblue" stroke="midnightblue" points="330.902,-171.5 340.902,-168 330.902,-164.5 330.902,-171.5"/>
</g>
<!-- Node7 -->
<g id="node7" class="node"><title>Node7</title>
<g id="a_node7"><a xlink:href="$print__vprintf_8cpp.html#a1534eaeab54696df96975b56d9f49212" xlink:title="print_vprintf">
<polygon fill="white" stroke="black" points="492,-158.5 492,-177.5 560,-177.5 560,-158.5 492,-158.5"/>
<text text-anchor="middle" x="526" y="-165.5" font-family="Helvetica,sans-Serif" font-size="10.00">print_vprintf</text>
</a>
</g>
</g>
<!-- Node6&#45;&gt;Node7 -->
<g id="edge6" class="edge"><title>Node6&#45;&gt;Node7</title>
<path fill="none" stroke="midnightblue" d="M456.009,-168C464.609,-168 473.367,-168 481.628,-168"/>
<polygon fill="midnightblue" stroke="midnightblue" points="481.777,-171.5 491.777,-168 481.777,-164.5 481.777,-171.5"/>
</g>
<!-- Node8 -->
<g id="node8" class="node"><title>Node8</title>
<g id="a_node8"><a xlink:href="$classAP__HAL_1_1Print.html#acc65391952a43334f8f5c9bef341f501" xlink:title="AP_HAL::Print::write">
<polygon fill="white" stroke="black" points="596,-234.5 596,-253.5 704,-253.5 704,-234.5 596,-234.5"/>
<text text-anchor="middle" x="650" y="-241.5" font-family="Helvetica,sans-Serif" font-size="10.00">AP_HAL::Print::write</text>
</a>
</g>
</g>
<!-- Node7&#45;&gt;Node8 -->
<g id="edge7" class="edge"><title>Node7&#45;&gt;Node8</title>
<path fill="none" stroke="midnightblue" d="M536.47,-177.683C549.07,-190.102 572.502,-211.629 596,-225 599.632,-227.067 603.529,-228.973 607.501,-230.715"/>
<polygon fill="midnightblue" stroke="midnightblue" points="606.233,-233.977 616.816,-234.479 608.856,-227.487 606.233,-233.977"/>
</g>
<!-- Node9 -->
<g id="node9" class="node"><title>Node9</title>
<g id="a_node9"><a xlink:href="$ftoa__engine_8cpp.html#a1c28234da8f20b43c85890d4bb452947" xlink:title="ftoa_engine">
<polygon fill="white" stroke="black" points="616.5,-196.5 616.5,-215.5 683.5,-215.5 683.5,-196.5 616.5,-196.5"/>
<text text-anchor="middle" x="650" y="-203.5" font-family="Helvetica,sans-Serif" font-size="10.00">ftoa_engine</text>
</a>
</g>
</g>
<!-- Node7&#45;&gt;Node9 -->
<g id="edge8" class="edge"><title>Node7&#45;&gt;Node9</title>
<path fill="none" stroke="midnightblue" d="M557.786,-177.589C573.101,-182.359 591.817,-188.189 608.3,-193.323"/>
<polygon fill="midnightblue" stroke="midnightblue" points="607.636,-196.782 618.224,-196.414 609.717,-190.099 607.636,-196.782"/>
</g>
<!-- Node10 -->
<g id="node10" class="node"><title>Node10</title>
<g id="a_node10"><a xlink:href="$replace_8cpp.html#a880bcc7b85a09e6254691bebd5344b51" xlink:title="strnlen">
<polygon fill="white" stroke="black" points="627,-158.5 627,-177.5 673,-177.5 673,-158.5 627,-158.5"/>
<text text-anchor="middle" x="650" y="-165.5" font-family="Helvetica,sans-Serif" font-size="10.00">strnlen</text>
</a>
</g>
</g>
<!-- Node7&#45;&gt;Node10 -->
<g id="edge9" class="edge"><title>Node7&#45;&gt;Node10</title>
<path fill="none" stroke="midnightblue" d="M560.015,-168C577.547,-168 599.016,-168 616.474,-168"/>
<polygon fill="midnightblue" stroke="midnightblue" points="616.754,-171.5 626.754,-168 616.754,-164.5 616.754,-171.5"/>
</g>
<!-- Node11 -->
<g id="node11" class="node"><title>Node11</title>
<g id="a_node11"><a xlink:href="$utoa__invert_8cpp.html#a34926f552460b47c414ec4d83b32815c" xlink:title="ulltoa_invert">
<polygon fill="white" stroke="black" points="615.5,-120.5 615.5,-139.5 684.5,-139.5 684.5,-120.5 615.5,-120.5"/>
<text text-anchor="middle" x="650" y="-127.5" font-family="Helvetica,sans-Serif" font-size="10.00">ulltoa_invert</text>
</a>
</g>
</g>
<!-- Node7&#45;&gt;Node11 -->
<g id="edge10" class="edge"><title>Node7&#45;&gt;Node11</title>
<path fill="none" stroke="midnightblue" d="M557.786,-158.411C573.101,-153.641 591.817,-147.811 608.3,-142.677"/>
<polygon fill="midnightblue" stroke="midnightblue" points="609.717,-145.901 618.224,-139.586 607.636,-139.218 609.717,-145.901"/>
</g>
<!-- Node12 -->
<g id="node12" class="node"><title>Node12</title>
<g id="a_node12"><a xlink:href="$utoa__invert_8cpp.html#a5d99bba8e697c1e11da489d88fca8559" xlink:title="ultoa_invert">
<polygon fill="white" stroke="black" points="616.5,-82.5 616.5,-101.5 683.5,-101.5 683.5,-82.5 616.5,-82.5"/>
<text text-anchor="middle" x="650" y="-89.5" font-family="Helvetica,sans-Serif" font-size="10.00">ultoa_invert</text>
</a>
</g>
</g>
<!-- Node7&#45;&gt;Node12 -->
<g id="edge11" class="edge"><title>Node7&#45;&gt;Node12</title>
<path fill="none" stroke="midnightblue" d="M540.032,-158.495C546.177,-153.92 553.556,-148.291 560,-143 576.544,-129.415 577.589,-121.922 596,-111 599.448,-108.954 603.152,-107.077 606.941,-105.365"/>
<polygon fill="midnightblue" stroke="midnightblue" points="608.524,-108.499 616.437,-101.454 605.858,-102.026 608.524,-108.499"/>
</g>
<!-- Node14 -->
<g id="node14" class="node"><title>Node14</title>
<g id="a_node14"><a xlink:href="$matrix__alg_8cpp.html#a71120309d433abdf23de6c2d78440b1c" xlink:title="mat_LU_decompose">
<polygon fill="white" stroke="black" points="194,-114.5 194,-133.5 301,-133.5 301,-114.5 194,-114.5"/>
<text text-anchor="middle" x="247.5" y="-121.5" font-family="Helvetica,sans-Serif" font-size="10.00">mat_LU_decompose</text>
</a>
</g>
</g>
<!-- Node13&#45;&gt;Node14 -->
<g id="edge14" class="edge"><title>Node13&#45;&gt;Node14</title>
<path fill="none" stroke="midnightblue" d="M151.921,-95.589C167.952,-100.404 187.574,-106.299 204.782,-111.468"/>
<polygon fill="midnightblue" stroke="midnightblue" points="204.005,-114.889 214.589,-114.414 206.019,-108.185 204.005,-114.889"/>
</g>
<!-- Node17 -->
<g id="node17" class="node"><title>Node17</title>
<g id="a_node17"><a xlink:href="$matrix__alg_8cpp.html#a9e2d939e8250f6c633d3b87661b04d45" xlink:title="mat_mul">
<polygon fill="white" stroke="black" points="371.5,-76.5 371.5,-95.5 425.5,-95.5 425.5,-76.5 371.5,-76.5"/>
<text text-anchor="middle" x="398.5" y="-83.5" font-family="Helvetica,sans-Serif" font-size="10.00">mat_mul</text>
</a>
</g>
</g>
<!-- Node13&#45;&gt;Node17 -->
<g id="edge20" class="edge"><title>Node13&#45;&gt;Node17</title>
<path fill="none" stroke="midnightblue" d="M154.027,-86C206.672,-86 307.404,-86 361.324,-86"/>
<polygon fill="midnightblue" stroke="midnightblue" points="361.456,-89.5001 371.456,-86 361.456,-82.5001 361.456,-89.5001"/>
</g>
<!-- Node18 -->
<g id="node18" class="node"><title>Node18</title>
<g id="a_node18"><a xlink:href="$matrix__alg_8cpp.html#ae99d89fadc41e4ff699c74822490a71e" xlink:title="mat_forward_sub">
<polygon fill="white" stroke="black" points="201.5,-38.5 201.5,-57.5 293.5,-57.5 293.5,-38.5 201.5,-38.5"/>
<text text-anchor="middle" x="247.5" y="-45.5" font-family="Helvetica,sans-Serif" font-size="10.00">mat_forward_sub</text>
</a>
</g>
</g>
<!-- Node13&#45;&gt;Node18 -->
<g id="edge18" class="edge"><title>Node13&#45;&gt;Node18</title>
<path fill="none" stroke="midnightblue" d="M151.921,-76.411C167.952,-71.5956 187.574,-65.7012 204.782,-60.532"/>
<polygon fill="midnightblue" stroke="midnightblue" points="206.019,-63.815 214.589,-57.5859 204.005,-57.1109 206.019,-63.815"/>
</g>
<!-- Node19 -->
<g id="node19" class="node"><title>Node19</title>
<g id="a_node19"><a xlink:href="$matrix__alg_8cpp.html#a5f5a54d345886bbaf464910d3a1cf139" xlink:title="mat_back_sub">
<polygon fill="white" stroke="black" points="207.5,-0.5 207.5,-19.5 287.5,-19.5 287.5,-0.5 207.5,-0.5"/>
<text text-anchor="middle" x="247.5" y="-7.5" font-family="Helvetica,sans-Serif" font-size="10.00">mat_back_sub</text>
</a>
</g>
</g>
<!-- Node13&#45;&gt;Node19 -->
<g id="edge19" class="edge"><title>Node13&#45;&gt;Node19</title>
<path fill="none" stroke="midnightblue" d="M129.595,-76.2547C142.363,-63.7676 166.12,-42.1669 190,-29 193.772,-26.9201 197.812,-25.0142 201.931,-23.2808"/>
<polygon fill="midnightblue" stroke="midnightblue" points="203.533,-26.4142 211.602,-19.5483 201.013,-19.8837 203.533,-26.4142"/>
</g>
<!-- Node15 -->
<g id="node15" class="node"><title>Node15</title>
<g id="a_node15"><a xlink:href="$matrix__alg_8cpp.html#a7a49fc8b7a650e05045994ffba7c1dbc" xlink:title="mat_pivot">
<polygon fill="white" stroke="black" points="369,-114.5 369,-133.5 428,-133.5 428,-114.5 369,-114.5"/>
<text text-anchor="middle" x="398.5" y="-121.5" font-family="Helvetica,sans-Serif" font-size="10.00">mat_pivot</text>
</a>
</g>
</g>
<!-- Node14&#45;&gt;Node15 -->
<g id="edge15" class="edge"><title>Node14&#45;&gt;Node15</title>
<path fill="none" stroke="midnightblue" d="M301.032,-124C319.904,-124 340.843,-124 358.376,-124"/>
<polygon fill="midnightblue" stroke="midnightblue" points="358.804,-127.5 368.804,-124 358.804,-120.5 358.804,-127.5"/>
</g>
<!-- Node14&#45;&gt;Node17 -->
<g id="edge17" class="edge"><title>Node14&#45;&gt;Node17</title>
<path fill="none" stroke="midnightblue" d="M286.099,-114.411C309.125,-108.538 338.444,-101.061 361.223,-95.2518"/>
<polygon fill="midnightblue" stroke="midnightblue" points="362.359,-98.5744 371.183,-92.7116 360.629,-91.7915 362.359,-98.5744"/>
</g>
<!-- Node16 -->
<g id="node16" class="node"><title>Node16</title>
<g id="a_node16"><a xlink:href="$matrix__alg_8cpp.html#a4ae7bd9da0bae1b05a7c352df26008ff" xlink:title="swap">
<polygon fill="white" stroke="black" points="506,-114.5 506,-133.5 546,-133.5 546,-114.5 506,-114.5"/>
<text text-anchor="middle" x="526" y="-121.5" font-family="Helvetica,sans-Serif" font-size="10.00">swap</text>
</a>
</g>
</g>
<!-- Node15&#45;&gt;Node16 -->
<g id="edge16" class="edge"><title>Node15&#45;&gt;Node16</title>
<path fill="none" stroke="midnightblue" d="M428.292,-124C448.413,-124 475.198,-124 495.477,-124"/>
<polygon fill="midnightblue" stroke="midnightblue" points="495.704,-127.5 505.704,-124 495.704,-120.5 495.704,-127.5"/>
</g>
</g>
</svg>
