<?xml version="1.0" encoding="UTF-8" standalone="no"?>
<!DOCTYPE svg PUBLIC "-//W3C//DTD SVG 1.1//EN"
 "http://www.w3.org/Graphics/SVG/1.1/DTD/svg11.dtd">
<!-- Generated by graphviz version 2.38.0 (20140413.2041)
 -->
<!-- Title: inverse4x4 Pages: 1 -->
<svg width="622pt" height="180pt"
 viewBox="0.00 0.00 622.00 180.00" xmlns="http://www.w3.org/2000/svg" xmlns:xlink="http://www.w3.org/1999/xlink">
<g id="graph0" class="graph" transform="scale(1 1) rotate(0) translate(4 176)">
<title>inverse4x4</title>
<polygon fill="white" stroke="none" points="-4,4 -4,-176 618,-176 618,4 -4,4"/>
<!-- Node1 -->
<g id="node1" class="node"><title>Node1</title>
<polygon fill="#bfbfbf" stroke="black" points="0,-54.5 0,-73.5 64,-73.5 64,-54.5 0,-54.5"/>
<text text-anchor="middle" x="32" y="-61.5" font-family="Helvetica,sans-Serif" font-size="10.00">inverse4x4</text>
</g>
<!-- Node2 -->
<g id="node2" class="node"><title>Node2</title>
<g id="a_node2"><a xlink:href="$classAP__HAL_1_1UARTDriver.html#a6ceedc792594e59fc7d80b39a435f027" xlink:title="AP_HAL::UARTDriver\l::printf">
<polygon fill="white" stroke="black" points="100,-71 100,-101 215,-101 215,-71 100,-71"/>
<text text-anchor="start" x="108" y="-89" font-family="Helvetica,sans-Serif" font-size="10.00">AP_HAL::UARTDriver</text>
<text text-anchor="middle" x="157.5" y="-78" font-family="Helvetica,sans-Serif" font-size="10.00">::printf</text>
</a>
</g>
</g>
<!-- Node1&#45;&gt;Node2 -->
<g id="edge1" class="edge"><title>Node1&#45;&gt;Node2</title>
<path fill="none" stroke="midnightblue" d="M64.1643,-69.5515C72.0558,-70.9573 80.8389,-72.5219 89.7618,-74.1114"/>
<polygon fill="midnightblue" stroke="midnightblue" points="89.3966,-77.6014 99.8555,-75.9095 90.6243,-70.7099 89.3966,-77.6014"/>
</g>
<!-- Node10 -->
<g id="node10" class="node"><title>Node10</title>
<g id="a_node10"><a xlink:href="$AP__Math_8h.html#a2a12cce483e9b870da70d30406d82c60" xlink:title="is_zero">
<polygon fill="white" stroke="black" points="133.5,-32.5 133.5,-51.5 181.5,-51.5 181.5,-32.5 133.5,-32.5"/>
<text text-anchor="middle" x="157.5" y="-39.5" font-family="Helvetica,sans-Serif" font-size="10.00">is_zero</text>
</a>
</g>
</g>
<!-- Node1&#45;&gt;Node10 -->
<g id="edge9" class="edge"><title>Node1&#45;&gt;Node10</title>
<path fill="none" stroke="midnightblue" d="M64.1643,-58.4485C82.168,-55.2413 104.812,-51.2075 123.171,-47.9372"/>
<polygon fill="midnightblue" stroke="midnightblue" points="123.912,-51.3603 133.144,-46.1607 122.685,-44.4688 123.912,-51.3603"/>
</g>
<!-- Node3 -->
<g id="node3" class="node"><title>Node3</title>
<g id="a_node3"><a xlink:href="$classAP__HAL_1_1UARTDriver.html#aa8abfb6d6641299472c29ac1edde559f" xlink:title="AP_HAL::UARTDriver\l::vprintf">
<polygon fill="white" stroke="black" points="251,-71 251,-101 366,-101 366,-71 251,-71"/>
<text text-anchor="start" x="259" y="-89" font-family="Helvetica,sans-Serif" font-size="10.00">AP_HAL::UARTDriver</text>
<text text-anchor="middle" x="308.5" y="-78" font-family="Helvetica,sans-Serif" font-size="10.00">::vprintf</text>
</a>
</g>
</g>
<!-- Node2&#45;&gt;Node3 -->
<g id="edge2" class="edge"><title>Node2&#45;&gt;Node3</title>
<path fill="none" stroke="midnightblue" d="M215.256,-86C223.558,-86 232.173,-86 240.654,-86"/>
<polygon fill="midnightblue" stroke="midnightblue" points="240.902,-89.5001 250.902,-86 240.902,-82.5001 240.902,-89.5001"/>
</g>
<!-- Node4 -->
<g id="node4" class="node"><title>Node4</title>
<g id="a_node4"><a xlink:href="$print__vprintf_8cpp.html#a1534eaeab54696df96975b56d9f49212" xlink:title="print_vprintf">
<polygon fill="white" stroke="black" points="402,-76.5 402,-95.5 470,-95.5 470,-76.5 402,-76.5"/>
<text text-anchor="middle" x="436" y="-83.5" font-family="Helvetica,sans-Serif" font-size="10.00">print_vprintf</text>
</a>
</g>
</g>
<!-- Node3&#45;&gt;Node4 -->
<g id="edge3" class="edge"><title>Node3&#45;&gt;Node4</title>
<path fill="none" stroke="midnightblue" d="M366.009,-86C374.609,-86 383.367,-86 391.628,-86"/>
<polygon fill="midnightblue" stroke="midnightblue" points="391.777,-89.5001 401.777,-86 391.777,-82.5001 391.777,-89.5001"/>
</g>
<!-- Node5 -->
<g id="node5" class="node"><title>Node5</title>
<g id="a_node5"><a xlink:href="$classAP__HAL_1_1Print.html#acc65391952a43334f8f5c9bef341f501" xlink:title="AP_HAL::Print::write">
<polygon fill="white" stroke="black" points="506,-152.5 506,-171.5 614,-171.5 614,-152.5 506,-152.5"/>
<text text-anchor="middle" x="560" y="-159.5" font-family="Helvetica,sans-Serif" font-size="10.00">AP_HAL::Print::write</text>
</a>
</g>
</g>
<!-- Node4&#45;&gt;Node5 -->
<g id="edge4" class="edge"><title>Node4&#45;&gt;Node5</title>
<path fill="none" stroke="midnightblue" d="M446.47,-95.6825C459.07,-108.102 482.502,-129.629 506,-143 509.632,-145.067 513.529,-146.973 517.501,-148.715"/>
<polygon fill="midnightblue" stroke="midnightblue" points="516.233,-151.977 526.816,-152.479 518.856,-145.487 516.233,-151.977"/>
</g>
<!-- Node6 -->
<g id="node6" class="node"><title>Node6</title>
<g id="a_node6"><a xlink:href="$ftoa__engine_8cpp.html#a1c28234da8f20b43c85890d4bb452947" xlink:title="ftoa_engine">
<polygon fill="white" stroke="black" points="526.5,-114.5 526.5,-133.5 593.5,-133.5 593.5,-114.5 526.5,-114.5"/>
<text text-anchor="middle" x="560" y="-121.5" font-family="Helvetica,sans-Serif" font-size="10.00">ftoa_engine</text>
</a>
</g>
</g>
<!-- Node4&#45;&gt;Node6 -->
<g id="edge5" class="edge"><title>Node4&#45;&gt;Node6</title>
<path fill="none" stroke="midnightblue" d="M467.786,-95.589C483.101,-100.359 501.817,-106.189 518.3,-111.323"/>
<polygon fill="midnightblue" stroke="midnightblue" points="517.636,-114.782 528.224,-114.414 519.717,-108.099 517.636,-114.782"/>
</g>
<!-- Node7 -->
<g id="node7" class="node"><title>Node7</title>
<g id="a_node7"><a xlink:href="$replace_8cpp.html#a880bcc7b85a09e6254691bebd5344b51" xlink:title="strnlen">
<polygon fill="white" stroke="black" points="537,-76.5 537,-95.5 583,-95.5 583,-76.5 537,-76.5"/>
<text text-anchor="middle" x="560" y="-83.5" font-family="Helvetica,sans-Serif" font-size="10.00">strnlen</text>
</a>
</g>
</g>
<!-- Node4&#45;&gt;Node7 -->
<g id="edge6" class="edge"><title>Node4&#45;&gt;Node7</title>
<path fill="none" stroke="midnightblue" d="M470.015,-86C487.547,-86 509.016,-86 526.474,-86"/>
<polygon fill="midnightblue" stroke="midnightblue" points="526.754,-89.5001 536.754,-86 526.754,-82.5001 526.754,-89.5001"/>
</g>
<!-- Node8 -->
<g id="node8" class="node"><title>Node8</title>
<g id="a_node8"><a xlink:href="$utoa__invert_8cpp.html#a34926f552460b47c414ec4d83b32815c" xlink:title="ulltoa_invert">
<polygon fill="white" stroke="black" points="525.5,-38.5 525.5,-57.5 594.5,-57.5 594.5,-38.5 525.5,-38.5"/>
<text text-anchor="middle" x="560" y="-45.5" font-family="Helvetica,sans-Serif" font-size="10.00">ulltoa_invert</text>
</a>
</g>
</g>
<!-- Node4&#45;&gt;Node8 -->
<g id="edge7" class="edge"><title>Node4&#45;&gt;Node8</title>
<path fill="none" stroke="midnightblue" d="M467.786,-76.411C483.101,-71.6406 501.817,-65.8112 518.3,-60.6771"/>
<polygon fill="midnightblue" stroke="midnightblue" points="519.717,-63.9015 528.224,-57.5859 517.636,-57.2182 519.717,-63.9015"/>
</g>
<!-- Node9 -->
<g id="node9" class="node"><title>Node9</title>
<g id="a_node9"><a xlink:href="$utoa__invert_8cpp.html#a5d99bba8e697c1e11da489d88fca8559" xlink:title="ultoa_invert">
<polygon fill="white" stroke="black" points="526.5,-0.5 526.5,-19.5 593.5,-19.5 593.5,-0.5 526.5,-0.5"/>
<text text-anchor="middle" x="560" y="-7.5" font-family="Helvetica,sans-Serif" font-size="10.00">ultoa_invert</text>
</a>
</g>
</g>
<!-- Node4&#45;&gt;Node9 -->
<g id="edge8" class="edge"><title>Node4&#45;&gt;Node9</title>
<path fill="none" stroke="midnightblue" d="M446.47,-76.3175C459.07,-63.8984 482.502,-42.371 506,-29 509.632,-26.9334 513.529,-25.0271 517.501,-23.2853"/>
<polygon fill="midnightblue" stroke="midnightblue" points="518.856,-26.5129 526.816,-19.5214 516.233,-20.0226 518.856,-26.5129"/>
</g>
</g>
</svg>
