<?xml version="1.0" encoding="UTF-8" standalone="no"?>
<!DOCTYPE svg PUBLIC "-//W3C//DTD SVG 1.1//EN"
 "http://www.w3.org/Graphics/SVG/1.1/DTD/svg11.dtd">
<!-- Generated by graphviz version 2.38.0 (20140413.2041)
 -->
<!-- Title: loop Pages: 1 -->
<svg width="2042pt" height="785pt"
 viewBox="0.00 0.00 2042.00 784.50" xmlns="http://www.w3.org/2000/svg" xmlns:xlink="http://www.w3.org/1999/xlink">
<g id="graph0" class="graph" transform="scale(1 1) rotate(0) translate(4 780.5)">
<title>loop</title>
<polygon fill="white" stroke="none" points="-4,4 -4,-780.5 2038,-780.5 2038,4 -4,4"/>
<!-- Node1 -->
<g id="node1" class="node"><title>Node1</title>
<polygon fill="#bfbfbf" stroke="black" points="0,-76.5 0,-95.5 35,-95.5 35,-76.5 0,-76.5"/>
<text text-anchor="middle" x="17.5" y="-83.5" font-family="Helvetica,sans-Serif" font-size="10.00">loop</text>
</g>
<!-- Node2 -->
<g id="node2" class="node"><title>Node2</title>
<g id="a_node2"><a xlink:href="$classAP__HAL_1_1Scheduler.html#ab3175e2e6223ccfe82f957e41cc12b26" xlink:title="AP_HAL::Scheduler::\ldelay">
<polygon fill="white" stroke="black" points="71,-153 71,-183 181,-183 181,-153 71,-153"/>
<text text-anchor="start" x="79" y="-171" font-family="Helvetica,sans-Serif" font-size="10.00">AP_HAL::Scheduler::</text>
<text text-anchor="middle" x="126" y="-160" font-family="Helvetica,sans-Serif" font-size="10.00">delay</text>
</a>
</g>
</g>
<!-- Node1&#45;&gt;Node2 -->
<g id="edge1" class="edge"><title>Node1&#45;&gt;Node2</title>
<path fill="none" stroke="midnightblue" d="M25.3867,-95.5529C34.6288,-107.832 52.0848,-129.208 71,-143 73.3477,-144.712 75.8314,-146.349 78.3928,-147.908"/>
<polygon fill="midnightblue" stroke="midnightblue" points="76.8799,-151.072 87.3162,-152.898 80.2966,-144.963 76.8799,-151.072"/>
</g>
<!-- Node3 -->
<g id="node3" class="node"><title>Node3</title>
<g id="a_node3"><a xlink:href="$classAP__HAL_1_1RCInput.html#a078fd7e6d2e6a899009ec674a8e03498" xlink:title="AP_HAL::RCInput::read">
<polygon fill="white" stroke="black" points="1128,-228.5 1128,-247.5 1250,-247.5 1250,-228.5 1128,-228.5"/>
<text text-anchor="middle" x="1189" y="-235.5" font-family="Helvetica,sans-Serif" font-size="10.00">AP_HAL::RCInput::read</text>
</a>
</g>
</g>
<!-- Node1&#45;&gt;Node3 -->
<g id="edge2" class="edge"><title>Node1&#45;&gt;Node3</title>
<path fill="none" stroke="midnightblue" d="M35.1611,-81.4917C73.8771,-71.4259 173.051,-48 257.5,-48 257.5,-48 257.5,-48 848,-48 989.266,-48 1126.4,-174.535 1172.06,-221.081"/>
<polygon fill="midnightblue" stroke="midnightblue" points="1169.59,-223.557 1179.05,-228.317 1174.62,-218.693 1169.59,-223.557"/>
</g>
<!-- Node4 -->
<g id="node4" class="node"><title>Node4</title>
<g id="a_node4"><a xlink:href="$classPID.html#a28e600e906e006863e9018e66422bde6" xlink:title="PID::get_pid">
<polygon fill="white" stroke="black" points="90.5,-114.5 90.5,-133.5 161.5,-133.5 161.5,-114.5 90.5,-114.5"/>
<text text-anchor="middle" x="126" y="-121.5" font-family="Helvetica,sans-Serif" font-size="10.00">PID::get_pid</text>
</a>
</g>
</g>
<!-- Node1&#45;&gt;Node4 -->
<g id="edge3" class="edge"><title>Node1&#45;&gt;Node4</title>
<path fill="none" stroke="midnightblue" d="M35.1406,-91.9375C49.4225,-97.0334 70.514,-104.559 88.6745,-111.039"/>
<polygon fill="midnightblue" stroke="midnightblue" points="87.5309,-114.347 98.1256,-114.411 89.8833,-107.754 87.5309,-114.347"/>
</g>
<!-- Node15 -->
<g id="node15" class="node"><title>Node15</title>
<g id="a_node15"><a xlink:href="$classAP__HAL_1_1UARTDriver.html#a6ceedc792594e59fc7d80b39a435f027" xlink:title="AP_HAL::UARTDriver\l::printf">
<polygon fill="white" stroke="black" points="963,-357 963,-387 1078,-387 1078,-357 963,-357"/>
<text text-anchor="start" x="971" y="-375" font-family="Helvetica,sans-Serif" font-size="10.00">AP_HAL::UARTDriver</text>
<text text-anchor="middle" x="1020.5" y="-364" font-family="Helvetica,sans-Serif" font-size="10.00">::printf</text>
</a>
</g>
</g>
<!-- Node1&#45;&gt;Node15 -->
<g id="edge63" class="edge"><title>Node1&#45;&gt;Node15</title>
<path fill="none" stroke="midnightblue" d="M35.0161,-86C73.8307,-86 173.891,-86 257.5,-86 257.5,-86 257.5,-86 682,-86 792.023,-86 840.188,-92.5165 913,-175 956.943,-224.78 912.095,-264.8 949,-320 957.298,-332.412 969.6,-342.952 981.614,-351.23"/>
<polygon fill="midnightblue" stroke="midnightblue" points="979.96,-354.329 990.25,-356.852 983.779,-348.463 979.96,-354.329"/>
</g>
<!-- Node50 -->
<g id="node50" class="node"><title>Node50</title>
<g id="a_node50"><a xlink:href="$pid_8cpp.html#aa754b8f19697c092a3eb48905d6561e3" xlink:title="AP_HAL_MAIN">
<polygon fill="white" stroke="black" points="83,-0.5 83,-19.5 169,-19.5 169,-0.5 83,-0.5"/>
<text text-anchor="middle" x="126" y="-7.5" font-family="Helvetica,sans-Serif" font-size="10.00">AP_HAL_MAIN</text>
</a>
</g>
</g>
<!-- Node1&#45;&gt;Node50 -->
<g id="edge64" class="edge"><title>Node1&#45;&gt;Node50</title>
<path fill="none" stroke="midnightblue" d="M26.5377,-76.101C36.1561,-64.7538 53.2051,-46.159 71,-34 76.6343,-30.1502 82.9863,-26.6807 89.3026,-23.6538"/>
<polygon fill="midnightblue" stroke="midnightblue" points="90.7588,-26.8366 98.4434,-19.543 87.8877,-20.4525 90.7588,-26.8366"/>
</g>
<!-- Node5 -->
<g id="node5" class="node"><title>Node5</title>
<g id="a_node5"><a xlink:href="$namespaceAP__HAL.html#a77dffbb18891996280308e21316ec186" xlink:title="AP_HAL::millis">
<polygon fill="white" stroke="black" points="217,-297.5 217,-316.5 300,-316.5 300,-297.5 217,-297.5"/>
<text text-anchor="middle" x="258.5" y="-304.5" font-family="Helvetica,sans-Serif" font-size="10.00">AP_HAL::millis</text>
</a>
</g>
</g>
<!-- Node4&#45;&gt;Node5 -->
<g id="edge4" class="edge"><title>Node4&#45;&gt;Node5</title>
<path fill="none" stroke="midnightblue" d="M161.529,-131.556C168.556,-134.291 175.477,-137.994 181,-143 224.92,-182.808 245.654,-253.019 253.523,-287.196"/>
<polygon fill="midnightblue" stroke="midnightblue" points="250.175,-288.277 255.713,-297.309 257.017,-286.795 250.175,-288.277"/>
</g>
<!-- Node49 -->
<g id="node49" class="node"><title>Node49</title>
<g id="a_node49"><a xlink:href="$classPID.html#ab5b56004fca57d7bd2a580a743775b74" xlink:title="PID::reset_I">
<polygon fill="white" stroke="black" points="223.5,-114.5 223.5,-133.5 293.5,-133.5 293.5,-114.5 223.5,-114.5"/>
<text text-anchor="middle" x="258.5" y="-121.5" font-family="Helvetica,sans-Serif" font-size="10.00">PID::reset_I</text>
</a>
</g>
</g>
<!-- Node4&#45;&gt;Node49 -->
<g id="edge62" class="edge"><title>Node4&#45;&gt;Node49</title>
<path fill="none" stroke="midnightblue" d="M161.629,-124C177.387,-124 196.227,-124 213.018,-124"/>
<polygon fill="midnightblue" stroke="midnightblue" points="213.162,-127.5 223.162,-124 213.162,-120.5 213.162,-127.5"/>
</g>
<!-- Node6 -->
<g id="node6" class="node"><title>Node6</title>
<g id="a_node6"><a xlink:href="$namespaceAP__HAL.html#a59336c5fceaf28a76d1df1581a87a25d" xlink:title="AP_HAL::millis64">
<polygon fill="white" stroke="black" points="336,-442.5 336,-461.5 430,-461.5 430,-442.5 336,-442.5"/>
<text text-anchor="middle" x="383" y="-449.5" font-family="Helvetica,sans-Serif" font-size="10.00">AP_HAL::millis64</text>
</a>
</g>
</g>
<!-- Node5&#45;&gt;Node6 -->
<g id="edge5" class="edge"><title>Node5&#45;&gt;Node6</title>
<path fill="none" stroke="midnightblue" d="M267.538,-316.514C287.778,-340.472 341.088,-403.573 367.184,-434.462"/>
<polygon fill="midnightblue" stroke="midnightblue" points="364.645,-436.881 373.772,-442.261 369.992,-432.363 364.645,-436.881"/>
</g>
<!-- Node7 -->
<g id="node7" class="node"><title>Node7</title>
<g id="a_node7"><a xlink:href="$classLinux_1_1Scheduler.html#a53ecaae0fdc72f85bd57c4b0cff93653" xlink:title="Linux::Scheduler::from">
<polygon fill="white" stroke="black" points="466,-442.5 466,-461.5 581,-461.5 581,-442.5 466,-442.5"/>
<text text-anchor="middle" x="523.5" y="-449.5" font-family="Helvetica,sans-Serif" font-size="10.00">Linux::Scheduler::from</text>
</a>
</g>
</g>
<!-- Node6&#45;&gt;Node7 -->
<g id="edge6" class="edge"><title>Node6&#45;&gt;Node7</title>
<path fill="none" stroke="midnightblue" d="M430.118,-452C438.376,-452 447.13,-452 455.829,-452"/>
<polygon fill="midnightblue" stroke="midnightblue" points="455.983,-455.5 465.983,-452 455.983,-448.5 455.983,-455.5"/>
</g>
<!-- Node34 -->
<g id="node34" class="node"><title>Node34</title>
<g id="a_node34"><a xlink:href="$classLinux_1_1Scheduler.html#a682b4c34f330f66db5ab4aa5d96e13f9" xlink:title="Linux::Scheduler::stopped\l_clock_usec">
<polygon fill="white" stroke="black" points="1286,-746 1286,-776 1416,-776 1416,-746 1286,-746"/>
<text text-anchor="start" x="1294" y="-764" font-family="Helvetica,sans-Serif" font-size="10.00">Linux::Scheduler::stopped</text>
<text text-anchor="middle" x="1351" y="-753" font-family="Helvetica,sans-Serif" font-size="10.00">_clock_usec</text>
</a>
</g>
</g>
<!-- Node6&#45;&gt;Node34 -->
<g id="edge61" class="edge"><title>Node6&#45;&gt;Node34</title>
<path fill="none" stroke="midnightblue" d="M386.619,-461.767C394.601,-490.142 420.865,-574.037 466,-629 536.479,-714.825 568.945,-758 680,-758 680,-758 680,-758 1021.5,-758 1108.66,-758 1208.83,-759.069 1275.41,-759.931"/>
<polygon fill="midnightblue" stroke="midnightblue" points="1275.75,-763.436 1285.8,-760.067 1275.84,-756.436 1275.75,-763.436"/>
</g>
<!-- Node8 -->
<g id="node8" class="node"><title>Node8</title>
<g id="a_node8"><a xlink:href="$classLinux_1_1Scheduler.html#a3d77c332e051c28c83fb07757e7100bd" xlink:title="Linux::Scheduler::init">
<polygon fill="white" stroke="black" points="627,-202.5 627,-221.5 735,-221.5 735,-202.5 627,-202.5"/>
<text text-anchor="middle" x="681" y="-209.5" font-family="Helvetica,sans-Serif" font-size="10.00">Linux::Scheduler::init</text>
</a>
</g>
</g>
<!-- Node7&#45;&gt;Node8 -->
<g id="edge7" class="edge"><title>Node7&#45;&gt;Node8</title>
<path fill="none" stroke="midnightblue" d="M525.619,-442.383C530.111,-408.207 549.963,-291.435 617,-231 618.758,-229.415 620.644,-227.962 622.626,-226.631"/>
<polygon fill="midnightblue" stroke="midnightblue" points="624.777,-229.44 631.83,-221.533 621.386,-223.317 624.777,-229.44"/>
</g>
<!-- Node14 -->
<g id="node14" class="node"><title>Node14</title>
<g id="a_node14"><a xlink:href="$classLinux_1_1Scheduler.html#a02a34a123dfebaf360f7010745e1e646" xlink:title="Linux::Scheduler::register\l_timer_process">
<polygon fill="white" stroke="black" points="783,-260 783,-290 911,-290 911,-260 783,-260"/>
<text text-anchor="start" x="791" y="-278" font-family="Helvetica,sans-Serif" font-size="10.00">Linux::Scheduler::register</text>
<text text-anchor="middle" x="847" y="-267" font-family="Helvetica,sans-Serif" font-size="10.00">_timer_process</text>
</a>
</g>
</g>
<!-- Node7&#45;&gt;Node14 -->
<g id="edge32" class="edge"><title>Node7&#45;&gt;Node14</title>
<path fill="none" stroke="midnightblue" d="M527.525,-442.158C536.338,-415.309 564.741,-340.562 617,-307 662.944,-277.494 724.714,-270.308 772.522,-270.055"/>
<polygon fill="midnightblue" stroke="midnightblue" points="772.791,-273.556 782.808,-270.105 772.825,-266.556 772.791,-273.556"/>
</g>
<!-- Node25 -->
<g id="node25" class="node"><title>Node25</title>
<g id="a_node25"><a xlink:href="$classLinux_1_1Scheduler.html#a14f3239ecbb9889823b20dc9de655c2f" xlink:title="Linux::Scheduler::delay">
<polygon fill="white" stroke="black" points="621.5,-710.5 621.5,-729.5 740.5,-729.5 740.5,-710.5 621.5,-710.5"/>
<text text-anchor="middle" x="681" y="-717.5" font-family="Helvetica,sans-Serif" font-size="10.00">Linux::Scheduler::delay</text>
</a>
</g>
</g>
<!-- Node7&#45;&gt;Node25 -->
<g id="edge26" class="edge"><title>Node7&#45;&gt;Node25</title>
<path fill="none" stroke="midnightblue" d="M529.289,-461.798C539.559,-483.02 564.134,-534.959 581,-580 599.93,-630.553 580.052,-656.645 617,-696 620.613,-699.848 624.907,-703.085 629.531,-705.807"/>
<polygon fill="midnightblue" stroke="midnightblue" points="628.231,-709.07 638.738,-710.431 631.373,-702.815 628.231,-709.07"/>
</g>
<!-- Node27 -->
<g id="node27" class="node"><title>Node27</title>
<g id="a_node27"><a xlink:href="$classLinux_1_1Scheduler.html#a4cffd5bcba0175bf49c7aa75ff3bf09a" xlink:title="Linux::Scheduler::delay\l_microseconds">
<polygon fill="white" stroke="black" points="1291.5,-619 1291.5,-649 1410.5,-649 1410.5,-619 1291.5,-619"/>
<text text-anchor="start" x="1299.5" y="-637" font-family="Helvetica,sans-Serif" font-size="10.00">Linux::Scheduler::delay</text>
<text text-anchor="middle" x="1351" y="-626" font-family="Helvetica,sans-Serif" font-size="10.00">_microseconds</text>
</a>
</g>
</g>
<!-- Node7&#45;&gt;Node27 -->
<g id="edge29" class="edge"><title>Node7&#45;&gt;Node27</title>
<path fill="none" stroke="midnightblue" d="M528.007,-461.724C537.647,-486.83 567.19,-553.763 617,-581 678.794,-614.79 1180.12,-605.237 1250,-614 1260.18,-615.277 1270.88,-617.001 1281.34,-618.905"/>
<polygon fill="midnightblue" stroke="midnightblue" points="1280.8,-622.364 1291.27,-620.776 1282.1,-615.485 1280.8,-622.364"/>
</g>
<!-- Node28 -->
<g id="node28" class="node"><title>Node28</title>
<g id="a_node28"><a xlink:href="$classLinux_1_1Scheduler.html#a5cb50b637d5fd3e5f9220bc23db0fb3f" xlink:title="Linux::Scheduler::register\l_delay_callback">
<polygon fill="white" stroke="black" points="617,-153 617,-183 745,-183 745,-153 617,-153"/>
<text text-anchor="start" x="625" y="-171" font-family="Helvetica,sans-Serif" font-size="10.00">Linux::Scheduler::register</text>
<text text-anchor="middle" x="681" y="-160" font-family="Helvetica,sans-Serif" font-size="10.00">_delay_callback</text>
</a>
</g>
</g>
<!-- Node7&#45;&gt;Node28 -->
<g id="edge31" class="edge"><title>Node7&#45;&gt;Node28</title>
<path fill="none" stroke="midnightblue" d="M525.165,-442.303C528.234,-404.906 544.191,-268.384 617,-193 618.41,-191.54 619.916,-190.163 621.499,-188.865"/>
<polygon fill="midnightblue" stroke="midnightblue" points="623.731,-191.577 629.963,-183.009 619.748,-185.821 623.731,-191.577"/>
</g>
<!-- Node29 -->
<g id="node29" class="node"><title>Node29</title>
<g id="a_node29"><a xlink:href="$classLinux_1_1Scheduler.html#aa2be97cb8686d72cc322fb38f69a940c" xlink:title="Linux::Scheduler::register\l_io_process">
<polygon fill="white" stroke="black" points="783,-417 783,-447 911,-447 911,-417 783,-417"/>
<text text-anchor="start" x="791" y="-435" font-family="Helvetica,sans-Serif" font-size="10.00">Linux::Scheduler::register</text>
<text text-anchor="middle" x="847" y="-424" font-family="Helvetica,sans-Serif" font-size="10.00">_io_process</text>
</a>
</g>
</g>
<!-- Node7&#45;&gt;Node29 -->
<g id="edge33" class="edge"><title>Node7&#45;&gt;Node29</title>
<path fill="none" stroke="midnightblue" d="M581.34,-456.673C625.984,-459.403 689.644,-461.223 745,-455 756.472,-453.71 768.542,-451.621 780.188,-449.214"/>
<polygon fill="midnightblue" stroke="midnightblue" points="781.254,-452.565 790.288,-447.03 779.774,-445.723 781.254,-452.565"/>
</g>
<!-- Node30 -->
<g id="node30" class="node"><title>Node30</title>
<g id="a_node30"><a xlink:href="$classLinux_1_1Scheduler.html#abba967d02c28cb0b16a7cebbff9bc6d6" xlink:title="Linux::Scheduler::suspend\l_timer_procs">
<polygon fill="white" stroke="black" points="781,-623 781,-653 913,-653 913,-623 781,-623"/>
<text text-anchor="start" x="789" y="-641" font-family="Helvetica,sans-Serif" font-size="10.00">Linux::Scheduler::suspend</text>
<text text-anchor="middle" x="847" y="-630" font-family="Helvetica,sans-Serif" font-size="10.00">_timer_procs</text>
</a>
</g>
</g>
<!-- Node7&#45;&gt;Node30 -->
<g id="edge35" class="edge"><title>Node7&#45;&gt;Node30</title>
<path fill="none" stroke="midnightblue" d="M528.614,-461.671C542.417,-493.641 587.844,-594.972 617,-614 661.989,-643.36 722.851,-648.508 770.523,-646.774"/>
<polygon fill="midnightblue" stroke="midnightblue" points="770.969,-650.257 780.792,-646.288 770.638,-643.265 770.969,-650.257"/>
</g>
<!-- Node40 -->
<g id="node40" class="node"><title>Node40</title>
<g id="a_node40"><a xlink:href="$classLinux_1_1Scheduler.html#aee4e701b92cb4721c4de1bfcdcded70c" xlink:title="Linux::Scheduler::resume\l_timer_procs">
<polygon fill="white" stroke="black" points="783,-486 783,-516 911,-516 911,-486 783,-486"/>
<text text-anchor="start" x="791" y="-504" font-family="Helvetica,sans-Serif" font-size="10.00">Linux::Scheduler::resume</text>
<text text-anchor="middle" x="847" y="-493" font-family="Helvetica,sans-Serif" font-size="10.00">_timer_procs</text>
</a>
</g>
</g>
<!-- Node7&#45;&gt;Node40 -->
<g id="edge49" class="edge"><title>Node7&#45;&gt;Node40</title>
<path fill="none" stroke="midnightblue" d="M567.673,-461.542C583.181,-464.791 600.832,-468.284 617,-471 668.835,-479.707 727.629,-487.363 772.664,-492.762"/>
<polygon fill="midnightblue" stroke="midnightblue" points="772.294,-496.242 782.637,-493.947 773.12,-489.291 772.294,-496.242"/>
</g>
<!-- Node42 -->
<g id="node42" class="node"><title>Node42</title>
<g id="a_node42"><a xlink:href="$classLinux_1_1Scheduler.html#af23753e7c6bfa97553db215a64235455" xlink:title="Linux::Scheduler::in\l_timerprocess">
<polygon fill="white" stroke="black" points="629.5,-415 629.5,-445 732.5,-445 732.5,-415 629.5,-415"/>
<text text-anchor="start" x="637.5" y="-433" font-family="Helvetica,sans-Serif" font-size="10.00">Linux::Scheduler::in</text>
<text text-anchor="middle" x="681" y="-422" font-family="Helvetica,sans-Serif" font-size="10.00">_timerprocess</text>
</a>
</g>
</g>
<!-- Node7&#45;&gt;Node42 -->
<g id="edge51" class="edge"><title>Node7&#45;&gt;Node42</title>
<path fill="none" stroke="midnightblue" d="M581.079,-443.995C593.55,-442.231 606.807,-440.355 619.429,-438.57"/>
<polygon fill="midnightblue" stroke="midnightblue" points="619.977,-442.027 629.388,-437.161 618.996,-435.096 619.977,-442.027"/>
</g>
<!-- Node43 -->
<g id="node43" class="node"><title>Node43</title>
<g id="a_node43"><a xlink:href="$classLinux_1_1Scheduler.html#ac193459e3575c7a0588fdc72250c2044" xlink:title="Linux::Scheduler::register\l_timer_failsafe">
<polygon fill="white" stroke="black" points="617,-366 617,-396 745,-396 745,-366 617,-366"/>
<text text-anchor="start" x="625" y="-384" font-family="Helvetica,sans-Serif" font-size="10.00">Linux::Scheduler::register</text>
<text text-anchor="middle" x="681" y="-373" font-family="Helvetica,sans-Serif" font-size="10.00">_timer_failsafe</text>
</a>
</g>
</g>
<!-- Node7&#45;&gt;Node43 -->
<g id="edge52" class="edge"><title>Node7&#45;&gt;Node43</title>
<path fill="none" stroke="midnightblue" d="M542.712,-442.378C561.212,-432.737 590.793,-417.691 617,-406 621.466,-404.007 626.143,-402.003 630.844,-400.043"/>
<polygon fill="midnightblue" stroke="midnightblue" points="632.542,-403.13 640.468,-396.1 629.888,-396.652 632.542,-403.13"/>
</g>
<!-- Node44 -->
<g id="node44" class="node"><title>Node44</title>
<g id="a_node44"><a xlink:href="$classLinux_1_1Scheduler.html#ad6070a7ee637adf5101b1e6b6efbf8f6" xlink:title="Linux::Scheduler::system\l_initialized">
<polygon fill="white" stroke="black" points="617,-317 617,-347 745,-347 745,-317 617,-317"/>
<text text-anchor="start" x="625" y="-335" font-family="Helvetica,sans-Serif" font-size="10.00">Linux::Scheduler::system</text>
<text text-anchor="middle" x="681" y="-324" font-family="Helvetica,sans-Serif" font-size="10.00">_initialized</text>
</a>
</g>
</g>
<!-- Node7&#45;&gt;Node44 -->
<g id="edge53" class="edge"><title>Node7&#45;&gt;Node44</title>
<path fill="none" stroke="midnightblue" d="M531.611,-442.343C545.884,-423.56 579.848,-381.781 617,-357 619.877,-355.081 622.924,-353.273 626.064,-351.576"/>
<polygon fill="midnightblue" stroke="midnightblue" points="627.698,-354.672 635.094,-347.087 624.582,-348.404 627.698,-354.672"/>
</g>
<!-- Node46 -->
<g id="node46" class="node"><title>Node46</title>
<g id="a_node46"><a xlink:href="$classLinux_1_1Scheduler.html#ae72cfa66c849ffd882ef518c35c71e69" xlink:title="Linux::Scheduler::reboot">
<polygon fill="white" stroke="black" points="620,-240.5 620,-259.5 742,-259.5 742,-240.5 620,-240.5"/>
<text text-anchor="middle" x="681" y="-247.5" font-family="Helvetica,sans-Serif" font-size="10.00">Linux::Scheduler::reboot</text>
</a>
</g>
</g>
<!-- Node7&#45;&gt;Node46 -->
<g id="edge56" class="edge"><title>Node7&#45;&gt;Node46</title>
<path fill="none" stroke="midnightblue" d="M526.873,-442.385C534.614,-412.953 561.872,-323.113 617,-274 621.479,-270.01 626.689,-266.655 632.159,-263.842"/>
<polygon fill="midnightblue" stroke="midnightblue" points="633.859,-266.915 641.525,-259.602 630.972,-260.538 633.859,-266.915"/>
</g>
<!-- Node47 -->
<g id="node47" class="node"><title>Node47</title>
<g id="a_node47"><a xlink:href="$classLinux_1_1Scheduler.html#a392aebafcdfe9a812e4db4b7a9dcce9c" xlink:title="Linux::Scheduler::stop\l_clock">
<polygon fill="white" stroke="black" points="624,-541 624,-571 738,-571 738,-541 624,-541"/>
<text text-anchor="start" x="632" y="-559" font-family="Helvetica,sans-Serif" font-size="10.00">Linux::Scheduler::stop</text>
<text text-anchor="middle" x="681" y="-548" font-family="Helvetica,sans-Serif" font-size="10.00">_clock</text>
</a>
</g>
</g>
<!-- Node7&#45;&gt;Node47 -->
<g id="edge57" class="edge"><title>Node7&#45;&gt;Node47</title>
<path fill="none" stroke="midnightblue" d="M534.725,-461.501C551.175,-476.473 584.931,-505.913 617,-526 622.794,-529.629 629.096,-533.116 635.399,-536.348"/>
<polygon fill="midnightblue" stroke="midnightblue" points="634.061,-539.591 644.576,-540.886 637.164,-533.316 634.061,-539.591"/>
</g>
<!-- Node9 -->
<g id="node9" class="node"><title>Node9</title>
<g id="a_node9"><a xlink:href="$namespaceAP__HAL.html#a71832f03d849a0c088f04fc98d3c8143" xlink:title="AP_HAL::panic">
<polygon fill="white" stroke="black" points="805,-309.5 805,-328.5 889,-328.5 889,-309.5 805,-309.5"/>
<text text-anchor="middle" x="847" y="-316.5" font-family="Helvetica,sans-Serif" font-size="10.00">AP_HAL::panic</text>
</a>
</g>
</g>
<!-- Node8&#45;&gt;Node9 -->
<g id="edge8" class="edge"><title>Node8&#45;&gt;Node9</title>
<path fill="none" stroke="midnightblue" d="M729.197,-221.638C734.884,-224.085 740.324,-227.153 745,-231 771.408,-252.725 754.652,-277.201 781,-299 785.264,-302.528 790.146,-305.435 795.277,-307.829"/>
<polygon fill="midnightblue" stroke="midnightblue" points="794.116,-311.134 804.7,-311.609 796.722,-304.638 794.116,-311.134"/>
</g>
<!-- Node8&#45;&gt;Node14 -->
<g id="edge14" class="edge"><title>Node8&#45;&gt;Node14</title>
<path fill="none" stroke="midnightblue" d="M716.246,-221.528C725.641,-224.358 735.777,-227.614 745,-231 765.029,-238.354 786.781,-247.654 804.951,-255.807"/>
<polygon fill="midnightblue" stroke="midnightblue" points="803.545,-259.013 814.098,-259.95 806.433,-252.636 803.545,-259.013"/>
</g>
<!-- Node23 -->
<g id="node23" class="node"><title>Node23</title>
<g id="a_node23"><a xlink:href="$classLinux_1_1Scheduler.html#a163eb7b285c95b1b1d036fc61d723910" xlink:title="Linux::Scheduler::\l_debug_stack">
<polygon fill="white" stroke="black" points="799.5,-185 799.5,-215 894.5,-215 894.5,-185 799.5,-185"/>
<text text-anchor="start" x="807.5" y="-203" font-family="Helvetica,sans-Serif" font-size="10.00">Linux::Scheduler::</text>
<text text-anchor="middle" x="847" y="-192" font-family="Helvetica,sans-Serif" font-size="10.00">_debug_stack</text>
</a>
</g>
</g>
<!-- Node8&#45;&gt;Node23 -->
<g id="edge23" class="edge"><title>Node8&#45;&gt;Node23</title>
<path fill="none" stroke="midnightblue" d="M735.246,-208.104C752.525,-206.84 771.754,-205.433 789.276,-204.151"/>
<polygon fill="midnightblue" stroke="midnightblue" points="789.651,-207.633 799.368,-203.412 789.14,-200.651 789.651,-207.633"/>
</g>
<!-- Node10 -->
<g id="node10" class="node"><title>Node10</title>
<g id="a_node10"><a xlink:href="$classAP__HAL_1_1RCInput.html#a2bea13d38f2b9ae8bf5193a3a69f0a31" xlink:title="AP_HAL::RCInput::teardown">
<polygon fill="white" stroke="black" points="949,-291.5 949,-310.5 1092,-310.5 1092,-291.5 949,-291.5"/>
<text text-anchor="middle" x="1020.5" y="-298.5" font-family="Helvetica,sans-Serif" font-size="10.00">AP_HAL::RCInput::teardown</text>
</a>
</g>
</g>
<!-- Node9&#45;&gt;Node10 -->
<g id="edge9" class="edge"><title>Node9&#45;&gt;Node10</title>
<path fill="none" stroke="midnightblue" d="M889.079,-314.689C904.072,-313.115 921.594,-311.276 938.84,-309.466"/>
<polygon fill="midnightblue" stroke="midnightblue" points="939.361,-312.93 948.941,-308.406 938.63,-305.969 939.361,-312.93"/>
</g>
<!-- Node13 -->
<g id="node13" class="node"><title>Node13</title>
<g id="a_node13"><a xlink:href="$classAP__HAL_1_1Scheduler.html#a78c4f1b1f192ac1c99544b6cc8f099b0" xlink:title="AP_HAL::Scheduler::\ldelay_microseconds">
<polygon fill="white" stroke="black" points="1134,-479 1134,-509 1244,-509 1244,-479 1134,-479"/>
<text text-anchor="start" x="1142" y="-497" font-family="Helvetica,sans-Serif" font-size="10.00">AP_HAL::Scheduler::</text>
<text text-anchor="middle" x="1189" y="-486" font-family="Helvetica,sans-Serif" font-size="10.00">delay_microseconds</text>
</a>
</g>
</g>
<!-- Node9&#45;&gt;Node13 -->
<g id="edge13" class="edge"><title>Node9&#45;&gt;Node13</title>
<path fill="none" stroke="midnightblue" d="M889.034,-326.022C897.522,-328.787 906,-332.638 913,-338 937.386,-356.68 925.59,-377.111 949,-397 999.817,-440.172 1072.38,-465.939 1124.19,-479.942"/>
<polygon fill="midnightblue" stroke="midnightblue" points="1123.38,-483.347 1133.94,-482.504 1125.16,-476.577 1123.38,-483.347"/>
</g>
<!-- Node10&#45;&gt;Node3 -->
<g id="edge12" class="edge"><title>Node10&#45;&gt;Node3</title>
<path fill="none" stroke="midnightblue" d="M1043.31,-291.348C1064.69,-282.041 1098.3,-267.816 1128,-257 1133.93,-254.841 1140.24,-252.689 1146.45,-250.651"/>
<polygon fill="midnightblue" stroke="midnightblue" points="1147.62,-253.951 1156.07,-247.557 1145.48,-247.287 1147.62,-253.951"/>
</g>
<!-- Node11 -->
<g id="node11" class="node"><title>Node11</title>
<g id="a_node11"><a xlink:href="$classAP__HAL_1_1RCInput.html#aee1fade33080edef83dd7db0fad0f7da" xlink:title="AP_HAL::RCInput::new\l_input">
<polygon fill="white" stroke="black" points="1128,-316 1128,-346 1250,-346 1250,-316 1128,-316"/>
<text text-anchor="start" x="1136" y="-334" font-family="Helvetica,sans-Serif" font-size="10.00">AP_HAL::RCInput::new</text>
<text text-anchor="middle" x="1189" y="-323" font-family="Helvetica,sans-Serif" font-size="10.00">_input</text>
</a>
</g>
</g>
<!-- Node10&#45;&gt;Node11 -->
<g id="edge10" class="edge"><title>Node10&#45;&gt;Node11</title>
<path fill="none" stroke="midnightblue" d="M1074.64,-310.575C1088.4,-313.055 1103.44,-315.763 1117.92,-318.374"/>
<polygon fill="midnightblue" stroke="midnightblue" points="1117.38,-321.832 1127.84,-320.161 1118.62,-314.943 1117.38,-321.832"/>
</g>
<!-- Node12 -->
<g id="node12" class="node"><title>Node12</title>
<g id="a_node12"><a xlink:href="$classAP__HAL_1_1RCInput.html#ae55f959c6115c1f41783af3a2b6c4fcd" xlink:title="AP_HAL::RCInput::num\l_channels">
<polygon fill="white" stroke="black" points="1128,-267 1128,-297 1250,-297 1250,-267 1128,-267"/>
<text text-anchor="start" x="1136" y="-285" font-family="Helvetica,sans-Serif" font-size="10.00">AP_HAL::RCInput::num</text>
<text text-anchor="middle" x="1189" y="-274" font-family="Helvetica,sans-Serif" font-size="10.00">_channels</text>
</a>
</g>
</g>
<!-- Node10&#45;&gt;Node12 -->
<g id="edge11" class="edge"><title>Node10&#45;&gt;Node12</title>
<path fill="none" stroke="midnightblue" d="M1092.11,-292.942C1100.55,-291.979 1109.18,-290.995 1117.62,-290.032"/>
<polygon fill="midnightblue" stroke="midnightblue" points="1118.26,-293.481 1127.8,-288.87 1117.47,-286.526 1118.26,-293.481"/>
</g>
<!-- Node14&#45;&gt;Node15 -->
<g id="edge15" class="edge"><title>Node14&#45;&gt;Node15</title>
<path fill="none" stroke="midnightblue" d="M891.266,-290.054C898.647,-293.069 906.139,-296.421 913,-300 941.175,-314.698 970.953,-335.318 991.836,-350.727"/>
<polygon fill="midnightblue" stroke="midnightblue" points="989.826,-353.594 999.934,-356.77 994.013,-347.984 989.826,-353.594"/>
</g>
<!-- Node16 -->
<g id="node16" class="node"><title>Node16</title>
<g id="a_node16"><a xlink:href="$classAP__HAL_1_1UARTDriver.html#aa8abfb6d6641299472c29ac1edde559f" xlink:title="AP_HAL::UARTDriver\l::vprintf">
<polygon fill="white" stroke="black" points="1131.5,-365 1131.5,-395 1246.5,-395 1246.5,-365 1131.5,-365"/>
<text text-anchor="start" x="1139.5" y="-383" font-family="Helvetica,sans-Serif" font-size="10.00">AP_HAL::UARTDriver</text>
<text text-anchor="middle" x="1189" y="-372" font-family="Helvetica,sans-Serif" font-size="10.00">::vprintf</text>
</a>
</g>
</g>
<!-- Node15&#45;&gt;Node16 -->
<g id="edge16" class="edge"><title>Node15&#45;&gt;Node16</title>
<path fill="none" stroke="midnightblue" d="M1078.33,-374.731C1092.13,-375.394 1107.01,-376.108 1121.22,-376.791"/>
<polygon fill="midnightblue" stroke="midnightblue" points="1121.27,-380.297 1131.42,-377.282 1121.6,-373.306 1121.27,-380.297"/>
</g>
<!-- Node17 -->
<g id="node17" class="node"><title>Node17</title>
<g id="a_node17"><a xlink:href="$print__vprintf_8cpp.html#a1534eaeab54696df96975b56d9f49212" xlink:title="print_vprintf">
<polygon fill="white" stroke="black" points="1317,-370.5 1317,-389.5 1385,-389.5 1385,-370.5 1317,-370.5"/>
<text text-anchor="middle" x="1351" y="-377.5" font-family="Helvetica,sans-Serif" font-size="10.00">print_vprintf</text>
</a>
</g>
</g>
<!-- Node16&#45;&gt;Node17 -->
<g id="edge17" class="edge"><title>Node16&#45;&gt;Node17</title>
<path fill="none" stroke="midnightblue" d="M1246.86,-380C1266.47,-380 1288.12,-380 1306.49,-380"/>
<polygon fill="midnightblue" stroke="midnightblue" points="1306.61,-383.5 1316.61,-380 1306.61,-376.5 1306.61,-383.5"/>
</g>
<!-- Node18 -->
<g id="node18" class="node"><title>Node18</title>
<g id="a_node18"><a xlink:href="$classAP__HAL_1_1Print.html#acc65391952a43334f8f5c9bef341f501" xlink:title="AP_HAL::Print::write">
<polygon fill="white" stroke="black" points="1469.5,-294.5 1469.5,-313.5 1577.5,-313.5 1577.5,-294.5 1469.5,-294.5"/>
<text text-anchor="middle" x="1523.5" y="-301.5" font-family="Helvetica,sans-Serif" font-size="10.00">AP_HAL::Print::write</text>
</a>
</g>
</g>
<!-- Node17&#45;&gt;Node18 -->
<g id="edge18" class="edge"><title>Node17&#45;&gt;Node18</title>
<path fill="none" stroke="midnightblue" d="M1365.99,-370.491C1384.81,-358.063 1419.66,-336.317 1452,-323 1457.85,-320.592 1464.09,-318.402 1470.36,-316.435"/>
<polygon fill="midnightblue" stroke="midnightblue" points="1471.57,-319.726 1480.16,-313.529 1469.58,-313.014 1471.57,-319.726"/>
</g>
<!-- Node19 -->
<g id="node19" class="node"><title>Node19</title>
<g id="a_node19"><a xlink:href="$ftoa__engine_8cpp.html#a1c28234da8f20b43c85890d4bb452947" xlink:title="ftoa_engine">
<polygon fill="white" stroke="black" points="1490,-446.5 1490,-465.5 1557,-465.5 1557,-446.5 1490,-446.5"/>
<text text-anchor="middle" x="1523.5" y="-453.5" font-family="Helvetica,sans-Serif" font-size="10.00">ftoa_engine</text>
</a>
</g>
</g>
<!-- Node17&#45;&gt;Node19 -->
<g id="edge19" class="edge"><title>Node17&#45;&gt;Node19</title>
<path fill="none" stroke="midnightblue" d="M1365.99,-389.509C1384.81,-401.937 1419.66,-423.683 1452,-437 1460.87,-440.651 1470.65,-443.804 1480.03,-446.433"/>
<polygon fill="midnightblue" stroke="midnightblue" points="1479.43,-449.895 1489.99,-449.08 1481.23,-443.129 1479.43,-449.895"/>
</g>
<!-- Node20 -->
<g id="node20" class="node"><title>Node20</title>
<g id="a_node20"><a xlink:href="$replace_8cpp.html#a880bcc7b85a09e6254691bebd5344b51" xlink:title="strnlen">
<polygon fill="white" stroke="black" points="1500.5,-408.5 1500.5,-427.5 1546.5,-427.5 1546.5,-408.5 1500.5,-408.5"/>
<text text-anchor="middle" x="1523.5" y="-415.5" font-family="Helvetica,sans-Serif" font-size="10.00">strnlen</text>
</a>
</g>
</g>
<!-- Node17&#45;&gt;Node20 -->
<g id="edge20" class="edge"><title>Node17&#45;&gt;Node20</title>
<path fill="none" stroke="midnightblue" d="M1385.28,-387.417C1415.71,-394.199 1460.42,-404.164 1490.45,-410.858"/>
<polygon fill="midnightblue" stroke="midnightblue" points="1489.9,-414.319 1500.42,-413.079 1491.42,-407.487 1489.9,-414.319"/>
</g>
<!-- Node21 -->
<g id="node21" class="node"><title>Node21</title>
<g id="a_node21"><a xlink:href="$utoa__invert_8cpp.html#a34926f552460b47c414ec4d83b32815c" xlink:title="ulltoa_invert">
<polygon fill="white" stroke="black" points="1489,-370.5 1489,-389.5 1558,-389.5 1558,-370.5 1489,-370.5"/>
<text text-anchor="middle" x="1523.5" y="-377.5" font-family="Helvetica,sans-Serif" font-size="10.00">ulltoa_invert</text>
</a>
</g>
</g>
<!-- Node17&#45;&gt;Node21 -->
<g id="edge21" class="edge"><title>Node17&#45;&gt;Node21</title>
<path fill="none" stroke="midnightblue" d="M1385.28,-380C1411.86,-380 1449.35,-380 1478.43,-380"/>
<polygon fill="midnightblue" stroke="midnightblue" points="1478.72,-383.5 1488.72,-380 1478.72,-376.5 1478.72,-383.5"/>
</g>
<!-- Node22 -->
<g id="node22" class="node"><title>Node22</title>
<g id="a_node22"><a xlink:href="$utoa__invert_8cpp.html#a5d99bba8e697c1e11da489d88fca8559" xlink:title="ultoa_invert">
<polygon fill="white" stroke="black" points="1490,-332.5 1490,-351.5 1557,-351.5 1557,-332.5 1490,-332.5"/>
<text text-anchor="middle" x="1523.5" y="-339.5" font-family="Helvetica,sans-Serif" font-size="10.00">ultoa_invert</text>
</a>
</g>
</g>
<!-- Node17&#45;&gt;Node22 -->
<g id="edge22" class="edge"><title>Node17&#45;&gt;Node22</title>
<path fill="none" stroke="midnightblue" d="M1385.28,-372.583C1412.33,-366.555 1450.66,-358.011 1479.94,-351.486"/>
<polygon fill="midnightblue" stroke="midnightblue" points="1480.89,-354.861 1489.88,-349.269 1479.36,-348.028 1480.89,-354.861"/>
</g>
<!-- Node23&#45;&gt;Node6 -->
<g id="edge24" class="edge"><title>Node23&#45;&gt;Node6</title>
<path fill="none" stroke="midnightblue" d="M826.456,-184.89C807.03,-170.901 775.768,-151.083 745,-143 689.978,-128.546 667.916,-117.624 617,-143 489.892,-206.349 413.836,-375.75 391.184,-432.882"/>
<polygon fill="midnightblue" stroke="midnightblue" points="387.818,-431.881 387.47,-442.471 394.346,-434.41 387.818,-431.881"/>
</g>
<!-- Node24 -->
<g id="node24" class="node"><title>Node24</title>
<g id="a_node24"><a xlink:href="$classLinux_1_1Thread.html#a6884970a0811ae21953c57fb98aa6e96" xlink:title="Linux::Thread::get\l_stack_usage">
<polygon fill="white" stroke="black" points="1939,-301 1939,-331 2034,-331 2034,-301 1939,-301"/>
<text text-anchor="start" x="1947" y="-319" font-family="Helvetica,sans-Serif" font-size="10.00">Linux::Thread::get</text>
<text text-anchor="middle" x="1986.5" y="-308" font-family="Helvetica,sans-Serif" font-size="10.00">_stack_usage</text>
</a>
</g>
</g>
<!-- Node23&#45;&gt;Node24 -->
<g id="edge25" class="edge"><title>Node23&#45;&gt;Node24</title>
<path fill="none" stroke="midnightblue" d="M894.747,-200C960.29,-200 1083.23,-200 1188,-200 1188,-200 1188,-200 1687.5,-200 1791.41,-200 1902.68,-262.01 1954.99,-295.353"/>
<polygon fill="midnightblue" stroke="midnightblue" points="1953.17,-298.343 1963.47,-300.835 1956.97,-292.465 1953.17,-298.343"/>
</g>
<!-- Node25&#45;&gt;Node6 -->
<g id="edge27" class="edge"><title>Node25&#45;&gt;Node6</title>
<path fill="none" stroke="midnightblue" d="M646.605,-710.405C636.629,-706.732 625.97,-701.957 617,-696 517.694,-630.052 429.02,-514.744 396.839,-470.242"/>
<polygon fill="midnightblue" stroke="midnightblue" points="399.511,-467.96 390.846,-461.863 393.818,-472.033 399.511,-467.96"/>
</g>
<!-- Node26 -->
<g id="node26" class="node"><title>Node26</title>
<g id="a_node26"><a xlink:href="$classLinux_1_1Scheduler.html#a647872aff158b510c56862f51f951538" xlink:title="Linux::Scheduler::microsleep">
<polygon fill="white" stroke="black" points="1452,-707.5 1452,-726.5 1595,-726.5 1595,-707.5 1452,-707.5"/>
<text text-anchor="middle" x="1523.5" y="-714.5" font-family="Helvetica,sans-Serif" font-size="10.00">Linux::Scheduler::microsleep</text>
</a>
</g>
</g>
<!-- Node25&#45;&gt;Node26 -->
<g id="edge28" class="edge"><title>Node25&#45;&gt;Node26</title>
<path fill="none" stroke="midnightblue" d="M740.768,-719.79C888.067,-719.264 1273.25,-717.89 1441.68,-717.288"/>
<polygon fill="midnightblue" stroke="midnightblue" points="1441.75,-720.788 1451.73,-717.253 1441.72,-713.788 1441.75,-720.788"/>
</g>
<!-- Node27&#45;&gt;Node26 -->
<g id="edge30" class="edge"><title>Node27&#45;&gt;Node26</title>
<path fill="none" stroke="midnightblue" d="M1382.88,-649.031C1414.22,-664.29 1462.4,-687.744 1493.18,-702.726"/>
<polygon fill="midnightblue" stroke="midnightblue" points="1491.99,-706.041 1502.51,-707.271 1495.06,-699.747 1491.99,-706.041"/>
</g>
<!-- Node29&#45;&gt;Node15 -->
<g id="edge34" class="edge"><title>Node29&#45;&gt;Node15</title>
<path fill="none" stroke="midnightblue" d="M891.277,-416.859C914.214,-408.835 942.575,-398.912 966.788,-390.442"/>
<polygon fill="midnightblue" stroke="midnightblue" points="968.251,-393.638 976.535,-387.032 965.94,-387.03 968.251,-393.638"/>
</g>
<!-- Node31 -->
<g id="node31" class="node"><title>Node31</title>
<g id="a_node31"><a xlink:href="$classLinux_1_1Semaphore.html#afc4c8706abb7e68aa4001ea372dc614e" xlink:title="Linux::Semaphore::take">
<polygon fill="white" stroke="black" points="960.5,-628.5 960.5,-647.5 1080.5,-647.5 1080.5,-628.5 960.5,-628.5"/>
<text text-anchor="middle" x="1020.5" y="-635.5" font-family="Helvetica,sans-Serif" font-size="10.00">Linux::Semaphore::take</text>
</a>
</g>
</g>
<!-- Node30&#45;&gt;Node31 -->
<g id="edge36" class="edge"><title>Node30&#45;&gt;Node31</title>
<path fill="none" stroke="midnightblue" d="M913.326,-638C925.38,-638 938.006,-638 950.174,-638"/>
<polygon fill="midnightblue" stroke="midnightblue" points="950.265,-641.5 960.265,-638 950.265,-634.5 950.265,-641.5"/>
</g>
<!-- Node31&#45;&gt;Node13 -->
<g id="edge48" class="edge"><title>Node31&#45;&gt;Node13</title>
<path fill="none" stroke="midnightblue" d="M1032.68,-628.328C1059.12,-605.464 1126,-547.618 1162.79,-515.803"/>
<polygon fill="midnightblue" stroke="midnightblue" points="1165.32,-518.246 1170.59,-509.057 1160.74,-512.951 1165.32,-518.246"/>
</g>
<!-- Node32 -->
<g id="node32" class="node"><title>Node32</title>
<g id="a_node32"><a xlink:href="$classLinux_1_1Semaphore.html#a561b4f40f3a76335f1a686c2aed526f9" xlink:title="Linux::Semaphore::take\l_nonblocking">
<polygon fill="white" stroke="black" points="1129,-623 1129,-653 1249,-653 1249,-623 1129,-623"/>
<text text-anchor="start" x="1137" y="-641" font-family="Helvetica,sans-Serif" font-size="10.00">Linux::Semaphore::take</text>
<text text-anchor="middle" x="1189" y="-630" font-family="Helvetica,sans-Serif" font-size="10.00">_nonblocking</text>
</a>
</g>
</g>
<!-- Node31&#45;&gt;Node32 -->
<g id="edge37" class="edge"><title>Node31&#45;&gt;Node32</title>
<path fill="none" stroke="midnightblue" d="M1080.67,-638C1092.99,-638 1106.07,-638 1118.72,-638"/>
<polygon fill="midnightblue" stroke="midnightblue" points="1118.74,-641.5 1128.74,-638 1118.74,-634.5 1118.74,-641.5"/>
</g>
<!-- Node33 -->
<g id="node33" class="node"><title>Node33</title>
<g id="a_node33"><a xlink:href="$namespaceAP__HAL.html#a7aa0ce7625c9680e30ff4a99940907a5" xlink:title="AP_HAL::micros64">
<polygon fill="white" stroke="black" points="1138.5,-672.5 1138.5,-691.5 1239.5,-691.5 1239.5,-672.5 1138.5,-672.5"/>
<text text-anchor="middle" x="1189" y="-679.5" font-family="Helvetica,sans-Serif" font-size="10.00">AP_HAL::micros64</text>
</a>
</g>
</g>
<!-- Node31&#45;&gt;Node33 -->
<g id="edge38" class="edge"><title>Node31&#45;&gt;Node33</title>
<path fill="none" stroke="midnightblue" d="M1057.63,-647.547C1082.39,-654.092 1115.45,-662.828 1142.08,-669.865"/>
<polygon fill="midnightblue" stroke="midnightblue" points="1141.38,-673.3 1151.94,-672.471 1143.17,-666.532 1141.38,-673.3"/>
</g>
<!-- Node33&#45;&gt;Node7 -->
<g id="edge39" class="edge"><title>Node33&#45;&gt;Node7</title>
<path fill="none" stroke="midnightblue" d="M1138.27,-685.412C1014.76,-692.853 698.161,-705.303 617,-644 583.608,-618.779 598.937,-594.807 581,-557 566.292,-526.001 546.945,-491.126 535.131,-470.39"/>
<polygon fill="midnightblue" stroke="midnightblue" points="538.144,-468.608 530.134,-461.673 532.071,-472.09 538.144,-468.608"/>
</g>
<!-- Node33&#45;&gt;Node34 -->
<g id="edge40" class="edge"><title>Node33&#45;&gt;Node34</title>
<path fill="none" stroke="midnightblue" d="M1209.3,-691.529C1234.19,-703.818 1278.09,-725.495 1310.25,-741.375"/>
<polygon fill="midnightblue" stroke="midnightblue" points="1308.89,-744.605 1319.41,-745.894 1311.99,-738.328 1308.89,-744.605"/>
</g>
<!-- Node34&#45;&gt;Node26 -->
<g id="edge41" class="edge"><title>Node34&#45;&gt;Node26</title>
<path fill="none" stroke="midnightblue" d="M1410.2,-745.981C1431.57,-740.465 1455.48,-734.296 1475.72,-729.072"/>
<polygon fill="midnightblue" stroke="midnightblue" points="1476.83,-732.4 1485.64,-726.512 1475.08,-725.622 1476.83,-732.4"/>
</g>
<!-- Node35 -->
<g id="node35" class="node"><title>Node35</title>
<g id="a_node35"><a xlink:href="$classLinux_1_1Scheduler.html#ab373a83d818679432520ea881044b2a7" xlink:title="Linux::Scheduler::teardown">
<polygon fill="white" stroke="black" points="1456,-748.5 1456,-767.5 1591,-767.5 1591,-748.5 1456,-748.5"/>
<text text-anchor="middle" x="1523.5" y="-755.5" font-family="Helvetica,sans-Serif" font-size="10.00">Linux::Scheduler::teardown</text>
</a>
</g>
</g>
<!-- Node34&#45;&gt;Node35 -->
<g id="edge42" class="edge"><title>Node34&#45;&gt;Node35</title>
<path fill="none" stroke="midnightblue" d="M1416.46,-759.866C1426.05,-759.697 1436.01,-759.522 1445.82,-759.349"/>
<polygon fill="midnightblue" stroke="midnightblue" points="1446.03,-762.846 1455.96,-759.171 1445.9,-755.847 1446.03,-762.846"/>
</g>
<!-- Node36 -->
<g id="node36" class="node"><title>Node36</title>
<g id="a_node36"><a xlink:href="$classLinux_1_1PeriodicThread.html#a136aaf6e713f63b246fc4a2905e6e9a1" xlink:title="Linux::PeriodicThread\l::stop">
<polygon fill="white" stroke="black" points="1631,-467 1631,-497 1742,-497 1742,-467 1631,-467"/>
<text text-anchor="start" x="1639" y="-485" font-family="Helvetica,sans-Serif" font-size="10.00">Linux::PeriodicThread</text>
<text text-anchor="middle" x="1686.5" y="-474" font-family="Helvetica,sans-Serif" font-size="10.00">::stop</text>
</a>
</g>
</g>
<!-- Node35&#45;&gt;Node36 -->
<g id="edge43" class="edge"><title>Node35&#45;&gt;Node36</title>
<path fill="none" stroke="midnightblue" d="M1575.44,-748.433C1582.63,-745.371 1589.45,-741.33 1595,-736 1661.04,-672.54 1679,-557.726 1683.79,-507.116"/>
<polygon fill="midnightblue" stroke="midnightblue" points="1687.29,-507.319 1684.65,-497.058 1680.31,-506.725 1687.29,-507.319"/>
</g>
<!-- Node39 -->
<g id="node39" class="node"><title>Node39</title>
<g id="a_node39"><a xlink:href="$classLinux_1_1Thread.html#a32b7d184279634922e2f3b23b584fbcd" xlink:title="Linux::Thread::join">
<polygon fill="white" stroke="black" points="1638,-748.5 1638,-767.5 1735,-767.5 1735,-748.5 1638,-748.5"/>
<text text-anchor="middle" x="1686.5" y="-755.5" font-family="Helvetica,sans-Serif" font-size="10.00">Linux::Thread::join</text>
</a>
</g>
</g>
<!-- Node35&#45;&gt;Node39 -->
<g id="edge47" class="edge"><title>Node35&#45;&gt;Node39</title>
<path fill="none" stroke="midnightblue" d="M1591.38,-758C1603.41,-758 1615.85,-758 1627.6,-758"/>
<polygon fill="midnightblue" stroke="midnightblue" points="1627.72,-761.5 1637.72,-758 1627.72,-754.5 1627.72,-761.5"/>
</g>
<!-- Node37 -->
<g id="node37" class="node"><title>Node37</title>
<g id="a_node37"><a xlink:href="$classLinux_1_1Thread.html#a240d7b48a9a8eb43638f67295a1819e5" xlink:title="Linux::Thread::is_started">
<polygon fill="white" stroke="black" points="1778,-413.5 1778,-432.5 1903,-432.5 1903,-413.5 1778,-413.5"/>
<text text-anchor="middle" x="1840.5" y="-420.5" font-family="Helvetica,sans-Serif" font-size="10.00">Linux::Thread::is_started</text>
</a>
</g>
</g>
<!-- Node36&#45;&gt;Node37 -->
<g id="edge44" class="edge"><title>Node36&#45;&gt;Node37</title>
<path fill="none" stroke="midnightblue" d="M1726.25,-466.959C1750.57,-457.519 1781.65,-445.455 1805.1,-436.354"/>
<polygon fill="midnightblue" stroke="midnightblue" points="1806.58,-439.532 1814.64,-432.651 1804.05,-433.007 1806.58,-439.532"/>
</g>
<!-- Node37&#45;&gt;Node24 -->
<g id="edge45" class="edge"><title>Node37&#45;&gt;Node24</title>
<path fill="none" stroke="midnightblue" d="M1854.53,-413.316C1877.44,-396.294 1925.44,-360.628 1956.53,-337.526"/>
<polygon fill="midnightblue" stroke="midnightblue" points="1958.88,-340.142 1964.82,-331.369 1954.7,-334.524 1958.88,-340.142"/>
</g>
<!-- Node38 -->
<g id="node38" class="node"><title>Node38</title>
<g id="a_node38"><a xlink:href="$classLinux_1_1Thread.html#a8d3282b714faaf68eae534e9276419f0" xlink:title="Linux::Thread::set\l_stack_size">
<polygon fill="white" stroke="black" points="1939,-408 1939,-438 2034,-438 2034,-408 1939,-408"/>
<text text-anchor="start" x="1947" y="-426" font-family="Helvetica,sans-Serif" font-size="10.00">Linux::Thread::set</text>
<text text-anchor="middle" x="1986.5" y="-415" font-family="Helvetica,sans-Serif" font-size="10.00">_stack_size</text>
</a>
</g>
</g>
<!-- Node37&#45;&gt;Node38 -->
<g id="edge46" class="edge"><title>Node37&#45;&gt;Node38</title>
<path fill="none" stroke="midnightblue" d="M1903.4,-423C1911.86,-423 1920.5,-423 1928.86,-423"/>
<polygon fill="midnightblue" stroke="midnightblue" points="1928.87,-426.5 1938.87,-423 1928.87,-419.5 1928.87,-426.5"/>
</g>
<!-- Node41 -->
<g id="node41" class="node"><title>Node41</title>
<g id="a_node41"><a xlink:href="$classLinux_1_1Semaphore.html#a216f91636f64b57b59d43ef64af91624" xlink:title="Linux::Semaphore::give">
<polygon fill="white" stroke="black" points="961,-515.5 961,-534.5 1080,-534.5 1080,-515.5 961,-515.5"/>
<text text-anchor="middle" x="1020.5" y="-522.5" font-family="Helvetica,sans-Serif" font-size="10.00">Linux::Semaphore::give</text>
</a>
</g>
</g>
<!-- Node40&#45;&gt;Node41 -->
<g id="edge50" class="edge"><title>Node40&#45;&gt;Node41</title>
<path fill="none" stroke="midnightblue" d="M911.373,-509.869C924.172,-511.66 937.687,-513.551 950.663,-515.367"/>
<polygon fill="midnightblue" stroke="midnightblue" points="950.542,-518.884 960.931,-516.804 951.513,-511.952 950.542,-518.884"/>
</g>
<!-- Node44&#45;&gt;Node9 -->
<g id="edge54" class="edge"><title>Node44&#45;&gt;Node9</title>
<path fill="none" stroke="midnightblue" d="M745.407,-326.974C761.518,-325.697 778.641,-324.339 794.105,-323.114"/>
<polygon fill="midnightblue" stroke="midnightblue" points="794.821,-326.568 804.513,-322.289 794.268,-319.59 794.821,-326.568"/>
</g>
<!-- Node45 -->
<g id="node45" class="node"><title>Node45</title>
<g id="a_node45"><a xlink:href="$classLinux_1_1Scheduler.html#ac52c8da3f1f4fd79c50bd64379daf399" xlink:title="Linux::Scheduler::\l_wait_all_threads">
<polygon fill="white" stroke="black" points="799.5,-348 799.5,-378 894.5,-378 894.5,-348 799.5,-348"/>
<text text-anchor="start" x="807.5" y="-366" font-family="Helvetica,sans-Serif" font-size="10.00">Linux::Scheduler::</text>
<text text-anchor="middle" x="847" y="-355" font-family="Helvetica,sans-Serif" font-size="10.00">_wait_all_threads</text>
</a>
</g>
</g>
<!-- Node44&#45;&gt;Node45 -->
<g id="edge55" class="edge"><title>Node44&#45;&gt;Node45</title>
<path fill="none" stroke="midnightblue" d="M745.407,-343.985C759.84,-346.714 775.085,-349.595 789.222,-352.268"/>
<polygon fill="midnightblue" stroke="midnightblue" points="788.817,-355.753 799.293,-354.171 790.117,-348.875 788.817,-355.753"/>
</g>
<!-- Node48 -->
<g id="node48" class="node"><title>Node48</title>
<g id="a_node48"><a xlink:href="$classLinux_1_1Scheduler.html#a70b024d7d0886bf47b46cc3ee310d638" xlink:title="Linux::Scheduler::\l_run_io">
<polygon fill="white" stroke="black" points="799.5,-535 799.5,-565 894.5,-565 894.5,-535 799.5,-535"/>
<text text-anchor="start" x="807.5" y="-553" font-family="Helvetica,sans-Serif" font-size="10.00">Linux::Scheduler::</text>
<text text-anchor="middle" x="847" y="-542" font-family="Helvetica,sans-Serif" font-size="10.00">_run_io</text>
</a>
</g>
</g>
<!-- Node47&#45;&gt;Node48 -->
<g id="edge58" class="edge"><title>Node47&#45;&gt;Node48</title>
<path fill="none" stroke="midnightblue" d="M738.439,-553.935C754.86,-553.334 772.799,-552.678 789.239,-552.077"/>
<polygon fill="midnightblue" stroke="midnightblue" points="789.389,-555.574 799.255,-551.71 789.133,-548.578 789.389,-555.574"/>
</g>
<!-- Node48&#45;&gt;Node31 -->
<g id="edge59" class="edge"><title>Node48&#45;&gt;Node31</title>
<path fill="none" stroke="midnightblue" d="M877.482,-565.128C909.595,-581.606 960.558,-607.756 991.907,-623.842"/>
<polygon fill="midnightblue" stroke="midnightblue" points="990.469,-627.038 1000.96,-628.489 993.665,-620.81 990.469,-627.038"/>
</g>
<!-- Node48&#45;&gt;Node41 -->
<g id="edge60" class="edge"><title>Node48&#45;&gt;Node41</title>
<path fill="none" stroke="midnightblue" d="M894.863,-543.169C912.097,-540.656 931.989,-537.757 950.75,-535.022"/>
<polygon fill="midnightblue" stroke="midnightblue" points="951.344,-538.472 960.734,-533.566 950.334,-531.546 951.344,-538.472"/>
</g>
</g>
</svg>
