<?xml version="1.0" encoding="UTF-8" standalone="no"?>
<!DOCTYPE svg PUBLIC "-//W3C//DTD SVG 1.1//EN"
 "http://www.w3.org/Graphics/SVG/1.1/DTD/svg11.dtd">
<!-- Generated by graphviz version 2.38.0 (20140413.2041)
 -->
<!-- Title: Polygon_outside Pages: 1 -->
<svg width="1423pt" height="339pt"
 viewBox="0.00 0.00 1423.00 338.81" xmlns="http://www.w3.org/2000/svg" xmlns:xlink="http://www.w3.org/1999/xlink">
<g id="graph0" class="graph" transform="scale(1 1) rotate(0) translate(4 334.809)">
<title>Polygon_outside</title>
<polygon fill="white" stroke="none" points="-4,4 -4,-334.809 1419,-334.809 1419,4 -4,4"/>
<!-- Node1 -->
<g id="node1" class="node"><title>Node1</title>
<polygon fill="#bfbfbf" stroke="black" points="0,-46.809 0,-65.809 89,-65.809 89,-46.809 0,-46.809"/>
<text text-anchor="middle" x="44.5" y="-53.809" font-family="Helvetica,sans-Serif" font-size="10.00">Polygon_outside</text>
</g>
<!-- Node2 -->
<g id="node2" class="node"><title>Node2</title>
<g id="a_node2"><a xlink:href="$classAC__PolyFence__loader.html#a91a6b4c5611590d524eacac2c2aeec3a" xlink:title="AC_PolyFence_loader\l::boundary_breached">
<polygon fill="white" stroke="black" points="125,-112.309 125,-142.309 239,-142.309 239,-112.309 125,-112.309"/>
<text text-anchor="start" x="133" y="-130.309" font-family="Helvetica,sans-Serif" font-size="10.00">AC_PolyFence_loader</text>
<text text-anchor="middle" x="182" y="-119.309" font-family="Helvetica,sans-Serif" font-size="10.00">::boundary_breached</text>
</a>
</g>
</g>
<!-- Node1&#45;&gt;Node2 -->
<g id="edge1" class="edge"><title>Node1&#45;&gt;Node2</title>
<path fill="none" stroke="midnightblue" d="M72.6794,-70.5506C95.7111,-82.6189 128.645,-99.876 152.142,-112.188"/>
<polygon fill="midnightblue" stroke="midnightblue" points="74.2563,-67.4256 63.7741,-65.8844 71.0073,-73.626 74.2563,-67.4256"/>
</g>
<!-- Node19 -->
<g id="node19" class="node"><title>Node19</title>
<g id="a_node19"><a xlink:href="$classAC__PolyFence__loader.html#a75bbdb5a39181afbe1e657355c5bd6c9" xlink:title="AC_PolyFence_loader\l::boundary_valid">
<polygon fill="white" stroke="black" points="125,-41.309 125,-71.309 239,-71.309 239,-41.309 125,-41.309"/>
<text text-anchor="start" x="133" y="-59.309" font-family="Helvetica,sans-Serif" font-size="10.00">AC_PolyFence_loader</text>
<text text-anchor="middle" x="182" y="-48.309" font-family="Helvetica,sans-Serif" font-size="10.00">::boundary_valid</text>
</a>
</g>
</g>
<!-- Node1&#45;&gt;Node19 -->
<g id="edge21" class="edge"><title>Node1&#45;&gt;Node19</title>
<path fill="none" stroke="midnightblue" d="M99.1357,-56.309C107.5,-56.309 116.164,-56.309 124.587,-56.309"/>
<polygon fill="midnightblue" stroke="midnightblue" points="99.1189,-52.8091 89.1189,-56.309 99.1189,-59.8091 99.1189,-52.8091"/>
</g>
<!-- Node21 -->
<g id="node21" class="node"><title>Node21</title>
<g id="a_node21"><a xlink:href="$examples_2polygon_2polygon_8cpp.html#a4fc01d736fe50cf5b977f755b675f11d" xlink:title="setup">
<polygon fill="white" stroke="black" points="161.5,-2.80904 161.5,-21.809 202.5,-21.809 202.5,-2.80904 161.5,-2.80904"/>
<text text-anchor="middle" x="182" y="-9.80904" font-family="Helvetica,sans-Serif" font-size="10.00">setup</text>
</a>
</g>
</g>
<!-- Node1&#45;&gt;Node21 -->
<g id="edge26" class="edge"><title>Node1&#45;&gt;Node21</title>
<path fill="none" stroke="midnightblue" d="M84.522,-43.6377C109.644,-35.4799 141.235,-25.2217 161.279,-18.7129"/>
<polygon fill="midnightblue" stroke="midnightblue" points="83.3316,-40.3443 74.9015,-46.7617 85.4936,-47.002 83.3316,-40.3443"/>
</g>
<!-- Node3 -->
<g id="node3" class="node"><title>Node3</title>
<g id="a_node3"><a xlink:href="$classAC__Fence.html#a730e2005dc74a0a70ee16bfb9569baeb" xlink:title="AC_Fence::check_fence">
<polygon fill="white" stroke="black" points="462.5,-117.809 462.5,-136.809 587.5,-136.809 587.5,-117.809 462.5,-117.809"/>
<text text-anchor="middle" x="525" y="-124.809" font-family="Helvetica,sans-Serif" font-size="10.00">AC_Fence::check_fence</text>
</a>
</g>
</g>
<!-- Node2&#45;&gt;Node3 -->
<g id="edge2" class="edge"><title>Node2&#45;&gt;Node3</title>
<path fill="none" stroke="midnightblue" d="M249.331,-127.309C311.043,-127.309 402.276,-127.309 462.414,-127.309"/>
<polygon fill="midnightblue" stroke="midnightblue" points="249.309,-123.809 239.309,-127.309 249.309,-130.809 249.309,-123.809"/>
</g>
<!-- Node5 -->
<g id="node5" class="node"><title>Node5</title>
<g id="a_node5"><a xlink:href="$classAC__Fence.html#a1ddf2b4968acee81332875003c5ff64d" xlink:title="AC_Fence::check_destination\l_within_fence">
<polygon fill="white" stroke="black" points="275,-156.309 275,-186.309 423,-186.309 423,-156.309 275,-156.309"/>
<text text-anchor="start" x="283" y="-174.309" font-family="Helvetica,sans-Serif" font-size="10.00">AC_Fence::check_destination</text>
<text text-anchor="middle" x="349" y="-163.309" font-family="Helvetica,sans-Serif" font-size="10.00">_within_fence</text>
</a>
</g>
</g>
<!-- Node2&#45;&gt;Node5 -->
<g id="edge4" class="edge"><title>Node2&#45;&gt;Node5</title>
<path fill="none" stroke="midnightblue" d="M249.386,-145.012C263.397,-148.748 278.053,-152.656 291.652,-156.283"/>
<polygon fill="midnightblue" stroke="midnightblue" points="249.886,-141.523 239.322,-142.328 248.083,-148.287 249.886,-141.523"/>
</g>
<!-- Node6 -->
<g id="node6" class="node"><title>Node6</title>
<g id="a_node6"><a xlink:href="$classAC__Fence.html#a9ab2e92431697e0f47896edce9e87cf9" xlink:title="returns true if we&#39;ve breached the polygon boundary. simple passthrough to underlying _poly_loader ob...">
<polygon fill="white" stroke="black" points="294.5,-205.309 294.5,-235.309 403.5,-235.309 403.5,-205.309 294.5,-205.309"/>
<text text-anchor="start" x="302.5" y="-223.309" font-family="Helvetica,sans-Serif" font-size="10.00">AC_Fence::boundary</text>
<text text-anchor="middle" x="349" y="-212.309" font-family="Helvetica,sans-Serif" font-size="10.00">_breached</text>
</a>
</g>
</g>
<!-- Node2&#45;&gt;Node6 -->
<g id="edge6" class="edge"><title>Node2&#45;&gt;Node6</title>
<path fill="none" stroke="midnightblue" d="M208.012,-149.101C225.762,-163.711 250.666,-182.541 275,-195.309 281.999,-198.981 289.649,-202.289 297.279,-205.205"/>
<polygon fill="midnightblue" stroke="midnightblue" points="209.821,-146.051 199.907,-142.314 205.326,-151.418 209.821,-146.051"/>
</g>
<!-- Node17 -->
<g id="node17" class="node"><title>Node17</title>
<g id="a_node17"><a xlink:href="$classAP__Proximity__SITL.html#ac2a76298f4b87a2694ebe0af35f1521e" xlink:title="AP_Proximity_SITL::\lget_distance_to_fence">
<polygon fill="white" stroke="black" points="291.5,-68.309 291.5,-98.309 406.5,-98.309 406.5,-68.309 291.5,-68.309"/>
<text text-anchor="start" x="299.5" y="-86.309" font-family="Helvetica,sans-Serif" font-size="10.00">AP_Proximity_SITL::</text>
<text text-anchor="middle" x="349" y="-75.309" font-family="Helvetica,sans-Serif" font-size="10.00">get_distance_to_fence</text>
</a>
</g>
</g>
<!-- Node2&#45;&gt;Node17 -->
<g id="edge19" class="edge"><title>Node2&#45;&gt;Node17</title>
<path fill="none" stroke="midnightblue" d="M249.386,-109.606C263.397,-105.87 278.053,-101.962 291.652,-98.3352"/>
<polygon fill="midnightblue" stroke="midnightblue" points="248.083,-106.331 239.322,-112.29 249.886,-113.095 248.083,-106.331"/>
</g>
<!-- Node4 -->
<g id="node4" class="node"><title>Node4</title>
<g id="a_node4"><a xlink:href="$classAC__Fence.html#acdc600f19a3e4eb6de655c26f52e0968" xlink:title="enabled &#45; returns true if fence is enabled ">
<polygon fill="white" stroke="black" points="641.5,-137.809 641.5,-156.809 744.5,-156.809 744.5,-137.809 641.5,-137.809"/>
<text text-anchor="middle" x="693" y="-144.809" font-family="Helvetica,sans-Serif" font-size="10.00">AC_Fence::enabled</text>
</a>
</g>
</g>
<!-- Node3&#45;&gt;Node4 -->
<g id="edge3" class="edge"><title>Node3&#45;&gt;Node4</title>
<path fill="none" stroke="midnightblue" d="M597.837,-135.964C612.458,-137.726 627.55,-139.544 641.254,-141.195"/>
<polygon fill="midnightblue" stroke="midnightblue" points="598.159,-132.478 587.812,-134.756 597.322,-139.427 598.159,-132.478"/>
</g>
<!-- Node5&#45;&gt;Node4 -->
<g id="edge5" class="edge"><title>Node5&#45;&gt;Node4</title>
<path fill="none" stroke="midnightblue" d="M433.6,-165.442C498.642,-160.878 586.757,-154.694 641.458,-150.856"/>
<polygon fill="midnightblue" stroke="midnightblue" points="433.098,-161.969 423.368,-166.16 433.588,-168.952 433.098,-161.969"/>
</g>
<!-- Node7 -->
<g id="node7" class="node"><title>Node7</title>
<g id="a_node7"><a xlink:href="$classAC__Avoid.html#a7e9a8c28e3f61c7e7ee3bf5afe986e4f" xlink:title="AC_Avoid::adjust_velocity\l_polygon">
<polygon fill="white" stroke="black" points="459,-251.309 459,-281.309 591,-281.309 591,-251.309 459,-251.309"/>
<text text-anchor="start" x="467" y="-269.309" font-family="Helvetica,sans-Serif" font-size="10.00">AC_Avoid::adjust_velocity</text>
<text text-anchor="middle" x="525" y="-258.309" font-family="Helvetica,sans-Serif" font-size="10.00">_polygon</text>
</a>
</g>
</g>
<!-- Node6&#45;&gt;Node7 -->
<g id="edge7" class="edge"><title>Node6&#45;&gt;Node7</title>
<path fill="none" stroke="midnightblue" d="M413.757,-237.164C431.272,-241.795 450.142,-246.783 467.235,-251.302"/>
<polygon fill="midnightblue" stroke="midnightblue" points="414.188,-233.658 403.626,-234.486 412.399,-240.426 414.188,-233.658"/>
</g>
<!-- Node16 -->
<g id="node16" class="node"><title>Node16</title>
<g id="a_node16"><a xlink:href="$classAC__Fence.html#ae37cf33a4fd250b66386253720fddbc9" xlink:title="set_home_distance &#45; update vehicle&#39;s distance from home in meters &#45; required for circular horizontal ...">
<polygon fill="white" stroke="black" points="469,-202.309 469,-232.309 581,-232.309 581,-202.309 469,-202.309"/>
<text text-anchor="start" x="477" y="-220.309" font-family="Helvetica,sans-Serif" font-size="10.00">AC_Fence::set_home</text>
<text text-anchor="middle" x="525" y="-209.309" font-family="Helvetica,sans-Serif" font-size="10.00">_distance</text>
</a>
</g>
</g>
<!-- Node6&#45;&gt;Node16 -->
<g id="edge18" class="edge"><title>Node6&#45;&gt;Node16</title>
<path fill="none" stroke="midnightblue" d="M413.761,-219.21C431.793,-218.899 451.262,-218.563 468.748,-218.262"/>
<polygon fill="midnightblue" stroke="midnightblue" points="413.564,-215.712 403.626,-219.384 413.684,-222.711 413.564,-215.712"/>
</g>
<!-- Node8 -->
<g id="node8" class="node"><title>Node8</title>
<g id="a_node8"><a xlink:href="$classAC__Avoid.html#ac02a966259c9abb5ca2e5e4ee8e72d91" xlink:title="AC_Avoid::adjust_velocity\l_polygon_fence">
<polygon fill="white" stroke="black" points="627,-202.309 627,-232.309 759,-232.309 759,-202.309 627,-202.309"/>
<text text-anchor="start" x="635" y="-220.309" font-family="Helvetica,sans-Serif" font-size="10.00">AC_Avoid::adjust_velocity</text>
<text text-anchor="middle" x="693" y="-209.309" font-family="Helvetica,sans-Serif" font-size="10.00">_polygon_fence</text>
</a>
</g>
</g>
<!-- Node7&#45;&gt;Node8 -->
<g id="edge8" class="edge"><title>Node7&#45;&gt;Node8</title>
<path fill="none" stroke="midnightblue" d="M586.868,-248.342C604.654,-243.092 623.902,-237.41 641.009,-232.361"/>
<polygon fill="midnightblue" stroke="midnightblue" points="585.76,-245.02 577.16,-251.208 587.742,-251.733 585.76,-245.02"/>
</g>
<!-- Node14 -->
<g id="node14" class="node"><title>Node14</title>
<g id="a_node14"><a xlink:href="$classAC__Avoid.html#acda5962c20c1d4c06eb2137c092e9569" xlink:title="AC_Avoid::adjust_velocity\l_beacon_fence">
<polygon fill="white" stroke="black" points="627,-300.309 627,-330.309 759,-330.309 759,-300.309 627,-300.309"/>
<text text-anchor="start" x="635" y="-318.309" font-family="Helvetica,sans-Serif" font-size="10.00">AC_Avoid::adjust_velocity</text>
<text text-anchor="middle" x="693" y="-307.309" font-family="Helvetica,sans-Serif" font-size="10.00">_beacon_fence</text>
</a>
</g>
</g>
<!-- Node7&#45;&gt;Node14 -->
<g id="edge14" class="edge"><title>Node7&#45;&gt;Node14</title>
<path fill="none" stroke="midnightblue" d="M586.868,-284.276C604.654,-289.526 623.902,-295.208 641.009,-300.257"/>
<polygon fill="midnightblue" stroke="midnightblue" points="587.742,-280.885 577.16,-281.41 585.76,-287.598 587.742,-280.885"/>
</g>
<!-- Node15 -->
<g id="node15" class="node"><title>Node15</title>
<g id="a_node15"><a xlink:href="$classAC__Avoid.html#aac95ba12099c07f5b9c6bfd5f7cee4b2" xlink:title="AC_Avoid::adjust_velocity\l_proximity">
<polygon fill="white" stroke="black" points="627,-251.309 627,-281.309 759,-281.309 759,-251.309 627,-251.309"/>
<text text-anchor="start" x="635" y="-269.309" font-family="Helvetica,sans-Serif" font-size="10.00">AC_Avoid::adjust_velocity</text>
<text text-anchor="middle" x="693" y="-258.309" font-family="Helvetica,sans-Serif" font-size="10.00">_proximity</text>
</a>
</g>
</g>
<!-- Node7&#45;&gt;Node15 -->
<g id="edge16" class="edge"><title>Node7&#45;&gt;Node15</title>
<path fill="none" stroke="midnightblue" d="M601.393,-266.309C609.869,-266.309 618.452,-266.309 626.784,-266.309"/>
<polygon fill="midnightblue" stroke="midnightblue" points="601.131,-262.809 591.131,-266.309 601.131,-269.809 601.131,-262.809"/>
</g>
<!-- Node9 -->
<g id="node9" class="node"><title>Node9</title>
<g id="a_node9"><a xlink:href="$classAC__Avoid.html#abee541d127ce0da1fe6be54f987a0779" xlink:title="AC_Avoid::adjust_velocity">
<polygon fill="white" stroke="black" points="795,-256.809 795,-275.809 927,-275.809 927,-256.809 795,-256.809"/>
<text text-anchor="middle" x="861" y="-263.809" font-family="Helvetica,sans-Serif" font-size="10.00">AC_Avoid::adjust_velocity</text>
</a>
</g>
</g>
<!-- Node8&#45;&gt;Node9 -->
<g id="edge9" class="edge"><title>Node8&#45;&gt;Node9</title>
<path fill="none" stroke="midnightblue" d="M754.798,-235.255C779.431,-242.527 806.879,-250.629 827.561,-256.734"/>
<polygon fill="midnightblue" stroke="midnightblue" points="755.742,-231.885 745.16,-232.41 753.76,-238.598 755.742,-231.885"/>
</g>
<!-- Node10 -->
<g id="node10" class="node"><title>Node10</title>
<g id="a_node10"><a xlink:href="$classAC__Avoid.html#a95e227fdefd6f8c85b4d4888cad8993f" xlink:title="AC_Avoid::adjust_velocity">
<polygon fill="white" stroke="black" points="963,-278.809 963,-297.809 1095,-297.809 1095,-278.809 963,-278.809"/>
<text text-anchor="middle" x="1029" y="-285.809" font-family="Helvetica,sans-Serif" font-size="10.00">AC_Avoid::adjust_velocity</text>
</a>
</g>
</g>
<!-- Node9&#45;&gt;Node10 -->
<g id="edge10" class="edge"><title>Node9&#45;&gt;Node10</title>
<path fill="none" stroke="midnightblue" d="M937.114,-276.264C945.681,-277.399 954.361,-278.55 962.784,-279.666"/>
<polygon fill="midnightblue" stroke="midnightblue" points="937.504,-272.785 927.131,-274.941 936.585,-279.724 937.504,-272.785"/>
</g>
<!-- Node11 -->
<g id="node11" class="node"><title>Node11</title>
<g id="a_node11"><a xlink:href="$classAC__WPNav.html#a3dbf7bda89b127cdc81bca29e2af25de" xlink:title="AC_WPNav::calc_loiter\l_desired_velocity">
<polygon fill="white" stroke="black" points="968.5,-229.309 968.5,-259.309 1089.5,-259.309 1089.5,-229.309 968.5,-229.309"/>
<text text-anchor="start" x="976.5" y="-247.309" font-family="Helvetica,sans-Serif" font-size="10.00">AC_WPNav::calc_loiter</text>
<text text-anchor="middle" x="1029" y="-236.309" font-family="Helvetica,sans-Serif" font-size="10.00">_desired_velocity</text>
</a>
</g>
</g>
<!-- Node9&#45;&gt;Node11 -->
<g id="edge11" class="edge"><title>Node9&#45;&gt;Node11</title>
<path fill="none" stroke="midnightblue" d="M937.127,-256.352C947.63,-254.961 958.303,-253.546 968.464,-252.199"/>
<polygon fill="midnightblue" stroke="midnightblue" points="936.585,-252.894 927.131,-257.677 937.504,-259.833 936.585,-252.894"/>
</g>
<!-- Node12 -->
<g id="node12" class="node"><title>Node12</title>
<g id="a_node12"><a xlink:href="$classAC__WPNav.html#a0a434270245fd8641352af387700dc82" xlink:title="update_loiter &#45; run the loiter controller &#45; should be called at 10hz ">
<polygon fill="white" stroke="black" points="1131,-234.809 1131,-253.809 1263,-253.809 1263,-234.809 1131,-234.809"/>
<text text-anchor="middle" x="1197" y="-241.809" font-family="Helvetica,sans-Serif" font-size="10.00">AC_WPNav::update_loiter</text>
</a>
</g>
</g>
<!-- Node11&#45;&gt;Node12 -->
<g id="edge12" class="edge"><title>Node11&#45;&gt;Node12</title>
<path fill="none" stroke="midnightblue" d="M1100.03,-244.309C1110.24,-244.309 1120.72,-244.309 1130.82,-244.309"/>
<polygon fill="midnightblue" stroke="midnightblue" points="1099.93,-240.809 1089.93,-244.309 1099.93,-247.809 1099.93,-240.809"/>
</g>
<!-- Node13 -->
<g id="node13" class="node"><title>Node13</title>
<g id="a_node13"><a xlink:href="$classAC__WPNav.html#ae34a88192799de8f2b96c8cd295bb971" xlink:title="get_loiter_target &#45; returns loiter target position ">
<polygon fill="white" stroke="black" points="1299,-229.309 1299,-259.309 1415,-259.309 1415,-229.309 1299,-229.309"/>
<text text-anchor="start" x="1307" y="-247.309" font-family="Helvetica,sans-Serif" font-size="10.00">AC_WPNav::get_loiter</text>
<text text-anchor="middle" x="1357" y="-236.309" font-family="Helvetica,sans-Serif" font-size="10.00">_target</text>
</a>
</g>
</g>
<!-- Node12&#45;&gt;Node13 -->
<g id="edge13" class="edge"><title>Node12&#45;&gt;Node13</title>
<path fill="none" stroke="midnightblue" d="M1273.43,-244.309C1281.88,-244.309 1290.38,-244.309 1298.55,-244.309"/>
<polygon fill="midnightblue" stroke="midnightblue" points="1273.18,-240.809 1263.18,-244.309 1273.18,-247.809 1273.18,-240.809"/>
</g>
<!-- Node14&#45;&gt;Node9 -->
<g id="edge15" class="edge"><title>Node14&#45;&gt;Node9</title>
<path fill="none" stroke="midnightblue" d="M754.798,-297.363C779.431,-290.092 806.879,-281.989 827.561,-275.884"/>
<polygon fill="midnightblue" stroke="midnightblue" points="753.76,-294.02 745.16,-300.208 755.742,-300.733 753.76,-294.02"/>
</g>
<!-- Node15&#45;&gt;Node9 -->
<g id="edge17" class="edge"><title>Node15&#45;&gt;Node9</title>
<path fill="none" stroke="midnightblue" d="M769.393,-266.309C777.869,-266.309 786.452,-266.309 794.784,-266.309"/>
<polygon fill="midnightblue" stroke="midnightblue" points="769.131,-262.809 759.131,-266.309 769.131,-269.809 769.131,-262.809"/>
</g>
<!-- Node18 -->
<g id="node18" class="node"><title>Node18</title>
<g id="a_node18"><a xlink:href="$classAP__Proximity__SITL.html#a6d9f228a0ae41c802bda9b6aff5f00dd" xlink:title="AP_Proximity_SITL::\lupdate">
<polygon fill="white" stroke="black" points="470.5,-21.309 470.5,-51.309 579.5,-51.309 579.5,-21.309 470.5,-21.309"/>
<text text-anchor="start" x="478.5" y="-39.309" font-family="Helvetica,sans-Serif" font-size="10.00">AP_Proximity_SITL::</text>
<text text-anchor="middle" x="525" y="-28.309" font-family="Helvetica,sans-Serif" font-size="10.00">update</text>
</a>
</g>
</g>
<!-- Node17&#45;&gt;Node18 -->
<g id="edge20" class="edge"><title>Node17&#45;&gt;Node18</title>
<path fill="none" stroke="midnightblue" d="M415.206,-65.696C433.428,-60.7738 453.015,-55.4833 470.477,-50.7663"/>
<polygon fill="midnightblue" stroke="midnightblue" points="414.274,-62.3221 405.533,-68.3087 416.1,-69.0799 414.274,-62.3221"/>
</g>
<!-- Node19&#45;&gt;Node17 -->
<g id="edge25" class="edge"><title>Node19&#45;&gt;Node17</title>
<path fill="none" stroke="midnightblue" d="M249.33,-67.163C263.261,-69.4427 277.833,-71.8272 291.371,-74.0426"/>
<polygon fill="midnightblue" stroke="midnightblue" points="249.756,-63.6863 239.322,-65.5254 248.626,-70.5944 249.756,-63.6863"/>
</g>
<!-- Node19&#45;&gt;Node18 -->
<g id="edge24" class="edge"><title>Node19&#45;&gt;Node18</title>
<path fill="none" stroke="midnightblue" d="M227.954,-36.857C231.72,-35.0414 235.444,-33.1793 239,-31.309 255.596,-22.5801 256.95,-14.3878 275,-9.30904 344.274,10.1822 428.046,-6.81254 478.619,-21.2643"/>
<polygon fill="midnightblue" stroke="midnightblue" points="226.148,-33.8382 218.58,-41.2529 229.12,-40.1759 226.148,-33.8382"/>
</g>
<!-- Node20 -->
<g id="node20" class="node"><title>Node20</title>
<g id="a_node20"><a xlink:href="$classAC__Fence.html#a4064af0cdae32b2fa68e8f85ea40c384" xlink:title="load polygon points stored in eeprom into boundary array and perform validation. returns true if load...">
<polygon fill="white" stroke="black" points="286,-19.309 286,-49.309 412,-49.309 412,-19.309 286,-19.309"/>
<text text-anchor="start" x="294" y="-37.309" font-family="Helvetica,sans-Serif" font-size="10.00">AC_Fence::load_polygon</text>
<text text-anchor="middle" x="349" y="-26.309" font-family="Helvetica,sans-Serif" font-size="10.00">_from_eeprom</text>
</a>
</g>
</g>
<!-- Node19&#45;&gt;Node20 -->
<g id="edge22" class="edge"><title>Node19&#45;&gt;Node20</title>
<path fill="none" stroke="midnightblue" d="M249.348,-47.4627C261.446,-45.8495 274.027,-44.1721 285.994,-42.5765"/>
<polygon fill="midnightblue" stroke="midnightblue" points="248.772,-44.0084 239.322,-48.7994 249.697,-50.947 248.772,-44.0084"/>
</g>
<!-- Node20&#45;&gt;Node3 -->
<g id="edge23" class="edge"><title>Node20&#45;&gt;Node3</title>
<path fill="none" stroke="midnightblue" d="M411.262,-53.0172C415.285,-54.6835 419.232,-56.4491 423,-58.309 457.658,-75.415 494.085,-103.073 512.249,-117.634"/>
<polygon fill="midnightblue" stroke="midnightblue" points="412.37,-49.6924 401.782,-49.3116 409.821,-56.212 412.37,-49.6924"/>
</g>
</g>
</svg>
