<?xml version="1.0" encoding="UTF-8" standalone="no"?>
<!DOCTYPE svg PUBLIC "-//W3C//DTD SVG 1.1//EN"
 "http://www.w3.org/Graphics/SVG/1.1/DTD/svg11.dtd">
<!-- Generated by graphviz version 2.38.0 (20140413.2041)
 -->
<!-- Title: waitpid Pages: 1 -->
<svg width="1410pt" height="404pt"
 viewBox="0.00 0.00 1410.00 404.25" xmlns="http://www.w3.org/2000/svg" xmlns:xlink="http://www.w3.org/1999/xlink">
<g id="graph0" class="graph" transform="scale(1 1) rotate(0) translate(4 400.251)">
<title>waitpid</title>
<polygon fill="white" stroke="none" points="-4,4 -4,-400.251 1406,-400.251 1406,4 -4,4"/>
<!-- Node1 -->
<g id="node1" class="node"><title>Node1</title>
<polygon fill="#bfbfbf" stroke="black" points="0,-259 0,-278 47,-278 47,-259 0,-259"/>
<text text-anchor="middle" x="23.5" y="-266" font-family="Helvetica,sans-Serif" font-size="10.00">waitpid</text>
</g>
<!-- Node2 -->
<g id="node2" class="node"><title>Node2</title>
<g id="a_node2"><a xlink:href="$classAP__BoardConfig.html#aa07dcdc737c7b35b7728a287abbd8e7b" xlink:title="AP_BoardConfig::px4\l_setup_sbus">
<polygon fill="white" stroke="black" points="83,-319.5 83,-349.5 194,-349.5 194,-319.5 83,-319.5"/>
<text text-anchor="start" x="91" y="-337.5" font-family="Helvetica,sans-Serif" font-size="10.00">AP_BoardConfig::px4</text>
<text text-anchor="middle" x="138.5" y="-326.5" font-family="Helvetica,sans-Serif" font-size="10.00">_setup_sbus</text>
</a>
</g>
</g>
<!-- Node1&#45;&gt;Node2 -->
<g id="edge1" class="edge"><title>Node1&#45;&gt;Node2</title>
<path fill="none" stroke="midnightblue" d="M49.8812,-283.324C68.26,-294.059 93.0236,-308.523 111.536,-319.335"/>
<polygon fill="midnightblue" stroke="midnightblue" points="51.5738,-280.26 41.1735,-278.239 48.0433,-286.304 51.5738,-280.26"/>
</g>
<!-- Node10 -->
<g id="node10" class="node"><title>Node10</title>
<g id="a_node10"><a xlink:href="$classAP__BoardConfig.html#aa4196422a112564ccbf73a187612161b" xlink:title="AP_BoardConfig::px4\l_start_driver">
<polygon fill="white" stroke="black" points="83,-188.5 83,-218.5 194,-218.5 194,-188.5 83,-188.5"/>
<text text-anchor="start" x="91" y="-206.5" font-family="Helvetica,sans-Serif" font-size="10.00">AP_BoardConfig::px4</text>
<text text-anchor="middle" x="138.5" y="-195.5" font-family="Helvetica,sans-Serif" font-size="10.00">_start_driver</text>
</a>
</g>
</g>
<!-- Node1&#45;&gt;Node10 -->
<g id="edge9" class="edge"><title>Node1&#45;&gt;Node10</title>
<path fill="none" stroke="midnightblue" d="M50.0698,-253.792C68.2866,-243.313 92.7042,-229.268 111.105,-218.683"/>
<polygon fill="midnightblue" stroke="midnightblue" points="48.0966,-250.889 41.1735,-258.909 51.587,-256.957 48.0966,-250.889"/>
</g>
<!-- Node3 -->
<g id="node3" class="node"><title>Node3</title>
<g id="a_node3"><a xlink:href="$classAP__BoardConfig.html#acc8c8524ca7415a823bb446a8a09d1f1" xlink:title="AP_BoardConfig::px4\l_setup">
<polygon fill="white" stroke="black" points="781,-295.5 781,-325.5 892,-325.5 892,-295.5 781,-295.5"/>
<text text-anchor="start" x="789" y="-313.5" font-family="Helvetica,sans-Serif" font-size="10.00">AP_BoardConfig::px4</text>
<text text-anchor="middle" x="836.5" y="-302.5" font-family="Helvetica,sans-Serif" font-size="10.00">_setup</text>
</a>
</g>
</g>
<!-- Node2&#45;&gt;Node3 -->
<g id="edge2" class="edge"><title>Node2&#45;&gt;Node3</title>
<path fill="none" stroke="midnightblue" d="M171.357,-354.875C188.104,-364.385 209.389,-374.659 230,-379.5 436.769,-428.07 691.595,-358.034 791.957,-325.541"/>
<polygon fill="midnightblue" stroke="midnightblue" points="172.95,-351.751 162.554,-349.709 169.408,-357.789 172.95,-351.751"/>
</g>
<!-- Node4 -->
<g id="node4" class="node"><title>Node4</title>
<g id="a_node4"><a xlink:href="$classAP__BoardConfig.html#a53de1d2c0a124ff0d6e3455126237bb5" xlink:title="AP_BoardConfig::init">
<polygon fill="white" stroke="black" points="955.5,-301 955.5,-320 1063.5,-320 1063.5,-301 955.5,-301"/>
<text text-anchor="middle" x="1009.5" y="-308" font-family="Helvetica,sans-Serif" font-size="10.00">AP_BoardConfig::init</text>
</a>
</g>
</g>
<!-- Node3&#45;&gt;Node4 -->
<g id="edge3" class="edge"><title>Node3&#45;&gt;Node4</title>
<path fill="none" stroke="midnightblue" d="M902.225,-310.5C919.748,-310.5 938.51,-310.5 955.318,-310.5"/>
<polygon fill="midnightblue" stroke="midnightblue" points="902.076,-307 892.076,-310.5 902.076,-314 902.076,-307"/>
</g>
<!-- Node5 -->
<g id="node5" class="node"><title>Node5</title>
<g id="a_node5"><a xlink:href="$AHRS__Test_8cpp.html#a4fc01d736fe50cf5b977f755b675f11d" xlink:title="setup">
<polygon fill="white" stroke="black" points="1148,-345 1148,-364 1189,-364 1189,-345 1148,-345"/>
<text text-anchor="middle" x="1168.5" y="-352" font-family="Helvetica,sans-Serif" font-size="10.00">setup</text>
</a>
</g>
</g>
<!-- Node4&#45;&gt;Node5 -->
<g id="edge4" class="edge"><title>Node4&#45;&gt;Node5</title>
<path fill="none" stroke="midnightblue" d="M1054.59,-322.857C1085.24,-331.446 1124.61,-342.481 1147.85,-348.992"/>
<polygon fill="midnightblue" stroke="midnightblue" points="1055.14,-319.376 1044.57,-320.047 1053.25,-326.116 1055.14,-319.376"/>
</g>
<!-- Node6 -->
<g id="node6" class="node"><title>Node6</title>
<g id="a_node6"><a xlink:href="$classAP__BoardConfig.html#a49a7027797d4a5fd9be56b55c85b8e90" xlink:title="AP_BoardConfig::AP\l_BoardConfig">
<polygon fill="white" stroke="black" points="1114,-295.5 1114,-325.5 1223,-325.5 1223,-295.5 1114,-295.5"/>
<text text-anchor="start" x="1122" y="-313.5" font-family="Helvetica,sans-Serif" font-size="10.00">AP_BoardConfig::AP</text>
<text text-anchor="middle" x="1168.5" y="-302.5" font-family="Helvetica,sans-Serif" font-size="10.00">_BoardConfig</text>
</a>
</g>
</g>
<!-- Node4&#45;&gt;Node6 -->
<g id="edge5" class="edge"><title>Node4&#45;&gt;Node6</title>
<path fill="none" stroke="midnightblue" d="M1073.69,-310.5C1087.01,-310.5 1100.94,-310.5 1113.87,-310.5"/>
<polygon fill="midnightblue" stroke="midnightblue" points="1073.65,-307 1063.65,-310.5 1073.65,-314 1073.65,-307"/>
</g>
<!-- Node7 -->
<g id="node7" class="node"><title>Node7</title>
<g id="a_node7"><a xlink:href="$classSchedTest.html#ae9afb73f76391e34d47286a516fe5292" xlink:title="SchedTest::setup">
<polygon fill="white" stroke="black" points="1121.5,-257 1121.5,-276 1215.5,-276 1215.5,-257 1121.5,-257"/>
<text text-anchor="middle" x="1168.5" y="-264" font-family="Helvetica,sans-Serif" font-size="10.00">SchedTest::setup</text>
</a>
</g>
</g>
<!-- Node4&#45;&gt;Node7 -->
<g id="edge6" class="edge"><title>Node4&#45;&gt;Node7</title>
<path fill="none" stroke="midnightblue" d="M1054.2,-298.252C1079.27,-291.228 1110.27,-282.54 1133.5,-276.029"/>
<polygon fill="midnightblue" stroke="midnightblue" points="1053.25,-294.884 1044.57,-300.953 1055.14,-301.624 1053.25,-294.884"/>
</g>
<!-- Node8 -->
<g id="node8" class="node"><title>Node8</title>
<g id="a_node8"><a xlink:href="$classSchedTest.html#ab41681c4e9b1eda12cc3f85ed89e82cf" xlink:title="SchedTest::five_second_call">
<polygon fill="white" stroke="black" points="1259,-276 1259,-295 1402,-295 1402,-276 1259,-276"/>
<text text-anchor="middle" x="1330.5" y="-283" font-family="Helvetica,sans-Serif" font-size="10.00">SchedTest::five_second_call</text>
</a>
</g>
</g>
<!-- Node7&#45;&gt;Node8 -->
<g id="edge7" class="edge"><title>Node7&#45;&gt;Node8</title>
<path fill="none" stroke="midnightblue" d="M1225.82,-273.187C1236.51,-274.458 1247.83,-275.802 1258.9,-277.117"/>
<polygon fill="midnightblue" stroke="midnightblue" points="1226.12,-269.699 1215.78,-271.996 1225.3,-276.65 1226.12,-269.699"/>
</g>
<!-- Node9 -->
<g id="node9" class="node"><title>Node9</title>
<g id="a_node9"><a xlink:href="$Scheduler__test_8cpp.html#a7dfd9b79bc5a37d7df40207afbc5431f" xlink:title="setup">
<polygon fill="white" stroke="black" points="1310,-238 1310,-257 1351,-257 1351,-238 1310,-238"/>
<text text-anchor="middle" x="1330.5" y="-245" font-family="Helvetica,sans-Serif" font-size="10.00">setup</text>
</a>
</g>
</g>
<!-- Node7&#45;&gt;Node9 -->
<g id="edge8" class="edge"><title>Node7&#45;&gt;Node9</title>
<path fill="none" stroke="midnightblue" d="M1225.9,-259.803C1255.14,-256.33 1289,-252.31 1309.83,-249.835"/>
<polygon fill="midnightblue" stroke="midnightblue" points="1225.3,-256.35 1215.78,-261.004 1226.12,-263.301 1225.3,-256.35"/>
</g>
<!-- Node11 -->
<g id="node11" class="node"><title>Node11</title>
<g id="a_node11"><a xlink:href="$classAP__BoardConfig.html#aa907eb67931dea502d3eaba210763871" xlink:title="AP_BoardConfig::in\l_sensor_config_error">
<polygon fill="white" stroke="black" points="249,-339.5 249,-369.5 356,-369.5 356,-339.5 249,-339.5"/>
<text text-anchor="start" x="257" y="-357.5" font-family="Helvetica,sans-Serif" font-size="10.00">AP_BoardConfig::in</text>
<text text-anchor="middle" x="302.5" y="-346.5" font-family="Helvetica,sans-Serif" font-size="10.00">_sensor_config_error</text>
</a>
</g>
</g>
<!-- Node10&#45;&gt;Node11 -->
<g id="edge10" class="edge"><title>Node10&#45;&gt;Node11</title>
<path fill="none" stroke="midnightblue" d="M152.113,-227.296C167.386,-254.118 195.413,-297.494 230,-324.5 237.533,-330.382 246.388,-335.309 255.251,-339.358"/>
<polygon fill="midnightblue" stroke="midnightblue" points="155.171,-225.592 147.253,-218.553 149.053,-228.994 155.171,-225.592"/>
</g>
<!-- Node12 -->
<g id="node12" class="node"><title>Node12</title>
<g id="a_node12"><a xlink:href="$classAP__BoardConfig.html#a8eea748fde57e8fe745477393457c576" xlink:title="AP_BoardConfig::px4\l_setup_drivers">
<polygon fill="white" stroke="black" points="437.5,-295.5 437.5,-325.5 548.5,-325.5 548.5,-295.5 437.5,-295.5"/>
<text text-anchor="start" x="445.5" y="-313.5" font-family="Helvetica,sans-Serif" font-size="10.00">AP_BoardConfig::px4</text>
<text text-anchor="middle" x="493" y="-302.5" font-family="Helvetica,sans-Serif" font-size="10.00">_setup_drivers</text>
</a>
</g>
</g>
<!-- Node10&#45;&gt;Node12 -->
<g id="edge11" class="edge"><title>Node10&#45;&gt;Node12</title>
<path fill="none" stroke="midnightblue" d="M155.723,-226.705C171.874,-247.716 198.721,-277.461 230,-291.5 296.675,-321.427 382.54,-321.332 437.443,-317.074"/>
<polygon fill="midnightblue" stroke="midnightblue" points="158.454,-224.511 149.673,-218.581 152.839,-228.692 158.454,-224.511"/>
</g>
<!-- Node13 -->
<g id="node13" class="node"><title>Node13</title>
<g id="a_node13"><a xlink:href="$classAP__BoardConfig.html#afccb4bd76345c66eacfc89255f3bb535" xlink:title="AP_BoardConfig::px4\l_tone_alarm">
<polygon fill="white" stroke="black" points="247,-251.5 247,-281.5 358,-281.5 358,-251.5 247,-251.5"/>
<text text-anchor="start" x="255" y="-269.5" font-family="Helvetica,sans-Serif" font-size="10.00">AP_BoardConfig::px4</text>
<text text-anchor="middle" x="302.5" y="-258.5" font-family="Helvetica,sans-Serif" font-size="10.00">_tone_alarm</text>
</a>
</g>
</g>
<!-- Node10&#45;&gt;Node13 -->
<g id="edge13" class="edge"><title>Node10&#45;&gt;Node13</title>
<path fill="none" stroke="midnightblue" d="M187.901,-222.323C211.815,-231.623 240.28,-242.692 262.733,-251.424"/>
<polygon fill="midnightblue" stroke="midnightblue" points="188.892,-218.953 178.303,-218.59 186.355,-225.477 188.892,-218.953"/>
</g>
<!-- Node14 -->
<g id="node14" class="node"><title>Node14</title>
<g id="a_node14"><a xlink:href="$classAP__BoardConfig.html#aa2db66012c1c14fc1ae4f42ff3433785" xlink:title="AP_BoardConfig::px4\l_setup_px4io">
<polygon fill="white" stroke="black" points="437.5,-225.5 437.5,-255.5 548.5,-255.5 548.5,-225.5 437.5,-225.5"/>
<text text-anchor="start" x="445.5" y="-243.5" font-family="Helvetica,sans-Serif" font-size="10.00">AP_BoardConfig::px4</text>
<text text-anchor="middle" x="493" y="-232.5" font-family="Helvetica,sans-Serif" font-size="10.00">_setup_px4io</text>
</a>
</g>
</g>
<!-- Node10&#45;&gt;Node14 -->
<g id="edge17" class="edge"><title>Node10&#45;&gt;Node14</title>
<path fill="none" stroke="midnightblue" d="M204.202,-210.291C271.146,-217.318 374.541,-228.171 437.47,-234.776"/>
<polygon fill="midnightblue" stroke="midnightblue" points="204.502,-206.804 194.191,-209.241 203.771,-213.766 204.502,-206.804"/>
</g>
<!-- Node15 -->
<g id="node15" class="node"><title>Node15</title>
<g id="a_node15"><a xlink:href="$classAP__BoardConfig.html#abf10a9f4d43760ea3311c4bd22e6205f" xlink:title="AP_BoardConfig::px4\l_setup_peripherals">
<polygon fill="white" stroke="black" points="616,-225.5 616,-255.5 727,-255.5 727,-225.5 616,-225.5"/>
<text text-anchor="start" x="624" y="-243.5" font-family="Helvetica,sans-Serif" font-size="10.00">AP_BoardConfig::px4</text>
<text text-anchor="middle" x="671.5" y="-232.5" font-family="Helvetica,sans-Serif" font-size="10.00">_setup_peripherals</text>
</a>
</g>
</g>
<!-- Node10&#45;&gt;Node15 -->
<g id="edge18" class="edge"><title>Node10&#45;&gt;Node15</title>
<path fill="none" stroke="midnightblue" d="M204.221,-200.887C289.627,-198.474 444.422,-197.686 575,-216.5 589.383,-218.572 604.743,-221.914 618.845,-225.454"/>
<polygon fill="midnightblue" stroke="midnightblue" points="204.047,-197.39 194.156,-201.188 204.256,-204.387 204.047,-197.39"/>
</g>
<!-- Node16 -->
<g id="node16" class="node"><title>Node16</title>
<g id="a_node16"><a xlink:href="$classPX4_1_1PX4Storage.html#aad546c170b46ea2e79f105f6a3118ae3" xlink:title="PX4::PX4Storage::_mtd_load">
<polygon fill="white" stroke="black" points="230,-137 230,-156 375,-156 375,-137 230,-137"/>
<text text-anchor="middle" x="302.5" y="-144" font-family="Helvetica,sans-Serif" font-size="10.00">PX4::PX4Storage::_mtd_load</text>
</a>
</g>
</g>
<!-- Node10&#45;&gt;Node16 -->
<g id="edge19" class="edge"><title>Node10&#45;&gt;Node16</title>
<path fill="none" stroke="midnightblue" d="M189.739,-184.919C202.822,-180.153 216.919,-175.08 230,-170.5 243.965,-165.611 259.533,-160.362 272.567,-156.023"/>
<polygon fill="midnightblue" stroke="midnightblue" points="188.156,-181.771 179.966,-188.492 190.56,-188.346 188.156,-181.771"/>
</g>
<!-- Node21 -->
<g id="node21" class="node"><title>Node21</title>
<g id="a_node21"><a xlink:href="$classOreoLED__PX4.html#aa3c8b6ae5779103b16f78266427ef193" xlink:title="OreoLED_PX4::init">
<polygon fill="white" stroke="black" points="252.5,-99 252.5,-118 352.5,-118 352.5,-99 252.5,-99"/>
<text text-anchor="middle" x="302.5" y="-106" font-family="Helvetica,sans-Serif" font-size="10.00">OreoLED_PX4::init</text>
</a>
</g>
</g>
<!-- Node10&#45;&gt;Node21 -->
<g id="edge25" class="edge"><title>Node10&#45;&gt;Node21</title>
<path fill="none" stroke="midnightblue" d="M160.655,-181.002C177.83,-163.99 203.475,-141.28 230,-127.5 237.409,-123.651 245.664,-120.532 253.86,-118.02"/>
<polygon fill="midnightblue" stroke="midnightblue" points="157.921,-178.79 153.386,-188.366 162.902,-183.708 157.921,-178.79"/>
</g>
<!-- Node22 -->
<g id="node22" class="node"><title>Node22</title>
<g id="a_node22"><a xlink:href="$classAP__RangeFinder__PX4__PWM.html#a55a5489f43240f0e64b7a1e01f964daa" xlink:title="AP_RangeFinder_PX4\l_PWM::detect">
<polygon fill="white" stroke="black" points="245,-49.5 245,-79.5 360,-79.5 360,-49.5 245,-49.5"/>
<text text-anchor="start" x="253" y="-67.5" font-family="Helvetica,sans-Serif" font-size="10.00">AP_RangeFinder_PX4</text>
<text text-anchor="middle" x="302.5" y="-56.5" font-family="Helvetica,sans-Serif" font-size="10.00">_PWM::detect</text>
</a>
</g>
</g>
<!-- Node10&#45;&gt;Node22 -->
<g id="edge26" class="edge"><title>Node10&#45;&gt;Node22</title>
<path fill="none" stroke="midnightblue" d="M152.861,-179.576C168.325,-153.921 196.067,-113.627 230,-89.5 235.359,-85.6899 241.351,-82.4145 247.527,-79.6101"/>
<polygon fill="midnightblue" stroke="midnightblue" points="149.778,-177.914 147.73,-188.309 155.814,-181.46 149.778,-177.914"/>
</g>
<!-- Node28 -->
<g id="node28" class="node"><title>Node28</title>
<g id="a_node28"><a xlink:href="$classAP__RPM__PX4__PWM.html#adb0fbc30f7ec21ba8f4ef05195375bf4" xlink:title="AP_RPM_PX4_PWM::AP\l_RPM_PX4_PWM">
<polygon fill="white" stroke="black" points="237,-0.5 237,-30.5 368,-30.5 368,-0.5 237,-0.5"/>
<text text-anchor="start" x="245" y="-18.5" font-family="Helvetica,sans-Serif" font-size="10.00">AP_RPM_PX4_PWM::AP</text>
<text text-anchor="middle" x="302.5" y="-7.5" font-family="Helvetica,sans-Serif" font-size="10.00">_RPM_PX4_PWM</text>
</a>
</g>
</g>
<!-- Node10&#45;&gt;Node28 -->
<g id="edge33" class="edge"><title>Node10&#45;&gt;Node28</title>
<path fill="none" stroke="midnightblue" d="M147.051,-178.443C159.011,-142.867 185.618,-77.8947 230,-40.5 234.626,-36.6024 239.898,-33.2982 245.435,-30.5002"/>
<polygon fill="midnightblue" stroke="midnightblue" points="143.687,-177.472 143.935,-188.064 150.346,-179.629 143.687,-177.472"/>
</g>
<!-- Node12&#45;&gt;Node3 -->
<g id="edge12" class="edge"><title>Node12&#45;&gt;Node3</title>
<path fill="none" stroke="midnightblue" d="M558.881,-310.5C623.104,-310.5 720.332,-310.5 780.768,-310.5"/>
<polygon fill="midnightblue" stroke="midnightblue" points="558.868,-307 548.868,-310.5 558.868,-314 558.868,-307"/>
</g>
<!-- Node13&#45;&gt;Node14 -->
<g id="edge14" class="edge"><title>Node13&#45;&gt;Node14</title>
<path fill="none" stroke="midnightblue" d="M368.161,-257.581C390.659,-254.478 415.66,-251.03 437.274,-248.048"/>
<polygon fill="midnightblue" stroke="midnightblue" points="367.45,-254.146 358.022,-258.98 368.406,-261.08 367.45,-254.146"/>
</g>
<!-- Node14&#45;&gt;Node15 -->
<g id="edge15" class="edge"><title>Node14&#45;&gt;Node15</title>
<path fill="none" stroke="midnightblue" d="M559.087,-240.5C577.783,-240.5 597.97,-240.5 615.959,-240.5"/>
<polygon fill="midnightblue" stroke="midnightblue" points="558.878,-237 548.878,-240.5 558.878,-244 558.878,-237"/>
</g>
<!-- Node15&#45;&gt;Node3 -->
<g id="edge16" class="edge"><title>Node15&#45;&gt;Node3</title>
<path fill="none" stroke="midnightblue" d="M716.812,-259.53C743.056,-270.8 775.848,-284.883 800.309,-295.387"/>
<polygon fill="midnightblue" stroke="midnightblue" points="718.037,-256.247 707.468,-255.517 715.275,-262.679 718.037,-256.247"/>
</g>
<!-- Node17 -->
<g id="node17" class="node"><title>Node17</title>
<g id="a_node17"><a xlink:href="$classPX4_1_1PX4Storage.html#a02878fb502221c2389d3758bbab18170" xlink:title="PX4::PX4Storage::_storage_open">
<polygon fill="white" stroke="black" points="411,-137 411,-156 575,-156 575,-137 411,-137"/>
<text text-anchor="middle" x="493" y="-144" font-family="Helvetica,sans-Serif" font-size="10.00">PX4::PX4Storage::_storage_open</text>
</a>
</g>
</g>
<!-- Node16&#45;&gt;Node17 -->
<g id="edge20" class="edge"><title>Node16&#45;&gt;Node17</title>
<path fill="none" stroke="midnightblue" d="M385.253,-146.5C393.703,-146.5 402.29,-146.5 410.734,-146.5"/>
<polygon fill="midnightblue" stroke="midnightblue" points="385.033,-143 375.033,-146.5 385.033,-150 385.033,-143"/>
</g>
<!-- Node18 -->
<g id="node18" class="node"><title>Node18</title>
<g id="a_node18"><a xlink:href="$classPX4_1_1PX4Storage.html#a905f7ce49985c0670a8f05e196e18c1f" xlink:title="PX4::PX4Storage::read\l_block">
<polygon fill="white" stroke="black" points="612,-168.5 612,-198.5 731,-198.5 731,-168.5 612,-168.5"/>
<text text-anchor="start" x="620" y="-186.5" font-family="Helvetica,sans-Serif" font-size="10.00">PX4::PX4Storage::read</text>
<text text-anchor="middle" x="671.5" y="-175.5" font-family="Helvetica,sans-Serif" font-size="10.00">_block</text>
</a>
</g>
</g>
<!-- Node17&#45;&gt;Node18 -->
<g id="edge21" class="edge"><title>Node17&#45;&gt;Node18</title>
<path fill="none" stroke="midnightblue" d="M549.29,-158.091C569.187,-162.262 591.694,-166.98 611.866,-171.208"/>
<polygon fill="midnightblue" stroke="midnightblue" points="549.959,-154.655 539.453,-156.028 548.522,-161.506 549.959,-154.655"/>
</g>
<!-- Node20 -->
<g id="node20" class="node"><title>Node20</title>
<g id="a_node20"><a xlink:href="$classPX4_1_1PX4Storage.html#aae27b43fbe4428f430fad9f8d035a67f" xlink:title="PX4::PX4Storage::write\l_block">
<polygon fill="white" stroke="black" points="611,-119.5 611,-149.5 732,-149.5 732,-119.5 611,-119.5"/>
<text text-anchor="start" x="619" y="-137.5" font-family="Helvetica,sans-Serif" font-size="10.00">PX4::PX4Storage::write</text>
<text text-anchor="middle" x="671.5" y="-126.5" font-family="Helvetica,sans-Serif" font-size="10.00">_block</text>
</a>
</g>
</g>
<!-- Node17&#45;&gt;Node20 -->
<g id="edge23" class="edge"><title>Node17&#45;&gt;Node20</title>
<path fill="none" stroke="midnightblue" d="M585.21,-140.299C593.895,-139.708 602.541,-139.12 610.812,-138.558"/>
<polygon fill="midnightblue" stroke="midnightblue" points="584.757,-136.821 575.018,-140.992 585.232,-143.805 584.757,-136.821"/>
</g>
<!-- Node19 -->
<g id="node19" class="node"><title>Node19</title>
<g id="a_node19"><a xlink:href="$classPX4_1_1PX4Storage.html#a3e2527da1f5db2c322daba7ddf78944b" xlink:title="PX4::PX4Storage::init">
<polygon fill="white" stroke="black" points="780,-150 780,-169 893,-169 893,-150 780,-150"/>
<text text-anchor="middle" x="836.5" y="-157" font-family="Helvetica,sans-Serif" font-size="10.00">PX4::PX4Storage::init</text>
</a>
</g>
</g>
<!-- Node18&#45;&gt;Node19 -->
<g id="edge22" class="edge"><title>Node18&#45;&gt;Node19</title>
<path fill="none" stroke="midnightblue" d="M741.469,-173.345C754.235,-171.465 767.42,-169.524 779.732,-167.711"/>
<polygon fill="midnightblue" stroke="midnightblue" points="740.73,-169.916 731.347,-174.835 741.75,-176.841 740.73,-169.916"/>
</g>
<!-- Node20&#45;&gt;Node19 -->
<g id="edge24" class="edge"><title>Node20&#45;&gt;Node19</title>
<path fill="none" stroke="midnightblue" d="M742.23,-145.195C754.78,-147.12 767.711,-149.103 779.798,-150.957"/>
<polygon fill="midnightblue" stroke="midnightblue" points="742.685,-141.724 732.27,-143.667 741.623,-148.643 742.685,-141.724"/>
</g>
<!-- Node23 -->
<g id="node23" class="node"><title>Node23</title>
<g id="a_node23"><a xlink:href="$classRangeFinder.html#a7f7f9dce880eb37d53df67cba39bdda9" xlink:title="RangeFinder::detect\l_instance">
<polygon fill="white" stroke="black" points="440.5,-49.5 440.5,-79.5 545.5,-79.5 545.5,-49.5 440.5,-49.5"/>
<text text-anchor="start" x="448.5" y="-67.5" font-family="Helvetica,sans-Serif" font-size="10.00">RangeFinder::detect</text>
<text text-anchor="middle" x="493" y="-56.5" font-family="Helvetica,sans-Serif" font-size="10.00">_instance</text>
</a>
</g>
</g>
<!-- Node22&#45;&gt;Node23 -->
<g id="edge27" class="edge"><title>Node22&#45;&gt;Node23</title>
<path fill="none" stroke="midnightblue" d="M370.111,-64.5C393.163,-64.5 418.635,-64.5 440.307,-64.5"/>
<polygon fill="midnightblue" stroke="midnightblue" points="370.056,-61.0001 360.056,-64.5 370.056,-68.0001 370.056,-61.0001"/>
</g>
<!-- Node24 -->
<g id="node24" class="node"><title>Node24</title>
<g id="a_node24"><a xlink:href="$classRangeFinder.html#a1c2d6a488e35a856814b5d48ca3d5d9e" xlink:title="RangeFinder::init">
<polygon fill="white" stroke="black" points="626,-55 626,-74 717,-74 717,-55 626,-55"/>
<text text-anchor="middle" x="671.5" y="-62" font-family="Helvetica,sans-Serif" font-size="10.00">RangeFinder::init</text>
</a>
</g>
</g>
<!-- Node23&#45;&gt;Node24 -->
<g id="edge28" class="edge"><title>Node23&#45;&gt;Node24</title>
<path fill="none" stroke="midnightblue" d="M555.586,-64.5C578.7,-64.5 604.507,-64.5 625.799,-64.5"/>
<polygon fill="midnightblue" stroke="midnightblue" points="555.526,-61.0001 545.526,-64.5 555.526,-68.0001 555.526,-61.0001"/>
</g>
<!-- Node25 -->
<g id="node25" class="node"><title>Node25</title>
<g id="a_node25"><a xlink:href="$RFIND__test_8cpp.html#a4fc01d736fe50cf5b977f755b675f11d" xlink:title="setup">
<polygon fill="white" stroke="black" points="989,-74 989,-93 1030,-93 1030,-74 989,-74"/>
<text text-anchor="middle" x="1009.5" y="-81" font-family="Helvetica,sans-Serif" font-size="10.00">setup</text>
</a>
</g>
</g>
<!-- Node24&#45;&gt;Node25 -->
<g id="edge29" class="edge"><title>Node24&#45;&gt;Node25</title>
<path fill="none" stroke="midnightblue" d="M727.493,-67.6097C803.855,-71.9278 938.292,-79.5299 988.684,-82.3794"/>
<polygon fill="midnightblue" stroke="midnightblue" points="727.3,-64.0933 717.118,-67.0231 726.905,-71.0821 727.3,-64.0933"/>
</g>
<!-- Node26 -->
<g id="node26" class="node"><title>Node26</title>
<g id="a_node26"><a xlink:href="$classRangeFinder.html#a95856f52f03d5234d587600faedcbfaf" xlink:title="RangeFinder::num_sensors">
<polygon fill="white" stroke="black" points="768,-36 768,-55 905,-55 905,-36 768,-36"/>
<text text-anchor="middle" x="836.5" y="-43" font-family="Helvetica,sans-Serif" font-size="10.00">RangeFinder::num_sensors</text>
</a>
</g>
</g>
<!-- Node24&#45;&gt;Node26 -->
<g id="edge30" class="edge"><title>Node24&#45;&gt;Node26</title>
<path fill="none" stroke="midnightblue" d="M727.221,-58.1215C740.225,-56.6057 754.252,-54.9706 767.76,-53.3961"/>
<polygon fill="midnightblue" stroke="midnightblue" points="726.568,-54.6738 717.04,-59.3082 727.378,-61.6267 726.568,-54.6738"/>
</g>
<!-- Node26&#45;&gt;Node25 -->
<g id="edge32" class="edge"><title>Node26&#45;&gt;Node25</title>
<path fill="none" stroke="midnightblue" d="M890.69,-57.3199C923.915,-64.7034 964.773,-73.783 988.602,-79.0782"/>
<polygon fill="midnightblue" stroke="midnightblue" points="891.172,-53.8417 880.651,-55.089 889.653,-60.675 891.172,-53.8417"/>
</g>
<!-- Node27 -->
<g id="node27" class="node"><title>Node27</title>
<g id="a_node27"><a xlink:href="$classAP__Proximity__RangeFinder.html#a00972bd55509a984f8a71c4cfdb78445" xlink:title="AP_Proximity_RangeFinder\l::update">
<polygon fill="white" stroke="black" points="941,-24.5 941,-54.5 1078,-54.5 1078,-24.5 941,-24.5"/>
<text text-anchor="start" x="949" y="-42.5" font-family="Helvetica,sans-Serif" font-size="10.00">AP_Proximity_RangeFinder</text>
<text text-anchor="middle" x="1009.5" y="-31.5" font-family="Helvetica,sans-Serif" font-size="10.00">::update</text>
</a>
</g>
</g>
<!-- Node26&#45;&gt;Node27 -->
<g id="edge31" class="edge"><title>Node26&#45;&gt;Node27</title>
<path fill="none" stroke="midnightblue" d="M915.1,-42.7772C923.692,-42.4757 932.391,-42.1705 940.847,-41.8738"/>
<polygon fill="midnightblue" stroke="midnightblue" points="914.955,-39.28 905.084,-43.1286 915.2,-46.2757 914.955,-39.28"/>
</g>
</g>
</svg>
