<?xml version="1.0" encoding="UTF-8" standalone="no"?>
<!DOCTYPE svg PUBLIC "-//W3C//DTD SVG 1.1//EN"
 "http://www.w3.org/Graphics/SVG/1.1/DTD/svg11.dtd">
<!-- Generated by graphviz version 2.38.0 (20140413.2041)
 -->
<!-- Title: libraries/AP_RangeFinder/RangeFinder_Backend.h Pages: 1 -->
<svg width="2647pt" height="184pt"
 viewBox="0.00 0.00 2646.50 184.00" xmlns="http://www.w3.org/2000/svg" xmlns:xlink="http://www.w3.org/1999/xlink">
<g id="graph0" class="graph" transform="scale(1 1) rotate(0) translate(4 180)">
<title>libraries/AP_RangeFinder/RangeFinder_Backend.h</title>
<polygon fill="white" stroke="none" points="-4,4 -4,-180 2642.5,-180 2642.5,4 -4,4"/>
<!-- Node1 -->
<g id="node1" class="node"><title>Node1</title>
<polygon fill="#bfbfbf" stroke="black" points="1279,-145.5 1279,-175.5 1407,-175.5 1407,-145.5 1279,-145.5"/>
<text text-anchor="start" x="1287" y="-163.5" font-family="Helvetica,sans-Serif" font-size="10.00">libraries/AP_RangeFinder</text>
<text text-anchor="middle" x="1343" y="-152.5" font-family="Helvetica,sans-Serif" font-size="10.00">/RangeFinder_Backend.h</text>
</g>
<!-- Node2 -->
<g id="node2" class="node"><title>Node2</title>
<g id="a_node2"><a xlink:href="$AP__RangeFinder__analog_8h.html" xlink:title="libraries/AP_RangeFinder\l/AP_RangeFinder_analog.h">
<polygon fill="white" stroke="black" points="56,-78.5 56,-108.5 192,-108.5 192,-78.5 56,-78.5"/>
<text text-anchor="start" x="64" y="-96.5" font-family="Helvetica,sans-Serif" font-size="10.00">libraries/AP_RangeFinder</text>
<text text-anchor="middle" x="124" y="-85.5" font-family="Helvetica,sans-Serif" font-size="10.00">/AP_RangeFinder_analog.h</text>
</a>
</g>
</g>
<!-- Node1&#45;&gt;Node2 -->
<g id="edge1" class="edge"><title>Node1&#45;&gt;Node2</title>
<path fill="none" stroke="midnightblue" d="M1268.97,-159.855C1086.72,-159.941 601.998,-155.385 201,-109 198.162,-108.672 195.272,-108.3 192.357,-107.893"/>
<polygon fill="midnightblue" stroke="midnightblue" points="1268.99,-163.355 1278.98,-159.845 1268.98,-156.355 1268.99,-163.355"/>
</g>
<!-- Node5 -->
<g id="node5" class="node"><title>Node5</title>
<g id="a_node5"><a xlink:href="$AP__RangeFinder__BBB__PRU_8h.html" xlink:title="libraries/AP_RangeFinder\l/AP_RangeFinder_BBB_PRU.h">
<polygon fill="white" stroke="black" points="210.5,-78.5 210.5,-108.5 365.5,-108.5 365.5,-78.5 210.5,-78.5"/>
<text text-anchor="start" x="218.5" y="-96.5" font-family="Helvetica,sans-Serif" font-size="10.00">libraries/AP_RangeFinder</text>
<text text-anchor="middle" x="288" y="-85.5" font-family="Helvetica,sans-Serif" font-size="10.00">/AP_RangeFinder_BBB_PRU.h</text>
</a>
</g>
</g>
<!-- Node1&#45;&gt;Node5 -->
<g id="edge4" class="edge"><title>Node1&#45;&gt;Node5</title>
<path fill="none" stroke="midnightblue" d="M1268.35,-158.53C1105.48,-155.774 706.206,-145.54 374,-109 371.291,-108.702 368.538,-108.374 365.76,-108.022"/>
<polygon fill="midnightblue" stroke="midnightblue" points="1268.68,-162.036 1278.73,-158.701 1268.79,-155.037 1268.68,-162.036"/>
</g>
<!-- Node7 -->
<g id="node7" class="node"><title>Node7</title>
<g id="a_node7"><a xlink:href="$AP__RangeFinder__Bebop_8h.html" xlink:title="libraries/AP_RangeFinder\l/AP_RangeFinder_Bebop.h">
<polygon fill="white" stroke="black" points="1100.5,-78.5 1100.5,-108.5 1235.5,-108.5 1235.5,-78.5 1100.5,-78.5"/>
<text text-anchor="start" x="1108.5" y="-96.5" font-family="Helvetica,sans-Serif" font-size="10.00">libraries/AP_RangeFinder</text>
<text text-anchor="middle" x="1168" y="-85.5" font-family="Helvetica,sans-Serif" font-size="10.00">/AP_RangeFinder_Bebop.h</text>
</a>
</g>
</g>
<!-- Node1&#45;&gt;Node7 -->
<g id="edge7" class="edge"><title>Node1&#45;&gt;Node7</title>
<path fill="none" stroke="midnightblue" d="M1295.4,-141.819C1267.27,-131.371 1232.14,-118.323 1205.9,-108.577"/>
<polygon fill="midnightblue" stroke="midnightblue" points="1294.43,-145.195 1305.03,-145.396 1296.87,-138.633 1294.43,-145.195"/>
</g>
<!-- Node8 -->
<g id="node8" class="node"><title>Node8</title>
<g id="a_node8"><a xlink:href="$AP__RangeFinder__LeddarOne_8h.html" xlink:title="libraries/AP_RangeFinder\l/AP_RangeFinder_LeddarOne.h">
<polygon fill="white" stroke="black" points="383.5,-78.5 383.5,-108.5 538.5,-108.5 538.5,-78.5 383.5,-78.5"/>
<text text-anchor="start" x="391.5" y="-96.5" font-family="Helvetica,sans-Serif" font-size="10.00">libraries/AP_RangeFinder</text>
<text text-anchor="middle" x="461" y="-85.5" font-family="Helvetica,sans-Serif" font-size="10.00">/AP_RangeFinder_LeddarOne.h</text>
</a>
</g>
</g>
<!-- Node1&#45;&gt;Node8 -->
<g id="edge9" class="edge"><title>Node1&#45;&gt;Node8</title>
<path fill="none" stroke="midnightblue" d="M1268.56,-157.353C1127.43,-152.712 811.367,-139.589 547,-109 544.293,-108.687 541.541,-108.346 538.764,-107.983"/>
<polygon fill="midnightblue" stroke="midnightblue" points="1268.72,-160.86 1278.83,-157.686 1268.95,-153.863 1268.72,-160.86"/>
</g>
<!-- Node10 -->
<g id="node10" class="node"><title>Node10</title>
<g id="a_node10"><a xlink:href="$AP__RangeFinder__LightWareI2C_8h.html" xlink:title="libraries/AP_RangeFinder\l/AP_RangeFinder_LightWareI2C.h">
<polygon fill="white" stroke="black" points="556.5,-78.5 556.5,-108.5 723.5,-108.5 723.5,-78.5 556.5,-78.5"/>
<text text-anchor="start" x="564.5" y="-96.5" font-family="Helvetica,sans-Serif" font-size="10.00">libraries/AP_RangeFinder</text>
<text text-anchor="middle" x="640" y="-85.5" font-family="Helvetica,sans-Serif" font-size="10.00">/AP_RangeFinder_LightWareI2C.h</text>
</a>
</g>
</g>
<!-- Node1&#45;&gt;Node10 -->
<g id="edge12" class="edge"><title>Node1&#45;&gt;Node10</title>
<path fill="none" stroke="midnightblue" d="M1268.5,-155.123C1153.25,-147.949 924.858,-132.136 732,-109 729.271,-108.673 726.498,-108.325 723.7,-107.961"/>
<polygon fill="midnightblue" stroke="midnightblue" points="1268.43,-158.625 1278.63,-155.749 1268.86,-151.638 1268.43,-158.625"/>
</g>
<!-- Node12 -->
<g id="node12" class="node"><title>Node12</title>
<g id="a_node12"><a xlink:href="$AP__RangeFinder__LightWareSerial_8h.html" xlink:title="libraries/AP_RangeFinder\l/AP_RangeFinder_LightWareSerial.h">
<polygon fill="white" stroke="black" points="741,-78.5 741,-108.5 917,-108.5 917,-78.5 741,-78.5"/>
<text text-anchor="start" x="749" y="-96.5" font-family="Helvetica,sans-Serif" font-size="10.00">libraries/AP_RangeFinder</text>
<text text-anchor="middle" x="829" y="-85.5" font-family="Helvetica,sans-Serif" font-size="10.00">/AP_RangeFinder_LightWareSerial.h</text>
</a>
</g>
</g>
<!-- Node1&#45;&gt;Node12 -->
<g id="edge15" class="edge"><title>Node1&#45;&gt;Node12</title>
<path fill="none" stroke="midnightblue" d="M1268.85,-151.152C1185.4,-141.61 1045.84,-125.211 926,-109 923.047,-108.601 920.045,-108.188 917.013,-107.766"/>
<polygon fill="midnightblue" stroke="midnightblue" points="1268.66,-154.653 1278.99,-152.309 1269.45,-147.698 1268.66,-154.653"/>
</g>
<!-- Node14 -->
<g id="node14" class="node"><title>Node14</title>
<g id="a_node14"><a xlink:href="$AP__RangeFinder__MAVLink_8h.html" xlink:title="libraries/AP_RangeFinder\l/AP_RangeFinder_MAVLink.h">
<polygon fill="white" stroke="black" points="935.5,-78.5 935.5,-108.5 1082.5,-108.5 1082.5,-78.5 935.5,-78.5"/>
<text text-anchor="start" x="943.5" y="-96.5" font-family="Helvetica,sans-Serif" font-size="10.00">libraries/AP_RangeFinder</text>
<text text-anchor="middle" x="1009" y="-85.5" font-family="Helvetica,sans-Serif" font-size="10.00">/AP_RangeFinder_MAVLink.h</text>
</a>
</g>
</g>
<!-- Node1&#45;&gt;Node14 -->
<g id="edge18" class="edge"><title>Node1&#45;&gt;Node14</title>
<path fill="none" stroke="midnightblue" d="M1269.15,-145.128C1213.2,-134.239 1136.74,-119.359 1081.19,-108.55"/>
<polygon fill="midnightblue" stroke="midnightblue" points="1268.51,-148.569 1279,-147.044 1269.85,-141.698 1268.51,-148.569"/>
</g>
<!-- Node16 -->
<g id="node16" class="node"><title>Node16</title>
<g id="a_node16"><a xlink:href="$AP__RangeFinder__MaxsonarI2CXL_8h.html" xlink:title="libraries/AP_RangeFinder\l/AP_RangeFinder_MaxsonarI2CXL.h">
<polygon fill="white" stroke="black" points="1254,-78.5 1254,-108.5 1432,-108.5 1432,-78.5 1254,-78.5"/>
<text text-anchor="start" x="1262" y="-96.5" font-family="Helvetica,sans-Serif" font-size="10.00">libraries/AP_RangeFinder</text>
<text text-anchor="middle" x="1343" y="-85.5" font-family="Helvetica,sans-Serif" font-size="10.00">/AP_RangeFinder_MaxsonarI2CXL.h</text>
</a>
</g>
</g>
<!-- Node1&#45;&gt;Node16 -->
<g id="edge21" class="edge"><title>Node1&#45;&gt;Node16</title>
<path fill="none" stroke="midnightblue" d="M1343,-135.108C1343,-126.154 1343,-116.323 1343,-108.577"/>
<polygon fill="midnightblue" stroke="midnightblue" points="1339.5,-135.396 1343,-145.396 1346.5,-135.396 1339.5,-135.396"/>
</g>
<!-- Node18 -->
<g id="node18" class="node"><title>Node18</title>
<g id="a_node18"><a xlink:href="$AP__RangeFinder__MaxsonarSerialLV_8h.html" xlink:title="libraries/AP_RangeFinder\l/AP_RangeFinder_MaxsonarSerialLV.h">
<polygon fill="white" stroke="black" points="1449.5,-78.5 1449.5,-108.5 1636.5,-108.5 1636.5,-78.5 1449.5,-78.5"/>
<text text-anchor="start" x="1457.5" y="-96.5" font-family="Helvetica,sans-Serif" font-size="10.00">libraries/AP_RangeFinder</text>
<text text-anchor="middle" x="1543" y="-85.5" font-family="Helvetica,sans-Serif" font-size="10.00">/AP_RangeFinder_MaxsonarSerialLV.h</text>
</a>
</g>
</g>
<!-- Node1&#45;&gt;Node18 -->
<g id="edge24" class="edge"><title>Node1&#45;&gt;Node18</title>
<path fill="none" stroke="midnightblue" d="M1396.15,-142.228C1428.5,-131.713 1469.31,-118.451 1499.69,-108.577"/>
<polygon fill="midnightblue" stroke="midnightblue" points="1394.83,-138.976 1386.4,-145.396 1396.99,-145.634 1394.83,-138.976"/>
</g>
<!-- Node20 -->
<g id="node20" class="node"><title>Node20</title>
<g id="a_node20"><a xlink:href="$AP__RangeFinder__PulsedLightLRF_8h.html" xlink:title="libraries/AP_RangeFinder\l/AP_RangeFinder_PulsedLightLRF.h">
<polygon fill="white" stroke="black" points="1654.5,-78.5 1654.5,-108.5 1831.5,-108.5 1831.5,-78.5 1654.5,-78.5"/>
<text text-anchor="start" x="1662.5" y="-96.5" font-family="Helvetica,sans-Serif" font-size="10.00">libraries/AP_RangeFinder</text>
<text text-anchor="middle" x="1743" y="-85.5" font-family="Helvetica,sans-Serif" font-size="10.00">/AP_RangeFinder_PulsedLightLRF.h</text>
</a>
</g>
</g>
<!-- Node1&#45;&gt;Node20 -->
<g id="edge27" class="edge"><title>Node1&#45;&gt;Node20</title>
<path fill="none" stroke="midnightblue" d="M1417.44,-147.404C1485.19,-136.394 1585.23,-120.138 1656.51,-108.555"/>
<polygon fill="midnightblue" stroke="midnightblue" points="1416.58,-143.998 1407.27,-149.057 1417.7,-150.907 1416.58,-143.998"/>
</g>
<!-- Node22 -->
<g id="node22" class="node"><title>Node22</title>
<g id="a_node22"><a xlink:href="$AP__RangeFinder__PX4__PWM_8h.html" xlink:title="libraries/AP_RangeFinder\l/AP_RangeFinder_PX4_PWM.h">
<polygon fill="white" stroke="black" points="1850,-78.5 1850,-108.5 2006,-108.5 2006,-78.5 1850,-78.5"/>
<text text-anchor="start" x="1858" y="-96.5" font-family="Helvetica,sans-Serif" font-size="10.00">libraries/AP_RangeFinder</text>
<text text-anchor="middle" x="1928" y="-85.5" font-family="Helvetica,sans-Serif" font-size="10.00">/AP_RangeFinder_PX4_PWM.h</text>
</a>
</g>
</g>
<!-- Node1&#45;&gt;Node22 -->
<g id="edge30" class="edge"><title>Node1&#45;&gt;Node22</title>
<path fill="none" stroke="midnightblue" d="M1417.12,-153.415C1514.39,-145.098 1690.33,-128.915 1840,-109 1843.22,-108.571 1846.51,-108.115 1849.83,-107.639"/>
<polygon fill="midnightblue" stroke="midnightblue" points="1416.76,-149.933 1407.09,-154.268 1417.35,-156.907 1416.76,-149.933"/>
</g>
<!-- Node24 -->
<g id="node24" class="node"><title>Node24</title>
<g id="a_node24"><a xlink:href="$AP__RangeFinder__trone_8h.html" xlink:title="libraries/AP_RangeFinder\l/AP_RangeFinder_trone.h">
<polygon fill="white" stroke="black" points="2024.5,-78.5 2024.5,-108.5 2153.5,-108.5 2153.5,-78.5 2024.5,-78.5"/>
<text text-anchor="start" x="2032.5" y="-96.5" font-family="Helvetica,sans-Serif" font-size="10.00">libraries/AP_RangeFinder</text>
<text text-anchor="middle" x="2089" y="-85.5" font-family="Helvetica,sans-Serif" font-size="10.00">/AP_RangeFinder_trone.h</text>
</a>
</g>
</g>
<!-- Node1&#45;&gt;Node24 -->
<g id="edge33" class="edge"><title>Node1&#45;&gt;Node24</title>
<path fill="none" stroke="midnightblue" d="M1417.35,-156.793C1541.59,-151.626 1799.04,-138.168 2015,-109 2017.98,-108.597 2021.03,-108.149 2024.1,-107.668"/>
<polygon fill="midnightblue" stroke="midnightblue" points="1417.04,-153.302 1407.2,-157.209 1417.33,-160.297 1417.04,-153.302"/>
</g>
<!-- Node26 -->
<g id="node26" class="node"><title>Node26</title>
<g id="a_node26"><a xlink:href="$AP__RangeFinder__uLanding_8h.html" xlink:title="libraries/AP_RangeFinder\l/AP_RangeFinder_uLanding.h">
<polygon fill="white" stroke="black" points="2172,-78.5 2172,-108.5 2318,-108.5 2318,-78.5 2172,-78.5"/>
<text text-anchor="start" x="2180" y="-96.5" font-family="Helvetica,sans-Serif" font-size="10.00">libraries/AP_RangeFinder</text>
<text text-anchor="middle" x="2245" y="-85.5" font-family="Helvetica,sans-Serif" font-size="10.00">/AP_RangeFinder_uLanding.h</text>
</a>
</g>
</g>
<!-- Node1&#45;&gt;Node26 -->
<g id="edge36" class="edge"><title>Node1&#45;&gt;Node26</title>
<path fill="none" stroke="midnightblue" d="M1417.25,-157.69C1561.3,-153.566 1888.61,-141.208 2162,-109 2165.2,-108.623 2168.46,-108.205 2171.74,-107.753"/>
<polygon fill="midnightblue" stroke="midnightblue" points="1417.09,-154.193 1407.19,-157.973 1417.29,-161.19 1417.09,-154.193"/>
</g>
<!-- Node28 -->
<g id="node28" class="node"><title>Node28</title>
<g id="a_node28"><a xlink:href="$AP__RangeFinder__VL53L0X_8h.html" xlink:title="libraries/AP_RangeFinder\l/AP_RangeFinder_VL53L0X.h">
<polygon fill="white" stroke="black" points="2336.5,-78.5 2336.5,-108.5 2483.5,-108.5 2483.5,-78.5 2336.5,-78.5"/>
<text text-anchor="start" x="2344.5" y="-96.5" font-family="Helvetica,sans-Serif" font-size="10.00">libraries/AP_RangeFinder</text>
<text text-anchor="middle" x="2410" y="-85.5" font-family="Helvetica,sans-Serif" font-size="10.00">/AP_RangeFinder_VL53L0X.h</text>
</a>
</g>
</g>
<!-- Node1&#45;&gt;Node28 -->
<g id="edge39" class="edge"><title>Node1&#45;&gt;Node28</title>
<path fill="none" stroke="midnightblue" d="M1417.11,-158.771C1581.44,-156.483 1988.59,-147.1 2327,-109 2330.05,-108.656 2333.16,-108.271 2336.3,-107.854"/>
<polygon fill="midnightblue" stroke="midnightblue" points="1417.06,-155.271 1407.11,-158.906 1417.16,-162.271 1417.06,-155.271"/>
</g>
<!-- Node30 -->
<g id="node30" class="node"><title>Node30</title>
<g id="a_node30"><a xlink:href="$RangeFinder__Backend_8cpp.html" xlink:title="libraries/AP_RangeFinder\l/RangeFinder_Backend.cpp">
<polygon fill="white" stroke="black" points="2501.5,-78.5 2501.5,-108.5 2638.5,-108.5 2638.5,-78.5 2501.5,-78.5"/>
<text text-anchor="start" x="2509.5" y="-96.5" font-family="Helvetica,sans-Serif" font-size="10.00">libraries/AP_RangeFinder</text>
<text text-anchor="middle" x="2570" y="-85.5" font-family="Helvetica,sans-Serif" font-size="10.00">/RangeFinder_Backend.cpp</text>
</a>
</g>
</g>
<!-- Node1&#45;&gt;Node30 -->
<g id="edge42" class="edge"><title>Node1&#45;&gt;Node30</title>
<path fill="none" stroke="midnightblue" d="M1417.21,-159.888C1600.48,-160.054 2088.95,-155.675 2493,-109 2495.7,-108.688 2498.45,-108.336 2501.23,-107.952"/>
<polygon fill="midnightblue" stroke="midnightblue" points="1417.15,-156.388 1407.15,-159.874 1417.14,-163.388 1417.15,-156.388"/>
</g>
<!-- Node3 -->
<g id="node3" class="node"><title>Node3</title>
<g id="a_node3"><a xlink:href="$AP__RangeFinder__analog_8cpp.html" xlink:title="libraries/AP_RangeFinder\l/AP_RangeFinder_analog.cpp">
<polygon fill="white" stroke="black" points="0,-6 0,-36 146,-36 146,-6 0,-6"/>
<text text-anchor="start" x="8" y="-24" font-family="Helvetica,sans-Serif" font-size="10.00">libraries/AP_RangeFinder</text>
<text text-anchor="middle" x="73" y="-13" font-family="Helvetica,sans-Serif" font-size="10.00">/AP_RangeFinder_analog.cpp</text>
</a>
</g>
</g>
<!-- Node2&#45;&gt;Node3 -->
<g id="edge2" class="edge"><title>Node2&#45;&gt;Node3</title>
<path fill="none" stroke="midnightblue" d="M107.64,-69.8852C99.6517,-58.842 90.2836,-45.892 83.3053,-36.2455"/>
<polygon fill="midnightblue" stroke="midnightblue" points="104.982,-72.1824 113.679,-78.2333 110.654,-68.0796 104.982,-72.1824"/>
</g>
<!-- Node4 -->
<g id="node4" class="node"><title>Node4</title>
<g id="a_node4"><a xlink:href="$RangeFinder_8cpp.html" xlink:title="libraries/AP_RangeFinder\l/RangeFinder.cpp">
<polygon fill="white" stroke="black" points="1107,-6 1107,-36 1235,-36 1235,-6 1107,-6"/>
<text text-anchor="start" x="1115" y="-24" font-family="Helvetica,sans-Serif" font-size="10.00">libraries/AP_RangeFinder</text>
<text text-anchor="middle" x="1171" y="-13" font-family="Helvetica,sans-Serif" font-size="10.00">/RangeFinder.cpp</text>
</a>
</g>
</g>
<!-- Node2&#45;&gt;Node4 -->
<g id="edge3" class="edge"><title>Node2&#45;&gt;Node4</title>
<path fill="none" stroke="midnightblue" d="M202.381,-77.967C599.222,-34.1174 706.992,-102.6 1098,-42 1107.09,-40.5912 1116.67,-38.4575 1125.78,-36.1006"/>
<polygon fill="midnightblue" stroke="midnightblue" points="201.903,-74.4987 192.355,-79.0919 202.683,-81.455 201.903,-74.4987"/>
</g>
<!-- Node5&#45;&gt;Node4 -->
<g id="edge6" class="edge"><title>Node5&#45;&gt;Node4</title>
<path fill="none" stroke="midnightblue" d="M375.789,-77.8944C696.065,-44.1668 783.128,-92.3446 1098,-42 1107.08,-40.5477 1116.66,-38.3943 1125.77,-36.0317"/>
<polygon fill="midnightblue" stroke="midnightblue" points="375.329,-74.4235 365.759,-78.9692 376.075,-81.3837 375.329,-74.4235"/>
</g>
<!-- Node6 -->
<g id="node6" class="node"><title>Node6</title>
<g id="a_node6"><a xlink:href="$AP__RangeFinder__BBB__PRU_8cpp.html" xlink:title="libraries/AP_RangeFinder\l/AP_RangeFinder_BBB_PRU.cpp">
<polygon fill="white" stroke="black" points="164.5,-6 164.5,-36 329.5,-36 329.5,-6 164.5,-6"/>
<text text-anchor="start" x="172.5" y="-24" font-family="Helvetica,sans-Serif" font-size="10.00">libraries/AP_RangeFinder</text>
<text text-anchor="middle" x="247" y="-13" font-family="Helvetica,sans-Serif" font-size="10.00">/AP_RangeFinder_BBB_PRU.cpp</text>
</a>
</g>
</g>
<!-- Node5&#45;&gt;Node6 -->
<g id="edge5" class="edge"><title>Node5&#45;&gt;Node6</title>
<path fill="none" stroke="midnightblue" d="M274.657,-69.5566C268.277,-58.5859 260.839,-45.7965 255.285,-36.2455"/>
<polygon fill="midnightblue" stroke="midnightblue" points="271.65,-71.3484 279.703,-78.2333 277.701,-67.8292 271.65,-71.3484"/>
</g>
<!-- Node7&#45;&gt;Node4 -->
<g id="edge8" class="edge"><title>Node7&#45;&gt;Node4</title>
<path fill="none" stroke="midnightblue" d="M1169.03,-68.2317C1169.49,-57.5679 1170,-45.4145 1170.39,-36.2455"/>
<polygon fill="midnightblue" stroke="midnightblue" points="1165.54,-68.0935 1168.61,-78.2333 1172.53,-68.3911 1165.54,-68.0935"/>
</g>
<!-- Node8&#45;&gt;Node4 -->
<g id="edge11" class="edge"><title>Node8&#45;&gt;Node4</title>
<path fill="none" stroke="midnightblue" d="M548.997,-77.8502C792.574,-50.4528 859.285,-82.075 1098,-42 1106.94,-40.4988 1116.37,-38.354 1125.36,-36.0214"/>
<polygon fill="midnightblue" stroke="midnightblue" points="548.301,-74.407 538.765,-79.0239 549.099,-81.3614 548.301,-74.407"/>
</g>
<!-- Node9 -->
<g id="node9" class="node"><title>Node9</title>
<g id="a_node9"><a xlink:href="$AP__RangeFinder__LeddarOne_8cpp.html" xlink:title="libraries/AP_RangeFinder\l/AP_RangeFinder_LeddarOne.cpp">
<polygon fill="white" stroke="black" points="347.5,-6 347.5,-36 512.5,-36 512.5,-6 347.5,-6"/>
<text text-anchor="start" x="355.5" y="-24" font-family="Helvetica,sans-Serif" font-size="10.00">libraries/AP_RangeFinder</text>
<text text-anchor="middle" x="430" y="-13" font-family="Helvetica,sans-Serif" font-size="10.00">/AP_RangeFinder_LeddarOne.cpp</text>
</a>
</g>
</g>
<!-- Node8&#45;&gt;Node9 -->
<g id="edge10" class="edge"><title>Node8&#45;&gt;Node9</title>
<path fill="none" stroke="midnightblue" d="M450.621,-68.8962C445.863,-58.0756 440.38,-45.6055 436.264,-36.2455"/>
<polygon fill="midnightblue" stroke="midnightblue" points="447.497,-70.488 454.727,-78.2333 453.905,-67.6703 447.497,-70.488"/>
</g>
<!-- Node10&#45;&gt;Node4 -->
<g id="edge14" class="edge"><title>Node10&#45;&gt;Node4</title>
<path fill="none" stroke="midnightblue" d="M734.034,-77.7972C895.95,-57.841 940.566,-71.0922 1098,-42 1106.53,-40.424 1115.51,-38.3313 1124.15,-36.0931"/>
<polygon fill="midnightblue" stroke="midnightblue" points="733.193,-74.3753 723.707,-79.095 734.066,-81.3206 733.193,-74.3753"/>
</g>
<!-- Node11 -->
<g id="node11" class="node"><title>Node11</title>
<g id="a_node11"><a xlink:href="$AP__RangeFinder__LightWareI2C_8cpp.html" xlink:title="libraries/AP_RangeFinder\l/AP_RangeFinder_LightWareI2C.cpp">
<polygon fill="white" stroke="black" points="531,-6 531,-36 709,-36 709,-6 531,-6"/>
<text text-anchor="start" x="539" y="-24" font-family="Helvetica,sans-Serif" font-size="10.00">libraries/AP_RangeFinder</text>
<text text-anchor="middle" x="620" y="-13" font-family="Helvetica,sans-Serif" font-size="10.00">/AP_RangeFinder_LightWareI2C.cpp</text>
</a>
</g>
</g>
<!-- Node10&#45;&gt;Node11 -->
<g id="edge13" class="edge"><title>Node10&#45;&gt;Node11</title>
<path fill="none" stroke="midnightblue" d="M633.21,-68.5645C630.162,-57.8215 626.67,-45.51 624.041,-36.2455"/>
<polygon fill="midnightblue" stroke="midnightblue" points="629.856,-69.5681 635.953,-78.2333 636.591,-67.6577 629.856,-69.5681"/>
</g>
<!-- Node12&#45;&gt;Node4 -->
<g id="edge17" class="edge"><title>Node12&#45;&gt;Node4</title>
<path fill="none" stroke="midnightblue" d="M923.733,-76.6685C975.448,-67.5364 1040.48,-55.2547 1098,-42 1105.81,-40.2 1114.04,-38.1222 1122.06,-36.0013"/>
<polygon fill="midnightblue" stroke="midnightblue" points="922.818,-73.2756 913.574,-78.4523 924.029,-80.1701 922.818,-73.2756"/>
</g>
<!-- Node13 -->
<g id="node13" class="node"><title>Node13</title>
<g id="a_node13"><a xlink:href="$AP__RangeFinder__LightWareSerial_8cpp.html" xlink:title="libraries/AP_RangeFinder\l/AP_RangeFinder_LightWareSerial.cpp">
<polygon fill="white" stroke="black" points="726.5,-6 726.5,-36 913.5,-36 913.5,-6 726.5,-6"/>
<text text-anchor="start" x="734.5" y="-24" font-family="Helvetica,sans-Serif" font-size="10.00">libraries/AP_RangeFinder</text>
<text text-anchor="middle" x="820" y="-13" font-family="Helvetica,sans-Serif" font-size="10.00">/AP_RangeFinder_LightWareSerial.cpp</text>
</a>
</g>
</g>
<!-- Node12&#45;&gt;Node13 -->
<g id="edge16" class="edge"><title>Node12&#45;&gt;Node13</title>
<path fill="none" stroke="midnightblue" d="M825.902,-68.2317C824.541,-57.5679 822.989,-45.4145 821.819,-36.2455"/>
<polygon fill="midnightblue" stroke="midnightblue" points="822.44,-68.757 827.179,-78.2333 829.384,-67.8705 822.44,-68.757"/>
</g>
<!-- Node14&#45;&gt;Node4 -->
<g id="edge20" class="edge"><title>Node14&#45;&gt;Node4</title>
<path fill="none" stroke="midnightblue" d="M1050.72,-74.3431C1078.11,-62.4243 1113.4,-47.0655 1138.66,-36.0729"/>
<polygon fill="midnightblue" stroke="midnightblue" points="1049.17,-71.203 1041.39,-78.4027 1051.96,-77.6216 1049.17,-71.203"/>
</g>
<!-- Node15 -->
<g id="node15" class="node"><title>Node15</title>
<g id="a_node15"><a xlink:href="$AP__RangeFinder__MAVLink_8cpp.html" xlink:title="libraries/AP_RangeFinder\l/AP_RangeFinder_MAVLink.cpp">
<polygon fill="white" stroke="black" points="931,-6 931,-36 1089,-36 1089,-6 931,-6"/>
<text text-anchor="start" x="939" y="-24" font-family="Helvetica,sans-Serif" font-size="10.00">libraries/AP_RangeFinder</text>
<text text-anchor="middle" x="1010" y="-13" font-family="Helvetica,sans-Serif" font-size="10.00">/AP_RangeFinder_MAVLink.cpp</text>
</a>
</g>
</g>
<!-- Node14&#45;&gt;Node15 -->
<g id="edge19" class="edge"><title>Node14&#45;&gt;Node15</title>
<path fill="none" stroke="midnightblue" d="M1009.34,-68.2317C1009.5,-57.5679 1009.67,-45.4145 1009.8,-36.2455"/>
<polygon fill="midnightblue" stroke="midnightblue" points="1005.84,-68.1846 1009.2,-78.2333 1012.84,-68.284 1005.84,-68.1846"/>
</g>
<!-- Node16&#45;&gt;Node4 -->
<g id="edge23" class="edge"><title>Node16&#45;&gt;Node4</title>
<path fill="none" stroke="midnightblue" d="M1299.08,-74.4991C1269.95,-62.5585 1232.27,-47.1135 1205.33,-36.0729"/>
<polygon fill="midnightblue" stroke="midnightblue" points="1298.03,-77.8486 1308.61,-78.4027 1300.68,-71.3715 1298.03,-77.8486"/>
</g>
<!-- Node17 -->
<g id="node17" class="node"><title>Node17</title>
<g id="a_node17"><a xlink:href="$AP__RangeFinder__MaxsonarI2CXL_8cpp.html" xlink:title="libraries/AP_RangeFinder\l/AP_RangeFinder_MaxsonarI2CXL.cpp">
<polygon fill="white" stroke="black" points="1253,-6 1253,-36 1441,-36 1441,-6 1253,-6"/>
<text text-anchor="start" x="1261" y="-24" font-family="Helvetica,sans-Serif" font-size="10.00">libraries/AP_RangeFinder</text>
<text text-anchor="middle" x="1347" y="-13" font-family="Helvetica,sans-Serif" font-size="10.00">/AP_RangeFinder_MaxsonarI2CXL.cpp</text>
</a>
</g>
</g>
<!-- Node16&#45;&gt;Node17 -->
<g id="edge22" class="edge"><title>Node16&#45;&gt;Node17</title>
<path fill="none" stroke="midnightblue" d="M1344.38,-68.2317C1344.98,-57.5679 1345.67,-45.4145 1346.19,-36.2455"/>
<polygon fill="midnightblue" stroke="midnightblue" points="1340.88,-68.051 1343.81,-78.2333 1347.87,-68.4476 1340.88,-68.051"/>
</g>
<!-- Node18&#45;&gt;Node4 -->
<g id="edge26" class="edge"><title>Node18&#45;&gt;Node4</title>
<path fill="none" stroke="midnightblue" d="M1439.04,-77.5604C1381.32,-68.61 1308.38,-56.2177 1244,-42 1236.04,-40.243 1227.66,-38.164 1219.52,-36.0219"/>
<polygon fill="midnightblue" stroke="midnightblue" points="1438.85,-81.0726 1449.27,-79.135 1439.92,-74.1541 1438.85,-81.0726"/>
</g>
<!-- Node19 -->
<g id="node19" class="node"><title>Node19</title>
<g id="a_node19"><a xlink:href="$AP__RangeFinder__MaxsonarSerialLV_8cpp.html" xlink:title="libraries/AP_RangeFinder\l/AP_RangeFinder_MaxsonarSerial\lLV.cpp">
<polygon fill="white" stroke="black" points="1459.5,-0.5 1459.5,-41.5 1626.5,-41.5 1626.5,-0.5 1459.5,-0.5"/>
<text text-anchor="start" x="1467.5" y="-29.5" font-family="Helvetica,sans-Serif" font-size="10.00">libraries/AP_RangeFinder</text>
<text text-anchor="start" x="1467.5" y="-18.5" font-family="Helvetica,sans-Serif" font-size="10.00">/AP_RangeFinder_MaxsonarSerial</text>
<text text-anchor="middle" x="1543" y="-7.5" font-family="Helvetica,sans-Serif" font-size="10.00">LV.cpp</text>
</a>
</g>
</g>
<!-- Node18&#45;&gt;Node19 -->
<g id="edge25" class="edge"><title>Node18&#45;&gt;Node19</title>
<path fill="none" stroke="midnightblue" d="M1543,-67.9815C1543,-59.3468 1543,-49.7625 1543,-41.5884"/>
<polygon fill="midnightblue" stroke="midnightblue" points="1539.5,-68.2332 1543,-78.2333 1546.5,-68.2333 1539.5,-68.2332"/>
</g>
<!-- Node20&#45;&gt;Node4 -->
<g id="edge29" class="edge"><title>Node20&#45;&gt;Node4</title>
<path fill="none" stroke="midnightblue" d="M1644.35,-77.9833C1465.56,-57.4898 1416.92,-73.1926 1244,-42 1235.34,-40.437 1226.21,-38.3222 1217.45,-36.0515"/>
<polygon fill="midnightblue" stroke="midnightblue" points="1644.02,-81.4677 1654.36,-79.1517 1644.83,-74.515 1644.02,-81.4677"/>
</g>
<!-- Node21 -->
<g id="node21" class="node"><title>Node21</title>
<g id="a_node21"><a xlink:href="$AP__RangeFinder__PulsedLightLRF_8cpp.html" xlink:title="libraries/AP_RangeFinder\l/AP_RangeFinder_PulsedLightLRF.cpp">
<polygon fill="white" stroke="black" points="1645,-6 1645,-36 1833,-36 1833,-6 1645,-6"/>
<text text-anchor="start" x="1653" y="-24" font-family="Helvetica,sans-Serif" font-size="10.00">libraries/AP_RangeFinder</text>
<text text-anchor="middle" x="1739" y="-13" font-family="Helvetica,sans-Serif" font-size="10.00">/AP_RangeFinder_PulsedLightLRF.cpp</text>
</a>
</g>
</g>
<!-- Node20&#45;&gt;Node21 -->
<g id="edge28" class="edge"><title>Node20&#45;&gt;Node21</title>
<path fill="none" stroke="midnightblue" d="M1741.62,-68.2317C1741.02,-57.5679 1740.33,-45.4145 1739.81,-36.2455"/>
<polygon fill="midnightblue" stroke="midnightblue" points="1738.13,-68.4476 1742.19,-78.2333 1745.12,-68.051 1738.13,-68.4476"/>
</g>
<!-- Node22&#45;&gt;Node4 -->
<g id="edge32" class="edge"><title>Node22&#45;&gt;Node4</title>
<path fill="none" stroke="midnightblue" d="M1839.53,-78.0531C1574.47,-49.3127 1502.49,-84.7425 1244,-42 1235.05,-40.5208 1225.63,-38.3861 1216.63,-36.0566"/>
<polygon fill="midnightblue" stroke="midnightblue" points="1839.52,-81.5741 1849.85,-79.1939 1840.29,-74.6164 1839.52,-81.5741"/>
</g>
<!-- Node23 -->
<g id="node23" class="node"><title>Node23</title>
<g id="a_node23"><a xlink:href="$AP__RangeFinder__PX4__PWM_8cpp.html" xlink:title="libraries/AP_RangeFinder\l/AP_RangeFinder_PX4_PWM.cpp">
<polygon fill="white" stroke="black" points="1851.5,-6 1851.5,-36 2018.5,-36 2018.5,-6 1851.5,-6"/>
<text text-anchor="start" x="1859.5" y="-24" font-family="Helvetica,sans-Serif" font-size="10.00">libraries/AP_RangeFinder</text>
<text text-anchor="middle" x="1935" y="-13" font-family="Helvetica,sans-Serif" font-size="10.00">/AP_RangeFinder_PX4_PWM.cpp</text>
</a>
</g>
</g>
<!-- Node22&#45;&gt;Node23 -->
<g id="edge31" class="edge"><title>Node22&#45;&gt;Node23</title>
<path fill="none" stroke="midnightblue" d="M1930.41,-68.2317C1931.47,-57.5679 1932.68,-45.4145 1933.59,-36.2455"/>
<polygon fill="midnightblue" stroke="midnightblue" points="1926.92,-67.9364 1929.42,-78.2333 1933.89,-68.6281 1926.92,-67.9364"/>
</g>
<!-- Node24&#45;&gt;Node4 -->
<g id="edge35" class="edge"><title>Node24&#45;&gt;Node4</title>
<path fill="none" stroke="midnightblue" d="M2013.94,-78.0154C1672.62,-38.0444 1579.51,-95.1242 1244,-42 1234.91,-40.5615 1225.34,-38.4142 1216.22,-36.0535"/>
<polygon fill="midnightblue" stroke="midnightblue" points="2013.77,-81.5195 2024.11,-79.2265 2014.6,-74.5686 2013.77,-81.5195"/>
</g>
<!-- Node25 -->
<g id="node25" class="node"><title>Node25</title>
<g id="a_node25"><a xlink:href="$AP__RangeFinder__trone_8cpp.html" xlink:title="libraries/AP_RangeFinder\l/AP_RangeFinder_trone.cpp">
<polygon fill="white" stroke="black" points="2037,-6 2037,-36 2177,-36 2177,-6 2037,-6"/>
<text text-anchor="start" x="2045" y="-24" font-family="Helvetica,sans-Serif" font-size="10.00">libraries/AP_RangeFinder</text>
<text text-anchor="middle" x="2107" y="-13" font-family="Helvetica,sans-Serif" font-size="10.00">/AP_RangeFinder_trone.cpp</text>
</a>
</g>
</g>
<!-- Node24&#45;&gt;Node25 -->
<g id="edge34" class="edge"><title>Node24&#45;&gt;Node25</title>
<path fill="none" stroke="midnightblue" d="M2095.2,-68.2317C2097.92,-57.5679 2101.02,-45.4145 2103.36,-36.2455"/>
<polygon fill="midnightblue" stroke="midnightblue" points="2091.73,-67.6782 2092.64,-78.2333 2098.51,-69.41 2091.73,-67.6782"/>
</g>
<!-- Node26&#45;&gt;Node4 -->
<g id="edge38" class="edge"><title>Node26&#45;&gt;Node4</title>
<path fill="none" stroke="midnightblue" d="M2161.76,-78.1061C1754.21,-35.8821 1644.27,-103.849 1244,-42 1234.78,-40.5753 1225.06,-38.4025 1215.82,-36.0061"/>
<polygon fill="midnightblue" stroke="midnightblue" points="2161.44,-81.5915 2171.75,-79.1569 2162.18,-74.6299 2161.44,-81.5915"/>
</g>
<!-- Node27 -->
<g id="node27" class="node"><title>Node27</title>
<g id="a_node27"><a xlink:href="$AP__RangeFinder__uLanding_8cpp.html" xlink:title="libraries/AP_RangeFinder\l/AP_RangeFinder_uLanding.cpp">
<polygon fill="white" stroke="black" points="2195.5,-6 2195.5,-36 2352.5,-36 2352.5,-6 2195.5,-6"/>
<text text-anchor="start" x="2203.5" y="-24" font-family="Helvetica,sans-Serif" font-size="10.00">libraries/AP_RangeFinder</text>
<text text-anchor="middle" x="2274" y="-13" font-family="Helvetica,sans-Serif" font-size="10.00">/AP_RangeFinder_uLanding.cpp</text>
</a>
</g>
</g>
<!-- Node26&#45;&gt;Node27 -->
<g id="edge37" class="edge"><title>Node26&#45;&gt;Node27</title>
<path fill="none" stroke="midnightblue" d="M2254.71,-68.8962C2259.16,-58.0756 2264.29,-45.6055 2268.14,-36.2455"/>
<polygon fill="midnightblue" stroke="midnightblue" points="2251.44,-67.6536 2250.87,-78.2333 2257.91,-70.3166 2251.44,-67.6536"/>
</g>
<!-- Node28&#45;&gt;Node4 -->
<g id="edge41" class="edge"><title>Node28&#45;&gt;Node4</title>
<path fill="none" stroke="midnightblue" d="M2326.34,-78.0564C1846.19,-29.6034 1716.91,-113.629 1244,-42 1234.78,-40.6028 1225.05,-38.4422 1215.82,-36.0492"/>
<polygon fill="midnightblue" stroke="midnightblue" points="2326,-81.5399 2336.31,-79.0759 2326.72,-74.5762 2326,-81.5399"/>
</g>
<!-- Node29 -->
<g id="node29" class="node"><title>Node29</title>
<g id="a_node29"><a xlink:href="$AP__RangeFinder__VL53L0X_8cpp.html" xlink:title="libraries/AP_RangeFinder\l/AP_RangeFinder_VL53L0X.cpp">
<polygon fill="white" stroke="black" points="2371,-6 2371,-36 2529,-36 2529,-6 2371,-6"/>
<text text-anchor="start" x="2379" y="-24" font-family="Helvetica,sans-Serif" font-size="10.00">libraries/AP_RangeFinder</text>
<text text-anchor="middle" x="2450" y="-13" font-family="Helvetica,sans-Serif" font-size="10.00">/AP_RangeFinder_VL53L0X.cpp</text>
</a>
</g>
</g>
<!-- Node28&#45;&gt;Node29 -->
<g id="edge40" class="edge"><title>Node28&#45;&gt;Node29</title>
<path fill="none" stroke="midnightblue" d="M2423.2,-69.227C2429.39,-58.3304 2436.55,-45.701 2441.92,-36.2455"/>
<polygon fill="midnightblue" stroke="midnightblue" points="2419.99,-67.8085 2418.09,-78.2333 2426.07,-71.2629 2419.99,-67.8085"/>
</g>
</g>
</svg>
