<?xml version="1.0" encoding="UTF-8" standalone="no"?>
<!DOCTYPE svg PUBLIC "-//W3C//DTD SVG 1.1//EN"
 "http://www.w3.org/Graphics/SVG/1.1/DTD/svg11.dtd">
<!-- Generated by graphviz version 2.38.0 (20140413.2041)
 -->
<!-- Title: test_rotation_accuracy Pages: 1 -->
<svg width="1226pt" height="588pt"
 viewBox="0.00 0.00 1226.00 588.00" xmlns="http://www.w3.org/2000/svg" xmlns:xlink="http://www.w3.org/1999/xlink">
<g id="graph0" class="graph" transform="scale(1 1) rotate(0) translate(4 584)">
<title>test_rotation_accuracy</title>
<polygon fill="white" stroke="none" points="-4,4 -4,-584 1222,-584 1222,4 -4,4"/>
<!-- Node1 -->
<g id="node1" class="node"><title>Node1</title>
<polygon fill="#bfbfbf" stroke="black" points="0,-494.5 0,-513.5 116,-513.5 116,-494.5 0,-494.5"/>
<text text-anchor="middle" x="58" y="-501.5" font-family="Helvetica,sans-Serif" font-size="10.00">test_rotation_accuracy</text>
</g>
<!-- Node2 -->
<g id="node2" class="node"><title>Node2</title>
<g id="a_node2"><a xlink:href="$classAP__HAL_1_1UARTDriver.html#a6ceedc792594e59fc7d80b39a435f027" xlink:title="AP_HAL::UARTDriver\l::printf">
<polygon fill="white" stroke="black" points="704,-454 704,-484 819,-484 819,-454 704,-454"/>
<text text-anchor="start" x="712" y="-472" font-family="Helvetica,sans-Serif" font-size="10.00">AP_HAL::UARTDriver</text>
<text text-anchor="middle" x="761.5" y="-461" font-family="Helvetica,sans-Serif" font-size="10.00">::printf</text>
</a>
</g>
</g>
<!-- Node1&#45;&gt;Node2 -->
<g id="edge1" class="edge"><title>Node1&#45;&gt;Node2</title>
<path fill="none" stroke="midnightblue" d="M79.978,-513.625C126.529,-534.076 242.429,-580 344.5,-580 344.5,-580 344.5,-580 485,-580 568.068,-580 592.718,-577.113 668,-542 694.85,-529.477 720.923,-507.761 738.507,-491.261"/>
<polygon fill="midnightblue" stroke="midnightblue" points="741.175,-493.551 745.96,-484.098 736.325,-488.503 741.175,-493.551"/>
</g>
<!-- Node10 -->
<g id="node10" class="node"><title>Node10</title>
<g id="a_node10"><a xlink:href="$classMatrix3.html#a62587bd216436f09f06b9e1330f84bc0" xlink:title="Matrix3::from_euler">
<polygon fill="white" stroke="black" points="295,-532.5 295,-551.5 396,-551.5 396,-532.5 295,-532.5"/>
<text text-anchor="middle" x="345.5" y="-539.5" font-family="Helvetica,sans-Serif" font-size="10.00">Matrix3::from_euler</text>
</a>
</g>
</g>
<!-- Node1&#45;&gt;Node10 -->
<g id="edge9" class="edge"><title>Node1&#45;&gt;Node10</title>
<path fill="none" stroke="midnightblue" d="M116.019,-512.817C127.902,-514.589 140.354,-516.398 152,-518 196.374,-524.105 246.597,-530.344 284.615,-534.931"/>
<polygon fill="midnightblue" stroke="midnightblue" points="284.654,-538.46 295,-536.179 285.489,-531.51 284.654,-538.46"/>
</g>
<!-- Node11 -->
<g id="node11" class="node"><title>Node11</title>
<g id="a_node11"><a xlink:href="$classMatrix3.html#a6f044e8d64f6f10e054af962487399b9" xlink:title="Matrix3::rotate">
<polygon fill="white" stroke="black" points="305.5,-494.5 305.5,-513.5 385.5,-513.5 385.5,-494.5 305.5,-494.5"/>
<text text-anchor="middle" x="345.5" y="-501.5" font-family="Helvetica,sans-Serif" font-size="10.00">Matrix3::rotate</text>
</a>
</g>
</g>
<!-- Node1&#45;&gt;Node11 -->
<g id="edge10" class="edge"><title>Node1&#45;&gt;Node11</title>
<path fill="none" stroke="midnightblue" d="M116.089,-504C168.502,-504 245.363,-504 295.17,-504"/>
<polygon fill="midnightblue" stroke="midnightblue" points="295.37,-507.5 305.37,-504 295.37,-500.5 295.37,-507.5"/>
</g>
<!-- Node12 -->
<g id="node12" class="node"><title>Node12</title>
<g id="a_node12"><a xlink:href="$classMatrix3.html#a893c6a712d52e47dbb7ed2d7a548046e" xlink:title="Matrix3::to_euler">
<polygon fill="white" stroke="black" points="301,-456.5 301,-475.5 390,-475.5 390,-456.5 301,-456.5"/>
<text text-anchor="middle" x="345.5" y="-463.5" font-family="Helvetica,sans-Serif" font-size="10.00">Matrix3::to_euler</text>
</a>
</g>
</g>
<!-- Node1&#45;&gt;Node12 -->
<g id="edge11" class="edge"><title>Node1&#45;&gt;Node12</title>
<path fill="none" stroke="midnightblue" d="M116.089,-496.401C166.937,-489.634 240.795,-479.803 290.638,-473.169"/>
<polygon fill="midnightblue" stroke="midnightblue" points="291.131,-476.634 300.582,-471.845 290.208,-469.696 291.131,-476.634"/>
</g>
<!-- Node18 -->
<g id="node18" class="node"><title>Node18</title>
<g id="a_node18"><a xlink:href="$classMatrix3.html#a69d23fe802118124235bd5542b279259" xlink:title="Matrix3::from_axis\l_angle">
<polygon fill="white" stroke="black" points="152,-280 152,-310 250,-310 250,-280 152,-280"/>
<text text-anchor="start" x="160" y="-298" font-family="Helvetica,sans-Serif" font-size="10.00">Matrix3::from_axis</text>
<text text-anchor="middle" x="201" y="-287" font-family="Helvetica,sans-Serif" font-size="10.00">_angle</text>
</a>
</g>
</g>
<!-- Node1&#45;&gt;Node18 -->
<g id="edge17" class="edge"><title>Node1&#45;&gt;Node18</title>
<path fill="none" stroke="midnightblue" d="M65.4249,-494.477C86.3854,-463.407 153.198,-364.373 184.075,-318.605"/>
<polygon fill="midnightblue" stroke="midnightblue" points="187.056,-320.445 189.747,-310.198 181.253,-316.53 187.056,-320.445"/>
</g>
<!-- Node3 -->
<g id="node3" class="node"><title>Node3</title>
<g id="a_node3"><a xlink:href="$classAP__HAL_1_1UARTDriver.html#aa8abfb6d6641299472c29ac1edde559f" xlink:title="AP_HAL::UARTDriver\l::vprintf">
<polygon fill="white" stroke="black" points="855,-454 855,-484 970,-484 970,-454 855,-454"/>
<text text-anchor="start" x="863" y="-472" font-family="Helvetica,sans-Serif" font-size="10.00">AP_HAL::UARTDriver</text>
<text text-anchor="middle" x="912.5" y="-461" font-family="Helvetica,sans-Serif" font-size="10.00">::vprintf</text>
</a>
</g>
</g>
<!-- Node2&#45;&gt;Node3 -->
<g id="edge2" class="edge"><title>Node2&#45;&gt;Node3</title>
<path fill="none" stroke="midnightblue" d="M819.256,-469C827.558,-469 836.173,-469 844.654,-469"/>
<polygon fill="midnightblue" stroke="midnightblue" points="844.902,-472.5 854.902,-469 844.902,-465.5 844.902,-472.5"/>
</g>
<!-- Node4 -->
<g id="node4" class="node"><title>Node4</title>
<g id="a_node4"><a xlink:href="$print__vprintf_8cpp.html#a1534eaeab54696df96975b56d9f49212" xlink:title="print_vprintf">
<polygon fill="white" stroke="black" points="1006,-459.5 1006,-478.5 1074,-478.5 1074,-459.5 1006,-459.5"/>
<text text-anchor="middle" x="1040" y="-466.5" font-family="Helvetica,sans-Serif" font-size="10.00">print_vprintf</text>
</a>
</g>
</g>
<!-- Node3&#45;&gt;Node4 -->
<g id="edge3" class="edge"><title>Node3&#45;&gt;Node4</title>
<path fill="none" stroke="midnightblue" d="M970.009,-469C978.609,-469 987.367,-469 995.628,-469"/>
<polygon fill="midnightblue" stroke="midnightblue" points="995.777,-472.5 1005.78,-469 995.777,-465.5 995.777,-472.5"/>
</g>
<!-- Node5 -->
<g id="node5" class="node"><title>Node5</title>
<g id="a_node5"><a xlink:href="$classAP__HAL_1_1Print.html#acc65391952a43334f8f5c9bef341f501" xlink:title="AP_HAL::Print::write">
<polygon fill="white" stroke="black" points="1110,-535.5 1110,-554.5 1218,-554.5 1218,-535.5 1110,-535.5"/>
<text text-anchor="middle" x="1164" y="-542.5" font-family="Helvetica,sans-Serif" font-size="10.00">AP_HAL::Print::write</text>
</a>
</g>
</g>
<!-- Node4&#45;&gt;Node5 -->
<g id="edge4" class="edge"><title>Node4&#45;&gt;Node5</title>
<path fill="none" stroke="midnightblue" d="M1050.47,-478.683C1063.07,-491.102 1086.5,-512.629 1110,-526 1113.63,-528.067 1117.53,-529.973 1121.5,-531.715"/>
<polygon fill="midnightblue" stroke="midnightblue" points="1120.23,-534.977 1130.82,-535.479 1122.86,-528.487 1120.23,-534.977"/>
</g>
<!-- Node6 -->
<g id="node6" class="node"><title>Node6</title>
<g id="a_node6"><a xlink:href="$ftoa__engine_8cpp.html#a1c28234da8f20b43c85890d4bb452947" xlink:title="ftoa_engine">
<polygon fill="white" stroke="black" points="1130.5,-497.5 1130.5,-516.5 1197.5,-516.5 1197.5,-497.5 1130.5,-497.5"/>
<text text-anchor="middle" x="1164" y="-504.5" font-family="Helvetica,sans-Serif" font-size="10.00">ftoa_engine</text>
</a>
</g>
</g>
<!-- Node4&#45;&gt;Node6 -->
<g id="edge5" class="edge"><title>Node4&#45;&gt;Node6</title>
<path fill="none" stroke="midnightblue" d="M1071.79,-478.589C1087.1,-483.359 1105.82,-489.189 1122.3,-494.323"/>
<polygon fill="midnightblue" stroke="midnightblue" points="1121.64,-497.782 1132.22,-497.414 1123.72,-491.099 1121.64,-497.782"/>
</g>
<!-- Node7 -->
<g id="node7" class="node"><title>Node7</title>
<g id="a_node7"><a xlink:href="$replace_8cpp.html#a880bcc7b85a09e6254691bebd5344b51" xlink:title="strnlen">
<polygon fill="white" stroke="black" points="1141,-459.5 1141,-478.5 1187,-478.5 1187,-459.5 1141,-459.5"/>
<text text-anchor="middle" x="1164" y="-466.5" font-family="Helvetica,sans-Serif" font-size="10.00">strnlen</text>
</a>
</g>
</g>
<!-- Node4&#45;&gt;Node7 -->
<g id="edge6" class="edge"><title>Node4&#45;&gt;Node7</title>
<path fill="none" stroke="midnightblue" d="M1074.01,-469C1091.55,-469 1113.02,-469 1130.47,-469"/>
<polygon fill="midnightblue" stroke="midnightblue" points="1130.75,-472.5 1140.75,-469 1130.75,-465.5 1130.75,-472.5"/>
</g>
<!-- Node8 -->
<g id="node8" class="node"><title>Node8</title>
<g id="a_node8"><a xlink:href="$utoa__invert_8cpp.html#a34926f552460b47c414ec4d83b32815c" xlink:title="ulltoa_invert">
<polygon fill="white" stroke="black" points="1129.5,-421.5 1129.5,-440.5 1198.5,-440.5 1198.5,-421.5 1129.5,-421.5"/>
<text text-anchor="middle" x="1164" y="-428.5" font-family="Helvetica,sans-Serif" font-size="10.00">ulltoa_invert</text>
</a>
</g>
</g>
<!-- Node4&#45;&gt;Node8 -->
<g id="edge7" class="edge"><title>Node4&#45;&gt;Node8</title>
<path fill="none" stroke="midnightblue" d="M1071.79,-459.411C1087.1,-454.641 1105.82,-448.811 1122.3,-443.677"/>
<polygon fill="midnightblue" stroke="midnightblue" points="1123.72,-446.901 1132.22,-440.586 1121.64,-440.218 1123.72,-446.901"/>
</g>
<!-- Node9 -->
<g id="node9" class="node"><title>Node9</title>
<g id="a_node9"><a xlink:href="$utoa__invert_8cpp.html#a5d99bba8e697c1e11da489d88fca8559" xlink:title="ultoa_invert">
<polygon fill="white" stroke="black" points="1130.5,-383.5 1130.5,-402.5 1197.5,-402.5 1197.5,-383.5 1130.5,-383.5"/>
<text text-anchor="middle" x="1164" y="-390.5" font-family="Helvetica,sans-Serif" font-size="10.00">ultoa_invert</text>
</a>
</g>
</g>
<!-- Node4&#45;&gt;Node9 -->
<g id="edge8" class="edge"><title>Node4&#45;&gt;Node9</title>
<path fill="none" stroke="midnightblue" d="M1050.47,-459.317C1063.07,-446.898 1086.5,-425.371 1110,-412 1113.63,-409.933 1117.53,-408.027 1121.5,-406.285"/>
<polygon fill="midnightblue" stroke="midnightblue" points="1122.86,-409.513 1130.82,-402.521 1120.23,-403.023 1122.86,-409.513"/>
</g>
<!-- Node13 -->
<g id="node13" class="node"><title>Node13</title>
<g id="a_node13"><a xlink:href="$AP__Math_8cpp.html#a3370ada2588e54722319d65e00d8545c" xlink:title="safe_asin">
<polygon fill="white" stroke="black" points="454.5,-456.5 454.5,-475.5 513.5,-475.5 513.5,-456.5 454.5,-456.5"/>
<text text-anchor="middle" x="484" y="-463.5" font-family="Helvetica,sans-Serif" font-size="10.00">safe_asin</text>
</a>
</g>
</g>
<!-- Node12&#45;&gt;Node13 -->
<g id="edge12" class="edge"><title>Node12&#45;&gt;Node13</title>
<path fill="none" stroke="midnightblue" d="M390.065,-466C407.51,-466 427.442,-466 444.362,-466"/>
<polygon fill="midnightblue" stroke="midnightblue" points="444.459,-469.5 454.459,-466 444.459,-462.5 444.459,-469.5"/>
</g>
<!-- Node14 -->
<g id="node14" class="node"><title>Node14</title>
<g id="a_node14"><a xlink:href="$AP__Math_8cpp.html#acde8e5813f30717986b84509948bf530" xlink:title="safe_asin\&lt; int \&gt;">
<polygon fill="white" stroke="black" points="572,-437.5 572,-456.5 659,-456.5 659,-437.5 572,-437.5"/>
<text text-anchor="middle" x="615.5" y="-444.5" font-family="Helvetica,sans-Serif" font-size="10.00">safe_asin&lt; int &gt;</text>
</a>
</g>
</g>
<!-- Node13&#45;&gt;Node14 -->
<g id="edge13" class="edge"><title>Node13&#45;&gt;Node14</title>
<path fill="none" stroke="midnightblue" d="M513.74,-461.783C527.81,-459.719 545.205,-457.167 561.56,-454.767"/>
<polygon fill="midnightblue" stroke="midnightblue" points="562.184,-458.213 571.569,-453.299 561.167,-451.287 562.184,-458.213"/>
</g>
<!-- Node15 -->
<g id="node15" class="node"><title>Node15</title>
<g id="a_node15"><a xlink:href="$AP__Math_8cpp.html#a6baeda4985886aba9f6d5d5008ac2b10" xlink:title="safe_asin\&lt; short \&gt;">
<polygon fill="white" stroke="black" points="566.5,-399.5 566.5,-418.5 664.5,-418.5 664.5,-399.5 566.5,-399.5"/>
<text text-anchor="middle" x="615.5" y="-406.5" font-family="Helvetica,sans-Serif" font-size="10.00">safe_asin&lt; short &gt;</text>
</a>
</g>
</g>
<!-- Node13&#45;&gt;Node15 -->
<g id="edge14" class="edge"><title>Node13&#45;&gt;Node15</title>
<path fill="none" stroke="midnightblue" d="M503.356,-456.412C519.011,-448.391 542.219,-436.869 563,-428 567.7,-425.994 572.691,-423.995 577.645,-422.087"/>
<polygon fill="midnightblue" stroke="midnightblue" points="578.91,-425.351 587.038,-418.555 576.446,-418.799 578.91,-425.351"/>
</g>
<!-- Node16 -->
<g id="node16" class="node"><title>Node16</title>
<g id="a_node16"><a xlink:href="$AP__Math_8cpp.html#a48612e903b0ef12fa5653056a6d5b3f7" xlink:title="safe_asin\&lt; float \&gt;">
<polygon fill="white" stroke="black" points="568,-513.5 568,-532.5 663,-532.5 663,-513.5 568,-513.5"/>
<text text-anchor="middle" x="615.5" y="-520.5" font-family="Helvetica,sans-Serif" font-size="10.00">safe_asin&lt; float &gt;</text>
</a>
</g>
</g>
<!-- Node13&#45;&gt;Node16 -->
<g id="edge15" class="edge"><title>Node13&#45;&gt;Node16</title>
<path fill="none" stroke="midnightblue" d="M503.356,-475.588C519.011,-483.609 542.219,-495.131 563,-504 567.7,-506.006 572.691,-508.005 577.645,-509.913"/>
<polygon fill="midnightblue" stroke="midnightblue" points="576.446,-513.201 587.038,-513.445 578.91,-506.649 576.446,-513.201"/>
</g>
<!-- Node17 -->
<g id="node17" class="node"><title>Node17</title>
<g id="a_node17"><a xlink:href="$AP__Math_8cpp.html#a9f2aae5b5adb09329c1a64b433d148dd" xlink:title="safe_asin\&lt; double \&gt;">
<polygon fill="white" stroke="black" points="563,-475.5 563,-494.5 668,-494.5 668,-475.5 563,-475.5"/>
<text text-anchor="middle" x="615.5" y="-482.5" font-family="Helvetica,sans-Serif" font-size="10.00">safe_asin&lt; double &gt;</text>
</a>
</g>
</g>
<!-- Node13&#45;&gt;Node17 -->
<g id="edge16" class="edge"><title>Node13&#45;&gt;Node17</title>
<path fill="none" stroke="midnightblue" d="M513.74,-470.217C525.373,-471.923 539.279,-473.964 552.991,-475.975"/>
<polygon fill="midnightblue" stroke="midnightblue" points="552.503,-479.441 562.905,-477.43 553.519,-472.515 552.503,-479.441"/>
</g>
<!-- Node18&#45;&gt;Node10 -->
<g id="edge25" class="edge"><title>Node18&#45;&gt;Node10</title>
<path fill="none" stroke="midnightblue" d="M203.137,-310.209C206.986,-350.756 223.064,-462.469 286,-523 287.626,-524.564 289.382,-525.999 291.235,-527.316"/>
<polygon fill="midnightblue" stroke="midnightblue" points="289.484,-530.346 299.885,-532.366 293.014,-524.301 289.484,-530.346"/>
</g>
<!-- Node18&#45;&gt;Node11 -->
<g id="edge20" class="edge"><title>Node18&#45;&gt;Node11</title>
<path fill="none" stroke="midnightblue" d="M204.369,-310.014C210.781,-345.662 231.786,-436.063 286,-485 288.991,-487.7 292.371,-490.017 295.961,-492.005"/>
<polygon fill="midnightblue" stroke="midnightblue" points="294.67,-495.264 305.214,-496.3 297.617,-488.915 294.67,-495.264"/>
</g>
<!-- Node18&#45;&gt;Node12 -->
<g id="edge26" class="edge"><title>Node18&#45;&gt;Node12</title>
<path fill="none" stroke="midnightblue" d="M206.311,-310.403C215.652,-340.973 240.655,-409.576 286,-447 288.054,-448.695 290.263,-450.24 292.577,-451.648"/>
<polygon fill="midnightblue" stroke="midnightblue" points="291.423,-454.989 301.919,-456.43 294.612,-448.758 291.423,-454.989"/>
</g>
<!-- Node19 -->
<g id="node19" class="node"><title>Node19</title>
<g id="a_node19"><a xlink:href="$classVector3.html#a4623c9d95850aec72ba56cb9ceea2cdf" xlink:title="Vector3::normalized">
<polygon fill="white" stroke="black" points="293.5,-190.5 293.5,-209.5 397.5,-209.5 397.5,-190.5 293.5,-190.5"/>
<text text-anchor="middle" x="345.5" y="-197.5" font-family="Helvetica,sans-Serif" font-size="10.00">Vector3::normalized</text>
</a>
</g>
</g>
<!-- Node18&#45;&gt;Node19 -->
<g id="edge18" class="edge"><title>Node18&#45;&gt;Node19</title>
<path fill="none" stroke="midnightblue" d="M215.092,-279.796C230.49,-262.783 257.576,-235.454 286,-219 289.639,-216.894 293.542,-214.986 297.543,-213.265"/>
<polygon fill="midnightblue" stroke="midnightblue" points="298.931,-216.48 306.975,-209.584 296.387,-209.959 298.931,-216.48"/>
</g>
<!-- Node20 -->
<g id="node20" class="node"><title>Node20</title>
<g id="a_node20"><a xlink:href="$classMatrix3.html#a90cfd0bec53253429603b5600dcdce81" xlink:title="Matrix3::zero">
<polygon fill="white" stroke="black" points="308.5,-152.5 308.5,-171.5 382.5,-171.5 382.5,-152.5 308.5,-152.5"/>
<text text-anchor="middle" x="345.5" y="-159.5" font-family="Helvetica,sans-Serif" font-size="10.00">Matrix3::zero</text>
</a>
</g>
</g>
<!-- Node18&#45;&gt;Node20 -->
<g id="edge19" class="edge"><title>Node18&#45;&gt;Node20</title>
<path fill="none" stroke="midnightblue" d="M209.288,-279.697C221.672,-255.293 249.114,-207.607 286,-181 289.959,-178.144 294.37,-175.702 298.946,-173.617"/>
<polygon fill="midnightblue" stroke="midnightblue" points="300.479,-176.774 308.475,-169.822 297.889,-170.271 300.479,-176.774"/>
</g>
<!-- Node21 -->
<g id="node21" class="node"><title>Node21</title>
<g id="a_node21"><a xlink:href="$classMatrix3.html#a79b6de6d1beda5938087dec7fa225702" xlink:title="Matrix3::normalize">
<polygon fill="white" stroke="black" points="297,-114.5 297,-133.5 394,-133.5 394,-114.5 297,-114.5"/>
<text text-anchor="middle" x="345.5" y="-121.5" font-family="Helvetica,sans-Serif" font-size="10.00">Matrix3::normalize</text>
</a>
</g>
</g>
<!-- Node18&#45;&gt;Node21 -->
<g id="edge21" class="edge"><title>Node18&#45;&gt;Node21</title>
<path fill="none" stroke="midnightblue" d="M206.311,-279.597C215.652,-249.027 240.655,-180.424 286,-143 288.054,-141.305 290.263,-139.76 292.577,-138.352"/>
<polygon fill="midnightblue" stroke="midnightblue" points="294.612,-141.242 301.919,-133.57 291.423,-135.011 294.612,-141.242"/>
</g>
<!-- Node25 -->
<g id="node25" class="node"><title>Node25</title>
<g id="a_node25"><a xlink:href="$classMatrix3.html#ac40446799dccb00a1a0098decf876d7b" xlink:title="Matrix3::from_euler312">
<polygon fill="white" stroke="black" points="287.5,-76.5 287.5,-95.5 403.5,-95.5 403.5,-76.5 287.5,-76.5"/>
<text text-anchor="middle" x="345.5" y="-83.5" font-family="Helvetica,sans-Serif" font-size="10.00">Matrix3::from_euler312</text>
</a>
</g>
</g>
<!-- Node18&#45;&gt;Node25 -->
<g id="edge27" class="edge"><title>Node18&#45;&gt;Node25</title>
<path fill="none" stroke="midnightblue" d="M204.369,-279.986C210.781,-244.338 231.786,-153.937 286,-105 287.739,-103.43 289.609,-101.99 291.576,-100.669"/>
<polygon fill="midnightblue" stroke="midnightblue" points="293.66,-103.515 300.706,-95.6034 290.264,-97.3945 293.66,-103.515"/>
</g>
<!-- Node26 -->
<g id="node26" class="node"><title>Node26</title>
<g id="a_node26"><a xlink:href="$classMatrix3.html#abd9cba5416890b2470e3e0f44c314c2a" xlink:title="Matrix3::to_euler312">
<polygon fill="white" stroke="black" points="293,-38.5 293,-57.5 398,-57.5 398,-38.5 293,-38.5"/>
<text text-anchor="middle" x="345.5" y="-45.5" font-family="Helvetica,sans-Serif" font-size="10.00">Matrix3::to_euler312</text>
</a>
</g>
</g>
<!-- Node18&#45;&gt;Node26 -->
<g id="edge28" class="edge"><title>Node18&#45;&gt;Node26</title>
<path fill="none" stroke="midnightblue" d="M203.137,-279.791C206.986,-239.244 223.064,-127.531 286,-67 287.626,-65.4363 289.382,-64.0012 291.235,-62.6843"/>
<polygon fill="midnightblue" stroke="midnightblue" points="293.014,-65.6987 299.885,-57.6338 289.484,-59.6537 293.014,-65.6987"/>
</g>
<!-- Node27 -->
<g id="node27" class="node"><title>Node27</title>
<g id="a_node27"><a xlink:href="$classMatrix3.html#aeb696742e5106f027fbd67da9f806c03" xlink:title="Matrix3::operator*">
<polygon fill="white" stroke="black" points="298.5,-0.5 298.5,-19.5 392.5,-19.5 392.5,-0.5 298.5,-0.5"/>
<text text-anchor="middle" x="345.5" y="-7.5" font-family="Helvetica,sans-Serif" font-size="10.00">Matrix3::operator*</text>
</a>
</g>
</g>
<!-- Node18&#45;&gt;Node27 -->
<g id="edge29" class="edge"><title>Node18&#45;&gt;Node27</title>
<path fill="none" stroke="midnightblue" d="M202.204,-279.957C203.637,-235.209 214.04,-101.549 286,-29 287.438,-27.55 288.988,-26.2107 290.625,-24.9735"/>
<polygon fill="midnightblue" stroke="midnightblue" points="292.71,-27.8008 299.418,-19.5998 289.06,-21.8278 292.71,-27.8008"/>
</g>
<!-- Node28 -->
<g id="node28" class="node"><title>Node28</title>
<g id="a_node28"><a xlink:href="$classMatrix3.html#a3705734aec6b67d729011cd792d7398a" xlink:title="Matrix3::mul_transpose">
<polygon fill="white" stroke="black" points="286,-418.5 286,-437.5 405,-437.5 405,-418.5 286,-418.5"/>
<text text-anchor="middle" x="345.5" y="-425.5" font-family="Helvetica,sans-Serif" font-size="10.00">Matrix3::mul_transpose</text>
</a>
</g>
</g>
<!-- Node18&#45;&gt;Node28 -->
<g id="edge30" class="edge"><title>Node18&#45;&gt;Node28</title>
<path fill="none" stroke="midnightblue" d="M209.288,-310.303C221.672,-334.707 249.114,-382.393 286,-409 288.685,-410.937 291.577,-412.683 294.587,-414.256"/>
<polygon fill="midnightblue" stroke="midnightblue" points="293.33,-417.529 303.883,-418.476 296.224,-411.155 293.33,-417.529"/>
</g>
<!-- Node29 -->
<g id="node29" class="node"><title>Node29</title>
<g id="a_node29"><a xlink:href="$classMatrix3.html#a18e2df03dec4abdf11fc9fb60ed7c226" xlink:title="Matrix3::transposed">
<polygon fill="white" stroke="black" points="294,-380.5 294,-399.5 397,-399.5 397,-380.5 294,-380.5"/>
<text text-anchor="middle" x="345.5" y="-387.5" font-family="Helvetica,sans-Serif" font-size="10.00">Matrix3::transposed</text>
</a>
</g>
</g>
<!-- Node18&#45;&gt;Node29 -->
<g id="edge31" class="edge"><title>Node18&#45;&gt;Node29</title>
<path fill="none" stroke="midnightblue" d="M215.092,-310.204C230.49,-327.217 257.576,-354.546 286,-371 289.639,-373.106 293.542,-375.014 297.543,-376.735"/>
<polygon fill="midnightblue" stroke="midnightblue" points="296.387,-380.041 306.975,-380.416 298.931,-373.52 296.387,-380.041"/>
</g>
<!-- Node30 -->
<g id="node30" class="node"><title>Node30</title>
<g id="a_node30"><a xlink:href="$classMatrix3.html#a5a629739527e44be792db27f689b541c" xlink:title="Matrix3::det">
<polygon fill="white" stroke="black" points="311.5,-342.5 311.5,-361.5 379.5,-361.5 379.5,-342.5 311.5,-342.5"/>
<text text-anchor="middle" x="345.5" y="-349.5" font-family="Helvetica,sans-Serif" font-size="10.00">Matrix3::det</text>
</a>
</g>
</g>
<!-- Node18&#45;&gt;Node30 -->
<g id="edge32" class="edge"><title>Node18&#45;&gt;Node30</title>
<path fill="none" stroke="midnightblue" d="M233.161,-310.091C248.838,-317.428 268.238,-326.122 286,-333 291.55,-335.149 297.456,-337.263 303.301,-339.255"/>
<polygon fill="midnightblue" stroke="midnightblue" points="302.41,-342.647 313.004,-342.478 304.617,-336.004 302.41,-342.647"/>
</g>
<!-- Node31 -->
<g id="node31" class="node"><title>Node31</title>
<g id="a_node31"><a xlink:href="$classMatrix3.html#a87dab1ef4c76ce536dfd00cfd2c22320" xlink:title="Matrix3::inverse">
<polygon fill="white" stroke="black" points="441,-266.5 441,-285.5 527,-285.5 527,-266.5 441,-266.5"/>
<text text-anchor="middle" x="484" y="-273.5" font-family="Helvetica,sans-Serif" font-size="10.00">Matrix3::inverse</text>
</a>
</g>
</g>
<!-- Node18&#45;&gt;Node31 -->
<g id="edge33" class="edge"><title>Node18&#45;&gt;Node31</title>
<path fill="none" stroke="midnightblue" d="M250.306,-291.734C300.513,-288.339 378.841,-283.043 430.537,-279.547"/>
<polygon fill="midnightblue" stroke="midnightblue" points="431.084,-283.018 440.825,-278.852 430.611,-276.034 431.084,-283.018"/>
</g>
<!-- Node33 -->
<g id="node33" class="node"><title>Node33</title>
<g id="a_node33"><a xlink:href="$classMatrix3.html#ae4054ff80c892e6b21cd970a4c3653b6" xlink:title="Matrix3::invert">
<polygon fill="white" stroke="black" points="306,-304.5 306,-323.5 385,-323.5 385,-304.5 306,-304.5"/>
<text text-anchor="middle" x="345.5" y="-311.5" font-family="Helvetica,sans-Serif" font-size="10.00">Matrix3::invert</text>
</a>
</g>
</g>
<!-- Node18&#45;&gt;Node33 -->
<g id="edge35" class="edge"><title>Node18&#45;&gt;Node33</title>
<path fill="none" stroke="midnightblue" d="M250.244,-301.433C264.939,-303.392 281.097,-305.546 295.821,-307.509"/>
<polygon fill="midnightblue" stroke="midnightblue" points="295.375,-310.981 305.749,-308.833 296.3,-304.042 295.375,-310.981"/>
</g>
<!-- Node44 -->
<g id="node44" class="node"><title>Node44</title>
<g id="a_node44"><a xlink:href="$classMatrix3.html#a4a7bc2c8ec460484472f14298dfec7bf" xlink:title="Matrix3::mulXY">
<polygon fill="white" stroke="black" points="303.5,-228.5 303.5,-247.5 387.5,-247.5 387.5,-228.5 303.5,-228.5"/>
<text text-anchor="middle" x="345.5" y="-235.5" font-family="Helvetica,sans-Serif" font-size="10.00">Matrix3::mulXY</text>
</a>
</g>
</g>
<!-- Node18&#45;&gt;Node44 -->
<g id="edge50" class="edge"><title>Node18&#45;&gt;Node44</title>
<path fill="none" stroke="midnightblue" d="M239.813,-279.875C261.979,-271.008 289.729,-259.909 311.088,-251.365"/>
<polygon fill="midnightblue" stroke="midnightblue" points="312.424,-254.6 320.409,-247.637 309.824,-248.101 312.424,-254.6"/>
</g>
<!-- Node22 -->
<g id="node22" class="node"><title>Node22</title>
<g id="a_node22"><a xlink:href="$classVector3.html#ac1fd5514e368a1e1c2d13f71eda18345" xlink:title="Vector3::length">
<polygon fill="white" stroke="black" points="442.5,-114.5 442.5,-133.5 525.5,-133.5 525.5,-114.5 442.5,-114.5"/>
<text text-anchor="middle" x="484" y="-121.5" font-family="Helvetica,sans-Serif" font-size="10.00">Vector3::length</text>
</a>
</g>
</g>
<!-- Node21&#45;&gt;Node22 -->
<g id="edge22" class="edge"><title>Node21&#45;&gt;Node22</title>
<path fill="none" stroke="midnightblue" d="M394.241,-124C406.494,-124 419.719,-124 432.124,-124"/>
<polygon fill="midnightblue" stroke="midnightblue" points="432.311,-127.5 442.311,-124 432.311,-120.5 432.311,-127.5"/>
</g>
<!-- Node23 -->
<g id="node23" class="node"><title>Node23</title>
<g id="a_node23"><a xlink:href="$AP__Math_8h.html#adc76d4a5e5c9ae8cb7ab17b55c40d636" xlink:title="norm">
<polygon fill="white" stroke="black" points="596.5,-114.5 596.5,-133.5 634.5,-133.5 634.5,-114.5 596.5,-114.5"/>
<text text-anchor="middle" x="615.5" y="-121.5" font-family="Helvetica,sans-Serif" font-size="10.00">norm</text>
</a>
</g>
</g>
<!-- Node22&#45;&gt;Node23 -->
<g id="edge23" class="edge"><title>Node22&#45;&gt;Node23</title>
<path fill="none" stroke="midnightblue" d="M525.619,-124C545.369,-124 568.613,-124 586.377,-124"/>
<polygon fill="midnightblue" stroke="midnightblue" points="586.391,-127.5 596.391,-124 586.391,-120.5 586.391,-127.5"/>
</g>
<!-- Node24 -->
<g id="node24" class="node"><title>Node24</title>
<g id="a_node24"><a xlink:href="$AP__Math_8h.html#a0375e3d67fd3911cacee5c3e1408c0f2" xlink:title="sq">
<polygon fill="white" stroke="black" points="747,-114.5 747,-133.5 776,-133.5 776,-114.5 747,-114.5"/>
<text text-anchor="middle" x="761.5" y="-121.5" font-family="Helvetica,sans-Serif" font-size="10.00">sq</text>
</a>
</g>
</g>
<!-- Node23&#45;&gt;Node24 -->
<g id="edge24" class="edge"><title>Node23&#45;&gt;Node24</title>
<path fill="none" stroke="midnightblue" d="M634.738,-124C660.527,-124 707.696,-124 736.363,-124"/>
<polygon fill="midnightblue" stroke="midnightblue" points="736.707,-127.5 746.707,-124 736.707,-120.5 736.707,-127.5"/>
</g>
<!-- Node32 -->
<g id="node32" class="node"><title>Node32</title>
<g id="a_node32"><a xlink:href="$AP__Math_8h.html#a2a12cce483e9b870da70d30406d82c60" xlink:title="is_zero">
<polygon fill="white" stroke="black" points="737.5,-304.5 737.5,-323.5 785.5,-323.5 785.5,-304.5 737.5,-304.5"/>
<text text-anchor="middle" x="761.5" y="-311.5" font-family="Helvetica,sans-Serif" font-size="10.00">is_zero</text>
</a>
</g>
</g>
<!-- Node31&#45;&gt;Node32 -->
<g id="edge34" class="edge"><title>Node31&#45;&gt;Node32</title>
<path fill="none" stroke="midnightblue" d="M527.31,-279.195C564.498,-282.289 620.016,-287.6 668,-295 687.91,-298.071 710.019,-302.571 727.629,-306.421"/>
<polygon fill="midnightblue" stroke="midnightblue" points="726.905,-309.846 737.426,-308.598 728.423,-303.013 726.905,-309.846"/>
</g>
<!-- Node34 -->
<g id="node34" class="node"><title>Node34</title>
<g id="a_node34"><a xlink:href="$AP__Math_8h.html#adfb798dabbcb4c7a82b3a08978bd8738" xlink:title="inverse">
<polygon fill="white" stroke="black" points="460,-304.5 460,-323.5 508,-323.5 508,-304.5 460,-304.5"/>
<text text-anchor="middle" x="484" y="-311.5" font-family="Helvetica,sans-Serif" font-size="10.00">inverse</text>
</a>
</g>
</g>
<!-- Node33&#45;&gt;Node34 -->
<g id="edge36" class="edge"><title>Node33&#45;&gt;Node34</title>
<path fill="none" stroke="midnightblue" d="M385.25,-314C405.6,-314 430.283,-314 449.754,-314"/>
<polygon fill="midnightblue" stroke="midnightblue" points="449.975,-317.5 459.975,-314 449.975,-310.5 449.975,-317.5"/>
</g>
<!-- Node35 -->
<g id="node35" class="node"><title>Node35</title>
<g id="a_node35"><a xlink:href="$matrix__alg_8cpp.html#a3aede2abf8bd30869b72dadaeb9e2c17" xlink:title="inverse3x3">
<polygon fill="white" stroke="black" points="583.5,-304.5 583.5,-323.5 647.5,-323.5 647.5,-304.5 583.5,-304.5"/>
<text text-anchor="middle" x="615.5" y="-311.5" font-family="Helvetica,sans-Serif" font-size="10.00">inverse3x3</text>
</a>
</g>
</g>
<!-- Node34&#45;&gt;Node35 -->
<g id="edge37" class="edge"><title>Node34&#45;&gt;Node35</title>
<path fill="none" stroke="midnightblue" d="M508.152,-314C526.158,-314 551.607,-314 573.095,-314"/>
<polygon fill="midnightblue" stroke="midnightblue" points="573.276,-317.5 583.275,-314 573.275,-310.5 573.276,-317.5"/>
</g>
<!-- Node36 -->
<g id="node36" class="node"><title>Node36</title>
<g id="a_node36"><a xlink:href="$matrix__alg_8cpp.html#a5b0d60d12edb0ce4c1ed6599acccc6db" xlink:title="inverse4x4">
<polygon fill="white" stroke="black" points="583.5,-342.5 583.5,-361.5 647.5,-361.5 647.5,-342.5 583.5,-342.5"/>
<text text-anchor="middle" x="615.5" y="-349.5" font-family="Helvetica,sans-Serif" font-size="10.00">inverse4x4</text>
</a>
</g>
</g>
<!-- Node34&#45;&gt;Node36 -->
<g id="edge39" class="edge"><title>Node34&#45;&gt;Node36</title>
<path fill="none" stroke="midnightblue" d="M508.152,-320.794C526.322,-326.125 552.07,-333.681 573.68,-340.022"/>
<polygon fill="midnightblue" stroke="midnightblue" points="572.695,-343.38 583.275,-342.838 574.666,-336.663 572.695,-343.38"/>
</g>
<!-- Node37 -->
<g id="node37" class="node"><title>Node37</title>
<g id="a_node37"><a xlink:href="$matrix__alg_8cpp.html#aec3cfc51b8c044f4faa4ab1d3a146435" xlink:title="mat_inverse">
<polygon fill="white" stroke="black" points="580.5,-228.5 580.5,-247.5 650.5,-247.5 650.5,-228.5 580.5,-228.5"/>
<text text-anchor="middle" x="615.5" y="-235.5" font-family="Helvetica,sans-Serif" font-size="10.00">mat_inverse</text>
</a>
</g>
</g>
<!-- Node34&#45;&gt;Node37 -->
<g id="edge42" class="edge"><title>Node34&#45;&gt;Node37</title>
<path fill="none" stroke="midnightblue" d="M507.979,-304.366C514.243,-301.536 520.964,-298.306 527,-295 550.29,-282.243 575.572,-265.425 592.944,-253.369"/>
<polygon fill="midnightblue" stroke="midnightblue" points="595.073,-256.15 601.254,-247.545 591.056,-250.418 595.073,-256.15"/>
</g>
<!-- Node35&#45;&gt;Node32 -->
<g id="edge38" class="edge"><title>Node35&#45;&gt;Node32</title>
<path fill="none" stroke="midnightblue" d="M647.746,-314C671.236,-314 703.355,-314 727.305,-314"/>
<polygon fill="midnightblue" stroke="midnightblue" points="727.346,-317.5 737.346,-314 727.346,-310.5 727.346,-317.5"/>
</g>
<!-- Node36&#45;&gt;Node2 -->
<g id="edge40" class="edge"><title>Node36&#45;&gt;Node2</title>
<path fill="none" stroke="midnightblue" d="M630.253,-361.741C640.742,-369.269 655.471,-380.048 668,-390 691.375,-408.567 717.138,-430.715 735.525,-446.83"/>
<polygon fill="midnightblue" stroke="midnightblue" points="733.599,-449.797 743.419,-453.774 738.223,-444.541 733.599,-449.797"/>
</g>
<!-- Node36&#45;&gt;Node32 -->
<g id="edge41" class="edge"><title>Node36&#45;&gt;Node32</title>
<path fill="none" stroke="midnightblue" d="M647.746,-343.755C671.341,-337.528 703.643,-329.004 727.627,-322.675"/>
<polygon fill="midnightblue" stroke="midnightblue" points="728.57,-326.046 737.346,-320.11 726.784,-319.277 728.57,-326.046"/>
</g>
<!-- Node38 -->
<g id="node38" class="node"><title>Node38</title>
<g id="a_node38"><a xlink:href="$matrix__alg_8cpp.html#a71120309d433abdf23de6c2d78440b1c" xlink:title="mat_LU_decompose">
<polygon fill="white" stroke="black" points="708,-152.5 708,-171.5 815,-171.5 815,-152.5 708,-152.5"/>
<text text-anchor="middle" x="761.5" y="-159.5" font-family="Helvetica,sans-Serif" font-size="10.00">mat_LU_decompose</text>
</a>
</g>
</g>
<!-- Node37&#45;&gt;Node38 -->
<g id="edge43" class="edge"><title>Node37&#45;&gt;Node38</title>
<path fill="none" stroke="midnightblue" d="M628.942,-228.433C645.388,-216.139 675.607,-194.747 704,-181 708.369,-178.885 713.034,-176.907 717.74,-175.087"/>
<polygon fill="midnightblue" stroke="midnightblue" points="719.174,-178.289 727.374,-171.579 716.78,-171.711 719.174,-178.289"/>
</g>
<!-- Node41 -->
<g id="node41" class="node"><title>Node41</title>
<g id="a_node41"><a xlink:href="$matrix__alg_8cpp.html#a9e2d939e8250f6c633d3b87661b04d45" xlink:title="mat_mul">
<polygon fill="white" stroke="black" points="885.5,-228.5 885.5,-247.5 939.5,-247.5 939.5,-228.5 885.5,-228.5"/>
<text text-anchor="middle" x="912.5" y="-235.5" font-family="Helvetica,sans-Serif" font-size="10.00">mat_mul</text>
</a>
</g>
</g>
<!-- Node37&#45;&gt;Node41 -->
<g id="edge49" class="edge"><title>Node37&#45;&gt;Node41</title>
<path fill="none" stroke="midnightblue" d="M650.716,-247.206C666.763,-251.065 686.225,-255.092 704,-257 754.819,-262.454 768.151,-262.168 819,-257 837.775,-255.092 858.367,-251.058 875.347,-247.196"/>
<polygon fill="midnightblue" stroke="midnightblue" points="876.469,-250.528 885.404,-244.834 874.868,-243.713 876.469,-250.528"/>
</g>
<!-- Node42 -->
<g id="node42" class="node"><title>Node42</title>
<g id="a_node42"><a xlink:href="$matrix__alg_8cpp.html#ae99d89fadc41e4ff699c74822490a71e" xlink:title="mat_forward_sub">
<polygon fill="white" stroke="black" points="715.5,-228.5 715.5,-247.5 807.5,-247.5 807.5,-228.5 715.5,-228.5"/>
<text text-anchor="middle" x="761.5" y="-235.5" font-family="Helvetica,sans-Serif" font-size="10.00">mat_forward_sub</text>
</a>
</g>
</g>
<!-- Node37&#45;&gt;Node42 -->
<g id="edge47" class="edge"><title>Node37&#45;&gt;Node42</title>
<path fill="none" stroke="midnightblue" d="M650.626,-238C666.977,-238 686.97,-238 705.398,-238"/>
<polygon fill="midnightblue" stroke="midnightblue" points="705.442,-241.5 715.442,-238 705.442,-234.5 705.442,-241.5"/>
</g>
<!-- Node43 -->
<g id="node43" class="node"><title>Node43</title>
<g id="a_node43"><a xlink:href="$matrix__alg_8cpp.html#a5f5a54d345886bbaf464910d3a1cf139" xlink:title="mat_back_sub">
<polygon fill="white" stroke="black" points="721.5,-190.5 721.5,-209.5 801.5,-209.5 801.5,-190.5 721.5,-190.5"/>
<text text-anchor="middle" x="761.5" y="-197.5" font-family="Helvetica,sans-Serif" font-size="10.00">mat_back_sub</text>
</a>
</g>
</g>
<!-- Node37&#45;&gt;Node43 -->
<g id="edge48" class="edge"><title>Node37&#45;&gt;Node43</title>
<path fill="none" stroke="midnightblue" d="M650.626,-228.995C669.709,-223.959 693.755,-217.613 714.483,-212.143"/>
<polygon fill="midnightblue" stroke="midnightblue" points="715.58,-215.474 724.356,-209.538 713.794,-208.706 715.58,-215.474"/>
</g>
<!-- Node39 -->
<g id="node39" class="node"><title>Node39</title>
<g id="a_node39"><a xlink:href="$matrix__alg_8cpp.html#a7a49fc8b7a650e05045994ffba7c1dbc" xlink:title="mat_pivot">
<polygon fill="white" stroke="black" points="883,-152.5 883,-171.5 942,-171.5 942,-152.5 883,-152.5"/>
<text text-anchor="middle" x="912.5" y="-159.5" font-family="Helvetica,sans-Serif" font-size="10.00">mat_pivot</text>
</a>
</g>
</g>
<!-- Node38&#45;&gt;Node39 -->
<g id="edge44" class="edge"><title>Node38&#45;&gt;Node39</title>
<path fill="none" stroke="midnightblue" d="M815.032,-162C833.904,-162 854.843,-162 872.376,-162"/>
<polygon fill="midnightblue" stroke="midnightblue" points="872.804,-165.5 882.804,-162 872.804,-158.5 872.804,-165.5"/>
</g>
<!-- Node38&#45;&gt;Node41 -->
<g id="edge46" class="edge"><title>Node38&#45;&gt;Node41</title>
<path fill="none" stroke="midnightblue" d="M794.97,-171.51C802.967,-174.234 811.41,-177.442 819,-181 844.424,-192.917 871.555,-210.247 889.813,-222.666"/>
<polygon fill="midnightblue" stroke="midnightblue" points="888.037,-225.692 898.256,-228.49 892.012,-219.93 888.037,-225.692"/>
</g>
<!-- Node40 -->
<g id="node40" class="node"><title>Node40</title>
<g id="a_node40"><a xlink:href="$matrix__alg_8cpp.html#a4ae7bd9da0bae1b05a7c352df26008ff" xlink:title="swap">
<polygon fill="white" stroke="black" points="1020,-152.5 1020,-171.5 1060,-171.5 1060,-152.5 1020,-152.5"/>
<text text-anchor="middle" x="1040" y="-159.5" font-family="Helvetica,sans-Serif" font-size="10.00">swap</text>
</a>
</g>
</g>
<!-- Node39&#45;&gt;Node40 -->
<g id="edge45" class="edge"><title>Node39&#45;&gt;Node40</title>
<path fill="none" stroke="midnightblue" d="M942.292,-162C962.413,-162 989.198,-162 1009.48,-162"/>
<polygon fill="midnightblue" stroke="midnightblue" points="1009.7,-165.5 1019.7,-162 1009.7,-158.5 1009.7,-165.5"/>
</g>
</g>
</svg>
