<?xml version="1.0" encoding="UTF-8" standalone="no"?>
<!DOCTYPE svg PUBLIC "-//W3C//DTD SVG 1.1//EN"
 "http://www.w3.org/Graphics/SVG/1.1/DTD/svg11.dtd">
<!-- Generated by graphviz version 2.38.0 (20140413.2041)
 -->
<!-- Title: setup Pages: 1 -->
<svg width="1305pt" height="986pt"
 viewBox="0.00 0.00 1305.00 985.68" xmlns="http://www.w3.org/2000/svg" xmlns:xlink="http://www.w3.org/1999/xlink">
<g id="graph0" class="graph" transform="scale(1 1) rotate(0) translate(4 981.684)">
<title>setup</title>
<polygon fill="white" stroke="none" points="-4,4 -4,-981.684 1301,-981.684 1301,4 -4,4"/>
<!-- Node1 -->
<g id="node1" class="node"><title>Node1</title>
<polygon fill="#bfbfbf" stroke="black" points="0,-161.5 0,-180.5 41,-180.5 41,-161.5 0,-161.5"/>
<text text-anchor="middle" x="20.5" y="-168.5" font-family="Helvetica,sans-Serif" font-size="10.00">setup</text>
</g>
<!-- Node2 -->
<g id="node2" class="node"><title>Node2</title>
<g id="a_node2"><a xlink:href="$classAP__HAL_1_1UARTDriver.html#a6ceedc792594e59fc7d80b39a435f027" xlink:title="AP_HAL::UARTDriver\l::printf">
<polygon fill="white" stroke="black" points="783,-118 783,-148 898,-148 898,-118 783,-118"/>
<text text-anchor="start" x="791" y="-136" font-family="Helvetica,sans-Serif" font-size="10.00">AP_HAL::UARTDriver</text>
<text text-anchor="middle" x="840.5" y="-125" font-family="Helvetica,sans-Serif" font-size="10.00">::printf</text>
</a>
</g>
</g>
<!-- Node1&#45;&gt;Node2 -->
<g id="edge1" class="edge"><title>Node1&#45;&gt;Node2</title>
<path fill="none" stroke="midnightblue" d="M28.6803,-161.316C56.4058,-125.142 160.791,-0 278,-0 278,-0 278,-0 564,-0 647.651,-0 673.631,-3.81931 747,-44 777.235,-60.5585 804.705,-89.6014 821.711,-109.996"/>
<polygon fill="midnightblue" stroke="midnightblue" points="819.098,-112.33 828.125,-117.877 824.528,-107.912 819.098,-112.33"/>
</g>
<!-- Node10 -->
<g id="node10" class="node"><title>Node10</title>
<g id="a_node10"><a xlink:href="$rotations_8cpp.html#acaec71463457149487901c616be1c74d" xlink:title="test_rotation_accuracy">
<polygon fill="white" stroke="black" points="77,-427.5 77,-446.5 193,-446.5 193,-427.5 77,-427.5"/>
<text text-anchor="middle" x="135" y="-434.5" font-family="Helvetica,sans-Serif" font-size="10.00">test_rotation_accuracy</text>
</a>
</g>
</g>
<!-- Node1&#45;&gt;Node10 -->
<g id="edge9" class="edge"><title>Node1&#45;&gt;Node10</title>
<path fill="none" stroke="midnightblue" d="M25.5073,-180.692C34.598,-202.66 57.5085,-257.912 77,-304 94.2007,-344.671 114.654,-392.196 125.784,-417.987"/>
<polygon fill="midnightblue" stroke="midnightblue" points="122.643,-419.541 129.82,-427.335 129.069,-416.766 122.643,-419.541"/>
</g>
<!-- Node46 -->
<g id="node46" class="node"><title>Node46</title>
<g id="a_node46"><a xlink:href="$rotations_8cpp.html#a03c7c1e3aa9eaccd37b442995438a8b8" xlink:title="test_eulers">
<polygon fill="white" stroke="black" points="102.5,-123.5 102.5,-142.5 167.5,-142.5 167.5,-123.5 102.5,-123.5"/>
<text text-anchor="middle" x="135" y="-130.5" font-family="Helvetica,sans-Serif" font-size="10.00">test_eulers</text>
</a>
</g>
</g>
<!-- Node1&#45;&gt;Node46 -->
<g id="edge53" class="edge"><title>Node1&#45;&gt;Node46</title>
<path fill="none" stroke="midnightblue" d="M41.096,-164.381C56.251,-159.262 77.6933,-152.019 96.1602,-145.781"/>
<polygon fill="midnightblue" stroke="midnightblue" points="97.4208,-149.05 105.775,-142.534 95.1806,-142.418 97.4208,-149.05"/>
</g>
<!-- Node51 -->
<g id="node51" class="node"><title>Node51</title>
<g id="a_node51"><a xlink:href="$rotations_8cpp.html#a1452d16c339066eafa4bf6ad001b7695" xlink:title="missing_rotations">
<polygon fill="white" stroke="black" points="88.5,-275.5 88.5,-294.5 181.5,-294.5 181.5,-275.5 88.5,-275.5"/>
<text text-anchor="middle" x="135" y="-282.5" font-family="Helvetica,sans-Serif" font-size="10.00">missing_rotations</text>
</a>
</g>
</g>
<!-- Node1&#45;&gt;Node51 -->
<g id="edge63" class="edge"><title>Node1&#45;&gt;Node51</title>
<path fill="none" stroke="midnightblue" d="M31.0917,-180.72C50.1874,-200.07 93.1762,-243.632 117.109,-267.884"/>
<polygon fill="midnightblue" stroke="midnightblue" points="114.917,-270.646 124.433,-275.305 119.9,-265.729 114.917,-270.646"/>
</g>
<!-- Node53 -->
<g id="node53" class="node"><title>Node53</title>
<g id="a_node53"><a xlink:href="$rotations_8cpp.html#a6925b02626e740f62308e109019f5cf8" xlink:title="test_rotate_inverse">
<polygon fill="white" stroke="black" points="229,-104.5 229,-123.5 329,-123.5 329,-104.5 229,-104.5"/>
<text text-anchor="middle" x="279" y="-111.5" font-family="Helvetica,sans-Serif" font-size="10.00">test_rotate_inverse</text>
</a>
</g>
</g>
<!-- Node1&#45;&gt;Node53 -->
<g id="edge69" class="edge"><title>Node1&#45;&gt;Node53</title>
<path fill="none" stroke="midnightblue" d="M41.1554,-170.787C73.4173,-170.003 139.376,-166.574 193,-152 213.472,-146.436 235.294,-136.59 251.7,-128.314"/>
<polygon fill="midnightblue" stroke="midnightblue" points="253.41,-131.37 260.684,-123.667 250.194,-125.153 253.41,-131.37"/>
</g>
<!-- Node3 -->
<g id="node3" class="node"><title>Node3</title>
<g id="a_node3"><a xlink:href="$classAP__HAL_1_1UARTDriver.html#aa8abfb6d6641299472c29ac1edde559f" xlink:title="AP_HAL::UARTDriver\l::vprintf">
<polygon fill="white" stroke="black" points="934,-118 934,-148 1049,-148 1049,-118 934,-118"/>
<text text-anchor="start" x="942" y="-136" font-family="Helvetica,sans-Serif" font-size="10.00">AP_HAL::UARTDriver</text>
<text text-anchor="middle" x="991.5" y="-125" font-family="Helvetica,sans-Serif" font-size="10.00">::vprintf</text>
</a>
</g>
</g>
<!-- Node2&#45;&gt;Node3 -->
<g id="edge2" class="edge"><title>Node2&#45;&gt;Node3</title>
<path fill="none" stroke="midnightblue" d="M898.256,-133C906.558,-133 915.173,-133 923.654,-133"/>
<polygon fill="midnightblue" stroke="midnightblue" points="923.902,-136.5 933.902,-133 923.902,-129.5 923.902,-136.5"/>
</g>
<!-- Node4 -->
<g id="node4" class="node"><title>Node4</title>
<g id="a_node4"><a xlink:href="$print__vprintf_8cpp.html#a1534eaeab54696df96975b56d9f49212" xlink:title="print_vprintf">
<polygon fill="white" stroke="black" points="1085,-123.5 1085,-142.5 1153,-142.5 1153,-123.5 1085,-123.5"/>
<text text-anchor="middle" x="1119" y="-130.5" font-family="Helvetica,sans-Serif" font-size="10.00">print_vprintf</text>
</a>
</g>
</g>
<!-- Node3&#45;&gt;Node4 -->
<g id="edge3" class="edge"><title>Node3&#45;&gt;Node4</title>
<path fill="none" stroke="midnightblue" d="M1049.01,-133C1057.61,-133 1066.37,-133 1074.63,-133"/>
<polygon fill="midnightblue" stroke="midnightblue" points="1074.78,-136.5 1084.78,-133 1074.78,-129.5 1074.78,-136.5"/>
</g>
<!-- Node5 -->
<g id="node5" class="node"><title>Node5</title>
<g id="a_node5"><a xlink:href="$classAP__HAL_1_1Print.html#acc65391952a43334f8f5c9bef341f501" xlink:title="AP_HAL::Print::write">
<polygon fill="white" stroke="black" points="1189,-199.5 1189,-218.5 1297,-218.5 1297,-199.5 1189,-199.5"/>
<text text-anchor="middle" x="1243" y="-206.5" font-family="Helvetica,sans-Serif" font-size="10.00">AP_HAL::Print::write</text>
</a>
</g>
</g>
<!-- Node4&#45;&gt;Node5 -->
<g id="edge4" class="edge"><title>Node4&#45;&gt;Node5</title>
<path fill="none" stroke="midnightblue" d="M1129.47,-142.683C1142.07,-155.102 1165.5,-176.629 1189,-190 1192.63,-192.067 1196.53,-193.973 1200.5,-195.715"/>
<polygon fill="midnightblue" stroke="midnightblue" points="1199.23,-198.977 1209.82,-199.479 1201.86,-192.487 1199.23,-198.977"/>
</g>
<!-- Node6 -->
<g id="node6" class="node"><title>Node6</title>
<g id="a_node6"><a xlink:href="$ftoa__engine_8cpp.html#a1c28234da8f20b43c85890d4bb452947" xlink:title="ftoa_engine">
<polygon fill="white" stroke="black" points="1209.5,-161.5 1209.5,-180.5 1276.5,-180.5 1276.5,-161.5 1209.5,-161.5"/>
<text text-anchor="middle" x="1243" y="-168.5" font-family="Helvetica,sans-Serif" font-size="10.00">ftoa_engine</text>
</a>
</g>
</g>
<!-- Node4&#45;&gt;Node6 -->
<g id="edge5" class="edge"><title>Node4&#45;&gt;Node6</title>
<path fill="none" stroke="midnightblue" d="M1150.79,-142.589C1166.1,-147.359 1184.82,-153.189 1201.3,-158.323"/>
<polygon fill="midnightblue" stroke="midnightblue" points="1200.64,-161.782 1211.22,-161.414 1202.72,-155.099 1200.64,-161.782"/>
</g>
<!-- Node7 -->
<g id="node7" class="node"><title>Node7</title>
<g id="a_node7"><a xlink:href="$replace_8cpp.html#a880bcc7b85a09e6254691bebd5344b51" xlink:title="strnlen">
<polygon fill="white" stroke="black" points="1220,-123.5 1220,-142.5 1266,-142.5 1266,-123.5 1220,-123.5"/>
<text text-anchor="middle" x="1243" y="-130.5" font-family="Helvetica,sans-Serif" font-size="10.00">strnlen</text>
</a>
</g>
</g>
<!-- Node4&#45;&gt;Node7 -->
<g id="edge6" class="edge"><title>Node4&#45;&gt;Node7</title>
<path fill="none" stroke="midnightblue" d="M1153.01,-133C1170.55,-133 1192.02,-133 1209.47,-133"/>
<polygon fill="midnightblue" stroke="midnightblue" points="1209.75,-136.5 1219.75,-133 1209.75,-129.5 1209.75,-136.5"/>
</g>
<!-- Node8 -->
<g id="node8" class="node"><title>Node8</title>
<g id="a_node8"><a xlink:href="$utoa__invert_8cpp.html#a34926f552460b47c414ec4d83b32815c" xlink:title="ulltoa_invert">
<polygon fill="white" stroke="black" points="1208.5,-85.5 1208.5,-104.5 1277.5,-104.5 1277.5,-85.5 1208.5,-85.5"/>
<text text-anchor="middle" x="1243" y="-92.5" font-family="Helvetica,sans-Serif" font-size="10.00">ulltoa_invert</text>
</a>
</g>
</g>
<!-- Node4&#45;&gt;Node8 -->
<g id="edge7" class="edge"><title>Node4&#45;&gt;Node8</title>
<path fill="none" stroke="midnightblue" d="M1150.79,-123.411C1166.1,-118.641 1184.82,-112.811 1201.3,-107.677"/>
<polygon fill="midnightblue" stroke="midnightblue" points="1202.72,-110.901 1211.22,-104.586 1200.64,-104.218 1202.72,-110.901"/>
</g>
<!-- Node9 -->
<g id="node9" class="node"><title>Node9</title>
<g id="a_node9"><a xlink:href="$utoa__invert_8cpp.html#a5d99bba8e697c1e11da489d88fca8559" xlink:title="ultoa_invert">
<polygon fill="white" stroke="black" points="1209.5,-47.5 1209.5,-66.5 1276.5,-66.5 1276.5,-47.5 1209.5,-47.5"/>
<text text-anchor="middle" x="1243" y="-54.5" font-family="Helvetica,sans-Serif" font-size="10.00">ultoa_invert</text>
</a>
</g>
</g>
<!-- Node4&#45;&gt;Node9 -->
<g id="edge8" class="edge"><title>Node4&#45;&gt;Node9</title>
<path fill="none" stroke="midnightblue" d="M1129.47,-123.317C1142.07,-110.898 1165.5,-89.371 1189,-76 1192.63,-73.9334 1196.53,-72.0271 1200.5,-70.2853"/>
<polygon fill="midnightblue" stroke="midnightblue" points="1201.86,-73.5129 1209.82,-66.5214 1199.23,-67.0226 1201.86,-73.5129"/>
</g>
<!-- Node10&#45;&gt;Node2 -->
<g id="edge10" class="edge"><title>Node10&#45;&gt;Node2</title>
<path fill="none" stroke="midnightblue" d="M193.272,-428.301C231.812,-422.107 283.673,-413.112 329,-403 526.246,-358.996 583.551,-342.856 747,-224 774.703,-203.855 802.129,-175.538 819.835,-155.863"/>
<polygon fill="midnightblue" stroke="midnightblue" points="822.556,-158.069 826.575,-148.266 817.32,-153.424 822.556,-158.069"/>
</g>
<!-- Node11 -->
<g id="node11" class="node"><title>Node11</title>
<g id="a_node11"><a xlink:href="$classMatrix3.html#a62587bd216436f09f06b9e1330f84bc0" xlink:title="Matrix3::from_euler">
<polygon fill="white" stroke="black" points="374,-332.5 374,-351.5 475,-351.5 475,-332.5 374,-332.5"/>
<text text-anchor="middle" x="424.5" y="-339.5" font-family="Helvetica,sans-Serif" font-size="10.00">Matrix3::from_euler</text>
</a>
</g>
</g>
<!-- Node10&#45;&gt;Node11 -->
<g id="edge11" class="edge"><title>Node10&#45;&gt;Node11</title>
<path fill="none" stroke="midnightblue" d="M162.378,-427.383C180.953,-420.675 206.431,-411.599 229,-404 281.837,-386.21 343.18,-366.873 382.625,-354.607"/>
<polygon fill="midnightblue" stroke="midnightblue" points="383.895,-357.878 392.408,-351.57 381.82,-351.192 383.895,-357.878"/>
</g>
<!-- Node12 -->
<g id="node12" class="node"><title>Node12</title>
<g id="a_node12"><a xlink:href="$classMatrix3.html#a6f044e8d64f6f10e054af962487399b9" xlink:title="Matrix3::rotate">
<polygon fill="white" stroke="black" points="384.5,-446.5 384.5,-465.5 464.5,-465.5 464.5,-446.5 384.5,-446.5"/>
<text text-anchor="middle" x="424.5" y="-453.5" font-family="Helvetica,sans-Serif" font-size="10.00">Matrix3::rotate</text>
</a>
</g>
</g>
<!-- Node10&#45;&gt;Node12 -->
<g id="edge12" class="edge"><title>Node10&#45;&gt;Node12</title>
<path fill="none" stroke="midnightblue" d="M193.144,-440.777C246.042,-444.272 323.884,-449.417 374.14,-452.738"/>
<polygon fill="midnightblue" stroke="midnightblue" points="374.217,-456.251 384.426,-453.418 374.679,-449.266 374.217,-456.251"/>
</g>
<!-- Node13 -->
<g id="node13" class="node"><title>Node13</title>
<g id="a_node13"><a xlink:href="$classMatrix3.html#a893c6a712d52e47dbb7ed2d7a548046e" xlink:title="Matrix3::to_euler">
<polygon fill="white" stroke="black" points="380,-902.5 380,-921.5 469,-921.5 469,-902.5 380,-902.5"/>
<text text-anchor="middle" x="424.5" y="-909.5" font-family="Helvetica,sans-Serif" font-size="10.00">Matrix3::to_euler</text>
</a>
</g>
</g>
<!-- Node10&#45;&gt;Node13 -->
<g id="edge13" class="edge"><title>Node10&#45;&gt;Node13</title>
<path fill="none" stroke="midnightblue" d="M138.287,-446.693C151.074,-498.874 218.463,-749.003 365,-884 371.056,-889.579 378.425,-894.255 385.863,-898.089"/>
<polygon fill="midnightblue" stroke="midnightblue" points="384.69,-901.405 395.228,-902.5 387.673,-895.073 384.69,-901.405"/>
</g>
<!-- Node19 -->
<g id="node19" class="node"><title>Node19</title>
<g id="a_node19"><a xlink:href="$classMatrix3.html#a69d23fe802118124235bd5542b279259" xlink:title="Matrix3::from_axis\l_angle">
<polygon fill="white" stroke="black" points="230,-612 230,-642 328,-642 328,-612 230,-612"/>
<text text-anchor="start" x="238" y="-630" font-family="Helvetica,sans-Serif" font-size="10.00">Matrix3::from_axis</text>
<text text-anchor="middle" x="279" y="-619" font-family="Helvetica,sans-Serif" font-size="10.00">_angle</text>
</a>
</g>
</g>
<!-- Node10&#45;&gt;Node19 -->
<g id="edge19" class="edge"><title>Node10&#45;&gt;Node19</title>
<path fill="none" stroke="midnightblue" d="M143.237,-446.683C164.818,-475.559 229.163,-561.655 260.484,-603.563"/>
<polygon fill="midnightblue" stroke="midnightblue" points="257.849,-605.884 266.639,-611.799 263.456,-601.693 257.849,-605.884"/>
</g>
<!-- Node14 -->
<g id="node14" class="node"><title>Node14</title>
<g id="a_node14"><a xlink:href="$AP__Math_8cpp.html#a3370ada2588e54722319d65e00d8545c" xlink:title="safe_asin">
<polygon fill="white" stroke="black" points="533.5,-712.5 533.5,-731.5 592.5,-731.5 592.5,-712.5 533.5,-712.5"/>
<text text-anchor="middle" x="563" y="-719.5" font-family="Helvetica,sans-Serif" font-size="10.00">safe_asin</text>
</a>
</g>
</g>
<!-- Node13&#45;&gt;Node14 -->
<g id="edge14" class="edge"><title>Node13&#45;&gt;Node14</title>
<path fill="none" stroke="midnightblue" d="M437.18,-902.3C449.685,-891.552 469.661,-873.309 484,-855 513.563,-817.252 539.942,-767.217 553.119,-740.568"/>
<polygon fill="midnightblue" stroke="midnightblue" points="556.268,-742.097 557.503,-731.574 549.975,-739.03 556.268,-742.097"/>
</g>
<!-- Node15 -->
<g id="node15" class="node"><title>Node15</title>
<g id="a_node15"><a xlink:href="$AP__Math_8cpp.html#acde8e5813f30717986b84509948bf530" xlink:title="safe_asin\&lt; int \&gt;">
<polygon fill="white" stroke="black" points="651,-636.5 651,-655.5 738,-655.5 738,-636.5 651,-636.5"/>
<text text-anchor="middle" x="694.5" y="-643.5" font-family="Helvetica,sans-Serif" font-size="10.00">safe_asin&lt; int &gt;</text>
</a>
</g>
</g>
<!-- Node14&#45;&gt;Node15 -->
<g id="edge15" class="edge"><title>Node14&#45;&gt;Node15</title>
<path fill="none" stroke="midnightblue" d="M574.965,-712.447C589.49,-700.169 616.282,-678.793 642,-665 645.732,-662.999 649.72,-661.119 653.763,-659.38"/>
<polygon fill="midnightblue" stroke="midnightblue" points="655.229,-662.564 663.201,-655.586 652.618,-656.069 655.229,-662.564"/>
</g>
<!-- Node16 -->
<g id="node16" class="node"><title>Node16</title>
<g id="a_node16"><a xlink:href="$AP__Math_8cpp.html#a6baeda4985886aba9f6d5d5008ac2b10" xlink:title="safe_asin\&lt; short \&gt;">
<polygon fill="white" stroke="black" points="645.5,-750.5 645.5,-769.5 743.5,-769.5 743.5,-750.5 645.5,-750.5"/>
<text text-anchor="middle" x="694.5" y="-757.5" font-family="Helvetica,sans-Serif" font-size="10.00">safe_asin&lt; short &gt;</text>
</a>
</g>
</g>
<!-- Node14&#45;&gt;Node16 -->
<g id="edge16" class="edge"><title>Node14&#45;&gt;Node16</title>
<path fill="none" stroke="midnightblue" d="M592.74,-730.433C609.873,-735.461 631.937,-741.935 651.049,-747.543"/>
<polygon fill="midnightblue" stroke="midnightblue" points="650.152,-750.928 660.733,-750.385 652.123,-744.211 650.152,-750.928"/>
</g>
<!-- Node17 -->
<g id="node17" class="node"><title>Node17</title>
<g id="a_node17"><a xlink:href="$AP__Math_8cpp.html#a48612e903b0ef12fa5653056a6d5b3f7" xlink:title="safe_asin\&lt; float \&gt;">
<polygon fill="white" stroke="black" points="647,-712.5 647,-731.5 742,-731.5 742,-712.5 647,-712.5"/>
<text text-anchor="middle" x="694.5" y="-719.5" font-family="Helvetica,sans-Serif" font-size="10.00">safe_asin&lt; float &gt;</text>
</a>
</g>
</g>
<!-- Node14&#45;&gt;Node17 -->
<g id="edge17" class="edge"><title>Node14&#45;&gt;Node17</title>
<path fill="none" stroke="midnightblue" d="M592.74,-722C605.636,-722 621.326,-722 636.448,-722"/>
<polygon fill="midnightblue" stroke="midnightblue" points="636.785,-725.5 646.785,-722 636.785,-718.5 636.785,-725.5"/>
</g>
<!-- Node18 -->
<g id="node18" class="node"><title>Node18</title>
<g id="a_node18"><a xlink:href="$AP__Math_8cpp.html#a9f2aae5b5adb09329c1a64b433d148dd" xlink:title="safe_asin\&lt; double \&gt;">
<polygon fill="white" stroke="black" points="642,-674.5 642,-693.5 747,-693.5 747,-674.5 642,-674.5"/>
<text text-anchor="middle" x="694.5" y="-681.5" font-family="Helvetica,sans-Serif" font-size="10.00">safe_asin&lt; double &gt;</text>
</a>
</g>
</g>
<!-- Node14&#45;&gt;Node18 -->
<g id="edge18" class="edge"><title>Node14&#45;&gt;Node18</title>
<path fill="none" stroke="midnightblue" d="M592.74,-713.567C609.873,-708.539 631.937,-702.065 651.049,-696.457"/>
<polygon fill="midnightblue" stroke="midnightblue" points="652.123,-699.789 660.733,-693.615 650.152,-693.072 652.123,-699.789"/>
</g>
<!-- Node19&#45;&gt;Node11 -->
<g id="edge27" class="edge"><title>Node19&#45;&gt;Node11</title>
<path fill="none" stroke="midnightblue" d="M283.209,-611.818C291.78,-573.612 317.829,-471.375 365,-399 375.191,-383.363 390.368,-368.738 402.709,-358.217"/>
<polygon fill="midnightblue" stroke="midnightblue" points="405.213,-360.689 410.704,-351.627 400.761,-355.287 405.213,-360.689"/>
</g>
<!-- Node19&#45;&gt;Node12 -->
<g id="edge22" class="edge"><title>Node19&#45;&gt;Node12</title>
<path fill="none" stroke="midnightblue" d="M284.417,-611.595C293.967,-581.023 319.434,-512.414 365,-475 368.069,-472.48 371.481,-470.291 375.071,-468.391"/>
<polygon fill="midnightblue" stroke="midnightblue" points="376.597,-471.542 384.27,-464.235 373.715,-465.163 376.597,-471.542"/>
</g>
<!-- Node19&#45;&gt;Node13 -->
<g id="edge28" class="edge"><title>Node19&#45;&gt;Node13</title>
<path fill="none" stroke="midnightblue" d="M284.591,-642.289C300.993,-696.745 356.186,-878.504 365,-888 368.55,-891.824 372.798,-895.056 377.363,-897.783"/>
<polygon fill="midnightblue" stroke="midnightblue" points="375.936,-900.984 386.432,-902.429 379.127,-894.754 375.936,-900.984"/>
</g>
<!-- Node20 -->
<g id="node20" class="node"><title>Node20</title>
<g id="a_node20"><a xlink:href="$classVector3.html#a4623c9d95850aec72ba56cb9ceea2cdf" xlink:title="Vector3::normalized">
<polygon fill="white" stroke="black" points="372.5,-750.5 372.5,-769.5 476.5,-769.5 476.5,-750.5 372.5,-750.5"/>
<text text-anchor="middle" x="424.5" y="-757.5" font-family="Helvetica,sans-Serif" font-size="10.00">Vector3::normalized</text>
</a>
</g>
</g>
<!-- Node19&#45;&gt;Node20 -->
<g id="edge20" class="edge"><title>Node19&#45;&gt;Node20</title>
<path fill="none" stroke="midnightblue" d="M287.423,-642.301C300.022,-666.703 327.884,-714.386 365,-741 367.69,-742.929 370.587,-744.669 373.6,-746.239"/>
<polygon fill="midnightblue" stroke="midnightblue" points="372.348,-749.514 382.901,-750.45 375.235,-743.137 372.348,-749.514"/>
</g>
<!-- Node21 -->
<g id="node21" class="node"><title>Node21</title>
<g id="a_node21"><a xlink:href="$classMatrix3.html#a90cfd0bec53253429603b5600dcdce81" xlink:title="Matrix3::zero">
<polygon fill="white" stroke="black" points="387.5,-712.5 387.5,-731.5 461.5,-731.5 461.5,-712.5 387.5,-712.5"/>
<text text-anchor="middle" x="424.5" y="-719.5" font-family="Helvetica,sans-Serif" font-size="10.00">Matrix3::zero</text>
</a>
</g>
</g>
<!-- Node19&#45;&gt;Node21 -->
<g id="edge21" class="edge"><title>Node19&#45;&gt;Node21</title>
<path fill="none" stroke="midnightblue" d="M293.286,-642.196C308.901,-659.201 336.341,-686.522 365,-703 368.96,-705.277 373.231,-707.324 377.597,-709.153"/>
<polygon fill="midnightblue" stroke="midnightblue" points="376.635,-712.532 387.226,-712.817 379.124,-705.989 376.635,-712.532"/>
</g>
<!-- Node22 -->
<g id="node22" class="node"><title>Node22</title>
<g id="a_node22"><a xlink:href="$classMatrix3.html#a79b6de6d1beda5938087dec7fa225702" xlink:title="Matrix3::normalize">
<polygon fill="white" stroke="black" points="376,-484.5 376,-503.5 473,-503.5 473,-484.5 376,-484.5"/>
<text text-anchor="middle" x="424.5" y="-491.5" font-family="Helvetica,sans-Serif" font-size="10.00">Matrix3::normalize</text>
</a>
</g>
</g>
<!-- Node19&#45;&gt;Node22 -->
<g id="edge23" class="edge"><title>Node19&#45;&gt;Node22</title>
<path fill="none" stroke="midnightblue" d="M287.423,-611.699C300.022,-587.297 327.884,-539.614 365,-513 367.69,-511.071 370.587,-509.331 373.6,-507.761"/>
<polygon fill="midnightblue" stroke="midnightblue" points="375.235,-510.863 382.901,-503.55 372.348,-504.486 375.235,-510.863"/>
</g>
<!-- Node26 -->
<g id="node26" class="node"><title>Node26</title>
<g id="a_node26"><a xlink:href="$classMatrix3.html#ac40446799dccb00a1a0098decf876d7b" xlink:title="Matrix3::from_euler312">
<polygon fill="white" stroke="black" points="366.5,-674.5 366.5,-693.5 482.5,-693.5 482.5,-674.5 366.5,-674.5"/>
<text text-anchor="middle" x="424.5" y="-681.5" font-family="Helvetica,sans-Serif" font-size="10.00">Matrix3::from_euler312</text>
</a>
</g>
</g>
<!-- Node19&#45;&gt;Node26 -->
<g id="edge29" class="edge"><title>Node19&#45;&gt;Node26</title>
<path fill="none" stroke="midnightblue" d="M311.55,-642.067C327.418,-649.397 347.047,-658.094 365,-665 370.555,-667.137 376.464,-669.244 382.309,-671.233"/>
<polygon fill="midnightblue" stroke="midnightblue" points="381.42,-674.625 392.013,-674.452 383.625,-667.981 381.42,-674.625"/>
</g>
<!-- Node27 -->
<g id="node27" class="node"><title>Node27</title>
<g id="a_node27"><a xlink:href="$classMatrix3.html#abd9cba5416890b2470e3e0f44c314c2a" xlink:title="Matrix3::to_euler312">
<polygon fill="white" stroke="black" points="372,-636.5 372,-655.5 477,-655.5 477,-636.5 372,-636.5"/>
<text text-anchor="middle" x="424.5" y="-643.5" font-family="Helvetica,sans-Serif" font-size="10.00">Matrix3::to_euler312</text>
</a>
</g>
</g>
<!-- Node19&#45;&gt;Node27 -->
<g id="edge30" class="edge"><title>Node19&#45;&gt;Node27</title>
<path fill="none" stroke="midnightblue" d="M328.183,-633.38C338.905,-634.799 350.417,-636.324 361.604,-637.805"/>
<polygon fill="midnightblue" stroke="midnightblue" points="361.38,-641.306 371.753,-639.149 362.299,-634.366 361.38,-641.306"/>
</g>
<!-- Node28 -->
<g id="node28" class="node"><title>Node28</title>
<g id="a_node28"><a xlink:href="$classMatrix3.html#aeb696742e5106f027fbd67da9f806c03" xlink:title="Matrix3::operator*">
<polygon fill="white" stroke="black" points="377.5,-598.5 377.5,-617.5 471.5,-617.5 471.5,-598.5 377.5,-598.5"/>
<text text-anchor="middle" x="424.5" y="-605.5" font-family="Helvetica,sans-Serif" font-size="10.00">Matrix3::operator*</text>
</a>
</g>
</g>
<!-- Node19&#45;&gt;Node28 -->
<g id="edge31" class="edge"><title>Node19&#45;&gt;Node28</title>
<path fill="none" stroke="midnightblue" d="M328.183,-620.62C340.647,-618.97 354.178,-617.179 367.024,-615.478"/>
<polygon fill="midnightblue" stroke="midnightblue" points="367.692,-618.92 377.147,-614.137 366.774,-611.98 367.692,-618.92"/>
</g>
<!-- Node29 -->
<g id="node29" class="node"><title>Node29</title>
<g id="a_node29"><a xlink:href="$classMatrix3.html#a3705734aec6b67d729011cd792d7398a" xlink:title="Matrix3::mul_transpose">
<polygon fill="white" stroke="black" points="365,-560.5 365,-579.5 484,-579.5 484,-560.5 365,-560.5"/>
<text text-anchor="middle" x="424.5" y="-567.5" font-family="Helvetica,sans-Serif" font-size="10.00">Matrix3::mul_transpose</text>
</a>
</g>
</g>
<!-- Node19&#45;&gt;Node29 -->
<g id="edge32" class="edge"><title>Node19&#45;&gt;Node29</title>
<path fill="none" stroke="midnightblue" d="M311.55,-611.933C327.418,-604.603 347.047,-595.906 365,-589 370.555,-586.863 376.464,-584.756 382.309,-582.767"/>
<polygon fill="midnightblue" stroke="midnightblue" points="383.625,-586.019 392.013,-579.548 381.42,-579.375 383.625,-586.019"/>
</g>
<!-- Node30 -->
<g id="node30" class="node"><title>Node30</title>
<g id="a_node30"><a xlink:href="$classMatrix3.html#a18e2df03dec4abdf11fc9fb60ed7c226" xlink:title="Matrix3::transposed">
<polygon fill="white" stroke="black" points="373,-408.5 373,-427.5 476,-427.5 476,-408.5 373,-408.5"/>
<text text-anchor="middle" x="424.5" y="-415.5" font-family="Helvetica,sans-Serif" font-size="10.00">Matrix3::transposed</text>
</a>
</g>
</g>
<!-- Node19&#45;&gt;Node30 -->
<g id="edge33" class="edge"><title>Node19&#45;&gt;Node30</title>
<path fill="none" stroke="midnightblue" d="M282.454,-611.983C289.066,-576.328 310.573,-485.913 365,-437 366.742,-435.434 368.616,-433.997 370.585,-432.678"/>
<polygon fill="midnightblue" stroke="midnightblue" points="372.668,-435.526 379.722,-427.621 369.278,-429.402 372.668,-435.526"/>
</g>
<!-- Node31 -->
<g id="node31" class="node"><title>Node31</title>
<g id="a_node31"><a xlink:href="$classMatrix3.html#a5a629739527e44be792db27f689b541c" xlink:title="Matrix3::det">
<polygon fill="white" stroke="black" points="390.5,-522.5 390.5,-541.5 458.5,-541.5 458.5,-522.5 390.5,-522.5"/>
<text text-anchor="middle" x="424.5" y="-529.5" font-family="Helvetica,sans-Serif" font-size="10.00">Matrix3::det</text>
</a>
</g>
</g>
<!-- Node19&#45;&gt;Node31 -->
<g id="edge34" class="edge"><title>Node19&#45;&gt;Node31</title>
<path fill="none" stroke="midnightblue" d="M293.286,-611.804C308.901,-594.799 336.341,-567.478 365,-551 369.86,-548.206 375.187,-545.758 380.585,-543.633"/>
<polygon fill="midnightblue" stroke="midnightblue" points="382.062,-546.822 390.293,-540.151 379.698,-540.233 382.062,-546.822"/>
</g>
<!-- Node32 -->
<g id="node32" class="node"><title>Node32</title>
<g id="a_node32"><a xlink:href="$classMatrix3.html#a87dab1ef4c76ce536dfd00cfd2c22320" xlink:title="Matrix3::inverse">
<polygon fill="white" stroke="black" points="520,-864.5 520,-883.5 606,-883.5 606,-864.5 520,-864.5"/>
<text text-anchor="middle" x="563" y="-871.5" font-family="Helvetica,sans-Serif" font-size="10.00">Matrix3::inverse</text>
</a>
</g>
</g>
<!-- Node19&#45;&gt;Node32 -->
<g id="edge35" class="edge"><title>Node19&#45;&gt;Node32</title>
<path fill="none" stroke="midnightblue" d="M284.666,-642.285C299.722,-691.158 347.077,-841.232 365,-855 405.866,-886.393 466.463,-887.524 509.647,-883.077"/>
<polygon fill="midnightblue" stroke="midnightblue" points="510.148,-886.542 519.678,-881.912 509.341,-879.589 510.148,-886.542"/>
</g>
<!-- Node34 -->
<g id="node34" class="node"><title>Node34</title>
<g id="a_node34"><a xlink:href="$classMatrix3.html#ae4054ff80c892e6b21cd970a4c3653b6" xlink:title="Matrix3::invert">
<polygon fill="white" stroke="black" points="385,-826.5 385,-845.5 464,-845.5 464,-826.5 385,-826.5"/>
<text text-anchor="middle" x="424.5" y="-833.5" font-family="Helvetica,sans-Serif" font-size="10.00">Matrix3::invert</text>
</a>
</g>
</g>
<!-- Node19&#45;&gt;Node34 -->
<g id="edge37" class="edge"><title>Node19&#45;&gt;Node34</title>
<path fill="none" stroke="midnightblue" d="M282.454,-642.017C289.066,-677.672 310.573,-768.087 365,-817 368.172,-819.851 371.778,-822.274 375.606,-824.335"/>
<polygon fill="midnightblue" stroke="midnightblue" points="374.285,-827.579 384.838,-828.513 377.171,-821.201 374.285,-827.579"/>
</g>
<!-- Node45 -->
<g id="node45" class="node"><title>Node45</title>
<g id="a_node45"><a xlink:href="$classMatrix3.html#a4a7bc2c8ec460484472f14298dfec7bf" xlink:title="Matrix3::mulXY">
<polygon fill="white" stroke="black" points="382.5,-788.5 382.5,-807.5 466.5,-807.5 466.5,-788.5 382.5,-788.5"/>
<text text-anchor="middle" x="424.5" y="-795.5" font-family="Helvetica,sans-Serif" font-size="10.00">Matrix3::mulXY</text>
</a>
</g>
</g>
<!-- Node19&#45;&gt;Node45 -->
<g id="edge52" class="edge"><title>Node19&#45;&gt;Node45</title>
<path fill="none" stroke="midnightblue" d="M284.417,-642.405C293.967,-672.977 319.434,-741.586 365,-779 367.558,-781.101 370.355,-782.971 373.295,-784.637"/>
<polygon fill="midnightblue" stroke="midnightblue" points="371.919,-787.859 382.447,-789.042 374.955,-781.551 371.919,-787.859"/>
</g>
<!-- Node23 -->
<g id="node23" class="node"><title>Node23</title>
<g id="a_node23"><a xlink:href="$classVector3.html#ac1fd5514e368a1e1c2d13f71eda18345" xlink:title="Vector3::length">
<polygon fill="white" stroke="black" points="521.5,-446.5 521.5,-465.5 604.5,-465.5 604.5,-446.5 521.5,-446.5"/>
<text text-anchor="middle" x="563" y="-453.5" font-family="Helvetica,sans-Serif" font-size="10.00">Vector3::length</text>
</a>
</g>
</g>
<!-- Node22&#45;&gt;Node23 -->
<g id="edge24" class="edge"><title>Node22&#45;&gt;Node23</title>
<path fill="none" stroke="midnightblue" d="M459.945,-484.411C477.485,-479.528 499.01,-473.536 517.763,-468.315"/>
<polygon fill="midnightblue" stroke="midnightblue" points="518.871,-471.64 527.566,-465.586 516.994,-464.896 518.871,-471.64"/>
</g>
<!-- Node24 -->
<g id="node24" class="node"><title>Node24</title>
<g id="a_node24"><a xlink:href="$AP__Math_8h.html#adc76d4a5e5c9ae8cb7ab17b55c40d636" xlink:title="norm">
<polygon fill="white" stroke="black" points="675.5,-446.5 675.5,-465.5 713.5,-465.5 713.5,-446.5 675.5,-446.5"/>
<text text-anchor="middle" x="694.5" y="-453.5" font-family="Helvetica,sans-Serif" font-size="10.00">norm</text>
</a>
</g>
</g>
<!-- Node23&#45;&gt;Node24 -->
<g id="edge25" class="edge"><title>Node23&#45;&gt;Node24</title>
<path fill="none" stroke="midnightblue" d="M604.619,-456C624.369,-456 647.613,-456 665.377,-456"/>
<polygon fill="midnightblue" stroke="midnightblue" points="665.391,-459.5 675.391,-456 665.391,-452.5 665.391,-459.5"/>
</g>
<!-- Node25 -->
<g id="node25" class="node"><title>Node25</title>
<g id="a_node25"><a xlink:href="$AP__Math_8h.html#a0375e3d67fd3911cacee5c3e1408c0f2" xlink:title="sq">
<polygon fill="white" stroke="black" points="826,-446.5 826,-465.5 855,-465.5 855,-446.5 826,-446.5"/>
<text text-anchor="middle" x="840.5" y="-453.5" font-family="Helvetica,sans-Serif" font-size="10.00">sq</text>
</a>
</g>
</g>
<!-- Node24&#45;&gt;Node25 -->
<g id="edge26" class="edge"><title>Node24&#45;&gt;Node25</title>
<path fill="none" stroke="midnightblue" d="M713.738,-456C739.527,-456 786.696,-456 815.363,-456"/>
<polygon fill="midnightblue" stroke="midnightblue" points="815.707,-459.5 825.707,-456 815.707,-452.5 815.707,-459.5"/>
</g>
<!-- Node33 -->
<g id="node33" class="node"><title>Node33</title>
<g id="a_node33"><a xlink:href="$AP__Math_8h.html#a2a12cce483e9b870da70d30406d82c60" xlink:title="is_zero">
<polygon fill="white" stroke="black" points="816.5,-826.5 816.5,-845.5 864.5,-845.5 864.5,-826.5 816.5,-826.5"/>
<text text-anchor="middle" x="840.5" y="-833.5" font-family="Helvetica,sans-Serif" font-size="10.00">is_zero</text>
</a>
</g>
</g>
<!-- Node32&#45;&gt;Node33 -->
<g id="edge36" class="edge"><title>Node32&#45;&gt;Node33</title>
<path fill="none" stroke="midnightblue" d="M606.31,-870.805C643.498,-867.711 699.016,-862.4 747,-855 766.91,-851.929 789.019,-847.429 806.629,-843.579"/>
<polygon fill="midnightblue" stroke="midnightblue" points="807.423,-846.987 816.426,-841.402 805.905,-840.154 807.423,-846.987"/>
</g>
<!-- Node35 -->
<g id="node35" class="node"><title>Node35</title>
<g id="a_node35"><a xlink:href="$AP__Math_8h.html#adfb798dabbcb4c7a82b3a08978bd8738" xlink:title="inverse">
<polygon fill="white" stroke="black" points="539,-826.5 539,-845.5 587,-845.5 587,-826.5 539,-826.5"/>
<text text-anchor="middle" x="563" y="-833.5" font-family="Helvetica,sans-Serif" font-size="10.00">inverse</text>
</a>
</g>
</g>
<!-- Node34&#45;&gt;Node35 -->
<g id="edge38" class="edge"><title>Node34&#45;&gt;Node35</title>
<path fill="none" stroke="midnightblue" d="M464.25,-836C484.6,-836 509.283,-836 528.754,-836"/>
<polygon fill="midnightblue" stroke="midnightblue" points="528.975,-839.5 538.975,-836 528.975,-832.5 528.975,-839.5"/>
</g>
<!-- Node36 -->
<g id="node36" class="node"><title>Node36</title>
<g id="a_node36"><a xlink:href="$matrix__alg_8cpp.html#a3aede2abf8bd30869b72dadaeb9e2c17" xlink:title="inverse3x3">
<polygon fill="white" stroke="black" points="662.5,-826.5 662.5,-845.5 726.5,-845.5 726.5,-826.5 662.5,-826.5"/>
<text text-anchor="middle" x="694.5" y="-833.5" font-family="Helvetica,sans-Serif" font-size="10.00">inverse3x3</text>
</a>
</g>
</g>
<!-- Node35&#45;&gt;Node36 -->
<g id="edge39" class="edge"><title>Node35&#45;&gt;Node36</title>
<path fill="none" stroke="midnightblue" d="M587.152,-836C605.158,-836 630.607,-836 652.095,-836"/>
<polygon fill="midnightblue" stroke="midnightblue" points="652.276,-839.5 662.275,-836 652.275,-832.5 652.276,-839.5"/>
</g>
<!-- Node37 -->
<g id="node37" class="node"><title>Node37</title>
<g id="a_node37"><a xlink:href="$matrix__alg_8cpp.html#a5b0d60d12edb0ce4c1ed6599acccc6db" xlink:title="inverse4x4">
<polygon fill="white" stroke="black" points="662.5,-788.5 662.5,-807.5 726.5,-807.5 726.5,-788.5 662.5,-788.5"/>
<text text-anchor="middle" x="694.5" y="-795.5" font-family="Helvetica,sans-Serif" font-size="10.00">inverse4x4</text>
</a>
</g>
</g>
<!-- Node35&#45;&gt;Node37 -->
<g id="edge41" class="edge"><title>Node35&#45;&gt;Node37</title>
<path fill="none" stroke="midnightblue" d="M587.152,-829.206C605.322,-823.875 631.07,-816.319 652.68,-809.978"/>
<polygon fill="midnightblue" stroke="midnightblue" points="653.666,-813.337 662.275,-807.162 651.695,-806.62 653.666,-813.337"/>
</g>
<!-- Node38 -->
<g id="node38" class="node"><title>Node38</title>
<g id="a_node38"><a xlink:href="$matrix__alg_8cpp.html#aec3cfc51b8c044f4faa4ab1d3a146435" xlink:title="mat_inverse">
<polygon fill="white" stroke="black" points="659.5,-902.5 659.5,-921.5 729.5,-921.5 729.5,-902.5 659.5,-902.5"/>
<text text-anchor="middle" x="694.5" y="-909.5" font-family="Helvetica,sans-Serif" font-size="10.00">mat_inverse</text>
</a>
</g>
</g>
<!-- Node35&#45;&gt;Node38 -->
<g id="edge44" class="edge"><title>Node35&#45;&gt;Node38</title>
<path fill="none" stroke="midnightblue" d="M586.979,-845.634C593.243,-848.464 599.964,-851.694 606,-855 629.29,-867.757 654.572,-884.575 671.944,-896.631"/>
<polygon fill="midnightblue" stroke="midnightblue" points="670.056,-899.582 680.254,-902.455 674.073,-893.85 670.056,-899.582"/>
</g>
<!-- Node36&#45;&gt;Node33 -->
<g id="edge40" class="edge"><title>Node36&#45;&gt;Node33</title>
<path fill="none" stroke="midnightblue" d="M726.746,-836C750.236,-836 782.355,-836 806.305,-836"/>
<polygon fill="midnightblue" stroke="midnightblue" points="806.346,-839.5 816.346,-836 806.346,-832.5 806.346,-839.5"/>
</g>
<!-- Node37&#45;&gt;Node2 -->
<g id="edge42" class="edge"><title>Node37&#45;&gt;Node2</title>
<path fill="none" stroke="midnightblue" d="M726.543,-792.648C734.331,-789.835 741.909,-785.544 747,-779 793.922,-718.681 772.009,-512.625 783,-437 798.136,-332.849 823.226,-209.925 834.147,-158.068"/>
<polygon fill="midnightblue" stroke="midnightblue" points="837.607,-158.621 836.253,-148.113 830.759,-157.172 837.607,-158.621"/>
</g>
<!-- Node37&#45;&gt;Node33 -->
<g id="edge43" class="edge"><title>Node37&#45;&gt;Node33</title>
<path fill="none" stroke="midnightblue" d="M726.746,-806.245C750.341,-812.472 782.643,-820.996 806.627,-827.325"/>
<polygon fill="midnightblue" stroke="midnightblue" points="805.784,-830.723 816.346,-829.89 807.57,-823.954 805.784,-830.723"/>
</g>
<!-- Node39 -->
<g id="node39" class="node"><title>Node39</title>
<g id="a_node39"><a xlink:href="$matrix__alg_8cpp.html#a71120309d433abdf23de6c2d78440b1c" xlink:title="mat_LU_decompose">
<polygon fill="white" stroke="black" points="787,-864.5 787,-883.5 894,-883.5 894,-864.5 787,-864.5"/>
<text text-anchor="middle" x="840.5" y="-871.5" font-family="Helvetica,sans-Serif" font-size="10.00">mat_LU_decompose</text>
</a>
</g>
</g>
<!-- Node38&#45;&gt;Node39 -->
<g id="edge45" class="edge"><title>Node38&#45;&gt;Node39</title>
<path fill="none" stroke="midnightblue" d="M729.626,-902.995C748.709,-897.959 772.755,-891.613 793.483,-886.143"/>
<polygon fill="midnightblue" stroke="midnightblue" points="794.58,-889.474 803.356,-883.538 792.794,-882.706 794.58,-889.474"/>
</g>
<!-- Node42 -->
<g id="node42" class="node"><title>Node42</title>
<g id="a_node42"><a xlink:href="$matrix__alg_8cpp.html#a9e2d939e8250f6c633d3b87661b04d45" xlink:title="mat_mul">
<polygon fill="white" stroke="black" points="964.5,-940.5 964.5,-959.5 1018.5,-959.5 1018.5,-940.5 964.5,-940.5"/>
<text text-anchor="middle" x="991.5" y="-947.5" font-family="Helvetica,sans-Serif" font-size="10.00">mat_mul</text>
</a>
</g>
</g>
<!-- Node38&#45;&gt;Node42 -->
<g id="edge51" class="edge"><title>Node38&#45;&gt;Node42</title>
<path fill="none" stroke="midnightblue" d="M705.785,-921.632C721.167,-935.304 751.717,-959.709 783,-969 841.306,-986.316 912.532,-972.69 954.555,-961.298"/>
<polygon fill="midnightblue" stroke="midnightblue" points="955.654,-964.624 964.33,-958.544 953.756,-957.886 955.654,-964.624"/>
</g>
<!-- Node43 -->
<g id="node43" class="node"><title>Node43</title>
<g id="a_node43"><a xlink:href="$matrix__alg_8cpp.html#ae99d89fadc41e4ff699c74822490a71e" xlink:title="mat_forward_sub">
<polygon fill="white" stroke="black" points="794.5,-940.5 794.5,-959.5 886.5,-959.5 886.5,-940.5 794.5,-940.5"/>
<text text-anchor="middle" x="840.5" y="-947.5" font-family="Helvetica,sans-Serif" font-size="10.00">mat_forward_sub</text>
</a>
</g>
</g>
<!-- Node38&#45;&gt;Node43 -->
<g id="edge49" class="edge"><title>Node38&#45;&gt;Node43</title>
<path fill="none" stroke="midnightblue" d="M729.626,-921.005C748.709,-926.041 772.755,-932.387 793.483,-937.857"/>
<polygon fill="midnightblue" stroke="midnightblue" points="792.794,-941.294 803.356,-940.462 794.58,-934.526 792.794,-941.294"/>
</g>
<!-- Node44 -->
<g id="node44" class="node"><title>Node44</title>
<g id="a_node44"><a xlink:href="$matrix__alg_8cpp.html#a5f5a54d345886bbaf464910d3a1cf139" xlink:title="mat_back_sub">
<polygon fill="white" stroke="black" points="800.5,-902.5 800.5,-921.5 880.5,-921.5 880.5,-902.5 800.5,-902.5"/>
<text text-anchor="middle" x="840.5" y="-909.5" font-family="Helvetica,sans-Serif" font-size="10.00">mat_back_sub</text>
</a>
</g>
</g>
<!-- Node38&#45;&gt;Node44 -->
<g id="edge50" class="edge"><title>Node38&#45;&gt;Node44</title>
<path fill="none" stroke="midnightblue" d="M729.626,-912C747.686,-912 770.191,-912 790.121,-912"/>
<polygon fill="midnightblue" stroke="midnightblue" points="790.272,-915.5 800.272,-912 790.272,-908.5 790.272,-915.5"/>
</g>
<!-- Node40 -->
<g id="node40" class="node"><title>Node40</title>
<g id="a_node40"><a xlink:href="$matrix__alg_8cpp.html#a7a49fc8b7a650e05045994ffba7c1dbc" xlink:title="mat_pivot">
<polygon fill="white" stroke="black" points="962,-864.5 962,-883.5 1021,-883.5 1021,-864.5 962,-864.5"/>
<text text-anchor="middle" x="991.5" y="-871.5" font-family="Helvetica,sans-Serif" font-size="10.00">mat_pivot</text>
</a>
</g>
</g>
<!-- Node39&#45;&gt;Node40 -->
<g id="edge46" class="edge"><title>Node39&#45;&gt;Node40</title>
<path fill="none" stroke="midnightblue" d="M894.032,-874C912.904,-874 933.843,-874 951.376,-874"/>
<polygon fill="midnightblue" stroke="midnightblue" points="951.804,-877.5 961.804,-874 951.804,-870.5 951.804,-877.5"/>
</g>
<!-- Node39&#45;&gt;Node42 -->
<g id="edge48" class="edge"><title>Node39&#45;&gt;Node42</title>
<path fill="none" stroke="midnightblue" d="M873.97,-883.51C881.967,-886.234 890.41,-889.442 898,-893 923.424,-904.917 950.555,-922.247 968.813,-934.666"/>
<polygon fill="midnightblue" stroke="midnightblue" points="967.037,-937.692 977.256,-940.49 971.012,-931.93 967.037,-937.692"/>
</g>
<!-- Node41 -->
<g id="node41" class="node"><title>Node41</title>
<g id="a_node41"><a xlink:href="$matrix__alg_8cpp.html#a4ae7bd9da0bae1b05a7c352df26008ff" xlink:title="swap">
<polygon fill="white" stroke="black" points="1099,-864.5 1099,-883.5 1139,-883.5 1139,-864.5 1099,-864.5"/>
<text text-anchor="middle" x="1119" y="-871.5" font-family="Helvetica,sans-Serif" font-size="10.00">swap</text>
</a>
</g>
</g>
<!-- Node40&#45;&gt;Node41 -->
<g id="edge47" class="edge"><title>Node40&#45;&gt;Node41</title>
<path fill="none" stroke="midnightblue" d="M1021.29,-874C1041.41,-874 1068.2,-874 1088.48,-874"/>
<polygon fill="midnightblue" stroke="midnightblue" points="1088.7,-877.5 1098.7,-874 1088.7,-870.5 1088.7,-877.5"/>
</g>
<!-- Node46&#45;&gt;Node2 -->
<g id="edge54" class="edge"><title>Node46&#45;&gt;Node2</title>
<path fill="none" stroke="midnightblue" d="M152.538,-123.368C195.62,-99.2163 315.474,-38 423.5,-38 423.5,-38 423.5,-38 564,-38 655.21,-38 754.583,-85.1124 805.389,-112.983"/>
<polygon fill="midnightblue" stroke="midnightblue" points="803.858,-116.136 814.297,-117.947 807.266,-110.022 803.858,-116.136"/>
</g>
<!-- Node47 -->
<g id="node47" class="node"><title>Node47</title>
<g id="a_node47"><a xlink:href="$rotations_8cpp.html#af879672d9ab28cd8ad8e4e604beda066" xlink:title="test_euler">
<polygon fill="white" stroke="black" points="249.5,-180.5 249.5,-199.5 308.5,-199.5 308.5,-180.5 249.5,-180.5"/>
<text text-anchor="middle" x="279" y="-187.5" font-family="Helvetica,sans-Serif" font-size="10.00">test_euler</text>
</a>
</g>
</g>
<!-- Node46&#45;&gt;Node47 -->
<g id="edge55" class="edge"><title>Node46&#45;&gt;Node47</title>
<path fill="none" stroke="midnightblue" d="M159.768,-142.541C183.011,-151.87 218.613,-166.162 244.678,-176.624"/>
<polygon fill="midnightblue" stroke="midnightblue" points="243.571,-179.951 254.155,-180.428 246.178,-173.455 243.571,-179.951"/>
</g>
<!-- Node47&#45;&gt;Node2 -->
<g id="edge60" class="edge"><title>Node47&#45;&gt;Node2</title>
<path fill="none" stroke="midnightblue" d="M308.533,-182.574C324.944,-178.567 346.012,-173.868 365,-171 441.666,-159.42 660.871,-144.4 772.47,-137.204"/>
<polygon fill="midnightblue" stroke="midnightblue" points="772.844,-140.688 782.6,-136.554 772.396,-133.702 772.844,-140.688"/>
</g>
<!-- Node47&#45;&gt;Node11 -->
<g id="edge57" class="edge"><title>Node47&#45;&gt;Node11</title>
<path fill="none" stroke="midnightblue" d="M288.235,-199.634C303.177,-217.016 335.905,-254.641 365,-285 378.233,-298.808 393.761,-313.888 405.492,-325.067"/>
<polygon fill="midnightblue" stroke="midnightblue" points="403.266,-327.781 412.932,-332.12 408.082,-322.7 403.266,-327.781"/>
</g>
<!-- Node47&#45;&gt;Node23 -->
<g id="edge59" class="edge"><title>Node47&#45;&gt;Node23</title>
<path fill="none" stroke="midnightblue" d="M308.609,-196.476C361.62,-208.695 470.934,-234.996 484,-247 540.311,-298.731 556.159,-394.984 560.463,-436.314"/>
<polygon fill="midnightblue" stroke="midnightblue" points="556.992,-436.795 561.394,-446.432 563.962,-436.153 556.992,-436.795"/>
</g>
<!-- Node48 -->
<g id="node48" class="node"><title>Node48</title>
<g id="a_node48"><a xlink:href="$classVector3.html#a53d5701ae2db9492944550927279b7b8" xlink:title="Vector3::rotate">
<polygon fill="white" stroke="black" points="384,-256.5 384,-275.5 465,-275.5 465,-256.5 384,-256.5"/>
<text text-anchor="middle" x="424.5" y="-263.5" font-family="Helvetica,sans-Serif" font-size="10.00">Vector3::rotate</text>
</a>
</g>
</g>
<!-- Node47&#45;&gt;Node48 -->
<g id="edge56" class="edge"><title>Node47&#45;&gt;Node48</title>
<path fill="none" stroke="midnightblue" d="M294.037,-199.551C310.572,-210.571 339.078,-228.859 365,-242 372.448,-245.776 380.636,-249.427 388.465,-252.694"/>
<polygon fill="midnightblue" stroke="midnightblue" points="387.182,-255.95 397.764,-256.471 389.816,-249.465 387.182,-255.95"/>
</g>
<!-- Node49 -->
<g id="node49" class="node"><title>Node49</title>
<g id="a_node49"><a xlink:href="$AP__Math_8h.html#a75b14352ec1c95a8276af9a0813cfdc3" xlink:title="radians">
<polygon fill="white" stroke="black" points="400.5,-180.5 400.5,-199.5 448.5,-199.5 448.5,-180.5 400.5,-180.5"/>
<text text-anchor="middle" x="424.5" y="-187.5" font-family="Helvetica,sans-Serif" font-size="10.00">radians</text>
</a>
</g>
</g>
<!-- Node47&#45;&gt;Node49 -->
<g id="edge58" class="edge"><title>Node47&#45;&gt;Node49</title>
<path fill="none" stroke="midnightblue" d="M308.694,-190C332.064,-190 365.103,-190 389.742,-190"/>
<polygon fill="midnightblue" stroke="midnightblue" points="390.07,-193.5 400.07,-190 390.07,-186.5 390.07,-193.5"/>
</g>
<!-- Node50 -->
<g id="node50" class="node"><title>Node50</title>
<g id="a_node50"><a xlink:href="$rotations_8cpp.html#abeed49eaf8341cd6b00a5291b074afa3" xlink:title="print_vector">
<polygon fill="white" stroke="black" points="390.5,-104.5 390.5,-123.5 458.5,-123.5 458.5,-104.5 390.5,-104.5"/>
<text text-anchor="middle" x="424.5" y="-111.5" font-family="Helvetica,sans-Serif" font-size="10.00">print_vector</text>
</a>
</g>
</g>
<!-- Node47&#45;&gt;Node50 -->
<g id="edge61" class="edge"><title>Node47&#45;&gt;Node50</title>
<path fill="none" stroke="midnightblue" d="M294.037,-180.449C310.572,-169.429 339.078,-151.141 365,-138 372.448,-134.224 380.636,-130.573 388.465,-127.306"/>
<polygon fill="midnightblue" stroke="midnightblue" points="389.816,-130.535 397.764,-123.529 387.182,-124.05 389.816,-130.535"/>
</g>
<!-- Node50&#45;&gt;Node2 -->
<g id="edge62" class="edge"><title>Node50&#45;&gt;Node2</title>
<path fill="none" stroke="midnightblue" d="M458.68,-115.523C526.67,-118.643 682.953,-125.815 772.753,-129.937"/>
<polygon fill="midnightblue" stroke="midnightblue" points="772.68,-133.437 782.83,-130.399 773.001,-126.444 772.68,-133.437"/>
</g>
<!-- Node51&#45;&gt;Node2 -->
<g id="edge64" class="edge"><title>Node51&#45;&gt;Node2</title>
<path fill="none" stroke="midnightblue" d="M181.817,-285.007C276.246,-285.021 483.771,-285.047 484,-285 608.783,-259.443 743.904,-188.258 805.475,-153.131"/>
<polygon fill="midnightblue" stroke="midnightblue" points="807.442,-156.037 814.365,-148.017 803.952,-149.97 807.442,-156.037"/>
</g>
<!-- Node51&#45;&gt;Node11 -->
<g id="edge65" class="edge"><title>Node51&#45;&gt;Node11</title>
<path fill="none" stroke="midnightblue" d="M154.691,-294.532C173.093,-303.456 202.249,-316.379 229,-323 273.291,-333.963 324.723,-338.651 363.57,-340.631"/>
<polygon fill="midnightblue" stroke="midnightblue" points="363.517,-344.133 373.669,-341.1 363.842,-337.14 363.517,-344.133"/>
</g>
<!-- Node52 -->
<g id="node52" class="node"><title>Node52</title>
<g id="a_node52"><a xlink:href="$rotations_8cpp.html#ad6798e5b3eec8e581f4c054837985245" xlink:title="have_rotation">
<polygon fill="white" stroke="black" points="241.5,-294.5 241.5,-313.5 316.5,-313.5 316.5,-294.5 241.5,-294.5"/>
<text text-anchor="middle" x="279" y="-301.5" font-family="Helvetica,sans-Serif" font-size="10.00">have_rotation</text>
</a>
</g>
</g>
<!-- Node51&#45;&gt;Node52 -->
<g id="edge66" class="edge"><title>Node51&#45;&gt;Node52</title>
<path fill="none" stroke="midnightblue" d="M181.711,-291.116C197.54,-293.234 215.298,-295.61 231.212,-297.74"/>
<polygon fill="midnightblue" stroke="midnightblue" points="230.989,-301.241 241.365,-299.098 231.918,-294.303 230.989,-301.241"/>
</g>
<!-- Node52&#45;&gt;Node30 -->
<g id="edge67" class="edge"><title>Node52&#45;&gt;Node30</title>
<path fill="none" stroke="midnightblue" d="M292.235,-313.72C316.91,-333.322 372.863,-377.772 403.136,-401.823"/>
<polygon fill="midnightblue" stroke="midnightblue" points="401.289,-404.825 411.296,-408.305 405.643,-399.344 401.289,-404.825"/>
</g>
<!-- Node52&#45;&gt;Node48 -->
<g id="edge68" class="edge"><title>Node52&#45;&gt;Node48</title>
<path fill="none" stroke="midnightblue" d="M316.211,-294.411C334.821,-289.483 357.697,-283.425 377.539,-278.171"/>
<polygon fill="midnightblue" stroke="midnightblue" points="378.53,-281.529 387.3,-275.586 376.738,-274.762 378.53,-281.529"/>
</g>
<!-- Node53&#45;&gt;Node2 -->
<g id="edge70" class="edge"><title>Node53&#45;&gt;Node2</title>
<path fill="none" stroke="midnightblue" d="M314.449,-104.492C329.793,-100.727 348.167,-96.8584 365,-95 510.088,-78.9819 680.848,-103.157 772.787,-119.687"/>
<polygon fill="midnightblue" stroke="midnightblue" points="772.323,-123.16 782.789,-121.512 773.579,-116.274 772.323,-123.16"/>
</g>
<!-- Node53&#45;&gt;Node50 -->
<g id="edge71" class="edge"><title>Node53&#45;&gt;Node50</title>
<path fill="none" stroke="midnightblue" d="M329.385,-114C345.878,-114 364.123,-114 380.124,-114"/>
<polygon fill="midnightblue" stroke="midnightblue" points="380.274,-117.5 390.274,-114 380.274,-110.5 380.274,-117.5"/>
</g>
</g>
</svg>
