<?xml version="1.0" encoding="UTF-8" standalone="no"?>
<!DOCTYPE svg PUBLIC "-//W3C//DTD SVG 1.1//EN"
 "http://www.w3.org/Graphics/SVG/1.1/DTD/svg11.dtd">
<!-- Generated by graphviz version 2.38.0 (20140413.2041)
 -->
<!-- Title: setup Pages: 1 -->
<svg width="2197pt" height="696pt"
 viewBox="0.00 0.00 2197.00 695.56" xmlns="http://www.w3.org/2000/svg" xmlns:xlink="http://www.w3.org/1999/xlink">
<g id="graph0" class="graph" transform="scale(1 1) rotate(0) translate(4 691.561)">
<title>setup</title>
<polygon fill="white" stroke="none" points="-4,4 -4,-691.561 2193,-691.561 2193,4 -4,4"/>
<!-- Node1 -->
<g id="node1" class="node"><title>Node1</title>
<polygon fill="#bfbfbf" stroke="black" points="0,-620 0,-639 41,-639 41,-620 0,-620"/>
<text text-anchor="middle" x="20.5" y="-627" font-family="Helvetica,sans-Serif" font-size="10.00">setup</text>
</g>
<!-- Node2 -->
<g id="node2" class="node"><title>Node2</title>
<g id="a_node2"><a xlink:href="$classAP__HAL_1_1UARTDriver.html#a6ceedc792594e59fc7d80b39a435f027" xlink:title="AP_HAL::UARTDriver\l::printf">
<polygon fill="white" stroke="black" points="1118,-514.5 1118,-544.5 1233,-544.5 1233,-514.5 1118,-514.5"/>
<text text-anchor="start" x="1126" y="-532.5" font-family="Helvetica,sans-Serif" font-size="10.00">AP_HAL::UARTDriver</text>
<text text-anchor="middle" x="1175.5" y="-521.5" font-family="Helvetica,sans-Serif" font-size="10.00">::printf</text>
</a>
</g>
</g>
<!-- Node1&#45;&gt;Node2 -->
<g id="edge1" class="edge"><title>Node1&#45;&gt;Node2</title>
<path fill="none" stroke="midnightblue" d="M41.0563,-636.821C83.4167,-652 187.087,-685.5 277,-685.5 277,-685.5 277,-685.5 837,-685.5 940.906,-685.5 976.802,-699.294 1068,-649.5 1109.51,-626.833 1142.81,-581.44 1160.53,-553.442"/>
<polygon fill="midnightblue" stroke="midnightblue" points="1163.67,-555.022 1165.93,-544.672 1157.71,-551.352 1163.67,-555.022"/>
</g>
<!-- Node10 -->
<g id="node10" class="node"><title>Node10</title>
<g id="a_node10"><a xlink:href="$structGCS__MAVLINK.html#afaf4b53bc2f64b4fb6bd1fe729b2cef3" xlink:title="GCS_MAVLINK::init">
<polygon fill="white" stroke="black" points="77,-541 77,-560 184,-560 184,-541 77,-541"/>
<text text-anchor="middle" x="130.5" y="-548" font-family="Helvetica,sans-Serif" font-size="10.00">GCS_MAVLINK::init</text>
</a>
</g>
</g>
<!-- Node1&#45;&gt;Node10 -->
<g id="edge9" class="edge"><title>Node1&#45;&gt;Node10</title>
<path fill="none" stroke="midnightblue" d="M34.7429,-619.813C53.06,-606.414 86.3351,-582.074 108.178,-566.097"/>
<polygon fill="midnightblue" stroke="midnightblue" points="110.481,-568.748 116.486,-560.019 106.349,-563.098 110.481,-568.748"/>
</g>
<!-- Node3 -->
<g id="node3" class="node"><title>Node3</title>
<g id="a_node3"><a xlink:href="$classAP__HAL_1_1UARTDriver.html#aa8abfb6d6641299472c29ac1edde559f" xlink:title="AP_HAL::UARTDriver\l::vprintf">
<polygon fill="white" stroke="black" points="1286.5,-514.5 1286.5,-544.5 1401.5,-544.5 1401.5,-514.5 1286.5,-514.5"/>
<text text-anchor="start" x="1294.5" y="-532.5" font-family="Helvetica,sans-Serif" font-size="10.00">AP_HAL::UARTDriver</text>
<text text-anchor="middle" x="1344" y="-521.5" font-family="Helvetica,sans-Serif" font-size="10.00">::vprintf</text>
</a>
</g>
</g>
<!-- Node2&#45;&gt;Node3 -->
<g id="edge2" class="edge"><title>Node2&#45;&gt;Node3</title>
<path fill="none" stroke="midnightblue" d="M1233.33,-529.5C1247.13,-529.5 1262.01,-529.5 1276.22,-529.5"/>
<polygon fill="midnightblue" stroke="midnightblue" points="1276.42,-533 1286.42,-529.5 1276.42,-526 1276.42,-533"/>
</g>
<!-- Node4 -->
<g id="node4" class="node"><title>Node4</title>
<g id="a_node4"><a xlink:href="$print__vprintf_8cpp.html#a1534eaeab54696df96975b56d9f49212" xlink:title="print_vprintf">
<polygon fill="white" stroke="black" points="1472,-511 1472,-530 1540,-530 1540,-511 1472,-511"/>
<text text-anchor="middle" x="1506" y="-518" font-family="Helvetica,sans-Serif" font-size="10.00">print_vprintf</text>
</a>
</g>
</g>
<!-- Node3&#45;&gt;Node4 -->
<g id="edge3" class="edge"><title>Node3&#45;&gt;Node4</title>
<path fill="none" stroke="midnightblue" d="M1401.86,-526.302C1421.47,-525.198 1443.12,-523.981 1461.49,-522.947"/>
<polygon fill="midnightblue" stroke="midnightblue" points="1461.82,-526.434 1471.61,-522.378 1461.43,-519.445 1461.82,-526.434"/>
</g>
<!-- Node5 -->
<g id="node5" class="node"><title>Node5</title>
<g id="a_node5"><a xlink:href="$classAP__HAL_1_1Print.html#acc65391952a43334f8f5c9bef341f501" xlink:title="AP_HAL::Print::write">
<polygon fill="white" stroke="black" points="1624.5,-502 1624.5,-521 1732.5,-521 1732.5,-502 1624.5,-502"/>
<text text-anchor="middle" x="1678.5" y="-509" font-family="Helvetica,sans-Serif" font-size="10.00">AP_HAL::Print::write</text>
</a>
</g>
</g>
<!-- Node4&#45;&gt;Node5 -->
<g id="edge4" class="edge"><title>Node4&#45;&gt;Node5</title>
<path fill="none" stroke="midnightblue" d="M1540.28,-518.743C1561.23,-517.637 1588.96,-516.174 1614,-514.852"/>
<polygon fill="midnightblue" stroke="midnightblue" points="1614.37,-518.337 1624.18,-514.315 1614.01,-511.347 1614.37,-518.337"/>
</g>
<!-- Node6 -->
<g id="node6" class="node"><title>Node6</title>
<g id="a_node6"><a xlink:href="$ftoa__engine_8cpp.html#a1c28234da8f20b43c85890d4bb452947" xlink:title="ftoa_engine">
<polygon fill="white" stroke="black" points="1645,-464 1645,-483 1712,-483 1712,-464 1645,-464"/>
<text text-anchor="middle" x="1678.5" y="-471" font-family="Helvetica,sans-Serif" font-size="10.00">ftoa_engine</text>
</a>
</g>
</g>
<!-- Node4&#45;&gt;Node6 -->
<g id="edge5" class="edge"><title>Node4&#45;&gt;Node6</title>
<path fill="none" stroke="midnightblue" d="M1540.31,-511.085C1559.75,-505.614 1584.75,-498.614 1607,-492.5 1616.07,-490.009 1625.8,-487.367 1635.05,-484.869"/>
<polygon fill="midnightblue" stroke="midnightblue" points="1636.09,-488.212 1644.84,-482.231 1634.27,-481.453 1636.09,-488.212"/>
</g>
<!-- Node7 -->
<g id="node7" class="node"><title>Node7</title>
<g id="a_node7"><a xlink:href="$replace_8cpp.html#a880bcc7b85a09e6254691bebd5344b51" xlink:title="strnlen">
<polygon fill="white" stroke="black" points="1655.5,-426 1655.5,-445 1701.5,-445 1701.5,-426 1655.5,-426"/>
<text text-anchor="middle" x="1678.5" y="-433" font-family="Helvetica,sans-Serif" font-size="10.00">strnlen</text>
</a>
</g>
</g>
<!-- Node4&#45;&gt;Node7 -->
<g id="edge6" class="edge"><title>Node4&#45;&gt;Node7</title>
<path fill="none" stroke="midnightblue" d="M1518.88,-510.807C1536.9,-496.555 1572.67,-469.966 1607,-454.5 1619.1,-449.049 1633.09,-444.879 1645.41,-441.853"/>
<polygon fill="midnightblue" stroke="midnightblue" points="1646.32,-445.235 1655.28,-439.578 1644.75,-438.414 1646.32,-445.235"/>
</g>
<!-- Node8 -->
<g id="node8" class="node"><title>Node8</title>
<g id="a_node8"><a xlink:href="$utoa__invert_8cpp.html#a34926f552460b47c414ec4d83b32815c" xlink:title="ulltoa_invert">
<polygon fill="white" stroke="black" points="1644,-578 1644,-597 1713,-597 1713,-578 1644,-578"/>
<text text-anchor="middle" x="1678.5" y="-585" font-family="Helvetica,sans-Serif" font-size="10.00">ulltoa_invert</text>
</a>
</g>
</g>
<!-- Node4&#45;&gt;Node8 -->
<g id="edge7" class="edge"><title>Node4&#45;&gt;Node8</title>
<path fill="none" stroke="midnightblue" d="M1524.28,-530.002C1543.88,-540.496 1577.03,-557.377 1607,-568.5 1615.55,-571.673 1624.86,-574.562 1633.83,-577.078"/>
<polygon fill="midnightblue" stroke="midnightblue" points="1633.18,-580.529 1643.75,-579.754 1635.01,-573.771 1633.18,-580.529"/>
</g>
<!-- Node9 -->
<g id="node9" class="node"><title>Node9</title>
<g id="a_node9"><a xlink:href="$utoa__invert_8cpp.html#a5d99bba8e697c1e11da489d88fca8559" xlink:title="ultoa_invert">
<polygon fill="white" stroke="black" points="1645,-540 1645,-559 1712,-559 1712,-540 1645,-540"/>
<text text-anchor="middle" x="1678.5" y="-547" font-family="Helvetica,sans-Serif" font-size="10.00">ultoa_invert</text>
</a>
</g>
</g>
<!-- Node4&#45;&gt;Node9 -->
<g id="edge8" class="edge"><title>Node4&#45;&gt;Node9</title>
<path fill="none" stroke="midnightblue" d="M1540.28,-526.16C1567.33,-530.761 1605.66,-537.281 1634.94,-542.261"/>
<polygon fill="midnightblue" stroke="midnightblue" points="1634.44,-545.726 1644.88,-543.952 1635.61,-538.825 1634.44,-545.726"/>
</g>
<!-- Node11 -->
<g id="node11" class="node"><title>Node11</title>
<g id="a_node11"><a xlink:href="$GCS__MAVLink_8h.html#a17ee8d1ce05b7d160ccc6a78b92b774f" xlink:title="valid_channel">
<polygon fill="white" stroke="black" points="240,-473 240,-492 316,-492 316,-473 240,-473"/>
<text text-anchor="middle" x="278" y="-480" font-family="Helvetica,sans-Serif" font-size="10.00">valid_channel</text>
</a>
</g>
</g>
<!-- Node10&#45;&gt;Node11 -->
<g id="edge10" class="edge"><title>Node10&#45;&gt;Node11</title>
<path fill="none" stroke="midnightblue" d="M146.726,-540.935C164.019,-530.344 193.306,-513.22 220,-501.5 224.831,-499.379 229.978,-497.355 235.127,-495.471"/>
<polygon fill="midnightblue" stroke="midnightblue" points="236.667,-498.64 244.951,-492.035 234.356,-492.033 236.667,-498.64"/>
</g>
<!-- Node12 -->
<g id="node12" class="node"><title>Node12</title>
<g id="a_node12"><a xlink:href="$structGCS__MAVLINK.html#af5e92e687223f8a102363b90f325e612" xlink:title="GCS_MAVLINK::reset\l_cli_timeout">
<polygon fill="white" stroke="black" points="220,-511.5 220,-541.5 336,-541.5 336,-511.5 220,-511.5"/>
<text text-anchor="start" x="228" y="-529.5" font-family="Helvetica,sans-Serif" font-size="10.00">GCS_MAVLINK::reset</text>
<text text-anchor="middle" x="278" y="-518.5" font-family="Helvetica,sans-Serif" font-size="10.00">_cli_timeout</text>
</a>
</g>
</g>
<!-- Node10&#45;&gt;Node12 -->
<g id="edge11" class="edge"><title>Node10&#45;&gt;Node12</title>
<path fill="none" stroke="midnightblue" d="M184.029,-541.835C192.337,-540.465 201.027,-539.032 209.616,-537.615"/>
<polygon fill="midnightblue" stroke="midnightblue" points="210.328,-541.045 219.625,-535.964 209.189,-534.138 210.328,-541.045"/>
</g>
<!-- Node50 -->
<g id="node50" class="node"><title>Node50</title>
<g id="a_node50"><a xlink:href="$classAP__HAL_1_1Util.html#a6b7f7ba5272a4a2f7ae352fe35af90e1" xlink:title="AP_HAL::Util::perf\l_alloc">
<polygon fill="white" stroke="black" points="229,-560.5 229,-590.5 327,-590.5 327,-560.5 229,-560.5"/>
<text text-anchor="start" x="237" y="-578.5" font-family="Helvetica,sans-Serif" font-size="10.00">AP_HAL::Util::perf</text>
<text text-anchor="middle" x="278" y="-567.5" font-family="Helvetica,sans-Serif" font-size="10.00">_alloc</text>
</a>
</g>
</g>
<!-- Node10&#45;&gt;Node50 -->
<g id="edge63" class="edge"><title>Node10&#45;&gt;Node50</title>
<path fill="none" stroke="midnightblue" d="M184.029,-559.526C195.361,-561.473 207.405,-563.542 218.935,-565.523"/>
<polygon fill="midnightblue" stroke="midnightblue" points="218.456,-568.992 228.904,-567.236 219.641,-562.093 218.456,-568.992"/>
</g>
<!-- Node13 -->
<g id="node13" class="node"><title>Node13</title>
<g id="a_node13"><a xlink:href="$namespaceAP__HAL.html#a77dffbb18891996280308e21316ec186" xlink:title="AP_HAL::millis">
<polygon fill="white" stroke="black" points="372,-385 372,-404 455,-404 455,-385 372,-385"/>
<text text-anchor="middle" x="413.5" y="-392" font-family="Helvetica,sans-Serif" font-size="10.00">AP_HAL::millis</text>
</a>
</g>
</g>
<!-- Node12&#45;&gt;Node13 -->
<g id="edge12" class="edge"><title>Node12&#45;&gt;Node13</title>
<path fill="none" stroke="midnightblue" d="M320.703,-511.392C326.122,-508.535 331.385,-505.245 336,-501.5 366.72,-476.57 390.897,-436.377 403.318,-412.998"/>
<polygon fill="midnightblue" stroke="midnightblue" points="406.433,-414.593 407.905,-404.101 400.211,-411.385 406.433,-414.593"/>
</g>
<!-- Node14 -->
<g id="node14" class="node"><title>Node14</title>
<g id="a_node14"><a xlink:href="$namespaceAP__HAL.html#a59336c5fceaf28a76d1df1581a87a25d" xlink:title="AP_HAL::millis64">
<polygon fill="white" stroke="black" points="491,-318 491,-337 585,-337 585,-318 491,-318"/>
<text text-anchor="middle" x="538" y="-325" font-family="Helvetica,sans-Serif" font-size="10.00">AP_HAL::millis64</text>
</a>
</g>
</g>
<!-- Node13&#45;&gt;Node14 -->
<g id="edge13" class="edge"><title>Node13&#45;&gt;Node14</title>
<path fill="none" stroke="midnightblue" d="M432.051,-384.901C452.61,-373.656 486.873,-354.917 510.632,-341.922"/>
<polygon fill="midnightblue" stroke="midnightblue" points="512.387,-344.951 519.481,-337.082 509.028,-338.81 512.387,-344.951"/>
</g>
<!-- Node15 -->
<g id="node15" class="node"><title>Node15</title>
<g id="a_node15"><a xlink:href="$classLinux_1_1Scheduler.html#a53ecaae0fdc72f85bd57c4b0cff93653" xlink:title="Linux::Scheduler::from">
<polygon fill="white" stroke="black" points="621,-318 621,-337 736,-337 736,-318 621,-318"/>
<text text-anchor="middle" x="678.5" y="-325" font-family="Helvetica,sans-Serif" font-size="10.00">Linux::Scheduler::from</text>
</a>
</g>
</g>
<!-- Node14&#45;&gt;Node15 -->
<g id="edge14" class="edge"><title>Node14&#45;&gt;Node15</title>
<path fill="none" stroke="midnightblue" d="M585.118,-327.5C593.376,-327.5 602.13,-327.5 610.829,-327.5"/>
<polygon fill="midnightblue" stroke="midnightblue" points="610.983,-331 620.983,-327.5 610.983,-324 610.983,-331"/>
</g>
<!-- Node35 -->
<g id="node35" class="node"><title>Node35</title>
<g id="a_node35"><a xlink:href="$classLinux_1_1Scheduler.html#a682b4c34f330f66db5ab4aa5d96e13f9" xlink:title="Linux::Scheduler::stopped\l_clock_usec">
<polygon fill="white" stroke="black" points="1441,-0.5 1441,-30.5 1571,-30.5 1571,-0.5 1441,-0.5"/>
<text text-anchor="start" x="1449" y="-18.5" font-family="Helvetica,sans-Serif" font-size="10.00">Linux::Scheduler::stopped</text>
<text text-anchor="middle" x="1506" y="-7.5" font-family="Helvetica,sans-Serif" font-size="10.00">_clock_usec</text>
</a>
</g>
</g>
<!-- Node14&#45;&gt;Node35 -->
<g id="edge62" class="edge"><title>Node14&#45;&gt;Node35</title>
<path fill="none" stroke="midnightblue" d="M539.933,-317.674C543.648,-283.771 560.279,-170.223 621,-105.5 691.478,-30.3764 731.991,-16.5 835,-16.5 835,-16.5 835,-16.5 1176.5,-16.5 1263.66,-16.5 1363.82,-16.1436 1430.4,-15.8564"/>
<polygon fill="midnightblue" stroke="midnightblue" points="1430.81,-19.3547 1440.8,-15.8109 1430.78,-12.3548 1430.81,-19.3547"/>
</g>
<!-- Node16 -->
<g id="node16" class="node"><title>Node16</title>
<g id="a_node16"><a xlink:href="$classLinux_1_1Scheduler.html#a3d77c332e051c28c83fb07757e7100bd" xlink:title="Linux::Scheduler::init">
<polygon fill="white" stroke="black" points="782,-600 782,-619 890,-619 890,-600 782,-600"/>
<text text-anchor="middle" x="836" y="-607" font-family="Helvetica,sans-Serif" font-size="10.00">Linux::Scheduler::init</text>
</a>
</g>
</g>
<!-- Node15&#45;&gt;Node16 -->
<g id="edge15" class="edge"><title>Node15&#45;&gt;Node16</title>
<path fill="none" stroke="midnightblue" d="M679.951,-337.206C682.246,-375.242 695.769,-515.67 772,-589.5 774.125,-591.558 776.461,-593.405 778.944,-595.061"/>
<polygon fill="midnightblue" stroke="midnightblue" points="777.415,-598.215 787.859,-599.993 780.803,-592.09 777.415,-598.215"/>
</g>
<!-- Node23 -->
<g id="node23" class="node"><title>Node23</title>
<g id="a_node23"><a xlink:href="$classLinux_1_1Scheduler.html#a02a34a123dfebaf360f7010745e1e646" xlink:title="Linux::Scheduler::register\l_timer_process">
<polygon fill="white" stroke="black" points="938,-514.5 938,-544.5 1066,-544.5 1066,-514.5 938,-514.5"/>
<text text-anchor="start" x="946" y="-532.5" font-family="Helvetica,sans-Serif" font-size="10.00">Linux::Scheduler::register</text>
<text text-anchor="middle" x="1002" y="-521.5" font-family="Helvetica,sans-Serif" font-size="10.00">_timer_process</text>
</a>
</g>
</g>
<!-- Node15&#45;&gt;Node23 -->
<g id="edge33" class="edge"><title>Node15&#45;&gt;Node23</title>
<path fill="none" stroke="midnightblue" d="M684.276,-337.333C695.966,-360.387 728.288,-418.322 772,-449.5 820.745,-484.267 843.524,-471.62 900,-491.5 917.284,-497.584 936.103,-504.566 952.762,-510.871"/>
<polygon fill="midnightblue" stroke="midnightblue" points="951.702,-514.212 962.293,-514.494 954.189,-507.669 951.702,-514.212"/>
</g>
<!-- Node26 -->
<g id="node26" class="node"><title>Node26</title>
<g id="a_node26"><a xlink:href="$classLinux_1_1Scheduler.html#a14f3239ecbb9889823b20dc9de655c2f" xlink:title="Linux::Scheduler::delay">
<polygon fill="white" stroke="black" points="776.5,-48 776.5,-67 895.5,-67 895.5,-48 776.5,-48"/>
<text text-anchor="middle" x="836" y="-55" font-family="Helvetica,sans-Serif" font-size="10.00">Linux::Scheduler::delay</text>
</a>
</g>
</g>
<!-- Node15&#45;&gt;Node26 -->
<g id="edge27" class="edge"><title>Node15&#45;&gt;Node26</title>
<path fill="none" stroke="midnightblue" d="M684.121,-317.864C694.27,-296.499 718.957,-243.41 736,-197.5 754.786,-146.893 735.052,-120.855 772,-81.5 775.613,-77.6522 779.907,-74.4152 784.531,-71.6934"/>
<polygon fill="midnightblue" stroke="midnightblue" points="786.373,-74.6851 793.738,-67.0688 783.231,-68.4299 786.373,-74.6851"/>
</g>
<!-- Node28 -->
<g id="node28" class="node"><title>Node28</title>
<g id="a_node28"><a xlink:href="$classLinux_1_1Scheduler.html#a4cffd5bcba0175bf49c7aa75ff3bf09a" xlink:title="Linux::Scheduler::delay\l_microseconds">
<polygon fill="white" stroke="black" points="1446.5,-210.5 1446.5,-240.5 1565.5,-240.5 1565.5,-210.5 1446.5,-210.5"/>
<text text-anchor="start" x="1454.5" y="-228.5" font-family="Helvetica,sans-Serif" font-size="10.00">Linux::Scheduler::delay</text>
<text text-anchor="middle" x="1506" y="-217.5" font-family="Helvetica,sans-Serif" font-size="10.00">_microseconds</text>
</a>
</g>
</g>
<!-- Node15&#45;&gt;Node28 -->
<g id="edge30" class="edge"><title>Node15&#45;&gt;Node28</title>
<path fill="none" stroke="midnightblue" d="M736.064,-332.868C800.233,-338.487 908.044,-346.5 1001,-346.5 1001,-346.5 1001,-346.5 1176.5,-346.5 1278.44,-346.5 1312.72,-369.815 1405,-326.5 1441.41,-309.412 1471.99,-273.144 1489.41,-249.044"/>
<polygon fill="midnightblue" stroke="midnightblue" points="1492.33,-250.969 1495.21,-240.774 1486.6,-246.946 1492.33,-250.969"/>
</g>
<!-- Node29 -->
<g id="node29" class="node"><title>Node29</title>
<g id="a_node29"><a xlink:href="$classLinux_1_1Scheduler.html#a5cb50b637d5fd3e5f9220bc23db0fb3f" xlink:title="Linux::Scheduler::register\l_delay_callback">
<polygon fill="white" stroke="black" points="772,-550.5 772,-580.5 900,-580.5 900,-550.5 772,-550.5"/>
<text text-anchor="start" x="780" y="-568.5" font-family="Helvetica,sans-Serif" font-size="10.00">Linux::Scheduler::register</text>
<text text-anchor="middle" x="836" y="-557.5" font-family="Helvetica,sans-Serif" font-size="10.00">_delay_callback</text>
</a>
</g>
</g>
<!-- Node15&#45;&gt;Node29 -->
<g id="edge32" class="edge"><title>Node15&#45;&gt;Node29</title>
<path fill="none" stroke="midnightblue" d="M680.988,-337.038C686.601,-369.929 709.449,-479.915 772,-540.5 773.614,-542.063 775.337,-543.532 777.145,-544.913"/>
<polygon fill="midnightblue" stroke="midnightblue" points="775.252,-547.857 785.534,-550.412 779.09,-542.002 775.252,-547.857"/>
</g>
<!-- Node30 -->
<g id="node30" class="node"><title>Node30</title>
<g id="a_node30"><a xlink:href="$classLinux_1_1Scheduler.html#aa2be97cb8686d72cc322fb38f69a940c" xlink:title="Linux::Scheduler::register\l_io_process">
<polygon fill="white" stroke="black" points="938,-464.5 938,-494.5 1066,-494.5 1066,-464.5 938,-464.5"/>
<text text-anchor="start" x="946" y="-482.5" font-family="Helvetica,sans-Serif" font-size="10.00">Linux::Scheduler::register</text>
<text text-anchor="middle" x="1002" y="-471.5" font-family="Helvetica,sans-Serif" font-size="10.00">_io_process</text>
</a>
</g>
</g>
<!-- Node15&#45;&gt;Node30 -->
<g id="edge34" class="edge"><title>Node15&#45;&gt;Node30</title>
<path fill="none" stroke="midnightblue" d="M687.049,-337.18C701.557,-355.126 735.176,-393.627 772,-414.5 798.71,-429.64 871.554,-449.101 927.984,-462.767"/>
<polygon fill="midnightblue" stroke="midnightblue" points="927.416,-466.231 937.957,-465.164 929.052,-459.424 927.416,-466.231"/>
</g>
<!-- Node31 -->
<g id="node31" class="node"><title>Node31</title>
<g id="a_node31"><a xlink:href="$classLinux_1_1Scheduler.html#abba967d02c28cb0b16a7cebbff9bc6d6" xlink:title="Linux::Scheduler::suspend\l_timer_procs">
<polygon fill="white" stroke="black" points="936,-287.5 936,-317.5 1068,-317.5 1068,-287.5 936,-287.5"/>
<text text-anchor="start" x="944" y="-305.5" font-family="Helvetica,sans-Serif" font-size="10.00">Linux::Scheduler::suspend</text>
<text text-anchor="middle" x="1002" y="-294.5" font-family="Helvetica,sans-Serif" font-size="10.00">_timer_procs</text>
</a>
</g>
</g>
<!-- Node15&#45;&gt;Node31 -->
<g id="edge36" class="edge"><title>Node15&#45;&gt;Node31</title>
<path fill="none" stroke="midnightblue" d="M736.238,-323.088C788.955,-318.989 867.827,-312.856 925.777,-308.349"/>
<polygon fill="midnightblue" stroke="midnightblue" points="926.28,-311.821 935.979,-307.556 925.738,-304.842 926.28,-311.821"/>
</g>
<!-- Node41 -->
<g id="node41" class="node"><title>Node41</title>
<g id="a_node41"><a xlink:href="$classLinux_1_1Scheduler.html#aee4e701b92cb4721c4de1bfcdcded70c" xlink:title="Linux::Scheduler::resume\l_timer_procs">
<polygon fill="white" stroke="black" points="938,-167.5 938,-197.5 1066,-197.5 1066,-167.5 938,-167.5"/>
<text text-anchor="start" x="946" y="-185.5" font-family="Helvetica,sans-Serif" font-size="10.00">Linux::Scheduler::resume</text>
<text text-anchor="middle" x="1002" y="-174.5" font-family="Helvetica,sans-Serif" font-size="10.00">_timer_procs</text>
</a>
</g>
</g>
<!-- Node15&#45;&gt;Node41 -->
<g id="edge50" class="edge"><title>Node15&#45;&gt;Node41</title>
<path fill="none" stroke="midnightblue" d="M682.529,-317.908C691.355,-291.789 719.785,-219.428 772,-190.5 819.089,-164.412 880.381,-163.669 927.705,-168.765"/>
<polygon fill="midnightblue" stroke="midnightblue" points="927.542,-172.271 937.885,-169.974 928.367,-165.319 927.542,-172.271"/>
</g>
<!-- Node43 -->
<g id="node43" class="node"><title>Node43</title>
<g id="a_node43"><a xlink:href="$classLinux_1_1Scheduler.html#af23753e7c6bfa97553db215a64235455" xlink:title="Linux::Scheduler::in\l_timerprocess">
<polygon fill="white" stroke="black" points="784.5,-501.5 784.5,-531.5 887.5,-531.5 887.5,-501.5 784.5,-501.5"/>
<text text-anchor="start" x="792.5" y="-519.5" font-family="Helvetica,sans-Serif" font-size="10.00">Linux::Scheduler::in</text>
<text text-anchor="middle" x="836" y="-508.5" font-family="Helvetica,sans-Serif" font-size="10.00">_timerprocess</text>
</a>
</g>
</g>
<!-- Node15&#45;&gt;Node43 -->
<g id="edge52" class="edge"><title>Node15&#45;&gt;Node43</title>
<path fill="none" stroke="midnightblue" d="M682.744,-337.039C692.317,-363.923 722.898,-441.29 772,-486.5 776.01,-490.193 780.558,-493.514 785.329,-496.48"/>
<polygon fill="midnightblue" stroke="midnightblue" points="783.665,-499.56 794.092,-501.441 787.113,-493.469 783.665,-499.56"/>
</g>
<!-- Node44 -->
<g id="node44" class="node"><title>Node44</title>
<g id="a_node44"><a xlink:href="$classLinux_1_1Scheduler.html#ac193459e3575c7a0588fdc72250c2044" xlink:title="Linux::Scheduler::register\l_timer_failsafe">
<polygon fill="white" stroke="black" points="772,-200.5 772,-230.5 900,-230.5 900,-200.5 772,-200.5"/>
<text text-anchor="start" x="780" y="-218.5" font-family="Helvetica,sans-Serif" font-size="10.00">Linux::Scheduler::register</text>
<text text-anchor="middle" x="836" y="-207.5" font-family="Helvetica,sans-Serif" font-size="10.00">_timer_failsafe</text>
</a>
</g>
</g>
<!-- Node15&#45;&gt;Node44 -->
<g id="edge53" class="edge"><title>Node15&#45;&gt;Node44</title>
<path fill="none" stroke="midnightblue" d="M687.434,-317.726C702.32,-299.946 736.181,-262.068 772,-239.5 774.46,-237.95 777.036,-236.475 779.682,-235.074"/>
<polygon fill="midnightblue" stroke="midnightblue" points="781.42,-238.122 788.883,-230.602 778.359,-231.826 781.42,-238.122"/>
</g>
<!-- Node45 -->
<g id="node45" class="node"><title>Node45</title>
<g id="a_node45"><a xlink:href="$classLinux_1_1Scheduler.html#ad6070a7ee637adf5101b1e6b6efbf8f6" xlink:title="Linux::Scheduler::system\l_initialized">
<polygon fill="white" stroke="black" points="772,-375.5 772,-405.5 900,-405.5 900,-375.5 772,-375.5"/>
<text text-anchor="start" x="780" y="-393.5" font-family="Helvetica,sans-Serif" font-size="10.00">Linux::Scheduler::system</text>
<text text-anchor="middle" x="836" y="-382.5" font-family="Helvetica,sans-Serif" font-size="10.00">_initialized</text>
</a>
</g>
</g>
<!-- Node15&#45;&gt;Node45 -->
<g id="edge54" class="edge"><title>Node15&#45;&gt;Node45</title>
<path fill="none" stroke="midnightblue" d="M703.117,-337.068C725.613,-346.183 760.113,-360.16 788.185,-371.533"/>
<polygon fill="midnightblue" stroke="midnightblue" points="787.233,-374.924 797.816,-375.435 789.862,-368.436 787.233,-374.924"/>
</g>
<!-- Node47 -->
<g id="node47" class="node"><title>Node47</title>
<g id="a_node47"><a xlink:href="$classLinux_1_1Scheduler.html#ae72cfa66c849ffd882ef518c35c71e69" xlink:title="Linux::Scheduler::reboot">
<polygon fill="white" stroke="black" points="775,-124 775,-143 897,-143 897,-124 775,-124"/>
<text text-anchor="middle" x="836" y="-131" font-family="Helvetica,sans-Serif" font-size="10.00">Linux::Scheduler::reboot</text>
</a>
</g>
</g>
<!-- Node15&#45;&gt;Node47 -->
<g id="edge57" class="edge"><title>Node15&#45;&gt;Node47</title>
<path fill="none" stroke="midnightblue" d="M682.121,-317.913C690.394,-289.389 718.617,-204.153 772,-157.5 776.573,-153.503 781.881,-150.141 787.437,-147.32"/>
<polygon fill="midnightblue" stroke="midnightblue" points="789.241,-150.347 796.938,-143.066 786.38,-143.958 789.241,-150.347"/>
</g>
<!-- Node48 -->
<g id="node48" class="node"><title>Node48</title>
<g id="a_node48"><a xlink:href="$classLinux_1_1Scheduler.html#a392aebafcdfe9a812e4db4b7a9dcce9c" xlink:title="Linux::Scheduler::stop\l_clock">
<polygon fill="white" stroke="black" points="779,-249.5 779,-279.5 893,-279.5 893,-249.5 779,-249.5"/>
<text text-anchor="start" x="787" y="-267.5" font-family="Helvetica,sans-Serif" font-size="10.00">Linux::Scheduler::stop</text>
<text text-anchor="middle" x="836" y="-256.5" font-family="Helvetica,sans-Serif" font-size="10.00">_clock</text>
</a>
</g>
</g>
<!-- Node15&#45;&gt;Node48 -->
<g id="edge58" class="edge"><title>Node15&#45;&gt;Node48</title>
<path fill="none" stroke="midnightblue" d="M703.117,-317.932C725.613,-308.817 760.113,-294.84 788.185,-283.467"/>
<polygon fill="midnightblue" stroke="midnightblue" points="789.862,-286.564 797.816,-279.565 787.233,-280.076 789.862,-286.564"/>
</g>
<!-- Node17 -->
<g id="node17" class="node"><title>Node17</title>
<g id="a_node17"><a xlink:href="$namespaceAP__HAL.html#a71832f03d849a0c088f04fc98d3c8143" xlink:title="AP_HAL::panic">
<polygon fill="white" stroke="black" points="960,-425 960,-444 1044,-444 1044,-425 960,-425"/>
<text text-anchor="middle" x="1002" y="-432" font-family="Helvetica,sans-Serif" font-size="10.00">AP_HAL::panic</text>
</a>
</g>
</g>
<!-- Node16&#45;&gt;Node17 -->
<g id="edge16" class="edge"><title>Node16&#45;&gt;Node17</title>
<path fill="none" stroke="midnightblue" d="M885.41,-599.864C890.835,-597.205 895.88,-593.817 900,-589.5 942.87,-544.576 892.931,-499.233 936,-454.5 940.092,-450.25 945.063,-446.897 950.414,-444.253"/>
<polygon fill="midnightblue" stroke="midnightblue" points="951.772,-447.479 959.69,-440.439 949.11,-441.005 951.772,-447.479"/>
</g>
<!-- Node16&#45;&gt;Node23 -->
<g id="edge22" class="edge"><title>Node16&#45;&gt;Node23</title>
<path fill="none" stroke="midnightblue" d="M871.864,-599.995C881.165,-597.039 891.1,-593.493 900,-589.5 924.69,-578.423 950.917,-562.711 970.456,-550.144"/>
<polygon fill="midnightblue" stroke="midnightblue" points="972.467,-553.012 978.934,-544.62 968.645,-547.147 972.467,-553.012"/>
</g>
<!-- Node24 -->
<g id="node24" class="node"><title>Node24</title>
<g id="a_node24"><a xlink:href="$classLinux_1_1Scheduler.html#a163eb7b285c95b1b1d036fc61d723910" xlink:title="Linux::Scheduler::\l_debug_stack">
<polygon fill="white" stroke="black" points="954.5,-610.5 954.5,-640.5 1049.5,-640.5 1049.5,-610.5 954.5,-610.5"/>
<text text-anchor="start" x="962.5" y="-628.5" font-family="Helvetica,sans-Serif" font-size="10.00">Linux::Scheduler::</text>
<text text-anchor="middle" x="1002" y="-617.5" font-family="Helvetica,sans-Serif" font-size="10.00">_debug_stack</text>
</a>
</g>
</g>
<!-- Node16&#45;&gt;Node24 -->
<g id="edge24" class="edge"><title>Node16&#45;&gt;Node24</title>
<path fill="none" stroke="midnightblue" d="M890.246,-614.695C907.525,-616.38 926.754,-618.256 944.276,-619.966"/>
<polygon fill="midnightblue" stroke="midnightblue" points="944.076,-623.463 954.368,-620.951 944.756,-616.496 944.076,-623.463"/>
</g>
<!-- Node18 -->
<g id="node18" class="node"><title>Node18</title>
<g id="a_node18"><a xlink:href="$classAP__HAL_1_1RCInput.html#a2bea13d38f2b9ae8bf5193a3a69f0a31" xlink:title="AP_HAL::RCInput::teardown">
<polygon fill="white" stroke="black" points="1104,-423 1104,-442 1247,-442 1247,-423 1104,-423"/>
<text text-anchor="middle" x="1175.5" y="-430" font-family="Helvetica,sans-Serif" font-size="10.00">AP_HAL::RCInput::teardown</text>
</a>
</g>
</g>
<!-- Node17&#45;&gt;Node18 -->
<g id="edge17" class="edge"><title>Node17&#45;&gt;Node18</title>
<path fill="none" stroke="midnightblue" d="M1044.08,-434.021C1059.07,-433.846 1076.59,-433.642 1093.84,-433.441"/>
<polygon fill="midnightblue" stroke="midnightblue" points="1093.98,-436.939 1103.94,-433.323 1093.9,-429.94 1093.98,-436.939"/>
</g>
<!-- Node22 -->
<g id="node22" class="node"><title>Node22</title>
<g id="a_node22"><a xlink:href="$classAP__HAL_1_1Scheduler.html#a78c4f1b1f192ac1c99544b6cc8f099b0" xlink:title="AP_HAL::Scheduler::\ldelay_microseconds">
<polygon fill="white" stroke="black" points="1289,-287.5 1289,-317.5 1399,-317.5 1399,-287.5 1289,-287.5"/>
<text text-anchor="start" x="1297" y="-305.5" font-family="Helvetica,sans-Serif" font-size="10.00">AP_HAL::Scheduler::</text>
<text text-anchor="middle" x="1344" y="-294.5" font-family="Helvetica,sans-Serif" font-size="10.00">delay_microseconds</text>
</a>
</g>
</g>
<!-- Node17&#45;&gt;Node22 -->
<g id="edge21" class="edge"><title>Node17&#45;&gt;Node22</title>
<path fill="none" stroke="midnightblue" d="M1035.92,-424.987C1046.25,-421.837 1057.66,-418.189 1068,-414.5 1150.91,-384.928 1245.56,-344.979 1299.4,-321.651"/>
<polygon fill="midnightblue" stroke="midnightblue" points="1300.87,-324.829 1308.65,-317.635 1298.08,-318.409 1300.87,-324.829"/>
</g>
<!-- Node19 -->
<g id="node19" class="node"><title>Node19</title>
<g id="a_node19"><a xlink:href="$classAP__HAL_1_1RCInput.html#aee1fade33080edef83dd7db0fad0f7da" xlink:title="AP_HAL::RCInput::new\l_input">
<polygon fill="white" stroke="black" points="1283,-465.5 1283,-495.5 1405,-495.5 1405,-465.5 1283,-465.5"/>
<text text-anchor="start" x="1291" y="-483.5" font-family="Helvetica,sans-Serif" font-size="10.00">AP_HAL::RCInput::new</text>
<text text-anchor="middle" x="1344" y="-472.5" font-family="Helvetica,sans-Serif" font-size="10.00">_input</text>
</a>
</g>
</g>
<!-- Node18&#45;&gt;Node19 -->
<g id="edge18" class="edge"><title>Node18&#45;&gt;Node19</title>
<path fill="none" stroke="midnightblue" d="M1209.79,-442.098C1230.15,-447.965 1256.82,-455.655 1280.95,-462.61"/>
<polygon fill="midnightblue" stroke="midnightblue" points="1280.17,-466.03 1290.75,-465.437 1282.11,-459.304 1280.17,-466.03"/>
</g>
<!-- Node20 -->
<g id="node20" class="node"><title>Node20</title>
<g id="a_node20"><a xlink:href="$classAP__HAL_1_1RCInput.html#ae55f959c6115c1f41783af3a2b6c4fcd" xlink:title="AP_HAL::RCInput::num\l_channels">
<polygon fill="white" stroke="black" points="1283,-416.5 1283,-446.5 1405,-446.5 1405,-416.5 1283,-416.5"/>
<text text-anchor="start" x="1291" y="-434.5" font-family="Helvetica,sans-Serif" font-size="10.00">AP_HAL::RCInput::num</text>
<text text-anchor="middle" x="1344" y="-423.5" font-family="Helvetica,sans-Serif" font-size="10.00">_channels</text>
</a>
</g>
</g>
<!-- Node18&#45;&gt;Node20 -->
<g id="edge19" class="edge"><title>Node18&#45;&gt;Node20</title>
<path fill="none" stroke="midnightblue" d="M1247.11,-432.076C1255.55,-432.025 1264.18,-431.973 1272.62,-431.923"/>
<polygon fill="midnightblue" stroke="midnightblue" points="1272.82,-435.422 1282.8,-431.862 1272.78,-428.422 1272.82,-435.422"/>
</g>
<!-- Node21 -->
<g id="node21" class="node"><title>Node21</title>
<g id="a_node21"><a xlink:href="$classAP__HAL_1_1RCInput.html#a078fd7e6d2e6a899009ec674a8e03498" xlink:title="AP_HAL::RCInput::read">
<polygon fill="white" stroke="black" points="1283,-378 1283,-397 1405,-397 1405,-378 1283,-378"/>
<text text-anchor="middle" x="1344" y="-385" font-family="Helvetica,sans-Serif" font-size="10.00">AP_HAL::RCInput::read</text>
</a>
</g>
</g>
<!-- Node18&#45;&gt;Node21 -->
<g id="edge20" class="edge"><title>Node18&#45;&gt;Node21</title>
<path fill="none" stroke="midnightblue" d="M1211.81,-422.957C1236.87,-416.185 1270.71,-407.038 1297.74,-399.731"/>
<polygon fill="midnightblue" stroke="midnightblue" points="1299,-403.018 1307.74,-397.03 1297.17,-396.26 1299,-403.018"/>
</g>
<!-- Node23&#45;&gt;Node2 -->
<g id="edge23" class="edge"><title>Node23&#45;&gt;Node2</title>
<path fill="none" stroke="midnightblue" d="M1066.37,-529.5C1079.83,-529.5 1094.08,-529.5 1107.66,-529.5"/>
<polygon fill="midnightblue" stroke="midnightblue" points="1107.9,-533 1117.9,-529.5 1107.9,-526 1107.9,-533"/>
</g>
<!-- Node24&#45;&gt;Node14 -->
<g id="edge25" class="edge"><title>Node24&#45;&gt;Node14</title>
<path fill="none" stroke="midnightblue" d="M954.439,-637.89C906.172,-648.13 829.829,-656.866 772,-628.5 646.867,-567.121 569.771,-402.576 546.493,-346.514"/>
<polygon fill="midnightblue" stroke="midnightblue" points="549.669,-345.032 542.665,-337.083 543.183,-347.665 549.669,-345.032"/>
</g>
<!-- Node25 -->
<g id="node25" class="node"><title>Node25</title>
<g id="a_node25"><a xlink:href="$classLinux_1_1Thread.html#a6884970a0811ae21953c57fb98aa6e96" xlink:title="Linux::Thread::get\l_stack_usage">
<polygon fill="white" stroke="black" points="2094,-331.5 2094,-361.5 2189,-361.5 2189,-331.5 2094,-331.5"/>
<text text-anchor="start" x="2102" y="-349.5" font-family="Helvetica,sans-Serif" font-size="10.00">Linux::Thread::get</text>
<text text-anchor="middle" x="2141.5" y="-338.5" font-family="Helvetica,sans-Serif" font-size="10.00">_stack_usage</text>
</a>
</g>
</g>
<!-- Node24&#45;&gt;Node25 -->
<g id="edge26" class="edge"><title>Node24&#45;&gt;Node25</title>
<path fill="none" stroke="midnightblue" d="M1049.75,-625.5C1115.29,-625.5 1238.23,-625.5 1343,-625.5 1343,-625.5 1343,-625.5 1842.5,-625.5 1991.11,-625.5 2096.2,-438.316 2129.36,-370.589"/>
<polygon fill="midnightblue" stroke="midnightblue" points="2132.55,-372.03 2133.73,-361.5 2126.24,-368.998 2132.55,-372.03"/>
</g>
<!-- Node26&#45;&gt;Node14 -->
<g id="edge28" class="edge"><title>Node26&#45;&gt;Node14</title>
<path fill="none" stroke="midnightblue" d="M801.59,-67.0723C791.614,-70.7446 780.958,-75.5248 772,-81.5 672.194,-148.074 583.531,-264.707 551.602,-309.383"/>
<polygon fill="midnightblue" stroke="midnightblue" points="548.741,-307.366 545.826,-317.552 554.457,-311.408 548.741,-307.366"/>
</g>
<!-- Node27 -->
<g id="node27" class="node"><title>Node27</title>
<g id="a_node27"><a xlink:href="$classLinux_1_1Scheduler.html#a647872aff158b510c56862f51f951538" xlink:title="Linux::Scheduler::microsleep">
<polygon fill="white" stroke="black" points="1607,-50 1607,-69 1750,-69 1750,-50 1607,-50"/>
<text text-anchor="middle" x="1678.5" y="-57" font-family="Helvetica,sans-Serif" font-size="10.00">Linux::Scheduler::microsleep</text>
</a>
</g>
</g>
<!-- Node26&#45;&gt;Node27 -->
<g id="edge29" class="edge"><title>Node26&#45;&gt;Node27</title>
<path fill="none" stroke="midnightblue" d="M895.768,-57.6398C1043.07,-57.9903 1428.25,-58.9069 1596.68,-59.3077"/>
<polygon fill="midnightblue" stroke="midnightblue" points="1596.72,-62.8077 1606.73,-59.3316 1596.74,-55.8077 1596.72,-62.8077"/>
</g>
<!-- Node28&#45;&gt;Node27 -->
<g id="edge31" class="edge"><title>Node28&#45;&gt;Node27</title>
<path fill="none" stroke="midnightblue" d="M1522.43,-210.476C1554.3,-179.444 1627.2,-108.472 1660.43,-76.1209"/>
<polygon fill="midnightblue" stroke="midnightblue" points="1662.89,-78.6089 1667.61,-69.1253 1658.01,-73.5934 1662.89,-78.6089"/>
</g>
<!-- Node30&#45;&gt;Node2 -->
<g id="edge35" class="edge"><title>Node30&#45;&gt;Node2</title>
<path fill="none" stroke="midnightblue" d="M1054.46,-494.502C1072.86,-499.866 1093.78,-505.966 1112.94,-511.554"/>
<polygon fill="midnightblue" stroke="midnightblue" points="1112.2,-514.984 1122.78,-514.423 1114.16,-508.263 1112.2,-514.984"/>
</g>
<!-- Node32 -->
<g id="node32" class="node"><title>Node32</title>
<g id="a_node32"><a xlink:href="$classLinux_1_1Semaphore.html#afc4c8706abb7e68aa4001ea372dc614e" xlink:title="Linux::Semaphore::take">
<polygon fill="white" stroke="black" points="1115.5,-244 1115.5,-263 1235.5,-263 1235.5,-244 1115.5,-244"/>
<text text-anchor="middle" x="1175.5" y="-251" font-family="Helvetica,sans-Serif" font-size="10.00">Linux::Semaphore::take</text>
</a>
</g>
</g>
<!-- Node31&#45;&gt;Node32 -->
<g id="edge37" class="edge"><title>Node31&#45;&gt;Node32</title>
<path fill="none" stroke="midnightblue" d="M1055.86,-287.399C1080.12,-280.466 1108.52,-272.351 1131.45,-265.799"/>
<polygon fill="midnightblue" stroke="midnightblue" points="1132.59,-269.115 1141.24,-263.002 1130.67,-262.384 1132.59,-269.115"/>
</g>
<!-- Node32&#45;&gt;Node22 -->
<g id="edge49" class="edge"><title>Node32&#45;&gt;Node22</title>
<path fill="none" stroke="midnightblue" d="M1209,-263.064C1229.8,-269.186 1257.44,-277.321 1282.21,-284.611"/>
<polygon fill="midnightblue" stroke="midnightblue" points="1281.32,-287.997 1291.91,-287.463 1283.3,-281.282 1281.32,-287.997"/>
</g>
<!-- Node33 -->
<g id="node33" class="node"><title>Node33</title>
<g id="a_node33"><a xlink:href="$classLinux_1_1Semaphore.html#a561b4f40f3a76335f1a686c2aed526f9" xlink:title="Linux::Semaphore::take\l_nonblocking">
<polygon fill="white" stroke="black" points="1284,-238.5 1284,-268.5 1404,-268.5 1404,-238.5 1284,-238.5"/>
<text text-anchor="start" x="1292" y="-256.5" font-family="Helvetica,sans-Serif" font-size="10.00">Linux::Semaphore::take</text>
<text text-anchor="middle" x="1344" y="-245.5" font-family="Helvetica,sans-Serif" font-size="10.00">_nonblocking</text>
</a>
</g>
</g>
<!-- Node32&#45;&gt;Node33 -->
<g id="edge38" class="edge"><title>Node32&#45;&gt;Node33</title>
<path fill="none" stroke="midnightblue" d="M1235.67,-253.5C1247.99,-253.5 1261.07,-253.5 1273.72,-253.5"/>
<polygon fill="midnightblue" stroke="midnightblue" points="1273.74,-257 1283.74,-253.5 1273.74,-250 1273.74,-257"/>
</g>
<!-- Node34 -->
<g id="node34" class="node"><title>Node34</title>
<g id="a_node34"><a xlink:href="$namespaceAP__HAL.html#a7aa0ce7625c9680e30ff4a99940907a5" xlink:title="AP_HAL::micros64">
<polygon fill="white" stroke="black" points="1293.5,-86 1293.5,-105 1394.5,-105 1394.5,-86 1293.5,-86"/>
<text text-anchor="middle" x="1344" y="-93" font-family="Helvetica,sans-Serif" font-size="10.00">AP_HAL::micros64</text>
</a>
</g>
</g>
<!-- Node32&#45;&gt;Node34 -->
<g id="edge39" class="edge"><title>Node32&#45;&gt;Node34</title>
<path fill="none" stroke="midnightblue" d="M1197.2,-243.946C1211.95,-236.564 1231.8,-225.441 1247,-212.5 1282.31,-182.447 1314.55,-138.236 1331.18,-113.663"/>
<polygon fill="midnightblue" stroke="midnightblue" points="1334.13,-115.541 1336.76,-105.277 1328.31,-111.662 1334.13,-115.541"/>
</g>
<!-- Node34&#45;&gt;Node15 -->
<g id="edge40" class="edge"><title>Node34&#45;&gt;Node15</title>
<path fill="none" stroke="midnightblue" d="M1293.15,-90.5735C1170.11,-79.4304 855.865,-57.471 772,-114.5 754.762,-126.222 705.001,-258.031 686.52,-308.238"/>
<polygon fill="midnightblue" stroke="midnightblue" points="683.137,-307.299 682.982,-317.892 689.71,-309.707 683.137,-307.299"/>
</g>
<!-- Node34&#45;&gt;Node35 -->
<g id="edge41" class="edge"><title>Node34&#45;&gt;Node35</title>
<path fill="none" stroke="midnightblue" d="M1364.3,-85.8501C1389.34,-73.3304 1433.62,-51.1875 1465.84,-35.0806"/>
<polygon fill="midnightblue" stroke="midnightblue" points="1467.62,-38.105 1475,-30.5023 1464.49,-31.844 1467.62,-38.105"/>
</g>
<!-- Node35&#45;&gt;Node27 -->
<g id="edge42" class="edge"><title>Node35&#45;&gt;Node27</title>
<path fill="none" stroke="midnightblue" d="M1565.2,-30.5192C1586.57,-36.0352 1610.48,-42.2044 1630.72,-47.4284"/>
<polygon fill="midnightblue" stroke="midnightblue" points="1630.08,-50.8777 1640.64,-49.9876 1631.83,-44.0998 1630.08,-50.8777"/>
</g>
<!-- Node36 -->
<g id="node36" class="node"><title>Node36</title>
<g id="a_node36"><a xlink:href="$classLinux_1_1Scheduler.html#ab373a83d818679432520ea881044b2a7" xlink:title="Linux::Scheduler::teardown">
<polygon fill="white" stroke="black" points="1611,-9 1611,-28 1746,-28 1746,-9 1611,-9"/>
<text text-anchor="middle" x="1678.5" y="-16" font-family="Helvetica,sans-Serif" font-size="10.00">Linux::Scheduler::teardown</text>
</a>
</g>
</g>
<!-- Node35&#45;&gt;Node36 -->
<g id="edge43" class="edge"><title>Node35&#45;&gt;Node36</title>
<path fill="none" stroke="midnightblue" d="M1571.46,-16.6342C1581.05,-16.8029 1591.01,-16.9782 1600.82,-17.1508"/>
<polygon fill="midnightblue" stroke="midnightblue" points="1600.9,-20.6527 1610.96,-17.3293 1601.03,-13.6538 1600.9,-20.6527"/>
</g>
<!-- Node37 -->
<g id="node37" class="node"><title>Node37</title>
<g id="a_node37"><a xlink:href="$classLinux_1_1PeriodicThread.html#a136aaf6e713f63b246fc4a2905e6e9a1" xlink:title="Linux::PeriodicThread\l::stop">
<polygon fill="white" stroke="black" points="1786,-3.5 1786,-33.5 1897,-33.5 1897,-3.5 1786,-3.5"/>
<text text-anchor="start" x="1794" y="-21.5" font-family="Helvetica,sans-Serif" font-size="10.00">Linux::PeriodicThread</text>
<text text-anchor="middle" x="1841.5" y="-10.5" font-family="Helvetica,sans-Serif" font-size="10.00">::stop</text>
</a>
</g>
</g>
<!-- Node36&#45;&gt;Node37 -->
<g id="edge44" class="edge"><title>Node36&#45;&gt;Node37</title>
<path fill="none" stroke="midnightblue" d="M1746.38,-18.5C1756.02,-18.5 1765.94,-18.5 1775.54,-18.5"/>
<polygon fill="midnightblue" stroke="midnightblue" points="1775.82,-22.0001 1785.82,-18.5 1775.82,-15.0001 1775.82,-22.0001"/>
</g>
<!-- Node40 -->
<g id="node40" class="node"><title>Node40</title>
<g id="a_node40"><a xlink:href="$classLinux_1_1Thread.html#a32b7d184279634922e2f3b23b584fbcd" xlink:title="Linux::Thread::join">
<polygon fill="white" stroke="black" points="1793,-53 1793,-72 1890,-72 1890,-53 1793,-53"/>
<text text-anchor="middle" x="1841.5" y="-60" font-family="Helvetica,sans-Serif" font-size="10.00">Linux::Thread::join</text>
</a>
</g>
</g>
<!-- Node36&#45;&gt;Node40 -->
<g id="edge48" class="edge"><title>Node36&#45;&gt;Node40</title>
<path fill="none" stroke="midnightblue" d="M1714.43,-28.0473C1738.28,-34.5627 1770.07,-43.2508 1795.76,-50.2722"/>
<polygon fill="midnightblue" stroke="midnightblue" points="1795.06,-53.7112 1805.63,-52.9713 1796.91,-46.9588 1795.06,-53.7112"/>
</g>
<!-- Node38 -->
<g id="node38" class="node"><title>Node38</title>
<g id="a_node38"><a xlink:href="$classLinux_1_1Thread.html#a240d7b48a9a8eb43638f67295a1819e5" xlink:title="Linux::Thread::is_started">
<polygon fill="white" stroke="black" points="1933,-149 1933,-168 2058,-168 2058,-149 1933,-149"/>
<text text-anchor="middle" x="1995.5" y="-156" font-family="Helvetica,sans-Serif" font-size="10.00">Linux::Thread::is_started</text>
</a>
</g>
</g>
<!-- Node37&#45;&gt;Node38 -->
<g id="edge45" class="edge"><title>Node37&#45;&gt;Node38</title>
<path fill="none" stroke="midnightblue" d="M1880.96,-33.5354C1886.57,-36.4604 1892.11,-39.7888 1897,-43.5 1933.99,-71.5492 1966.52,-115.925 1983.02,-140.546"/>
<polygon fill="midnightblue" stroke="midnightblue" points="1980.12,-142.504 1988.53,-148.94 1985.97,-138.66 1980.12,-142.504"/>
</g>
<!-- Node38&#45;&gt;Node25 -->
<g id="edge46" class="edge"><title>Node38&#45;&gt;Node25</title>
<path fill="none" stroke="midnightblue" d="M2003.84,-168.081C2025.72,-196.653 2090.98,-281.843 2122.74,-323.31"/>
<polygon fill="midnightblue" stroke="midnightblue" points="2120.12,-325.648 2128.98,-331.459 2125.68,-321.392 2120.12,-325.648"/>
</g>
<!-- Node39 -->
<g id="node39" class="node"><title>Node39</title>
<g id="a_node39"><a xlink:href="$classLinux_1_1Thread.html#a8d3282b714faaf68eae534e9276419f0" xlink:title="Linux::Thread::set\l_stack_size">
<polygon fill="white" stroke="black" points="2094,-143.5 2094,-173.5 2189,-173.5 2189,-143.5 2094,-143.5"/>
<text text-anchor="start" x="2102" y="-161.5" font-family="Helvetica,sans-Serif" font-size="10.00">Linux::Thread::set</text>
<text text-anchor="middle" x="2141.5" y="-150.5" font-family="Helvetica,sans-Serif" font-size="10.00">_stack_size</text>
</a>
</g>
</g>
<!-- Node38&#45;&gt;Node39 -->
<g id="edge47" class="edge"><title>Node38&#45;&gt;Node39</title>
<path fill="none" stroke="midnightblue" d="M2058.4,-158.5C2066.86,-158.5 2075.5,-158.5 2083.86,-158.5"/>
<polygon fill="midnightblue" stroke="midnightblue" points="2083.87,-162 2093.87,-158.5 2083.87,-155 2083.87,-162"/>
</g>
<!-- Node42 -->
<g id="node42" class="node"><title>Node42</title>
<g id="a_node42"><a xlink:href="$classLinux_1_1Semaphore.html#a216f91636f64b57b59d43ef64af91624" xlink:title="Linux::Semaphore::give">
<polygon fill="white" stroke="black" points="1116,-184 1116,-203 1235,-203 1235,-184 1116,-184"/>
<text text-anchor="middle" x="1175.5" y="-191" font-family="Helvetica,sans-Serif" font-size="10.00">Linux::Semaphore::give</text>
</a>
</g>
</g>
<!-- Node41&#45;&gt;Node42 -->
<g id="edge51" class="edge"><title>Node41&#45;&gt;Node42</title>
<path fill="none" stroke="midnightblue" d="M1066.37,-186.565C1079.17,-187.386 1092.69,-188.253 1105.66,-189.085"/>
<polygon fill="midnightblue" stroke="midnightblue" points="1105.73,-192.596 1115.93,-189.743 1106.18,-185.61 1105.73,-192.596"/>
</g>
<!-- Node45&#45;&gt;Node17 -->
<g id="edge55" class="edge"><title>Node45&#45;&gt;Node17</title>
<path fill="none" stroke="midnightblue" d="M892.981,-405.519C913.368,-410.989 936.148,-417.101 955.514,-422.296"/>
<polygon fill="midnightblue" stroke="midnightblue" points="954.734,-425.711 965.299,-424.922 956.548,-418.95 954.734,-425.711"/>
</g>
<!-- Node46 -->
<g id="node46" class="node"><title>Node46</title>
<g id="a_node46"><a xlink:href="$classLinux_1_1Scheduler.html#ac52c8da3f1f4fd79c50bd64379daf399" xlink:title="Linux::Scheduler::\l_wait_all_threads">
<polygon fill="white" stroke="black" points="954.5,-375.5 954.5,-405.5 1049.5,-405.5 1049.5,-375.5 954.5,-375.5"/>
<text text-anchor="start" x="962.5" y="-393.5" font-family="Helvetica,sans-Serif" font-size="10.00">Linux::Scheduler::</text>
<text text-anchor="middle" x="1002" y="-382.5" font-family="Helvetica,sans-Serif" font-size="10.00">_wait_all_threads</text>
</a>
</g>
</g>
<!-- Node45&#45;&gt;Node46 -->
<g id="edge56" class="edge"><title>Node45&#45;&gt;Node46</title>
<path fill="none" stroke="midnightblue" d="M900.407,-390.5C914.84,-390.5 930.085,-390.5 944.222,-390.5"/>
<polygon fill="midnightblue" stroke="midnightblue" points="944.293,-394 954.293,-390.5 944.293,-387 944.293,-394"/>
</g>
<!-- Node49 -->
<g id="node49" class="node"><title>Node49</title>
<g id="a_node49"><a xlink:href="$classLinux_1_1Scheduler.html#a70b024d7d0886bf47b46cc3ee310d638" xlink:title="Linux::Scheduler::\l_run_io">
<polygon fill="white" stroke="black" points="954.5,-238.5 954.5,-268.5 1049.5,-268.5 1049.5,-238.5 954.5,-238.5"/>
<text text-anchor="start" x="962.5" y="-256.5" font-family="Helvetica,sans-Serif" font-size="10.00">Linux::Scheduler::</text>
<text text-anchor="middle" x="1002" y="-245.5" font-family="Helvetica,sans-Serif" font-size="10.00">_run_io</text>
</a>
</g>
</g>
<!-- Node48&#45;&gt;Node49 -->
<g id="edge59" class="edge"><title>Node48&#45;&gt;Node49</title>
<path fill="none" stroke="midnightblue" d="M893.439,-260.714C909.86,-259.613 927.799,-258.41 944.239,-257.307"/>
<polygon fill="midnightblue" stroke="midnightblue" points="944.511,-260.797 954.255,-256.635 944.043,-253.813 944.511,-260.797"/>
</g>
<!-- Node49&#45;&gt;Node32 -->
<g id="edge60" class="edge"><title>Node49&#45;&gt;Node32</title>
<path fill="none" stroke="midnightblue" d="M1049.86,-253.5C1066.93,-253.5 1086.61,-253.5 1105.22,-253.5"/>
<polygon fill="midnightblue" stroke="midnightblue" points="1105.42,-257 1115.42,-253.5 1105.42,-250 1105.42,-257"/>
</g>
<!-- Node49&#45;&gt;Node42 -->
<g id="edge61" class="edge"><title>Node49&#45;&gt;Node42</title>
<path fill="none" stroke="midnightblue" d="M1046.28,-238.359C1074.43,-228.509 1110.76,-215.799 1137.56,-206.424"/>
<polygon fill="midnightblue" stroke="midnightblue" points="1139.04,-209.613 1147.33,-203.007 1136.73,-203.006 1139.04,-209.613"/>
</g>
</g>
</svg>
