<?xml version="1.0" encoding="UTF-8" standalone="no"?>
<!DOCTYPE svg PUBLIC "-//W3C//DTD SVG 1.1//EN"
 "http://www.w3.org/Graphics/SVG/1.1/DTD/svg11.dtd">
<!-- Generated by graphviz version 2.38.0 (20140413.2041)
 -->
<!-- Title: libraries/SITL/SIM_ADSB.h Pages: 1 -->
<svg width="1875pt" height="441pt"
 viewBox="0.00 0.00 1875.00 441.00" xmlns="http://www.w3.org/2000/svg" xmlns:xlink="http://www.w3.org/1999/xlink">
<g id="graph0" class="graph" transform="scale(1 1) rotate(0) translate(4 437)">
<title>libraries/SITL/SIM_ADSB.h</title>
<polygon fill="white" stroke="none" points="-4,4 -4,-437 1871,-437 1871,4 -4,4"/>
<!-- Node1 -->
<g id="node1" class="node"><title>Node1</title>
<polygon fill="#bfbfbf" stroke="black" points="993.5,-402.5 993.5,-432.5 1088.5,-432.5 1088.5,-402.5 993.5,-402.5"/>
<text text-anchor="start" x="1001.5" y="-420.5" font-family="Helvetica,sans-Serif" font-size="10.00">libraries/SITL/SIM</text>
<text text-anchor="middle" x="1041" y="-409.5" font-family="Helvetica,sans-Serif" font-size="10.00">_ADSB.h</text>
</g>
<!-- Node2 -->
<g id="node2" class="node"><title>Node2</title>
<g id="a_node2"><a xlink:href="$SITL__State_8h.html" xlink:title="libraries/AP_HAL_SITL\l/SITL_State.h">
<polygon fill="white" stroke="black" points="920,-335.5 920,-365.5 1038,-365.5 1038,-335.5 920,-335.5"/>
<text text-anchor="start" x="928" y="-353.5" font-family="Helvetica,sans-Serif" font-size="10.00">libraries/AP_HAL_SITL</text>
<text text-anchor="middle" x="979" y="-342.5" font-family="Helvetica,sans-Serif" font-size="10.00">/SITL_State.h</text>
</a>
</g>
</g>
<!-- Node1&#45;&gt;Node2 -->
<g id="edge1" class="edge"><title>Node1&#45;&gt;Node2</title>
<path fill="none" stroke="midnightblue" d="M1020.52,-395.024C1011.28,-385.34 1000.63,-374.174 992.427,-365.577"/>
<polygon fill="midnightblue" stroke="midnightblue" points="1018.11,-397.576 1027.55,-402.396 1023.18,-392.744 1018.11,-397.576"/>
</g>
<!-- Node25 -->
<g id="node25" class="node"><title>Node25</title>
<g id="a_node25"><a xlink:href="$SIM__ADSB_8cpp.html" xlink:title="libraries/SITL/SIM\l_ADSB.cpp">
<polygon fill="white" stroke="black" points="1056.5,-335.5 1056.5,-365.5 1151.5,-365.5 1151.5,-335.5 1056.5,-335.5"/>
<text text-anchor="start" x="1064.5" y="-353.5" font-family="Helvetica,sans-Serif" font-size="10.00">libraries/SITL/SIM</text>
<text text-anchor="middle" x="1104" y="-342.5" font-family="Helvetica,sans-Serif" font-size="10.00">_ADSB.cpp</text>
</a>
</g>
</g>
<!-- Node1&#45;&gt;Node25 -->
<g id="edge42" class="edge"><title>Node1&#45;&gt;Node25</title>
<path fill="none" stroke="midnightblue" d="M1061.81,-395.024C1071.2,-385.34 1082.02,-374.174 1090.36,-365.577"/>
<polygon fill="midnightblue" stroke="midnightblue" points="1059.12,-392.779 1054.67,-402.396 1064.14,-397.651 1059.12,-392.779"/>
</g>
<!-- Node3 -->
<g id="node3" class="node"><title>Node3</title>
<g id="a_node3"><a xlink:href="$HAL__SITL__Class_8h.html" xlink:title="libraries/AP_HAL_SITL\l/HAL_SITL_Class.h">
<polygon fill="white" stroke="black" points="1099,-268.5 1099,-298.5 1217,-298.5 1217,-268.5 1099,-268.5"/>
<text text-anchor="start" x="1107" y="-286.5" font-family="Helvetica,sans-Serif" font-size="10.00">libraries/AP_HAL_SITL</text>
<text text-anchor="middle" x="1158" y="-275.5" font-family="Helvetica,sans-Serif" font-size="10.00">/HAL_SITL_Class.h</text>
</a>
</g>
</g>
<!-- Node2&#45;&gt;Node3 -->
<g id="edge2" class="edge"><title>Node2&#45;&gt;Node3</title>
<path fill="none" stroke="midnightblue" d="M1021.61,-331.819C1049.37,-321.371 1085.44,-308.323 1113.56,-298.577"/>
<polygon fill="midnightblue" stroke="midnightblue" points="1020.27,-328.581 1012.16,-335.396 1022.75,-335.128 1020.27,-328.581"/>
</g>
<!-- Node7 -->
<g id="node7" class="node"><title>Node7</title>
<g id="a_node7"><a xlink:href="$HAL__SITL__Class_8cpp.html" xlink:title="libraries/AP_HAL_SITL\l/HAL_SITL_Class.cpp">
<polygon fill="white" stroke="black" points="547,-0.5 547,-30.5 665,-30.5 665,-0.5 547,-0.5"/>
<text text-anchor="start" x="555" y="-18.5" font-family="Helvetica,sans-Serif" font-size="10.00">libraries/AP_HAL_SITL</text>
<text text-anchor="middle" x="606" y="-7.5" font-family="Helvetica,sans-Serif" font-size="10.00">/HAL_SITL_Class.cpp</text>
</a>
</g>
</g>
<!-- Node2&#45;&gt;Node7 -->
<g id="edge38" class="edge"><title>Node2&#45;&gt;Node7</title>
<path fill="none" stroke="midnightblue" d="M909.596,-349.884C733.267,-350.145 271.788,-346.158 127,-299 63.23,-278.23 0,-284.567 0,-217.5 0,-217.5 0,-217.5 0,-148.5 0,-101.04 26.9251,-88.959 69,-67 150.77,-24.3244 424.69,-17.4242 546.608,-16.5104"/>
<polygon fill="midnightblue" stroke="midnightblue" points="909.797,-353.384 919.79,-349.864 909.783,-346.384 909.797,-353.384"/>
</g>
<!-- Node10 -->
<g id="node10" class="node"><title>Node10</title>
<g id="a_node10"><a xlink:href="$AP__HAL__SITL__Private_8h.html" xlink:title="libraries/AP_HAL_SITL\l/AP_HAL_SITL_Private.h">
<polygon fill="white" stroke="black" points="227,-67.5 227,-97.5 355,-97.5 355,-67.5 227,-67.5"/>
<text text-anchor="start" x="235" y="-85.5" font-family="Helvetica,sans-Serif" font-size="10.00">libraries/AP_HAL_SITL</text>
<text text-anchor="middle" x="291" y="-74.5" font-family="Helvetica,sans-Serif" font-size="10.00">/AP_HAL_SITL_Private.h</text>
</a>
</g>
</g>
<!-- Node2&#45;&gt;Node10 -->
<g id="edge37" class="edge"><title>Node2&#45;&gt;Node10</title>
<path fill="none" stroke="midnightblue" d="M909.588,-344.166C734.095,-329.071 280.394,-279.503 193,-165 184.641,-154.048 185.828,-145.764 193,-134 203.461,-116.841 221.828,-105.262 239.854,-97.5723"/>
<polygon fill="midnightblue" stroke="midnightblue" points="909.48,-347.669 919.74,-345.027 910.071,-340.694 909.48,-347.669"/>
</g>
<!-- Node19 -->
<g id="node19" class="node"><title>Node19</title>
<g id="a_node19"><a xlink:href="$sitl__airspeed_8cpp.html" xlink:title="libraries/AP_HAL_SITL\l/sitl_airspeed.cpp">
<polygon fill="white" stroke="black" points="202,-134.5 202,-164.5 320,-164.5 320,-134.5 202,-134.5"/>
<text text-anchor="start" x="210" y="-152.5" font-family="Helvetica,sans-Serif" font-size="10.00">libraries/AP_HAL_SITL</text>
<text text-anchor="middle" x="261" y="-141.5" font-family="Helvetica,sans-Serif" font-size="10.00">/sitl_airspeed.cpp</text>
</a>
</g>
</g>
<!-- Node2&#45;&gt;Node19 -->
<g id="edge39" class="edge"><title>Node2&#45;&gt;Node19</title>
<path fill="none" stroke="midnightblue" d="M917.955,-332.796C835.06,-310.091 682.28,-268.169 552,-232 467.324,-208.492 368.876,-180.856 310.928,-164.558"/>
<polygon fill="midnightblue" stroke="midnightblue" points="917.142,-336.202 927.711,-335.467 918.991,-329.45 917.142,-336.202"/>
</g>
<!-- Node22 -->
<g id="node22" class="node"><title>Node22</title>
<g id="a_node22"><a xlink:href="$sitl__rangefinder_8cpp.html" xlink:title="libraries/AP_HAL_SITL\l/sitl_rangefinder.cpp">
<polygon fill="white" stroke="black" points="1600,-134.5 1600,-164.5 1718,-164.5 1718,-134.5 1600,-134.5"/>
<text text-anchor="start" x="1608" y="-152.5" font-family="Helvetica,sans-Serif" font-size="10.00">libraries/AP_HAL_SITL</text>
<text text-anchor="middle" x="1659" y="-141.5" font-family="Helvetica,sans-Serif" font-size="10.00">/sitl_rangefinder.cpp</text>
</a>
</g>
</g>
<!-- Node2&#45;&gt;Node22 -->
<g id="edge40" class="edge"><title>Node2&#45;&gt;Node22</title>
<path fill="none" stroke="midnightblue" d="M1048.36,-334.754C1128.2,-318.622 1150.69,-319.226 1226,-299 1376.24,-258.649 1549.89,-193.181 1623.3,-164.6"/>
<polygon fill="midnightblue" stroke="midnightblue" points="1047.42,-331.372 1038.33,-336.806 1048.83,-338.23 1047.42,-331.372"/>
</g>
<!-- Node24 -->
<g id="node24" class="node"><title>Node24</title>
<g id="a_node24"><a xlink:href="$SITL_2UARTDriver_8cpp.html" xlink:title="libraries/AP_HAL_SITL\l/UARTDriver.cpp">
<polygon fill="white" stroke="black" points="1749,-268.5 1749,-298.5 1867,-298.5 1867,-268.5 1749,-268.5"/>
<text text-anchor="start" x="1757" y="-286.5" font-family="Helvetica,sans-Serif" font-size="10.00">libraries/AP_HAL_SITL</text>
<text text-anchor="middle" x="1808" y="-275.5" font-family="Helvetica,sans-Serif" font-size="10.00">/UARTDriver.cpp</text>
</a>
</g>
</g>
<!-- Node2&#45;&gt;Node24 -->
<g id="edge41" class="edge"><title>Node2&#45;&gt;Node24</title>
<path fill="none" stroke="midnightblue" d="M1048.23,-334.988C1352.32,-295.84 1434.43,-336.518 1735,-299 1739.49,-298.44 1744.11,-297.762 1748.75,-297.009"/>
<polygon fill="midnightblue" stroke="midnightblue" points="1047.71,-331.527 1038.24,-336.292 1048.61,-338.468 1047.71,-331.527"/>
</g>
<!-- Node3&#45;&gt;Node2 -->
<g id="edge30" class="edge"><title>Node3&#45;&gt;Node2</title>
<path fill="none" stroke="midnightblue" d="M1115.47,-302.152C1087.72,-312.595 1051.66,-325.643 1023.52,-335.396"/>
<polygon fill="midnightblue" stroke="midnightblue" points="1116.8,-305.391 1124.91,-298.577 1114.32,-298.845 1116.8,-305.391"/>
</g>
<!-- Node4 -->
<g id="node4" class="node"><title>Node4</title>
<g id="a_node4"><a xlink:href="$AP__HAL__SITL_8h.html" xlink:title="libraries/AP_HAL_SITL\l/AP_HAL_SITL.h">
<polygon fill="white" stroke="black" points="920,-201.5 920,-231.5 1038,-231.5 1038,-201.5 920,-201.5"/>
<text text-anchor="start" x="928" y="-219.5" font-family="Helvetica,sans-Serif" font-size="10.00">libraries/AP_HAL_SITL</text>
<text text-anchor="middle" x="979" y="-208.5" font-family="Helvetica,sans-Serif" font-size="10.00">/AP_HAL_SITL.h</text>
</a>
</g>
</g>
<!-- Node3&#45;&gt;Node4 -->
<g id="edge3" class="edge"><title>Node3&#45;&gt;Node4</title>
<path fill="none" stroke="midnightblue" d="M1104,-265.092C1074.07,-254.599 1037.87,-241.408 1012.09,-231.577"/>
<polygon fill="midnightblue" stroke="midnightblue" points="1102.89,-268.409 1113.48,-268.396 1105.19,-261.799 1102.89,-268.409"/>
</g>
<!-- Node3&#45;&gt;Node7 -->
<g id="edge31" class="edge"><title>Node3&#45;&gt;Node7</title>
<path fill="none" stroke="midnightblue" d="M1227.27,-276.21C1393.59,-259.782 1796.73,-211.416 1727,-134 1655.34,-54.4372 886.774,-25.0322 665.367,-18.1768"/>
<polygon fill="midnightblue" stroke="midnightblue" points="1226.75,-272.744 1217.14,-277.2 1227.43,-279.711 1226.75,-272.744"/>
</g>
<!-- Node3&#45;&gt;Node19 -->
<g id="edge32" class="edge"><title>Node3&#45;&gt;Node19</title>
<path fill="none" stroke="midnightblue" d="M1088.63,-274.318C945.926,-257.122 609.32,-214.691 329,-165 326.147,-164.494 323.232,-163.956 320.291,-163.396"/>
<polygon fill="midnightblue" stroke="midnightblue" points="1088.63,-277.843 1098.98,-275.561 1089.47,-270.893 1088.63,-277.843"/>
</g>
<!-- Node20 -->
<g id="node20" class="node"><title>Node20</title>
<g id="a_node20"><a xlink:href="$SITL__cmdline_8cpp.html" xlink:title="libraries/AP_HAL_SITL\l/SITL_cmdline.cpp">
<polygon fill="white" stroke="black" points="1328,-134.5 1328,-164.5 1446,-164.5 1446,-134.5 1328,-134.5"/>
<text text-anchor="start" x="1336" y="-152.5" font-family="Helvetica,sans-Serif" font-size="10.00">libraries/AP_HAL_SITL</text>
<text text-anchor="middle" x="1387" y="-141.5" font-family="Helvetica,sans-Serif" font-size="10.00">/SITL_cmdline.cpp</text>
</a>
</g>
</g>
<!-- Node3&#45;&gt;Node20 -->
<g id="edge33" class="edge"><title>Node3&#45;&gt;Node20</title>
<path fill="none" stroke="midnightblue" d="M1191.31,-263.299C1237.91,-236.437 1321.47,-188.274 1362.67,-164.525"/>
<polygon fill="midnightblue" stroke="midnightblue" points="1189.42,-260.347 1182.51,-268.374 1192.92,-266.412 1189.42,-260.347"/>
</g>
<!-- Node21 -->
<g id="node21" class="node"><title>Node21</title>
<g id="a_node21"><a xlink:href="$sitl__gps_8cpp.html" xlink:title="libraries/AP_HAL_SITL\l/sitl_gps.cpp">
<polygon fill="white" stroke="black" points="1464,-134.5 1464,-164.5 1582,-164.5 1582,-134.5 1464,-134.5"/>
<text text-anchor="start" x="1472" y="-152.5" font-family="Helvetica,sans-Serif" font-size="10.00">libraries/AP_HAL_SITL</text>
<text text-anchor="middle" x="1523" y="-141.5" font-family="Helvetica,sans-Serif" font-size="10.00">/sitl_gps.cpp</text>
</a>
</g>
</g>
<!-- Node3&#45;&gt;Node21 -->
<g id="edge34" class="edge"><title>Node3&#45;&gt;Node21</title>
<path fill="none" stroke="midnightblue" d="M1206.16,-265.081C1279.3,-238.631 1416.95,-188.852 1484.13,-164.556"/>
<polygon fill="midnightblue" stroke="midnightblue" points="1204.93,-261.806 1196.72,-268.499 1207.31,-268.389 1204.93,-261.806"/>
</g>
<!-- Node3&#45;&gt;Node22 -->
<g id="edge35" class="edge"><title>Node3&#45;&gt;Node22</title>
<path fill="none" stroke="midnightblue" d="M1223.66,-265.86C1261.99,-256.099 1311.27,-243.468 1355,-232 1443.8,-208.717 1546.97,-180.894 1607.41,-164.517"/>
<polygon fill="midnightblue" stroke="midnightblue" points="1222.49,-262.547 1213.66,-268.405 1224.22,-269.331 1222.49,-262.547"/>
</g>
<!-- Node23 -->
<g id="node23" class="node"><title>Node23</title>
<g id="a_node23"><a xlink:href="$SITL__State_8cpp.html" xlink:title="libraries/AP_HAL_SITL\l/SITL_State.cpp">
<polygon fill="white" stroke="black" points="1192,-134.5 1192,-164.5 1310,-164.5 1310,-134.5 1192,-134.5"/>
<text text-anchor="start" x="1200" y="-152.5" font-family="Helvetica,sans-Serif" font-size="10.00">libraries/AP_HAL_SITL</text>
<text text-anchor="middle" x="1251" y="-141.5" font-family="Helvetica,sans-Serif" font-size="10.00">/SITL_State.cpp</text>
</a>
</g>
</g>
<!-- Node3&#45;&gt;Node23 -->
<g id="edge36" class="edge"><title>Node3&#45;&gt;Node23</title>
<path fill="none" stroke="midnightblue" d="M1173.72,-260.189C1192.97,-232.859 1225.01,-187.383 1241.12,-164.525"/>
<polygon fill="midnightblue" stroke="midnightblue" points="1170.85,-258.183 1167.95,-268.374 1176.57,-262.215 1170.85,-258.183"/>
</g>
<!-- Node4&#45;&gt;Node2 -->
<g id="edge6" class="edge"><title>Node4&#45;&gt;Node2</title>
<path fill="none" stroke="midnightblue" d="M979,-241.851C979,-269.313 979,-313.044 979,-335.374"/>
<polygon fill="midnightblue" stroke="midnightblue" points="982.5,-241.525 979,-231.525 975.5,-241.525 982.5,-241.525"/>
</g>
<!-- Node4&#45;&gt;Node3 -->
<g id="edge5" class="edge"><title>Node4&#45;&gt;Node3</title>
<path fill="none" stroke="midnightblue" d="M1032.91,-234.879C1062.83,-245.367 1099.04,-258.558 1124.84,-268.396"/>
<polygon fill="midnightblue" stroke="midnightblue" points="1034.03,-231.563 1023.44,-231.577 1031.73,-238.173 1034.03,-231.563"/>
</g>
<!-- Node5 -->
<g id="node5" class="node"><title>Node5</title>
<g id="a_node5"><a xlink:href="$SITL_2AnalogIn_8cpp.html" xlink:title="libraries/AP_HAL_SITL\l/AnalogIn.cpp">
<polygon fill="white" stroke="black" points="338,-134.5 338,-164.5 456,-164.5 456,-134.5 338,-134.5"/>
<text text-anchor="start" x="346" y="-152.5" font-family="Helvetica,sans-Serif" font-size="10.00">libraries/AP_HAL_SITL</text>
<text text-anchor="middle" x="397" y="-141.5" font-family="Helvetica,sans-Serif" font-size="10.00">/AnalogIn.cpp</text>
</a>
</g>
</g>
<!-- Node4&#45;&gt;Node5 -->
<g id="edge4" class="edge"><title>Node4&#45;&gt;Node5</title>
<path fill="none" stroke="midnightblue" d="M909.901,-210.785C811.761,-203.603 626.522,-188.253 470,-165 465.527,-164.335 460.912,-163.582 456.278,-162.775"/>
<polygon fill="midnightblue" stroke="midnightblue" points="909.761,-214.284 919.988,-211.517 910.268,-207.302 909.761,-214.284"/>
</g>
<!-- Node6 -->
<g id="node6" class="node"><title>Node6</title>
<g id="a_node6"><a xlink:href="$SITL_2RCInput_8h.html" xlink:title="libraries/AP_HAL_SITL\l/RCInput.h">
<polygon fill="white" stroke="black" points="28,-134.5 28,-164.5 146,-164.5 146,-134.5 28,-134.5"/>
<text text-anchor="start" x="36" y="-152.5" font-family="Helvetica,sans-Serif" font-size="10.00">libraries/AP_HAL_SITL</text>
<text text-anchor="middle" x="87" y="-141.5" font-family="Helvetica,sans-Serif" font-size="10.00">/RCInput.h</text>
</a>
</g>
</g>
<!-- Node4&#45;&gt;Node6 -->
<g id="edge7" class="edge"><title>Node4&#45;&gt;Node6</title>
<path fill="none" stroke="midnightblue" d="M909.357,-212.706C772.062,-206.828 456.877,-191.491 193,-165 177.753,-163.469 161.324,-161.419 146.059,-159.344"/>
<polygon fill="midnightblue" stroke="midnightblue" points="909.581,-216.219 919.721,-213.147 909.878,-209.225 909.581,-216.219"/>
</g>
<!-- Node4&#45;&gt;Node7 -->
<g id="edge20" class="edge"><title>Node4&#45;&gt;Node7</title>
<path fill="none" stroke="midnightblue" d="M909.719,-212.996C795.89,-208.078 574.757,-194.916 503,-165 482.882,-156.613 482.968,-146.338 465,-134 438.415,-115.745 418.187,-125.893 402,-98 368.596,-40.4388 475.516,-23.4821 546.98,-18.5193"/>
<polygon fill="midnightblue" stroke="midnightblue" points="909.586,-216.494 919.725,-213.419 909.882,-209.5 909.586,-216.494"/>
</g>
<!-- Node9 -->
<g id="node9" class="node"><title>Node9</title>
<g id="a_node9"><a xlink:href="$SITL_2Semaphores_8h.html" xlink:title="libraries/AP_HAL_SITL\l/Semaphores.h">
<polygon fill="white" stroke="black" points="512,-134.5 512,-164.5 630,-164.5 630,-134.5 512,-134.5"/>
<text text-anchor="start" x="520" y="-152.5" font-family="Helvetica,sans-Serif" font-size="10.00">libraries/AP_HAL_SITL</text>
<text text-anchor="middle" x="571" y="-141.5" font-family="Helvetica,sans-Serif" font-size="10.00">/Semaphores.h</text>
</a>
</g>
</g>
<!-- Node4&#45;&gt;Node9 -->
<g id="edge11" class="edge"><title>Node4&#45;&gt;Node9</title>
<path fill="none" stroke="midnightblue" d="M909.566,-206.484C840.705,-197.237 732.281,-181.856 639,-165 636.149,-164.485 633.235,-163.939 630.295,-163.372"/>
<polygon fill="midnightblue" stroke="midnightblue" points="909.475,-210.002 919.851,-207.859 910.403,-203.064 909.475,-210.002"/>
</g>
<!-- Node13 -->
<g id="node13" class="node"><title>Node13</title>
<g id="a_node13"><a xlink:href="$SITL_2CAN_8h.html" xlink:title="libraries/AP_HAL_SITL\l/CAN.h">
<polygon fill="white" stroke="black" points="920,-134.5 920,-164.5 1038,-164.5 1038,-134.5 920,-134.5"/>
<text text-anchor="start" x="928" y="-152.5" font-family="Helvetica,sans-Serif" font-size="10.00">libraries/AP_HAL_SITL</text>
<text text-anchor="middle" x="979" y="-141.5" font-family="Helvetica,sans-Serif" font-size="10.00">/CAN.h</text>
</a>
</g>
</g>
<!-- Node4&#45;&gt;Node13 -->
<g id="edge16" class="edge"><title>Node4&#45;&gt;Node13</title>
<path fill="none" stroke="midnightblue" d="M979,-191.108C979,-182.154 979,-172.323 979,-164.577"/>
<polygon fill="midnightblue" stroke="midnightblue" points="975.5,-191.396 979,-201.396 982.5,-191.396 975.5,-191.396"/>
</g>
<!-- Node14 -->
<g id="node14" class="node"><title>Node14</title>
<g id="a_node14"><a xlink:href="$SITL_2GPIO_8h.html" xlink:title="libraries/AP_HAL_SITL\l/GPIO.h">
<polygon fill="white" stroke="black" points="648,-134.5 648,-164.5 766,-164.5 766,-134.5 648,-134.5"/>
<text text-anchor="start" x="656" y="-152.5" font-family="Helvetica,sans-Serif" font-size="10.00">libraries/AP_HAL_SITL</text>
<text text-anchor="middle" x="707" y="-141.5" font-family="Helvetica,sans-Serif" font-size="10.00">/GPIO.h</text>
</a>
</g>
</g>
<!-- Node4&#45;&gt;Node14 -->
<g id="edge17" class="edge"><title>Node4&#45;&gt;Node14</title>
<path fill="none" stroke="midnightblue" d="M910.45,-199.119C865.943,-188.483 808.53,-174.763 766.049,-164.611"/>
<polygon fill="midnightblue" stroke="midnightblue" points="909.775,-202.556 920.315,-201.476 911.402,-195.748 909.775,-202.556"/>
</g>
<!-- Node16 -->
<g id="node16" class="node"><title>Node16</title>
<g id="a_node16"><a xlink:href="$SITL_2RCOutput_8h.html" xlink:title="libraries/AP_HAL_SITL\l/RCOutput.h">
<polygon fill="white" stroke="black" points="784,-134.5 784,-164.5 902,-164.5 902,-134.5 784,-134.5"/>
<text text-anchor="start" x="792" y="-152.5" font-family="Helvetica,sans-Serif" font-size="10.00">libraries/AP_HAL_SITL</text>
<text text-anchor="middle" x="843" y="-141.5" font-family="Helvetica,sans-Serif" font-size="10.00">/RCOutput.h</text>
</a>
</g>
</g>
<!-- Node4&#45;&gt;Node16 -->
<g id="edge21" class="edge"><title>Node4&#45;&gt;Node16</title>
<path fill="none" stroke="midnightblue" d="M940.276,-196.992C918.719,-186.689 892.311,-174.068 872.452,-164.577"/>
<polygon fill="midnightblue" stroke="midnightblue" points="938.958,-200.242 949.49,-201.396 941.977,-193.926 938.958,-200.242"/>
</g>
<!-- Node18 -->
<g id="node18" class="node"><title>Node18</title>
<g id="a_node18"><a xlink:href="$AP__HAL__SITL_2Scheduler_8cpp.html" xlink:title="libraries/AP_HAL_SITL\l/Scheduler.cpp">
<polygon fill="white" stroke="black" points="1056,-134.5 1056,-164.5 1174,-164.5 1174,-134.5 1056,-134.5"/>
<text text-anchor="start" x="1064" y="-152.5" font-family="Helvetica,sans-Serif" font-size="10.00">libraries/AP_HAL_SITL</text>
<text text-anchor="middle" x="1115" y="-141.5" font-family="Helvetica,sans-Serif" font-size="10.00">/Scheduler.cpp</text>
</a>
</g>
</g>
<!-- Node4&#45;&gt;Node18 -->
<g id="edge24" class="edge"><title>Node4&#45;&gt;Node18</title>
<path fill="none" stroke="midnightblue" d="M1017.72,-196.992C1039.28,-186.689 1065.69,-174.068 1085.55,-164.577"/>
<polygon fill="midnightblue" stroke="midnightblue" points="1016.02,-193.926 1008.51,-201.396 1019.04,-200.242 1016.02,-193.926"/>
</g>
<!-- Node4&#45;&gt;Node19 -->
<g id="edge25" class="edge"><title>Node4&#45;&gt;Node19</title>
<path fill="none" stroke="midnightblue" d="M909.409,-210.618C753.468,-199.604 385.257,-173.147 329,-165 326.133,-164.585 323.206,-164.12 320.255,-163.619"/>
<polygon fill="midnightblue" stroke="midnightblue" points="909.594,-214.14 919.816,-211.353 910.087,-207.157 909.594,-214.14"/>
</g>
<!-- Node4&#45;&gt;Node20 -->
<g id="edge26" class="edge"><title>Node4&#45;&gt;Node20</title>
<path fill="none" stroke="midnightblue" d="M1048.43,-206.484C1117.29,-197.237 1225.72,-181.856 1319,-165 1321.85,-164.485 1324.76,-163.939 1327.71,-163.372"/>
<polygon fill="midnightblue" stroke="midnightblue" points="1047.6,-203.064 1038.15,-207.859 1048.53,-210.002 1047.6,-203.064"/>
</g>
<!-- Node4&#45;&gt;Node21 -->
<g id="edge27" class="edge"><title>Node4&#45;&gt;Node21</title>
<path fill="none" stroke="midnightblue" d="M1048.38,-210.423C1141.33,-203.101 1311.23,-187.891 1455,-165 1457.86,-164.544 1460.78,-164.047 1463.73,-163.519"/>
<polygon fill="midnightblue" stroke="midnightblue" points="1047.95,-206.946 1038.26,-211.213 1048.5,-213.924 1047.95,-206.946"/>
</g>
<!-- Node4&#45;&gt;Node22 -->
<g id="edge28" class="edge"><title>Node4&#45;&gt;Node22</title>
<path fill="none" stroke="midnightblue" d="M1048.68,-212.651C1162.61,-207.343 1395.64,-193.768 1591,-165 1593.87,-164.578 1596.79,-164.108 1599.74,-163.602"/>
<polygon fill="midnightblue" stroke="midnightblue" points="1048.2,-209.169 1038.37,-213.124 1048.52,-216.162 1048.2,-209.169"/>
</g>
<!-- Node4&#45;&gt;Node23 -->
<g id="edge29" class="edge"><title>Node4&#45;&gt;Node23</title>
<path fill="none" stroke="midnightblue" d="M1047.55,-199.119C1092.06,-188.483 1149.47,-174.763 1191.95,-164.611"/>
<polygon fill="midnightblue" stroke="midnightblue" points="1046.6,-195.748 1037.69,-201.476 1048.22,-202.556 1046.6,-195.748"/>
</g>
<!-- Node6&#45;&gt;Node2 -->
<g id="edge8" class="edge"><title>Node6&#45;&gt;Node2</title>
<path fill="none" stroke="midnightblue" d="M91.156,-174.659C98.4489,-208.857 117.071,-270.397 160,-299 222.796,-340.84 742.648,-348.015 919.989,-349.245"/>
<polygon fill="midnightblue" stroke="midnightblue" points="94.5395,-173.726 89.1697,-164.593 87.6719,-175.082 94.5395,-173.726"/>
</g>
<!-- Node6&#45;&gt;Node7 -->
<g id="edge9" class="edge"><title>Node6&#45;&gt;Node7</title>
<path fill="none" stroke="midnightblue" d="M77.3317,-124.824C71.6744,-106.719 68.0721,-82.3347 82,-67 112.762,-33.1308 416.023,-21.3485 546.648,-17.823"/>
<polygon fill="midnightblue" stroke="midnightblue" points="74.0742,-126.112 80.6851,-134.391 80.6801,-123.796 74.0742,-126.112"/>
</g>
<!-- Node8 -->
<g id="node8" class="node"><title>Node8</title>
<g id="a_node8"><a xlink:href="$SITL_2RCInput_8cpp.html" xlink:title="libraries/AP_HAL_SITL\l/RCInput.cpp">
<polygon fill="white" stroke="black" points="91,-67.5 91,-97.5 209,-97.5 209,-67.5 91,-67.5"/>
<text text-anchor="start" x="99" y="-85.5" font-family="Helvetica,sans-Serif" font-size="10.00">libraries/AP_HAL_SITL</text>
<text text-anchor="middle" x="150" y="-74.5" font-family="Helvetica,sans-Serif" font-size="10.00">/RCInput.cpp</text>
</a>
</g>
</g>
<!-- Node6&#45;&gt;Node8 -->
<g id="edge10" class="edge"><title>Node6&#45;&gt;Node8</title>
<path fill="none" stroke="midnightblue" d="M107.815,-127.024C117.201,-117.34 128.024,-106.174 136.357,-97.5765"/>
<polygon fill="midnightblue" stroke="midnightblue" points="105.117,-124.779 100.67,-134.396 110.143,-129.651 105.117,-124.779"/>
</g>
<!-- Node9&#45;&gt;Node10 -->
<g id="edge12" class="edge"><title>Node9&#45;&gt;Node10</title>
<path fill="none" stroke="midnightblue" d="M502.037,-132.491C455.872,-121.774 395.686,-107.802 351.407,-97.5231"/>
<polygon fill="midnightblue" stroke="midnightblue" points="501.429,-135.943 511.961,-134.795 503.012,-129.124 501.429,-135.943"/>
</g>
<!-- Node11 -->
<g id="node11" class="node"><title>Node11</title>
<g id="a_node11"><a xlink:href="$SITL_2Util_8h.html" xlink:title="libraries/AP_HAL_SITL\l/Util.h">
<polygon fill="white" stroke="black" points="547,-67.5 547,-97.5 665,-97.5 665,-67.5 547,-67.5"/>
<text text-anchor="start" x="555" y="-85.5" font-family="Helvetica,sans-Serif" font-size="10.00">libraries/AP_HAL_SITL</text>
<text text-anchor="middle" x="606" y="-74.5" font-family="Helvetica,sans-Serif" font-size="10.00">/Util.h</text>
</a>
</g>
</g>
<!-- Node9&#45;&gt;Node11 -->
<g id="edge13" class="edge"><title>Node9&#45;&gt;Node11</title>
<path fill="none" stroke="midnightblue" d="M583.344,-125.576C588.37,-116.241 594.02,-105.748 598.42,-97.5765"/>
<polygon fill="midnightblue" stroke="midnightblue" points="580.254,-123.932 578.594,-134.396 586.417,-127.251 580.254,-123.932"/>
</g>
<!-- Node12 -->
<g id="node12" class="node"><title>Node12</title>
<g id="a_node12"><a xlink:href="$AP__HAL__SITL_2Semaphores_8cpp.html" xlink:title="libraries/AP_HAL_SITL\l/Semaphores.cpp">
<polygon fill="white" stroke="black" points="411,-67.5 411,-97.5 529,-97.5 529,-67.5 411,-67.5"/>
<text text-anchor="start" x="419" y="-85.5" font-family="Helvetica,sans-Serif" font-size="10.00">libraries/AP_HAL_SITL</text>
<text text-anchor="middle" x="470" y="-74.5" font-family="Helvetica,sans-Serif" font-size="10.00">/Semaphores.cpp</text>
</a>
</g>
</g>
<!-- Node9&#45;&gt;Node12 -->
<g id="edge15" class="edge"><title>Node9&#45;&gt;Node12</title>
<path fill="none" stroke="midnightblue" d="M540.286,-128.734C524.657,-118.676 506.025,-106.685 491.873,-97.5765"/>
<polygon fill="midnightblue" stroke="midnightblue" points="538.781,-131.927 549.085,-134.396 542.57,-126.041 538.781,-131.927"/>
</g>
<!-- Node11&#45;&gt;Node7 -->
<g id="edge14" class="edge"><title>Node11&#45;&gt;Node7</title>
<path fill="none" stroke="midnightblue" d="M606,-57.1081C606,-48.1539 606,-38.3227 606,-30.5765"/>
<polygon fill="midnightblue" stroke="midnightblue" points="602.5,-57.3959 606,-67.396 609.5,-57.396 602.5,-57.3959"/>
</g>
<!-- Node14&#45;&gt;Node7 -->
<g id="edge19" class="edge"><title>Node14&#45;&gt;Node7</title>
<path fill="none" stroke="midnightblue" d="M771.55,-130.203C786.72,-122.73 801.057,-112.345 810,-98 817.289,-86.3083 818.492,-77.8499 810,-67 792.263,-44.3374 718.924,-30.429 665.242,-23.0913"/>
<polygon fill="midnightblue" stroke="midnightblue" points="769.717,-127.19 762.038,-134.489 772.593,-133.572 769.717,-127.19"/>
</g>
<!-- Node15 -->
<g id="node15" class="node"><title>Node15</title>
<g id="a_node15"><a xlink:href="$AP__HAL__SITL_2GPIO_8cpp.html" xlink:title="libraries/AP_HAL_SITL\l/GPIO.cpp">
<polygon fill="white" stroke="black" points="683,-67.5 683,-97.5 801,-97.5 801,-67.5 683,-67.5"/>
<text text-anchor="start" x="691" y="-85.5" font-family="Helvetica,sans-Serif" font-size="10.00">libraries/AP_HAL_SITL</text>
<text text-anchor="middle" x="742" y="-74.5" font-family="Helvetica,sans-Serif" font-size="10.00">/GPIO.cpp</text>
</a>
</g>
</g>
<!-- Node14&#45;&gt;Node15 -->
<g id="edge18" class="edge"><title>Node14&#45;&gt;Node15</title>
<path fill="none" stroke="midnightblue" d="M719.344,-125.576C724.37,-116.241 730.02,-105.748 734.42,-97.5765"/>
<polygon fill="midnightblue" stroke="midnightblue" points="716.254,-123.932 714.594,-134.396 722.417,-127.251 716.254,-123.932"/>
</g>
<!-- Node16&#45;&gt;Node7 -->
<g id="edge22" class="edge"><title>Node16&#45;&gt;Node7</title>
<path fill="none" stroke="midnightblue" d="M911.734,-131.908C942.957,-122.845 974.945,-110.861 984,-98 991.932,-86.7343 993.074,-77.3674 984,-67 963.341,-43.398 766.143,-27.0667 665.087,-20.1747"/>
<polygon fill="midnightblue" stroke="midnightblue" points="910.771,-128.544 902.095,-134.625 912.67,-135.281 910.771,-128.544"/>
</g>
<!-- Node17 -->
<g id="node17" class="node"><title>Node17</title>
<g id="a_node17"><a xlink:href="$SITL_2RCOutput_8cpp.html" xlink:title="libraries/AP_HAL_SITL\l/RCOutput.cpp">
<polygon fill="white" stroke="black" points="857,-67.5 857,-97.5 975,-97.5 975,-67.5 857,-67.5"/>
<text text-anchor="start" x="865" y="-85.5" font-family="Helvetica,sans-Serif" font-size="10.00">libraries/AP_HAL_SITL</text>
<text text-anchor="middle" x="916" y="-74.5" font-family="Helvetica,sans-Serif" font-size="10.00">/RCOutput.cpp</text>
</a>
</g>
</g>
<!-- Node16&#45;&gt;Node17 -->
<g id="edge23" class="edge"><title>Node16&#45;&gt;Node17</title>
<path fill="none" stroke="midnightblue" d="M866.475,-127.598C877.497,-117.783 890.344,-106.344 900.191,-97.5765"/>
<polygon fill="midnightblue" stroke="midnightblue" points="863.981,-125.132 858.84,-134.396 868.636,-130.36 863.981,-125.132"/>
</g>
</g>
</svg>
