<?xml version="1.0" encoding="UTF-8" standalone="no"?>
<!DOCTYPE svg PUBLIC "-//W3C//DTD SVG 1.1//EN"
 "http://www.w3.org/Graphics/SVG/1.1/DTD/svg11.dtd">
<!-- Generated by graphviz version 2.38.0 (20140413.2041)
 -->
<!-- Title: libraries/AP_HAL_SITL/RCInput.h Pages: 1 -->
<svg width="1790pt" height="441pt"
 viewBox="0.00 0.00 1790.12 441.00" xmlns="http://www.w3.org/2000/svg" xmlns:xlink="http://www.w3.org/1999/xlink">
<g id="graph0" class="graph" transform="scale(1 1) rotate(0) translate(4 437)">
<title>libraries/AP_HAL_SITL/RCInput.h</title>
<polygon fill="white" stroke="none" points="-4,4 -4,-437 1786.12,-437 1786.12,4 -4,4"/>
<!-- Node1 -->
<g id="node1" class="node"><title>Node1</title>
<polygon fill="#bfbfbf" stroke="black" points="367.122,-402.5 367.122,-432.5 485.122,-432.5 485.122,-402.5 367.122,-402.5"/>
<text text-anchor="start" x="375.122" y="-420.5" font-family="Helvetica,sans-Serif" font-size="10.00">libraries/AP_HAL_SITL</text>
<text text-anchor="middle" x="426.122" y="-409.5" font-family="Helvetica,sans-Serif" font-size="10.00">/RCInput.h</text>
</g>
<!-- Node2 -->
<g id="node2" class="node"><title>Node2</title>
<g id="a_node2"><a xlink:href="$SITL__State_8h.html" xlink:title="libraries/AP_HAL_SITL\l/SITL_State.h">
<polygon fill="white" stroke="black" points="299.122,-335.5 299.122,-365.5 417.122,-365.5 417.122,-335.5 299.122,-335.5"/>
<text text-anchor="start" x="307.122" y="-353.5" font-family="Helvetica,sans-Serif" font-size="10.00">libraries/AP_HAL_SITL</text>
<text text-anchor="middle" x="358.122" y="-342.5" font-family="Helvetica,sans-Serif" font-size="10.00">/SITL_State.h</text>
</a>
</g>
</g>
<!-- Node1&#45;&gt;Node2 -->
<g id="edge1" class="edge"><title>Node1&#45;&gt;Node2</title>
<path fill="none" stroke="midnightblue" d="M403.956,-395.311C393.755,-385.561 381.932,-374.259 372.848,-365.577"/>
<polygon fill="midnightblue" stroke="midnightblue" points="401.72,-398.016 411.367,-402.396 406.557,-392.956 401.72,-398.016"/>
</g>
<!-- Node9 -->
<g id="node9" class="node"><title>Node9</title>
<g id="a_node9"><a xlink:href="$HAL__SITL__Class_8cpp.html" xlink:title="libraries/AP_HAL_SITL\l/HAL_SITL_Class.cpp">
<polygon fill="white" stroke="black" points="694.122,-0.5 694.122,-30.5 812.122,-30.5 812.122,-0.5 694.122,-0.5"/>
<text text-anchor="start" x="702.122" y="-18.5" font-family="Helvetica,sans-Serif" font-size="10.00">libraries/AP_HAL_SITL</text>
<text text-anchor="middle" x="753.122" y="-7.5" font-family="Helvetica,sans-Serif" font-size="10.00">/HAL_SITL_Class.cpp</text>
</a>
</g>
</g>
<!-- Node1&#45;&gt;Node9 -->
<g id="edge39" class="edge"><title>Node1&#45;&gt;Node9</title>
<path fill="none" stroke="midnightblue" d="M357.006,-408.686C240.152,-393.532 16.1221,-355.254 16.1221,-284.5 16.1221,-284.5 16.1221,-284.5 16.1221,-148.5 16.1221,-134.956 -67.8695,-137.826 152.122,-67 251.792,-34.9116 562.549,-22.1386 693.736,-18.0859"/>
<polygon fill="midnightblue" stroke="midnightblue" points="356.58,-412.16 366.942,-409.952 357.465,-405.216 356.58,-412.16"/>
</g>
<!-- Node23 -->
<g id="node23" class="node"><title>Node23</title>
<g id="a_node23"><a xlink:href="$SITL_2RCInput_8cpp.html" xlink:title="libraries/AP_HAL_SITL\l/RCInput.cpp">
<polygon fill="white" stroke="black" points="435.122,-335.5 435.122,-365.5 553.122,-365.5 553.122,-335.5 435.122,-335.5"/>
<text text-anchor="start" x="443.122" y="-353.5" font-family="Helvetica,sans-Serif" font-size="10.00">libraries/AP_HAL_SITL</text>
<text text-anchor="middle" x="494.122" y="-342.5" font-family="Helvetica,sans-Serif" font-size="10.00">/RCInput.cpp</text>
</a>
</g>
</g>
<!-- Node1&#45;&gt;Node23 -->
<g id="edge40" class="edge"><title>Node1&#45;&gt;Node23</title>
<path fill="none" stroke="midnightblue" d="M448.289,-395.311C458.489,-385.561 470.313,-374.259 479.396,-365.577"/>
<polygon fill="midnightblue" stroke="midnightblue" points="445.687,-392.956 440.877,-402.396 450.524,-398.016 445.687,-392.956"/>
</g>
<!-- Node3 -->
<g id="node3" class="node"><title>Node3</title>
<g id="a_node3"><a xlink:href="$HAL__SITL__Class_8h.html" xlink:title="libraries/AP_HAL_SITL\l/HAL_SITL_Class.h">
<polygon fill="white" stroke="black" points="357.122,-268.5 357.122,-298.5 475.122,-298.5 475.122,-268.5 357.122,-268.5"/>
<text text-anchor="start" x="365.122" y="-286.5" font-family="Helvetica,sans-Serif" font-size="10.00">libraries/AP_HAL_SITL</text>
<text text-anchor="middle" x="416.122" y="-275.5" font-family="Helvetica,sans-Serif" font-size="10.00">/HAL_SITL_Class.h</text>
</a>
</g>
</g>
<!-- Node2&#45;&gt;Node3 -->
<g id="edge2" class="edge"><title>Node2&#45;&gt;Node3</title>
<path fill="none" stroke="midnightblue" d="M371.37,-327.447C379.286,-317.899 389.259,-307.004 397.887,-298.577"/>
<polygon fill="midnightblue" stroke="midnightblue" points="368.529,-325.396 365.029,-335.396 374.001,-329.761 368.529,-325.396"/>
</g>
<!-- Node7 -->
<g id="node7" class="node"><title>Node7</title>
<g id="a_node7"><a xlink:href="$AP__HAL__SITL__Private_8h.html" xlink:title="libraries/AP_HAL_SITL\l/AP_HAL_SITL_Private.h">
<polygon fill="white" stroke="black" points="1654.12,-67.5 1654.12,-97.5 1782.12,-97.5 1782.12,-67.5 1654.12,-67.5"/>
<text text-anchor="start" x="1662.12" y="-85.5" font-family="Helvetica,sans-Serif" font-size="10.00">libraries/AP_HAL_SITL</text>
<text text-anchor="middle" x="1718.12" y="-74.5" font-family="Helvetica,sans-Serif" font-size="10.00">/AP_HAL_SITL_Private.h</text>
</a>
</g>
</g>
<!-- Node2&#45;&gt;Node7 -->
<g id="edge34" class="edge"><title>Node2&#45;&gt;Node7</title>
<path fill="none" stroke="midnightblue" d="M427.619,-334.815C957.924,-242.941 1137.88,-386.608 1624.12,-165 1658.71,-149.235 1690.17,-116.625 1706.45,-97.7839"/>
<polygon fill="midnightblue" stroke="midnightblue" points="426.658,-331.43 417.413,-336.605 427.867,-338.325 426.658,-331.43"/>
</g>
<!-- Node2&#45;&gt;Node9 -->
<g id="edge35" class="edge"><title>Node2&#45;&gt;Node9</title>
<path fill="none" stroke="midnightblue" d="M288.669,-348.615C198.939,-343.373 54.1221,-319.165 54.1221,-217.5 54.1221,-217.5 54.1221,-217.5 54.1221,-148.5 54.1221,-83.6244 525.048,-36.3185 693.827,-21.4474"/>
<polygon fill="midnightblue" stroke="midnightblue" points="288.618,-352.117 298.786,-349.14 288.981,-345.127 288.618,-352.117"/>
</g>
<!-- Node17 -->
<g id="node17" class="node"><title>Node17</title>
<g id="a_node17"><a xlink:href="$sitl__airspeed_8cpp.html" xlink:title="libraries/AP_HAL_SITL\l/sitl_airspeed.cpp">
<polygon fill="white" stroke="black" points="218.122,-134.5 218.122,-164.5 336.122,-164.5 336.122,-134.5 218.122,-134.5"/>
<text text-anchor="start" x="226.122" y="-152.5" font-family="Helvetica,sans-Serif" font-size="10.00">libraries/AP_HAL_SITL</text>
<text text-anchor="middle" x="277.122" y="-141.5" font-family="Helvetica,sans-Serif" font-size="10.00">/sitl_airspeed.cpp</text>
</a>
</g>
</g>
<!-- Node2&#45;&gt;Node17 -->
<g id="edge36" class="edge"><title>Node2&#45;&gt;Node17</title>
<path fill="none" stroke="midnightblue" d="M348.475,-325.798C331.467,-284.013 296.648,-198.47 282.895,-164.682"/>
<polygon fill="midnightblue" stroke="midnightblue" points="345.285,-327.246 352.297,-335.188 351.768,-324.607 345.285,-327.246"/>
</g>
<!-- Node20 -->
<g id="node20" class="node"><title>Node20</title>
<g id="a_node20"><a xlink:href="$sitl__rangefinder_8cpp.html" xlink:title="libraries/AP_HAL_SITL\l/sitl_rangefinder.cpp">
<polygon fill="white" stroke="black" points="82.1221,-134.5 82.1221,-164.5 200.122,-164.5 200.122,-134.5 82.1221,-134.5"/>
<text text-anchor="start" x="90.1221" y="-152.5" font-family="Helvetica,sans-Serif" font-size="10.00">libraries/AP_HAL_SITL</text>
<text text-anchor="middle" x="141.122" y="-141.5" font-family="Helvetica,sans-Serif" font-size="10.00">/sitl_rangefinder.cpp</text>
</a>
</g>
</g>
<!-- Node2&#45;&gt;Node20 -->
<g id="edge37" class="edge"><title>Node2&#45;&gt;Node20</title>
<path fill="none" stroke="midnightblue" d="M288.844,-342.054C234.142,-334.602 164.128,-321.027 146.122,-299 114.122,-259.855 128.191,-193.603 136.544,-164.697"/>
<polygon fill="midnightblue" stroke="midnightblue" points="288.492,-345.538 298.864,-343.375 289.407,-338.598 288.492,-345.538"/>
</g>
<!-- Node22 -->
<g id="node22" class="node"><title>Node22</title>
<g id="a_node22"><a xlink:href="$SITL_2UARTDriver_8cpp.html" xlink:title="libraries/AP_HAL_SITL\l/UARTDriver.cpp">
<polygon fill="white" stroke="black" points="155.122,-268.5 155.122,-298.5 273.122,-298.5 273.122,-268.5 155.122,-268.5"/>
<text text-anchor="start" x="163.122" y="-286.5" font-family="Helvetica,sans-Serif" font-size="10.00">libraries/AP_HAL_SITL</text>
<text text-anchor="middle" x="214.122" y="-275.5" font-family="Helvetica,sans-Serif" font-size="10.00">/UARTDriver.cpp</text>
</a>
</g>
</g>
<!-- Node2&#45;&gt;Node22 -->
<g id="edge38" class="edge"><title>Node2&#45;&gt;Node22</title>
<path fill="none" stroke="midnightblue" d="M317.733,-331.269C294.797,-320.916 266.522,-308.153 245.307,-298.577"/>
<polygon fill="midnightblue" stroke="midnightblue" points="316.322,-334.472 326.876,-335.396 319.202,-328.092 316.322,-334.472"/>
</g>
<!-- Node3&#45;&gt;Node2 -->
<g id="edge27" class="edge"><title>Node3&#45;&gt;Node2</title>
<path fill="none" stroke="midnightblue" d="M402.9,-306.522C394.989,-316.067 385.016,-326.963 376.386,-335.396"/>
<polygon fill="midnightblue" stroke="midnightblue" points="405.738,-308.577 409.236,-298.577 400.265,-304.212 405.738,-308.577"/>
</g>
<!-- Node4 -->
<g id="node4" class="node"><title>Node4</title>
<g id="a_node4"><a xlink:href="$AP__HAL__SITL_8h.html" xlink:title="libraries/AP_HAL_SITL\l/AP_HAL_SITL.h">
<polygon fill="white" stroke="black" points="776.122,-201.5 776.122,-231.5 894.122,-231.5 894.122,-201.5 776.122,-201.5"/>
<text text-anchor="start" x="784.122" y="-219.5" font-family="Helvetica,sans-Serif" font-size="10.00">libraries/AP_HAL_SITL</text>
<text text-anchor="middle" x="835.122" y="-208.5" font-family="Helvetica,sans-Serif" font-size="10.00">/AP_HAL_SITL.h</text>
</a>
</g>
</g>
<!-- Node3&#45;&gt;Node4 -->
<g id="edge3" class="edge"><title>Node3&#45;&gt;Node4</title>
<path fill="none" stroke="midnightblue" d="M485.311,-270.944C566.457,-258.029 699.448,-237.428 775.992,-225.941"/>
<polygon fill="midnightblue" stroke="midnightblue" points="484.517,-267.526 475.193,-272.557 485.619,-274.439 484.517,-267.526"/>
</g>
<!-- Node3&#45;&gt;Node9 -->
<g id="edge28" class="edge"><title>Node3&#45;&gt;Node9</title>
<path fill="none" stroke="midnightblue" d="M400.658,-259.432C381.778,-228.094 355.564,-171.667 383.122,-134 420.183,-83.3462 599.163,-44.2034 693.942,-26.6338"/>
<polygon fill="midnightblue" stroke="midnightblue" points="397.94,-261.686 406.214,-268.303 403.873,-257.97 397.94,-261.686"/>
</g>
<!-- Node3&#45;&gt;Node17 -->
<g id="edge29" class="edge"><title>Node3&#45;&gt;Node17</title>
<path fill="none" stroke="midnightblue" d="M394.999,-260.838C378.63,-244.215 355.253,-220.831 334.122,-201 320.818,-188.515 305.294,-174.815 293.809,-164.839"/>
<polygon fill="midnightblue" stroke="midnightblue" points="392.929,-263.725 402.432,-268.41 397.924,-258.822 392.929,-263.725"/>
</g>
<!-- Node18 -->
<g id="node18" class="node"><title>Node18</title>
<g id="a_node18"><a xlink:href="$SITL__cmdline_8cpp.html" xlink:title="libraries/AP_HAL_SITL\l/SITL_cmdline.cpp">
<polygon fill="white" stroke="black" points="392.122,-134.5 392.122,-164.5 510.122,-164.5 510.122,-134.5 392.122,-134.5"/>
<text text-anchor="start" x="400.122" y="-152.5" font-family="Helvetica,sans-Serif" font-size="10.00">libraries/AP_HAL_SITL</text>
<text text-anchor="middle" x="451.122" y="-141.5" font-family="Helvetica,sans-Serif" font-size="10.00">/SITL_cmdline.cpp</text>
</a>
</g>
</g>
<!-- Node3&#45;&gt;Node18 -->
<g id="edge30" class="edge"><title>Node3&#45;&gt;Node18</title>
<path fill="none" stroke="midnightblue" d="M422.515,-258.39C429.804,-230.901 441.474,-186.888 447.403,-164.525"/>
<polygon fill="midnightblue" stroke="midnightblue" points="419.048,-257.811 419.868,-268.374 425.814,-259.605 419.048,-257.811"/>
</g>
<!-- Node19 -->
<g id="node19" class="node"><title>Node19</title>
<g id="a_node19"><a xlink:href="$sitl__gps_8cpp.html" xlink:title="libraries/AP_HAL_SITL\l/sitl_gps.cpp">
<polygon fill="white" stroke="black" points="528.122,-134.5 528.122,-164.5 646.122,-164.5 646.122,-134.5 528.122,-134.5"/>
<text text-anchor="start" x="536.122" y="-152.5" font-family="Helvetica,sans-Serif" font-size="10.00">libraries/AP_HAL_SITL</text>
<text text-anchor="middle" x="587.122" y="-141.5" font-family="Helvetica,sans-Serif" font-size="10.00">/sitl_gps.cpp</text>
</a>
</g>
</g>
<!-- Node3&#45;&gt;Node19 -->
<g id="edge31" class="edge"><title>Node3&#45;&gt;Node19</title>
<path fill="none" stroke="midnightblue" d="M442.759,-261.938C477.865,-234.838 538.701,-187.878 568.954,-164.525"/>
<polygon fill="midnightblue" stroke="midnightblue" points="440.199,-259.493 434.422,-268.374 444.477,-265.034 440.199,-259.493"/>
</g>
<!-- Node3&#45;&gt;Node20 -->
<g id="edge32" class="edge"><title>Node3&#45;&gt;Node20</title>
<path fill="none" stroke="midnightblue" d="M377.788,-264.099C322.197,-237.416 220.403,-188.555 170.406,-164.556"/>
<polygon fill="midnightblue" stroke="midnightblue" points="376.423,-267.327 386.953,-268.499 379.452,-261.016 376.423,-267.327"/>
</g>
<!-- Node21 -->
<g id="node21" class="node"><title>Node21</title>
<g id="a_node21"><a xlink:href="$SITL__State_8cpp.html" xlink:title="libraries/AP_HAL_SITL\l/SITL_State.cpp">
<polygon fill="white" stroke="black" points="664.122,-134.5 664.122,-164.5 782.122,-164.5 782.122,-134.5 664.122,-134.5"/>
<text text-anchor="start" x="672.122" y="-152.5" font-family="Helvetica,sans-Serif" font-size="10.00">libraries/AP_HAL_SITL</text>
<text text-anchor="middle" x="723.122" y="-141.5" font-family="Helvetica,sans-Serif" font-size="10.00">/SITL_State.cpp</text>
</a>
</g>
</g>
<!-- Node3&#45;&gt;Node21 -->
<g id="edge33" class="edge"><title>Node3&#45;&gt;Node21</title>
<path fill="none" stroke="midnightblue" d="M458.151,-264.429C520.037,-237.82 634.386,-188.654 690.43,-164.556"/>
<polygon fill="midnightblue" stroke="midnightblue" points="456.49,-261.333 448.686,-268.499 459.255,-267.764 456.49,-261.333"/>
</g>
<!-- Node4&#45;&gt;Node1 -->
<g id="edge7" class="edge"><title>Node4&#45;&gt;Node1</title>
<path fill="none" stroke="midnightblue" d="M803.196,-236.816C752.997,-266.737 652.049,-325.098 562.122,-366 531.516,-379.921 495.846,-393.056 468.717,-402.439"/>
<polygon fill="midnightblue" stroke="midnightblue" points="805.179,-239.708 811.964,-231.571 801.586,-233.701 805.179,-239.708"/>
</g>
<!-- Node4&#45;&gt;Node2 -->
<g id="edge6" class="edge"><title>Node4&#45;&gt;Node2</title>
<path fill="none" stroke="midnightblue" d="M774.576,-234.255C679.563,-260.548 497.179,-311.019 408.718,-335.499"/>
<polygon fill="midnightblue" stroke="midnightblue" points="775.623,-237.597 784.327,-231.556 773.756,-230.85 775.623,-237.597"/>
</g>
<!-- Node4&#45;&gt;Node3 -->
<g id="edge5" class="edge"><title>Node4&#45;&gt;Node3</title>
<path fill="none" stroke="midnightblue" d="M765.825,-229.074C684.646,-241.993 551.686,-262.589 475.186,-274.069"/>
<polygon fill="midnightblue" stroke="midnightblue" points="766.624,-232.491 775.948,-227.459 765.522,-225.578 766.624,-232.491"/>
</g>
<!-- Node5 -->
<g id="node5" class="node"><title>Node5</title>
<g id="a_node5"><a xlink:href="$SITL_2AnalogIn_8cpp.html" xlink:title="libraries/AP_HAL_SITL\l/AnalogIn.cpp">
<polygon fill="white" stroke="black" points="1480.12,-134.5 1480.12,-164.5 1598.12,-164.5 1598.12,-134.5 1480.12,-134.5"/>
<text text-anchor="start" x="1488.12" y="-152.5" font-family="Helvetica,sans-Serif" font-size="10.00">libraries/AP_HAL_SITL</text>
<text text-anchor="middle" x="1539.12" y="-141.5" font-family="Helvetica,sans-Serif" font-size="10.00">/AnalogIn.cpp</text>
</a>
</g>
</g>
<!-- Node4&#45;&gt;Node5 -->
<g id="edge4" class="edge"><title>Node4&#45;&gt;Node5</title>
<path fill="none" stroke="midnightblue" d="M904.418,-212.968C1021.64,-208.022 1266.31,-194.837 1471.12,-165 1473.99,-164.582 1476.92,-164.116 1479.87,-163.613"/>
<polygon fill="midnightblue" stroke="midnightblue" points="904.004,-209.482 894.158,-213.394 904.294,-216.476 904.004,-209.482"/>
</g>
<!-- Node6 -->
<g id="node6" class="node"><title>Node6</title>
<g id="a_node6"><a xlink:href="$SITL_2Semaphores_8h.html" xlink:title="libraries/AP_HAL_SITL\l/Semaphores.h">
<polygon fill="white" stroke="black" points="1208.12,-134.5 1208.12,-164.5 1326.12,-164.5 1326.12,-134.5 1208.12,-134.5"/>
<text text-anchor="start" x="1216.12" y="-152.5" font-family="Helvetica,sans-Serif" font-size="10.00">libraries/AP_HAL_SITL</text>
<text text-anchor="middle" x="1267.12" y="-141.5" font-family="Helvetica,sans-Serif" font-size="10.00">/Semaphores.h</text>
</a>
</g>
</g>
<!-- Node4&#45;&gt;Node6 -->
<g id="edge8" class="edge"><title>Node4&#45;&gt;Node6</title>
<path fill="none" stroke="midnightblue" d="M904.321,-207.41C977.719,-198.476 1096.95,-182.957 1199.12,-165 1201.98,-164.499 1204.89,-163.964 1207.83,-163.406"/>
<polygon fill="midnightblue" stroke="midnightblue" points="903.781,-203.949 894.274,-208.626 904.623,-210.899 903.781,-203.949"/>
</g>
<!-- Node4&#45;&gt;Node9 -->
<g id="edge17" class="edge"><title>Node4&#45;&gt;Node9</title>
<path fill="none" stroke="midnightblue" d="M904.611,-216.238C1085.39,-217.433 1559.66,-215.664 1607.12,-165 1616.54,-154.945 1615.53,-144.918 1607.12,-134 1536.18,-41.8202 1468.74,-86.8347 1354.12,-67 1157.57,-32.9871 920.744,-21.6308 812.42,-18.0462"/>
<polygon fill="midnightblue" stroke="midnightblue" points="904.445,-212.737 894.42,-216.165 904.395,-219.737 904.445,-212.737"/>
</g>
<!-- Node11 -->
<g id="node11" class="node"><title>Node11</title>
<g id="a_node11"><a xlink:href="$SITL_2CAN_8h.html" xlink:title="libraries/AP_HAL_SITL\l/CAN.h">
<polygon fill="white" stroke="black" points="1072.12,-134.5 1072.12,-164.5 1190.12,-164.5 1190.12,-134.5 1072.12,-134.5"/>
<text text-anchor="start" x="1080.12" y="-152.5" font-family="Helvetica,sans-Serif" font-size="10.00">libraries/AP_HAL_SITL</text>
<text text-anchor="middle" x="1131.12" y="-141.5" font-family="Helvetica,sans-Serif" font-size="10.00">/CAN.h</text>
</a>
</g>
</g>
<!-- Node4&#45;&gt;Node11 -->
<g id="edge13" class="edge"><title>Node4&#45;&gt;Node11</title>
<path fill="none" stroke="midnightblue" d="M904.247,-200.32C955.16,-189.14 1023.67,-174.097 1072.04,-163.475"/>
<polygon fill="midnightblue" stroke="midnightblue" points="903.327,-196.939 894.311,-202.503 904.829,-203.776 903.327,-196.939"/>
</g>
<!-- Node12 -->
<g id="node12" class="node"><title>Node12</title>
<g id="a_node12"><a xlink:href="$SITL_2GPIO_8h.html" xlink:title="libraries/AP_HAL_SITL\l/GPIO.h">
<polygon fill="white" stroke="black" points="800.122,-134.5 800.122,-164.5 918.122,-164.5 918.122,-134.5 800.122,-134.5"/>
<text text-anchor="start" x="808.122" y="-152.5" font-family="Helvetica,sans-Serif" font-size="10.00">libraries/AP_HAL_SITL</text>
<text text-anchor="middle" x="859.122" y="-141.5" font-family="Helvetica,sans-Serif" font-size="10.00">/GPIO.h</text>
</a>
</g>
</g>
<!-- Node4&#45;&gt;Node12 -->
<g id="edge14" class="edge"><title>Node4&#45;&gt;Node12</title>
<path fill="none" stroke="midnightblue" d="M843.802,-191.991C847.194,-182.804 850.97,-172.578 853.925,-164.577"/>
<polygon fill="midnightblue" stroke="midnightblue" points="840.51,-190.803 840.33,-201.396 847.077,-193.227 840.51,-190.803"/>
</g>
<!-- Node14 -->
<g id="node14" class="node"><title>Node14</title>
<g id="a_node14"><a xlink:href="$SITL_2RCOutput_8h.html" xlink:title="libraries/AP_HAL_SITL\l/RCOutput.h">
<polygon fill="white" stroke="black" points="936.122,-134.5 936.122,-164.5 1054.12,-164.5 1054.12,-134.5 936.122,-134.5"/>
<text text-anchor="start" x="944.122" y="-152.5" font-family="Helvetica,sans-Serif" font-size="10.00">libraries/AP_HAL_SITL</text>
<text text-anchor="middle" x="995.122" y="-141.5" font-family="Helvetica,sans-Serif" font-size="10.00">/RCOutput.h</text>
</a>
</g>
</g>
<!-- Node4&#45;&gt;Node14 -->
<g id="edge18" class="edge"><title>Node4&#45;&gt;Node14</title>
<path fill="none" stroke="midnightblue" d="M879.321,-197.544C904.924,-187.143 936.69,-174.238 960.472,-164.577"/>
<polygon fill="midnightblue" stroke="midnightblue" points="877.787,-194.39 869.84,-201.396 880.422,-200.875 877.787,-194.39"/>
</g>
<!-- Node16 -->
<g id="node16" class="node"><title>Node16</title>
<g id="a_node16"><a xlink:href="$AP__HAL__SITL_2Scheduler_8cpp.html" xlink:title="libraries/AP_HAL_SITL\l/Scheduler.cpp">
<polygon fill="white" stroke="black" points="1344.12,-134.5 1344.12,-164.5 1462.12,-164.5 1462.12,-134.5 1344.12,-134.5"/>
<text text-anchor="start" x="1352.12" y="-152.5" font-family="Helvetica,sans-Serif" font-size="10.00">libraries/AP_HAL_SITL</text>
<text text-anchor="middle" x="1403.12" y="-141.5" font-family="Helvetica,sans-Serif" font-size="10.00">/Scheduler.cpp</text>
</a>
</g>
</g>
<!-- Node4&#45;&gt;Node16 -->
<g id="edge21" class="edge"><title>Node4&#45;&gt;Node16</title>
<path fill="none" stroke="midnightblue" d="M904.517,-210.902C1001.35,-203.94 1182.3,-188.937 1335.12,-165 1337.98,-164.552 1340.91,-164.06 1343.85,-163.537"/>
<polygon fill="midnightblue" stroke="midnightblue" points="903.999,-207.43 894.273,-211.631 904.496,-214.413 903.999,-207.43"/>
</g>
<!-- Node4&#45;&gt;Node17 -->
<g id="edge22" class="edge"><title>Node4&#45;&gt;Node17</title>
<path fill="none" stroke="midnightblue" d="M765.623,-208.273C676.826,-198.917 518.418,-181.809 383.122,-165 367.915,-163.111 351.501,-160.933 336.237,-158.85"/>
<polygon fill="midnightblue" stroke="midnightblue" points="765.526,-211.782 775.837,-209.348 766.258,-204.821 765.526,-211.782"/>
</g>
<!-- Node4&#45;&gt;Node18 -->
<g id="edge23" class="edge"><title>Node4&#45;&gt;Node18</title>
<path fill="none" stroke="midnightblue" d="M765.854,-205.482C701.713,-195.956 603.756,-180.775 519.122,-165 516.274,-164.469 513.362,-163.91 510.424,-163.334"/>
<polygon fill="midnightblue" stroke="midnightblue" points="765.446,-208.959 775.851,-206.961 766.471,-202.035 765.446,-208.959"/>
</g>
<!-- Node4&#45;&gt;Node19 -->
<g id="edge24" class="edge"><title>Node4&#45;&gt;Node19</title>
<path fill="none" stroke="midnightblue" d="M771.852,-198.917C731.381,-188.31 679.45,-174.699 640.961,-164.611"/>
<polygon fill="midnightblue" stroke="midnightblue" points="771.054,-202.326 781.615,-201.476 772.829,-195.555 771.054,-202.326"/>
</g>
<!-- Node4&#45;&gt;Node20 -->
<g id="edge25" class="edge"><title>Node4&#45;&gt;Node20</title>
<path fill="none" stroke="midnightblue" d="M765.562,-212.834C649.663,-207.735 409.931,-194.383 209.122,-165 206.256,-164.581 203.329,-164.112 200.379,-163.608"/>
<polygon fill="midnightblue" stroke="midnightblue" points="765.571,-216.338 775.713,-213.274 765.873,-209.345 765.571,-216.338"/>
</g>
<!-- Node4&#45;&gt;Node21 -->
<g id="edge26" class="edge"><title>Node4&#45;&gt;Node21</title>
<path fill="none" stroke="midnightblue" d="M802.031,-196.296C784.506,-186.125 763.364,-173.855 747.377,-164.577"/>
<polygon fill="midnightblue" stroke="midnightblue" points="800.414,-199.404 810.82,-201.396 803.928,-193.349 800.414,-199.404"/>
</g>
<!-- Node6&#45;&gt;Node7 -->
<g id="edge9" class="edge"><title>Node6&#45;&gt;Node7</title>
<path fill="none" stroke="midnightblue" d="M1336.29,-133.876C1453.78,-113.926 1579.66,-98.7259 1653.85,-90.4039"/>
<polygon fill="midnightblue" stroke="midnightblue" points="1335.67,-130.432 1326.41,-135.57 1336.85,-137.331 1335.67,-130.432"/>
</g>
<!-- Node8 -->
<g id="node8" class="node"><title>Node8</title>
<g id="a_node8"><a xlink:href="$SITL_2Util_8h.html" xlink:title="libraries/AP_HAL_SITL\l/Util.h">
<polygon fill="white" stroke="black" points="1227.12,-67.5 1227.12,-97.5 1345.12,-97.5 1345.12,-67.5 1227.12,-67.5"/>
<text text-anchor="start" x="1235.12" y="-85.5" font-family="Helvetica,sans-Serif" font-size="10.00">libraries/AP_HAL_SITL</text>
<text text-anchor="middle" x="1286.12" y="-74.5" font-family="Helvetica,sans-Serif" font-size="10.00">/Util.h</text>
</a>
</g>
</g>
<!-- Node6&#45;&gt;Node8 -->
<g id="edge10" class="edge"><title>Node6&#45;&gt;Node8</title>
<path fill="none" stroke="midnightblue" d="M1274.08,-124.697C1276.74,-115.587 1279.69,-105.493 1282.01,-97.5765"/>
<polygon fill="midnightblue" stroke="midnightblue" points="1270.69,-123.816 1271.24,-134.396 1277.41,-125.78 1270.69,-123.816"/>
</g>
<!-- Node10 -->
<g id="node10" class="node"><title>Node10</title>
<g id="a_node10"><a xlink:href="$AP__HAL__SITL_2Semaphores_8cpp.html" xlink:title="libraries/AP_HAL_SITL\l/Semaphores.cpp">
<polygon fill="white" stroke="black" points="1091.12,-67.5 1091.12,-97.5 1209.12,-97.5 1209.12,-67.5 1091.12,-67.5"/>
<text text-anchor="start" x="1099.12" y="-85.5" font-family="Helvetica,sans-Serif" font-size="10.00">libraries/AP_HAL_SITL</text>
<text text-anchor="middle" x="1150.12" y="-74.5" font-family="Helvetica,sans-Serif" font-size="10.00">/Semaphores.cpp</text>
</a>
</g>
</g>
<!-- Node6&#45;&gt;Node10 -->
<g id="edge12" class="edge"><title>Node6&#45;&gt;Node10</title>
<path fill="none" stroke="midnightblue" d="M1232.81,-129.435C1214.45,-119.237 1192.24,-106.897 1175.46,-97.5765"/>
<polygon fill="midnightblue" stroke="midnightblue" points="1231.29,-132.599 1241.73,-134.396 1234.69,-126.48 1231.29,-132.599"/>
</g>
<!-- Node8&#45;&gt;Node9 -->
<g id="edge11" class="edge"><title>Node8&#45;&gt;Node9</title>
<path fill="none" stroke="midnightblue" d="M1216.92,-66.9071C1065.84,-43.0755 899.211,-27.9979 812.47,-20.9961"/>
<polygon fill="midnightblue" stroke="midnightblue" points="1216.42,-70.3717 1226.85,-68.4895 1217.53,-63.459 1216.42,-70.3717"/>
</g>
<!-- Node12&#45;&gt;Node9 -->
<g id="edge16" class="edge"><title>Node12&#45;&gt;Node9</title>
<path fill="none" stroke="midnightblue" d="M811.363,-129.789C796.84,-121.963 782.1,-111.487 772.122,-98 757.26,-77.9107 753.792,-48.026 753.116,-30.5771"/>
<polygon fill="midnightblue" stroke="midnightblue" points="809.83,-132.935 820.333,-134.322 812.987,-126.688 809.83,-132.935"/>
</g>
<!-- Node13 -->
<g id="node13" class="node"><title>Node13</title>
<g id="a_node13"><a xlink:href="$AP__HAL__SITL_2GPIO_8cpp.html" xlink:title="libraries/AP_HAL_SITL\l/GPIO.cpp">
<polygon fill="white" stroke="black" points="781.122,-67.5 781.122,-97.5 899.122,-97.5 899.122,-67.5 781.122,-67.5"/>
<text text-anchor="start" x="789.122" y="-85.5" font-family="Helvetica,sans-Serif" font-size="10.00">libraries/AP_HAL_SITL</text>
<text text-anchor="middle" x="840.122" y="-74.5" font-family="Helvetica,sans-Serif" font-size="10.00">/GPIO.cpp</text>
</a>
</g>
</g>
<!-- Node12&#45;&gt;Node13 -->
<g id="edge15" class="edge"><title>Node12&#45;&gt;Node13</title>
<path fill="none" stroke="midnightblue" d="M852.164,-124.697C849.501,-115.587 846.551,-105.493 844.237,-97.5765"/>
<polygon fill="midnightblue" stroke="midnightblue" points="848.834,-125.78 854.999,-134.396 855.553,-123.816 848.834,-125.78"/>
</g>
<!-- Node14&#45;&gt;Node9 -->
<g id="edge19" class="edge"><title>Node14&#45;&gt;Node9</title>
<path fill="none" stroke="midnightblue" d="M974.42,-127.092C953.595,-105.937 922.562,-75.5356 908.122,-67 878.642,-49.5738 842.402,-37.3389 812.379,-29.281"/>
<polygon fill="midnightblue" stroke="midnightblue" points="972.085,-129.71 981.58,-134.41 977.088,-124.814 972.085,-129.71"/>
</g>
<!-- Node15 -->
<g id="node15" class="node"><title>Node15</title>
<g id="a_node15"><a xlink:href="$SITL_2RCOutput_8cpp.html" xlink:title="libraries/AP_HAL_SITL\l/RCOutput.cpp">
<polygon fill="white" stroke="black" points="955.122,-67.5 955.122,-97.5 1073.12,-97.5 1073.12,-67.5 955.122,-67.5"/>
<text text-anchor="start" x="963.122" y="-85.5" font-family="Helvetica,sans-Serif" font-size="10.00">libraries/AP_HAL_SITL</text>
<text text-anchor="middle" x="1014.12" y="-74.5" font-family="Helvetica,sans-Serif" font-size="10.00">/RCOutput.cpp</text>
</a>
</g>
</g>
<!-- Node14&#45;&gt;Node15 -->
<g id="edge20" class="edge"><title>Node14&#45;&gt;Node15</title>
<path fill="none" stroke="midnightblue" d="M1002.08,-124.697C1004.74,-115.587 1007.69,-105.493 1010.01,-97.5765"/>
<polygon fill="midnightblue" stroke="midnightblue" points="998.691,-123.816 999.245,-134.396 1005.41,-125.78 998.691,-123.816"/>
</g>
</g>
</svg>
