<?xml version="1.0" encoding="UTF-8" standalone="no"?>
<!DOCTYPE svg PUBLIC "-//W3C//DTD SVG 1.1//EN"
 "http://www.w3.org/Graphics/SVG/1.1/DTD/svg11.dtd">
<!-- Generated by graphviz version 2.38.0 (20140413.2041)
 -->
<!-- Title: libraries/AP_HAL_SITL/Scheduler.h Pages: 1 -->
<svg width="816pt" height="106pt"
 viewBox="0.00 0.00 816.00 106.00" xmlns="http://www.w3.org/2000/svg" xmlns:xlink="http://www.w3.org/1999/xlink">
<g id="graph0" class="graph" transform="scale(1 1) rotate(0) translate(4 102)">
<title>libraries/AP_HAL_SITL/Scheduler.h</title>
<polygon fill="white" stroke="none" points="-4,4 -4,-102 812,-102 812,4 -4,4"/>
<!-- Node1 -->
<g id="node1" class="node"><title>Node1</title>
<polygon fill="#bfbfbf" stroke="black" points="350,-67.5 350,-97.5 468,-97.5 468,-67.5 350,-67.5"/>
<text text-anchor="start" x="358" y="-85.5" font-family="Helvetica,sans-Serif" font-size="10.00">libraries/AP_HAL_SITL</text>
<text text-anchor="middle" x="409" y="-74.5" font-family="Helvetica,sans-Serif" font-size="10.00">/Scheduler.h</text>
</g>
<!-- Node2 -->
<g id="node2" class="node"><title>Node2</title>
<g id="a_node2"><a xlink:href="$AP__HAL__SITL__Private_8h.html" xlink:title="libraries/AP_HAL_SITL\l/AP_HAL_SITL_Private.h">
<polygon fill="white" stroke="black" points="0,-0.5 0,-30.5 128,-30.5 128,-0.5 0,-0.5"/>
<text text-anchor="start" x="8" y="-18.5" font-family="Helvetica,sans-Serif" font-size="10.00">libraries/AP_HAL_SITL</text>
<text text-anchor="middle" x="64" y="-7.5" font-family="Helvetica,sans-Serif" font-size="10.00">/AP_HAL_SITL_Private.h</text>
</a>
</g>
</g>
<!-- Node1&#45;&gt;Node2 -->
<g id="edge1" class="edge"><title>Node1&#45;&gt;Node2</title>
<path fill="none" stroke="midnightblue" d="M339.814,-68.9015C284.814,-58.8266 205.935,-44.2451 137,-31 134.082,-30.4392 131.098,-29.8622 128.085,-29.2763"/>
<polygon fill="midnightblue" stroke="midnightblue" points="339.332,-72.3712 349.798,-70.7289 340.592,-65.4856 339.332,-72.3712"/>
</g>
<!-- Node3 -->
<g id="node3" class="node"><title>Node3</title>
<g id="a_node3"><a xlink:href="$HAL__SITL__Class_8cpp.html" xlink:title="libraries/AP_HAL_SITL\l/HAL_SITL_Class.cpp">
<polygon fill="white" stroke="black" points="146,-0.5 146,-30.5 264,-30.5 264,-0.5 146,-0.5"/>
<text text-anchor="start" x="154" y="-18.5" font-family="Helvetica,sans-Serif" font-size="10.00">libraries/AP_HAL_SITL</text>
<text text-anchor="middle" x="205" y="-7.5" font-family="Helvetica,sans-Serif" font-size="10.00">/HAL_SITL_Class.cpp</text>
</a>
</g>
</g>
<!-- Node1&#45;&gt;Node3 -->
<g id="edge2" class="edge"><title>Node1&#45;&gt;Node3</title>
<path fill="none" stroke="midnightblue" d="M355.045,-64.3084C322.043,-53.7932 280.345,-40.5068 249.287,-30.6109"/>
<polygon fill="midnightblue" stroke="midnightblue" points="354.396,-67.7748 364.986,-67.476 356.521,-61.1052 354.396,-67.7748"/>
</g>
<!-- Node4 -->
<g id="node4" class="node"><title>Node4</title>
<g id="a_node4"><a xlink:href="$AP__HAL__SITL_2Scheduler_8cpp.html" xlink:title="libraries/AP_HAL_SITL\l/Scheduler.cpp">
<polygon fill="white" stroke="black" points="282,-0.5 282,-30.5 400,-30.5 400,-0.5 282,-0.5"/>
<text text-anchor="start" x="290" y="-18.5" font-family="Helvetica,sans-Serif" font-size="10.00">libraries/AP_HAL_SITL</text>
<text text-anchor="middle" x="341" y="-7.5" font-family="Helvetica,sans-Serif" font-size="10.00">/Scheduler.cpp</text>
</a>
</g>
</g>
<!-- Node1&#45;&gt;Node4 -->
<g id="edge3" class="edge"><title>Node1&#45;&gt;Node4</title>
<path fill="none" stroke="midnightblue" d="M386.834,-60.3115C376.633,-50.5612 364.809,-39.259 355.726,-30.5765"/>
<polygon fill="midnightblue" stroke="midnightblue" points="384.598,-63.0162 394.245,-67.396 389.435,-57.9561 384.598,-63.0162"/>
</g>
<!-- Node5 -->
<g id="node5" class="node"><title>Node5</title>
<g id="a_node5"><a xlink:href="$sitl__gps_8cpp.html" xlink:title="libraries/AP_HAL_SITL\l/sitl_gps.cpp">
<polygon fill="white" stroke="black" points="418,-0.5 418,-30.5 536,-30.5 536,-0.5 418,-0.5"/>
<text text-anchor="start" x="426" y="-18.5" font-family="Helvetica,sans-Serif" font-size="10.00">libraries/AP_HAL_SITL</text>
<text text-anchor="middle" x="477" y="-7.5" font-family="Helvetica,sans-Serif" font-size="10.00">/sitl_gps.cpp</text>
</a>
</g>
</g>
<!-- Node1&#45;&gt;Node5 -->
<g id="edge4" class="edge"><title>Node1&#45;&gt;Node5</title>
<path fill="none" stroke="midnightblue" d="M431.166,-60.3115C441.367,-50.5612 453.191,-39.259 462.274,-30.5765"/>
<polygon fill="midnightblue" stroke="midnightblue" points="428.565,-57.9561 423.755,-67.396 433.402,-63.0162 428.565,-57.9561"/>
</g>
<!-- Node6 -->
<g id="node6" class="node"><title>Node6</title>
<g id="a_node6"><a xlink:href="$SITL__State_8cpp.html" xlink:title="libraries/AP_HAL_SITL\l/SITL_State.cpp">
<polygon fill="white" stroke="black" points="554,-0.5 554,-30.5 672,-30.5 672,-0.5 554,-0.5"/>
<text text-anchor="start" x="562" y="-18.5" font-family="Helvetica,sans-Serif" font-size="10.00">libraries/AP_HAL_SITL</text>
<text text-anchor="middle" x="613" y="-7.5" font-family="Helvetica,sans-Serif" font-size="10.00">/SITL_State.cpp</text>
</a>
</g>
</g>
<!-- Node1&#45;&gt;Node6 -->
<g id="edge5" class="edge"><title>Node1&#45;&gt;Node6</title>
<path fill="none" stroke="midnightblue" d="M462.955,-64.3084C495.957,-53.7932 537.655,-40.5068 568.713,-30.6109"/>
<polygon fill="midnightblue" stroke="midnightblue" points="461.479,-61.1052 453.014,-67.476 463.604,-67.7748 461.479,-61.1052"/>
</g>
<!-- Node7 -->
<g id="node7" class="node"><title>Node7</title>
<g id="a_node7"><a xlink:href="$AP__HAL__SITL_2system_8cpp.html" xlink:title="libraries/AP_HAL_SITL\l/system.cpp">
<polygon fill="white" stroke="black" points="690,-0.5 690,-30.5 808,-30.5 808,-0.5 690,-0.5"/>
<text text-anchor="start" x="698" y="-18.5" font-family="Helvetica,sans-Serif" font-size="10.00">libraries/AP_HAL_SITL</text>
<text text-anchor="middle" x="749" y="-7.5" font-family="Helvetica,sans-Serif" font-size="10.00">/system.cpp</text>
</a>
</g>
</g>
<!-- Node1&#45;&gt;Node7 -->
<g id="edge6" class="edge"><title>Node1&#45;&gt;Node7</title>
<path fill="none" stroke="midnightblue" d="M478.238,-69.168C533.267,-59.2408 612.159,-44.7277 681,-31 683.841,-30.4335 686.747,-29.8457 689.681,-29.2457"/>
<polygon fill="midnightblue" stroke="midnightblue" points="477.469,-65.75 468.248,-70.9671 478.71,-72.6392 477.469,-65.75"/>
</g>
</g>
</svg>
