<?xml version="1.0" encoding="UTF-8" standalone="no"?>
<!DOCTYPE svg PUBLIC "-//W3C//DTD SVG 1.1//EN"
 "http://www.w3.org/Graphics/SVG/1.1/DTD/svg11.dtd">
<!-- Generated by graphviz version 2.38.0 (20140413.2041)
 -->
<!-- Title: gps_time Pages: 1 -->
<svg width="1781pt" height="660pt"
 viewBox="0.00 0.00 1781.00 660.01" xmlns="http://www.w3.org/2000/svg" xmlns:xlink="http://www.w3.org/1999/xlink">
<g id="graph0" class="graph" transform="scale(1 1) rotate(0) translate(4 656.015)">
<title>gps_time</title>
<polygon fill="white" stroke="none" points="-4,4 -4,-656.015 1777,-656.015 1777,4 -4,4"/>
<!-- Node1 -->
<g id="node1" class="node"><title>Node1</title>
<polygon fill="#bfbfbf" stroke="black" points="0,-320 0,-339 56,-339 56,-320 0,-320"/>
<text text-anchor="middle" x="28" y="-327" font-family="Helvetica,sans-Serif" font-size="10.00">gps_time</text>
</g>
<!-- Node2 -->
<g id="node2" class="node"><title>Node2</title>
<g id="a_node2"><a xlink:href="$sitl__gps_8cpp.html#a48480785106d15a99c7fda2ba42e054f" xlink:title="simulation_timeval">
<polygon fill="white" stroke="black" points="92,-320 92,-339 190,-339 190,-320 92,-320"/>
<text text-anchor="middle" x="141" y="-327" font-family="Helvetica,sans-Serif" font-size="10.00">simulation_timeval</text>
</a>
</g>
</g>
<!-- Node1&#45;&gt;Node2 -->
<g id="edge1" class="edge"><title>Node1&#45;&gt;Node2</title>
<path fill="none" stroke="midnightblue" d="M56.1537,-329.5C63.9879,-329.5 72.8523,-329.5 81.8103,-329.5"/>
<polygon fill="midnightblue" stroke="midnightblue" points="81.914,-333 91.914,-329.5 81.914,-326 81.914,-333"/>
</g>
<!-- Node3 -->
<g id="node3" class="node"><title>Node3</title>
<g id="a_node3"><a xlink:href="$namespaceAP__HAL.html#a7aa0ce7625c9680e30ff4a99940907a5" xlink:title="AP_HAL::micros64">
<polygon fill="white" stroke="black" points="226,-320 226,-339 327,-339 327,-320 226,-320"/>
<text text-anchor="middle" x="276.5" y="-327" font-family="Helvetica,sans-Serif" font-size="10.00">AP_HAL::micros64</text>
</a>
</g>
</g>
<!-- Node2&#45;&gt;Node3 -->
<g id="edge2" class="edge"><title>Node2&#45;&gt;Node3</title>
<path fill="none" stroke="midnightblue" d="M190.197,-329.5C198.374,-329.5 206.954,-329.5 215.392,-329.5"/>
<polygon fill="midnightblue" stroke="midnightblue" points="215.576,-333 225.576,-329.5 215.576,-326 215.576,-333"/>
</g>
<!-- Node4 -->
<g id="node4" class="node"><title>Node4</title>
<g id="a_node4"><a xlink:href="$classLinux_1_1Scheduler.html#a53ecaae0fdc72f85bd57c4b0cff93653" xlink:title="Linux::Scheduler::from">
<polygon fill="white" stroke="black" points="363,-320 363,-339 478,-339 478,-320 363,-320"/>
<text text-anchor="middle" x="420.5" y="-327" font-family="Helvetica,sans-Serif" font-size="10.00">Linux::Scheduler::from</text>
</a>
</g>
</g>
<!-- Node3&#45;&gt;Node4 -->
<g id="edge3" class="edge"><title>Node3&#45;&gt;Node4</title>
<path fill="none" stroke="midnightblue" d="M327.165,-329.5C335.442,-329.5 344.147,-329.5 352.767,-329.5"/>
<polygon fill="midnightblue" stroke="midnightblue" points="352.817,-333 362.817,-329.5 352.817,-326 352.817,-333"/>
</g>
<!-- Node23 -->
<g id="node23" class="node"><title>Node23</title>
<g id="a_node23"><a xlink:href="$classLinux_1_1Scheduler.html#a682b4c34f330f66db5ab4aa5d96e13f9" xlink:title="Linux::Scheduler::stopped\l_clock_usec">
<polygon fill="white" stroke="black" points="1025,-88.5 1025,-118.5 1155,-118.5 1155,-88.5 1025,-88.5"/>
<text text-anchor="start" x="1033" y="-106.5" font-family="Helvetica,sans-Serif" font-size="10.00">Linux::Scheduler::stopped</text>
<text text-anchor="middle" x="1090" y="-95.5" font-family="Helvetica,sans-Serif" font-size="10.00">_clock_usec</text>
</a>
</g>
</g>
<!-- Node3&#45;&gt;Node23 -->
<g id="edge58" class="edge"><title>Node3&#45;&gt;Node23</title>
<path fill="none" stroke="midnightblue" d="M282.594,-319.917C304.132,-280.575 392.245,-131.067 514,-78.5 690.628,-2.24259 926.826,-54.834 1033.08,-85.5944"/>
<polygon fill="midnightblue" stroke="midnightblue" points="1032.37,-89.0335 1042.95,-88.498 1034.34,-82.318 1032.37,-89.0335"/>
</g>
<!-- Node5 -->
<g id="node5" class="node"><title>Node5</title>
<g id="a_node5"><a xlink:href="$classLinux_1_1Scheduler.html#a3d77c332e051c28c83fb07757e7100bd" xlink:title="Linux::Scheduler::init">
<polygon fill="white" stroke="black" points="524,-301 524,-320 632,-320 632,-301 524,-301"/>
<text text-anchor="middle" x="578" y="-308" font-family="Helvetica,sans-Serif" font-size="10.00">Linux::Scheduler::init</text>
</a>
</g>
</g>
<!-- Node4&#45;&gt;Node5 -->
<g id="edge4" class="edge"><title>Node4&#45;&gt;Node5</title>
<path fill="none" stroke="midnightblue" d="M478.079,-322.587C489.631,-321.175 501.858,-319.681 513.63,-318.243"/>
<polygon fill="midnightblue" stroke="midnightblue" points="514.327,-321.684 523.829,-316.997 513.478,-314.736 514.327,-321.684"/>
</g>
<!-- Node12 -->
<g id="node12" class="node"><title>Node12</title>
<g id="a_node12"><a xlink:href="$classLinux_1_1Scheduler.html#a02a34a123dfebaf360f7010745e1e646" xlink:title="Linux::Scheduler::register\l_timer_process">
<polygon fill="white" stroke="black" points="680,-257.5 680,-287.5 808,-287.5 808,-257.5 680,-257.5"/>
<text text-anchor="start" x="688" y="-275.5" font-family="Helvetica,sans-Serif" font-size="10.00">Linux::Scheduler::register</text>
<text text-anchor="middle" x="744" y="-264.5" font-family="Helvetica,sans-Serif" font-size="10.00">_timer_process</text>
</a>
</g>
</g>
<!-- Node4&#45;&gt;Node12 -->
<g id="edge38" class="edge"><title>Node4&#45;&gt;Node12</title>
<path fill="none" stroke="midnightblue" d="M440.063,-319.88C458.347,-310.891 487.331,-297.921 514,-291.5 565.202,-279.171 624.494,-274.505 669.916,-272.878"/>
<polygon fill="midnightblue" stroke="midnightblue" points="670.091,-276.374 679.975,-272.558 669.869,-269.377 670.091,-276.374"/>
</g>
<!-- Node31 -->
<g id="node31" class="node"><title>Node31</title>
<g id="a_node31"><a xlink:href="$classLinux_1_1Scheduler.html#a14f3239ecbb9889823b20dc9de655c2f" xlink:title="Linux::Scheduler::delay">
<polygon fill="white" stroke="black" points="684.5,-181 684.5,-200 803.5,-200 803.5,-181 684.5,-181"/>
<text text-anchor="middle" x="744" y="-188" font-family="Helvetica,sans-Serif" font-size="10.00">Linux::Scheduler::delay</text>
</a>
</g>
</g>
<!-- Node4&#45;&gt;Node31 -->
<g id="edge32" class="edge"><title>Node4&#45;&gt;Node31</title>
<path fill="none" stroke="midnightblue" d="M426.408,-319.872C438.151,-297.947 470.189,-244.359 514,-220.5 563.045,-193.79 626.508,-187.264 674.183,-186.865"/>
<polygon fill="midnightblue" stroke="midnightblue" points="674.409,-190.365 684.41,-186.871 674.412,-183.365 674.409,-190.365"/>
</g>
<!-- Node32 -->
<g id="node32" class="node"><title>Node32</title>
<g id="a_node32"><a xlink:href="$classLinux_1_1Scheduler.html#a4cffd5bcba0175bf49c7aa75ff3bf09a" xlink:title="Linux::Scheduler::delay\l_microseconds">
<polygon fill="white" stroke="black" points="858,-0.5 858,-30.5 977,-30.5 977,-0.5 858,-0.5"/>
<text text-anchor="start" x="866" y="-18.5" font-family="Helvetica,sans-Serif" font-size="10.00">Linux::Scheduler::delay</text>
<text text-anchor="middle" x="917.5" y="-7.5" font-family="Helvetica,sans-Serif" font-size="10.00">_microseconds</text>
</a>
</g>
</g>
<!-- Node4&#45;&gt;Node32 -->
<g id="edge35" class="edge"><title>Node4&#45;&gt;Node32</title>
<path fill="none" stroke="midnightblue" d="M421.785,-319.847C423.46,-282.083 434.973,-143.258 514,-78.5 608.986,-0.663789 760.274,0.570841 847.8,-6.69373"/>
<polygon fill="midnightblue" stroke="midnightblue" points="847.618,-10.1913 857.89,-7.59237 848.239,-3.2189 847.618,-10.1913"/>
</g>
<!-- Node33 -->
<g id="node33" class="node"><title>Node33</title>
<g id="a_node33"><a xlink:href="$classLinux_1_1Scheduler.html#a5cb50b637d5fd3e5f9220bc23db0fb3f" xlink:title="Linux::Scheduler::register\l_delay_callback">
<polygon fill="white" stroke="black" points="514,-137.5 514,-167.5 642,-167.5 642,-137.5 514,-137.5"/>
<text text-anchor="start" x="522" y="-155.5" font-family="Helvetica,sans-Serif" font-size="10.00">Linux::Scheduler::register</text>
<text text-anchor="middle" x="578" y="-144.5" font-family="Helvetica,sans-Serif" font-size="10.00">_delay_callback</text>
</a>
</g>
</g>
<!-- Node4&#45;&gt;Node33 -->
<g id="edge37" class="edge"><title>Node4&#45;&gt;Node33</title>
<path fill="none" stroke="midnightblue" d="M425.243,-319.963C435.665,-294.489 467.355,-223.974 514,-182.5 518.131,-178.827 522.79,-175.511 527.658,-172.54"/>
<polygon fill="midnightblue" stroke="midnightblue" points="529.55,-175.493 536.578,-167.565 526.14,-169.38 529.55,-175.493"/>
</g>
<!-- Node34 -->
<g id="node34" class="node"><title>Node34</title>
<g id="a_node34"><a xlink:href="$classLinux_1_1Scheduler.html#aa2be97cb8686d72cc322fb38f69a940c" xlink:title="Linux::Scheduler::register\l_io_process">
<polygon fill="white" stroke="black" points="680,-355.5 680,-385.5 808,-385.5 808,-355.5 680,-355.5"/>
<text text-anchor="start" x="688" y="-373.5" font-family="Helvetica,sans-Serif" font-size="10.00">Linux::Scheduler::register</text>
<text text-anchor="middle" x="744" y="-362.5" font-family="Helvetica,sans-Serif" font-size="10.00">_io_process</text>
</a>
</g>
</g>
<!-- Node4&#45;&gt;Node34 -->
<g id="edge39" class="edge"><title>Node4&#45;&gt;Node34</title>
<path fill="none" stroke="midnightblue" d="M478.238,-336.736C531.55,-343.534 611.611,-353.744 669.732,-361.156"/>
<polygon fill="midnightblue" stroke="midnightblue" points="669.591,-364.667 679.953,-362.46 670.476,-357.723 669.591,-364.667"/>
</g>
<!-- Node35 -->
<g id="node35" class="node"><title>Node35</title>
<g id="a_node35"><a xlink:href="$classLinux_1_1Scheduler.html#abba967d02c28cb0b16a7cebbff9bc6d6" xlink:title="Linux::Scheduler::suspend\l_timer_procs">
<polygon fill="white" stroke="black" points="678,-590.5 678,-620.5 810,-620.5 810,-590.5 678,-590.5"/>
<text text-anchor="start" x="686" y="-608.5" font-family="Helvetica,sans-Serif" font-size="10.00">Linux::Scheduler::suspend</text>
<text text-anchor="middle" x="744" y="-597.5" font-family="Helvetica,sans-Serif" font-size="10.00">_timer_procs</text>
</a>
</g>
</g>
<!-- Node4&#45;&gt;Node35 -->
<g id="edge41" class="edge"><title>Node4&#45;&gt;Node35</title>
<path fill="none" stroke="midnightblue" d="M421.442,-339.253C421.792,-378.69 428.891,-527.304 514,-591.5 557.27,-624.138 619.239,-626.035 667.805,-620.65"/>
<polygon fill="midnightblue" stroke="midnightblue" points="668.456,-624.096 677.953,-619.398 667.6,-617.149 668.456,-624.096"/>
</g>
<!-- Node38 -->
<g id="node38" class="node"><title>Node38</title>
<g id="a_node38"><a xlink:href="$classLinux_1_1Scheduler.html#aee4e701b92cb4721c4de1bfcdcded70c" xlink:title="Linux::Scheduler::resume\l_timer_procs">
<polygon fill="white" stroke="black" points="680,-443.5 680,-473.5 808,-473.5 808,-443.5 680,-443.5"/>
<text text-anchor="start" x="688" y="-461.5" font-family="Helvetica,sans-Serif" font-size="10.00">Linux::Scheduler::resume</text>
<text text-anchor="middle" x="744" y="-450.5" font-family="Helvetica,sans-Serif" font-size="10.00">_timer_procs</text>
</a>
</g>
</g>
<!-- Node4&#45;&gt;Node38 -->
<g id="edge46" class="edge"><title>Node4&#45;&gt;Node38</title>
<path fill="none" stroke="midnightblue" d="M446.934,-339.122C465.467,-346.067 491.214,-355.577 514,-363.5 570.552,-383.164 589.145,-377.372 642,-405.5 659.894,-415.022 660.35,-423.532 678,-433.5 681.612,-435.54 685.424,-437.482 689.317,-439.317"/>
<polygon fill="midnightblue" stroke="midnightblue" points="687.932,-442.531 698.491,-443.395 690.775,-436.135 687.932,-442.531"/>
</g>
<!-- Node40 -->
<g id="node40" class="node"><title>Node40</title>
<g id="a_node40"><a xlink:href="$classLinux_1_1Scheduler.html#af23753e7c6bfa97553db215a64235455" xlink:title="Linux::Scheduler::in\l_timerprocess">
<polygon fill="white" stroke="black" points="526.5,-88.5 526.5,-118.5 629.5,-118.5 629.5,-88.5 526.5,-88.5"/>
<text text-anchor="start" x="534.5" y="-106.5" font-family="Helvetica,sans-Serif" font-size="10.00">Linux::Scheduler::in</text>
<text text-anchor="middle" x="578" y="-95.5" font-family="Helvetica,sans-Serif" font-size="10.00">_timerprocess</text>
</a>
</g>
</g>
<!-- Node4&#45;&gt;Node40 -->
<g id="edge48" class="edge"><title>Node4&#45;&gt;Node40</title>
<path fill="none" stroke="midnightblue" d="M423.2,-319.978C429.369,-288.137 453.474,-184.19 514,-127.5 515.263,-126.317 516.59,-125.191 517.969,-124.119"/>
<polygon fill="midnightblue" stroke="midnightblue" points="519.965,-126.995 526.364,-118.551 516.096,-121.162 519.965,-126.995"/>
</g>
<!-- Node41 -->
<g id="node41" class="node"><title>Node41</title>
<g id="a_node41"><a xlink:href="$classLinux_1_1Scheduler.html#ac193459e3575c7a0588fdc72250c2044" xlink:title="Linux::Scheduler::register\l_timer_failsafe">
<polygon fill="white" stroke="black" points="514,-552.5 514,-582.5 642,-582.5 642,-552.5 514,-552.5"/>
<text text-anchor="start" x="522" y="-570.5" font-family="Helvetica,sans-Serif" font-size="10.00">Linux::Scheduler::register</text>
<text text-anchor="middle" x="578" y="-559.5" font-family="Helvetica,sans-Serif" font-size="10.00">_timer_failsafe</text>
</a>
</g>
</g>
<!-- Node4&#45;&gt;Node41 -->
<g id="edge49" class="edge"><title>Node4&#45;&gt;Node41</title>
<path fill="none" stroke="midnightblue" d="M422.988,-339.038C428.601,-371.929 451.449,-481.915 514,-542.5 515.614,-544.063 517.337,-545.532 519.145,-546.913"/>
<polygon fill="midnightblue" stroke="midnightblue" points="517.252,-549.857 527.534,-552.412 521.09,-544.002 517.252,-549.857"/>
</g>
<!-- Node42 -->
<g id="node42" class="node"><title>Node42</title>
<g id="a_node42"><a xlink:href="$classLinux_1_1Scheduler.html#ad6070a7ee637adf5101b1e6b6efbf8f6" xlink:title="Linux::Scheduler::system\l_initialized">
<polygon fill="white" stroke="black" points="514,-415.5 514,-445.5 642,-445.5 642,-415.5 514,-415.5"/>
<text text-anchor="start" x="522" y="-433.5" font-family="Helvetica,sans-Serif" font-size="10.00">Linux::Scheduler::system</text>
<text text-anchor="middle" x="578" y="-422.5" font-family="Helvetica,sans-Serif" font-size="10.00">_initialized</text>
</a>
</g>
</g>
<!-- Node4&#45;&gt;Node42 -->
<g id="edge50" class="edge"><title>Node4&#45;&gt;Node42</title>
<path fill="none" stroke="midnightblue" d="M432.343,-339.044C449.083,-353.489 482.58,-381.256 514,-400.5 519.9,-404.113 526.303,-407.608 532.69,-410.856"/>
<polygon fill="midnightblue" stroke="midnightblue" points="531.46,-414.151 541.978,-415.425 534.55,-407.87 531.46,-414.151"/>
</g>
<!-- Node44 -->
<g id="node44" class="node"><title>Node44</title>
<g id="a_node44"><a xlink:href="$classLinux_1_1Scheduler.html#ae72cfa66c849ffd882ef518c35c71e69" xlink:title="Linux::Scheduler::reboot">
<polygon fill="white" stroke="black" points="517,-465 517,-484 639,-484 639,-465 517,-465"/>
<text text-anchor="middle" x="578" y="-472" font-family="Helvetica,sans-Serif" font-size="10.00">Linux::Scheduler::reboot</text>
</a>
</g>
</g>
<!-- Node4&#45;&gt;Node44 -->
<g id="edge53" class="edge"><title>Node4&#45;&gt;Node44</title>
<path fill="none" stroke="midnightblue" d="M426.019,-339.257C437.375,-362.705 469.414,-422.632 514,-454.5 517.413,-456.94 521.137,-459.091 525.012,-460.985"/>
<polygon fill="midnightblue" stroke="midnightblue" points="523.686,-464.225 534.256,-464.957 526.45,-457.793 523.686,-464.225"/>
</g>
<!-- Node45 -->
<g id="node45" class="node"><title>Node45</title>
<g id="a_node45"><a xlink:href="$classLinux_1_1Scheduler.html#a392aebafcdfe9a812e4db4b7a9dcce9c" xlink:title="Linux::Scheduler::stop\l_clock">
<polygon fill="white" stroke="black" points="521,-503.5 521,-533.5 635,-533.5 635,-503.5 521,-503.5"/>
<text text-anchor="start" x="529" y="-521.5" font-family="Helvetica,sans-Serif" font-size="10.00">Linux::Scheduler::stop</text>
<text text-anchor="middle" x="578" y="-510.5" font-family="Helvetica,sans-Serif" font-size="10.00">_clock</text>
</a>
</g>
</g>
<!-- Node4&#45;&gt;Node45 -->
<g id="edge54" class="edge"><title>Node4&#45;&gt;Node45</title>
<path fill="none" stroke="midnightblue" d="M424.377,-339.111C433.168,-366.922 462.278,-448.364 514,-493.5 515.765,-495.04 517.636,-496.492 519.587,-497.86"/>
<polygon fill="midnightblue" stroke="midnightblue" points="518.202,-501.115 528.562,-503.333 521.847,-495.138 518.202,-501.115"/>
</g>
<!-- Node6 -->
<g id="node6" class="node"><title>Node6</title>
<g id="a_node6"><a xlink:href="$namespaceAP__HAL.html#a71832f03d849a0c088f04fc98d3c8143" xlink:title="AP_HAL::panic">
<polygon fill="white" stroke="black" points="702,-405 702,-424 786,-424 786,-405 702,-405"/>
<text text-anchor="middle" x="744" y="-412" font-family="Helvetica,sans-Serif" font-size="10.00">AP_HAL::panic</text>
</a>
</g>
</g>
<!-- Node5&#45;&gt;Node6 -->
<g id="edge5" class="edge"><title>Node5&#45;&gt;Node6</title>
<path fill="none" stroke="midnightblue" d="M587.858,-320.269C604.098,-337.622 640.437,-373.928 678,-394.5 682.789,-397.123 687.97,-399.451 693.244,-401.505"/>
<polygon fill="midnightblue" stroke="midnightblue" points="692.179,-404.841 702.773,-404.911 694.534,-398.25 692.179,-404.841"/>
</g>
<!-- Node5&#45;&gt;Node12 -->
<g id="edge11" class="edge"><title>Node5&#45;&gt;Node12</title>
<path fill="none" stroke="midnightblue" d="M620.384,-300.911C635.455,-297.419 652.975,-293.359 669.975,-289.42"/>
<polygon fill="midnightblue" stroke="midnightblue" points="670.949,-292.787 679.901,-287.12 669.369,-285.968 670.949,-292.787"/>
</g>
<!-- Node21 -->
<g id="node21" class="node"><title>Node21</title>
<g id="a_node21"><a xlink:href="$classLinux_1_1Scheduler.html#a163eb7b285c95b1b1d036fc61d723910" xlink:title="Linux::Scheduler::\l_debug_stack">
<polygon fill="white" stroke="black" points="696.5,-306.5 696.5,-336.5 791.5,-336.5 791.5,-306.5 696.5,-306.5"/>
<text text-anchor="start" x="704.5" y="-324.5" font-family="Helvetica,sans-Serif" font-size="10.00">Linux::Scheduler::</text>
<text text-anchor="middle" x="744" y="-313.5" font-family="Helvetica,sans-Serif" font-size="10.00">_debug_stack</text>
</a>
</g>
</g>
<!-- Node5&#45;&gt;Node21 -->
<g id="edge20" class="edge"><title>Node5&#45;&gt;Node21</title>
<path fill="none" stroke="midnightblue" d="M632.246,-314.071C649.525,-315.23 668.754,-316.52 686.276,-317.695"/>
<polygon fill="midnightblue" stroke="midnightblue" points="686.157,-321.195 696.368,-318.372 686.625,-314.211 686.157,-321.195"/>
</g>
<!-- Node7 -->
<g id="node7" class="node"><title>Node7</title>
<g id="a_node7"><a xlink:href="$classAP__HAL_1_1RCInput.html#a2bea13d38f2b9ae8bf5193a3a69f0a31" xlink:title="AP_HAL::RCInput::teardown">
<polygon fill="white" stroke="black" points="846,-407 846,-426 989,-426 989,-407 846,-407"/>
<text text-anchor="middle" x="917.5" y="-414" font-family="Helvetica,sans-Serif" font-size="10.00">AP_HAL::RCInput::teardown</text>
</a>
</g>
</g>
<!-- Node6&#45;&gt;Node7 -->
<g id="edge6" class="edge"><title>Node6&#45;&gt;Node7</title>
<path fill="none" stroke="midnightblue" d="M786.079,-414.979C801.072,-415.154 818.594,-415.358 835.84,-415.559"/>
<polygon fill="midnightblue" stroke="midnightblue" points="835.901,-419.06 845.941,-415.677 835.983,-412.061 835.901,-419.06"/>
</g>
<!-- Node11 -->
<g id="node11" class="node"><title>Node11</title>
<g id="a_node11"><a xlink:href="$classAP__HAL_1_1Scheduler.html#a78c4f1b1f192ac1c99544b6cc8f099b0" xlink:title="AP_HAL::Scheduler::\ldelay_microseconds">
<polygon fill="white" stroke="black" points="1035,-520.5 1035,-550.5 1145,-550.5 1145,-520.5 1035,-520.5"/>
<text text-anchor="start" x="1043" y="-538.5" font-family="Helvetica,sans-Serif" font-size="10.00">AP_HAL::Scheduler::</text>
<text text-anchor="middle" x="1090" y="-527.5" font-family="Helvetica,sans-Serif" font-size="10.00">delay_microseconds</text>
</a>
</g>
</g>
<!-- Node6&#45;&gt;Node11 -->
<g id="edge10" class="edge"><title>Node6&#45;&gt;Node11</title>
<path fill="none" stroke="midnightblue" d="M779.203,-424.038C789.174,-426.942 800.059,-430.234 810,-433.5 891.811,-460.379 985.594,-495.588 1040.93,-516.825"/>
<polygon fill="midnightblue" stroke="midnightblue" points="1039.88,-520.171 1050.47,-520.495 1042.39,-513.638 1039.88,-520.171"/>
</g>
<!-- Node8 -->
<g id="node8" class="node"><title>Node8</title>
<g id="a_node8"><a xlink:href="$classAP__HAL_1_1RCInput.html#aee1fade33080edef83dd7db0fad0f7da" xlink:title="AP_HAL::RCInput::new\l_input">
<polygon fill="white" stroke="black" points="1029,-363.5 1029,-393.5 1151,-393.5 1151,-363.5 1029,-363.5"/>
<text text-anchor="start" x="1037" y="-381.5" font-family="Helvetica,sans-Serif" font-size="10.00">AP_HAL::RCInput::new</text>
<text text-anchor="middle" x="1090" y="-370.5" font-family="Helvetica,sans-Serif" font-size="10.00">_input</text>
</a>
</g>
</g>
<!-- Node7&#45;&gt;Node8 -->
<g id="edge7" class="edge"><title>Node7&#45;&gt;Node8</title>
<path fill="none" stroke="midnightblue" d="M961.524,-406.911C978.994,-403.018 999.628,-398.419 1019.15,-394.068"/>
<polygon fill="midnightblue" stroke="midnightblue" points="1019.93,-397.481 1028.93,-391.889 1018.4,-390.648 1019.93,-397.481"/>
</g>
<!-- Node9 -->
<g id="node9" class="node"><title>Node9</title>
<g id="a_node9"><a xlink:href="$classAP__HAL_1_1RCInput.html#ae55f959c6115c1f41783af3a2b6c4fcd" xlink:title="AP_HAL::RCInput::num\l_channels">
<polygon fill="white" stroke="black" points="1029,-451.5 1029,-481.5 1151,-481.5 1151,-451.5 1029,-451.5"/>
<text text-anchor="start" x="1037" y="-469.5" font-family="Helvetica,sans-Serif" font-size="10.00">AP_HAL::RCInput::num</text>
<text text-anchor="middle" x="1090" y="-458.5" font-family="Helvetica,sans-Serif" font-size="10.00">_channels</text>
</a>
</g>
</g>
<!-- Node7&#45;&gt;Node9 -->
<g id="edge8" class="edge"><title>Node7&#45;&gt;Node9</title>
<path fill="none" stroke="midnightblue" d="M950.971,-426.022C972.647,-432.379 1001.83,-440.936 1027.77,-448.545"/>
<polygon fill="midnightblue" stroke="midnightblue" points="1026.96,-451.953 1037.54,-451.409 1028.93,-445.236 1026.96,-451.953"/>
</g>
<!-- Node10 -->
<g id="node10" class="node"><title>Node10</title>
<g id="a_node10"><a xlink:href="$classAP__HAL_1_1RCInput.html#a078fd7e6d2e6a899009ec674a8e03498" xlink:title="AP_HAL::RCInput::read">
<polygon fill="white" stroke="black" points="1029,-413 1029,-432 1151,-432 1151,-413 1029,-413"/>
<text text-anchor="middle" x="1090" y="-420" font-family="Helvetica,sans-Serif" font-size="10.00">AP_HAL::RCInput::read</text>
</a>
</g>
</g>
<!-- Node7&#45;&gt;Node10 -->
<g id="edge9" class="edge"><title>Node7&#45;&gt;Node10</title>
<path fill="none" stroke="midnightblue" d="M989.326,-418.992C999.104,-419.337 1009.14,-419.69 1018.91,-420.033"/>
<polygon fill="midnightblue" stroke="midnightblue" points="1018.85,-423.533 1028.96,-420.387 1019.09,-416.538 1018.85,-423.533"/>
</g>
<!-- Node13 -->
<g id="node13" class="node"><title>Node13</title>
<g id="a_node13"><a xlink:href="$classAP__HAL_1_1UARTDriver.html#a6ceedc792594e59fc7d80b39a435f027" xlink:title="AP_HAL::UARTDriver\l::printf">
<polygon fill="white" stroke="black" points="860,-257.5 860,-287.5 975,-287.5 975,-257.5 860,-257.5"/>
<text text-anchor="start" x="868" y="-275.5" font-family="Helvetica,sans-Serif" font-size="10.00">AP_HAL::UARTDriver</text>
<text text-anchor="middle" x="917.5" y="-264.5" font-family="Helvetica,sans-Serif" font-size="10.00">::printf</text>
</a>
</g>
</g>
<!-- Node12&#45;&gt;Node13 -->
<g id="edge12" class="edge"><title>Node12&#45;&gt;Node13</title>
<path fill="none" stroke="midnightblue" d="M808.373,-272.5C821.831,-272.5 836.081,-272.5 849.663,-272.5"/>
<polygon fill="midnightblue" stroke="midnightblue" points="849.896,-276 859.896,-272.5 849.896,-269 849.896,-276"/>
</g>
<!-- Node14 -->
<g id="node14" class="node"><title>Node14</title>
<g id="a_node14"><a xlink:href="$classAP__HAL_1_1UARTDriver.html#aa8abfb6d6641299472c29ac1edde559f" xlink:title="AP_HAL::UARTDriver\l::vprintf">
<polygon fill="white" stroke="black" points="1032.5,-240.5 1032.5,-270.5 1147.5,-270.5 1147.5,-240.5 1032.5,-240.5"/>
<text text-anchor="start" x="1040.5" y="-258.5" font-family="Helvetica,sans-Serif" font-size="10.00">AP_HAL::UARTDriver</text>
<text text-anchor="middle" x="1090" y="-247.5" font-family="Helvetica,sans-Serif" font-size="10.00">::vprintf</text>
</a>
</g>
</g>
<!-- Node13&#45;&gt;Node14 -->
<g id="edge13" class="edge"><title>Node13&#45;&gt;Node14</title>
<path fill="none" stroke="midnightblue" d="M975.274,-266.839C990.372,-265.334 1006.82,-263.694 1022.39,-262.142"/>
<polygon fill="midnightblue" stroke="midnightblue" points="1022.87,-265.611 1032.47,-261.136 1022.18,-258.646 1022.87,-265.611"/>
</g>
<!-- Node15 -->
<g id="node15" class="node"><title>Node15</title>
<g id="a_node15"><a xlink:href="$print__vprintf_8cpp.html#a1534eaeab54696df96975b56d9f49212" xlink:title="print_vprintf">
<polygon fill="white" stroke="black" points="1228.5,-230 1228.5,-249 1296.5,-249 1296.5,-230 1228.5,-230"/>
<text text-anchor="middle" x="1262.5" y="-237" font-family="Helvetica,sans-Serif" font-size="10.00">print_vprintf</text>
</a>
</g>
</g>
<!-- Node14&#45;&gt;Node15 -->
<g id="edge14" class="edge"><title>Node14&#45;&gt;Node15</title>
<path fill="none" stroke="midnightblue" d="M1147.77,-250.172C1170.75,-248.016 1196.85,-245.567 1218.24,-243.56"/>
<polygon fill="midnightblue" stroke="midnightblue" points="1218.7,-247.032 1228.33,-242.613 1218.05,-240.063 1218.7,-247.032"/>
</g>
<!-- Node16 -->
<g id="node16" class="node"><title>Node16</title>
<g id="a_node16"><a xlink:href="$classAP__HAL_1_1Print.html#acc65391952a43334f8f5c9bef341f501" xlink:title="AP_HAL::Print::write">
<polygon fill="white" stroke="black" points="1371.5,-211 1371.5,-230 1479.5,-230 1479.5,-211 1371.5,-211"/>
<text text-anchor="middle" x="1425.5" y="-218" font-family="Helvetica,sans-Serif" font-size="10.00">AP_HAL::Print::write</text>
</a>
</g>
</g>
<!-- Node15&#45;&gt;Node16 -->
<g id="edge15" class="edge"><title>Node15&#45;&gt;Node16</title>
<path fill="none" stroke="midnightblue" d="M1296.86,-235.563C1315.47,-233.367 1339.27,-230.558 1361.27,-227.962"/>
<polygon fill="midnightblue" stroke="midnightblue" points="1361.7,-231.436 1371.22,-226.788 1360.88,-224.484 1361.7,-231.436"/>
</g>
<!-- Node17 -->
<g id="node17" class="node"><title>Node17</title>
<g id="a_node17"><a xlink:href="$ftoa__engine_8cpp.html#a1c28234da8f20b43c85890d4bb452947" xlink:title="ftoa_engine">
<polygon fill="white" stroke="black" points="1392,-173 1392,-192 1459,-192 1459,-173 1392,-173"/>
<text text-anchor="middle" x="1425.5" y="-180" font-family="Helvetica,sans-Serif" font-size="10.00">ftoa_engine</text>
</a>
</g>
</g>
<!-- Node15&#45;&gt;Node17 -->
<g id="edge16" class="edge"><title>Node15&#45;&gt;Node17</title>
<path fill="none" stroke="midnightblue" d="M1290.18,-229.92C1311.71,-222.204 1342.79,-211.099 1370,-201.5 1375.63,-199.514 1381.59,-197.424 1387.42,-195.385"/>
<polygon fill="midnightblue" stroke="midnightblue" points="1388.75,-198.629 1397.04,-192.029 1386.45,-192.019 1388.75,-198.629"/>
</g>
<!-- Node18 -->
<g id="node18" class="node"><title>Node18</title>
<g id="a_node18"><a xlink:href="$replace_8cpp.html#a880bcc7b85a09e6254691bebd5344b51" xlink:title="strnlen">
<polygon fill="white" stroke="black" points="1402.5,-135 1402.5,-154 1448.5,-154 1448.5,-135 1402.5,-135"/>
<text text-anchor="middle" x="1425.5" y="-142" font-family="Helvetica,sans-Serif" font-size="10.00">strnlen</text>
</a>
</g>
</g>
<!-- Node15&#45;&gt;Node18 -->
<g id="edge17" class="edge"><title>Node15&#45;&gt;Node18</title>
<path fill="none" stroke="midnightblue" d="M1274.62,-229.917C1293.26,-214.241 1332.48,-182.921 1370,-163.5 1377.12,-159.817 1385.1,-156.581 1392.72,-153.872"/>
<polygon fill="midnightblue" stroke="midnightblue" points="1394.06,-157.117 1402.43,-150.622 1391.83,-150.48 1394.06,-157.117"/>
</g>
<!-- Node19 -->
<g id="node19" class="node"><title>Node19</title>
<g id="a_node19"><a xlink:href="$utoa__invert_8cpp.html#a34926f552460b47c414ec4d83b32815c" xlink:title="ulltoa_invert">
<polygon fill="white" stroke="black" points="1391,-287 1391,-306 1460,-306 1460,-287 1391,-287"/>
<text text-anchor="middle" x="1425.5" y="-294" font-family="Helvetica,sans-Serif" font-size="10.00">ulltoa_invert</text>
</a>
</g>
</g>
<!-- Node15&#45;&gt;Node19 -->
<g id="edge18" class="edge"><title>Node15&#45;&gt;Node19</title>
<path fill="none" stroke="midnightblue" d="M1290.18,-249.08C1311.71,-256.796 1342.79,-267.901 1370,-277.5 1375.63,-279.486 1381.59,-281.576 1387.42,-283.615"/>
<polygon fill="midnightblue" stroke="midnightblue" points="1386.45,-286.981 1397.04,-286.971 1388.75,-280.371 1386.45,-286.981"/>
</g>
<!-- Node20 -->
<g id="node20" class="node"><title>Node20</title>
<g id="a_node20"><a xlink:href="$utoa__invert_8cpp.html#a5d99bba8e697c1e11da489d88fca8559" xlink:title="ultoa_invert">
<polygon fill="white" stroke="black" points="1392,-249 1392,-268 1459,-268 1459,-249 1392,-249"/>
<text text-anchor="middle" x="1425.5" y="-256" font-family="Helvetica,sans-Serif" font-size="10.00">ultoa_invert</text>
</a>
</g>
</g>
<!-- Node15&#45;&gt;Node20 -->
<g id="edge19" class="edge"><title>Node15&#45;&gt;Node20</title>
<path fill="none" stroke="midnightblue" d="M1296.86,-243.437C1321.42,-246.335 1355.01,-250.299 1381.57,-253.433"/>
<polygon fill="midnightblue" stroke="midnightblue" points="1381.39,-256.937 1391.73,-254.633 1382.21,-249.985 1381.39,-256.937"/>
</g>
<!-- Node22 -->
<g id="node22" class="node"><title>Node22</title>
<g id="a_node22"><a xlink:href="$namespaceAP__HAL.html#a59336c5fceaf28a76d1df1581a87a25d" xlink:title="AP_HAL::millis64">
<polygon fill="white" stroke="black" points="870.5,-200 870.5,-219 964.5,-219 964.5,-200 870.5,-200"/>
<text text-anchor="middle" x="917.5" y="-207" font-family="Helvetica,sans-Serif" font-size="10.00">AP_HAL::millis64</text>
</a>
</g>
</g>
<!-- Node21&#45;&gt;Node22 -->
<g id="edge21" class="edge"><title>Node21&#45;&gt;Node22</title>
<path fill="none" stroke="midnightblue" d="M791.5,-307.406C798.042,-304.367 804.427,-300.756 810,-296.5 831.477,-280.099 825.608,-265.233 846,-247.5 857.036,-237.903 870.906,-229.777 883.417,-223.533"/>
<polygon fill="midnightblue" stroke="midnightblue" points="885.129,-226.595 892.65,-219.133 882.117,-220.276 885.129,-226.595"/>
</g>
<!-- Node28 -->
<g id="node28" class="node"><title>Node28</title>
<g id="a_node28"><a xlink:href="$classLinux_1_1Thread.html#a6884970a0811ae21953c57fb98aa6e96" xlink:title="Linux::Thread::get\l_stack_usage">
<polygon fill="white" stroke="black" points="1678,-227.5 1678,-257.5 1773,-257.5 1773,-227.5 1678,-227.5"/>
<text text-anchor="start" x="1686" y="-245.5" font-family="Helvetica,sans-Serif" font-size="10.00">Linux::Thread::get</text>
<text text-anchor="middle" x="1725.5" y="-234.5" font-family="Helvetica,sans-Serif" font-size="10.00">_stack_usage</text>
</a>
</g>
</g>
<!-- Node21&#45;&gt;Node28 -->
<g id="edge31" class="edge"><title>Node21&#45;&gt;Node28</title>
<path fill="none" stroke="midnightblue" d="M791.717,-324.385C857.864,-328.215 982.619,-334.5 1089,-334.5 1089,-334.5 1089,-334.5 1426.5,-334.5 1523.75,-334.5 1631.23,-289.214 1686.71,-262.187"/>
<polygon fill="midnightblue" stroke="midnightblue" points="1688.39,-265.26 1695.81,-257.692 1685.29,-258.985 1688.39,-265.26"/>
</g>
<!-- Node22&#45;&gt;Node4 -->
<g id="edge22" class="edge"><title>Node22&#45;&gt;Node4</title>
<path fill="none" stroke="midnightblue" d="M870.281,-210.326C793.783,-213.034 637.073,-224.302 514,-270.5 486.568,-280.797 458.705,-300.022 440.833,-313.728"/>
<polygon fill="midnightblue" stroke="midnightblue" points="438.612,-311.022 432.908,-319.95 442.935,-316.528 438.612,-311.022"/>
</g>
<!-- Node22&#45;&gt;Node23 -->
<g id="edge23" class="edge"><title>Node22&#45;&gt;Node23</title>
<path fill="none" stroke="midnightblue" d="M933.931,-199.906C961.363,-182.852 1019.18,-146.908 1055.94,-124.051"/>
<polygon fill="midnightblue" stroke="midnightblue" points="1058.16,-126.794 1064.81,-118.542 1054.47,-120.849 1058.16,-126.794"/>
</g>
<!-- Node24 -->
<g id="node24" class="node"><title>Node24</title>
<g id="a_node24"><a xlink:href="$classLinux_1_1Scheduler.html#a647872aff158b510c56862f51f951538" xlink:title="Linux::Scheduler::microsleep">
<polygon fill="white" stroke="black" points="1191,-50 1191,-69 1334,-69 1334,-50 1191,-50"/>
<text text-anchor="middle" x="1262.5" y="-57" font-family="Helvetica,sans-Serif" font-size="10.00">Linux::Scheduler::microsleep</text>
</a>
</g>
</g>
<!-- Node23&#45;&gt;Node24 -->
<g id="edge24" class="edge"><title>Node23&#45;&gt;Node24</title>
<path fill="none" stroke="midnightblue" d="M1149.2,-88.4808C1170.57,-82.9648 1194.48,-76.7956 1214.72,-71.5716"/>
<polygon fill="midnightblue" stroke="midnightblue" points="1215.83,-74.9002 1224.64,-69.0124 1214.08,-68.1223 1215.83,-74.9002"/>
</g>
<!-- Node25 -->
<g id="node25" class="node"><title>Node25</title>
<g id="a_node25"><a xlink:href="$classLinux_1_1Scheduler.html#ab373a83d818679432520ea881044b2a7" xlink:title="Linux::Scheduler::teardown">
<polygon fill="white" stroke="black" points="1195,-91 1195,-110 1330,-110 1330,-91 1195,-91"/>
<text text-anchor="middle" x="1262.5" y="-98" font-family="Helvetica,sans-Serif" font-size="10.00">Linux::Scheduler::teardown</text>
</a>
</g>
</g>
<!-- Node23&#45;&gt;Node25 -->
<g id="edge25" class="edge"><title>Node23&#45;&gt;Node25</title>
<path fill="none" stroke="midnightblue" d="M1155.46,-102.366C1165.05,-102.197 1175.01,-102.022 1184.82,-101.849"/>
<polygon fill="midnightblue" stroke="midnightblue" points="1185.03,-105.346 1194.96,-101.671 1184.9,-98.3473 1185.03,-105.346"/>
</g>
<!-- Node26 -->
<g id="node26" class="node"><title>Node26</title>
<g id="a_node26"><a xlink:href="$classLinux_1_1PeriodicThread.html#a136aaf6e713f63b246fc4a2905e6e9a1" xlink:title="Linux::PeriodicThread\l::stop">
<polygon fill="white" stroke="black" points="1370,-85.5 1370,-115.5 1481,-115.5 1481,-85.5 1370,-85.5"/>
<text text-anchor="start" x="1378" y="-103.5" font-family="Helvetica,sans-Serif" font-size="10.00">Linux::PeriodicThread</text>
<text text-anchor="middle" x="1425.5" y="-92.5" font-family="Helvetica,sans-Serif" font-size="10.00">::stop</text>
</a>
</g>
</g>
<!-- Node25&#45;&gt;Node26 -->
<g id="edge26" class="edge"><title>Node25&#45;&gt;Node26</title>
<path fill="none" stroke="midnightblue" d="M1330.38,-100.5C1340.02,-100.5 1349.94,-100.5 1359.54,-100.5"/>
<polygon fill="midnightblue" stroke="midnightblue" points="1359.82,-104 1369.82,-100.5 1359.82,-97.0001 1359.82,-104"/>
</g>
<!-- Node30 -->
<g id="node30" class="node"><title>Node30</title>
<g id="a_node30"><a xlink:href="$classLinux_1_1Thread.html#a32b7d184279634922e2f3b23b584fbcd" xlink:title="Linux::Thread::join">
<polygon fill="white" stroke="black" points="1377,-47 1377,-66 1474,-66 1474,-47 1377,-47"/>
<text text-anchor="middle" x="1425.5" y="-54" font-family="Helvetica,sans-Serif" font-size="10.00">Linux::Thread::join</text>
</a>
</g>
</g>
<!-- Node25&#45;&gt;Node30 -->
<g id="edge30" class="edge"><title>Node25&#45;&gt;Node30</title>
<path fill="none" stroke="midnightblue" d="M1298.43,-90.9527C1322.28,-84.4373 1354.07,-75.7492 1379.76,-68.7278"/>
<polygon fill="midnightblue" stroke="midnightblue" points="1380.91,-72.0412 1389.63,-66.0287 1379.06,-65.2888 1380.91,-72.0412"/>
</g>
<!-- Node27 -->
<g id="node27" class="node"><title>Node27</title>
<g id="a_node27"><a xlink:href="$classLinux_1_1Thread.html#a240d7b48a9a8eb43638f67295a1819e5" xlink:title="Linux::Thread::is_started">
<polygon fill="white" stroke="black" points="1517,-138 1517,-157 1642,-157 1642,-138 1517,-138"/>
<text text-anchor="middle" x="1579.5" y="-145" font-family="Helvetica,sans-Serif" font-size="10.00">Linux::Thread::is_started</text>
</a>
</g>
</g>
<!-- Node26&#45;&gt;Node27 -->
<g id="edge27" class="edge"><title>Node26&#45;&gt;Node27</title>
<path fill="none" stroke="midnightblue" d="M1475.01,-115.5C1495.28,-121.769 1518.57,-128.97 1537.92,-134.951"/>
<polygon fill="midnightblue" stroke="midnightblue" points="1537.05,-138.346 1547.64,-137.957 1539.12,-131.659 1537.05,-138.346"/>
</g>
<!-- Node27&#45;&gt;Node28 -->
<g id="edge28" class="edge"><title>Node27&#45;&gt;Node28</title>
<path fill="none" stroke="midnightblue" d="M1595.1,-157.132C1617.94,-172.202 1662.66,-201.701 1693.06,-221.756"/>
<polygon fill="midnightblue" stroke="midnightblue" points="1691.33,-224.811 1701.61,-227.397 1695.19,-218.968 1691.33,-224.811"/>
</g>
<!-- Node29 -->
<g id="node29" class="node"><title>Node29</title>
<g id="a_node29"><a xlink:href="$classLinux_1_1Thread.html#a8d3282b714faaf68eae534e9276419f0" xlink:title="Linux::Thread::set\l_stack_size">
<polygon fill="white" stroke="black" points="1678,-132.5 1678,-162.5 1773,-162.5 1773,-132.5 1678,-132.5"/>
<text text-anchor="start" x="1686" y="-150.5" font-family="Helvetica,sans-Serif" font-size="10.00">Linux::Thread::set</text>
<text text-anchor="middle" x="1725.5" y="-139.5" font-family="Helvetica,sans-Serif" font-size="10.00">_stack_size</text>
</a>
</g>
</g>
<!-- Node27&#45;&gt;Node29 -->
<g id="edge29" class="edge"><title>Node27&#45;&gt;Node29</title>
<path fill="none" stroke="midnightblue" d="M1642.4,-147.5C1650.86,-147.5 1659.5,-147.5 1667.86,-147.5"/>
<polygon fill="midnightblue" stroke="midnightblue" points="1667.87,-151 1677.87,-147.5 1667.87,-144 1667.87,-151"/>
</g>
<!-- Node31&#45;&gt;Node22 -->
<g id="edge33" class="edge"><title>Node31&#45;&gt;Node22</title>
<path fill="none" stroke="midnightblue" d="M803.541,-196.986C821.877,-199.017 842.065,-201.254 860.241,-203.267"/>
<polygon fill="midnightblue" stroke="midnightblue" points="860.068,-206.769 870.392,-204.392 860.838,-199.812 860.068,-206.769"/>
</g>
<!-- Node31&#45;&gt;Node24 -->
<g id="edge34" class="edge"><title>Node31&#45;&gt;Node24</title>
<path fill="none" stroke="midnightblue" d="M763.375,-180.875C807.228,-158.42 922.034,-102.645 1025,-78.5 1075.89,-66.5659 1134.44,-61.7947 1180.56,-60.0174"/>
<polygon fill="midnightblue" stroke="midnightblue" points="1180.92,-63.5069 1190.8,-59.6638 1180.68,-56.5111 1180.92,-63.5069"/>
</g>
<!-- Node32&#45;&gt;Node24 -->
<g id="edge36" class="edge"><title>Node32&#45;&gt;Node24</title>
<path fill="none" stroke="midnightblue" d="M977.31,-22.885C1025.17,-28.9126 1094.46,-37.6806 1155,-45.5 1163.31,-46.573 1171.98,-47.7006 1180.63,-48.8304"/>
<polygon fill="midnightblue" stroke="midnightblue" points="1180.39,-52.3281 1190.76,-50.1548 1181.3,-45.3873 1180.39,-52.3281"/>
</g>
<!-- Node34&#45;&gt;Node13 -->
<g id="edge40" class="edge"><title>Node34&#45;&gt;Node13</title>
<path fill="none" stroke="midnightblue" d="M788.286,-355.483C795.664,-352.464 803.151,-349.101 810,-345.5 838.425,-330.556 868.388,-309.476 889.266,-293.808"/>
<polygon fill="midnightblue" stroke="midnightblue" points="891.503,-296.505 897.351,-287.67 887.27,-290.93 891.503,-296.505"/>
</g>
<!-- Node36 -->
<g id="node36" class="node"><title>Node36</title>
<g id="a_node36"><a xlink:href="$classLinux_1_1Semaphore.html#afc4c8706abb7e68aa4001ea372dc614e" xlink:title="Linux::Semaphore::take">
<polygon fill="white" stroke="black" points="857.5,-585 857.5,-604 977.5,-604 977.5,-585 857.5,-585"/>
<text text-anchor="middle" x="917.5" y="-592" font-family="Helvetica,sans-Serif" font-size="10.00">Linux::Semaphore::take</text>
</a>
</g>
</g>
<!-- Node35&#45;&gt;Node36 -->
<g id="edge42" class="edge"><title>Node35&#45;&gt;Node36</title>
<path fill="none" stroke="midnightblue" d="M810.326,-601.31C822.38,-600.537 835.006,-599.727 847.174,-598.947"/>
<polygon fill="midnightblue" stroke="midnightblue" points="847.509,-602.432 857.265,-598.299 847.061,-595.447 847.509,-602.432"/>
</g>
<!-- Node36&#45;&gt;Node3 -->
<g id="edge44" class="edge"><title>Node36&#45;&gt;Node3</title>
<path fill="none" stroke="midnightblue" d="M892.589,-604.118C827.546,-628.669 643.606,-687.235 514,-621.5 391.839,-559.541 310.973,-402.788 285.841,-348.418"/>
<polygon fill="midnightblue" stroke="midnightblue" points="288.995,-346.899 281.68,-339.235 282.619,-349.788 288.995,-346.899"/>
</g>
<!-- Node36&#45;&gt;Node11 -->
<g id="edge45" class="edge"><title>Node36&#45;&gt;Node11</title>
<path fill="none" stroke="midnightblue" d="M946.273,-584.889C970.435,-576.528 1006.13,-564.178 1035.77,-553.919"/>
<polygon fill="midnightblue" stroke="midnightblue" points="1037.26,-557.106 1045.57,-550.529 1034.98,-550.491 1037.26,-557.106"/>
</g>
<!-- Node37 -->
<g id="node37" class="node"><title>Node37</title>
<g id="a_node37"><a xlink:href="$classLinux_1_1Semaphore.html#a561b4f40f3a76335f1a686c2aed526f9" xlink:title="Linux::Semaphore::take\l_nonblocking">
<polygon fill="white" stroke="black" points="1030,-579.5 1030,-609.5 1150,-609.5 1150,-579.5 1030,-579.5"/>
<text text-anchor="start" x="1038" y="-597.5" font-family="Helvetica,sans-Serif" font-size="10.00">Linux::Semaphore::take</text>
<text text-anchor="middle" x="1090" y="-586.5" font-family="Helvetica,sans-Serif" font-size="10.00">_nonblocking</text>
</a>
</g>
</g>
<!-- Node36&#45;&gt;Node37 -->
<g id="edge43" class="edge"><title>Node36&#45;&gt;Node37</title>
<path fill="none" stroke="midnightblue" d="M977.654,-594.5C991.276,-594.5 1005.88,-594.5 1019.88,-594.5"/>
<polygon fill="midnightblue" stroke="midnightblue" points="1019.95,-598 1029.95,-594.5 1019.95,-591 1019.95,-598"/>
</g>
<!-- Node39 -->
<g id="node39" class="node"><title>Node39</title>
<g id="a_node39"><a xlink:href="$classLinux_1_1Semaphore.html#a216f91636f64b57b59d43ef64af91624" xlink:title="Linux::Semaphore::give">
<polygon fill="white" stroke="black" points="858,-539 858,-558 977,-558 977,-539 858,-539"/>
<text text-anchor="middle" x="917.5" y="-546" font-family="Helvetica,sans-Serif" font-size="10.00">Linux::Semaphore::give</text>
</a>
</g>
</g>
<!-- Node38&#45;&gt;Node39 -->
<g id="edge47" class="edge"><title>Node38&#45;&gt;Node39</title>
<path fill="none" stroke="midnightblue" d="M790.798,-473.615C797.37,-476.297 803.949,-479.275 810,-482.5 827.418,-491.781 829.392,-497.836 846,-508.5 860.007,-517.494 876.122,-526.716 889.406,-534.036"/>
<polygon fill="midnightblue" stroke="midnightblue" points="888.053,-537.285 898.508,-538.999 891.404,-531.139 888.053,-537.285"/>
</g>
<!-- Node42&#45;&gt;Node6 -->
<g id="edge51" class="edge"><title>Node42&#45;&gt;Node6</title>
<path fill="none" stroke="midnightblue" d="M642.407,-424.314C658.673,-422.727 675.971,-421.039 691.551,-419.519"/>
<polygon fill="midnightblue" stroke="midnightblue" points="691.9,-423.002 701.513,-418.547 691.221,-416.035 691.9,-423.002"/>
</g>
<!-- Node43 -->
<g id="node43" class="node"><title>Node43</title>
<g id="a_node43"><a xlink:href="$classLinux_1_1Scheduler.html#ac52c8da3f1f4fd79c50bd64379daf399" xlink:title="Linux::Scheduler::\l_wait_all_threads">
<polygon fill="white" stroke="black" points="696.5,-492.5 696.5,-522.5 791.5,-522.5 791.5,-492.5 696.5,-492.5"/>
<text text-anchor="start" x="704.5" y="-510.5" font-family="Helvetica,sans-Serif" font-size="10.00">Linux::Scheduler::</text>
<text text-anchor="middle" x="744" y="-499.5" font-family="Helvetica,sans-Serif" font-size="10.00">_wait_all_threads</text>
</a>
</g>
</g>
<!-- Node42&#45;&gt;Node43 -->
<g id="edge52" class="edge"><title>Node42&#45;&gt;Node43</title>
<path fill="none" stroke="midnightblue" d="M621.404,-445.525C628.433,-448.523 635.532,-451.877 642,-455.5 659.449,-465.275 660.5,-472.818 678,-482.5 681.69,-484.541 685.58,-486.49 689.549,-488.334"/>
<polygon fill="midnightblue" stroke="midnightblue" points="688.328,-491.621 698.891,-492.441 691.145,-485.213 688.328,-491.621"/>
</g>
<!-- Node46 -->
<g id="node46" class="node"><title>Node46</title>
<g id="a_node46"><a xlink:href="$classLinux_1_1Scheduler.html#a70b024d7d0886bf47b46cc3ee310d638" xlink:title="Linux::Scheduler::\l_run_io">
<polygon fill="white" stroke="black" points="696.5,-541.5 696.5,-571.5 791.5,-571.5 791.5,-541.5 696.5,-541.5"/>
<text text-anchor="start" x="704.5" y="-559.5" font-family="Helvetica,sans-Serif" font-size="10.00">Linux::Scheduler::</text>
<text text-anchor="middle" x="744" y="-548.5" font-family="Helvetica,sans-Serif" font-size="10.00">_run_io</text>
</a>
</g>
</g>
<!-- Node45&#45;&gt;Node46 -->
<g id="edge55" class="edge"><title>Node45&#45;&gt;Node46</title>
<path fill="none" stroke="midnightblue" d="M635.439,-531.577C651.86,-535.382 669.799,-539.539 686.239,-543.348"/>
<polygon fill="midnightblue" stroke="midnightblue" points="685.723,-546.821 696.255,-545.669 687.303,-540.002 685.723,-546.821"/>
</g>
<!-- Node46&#45;&gt;Node36 -->
<g id="edge56" class="edge"><title>Node46&#45;&gt;Node36</title>
<path fill="none" stroke="midnightblue" d="M791.863,-566.884C814.066,-571.803 840.681,-577.7 863.605,-582.78"/>
<polygon fill="midnightblue" stroke="midnightblue" points="862.993,-586.229 873.514,-584.975 864.508,-579.395 862.993,-586.229"/>
</g>
<!-- Node46&#45;&gt;Node39 -->
<g id="edge57" class="edge"><title>Node46&#45;&gt;Node39</title>
<path fill="none" stroke="midnightblue" d="M791.863,-554.314C809.017,-553.514 828.806,-552.591 847.491,-551.719"/>
<polygon fill="midnightblue" stroke="midnightblue" points="847.908,-555.204 857.734,-551.241 847.582,-548.211 847.908,-555.204"/>
</g>
</g>
</svg>
