<?xml version="1.0" encoding="UTF-8" standalone="no"?>
<!DOCTYPE svg PUBLIC "-//W3C//DTD SVG 1.1//EN"
 "http://www.w3.org/Graphics/SVG/1.1/DTD/svg11.dtd">
<!-- Generated by graphviz version 2.38.0 (20140413.2041)
 -->
<!-- Title: be16toh Pages: 1 -->
<svg width="1655pt" height="581pt"
 viewBox="0.00 0.00 1655.00 581.00" xmlns="http://www.w3.org/2000/svg" xmlns:xlink="http://www.w3.org/1999/xlink">
<g id="graph0" class="graph" transform="scale(1 1) rotate(0) translate(4 577)">
<title>be16toh</title>
<polygon fill="white" stroke="none" points="-4,4 -4,-577 1651,-577 1651,4 -4,4"/>
<!-- Node1 -->
<g id="node1" class="node"><title>Node1</title>
<polygon fill="#bfbfbf" stroke="black" points="0,-329 0,-348 51,-348 51,-329 0,-329"/>
<text text-anchor="middle" x="25.5" y="-336" font-family="Helvetica,sans-Serif" font-size="10.00">be16toh</text>
</g>
<!-- Node2 -->
<g id="node2" class="node"><title>Node2</title>
<g id="a_node2"><a xlink:href="$classLinux_1_1RCOutput__AeroIO.html#aedb244d50a9ebfef538c7535f199a4cc" xlink:title="Linux::RCOutput_AeroIO\l::_hw_read">
<polygon fill="white" stroke="black" points="97.5,-537.5 97.5,-567.5 223.5,-567.5 223.5,-537.5 97.5,-537.5"/>
<text text-anchor="start" x="105.5" y="-555.5" font-family="Helvetica,sans-Serif" font-size="10.00">Linux::RCOutput_AeroIO</text>
<text text-anchor="middle" x="160.5" y="-544.5" font-family="Helvetica,sans-Serif" font-size="10.00">::_hw_read</text>
</a>
</g>
</g>
<!-- Node1&#45;&gt;Node2 -->
<g id="edge1" class="edge"><title>Node1&#45;&gt;Node2</title>
<path fill="none" stroke="midnightblue" d="M27.4983,-358.087C30.4259,-395.339 41.9211,-476.915 87,-524.5 91.9181,-529.692 97.9073,-533.934 104.313,-537.397"/>
<polygon fill="midnightblue" stroke="midnightblue" points="30.9861,-357.785 26.8371,-348.036 24.0012,-358.244 30.9861,-357.785"/>
</g>
<!-- Node5 -->
<g id="node5" class="node"><title>Node5</title>
<g id="a_node5"><a xlink:href="$classLinux_1_1RCOutput__Bebop.html#a1baaeabaade1ea15e4c770c9277821cc" xlink:title="Linux::RCOutput_Bebop\l::_run_rcout">
<polygon fill="white" stroke="black" points="99,-484.5 99,-514.5 222,-514.5 222,-484.5 99,-484.5"/>
<text text-anchor="start" x="107" y="-502.5" font-family="Helvetica,sans-Serif" font-size="10.00">Linux::RCOutput_Bebop</text>
<text text-anchor="middle" x="160.5" y="-491.5" font-family="Helvetica,sans-Serif" font-size="10.00">::_run_rcout</text>
</a>
</g>
</g>
<!-- Node1&#45;&gt;Node5 -->
<g id="edge4" class="edge"><title>Node1&#45;&gt;Node5</title>
<path fill="none" stroke="midnightblue" d="M31.1963,-358.16C38.6832,-385.667 55.7681,-435.714 87,-466.5 94.4852,-473.878 103.916,-479.784 113.477,-484.442"/>
<polygon fill="midnightblue" stroke="midnightblue" points="34.5121,-357 28.6364,-348.183 27.7317,-358.739 34.5121,-357"/>
</g>
<!-- Node13 -->
<g id="node13" class="node"><title>Node13</title>
<g id="a_node13"><a xlink:href="$classAP__ADC__ADS1115.html#a1c523a000d6cb67770e04e3821cc54b3" xlink:title="AP_ADC_ADS1115::_update">
<polygon fill="white" stroke="black" points="88,-438 88,-457 233,-457 233,-438 88,-438"/>
<text text-anchor="middle" x="160.5" y="-445" font-family="Helvetica,sans-Serif" font-size="10.00">AP_ADC_ADS1115::_update</text>
</a>
</g>
</g>
<!-- Node1&#45;&gt;Node13 -->
<g id="edge12" class="edge"><title>Node1&#45;&gt;Node13</title>
<path fill="none" stroke="midnightblue" d="M38.2363,-356.595C49.3145,-372.598 67.1523,-395.781 87,-411.5 101.101,-422.668 119.226,-431.668 133.826,-437.876"/>
<polygon fill="midnightblue" stroke="midnightblue" points="41.0163,-354.457 32.5307,-348.113 35.208,-358.364 41.0163,-354.457"/>
</g>
<!-- Node15 -->
<g id="node15" class="node"><title>Node15</title>
<g id="a_node15"><a xlink:href="$classAP__RangeFinder__LightWareI2C.html#a37ea263e851b88939137c355193087d7" xlink:title="AP_RangeFinder_LightWare\lI2C::get_reading">
<polygon fill="white" stroke="black" points="90.5,-372.5 90.5,-402.5 230.5,-402.5 230.5,-372.5 90.5,-372.5"/>
<text text-anchor="start" x="98.5" y="-390.5" font-family="Helvetica,sans-Serif" font-size="10.00">AP_RangeFinder_LightWare</text>
<text text-anchor="middle" x="160.5" y="-379.5" font-family="Helvetica,sans-Serif" font-size="10.00">I2C::get_reading</text>
</a>
</g>
</g>
<!-- Node1&#45;&gt;Node15 -->
<g id="edge14" class="edge"><title>Node1&#45;&gt;Node15</title>
<path fill="none" stroke="midnightblue" d="M59.3052,-351.829C68.2555,-355.379 77.9738,-359.155 87,-362.5 95.9889,-365.831 105.656,-369.266 114.91,-372.482"/>
<polygon fill="midnightblue" stroke="midnightblue" points="60.5486,-348.557 49.9637,-348.096 57.9512,-355.057 60.5486,-348.557"/>
</g>
<!-- Node24 -->
<g id="node24" class="node"><title>Node24</title>
<g id="a_node24"><a xlink:href="$classAP__RangeFinder__MaxsonarI2CXL.html#a43b8ffc54c0ed66221d0bb61c3e181e9" xlink:title="AP_RangeFinder_MaxsonarI2\lCXL::get_reading">
<polygon fill="white" stroke="black" points="87,-323.5 87,-353.5 234,-353.5 234,-323.5 87,-323.5"/>
<text text-anchor="start" x="95" y="-341.5" font-family="Helvetica,sans-Serif" font-size="10.00">AP_RangeFinder_MaxsonarI2</text>
<text text-anchor="middle" x="160.5" y="-330.5" font-family="Helvetica,sans-Serif" font-size="10.00">CXL::get_reading</text>
</a>
</g>
</g>
<!-- Node1&#45;&gt;Node24 -->
<g id="edge25" class="edge"><title>Node1&#45;&gt;Node24</title>
<path fill="none" stroke="midnightblue" d="M61.452,-338.5C69.3625,-338.5 78.0482,-338.5 86.8791,-338.5"/>
<polygon fill="midnightblue" stroke="midnightblue" points="61.2046,-335 51.2046,-338.5 61.2045,-342 61.2046,-335"/>
</g>
<!-- Node28 -->
<g id="node28" class="node"><title>Node28</title>
<g id="a_node28"><a xlink:href="$classLinux_1_1RCOutput__Bebop.html#a9677ebab86aaf1aa198ed78800783bd0" xlink:title="Linux::RCOutput_Bebop\l::read_obs_data">
<polygon fill="white" stroke="black" points="99,-274.5 99,-304.5 222,-304.5 222,-274.5 99,-274.5"/>
<text text-anchor="start" x="107" y="-292.5" font-family="Helvetica,sans-Serif" font-size="10.00">Linux::RCOutput_Bebop</text>
<text text-anchor="middle" x="160.5" y="-281.5" font-family="Helvetica,sans-Serif" font-size="10.00">::read_obs_data</text>
</a>
</g>
</g>
<!-- Node1&#45;&gt;Node28 -->
<g id="edge31" class="edge"><title>Node1&#45;&gt;Node28</title>
<path fill="none" stroke="midnightblue" d="M57.7916,-325.066C67.1329,-321.192 77.4329,-317.055 87,-313.5 95.2027,-310.452 103.995,-307.381 112.527,-304.5"/>
<polygon fill="midnightblue" stroke="midnightblue" points="56.344,-321.877 48.4748,-328.972 59.0504,-328.333 56.344,-321.877"/>
</g>
<!-- Node29 -->
<g id="node29" class="node"><title>Node29</title>
<g id="a_node29"><a xlink:href="$classAP__Airspeed__MS5525.html#a3badcd3b44c11df697e83d7181f88f8a" xlink:title="AP_Airspeed_MS5525\l::read_prom">
<polygon fill="white" stroke="black" points="103,-225.5 103,-255.5 218,-255.5 218,-225.5 103,-225.5"/>
<text text-anchor="start" x="111" y="-243.5" font-family="Helvetica,sans-Serif" font-size="10.00">AP_Airspeed_MS5525</text>
<text text-anchor="middle" x="160.5" y="-232.5" font-family="Helvetica,sans-Serif" font-size="10.00">::read_prom</text>
</a>
</g>
</g>
<!-- Node1&#45;&gt;Node29 -->
<g id="edge32" class="edge"><title>Node1&#45;&gt;Node29</title>
<path fill="none" stroke="midnightblue" d="M37.3251,-319.997C47.9891,-303.281 65.7423,-279.123 87,-264.5 91.9156,-261.119 97.3432,-258.184 102.951,-255.645"/>
<polygon fill="midnightblue" stroke="midnightblue" points="34.1392,-318.497 31.8926,-328.851 40.1056,-322.158 34.1392,-318.497"/>
</g>
<!-- Node32 -->
<g id="node32" class="node"><title>Node32</title>
<g id="a_node32"><a xlink:href="$classAP__RangeFinder__VL53L0X.html#afa09743a6e90f65c6d3b8367ba86cd35" xlink:title="AP_RangeFinder_VL53L0X\l::read_register16">
<polygon fill="white" stroke="black" points="92.5,-142.5 92.5,-172.5 228.5,-172.5 228.5,-142.5 92.5,-142.5"/>
<text text-anchor="start" x="100.5" y="-160.5" font-family="Helvetica,sans-Serif" font-size="10.00">AP_RangeFinder_VL53L0X</text>
<text text-anchor="middle" x="160.5" y="-149.5" font-family="Helvetica,sans-Serif" font-size="10.00">::read_register16</text>
</a>
</g>
</g>
<!-- Node1&#45;&gt;Node32 -->
<g id="edge36" class="edge"><title>Node1&#45;&gt;Node32</title>
<path fill="none" stroke="midnightblue" d="M33.006,-319.103C42.2272,-293.526 60.9241,-247.972 87,-215.5 100.726,-198.407 120.33,-183.106 135.692,-172.518"/>
<polygon fill="midnightblue" stroke="midnightblue" points="29.6316,-318.15 29.6404,-328.745 36.2406,-320.457 29.6316,-318.15"/>
</g>
<!-- Node40 -->
<g id="node40" class="node"><title>Node40</title>
<g id="a_node40"><a xlink:href="$classAP__RangeFinder__PulsedLightLRF.html#a14a616968340128e69452cb742254f50" xlink:title="AP_RangeFinder_PulsedLight\lLRF::timer">
<polygon fill="white" stroke="black" points="87,-44.5 87,-74.5 234,-74.5 234,-44.5 87,-44.5"/>
<text text-anchor="start" x="95" y="-62.5" font-family="Helvetica,sans-Serif" font-size="10.00">AP_RangeFinder_PulsedLight</text>
<text text-anchor="middle" x="160.5" y="-51.5" font-family="Helvetica,sans-Serif" font-size="10.00">LRF::timer</text>
</a>
</g>
</g>
<!-- Node1&#45;&gt;Node40 -->
<g id="edge47" class="edge"><title>Node1&#45;&gt;Node40</title>
<path fill="none" stroke="midnightblue" d="M29.0355,-318.484C34.5922,-280.095 50.3901,-194.441 87,-132.5 100.724,-109.281 123.481,-88.0553 139.841,-74.5497"/>
<polygon fill="midnightblue" stroke="midnightblue" points="25.5118,-318.42 27.6281,-328.802 32.4476,-319.366 25.5118,-318.42"/>
</g>
<!-- Node3 -->
<g id="node3" class="node"><title>Node3</title>
<g id="a_node3"><a xlink:href="$classLinux_1_1RCOutput__AeroIO.html#a084bf527cf94c118878b1a8ef35a1c7f" xlink:title="Linux::RCOutput_AeroIO\l::read">
<polygon fill="white" stroke="black" points="280.5,-542.5 280.5,-572.5 406.5,-572.5 406.5,-542.5 280.5,-542.5"/>
<text text-anchor="start" x="288.5" y="-560.5" font-family="Helvetica,sans-Serif" font-size="10.00">Linux::RCOutput_AeroIO</text>
<text text-anchor="middle" x="343.5" y="-549.5" font-family="Helvetica,sans-Serif" font-size="10.00">::read</text>
</a>
</g>
</g>
<!-- Node2&#45;&gt;Node3 -->
<g id="edge2" class="edge"><title>Node2&#45;&gt;Node3</title>
<path fill="none" stroke="midnightblue" d="M233.559,-554.491C249.005,-554.917 265.199,-555.365 280.237,-555.78"/>
<polygon fill="midnightblue" stroke="midnightblue" points="233.63,-550.991 223.537,-554.214 233.436,-557.989 233.63,-550.991"/>
</g>
<!-- Node4 -->
<g id="node4" class="node"><title>Node4</title>
<g id="a_node4"><a xlink:href="$classLinux_1_1RCOutput__AeroIO.html#a559c6f571078c7f5bf8abe1b4683f7e4" xlink:title="Linux::RCOutput_AeroIO\l::read">
<polygon fill="white" stroke="black" points="467.5,-542.5 467.5,-572.5 593.5,-572.5 593.5,-542.5 467.5,-542.5"/>
<text text-anchor="start" x="475.5" y="-560.5" font-family="Helvetica,sans-Serif" font-size="10.00">Linux::RCOutput_AeroIO</text>
<text text-anchor="middle" x="530.5" y="-549.5" font-family="Helvetica,sans-Serif" font-size="10.00">::read</text>
</a>
</g>
</g>
<!-- Node3&#45;&gt;Node4 -->
<g id="edge3" class="edge"><title>Node3&#45;&gt;Node4</title>
<path fill="none" stroke="midnightblue" d="M416.844,-557.5C433.491,-557.5 451.055,-557.5 467.232,-557.5"/>
<polygon fill="midnightblue" stroke="midnightblue" points="416.617,-554 406.617,-557.5 416.617,-561 416.617,-554"/>
</g>
<!-- Node6 -->
<g id="node6" class="node"><title>Node6</title>
<g id="a_node6"><a xlink:href="$classLinux_1_1RCOutput__Bebop.html#a268f09061922bcc792a67fabf70617bc" xlink:title="Linux::RCOutput_Bebop\l::_control_thread">
<polygon fill="white" stroke="black" points="282,-493.5 282,-523.5 405,-523.5 405,-493.5 282,-493.5"/>
<text text-anchor="start" x="290" y="-511.5" font-family="Helvetica,sans-Serif" font-size="10.00">Linux::RCOutput_Bebop</text>
<text text-anchor="middle" x="343.5" y="-500.5" font-family="Helvetica,sans-Serif" font-size="10.00">::_control_thread</text>
</a>
</g>
</g>
<!-- Node5&#45;&gt;Node6 -->
<g id="edge5" class="edge"><title>Node5&#45;&gt;Node6</title>
<path fill="none" stroke="midnightblue" d="M232.091,-503.01C248.485,-503.825 265.797,-504.686 281.727,-505.478"/>
<polygon fill="midnightblue" stroke="midnightblue" points="232.184,-499.51 222.022,-502.509 231.836,-506.502 232.184,-499.51"/>
</g>
<!-- Node7 -->
<g id="node7" class="node"><title>Node7</title>
<g id="a_node7"><a xlink:href="$classLinux_1_1RCOutput__Bebop.html#abcfe02fe9d864e772312746047ab048e" xlink:title="Linux::RCOutput_Bebop\l::init">
<polygon fill="white" stroke="black" points="469,-493.5 469,-523.5 592,-523.5 592,-493.5 469,-493.5"/>
<text text-anchor="start" x="477" y="-511.5" font-family="Helvetica,sans-Serif" font-size="10.00">Linux::RCOutput_Bebop</text>
<text text-anchor="middle" x="530.5" y="-500.5" font-family="Helvetica,sans-Serif" font-size="10.00">::init</text>
</a>
</g>
</g>
<!-- Node6&#45;&gt;Node7 -->
<g id="edge6" class="edge"><title>Node6&#45;&gt;Node7</title>
<path fill="none" stroke="midnightblue" d="M415.309,-508.5C432.942,-508.5 451.69,-508.5 468.788,-508.5"/>
<polygon fill="midnightblue" stroke="midnightblue" points="415.076,-505 405.076,-508.5 415.076,-512 415.076,-505"/>
</g>
<!-- Node8 -->
<g id="node8" class="node"><title>Node8</title>
<g id="a_node8"><a xlink:href="$classLinux_1_1RCOutput__Disco.html#aa7c4f715a6e793972896389de9d642ad" xlink:title="Linux::RCOutput_Disco\l::init">
<polygon fill="white" stroke="black" points="657,-493.5 657,-523.5 778,-523.5 778,-493.5 657,-493.5"/>
<text text-anchor="start" x="665" y="-511.5" font-family="Helvetica,sans-Serif" font-size="10.00">Linux::RCOutput_Disco</text>
<text text-anchor="middle" x="717.5" y="-500.5" font-family="Helvetica,sans-Serif" font-size="10.00">::init</text>
</a>
</g>
</g>
<!-- Node7&#45;&gt;Node8 -->
<g id="edge7" class="edge"><title>Node7&#45;&gt;Node8</title>
<path fill="none" stroke="midnightblue" d="M602.218,-508.5C620.204,-508.5 639.355,-508.5 656.735,-508.5"/>
<polygon fill="midnightblue" stroke="midnightblue" points="602.076,-505 592.076,-508.5 602.076,-512 602.076,-505"/>
</g>
<!-- Node9 -->
<g id="node9" class="node"><title>Node9</title>
<g id="a_node9"><a xlink:href="$classLinux_1_1RCOutput__Disco.html#a8692caab118bef928bbc9cc2a0a494b9" xlink:title="Linux::RCOutput_Disco\l::from">
<polygon fill="white" stroke="black" points="840,-493.5 840,-523.5 961,-523.5 961,-493.5 840,-493.5"/>
<text text-anchor="start" x="848" y="-511.5" font-family="Helvetica,sans-Serif" font-size="10.00">Linux::RCOutput_Disco</text>
<text text-anchor="middle" x="900.5" y="-500.5" font-family="Helvetica,sans-Serif" font-size="10.00">::from</text>
</a>
</g>
</g>
<!-- Node8&#45;&gt;Node9 -->
<g id="edge8" class="edge"><title>Node8&#45;&gt;Node9</title>
<path fill="none" stroke="midnightblue" d="M788.449,-508.5C805.452,-508.5 823.477,-508.5 839.947,-508.5"/>
<polygon fill="midnightblue" stroke="midnightblue" points="788.017,-505 778.017,-508.5 788.017,-512 788.017,-505"/>
</g>
<!-- Node10 -->
<g id="node10" class="node"><title>Node10</title>
<g id="a_node10"><a xlink:href="$classAP__BattMonitor__Bebop.html#a21f5d7fd4482fff9ca7d42b91770871b" xlink:title="AP_BattMonitor_Bebop\l::read">
<polygon fill="white" stroke="black" points="1012.5,-517.5 1012.5,-547.5 1131.5,-547.5 1131.5,-517.5 1012.5,-517.5"/>
<text text-anchor="start" x="1020.5" y="-535.5" font-family="Helvetica,sans-Serif" font-size="10.00">AP_BattMonitor_Bebop</text>
<text text-anchor="middle" x="1072" y="-524.5" font-family="Helvetica,sans-Serif" font-size="10.00">::read</text>
</a>
</g>
</g>
<!-- Node9&#45;&gt;Node10 -->
<g id="edge9" class="edge"><title>Node9&#45;&gt;Node10</title>
<path fill="none" stroke="midnightblue" d="M971.515,-518.414C985.09,-520.336 999.186,-522.332 1012.35,-524.196"/>
<polygon fill="midnightblue" stroke="midnightblue" points="971.651,-514.898 961.259,-516.962 970.67,-521.829 971.651,-514.898"/>
</g>
<!-- Node12 -->
<g id="node12" class="node"><title>Node12</title>
<g id="a_node12"><a xlink:href="$classLinux_1_1ToneAlarm__Disco.html#a4560b4c776576123f40fbd85a3f9da37" xlink:title="Linux::ToneAlarm_Disco\l::init">
<polygon fill="white" stroke="black" points="1010,-468.5 1010,-498.5 1134,-498.5 1134,-468.5 1010,-468.5"/>
<text text-anchor="start" x="1018" y="-486.5" font-family="Helvetica,sans-Serif" font-size="10.00">Linux::ToneAlarm_Disco</text>
<text text-anchor="middle" x="1072" y="-475.5" font-family="Helvetica,sans-Serif" font-size="10.00">::init</text>
</a>
</g>
</g>
<!-- Node9&#45;&gt;Node12 -->
<g id="edge11" class="edge"><title>Node9&#45;&gt;Node12</title>
<path fill="none" stroke="midnightblue" d="M971.357,-498.197C984.1,-496.317 997.307,-494.369 1009.78,-492.53"/>
<polygon fill="midnightblue" stroke="midnightblue" points="970.642,-494.764 961.259,-499.686 971.663,-501.689 970.642,-494.764"/>
</g>
<!-- Node11 -->
<g id="node11" class="node"><title>Node11</title>
<g id="a_node11"><a xlink:href="$classAP__BattMonitor__Bebop.html#ae3bddd45e54f95f4641bf52fa8d32f8a" xlink:title="AP_BattMonitor_Bebop\l::~AP_BattMonitor_Bebop">
<polygon fill="white" stroke="black" points="1170,-517.5 1170,-547.5 1301,-547.5 1301,-517.5 1170,-517.5"/>
<text text-anchor="start" x="1178" y="-535.5" font-family="Helvetica,sans-Serif" font-size="10.00">AP_BattMonitor_Bebop</text>
<text text-anchor="middle" x="1235.5" y="-524.5" font-family="Helvetica,sans-Serif" font-size="10.00">::~AP_BattMonitor_Bebop</text>
</a>
</g>
</g>
<!-- Node10&#45;&gt;Node11 -->
<g id="edge10" class="edge"><title>Node10&#45;&gt;Node11</title>
<path fill="none" stroke="midnightblue" d="M1142.04,-532.5C1151.24,-532.5 1160.65,-532.5 1169.78,-532.5"/>
<polygon fill="midnightblue" stroke="midnightblue" points="1141.76,-529 1131.76,-532.5 1141.76,-536 1141.76,-529"/>
</g>
<!-- Node14 -->
<g id="node14" class="node"><title>Node14</title>
<g id="a_node14"><a xlink:href="$classAP__ADC__ADS1115.html#ab9dda3a5715a514b78effc0164e6a1c9" xlink:title="AP_ADC_ADS1115::init">
<polygon fill="white" stroke="black" points="282,-455 282,-474 405,-474 405,-455 282,-455"/>
<text text-anchor="middle" x="343.5" y="-462" font-family="Helvetica,sans-Serif" font-size="10.00">AP_ADC_ADS1115::init</text>
</a>
</g>
</g>
<!-- Node13&#45;&gt;Node14 -->
<g id="edge13" class="edge"><title>Node13&#45;&gt;Node14</title>
<path fill="none" stroke="midnightblue" d="M242.998,-455.154C256.114,-456.386 269.485,-457.642 281.994,-458.817"/>
<polygon fill="midnightblue" stroke="midnightblue" points="243.319,-451.669 233.036,-454.219 242.665,-458.639 243.319,-451.669"/>
</g>
<!-- Node16 -->
<g id="node16" class="node"><title>Node16</title>
<g id="a_node16"><a xlink:href="$classAP__RangeFinder__LightWareI2C.html#a8244a17a7b5b90e559e999a1cb5dc40a" xlink:title="AP_RangeFinder_LightWare\lI2C::detect">
<polygon fill="white" stroke="black" points="647.5,-367.5 647.5,-397.5 787.5,-397.5 787.5,-367.5 647.5,-367.5"/>
<text text-anchor="start" x="655.5" y="-385.5" font-family="Helvetica,sans-Serif" font-size="10.00">AP_RangeFinder_LightWare</text>
<text text-anchor="middle" x="717.5" y="-374.5" font-family="Helvetica,sans-Serif" font-size="10.00">I2C::detect</text>
</a>
</g>
</g>
<!-- Node15&#45;&gt;Node16 -->
<g id="edge15" class="edge"><title>Node15&#45;&gt;Node16</title>
<path fill="none" stroke="midnightblue" d="M240.857,-403.024C250.639,-404.456 260.526,-405.677 270,-406.5 419.658,-419.505 458.667,-422.819 608,-406.5 624.877,-404.656 642.971,-401.243 659.453,-397.559"/>
<polygon fill="midnightblue" stroke="midnightblue" points="241.138,-399.527 230.722,-401.463 240.073,-406.445 241.138,-399.527"/>
</g>
<!-- Node22 -->
<g id="node22" class="node"><title>Node22</title>
<g id="a_node22"><a xlink:href="$classAP__RangeFinder__LightWareI2C.html#af397f083c33ab36aab840d89831b0e7d" xlink:title="AP_RangeFinder_LightWare\lI2C::timer">
<polygon fill="white" stroke="black" points="273.5,-367.5 273.5,-397.5 413.5,-397.5 413.5,-367.5 273.5,-367.5"/>
<text text-anchor="start" x="281.5" y="-385.5" font-family="Helvetica,sans-Serif" font-size="10.00">AP_RangeFinder_LightWare</text>
<text text-anchor="middle" x="343.5" y="-374.5" font-family="Helvetica,sans-Serif" font-size="10.00">I2C::timer</text>
</a>
</g>
</g>
<!-- Node15&#45;&gt;Node22 -->
<g id="edge22" class="edge"><title>Node15&#45;&gt;Node22</title>
<path fill="none" stroke="midnightblue" d="M240.96,-385.305C251.748,-385.007 262.748,-384.703 273.335,-384.411"/>
<polygon fill="midnightblue" stroke="midnightblue" points="240.603,-381.813 230.703,-385.588 240.796,-388.811 240.603,-381.813"/>
</g>
<!-- Node17 -->
<g id="node17" class="node"><title>Node17</title>
<g id="a_node17"><a xlink:href="$classRangeFinder.html#a7f7f9dce880eb37d53df67cba39bdda9" xlink:title="RangeFinder::detect\l_instance">
<polygon fill="white" stroke="black" points="1019.5,-162.5 1019.5,-192.5 1124.5,-192.5 1124.5,-162.5 1019.5,-162.5"/>
<text text-anchor="start" x="1027.5" y="-180.5" font-family="Helvetica,sans-Serif" font-size="10.00">RangeFinder::detect</text>
<text text-anchor="middle" x="1072" y="-169.5" font-family="Helvetica,sans-Serif" font-size="10.00">_instance</text>
</a>
</g>
</g>
<!-- Node16&#45;&gt;Node17 -->
<g id="edge16" class="edge"><title>Node16&#45;&gt;Node17</title>
<path fill="none" stroke="midnightblue" d="M761.368,-363.075C813.124,-339.011 902.165,-295.638 974,-250.5 1002.73,-232.446 1033.69,-208.228 1052.71,-192.739"/>
<polygon fill="midnightblue" stroke="midnightblue" points="759.756,-359.964 752.15,-367.34 762.696,-366.317 759.756,-359.964"/>
</g>
<!-- Node18 -->
<g id="node18" class="node"><title>Node18</title>
<g id="a_node18"><a xlink:href="$classRangeFinder.html#a1c2d6a488e35a856814b5d48ca3d5d9e" xlink:title="RangeFinder::init">
<polygon fill="white" stroke="black" points="1190,-168 1190,-187 1281,-187 1281,-168 1190,-168"/>
<text text-anchor="middle" x="1235.5" y="-175" font-family="Helvetica,sans-Serif" font-size="10.00">RangeFinder::init</text>
</a>
</g>
</g>
<!-- Node17&#45;&gt;Node18 -->
<g id="edge17" class="edge"><title>Node17&#45;&gt;Node18</title>
<path fill="none" stroke="midnightblue" d="M1134.61,-177.5C1153.03,-177.5 1172.86,-177.5 1189.97,-177.5"/>
<polygon fill="midnightblue" stroke="midnightblue" points="1134.54,-174 1124.54,-177.5 1134.54,-181 1134.54,-174"/>
</g>
<!-- Node19 -->
<g id="node19" class="node"><title>Node19</title>
<g id="a_node19"><a xlink:href="$RFIND__test_8cpp.html#a4fc01d736fe50cf5b977f755b675f11d" xlink:title="setup">
<polygon fill="white" stroke="black" points="1558,-187 1558,-206 1599,-206 1599,-187 1558,-187"/>
<text text-anchor="middle" x="1578.5" y="-194" font-family="Helvetica,sans-Serif" font-size="10.00">setup</text>
</a>
</g>
</g>
<!-- Node18&#45;&gt;Node19 -->
<g id="edge18" class="edge"><title>Node18&#45;&gt;Node19</title>
<path fill="none" stroke="midnightblue" d="M1291.13,-180.544C1368.56,-184.858 1506.51,-192.544 1557.68,-195.396"/>
<polygon fill="midnightblue" stroke="midnightblue" points="1291.26,-177.046 1281.08,-179.984 1290.87,-184.035 1291.26,-177.046"/>
</g>
<!-- Node20 -->
<g id="node20" class="node"><title>Node20</title>
<g id="a_node20"><a xlink:href="$classRangeFinder.html#a95856f52f03d5234d587600faedcbfaf" xlink:title="RangeFinder::num_sensors">
<polygon fill="white" stroke="black" points="1337,-149 1337,-168 1474,-168 1474,-149 1337,-149"/>
<text text-anchor="middle" x="1405.5" y="-156" font-family="Helvetica,sans-Serif" font-size="10.00">RangeFinder::num_sensors</text>
</a>
</g>
</g>
<!-- Node18&#45;&gt;Node20 -->
<g id="edge19" class="edge"><title>Node18&#45;&gt;Node20</title>
<path fill="none" stroke="midnightblue" d="M1291.4,-171.291C1305.93,-169.648 1321.79,-167.854 1336.91,-166.144"/>
<polygon fill="midnightblue" stroke="midnightblue" points="1290.62,-167.857 1281.08,-172.458 1291.41,-174.812 1290.62,-167.857"/>
</g>
<!-- Node20&#45;&gt;Node19 -->
<g id="edge21" class="edge"><title>Node20&#45;&gt;Node19</title>
<path fill="none" stroke="midnightblue" d="M1459.69,-170.32C1492.92,-177.703 1533.77,-186.783 1557.6,-192.078"/>
<polygon fill="midnightblue" stroke="midnightblue" points="1460.17,-166.842 1449.65,-168.089 1458.65,-173.675 1460.17,-166.842"/>
</g>
<!-- Node21 -->
<g id="node21" class="node"><title>Node21</title>
<g id="a_node21"><a xlink:href="$classAP__Proximity__RangeFinder.html#a00972bd55509a984f8a71c4cfdb78445" xlink:title="AP_Proximity_RangeFinder\l::update">
<polygon fill="white" stroke="black" points="1510,-137.5 1510,-167.5 1647,-167.5 1647,-137.5 1510,-137.5"/>
<text text-anchor="start" x="1518" y="-155.5" font-family="Helvetica,sans-Serif" font-size="10.00">AP_Proximity_RangeFinder</text>
<text text-anchor="middle" x="1578.5" y="-144.5" font-family="Helvetica,sans-Serif" font-size="10.00">::update</text>
</a>
</g>
</g>
<!-- Node20&#45;&gt;Node21 -->
<g id="edge20" class="edge"><title>Node20&#45;&gt;Node21</title>
<path fill="none" stroke="midnightblue" d="M1484.1,-155.777C1492.69,-155.476 1501.39,-155.17 1509.85,-154.874"/>
<polygon fill="midnightblue" stroke="midnightblue" points="1483.95,-152.28 1474.08,-156.129 1484.2,-159.276 1483.95,-152.28"/>
</g>
<!-- Node23 -->
<g id="node23" class="node"><title>Node23</title>
<g id="a_node23"><a xlink:href="$classAP__RangeFinder__LightWareI2C.html#a4ecab260116f4b01a5e0853b3830736a" xlink:title="AP_RangeFinder_LightWare\lI2C::init">
<polygon fill="white" stroke="black" points="460.5,-367.5 460.5,-397.5 600.5,-397.5 600.5,-367.5 460.5,-367.5"/>
<text text-anchor="start" x="468.5" y="-385.5" font-family="Helvetica,sans-Serif" font-size="10.00">AP_RangeFinder_LightWare</text>
<text text-anchor="middle" x="530.5" y="-374.5" font-family="Helvetica,sans-Serif" font-size="10.00">I2C::init</text>
</a>
</g>
</g>
<!-- Node22&#45;&gt;Node23 -->
<g id="edge23" class="edge"><title>Node22&#45;&gt;Node23</title>
<path fill="none" stroke="midnightblue" d="M423.797,-382.5C435.987,-382.5 448.489,-382.5 460.434,-382.5"/>
<polygon fill="midnightblue" stroke="midnightblue" points="423.65,-379 413.65,-382.5 423.65,-386 423.65,-379"/>
</g>
<!-- Node23&#45;&gt;Node16 -->
<g id="edge24" class="edge"><title>Node23&#45;&gt;Node16</title>
<path fill="none" stroke="midnightblue" d="M610.797,-382.5C622.987,-382.5 635.489,-382.5 647.434,-382.5"/>
<polygon fill="midnightblue" stroke="midnightblue" points="610.65,-379 600.65,-382.5 610.65,-386 610.65,-379"/>
</g>
<!-- Node25 -->
<g id="node25" class="node"><title>Node25</title>
<g id="a_node25"><a xlink:href="$classAP__RangeFinder__MaxsonarI2CXL.html#a1771b238615845f371cd4536e3bbe680" xlink:title="AP_RangeFinder_MaxsonarI2\lCXL::_init">
<polygon fill="white" stroke="black" points="457,-284.5 457,-314.5 604,-314.5 604,-284.5 457,-284.5"/>
<text text-anchor="start" x="465" y="-302.5" font-family="Helvetica,sans-Serif" font-size="10.00">AP_RangeFinder_MaxsonarI2</text>
<text text-anchor="middle" x="530.5" y="-291.5" font-family="Helvetica,sans-Serif" font-size="10.00">CXL::_init</text>
</a>
</g>
</g>
<!-- Node24&#45;&gt;Node25 -->
<g id="edge26" class="edge"><title>Node24&#45;&gt;Node25</title>
<path fill="none" stroke="midnightblue" d="M244.219,-333.9C294.329,-330.648 359.472,-325.595 417,-318.5 429.877,-316.912 443.529,-314.893 456.716,-312.767"/>
<polygon fill="midnightblue" stroke="midnightblue" points="243.84,-330.417 234.084,-334.547 244.286,-337.403 243.84,-330.417"/>
</g>
<!-- Node27 -->
<g id="node27" class="node"><title>Node27</title>
<g id="a_node27"><a xlink:href="$classAP__RangeFinder__MaxsonarI2CXL.html#a4a8cb17fc852d03b93867a66dc8e702e" xlink:title="AP_RangeFinder_MaxsonarI2\lCXL::_timer">
<polygon fill="white" stroke="black" points="270,-279.5 270,-309.5 417,-309.5 417,-279.5 270,-279.5"/>
<text text-anchor="start" x="278" y="-297.5" font-family="Helvetica,sans-Serif" font-size="10.00">AP_RangeFinder_MaxsonarI2</text>
<text text-anchor="middle" x="343.5" y="-286.5" font-family="Helvetica,sans-Serif" font-size="10.00">CXL::_timer</text>
</a>
</g>
</g>
<!-- Node24&#45;&gt;Node27 -->
<g id="edge29" class="edge"><title>Node24&#45;&gt;Node27</title>
<path fill="none" stroke="midnightblue" d="M233.429,-321.015C249.068,-317.213 265.481,-313.223 280.688,-309.526"/>
<polygon fill="midnightblue" stroke="midnightblue" points="232.174,-317.718 223.284,-323.481 233.827,-324.519 232.174,-317.718"/>
</g>
<!-- Node26 -->
<g id="node26" class="node"><title>Node26</title>
<g id="a_node26"><a xlink:href="$classAP__RangeFinder__MaxsonarI2CXL.html#ae726d2abaa58a433f4dbfadd5936682c" xlink:title="AP_RangeFinder_MaxsonarI2\lCXL::detect">
<polygon fill="white" stroke="black" points="827,-211.5 827,-241.5 974,-241.5 974,-211.5 827,-211.5"/>
<text text-anchor="start" x="835" y="-229.5" font-family="Helvetica,sans-Serif" font-size="10.00">AP_RangeFinder_MaxsonarI2</text>
<text text-anchor="middle" x="900.5" y="-218.5" font-family="Helvetica,sans-Serif" font-size="10.00">CXL::detect</text>
</a>
</g>
</g>
<!-- Node25&#45;&gt;Node26 -->
<g id="edge27" class="edge"><title>Node25&#45;&gt;Node26</title>
<path fill="none" stroke="midnightblue" d="M614.252,-283.085C678.167,-270.406 765.75,-253.032 826.946,-240.892"/>
<polygon fill="midnightblue" stroke="midnightblue" points="613.333,-279.699 604.205,-285.078 614.695,-286.565 613.333,-279.699"/>
</g>
<!-- Node26&#45;&gt;Node17 -->
<g id="edge28" class="edge"><title>Node26&#45;&gt;Node17</title>
<path fill="none" stroke="midnightblue" d="M963.445,-208.593C981.764,-203.297 1001.62,-197.557 1019.23,-192.467"/>
<polygon fill="midnightblue" stroke="midnightblue" points="962.373,-205.259 953.739,-211.399 964.317,-211.984 962.373,-205.259"/>
</g>
<!-- Node27&#45;&gt;Node25 -->
<g id="edge30" class="edge"><title>Node27&#45;&gt;Node25</title>
<path fill="none" stroke="midnightblue" d="M427.278,-296.737C437.127,-297.003 447.126,-297.274 456.82,-297.536"/>
<polygon fill="midnightblue" stroke="midnightblue" points="427.177,-293.233 417.086,-296.462 426.988,-300.231 427.177,-293.233"/>
</g>
<!-- Node30 -->
<g id="node30" class="node"><title>Node30</title>
<g id="a_node30"><a xlink:href="$classAP__Airspeed__MS5525.html#a9e5ee7103712f80d10c650076827870d" xlink:title="AP_Airspeed_MS5525\l::init">
<polygon fill="white" stroke="black" points="286,-230.5 286,-260.5 401,-260.5 401,-230.5 286,-230.5"/>
<text text-anchor="start" x="294" y="-248.5" font-family="Helvetica,sans-Serif" font-size="10.00">AP_Airspeed_MS5525</text>
<text text-anchor="middle" x="343.5" y="-237.5" font-family="Helvetica,sans-Serif" font-size="10.00">::init</text>
</a>
</g>
</g>
<!-- Node29&#45;&gt;Node30 -->
<g id="edge33" class="edge"><title>Node29&#45;&gt;Node30</title>
<path fill="none" stroke="midnightblue" d="M228.315,-242.346C247.246,-242.869 267.665,-243.433 285.929,-243.937"/>
<polygon fill="midnightblue" stroke="midnightblue" points="228.366,-238.846 218.273,-242.068 228.172,-245.843 228.366,-238.846"/>
</g>
<!-- Node31 -->
<g id="node31" class="node"><title>Node31</title>
<g id="a_node31"><a xlink:href="$classAP__Airspeed__MS5525.html#a912d32f3429f683271ab10f3768122ab" xlink:title="AP_Airspeed_MS5525\l::~AP_Airspeed_MS5525">
<polygon fill="white" stroke="black" points="467,-235.5 467,-265.5 594,-265.5 594,-235.5 467,-235.5"/>
<text text-anchor="start" x="475" y="-253.5" font-family="Helvetica,sans-Serif" font-size="10.00">AP_Airspeed_MS5525</text>
<text text-anchor="middle" x="530.5" y="-242.5" font-family="Helvetica,sans-Serif" font-size="10.00">::~AP_Airspeed_MS5525</text>
</a>
</g>
</g>
<!-- Node29&#45;&gt;Node31 -->
<g id="edge35" class="edge"><title>Node29&#45;&gt;Node31</title>
<path fill="none" stroke="midnightblue" d="M228.017,-226.263C241.83,-223.864 256.339,-221.749 270,-220.5 335.062,-214.554 352.221,-212.011 417,-220.5 439.448,-223.442 463.787,-229.551 484.066,-235.494"/>
<polygon fill="midnightblue" stroke="midnightblue" points="227.323,-222.832 218.104,-228.052 228.566,-229.72 227.323,-222.832"/>
</g>
<!-- Node30&#45;&gt;Node31 -->
<g id="edge34" class="edge"><title>Node30&#45;&gt;Node31</title>
<path fill="none" stroke="midnightblue" d="M411.218,-247.303C429.372,-247.794 448.966,-248.323 466.884,-248.808"/>
<polygon fill="midnightblue" stroke="midnightblue" points="411.102,-243.799 401.011,-247.027 410.913,-250.796 411.102,-243.799"/>
</g>
<!-- Node33 -->
<g id="node33" class="node"><title>Node33</title>
<g id="a_node33"><a xlink:href="$classAP__RangeFinder__VL53L0X.html#aee8dc588ee1ce3c0fc1b1548a137f3b0" xlink:title="AP_RangeFinder_VL53L0X\l::getSequenceStepTimeouts">
<polygon fill="white" stroke="black" points="273.5,-142.5 273.5,-172.5 413.5,-172.5 413.5,-142.5 273.5,-142.5"/>
<text text-anchor="start" x="281.5" y="-160.5" font-family="Helvetica,sans-Serif" font-size="10.00">AP_RangeFinder_VL53L0X</text>
<text text-anchor="middle" x="343.5" y="-149.5" font-family="Helvetica,sans-Serif" font-size="10.00">::getSequenceStepTimeouts</text>
</a>
</g>
</g>
<!-- Node32&#45;&gt;Node33 -->
<g id="edge37" class="edge"><title>Node32&#45;&gt;Node33</title>
<path fill="none" stroke="midnightblue" d="M238.67,-157.5C250.192,-157.5 262.008,-157.5 273.35,-157.5"/>
<polygon fill="midnightblue" stroke="midnightblue" points="238.641,-154 228.641,-157.5 238.64,-161 238.641,-154"/>
</g>
<!-- Node38 -->
<g id="node38" class="node"><title>Node38</title>
<g id="a_node38"><a xlink:href="$classAP__RangeFinder__VL53L0X.html#a6d85723df25c37c2fc998f4ae8ce6588" xlink:title="AP_RangeFinder_VL53L0X\l::get_reading">
<polygon fill="white" stroke="black" points="275.5,-93.5 275.5,-123.5 411.5,-123.5 411.5,-93.5 275.5,-93.5"/>
<text text-anchor="start" x="283.5" y="-111.5" font-family="Helvetica,sans-Serif" font-size="10.00">AP_RangeFinder_VL53L0X</text>
<text text-anchor="middle" x="343.5" y="-100.5" font-family="Helvetica,sans-Serif" font-size="10.00">::get_reading</text>
</a>
</g>
</g>
<!-- Node32&#45;&gt;Node38 -->
<g id="edge44" class="edge"><title>Node32&#45;&gt;Node38</title>
<path fill="none" stroke="midnightblue" d="M227.061,-139.752C246.677,-134.441 267.99,-128.671 286.901,-123.552"/>
<polygon fill="midnightblue" stroke="midnightblue" points="226.021,-136.407 217.283,-142.399 227.85,-143.164 226.021,-136.407"/>
</g>
<!-- Node34 -->
<g id="node34" class="node"><title>Node34</title>
<g id="a_node34"><a xlink:href="$classAP__RangeFinder__VL53L0X.html#a99578fad928a8259ab6419cd20a9d00f" xlink:title="AP_RangeFinder_VL53L0X\l::getMeasurementTimingBudget">
<polygon fill="white" stroke="black" points="453,-186.5 453,-216.5 608,-216.5 608,-186.5 453,-186.5"/>
<text text-anchor="start" x="461" y="-204.5" font-family="Helvetica,sans-Serif" font-size="10.00">AP_RangeFinder_VL53L0X</text>
<text text-anchor="middle" x="530.5" y="-193.5" font-family="Helvetica,sans-Serif" font-size="10.00">::getMeasurementTimingBudget</text>
</a>
</g>
</g>
<!-- Node33&#45;&gt;Node34 -->
<g id="edge38" class="edge"><title>Node33&#45;&gt;Node34</title>
<path fill="none" stroke="midnightblue" d="M417.562,-174.877C433.684,-178.711 450.63,-182.742 466.322,-186.474"/>
<polygon fill="midnightblue" stroke="midnightblue" points="418.188,-171.428 407.649,-172.519 416.568,-178.238 418.188,-171.428"/>
</g>
<!-- Node37 -->
<g id="node37" class="node"><title>Node37</title>
<g id="a_node37"><a xlink:href="$classAP__RangeFinder__VL53L0X.html#adec2d569b8b1567535371a3d69b4c95f" xlink:title="AP_RangeFinder_VL53L0X\l::setMeasurementTimingBudget">
<polygon fill="white" stroke="black" points="453,-137.5 453,-167.5 608,-167.5 608,-137.5 453,-137.5"/>
<text text-anchor="start" x="461" y="-155.5" font-family="Helvetica,sans-Serif" font-size="10.00">AP_RangeFinder_VL53L0X</text>
<text text-anchor="middle" x="530.5" y="-144.5" font-family="Helvetica,sans-Serif" font-size="10.00">::setMeasurementTimingBudget</text>
</a>
</g>
</g>
<!-- Node33&#45;&gt;Node37 -->
<g id="edge42" class="edge"><title>Node33&#45;&gt;Node37</title>
<path fill="none" stroke="midnightblue" d="M423.682,-155.36C433.395,-155.097 443.309,-154.829 452.982,-154.568"/>
<polygon fill="midnightblue" stroke="midnightblue" points="423.552,-151.862 413.65,-155.631 423.741,-158.86 423.552,-151.862"/>
</g>
<!-- Node35 -->
<g id="node35" class="node"><title>Node35</title>
<g id="a_node35"><a xlink:href="$classAP__RangeFinder__VL53L0X.html#ac67db36587944e0a5a1295a75933302c" xlink:title="AP_RangeFinder_VL53L0X\l::init">
<polygon fill="white" stroke="black" points="649.5,-143.5 649.5,-173.5 785.5,-173.5 785.5,-143.5 649.5,-143.5"/>
<text text-anchor="start" x="657.5" y="-161.5" font-family="Helvetica,sans-Serif" font-size="10.00">AP_RangeFinder_VL53L0X</text>
<text text-anchor="middle" x="717.5" y="-150.5" font-family="Helvetica,sans-Serif" font-size="10.00">::init</text>
</a>
</g>
</g>
<!-- Node34&#45;&gt;Node35 -->
<g id="edge39" class="edge"><title>Node34&#45;&gt;Node35</title>
<path fill="none" stroke="midnightblue" d="M606.054,-184.171C621.216,-180.647 637.047,-176.967 651.833,-173.531"/>
<polygon fill="midnightblue" stroke="midnightblue" points="605.152,-180.788 596.204,-186.461 606.737,-187.606 605.152,-180.788"/>
</g>
<!-- Node36 -->
<g id="node36" class="node"><title>Node36</title>
<g id="a_node36"><a xlink:href="$classAP__RangeFinder__VL53L0X.html#acda2670d739ed1966164fee6001680a0" xlink:title="AP_RangeFinder_VL53L0X\l::detect">
<polygon fill="white" stroke="black" points="832.5,-155.5 832.5,-185.5 968.5,-185.5 968.5,-155.5 832.5,-155.5"/>
<text text-anchor="start" x="840.5" y="-173.5" font-family="Helvetica,sans-Serif" font-size="10.00">AP_RangeFinder_VL53L0X</text>
<text text-anchor="middle" x="900.5" y="-162.5" font-family="Helvetica,sans-Serif" font-size="10.00">::detect</text>
</a>
</g>
</g>
<!-- Node35&#45;&gt;Node36 -->
<g id="edge40" class="edge"><title>Node35&#45;&gt;Node36</title>
<path fill="none" stroke="midnightblue" d="M795.793,-163.624C807.995,-164.433 820.524,-165.264 832.468,-166.056"/>
<polygon fill="midnightblue" stroke="midnightblue" points="795.85,-160.121 785.641,-162.951 795.387,-167.105 795.85,-160.121"/>
</g>
<!-- Node36&#45;&gt;Node17 -->
<g id="edge41" class="edge"><title>Node36&#45;&gt;Node17</title>
<path fill="none" stroke="midnightblue" d="M979.31,-173.713C992.914,-174.275 1006.76,-174.847 1019.43,-175.37"/>
<polygon fill="midnightblue" stroke="midnightblue" points="979.114,-170.202 968.978,-173.287 978.825,-177.196 979.114,-170.202"/>
</g>
<!-- Node37&#45;&gt;Node35 -->
<g id="edge43" class="edge"><title>Node37&#45;&gt;Node35</title>
<path fill="none" stroke="midnightblue" d="M618.116,-155.309C628.632,-155.65 639.25,-155.995 649.424,-156.325"/>
<polygon fill="midnightblue" stroke="midnightblue" points="618.19,-151.81 608.082,-154.984 617.963,-158.806 618.19,-151.81"/>
</g>
<!-- Node39 -->
<g id="node39" class="node"><title>Node39</title>
<g id="a_node39"><a xlink:href="$classAP__RangeFinder__VL53L0X.html#aa9efdad4b38a7ae8b07fcae35c49f3b5" xlink:title="AP_RangeFinder_VL53L0X\l::timer">
<polygon fill="white" stroke="black" points="462.5,-88.5 462.5,-118.5 598.5,-118.5 598.5,-88.5 462.5,-88.5"/>
<text text-anchor="start" x="470.5" y="-106.5" font-family="Helvetica,sans-Serif" font-size="10.00">AP_RangeFinder_VL53L0X</text>
<text text-anchor="middle" x="530.5" y="-95.5" font-family="Helvetica,sans-Serif" font-size="10.00">::timer</text>
</a>
</g>
</g>
<!-- Node38&#45;&gt;Node39 -->
<g id="edge45" class="edge"><title>Node38&#45;&gt;Node39</title>
<path fill="none" stroke="midnightblue" d="M421.759,-106.412C435.247,-106.047 449.18,-105.671 462.367,-105.314"/>
<polygon fill="midnightblue" stroke="midnightblue" points="421.453,-102.919 411.551,-106.688 421.642,-109.916 421.453,-102.919"/>
</g>
<!-- Node39&#45;&gt;Node35 -->
<g id="edge46" class="edge"><title>Node39&#45;&gt;Node35</title>
<path fill="none" stroke="midnightblue" d="M591.764,-121.416C615.764,-128.552 643.074,-136.671 666.009,-143.489"/>
<polygon fill="midnightblue" stroke="midnightblue" points="592.635,-118.024 582.052,-118.529 590.64,-124.734 592.635,-118.024"/>
</g>
<!-- Node41 -->
<g id="node41" class="node"><title>Node41</title>
<g id="a_node41"><a xlink:href="$classAP__RangeFinder__PulsedLightLRF.html#a1fe58514ce7282108e5aea8800c2451d" xlink:title="AP_RangeFinder_PulsedLight\lLRF::init">
<polygon fill="white" stroke="black" points="270,-44.5 270,-74.5 417,-74.5 417,-44.5 270,-44.5"/>
<text text-anchor="start" x="278" y="-62.5" font-family="Helvetica,sans-Serif" font-size="10.00">AP_RangeFinder_PulsedLight</text>
<text text-anchor="middle" x="343.5" y="-51.5" font-family="Helvetica,sans-Serif" font-size="10.00">LRF::init</text>
</a>
</g>
</g>
<!-- Node40&#45;&gt;Node41 -->
<g id="edge48" class="edge"><title>Node40&#45;&gt;Node41</title>
<path fill="none" stroke="midnightblue" d="M244.116,-59.5C252.722,-59.5 261.424,-59.5 269.907,-59.5"/>
<polygon fill="midnightblue" stroke="midnightblue" points="244.077,-56.0001 234.077,-59.5 244.077,-63.0001 244.077,-56.0001"/>
</g>
<!-- Node43 -->
<g id="node43" class="node"><title>Node43</title>
<g id="a_node43"><a xlink:href="$classAP__RangeFinder__PulsedLightLRF.html#a95733e2bb087ab50b224364be04da722" xlink:title="AP_RangeFinder_PulsedLight\lLRF::update">
<polygon fill="white" stroke="black" points="457,-0.5 457,-30.5 604,-30.5 604,-0.5 457,-0.5"/>
<text text-anchor="start" x="465" y="-18.5" font-family="Helvetica,sans-Serif" font-size="10.00">AP_RangeFinder_PulsedLight</text>
<text text-anchor="middle" x="530.5" y="-7.5" font-family="Helvetica,sans-Serif" font-size="10.00">LRF::update</text>
</a>
</g>
</g>
<!-- Node40&#45;&gt;Node43 -->
<g id="edge52" class="edge"><title>Node40&#45;&gt;Node43</title>
<path fill="none" stroke="midnightblue" d="M229.3,-42.1972C242.717,-39.2498 256.749,-36.4997 270,-34.5 332.645,-25.0465 404.537,-20.2485 456.741,-17.8424"/>
<polygon fill="midnightblue" stroke="midnightblue" points="228.167,-38.8648 219.183,-44.4804 229.708,-45.6931 228.167,-38.8648"/>
</g>
<!-- Node42 -->
<g id="node42" class="node"><title>Node42</title>
<g id="a_node42"><a xlink:href="$classAP__RangeFinder__PulsedLightLRF.html#ad87857d39b8c6d2cbc53209498b60f73" xlink:title="AP_RangeFinder_PulsedLight\lLRF::detect">
<polygon fill="white" stroke="black" points="644,-72.5 644,-102.5 791,-102.5 791,-72.5 644,-72.5"/>
<text text-anchor="start" x="652" y="-90.5" font-family="Helvetica,sans-Serif" font-size="10.00">AP_RangeFinder_PulsedLight</text>
<text text-anchor="middle" x="717.5" y="-79.5" font-family="Helvetica,sans-Serif" font-size="10.00">LRF::detect</text>
</a>
</g>
</g>
<!-- Node41&#45;&gt;Node42 -->
<g id="edge49" class="edge"><title>Node41&#45;&gt;Node42</title>
<path fill="none" stroke="midnightblue" d="M427.37,-65.2456C479.275,-68.9013 547.553,-73.8138 608,-78.5 619.59,-79.3985 631.873,-80.3847 643.847,-81.3646"/>
<polygon fill="midnightblue" stroke="midnightblue" points="427.435,-61.7416 417.214,-64.5316 426.944,-68.7244 427.435,-61.7416"/>
</g>
<!-- Node41&#45;&gt;Node43 -->
<g id="edge51" class="edge"><title>Node41&#45;&gt;Node43</title>
<path fill="none" stroke="midnightblue" d="M417.562,-42.1231C433.684,-38.2888 450.63,-34.2582 466.322,-30.5262"/>
<polygon fill="midnightblue" stroke="midnightblue" points="416.568,-38.7618 407.649,-44.4808 418.188,-45.5719 416.568,-38.7618"/>
</g>
<!-- Node42&#45;&gt;Node17 -->
<g id="edge50" class="edge"><title>Node42&#45;&gt;Node17</title>
<path fill="none" stroke="midnightblue" d="M800.947,-104.127C851.247,-114.788 916.683,-129.579 974,-145.5 991.94,-150.483 1011.48,-156.762 1028.29,-162.435"/>
<polygon fill="midnightblue" stroke="midnightblue" points="801.602,-100.689 791.095,-102.051 800.159,-107.538 801.602,-100.689"/>
</g>
</g>
</svg>
