<?xml version="1.0" encoding="UTF-8" standalone="no"?>
<!DOCTYPE svg PUBLIC "-//W3C//DTD SVG 1.1//EN"
 "http://www.w3.org/Graphics/SVG/1.1/DTD/svg11.dtd">
<!-- Generated by graphviz version 2.38.0 (20140413.2041)
 -->
<!-- Title: srxl_channels_get_v1v2 Pages: 1 -->
<svg width="776pt" height="540pt"
 viewBox="0.00 0.00 776.00 540.00" xmlns="http://www.w3.org/2000/svg" xmlns:xlink="http://www.w3.org/1999/xlink">
<g id="graph0" class="graph" transform="scale(1 1) rotate(0) translate(4 536)">
<title>srxl_channels_get_v1v2</title>
<polygon fill="white" stroke="none" points="-4,4 -4,-536 772,-536 772,4 -4,4"/>
<!-- Node1 -->
<g id="node1" class="node"><title>Node1</title>
<polygon fill="#bfbfbf" stroke="black" points="0,-221.5 0,-240.5 122,-240.5 122,-221.5 0,-221.5"/>
<text text-anchor="middle" x="61" y="-228.5" font-family="Helvetica,sans-Serif" font-size="10.00">srxl_channels_get_v1v2</text>
</g>
<!-- Node2 -->
<g id="node2" class="node"><title>Node2</title>
<g id="a_node2"><a xlink:href="$AC__PID__test_8cpp.html#afe461d27b9c48d5921c00d521181f12f" xlink:title="loop">
<polygon fill="white" stroke="black" points="158,-221.5 158,-240.5 193,-240.5 193,-221.5 158,-221.5"/>
<text text-anchor="middle" x="175.5" y="-228.5" font-family="Helvetica,sans-Serif" font-size="10.00">loop</text>
</a>
</g>
</g>
<!-- Node1&#45;&gt;Node2 -->
<g id="edge1" class="edge"><title>Node1&#45;&gt;Node2</title>
<path fill="none" stroke="midnightblue" d="M122.202,-231C131.15,-231 139.964,-231 147.732,-231"/>
<polygon fill="midnightblue" stroke="midnightblue" points="147.923,-234.5 157.923,-231 147.923,-227.5 147.923,-234.5"/>
</g>
<!-- Node3 -->
<g id="node3" class="node"><title>Node3</title>
<g id="a_node3"><a xlink:href="$classAP__HAL_1_1UARTDriver.html#a6ceedc792594e59fc7d80b39a435f027" xlink:title="AP_HAL::UARTDriver\l::printf">
<polygon fill="white" stroke="black" points="240.5,-431 240.5,-461 355.5,-461 355.5,-431 240.5,-431"/>
<text text-anchor="start" x="248.5" y="-449" font-family="Helvetica,sans-Serif" font-size="10.00">AP_HAL::UARTDriver</text>
<text text-anchor="middle" x="298" y="-438" font-family="Helvetica,sans-Serif" font-size="10.00">::printf</text>
</a>
</g>
</g>
<!-- Node2&#45;&gt;Node3 -->
<g id="edge2" class="edge"><title>Node2&#45;&gt;Node3</title>
<path fill="none" stroke="midnightblue" d="M176.267,-240.742C176.071,-271.451 179.632,-367.37 229,-421 230.23,-422.336 231.537,-423.601 232.91,-424.798"/>
<polygon fill="midnightblue" stroke="midnightblue" points="231.24,-427.911 241.391,-430.946 235.348,-422.243 231.24,-427.911"/>
</g>
<!-- Node11 -->
<g id="node11" class="node"><title>Node11</title>
<g id="a_node11"><a xlink:href="$classAC__PID.html#ac29a8c72a8618d87886599204dcb5b79" xlink:title="AC_PID::kP">
<polygon fill="white" stroke="black" points="262.5,-392.5 262.5,-411.5 333.5,-411.5 333.5,-392.5 262.5,-392.5"/>
<text text-anchor="middle" x="298" y="-399.5" font-family="Helvetica,sans-Serif" font-size="10.00">AC_PID::kP</text>
</a>
</g>
</g>
<!-- Node2&#45;&gt;Node11 -->
<g id="edge10" class="edge"><title>Node2&#45;&gt;Node11</title>
<path fill="none" stroke="midnightblue" d="M176.886,-240.829C178.488,-267.728 186.723,-343.19 229,-383 235.549,-389.166 243.931,-393.359 252.556,-396.202"/>
<polygon fill="midnightblue" stroke="midnightblue" points="251.745,-399.609 262.314,-398.873 253.593,-392.857 251.745,-399.609"/>
</g>
<!-- Node12 -->
<g id="node12" class="node"><title>Node12</title>
<g id="a_node12"><a xlink:href="$classAC__PID.html#af27f5e854a44864911720c12c3d1af0a" xlink:title="AC_PID::kI">
<polygon fill="white" stroke="black" points="264,-354.5 264,-373.5 332,-373.5 332,-354.5 264,-354.5"/>
<text text-anchor="middle" x="298" y="-361.5" font-family="Helvetica,sans-Serif" font-size="10.00">AC_PID::kI</text>
</a>
</g>
</g>
<!-- Node2&#45;&gt;Node12 -->
<g id="edge11" class="edge"><title>Node2&#45;&gt;Node12</title>
<path fill="none" stroke="midnightblue" d="M178.113,-240.591C182.313,-262.515 195.668,-316.59 229,-345 236.125,-351.073 245.051,-355.213 254.069,-358.034"/>
<polygon fill="midnightblue" stroke="midnightblue" points="253.249,-361.437 263.811,-360.605 255.035,-354.669 253.249,-361.437"/>
</g>
<!-- Node13 -->
<g id="node13" class="node"><title>Node13</title>
<g id="a_node13"><a xlink:href="$classAC__PID.html#a2d7be199fbc437ee472fad5a4308c668" xlink:title="AC_PID::kD">
<polygon fill="white" stroke="black" points="262,-316.5 262,-335.5 334,-335.5 334,-316.5 262,-316.5"/>
<text text-anchor="middle" x="298" y="-323.5" font-family="Helvetica,sans-Serif" font-size="10.00">AC_PID::kD</text>
</a>
</g>
</g>
<!-- Node2&#45;&gt;Node13 -->
<g id="edge12" class="edge"><title>Node2&#45;&gt;Node13</title>
<path fill="none" stroke="midnightblue" d="M180.449,-240.534C187.645,-256.715 204.452,-289.498 229,-307 235.812,-311.857 243.825,-315.474 251.914,-318.168"/>
<polygon fill="midnightblue" stroke="midnightblue" points="251.165,-321.595 261.744,-321.017 253.114,-314.872 251.165,-321.595"/>
</g>
<!-- Node14 -->
<g id="node14" class="node"><title>Node14</title>
<g id="a_node14"><a xlink:href="$classAC__PID.html#a78d399f4731c6c4e0a1f9a4421b6c066" xlink:title="AC_PID::imax">
<polygon fill="white" stroke="black" points="258,-278.5 258,-297.5 338,-297.5 338,-278.5 258,-278.5"/>
<text text-anchor="middle" x="298" y="-285.5" font-family="Helvetica,sans-Serif" font-size="10.00">AC_PID::imax</text>
</a>
</g>
</g>
<!-- Node2&#45;&gt;Node14 -->
<g id="edge13" class="edge"><title>Node2&#45;&gt;Node14</title>
<path fill="none" stroke="midnightblue" d="M187.429,-240.705C197.565,-249.249 213.394,-261.471 229,-269 235.008,-271.899 241.535,-274.423 248.088,-276.602"/>
<polygon fill="midnightblue" stroke="midnightblue" points="247.064,-279.949 257.652,-279.551 249.127,-273.26 247.064,-279.949"/>
</g>
<!-- Node17 -->
<g id="node17" class="node"><title>Node17</title>
<g id="a_node17"><a xlink:href="$classAP__HAL_1_1RCInput.html#a078fd7e6d2e6a899009ec674a8e03498" xlink:title="AP_HAL::RCInput::read">
<polygon fill="white" stroke="black" points="237,-240.5 237,-259.5 359,-259.5 359,-240.5 237,-240.5"/>
<text text-anchor="middle" x="298" y="-247.5" font-family="Helvetica,sans-Serif" font-size="10.00">AP_HAL::RCInput::read</text>
</a>
</g>
</g>
<!-- Node2&#45;&gt;Node17 -->
<g id="edge16" class="edge"><title>Node2&#45;&gt;Node17</title>
<path fill="none" stroke="midnightblue" d="M193.255,-233.642C202.338,-235.074 214.245,-236.951 226.742,-238.922"/>
<polygon fill="midnightblue" stroke="midnightblue" points="226.426,-242.415 236.849,-240.516 227.516,-235.501 226.426,-242.415"/>
</g>
<!-- Node18 -->
<g id="node18" class="node"><title>Node18</title>
<g id="a_node18"><a xlink:href="$classAC__PID.html#ac267330f1299f011febcaaba47994af7" xlink:title="AC_PID::set_input_filter_all">
<polygon fill="white" stroke="black" points="229,-202.5 229,-221.5 367,-221.5 367,-202.5 229,-202.5"/>
<text text-anchor="middle" x="298" y="-209.5" font-family="Helvetica,sans-Serif" font-size="10.00">AC_PID::set_input_filter_all</text>
</a>
</g>
</g>
<!-- Node2&#45;&gt;Node18 -->
<g id="edge17" class="edge"><title>Node2&#45;&gt;Node18</title>
<path fill="none" stroke="midnightblue" d="M193.255,-228.358C202.287,-226.934 214.111,-225.07 226.532,-223.111"/>
<polygon fill="midnightblue" stroke="midnightblue" points="227.246,-226.542 236.579,-221.527 226.156,-219.627 227.246,-226.542"/>
</g>
<!-- Node19 -->
<g id="node19" class="node"><title>Node19</title>
<g id="a_node19"><a xlink:href="$classAC__PID.html#a4808bb2656a1e8d94c713e58a7a2a222" xlink:title="AC_PID::get_p">
<polygon fill="white" stroke="black" points="256.5,-164.5 256.5,-183.5 339.5,-183.5 339.5,-164.5 256.5,-164.5"/>
<text text-anchor="middle" x="298" y="-171.5" font-family="Helvetica,sans-Serif" font-size="10.00">AC_PID::get_p</text>
</a>
</g>
</g>
<!-- Node2&#45;&gt;Node19 -->
<g id="edge19" class="edge"><title>Node2&#45;&gt;Node19</title>
<path fill="none" stroke="midnightblue" d="M187.429,-221.295C197.565,-212.751 213.394,-200.529 229,-193 234.579,-190.309 240.604,-187.939 246.684,-185.87"/>
<polygon fill="midnightblue" stroke="midnightblue" points="247.739,-189.207 256.223,-182.862 245.634,-182.531 247.739,-189.207"/>
</g>
<!-- Node20 -->
<g id="node20" class="node"><title>Node20</title>
<g id="a_node20"><a xlink:href="$classAC__PID.html#a2d5bf9811a78c93a396ec1e37ae6fa0a" xlink:title="AC_PID::get_i">
<polygon fill="white" stroke="black" points="421.5,-145.5 421.5,-164.5 501.5,-164.5 501.5,-145.5 421.5,-145.5"/>
<text text-anchor="middle" x="461.5" y="-152.5" font-family="Helvetica,sans-Serif" font-size="10.00">AC_PID::get_i</text>
</a>
</g>
</g>
<!-- Node2&#45;&gt;Node20 -->
<g id="edge20" class="edge"><title>Node2&#45;&gt;Node20</title>
<path fill="none" stroke="midnightblue" d="M179.789,-221.273C186.168,-204.163 202.018,-169.155 229,-155 287.646,-124.234 366.708,-133.074 415.605,-143.281"/>
<polygon fill="midnightblue" stroke="midnightblue" points="415.046,-146.741 425.564,-145.466 416.546,-139.904 415.046,-146.741"/>
</g>
<!-- Node21 -->
<g id="node21" class="node"><title>Node21</title>
<g id="a_node21"><a xlink:href="$classAC__PID.html#ad0c0510049ea37401920792e843bec86" xlink:title="AC_PID::get_d">
<polygon fill="white" stroke="black" points="256.5,-88.5 256.5,-107.5 339.5,-107.5 339.5,-88.5 256.5,-88.5"/>
<text text-anchor="middle" x="298" y="-95.5" font-family="Helvetica,sans-Serif" font-size="10.00">AC_PID::get_d</text>
</a>
</g>
</g>
<!-- Node2&#45;&gt;Node21 -->
<g id="edge22" class="edge"><title>Node2&#45;&gt;Node21</title>
<path fill="none" stroke="midnightblue" d="M178.519,-221.344C183.414,-200.286 197.87,-149.893 229,-122 234.2,-117.341 240.361,-113.573 246.817,-110.529"/>
<polygon fill="midnightblue" stroke="midnightblue" points="248.504,-113.619 256.412,-106.567 245.833,-107.149 248.504,-113.619"/>
</g>
<!-- Node22 -->
<g id="node22" class="node"><title>Node22</title>
<g id="a_node22"><a xlink:href="$classAP__HAL_1_1Scheduler.html#ab3175e2e6223ccfe82f957e41cc12b26" xlink:title="AP_HAL::Scheduler::\ldelay">
<polygon fill="white" stroke="black" points="243,-39 243,-69 353,-69 353,-39 243,-39"/>
<text text-anchor="start" x="251" y="-57" font-family="Helvetica,sans-Serif" font-size="10.00">AP_HAL::Scheduler::</text>
<text text-anchor="middle" x="298" y="-46" font-family="Helvetica,sans-Serif" font-size="10.00">delay</text>
</a>
</g>
</g>
<!-- Node2&#45;&gt;Node22 -->
<g id="edge23" class="edge"><title>Node2&#45;&gt;Node22</title>
<path fill="none" stroke="midnightblue" d="M177.057,-221.346C179.096,-194.893 188.345,-120.466 229,-79 230.646,-77.3216 232.413,-75.755 234.276,-74.2929"/>
<polygon fill="midnightblue" stroke="midnightblue" points="236.573,-76.9699 242.975,-68.5282 232.706,-71.135 236.573,-76.9699"/>
</g>
<!-- Node23 -->
<g id="node23" class="node"><title>Node23</title>
<g id="a_node23"><a xlink:href="$AC__PID__test_8cpp.html#aa754b8f19697c092a3eb48905d6561e3" xlink:title="AP_HAL_MAIN">
<polygon fill="white" stroke="black" points="255,-0.5 255,-19.5 341,-19.5 341,-0.5 255,-0.5"/>
<text text-anchor="middle" x="298" y="-7.5" font-family="Helvetica,sans-Serif" font-size="10.00">AP_HAL_MAIN</text>
</a>
</g>
</g>
<!-- Node2&#45;&gt;Node23 -->
<g id="edge24" class="edge"><title>Node2&#45;&gt;Node23</title>
<path fill="none" stroke="midnightblue" d="M175.908,-221.393C174.486,-189.283 174.417,-84.5853 229,-29 233.565,-24.351 239.166,-20.8134 245.177,-18.1262"/>
<polygon fill="midnightblue" stroke="midnightblue" points="246.688,-21.2997 254.867,-14.5658 244.274,-14.7291 246.688,-21.2997"/>
</g>
<!-- Node4 -->
<g id="node4" class="node"><title>Node4</title>
<g id="a_node4"><a xlink:href="$classAP__HAL_1_1UARTDriver.html#aa8abfb6d6641299472c29ac1edde559f" xlink:title="AP_HAL::UARTDriver\l::vprintf">
<polygon fill="white" stroke="black" points="404,-431 404,-461 519,-461 519,-431 404,-431"/>
<text text-anchor="start" x="412" y="-449" font-family="Helvetica,sans-Serif" font-size="10.00">AP_HAL::UARTDriver</text>
<text text-anchor="middle" x="461.5" y="-438" font-family="Helvetica,sans-Serif" font-size="10.00">::vprintf</text>
</a>
</g>
</g>
<!-- Node3&#45;&gt;Node4 -->
<g id="edge3" class="edge"><title>Node3&#45;&gt;Node4</title>
<path fill="none" stroke="midnightblue" d="M355.939,-446C368.071,-446 380.991,-446 393.461,-446"/>
<polygon fill="midnightblue" stroke="midnightblue" points="393.803,-449.5 403.803,-446 393.803,-442.5 393.803,-449.5"/>
</g>
<!-- Node5 -->
<g id="node5" class="node"><title>Node5</title>
<g id="a_node5"><a xlink:href="$print__vprintf_8cpp.html#a1534eaeab54696df96975b56d9f49212" xlink:title="print_vprintf">
<polygon fill="white" stroke="black" points="556,-436.5 556,-455.5 624,-455.5 624,-436.5 556,-436.5"/>
<text text-anchor="middle" x="590" y="-443.5" font-family="Helvetica,sans-Serif" font-size="10.00">print_vprintf</text>
</a>
</g>
</g>
<!-- Node4&#45;&gt;Node5 -->
<g id="edge4" class="edge"><title>Node4&#45;&gt;Node5</title>
<path fill="none" stroke="midnightblue" d="M519.09,-446C527.976,-446 537.039,-446 545.568,-446"/>
<polygon fill="midnightblue" stroke="midnightblue" points="545.658,-449.5 555.658,-446 545.658,-442.5 545.658,-449.5"/>
</g>
<!-- Node6 -->
<g id="node6" class="node"><title>Node6</title>
<g id="a_node6"><a xlink:href="$classAP__HAL_1_1Print.html#acc65391952a43334f8f5c9bef341f501" xlink:title="AP_HAL::Print::write">
<polygon fill="white" stroke="black" points="660,-512.5 660,-531.5 768,-531.5 768,-512.5 660,-512.5"/>
<text text-anchor="middle" x="714" y="-519.5" font-family="Helvetica,sans-Serif" font-size="10.00">AP_HAL::Print::write</text>
</a>
</g>
</g>
<!-- Node5&#45;&gt;Node6 -->
<g id="edge5" class="edge"><title>Node5&#45;&gt;Node6</title>
<path fill="none" stroke="midnightblue" d="M600.47,-455.683C613.07,-468.102 636.502,-489.629 660,-503 663.632,-505.067 667.529,-506.973 671.501,-508.715"/>
<polygon fill="midnightblue" stroke="midnightblue" points="670.233,-511.977 680.816,-512.479 672.856,-505.487 670.233,-511.977"/>
</g>
<!-- Node7 -->
<g id="node7" class="node"><title>Node7</title>
<g id="a_node7"><a xlink:href="$ftoa__engine_8cpp.html#a1c28234da8f20b43c85890d4bb452947" xlink:title="ftoa_engine">
<polygon fill="white" stroke="black" points="680.5,-474.5 680.5,-493.5 747.5,-493.5 747.5,-474.5 680.5,-474.5"/>
<text text-anchor="middle" x="714" y="-481.5" font-family="Helvetica,sans-Serif" font-size="10.00">ftoa_engine</text>
</a>
</g>
</g>
<!-- Node5&#45;&gt;Node7 -->
<g id="edge6" class="edge"><title>Node5&#45;&gt;Node7</title>
<path fill="none" stroke="midnightblue" d="M621.786,-455.589C637.101,-460.359 655.817,-466.189 672.3,-471.323"/>
<polygon fill="midnightblue" stroke="midnightblue" points="671.636,-474.782 682.224,-474.414 673.717,-468.099 671.636,-474.782"/>
</g>
<!-- Node8 -->
<g id="node8" class="node"><title>Node8</title>
<g id="a_node8"><a xlink:href="$replace_8cpp.html#a880bcc7b85a09e6254691bebd5344b51" xlink:title="strnlen">
<polygon fill="white" stroke="black" points="691,-436.5 691,-455.5 737,-455.5 737,-436.5 691,-436.5"/>
<text text-anchor="middle" x="714" y="-443.5" font-family="Helvetica,sans-Serif" font-size="10.00">strnlen</text>
</a>
</g>
</g>
<!-- Node5&#45;&gt;Node8 -->
<g id="edge7" class="edge"><title>Node5&#45;&gt;Node8</title>
<path fill="none" stroke="midnightblue" d="M624.015,-446C641.547,-446 663.016,-446 680.474,-446"/>
<polygon fill="midnightblue" stroke="midnightblue" points="680.754,-449.5 690.754,-446 680.754,-442.5 680.754,-449.5"/>
</g>
<!-- Node9 -->
<g id="node9" class="node"><title>Node9</title>
<g id="a_node9"><a xlink:href="$utoa__invert_8cpp.html#a34926f552460b47c414ec4d83b32815c" xlink:title="ulltoa_invert">
<polygon fill="white" stroke="black" points="679.5,-398.5 679.5,-417.5 748.5,-417.5 748.5,-398.5 679.5,-398.5"/>
<text text-anchor="middle" x="714" y="-405.5" font-family="Helvetica,sans-Serif" font-size="10.00">ulltoa_invert</text>
</a>
</g>
</g>
<!-- Node5&#45;&gt;Node9 -->
<g id="edge8" class="edge"><title>Node5&#45;&gt;Node9</title>
<path fill="none" stroke="midnightblue" d="M621.786,-436.411C637.101,-431.641 655.817,-425.811 672.3,-420.677"/>
<polygon fill="midnightblue" stroke="midnightblue" points="673.717,-423.901 682.224,-417.586 671.636,-417.218 673.717,-423.901"/>
</g>
<!-- Node10 -->
<g id="node10" class="node"><title>Node10</title>
<g id="a_node10"><a xlink:href="$utoa__invert_8cpp.html#a5d99bba8e697c1e11da489d88fca8559" xlink:title="ultoa_invert">
<polygon fill="white" stroke="black" points="680.5,-360.5 680.5,-379.5 747.5,-379.5 747.5,-360.5 680.5,-360.5"/>
<text text-anchor="middle" x="714" y="-367.5" font-family="Helvetica,sans-Serif" font-size="10.00">ultoa_invert</text>
</a>
</g>
</g>
<!-- Node5&#45;&gt;Node10 -->
<g id="edge9" class="edge"><title>Node5&#45;&gt;Node10</title>
<path fill="none" stroke="midnightblue" d="M600.47,-436.317C613.07,-423.898 636.502,-402.371 660,-389 663.632,-386.933 667.529,-385.027 671.501,-383.285"/>
<polygon fill="midnightblue" stroke="midnightblue" points="672.856,-386.513 680.816,-379.521 670.233,-380.023 672.856,-386.513"/>
</g>
<!-- Node15 -->
<g id="node15" class="node"><title>Node15</title>
<g id="a_node15"><a xlink:href="$classAC__PID.html#ac12ffbd4fd053c6152d403b69e07b8e1" xlink:title="AC_PID::get_filt_alpha">
<polygon fill="white" stroke="black" points="403,-202.5 403,-221.5 520,-221.5 520,-202.5 403,-202.5"/>
<text text-anchor="middle" x="461.5" y="-209.5" font-family="Helvetica,sans-Serif" font-size="10.00">AC_PID::get_filt_alpha</text>
</a>
</g>
</g>
<!-- Node14&#45;&gt;Node15 -->
<g id="edge14" class="edge"><title>Node14&#45;&gt;Node15</title>
<path fill="none" stroke="midnightblue" d="M338.119,-279.051C347.743,-276.313 357.894,-272.957 367,-269 393.222,-257.604 420.903,-239.926 439.279,-227.28"/>
<polygon fill="midnightblue" stroke="midnightblue" points="441.318,-230.125 447.506,-221.526 437.306,-224.389 441.318,-230.125"/>
</g>
<!-- Node16 -->
<g id="node16" class="node"><title>Node16</title>
<g id="a_node16"><a xlink:href="$AP__Math_8h.html#a2a12cce483e9b870da70d30406d82c60" xlink:title="is_zero">
<polygon fill="white" stroke="black" points="566,-174.5 566,-193.5 614,-193.5 614,-174.5 566,-174.5"/>
<text text-anchor="middle" x="590" y="-181.5" font-family="Helvetica,sans-Serif" font-size="10.00">is_zero</text>
</a>
</g>
</g>
<!-- Node15&#45;&gt;Node16 -->
<g id="edge15" class="edge"><title>Node15&#45;&gt;Node16</title>
<path fill="none" stroke="midnightblue" d="M505.68,-202.442C522.08,-198.812 540.487,-194.738 555.822,-191.344"/>
<polygon fill="midnightblue" stroke="midnightblue" points="556.877,-194.695 565.884,-189.117 555.364,-187.86 556.877,-194.695"/>
</g>
<!-- Node18&#45;&gt;Node15 -->
<g id="edge18" class="edge"><title>Node18&#45;&gt;Node15</title>
<path fill="none" stroke="midnightblue" d="M367.022,-212C375.48,-212 384.129,-212 392.584,-212"/>
<polygon fill="midnightblue" stroke="midnightblue" points="392.777,-215.5 402.777,-212 392.777,-208.5 392.777,-215.5"/>
</g>
<!-- Node20&#45;&gt;Node16 -->
<g id="edge21" class="edge"><title>Node20&#45;&gt;Node16</title>
<path fill="none" stroke="midnightblue" d="M501.832,-164.017C519.25,-168.01 539.506,-172.654 556.106,-176.459"/>
<polygon fill="midnightblue" stroke="midnightblue" points="555.381,-179.884 565.911,-178.707 556.946,-173.061 555.381,-179.884"/>
</g>
</g>
</svg>
