<?xml version="1.0" encoding="UTF-8" standalone="no"?>
<!DOCTYPE svg PUBLIC "-//W3C//DTD SVG 1.1//EN"
 "http://www.w3.org/Graphics/SVG/1.1/DTD/svg11.dtd">
<!-- Generated by graphviz version 2.38.0 (20140413.2041)
 -->
<!-- Title: srxl_crc16 Pages: 1 -->
<svg width="716pt" height="540pt"
 viewBox="0.00 0.00 716.00 540.00" xmlns="http://www.w3.org/2000/svg" xmlns:xlink="http://www.w3.org/1999/xlink">
<g id="graph0" class="graph" transform="scale(1 1) rotate(0) translate(4 536)">
<title>srxl_crc16</title>
<polygon fill="white" stroke="none" points="-4,4 -4,-536 712,-536 712,4 -4,4"/>
<!-- Node1 -->
<g id="node1" class="node"><title>Node1</title>
<polygon fill="#bfbfbf" stroke="black" points="0,-221.5 0,-240.5 62,-240.5 62,-221.5 0,-221.5"/>
<text text-anchor="middle" x="31" y="-228.5" font-family="Helvetica,sans-Serif" font-size="10.00">srxl_crc16</text>
</g>
<!-- Node2 -->
<g id="node2" class="node"><title>Node2</title>
<g id="a_node2"><a xlink:href="$AC__PID__test_8cpp.html#afe461d27b9c48d5921c00d521181f12f" xlink:title="loop">
<polygon fill="white" stroke="black" points="98,-221.5 98,-240.5 133,-240.5 133,-221.5 98,-221.5"/>
<text text-anchor="middle" x="115.5" y="-228.5" font-family="Helvetica,sans-Serif" font-size="10.00">loop</text>
</a>
</g>
</g>
<!-- Node1&#45;&gt;Node2 -->
<g id="edge1" class="edge"><title>Node1&#45;&gt;Node2</title>
<path fill="none" stroke="midnightblue" d="M62.2515,-231C70.5651,-231 79.5218,-231 87.6308,-231"/>
<polygon fill="midnightblue" stroke="midnightblue" points="87.6775,-234.5 97.6775,-231 87.6774,-227.5 87.6775,-234.5"/>
</g>
<!-- Node3 -->
<g id="node3" class="node"><title>Node3</title>
<g id="a_node3"><a xlink:href="$classAP__HAL_1_1UARTDriver.html#a6ceedc792594e59fc7d80b39a435f027" xlink:title="AP_HAL::UARTDriver\l::printf">
<polygon fill="white" stroke="black" points="180.5,-431 180.5,-461 295.5,-461 295.5,-431 180.5,-431"/>
<text text-anchor="start" x="188.5" y="-449" font-family="Helvetica,sans-Serif" font-size="10.00">AP_HAL::UARTDriver</text>
<text text-anchor="middle" x="238" y="-438" font-family="Helvetica,sans-Serif" font-size="10.00">::printf</text>
</a>
</g>
</g>
<!-- Node2&#45;&gt;Node3 -->
<g id="edge2" class="edge"><title>Node2&#45;&gt;Node3</title>
<path fill="none" stroke="midnightblue" d="M116.267,-240.742C116.071,-271.451 119.632,-367.37 169,-421 170.23,-422.336 171.537,-423.601 172.91,-424.798"/>
<polygon fill="midnightblue" stroke="midnightblue" points="171.24,-427.911 181.391,-430.946 175.348,-422.243 171.24,-427.911"/>
</g>
<!-- Node11 -->
<g id="node11" class="node"><title>Node11</title>
<g id="a_node11"><a xlink:href="$classAC__PID.html#ac29a8c72a8618d87886599204dcb5b79" xlink:title="AC_PID::kP">
<polygon fill="white" stroke="black" points="202.5,-392.5 202.5,-411.5 273.5,-411.5 273.5,-392.5 202.5,-392.5"/>
<text text-anchor="middle" x="238" y="-399.5" font-family="Helvetica,sans-Serif" font-size="10.00">AC_PID::kP</text>
</a>
</g>
</g>
<!-- Node2&#45;&gt;Node11 -->
<g id="edge10" class="edge"><title>Node2&#45;&gt;Node11</title>
<path fill="none" stroke="midnightblue" d="M116.886,-240.829C118.488,-267.728 126.723,-343.19 169,-383 175.549,-389.166 183.931,-393.359 192.556,-396.202"/>
<polygon fill="midnightblue" stroke="midnightblue" points="191.745,-399.609 202.314,-398.873 193.593,-392.857 191.745,-399.609"/>
</g>
<!-- Node12 -->
<g id="node12" class="node"><title>Node12</title>
<g id="a_node12"><a xlink:href="$classAC__PID.html#af27f5e854a44864911720c12c3d1af0a" xlink:title="AC_PID::kI">
<polygon fill="white" stroke="black" points="204,-354.5 204,-373.5 272,-373.5 272,-354.5 204,-354.5"/>
<text text-anchor="middle" x="238" y="-361.5" font-family="Helvetica,sans-Serif" font-size="10.00">AC_PID::kI</text>
</a>
</g>
</g>
<!-- Node2&#45;&gt;Node12 -->
<g id="edge11" class="edge"><title>Node2&#45;&gt;Node12</title>
<path fill="none" stroke="midnightblue" d="M118.113,-240.591C122.313,-262.515 135.668,-316.59 169,-345 176.125,-351.073 185.051,-355.213 194.069,-358.034"/>
<polygon fill="midnightblue" stroke="midnightblue" points="193.249,-361.437 203.811,-360.605 195.035,-354.669 193.249,-361.437"/>
</g>
<!-- Node13 -->
<g id="node13" class="node"><title>Node13</title>
<g id="a_node13"><a xlink:href="$classAC__PID.html#a2d7be199fbc437ee472fad5a4308c668" xlink:title="AC_PID::kD">
<polygon fill="white" stroke="black" points="202,-316.5 202,-335.5 274,-335.5 274,-316.5 202,-316.5"/>
<text text-anchor="middle" x="238" y="-323.5" font-family="Helvetica,sans-Serif" font-size="10.00">AC_PID::kD</text>
</a>
</g>
</g>
<!-- Node2&#45;&gt;Node13 -->
<g id="edge12" class="edge"><title>Node2&#45;&gt;Node13</title>
<path fill="none" stroke="midnightblue" d="M120.449,-240.534C127.645,-256.715 144.452,-289.498 169,-307 175.812,-311.857 183.825,-315.474 191.914,-318.168"/>
<polygon fill="midnightblue" stroke="midnightblue" points="191.165,-321.595 201.744,-321.017 193.114,-314.872 191.165,-321.595"/>
</g>
<!-- Node14 -->
<g id="node14" class="node"><title>Node14</title>
<g id="a_node14"><a xlink:href="$classAC__PID.html#a78d399f4731c6c4e0a1f9a4421b6c066" xlink:title="AC_PID::imax">
<polygon fill="white" stroke="black" points="198,-278.5 198,-297.5 278,-297.5 278,-278.5 198,-278.5"/>
<text text-anchor="middle" x="238" y="-285.5" font-family="Helvetica,sans-Serif" font-size="10.00">AC_PID::imax</text>
</a>
</g>
</g>
<!-- Node2&#45;&gt;Node14 -->
<g id="edge13" class="edge"><title>Node2&#45;&gt;Node14</title>
<path fill="none" stroke="midnightblue" d="M127.429,-240.705C137.565,-249.249 153.394,-261.471 169,-269 175.008,-271.899 181.535,-274.423 188.088,-276.602"/>
<polygon fill="midnightblue" stroke="midnightblue" points="187.064,-279.949 197.652,-279.551 189.127,-273.26 187.064,-279.949"/>
</g>
<!-- Node17 -->
<g id="node17" class="node"><title>Node17</title>
<g id="a_node17"><a xlink:href="$classAP__HAL_1_1RCInput.html#a078fd7e6d2e6a899009ec674a8e03498" xlink:title="AP_HAL::RCInput::read">
<polygon fill="white" stroke="black" points="177,-240.5 177,-259.5 299,-259.5 299,-240.5 177,-240.5"/>
<text text-anchor="middle" x="238" y="-247.5" font-family="Helvetica,sans-Serif" font-size="10.00">AP_HAL::RCInput::read</text>
</a>
</g>
</g>
<!-- Node2&#45;&gt;Node17 -->
<g id="edge16" class="edge"><title>Node2&#45;&gt;Node17</title>
<path fill="none" stroke="midnightblue" d="M133.255,-233.642C142.338,-235.074 154.245,-236.951 166.742,-238.922"/>
<polygon fill="midnightblue" stroke="midnightblue" points="166.426,-242.415 176.849,-240.516 167.516,-235.501 166.426,-242.415"/>
</g>
<!-- Node18 -->
<g id="node18" class="node"><title>Node18</title>
<g id="a_node18"><a xlink:href="$classAC__PID.html#ac267330f1299f011febcaaba47994af7" xlink:title="AC_PID::set_input_filter_all">
<polygon fill="white" stroke="black" points="169,-202.5 169,-221.5 307,-221.5 307,-202.5 169,-202.5"/>
<text text-anchor="middle" x="238" y="-209.5" font-family="Helvetica,sans-Serif" font-size="10.00">AC_PID::set_input_filter_all</text>
</a>
</g>
</g>
<!-- Node2&#45;&gt;Node18 -->
<g id="edge17" class="edge"><title>Node2&#45;&gt;Node18</title>
<path fill="none" stroke="midnightblue" d="M133.255,-228.358C142.287,-226.934 154.111,-225.07 166.532,-223.111"/>
<polygon fill="midnightblue" stroke="midnightblue" points="167.246,-226.542 176.579,-221.527 166.156,-219.627 167.246,-226.542"/>
</g>
<!-- Node19 -->
<g id="node19" class="node"><title>Node19</title>
<g id="a_node19"><a xlink:href="$classAC__PID.html#a4808bb2656a1e8d94c713e58a7a2a222" xlink:title="AC_PID::get_p">
<polygon fill="white" stroke="black" points="196.5,-164.5 196.5,-183.5 279.5,-183.5 279.5,-164.5 196.5,-164.5"/>
<text text-anchor="middle" x="238" y="-171.5" font-family="Helvetica,sans-Serif" font-size="10.00">AC_PID::get_p</text>
</a>
</g>
</g>
<!-- Node2&#45;&gt;Node19 -->
<g id="edge19" class="edge"><title>Node2&#45;&gt;Node19</title>
<path fill="none" stroke="midnightblue" d="M127.429,-221.295C137.565,-212.751 153.394,-200.529 169,-193 174.579,-190.309 180.604,-187.939 186.684,-185.87"/>
<polygon fill="midnightblue" stroke="midnightblue" points="187.739,-189.207 196.223,-182.862 185.634,-182.531 187.739,-189.207"/>
</g>
<!-- Node20 -->
<g id="node20" class="node"><title>Node20</title>
<g id="a_node20"><a xlink:href="$classAC__PID.html#a2d5bf9811a78c93a396ec1e37ae6fa0a" xlink:title="AC_PID::get_i">
<polygon fill="white" stroke="black" points="361.5,-145.5 361.5,-164.5 441.5,-164.5 441.5,-145.5 361.5,-145.5"/>
<text text-anchor="middle" x="401.5" y="-152.5" font-family="Helvetica,sans-Serif" font-size="10.00">AC_PID::get_i</text>
</a>
</g>
</g>
<!-- Node2&#45;&gt;Node20 -->
<g id="edge20" class="edge"><title>Node2&#45;&gt;Node20</title>
<path fill="none" stroke="midnightblue" d="M119.789,-221.273C126.168,-204.163 142.018,-169.155 169,-155 227.646,-124.234 306.708,-133.074 355.605,-143.281"/>
<polygon fill="midnightblue" stroke="midnightblue" points="355.046,-146.741 365.564,-145.466 356.546,-139.904 355.046,-146.741"/>
</g>
<!-- Node21 -->
<g id="node21" class="node"><title>Node21</title>
<g id="a_node21"><a xlink:href="$classAC__PID.html#ad0c0510049ea37401920792e843bec86" xlink:title="AC_PID::get_d">
<polygon fill="white" stroke="black" points="196.5,-88.5 196.5,-107.5 279.5,-107.5 279.5,-88.5 196.5,-88.5"/>
<text text-anchor="middle" x="238" y="-95.5" font-family="Helvetica,sans-Serif" font-size="10.00">AC_PID::get_d</text>
</a>
</g>
</g>
<!-- Node2&#45;&gt;Node21 -->
<g id="edge22" class="edge"><title>Node2&#45;&gt;Node21</title>
<path fill="none" stroke="midnightblue" d="M118.519,-221.344C123.414,-200.286 137.87,-149.893 169,-122 174.2,-117.341 180.361,-113.573 186.817,-110.529"/>
<polygon fill="midnightblue" stroke="midnightblue" points="188.504,-113.619 196.412,-106.567 185.833,-107.149 188.504,-113.619"/>
</g>
<!-- Node22 -->
<g id="node22" class="node"><title>Node22</title>
<g id="a_node22"><a xlink:href="$classAP__HAL_1_1Scheduler.html#ab3175e2e6223ccfe82f957e41cc12b26" xlink:title="AP_HAL::Scheduler::\ldelay">
<polygon fill="white" stroke="black" points="183,-39 183,-69 293,-69 293,-39 183,-39"/>
<text text-anchor="start" x="191" y="-57" font-family="Helvetica,sans-Serif" font-size="10.00">AP_HAL::Scheduler::</text>
<text text-anchor="middle" x="238" y="-46" font-family="Helvetica,sans-Serif" font-size="10.00">delay</text>
</a>
</g>
</g>
<!-- Node2&#45;&gt;Node22 -->
<g id="edge23" class="edge"><title>Node2&#45;&gt;Node22</title>
<path fill="none" stroke="midnightblue" d="M117.057,-221.346C119.096,-194.893 128.345,-120.466 169,-79 170.646,-77.3216 172.413,-75.755 174.276,-74.2929"/>
<polygon fill="midnightblue" stroke="midnightblue" points="176.573,-76.9699 182.975,-68.5282 172.706,-71.135 176.573,-76.9699"/>
</g>
<!-- Node23 -->
<g id="node23" class="node"><title>Node23</title>
<g id="a_node23"><a xlink:href="$AC__PID__test_8cpp.html#aa754b8f19697c092a3eb48905d6561e3" xlink:title="AP_HAL_MAIN">
<polygon fill="white" stroke="black" points="195,-0.5 195,-19.5 281,-19.5 281,-0.5 195,-0.5"/>
<text text-anchor="middle" x="238" y="-7.5" font-family="Helvetica,sans-Serif" font-size="10.00">AP_HAL_MAIN</text>
</a>
</g>
</g>
<!-- Node2&#45;&gt;Node23 -->
<g id="edge24" class="edge"><title>Node2&#45;&gt;Node23</title>
<path fill="none" stroke="midnightblue" d="M115.908,-221.393C114.486,-189.283 114.417,-84.5853 169,-29 173.565,-24.351 179.166,-20.8134 185.177,-18.1262"/>
<polygon fill="midnightblue" stroke="midnightblue" points="186.688,-21.2997 194.867,-14.5658 184.274,-14.7291 186.688,-21.2997"/>
</g>
<!-- Node4 -->
<g id="node4" class="node"><title>Node4</title>
<g id="a_node4"><a xlink:href="$classAP__HAL_1_1UARTDriver.html#aa8abfb6d6641299472c29ac1edde559f" xlink:title="AP_HAL::UARTDriver\l::vprintf">
<polygon fill="white" stroke="black" points="344,-431 344,-461 459,-461 459,-431 344,-431"/>
<text text-anchor="start" x="352" y="-449" font-family="Helvetica,sans-Serif" font-size="10.00">AP_HAL::UARTDriver</text>
<text text-anchor="middle" x="401.5" y="-438" font-family="Helvetica,sans-Serif" font-size="10.00">::vprintf</text>
</a>
</g>
</g>
<!-- Node3&#45;&gt;Node4 -->
<g id="edge3" class="edge"><title>Node3&#45;&gt;Node4</title>
<path fill="none" stroke="midnightblue" d="M295.939,-446C308.071,-446 320.991,-446 333.461,-446"/>
<polygon fill="midnightblue" stroke="midnightblue" points="333.803,-449.5 343.803,-446 333.803,-442.5 333.803,-449.5"/>
</g>
<!-- Node5 -->
<g id="node5" class="node"><title>Node5</title>
<g id="a_node5"><a xlink:href="$print__vprintf_8cpp.html#a1534eaeab54696df96975b56d9f49212" xlink:title="print_vprintf">
<polygon fill="white" stroke="black" points="496,-436.5 496,-455.5 564,-455.5 564,-436.5 496,-436.5"/>
<text text-anchor="middle" x="530" y="-443.5" font-family="Helvetica,sans-Serif" font-size="10.00">print_vprintf</text>
</a>
</g>
</g>
<!-- Node4&#45;&gt;Node5 -->
<g id="edge4" class="edge"><title>Node4&#45;&gt;Node5</title>
<path fill="none" stroke="midnightblue" d="M459.09,-446C467.976,-446 477.039,-446 485.568,-446"/>
<polygon fill="midnightblue" stroke="midnightblue" points="485.658,-449.5 495.658,-446 485.658,-442.5 485.658,-449.5"/>
</g>
<!-- Node6 -->
<g id="node6" class="node"><title>Node6</title>
<g id="a_node6"><a xlink:href="$classAP__HAL_1_1Print.html#acc65391952a43334f8f5c9bef341f501" xlink:title="AP_HAL::Print::write">
<polygon fill="white" stroke="black" points="600,-512.5 600,-531.5 708,-531.5 708,-512.5 600,-512.5"/>
<text text-anchor="middle" x="654" y="-519.5" font-family="Helvetica,sans-Serif" font-size="10.00">AP_HAL::Print::write</text>
</a>
</g>
</g>
<!-- Node5&#45;&gt;Node6 -->
<g id="edge5" class="edge"><title>Node5&#45;&gt;Node6</title>
<path fill="none" stroke="midnightblue" d="M540.47,-455.683C553.07,-468.102 576.502,-489.629 600,-503 603.632,-505.067 607.529,-506.973 611.501,-508.715"/>
<polygon fill="midnightblue" stroke="midnightblue" points="610.233,-511.977 620.816,-512.479 612.856,-505.487 610.233,-511.977"/>
</g>
<!-- Node7 -->
<g id="node7" class="node"><title>Node7</title>
<g id="a_node7"><a xlink:href="$ftoa__engine_8cpp.html#a1c28234da8f20b43c85890d4bb452947" xlink:title="ftoa_engine">
<polygon fill="white" stroke="black" points="620.5,-474.5 620.5,-493.5 687.5,-493.5 687.5,-474.5 620.5,-474.5"/>
<text text-anchor="middle" x="654" y="-481.5" font-family="Helvetica,sans-Serif" font-size="10.00">ftoa_engine</text>
</a>
</g>
</g>
<!-- Node5&#45;&gt;Node7 -->
<g id="edge6" class="edge"><title>Node5&#45;&gt;Node7</title>
<path fill="none" stroke="midnightblue" d="M561.786,-455.589C577.101,-460.359 595.817,-466.189 612.3,-471.323"/>
<polygon fill="midnightblue" stroke="midnightblue" points="611.636,-474.782 622.224,-474.414 613.717,-468.099 611.636,-474.782"/>
</g>
<!-- Node8 -->
<g id="node8" class="node"><title>Node8</title>
<g id="a_node8"><a xlink:href="$replace_8cpp.html#a880bcc7b85a09e6254691bebd5344b51" xlink:title="strnlen">
<polygon fill="white" stroke="black" points="631,-436.5 631,-455.5 677,-455.5 677,-436.5 631,-436.5"/>
<text text-anchor="middle" x="654" y="-443.5" font-family="Helvetica,sans-Serif" font-size="10.00">strnlen</text>
</a>
</g>
</g>
<!-- Node5&#45;&gt;Node8 -->
<g id="edge7" class="edge"><title>Node5&#45;&gt;Node8</title>
<path fill="none" stroke="midnightblue" d="M564.015,-446C581.547,-446 603.016,-446 620.474,-446"/>
<polygon fill="midnightblue" stroke="midnightblue" points="620.754,-449.5 630.754,-446 620.754,-442.5 620.754,-449.5"/>
</g>
<!-- Node9 -->
<g id="node9" class="node"><title>Node9</title>
<g id="a_node9"><a xlink:href="$utoa__invert_8cpp.html#a34926f552460b47c414ec4d83b32815c" xlink:title="ulltoa_invert">
<polygon fill="white" stroke="black" points="619.5,-398.5 619.5,-417.5 688.5,-417.5 688.5,-398.5 619.5,-398.5"/>
<text text-anchor="middle" x="654" y="-405.5" font-family="Helvetica,sans-Serif" font-size="10.00">ulltoa_invert</text>
</a>
</g>
</g>
<!-- Node5&#45;&gt;Node9 -->
<g id="edge8" class="edge"><title>Node5&#45;&gt;Node9</title>
<path fill="none" stroke="midnightblue" d="M561.786,-436.411C577.101,-431.641 595.817,-425.811 612.3,-420.677"/>
<polygon fill="midnightblue" stroke="midnightblue" points="613.717,-423.901 622.224,-417.586 611.636,-417.218 613.717,-423.901"/>
</g>
<!-- Node10 -->
<g id="node10" class="node"><title>Node10</title>
<g id="a_node10"><a xlink:href="$utoa__invert_8cpp.html#a5d99bba8e697c1e11da489d88fca8559" xlink:title="ultoa_invert">
<polygon fill="white" stroke="black" points="620.5,-360.5 620.5,-379.5 687.5,-379.5 687.5,-360.5 620.5,-360.5"/>
<text text-anchor="middle" x="654" y="-367.5" font-family="Helvetica,sans-Serif" font-size="10.00">ultoa_invert</text>
</a>
</g>
</g>
<!-- Node5&#45;&gt;Node10 -->
<g id="edge9" class="edge"><title>Node5&#45;&gt;Node10</title>
<path fill="none" stroke="midnightblue" d="M540.47,-436.317C553.07,-423.898 576.502,-402.371 600,-389 603.632,-386.933 607.529,-385.027 611.501,-383.285"/>
<polygon fill="midnightblue" stroke="midnightblue" points="612.856,-386.513 620.816,-379.521 610.233,-380.023 612.856,-386.513"/>
</g>
<!-- Node15 -->
<g id="node15" class="node"><title>Node15</title>
<g id="a_node15"><a xlink:href="$classAC__PID.html#ac12ffbd4fd053c6152d403b69e07b8e1" xlink:title="AC_PID::get_filt_alpha">
<polygon fill="white" stroke="black" points="343,-202.5 343,-221.5 460,-221.5 460,-202.5 343,-202.5"/>
<text text-anchor="middle" x="401.5" y="-209.5" font-family="Helvetica,sans-Serif" font-size="10.00">AC_PID::get_filt_alpha</text>
</a>
</g>
</g>
<!-- Node14&#45;&gt;Node15 -->
<g id="edge14" class="edge"><title>Node14&#45;&gt;Node15</title>
<path fill="none" stroke="midnightblue" d="M278.119,-279.051C287.743,-276.313 297.894,-272.957 307,-269 333.222,-257.604 360.903,-239.926 379.279,-227.28"/>
<polygon fill="midnightblue" stroke="midnightblue" points="381.318,-230.125 387.506,-221.526 377.306,-224.389 381.318,-230.125"/>
</g>
<!-- Node16 -->
<g id="node16" class="node"><title>Node16</title>
<g id="a_node16"><a xlink:href="$AP__Math_8h.html#a2a12cce483e9b870da70d30406d82c60" xlink:title="is_zero">
<polygon fill="white" stroke="black" points="506,-174.5 506,-193.5 554,-193.5 554,-174.5 506,-174.5"/>
<text text-anchor="middle" x="530" y="-181.5" font-family="Helvetica,sans-Serif" font-size="10.00">is_zero</text>
</a>
</g>
</g>
<!-- Node15&#45;&gt;Node16 -->
<g id="edge15" class="edge"><title>Node15&#45;&gt;Node16</title>
<path fill="none" stroke="midnightblue" d="M445.68,-202.442C462.08,-198.812 480.487,-194.738 495.822,-191.344"/>
<polygon fill="midnightblue" stroke="midnightblue" points="496.877,-194.695 505.884,-189.117 495.364,-187.86 496.877,-194.695"/>
</g>
<!-- Node18&#45;&gt;Node15 -->
<g id="edge18" class="edge"><title>Node18&#45;&gt;Node15</title>
<path fill="none" stroke="midnightblue" d="M307.022,-212C315.48,-212 324.129,-212 332.584,-212"/>
<polygon fill="midnightblue" stroke="midnightblue" points="332.777,-215.5 342.777,-212 332.777,-208.5 332.777,-215.5"/>
</g>
<!-- Node20&#45;&gt;Node16 -->
<g id="edge21" class="edge"><title>Node20&#45;&gt;Node16</title>
<path fill="none" stroke="midnightblue" d="M441.832,-164.017C459.25,-168.01 479.506,-172.654 496.106,-176.459"/>
<polygon fill="midnightblue" stroke="midnightblue" points="495.381,-179.884 505.911,-178.707 496.946,-173.061 495.381,-179.884"/>
</g>
</g>
</svg>
