<?xml version="1.0" encoding="UTF-8" standalone="no"?>
<!DOCTYPE svg PUBLIC "-//W3C//DTD SVG 1.1//EN"
 "http://www.w3.org/Graphics/SVG/1.1/DTD/svg11.dtd">
<!-- Generated by graphviz version 2.38.0 (20140413.2041)
 -->
<!-- Title: libraries/AP_Soaring/Variometer.h Pages: 1 -->
<svg width="300pt" height="240pt"
 viewBox="0.00 0.00 300.00 240.00" xmlns="http://www.w3.org/2000/svg" xmlns:xlink="http://www.w3.org/1999/xlink">
<g id="graph0" class="graph" transform="scale(1 1) rotate(0) translate(4 236)">
<title>libraries/AP_Soaring/Variometer.h</title>
<polygon fill="white" stroke="none" points="-4,4 -4,-236 296,-236 296,4 -4,4"/>
<!-- Node1 -->
<g id="node1" class="node"><title>Node1</title>
<polygon fill="#bfbfbf" stroke="black" points="125,-201.5 125,-231.5 230,-231.5 230,-201.5 125,-201.5"/>
<text text-anchor="start" x="133" y="-219.5" font-family="Helvetica,sans-Serif" font-size="10.00">libraries/AP_Soaring</text>
<text text-anchor="middle" x="177.5" y="-208.5" font-family="Helvetica,sans-Serif" font-size="10.00">/Variometer.h</text>
</g>
<!-- Node2 -->
<g id="node2" class="node"><title>Node2</title>
<g id="a_node2"><a xlink:href="$AP__Soaring_8h.html" xlink:title="libraries/AP_Soaring\l/AP_Soaring.h">
<polygon fill="white" stroke="black" points="64,-134.5 64,-164.5 169,-164.5 169,-134.5 64,-134.5"/>
<text text-anchor="start" x="72" y="-152.5" font-family="Helvetica,sans-Serif" font-size="10.00">libraries/AP_Soaring</text>
<text text-anchor="middle" x="116.5" y="-141.5" font-family="Helvetica,sans-Serif" font-size="10.00">/AP_Soaring.h</text>
</a>
</g>
</g>
<!-- Node1&#45;&gt;Node2 -->
<g id="edge1" class="edge"><title>Node1&#45;&gt;Node2</title>
<path fill="none" stroke="midnightblue" d="M157.346,-194.024C148.257,-184.34 137.779,-173.174 129.71,-164.577"/>
<polygon fill="midnightblue" stroke="midnightblue" points="154.869,-196.499 164.264,-201.396 159.973,-191.709 154.869,-196.499"/>
</g>
<!-- Node6 -->
<g id="node6" class="node"><title>Node6</title>
<g id="a_node6"><a xlink:href="$Variometer_8cpp.html" xlink:title="libraries/AP_Soaring\l/Variometer.cpp">
<polygon fill="white" stroke="black" points="187,-134.5 187,-164.5 292,-164.5 292,-134.5 187,-134.5"/>
<text text-anchor="start" x="195" y="-152.5" font-family="Helvetica,sans-Serif" font-size="10.00">libraries/AP_Soaring</text>
<text text-anchor="middle" x="239.5" y="-141.5" font-family="Helvetica,sans-Serif" font-size="10.00">/Variometer.cpp</text>
</a>
</g>
</g>
<!-- Node1&#45;&gt;Node6 -->
<g id="edge5" class="edge"><title>Node1&#45;&gt;Node6</title>
<path fill="none" stroke="midnightblue" d="M197.985,-194.024C207.222,-184.34 217.873,-173.174 226.073,-164.577"/>
<polygon fill="midnightblue" stroke="midnightblue" points="195.323,-191.744 190.953,-201.396 200.388,-196.576 195.323,-191.744"/>
</g>
<!-- Node3 -->
<g id="node3" class="node"><title>Node3</title>
<g id="a_node3"><a xlink:href="$AP__Soaring_8cpp.html" xlink:title="libraries/AP_Soaring\l/AP_Soaring.cpp">
<polygon fill="white" stroke="black" points="0,-67.5 0,-97.5 105,-97.5 105,-67.5 0,-67.5"/>
<text text-anchor="start" x="8" y="-85.5" font-family="Helvetica,sans-Serif" font-size="10.00">libraries/AP_Soaring</text>
<text text-anchor="middle" x="52.5" y="-74.5" font-family="Helvetica,sans-Serif" font-size="10.00">/AP_Soaring.cpp</text>
</a>
</g>
</g>
<!-- Node2&#45;&gt;Node3 -->
<g id="edge2" class="edge"><title>Node2&#45;&gt;Node3</title>
<path fill="none" stroke="midnightblue" d="M95.3546,-127.024C85.8192,-117.34 74.8251,-106.174 66.3599,-97.5765"/>
<polygon fill="midnightblue" stroke="midnightblue" points="93.1029,-129.726 102.613,-134.396 98.0909,-124.815 93.1029,-129.726"/>
</g>
<!-- Node4 -->
<g id="node4" class="node"><title>Node4</title>
<g id="a_node4"><a xlink:href="$AP__TECS_8h.html" xlink:title="Combined Total Energy Speed &amp; Height Control. This is a instance of an AP_SpdHgtControl class...">
<polygon fill="white" stroke="black" points="123.5,-67.5 123.5,-97.5 239.5,-97.5 239.5,-67.5 123.5,-67.5"/>
<text text-anchor="start" x="131.5" y="-85.5" font-family="Helvetica,sans-Serif" font-size="10.00">libraries/AP_TECS/AP</text>
<text text-anchor="middle" x="181.5" y="-74.5" font-family="Helvetica,sans-Serif" font-size="10.00">_TECS.h</text>
</a>
</g>
</g>
<!-- Node2&#45;&gt;Node4 -->
<g id="edge3" class="edge"><title>Node2&#45;&gt;Node4</title>
<path fill="none" stroke="midnightblue" d="M137.689,-127.311C147.439,-117.561 158.741,-106.259 167.423,-97.5765"/>
<polygon fill="midnightblue" stroke="midnightblue" points="135.2,-124.85 130.604,-134.396 140.15,-129.8 135.2,-124.85"/>
</g>
<!-- Node5 -->
<g id="node5" class="node"><title>Node5</title>
<g id="a_node5"><a xlink:href="$AP__TECS_8cpp.html" xlink:title="libraries/AP_TECS/AP\l_TECS.cpp">
<polygon fill="white" stroke="black" points="123.5,-0.5 123.5,-30.5 239.5,-30.5 239.5,-0.5 123.5,-0.5"/>
<text text-anchor="start" x="131.5" y="-18.5" font-family="Helvetica,sans-Serif" font-size="10.00">libraries/AP_TECS/AP</text>
<text text-anchor="middle" x="181.5" y="-7.5" font-family="Helvetica,sans-Serif" font-size="10.00">_TECS.cpp</text>
</a>
</g>
</g>
<!-- Node4&#45;&gt;Node5 -->
<g id="edge4" class="edge"><title>Node4&#45;&gt;Node5</title>
<path fill="none" stroke="midnightblue" d="M181.5,-57.1081C181.5,-48.1539 181.5,-38.3227 181.5,-30.5765"/>
<polygon fill="midnightblue" stroke="midnightblue" points="178,-57.3959 181.5,-67.396 185,-57.396 178,-57.3959"/>
</g>
</g>
</svg>
