<?xml version="1.0" encoding="UTF-8" standalone="no"?>
<!DOCTYPE svg PUBLIC "-//W3C//DTD SVG 1.1//EN"
 "http://www.w3.org/Graphics/SVG/1.1/DTD/svg11.dtd">
<!-- Generated by graphviz version 2.38.0 (20140413.2041)
 -->
<!-- Title: loop Pages: 1 -->
<svg width="1626pt" height="934pt"
 viewBox="0.00 0.00 1626.00 933.50" xmlns="http://www.w3.org/2000/svg" xmlns:xlink="http://www.w3.org/1999/xlink">
<g id="graph0" class="graph" transform="scale(1 1) rotate(0) translate(4 929.5)">
<title>loop</title>
<polygon fill="white" stroke="none" points="-4,4 -4,-929.5 1622,-929.5 1622,4 -4,4"/>
<!-- Node1 -->
<g id="node1" class="node"><title>Node1</title>
<polygon fill="#bfbfbf" stroke="black" points="0,-375.5 0,-394.5 35,-394.5 35,-375.5 0,-375.5"/>
<text text-anchor="middle" x="17.5" y="-382.5" font-family="Helvetica,sans-Serif" font-size="10.00">loop</text>
</g>
<!-- Node2 -->
<g id="node2" class="node"><title>Node2</title>
<g id="a_node2"><a xlink:href="$namespaceAP__HAL.html#a7aa0ce7625c9680e30ff4a99940907a5" xlink:title="AP_HAL::micros64">
<polygon fill="white" stroke="black" points="71,-400.5 71,-419.5 172,-419.5 172,-400.5 71,-400.5"/>
<text text-anchor="middle" x="121.5" y="-407.5" font-family="Helvetica,sans-Serif" font-size="10.00">AP_HAL::micros64</text>
</a>
</g>
</g>
<!-- Node1&#45;&gt;Node2 -->
<g id="edge1" class="edge"><title>Node1&#45;&gt;Node2</title>
<path fill="none" stroke="midnightblue" d="M35.3432,-389.128C45.3532,-391.582 58.6123,-394.831 71.6801,-398.034"/>
<polygon fill="midnightblue" stroke="midnightblue" points="71.0332,-401.479 81.5789,-400.461 72.6996,-394.681 71.0332,-401.479"/>
</g>
<!-- Node10 -->
<g id="node10" class="node"><title>Node10</title>
<g id="a_node10"><a xlink:href="$classAP__HAL_1_1Scheduler.html#a78c4f1b1f192ac1c99544b6cc8f099b0" xlink:title="AP_HAL::Scheduler::\ldelay_microseconds">
<polygon fill="white" stroke="black" points="880,-836 880,-866 990,-866 990,-836 880,-836"/>
<text text-anchor="start" x="888" y="-854" font-family="Helvetica,sans-Serif" font-size="10.00">AP_HAL::Scheduler::</text>
<text text-anchor="middle" x="935" y="-843" font-family="Helvetica,sans-Serif" font-size="10.00">delay_microseconds</text>
</a>
</g>
</g>
<!-- Node1&#45;&gt;Node10 -->
<g id="edge62" class="edge"><title>Node1&#45;&gt;Node10</title>
<path fill="none" stroke="midnightblue" d="M18.3124,-394.843C17.4181,-452.278 15.6838,-743.825 71,-809 129.014,-877.353 174.846,-866 264.5,-866 264.5,-866 264.5,-866 590,-866 687.515,-866 800.432,-859.909 869.527,-855.49"/>
<polygon fill="midnightblue" stroke="midnightblue" points="870.061,-858.963 879.814,-854.824 869.608,-851.978 870.061,-858.963"/>
</g>
<!-- Node12 -->
<g id="node12" class="node"><title>Node12</title>
<g id="a_node12"><a xlink:href="$classAP__HAL_1_1UARTDriver.html#a6ceedc792594e59fc7d80b39a435f027" xlink:title="AP_HAL::UARTDriver\l::printf">
<polygon fill="white" stroke="black" points="705,-172 705,-202 820,-202 820,-172 705,-172"/>
<text text-anchor="start" x="713" y="-190" font-family="Helvetica,sans-Serif" font-size="10.00">AP_HAL::UARTDriver</text>
<text text-anchor="middle" x="762.5" y="-179" font-family="Helvetica,sans-Serif" font-size="10.00">::printf</text>
</a>
</g>
</g>
<!-- Node1&#45;&gt;Node12 -->
<g id="edge59" class="edge"><title>Node1&#45;&gt;Node12</title>
<path fill="none" stroke="midnightblue" d="M21.0889,-375.39C35.513,-324.212 110.901,-86 264.5,-86 264.5,-86 264.5,-86 424,-86 536.337,-86 661.211,-137.992 722.805,-167.37"/>
<polygon fill="midnightblue" stroke="midnightblue" points="721.608,-170.679 732.135,-171.879 724.654,-164.377 721.608,-170.679"/>
</g>
<!-- Node46 -->
<g id="node46" class="node"><title>Node46</title>
<g id="a_node46"><a xlink:href="$VibTest_8cpp.html#af4d87c440401144eecd669ad5d31325a" xlink:title="DataFlash">
<polygon fill="white" stroke="black" points="234.5,-780.5 234.5,-799.5 296.5,-799.5 296.5,-780.5 234.5,-780.5"/>
<text text-anchor="middle" x="265.5" y="-787.5" font-family="Helvetica,sans-Serif" font-size="10.00">DataFlash</text>
</a>
</g>
</g>
<!-- Node1&#45;&gt;Node46 -->
<g id="edge58" class="edge"><title>Node1&#45;&gt;Node46</title>
<path fill="none" stroke="midnightblue" d="M20.69,-394.754C31.8261,-442.235 86.4617,-651.528 208,-766 212.952,-770.664 218.947,-774.494 225.157,-777.616"/>
<polygon fill="midnightblue" stroke="midnightblue" points="223.754,-780.823 234.312,-781.699 226.605,-774.43 223.754,-780.823"/>
</g>
<!-- Node47 -->
<g id="node47" class="node"><title>Node47</title>
<g id="a_node47"><a xlink:href="$namespaceAP__HAL.html#a77dffbb18891996280308e21316ec186" xlink:title="AP_HAL::millis">
<polygon fill="white" stroke="black" points="224,-210.5 224,-229.5 307,-229.5 307,-210.5 224,-210.5"/>
<text text-anchor="middle" x="265.5" y="-217.5" font-family="Helvetica,sans-Serif" font-size="10.00">AP_HAL::millis</text>
</a>
</g>
</g>
<!-- Node1&#45;&gt;Node47 -->
<g id="edge60" class="edge"><title>Node1&#45;&gt;Node47</title>
<path fill="none" stroke="midnightblue" d="M32.7893,-375.416C73.7203,-347.962 191.66,-268.856 241.66,-235.32"/>
<polygon fill="midnightblue" stroke="midnightblue" points="243.816,-238.088 250.171,-229.611 239.917,-232.274 243.816,-238.088"/>
</g>
<!-- Node48 -->
<g id="node48" class="node"><title>Node48</title>
<g id="a_node48"><a xlink:href="$namespaceAP__HAL.html#a478ddf5b4f7ab239ea980838c36e1bb1" xlink:title="AP_HAL::get_HAL">
<polygon fill="white" stroke="black" points="72,-38.5 72,-57.5 171,-57.5 171,-38.5 72,-38.5"/>
<text text-anchor="middle" x="121.5" y="-45.5" font-family="Helvetica,sans-Serif" font-size="10.00">AP_HAL::get_HAL</text>
</a>
</g>
</g>
<!-- Node1&#45;&gt;Node48 -->
<g id="edge63" class="edge"><title>Node1&#45;&gt;Node48</title>
<path fill="none" stroke="midnightblue" d="M18.9407,-375.479C21.2822,-328.531 33.5968,-121.948 71,-72 73.7139,-68.3759 77.1201,-65.2711 80.8691,-62.6174"/>
<polygon fill="midnightblue" stroke="midnightblue" points="82.6749,-65.6158 89.4885,-57.5024 79.1025,-59.5959 82.6749,-65.6158"/>
</g>
<!-- Node49 -->
<g id="node49" class="node"><title>Node49</title>
<g id="a_node49"><a xlink:href="$VibTest_8cpp.html#a7dfd9b79bc5a37d7df40207afbc5431f" xlink:title="setup">
<polygon fill="white" stroke="black" points="101,-780.5 101,-799.5 142,-799.5 142,-780.5 101,-780.5"/>
<text text-anchor="middle" x="121.5" y="-787.5" font-family="Helvetica,sans-Serif" font-size="10.00">setup</text>
</a>
</g>
</g>
<!-- Node1&#45;&gt;Node49 -->
<g id="edge64" class="edge"><title>Node1&#45;&gt;Node49</title>
<path fill="none" stroke="midnightblue" d="M20.7347,-394.535C27.8633,-424.886 50.7813,-521.954 71,-602 86.5206,-663.446 105.904,-735.897 115.134,-770.151"/>
<polygon fill="midnightblue" stroke="midnightblue" points="111.869,-771.489 117.854,-780.232 118.628,-769.666 111.869,-771.489"/>
</g>
<!-- Node50 -->
<g id="node50" class="node"><title>Node50</title>
<g id="a_node50"><a xlink:href="$VibTest_8cpp.html#aa754b8f19697c092a3eb48905d6561e3" xlink:title="AP_HAL_MAIN">
<polygon fill="white" stroke="black" points="78.5,-0.5 78.5,-19.5 164.5,-19.5 164.5,-0.5 78.5,-0.5"/>
<text text-anchor="middle" x="121.5" y="-7.5" font-family="Helvetica,sans-Serif" font-size="10.00">AP_HAL_MAIN</text>
</a>
</g>
</g>
<!-- Node1&#45;&gt;Node50 -->
<g id="edge67" class="edge"><title>Node1&#45;&gt;Node50</title>
<path fill="none" stroke="midnightblue" d="M18.6425,-375.487C19.5865,-324.592 26.377,-84.7082 71,-29 71.9711,-27.7876 73.0293,-26.6525 74.1588,-25.5898"/>
<polygon fill="midnightblue" stroke="midnightblue" points="76.428,-28.2682 82.4828,-19.574 72.3278,-22.5948 76.428,-28.2682"/>
</g>
<!-- Node3 -->
<g id="node3" class="node"><title>Node3</title>
<g id="a_node3"><a xlink:href="$classLinux_1_1Scheduler.html#a53ecaae0fdc72f85bd57c4b0cff93653" xlink:title="Linux::Scheduler::from">
<polygon fill="white" stroke="black" points="208,-424.5 208,-443.5 323,-443.5 323,-424.5 208,-424.5"/>
<text text-anchor="middle" x="265.5" y="-431.5" font-family="Helvetica,sans-Serif" font-size="10.00">Linux::Scheduler::from</text>
</a>
</g>
</g>
<!-- Node2&#45;&gt;Node3 -->
<g id="edge2" class="edge"><title>Node2&#45;&gt;Node3</title>
<path fill="none" stroke="midnightblue" d="M172.165,-418.394C180.442,-419.793 189.147,-421.264 197.767,-422.721"/>
<polygon fill="midnightblue" stroke="midnightblue" points="197.373,-426.204 207.817,-424.42 198.54,-419.302 197.373,-426.204"/>
</g>
<!-- Node22 -->
<g id="node22" class="node"><title>Node22</title>
<g id="a_node22"><a xlink:href="$classLinux_1_1Scheduler.html#a682b4c34f330f66db5ab4aa5d96e13f9" xlink:title="Linux::Scheduler::stopped\l_clock_usec">
<polygon fill="white" stroke="black" points="870,-300 870,-330 1000,-330 1000,-300 870,-300"/>
<text text-anchor="start" x="878" y="-318" font-family="Helvetica,sans-Serif" font-size="10.00">Linux::Scheduler::stopped</text>
<text text-anchor="middle" x="935" y="-307" font-family="Helvetica,sans-Serif" font-size="10.00">_clock_usec</text>
</a>
</g>
</g>
<!-- Node2&#45;&gt;Node22 -->
<g id="edge57" class="edge"><title>Node2&#45;&gt;Node22</title>
<path fill="none" stroke="midnightblue" d="M123.693,-400.121C128.198,-367.092 147.134,-259.307 208,-201 280.992,-131.076 320.919,-124 422,-124 422,-124 422,-124 590,-124 699.821,-124 741.761,-103.396 834,-163 858.702,-178.963 900.38,-252.131 921.267,-290.834"/>
<polygon fill="midnightblue" stroke="midnightblue" points="918.301,-292.71 926.106,-299.875 924.473,-289.407 918.301,-292.71"/>
</g>
<!-- Node4 -->
<g id="node4" class="node"><title>Node4</title>
<g id="a_node4"><a xlink:href="$classLinux_1_1Scheduler.html#a3d77c332e051c28c83fb07757e7100bd" xlink:title="Linux::Scheduler::init">
<polygon fill="white" stroke="black" points="369,-342.5 369,-361.5 477,-361.5 477,-342.5 369,-342.5"/>
<text text-anchor="middle" x="423" y="-349.5" font-family="Helvetica,sans-Serif" font-size="10.00">Linux::Scheduler::init</text>
</a>
</g>
</g>
<!-- Node3&#45;&gt;Node4 -->
<g id="edge3" class="edge"><title>Node3&#45;&gt;Node4</title>
<path fill="none" stroke="midnightblue" d="M279.804,-424.485C297.354,-412.213 329.477,-390.702 359,-376 366.832,-372.1 375.461,-368.431 383.755,-365.192"/>
<polygon fill="midnightblue" stroke="midnightblue" points="385.151,-368.406 393.268,-361.597 382.677,-361.857 385.151,-368.406"/>
</g>
<!-- Node11 -->
<g id="node11" class="node"><title>Node11</title>
<g id="a_node11"><a xlink:href="$classLinux_1_1Scheduler.html#a02a34a123dfebaf360f7010745e1e646" xlink:title="Linux::Scheduler::register\l_timer_process">
<polygon fill="white" stroke="black" points="525,-240 525,-270 653,-270 653,-240 525,-240"/>
<text text-anchor="start" x="533" y="-258" font-family="Helvetica,sans-Serif" font-size="10.00">Linux::Scheduler::register</text>
<text text-anchor="middle" x="589" y="-247" font-family="Helvetica,sans-Serif" font-size="10.00">_timer_process</text>
</a>
</g>
</g>
<!-- Node3&#45;&gt;Node11 -->
<g id="edge37" class="edge"><title>Node3&#45;&gt;Node11</title>
<path fill="none" stroke="midnightblue" d="M268.041,-424.397C273.593,-393.391 295.704,-295.718 359,-257 406.813,-227.753 471.409,-230.11 519.806,-238.134"/>
<polygon fill="midnightblue" stroke="midnightblue" points="519.418,-241.62 529.876,-239.923 520.642,-234.728 519.418,-241.62"/>
</g>
<!-- Node30 -->
<g id="node30" class="node"><title>Node30</title>
<g id="a_node30"><a xlink:href="$classLinux_1_1Scheduler.html#a14f3239ecbb9889823b20dc9de655c2f" xlink:title="Linux::Scheduler::delay">
<polygon fill="white" stroke="black" points="529.5,-392.5 529.5,-411.5 648.5,-411.5 648.5,-392.5 529.5,-392.5"/>
<text text-anchor="middle" x="589" y="-399.5" font-family="Helvetica,sans-Serif" font-size="10.00">Linux::Scheduler::delay</text>
</a>
</g>
</g>
<!-- Node3&#45;&gt;Node30 -->
<g id="edge31" class="edge"><title>Node3&#45;&gt;Node30</title>
<path fill="none" stroke="midnightblue" d="M296.571,-424.414C314.498,-419.15 337.821,-413.08 359,-410 412.435,-402.23 473.584,-400.451 519.245,-400.494"/>
<polygon fill="midnightblue" stroke="midnightblue" points="519.315,-403.994 529.329,-400.533 519.343,-396.994 519.315,-403.994"/>
</g>
<!-- Node31 -->
<g id="node31" class="node"><title>Node31</title>
<g id="a_node31"><a xlink:href="$classLinux_1_1Scheduler.html#a4cffd5bcba0175bf49c7aa75ff3bf09a" xlink:title="Linux::Scheduler::delay\l_microseconds">
<polygon fill="white" stroke="black" points="703,-895 703,-925 822,-925 822,-895 703,-895"/>
<text text-anchor="start" x="711" y="-913" font-family="Helvetica,sans-Serif" font-size="10.00">Linux::Scheduler::delay</text>
<text text-anchor="middle" x="762.5" y="-902" font-family="Helvetica,sans-Serif" font-size="10.00">_microseconds</text>
</a>
</g>
</g>
<!-- Node3&#45;&gt;Node31 -->
<g id="edge34" class="edge"><title>Node3&#45;&gt;Node31</title>
<path fill="none" stroke="midnightblue" d="M266.76,-443.616C268.349,-484.025 279.602,-642.187 359,-733 447.142,-833.814 603.486,-879.576 693.173,-898.396"/>
<polygon fill="midnightblue" stroke="midnightblue" points="692.473,-901.825 702.971,-900.4 693.875,-894.967 692.473,-901.825"/>
</g>
<!-- Node32 -->
<g id="node32" class="node"><title>Node32</title>
<g id="a_node32"><a xlink:href="$classLinux_1_1Scheduler.html#a5cb50b637d5fd3e5f9220bc23db0fb3f" xlink:title="Linux::Scheduler::register\l_delay_callback">
<polygon fill="white" stroke="black" points="359,-556 359,-586 487,-586 487,-556 359,-556"/>
<text text-anchor="start" x="367" y="-574" font-family="Helvetica,sans-Serif" font-size="10.00">Linux::Scheduler::register</text>
<text text-anchor="middle" x="423" y="-563" font-family="Helvetica,sans-Serif" font-size="10.00">_delay_callback</text>
</a>
</g>
</g>
<!-- Node3&#45;&gt;Node32 -->
<g id="edge36" class="edge"><title>Node3&#45;&gt;Node32</title>
<path fill="none" stroke="midnightblue" d="M271.937,-443.601C284.545,-465.061 317.862,-517.357 359,-547 360.89,-548.362 362.867,-549.657 364.907,-550.888"/>
<polygon fill="midnightblue" stroke="midnightblue" points="363.704,-554.216 374.167,-555.878 367.024,-548.053 363.704,-554.216"/>
</g>
<!-- Node33 -->
<g id="node33" class="node"><title>Node33</title>
<g id="a_node33"><a xlink:href="$classLinux_1_1Scheduler.html#aa2be97cb8686d72cc322fb38f69a940c" xlink:title="Linux::Scheduler::register\l_io_process">
<polygon fill="white" stroke="black" points="525,-191 525,-221 653,-221 653,-191 525,-191"/>
<text text-anchor="start" x="533" y="-209" font-family="Helvetica,sans-Serif" font-size="10.00">Linux::Scheduler::register</text>
<text text-anchor="middle" x="589" y="-198" font-family="Helvetica,sans-Serif" font-size="10.00">_io_process</text>
</a>
</g>
</g>
<!-- Node3&#45;&gt;Node33 -->
<g id="edge38" class="edge"><title>Node3&#45;&gt;Node33</title>
<path fill="none" stroke="midnightblue" d="M267.53,-424.099C271.645,-390.079 290.192,-277.358 359,-228 403.539,-196.051 466.136,-192.034 514.631,-195.183"/>
<polygon fill="midnightblue" stroke="midnightblue" points="514.516,-198.685 524.753,-195.957 515.049,-191.705 514.516,-198.685"/>
</g>
<!-- Node34 -->
<g id="node34" class="node"><title>Node34</title>
<g id="a_node34"><a xlink:href="$classLinux_1_1Scheduler.html#abba967d02c28cb0b16a7cebbff9bc6d6" xlink:title="Linux::Scheduler::suspend\l_timer_procs">
<polygon fill="white" stroke="black" points="523,-644 523,-674 655,-674 655,-644 523,-644"/>
<text text-anchor="start" x="531" y="-662" font-family="Helvetica,sans-Serif" font-size="10.00">Linux::Scheduler::suspend</text>
<text text-anchor="middle" x="589" y="-651" font-family="Helvetica,sans-Serif" font-size="10.00">_timer_procs</text>
</a>
</g>
</g>
<!-- Node3&#45;&gt;Node34 -->
<g id="edge40" class="edge"><title>Node3&#45;&gt;Node34</title>
<path fill="none" stroke="midnightblue" d="M267.331,-443.74C270.851,-478.257 287.827,-595.325 359,-645 403.215,-675.86 464.703,-677.998 512.832,-673.16"/>
<polygon fill="midnightblue" stroke="midnightblue" points="513.342,-676.625 522.888,-672.03 512.56,-669.669 513.342,-676.625"/>
</g>
<!-- Node37 -->
<g id="node37" class="node"><title>Node37</title>
<g id="a_node37"><a xlink:href="$classLinux_1_1Scheduler.html#aee4e701b92cb4721c4de1bfcdcded70c" xlink:title="Linux::Scheduler::resume\l_timer_procs">
<polygon fill="white" stroke="black" points="525,-505 525,-535 653,-535 653,-505 525,-505"/>
<text text-anchor="start" x="533" y="-523" font-family="Helvetica,sans-Serif" font-size="10.00">Linux::Scheduler::resume</text>
<text text-anchor="middle" x="589" y="-512" font-family="Helvetica,sans-Serif" font-size="10.00">_timer_procs</text>
</a>
</g>
</g>
<!-- Node3&#45;&gt;Node37 -->
<g id="edge45" class="edge"><title>Node3&#45;&gt;Node37</title>
<path fill="none" stroke="midnightblue" d="M301.631,-443.527C318.907,-448.204 340.041,-453.913 359,-459 413.606,-473.652 475.573,-490.151 521.263,-502.291"/>
<polygon fill="midnightblue" stroke="midnightblue" points="520.485,-505.706 531.049,-504.891 522.283,-498.941 520.485,-505.706"/>
</g>
<!-- Node39 -->
<g id="node39" class="node"><title>Node39</title>
<g id="a_node39"><a xlink:href="$classLinux_1_1Scheduler.html#af23753e7c6bfa97553db215a64235455" xlink:title="Linux::Scheduler::in\l_timerprocess">
<polygon fill="white" stroke="black" points="371.5,-507 371.5,-537 474.5,-537 474.5,-507 371.5,-507"/>
<text text-anchor="start" x="379.5" y="-525" font-family="Helvetica,sans-Serif" font-size="10.00">Linux::Scheduler::in</text>
<text text-anchor="middle" x="423" y="-514" font-family="Helvetica,sans-Serif" font-size="10.00">_timerprocess</text>
</a>
</g>
</g>
<!-- Node3&#45;&gt;Node39 -->
<g id="edge47" class="edge"><title>Node3&#45;&gt;Node39</title>
<path fill="none" stroke="midnightblue" d="M280.612,-443.567C298.491,-455.518 330.424,-476.306 359,-492 365.497,-495.568 372.487,-499.145 379.364,-502.521"/>
<polygon fill="midnightblue" stroke="midnightblue" points="378.086,-505.791 388.614,-506.983 381.127,-499.486 378.086,-505.791"/>
</g>
<!-- Node40 -->
<g id="node40" class="node"><title>Node40</title>
<g id="a_node40"><a xlink:href="$classLinux_1_1Scheduler.html#ac193459e3575c7a0588fdc72250c2044" xlink:title="Linux::Scheduler::register\l_timer_failsafe">
<polygon fill="white" stroke="black" points="359,-419 359,-449 487,-449 487,-419 359,-419"/>
<text text-anchor="start" x="367" y="-437" font-family="Helvetica,sans-Serif" font-size="10.00">Linux::Scheduler::register</text>
<text text-anchor="middle" x="423" y="-426" font-family="Helvetica,sans-Serif" font-size="10.00">_timer_failsafe</text>
</a>
</g>
</g>
<!-- Node3&#45;&gt;Node40 -->
<g id="edge48" class="edge"><title>Node3&#45;&gt;Node40</title>
<path fill="none" stroke="midnightblue" d="M323.079,-434C331.443,-434 340.16,-434 348.802,-434"/>
<polygon fill="midnightblue" stroke="midnightblue" points="348.887,-437.5 358.887,-434 348.887,-430.5 348.887,-437.5"/>
</g>
<!-- Node41 -->
<g id="node41" class="node"><title>Node41</title>
<g id="a_node41"><a xlink:href="$classLinux_1_1Scheduler.html#ad6070a7ee637adf5101b1e6b6efbf8f6" xlink:title="Linux::Scheduler::system\l_initialized">
<polygon fill="white" stroke="black" points="359,-693 359,-723 487,-723 487,-693 359,-693"/>
<text text-anchor="start" x="367" y="-711" font-family="Helvetica,sans-Serif" font-size="10.00">Linux::Scheduler::system</text>
<text text-anchor="middle" x="423" y="-700" font-family="Helvetica,sans-Serif" font-size="10.00">_initialized</text>
</a>
</g>
</g>
<!-- Node3&#45;&gt;Node41 -->
<g id="edge49" class="edge"><title>Node3&#45;&gt;Node41</title>
<path fill="none" stroke="midnightblue" d="M267.586,-443.731C272.059,-479.496 292.089,-605.36 359,-678 362.265,-681.545 366.037,-684.712 370.079,-687.534"/>
<polygon fill="midnightblue" stroke="midnightblue" points="368.333,-690.569 378.679,-692.851 372.014,-684.615 368.333,-690.569"/>
</g>
<!-- Node43 -->
<g id="node43" class="node"><title>Node43</title>
<g id="a_node43"><a xlink:href="$classLinux_1_1Scheduler.html#ae72cfa66c849ffd882ef518c35c71e69" xlink:title="Linux::Scheduler::reboot">
<polygon fill="white" stroke="black" points="362,-266.5 362,-285.5 484,-285.5 484,-266.5 362,-266.5"/>
<text text-anchor="middle" x="423" y="-273.5" font-family="Helvetica,sans-Serif" font-size="10.00">Linux::Scheduler::reboot</text>
</a>
</g>
</g>
<!-- Node3&#45;&gt;Node43 -->
<g id="edge52" class="edge"><title>Node3&#45;&gt;Node43</title>
<path fill="none" stroke="midnightblue" d="M270.622,-424.424C281.519,-400.181 313.409,-335.772 359,-300 364.136,-295.97 370.026,-292.556 376.096,-289.683"/>
<polygon fill="midnightblue" stroke="midnightblue" points="377.867,-292.733 385.701,-285.599 375.129,-286.291 377.867,-292.733"/>
</g>
<!-- Node44 -->
<g id="node44" class="node"><title>Node44</title>
<g id="a_node44"><a xlink:href="$classLinux_1_1Scheduler.html#a392aebafcdfe9a812e4db4b7a9dcce9c" xlink:title="Linux::Scheduler::stop\l_clock">
<polygon fill="white" stroke="black" points="366,-605 366,-635 480,-635 480,-605 366,-605"/>
<text text-anchor="start" x="374" y="-623" font-family="Helvetica,sans-Serif" font-size="10.00">Linux::Scheduler::stop</text>
<text text-anchor="middle" x="423" y="-612" font-family="Helvetica,sans-Serif" font-size="10.00">_clock</text>
</a>
</g>
</g>
<!-- Node3&#45;&gt;Node44 -->
<g id="edge53" class="edge"><title>Node3&#45;&gt;Node44</title>
<path fill="none" stroke="midnightblue" d="M269.382,-443.528C278.188,-471.094 307.333,-551.771 359,-596 360.5,-597.284 362.077,-598.504 363.713,-599.661"/>
<polygon fill="midnightblue" stroke="midnightblue" points="361.958,-602.691 372.31,-604.944 365.623,-596.727 361.958,-602.691"/>
</g>
<!-- Node5 -->
<g id="node5" class="node"><title>Node5</title>
<g id="a_node5"><a xlink:href="$namespaceAP__HAL.html#a71832f03d849a0c088f04fc98d3c8143" xlink:title="AP_HAL::panic">
<polygon fill="white" stroke="black" points="547,-780.5 547,-799.5 631,-799.5 631,-780.5 547,-780.5"/>
<text text-anchor="middle" x="589" y="-787.5" font-family="Helvetica,sans-Serif" font-size="10.00">AP_HAL::panic</text>
</a>
</g>
</g>
<!-- Node4&#45;&gt;Node5 -->
<g id="edge4" class="edge"><title>Node4&#45;&gt;Node5</title>
<path fill="none" stroke="midnightblue" d="M439.68,-361.588C454.603,-371.646 476.319,-388.913 487,-410 552.268,-538.857 456.178,-604.941 523,-733 532.027,-750.3 548.651,-764.73 562.827,-774.743"/>
<polygon fill="midnightblue" stroke="midnightblue" points="560.993,-777.727 571.247,-780.393 564.893,-771.915 560.993,-777.727"/>
</g>
<!-- Node4&#45;&gt;Node11 -->
<g id="edge10" class="edge"><title>Node4&#45;&gt;Node11</title>
<path fill="none" stroke="midnightblue" d="M440.325,-342.345C466.578,-326.817 518.753,-295.957 553.522,-275.393"/>
<polygon fill="midnightblue" stroke="midnightblue" points="555.569,-278.248 562.395,-270.145 552.006,-272.223 555.569,-278.248"/>
</g>
<!-- Node20 -->
<g id="node20" class="node"><title>Node20</title>
<g id="a_node20"><a xlink:href="$classLinux_1_1Scheduler.html#a163eb7b285c95b1b1d036fc61d723910" xlink:title="Linux::Scheduler::\l_debug_stack">
<polygon fill="white" stroke="black" points="541.5,-343 541.5,-373 636.5,-373 636.5,-343 541.5,-343"/>
<text text-anchor="start" x="549.5" y="-361" font-family="Helvetica,sans-Serif" font-size="10.00">Linux::Scheduler::</text>
<text text-anchor="middle" x="589" y="-350" font-family="Helvetica,sans-Serif" font-size="10.00">_debug_stack</text>
</a>
</g>
</g>
<!-- Node4&#45;&gt;Node20 -->
<g id="edge19" class="edge"><title>Node4&#45;&gt;Node20</title>
<path fill="none" stroke="midnightblue" d="M477.246,-353.948C494.525,-354.58 513.754,-355.284 531.276,-355.925"/>
<polygon fill="midnightblue" stroke="midnightblue" points="531.247,-359.426 541.368,-356.294 531.503,-352.431 531.247,-359.426"/>
</g>
<!-- Node6 -->
<g id="node6" class="node"><title>Node6</title>
<g id="a_node6"><a xlink:href="$classAP__HAL_1_1RCInput.html#a2bea13d38f2b9ae8bf5193a3a69f0a31" xlink:title="AP_HAL::RCInput::teardown">
<polygon fill="white" stroke="black" points="691,-761.5 691,-780.5 834,-780.5 834,-761.5 691,-761.5"/>
<text text-anchor="middle" x="762.5" y="-768.5" font-family="Helvetica,sans-Serif" font-size="10.00">AP_HAL::RCInput::teardown</text>
</a>
</g>
</g>
<!-- Node5&#45;&gt;Node6 -->
<g id="edge5" class="edge"><title>Node5&#45;&gt;Node6</title>
<path fill="none" stroke="midnightblue" d="M631.079,-785.449C646.072,-783.788 663.594,-781.847 680.84,-779.936"/>
<polygon fill="midnightblue" stroke="midnightblue" points="681.387,-783.397 690.941,-778.817 680.616,-776.44 681.387,-783.397"/>
</g>
<!-- Node5&#45;&gt;Node10 -->
<g id="edge9" class="edge"><title>Node5&#45;&gt;Node10</title>
<path fill="none" stroke="midnightblue" d="M631.153,-797.297C690.305,-807.787 799.915,-827.223 869.782,-839.613"/>
<polygon fill="midnightblue" stroke="midnightblue" points="869.334,-843.088 879.792,-841.387 870.556,-836.195 869.334,-843.088"/>
</g>
<!-- Node7 -->
<g id="node7" class="node"><title>Node7</title>
<g id="a_node7"><a xlink:href="$classAP__HAL_1_1RCInput.html#aee1fade33080edef83dd7db0fad0f7da" xlink:title="AP_HAL::RCInput::new\l_input">
<polygon fill="white" stroke="black" points="874,-748 874,-778 996,-778 996,-748 874,-748"/>
<text text-anchor="start" x="882" y="-766" font-family="Helvetica,sans-Serif" font-size="10.00">AP_HAL::RCInput::new</text>
<text text-anchor="middle" x="935" y="-755" font-family="Helvetica,sans-Serif" font-size="10.00">_input</text>
</a>
</g>
</g>
<!-- Node6&#45;&gt;Node7 -->
<g id="edge6" class="edge"><title>Node6&#45;&gt;Node7</title>
<path fill="none" stroke="midnightblue" d="M834.326,-767.677C844.104,-767.218 854.144,-766.747 863.909,-766.289"/>
<polygon fill="midnightblue" stroke="midnightblue" points="864.138,-769.782 873.963,-765.817 863.81,-762.79 864.138,-769.782"/>
</g>
<!-- Node8 -->
<g id="node8" class="node"><title>Node8</title>
<g id="a_node8"><a xlink:href="$classAP__HAL_1_1RCInput.html#ae55f959c6115c1f41783af3a2b6c4fcd" xlink:title="AP_HAL::RCInput::num\l_channels">
<polygon fill="white" stroke="black" points="874,-699 874,-729 996,-729 996,-699 874,-699"/>
<text text-anchor="start" x="882" y="-717" font-family="Helvetica,sans-Serif" font-size="10.00">AP_HAL::RCInput::num</text>
<text text-anchor="middle" x="935" y="-706" font-family="Helvetica,sans-Serif" font-size="10.00">_channels</text>
</a>
</g>
</g>
<!-- Node6&#45;&gt;Node8 -->
<g id="edge7" class="edge"><title>Node6&#45;&gt;Node8</title>
<path fill="none" stroke="midnightblue" d="M792.038,-761.459C815.801,-753.515 850.322,-741.974 879.373,-732.262"/>
<polygon fill="midnightblue" stroke="midnightblue" points="880.617,-735.537 888.991,-729.047 878.398,-728.898 880.617,-735.537"/>
</g>
<!-- Node9 -->
<g id="node9" class="node"><title>Node9</title>
<g id="a_node9"><a xlink:href="$classAP__HAL_1_1RCInput.html#a078fd7e6d2e6a899009ec674a8e03498" xlink:title="AP_HAL::RCInput::read">
<polygon fill="white" stroke="black" points="874,-797.5 874,-816.5 996,-816.5 996,-797.5 874,-797.5"/>
<text text-anchor="middle" x="935" y="-804.5" font-family="Helvetica,sans-Serif" font-size="10.00">AP_HAL::RCInput::read</text>
</a>
</g>
</g>
<!-- Node6&#45;&gt;Node9 -->
<g id="edge8" class="edge"><title>Node6&#45;&gt;Node9</title>
<path fill="none" stroke="midnightblue" d="M808.743,-780.553C830.314,-785.107 856.303,-790.595 879.004,-795.388"/>
<polygon fill="midnightblue" stroke="midnightblue" points="878.334,-798.824 888.841,-797.465 879.78,-791.975 878.334,-798.824"/>
</g>
<!-- Node11&#45;&gt;Node12 -->
<g id="edge11" class="edge"><title>Node11&#45;&gt;Node12</title>
<path fill="none" stroke="midnightblue" d="M631.7,-239.871C639.464,-236.978 647.494,-233.935 655,-231 675.402,-223.022 697.835,-213.819 716.83,-205.899"/>
<polygon fill="midnightblue" stroke="midnightblue" points="718.262,-209.094 726.136,-202.006 715.56,-202.636 718.262,-209.094"/>
</g>
<!-- Node13 -->
<g id="node13" class="node"><title>Node13</title>
<g id="a_node13"><a xlink:href="$classAP__HAL_1_1UARTDriver.html#aa8abfb6d6641299472c29ac1edde559f" xlink:title="AP_HAL::UARTDriver\l::vprintf">
<polygon fill="white" stroke="black" points="877.5,-160 877.5,-190 992.5,-190 992.5,-160 877.5,-160"/>
<text text-anchor="start" x="885.5" y="-178" font-family="Helvetica,sans-Serif" font-size="10.00">AP_HAL::UARTDriver</text>
<text text-anchor="middle" x="935" y="-167" font-family="Helvetica,sans-Serif" font-size="10.00">::vprintf</text>
</a>
</g>
</g>
<!-- Node12&#45;&gt;Node13 -->
<g id="edge12" class="edge"><title>Node12&#45;&gt;Node13</title>
<path fill="none" stroke="midnightblue" d="M820.274,-183.004C835.372,-181.942 851.817,-180.784 867.39,-179.688"/>
<polygon fill="midnightblue" stroke="midnightblue" points="867.744,-183.172 877.474,-178.978 867.253,-176.189 867.744,-183.172"/>
</g>
<!-- Node14 -->
<g id="node14" class="node"><title>Node14</title>
<g id="a_node14"><a xlink:href="$print__vprintf_8cpp.html#a1534eaeab54696df96975b56d9f49212" xlink:title="print_vprintf">
<polygon fill="white" stroke="black" points="1073.5,-157.5 1073.5,-176.5 1141.5,-176.5 1141.5,-157.5 1073.5,-157.5"/>
<text text-anchor="middle" x="1107.5" y="-164.5" font-family="Helvetica,sans-Serif" font-size="10.00">print_vprintf</text>
</a>
</g>
</g>
<!-- Node13&#45;&gt;Node14 -->
<g id="edge13" class="edge"><title>Node13&#45;&gt;Node14</title>
<path fill="none" stroke="midnightblue" d="M992.774,-172.336C1015.75,-171.258 1041.85,-170.034 1063.24,-169.03"/>
<polygon fill="midnightblue" stroke="midnightblue" points="1063.5,-172.521 1073.33,-168.556 1063.18,-165.529 1063.5,-172.521"/>
</g>
<!-- Node15 -->
<g id="node15" class="node"><title>Node15</title>
<g id="a_node15"><a xlink:href="$classAP__HAL_1_1Print.html#acc65391952a43334f8f5c9bef341f501" xlink:title="AP_HAL::Print::write">
<polygon fill="white" stroke="black" points="1216.5,-225.5 1216.5,-244.5 1324.5,-244.5 1324.5,-225.5 1216.5,-225.5"/>
<text text-anchor="middle" x="1270.5" y="-232.5" font-family="Helvetica,sans-Serif" font-size="10.00">AP_HAL::Print::write</text>
</a>
</g>
</g>
<!-- Node14&#45;&gt;Node15 -->
<g id="edge14" class="edge"><title>Node14&#45;&gt;Node15</title>
<path fill="none" stroke="midnightblue" d="M1127.88,-176.6C1149.04,-186.918 1184.04,-203.516 1215,-216 1220.11,-218.061 1225.54,-220.114 1230.92,-222.066"/>
<polygon fill="midnightblue" stroke="midnightblue" points="1229.86,-225.406 1240.46,-225.453 1232.21,-218.809 1229.86,-225.406"/>
</g>
<!-- Node16 -->
<g id="node16" class="node"><title>Node16</title>
<g id="a_node16"><a xlink:href="$ftoa__engine_8cpp.html#a1c28234da8f20b43c85890d4bb452947" xlink:title="ftoa_engine">
<polygon fill="white" stroke="black" points="1237,-187.5 1237,-206.5 1304,-206.5 1304,-187.5 1237,-187.5"/>
<text text-anchor="middle" x="1270.5" y="-194.5" font-family="Helvetica,sans-Serif" font-size="10.00">ftoa_engine</text>
</a>
</g>
</g>
<!-- Node14&#45;&gt;Node16 -->
<g id="edge15" class="edge"><title>Node14&#45;&gt;Node16</title>
<path fill="none" stroke="midnightblue" d="M1141.86,-173.216C1166.42,-177.792 1200.01,-184.051 1226.57,-189"/>
<polygon fill="midnightblue" stroke="midnightblue" points="1226.26,-192.503 1236.73,-190.895 1227.54,-185.622 1226.26,-192.503"/>
</g>
<!-- Node17 -->
<g id="node17" class="node"><title>Node17</title>
<g id="a_node17"><a xlink:href="$replace_8cpp.html#a880bcc7b85a09e6254691bebd5344b51" xlink:title="strnlen">
<polygon fill="white" stroke="black" points="1247.5,-149.5 1247.5,-168.5 1293.5,-168.5 1293.5,-149.5 1247.5,-149.5"/>
<text text-anchor="middle" x="1270.5" y="-156.5" font-family="Helvetica,sans-Serif" font-size="10.00">strnlen</text>
</a>
</g>
</g>
<!-- Node14&#45;&gt;Node17 -->
<g id="edge16" class="edge"><title>Node14&#45;&gt;Node17</title>
<path fill="none" stroke="midnightblue" d="M1141.86,-165.342C1169.67,-163.961 1209.06,-162.003 1236.71,-160.629"/>
<polygon fill="midnightblue" stroke="midnightblue" points="1237.23,-164.108 1247.05,-160.116 1236.89,-157.116 1237.23,-164.108"/>
</g>
<!-- Node18 -->
<g id="node18" class="node"><title>Node18</title>
<g id="a_node18"><a xlink:href="$utoa__invert_8cpp.html#a34926f552460b47c414ec4d83b32815c" xlink:title="ulltoa_invert">
<polygon fill="white" stroke="black" points="1236,-111.5 1236,-130.5 1305,-130.5 1305,-111.5 1236,-111.5"/>
<text text-anchor="middle" x="1270.5" y="-118.5" font-family="Helvetica,sans-Serif" font-size="10.00">ulltoa_invert</text>
</a>
</g>
</g>
<!-- Node14&#45;&gt;Node18 -->
<g id="edge17" class="edge"><title>Node14&#45;&gt;Node18</title>
<path fill="none" stroke="midnightblue" d="M1141.86,-157.469C1166.36,-150.468 1199.86,-140.898 1226.39,-133.317"/>
<polygon fill="midnightblue" stroke="midnightblue" points="1227.53,-136.632 1236.18,-130.519 1225.61,-129.901 1227.53,-136.632"/>
</g>
<!-- Node19 -->
<g id="node19" class="node"><title>Node19</title>
<g id="a_node19"><a xlink:href="$utoa__invert_8cpp.html#a5d99bba8e697c1e11da489d88fca8559" xlink:title="ultoa_invert">
<polygon fill="white" stroke="black" points="1237,-73.5 1237,-92.5 1304,-92.5 1304,-73.5 1237,-73.5"/>
<text text-anchor="middle" x="1270.5" y="-80.5" font-family="Helvetica,sans-Serif" font-size="10.00">ultoa_invert</text>
</a>
</g>
</g>
<!-- Node14&#45;&gt;Node19 -->
<g id="edge18" class="edge"><title>Node14&#45;&gt;Node19</title>
<path fill="none" stroke="midnightblue" d="M1122.1,-157.395C1141.85,-143.75 1179.95,-118.575 1215,-102 1219.41,-99.9144 1224.11,-97.9349 1228.84,-96.0965"/>
<polygon fill="midnightblue" stroke="midnightblue" points="1230.32,-99.2813 1238.49,-92.5325 1227.89,-92.7151 1230.32,-99.2813"/>
</g>
<!-- Node21 -->
<g id="node21" class="node"><title>Node21</title>
<g id="a_node21"><a xlink:href="$namespaceAP__HAL.html#a59336c5fceaf28a76d1df1581a87a25d" xlink:title="AP_HAL::millis64">
<polygon fill="white" stroke="black" points="715.5,-305.5 715.5,-324.5 809.5,-324.5 809.5,-305.5 715.5,-305.5"/>
<text text-anchor="middle" x="762.5" y="-312.5" font-family="Helvetica,sans-Serif" font-size="10.00">AP_HAL::millis64</text>
</a>
</g>
</g>
<!-- Node20&#45;&gt;Node21 -->
<g id="edge20" class="edge"><title>Node20&#45;&gt;Node21</title>
<path fill="none" stroke="midnightblue" d="M636.863,-346.25C660.641,-340.288 689.479,-333.058 713.425,-327.054"/>
<polygon fill="midnightblue" stroke="midnightblue" points="714.51,-330.39 723.359,-324.563 712.808,-323.6 714.51,-330.39"/>
</g>
<!-- Node27 -->
<g id="node27" class="node"><title>Node27</title>
<g id="a_node27"><a xlink:href="$classLinux_1_1Thread.html#a6884970a0811ae21953c57fb98aa6e96" xlink:title="Linux::Thread::get\l_stack_usage">
<polygon fill="white" stroke="black" points="1523,-346 1523,-376 1618,-376 1618,-346 1523,-346"/>
<text text-anchor="start" x="1531" y="-364" font-family="Helvetica,sans-Serif" font-size="10.00">Linux::Thread::get</text>
<text text-anchor="middle" x="1570.5" y="-353" font-family="Helvetica,sans-Serif" font-size="10.00">_stack_usage</text>
</a>
</g>
</g>
<!-- Node20&#45;&gt;Node27 -->
<g id="edge30" class="edge"><title>Node20&#45;&gt;Node27</title>
<path fill="none" stroke="midnightblue" d="M636.737,-358.666C702.908,-359.55 827.69,-361 934,-361 934,-361 934,-361 1271.5,-361 1355.5,-361 1452.81,-361 1512.77,-361"/>
<polygon fill="midnightblue" stroke="midnightblue" points="1512.79,-364.5 1522.79,-361 1512.79,-357.5 1512.79,-364.5"/>
</g>
<!-- Node21&#45;&gt;Node3 -->
<g id="edge21" class="edge"><title>Node21&#45;&gt;Node3</title>
<path fill="none" stroke="midnightblue" d="M715.37,-306.153C637.653,-293.554 477.511,-277.642 359,-333 321.321,-350.6 291.95,-391.296 277.123,-415.313"/>
<polygon fill="midnightblue" stroke="midnightblue" points="273.949,-413.804 271.839,-424.187 279.963,-417.385 273.949,-413.804"/>
</g>
<!-- Node21&#45;&gt;Node22 -->
<g id="edge22" class="edge"><title>Node21&#45;&gt;Node22</title>
<path fill="none" stroke="midnightblue" d="M809.64,-315C824.994,-315 842.509,-315 859.451,-315"/>
<polygon fill="midnightblue" stroke="midnightblue" points="859.902,-318.5 869.902,-315 859.902,-311.5 859.902,-318.5"/>
</g>
<!-- Node23 -->
<g id="node23" class="node"><title>Node23</title>
<g id="a_node23"><a xlink:href="$classLinux_1_1Scheduler.html#a647872aff158b510c56862f51f951538" xlink:title="Linux::Scheduler::microsleep">
<polygon fill="white" stroke="black" points="1036,-392.5 1036,-411.5 1179,-411.5 1179,-392.5 1036,-392.5"/>
<text text-anchor="middle" x="1107.5" y="-399.5" font-family="Helvetica,sans-Serif" font-size="10.00">Linux::Scheduler::microsleep</text>
</a>
</g>
</g>
<!-- Node22&#45;&gt;Node23 -->
<g id="edge23" class="edge"><title>Node22&#45;&gt;Node23</title>
<path fill="none" stroke="midnightblue" d="M965.699,-330.154C997.518,-346.39 1047.62,-371.958 1078.69,-387.812"/>
<polygon fill="midnightblue" stroke="midnightblue" points="1077.19,-390.971 1087.68,-392.399 1080.37,-384.736 1077.19,-390.971"/>
</g>
<!-- Node24 -->
<g id="node24" class="node"><title>Node24</title>
<g id="a_node24"><a xlink:href="$classLinux_1_1Scheduler.html#ab373a83d818679432520ea881044b2a7" xlink:title="Linux::Scheduler::teardown">
<polygon fill="white" stroke="black" points="1040,-305.5 1040,-324.5 1175,-324.5 1175,-305.5 1040,-305.5"/>
<text text-anchor="middle" x="1107.5" y="-312.5" font-family="Helvetica,sans-Serif" font-size="10.00">Linux::Scheduler::teardown</text>
</a>
</g>
</g>
<!-- Node22&#45;&gt;Node24 -->
<g id="edge24" class="edge"><title>Node22&#45;&gt;Node24</title>
<path fill="none" stroke="midnightblue" d="M1000.46,-315C1010.05,-315 1020.01,-315 1029.82,-315"/>
<polygon fill="midnightblue" stroke="midnightblue" points="1029.96,-318.5 1039.96,-315 1029.96,-311.5 1029.96,-318.5"/>
</g>
<!-- Node25 -->
<g id="node25" class="node"><title>Node25</title>
<g id="a_node25"><a xlink:href="$classLinux_1_1PeriodicThread.html#a136aaf6e713f63b246fc4a2905e6e9a1" xlink:title="Linux::PeriodicThread\l::stop">
<polygon fill="white" stroke="black" points="1215,-302 1215,-332 1326,-332 1326,-302 1215,-302"/>
<text text-anchor="start" x="1223" y="-320" font-family="Helvetica,sans-Serif" font-size="10.00">Linux::PeriodicThread</text>
<text text-anchor="middle" x="1270.5" y="-309" font-family="Helvetica,sans-Serif" font-size="10.00">::stop</text>
</a>
</g>
</g>
<!-- Node24&#45;&gt;Node25 -->
<g id="edge25" class="edge"><title>Node24&#45;&gt;Node25</title>
<path fill="none" stroke="midnightblue" d="M1175.38,-315.831C1185.02,-315.951 1194.94,-316.074 1204.54,-316.193"/>
<polygon fill="midnightblue" stroke="midnightblue" points="1204.77,-319.696 1214.82,-316.321 1204.86,-312.697 1204.77,-319.696"/>
</g>
<!-- Node29 -->
<g id="node29" class="node"><title>Node29</title>
<g id="a_node29"><a xlink:href="$classLinux_1_1Thread.html#a32b7d184279634922e2f3b23b584fbcd" xlink:title="Linux::Thread::join">
<polygon fill="white" stroke="black" points="1222,-263.5 1222,-282.5 1319,-282.5 1319,-263.5 1222,-263.5"/>
<text text-anchor="middle" x="1270.5" y="-270.5" font-family="Helvetica,sans-Serif" font-size="10.00">Linux::Thread::join</text>
</a>
</g>
</g>
<!-- Node24&#45;&gt;Node29 -->
<g id="edge29" class="edge"><title>Node24&#45;&gt;Node29</title>
<path fill="none" stroke="midnightblue" d="M1145.03,-305.47C1168.11,-299.45 1198.14,-291.616 1222.92,-285.151"/>
<polygon fill="midnightblue" stroke="midnightblue" points="1224.04,-288.476 1232.83,-282.565 1222.27,-281.703 1224.04,-288.476"/>
</g>
<!-- Node26 -->
<g id="node26" class="node"><title>Node26</title>
<g id="a_node26"><a xlink:href="$classLinux_1_1Thread.html#a240d7b48a9a8eb43638f67295a1819e5" xlink:title="Linux::Thread::is_started">
<polygon fill="white" stroke="black" points="1362,-307.5 1362,-326.5 1487,-326.5 1487,-307.5 1362,-307.5"/>
<text text-anchor="middle" x="1424.5" y="-314.5" font-family="Helvetica,sans-Serif" font-size="10.00">Linux::Thread::is_started</text>
</a>
</g>
</g>
<!-- Node25&#45;&gt;Node26 -->
<g id="edge26" class="edge"><title>Node25&#45;&gt;Node26</title>
<path fill="none" stroke="midnightblue" d="M1326.38,-317C1334.54,-317 1343.05,-317 1351.5,-317"/>
<polygon fill="midnightblue" stroke="midnightblue" points="1351.74,-320.5 1361.74,-317 1351.74,-313.5 1351.74,-320.5"/>
</g>
<!-- Node26&#45;&gt;Node27 -->
<g id="edge27" class="edge"><title>Node26&#45;&gt;Node27</title>
<path fill="none" stroke="midnightblue" d="M1456.75,-326.547C1473.3,-331.607 1494.15,-337.977 1513.4,-343.859"/>
<polygon fill="midnightblue" stroke="midnightblue" points="1512.41,-347.214 1522.99,-346.789 1514.45,-340.52 1512.41,-347.214"/>
</g>
<!-- Node28 -->
<g id="node28" class="node"><title>Node28</title>
<g id="a_node28"><a xlink:href="$classLinux_1_1Thread.html#a8d3282b714faaf68eae534e9276419f0" xlink:title="Linux::Thread::set\l_stack_size">
<polygon fill="white" stroke="black" points="1523,-297 1523,-327 1618,-327 1618,-297 1523,-297"/>
<text text-anchor="start" x="1531" y="-315" font-family="Helvetica,sans-Serif" font-size="10.00">Linux::Thread::set</text>
<text text-anchor="middle" x="1570.5" y="-304" font-family="Helvetica,sans-Serif" font-size="10.00">_stack_size</text>
</a>
</g>
</g>
<!-- Node26&#45;&gt;Node28 -->
<g id="edge28" class="edge"><title>Node26&#45;&gt;Node28</title>
<path fill="none" stroke="midnightblue" d="M1487.4,-314.851C1495.86,-314.557 1504.5,-314.257 1512.86,-313.967"/>
<polygon fill="midnightblue" stroke="midnightblue" points="1513,-317.464 1522.87,-313.619 1512.76,-310.468 1513,-317.464"/>
</g>
<!-- Node30&#45;&gt;Node21 -->
<g id="edge32" class="edge"><title>Node30&#45;&gt;Node21</title>
<path fill="none" stroke="midnightblue" d="M629.492,-392.405C638.068,-389.787 646.972,-386.646 655,-383 686.808,-368.554 720.255,-345.767 740.993,-330.606"/>
<polygon fill="midnightblue" stroke="midnightblue" points="743.114,-333.391 749.061,-324.622 738.944,-327.768 743.114,-333.391"/>
</g>
<!-- Node30&#45;&gt;Node23 -->
<g id="edge33" class="edge"><title>Node30&#45;&gt;Node23</title>
<path fill="none" stroke="midnightblue" d="M648.746,-402C741.248,-402 921.062,-402 1025.68,-402"/>
<polygon fill="midnightblue" stroke="midnightblue" points="1025.87,-405.5 1035.87,-402 1025.87,-398.5 1025.87,-405.5"/>
</g>
<!-- Node31&#45;&gt;Node23 -->
<g id="edge35" class="edge"><title>Node31&#45;&gt;Node23</title>
<path fill="none" stroke="midnightblue" d="M822.075,-918.621C875.308,-922.938 952.565,-919.863 1000,-876 1068.61,-812.553 1098.24,-503.773 1104.96,-421.938"/>
<polygon fill="midnightblue" stroke="midnightblue" points="1108.49,-421.813 1105.79,-411.567 1101.51,-421.256 1108.49,-421.813"/>
</g>
<!-- Node33&#45;&gt;Node12 -->
<g id="edge39" class="edge"><title>Node33&#45;&gt;Node12</title>
<path fill="none" stroke="midnightblue" d="M653.373,-198.979C666.831,-197.488 681.081,-195.909 694.663,-194.405"/>
<polygon fill="midnightblue" stroke="midnightblue" points="695.342,-197.851 704.896,-193.271 694.572,-190.893 695.342,-197.851"/>
</g>
<!-- Node35 -->
<g id="node35" class="node"><title>Node35</title>
<g id="a_node35"><a xlink:href="$classLinux_1_1Semaphore.html#afc4c8706abb7e68aa4001ea372dc614e" xlink:title="Linux::Semaphore::take">
<polygon fill="white" stroke="black" points="702.5,-653.5 702.5,-672.5 822.5,-672.5 822.5,-653.5 702.5,-653.5"/>
<text text-anchor="middle" x="762.5" y="-660.5" font-family="Helvetica,sans-Serif" font-size="10.00">Linux::Semaphore::take</text>
</a>
</g>
</g>
<!-- Node34&#45;&gt;Node35 -->
<g id="edge41" class="edge"><title>Node34&#45;&gt;Node35</title>
<path fill="none" stroke="midnightblue" d="M655.326,-660.524C667.38,-660.805 680.006,-661.099 692.174,-661.383"/>
<polygon fill="midnightblue" stroke="midnightblue" points="692.186,-664.884 702.265,-661.618 692.349,-657.886 692.186,-664.884"/>
</g>
<!-- Node35&#45;&gt;Node2 -->
<g id="edge43" class="edge"><title>Node35&#45;&gt;Node2</title>
<path fill="none" stroke="midnightblue" d="M751.384,-672.669C733.607,-688.914 694.851,-721.076 655,-733 528.965,-770.711 476.327,-792.509 359,-733 227.416,-666.26 151.434,-488.097 129.322,-429.199"/>
<polygon fill="midnightblue" stroke="midnightblue" points="132.547,-427.827 125.819,-419.643 125.975,-430.237 132.547,-427.827"/>
</g>
<!-- Node35&#45;&gt;Node10 -->
<g id="edge44" class="edge"><title>Node35&#45;&gt;Node10</title>
<path fill="none" stroke="midnightblue" d="M772.511,-672.874C786.719,-688.752 814.693,-721.296 834,-752 853.47,-782.961 843.12,-801.198 870,-826 871.71,-827.577 873.53,-829.06 875.435,-830.452"/>
<polygon fill="midnightblue" stroke="midnightblue" points="873.913,-833.63 884.24,-835.997 877.643,-827.707 873.913,-833.63"/>
</g>
<!-- Node36 -->
<g id="node36" class="node"><title>Node36</title>
<g id="a_node36"><a xlink:href="$classLinux_1_1Semaphore.html#a561b4f40f3a76335f1a686c2aed526f9" xlink:title="Linux::Semaphore::take\l_nonblocking">
<polygon fill="white" stroke="black" points="875,-648 875,-678 995,-678 995,-648 875,-648"/>
<text text-anchor="start" x="883" y="-666" font-family="Helvetica,sans-Serif" font-size="10.00">Linux::Semaphore::take</text>
<text text-anchor="middle" x="935" y="-655" font-family="Helvetica,sans-Serif" font-size="10.00">_nonblocking</text>
</a>
</g>
</g>
<!-- Node35&#45;&gt;Node36 -->
<g id="edge42" class="edge"><title>Node35&#45;&gt;Node36</title>
<path fill="none" stroke="midnightblue" d="M822.654,-663C836.276,-663 850.881,-663 864.884,-663"/>
<polygon fill="midnightblue" stroke="midnightblue" points="864.95,-666.5 874.95,-663 864.95,-659.5 864.95,-666.5"/>
</g>
<!-- Node38 -->
<g id="node38" class="node"><title>Node38</title>
<g id="a_node38"><a xlink:href="$classLinux_1_1Semaphore.html#a216f91636f64b57b59d43ef64af91624" xlink:title="Linux::Semaphore::give">
<polygon fill="white" stroke="black" points="703,-555.5 703,-574.5 822,-574.5 822,-555.5 703,-555.5"/>
<text text-anchor="middle" x="762.5" y="-562.5" font-family="Helvetica,sans-Serif" font-size="10.00">Linux::Semaphore::give</text>
</a>
</g>
</g>
<!-- Node37&#45;&gt;Node38 -->
<g id="edge46" class="edge"><title>Node37&#45;&gt;Node38</title>
<path fill="none" stroke="midnightblue" d="M647.584,-535.11C669.661,-540.902 694.54,-547.43 715.404,-552.905"/>
<polygon fill="midnightblue" stroke="midnightblue" points="714.732,-556.347 725.293,-555.5 716.509,-549.576 714.732,-556.347"/>
</g>
<!-- Node41&#45;&gt;Node5 -->
<g id="edge50" class="edge"><title>Node41&#45;&gt;Node5</title>
<path fill="none" stroke="midnightblue" d="M454.08,-723.04C484.155,-738.078 530.059,-761.03 559.547,-775.773"/>
<polygon fill="midnightblue" stroke="midnightblue" points="558.362,-779.094 568.871,-780.436 561.492,-772.833 558.362,-779.094"/>
</g>
<!-- Node42 -->
<g id="node42" class="node"><title>Node42</title>
<g id="a_node42"><a xlink:href="$classLinux_1_1Scheduler.html#ac52c8da3f1f4fd79c50bd64379daf399" xlink:title="Linux::Scheduler::\l_wait_all_threads">
<polygon fill="white" stroke="black" points="541.5,-693 541.5,-723 636.5,-723 636.5,-693 541.5,-693"/>
<text text-anchor="start" x="549.5" y="-711" font-family="Helvetica,sans-Serif" font-size="10.00">Linux::Scheduler::</text>
<text text-anchor="middle" x="589" y="-700" font-family="Helvetica,sans-Serif" font-size="10.00">_wait_all_threads</text>
</a>
</g>
</g>
<!-- Node41&#45;&gt;Node42 -->
<g id="edge51" class="edge"><title>Node41&#45;&gt;Node42</title>
<path fill="none" stroke="midnightblue" d="M487.407,-708C501.84,-708 517.085,-708 531.222,-708"/>
<polygon fill="midnightblue" stroke="midnightblue" points="531.293,-711.5 541.293,-708 531.293,-704.5 531.293,-711.5"/>
</g>
<!-- Node45 -->
<g id="node45" class="node"><title>Node45</title>
<g id="a_node45"><a xlink:href="$classLinux_1_1Scheduler.html#a70b024d7d0886bf47b46cc3ee310d638" xlink:title="Linux::Scheduler::\l_run_io">
<polygon fill="white" stroke="black" points="541.5,-595 541.5,-625 636.5,-625 636.5,-595 541.5,-595"/>
<text text-anchor="start" x="549.5" y="-613" font-family="Helvetica,sans-Serif" font-size="10.00">Linux::Scheduler::</text>
<text text-anchor="middle" x="589" y="-602" font-family="Helvetica,sans-Serif" font-size="10.00">_run_io</text>
</a>
</g>
</g>
<!-- Node44&#45;&gt;Node45 -->
<g id="edge54" class="edge"><title>Node44&#45;&gt;Node45</title>
<path fill="none" stroke="midnightblue" d="M480.439,-616.559C496.86,-615.557 514.799,-614.463 531.239,-613.461"/>
<polygon fill="midnightblue" stroke="midnightblue" points="531.486,-616.953 541.255,-612.85 531.06,-609.966 531.486,-616.953"/>
</g>
<!-- Node45&#45;&gt;Node35 -->
<g id="edge55" class="edge"><title>Node45&#45;&gt;Node35</title>
<path fill="none" stroke="midnightblue" d="M636.863,-624.482C663.217,-632.627 695.787,-642.692 721.023,-650.491"/>
<polygon fill="midnightblue" stroke="midnightblue" points="720.066,-653.859 730.654,-653.467 722.133,-647.171 720.066,-653.859"/>
</g>
<!-- Node45&#45;&gt;Node38 -->
<g id="edge56" class="edge"><title>Node45&#45;&gt;Node38</title>
<path fill="none" stroke="midnightblue" d="M636.863,-597.704C661.27,-591.3 691.008,-583.496 715.315,-577.118"/>
<polygon fill="midnightblue" stroke="midnightblue" points="716.24,-580.494 725.024,-574.571 714.463,-573.724 716.24,-580.494"/>
</g>
<!-- Node47&#45;&gt;Node21 -->
<g id="edge61" class="edge"><title>Node47&#45;&gt;Node21</title>
<path fill="none" stroke="midnightblue" d="M288.066,-210.426C349.177,-184.809 527.326,-120.673 655,-182 680.603,-194.298 727.726,-262.991 749.674,-296.547"/>
<polygon fill="midnightblue" stroke="midnightblue" points="747.016,-298.881 755.392,-305.369 752.89,-295.074 747.016,-298.881"/>
</g>
<!-- Node49&#45;&gt;Node5 -->
<g id="edge65" class="edge"><title>Node49&#45;&gt;Node5</title>
<path fill="none" stroke="midnightblue" d="M142.333,-795.703C159.531,-800.334 185.176,-806.495 208,-809 325.029,-821.847 463.299,-807.595 536.505,-797.751"/>
<polygon fill="midnightblue" stroke="midnightblue" points="537.392,-801.162 546.823,-796.334 536.44,-794.227 537.392,-801.162"/>
</g>
<!-- Node49&#45;&gt;Node46 -->
<g id="edge66" class="edge"><title>Node49&#45;&gt;Node46</title>
<path fill="none" stroke="midnightblue" d="M142.244,-790C163.302,-790 197.239,-790 224.02,-790"/>
<polygon fill="midnightblue" stroke="midnightblue" points="224.261,-793.5 234.261,-790 224.261,-786.5 224.261,-793.5"/>
</g>
</g>
</svg>
