<?xml version="1.0" encoding="UTF-8" standalone="no"?>
<!DOCTYPE svg PUBLIC "-//W3C//DTD SVG 1.1//EN"
 "http://www.w3.org/Graphics/SVG/1.1/DTD/svg11.dtd">
<!-- Generated by graphviz version 2.38.0 (20140413.2041)
 -->
<!-- Title: setup Pages: 1 -->
<svg width="506pt" height="143pt"
 viewBox="0.00 0.00 506.00 142.50" xmlns="http://www.w3.org/2000/svg" xmlns:xlink="http://www.w3.org/1999/xlink">
<g id="graph0" class="graph" transform="scale(1 1) rotate(0) translate(4 138.5)">
<title>setup</title>
<polygon fill="white" stroke="none" points="-4,4 -4,-138.5 502,-138.5 502,4 -4,4"/>
<!-- Node1 -->
<g id="node1" class="node"><title>Node1</title>
<polygon fill="#bfbfbf" stroke="black" points="0,-19.5 0,-38.5 41,-38.5 41,-19.5 0,-19.5"/>
<text text-anchor="middle" x="20.5" y="-26.5" font-family="Helvetica,sans-Serif" font-size="10.00">setup</text>
</g>
<!-- Node2 -->
<g id="node2" class="node"><title>Node2</title>
<g id="a_node2"><a xlink:href="$namespaceAP__HAL.html#a71832f03d849a0c088f04fc98d3c8143" xlink:title="AP_HAL::panic">
<polygon fill="white" stroke="black" points="77,-38.5 77,-57.5 161,-57.5 161,-38.5 77,-38.5"/>
<text text-anchor="middle" x="119" y="-45.5" font-family="Helvetica,sans-Serif" font-size="10.00">AP_HAL::panic</text>
</a>
</g>
</g>
<!-- Node1&#45;&gt;Node2 -->
<g id="edge1" class="edge"><title>Node1&#45;&gt;Node2</title>
<path fill="none" stroke="midnightblue" d="M41.0282,-32.8449C48.6318,-34.342 57.7315,-36.1337 66.9677,-37.9522"/>
<polygon fill="midnightblue" stroke="midnightblue" points="66.4913,-41.4255 76.9791,-39.9233 67.8437,-34.5574 66.4913,-41.4255"/>
</g>
<!-- Node8 -->
<g id="node8" class="node"><title>Node8</title>
<g id="a_node8"><a xlink:href="$VibTest_8cpp.html#af4d87c440401144eecd669ad5d31325a" xlink:title="DataFlash">
<polygon fill="white" stroke="black" points="88,-0.5 88,-19.5 150,-19.5 150,-0.5 88,-0.5"/>
<text text-anchor="middle" x="119" y="-7.5" font-family="Helvetica,sans-Serif" font-size="10.00">DataFlash</text>
</a>
</g>
</g>
<!-- Node1&#45;&gt;Node8 -->
<g id="edge7" class="edge"><title>Node1&#45;&gt;Node8</title>
<path fill="none" stroke="midnightblue" d="M41.0282,-25.1551C51.6316,-23.0674 65.1445,-20.4068 77.8795,-17.8994"/>
<polygon fill="midnightblue" stroke="midnightblue" points="78.72,-21.3012 87.8555,-15.9352 77.3677,-14.433 78.72,-21.3012"/>
</g>
<!-- Node3 -->
<g id="node3" class="node"><title>Node3</title>
<g id="a_node3"><a xlink:href="$classAP__HAL_1_1RCInput.html#a2bea13d38f2b9ae8bf5193a3a69f0a31" xlink:title="AP_HAL::RCInput::teardown">
<polygon fill="white" stroke="black" points="197,-60.5 197,-79.5 340,-79.5 340,-60.5 197,-60.5"/>
<text text-anchor="middle" x="268.5" y="-67.5" font-family="Helvetica,sans-Serif" font-size="10.00">AP_HAL::RCInput::teardown</text>
</a>
</g>
</g>
<!-- Node2&#45;&gt;Node3 -->
<g id="edge2" class="edge"><title>Node2&#45;&gt;Node3</title>
<path fill="none" stroke="midnightblue" d="M161.087,-54.1282C171.203,-55.637 182.346,-57.2991 193.497,-58.9623"/>
<polygon fill="midnightblue" stroke="midnightblue" points="193.304,-62.4721 203.711,-60.4857 194.337,-55.5487 193.304,-62.4721"/>
</g>
<!-- Node7 -->
<g id="node7" class="node"><title>Node7</title>
<g id="a_node7"><a xlink:href="$classAP__HAL_1_1Scheduler.html#a78c4f1b1f192ac1c99544b6cc8f099b0" xlink:title="AP_HAL::Scheduler::\ldelay_microseconds">
<polygon fill="white" stroke="black" points="213.5,-11 213.5,-41 323.5,-41 323.5,-11 213.5,-11"/>
<text text-anchor="start" x="221.5" y="-29" font-family="Helvetica,sans-Serif" font-size="10.00">AP_HAL::Scheduler::</text>
<text text-anchor="middle" x="268.5" y="-18" font-family="Helvetica,sans-Serif" font-size="10.00">delay_microseconds</text>
</a>
</g>
</g>
<!-- Node2&#45;&gt;Node7 -->
<g id="edge6" class="edge"><title>Node2&#45;&gt;Node7</title>
<path fill="none" stroke="midnightblue" d="M161.087,-41.8718C174.12,-39.9279 188.858,-37.7297 203.121,-35.6023"/>
<polygon fill="midnightblue" stroke="midnightblue" points="204.017,-39.0075 213.391,-34.0705 202.984,-32.0841 204.017,-39.0075"/>
</g>
<!-- Node4 -->
<g id="node4" class="node"><title>Node4</title>
<g id="a_node4"><a xlink:href="$classAP__HAL_1_1RCInput.html#aee1fade33080edef83dd7db0fad0f7da" xlink:title="AP_HAL::RCInput::new\l_input">
<polygon fill="white" stroke="black" points="376,-104 376,-134 498,-134 498,-104 376,-104"/>
<text text-anchor="start" x="384" y="-122" font-family="Helvetica,sans-Serif" font-size="10.00">AP_HAL::RCInput::new</text>
<text text-anchor="middle" x="437" y="-111" font-family="Helvetica,sans-Serif" font-size="10.00">_input</text>
</a>
</g>
</g>
<!-- Node3&#45;&gt;Node4 -->
<g id="edge3" class="edge"><title>Node3&#45;&gt;Node4</title>
<path fill="none" stroke="midnightblue" d="M301.998,-79.564C322.801,-85.6863 350.442,-93.8208 375.214,-101.111"/>
<polygon fill="midnightblue" stroke="midnightblue" points="374.324,-104.497 384.905,-103.963 376.3,-97.7821 374.324,-104.497"/>
</g>
<!-- Node5 -->
<g id="node5" class="node"><title>Node5</title>
<g id="a_node5"><a xlink:href="$classAP__HAL_1_1RCInput.html#ae55f959c6115c1f41783af3a2b6c4fcd" xlink:title="AP_HAL::RCInput::num\l_channels">
<polygon fill="white" stroke="black" points="376,-55 376,-85 498,-85 498,-55 376,-55"/>
<text text-anchor="start" x="384" y="-73" font-family="Helvetica,sans-Serif" font-size="10.00">AP_HAL::RCInput::num</text>
<text text-anchor="middle" x="437" y="-62" font-family="Helvetica,sans-Serif" font-size="10.00">_channels</text>
</a>
</g>
</g>
<!-- Node3&#45;&gt;Node5 -->
<g id="edge4" class="edge"><title>Node3&#45;&gt;Node5</title>
<path fill="none" stroke="midnightblue" d="M340.111,-70C348.555,-70 357.176,-70 365.616,-70"/>
<polygon fill="midnightblue" stroke="midnightblue" points="365.798,-73.5001 375.798,-70 365.798,-66.5001 365.798,-73.5001"/>
</g>
<!-- Node6 -->
<g id="node6" class="node"><title>Node6</title>
<g id="a_node6"><a xlink:href="$classAP__HAL_1_1RCInput.html#a078fd7e6d2e6a899009ec674a8e03498" xlink:title="AP_HAL::RCInput::read">
<polygon fill="white" stroke="black" points="376,-16.5 376,-35.5 498,-35.5 498,-16.5 376,-16.5"/>
<text text-anchor="middle" x="437" y="-23.5" font-family="Helvetica,sans-Serif" font-size="10.00">AP_HAL::RCInput::read</text>
</a>
</g>
</g>
<!-- Node3&#45;&gt;Node6 -->
<g id="edge5" class="edge"><title>Node3&#45;&gt;Node6</title>
<path fill="none" stroke="midnightblue" d="M305.628,-60.4527C330.392,-53.9084 363.451,-45.1722 390.081,-38.1346"/>
<polygon fill="midnightblue" stroke="midnightblue" points="391.169,-41.4676 399.942,-35.5287 389.38,-34.6999 391.169,-41.4676"/>
</g>
</g>
</svg>
