<?xml version="1.0" encoding="UTF-8" standalone="no"?>
<!DOCTYPE svg PUBLIC "-//W3C//DTD SVG 1.1//EN"
 "http://www.w3.org/Graphics/SVG/1.1/DTD/svg11.dtd">
<!-- Generated by graphviz version 2.38.0 (20140413.2041)
 -->
<!-- Title: libraries/AP_WheelEncoder/WheelEncoder_Backend.h Pages: 1 -->
<svg width="395pt" height="173pt"
 viewBox="0.00 0.00 395.00 173.00" xmlns="http://www.w3.org/2000/svg" xmlns:xlink="http://www.w3.org/1999/xlink">
<g id="graph0" class="graph" transform="scale(1 1) rotate(0) translate(4 169)">
<title>libraries/AP_WheelEncoder/WheelEncoder_Backend.h</title>
<polygon fill="white" stroke="none" points="-4,4 -4,-169 391,-169 391,4 -4,4"/>
<!-- Node1 -->
<g id="node1" class="node"><title>Node1</title>
<polygon fill="#bfbfbf" stroke="black" points="164,-134.5 164,-164.5 300,-164.5 300,-134.5 164,-134.5"/>
<text text-anchor="start" x="172" y="-152.5" font-family="Helvetica,sans-Serif" font-size="10.00">libraries/AP_WheelEncoder</text>
<text text-anchor="middle" x="232" y="-141.5" font-family="Helvetica,sans-Serif" font-size="10.00">/WheelEncoder_Backend.h</text>
</g>
<!-- Node2 -->
<g id="node2" class="node"><title>Node2</title>
<g id="a_node2"><a xlink:href="$WheelEncoder__Quadrature_8h.html" xlink:title="libraries/AP_WheelEncoder\l/WheelEncoder_Quadrature.h">
<polygon fill="white" stroke="black" points="77.5,-67.5 77.5,-97.5 222.5,-97.5 222.5,-67.5 77.5,-67.5"/>
<text text-anchor="start" x="85.5" y="-85.5" font-family="Helvetica,sans-Serif" font-size="10.00">libraries/AP_WheelEncoder</text>
<text text-anchor="middle" x="150" y="-74.5" font-family="Helvetica,sans-Serif" font-size="10.00">/WheelEncoder_Quadrature.h</text>
</a>
</g>
</g>
<!-- Node1&#45;&gt;Node2 -->
<g id="edge1" class="edge"><title>Node1&#45;&gt;Node2</title>
<path fill="none" stroke="midnightblue" d="M206.35,-128.168C193.811,-118.228 179.034,-106.514 167.758,-97.5765"/>
<polygon fill="midnightblue" stroke="midnightblue" points="204.196,-130.927 214.207,-134.396 208.545,-125.441 204.196,-130.927"/>
</g>
<!-- Node5 -->
<g id="node5" class="node"><title>Node5</title>
<g id="a_node5"><a xlink:href="$WheelEncoder__Backend_8cpp.html" xlink:title="libraries/AP_WheelEncoder\l/WheelEncoder_Backend.cpp">
<polygon fill="white" stroke="black" points="241,-67.5 241,-97.5 387,-97.5 387,-67.5 241,-67.5"/>
<text text-anchor="start" x="249" y="-85.5" font-family="Helvetica,sans-Serif" font-size="10.00">libraries/AP_WheelEncoder</text>
<text text-anchor="middle" x="314" y="-74.5" font-family="Helvetica,sans-Serif" font-size="10.00">/WheelEncoder_Backend.cpp</text>
</a>
</g>
</g>
<!-- Node1&#45;&gt;Node5 -->
<g id="edge4" class="edge"><title>Node1&#45;&gt;Node5</title>
<path fill="none" stroke="midnightblue" d="M257.65,-128.168C270.189,-118.228 284.966,-106.514 296.242,-97.5765"/>
<polygon fill="midnightblue" stroke="midnightblue" points="255.455,-125.441 249.793,-134.396 259.804,-130.927 255.455,-125.441"/>
</g>
<!-- Node3 -->
<g id="node3" class="node"><title>Node3</title>
<g id="a_node3"><a xlink:href="$AP__WheelEncoder_8cpp.html" xlink:title="libraries/AP_WheelEncoder\l/AP_WheelEncoder.cpp">
<polygon fill="white" stroke="black" points="0,-0.5 0,-30.5 136,-30.5 136,-0.5 0,-0.5"/>
<text text-anchor="start" x="8" y="-18.5" font-family="Helvetica,sans-Serif" font-size="10.00">libraries/AP_WheelEncoder</text>
<text text-anchor="middle" x="68" y="-7.5" font-family="Helvetica,sans-Serif" font-size="10.00">/AP_WheelEncoder.cpp</text>
</a>
</g>
</g>
<!-- Node2&#45;&gt;Node3 -->
<g id="edge2" class="edge"><title>Node2&#45;&gt;Node3</title>
<path fill="none" stroke="midnightblue" d="M124.35,-61.1677C111.811,-51.2283 97.0336,-39.5144 85.7581,-30.5765"/>
<polygon fill="midnightblue" stroke="midnightblue" points="122.196,-63.9268 132.207,-67.396 126.545,-58.4412 122.196,-63.9268"/>
</g>
<!-- Node4 -->
<g id="node4" class="node"><title>Node4</title>
<g id="a_node4"><a xlink:href="$WheelEncoder__Quadrature_8cpp.html" xlink:title="libraries/AP_WheelEncoder\l/WheelEncoder_Quadrature.cpp">
<polygon fill="white" stroke="black" points="154.5,-0.5 154.5,-30.5 309.5,-30.5 309.5,-0.5 154.5,-0.5"/>
<text text-anchor="start" x="162.5" y="-18.5" font-family="Helvetica,sans-Serif" font-size="10.00">libraries/AP_WheelEncoder</text>
<text text-anchor="middle" x="232" y="-7.5" font-family="Helvetica,sans-Serif" font-size="10.00">/WheelEncoder_Quadrature.cpp</text>
</a>
</g>
</g>
<!-- Node2&#45;&gt;Node4 -->
<g id="edge3" class="edge"><title>Node2&#45;&gt;Node4</title>
<path fill="none" stroke="midnightblue" d="M175.65,-61.1677C188.189,-51.2283 202.966,-39.5144 214.242,-30.5765"/>
<polygon fill="midnightblue" stroke="midnightblue" points="173.455,-58.4412 167.793,-67.396 177.804,-63.9268 173.455,-58.4412"/>
</g>
</g>
</svg>
